<?xml version="1.0" encoding="UTF-8" standalone="no"?><svg xmlns="http://www.w3.org/2000/svg" xmlns:xlink="http://www.w3.org/1999/xlink" contentStyleType="text/css" height="1187px" preserveAspectRatio="none" style="width:2137px;height:1187px;background:#FFFFFF;" version="1.1" viewBox="0 0 2137 1187" width="2137px" zoomAndPan="magnify"><defs/><g><text fill="#000000" font-family="sans-serif" font-size="14" font-weight="bold" lengthAdjust="spacing" textLength="321" x="909.75" y="27.9951">Doctor Operation Request Flow - Level 2</text><rect fill="#FFFFFF" height="917.0313" style="stroke:#181818;stroke-width:1.0;" width="10" x="342" y="164.8594"/><rect fill="#FFFFFF" height="819.1875" style="stroke:#181818;stroke-width:1.0;" width="10" x="698" y="225.4219"/><rect fill="#FFFFFF" height="744.625" style="stroke:#181818;stroke-width:1.0;" width="10" x="1083" y="262.7031"/><line style="stroke:#181818;stroke-width:0.5;stroke-dasharray:5.0,5.0;" x1="41" x2="41" y1="125.5781" y2="1099.8906"/><line style="stroke:#181818;stroke-width:0.5;stroke-dasharray:5.0,5.0;" x1="346.5" x2="346.5" y1="125.5781" y2="1099.8906"/><line style="stroke:#181818;stroke-width:0.5;stroke-dasharray:5.0,5.0;" x1="703" x2="703" y1="125.5781" y2="1099.8906"/><line style="stroke:#181818;stroke-width:0.5;stroke-dasharray:5.0,5.0;" x1="1088" x2="1088" y1="125.5781" y2="1099.8906"/><line style="stroke:#181818;stroke-width:0.5;stroke-dasharray:5.0,5.0;" x1="1395" x2="1395" y1="125.5781" y2="1099.8906"/><line style="stroke:#181818;stroke-width:0.5;stroke-dasharray:5.0,5.0;" x1="1551" x2="1551" y1="125.5781" y2="1099.8906"/><line style="stroke:#181818;stroke-width:0.5;stroke-dasharray:5.0,5.0;" x1="1721" x2="1721" y1="125.5781" y2="1099.8906"/><line style="stroke:#181818;stroke-width:0.5;stroke-dasharray:5.0,5.0;" x1="1882" x2="1882" y1="125.5781" y2="1099.8906"/><line style="stroke:#181818;stroke-width:0.5;stroke-dasharray:5.0,5.0;" x1="2086.5" x2="2086.5" y1="125.5781" y2="1099.8906"/><text fill="#000000" font-family="sans-serif" font-size="20" lengthAdjust="spacing" textLength="66" x="5" y="120.8613">Doctor</text><ellipse cx="41" cy="50.7969" fill="#E2E2F0" rx="8" ry="8" style="stroke:#181818;stroke-width:0.5;"/><path d="M41,58.7969 L41,85.7969 M28,66.7969 L54,66.7969 M41,85.7969 L28,100.7969 M41,85.7969 L54,100.7969 " fill="none" style="stroke:#181818;stroke-width:0.5;"/><text fill="#000000" font-family="sans-serif" font-size="20" lengthAdjust="spacing" textLength="66" x="5" y="1117.4551">Doctor</text><ellipse cx="41" cy="1130.6719" fill="#E2E2F0" rx="8" ry="8" style="stroke:#181818;stroke-width:0.5;"/><path d="M41,1138.6719 L41,1165.6719 M28,1146.6719 L54,1146.6719 M41,1165.6719 L28,1180.6719 M41,1165.6719 L54,1180.6719 " fill="none" style="stroke:#181818;stroke-width:0.5;"/><rect fill="#E2E2F0" height="37.2813" rx="2.5" ry="2.5" style="stroke:#181818;stroke-width:0.5;" width="105" x="294.5" y="87.2969"/><text fill="#000000" font-family="sans-serif" font-size="20" lengthAdjust="spacing" textLength="91" x="301.5" y="112.8613">Frontend</text><rect fill="#E2E2F0" height="37.2813" rx="2.5" ry="2.5" style="stroke:#181818;stroke-width:0.5;" width="105" x="294.5" y="1098.8906"/><text fill="#000000" font-family="sans-serif" font-size="20" lengthAdjust="spacing" textLength="91" x="301.5" y="1124.4551">Frontend</text><rect fill="#E2E2F0" height="60.5625" rx="2.5" ry="2.5" style="stroke:#181818;stroke-width:0.5;" width="196" x="605" y="64.0156"/><text fill="#000000" font-family="sans-serif" font-size="20" lengthAdjust="spacing" textLength="182" x="612" y="89.5801">OperationRequest</text><text fill="#000000" font-family="sans-serif" font-size="20" lengthAdjust="spacing" textLength="99" x="653.5" y="112.8613">Controller</text><rect fill="#E2E2F0" height="60.5625" rx="2.5" ry="2.5" style="stroke:#181818;stroke-width:0.5;" width="196" x="605" y="1098.8906"/><text fill="#000000" font-family="sans-serif" font-size="20" lengthAdjust="spacing" textLength="182" x="612" y="1124.4551">OperationRequest</text><text fill="#000000" font-family="sans-serif" font-size="20" lengthAdjust="spacing" textLength="99" x="653.5" y="1147.7363">Controller</text><rect fill="#E2E2F0" height="60.5625" rx="2.5" ry="2.5" style="stroke:#181818;stroke-width:0.5;" width="196" x="990" y="64.0156"/><text fill="#000000" font-family="sans-serif" font-size="20" lengthAdjust="spacing" textLength="182" x="997" y="89.5801">OperationRequest</text><text fill="#000000" font-family="sans-serif" font-size="20" lengthAdjust="spacing" textLength="73" x="1051.5" y="112.8613">Service</text><rect fill="#E2E2F0" height="60.5625" rx="2.5" ry="2.5" style="stroke:#181818;stroke-width:0.5;" width="196" x="990" y="1098.8906"/><text fill="#000000" font-family="sans-serif" font-size="20" lengthAdjust="spacing" textLength="182" x="997" y="1124.4551">OperationRequest</text><text fill="#000000" font-family="sans-serif" font-size="20" lengthAdjust="spacing" textLength="73" x="1051.5" y="1147.7363">Service</text><rect fill="#E2E2F0" height="37.2813" rx="2.5" ry="2.5" style="stroke:#181818;stroke-width:0.5;" width="134" x="1328" y="87.2969"/><text fill="#000000" font-family="sans-serif" font-size="20" lengthAdjust="spacing" textLength="120" x="1335" y="112.8613">StaffService</text><rect fill="#E2E2F0" height="37.2813" rx="2.5" ry="2.5" style="stroke:#181818;stroke-width:0.5;" width="134" x="1328" y="1098.8906"/><text fill="#000000" font-family="sans-serif" font-size="20" lengthAdjust="spacing" textLength="120" x="1335" y="1124.4551">StaffService</text><rect fill="#E2E2F0" height="37.2813" rx="2.5" ry="2.5" style="stroke:#181818;stroke-width:0.5;" width="158" x="1472" y="87.2969"/><text fill="#000000" font-family="sans-serif" font-size="20" lengthAdjust="spacing" textLength="144" x="1479" y="112.8613">PatientService</text><rect fill="#E2E2F0" height="37.2813" rx="2.5" ry="2.5" style="stroke:#181818;stroke-width:0.5;" width="158" x="1472" y="1098.8906"/><text fill="#000000" font-family="sans-serif" font-size="20" lengthAdjust="spacing" textLength="144" x="1479" y="1124.4551">PatientService</text><rect fill="#E2E2F0" height="60.5625" rx="2.5" ry="2.5" style="stroke:#181818;stroke-width:0.5;" width="162" x="1640" y="64.0156"/><text fill="#000000" font-family="sans-serif" font-size="20" lengthAdjust="spacing" textLength="148" x="1647" y="89.5801">OperationType</text><text fill="#000000" font-family="sans-serif" font-size="20" lengthAdjust="spacing" textLength="73" x="1684.5" y="112.8613">Service</text><rect fill="#E2E2F0" height="60.5625" rx="2.5" ry="2.5" style="stroke:#181818;stroke-width:0.5;" width="162" x="1640" y="1098.8906"/><text fill="#000000" font-family="sans-serif" font-size="20" lengthAdjust="spacing" textLength="148" x="1647" y="1124.4551">OperationType</text><text fill="#000000" font-family="sans-serif" font-size="20" lengthAdjust="spacing" textLength="73" x="1684.5" y="1147.7363">Service</text><rect fill="#E2E2F0" height="37.2813" rx="2.5" ry="2.5" style="stroke:#181818;stroke-width:0.5;" width="141" x="1812" y="87.2969"/><text fill="#000000" font-family="sans-serif" font-size="20" lengthAdjust="spacing" textLength="127" x="1819" y="112.8613">AuditService</text><rect fill="#E2E2F0" height="37.2813" rx="2.5" ry="2.5" style="stroke:#181818;stroke-width:0.5;" width="141" x="1812" y="1098.8906"/><text fill="#000000" font-family="sans-serif" font-size="20" lengthAdjust="spacing" textLength="127" x="1819" y="1124.4551">AuditService</text><text fill="#000000" font-family="sans-serif" font-size="20" lengthAdjust="spacing" textLength="94" x="2036.5" y="120.8613">Database</text><path d="M2068.5,66.2969 C2068.5,56.2969 2086.5,56.2969 2086.5,56.2969 C2086.5,56.2969 2104.5,56.2969 2104.5,66.2969 L2104.5,92.2969 C2104.5,102.2969 2086.5,102.2969 2086.5,102.2969 C2086.5,102.2969 2068.5,102.2969 2068.5,92.2969 L2068.5,66.2969 " fill="#E2E2F0" style="stroke:#181818;stroke-width:1.5;"/><path d="M2068.5,66.2969 C2068.5,76.2969 2086.5,76.2969 2086.5,76.2969 C2086.5,76.2969 2104.5,76.2969 2104.5,66.2969 " fill="none" style="stroke:#181818;stroke-width:1.5;"/><text fill="#000000" font-family="sans-serif" font-size="20" lengthAdjust="spacing" textLength="94" x="2036.5" y="1117.4551">Database</text><path d="M2068.5,1132.1719 C2068.5,1122.1719 2086.5,1122.1719 2086.5,1122.1719 C2086.5,1122.1719 2104.5,1122.1719 2104.5,1132.1719 L2104.5,1158.1719 C2104.5,1168.1719 2086.5,1168.1719 2086.5,1168.1719 C2086.5,1168.1719 2068.5,1168.1719 2068.5,1158.1719 L2068.5,1132.1719 " fill="#E2E2F0" style="stroke:#181818;stroke-width:1.5;"/><path d="M2068.5,1132.1719 C2068.5,1142.1719 2086.5,1142.1719 2086.5,1142.1719 C2086.5,1142.1719 2104.5,1142.1719 2104.5,1132.1719 " fill="none" style="stroke:#181818;stroke-width:1.5;"/><rect fill="#FFFFFF" height="917.0313" style="stroke:#181818;stroke-width:1.0;" width="10" x="342" y="164.8594"/><rect fill="#FFFFFF" height="819.1875" style="stroke:#181818;stroke-width:1.0;" width="10" x="698" y="225.4219"/><rect fill="#FFFFFF" height="744.625" style="stroke:#181818;stroke-width:1.0;" width="10" x="1083" y="262.7031"/><polygon fill="#181818" points="330,160.8594,340,164.8594,330,168.8594,334,164.8594" style="stroke:#181818;stroke-width:1.0;"/><line style="stroke:#181818;stroke-width:1.0;" x1="41" x2="336" y1="164.8594" y2="164.8594"/><text fill="#000000" font-family="sans-serif" font-size="20" lengthAdjust="spacing" textLength="282" x="48" y="158.1426">Fill Operation Request Form</text><polygon fill="#181818" points="686,221.4219,696,225.4219,686,229.4219,690,225.4219" style="stroke:#181818;stroke-width:1.0;"/><line style="stroke:#181818;stroke-width:1.0;" x1="352" x2="692" y1="225.4219" y2="225.4219"/><text fill="#000000" font-family="sans-serif" font-size="20" lengthAdjust="spacing" textLength="276" x="359" y="195.4238">POST /api/operationrequest</text><text fill="#000000" font-family="sans-serif" font-size="20" lengthAdjust="spacing" textLength="327" x="359" y="218.7051">(CreatingOperationRequestDTO)</text><polygon fill="#181818" points="1071,258.7031,1081,262.7031,1071,266.7031,1075,262.7031" style="stroke:#181818;stroke-width:1.0;"/><line style="stroke:#181818;stroke-width:1.0;" x1="708" x2="1077" y1="262.7031" y2="262.7031"/><text fill="#000000" font-family="sans-serif" font-size="20" lengthAdjust="spacing" textLength="356" x="715" y="255.9863">CreateOperationRequestAsync(dto)</text><polygon fill="#181818" points="1383,295.9844,1393,299.9844,1383,303.9844,1387,299.9844" style="stroke:#181818;stroke-width:1.0;"/><line style="stroke:#181818;stroke-width:1.0;" x1="1093" x2="1389" y1="299.9844" y2="299.9844"/><text fill="#000000" font-family="sans-serif" font-size="20" lengthAdjust="spacing" textLength="218" x="1100" y="293.2676">GetByIdAsync(staffId)</text><polygon fill="#181818" points="2074.5,333.2656,2084.5,337.2656,2074.5,341.2656,2078.5,337.2656" style="stroke:#181818;stroke-width:1.0;"/><line style="stroke:#181818;stroke-width:1.0;" x1="1395" x2="2080.5" y1="337.2656" y2="337.2656"/><text fill="#000000" font-family="sans-serif" font-size="20" lengthAdjust="spacing" textLength="204" x="1402" y="330.5488">SELECT FROM Staffs</text><polygon fill="#181818" points="1406,370.5469,1396,374.5469,1406,378.5469,1402,374.5469" style="stroke:#181818;stroke-width:1.0;"/><line style="stroke:#181818;stroke-width:1.0;stroke-dasharray:2.0,2.0;" x1="1400" x2="2085.5" y1="374.5469" y2="374.5469"/><text fill="#000000" font-family="sans-serif" font-size="20" lengthAdjust="spacing" textLength="100" x="1412" y="367.8301">Staff Data</text><polygon fill="#181818" points="1104,407.8281,1094,411.8281,1104,415.8281,1100,411.8281" style="stroke:#181818;stroke-width:1.0;"/><line style="stroke:#181818;stroke-width:1.0;stroke-dasharray:2.0,2.0;" x1="1098" x2="1394" y1="411.8281" y2="411.8281"/><text fill="#000000" font-family="sans-serif" font-size="20" lengthAdjust="spacing" textLength="122" x="1110" y="405.1113">Staff Details</text><polygon fill="#181818" points="1539,445.1094,1549,449.1094,1539,453.1094,1543,449.1094" style="stroke:#181818;stroke-width:1.0;"/><line style="stroke:#181818;stroke-width:1.0;" x1="1093" x2="1545" y1="449.1094" y2="449.1094"/><text fill="#000000" font-family="sans-serif" font-size="20" lengthAdjust="spacing" textLength="246" x="1100" y="442.3926">GetByIdAsync(patientId)</text><polygon fill="#181818" points="2074.5,482.3906,2084.5,486.3906,2074.5,490.3906,2078.5,486.3906" style="stroke:#181818;stroke-width:1.0;"/><line style="stroke:#181818;stroke-width:1.0;" x1="1551" x2="2080.5" y1="486.3906" y2="486.3906"/><text fill="#000000" font-family="sans-serif" font-size="20" lengthAdjust="spacing" textLength="228" x="1558" y="479.6738">SELECT FROM Patients</text><polygon fill="#181818" points="1562,519.6719,1552,523.6719,1562,527.6719,1558,523.6719" style="stroke:#181818;stroke-width:1.0;"/><line style="stroke:#181818;stroke-width:1.0;stroke-dasharray:2.0,2.0;" x1="1556" x2="2085.5" y1="523.6719" y2="523.6719"/><text fill="#000000" font-family="sans-serif" font-size="20" lengthAdjust="spacing" textLength="124" x="1568" y="516.9551">Patient Data</text><polygon fill="#181818" points="1104,556.9531,1094,560.9531,1104,564.9531,1100,560.9531" style="stroke:#181818;stroke-width:1.0;"/><line style="stroke:#181818;stroke-width:1.0;stroke-dasharray:2.0,2.0;" x1="1098" x2="1550" y1="560.9531" y2="560.9531"/><text fill="#000000" font-family="sans-serif" font-size="20" lengthAdjust="spacing" textLength="146" x="1110" y="554.2363">Patient Details</text><polygon fill="#181818" points="1709,594.2344,1719,598.2344,1709,602.2344,1713,598.2344" style="stroke:#181818;stroke-width:1.0;"/><line style="stroke:#181818;stroke-width:1.0;" x1="1093" x2="1715" y1="598.2344" y2="598.2344"/><text fill="#000000" font-family="sans-serif" font-size="20" lengthAdjust="spacing" textLength="318" x="1100" y="591.5176">GetByIdAsync(operationTypeId)</text><polygon fill="#181818" points="2074.5,631.5156,2084.5,635.5156,2074.5,639.5156,2078.5,635.5156" style="stroke:#181818;stroke-width:1.0;"/><line style="stroke:#181818;stroke-width:1.0;" x1="1721" x2="2080.5" y1="635.5156" y2="635.5156"/><text fill="#000000" font-family="sans-serif" font-size="20" lengthAdjust="spacing" textLength="305" x="1728" y="628.7988">SELECT FROM OperationTypes</text><polygon fill="#181818" points="1732,668.7969,1722,672.7969,1732,676.7969,1728,672.7969" style="stroke:#181818;stroke-width:1.0;"/><line style="stroke:#181818;stroke-width:1.0;stroke-dasharray:2.0,2.0;" x1="1726" x2="2085.5" y1="672.7969" y2="672.7969"/><text fill="#000000" font-family="sans-serif" font-size="20" lengthAdjust="spacing" textLength="201" x="1738" y="666.0801">OperationType Data</text><polygon fill="#181818" points="1104,706.0781,1094,710.0781,1104,714.0781,1100,710.0781" style="stroke:#181818;stroke-width:1.0;"/><line style="stroke:#181818;stroke-width:1.0;stroke-dasharray:2.0,2.0;" x1="1098" x2="1720" y1="710.0781" y2="710.0781"/><text fill="#000000" font-family="sans-serif" font-size="20" lengthAdjust="spacing" textLength="223" x="1110" y="703.3613">OperationType Details</text><line style="stroke:#181818;stroke-width:1.0;" x1="1093" x2="1135" y1="770.6406" y2="770.6406"/><line style="stroke:#181818;stroke-width:1.0;" x1="1135" x2="1135" y1="770.6406" y2="783.6406"/><line style="stroke:#181818;stroke-width:1.0;" x1="1094" x2="1135" y1="783.6406" y2="783.6406"/><polygon fill="#181818" points="1104,779.6406,1094,783.6406,1104,787.6406,1100,783.6406" style="stroke:#181818;stroke-width:1.0;"/><text fill="#000000" font-family="sans-serif" font-size="20" lengthAdjust="spacing" textLength="283" x="1100" y="740.6426">Validate Staff Specialization</text><text fill="#000000" font-family="sans-serif" font-size="20" lengthAdjust="spacing" textLength="243" x="1100" y="763.9238">Matches Operation Type</text><polygon fill="#181818" points="2074.5,816.9219,2084.5,820.9219,2074.5,824.9219,2078.5,820.9219" style="stroke:#181818;stroke-width:1.0;"/><line style="stroke:#181818;stroke-width:1.0;" x1="1093" x2="2080.5" y1="820.9219" y2="820.9219"/><text fill="#000000" font-family="sans-serif" font-size="20" lengthAdjust="spacing" textLength="326" x="1100" y="814.2051">INSERT INTO OperationRequests</text><polygon fill="#181818" points="1104,854.2031,1094,858.2031,1104,862.2031,1100,858.2031" style="stroke:#181818;stroke-width:1.0;"/><line style="stroke:#181818;stroke-width:1.0;stroke-dasharray:2.0,2.0;" x1="1098" x2="2085.5" y1="858.2031" y2="858.2031"/><text fill="#000000" font-family="sans-serif" font-size="20" lengthAdjust="spacing" textLength="209" x="1110" y="851.4863">OperationRequest ID</text><polygon fill="#181818" points="1870.5,891.4844,1880.5,895.4844,1870.5,899.4844,1874.5,895.4844" style="stroke:#181818;stroke-width:1.0;"/><line style="stroke:#181818;stroke-width:1.0;" x1="1093" x2="1876.5" y1="895.4844" y2="895.4844"/><text fill="#000000" font-family="sans-serif" font-size="20" lengthAdjust="spacing" textLength="418" x="1100" y="888.7676">LogAsync(new Log(TypeOfAction.Create))</text><polygon fill="#181818" points="2074.5,928.7656,2084.5,932.7656,2074.5,936.7656,2078.5,932.7656" style="stroke:#181818;stroke-width:1.0;"/><line style="stroke:#181818;stroke-width:1.0;" x1="1882.5" x2="2080.5" y1="932.7656" y2="932.7656"/><text fill="#000000" font-family="sans-serif" font-size="20" lengthAdjust="spacing" textLength="180" x="1889.5" y="926.0488">INSERT INTO Logs</text><polygon fill="#181818" points="1893.5,966.0469,1883.5,970.0469,1893.5,974.0469,1889.5,970.0469" style="stroke:#181818;stroke-width:1.0;"/><line style="stroke:#181818;stroke-width:1.0;stroke-dasharray:2.0,2.0;" x1="1887.5" x2="2085.5" y1="970.0469" y2="970.0469"/><text fill="#000000" font-family="sans-serif" font-size="20" lengthAdjust="spacing" textLength="63" x="1899.5" y="963.3301">Log ID</text><polygon fill="#181818" points="719,1003.3281,709,1007.3281,719,1011.3281,715,1007.3281" style="stroke:#181818;stroke-width:1.0;"/><line style="stroke:#181818;stroke-width:1.0;stroke-dasharray:2.0,2.0;" x1="713" x2="1087" y1="1007.3281" y2="1007.3281"/><text fill="#000000" font-family="sans-serif" font-size="20" lengthAdjust="spacing" textLength="225" x="725" y="1000.6113">OperationRequestDTO</text><polygon fill="#181818" points="363,1040.6094,353,1044.6094,363,1048.6094,359,1044.6094" style="stroke:#181818;stroke-width:1.0;"/><line style="stroke:#181818;stroke-width:1.0;stroke-dasharray:2.0,2.0;" x1="357" x2="702" y1="1044.6094" y2="1044.6094"/><text fill="#000000" font-family="sans-serif" font-size="20" lengthAdjust="spacing" textLength="124" x="369" y="1037.8926">201 Created</text><polygon fill="#181818" points="52,1077.8906,42,1081.8906,52,1085.8906,48,1081.8906" style="stroke:#181818;stroke-width:1.0;"/><line style="stroke:#181818;stroke-width:1.0;stroke-dasharray:2.0,2.0;" x1="46" x2="346" y1="1081.8906" y2="1081.8906"/><text fill="#000000" font-family="sans-serif" font-size="20" lengthAdjust="spacing" textLength="233" x="58" y="1075.1738">Show Success Message</text><!--SRC=[XLHBR-8m4BxxLuou50viMuuSLWg4h91W4-5eJxruau5QTUCqDbJqrwzV2KcMrLu2ySpty3oYtdXLiuQz2rcyOGab7jbPw4HMcl8lXCKJqLmBX5WMMZQGrjWmpMK51_muezAG2Fa9SzZX1GKi264kpwSJGwrvmMjMQPWaZM75gfm0Kv1iXi6EEF2-L6kJtKWXi760zB3-7u9YS-45XdGwJAUQ7O_z33fAo0mPccltKZBw3ydyMkD8Bn_bHkUI3yWYIagcsM-c42Pn-ESYyOgGKD_vTrEP9IHSY7krbisxBJ2_C8ssX2JPM8YfpHAobERmo6h-A5jWqrPckcxGd5IdST7YF9tT66sDYNbuJhe41yCnA5BNgfYMMWwWb907-CK4Bxrfgh5MXerQDch8Vg1UNRUbHolRZcqv8zJ5uzKIw6QtMUUG7D8zk6uf4gzW7j3k16pT7AHr68vHCouKQUMoiLpjcsi5ixk2eVkTf6K8PruqwubsWP6i6OAHhknFZ5KtAVVa1vFLcN1yWv3tuaXQCwDuQ-a1Q8q5D_tuylsujQQpQ-7X64CbXw2NQizqyOggDunMnj6p2_uzeostlU3s9zqSSlEJfp2UeTiT1tTe9tqRMma_Vk1M2NRor9971c9UVOah_BGlK-ihFKQ5fVdcaRCPYUwwCVcTWK3c91r_kr1tTeMKE9nujonXQHTFpy5nESnR-psrFjoMczQ_ceycFHS5AWLxys0dx6FCQly1]--></g></svg>