<?xml version="1.0" encoding="UTF-8" standalone="no"?><svg xmlns="http://www.w3.org/2000/svg" xmlns:xlink="http://www.w3.org/1999/xlink" contentStyleType="text/css" height="398px" preserveAspectRatio="none" style="width:1679px;height:398px;background:#FFFFFF;" version="1.1" viewBox="0 0 1679 398" width="1679px" zoomAndPan="magnify"><defs><filter height="300%" id="f860eq8jbmmk9" width="300%" x="-1" y="-1"><feGaussianBlur result="blurOut" stdDeviation="2.0"/><feColorMatrix in="blurOut" result="blurOut2" type="matrix" values="0 0 0 0 0 0 0 0 0 0 0 0 0 0 0 0 0 0 .4 0"/><feOffset dx="4.0" dy="4.0" in="blurOut2" result="blurOut3"/><feBlend in="SourceGraphic" in2="blurOut3" mode="normal"/></filter></defs><g><rect fill="#FFFFFF" filter="url(#f860eq8jbmmk9)" height="200.4063" style="stroke:#181818;stroke-width:1.0;" width="10" x="82.5" y="101.2813"/><rect fill="#FFFFFF" filter="url(#f860eq8jbmmk9)" height="162.125" style="stroke:#181818;stroke-width:1.0;" width="10" x="487.5" y="130.5625"/><rect fill="#FFFFFF" filter="url(#f860eq8jbmmk9)" height="87.5625" style="stroke:#181818;stroke-width:1.0;" width="10" x="892.5" y="167.8438"/><line style="stroke:#181818;stroke-width:0.5;stroke-dasharray:5.0,5.0;" x1="87" x2="87" y1="91.2813" y2="310.6875"/><line style="stroke:#181818;stroke-width:0.5;stroke-dasharray:5.0,5.0;" x1="492.5" x2="492.5" y1="91.2813" y2="310.6875"/><line style="stroke:#181818;stroke-width:0.5;stroke-dasharray:5.0,5.0;" x1="897.5" x2="897.5" y1="91.2813" y2="310.6875"/><text fill="#000000" font-family="FG Virgil" font-size="20" lengthAdjust="spacing" textLength="159" x="5" y="86.5645">Backoffice_User</text><ellipse cx="87.5" cy="13.5" fill="#E2E2F0" filter="url(#f860eq8jbmmk9)" rx="8" ry="8" style="stroke:#181818;stroke-width:0.5;"/><path d="M87.5,21.5 L87.5,48.5 M74.5,29.5 L100.5,29.5 M87.5,48.5 L74.5,63.5 M87.5,48.5 L100.5,63.5 " fill="none" filter="url(#f860eq8jbmmk9)" style="stroke:#181818;stroke-width:0.5;"/><text fill="#000000" font-family="FG Virgil" font-size="20" lengthAdjust="spacing" textLength="159" x="5" y="328.252">Backoffice_User</text><ellipse cx="87.5" cy="341.4688" fill="#E2E2F0" filter="url(#f860eq8jbmmk9)" rx="8" ry="8" style="stroke:#181818;stroke-width:0.5;"/><path d="M87.5,349.4688 L87.5,376.4688 M74.5,357.4688 L100.5,357.4688 M87.5,376.4688 L74.5,391.4688 M87.5,376.4688 L100.5,391.4688 " fill="none" filter="url(#f860eq8jbmmk9)" style="stroke:#181818;stroke-width:0.5;"/><rect fill="#E2E2F0" filter="url(#f860eq8jbmmk9)" height="37.2813" rx="2.5" ry="2.5" style="stroke:#181818;stroke-width:0.5;" width="35" x="473.5" y="50"/><text fill="#000000" font-family="FG Virgil" font-size="20" lengthAdjust="spacing" textLength="21" x="480.5" y="75.5645">UI</text><rect fill="#E2E2F0" filter="url(#f860eq8jbmmk9)" height="37.2813" rx="2.5" ry="2.5" style="stroke:#181818;stroke-width:0.5;" width="35" x="473.5" y="309.6875"/><text fill="#000000" font-family="FG Virgil" font-size="20" lengthAdjust="spacing" textLength="21" x="480.5" y="335.252">UI</text><rect fill="#E2E2F0" filter="url(#f860eq8jbmmk9)" height="37.2813" rx="2.5" ry="2.5" style="stroke:#181818;stroke-width:0.5;" width="113" x="839.5" y="50"/><text fill="#000000" font-family="FG Virgil" font-size="20" lengthAdjust="spacing" textLength="99" x="846.5" y="75.5645">Controller</text><rect fill="#E2E2F0" filter="url(#f860eq8jbmmk9)" height="37.2813" rx="2.5" ry="2.5" style="stroke:#181818;stroke-width:0.5;" width="113" x="839.5" y="309.6875"/><text fill="#000000" font-family="FG Virgil" font-size="20" lengthAdjust="spacing" textLength="99" x="846.5" y="335.252">Controller</text><rect fill="#FFFFFF" filter="url(#f860eq8jbmmk9)" height="200.4063" style="stroke:#181818;stroke-width:1.0;" width="10" x="82.5" y="101.2813"/><rect fill="#FFFFFF" filter="url(#f860eq8jbmmk9)" height="162.125" style="stroke:#181818;stroke-width:1.0;" width="10" x="487.5" y="130.5625"/><rect fill="#FFFFFF" filter="url(#f860eq8jbmmk9)" height="87.5625" style="stroke:#181818;stroke-width:1.0;" width="10" x="892.5" y="167.8438"/><polygon fill="#181818" points="475.5,126.5625,485.5,130.5625,475.5,134.5625,479.5,130.5625" style="stroke:#181818;stroke-width:1.0;"/><line style="stroke:#181818;stroke-width:1.0;" x1="92.5" x2="481.5" y1="130.5625" y2="130.5625"/><text fill="#000000" font-family="FG Virgil" font-size="20" lengthAdjust="spacing" textLength="362" x="99.5" y="123.8457">Log in the system (email, password)</text><polygon fill="#181818" points="880.5,163.8438,890.5,167.8438,880.5,171.8438,884.5,167.8438" style="stroke:#181818;stroke-width:1.0;"/><line style="stroke:#181818;stroke-width:1.0;" x1="497.5" x2="886.5" y1="167.8438" y2="167.8438"/><text fill="#000000" font-family="FG Virgil" font-size="20" lengthAdjust="spacing" textLength="229" x="504.5" y="161.127">login(email, password)</text><line style="stroke:#181818;stroke-width:1.0;stroke-dasharray:2.0,2.0;" x1="902.5" x2="944.5" y1="205.125" y2="205.125"/><line style="stroke:#181818;stroke-width:1.0;stroke-dasharray:2.0,2.0;" x1="944.5" x2="944.5" y1="205.125" y2="218.125"/><line style="stroke:#181818;stroke-width:1.0;stroke-dasharray:2.0,2.0;" x1="903.5" x2="944.5" y1="218.125" y2="218.125"/><polygon fill="#181818" points="913.5,214.125,903.5,218.125,913.5,222.125,909.5,218.125" style="stroke:#181818;stroke-width:1.0;"/><text fill="#000000" font-family="FG Virgil" font-size="20" lengthAdjust="spacing" textLength="763" x="909.5" y="198.4082">Validate user's data , check if user is in the database and check permissions</text><polygon fill="#181818" points="508.5,251.4063,498.5,255.4063,508.5,259.4063,504.5,255.4063" style="stroke:#181818;stroke-width:1.0;"/><line style="stroke:#181818;stroke-width:1.0;stroke-dasharray:2.0,2.0;" x1="502.5" x2="896.5" y1="255.4063" y2="255.4063"/><text fill="#000000" font-family="FG Virgil" font-size="20" lengthAdjust="spacing" textLength="371" x="514.5" y="248.6895">200 (Success) OR 400 (Bad Request)</text><polygon fill="#181818" points="103.5,288.6875,93.5,292.6875,103.5,296.6875,99.5,292.6875" style="stroke:#181818;stroke-width:1.0;"/><line style="stroke:#181818;stroke-width:1.0;" x1="97.5" x2="491.5" y1="292.6875" y2="292.6875"/><text fill="#000000" font-family="FG Virgil" font-size="20" lengthAdjust="spacing" textLength="371" x="109.5" y="285.9707">200 (Success) OR 400 (Bad Request)</text><!--SRC=[bL5BQm8n4BxlhvYR2bf5UlBGWmMBK2eewxLCazdTOVFOPh8L- -kRjHKNMmeU0fFv7lbc8ZMx1WDQurLD6ZGLs9guyYxk-9DWFii6LOoDBARJng2BhJLtojkfq7jBJj54CvP9dydP2Ifq-X0uHd9Ge17gOTOxhwhWBVs26bGrbhIBHqCGICKUrelrWacxUe8zXv9DZoCLQdzWLq8CBMKPgkW3B9EhBmfMz9eB1K21vIRlGFx0IATBEZ1vW7ozW6TV0Zk85O4S9PA58LbaCqxnH0u-wD55cw-pVDqf7rEku8sXi03ZItR_Y2xSx5B2vCfbZuPrHszJw850gX76e2fIDN1nQWFBEMi7lw4GfDN_a1eAbaNOExb-g1jqFfl1SDSgHI8Zs6pXlciiKSEs-rc9eqpJNw6_9quhkzKZRUiB]--></g></svg>