<?xml version="1.0" encoding="UTF-8" standalone="no"?><svg xmlns="http://www.w3.org/2000/svg" xmlns:xlink="http://www.w3.org/1999/xlink" contentStyleType="text/css" height="1100px" preserveAspectRatio="none" style="width:2508px;height:1100px;background:#FFFFFF;" version="1.1" viewBox="0 0 2508 1100" width="2508px" zoomAndPan="magnify"><defs/><g><text fill="#000000" font-family="sans-serif" font-size="14" font-weight="bold" lengthAdjust="spacing" textLength="165" x="1172.5" y="27.9951">Level 3 MDR Diagram</text><rect fill="#FFFFFF" height="868.1875" style="stroke:#181818;stroke-width:1.0;" width="10" x="15.5" y="135.5781"/><rect fill="#FFFFFF" height="829.9063" style="stroke:#181818;stroke-width:1.0;" width="10" x="462.5" y="164.8594"/><rect fill="#FFFFFF" height="748.3438" style="stroke:#181818;stroke-width:1.0;" width="10" x="936.5" y="202.1406"/><rect fill="#FFFFFF" height="111.8438" style="stroke:#181818;stroke-width:1.0;" width="10" x="1498.5" y="239.4219"/><rect fill="#FFFFFF" height="67.2813" style="stroke:#181818;stroke-width:1.0;" width="10" x="1498.5" y="491.6719"/><rect fill="#FFFFFF" height="67.2813" style="stroke:#181818;stroke-width:1.0;" width="10" x="1682" y="683.7969"/><rect fill="#FFFFFF" height="124.8438" style="stroke:#181818;stroke-width:1.0;" width="10" x="1850" y="788.3594"/><rect fill="#FFFFFF" height="43.2813" style="stroke:#181818;stroke-width:1.0;" width="10" x="2189" y="825.6406"/><rect fill="#FFFFFF" height="43.2813" style="stroke:#181818;stroke-width:1.0;" width="10" x="2343" y="596.2344"/><rect fill="#FFFFFF" height="37.2813" style="stroke:#181818;stroke-width:1.0;" width="10" x="2432" y="276.7031"/><rect fill="#FFFFFF" height="30" style="stroke:#181818;stroke-width:1.0;" width="10" x="2432" y="528.9531"/><rect fill="#FFFFFF" height="30" style="stroke:#181818;stroke-width:1.0;" width="10" x="2432" y="721.0781"/><rect fill="#EBF5FB" height="592.2188" style="stroke:#000000;stroke-width:1.5;" width="2135.5" x="365.5" y="366.2656"/><rect fill="#EBF5FB" height="521.375" style="stroke:none;stroke-width:1.0;" width="2135.5" x="365.5" y="437.1094"/><line style="stroke:#181818;stroke-width:0.5;stroke-dasharray:5.0,5.0;" x1="20" x2="20" y1="125.5781" y2="1012.7656"/><line style="stroke:#181818;stroke-width:0.5;stroke-dasharray:5.0,5.0;" x1="467.5" x2="467.5" y1="125.5781" y2="1012.7656"/><line style="stroke:#181818;stroke-width:0.5;stroke-dasharray:5.0,5.0;" x1="941.5" x2="941.5" y1="125.5781" y2="1012.7656"/><line style="stroke:#181818;stroke-width:0.5;stroke-dasharray:5.0,5.0;" x1="1503" x2="1503" y1="125.5781" y2="1012.7656"/><line style="stroke:#181818;stroke-width:0.5;stroke-dasharray:5.0,5.0;" x1="1687" x2="1687" y1="125.5781" y2="1012.7656"/><line style="stroke:#181818;stroke-width:0.5;stroke-dasharray:5.0,5.0;" x1="1855" x2="1855" y1="125.5781" y2="1012.7656"/><line style="stroke:#181818;stroke-width:0.5;stroke-dasharray:5.0,5.0;" x1="2194" x2="2194" y1="125.5781" y2="1012.7656"/><line style="stroke:#181818;stroke-width:0.5;stroke-dasharray:5.0,5.0;" x1="2348" x2="2348" y1="125.5781" y2="1012.7656"/><line style="stroke:#181818;stroke-width:0.5;stroke-dasharray:5.0,5.0;" x1="2437" x2="2437" y1="125.5781" y2="1012.7656"/><text fill="#000000" font-family="sans-serif" font-size="20" lengthAdjust="spacing" textLength="25" x="5" y="120.8613">FE</text><ellipse cx="20.5" cy="50.7969" fill="#E2E2F0" rx="8" ry="8" style="stroke:#181818;stroke-width:0.5;"/><path d="M20.5,58.7969 L20.5,85.7969 M7.5,66.7969 L33.5,66.7969 M20.5,85.7969 L7.5,100.7969 M20.5,85.7969 L33.5,100.7969 " fill="none" style="stroke:#181818;stroke-width:0.5;"/><text fill="#000000" font-family="sans-serif" font-size="20" lengthAdjust="spacing" textLength="25" x="5" y="1030.3301">FE</text><ellipse cx="20.5" cy="1043.5469" fill="#E2E2F0" rx="8" ry="8" style="stroke:#181818;stroke-width:0.5;"/><path d="M20.5,1051.5469 L20.5,1078.5469 M7.5,1059.5469 L33.5,1059.5469 M20.5,1078.5469 L7.5,1093.5469 M20.5,1078.5469 L33.5,1093.5469 " fill="none" style="stroke:#181818;stroke-width:0.5;"/><rect fill="#E2E2F0" height="37.2813" rx="2.5" ry="2.5" style="stroke:#181818;stroke-width:0.5;" width="184" x="375.5" y="87.2969"/><text fill="#000000" font-family="sans-serif" font-size="20" lengthAdjust="spacing" textLength="170" x="382.5" y="112.8613">PatientController</text><rect fill="#E2E2F0" height="37.2813" rx="2.5" ry="2.5" style="stroke:#181818;stroke-width:0.5;" width="184" x="375.5" y="1011.7656"/><text fill="#000000" font-family="sans-serif" font-size="20" lengthAdjust="spacing" textLength="170" x="382.5" y="1037.3301">PatientController</text><rect fill="#E2E2F0" height="37.2813" rx="2.5" ry="2.5" style="stroke:#181818;stroke-width:0.5;" width="158" x="862.5" y="87.2969"/><text fill="#000000" font-family="sans-serif" font-size="20" lengthAdjust="spacing" textLength="144" x="869.5" y="112.8613">PatientService</text><rect fill="#E2E2F0" height="37.2813" rx="2.5" ry="2.5" style="stroke:#181818;stroke-width:0.5;" width="158" x="862.5" y="1011.7656"/><text fill="#000000" font-family="sans-serif" font-size="20" lengthAdjust="spacing" textLength="144" x="869.5" y="1037.3301">PatientService</text><rect fill="#E2E2F0" height="37.2813" rx="2.5" ry="2.5" style="stroke:#181818;stroke-width:0.5;" width="191" x="1408" y="87.2969"/><text fill="#000000" font-family="sans-serif" font-size="20" lengthAdjust="spacing" textLength="177" x="1415" y="112.8613">PatientRepository</text><rect fill="#E2E2F0" height="37.2813" rx="2.5" ry="2.5" style="stroke:#181818;stroke-width:0.5;" width="191" x="1408" y="1011.7656"/><text fill="#000000" font-family="sans-serif" font-size="20" lengthAdjust="spacing" textLength="177" x="1415" y="1037.3301">PatientRepository</text><rect fill="#E2E2F0" height="37.2813" rx="2.5" ry="2.5" style="stroke:#181818;stroke-width:0.5;" width="156" x="1609" y="87.2969"/><text fill="#000000" font-family="sans-serif" font-size="20" lengthAdjust="spacing" textLength="142" x="1616" y="112.8613">LogRepository</text><rect fill="#E2E2F0" height="37.2813" rx="2.5" ry="2.5" style="stroke:#181818;stroke-width:0.5;" width="156" x="1609" y="1011.7656"/><text fill="#000000" font-family="sans-serif" font-size="20" lengthAdjust="spacing" textLength="142" x="1616" y="1037.3301">LogRepository</text><rect fill="#E2E2F0" height="37.2813" rx="2.5" ry="2.5" style="stroke:#181818;stroke-width:0.5;" width="160" x="1775" y="87.2969"/><text fill="#000000" font-family="sans-serif" font-size="20" lengthAdjust="spacing" textLength="146" x="1782" y="112.8613">PatientMapper</text><rect fill="#E2E2F0" height="37.2813" rx="2.5" ry="2.5" style="stroke:#181818;stroke-width:0.5;" width="160" x="1775" y="1011.7656"/><text fill="#000000" font-family="sans-serif" font-size="20" lengthAdjust="spacing" textLength="146" x="1782" y="1037.3301">PatientMapper</text><rect fill="#E2E2F0" height="37.2813" rx="2.5" ry="2.5" style="stroke:#181818;stroke-width:0.5;" width="128" x="2130" y="87.2969"/><text fill="#000000" font-family="sans-serif" font-size="20" lengthAdjust="spacing" textLength="114" x="2137" y="112.8613">PatientDTO</text><rect fill="#E2E2F0" height="37.2813" rx="2.5" ry="2.5" style="stroke:#181818;stroke-width:0.5;" width="128" x="2130" y="1011.7656"/><text fill="#000000" font-family="sans-serif" font-size="20" lengthAdjust="spacing" textLength="114" x="2137" y="1037.3301">PatientDTO</text><rect fill="#E2E2F0" height="37.2813" rx="2.5" ry="2.5" style="stroke:#181818;stroke-width:0.5;" width="50" x="2323" y="87.2969"/><text fill="#000000" font-family="sans-serif" font-size="20" lengthAdjust="spacing" textLength="36" x="2330" y="112.8613">Log</text><rect fill="#E2E2F0" height="37.2813" rx="2.5" ry="2.5" style="stroke:#181818;stroke-width:0.5;" width="50" x="2323" y="1011.7656"/><text fill="#000000" font-family="sans-serif" font-size="20" lengthAdjust="spacing" textLength="36" x="2330" y="1037.3301">Log</text><rect fill="#E2E2F0" height="37.2813" rx="2.5" ry="2.5" style="stroke:#181818;stroke-width:0.5;" width="108" x="2383" y="87.2969"/><text fill="#000000" font-family="sans-serif" font-size="20" lengthAdjust="spacing" textLength="94" x="2390" y="112.8613">Database</text><rect fill="#E2E2F0" height="37.2813" rx="2.5" ry="2.5" style="stroke:#181818;stroke-width:0.5;" width="108" x="2383" y="1011.7656"/><text fill="#000000" font-family="sans-serif" font-size="20" lengthAdjust="spacing" textLength="94" x="2390" y="1037.3301">Database</text><rect fill="#FFFFFF" height="868.1875" style="stroke:#181818;stroke-width:1.0;" width="10" x="15.5" y="135.5781"/><rect fill="#FFFFFF" height="829.9063" style="stroke:#181818;stroke-width:1.0;" width="10" x="462.5" y="164.8594"/><rect fill="#FFFFFF" height="748.3438" style="stroke:#181818;stroke-width:1.0;" width="10" x="936.5" y="202.1406"/><rect fill="#FFFFFF" height="111.8438" style="stroke:#181818;stroke-width:1.0;" width="10" x="1498.5" y="239.4219"/><rect fill="#FFFFFF" height="67.2813" style="stroke:#181818;stroke-width:1.0;" width="10" x="1498.5" y="491.6719"/><rect fill="#FFFFFF" height="67.2813" style="stroke:#181818;stroke-width:1.0;" width="10" x="1682" y="683.7969"/><rect fill="#FFFFFF" height="124.8438" style="stroke:#181818;stroke-width:1.0;" width="10" x="1850" y="788.3594"/><rect fill="#FFFFFF" height="43.2813" style="stroke:#181818;stroke-width:1.0;" width="10" x="2189" y="825.6406"/><rect fill="#FFFFFF" height="43.2813" style="stroke:#181818;stroke-width:1.0;" width="10" x="2343" y="596.2344"/><rect fill="#FFFFFF" height="37.2813" style="stroke:#181818;stroke-width:1.0;" width="10" x="2432" y="276.7031"/><rect fill="#FFFFFF" height="30" style="stroke:#181818;stroke-width:1.0;" width="10" x="2432" y="528.9531"/><rect fill="#FFFFFF" height="30" style="stroke:#181818;stroke-width:1.0;" width="10" x="2432" y="721.0781"/><polygon fill="#000000" points="450.5,160.8594,460.5,164.8594,450.5,168.8594,454.5,164.8594" style="stroke:#000000;stroke-width:1.0;"/><line style="stroke:#000000;stroke-width:1.0;" x1="25.5" x2="456.5" y1="164.8594" y2="164.8594"/><text fill="#000000" font-family="sans-serif" font-size="20" lengthAdjust="spacing" textLength="411" x="32.5" y="158.1426">Sends HTTP request to delete the Patient</text><polygon fill="#000000" points="924.5,198.1406,934.5,202.1406,924.5,206.1406,928.5,202.1406" style="stroke:#000000;stroke-width:1.0;"/><line style="stroke:#000000;stroke-width:1.0;stroke-dasharray:2.0,2.0;" x1="472.5" x2="930.5" y1="202.1406" y2="202.1406"/><text fill="#000000" font-family="sans-serif" font-size="20" lengthAdjust="spacing" textLength="445" x="479.5" y="195.4238">deletePatient(string medicalRecordNumber)</text><polygon fill="#000000" points="1486.5,235.4219,1496.5,239.4219,1486.5,243.4219,1490.5,239.4219" style="stroke:#000000;stroke-width:1.0;"/><line style="stroke:#000000;stroke-width:1.0;" x1="946.5" x2="1492.5" y1="239.4219" y2="239.4219"/><text fill="#000000" font-family="sans-serif" font-size="20" lengthAdjust="spacing" textLength="533" x="953.5" y="232.7051">getByMedicalRecordNumber(medicalRecordNumber)</text><polygon fill="#000000" points="2420,272.7031,2430,276.7031,2420,280.7031,2424,276.7031" style="stroke:#000000;stroke-width:1.0;"/><line style="stroke:#000000;stroke-width:1.0;" x1="1508.5" x2="2426" y1="276.7031" y2="276.7031"/><text fill="#000000" font-family="sans-serif" font-size="20" lengthAdjust="spacing" textLength="880" x="1515.5" y="269.9863">_objs.Where(x =&gt; x.MedicalRecordNumber == medicalRecordNumber).FirstOrDefault()</text><polygon fill="#000000" points="1519.5,309.9844,1509.5,313.9844,1519.5,317.9844,1515.5,313.9844" style="stroke:#000000;stroke-width:1.0;"/><line style="stroke:#000000;stroke-width:1.0;stroke-dasharray:2.0,2.0;" x1="1513.5" x2="2436" y1="313.9844" y2="313.9844"/><text fill="#000000" font-family="sans-serif" font-size="20" lengthAdjust="spacing" textLength="99" x="1525.5" y="307.2676">return var</text><polygon fill="#000000" points="957.5,347.2656,947.5,351.2656,957.5,355.2656,953.5,351.2656" style="stroke:#000000;stroke-width:1.0;"/><line style="stroke:#000000;stroke-width:1.0;stroke-dasharray:2.0,2.0;" x1="951.5" x2="1502.5" y1="351.2656" y2="351.2656"/><text fill="#000000" font-family="sans-serif" font-size="20" lengthAdjust="spacing" textLength="99" x="963.5" y="344.5488">return var</text><path d="M365.5,366.2656 L441.5,366.2656 L441.5,381.5469 L431.5,391.5469 L365.5,391.5469 L365.5,366.2656 " fill="#EEEEEE" style="stroke:#000000;stroke-width:1.5;"/><rect fill="none" height="592.2188" style="stroke:#000000;stroke-width:1.5;" width="2135.5" x="365.5" y="366.2656"/><text fill="#000000" font-family="sans-serif" font-size="20" font-weight="bold" lengthAdjust="spacing" textLength="31" x="380.5" y="385.8301">alt</text><text fill="#000000" font-family="sans-serif" font-size="20" font-weight="bold" lengthAdjust="spacing" textLength="130" x="456.5" y="386.8301">[var is null]</text><polygon fill="#000000" points="483.5,425.1094,473.5,429.1094,483.5,433.1094,479.5,429.1094" style="stroke:#000000;stroke-width:1.0;"/><line style="stroke:#000000;stroke-width:1.0;stroke-dasharray:2.0,2.0;" x1="477.5" x2="935.5" y1="429.1094" y2="429.1094"/><text fill="#000000" font-family="sans-serif" font-size="20" lengthAdjust="spacing" textLength="106" x="489.5" y="422.3926">return null</text><line style="stroke:#000000;stroke-width:1.0;stroke-dasharray:2.0,2.0;" x1="365.5" x2="2501" y1="438.1094" y2="438.1094"/><text fill="#000000" font-family="sans-serif" font-size="20" font-weight="bold" lengthAdjust="spacing" textLength="175" x="370.5" y="456.6738">[var is not null]</text><polygon fill="#000000" points="1486.5,487.6719,1496.5,491.6719,1486.5,495.6719,1490.5,491.6719" style="stroke:#000000;stroke-width:1.0;"/><line style="stroke:#000000;stroke-width:1.0;" x1="946.5" x2="1492.5" y1="491.6719" y2="491.6719"/><text fill="#000000" font-family="sans-serif" font-size="20" lengthAdjust="spacing" textLength="169" x="953.5" y="484.9551">Remove(patient)</text><polygon fill="#000000" points="2420,524.9531,2430,528.9531,2420,532.9531,2424,528.9531" style="stroke:#000000;stroke-width:1.0;"/><line style="stroke:#000000;stroke-width:1.0;" x1="1508.5" x2="2426" y1="528.9531" y2="528.9531"/><text fill="#000000" font-family="sans-serif" font-size="20" lengthAdjust="spacing" textLength="226" x="1515.5" y="522.2363">_objs.Remove(patient)</text><polygon fill="#000000" points="2331,592.2344,2341,596.2344,2331,600.2344,2335,596.2344" style="stroke:#000000;stroke-width:1.0;"/><line style="stroke:#000000;stroke-width:1.0;stroke-dasharray:2.0,2.0;" x1="946.5" x2="2337" y1="596.2344" y2="596.2344"/><text fill="#000000" font-family="sans-serif" font-size="20" lengthAdjust="spacing" textLength="596" x="953.5" y="589.5176">new Log(TypeOfAction.Delete, patientId, "Patient Deleted")</text><line style="stroke:#000000;stroke-width:1.0;stroke-dasharray:2.0,2.0;" x1="2353" x2="2395" y1="638.5156" y2="638.5156"/><line style="stroke:#000000;stroke-width:1.0;stroke-dasharray:2.0,2.0;" x1="2395" x2="2395" y1="638.5156" y2="651.5156"/><line style="stroke:#000000;stroke-width:1.0;stroke-dasharray:2.0,2.0;" x1="2348" x2="2395" y1="651.5156" y2="651.5156"/><polygon fill="#000000" points="2358,647.5156,2348,651.5156,2358,655.5156,2354,651.5156" style="stroke:#000000;stroke-width:1.0;"/><text fill="#000000" font-family="sans-serif" font-size="20" lengthAdjust="spacing" textLength="52" x="2360" y="631.7988">Log()</text><polygon fill="#000000" points="1670,679.7969,1680,683.7969,1670,687.7969,1674,683.7969" style="stroke:#000000;stroke-width:1.0;"/><line style="stroke:#000000;stroke-width:1.0;stroke-dasharray:2.0,2.0;" x1="946.5" x2="1676" y1="683.7969" y2="683.7969"/><text fill="#000000" font-family="sans-serif" font-size="20" lengthAdjust="spacing" textLength="146" x="953.5" y="677.0801">AddAsync(log)</text><polygon fill="#000000" points="2420,717.0781,2430,721.0781,2420,725.0781,2424,721.0781" style="stroke:#000000;stroke-width:1.0;"/><line style="stroke:#000000;stroke-width:1.0;" x1="1692" x2="2426" y1="721.0781" y2="721.0781"/><text fill="#000000" font-family="sans-serif" font-size="20" lengthAdjust="spacing" textLength="203" x="1699" y="714.3613">_objs.AddAsync(log)</text><polygon fill="#000000" points="1838,784.3594,1848,788.3594,1838,792.3594,1842,788.3594" style="stroke:#000000;stroke-width:1.0;"/><line style="stroke:#000000;stroke-width:1.0;stroke-dasharray:2.0,2.0;" x1="946.5" x2="1844" y1="788.3594" y2="788.3594"/><text fill="#000000" font-family="sans-serif" font-size="20" lengthAdjust="spacing" textLength="147" x="953.5" y="781.6426">ToDto(patient)</text><polygon fill="#000000" points="2177,821.6406,2187,825.6406,2177,829.6406,2181,825.6406" style="stroke:#000000;stroke-width:1.0;"/><line style="stroke:#000000;stroke-width:1.0;" x1="1860" x2="2183" y1="825.6406" y2="825.6406"/><text fill="#000000" font-family="sans-serif" font-size="20" lengthAdjust="spacing" textLength="310" x="1867" y="818.9238">new PatientDTO(patient fields)</text><line style="stroke:#000000;stroke-width:1.0;" x1="2199" x2="2241" y1="867.9219" y2="867.9219"/><line style="stroke:#000000;stroke-width:1.0;" x1="2241" x2="2241" y1="867.9219" y2="880.9219"/><line style="stroke:#000000;stroke-width:1.0;" x1="2194" x2="2241" y1="880.9219" y2="880.9219"/><polygon fill="#000000" points="2204,876.9219,2194,880.9219,2204,884.9219,2200,880.9219" style="stroke:#000000;stroke-width:1.0;"/><text fill="#000000" font-family="sans-serif" font-size="20" lengthAdjust="spacing" textLength="130" x="2206" y="861.2051">PatientDTO()</text><polygon fill="#000000" points="957.5,909.2031,947.5,913.2031,957.5,917.2031,953.5,913.2031" style="stroke:#000000;stroke-width:1.0;"/><line style="stroke:#000000;stroke-width:1.0;stroke-dasharray:2.0,2.0;" x1="951.5" x2="1854" y1="913.2031" y2="913.2031"/><text fill="#000000" font-family="sans-serif" font-size="20" lengthAdjust="spacing" textLength="101" x="963.5" y="906.4863">return dto</text><polygon fill="#000000" points="483.5,946.4844,473.5,950.4844,483.5,954.4844,479.5,950.4844" style="stroke:#000000;stroke-width:1.0;"/><line style="stroke:#000000;stroke-width:1.0;stroke-dasharray:2.0,2.0;" x1="477.5" x2="940.5" y1="950.4844" y2="950.4844"/><text fill="#000000" font-family="sans-serif" font-size="20" lengthAdjust="spacing" textLength="101" x="489.5" y="943.7676">return dto</text><polygon fill="#000000" points="36.5,990.7656,26.5,994.7656,36.5,998.7656,32.5,994.7656" style="stroke:#000000;stroke-width:1.0;"/><line style="stroke:#000000;stroke-width:1.0;stroke-dasharray:2.0,2.0;" x1="30.5" x2="466.5" y1="994.7656" y2="994.7656"/><text fill="#000000" font-family="sans-serif" font-size="20" lengthAdjust="spacing" textLength="413" x="42.5" y="988.0488">Returns Operation Status Response Code</text><!--SRC=[ZPJ9Rjim48RlV8f1SgW394QQefkH6B0sj81K1vA17WjQdDXCQ54bAITkqNSlHNcHPJMe3nOqy_spQKZzn8kIAheICdz21WmVQ2LC90kJyLy8DzU466u4Genh5F0EaY25WDE5rH2ov0m1LwNPm0fNSrIQlD6xa13p0iscH93AB2KX1qykgDRmcu3zUJH_MYXP5SoNGghRspKL5KxdZvYRyHZEWm_X9FhKZoef7HC5eHTSzpCQrPhdw4AzZMv2hm-p8SBeS_ZH-IPAoUV6x0dBaJ_jsajheGlihnxEGozw7tcrXER66g8GgBR_nAeDptb92mDdzzHmB8nlvwoa4AZEQihlXRAc0KTalKIAfTJSPjiuA3s6Ohde077Q6oQXPRcj9Ea5WjdKUUtp94KJ-DWSK4FdL3Ub1vuR2LzJW_Kyx62knk2F8CE2QVWoczs3mfyLQWD6saqKQ46pHDXcFwXzuiEL5MUZBROb1jeeNYpiBZAUKv5YBXNxLjMBUN5GPoIhCwSZMA3nDiafF7WzG4hIEa3WZU27d3_guVSbAXoymDqONeOzyU3khhUcOSILDbCLDATkqCfXfnLuhabRfq9JgGBML166RIJTZQ6VI0aLfZO2rr1KGhYLpPp8tukS0uN6FIdD4UrgI74brpWecqbVE5yhKVtQcSghYg0vXiVjT2nfgznu10K-WrsqmSnUATE7YQLaCGpSzx-4RPQlx7A_hT3us5adTUnUurtOEkH5DtNSJcsxdp0sqPiY7mYvw8PhoemxtR-Y-9_UutRpoGXcCZ3o7xDCt6lYyi-cpQ0E9tOdWWUEWkbkBVOermRxtEjRsfF1xFYaitdCo2wQz6vR3vWHUmDiZtGKrgjMangczZQYzLU6p51JsOiDTIaBkwY-PDXUT9-Glm00]--></g></svg>