<?xml version="1.0" encoding="UTF-8" standalone="no"?><svg xmlns="http://www.w3.org/2000/svg" xmlns:xlink="http://www.w3.org/1999/xlink" contentStyleType="text/css" height="773px" preserveAspectRatio="none" style="width:3133px;height:773px;background:#FFFFFF;" version="1.1" viewBox="0 0 3133 773" width="3133px" zoomAndPan="magnify"><defs/><g><text fill="#000000" font-family="sans-serif" font-size="14" font-weight="bold" lengthAdjust="spacing" textLength="149" x="1494" y="27.9951">Level 3 FE Diagram</text><rect fill="#FFFFFF" height="540.9375" style="stroke:#181818;stroke-width:1.0;" width="10" x="36" y="135.5781"/><rect fill="#FFFFFF" height="502.6563" style="stroke:#181818;stroke-width:1.0;" width="10" x="450" y="164.8594"/><rect fill="#FFFFFF" height="428.0938" style="stroke:#181818;stroke-width:1.0;" width="10" x="929" y="202.1406"/><rect fill="#FFFFFF" height="353.5313" style="stroke:#181818;stroke-width:1.0;" width="10" x="1339" y="239.4219"/><rect fill="#FFFFFF" height="278.9688" style="stroke:#181818;stroke-width:1.0;" width="10" x="1785" y="276.7031"/><rect fill="#FFFFFF" height="87.5625" style="stroke:#181818;stroke-width:1.0;" width="10" x="2372" y="430.8281"/><line style="stroke:#181818;stroke-width:0.5;stroke-dasharray:5.0,5.0;" x1="41" x2="41" y1="125.5781" y2="685.5156"/><line style="stroke:#181818;stroke-width:0.5;stroke-dasharray:5.0,5.0;" x1="454.5" x2="454.5" y1="125.5781" y2="685.5156"/><line style="stroke:#181818;stroke-width:0.5;stroke-dasharray:5.0,5.0;" x1="933.5" x2="933.5" y1="125.5781" y2="685.5156"/><line style="stroke:#181818;stroke-width:0.5;stroke-dasharray:5.0,5.0;" x1="1344" x2="1344" y1="125.5781" y2="685.5156"/><line style="stroke:#181818;stroke-width:0.5;stroke-dasharray:5.0,5.0;" x1="1789.5" x2="1789.5" y1="125.5781" y2="685.5156"/><line style="stroke:#181818;stroke-width:0.5;stroke-dasharray:5.0,5.0;" x1="2377" x2="2377" y1="125.5781" y2="685.5156"/><text fill="#000000" font-family="sans-serif" font-size="20" lengthAdjust="spacing" textLength="66" x="5" y="120.8613">Admin</text><ellipse cx="41" cy="50.7969" fill="#E2E2F0" rx="8" ry="8" style="stroke:#181818;stroke-width:0.5;"/><path d="M41,58.7969 L41,85.7969 M28,66.7969 L54,66.7969 M41,85.7969 L28,100.7969 M41,85.7969 L54,100.7969 " fill="none" style="stroke:#181818;stroke-width:0.5;"/><text fill="#000000" font-family="sans-serif" font-size="20" lengthAdjust="spacing" textLength="66" x="5" y="703.0801">Admin</text><ellipse cx="41" cy="716.2969" fill="#E2E2F0" rx="8" ry="8" style="stroke:#181818;stroke-width:0.5;"/><path d="M41,724.2969 L41,751.2969 M28,732.2969 L54,732.2969 M41,751.2969 L28,766.2969 M41,751.2969 L54,766.2969 " fill="none" style="stroke:#181818;stroke-width:0.5;"/><rect fill="#E2E2F0" height="37.2813" rx="2.5" ry="2.5" style="stroke:#181818;stroke-width:0.5;" width="63" x="423.5" y="87.2969"/><text fill="#000000" font-family="sans-serif" font-size="20" lengthAdjust="spacing" textLength="49" x="430.5" y="112.8613">View</text><rect fill="#E2E2F0" height="37.2813" rx="2.5" ry="2.5" style="stroke:#181818;stroke-width:0.5;" width="63" x="423.5" y="684.5156"/><text fill="#000000" font-family="sans-serif" font-size="20" lengthAdjust="spacing" textLength="49" x="430.5" y="710.0801">View</text><rect fill="#E2E2F0" height="37.2813" rx="2.5" ry="2.5" style="stroke:#181818;stroke-width:0.5;" width="291" x="788.5" y="87.2969"/><text fill="#000000" font-family="sans-serif" font-size="20" lengthAdjust="spacing" textLength="277" x="795.5" y="112.8613">ManagePatientsComponent</text><rect fill="#E2E2F0" height="37.2813" rx="2.5" ry="2.5" style="stroke:#181818;stroke-width:0.5;" width="291" x="788.5" y="684.5156"/><text fill="#000000" font-family="sans-serif" font-size="20" lengthAdjust="spacing" textLength="277" x="795.5" y="710.0801">ManagePatientsComponent</text><rect fill="#E2E2F0" height="37.2813" rx="2.5" ry="2.5" style="stroke:#181818;stroke-width:0.5;" width="158" x="1265" y="87.2969"/><text fill="#000000" font-family="sans-serif" font-size="20" lengthAdjust="spacing" textLength="144" x="1272" y="112.8613">PatientService</text><rect fill="#E2E2F0" height="37.2813" rx="2.5" ry="2.5" style="stroke:#181818;stroke-width:0.5;" width="158" x="1265" y="684.5156"/><text fill="#000000" font-family="sans-serif" font-size="20" lengthAdjust="spacing" textLength="144" x="1272" y="710.0801">PatientService</text><rect fill="#E2E2F0" height="37.2813" rx="2.5" ry="2.5" style="stroke:#181818;stroke-width:0.5;" width="173" x="1703.5" y="87.2969"/><text fill="#000000" font-family="sans-serif" font-size="20" lengthAdjust="spacing" textLength="159" x="1710.5" y="112.8613">AuthInterceptor</text><rect fill="#E2E2F0" height="37.2813" rx="2.5" ry="2.5" style="stroke:#181818;stroke-width:0.5;" width="173" x="1703.5" y="684.5156"/><text fill="#000000" font-family="sans-serif" font-size="20" lengthAdjust="spacing" textLength="159" x="1710.5" y="710.0801">AuthInterceptor</text><rect fill="#E2E2F0" height="37.2813" rx="2.5" ry="2.5" style="stroke:#181818;stroke-width:0.5;" width="60" x="2347" y="87.2969"/><text fill="#000000" font-family="sans-serif" font-size="20" lengthAdjust="spacing" textLength="46" x="2354" y="112.8613">MDR</text><rect fill="#E2E2F0" height="37.2813" rx="2.5" ry="2.5" style="stroke:#181818;stroke-width:0.5;" width="60" x="2347" y="684.5156"/><text fill="#000000" font-family="sans-serif" font-size="20" lengthAdjust="spacing" textLength="46" x="2354" y="710.0801">MDR</text><rect fill="#FFFFFF" height="540.9375" style="stroke:#181818;stroke-width:1.0;" width="10" x="36" y="135.5781"/><rect fill="#FFFFFF" height="502.6563" style="stroke:#181818;stroke-width:1.0;" width="10" x="450" y="164.8594"/><rect fill="#FFFFFF" height="428.0938" style="stroke:#181818;stroke-width:1.0;" width="10" x="929" y="202.1406"/><rect fill="#FFFFFF" height="353.5313" style="stroke:#181818;stroke-width:1.0;" width="10" x="1339" y="239.4219"/><rect fill="#FFFFFF" height="278.9688" style="stroke:#181818;stroke-width:1.0;" width="10" x="1785" y="276.7031"/><rect fill="#FFFFFF" height="87.5625" style="stroke:#181818;stroke-width:1.0;" width="10" x="2372" y="430.8281"/><polygon fill="#000000" points="438,160.8594,448,164.8594,438,168.8594,442,164.8594" style="stroke:#000000;stroke-width:1.0;"/><line style="stroke:#000000;stroke-width:1.0;" x1="46" x2="444" y1="164.8594" y2="164.8594"/><text fill="#000000" font-family="sans-serif" font-size="20" lengthAdjust="spacing" textLength="236" x="53" y="158.1426">Asks to delete a Patient</text><polygon fill="#000000" points="917,198.1406,927,202.1406,917,206.1406,921,202.1406" style="stroke:#000000;stroke-width:1.0;"/><line style="stroke:#000000;stroke-width:1.0;" x1="460" x2="923" y1="202.1406" y2="202.1406"/><text fill="#000000" font-family="sans-serif" font-size="20" lengthAdjust="spacing" textLength="450" x="467" y="195.4238">deletePatient(medicalRecordNumber, name)</text><polygon fill="#000000" points="1327,235.4219,1337,239.4219,1327,243.4219,1331,239.4219" style="stroke:#000000;stroke-width:1.0;"/><line style="stroke:#000000;stroke-width:1.0;" x1="939" x2="1333" y1="239.4219" y2="239.4219"/><text fill="#000000" font-family="sans-serif" font-size="20" lengthAdjust="spacing" textLength="381" x="946" y="232.7051">deletePatient(medicalRecordNumber)</text><polygon fill="#000000" points="1773,272.7031,1783,276.7031,1773,280.7031,1777,276.7031" style="stroke:#000000;stroke-width:1.0;"/><line style="stroke:#000000;stroke-width:1.0;" x1="1349" x2="1779" y1="276.7031" y2="276.7031"/><text fill="#000000" font-family="sans-serif" font-size="20" lengthAdjust="spacing" textLength="417" x="1356" y="269.9863">Sends HTTP Request to delete the Patient</text><line style="stroke:#000000;stroke-width:1.0;" x1="1795" x2="1837" y1="313.9844" y2="313.9844"/><line style="stroke:#000000;stroke-width:1.0;" x1="1837" x2="1837" y1="313.9844" y2="326.9844"/><line style="stroke:#000000;stroke-width:1.0;" x1="1796" x2="1837" y1="326.9844" y2="326.9844"/><polygon fill="#000000" points="1806,322.9844,1796,326.9844,1806,330.9844,1802,326.9844" style="stroke:#000000;stroke-width:1.0;"/><text fill="#000000" font-family="sans-serif" font-size="20" lengthAdjust="spacing" textLength="563" x="1802" y="307.2676">Intercepts the request and adds the token to the header</text><path d="M1800,339.9844 L1800,395.9844 L2319,395.9844 L2319,349.9844 L2309,339.9844 L1800,339.9844 " fill="#FEFFDD" style="stroke:#181818;stroke-width:0.5;"/><path d="M2309,339.9844 L2309,349.9844 L2319,349.9844 L2309,339.9844 " fill="#FEFFDD" style="stroke:#181818;stroke-width:0.5;"/><text fill="#000000" font-family="sans-serif" font-size="20" lengthAdjust="spacing" textLength="498" x="1806" y="363.5488">The token is added to the header so that the MDR</text><text fill="#000000" font-family="sans-serif" font-size="20" lengthAdjust="spacing" textLength="442" x="1806" y="386.8301">can authenticate and authorize the request.</text><polygon fill="#000000" points="2360,426.8281,2370,430.8281,2360,434.8281,2364,430.8281" style="stroke:#000000;stroke-width:1.0;"/><line style="stroke:#000000;stroke-width:1.0;" x1="1795" x2="2366" y1="430.8281" y2="430.8281"/><text fill="#000000" font-family="sans-serif" font-size="20" lengthAdjust="spacing" textLength="381" x="1802" y="424.1113">deletePatient(medicalRecordNumber)</text><line style="stroke:#000000;stroke-width:1.0;" x1="2382" x2="2424" y1="468.1094" y2="468.1094"/><line style="stroke:#000000;stroke-width:1.0;" x1="2424" x2="2424" y1="468.1094" y2="481.1094"/><line style="stroke:#000000;stroke-width:1.0;" x1="2383" x2="2424" y1="481.1094" y2="481.1094"/><polygon fill="#000000" points="2393,477.1094,2383,481.1094,2393,485.1094,2389,481.1094" style="stroke:#000000;stroke-width:1.0;"/><text fill="#000000" font-family="sans-serif" font-size="20" lengthAdjust="spacing" textLength="737" x="2389" y="461.3926">Validates Patient's Medical Record Number and tries to delete the Patient</text><polygon fill="#000000" points="1806,514.3906,1796,518.3906,1806,522.3906,1802,518.3906" style="stroke:#000000;stroke-width:1.0;"/><line style="stroke:#000000;stroke-width:1.0;stroke-dasharray:2.0,2.0;" x1="1800" x2="2376" y1="518.3906" y2="518.3906"/><text fill="#000000" font-family="sans-serif" font-size="20" lengthAdjust="spacing" textLength="311" x="1812" y="511.6738">Returns Operation Status Code</text><polygon fill="#000000" points="1360,551.6719,1350,555.6719,1360,559.6719,1356,555.6719" style="stroke:#000000;stroke-width:1.0;"/><line style="stroke:#000000;stroke-width:1.0;stroke-dasharray:2.0,2.0;" x1="1354" x2="1789" y1="555.6719" y2="555.6719"/><text fill="#000000" font-family="sans-serif" font-size="20" lengthAdjust="spacing" textLength="311" x="1366" y="548.9551">Returns Operation Status Code</text><polygon fill="#000000" points="950,588.9531,940,592.9531,950,596.9531,946,592.9531" style="stroke:#000000;stroke-width:1.0;"/><line style="stroke:#000000;stroke-width:1.0;stroke-dasharray:2.0,2.0;" x1="944" x2="1343" y1="592.9531" y2="592.9531"/><text fill="#000000" font-family="sans-serif" font-size="20" lengthAdjust="spacing" textLength="286" x="956" y="586.2363">Returns Operation Response</text><polygon fill="#000000" points="471,626.2344,461,630.2344,471,634.2344,467,630.2344" style="stroke:#000000;stroke-width:1.0;"/><line style="stroke:#000000;stroke-width:1.0;stroke-dasharray:2.0,2.0;" x1="465" x2="933" y1="630.2344" y2="630.2344"/><text fill="#000000" font-family="sans-serif" font-size="20" lengthAdjust="spacing" textLength="380" x="477" y="623.5176">Returns Operation In/Sucess message</text><polygon fill="#000000" points="57,663.5156,47,667.5156,57,671.5156,53,667.5156" style="stroke:#000000;stroke-width:1.0;"/><line style="stroke:#000000;stroke-width:1.0;stroke-dasharray:2.0,2.0;" x1="51" x2="454" y1="667.5156" y2="667.5156"/><text fill="#000000" font-family="sans-serif" font-size="20" lengthAdjust="spacing" textLength="380" x="63" y="660.7988">Returns Operation In/Sucess message</text><!--SRC=[bLHTRzf047o_Nx5A7j9A_KXJzGj5aGpOAb9eB8pyVl5ju8fzvzwjYPAg_xrxjaDmGwK42OJtPcPdbpdyHfjQEbcLjjYW0eKtiYafiOOoVOzmTYe4QIeHBd6B9No498QfbYkc2B7M2W6hckwWmkeQdHSd_a4HBhL1kgiHhAEr5UBnf2Ybz_1R0B_6ijYid6sCcjZIklFphImRlBh-YGLTNC3nz7CS9LyFGvsrBIQPnkFfwM6CHxVL1RPI7vApU7m8nX9nyYt-qfv5pjdRhZmk6IV-x7klkI9NUDWz7CVZv5Co3XHP41SYLMa3qaCac4-wqBKq14UvnjkZKC-7zRaqh9vAqcZ8JsnLMyFVMkWy7M9xLDPDs4BIR0Y96bhF3A4hi6OxBIQQ_TDokkZafulMjTvAGlORmTiBo4SG-Oq7ifoD4lb0Gj_t4PkBF63dwQW7zOXN5IfTo7A1XNNgHnCYyWQChF3r8vcdcgU1dcRFeEyHUTOq2yHeDe8CZVBmVRbCOO6_6lIqPvdM-DGqho6QFT1tE_8jsFKIqYYGIdL5iXiqGJKyh54gTC9OLd9wjIQmDq4oX6Av0siVw7ol1YpmuKbIMmfR3wH2SapursAFF7FOS-ZD1Ul2HTnpzKxmh10wzmEmnCis5thoUyVDPQaL7_Y7BPrm6Ze5w2IWqsXDaTFe_xFTLhNVwGAfSSR3LOsEZws1Z2Gr7YPMeL0ui1CcwJFmR1wlEmIWJzvJsW8ztnu_u71eGjgwP3-bpCpxh2cG_vqg_k2REF2PXfo7wLvCpONu2m00]--></g></svg>