<?xml version="1.0" encoding="UTF-8" standalone="no"?><svg xmlns="http://www.w3.org/2000/svg" xmlns:xlink="http://www.w3.org/1999/xlink" contentStyleType="text/css" height="1458px" preserveAspectRatio="none" style="width:2231px;height:1458px;background:#FFFFFF;" version="1.1" viewBox="0 0 2231 1458" width="2231px" zoomAndPan="magnify"><defs/><g><text fill="#000000" font-family="sans-serif" font-size="14" font-weight="bold" lengthAdjust="spacing" textLength="382" x="926" y="27.9951">Doctor Operation Request Update Flow - Level 2</text><rect fill="#FFFFFF" height="1164.5625" style="stroke:#181818;stroke-width:1.0;" width="10" x="374" y="188.1406"/><rect fill="#FFFFFF" height="1016.4375" style="stroke:#181818;stroke-width:1.0;" width="10" x="892" y="275.7031"/><rect fill="#FFFFFF" height="110.8438" style="stroke:#181818;stroke-width:1.0;" width="10" x="1386" y="957.6094"/><line style="stroke:#181818;stroke-width:0.5;stroke-dasharray:5.0,5.0;" x1="41" x2="41" y1="125.5781" y2="1370.7031"/><line style="stroke:#181818;stroke-width:0.5;stroke-dasharray:5.0,5.0;" x1="379" x2="379" y1="125.5781" y2="1370.7031"/><line style="stroke:#181818;stroke-width:0.5;stroke-dasharray:5.0,5.0;" x1="897" x2="897" y1="125.5781" y2="1370.7031"/><line style="stroke:#181818;stroke-width:0.5;stroke-dasharray:5.0,5.0;" x1="1390.5" x2="1390.5" y1="125.5781" y2="1370.7031"/><line style="stroke:#181818;stroke-width:0.5;stroke-dasharray:5.0,5.0;" x1="1631" x2="1631" y1="125.5781" y2="1370.7031"/><line style="stroke:#181818;stroke-width:0.5;stroke-dasharray:5.0,5.0;" x1="1817" x2="1817" y1="125.5781" y2="1370.7031"/><line style="stroke:#181818;stroke-width:0.5;stroke-dasharray:5.0,5.0;" x1="2180" x2="2180" y1="125.5781" y2="1370.7031"/><text fill="#000000" font-family="sans-serif" font-size="20" lengthAdjust="spacing" textLength="66" x="5" y="120.8613">Doctor</text><ellipse cx="41" cy="50.7969" fill="#E2E2F0" rx="8" ry="8" style="stroke:#181818;stroke-width:0.5;"/><path d="M41,58.7969 L41,85.7969 M28,66.7969 L54,66.7969 M41,85.7969 L28,100.7969 M41,85.7969 L54,100.7969 " fill="none" style="stroke:#181818;stroke-width:0.5;"/><text fill="#000000" font-family="sans-serif" font-size="20" lengthAdjust="spacing" textLength="66" x="5" y="1388.2676">Doctor</text><ellipse cx="41" cy="1401.4844" fill="#E2E2F0" rx="8" ry="8" style="stroke:#181818;stroke-width:0.5;"/><path d="M41,1409.4844 L41,1436.4844 M28,1417.4844 L54,1417.4844 M41,1436.4844 L28,1451.4844 M41,1436.4844 L54,1451.4844 " fill="none" style="stroke:#181818;stroke-width:0.5;"/><rect fill="#E2E2F0" height="60.5625" rx="2.5" ry="2.5" style="stroke:#181818;stroke-width:0.5;" width="196" x="281" y="64.0156"/><text fill="#000000" font-family="sans-serif" font-size="20" lengthAdjust="spacing" textLength="182" x="288" y="89.5801">OperationRequest</text><text fill="#000000" font-family="sans-serif" font-size="20" lengthAdjust="spacing" textLength="99" x="329.5" y="112.8613">Controller</text><rect fill="#E2E2F0" height="60.5625" rx="2.5" ry="2.5" style="stroke:#181818;stroke-width:0.5;" width="196" x="281" y="1369.7031"/><text fill="#000000" font-family="sans-serif" font-size="20" lengthAdjust="spacing" textLength="182" x="288" y="1395.2676">OperationRequest</text><text fill="#000000" font-family="sans-serif" font-size="20" lengthAdjust="spacing" textLength="99" x="329.5" y="1418.5488">Controller</text><rect fill="#E2E2F0" height="60.5625" rx="2.5" ry="2.5" style="stroke:#181818;stroke-width:0.5;" width="196" x="799" y="64.0156"/><text fill="#000000" font-family="sans-serif" font-size="20" lengthAdjust="spacing" textLength="182" x="806" y="89.5801">OperationRequest</text><text fill="#000000" font-family="sans-serif" font-size="20" lengthAdjust="spacing" textLength="73" x="860.5" y="112.8613">Service</text><rect fill="#E2E2F0" height="60.5625" rx="2.5" ry="2.5" style="stroke:#181818;stroke-width:0.5;" width="196" x="799" y="1369.7031"/><text fill="#000000" font-family="sans-serif" font-size="20" lengthAdjust="spacing" textLength="182" x="806" y="1395.2676">OperationRequest</text><text fill="#000000" font-family="sans-serif" font-size="20" lengthAdjust="spacing" textLength="73" x="860.5" y="1418.5488">Service</text><rect fill="#E2E2F0" height="60.5625" rx="2.5" ry="2.5" style="stroke:#181818;stroke-width:0.5;" width="175" x="1303.5" y="64.0156"/><text fill="#000000" font-family="sans-serif" font-size="20" lengthAdjust="spacing" textLength="161" x="1310.5" y="89.5801">PlanningModule</text><text fill="#000000" font-family="sans-serif" font-size="20" lengthAdjust="spacing" textLength="74" x="1354" y="112.8613">Notifier</text><rect fill="#E2E2F0" height="60.5625" rx="2.5" ry="2.5" style="stroke:#181818;stroke-width:0.5;" width="175" x="1303.5" y="1369.7031"/><text fill="#000000" font-family="sans-serif" font-size="20" lengthAdjust="spacing" textLength="161" x="1310.5" y="1395.2676">PlanningModule</text><text fill="#000000" font-family="sans-serif" font-size="20" lengthAdjust="spacing" textLength="74" x="1354" y="1418.5488">Notifier</text><rect fill="#E2E2F0" height="37.2813" rx="2.5" ry="2.5" style="stroke:#181818;stroke-width:0.5;" width="156" x="1553" y="87.2969"/><text fill="#000000" font-family="sans-serif" font-size="20" lengthAdjust="spacing" textLength="142" x="1560" y="112.8613">LogRepository</text><rect fill="#E2E2F0" height="37.2813" rx="2.5" ry="2.5" style="stroke:#181818;stroke-width:0.5;" width="156" x="1553" y="1369.7031"/><text fill="#000000" font-family="sans-serif" font-size="20" lengthAdjust="spacing" textLength="142" x="1560" y="1395.2676">LogRepository</text><rect fill="#E2E2F0" height="60.5625" rx="2.5" ry="2.5" style="stroke:#181818;stroke-width:0.5;" width="196" x="1719" y="64.0156"/><text fill="#000000" font-family="sans-serif" font-size="20" lengthAdjust="spacing" textLength="182" x="1726" y="89.5801">OperationRequest</text><text fill="#000000" font-family="sans-serif" font-size="20" lengthAdjust="spacing" textLength="106" x="1764" y="112.8613">Repository</text><rect fill="#E2E2F0" height="60.5625" rx="2.5" ry="2.5" style="stroke:#181818;stroke-width:0.5;" width="196" x="1719" y="1369.7031"/><text fill="#000000" font-family="sans-serif" font-size="20" lengthAdjust="spacing" textLength="182" x="1726" y="1395.2676">OperationRequest</text><text fill="#000000" font-family="sans-serif" font-size="20" lengthAdjust="spacing" textLength="106" x="1764" y="1418.5488">Repository</text><text fill="#000000" font-family="sans-serif" font-size="20" lengthAdjust="spacing" textLength="94" x="2130" y="120.8613">Database</text><path d="M2162,66.2969 C2162,56.2969 2180,56.2969 2180,56.2969 C2180,56.2969 2198,56.2969 2198,66.2969 L2198,92.2969 C2198,102.2969 2180,102.2969 2180,102.2969 C2180,102.2969 2162,102.2969 2162,92.2969 L2162,66.2969 " fill="#E2E2F0" style="stroke:#181818;stroke-width:1.5;"/><path d="M2162,66.2969 C2162,76.2969 2180,76.2969 2180,76.2969 C2180,76.2969 2198,76.2969 2198,66.2969 " fill="none" style="stroke:#181818;stroke-width:1.5;"/><text fill="#000000" font-family="sans-serif" font-size="20" lengthAdjust="spacing" textLength="94" x="2130" y="1388.2676">Database</text><path d="M2162,1402.9844 C2162,1392.9844 2180,1392.9844 2180,1392.9844 C2180,1392.9844 2198,1392.9844 2198,1402.9844 L2198,1428.9844 C2198,1438.9844 2180,1438.9844 2180,1438.9844 C2180,1438.9844 2162,1438.9844 2162,1428.9844 L2162,1402.9844 " fill="#E2E2F0" style="stroke:#181818;stroke-width:1.5;"/><path d="M2162,1402.9844 C2162,1412.9844 2180,1412.9844 2180,1412.9844 C2180,1412.9844 2198,1412.9844 2198,1402.9844 " fill="none" style="stroke:#181818;stroke-width:1.5;"/><rect fill="#FFFFFF" height="1164.5625" style="stroke:#181818;stroke-width:1.0;" width="10" x="374" y="188.1406"/><rect fill="#FFFFFF" height="1016.4375" style="stroke:#181818;stroke-width:1.0;" width="10" x="892" y="275.7031"/><rect fill="#FFFFFF" height="110.8438" style="stroke:#181818;stroke-width:1.0;" width="10" x="1386" y="957.6094"/><polygon fill="#181818" points="362,184.1406,372,188.1406,362,192.1406,366,188.1406" style="stroke:#181818;stroke-width:1.0;"/><line style="stroke:#181818;stroke-width:1.0;" x1="41" x2="368" y1="188.1406" y2="188.1406"/><text fill="#000000" font-family="sans-serif" font-size="20" lengthAdjust="spacing" textLength="314" x="48" y="158.1426">PUT /api/operationrequest/{id}</text><text fill="#000000" font-family="sans-serif" font-size="20" lengthAdjust="spacing" textLength="314" x="48" y="181.4238">(UpdateOperationRequestDTO)</text><line style="stroke:#181818;stroke-width:1.0;" x1="384" x2="426" y1="225.4219" y2="225.4219"/><line style="stroke:#181818;stroke-width:1.0;" x1="426" x2="426" y1="225.4219" y2="238.4219"/><line style="stroke:#181818;stroke-width:1.0;" x1="385" x2="426" y1="238.4219" y2="238.4219"/><polygon fill="#181818" points="395,234.4219,385,238.4219,395,242.4219,391,238.4219" style="stroke:#181818;stroke-width:1.0;"/><text fill="#000000" font-family="sans-serif" font-size="20" lengthAdjust="spacing" textLength="267" x="391" y="218.7051">Extract Doctor ID from JWT</text><polygon fill="#181818" points="880,271.7031,890,275.7031,880,279.7031,884,275.7031" style="stroke:#181818;stroke-width:1.0;"/><line style="stroke:#181818;stroke-width:1.0;" x1="384" x2="886" y1="275.7031" y2="275.7031"/><text fill="#000000" font-family="sans-serif" font-size="20" lengthAdjust="spacing" textLength="489" x="391" y="268.9863">UpdateOperationRequestAsync(id, dto, doctorId)</text><polygon fill="#181818" points="1805,308.9844,1815,312.9844,1805,316.9844,1809,312.9844" style="stroke:#181818;stroke-width:1.0;"/><line style="stroke:#181818;stroke-width:1.0;" x1="902" x2="1811" y1="312.9844" y2="312.9844"/><text fill="#000000" font-family="sans-serif" font-size="20" lengthAdjust="spacing" textLength="174" x="909" y="306.2676">GetByIdAsync(id)</text><polygon fill="#181818" points="2168,346.2656,2178,350.2656,2168,354.2656,2172,350.2656" style="stroke:#181818;stroke-width:1.0;"/><line style="stroke:#181818;stroke-width:1.0;" x1="1817" x2="2174" y1="350.2656" y2="350.2656"/><text fill="#000000" font-family="sans-serif" font-size="20" lengthAdjust="spacing" textLength="339" x="1824" y="343.5488">SELECT FROM OperationRequests</text><polygon fill="#181818" points="1828,383.5469,1818,387.5469,1828,391.5469,1824,387.5469" style="stroke:#181818;stroke-width:1.0;"/><line style="stroke:#181818;stroke-width:1.0;stroke-dasharray:2.0,2.0;" x1="1822" x2="2179" y1="387.5469" y2="387.5469"/><text fill="#000000" font-family="sans-serif" font-size="20" lengthAdjust="spacing" textLength="182" x="1834" y="380.8301">OperationRequest</text><polygon fill="#181818" points="913,420.8281,903,424.8281,913,428.8281,909,424.8281" style="stroke:#181818;stroke-width:1.0;"/><line style="stroke:#181818;stroke-width:1.0;stroke-dasharray:2.0,2.0;" x1="907" x2="1816" y1="424.8281" y2="424.8281"/><text fill="#000000" font-family="sans-serif" font-size="20" lengthAdjust="spacing" textLength="182" x="919" y="418.1113">OperationRequest</text><line style="stroke:#181818;stroke-width:1.0;" x1="902" x2="944" y1="485.3906" y2="485.3906"/><line style="stroke:#181818;stroke-width:1.0;" x1="944" x2="944" y1="485.3906" y2="498.3906"/><line style="stroke:#181818;stroke-width:1.0;" x1="903" x2="944" y1="498.3906" y2="498.3906"/><polygon fill="#181818" points="913,494.3906,903,498.3906,913,502.3906,909,498.3906" style="stroke:#181818;stroke-width:1.0;"/><text fill="#000000" font-family="sans-serif" font-size="20" lengthAdjust="spacing" textLength="267" x="909" y="455.3926">Validate requesting doctor</text><text fill="#000000" font-family="sans-serif" font-size="20" lengthAdjust="spacing" textLength="175" x="909" y="478.6738">is original creator</text><line style="stroke:#181818;stroke-width:1.0;" x1="902" x2="944" y1="558.9531" y2="558.9531"/><line style="stroke:#181818;stroke-width:1.0;" x1="944" x2="944" y1="558.9531" y2="571.9531"/><line style="stroke:#181818;stroke-width:1.0;" x1="903" x2="944" y1="571.9531" y2="571.9531"/><polygon fill="#181818" points="913,567.9531,903,571.9531,913,575.9531,909,571.9531" style="stroke:#181818;stroke-width:1.0;"/><text fill="#000000" font-family="sans-serif" font-size="20" lengthAdjust="spacing" textLength="225" x="909" y="528.9551">Store current deadline</text><text fill="#000000" font-family="sans-serif" font-size="20" lengthAdjust="spacing" textLength="186" x="909" y="552.2363">and priority values</text><line style="stroke:#181818;stroke-width:1.0;" x1="902" x2="944" y1="725.6406" y2="725.6406"/><line style="stroke:#181818;stroke-width:1.0;" x1="944" x2="944" y1="725.6406" y2="738.6406"/><line style="stroke:#181818;stroke-width:1.0;" x1="903" x2="944" y1="738.6406" y2="738.6406"/><polygon fill="#181818" points="913,734.6406,903,738.6406,913,742.6406,909,738.6406" style="stroke:#181818;stroke-width:1.0;"/><text fill="#000000" font-family="sans-serif" font-size="20" lengthAdjust="spacing" textLength="150" x="909" y="602.5176">UpdateDetails(</text><text fill="#000000" font-family="sans-serif" font-size="20" lengthAdjust="spacing" textLength="97" x="909" y="625.7988">patientId,</text><text fill="#000000" font-family="sans-serif" font-size="20" lengthAdjust="spacing" textLength="69" x="909" y="649.0801">staffId,</text><text fill="#000000" font-family="sans-serif" font-size="20" lengthAdjust="spacing" textLength="169" x="909" y="672.3613">operationTypeId,</text><text fill="#000000" font-family="sans-serif" font-size="20" lengthAdjust="spacing" textLength="93" x="909" y="695.6426">deadline,</text><text fill="#000000" font-family="sans-serif" font-size="20" lengthAdjust="spacing" textLength="80" x="909" y="718.9238">priority)</text><polygon fill="#181818" points="1619,841.7656,1629,845.7656,1619,849.7656,1623,845.7656" style="stroke:#181818;stroke-width:1.0;"/><line style="stroke:#181818;stroke-width:1.0;" x1="902" x2="1625" y1="845.7656" y2="845.7656"/><text fill="#000000" font-family="sans-serif" font-size="20" lengthAdjust="spacing" textLength="199" x="909" y="769.2051">AddAsync(new Log(</text><text fill="#000000" font-family="sans-serif" font-size="20" lengthAdjust="spacing" textLength="220" x="909" y="792.4863">TypeOfAction.Update,</text><text fill="#000000" font-family="sans-serif" font-size="20" lengthAdjust="spacing" textLength="101" x="909" y="815.7676">requestId,</text><text fill="#000000" font-family="sans-serif" font-size="20" lengthAdjust="spacing" textLength="100" x="909" y="839.0488">changes))</text><polygon fill="#181818" points="2168,879.0469,2178,883.0469,2168,887.0469,2172,883.0469" style="stroke:#181818;stroke-width:1.0;"/><line style="stroke:#181818;stroke-width:1.0;" x1="1631" x2="2174" y1="883.0469" y2="883.0469"/><text fill="#000000" font-family="sans-serif" font-size="20" lengthAdjust="spacing" textLength="180" x="1638" y="876.3301">INSERT INTO Logs</text><polygon fill="#181818" points="1642,916.3281,1632,920.3281,1642,924.3281,1638,920.3281" style="stroke:#181818;stroke-width:1.0;"/><line style="stroke:#181818;stroke-width:1.0;stroke-dasharray:2.0,2.0;" x1="1636" x2="2179" y1="920.3281" y2="920.3281"/><text fill="#000000" font-family="sans-serif" font-size="20" lengthAdjust="spacing" textLength="63" x="1648" y="913.6113">Log ID</text><polygon fill="#181818" points="1374,953.6094,1384,957.6094,1374,961.6094,1378,957.6094" style="stroke:#181818;stroke-width:1.0;"/><line style="stroke:#181818;stroke-width:1.0;" x1="902" x2="1380" y1="957.6094" y2="957.6094"/><text fill="#000000" font-family="sans-serif" font-size="20" lengthAdjust="spacing" textLength="465" x="909" y="950.8926">NotifyOperationRequestUpdateAsync(request)</text><line style="stroke:#181818;stroke-width:1.0;" x1="1396" x2="1438" y1="1018.1719" y2="1018.1719"/><line style="stroke:#181818;stroke-width:1.0;" x1="1438" x2="1438" y1="1018.1719" y2="1031.1719"/><line style="stroke:#181818;stroke-width:1.0;" x1="1397" x2="1438" y1="1031.1719" y2="1031.1719"/><polygon fill="#181818" points="1407,1027.1719,1397,1031.1719,1407,1035.1719,1403,1031.1719" style="stroke:#181818;stroke-width:1.0;"/><text fill="#000000" font-family="sans-serif" font-size="20" lengthAdjust="spacing" textLength="216" x="1403" y="988.1738">Send HTTP request to</text><text fill="#000000" font-family="sans-serif" font-size="20" lengthAdjust="spacing" textLength="171" x="1403" y="1011.4551">planning module</text><polygon fill="#181818" points="913,1064.4531,903,1068.4531,913,1072.4531,909,1068.4531" style="stroke:#181818;stroke-width:1.0;"/><line style="stroke:#181818;stroke-width:1.0;stroke-dasharray:2.0,2.0;" x1="907" x2="1390" y1="1068.4531" y2="1068.4531"/><text fill="#000000" font-family="sans-serif" font-size="20" lengthAdjust="spacing" textLength="179" x="919" y="1061.7363">Notification result</text><polygon fill="#181818" points="1805,1101.7344,1815,1105.7344,1805,1109.7344,1809,1105.7344" style="stroke:#181818;stroke-width:1.0;"/><line style="stroke:#181818;stroke-width:1.0;" x1="902" x2="1811" y1="1105.7344" y2="1105.7344"/><text fill="#000000" font-family="sans-serif" font-size="20" lengthAdjust="spacing" textLength="224" x="909" y="1099.0176">UpdateAsync(request)</text><polygon fill="#181818" points="2168,1139.0156,2178,1143.0156,2168,1147.0156,2172,1143.0156" style="stroke:#181818;stroke-width:1.0;"/><line style="stroke:#181818;stroke-width:1.0;" x1="1817" x2="2174" y1="1143.0156" y2="1143.0156"/><text fill="#000000" font-family="sans-serif" font-size="20" lengthAdjust="spacing" textLength="279" x="1824" y="1136.2988">UPDATE OperationRequests</text><polygon fill="#181818" points="1828,1176.2969,1818,1180.2969,1828,1184.2969,1824,1180.2969" style="stroke:#181818;stroke-width:1.0;"/><line style="stroke:#181818;stroke-width:1.0;stroke-dasharray:2.0,2.0;" x1="1822" x2="2179" y1="1180.2969" y2="1180.2969"/><text fill="#000000" font-family="sans-serif" font-size="20" lengthAdjust="spacing" textLength="80" x="1834" y="1173.5801">Success</text><polygon fill="#181818" points="2168,1213.5781,2178,1217.5781,2168,1221.5781,2172,1217.5781" style="stroke:#181818;stroke-width:1.0;"/><line style="stroke:#181818;stroke-width:1.0;" x1="902" x2="2174" y1="1217.5781" y2="1217.5781"/><text fill="#000000" font-family="sans-serif" font-size="20" lengthAdjust="spacing" textLength="205" x="909" y="1210.8613">COMMIT Transaction</text><polygon fill="#181818" points="913,1250.8594,903,1254.8594,913,1258.8594,909,1254.8594" style="stroke:#181818;stroke-width:1.0;"/><line style="stroke:#181818;stroke-width:1.0;stroke-dasharray:2.0,2.0;" x1="907" x2="2179" y1="1254.8594" y2="1254.8594"/><text fill="#000000" font-family="sans-serif" font-size="20" lengthAdjust="spacing" textLength="80" x="919" y="1248.1426">Success</text><polygon fill="#181818" points="395,1288.1406,385,1292.1406,395,1296.1406,391,1292.1406" style="stroke:#181818;stroke-width:1.0;"/><line style="stroke:#181818;stroke-width:1.0;stroke-dasharray:2.0,2.0;" x1="389" x2="896" y1="1292.1406" y2="1292.1406"/><text fill="#000000" font-family="sans-serif" font-size="20" lengthAdjust="spacing" textLength="274" x="401" y="1285.4238">Updated OperationRequest</text><polygon fill="#181818" points="52,1348.7031,42,1352.7031,52,1356.7031,48,1352.7031" style="stroke:#181818;stroke-width:1.0;"/><line style="stroke:#181818;stroke-width:1.0;stroke-dasharray:2.0,2.0;" x1="46" x2="378" y1="1352.7031" y2="1352.7031"/><text fill="#000000" font-family="sans-serif" font-size="20" lengthAdjust="spacing" textLength="124" x="58" y="1322.7051">200 OK with</text><text fill="#000000" font-family="sans-serif" font-size="20" lengthAdjust="spacing" textLength="239" x="58" y="1345.9863">updated request details</text><!--SRC=[XLJ1Sjem4BthAtPoQPX9caoE73e3cBIq43FOQIzSL6iXcYYIAmaIqic_ToNB3f1CSy0OjFlUsxUxSlTIrzpo1sMgUnGWSCKtobyRxGlvZ71roRpq2Y4pbJSMyXejzz9eME2V3JeFjxNW7k5QcKSuXobkKS4LOpo6DrcC6BoiPCsrXvCE8Y4izOZOh54AxGbm1_bYz556WNOhAqpXnM7uN76jfLxFZDWeNEeRu-LA9l3vxEOmUchM2woDaoHq5qEcYu_eZnBo1ICF-6_k44woz1PFiY5ZoRdpBw6mFinlIxZWjRmmBQnjO2_-Il6orAUDeSUaMPdtWgbo6zmE5Z5wTAZZ9s_fj6tJ98ELDG_m_LUv5rVquNtmWTlfwbIACn3Uq2E2JCG1OS7O9_YA7hWMiELAnhRZatIUl8PK194L3La_10zt4z62z-Wi76N3FXJZwNXKmlKYdy6n6CUo8PmdZEF3YD4My-QG5FvibJL50D_uEsFbSunxLKVPNMII7gfeafPQEg2ajTHSGMMHXo4cy8A-4OoA1b0Eh8X1cJK5hW-mcy1gOotI10daGabDenYygwqaRBzB604txT0R3xk6PUYvLEvqISlg9M5EnDbIEyzNg_ZMpLAvgp7-qtBIQqlO2rIZK0sIBKBw8BqbcvBP0v6QfV4HQ2-8Bk3bgq4Li3ytMWWn2Or4rHtNQtIz7fjsxPtS5ED5ILzb7d2wZWOI-atZ6QJ4lTn1dTOL7kA-je9eKVifvBZFZOv6QfAoDwfXm-dJOHH8fdyhotdhBtX3fXonnepMzER6g9gBpgAZ6v6HeViCOHhubdhSbBy_z-_AUvtzstasACV_7_jYKrNe76jXGzuedyqc9PIMQyTZGrupYkEKzbvej8Ytgx9NJjpjU4a4fhW1VRhuBo7_0O_Itotr9g6q1efc70z1HkmV]--></g></svg>