<?xml version="1.0" encoding="UTF-8" standalone="no"?><svg xmlns="http://www.w3.org/2000/svg" xmlns:xlink="http://www.w3.org/1999/xlink" contentStyleType="text/css" height="1430px" preserveAspectRatio="none" style="width:4822px;height:1430px;background:#FFFFFF;" version="1.1" viewBox="0 0 4822 1430" width="4822px" zoomAndPan="magnify"><defs/><g><text fill="#000000" font-family="sans-serif" font-size="14" font-weight="bold" lengthAdjust="spacing" textLength="149" x="2338.5" y="27.9951">Level 3 FE Diagram</text><rect fill="#FFFFFF" height="1198.4375" style="stroke:#181818;stroke-width:1.0;" width="10" x="36" y="135.5781"/><rect fill="#FFFFFF" height="620.2188" style="stroke:#181818;stroke-width:1.0;" width="10" x="1464" y="164.8594"/><rect fill="#FFFFFF" height="502.6563" style="stroke:#181818;stroke-width:1.0;" width="10" x="1464" y="822.3594"/><rect fill="#FFFFFF" height="67.2813" style="stroke:#181818;stroke-width:1.0;" width="10" x="1917" y="202.1406"/><rect fill="#FFFFFF" height="508.375" style="stroke:#181818;stroke-width:1.0;" width="10" x="2405" y="239.4219"/><rect fill="#FFFFFF" height="428.0938" style="stroke:#181818;stroke-width:1.0;" width="10" x="2405" y="859.6406"/><rect fill="#FFFFFF" height="353.5313" style="stroke:#181818;stroke-width:1.0;" width="10" x="3170" y="306.7031"/><rect fill="#FFFFFF" height="353.5313" style="stroke:#181818;stroke-width:1.0;" width="10" x="3170" y="896.9219"/><rect fill="#FFFFFF" height="278.9688" style="stroke:#181818;stroke-width:1.0;" width="10" x="3714" y="343.9844"/><rect fill="#FFFFFF" height="278.9688" style="stroke:#181818;stroke-width:1.0;" width="10" x="3714" y="934.2031"/><rect fill="#FFFFFF" height="87.5625" style="stroke:#181818;stroke-width:1.0;" width="10" x="4301" y="498.1094"/><rect fill="#FFFFFF" height="87.5625" style="stroke:#181818;stroke-width:1.0;" width="10" x="4301" y="1088.3281"/><line style="stroke:#181818;stroke-width:0.5;stroke-dasharray:5.0,5.0;" x1="41" x2="41" y1="125.5781" y2="1343.0156"/><line style="stroke:#181818;stroke-width:0.5;stroke-dasharray:5.0,5.0;" x1="1468.5" x2="1468.5" y1="125.5781" y2="1343.0156"/><line style="stroke:#181818;stroke-width:0.5;stroke-dasharray:5.0,5.0;" x1="1921.5" x2="1921.5" y1="125.5781" y2="1343.0156"/><line style="stroke:#181818;stroke-width:0.5;stroke-dasharray:5.0,5.0;" x1="2410" x2="2410" y1="125.5781" y2="1343.0156"/><line style="stroke:#181818;stroke-width:0.5;stroke-dasharray:5.0,5.0;" x1="2899.5" x2="2899.5" y1="125.5781" y2="1343.0156"/><line style="stroke:#181818;stroke-width:0.5;stroke-dasharray:5.0,5.0;" x1="3174.5" x2="3174.5" y1="125.5781" y2="1343.0156"/><line style="stroke:#181818;stroke-width:0.5;stroke-dasharray:5.0,5.0;" x1="3718.5" x2="3718.5" y1="125.5781" y2="1343.0156"/><line style="stroke:#181818;stroke-width:0.5;stroke-dasharray:5.0,5.0;" x1="4306" x2="4306" y1="125.5781" y2="1343.0156"/><text fill="#000000" font-family="sans-serif" font-size="20" lengthAdjust="spacing" textLength="66" x="5" y="120.8613">Doctor</text><ellipse cx="41" cy="50.7969" fill="#E2E2F0" rx="8" ry="8" style="stroke:#181818;stroke-width:0.5;"/><path d="M41,58.7969 L41,85.7969 M28,66.7969 L54,66.7969 M41,85.7969 L28,100.7969 M41,85.7969 L54,100.7969 " fill="none" style="stroke:#181818;stroke-width:0.5;"/><text fill="#000000" font-family="sans-serif" font-size="20" lengthAdjust="spacing" textLength="66" x="5" y="1360.5801">Doctor</text><ellipse cx="41" cy="1373.7969" fill="#E2E2F0" rx="8" ry="8" style="stroke:#181818;stroke-width:0.5;"/><path d="M41,1381.7969 L41,1408.7969 M28,1389.7969 L54,1389.7969 M41,1408.7969 L28,1423.7969 M41,1408.7969 L54,1423.7969 " fill="none" style="stroke:#181818;stroke-width:0.5;"/><rect fill="#E2E2F0" height="37.2813" rx="2.5" ry="2.5" style="stroke:#181818;stroke-width:0.5;" width="63" x="1437.5" y="87.2969"/><text fill="#000000" font-family="sans-serif" font-size="20" lengthAdjust="spacing" textLength="49" x="1444.5" y="112.8613">View</text><rect fill="#E2E2F0" height="37.2813" rx="2.5" ry="2.5" style="stroke:#181818;stroke-width:0.5;" width="63" x="1437.5" y="1342.0156"/><text fill="#000000" font-family="sans-serif" font-size="20" lengthAdjust="spacing" textLength="49" x="1444.5" y="1367.5801">View</text><rect fill="#E2E2F0" height="37.2813" rx="2.5" ry="2.5" style="stroke:#181818;stroke-width:0.5;" width="529" x="1657.5" y="87.2969"/><text fill="#000000" font-family="sans-serif" font-size="20" lengthAdjust="spacing" textLength="515" x="1664.5" y="112.8613">AllergiesAndMedicalConditionsManagerComponent</text><rect fill="#E2E2F0" height="37.2813" rx="2.5" ry="2.5" style="stroke:#181818;stroke-width:0.5;" width="529" x="1657.5" y="1342.0156"/><text fill="#000000" font-family="sans-serif" font-size="20" lengthAdjust="spacing" textLength="515" x="1664.5" y="1367.5801">AllergiesAndMedicalConditionsManagerComponent</text><rect fill="#E2E2F0" height="37.2813" rx="2.5" ry="2.5" style="stroke:#181818;stroke-width:0.5;" width="378" x="2221" y="87.2969"/><text fill="#000000" font-family="sans-serif" font-size="20" lengthAdjust="spacing" textLength="364" x="2228" y="112.8613">UpdateMedicalConditionComponent</text><rect fill="#E2E2F0" height="37.2813" rx="2.5" ry="2.5" style="stroke:#181818;stroke-width:0.5;" width="378" x="2221" y="1342.0156"/><text fill="#000000" font-family="sans-serif" font-size="20" lengthAdjust="spacing" textLength="364" x="2228" y="1367.5801">UpdateMedicalConditionComponent</text><rect fill="#E2E2F0" height="37.2813" rx="2.5" ry="2.5" style="stroke:#181818;stroke-width:0.5;" width="269" x="2765.5" y="87.2969"/><text fill="#000000" font-family="sans-serif" font-size="20" lengthAdjust="spacing" textLength="255" x="2772.5" y="112.8613">OperationRequestService</text><rect fill="#E2E2F0" height="37.2813" rx="2.5" ry="2.5" style="stroke:#181818;stroke-width:0.5;" width="269" x="2765.5" y="1342.0156"/><text fill="#000000" font-family="sans-serif" font-size="20" lengthAdjust="spacing" textLength="255" x="2772.5" y="1367.5801">OperationRequestService</text><rect fill="#E2E2F0" height="37.2813" rx="2.5" ry="2.5" style="stroke:#181818;stroke-width:0.5;" width="261" x="3044.5" y="87.2969"/><text fill="#000000" font-family="sans-serif" font-size="20" lengthAdjust="spacing" textLength="247" x="3051.5" y="112.8613">MedicalConditionService</text><rect fill="#E2E2F0" height="37.2813" rx="2.5" ry="2.5" style="stroke:#181818;stroke-width:0.5;" width="261" x="3044.5" y="1342.0156"/><text fill="#000000" font-family="sans-serif" font-size="20" lengthAdjust="spacing" textLength="247" x="3051.5" y="1367.5801">MedicalConditionService</text><rect fill="#E2E2F0" height="37.2813" rx="2.5" ry="2.5" style="stroke:#181818;stroke-width:0.5;" width="173" x="3632.5" y="87.2969"/><text fill="#000000" font-family="sans-serif" font-size="20" lengthAdjust="spacing" textLength="159" x="3639.5" y="112.8613">AuthInterceptor</text><rect fill="#E2E2F0" height="37.2813" rx="2.5" ry="2.5" style="stroke:#181818;stroke-width:0.5;" width="173" x="3632.5" y="1342.0156"/><text fill="#000000" font-family="sans-serif" font-size="20" lengthAdjust="spacing" textLength="159" x="3639.5" y="1367.5801">AuthInterceptor</text><rect fill="#E2E2F0" height="37.2813" rx="2.5" ry="2.5" style="stroke:#181818;stroke-width:0.5;" width="60" x="4276" y="87.2969"/><text fill="#000000" font-family="sans-serif" font-size="20" lengthAdjust="spacing" textLength="46" x="4283" y="112.8613">MDV</text><rect fill="#E2E2F0" height="37.2813" rx="2.5" ry="2.5" style="stroke:#181818;stroke-width:0.5;" width="60" x="4276" y="1342.0156"/><text fill="#000000" font-family="sans-serif" font-size="20" lengthAdjust="spacing" textLength="46" x="4283" y="1367.5801">MDV</text><rect fill="#FFFFFF" height="1198.4375" style="stroke:#181818;stroke-width:1.0;" width="10" x="36" y="135.5781"/><rect fill="#FFFFFF" height="620.2188" style="stroke:#181818;stroke-width:1.0;" width="10" x="1464" y="164.8594"/><rect fill="#FFFFFF" height="502.6563" style="stroke:#181818;stroke-width:1.0;" width="10" x="1464" y="822.3594"/><rect fill="#FFFFFF" height="67.2813" style="stroke:#181818;stroke-width:1.0;" width="10" x="1917" y="202.1406"/><rect fill="#FFFFFF" height="508.375" style="stroke:#181818;stroke-width:1.0;" width="10" x="2405" y="239.4219"/><rect fill="#FFFFFF" height="428.0938" style="stroke:#181818;stroke-width:1.0;" width="10" x="2405" y="859.6406"/><rect fill="#FFFFFF" height="353.5313" style="stroke:#181818;stroke-width:1.0;" width="10" x="3170" y="306.7031"/><rect fill="#FFFFFF" height="353.5313" style="stroke:#181818;stroke-width:1.0;" width="10" x="3170" y="896.9219"/><rect fill="#FFFFFF" height="278.9688" style="stroke:#181818;stroke-width:1.0;" width="10" x="3714" y="343.9844"/><rect fill="#FFFFFF" height="278.9688" style="stroke:#181818;stroke-width:1.0;" width="10" x="3714" y="934.2031"/><rect fill="#FFFFFF" height="87.5625" style="stroke:#181818;stroke-width:1.0;" width="10" x="4301" y="498.1094"/><rect fill="#FFFFFF" height="87.5625" style="stroke:#181818;stroke-width:1.0;" width="10" x="4301" y="1088.3281"/><polygon fill="#000000" points="1452,160.8594,1462,164.8594,1452,168.8594,1456,164.8594" style="stroke:#000000;stroke-width:1.0;"/><line style="stroke:#000000;stroke-width:1.0;" x1="46" x2="1458" y1="164.8594" y2="164.8594"/><text fill="#000000" font-family="sans-serif" font-size="20" lengthAdjust="spacing" textLength="347" x="53" y="158.1426">Asks to update a MedicalCondition</text><polygon fill="#000000" points="1905,198.1406,1915,202.1406,1905,206.1406,1909,202.1406" style="stroke:#000000;stroke-width:1.0;"/><line style="stroke:#000000;stroke-width:1.0;" x1="1474" x2="1911" y1="202.1406" y2="202.1406"/><text fill="#000000" font-family="sans-serif" font-size="20" lengthAdjust="spacing" textLength="424" x="1481" y="195.4238">routerLink='/update-MedicalCondition/:id'</text><polygon fill="#000000" points="2393,235.4219,2403,239.4219,2393,243.4219,2397,239.4219" style="stroke:#000000;stroke-width:1.0;"/><line style="stroke:#000000;stroke-width:1.0;" x1="1927" x2="2399" y1="239.4219" y2="239.4219"/><text fill="#000000" font-family="sans-serif" font-size="20" lengthAdjust="spacing" textLength="459" x="1934" y="232.7051">routes to UpdateMedicalConditionComponent</text><polygon fill="#000000" points="3158,302.7031,3168,306.7031,3158,310.7031,3162,306.7031" style="stroke:#000000;stroke-width:1.0;"/><line style="stroke:#000000;stroke-width:1.0;" x1="2415" x2="3164" y1="306.7031" y2="306.7031"/><text fill="#000000" font-family="sans-serif" font-size="20" lengthAdjust="spacing" textLength="260" x="2422" y="299.9863">fetchMedicalCondition(id)</text><polygon fill="#000000" points="3702,339.9844,3712,343.9844,3702,347.9844,3706,343.9844" style="stroke:#000000;stroke-width:1.0;"/><line style="stroke:#000000;stroke-width:1.0;" x1="3180" x2="3708" y1="343.9844" y2="343.9844"/><text fill="#000000" font-family="sans-serif" font-size="20" lengthAdjust="spacing" textLength="503" x="3187" y="337.2676">Makes Http Request to get Medical Condition data</text><line style="stroke:#000000;stroke-width:1.0;" x1="3724" x2="3766" y1="381.2656" y2="381.2656"/><line style="stroke:#000000;stroke-width:1.0;" x1="3766" x2="3766" y1="381.2656" y2="394.2656"/><line style="stroke:#000000;stroke-width:1.0;" x1="3725" x2="3766" y1="394.2656" y2="394.2656"/><polygon fill="#000000" points="3735,390.2656,3725,394.2656,3735,398.2656,3731,394.2656" style="stroke:#000000;stroke-width:1.0;"/><text fill="#000000" font-family="sans-serif" font-size="20" lengthAdjust="spacing" textLength="563" x="3731" y="374.5488">Intercepts the request and adds the token to the header</text><path d="M3729,407.2656 L3729,463.2656 L4248,463.2656 L4248,417.2656 L4238,407.2656 L3729,407.2656 " fill="#FEFFDD" style="stroke:#181818;stroke-width:0.5;"/><path d="M4238,407.2656 L4238,417.2656 L4248,417.2656 L4238,407.2656 " fill="#FEFFDD" style="stroke:#181818;stroke-width:0.5;"/><text fill="#000000" font-family="sans-serif" font-size="20" lengthAdjust="spacing" textLength="498" x="3735" y="430.8301">The token is added to the header so that the MDV</text><text fill="#000000" font-family="sans-serif" font-size="20" lengthAdjust="spacing" textLength="442" x="3735" y="454.1113">can authenticate and authorize the request.</text><polygon fill="#000000" points="4289,494.1094,4299,498.1094,4289,502.1094,4293,498.1094" style="stroke:#000000;stroke-width:1.0;"/><line style="stroke:#000000;stroke-width:1.0;" x1="3724" x2="4295" y1="498.1094" y2="498.1094"/><text fill="#000000" font-family="sans-serif" font-size="20" lengthAdjust="spacing" textLength="289" x="3731" y="491.3926">getMedicalConditionData(id)</text><line style="stroke:#000000;stroke-width:1.0;" x1="4311" x2="4353" y1="535.3906" y2="535.3906"/><line style="stroke:#000000;stroke-width:1.0;" x1="4353" x2="4353" y1="535.3906" y2="548.3906"/><line style="stroke:#000000;stroke-width:1.0;" x1="4312" x2="4353" y1="548.3906" y2="548.3906"/><polygon fill="#000000" points="4322,544.3906,4312,548.3906,4322,552.3906,4318,548.3906" style="stroke:#000000;stroke-width:1.0;"/><text fill="#000000" font-family="sans-serif" font-size="20" lengthAdjust="spacing" textLength="315" x="4318" y="528.6738">Fetches Medical Condition data</text><polygon fill="#000000" points="3735,581.6719,3725,585.6719,3735,589.6719,3731,585.6719" style="stroke:#000000;stroke-width:1.0;"/><line style="stroke:#000000;stroke-width:1.0;stroke-dasharray:2.0,2.0;" x1="3729" x2="4305" y1="585.6719" y2="585.6719"/><text fill="#000000" font-family="sans-serif" font-size="20" lengthAdjust="spacing" textLength="305" x="3741" y="578.9551">returns Operation Status Code</text><polygon fill="#000000" points="3191,618.9531,3181,622.9531,3191,626.9531,3187,622.9531" style="stroke:#000000;stroke-width:1.0;"/><line style="stroke:#000000;stroke-width:1.0;stroke-dasharray:2.0,2.0;" x1="3185" x2="3718" y1="622.9531" y2="622.9531"/><text fill="#000000" font-family="sans-serif" font-size="20" lengthAdjust="spacing" textLength="305" x="3197" y="616.2363">returns Operation Status Code</text><polygon fill="#000000" points="2426,656.2344,2416,660.2344,2426,664.2344,2422,660.2344" style="stroke:#000000;stroke-width:1.0;"/><line style="stroke:#000000;stroke-width:1.0;stroke-dasharray:2.0,2.0;" x1="2420" x2="3174" y1="660.2344" y2="660.2344"/><text fill="#000000" font-family="sans-serif" font-size="20" lengthAdjust="spacing" textLength="280" x="2432" y="653.5176">returns Operation Response</text><line style="stroke:#000000;stroke-width:1.0;" x1="2415" x2="2457" y1="697.5156" y2="697.5156"/><line style="stroke:#000000;stroke-width:1.0;" x1="2457" x2="2457" y1="697.5156" y2="710.5156"/><line style="stroke:#000000;stroke-width:1.0;" x1="2416" x2="2457" y1="710.5156" y2="710.5156"/><polygon fill="#000000" points="2426,706.5156,2416,710.5156,2426,714.5156,2422,710.5156" style="stroke:#000000;stroke-width:1.0;"/><text fill="#000000" font-family="sans-serif" font-size="20" lengthAdjust="spacing" textLength="466" x="2422" y="690.7988">initializes UpdateMedicalConditionComponent</text><polygon fill="#000000" points="1485,743.7969,1475,747.7969,1485,751.7969,1481,747.7969" style="stroke:#000000;stroke-width:1.0;"/><line style="stroke:#000000;stroke-width:1.0;stroke-dasharray:2.0,2.0;" x1="1479" x2="2409" y1="747.7969" y2="747.7969"/><text fill="#000000" font-family="sans-serif" font-size="20" lengthAdjust="spacing" textLength="442" x="1491" y="741.0801">returns UpdateMedicalConditionComponent</text><polygon fill="#000000" points="57,781.0781,47,785.0781,57,789.0781,53,785.0781" style="stroke:#000000;stroke-width:1.0;"/><line style="stroke:#000000;stroke-width:1.0;stroke-dasharray:2.0,2.0;" x1="51" x2="1468" y1="785.0781" y2="785.0781"/><text fill="#000000" font-family="sans-serif" font-size="20" lengthAdjust="spacing" textLength="722" x="63" y="778.3613">Displays the fetched data and asks for the new Medical Condition's data</text><polygon fill="#000000" points="1452,818.3594,1462,822.3594,1452,826.3594,1456,822.3594" style="stroke:#000000;stroke-width:1.0;"/><line style="stroke:#000000;stroke-width:1.0;" x1="46" x2="1458" y1="822.3594" y2="822.3594"/><text fill="#000000" font-family="sans-serif" font-size="20" lengthAdjust="spacing" textLength="1399" x="53" y="815.6426">Sends Medical Condition's data (MedicalConditionCode, MedicalConditionName, MedicalConditionDescription, MedicalConditionSymptoms)</text><polygon fill="#000000" points="2393,855.6406,2403,859.6406,2393,863.6406,2397,859.6406" style="stroke:#000000;stroke-width:1.0;"/><line style="stroke:#000000;stroke-width:1.0;" x1="1474" x2="2399" y1="859.6406" y2="859.6406"/><text fill="#000000" font-family="sans-serif" font-size="20" lengthAdjust="spacing" textLength="330" x="1481" y="852.9238">updateMedicalCondition($event)</text><polygon fill="#000000" points="3158,892.9219,3168,896.9219,3158,900.9219,3162,896.9219" style="stroke:#000000;stroke-width:1.0;"/><line style="stroke:#000000;stroke-width:1.0;" x1="2415" x2="3164" y1="896.9219" y2="896.9219"/><text fill="#000000" font-family="sans-serif" font-size="20" lengthAdjust="spacing" textLength="477" x="2422" y="890.2051">updateMedicalCondition(newMedicalCondition)</text><polygon fill="#000000" points="3702,930.2031,3712,934.2031,3702,938.2031,3706,934.2031" style="stroke:#000000;stroke-width:1.0;"/><line style="stroke:#000000;stroke-width:1.0;" x1="3180" x2="3708" y1="934.2031" y2="934.2031"/><text fill="#000000" font-family="sans-serif" font-size="20" lengthAdjust="spacing" textLength="515" x="3187" y="927.4863">Makes Http Request to update an MedicalCondition</text><line style="stroke:#000000;stroke-width:1.0;" x1="3724" x2="3766" y1="971.4844" y2="971.4844"/><line style="stroke:#000000;stroke-width:1.0;" x1="3766" x2="3766" y1="971.4844" y2="984.4844"/><line style="stroke:#000000;stroke-width:1.0;" x1="3725" x2="3766" y1="984.4844" y2="984.4844"/><polygon fill="#000000" points="3735,980.4844,3725,984.4844,3735,988.4844,3731,984.4844" style="stroke:#000000;stroke-width:1.0;"/><text fill="#000000" font-family="sans-serif" font-size="20" lengthAdjust="spacing" textLength="563" x="3731" y="964.7676">Intercepts the request and adds the token to the header</text><path d="M3729,997.4844 L3729,1053.4844 L4248,1053.4844 L4248,1007.4844 L4238,997.4844 L3729,997.4844 " fill="#FEFFDD" style="stroke:#181818;stroke-width:0.5;"/><path d="M4238,997.4844 L4238,1007.4844 L4248,1007.4844 L4238,997.4844 " fill="#FEFFDD" style="stroke:#181818;stroke-width:0.5;"/><text fill="#000000" font-family="sans-serif" font-size="20" lengthAdjust="spacing" textLength="498" x="3735" y="1021.0488">The token is added to the header so that the MDV</text><text fill="#000000" font-family="sans-serif" font-size="20" lengthAdjust="spacing" textLength="442" x="3735" y="1044.3301">can authenticate and authorize the request.</text><polygon fill="#000000" points="4289,1084.3281,4299,1088.3281,4289,1092.3281,4293,1088.3281" style="stroke:#000000;stroke-width:1.0;"/><line style="stroke:#000000;stroke-width:1.0;" x1="3724" x2="4295" y1="1088.3281" y2="1088.3281"/><text fill="#000000" font-family="sans-serif" font-size="20" lengthAdjust="spacing" textLength="477" x="3731" y="1081.6113">updateMedicalCondition(newMedicalCondition)</text><line style="stroke:#000000;stroke-width:1.0;" x1="4311" x2="4353" y1="1125.6094" y2="1125.6094"/><line style="stroke:#000000;stroke-width:1.0;" x1="4353" x2="4353" y1="1125.6094" y2="1138.6094"/><line style="stroke:#000000;stroke-width:1.0;" x1="4312" x2="4353" y1="1138.6094" y2="1138.6094"/><polygon fill="#000000" points="4322,1134.6094,4312,1138.6094,4322,1142.6094,4318,1138.6094" style="stroke:#000000;stroke-width:1.0;"/><text fill="#000000" font-family="sans-serif" font-size="20" lengthAdjust="spacing" textLength="497" x="4318" y="1118.8926">Validates Medical Condition's data and updates it</text><polygon fill="#000000" points="3735,1171.8906,3725,1175.8906,3735,1179.8906,3731,1175.8906" style="stroke:#000000;stroke-width:1.0;"/><line style="stroke:#000000;stroke-width:1.0;stroke-dasharray:2.0,2.0;" x1="3729" x2="4305" y1="1175.8906" y2="1175.8906"/><text fill="#000000" font-family="sans-serif" font-size="20" lengthAdjust="spacing" textLength="311" x="3741" y="1169.1738">Returns Operation Status Code</text><polygon fill="#000000" points="3191,1209.1719,3181,1213.1719,3191,1217.1719,3187,1213.1719" style="stroke:#000000;stroke-width:1.0;"/><line style="stroke:#000000;stroke-width:1.0;stroke-dasharray:2.0,2.0;" x1="3185" x2="3718" y1="1213.1719" y2="1213.1719"/><text fill="#000000" font-family="sans-serif" font-size="20" lengthAdjust="spacing" textLength="305" x="3197" y="1206.4551">returns Operation Status Code</text><polygon fill="#000000" points="2426,1246.4531,2416,1250.4531,2426,1254.4531,2422,1250.4531" style="stroke:#000000;stroke-width:1.0;"/><line style="stroke:#000000;stroke-width:1.0;stroke-dasharray:2.0,2.0;" x1="2420" x2="3174" y1="1250.4531" y2="1250.4531"/><text fill="#000000" font-family="sans-serif" font-size="20" lengthAdjust="spacing" textLength="280" x="2432" y="1243.7363">returns Operation Response</text><polygon fill="#000000" points="1485,1283.7344,1475,1287.7344,1485,1291.7344,1481,1287.7344" style="stroke:#000000;stroke-width:1.0;"/><line style="stroke:#000000;stroke-width:1.0;stroke-dasharray:2.0,2.0;" x1="1479" x2="2409" y1="1287.7344" y2="1287.7344"/><text fill="#000000" font-family="sans-serif" font-size="20" lengthAdjust="spacing" textLength="374" x="1491" y="1281.0176">returns Operation In/Sucess message</text><polygon fill="#000000" points="57,1321.0156,47,1325.0156,57,1329.0156,53,1325.0156" style="stroke:#000000;stroke-width:1.0;"/><line style="stroke:#000000;stroke-width:1.0;stroke-dasharray:2.0,2.0;" x1="51" x2="1468" y1="1325.0156" y2="1325.0156"/><text fill="#000000" font-family="sans-serif" font-size="20" lengthAdjust="spacing" textLength="374" x="63" y="1318.2988">returns Operation In/Sucess message</text><!--SRC=[tLPjRzem4FwUNt5g9z5AwzfrsXlgAeL2j4XbbSZeTpS-m2FOcUrGiMd_VMU7b2H0k-xJDAH2ET_ptFcvbs3cGkPCiqMcqZbou3XXHMOZ9MqYVY2SdmM15JP3kCObPl06eW7q1PiI90XcWYFW8hShME3Y3hK9EgPYX6iXqQvo1ANjJ0N1vYJDc37mCm1wzLWwdsfLI7wbCgKlBfOiA_3cxXkczl8I3lll1c7qORUhLihxHFr1ht-ssyUWNeeKFTNhw7pGs-K6X-Cu-ZXuxyz2hTLzQUvbv1VygkUUauLDSNVsS3ZeHM-ZdeEmr9AXh_m7Cn06H615Ad8cBTmAl7VMSTmm7uHPXdegq8II3v6Bb6LNId9XXP9co2I5rbTgaIk9qXvutk5LasASSsQn3Mw2nc4BT9EZPivlXDyBD3OfPVFEDwEawTpchZk7BT-miBDOMjGfvgH4wTEyzB1_wwpquLKJIqgVv0hXv9BqwK9evWQiWi9V31YquszG9ESuTZXIfGjK60fCVJZ_r3ajqITjx6bNy4ujBAb9VpvqM57uw4_8Mik1jENOO2IJJohfmWHjEckp70b-NCiX2SB4-zFbXsnEyJzRcyEwD2wPATfA1NXW0KgGrMZY88mhceSIq5rc27fDnIG7ndbfj6gEqh6xBpDa77KW5J5fCPrPK1D7wRh-wuEpC0vEYwE10kE-CUjDhgmEb389Z9g1jAAqNHrTR38exJPDBQjN0TAHYxo-055qtPNRilNflatfN33NJXKeScgJVdkqygvhXJJQGalgzceI8B7C5eOm7Ei5TJ5SNkk2_Z7ErIFniBApjd0ZDDHBfWbAgkRn824fUvQHOER9XlIuzGXLmPx2r2AxDXwlhzcbdM_oZAtAHl4zx9uMf65PHZUX4zfpxbJIPjlIksDAnUi1uis89rHninS5HziPStovjGU-iCKEQnzDgaNk_jq-J5Rq-58BSxnZXtZ5YvsA7RsWnw6qnysfhutv7XXfqxOzR_2h7IWVMOB_sU3_bPJjHN1BG-De7caobrOPou2mZTqm-gTtGsl6Dw1OdYP5YlHRQq5lzDDX_tm_5nm7lm40]--></g></svg>