<?xml version="1.0" encoding="UTF-8" standalone="no"?><svg xmlns="http://www.w3.org/2000/svg" xmlns:xlink="http://www.w3.org/1999/xlink" contentStyleType="text/css" height="1009px" preserveAspectRatio="none" style="width:4563px;height:1009px;background:#FFFFFF;" version="1.1" viewBox="0 0 4563 1009" width="4563px" zoomAndPan="magnify"><defs/><g><text fill="#000000" font-family="sans-serif" font-size="14" font-weight="bold" lengthAdjust="spacing" textLength="149" x="2209" y="27.9951">Level 3 FE Diagram</text><rect fill="#FFFFFF" height="777.625" style="stroke:#181818;stroke-width:1.0;" width="10" x="36" y="135.5781"/><rect fill="#FFFFFF" height="199.4063" style="stroke:#181818;stroke-width:1.0;" width="10" x="862" y="164.8594"/><rect fill="#FFFFFF" height="502.6563" style="stroke:#181818;stroke-width:1.0;" width="10" x="862" y="401.5469"/><rect fill="#FFFFFF" height="37.2813" style="stroke:#181818;stroke-width:1.0;" width="10" x="1279" y="202.1406"/><rect fill="#FFFFFF" height="87.5625" style="stroke:#181818;stroke-width:1.0;" width="10" x="1768" y="239.4219"/><rect fill="#FFFFFF" height="428.0938" style="stroke:#181818;stroke-width:1.0;" width="10" x="1768" y="438.8281"/><rect fill="#FFFFFF" height="353.5313" style="stroke:#181818;stroke-width:1.0;" width="10" x="2279" y="476.1094"/><rect fill="#FFFFFF" height="278.9688" style="stroke:#181818;stroke-width:1.0;" width="10" x="3125" y="513.3906"/><rect fill="#FFFFFF" height="87.5625" style="stroke:#181818;stroke-width:1.0;" width="10" x="3783" y="667.5156"/><line style="stroke:#181818;stroke-width:0.5;stroke-dasharray:5.0,5.0;" x1="41" x2="41" y1="125.5781" y2="922.2031"/><line style="stroke:#181818;stroke-width:0.5;stroke-dasharray:5.0,5.0;" x1="866.5" x2="866.5" y1="125.5781" y2="922.2031"/><line style="stroke:#181818;stroke-width:0.5;stroke-dasharray:5.0,5.0;" x1="1283.5" x2="1283.5" y1="125.5781" y2="922.2031"/><line style="stroke:#181818;stroke-width:0.5;stroke-dasharray:5.0,5.0;" x1="1772.5" x2="1772.5" y1="125.5781" y2="922.2031"/><line style="stroke:#181818;stroke-width:0.5;stroke-dasharray:5.0,5.0;" x1="2283.5" x2="2283.5" y1="125.5781" y2="922.2031"/><line style="stroke:#181818;stroke-width:0.5;stroke-dasharray:5.0,5.0;" x1="3129.5" x2="3129.5" y1="125.5781" y2="922.2031"/><line style="stroke:#181818;stroke-width:0.5;stroke-dasharray:5.0,5.0;" x1="3788" x2="3788" y1="125.5781" y2="922.2031"/><text fill="#000000" font-family="sans-serif" font-size="20" lengthAdjust="spacing" textLength="66" x="5" y="120.8613">Doctor</text><ellipse cx="41" cy="50.7969" fill="#E2E2F0" rx="8" ry="8" style="stroke:#181818;stroke-width:0.5;"/><path d="M41,58.7969 L41,85.7969 M28,66.7969 L54,66.7969 M41,85.7969 L28,100.7969 M41,85.7969 L54,100.7969 " fill="none" style="stroke:#181818;stroke-width:0.5;"/><text fill="#000000" font-family="sans-serif" font-size="20" lengthAdjust="spacing" textLength="66" x="5" y="939.7676">Doctor</text><ellipse cx="41" cy="952.9844" fill="#E2E2F0" rx="8" ry="8" style="stroke:#181818;stroke-width:0.5;"/><path d="M41,960.9844 L41,987.9844 M28,968.9844 L54,968.9844 M41,987.9844 L28,1002.9844 M41,987.9844 L54,1002.9844 " fill="none" style="stroke:#181818;stroke-width:0.5;"/><rect fill="#E2E2F0" height="37.2813" rx="2.5" ry="2.5" style="stroke:#181818;stroke-width:0.5;" width="63" x="835.5" y="87.2969"/><text fill="#000000" font-family="sans-serif" font-size="20" lengthAdjust="spacing" textLength="49" x="842.5" y="112.8613">View</text><rect fill="#E2E2F0" height="37.2813" rx="2.5" ry="2.5" style="stroke:#181818;stroke-width:0.5;" width="63" x="835.5" y="921.2031"/><text fill="#000000" font-family="sans-serif" font-size="20" lengthAdjust="spacing" textLength="49" x="842.5" y="946.7676">View</text><rect fill="#E2E2F0" height="37.2813" rx="2.5" ry="2.5" style="stroke:#181818;stroke-width:0.5;" width="313" x="1127.5" y="87.2969"/><text fill="#000000" font-family="sans-serif" font-size="20" lengthAdjust="spacing" textLength="299" x="1134.5" y="112.8613">OperationRequestComponent</text><rect fill="#E2E2F0" height="37.2813" rx="2.5" ry="2.5" style="stroke:#181818;stroke-width:0.5;" width="313" x="1127.5" y="921.2031"/><text fill="#000000" font-family="sans-serif" font-size="20" lengthAdjust="spacing" textLength="299" x="1134.5" y="946.7676">OperationRequestComponent</text><rect fill="#E2E2F0" height="37.2813" rx="2.5" ry="2.5" style="stroke:#181818;stroke-width:0.5;" width="379" x="1583.5" y="87.2969"/><text fill="#000000" font-family="sans-serif" font-size="20" lengthAdjust="spacing" textLength="365" x="1590.5" y="112.8613">CreateOperationRequestComponent</text><rect fill="#E2E2F0" height="37.2813" rx="2.5" ry="2.5" style="stroke:#181818;stroke-width:0.5;" width="379" x="1583.5" y="921.2031"/><text fill="#000000" font-family="sans-serif" font-size="20" lengthAdjust="spacing" textLength="365" x="1590.5" y="946.7676">CreateOperationRequestComponent</text><rect fill="#E2E2F0" height="37.2813" rx="2.5" ry="2.5" style="stroke:#181818;stroke-width:0.5;" width="269" x="2149.5" y="87.2969"/><text fill="#000000" font-family="sans-serif" font-size="20" lengthAdjust="spacing" textLength="255" x="2156.5" y="112.8613">OperationRequestService</text><rect fill="#E2E2F0" height="37.2813" rx="2.5" ry="2.5" style="stroke:#181818;stroke-width:0.5;" width="269" x="2149.5" y="921.2031"/><text fill="#000000" font-family="sans-serif" font-size="20" lengthAdjust="spacing" textLength="255" x="2156.5" y="946.7676">OperationRequestService</text><rect fill="#E2E2F0" height="37.2813" rx="2.5" ry="2.5" style="stroke:#181818;stroke-width:0.5;" width="173" x="3043.5" y="87.2969"/><text fill="#000000" font-family="sans-serif" font-size="20" lengthAdjust="spacing" textLength="159" x="3050.5" y="112.8613">AuthInterceptor</text><rect fill="#E2E2F0" height="37.2813" rx="2.5" ry="2.5" style="stroke:#181818;stroke-width:0.5;" width="173" x="3043.5" y="921.2031"/><text fill="#000000" font-family="sans-serif" font-size="20" lengthAdjust="spacing" textLength="159" x="3050.5" y="946.7676">AuthInterceptor</text><rect fill="#E2E2F0" height="37.2813" rx="2.5" ry="2.5" style="stroke:#181818;stroke-width:0.5;" width="60" x="3758" y="87.2969"/><text fill="#000000" font-family="sans-serif" font-size="20" lengthAdjust="spacing" textLength="46" x="3765" y="112.8613">MDR</text><rect fill="#E2E2F0" height="37.2813" rx="2.5" ry="2.5" style="stroke:#181818;stroke-width:0.5;" width="60" x="3758" y="921.2031"/><text fill="#000000" font-family="sans-serif" font-size="20" lengthAdjust="spacing" textLength="46" x="3765" y="946.7676">MDR</text><rect fill="#FFFFFF" height="777.625" style="stroke:#181818;stroke-width:1.0;" width="10" x="36" y="135.5781"/><rect fill="#FFFFFF" height="199.4063" style="stroke:#181818;stroke-width:1.0;" width="10" x="862" y="164.8594"/><rect fill="#FFFFFF" height="502.6563" style="stroke:#181818;stroke-width:1.0;" width="10" x="862" y="401.5469"/><rect fill="#FFFFFF" height="37.2813" style="stroke:#181818;stroke-width:1.0;" width="10" x="1279" y="202.1406"/><rect fill="#FFFFFF" height="87.5625" style="stroke:#181818;stroke-width:1.0;" width="10" x="1768" y="239.4219"/><rect fill="#FFFFFF" height="428.0938" style="stroke:#181818;stroke-width:1.0;" width="10" x="1768" y="438.8281"/><rect fill="#FFFFFF" height="353.5313" style="stroke:#181818;stroke-width:1.0;" width="10" x="2279" y="476.1094"/><rect fill="#FFFFFF" height="278.9688" style="stroke:#181818;stroke-width:1.0;" width="10" x="3125" y="513.3906"/><rect fill="#FFFFFF" height="87.5625" style="stroke:#181818;stroke-width:1.0;" width="10" x="3783" y="667.5156"/><polygon fill="#000000" points="850,160.8594,860,164.8594,850,168.8594,854,164.8594" style="stroke:#000000;stroke-width:1.0;"/><line style="stroke:#000000;stroke-width:1.0;" x1="46" x2="856" y1="164.8594" y2="164.8594"/><text fill="#000000" font-family="sans-serif" font-size="20" lengthAdjust="spacing" textLength="402" x="53" y="158.1426">Requests to create an operation request</text><polygon fill="#000000" points="1267,198.1406,1277,202.1406,1267,206.1406,1271,202.1406" style="stroke:#000000;stroke-width:1.0;"/><line style="stroke:#000000;stroke-width:1.0;" x1="872" x2="1273" y1="202.1406" y2="202.1406"/><text fill="#000000" font-family="sans-serif" font-size="20" lengthAdjust="spacing" textLength="388" x="879" y="195.4238">routerLink='/create-operation-request'</text><polygon fill="#000000" points="1756,235.4219,1766,239.4219,1756,243.4219,1760,239.4219" style="stroke:#000000;stroke-width:1.0;"/><line style="stroke:#000000;stroke-width:1.0;" x1="1284" x2="1762" y1="239.4219" y2="239.4219"/><text fill="#000000" font-family="sans-serif" font-size="20" lengthAdjust="spacing" textLength="460" x="1291" y="232.7051">routes to CreateOperationRequestComponent</text><line style="stroke:#000000;stroke-width:1.0;" x1="1778" x2="1820" y1="276.7031" y2="276.7031"/><line style="stroke:#000000;stroke-width:1.0;" x1="1820" x2="1820" y1="276.7031" y2="289.7031"/><line style="stroke:#000000;stroke-width:1.0;" x1="1779" x2="1820" y1="289.7031" y2="289.7031"/><polygon fill="#000000" points="1789,285.7031,1779,289.7031,1789,293.7031,1785,289.7031" style="stroke:#000000;stroke-width:1.0;"/><text fill="#000000" font-family="sans-serif" font-size="20" lengthAdjust="spacing" textLength="467" x="1785" y="269.9863">initializes CreateOperationRequestComponent</text><polygon fill="#000000" points="883,322.9844,873,326.9844,883,330.9844,879,326.9844" style="stroke:#000000;stroke-width:1.0;"/><line style="stroke:#000000;stroke-width:1.0;stroke-dasharray:2.0,2.0;" x1="877" x2="1772" y1="326.9844" y2="326.9844"/><text fill="#000000" font-family="sans-serif" font-size="20" lengthAdjust="spacing" textLength="443" x="889" y="320.2676">returns CreateOperationRequestComponent</text><polygon fill="#000000" points="57,360.2656,47,364.2656,57,368.2656,53,364.2656" style="stroke:#000000;stroke-width:1.0;"/><line style="stroke:#000000;stroke-width:1.0;stroke-dasharray:2.0,2.0;" x1="51" x2="866" y1="364.2656" y2="364.2656"/><text fill="#000000" font-family="sans-serif" font-size="20" lengthAdjust="spacing" textLength="330" x="63" y="357.5488">Asks for operation request's data</text><polygon fill="#000000" points="850,397.5469,860,401.5469,850,405.5469,854,401.5469" style="stroke:#000000;stroke-width:1.0;"/><line style="stroke:#000000;stroke-width:1.0;" x1="46" x2="856" y1="401.5469" y2="401.5469"/><text fill="#000000" font-family="sans-serif" font-size="20" lengthAdjust="spacing" textLength="797" x="53" y="394.8301">Sends operation request data (patientID, operationType, deadlineDate, priority)</text><polygon fill="#000000" points="1756,434.8281,1766,438.8281,1756,442.8281,1760,438.8281" style="stroke:#000000;stroke-width:1.0;"/><line style="stroke:#000000;stroke-width:1.0;" x1="872" x2="1762" y1="438.8281" y2="438.8281"/><text fill="#000000" font-family="sans-serif" font-size="20" lengthAdjust="spacing" textLength="330" x="879" y="432.1113">createOperationRequest($event)</text><polygon fill="#000000" points="2267,472.1094,2277,476.1094,2267,480.1094,2271,476.1094" style="stroke:#000000;stroke-width:1.0;"/><line style="stroke:#000000;stroke-width:1.0;" x1="1778" x2="2273" y1="476.1094" y2="476.1094"/><text fill="#000000" font-family="sans-serif" font-size="20" lengthAdjust="spacing" textLength="482" x="1785" y="469.3926">createOperationRequest(this.operationRequest)</text><polygon fill="#000000" points="3113,509.3906,3123,513.3906,3113,517.3906,3117,513.3906" style="stroke:#000000;stroke-width:1.0;"/><line style="stroke:#000000;stroke-width:1.0;" x1="2289" x2="3119" y1="513.3906" y2="513.3906"/><text fill="#000000" font-family="sans-serif" font-size="20" lengthAdjust="spacing" textLength="817" x="2296" y="506.6738">Sends HTTP Request to create an operation request with operation request's data</text><line style="stroke:#000000;stroke-width:1.0;" x1="3135" x2="3177" y1="550.6719" y2="550.6719"/><line style="stroke:#000000;stroke-width:1.0;" x1="3177" x2="3177" y1="550.6719" y2="563.6719"/><line style="stroke:#000000;stroke-width:1.0;" x1="3136" x2="3177" y1="563.6719" y2="563.6719"/><polygon fill="#000000" points="3146,559.6719,3136,563.6719,3146,567.6719,3142,563.6719" style="stroke:#000000;stroke-width:1.0;"/><text fill="#000000" font-family="sans-serif" font-size="20" lengthAdjust="spacing" textLength="563" x="3142" y="543.9551">Intercepts the request and adds the token to the header</text><path d="M3140,576.6719 L3140,632.6719 L3659,632.6719 L3659,586.6719 L3649,576.6719 L3140,576.6719 " fill="#FEFFDD" style="stroke:#181818;stroke-width:0.5;"/><path d="M3649,576.6719 L3649,586.6719 L3659,586.6719 L3649,576.6719 " fill="#FEFFDD" style="stroke:#181818;stroke-width:0.5;"/><text fill="#000000" font-family="sans-serif" font-size="20" lengthAdjust="spacing" textLength="498" x="3146" y="600.2363">The token is added to the header so that the MDR</text><text fill="#000000" font-family="sans-serif" font-size="20" lengthAdjust="spacing" textLength="442" x="3146" y="623.5176">can authenticate and authorize the request.</text><polygon fill="#000000" points="3771,663.5156,3781,667.5156,3771,671.5156,3775,667.5156" style="stroke:#000000;stroke-width:1.0;"/><line style="stroke:#000000;stroke-width:1.0;" x1="3135" x2="3777" y1="667.5156" y2="667.5156"/><text fill="#000000" font-family="sans-serif" font-size="20" lengthAdjust="spacing" textLength="629" x="3142" y="660.7988">Sends HTTP Request with token to create an operation request</text><line style="stroke:#000000;stroke-width:1.0;" x1="3793" x2="3835" y1="704.7969" y2="704.7969"/><line style="stroke:#000000;stroke-width:1.0;" x1="3835" x2="3835" y1="704.7969" y2="717.7969"/><line style="stroke:#000000;stroke-width:1.0;" x1="3794" x2="3835" y1="717.7969" y2="717.7969"/><polygon fill="#000000" points="3804,713.7969,3794,717.7969,3804,721.7969,3800,717.7969" style="stroke:#000000;stroke-width:1.0;"/><text fill="#000000" font-family="sans-serif" font-size="20" lengthAdjust="spacing" textLength="756" x="3800" y="698.0801">Validates operation request's data and tries to create the operation request</text><polygon fill="#000000" points="3146,751.0781,3136,755.0781,3146,759.0781,3142,755.0781" style="stroke:#000000;stroke-width:1.0;"/><line style="stroke:#000000;stroke-width:1.0;stroke-dasharray:2.0,2.0;" x1="3140" x2="3787" y1="755.0781" y2="755.0781"/><text fill="#000000" font-family="sans-serif" font-size="20" lengthAdjust="spacing" textLength="311" x="3152" y="748.3613">Returns Operation Status Code</text><polygon fill="#000000" points="2300,788.3594,2290,792.3594,2300,796.3594,2296,792.3594" style="stroke:#000000;stroke-width:1.0;"/><line style="stroke:#000000;stroke-width:1.0;stroke-dasharray:2.0,2.0;" x1="2294" x2="3129" y1="792.3594" y2="792.3594"/><text fill="#000000" font-family="sans-serif" font-size="20" lengthAdjust="spacing" textLength="311" x="2306" y="785.6426">Returns Operation Status Code</text><polygon fill="#000000" points="1789,825.6406,1779,829.6406,1789,833.6406,1785,829.6406" style="stroke:#000000;stroke-width:1.0;"/><line style="stroke:#000000;stroke-width:1.0;stroke-dasharray:2.0,2.0;" x1="1783" x2="2283" y1="829.6406" y2="829.6406"/><text fill="#000000" font-family="sans-serif" font-size="20" lengthAdjust="spacing" textLength="286" x="1795" y="822.9238">Returns Operation Response</text><polygon fill="#000000" points="883,862.9219,873,866.9219,883,870.9219,879,866.9219" style="stroke:#000000;stroke-width:1.0;"/><line style="stroke:#000000;stroke-width:1.0;stroke-dasharray:2.0,2.0;" x1="877" x2="1772" y1="866.9219" y2="866.9219"/><text fill="#000000" font-family="sans-serif" font-size="20" lengthAdjust="spacing" textLength="365" x="889" y="860.2051">Returns Operation Success message</text><polygon fill="#000000" points="57,900.2031,47,904.2031,57,908.2031,53,904.2031" style="stroke:#000000;stroke-width:1.0;"/><line style="stroke:#000000;stroke-width:1.0;stroke-dasharray:2.0,2.0;" x1="51" x2="866" y1="904.2031" y2="904.2031"/><text fill="#000000" font-family="sans-serif" font-size="20" lengthAdjust="spacing" textLength="365" x="63" y="897.4863">Returns Operation Success message</text><!--SRC=[bLLjJzj03FwUNs719402nfZsXXXIspHQ9IQcfiht8p7DhUbTTkUqOjF- -toNDcreEg1I6iNnyzX-pdRiJAfI634lT3h3339y45L1aLOKozy8bnT1G98AX5jSO07l8Hf2ACMK8K6Gomm1voKzmXpdzsXi4DWr8wI5i1R-1C2_laXdKwChbGrqeStrzK8K5TxT_yIKRcxWCFmux4MVkrsDrjud2eVzyABRnw9Po1GzrRleSjZlScEAOVHb-Cc_wncZbxMvNx1Vy7Sxzv8jOehTsSFXi1zzYFeE8b9YGwZzJLW80oOWcSfIA8A3HEBomDcJjlskH2D8QZN6NnLQ6kXvgHKgyivtuq7RVM1G4FuVDDX1FVMFQv5M8UAsSw-YVAG8JOebr-ATUgEsp_TmxEryzvNB1MV59OTmTWF95QpYM20DgKyPX0AzJWDC_Nu3JOB4GJdpAs1zEVgjLBElHszhz5a3FLj1ZpPOLovV3Z_O4FZOpyWLPDXYQHwyX8CMgLIIf2Xu5kopj3Mobi8WLKRPrwJYeoUU8Bo2dfrPUE2csf7lo48cI6n3a-O8ObIPtSLu11oNREIee_1qup9vBF6K1rzaXLGOCjqfb4Pg8-dnPEUeQbNIpggEt_2EK7IoHr1kkRr8ogKzrq-i9zk77VDXnuwcDrfN-Mqo-R7kkMTQ3fQIylrIDd6uutkZTPHc7BYfScoeXCf0P5bj93r3vOAxXvn5H1CepKn6JdC2_U0etGwPDCxIEZWlsnOAh7iIv4rkm1mevLe43oQhAjEwjimR-7HuEszbTHwm9E0YhmfWYawTl11DrY-QKfSDNmrhmlF0ig7TAwZFaup4xLNWijsDuebNWezNGzEq1yGagE8fqXbkzxlBo9MvxgeN0_amV1irdRoB7AFbsRJOtX9nQxexubLfYlovc_CVVpZsp_Mhe4dm3m00]--></g></svg>