<?xml version="1.0" encoding="UTF-8" standalone="no"?><svg xmlns="http://www.w3.org/2000/svg" xmlns:xlink="http://www.w3.org/1999/xlink" contentStyleType="text/css" height="1107px" preserveAspectRatio="none" style="width:3287px;height:1107px;background:#FFFFFF;" version="1.1" viewBox="0 0 3287 1107" width="3287px" zoomAndPan="magnify"><defs/><g><text fill="#000000" font-family="sans-serif" font-size="14" font-weight="bold" lengthAdjust="spacing" textLength="165" x="1562" y="27.9951">Level 3 MDR Diagram</text><rect fill="#FFFFFF" height="875.4688" style="stroke:#181818;stroke-width:1.0;" width="10" x="15.5" y="135.5781"/><rect fill="#FFFFFF" height="837.1875" style="stroke:#181818;stroke-width:1.0;" width="10" x="671.5" y="164.8594"/><rect fill="#FFFFFF" height="693.0625" style="stroke:#181818;stroke-width:1.0;" width="10" x="1311.5" y="202.1406"/><rect fill="#FFFFFF" height="124.8438" style="stroke:#181818;stroke-width:1.0;" width="10" x="1808.5" y="239.4219"/><rect fill="#FFFFFF" height="124.8438" style="stroke:#181818;stroke-width:1.0;" width="10" x="1808.5" y="733.0781"/><rect fill="#FFFFFF" height="111.8438" style="stroke:#181818;stroke-width:1.0;" width="10" x="2105" y="401.5469"/><rect fill="#FFFFFF" height="104.5625" style="stroke:#181818;stroke-width:1.0;" width="10" x="2105" y="591.2344"/><rect fill="#FFFFFF" height="43.2813" style="stroke:#181818;stroke-width:1.0;" width="10" x="2718.5" y="276.7031"/><rect fill="#FFFFFF" height="43.2813" style="stroke:#181818;stroke-width:1.0;" width="10" x="2946" y="770.3594"/><rect fill="#FFFFFF" height="37.2813" style="stroke:#181818;stroke-width:1.0;" width="10" x="3211" y="438.8281"/><rect fill="#FFFFFF" height="30" style="stroke:#181818;stroke-width:1.0;" width="10" x="3211" y="628.5156"/><rect fill="#EBF5FB" height="437.375" style="stroke:#000000;stroke-width:1.5;" width="2761" x="519" y="528.3906"/><rect fill="#EBF5FB" height="62.5625" style="stroke:none;stroke-width:1.0;" width="2761" x="519" y="903.2031"/><line style="stroke:#181818;stroke-width:0.5;stroke-dasharray:5.0,5.0;" x1="20" x2="20" y1="125.5781" y2="1020.0469"/><line style="stroke:#181818;stroke-width:0.5;stroke-dasharray:5.0,5.0;" x1="676" x2="676" y1="125.5781" y2="1020.0469"/><line style="stroke:#181818;stroke-width:0.5;stroke-dasharray:5.0,5.0;" x1="1316" x2="1316" y1="125.5781" y2="1020.0469"/><line style="stroke:#181818;stroke-width:0.5;stroke-dasharray:5.0,5.0;" x1="1813" x2="1813" y1="125.5781" y2="1020.0469"/><line style="stroke:#181818;stroke-width:0.5;stroke-dasharray:5.0,5.0;" x1="2110" x2="2110" y1="125.5781" y2="1020.0469"/><line style="stroke:#181818;stroke-width:0.5;stroke-dasharray:5.0,5.0;" x1="2723.5" x2="2723.5" y1="125.5781" y2="1020.0469"/><line style="stroke:#181818;stroke-width:0.5;stroke-dasharray:5.0,5.0;" x1="2950.5" x2="2950.5" y1="125.5781" y2="1020.0469"/><line style="stroke:#181818;stroke-width:0.5;stroke-dasharray:5.0,5.0;" x1="3216" x2="3216" y1="125.5781" y2="1020.0469"/><text fill="#000000" font-family="sans-serif" font-size="20" lengthAdjust="spacing" textLength="25" x="5" y="120.8613">FE</text><ellipse cx="20.5" cy="50.7969" fill="#E2E2F0" rx="8" ry="8" style="stroke:#181818;stroke-width:0.5;"/><path d="M20.5,58.7969 L20.5,85.7969 M7.5,66.7969 L33.5,66.7969 M20.5,85.7969 L7.5,100.7969 M20.5,85.7969 L33.5,100.7969 " fill="none" style="stroke:#181818;stroke-width:0.5;"/><text fill="#000000" font-family="sans-serif" font-size="20" lengthAdjust="spacing" textLength="25" x="5" y="1037.6113">FE</text><ellipse cx="20.5" cy="1050.8281" fill="#E2E2F0" rx="8" ry="8" style="stroke:#181818;stroke-width:0.5;"/><path d="M20.5,1058.8281 L20.5,1085.8281 M7.5,1066.8281 L33.5,1066.8281 M20.5,1085.8281 L7.5,1100.8281 M20.5,1085.8281 L33.5,1100.8281 " fill="none" style="stroke:#181818;stroke-width:0.5;"/><rect fill="#E2E2F0" height="37.2813" rx="2.5" ry="2.5" style="stroke:#181818;stroke-width:0.5;" width="295" x="529" y="87.2969"/><text fill="#000000" font-family="sans-serif" font-size="20" lengthAdjust="spacing" textLength="281" x="536" y="112.8613">OperationRequestController</text><rect fill="#E2E2F0" height="37.2813" rx="2.5" ry="2.5" style="stroke:#181818;stroke-width:0.5;" width="295" x="529" y="1019.0469"/><text fill="#000000" font-family="sans-serif" font-size="20" lengthAdjust="spacing" textLength="281" x="536" y="1044.6113">OperationRequestController</text><rect fill="#E2E2F0" height="37.2813" rx="2.5" ry="2.5" style="stroke:#181818;stroke-width:0.5;" width="269" x="1182" y="87.2969"/><text fill="#000000" font-family="sans-serif" font-size="20" lengthAdjust="spacing" textLength="255" x="1189" y="112.8613">OperationRequestService</text><rect fill="#E2E2F0" height="37.2813" rx="2.5" ry="2.5" style="stroke:#181818;stroke-width:0.5;" width="269" x="1182" y="1019.0469"/><text fill="#000000" font-family="sans-serif" font-size="20" lengthAdjust="spacing" textLength="255" x="1189" y="1044.6113">OperationRequestService</text><rect fill="#E2E2F0" height="37.2813" rx="2.5" ry="2.5" style="stroke:#181818;stroke-width:0.5;" width="271" x="1678" y="87.2969"/><text fill="#000000" font-family="sans-serif" font-size="20" lengthAdjust="spacing" textLength="257" x="1685" y="112.8613">OperationRequestMapper</text><rect fill="#E2E2F0" height="37.2813" rx="2.5" ry="2.5" style="stroke:#181818;stroke-width:0.5;" width="271" x="1678" y="1019.0469"/><text fill="#000000" font-family="sans-serif" font-size="20" lengthAdjust="spacing" textLength="257" x="1685" y="1044.6113">OperationRequestMapper</text><rect fill="#E2E2F0" height="37.2813" rx="2.5" ry="2.5" style="stroke:#181818;stroke-width:0.5;" width="302" x="1959" y="87.2969"/><text fill="#000000" font-family="sans-serif" font-size="20" lengthAdjust="spacing" textLength="288" x="1966" y="112.8613">OperationRequestRepository</text><rect fill="#E2E2F0" height="37.2813" rx="2.5" ry="2.5" style="stroke:#181818;stroke-width:0.5;" width="302" x="1959" y="1019.0469"/><text fill="#000000" font-family="sans-serif" font-size="20" lengthAdjust="spacing" textLength="288" x="1966" y="1044.6113">OperationRequestRepository</text><rect fill="#E2E2F0" height="37.2813" rx="2.5" ry="2.5" style="stroke:#181818;stroke-width:0.5;" width="196" x="2625.5" y="87.2969"/><text fill="#000000" font-family="sans-serif" font-size="20" lengthAdjust="spacing" textLength="182" x="2632.5" y="112.8613">OperationRequest</text><rect fill="#E2E2F0" height="37.2813" rx="2.5" ry="2.5" style="stroke:#181818;stroke-width:0.5;" width="196" x="2625.5" y="1019.0469"/><text fill="#000000" font-family="sans-serif" font-size="20" lengthAdjust="spacing" textLength="182" x="2632.5" y="1044.6113">OperationRequest</text><rect fill="#E2E2F0" height="37.2813" rx="2.5" ry="2.5" style="stroke:#181818;stroke-width:0.5;" width="239" x="2831.5" y="87.2969"/><text fill="#000000" font-family="sans-serif" font-size="20" lengthAdjust="spacing" textLength="225" x="2838.5" y="112.8613">OperationRequestDTO</text><rect fill="#E2E2F0" height="37.2813" rx="2.5" ry="2.5" style="stroke:#181818;stroke-width:0.5;" width="239" x="2831.5" y="1019.0469"/><text fill="#000000" font-family="sans-serif" font-size="20" lengthAdjust="spacing" textLength="225" x="2838.5" y="1044.6113">OperationRequestDTO</text><rect fill="#E2E2F0" height="37.2813" rx="2.5" ry="2.5" style="stroke:#181818;stroke-width:0.5;" width="108" x="3162" y="87.2969"/><text fill="#000000" font-family="sans-serif" font-size="20" lengthAdjust="spacing" textLength="94" x="3169" y="112.8613">Database</text><rect fill="#E2E2F0" height="37.2813" rx="2.5" ry="2.5" style="stroke:#181818;stroke-width:0.5;" width="108" x="3162" y="1019.0469"/><text fill="#000000" font-family="sans-serif" font-size="20" lengthAdjust="spacing" textLength="94" x="3169" y="1044.6113">Database</text><rect fill="#FFFFFF" height="875.4688" style="stroke:#181818;stroke-width:1.0;" width="10" x="15.5" y="135.5781"/><rect fill="#FFFFFF" height="837.1875" style="stroke:#181818;stroke-width:1.0;" width="10" x="671.5" y="164.8594"/><rect fill="#FFFFFF" height="693.0625" style="stroke:#181818;stroke-width:1.0;" width="10" x="1311.5" y="202.1406"/><rect fill="#FFFFFF" height="124.8438" style="stroke:#181818;stroke-width:1.0;" width="10" x="1808.5" y="239.4219"/><rect fill="#FFFFFF" height="124.8438" style="stroke:#181818;stroke-width:1.0;" width="10" x="1808.5" y="733.0781"/><rect fill="#FFFFFF" height="111.8438" style="stroke:#181818;stroke-width:1.0;" width="10" x="2105" y="401.5469"/><rect fill="#FFFFFF" height="104.5625" style="stroke:#181818;stroke-width:1.0;" width="10" x="2105" y="591.2344"/><rect fill="#FFFFFF" height="43.2813" style="stroke:#181818;stroke-width:1.0;" width="10" x="2718.5" y="276.7031"/><rect fill="#FFFFFF" height="43.2813" style="stroke:#181818;stroke-width:1.0;" width="10" x="2946" y="770.3594"/><rect fill="#FFFFFF" height="37.2813" style="stroke:#181818;stroke-width:1.0;" width="10" x="3211" y="438.8281"/><rect fill="#FFFFFF" height="30" style="stroke:#181818;stroke-width:1.0;" width="10" x="3211" y="628.5156"/><polygon fill="#000000" points="659.5,160.8594,669.5,164.8594,659.5,168.8594,663.5,164.8594" style="stroke:#000000;stroke-width:1.0;"/><line style="stroke:#000000;stroke-width:1.0;" x1="25.5" x2="665.5" y1="164.8594" y2="164.8594"/><text fill="#000000" font-family="sans-serif" font-size="20" lengthAdjust="spacing" textLength="627" x="32.5" y="158.1426">Sends HTTP Request to create an Operation Request with data</text><polygon fill="#000000" points="1299.5,198.1406,1309.5,202.1406,1299.5,206.1406,1303.5,202.1406" style="stroke:#000000;stroke-width:1.0;"/><line style="stroke:#000000;stroke-width:1.0;stroke-dasharray:2.0,2.0;" x1="681.5" x2="1305.5" y1="202.1406" y2="202.1406"/><text fill="#000000" font-family="sans-serif" font-size="20" lengthAdjust="spacing" textLength="611" x="688.5" y="195.4238">createOperationRequest(CreatingOperationRequestDTO dto)</text><polygon fill="#000000" points="1796.5,235.4219,1806.5,239.4219,1796.5,243.4219,1800.5,239.4219" style="stroke:#000000;stroke-width:1.0;"/><line style="stroke:#000000;stroke-width:1.0;" x1="1321.5" x2="1802.5" y1="239.4219" y2="239.4219"/><text fill="#000000" font-family="sans-serif" font-size="20" lengthAdjust="spacing" textLength="468" x="1328.5" y="232.7051">ToDomain(CreatingOperationRequestDTO dto)</text><polygon fill="#000000" points="2706.5,272.7031,2716.5,276.7031,2706.5,280.7031,2710.5,276.7031" style="stroke:#000000;stroke-width:1.0;"/><line style="stroke:#000000;stroke-width:1.0;" x1="1818.5" x2="2712.5" y1="276.7031" y2="276.7031"/><text fill="#000000" font-family="sans-serif" font-size="20" lengthAdjust="spacing" textLength="881" x="1825.5" y="269.9863">new OperationRequest(dto.patientID, dto.operationType, dto.deadlineDate, dto.priority)</text><line style="stroke:#000000;stroke-width:1.0;" x1="2728.5" x2="2770.5" y1="318.9844" y2="318.9844"/><line style="stroke:#000000;stroke-width:1.0;" x1="2770.5" x2="2770.5" y1="318.9844" y2="331.9844"/><line style="stroke:#000000;stroke-width:1.0;" x1="2723.5" x2="2770.5" y1="331.9844" y2="331.9844"/><polygon fill="#000000" points="2733.5,327.9844,2723.5,331.9844,2733.5,335.9844,2729.5,331.9844" style="stroke:#000000;stroke-width:1.0;"/><text fill="#000000" font-family="sans-serif" font-size="20" lengthAdjust="spacing" textLength="198" x="2735.5" y="312.2676">OperationRequest()</text><polygon fill="#000000" points="1332.5,360.2656,1322.5,364.2656,1332.5,368.2656,1328.5,364.2656" style="stroke:#000000;stroke-width:1.0;"/><line style="stroke:#000000;stroke-width:1.0;stroke-dasharray:2.0,2.0;" x1="1326.5" x2="1812.5" y1="364.2656" y2="364.2656"/><text fill="#000000" font-family="sans-serif" font-size="20" lengthAdjust="spacing" textLength="250" x="1338.5" y="357.5488">return OperationRequest</text><polygon fill="#000000" points="2093,397.5469,2103,401.5469,2093,405.5469,2097,401.5469" style="stroke:#000000;stroke-width:1.0;"/><line style="stroke:#000000;stroke-width:1.0;" x1="1321.5" x2="2099" y1="401.5469" y2="401.5469"/><text fill="#000000" font-family="sans-serif" font-size="20" lengthAdjust="spacing" textLength="480" x="1328.5" y="394.8301">getOperationRequestByPatientID(dto.patientID)</text><polygon fill="#000000" points="3199,434.8281,3209,438.8281,3199,442.8281,3203,438.8281" style="stroke:#000000;stroke-width:1.0;"/><line style="stroke:#000000;stroke-width:1.0;" x1="2115" x2="3205" y1="438.8281" y2="438.8281"/><text fill="#000000" font-family="sans-serif" font-size="20" lengthAdjust="spacing" textLength="754" x="2122" y="432.1113">_objs.Where(x =&gt; x.PatientID.Equals(dto.patientID)).FirstOrDefaultAsync();</text><polygon fill="#000000" points="2126,472.1094,2116,476.1094,2126,480.1094,2122,476.1094" style="stroke:#000000;stroke-width:1.0;"/><line style="stroke:#000000;stroke-width:1.0;stroke-dasharray:2.0,2.0;" x1="2120" x2="3215" y1="476.1094" y2="476.1094"/><text fill="#000000" font-family="sans-serif" font-size="20" lengthAdjust="spacing" textLength="99" x="2132" y="469.3926">return var</text><polygon fill="#000000" points="1332.5,509.3906,1322.5,513.3906,1332.5,517.3906,1328.5,513.3906" style="stroke:#000000;stroke-width:1.0;"/><line style="stroke:#000000;stroke-width:1.0;stroke-dasharray:2.0,2.0;" x1="1326.5" x2="2109" y1="513.3906" y2="513.3906"/><text fill="#000000" font-family="sans-serif" font-size="20" lengthAdjust="spacing" textLength="99" x="1338.5" y="506.6738">return var</text><path d="M519,528.3906 L595,528.3906 L595,543.6719 L585,553.6719 L519,553.6719 L519,528.3906 " fill="#EEEEEE" style="stroke:#000000;stroke-width:1.5;"/><rect fill="none" height="437.375" style="stroke:#000000;stroke-width:1.5;" width="2761" x="519" y="528.3906"/><text fill="#000000" font-family="sans-serif" font-size="20" font-weight="bold" lengthAdjust="spacing" textLength="31" x="534" y="547.9551">alt</text><text fill="#000000" font-family="sans-serif" font-size="20" font-weight="bold" lengthAdjust="spacing" textLength="130" x="610" y="548.9551">[var is null]</text><polygon fill="#000000" points="2093,587.2344,2103,591.2344,2093,595.2344,2097,591.2344" style="stroke:#000000;stroke-width:1.0;"/><line style="stroke:#000000;stroke-width:1.0;" x1="1321.5" x2="2099" y1="591.2344" y2="591.2344"/><text fill="#000000" font-family="sans-serif" font-size="20" lengthAdjust="spacing" textLength="479" x="1328.5" y="584.5176">addAsync(OperationRequest operationRequest)</text><polygon fill="#000000" points="3199,624.5156,3209,628.5156,3199,632.5156,3203,628.5156" style="stroke:#000000;stroke-width:1.0;"/><line style="stroke:#000000;stroke-width:1.0;" x1="2115" x2="3205" y1="628.5156" y2="628.5156"/><text fill="#000000" font-family="sans-serif" font-size="20" lengthAdjust="spacing" textLength="350" x="2122" y="621.7988">_objs.AddAsync(operationRequest)</text><polygon fill="#000000" points="1332.5,691.7969,1322.5,695.7969,1332.5,699.7969,1328.5,695.7969" style="stroke:#000000;stroke-width:1.0;"/><line style="stroke:#000000;stroke-width:1.0;stroke-dasharray:2.0,2.0;" x1="1326.5" x2="2109" y1="695.7969" y2="695.7969"/><text fill="#000000" font-family="sans-serif" font-size="20" lengthAdjust="spacing" textLength="250" x="1338.5" y="689.0801">return OperationRequest</text><polygon fill="#000000" points="1796.5,729.0781,1806.5,733.0781,1796.5,737.0781,1800.5,733.0781" style="stroke:#000000;stroke-width:1.0;"/><line style="stroke:#000000;stroke-width:1.0;" x1="1321.5" x2="1802.5" y1="733.0781" y2="733.0781"/><text fill="#000000" font-family="sans-serif" font-size="20" lengthAdjust="spacing" textLength="449" x="1328.5" y="726.3613">ToDTO(OperationRequest operationRequest)</text><polygon fill="#000000" points="2934,766.3594,2944,770.3594,2934,774.3594,2938,770.3594" style="stroke:#000000;stroke-width:1.0;"/><line style="stroke:#000000;stroke-width:1.0;" x1="1818.5" x2="2940" y1="770.3594" y2="770.3594"/><text fill="#000000" font-family="sans-serif" font-size="20" lengthAdjust="spacing" textLength="527" x="1825.5" y="763.6426">new OperationRequestDTO(operationRequest fields)</text><line style="stroke:#000000;stroke-width:1.0;" x1="2956" x2="2998" y1="812.6406" y2="812.6406"/><line style="stroke:#000000;stroke-width:1.0;" x1="2998" x2="2998" y1="812.6406" y2="825.6406"/><line style="stroke:#000000;stroke-width:1.0;" x1="2951" x2="2998" y1="825.6406" y2="825.6406"/><polygon fill="#000000" points="2961,821.6406,2951,825.6406,2961,829.6406,2957,825.6406" style="stroke:#000000;stroke-width:1.0;"/><text fill="#000000" font-family="sans-serif" font-size="20" lengthAdjust="spacing" textLength="241" x="2963" y="805.9238">OperationRequestDTO()</text><polygon fill="#000000" points="1332.5,853.9219,1322.5,857.9219,1332.5,861.9219,1328.5,857.9219" style="stroke:#000000;stroke-width:1.0;"/><line style="stroke:#000000;stroke-width:1.0;stroke-dasharray:2.0,2.0;" x1="1326.5" x2="1812.5" y1="857.9219" y2="857.9219"/><text fill="#000000" font-family="sans-serif" font-size="20" lengthAdjust="spacing" textLength="293" x="1338.5" y="851.2051">return OperationRequestDTO</text><polygon fill="#000000" points="692.5,891.2031,682.5,895.2031,692.5,899.2031,688.5,895.2031" style="stroke:#000000;stroke-width:1.0;"/><line style="stroke:#000000;stroke-width:1.0;stroke-dasharray:2.0,2.0;" x1="686.5" x2="1315.5" y1="895.2031" y2="895.2031"/><text fill="#000000" font-family="sans-serif" font-size="20" lengthAdjust="spacing" textLength="293" x="698.5" y="888.4863">return OperationRequestDTO</text><line style="stroke:#000000;stroke-width:1.0;stroke-dasharray:2.0,2.0;" x1="519" x2="3280" y1="904.2031" y2="904.2031"/><text fill="#000000" font-family="sans-serif" font-size="20" font-weight="bold" lengthAdjust="spacing" textLength="175" x="524" y="922.7676">[var is not null]</text><polygon fill="#000000" points="692.5,953.7656,682.5,957.7656,692.5,961.7656,688.5,957.7656" style="stroke:#000000;stroke-width:1.0;"/><line style="stroke:#000000;stroke-width:1.0;stroke-dasharray:2.0,2.0;" x1="686.5" x2="1315.5" y1="957.7656" y2="957.7656"/><text fill="#000000" font-family="sans-serif" font-size="20" lengthAdjust="spacing" textLength="552" x="698.5" y="951.0488">return Operation Request for this Patient already exists</text><polygon fill="#000000" points="36.5,998.0469,26.5,1002.0469,36.5,1006.0469,32.5,1002.0469" style="stroke:#000000;stroke-width:1.0;"/><line style="stroke:#000000;stroke-width:1.0;stroke-dasharray:2.0,2.0;" x1="30.5" x2="675.5" y1="1002.0469" y2="1002.0469"/><text fill="#000000" font-family="sans-serif" font-size="20" lengthAdjust="spacing" textLength="413" x="42.5" y="995.3301">Returns Operation Status Response Code</text><!--SRC=[bLNRRjf047tVhnWbBq5gK9ggDveYuPjQgPOZ6wcFrM9FO9DbrzbTaz2g_zxr3OonICC3oEDppfup7W_wWOcSAhhcCdt033AyemKtWHGcORyHhgy8CSnmX1-uGGxl8FHYy1XTMWuXAvOXu3etMrZZUe5A4w9RIKWvrHh-4B0VXwOFIoKBaRcIItLpiw6ym6XnZwcPJk7S- -3FWa_3K2LbXGayt_6kXZ4QrOQbM4cz3QvzPmXc9VpWi_-nkZTJIZxLPOTR7FdRzPxR2btYi7iuzvtWVU2K59eQMmXyeDf-4yisB6Kv5GREeXmLDKoA61yBrCQrRLMISrHd9TmzZKxgI1KqEGqDQPutek5fP8ovrCnQtbRe-3IwmaGlWBnvLE7ixo7GeuOkgAuJU4xLAxQX1ij6sOvTJi6TG88Yq_1jFh-5HX2CX5HX2QG2TiVjRZyniuBCYky5NUB2fTLB9WspR_B2BSjCB0VSGsRaQA-LaAIq5avWBZsvfaoyWXoIi2H7yGG4Fi6H3OiUvxQ2mdpttfJaiMmnyssETIb3cd4cq7QmgUIAISNCjdEKVIvHt1vsTD28M94ED6pxez0KIXmHkl2mxe2LNQBf0vtjRUl_C4t7MamgOvupWLzoSQ_7FrUeyE8PlaxXURpZZ_t7WdBTancD0wQqYPHNBwEPtehqOlHbBszdoNEgFF4kpuQgRWGBYNk9UuYOK6xA8Z0Dek2yUjFRu3JBwdFxyK7s2gEArv4jBtlnPwtQ2sIlNbk7EHgzqq-lHultOUevdaUlJX9MbzKuM_hmF9UwVHcuOyWptOzcjqDPA5-PLd58RNJKWORuqW2tk8CvRhfGRvh_9oO4kSRTS4XpC233QhlrT6V_3ypAyfev1yhj-iYsWCzC6prmbiYQzHNu4ojJwkgES6AeAUokHfrBOMsvCiFk9Bla7m00]--></g></svg>