<?xml version="1.0" encoding="UTF-8" standalone="no"?><svg xmlns="http://www.w3.org/2000/svg" xmlns:xlink="http://www.w3.org/1999/xlink" contentStyleType="text/css" height="1430px" preserveAspectRatio="none" style="width:3811px;height:1430px;background:#FFFFFF;" version="1.1" viewBox="0 0 3811 1430" width="3811px" zoomAndPan="magnify"><defs/><g><text fill="#000000" font-family="sans-serif" font-size="14" font-weight="bold" lengthAdjust="spacing" textLength="149" x="1830" y="27.9951">Level 3 FE Diagram</text><rect fill="#FFFFFF" height="1198.4375" style="stroke:#181818;stroke-width:1.0;" width="10" x="36" y="135.5781"/><rect fill="#FFFFFF" height="620.2188" style="stroke:#181818;stroke-width:1.0;" width="10" x="713" y="164.8594"/><rect fill="#FFFFFF" height="502.6563" style="stroke:#181818;stroke-width:1.0;" width="10" x="713" y="822.3594"/><rect fill="#FFFFFF" height="67.2813" style="stroke:#181818;stroke-width:1.0;" width="10" x="1428" y="202.1406"/><rect fill="#FFFFFF" height="508.375" style="stroke:#181818;stroke-width:1.0;" width="10" x="1889" y="239.4219"/><rect fill="#FFFFFF" height="428.0938" style="stroke:#181818;stroke-width:1.0;" width="10" x="1889" y="859.6406"/><rect fill="#FFFFFF" height="278.9688" style="stroke:#181818;stroke-width:1.0;" width="10" x="2565.5" y="343.9844"/><rect fill="#FFFFFF" height="278.9688" style="stroke:#181818;stroke-width:1.0;" width="10" x="2565.5" y="934.2031"/><rect fill="#FFFFFF" height="87.5625" style="stroke:#181818;stroke-width:1.0;" width="10" x="3152.5" y="498.1094"/><rect fill="#FFFFFF" height="87.5625" style="stroke:#181818;stroke-width:1.0;" width="10" x="3152.5" y="1088.3281"/><rect fill="#FFFFFF" height="353.5313" style="stroke:#181818;stroke-width:1.0;" width="10" x="3779.5" y="306.7031"/><rect fill="#FFFFFF" height="353.5313" style="stroke:#181818;stroke-width:1.0;" width="10" x="3779.5" y="896.9219"/><line style="stroke:#181818;stroke-width:0.5;stroke-dasharray:5.0,5.0;" x1="41" x2="41" y1="125.5781" y2="1343.0156"/><line style="stroke:#181818;stroke-width:0.5;stroke-dasharray:5.0,5.0;" x1="717.5" x2="717.5" y1="125.5781" y2="1343.0156"/><line style="stroke:#181818;stroke-width:0.5;stroke-dasharray:5.0,5.0;" x1="1433" x2="1433" y1="125.5781" y2="1343.0156"/><line style="stroke:#181818;stroke-width:0.5;stroke-dasharray:5.0,5.0;" x1="1893.5" x2="1893.5" y1="125.5781" y2="1343.0156"/><line style="stroke:#181818;stroke-width:0.5;stroke-dasharray:5.0,5.0;" x1="2357" x2="2357" y1="125.5781" y2="1343.0156"/><line style="stroke:#181818;stroke-width:0.5;stroke-dasharray:5.0,5.0;" x1="2570" x2="2570" y1="125.5781" y2="1343.0156"/><line style="stroke:#181818;stroke-width:0.5;stroke-dasharray:5.0,5.0;" x1="3157.5" x2="3157.5" y1="125.5781" y2="1343.0156"/><line style="stroke:#181818;stroke-width:0.5;stroke-dasharray:5.0,5.0;" x1="3784" x2="3784" y1="125.5781" y2="1343.0156"/><text fill="#000000" font-family="sans-serif" font-size="20" lengthAdjust="spacing" textLength="66" x="5" y="120.8613">Doctor</text><ellipse cx="41" cy="50.7969" fill="#E2E2F0" rx="8" ry="8" style="stroke:#181818;stroke-width:0.5;"/><path d="M41,58.7969 L41,85.7969 M28,66.7969 L54,66.7969 M41,85.7969 L28,100.7969 M41,85.7969 L54,100.7969 " fill="none" style="stroke:#181818;stroke-width:0.5;"/><text fill="#000000" font-family="sans-serif" font-size="20" lengthAdjust="spacing" textLength="66" x="5" y="1360.5801">Doctor</text><ellipse cx="41" cy="1373.7969" fill="#E2E2F0" rx="8" ry="8" style="stroke:#181818;stroke-width:0.5;"/><path d="M41,1381.7969 L41,1408.7969 M28,1389.7969 L54,1389.7969 M41,1408.7969 L28,1423.7969 M41,1408.7969 L54,1423.7969 " fill="none" style="stroke:#181818;stroke-width:0.5;"/><rect fill="#E2E2F0" height="37.2813" rx="2.5" ry="2.5" style="stroke:#181818;stroke-width:0.5;" width="63" x="686.5" y="87.2969"/><text fill="#000000" font-family="sans-serif" font-size="20" lengthAdjust="spacing" textLength="49" x="693.5" y="112.8613">View</text><rect fill="#E2E2F0" height="37.2813" rx="2.5" ry="2.5" style="stroke:#181818;stroke-width:0.5;" width="63" x="686.5" y="1342.0156"/><text fill="#000000" font-family="sans-serif" font-size="20" lengthAdjust="spacing" textLength="49" x="693.5" y="1367.5801">View</text><rect fill="#E2E2F0" height="37.2813" rx="2.5" ry="2.5" style="stroke:#181818;stroke-width:0.5;" width="278" x="1294" y="87.2969"/><text fill="#000000" font-family="sans-serif" font-size="20" lengthAdjust="spacing" textLength="264" x="1301" y="112.8613">MedicalHistoryComponent</text><rect fill="#E2E2F0" height="37.2813" rx="2.5" ry="2.5" style="stroke:#181818;stroke-width:0.5;" width="278" x="1294" y="1342.0156"/><text fill="#000000" font-family="sans-serif" font-size="20" lengthAdjust="spacing" textLength="264" x="1301" y="1367.5801">MedicalHistoryComponent</text><rect fill="#E2E2F0" height="37.2813" rx="2.5" ry="2.5" style="stroke:#181818;stroke-width:0.5;" width="351" x="1718.5" y="87.2969"/><text fill="#000000" font-family="sans-serif" font-size="20" lengthAdjust="spacing" textLength="337" x="1725.5" y="112.8613">UpdateMedicalHistoryComponent</text><rect fill="#E2E2F0" height="37.2813" rx="2.5" ry="2.5" style="stroke:#181818;stroke-width:0.5;" width="351" x="1718.5" y="1342.0156"/><text fill="#000000" font-family="sans-serif" font-size="20" lengthAdjust="spacing" textLength="337" x="1725.5" y="1367.5801">UpdateMedicalHistoryComponent</text><rect fill="#E2E2F0" height="37.2813" rx="2.5" ry="2.5" style="stroke:#181818;stroke-width:0.5;" width="234" x="2240" y="87.2969"/><text fill="#000000" font-family="sans-serif" font-size="20" lengthAdjust="spacing" textLength="220" x="2247" y="112.8613">MedicalHistoryService</text><rect fill="#E2E2F0" height="37.2813" rx="2.5" ry="2.5" style="stroke:#181818;stroke-width:0.5;" width="234" x="2240" y="1342.0156"/><text fill="#000000" font-family="sans-serif" font-size="20" lengthAdjust="spacing" textLength="220" x="2247" y="1367.5801">MedicalHistoryService</text><rect fill="#E2E2F0" height="37.2813" rx="2.5" ry="2.5" style="stroke:#181818;stroke-width:0.5;" width="173" x="2484" y="87.2969"/><text fill="#000000" font-family="sans-serif" font-size="20" lengthAdjust="spacing" textLength="159" x="2491" y="112.8613">AuthInterceptor</text><rect fill="#E2E2F0" height="37.2813" rx="2.5" ry="2.5" style="stroke:#181818;stroke-width:0.5;" width="173" x="2484" y="1342.0156"/><text fill="#000000" font-family="sans-serif" font-size="20" lengthAdjust="spacing" textLength="159" x="2491" y="1367.5801">AuthInterceptor</text><rect fill="#E2E2F0" height="37.2813" rx="2.5" ry="2.5" style="stroke:#181818;stroke-width:0.5;" width="60" x="3127.5" y="87.2969"/><text fill="#000000" font-family="sans-serif" font-size="20" lengthAdjust="spacing" textLength="46" x="3134.5" y="112.8613">MDV</text><rect fill="#E2E2F0" height="37.2813" rx="2.5" ry="2.5" style="stroke:#181818;stroke-width:0.5;" width="60" x="3127.5" y="1342.0156"/><text fill="#000000" font-family="sans-serif" font-size="20" lengthAdjust="spacing" textLength="46" x="3134.5" y="1367.5801">MDV</text><rect fill="#E2E2F0" height="37.2813" rx="2.5" ry="2.5" style="stroke:#181818;stroke-width:0.5;" width="41" x="3764" y="87.2969"/><text fill="#000000" font-family="sans-serif" font-size="20" lengthAdjust="spacing" textLength="27" x="3771" y="112.8613">AS</text><rect fill="#E2E2F0" height="37.2813" rx="2.5" ry="2.5" style="stroke:#181818;stroke-width:0.5;" width="41" x="3764" y="1342.0156"/><text fill="#000000" font-family="sans-serif" font-size="20" lengthAdjust="spacing" textLength="27" x="3771" y="1367.5801">AS</text><rect fill="#FFFFFF" height="1198.4375" style="stroke:#181818;stroke-width:1.0;" width="10" x="36" y="135.5781"/><rect fill="#FFFFFF" height="620.2188" style="stroke:#181818;stroke-width:1.0;" width="10" x="713" y="164.8594"/><rect fill="#FFFFFF" height="502.6563" style="stroke:#181818;stroke-width:1.0;" width="10" x="713" y="822.3594"/><rect fill="#FFFFFF" height="67.2813" style="stroke:#181818;stroke-width:1.0;" width="10" x="1428" y="202.1406"/><rect fill="#FFFFFF" height="508.375" style="stroke:#181818;stroke-width:1.0;" width="10" x="1889" y="239.4219"/><rect fill="#FFFFFF" height="428.0938" style="stroke:#181818;stroke-width:1.0;" width="10" x="1889" y="859.6406"/><rect fill="#FFFFFF" height="278.9688" style="stroke:#181818;stroke-width:1.0;" width="10" x="2565.5" y="343.9844"/><rect fill="#FFFFFF" height="278.9688" style="stroke:#181818;stroke-width:1.0;" width="10" x="2565.5" y="934.2031"/><rect fill="#FFFFFF" height="87.5625" style="stroke:#181818;stroke-width:1.0;" width="10" x="3152.5" y="498.1094"/><rect fill="#FFFFFF" height="87.5625" style="stroke:#181818;stroke-width:1.0;" width="10" x="3152.5" y="1088.3281"/><rect fill="#FFFFFF" height="353.5313" style="stroke:#181818;stroke-width:1.0;" width="10" x="3779.5" y="306.7031"/><rect fill="#FFFFFF" height="353.5313" style="stroke:#181818;stroke-width:1.0;" width="10" x="3779.5" y="896.9219"/><polygon fill="#000000" points="701,160.8594,711,164.8594,701,168.8594,705,164.8594" style="stroke:#000000;stroke-width:1.0;"/><line style="stroke:#000000;stroke-width:1.0;" x1="46" x2="707" y1="164.8594" y2="164.8594"/><text fill="#000000" font-family="sans-serif" font-size="20" lengthAdjust="spacing" textLength="648" x="53" y="158.1426">Asks to add a family history entry in the patient's medical record</text><polygon fill="#000000" points="1416,198.1406,1426,202.1406,1416,206.1406,1420,202.1406" style="stroke:#000000;stroke-width:1.0;"/><line style="stroke:#000000;stroke-width:1.0;" x1="723" x2="1422" y1="202.1406" y2="202.1406"/><text fill="#000000" font-family="sans-serif" font-size="20" lengthAdjust="spacing" textLength="686" x="730" y="195.4238">routerLink='/update-medical-history/:patientMedicalRecordNumber'</text><polygon fill="#000000" points="1877,235.4219,1887,239.4219,1877,243.4219,1881,239.4219" style="stroke:#000000;stroke-width:1.0;"/><line style="stroke:#000000;stroke-width:1.0;" x1="1438" x2="1883" y1="239.4219" y2="239.4219"/><text fill="#000000" font-family="sans-serif" font-size="20" lengthAdjust="spacing" textLength="432" x="1445" y="232.7051">routes to UpdateMedicalHistoryComponent</text><polygon fill="#000000" points="3767.5,302.7031,3777.5,306.7031,3767.5,310.7031,3771.5,306.7031" style="stroke:#000000;stroke-width:1.0;"/><line style="stroke:#000000;stroke-width:1.0;" x1="1899" x2="3773.5" y1="306.7031" y2="306.7031"/><text fill="#000000" font-family="sans-serif" font-size="20" lengthAdjust="spacing" textLength="514" x="1906" y="299.9863">fetchMedicalHistory(patientMedicalRecordNumber)</text><polygon fill="#000000" points="2586.5,339.9844,2576.5,343.9844,2586.5,347.9844,2582.5,343.9844" style="stroke:#000000;stroke-width:1.0;"/><line style="stroke:#000000;stroke-width:1.0;" x1="2580.5" x2="3778.5" y1="343.9844" y2="343.9844"/><text fill="#000000" font-family="sans-serif" font-size="20" lengthAdjust="spacing" textLength="476" x="2592.5" y="337.2676">Makes Http Request to get Medical History data</text><line style="stroke:#000000;stroke-width:1.0;" x1="2575.5" x2="2617.5" y1="381.2656" y2="381.2656"/><line style="stroke:#000000;stroke-width:1.0;" x1="2617.5" x2="2617.5" y1="381.2656" y2="394.2656"/><line style="stroke:#000000;stroke-width:1.0;" x1="2576.5" x2="2617.5" y1="394.2656" y2="394.2656"/><polygon fill="#000000" points="2586.5,390.2656,2576.5,394.2656,2586.5,398.2656,2582.5,394.2656" style="stroke:#000000;stroke-width:1.0;"/><text fill="#000000" font-family="sans-serif" font-size="20" lengthAdjust="spacing" textLength="563" x="2582.5" y="374.5488">Intercepts the request and adds the token to the header</text><path d="M2580,407.2656 L2580,463.2656 L3099,463.2656 L3099,417.2656 L3089,407.2656 L2580,407.2656 " fill="#FEFFDD" style="stroke:#181818;stroke-width:0.5;"/><path d="M3089,407.2656 L3089,417.2656 L3099,417.2656 L3089,407.2656 " fill="#FEFFDD" style="stroke:#181818;stroke-width:0.5;"/><text fill="#000000" font-family="sans-serif" font-size="20" lengthAdjust="spacing" textLength="498" x="2586" y="430.8301">The token is added to the header so that the MDV</text><text fill="#000000" font-family="sans-serif" font-size="20" lengthAdjust="spacing" textLength="442" x="2586" y="454.1113">can authenticate and authorize the request.</text><polygon fill="#000000" points="3140.5,494.1094,3150.5,498.1094,3140.5,502.1094,3144.5,498.1094" style="stroke:#000000;stroke-width:1.0;"/><line style="stroke:#000000;stroke-width:1.0;" x1="2575.5" x2="3146.5" y1="498.1094" y2="498.1094"/><text fill="#000000" font-family="sans-serif" font-size="20" lengthAdjust="spacing" textLength="496" x="2582.5" y="491.3926">getMedicalHistory(patientMedicalRecordNumber)</text><line style="stroke:#000000;stroke-width:1.0;" x1="3162.5" x2="3204.5" y1="535.3906" y2="535.3906"/><line style="stroke:#000000;stroke-width:1.0;" x1="3204.5" x2="3204.5" y1="535.3906" y2="548.3906"/><line style="stroke:#000000;stroke-width:1.0;" x1="3163.5" x2="3204.5" y1="548.3906" y2="548.3906"/><polygon fill="#000000" points="3173.5,544.3906,3163.5,548.3906,3173.5,552.3906,3169.5,548.3906" style="stroke:#000000;stroke-width:1.0;"/><text fill="#000000" font-family="sans-serif" font-size="20" lengthAdjust="spacing" textLength="288" x="3169.5" y="528.6738">Fetches Medical History data</text><polygon fill="#000000" points="2586.5,581.6719,2576.5,585.6719,2586.5,589.6719,2582.5,585.6719" style="stroke:#000000;stroke-width:1.0;"/><line style="stroke:#000000;stroke-width:1.0;stroke-dasharray:2.0,2.0;" x1="2580.5" x2="3156.5" y1="585.6719" y2="585.6719"/><text fill="#000000" font-family="sans-serif" font-size="20" lengthAdjust="spacing" textLength="305" x="2592.5" y="578.9551">returns Operation Status Code</text><polygon fill="#000000" points="3767.5,618.9531,3777.5,622.9531,3767.5,626.9531,3771.5,622.9531" style="stroke:#000000;stroke-width:1.0;"/><line style="stroke:#000000;stroke-width:1.0;stroke-dasharray:2.0,2.0;" x1="2570.5" x2="3773.5" y1="622.9531" y2="622.9531"/><text fill="#000000" font-family="sans-serif" font-size="20" lengthAdjust="spacing" textLength="305" x="2577.5" y="616.2363">returns Operation Status Code</text><polygon fill="#000000" points="1910,656.2344,1900,660.2344,1910,664.2344,1906,660.2344" style="stroke:#000000;stroke-width:1.0;"/><line style="stroke:#000000;stroke-width:1.0;stroke-dasharray:2.0,2.0;" x1="1904" x2="3783.5" y1="660.2344" y2="660.2344"/><text fill="#000000" font-family="sans-serif" font-size="20" lengthAdjust="spacing" textLength="280" x="1916" y="653.5176">returns Operation Response</text><line style="stroke:#000000;stroke-width:1.0;" x1="1899" x2="1941" y1="697.5156" y2="697.5156"/><line style="stroke:#000000;stroke-width:1.0;" x1="1941" x2="1941" y1="697.5156" y2="710.5156"/><line style="stroke:#000000;stroke-width:1.0;" x1="1900" x2="1941" y1="710.5156" y2="710.5156"/><polygon fill="#000000" points="1910,706.5156,1900,710.5156,1910,714.5156,1906,710.5156" style="stroke:#000000;stroke-width:1.0;"/><text fill="#000000" font-family="sans-serif" font-size="20" lengthAdjust="spacing" textLength="439" x="1906" y="690.7988">initializes UpdateMedicalHistoryComponent</text><polygon fill="#000000" points="734,743.7969,724,747.7969,734,751.7969,730,747.7969" style="stroke:#000000;stroke-width:1.0;"/><line style="stroke:#000000;stroke-width:1.0;stroke-dasharray:2.0,2.0;" x1="728" x2="1893" y1="747.7969" y2="747.7969"/><text fill="#000000" font-family="sans-serif" font-size="20" lengthAdjust="spacing" textLength="415" x="740" y="741.0801">returns UpdateMedicalHistoryComponent</text><polygon fill="#000000" points="57,781.0781,47,785.0781,57,789.0781,53,785.0781" style="stroke:#000000;stroke-width:1.0;"/><line style="stroke:#000000;stroke-width:1.0;stroke-dasharray:2.0,2.0;" x1="51" x2="717" y1="785.0781" y2="785.0781"/><text fill="#000000" font-family="sans-serif" font-size="20" lengthAdjust="spacing" textLength="598" x="63" y="778.3613">Displays the fetched data and asks for the data to be added</text><polygon fill="#000000" points="701,818.3594,711,822.3594,701,826.3594,705,822.3594" style="stroke:#000000;stroke-width:1.0;"/><line style="stroke:#000000;stroke-width:1.0;" x1="46" x2="707" y1="822.3594" y2="822.3594"/><text fill="#000000" font-family="sans-serif" font-size="20" lengthAdjust="spacing" textLength="478" x="53" y="815.6426">Sends the new data(FamilyHistory) to be added</text><polygon fill="#000000" points="1877,855.6406,1887,859.6406,1877,863.6406,1881,859.6406" style="stroke:#000000;stroke-width:1.0;"/><line style="stroke:#000000;stroke-width:1.0;" x1="723" x2="1883" y1="859.6406" y2="859.6406"/><text fill="#000000" font-family="sans-serif" font-size="20" lengthAdjust="spacing" textLength="303" x="730" y="852.9238">updateMedicalHistory($event)</text><polygon fill="#000000" points="3767.5,892.9219,3777.5,896.9219,3767.5,900.9219,3771.5,896.9219" style="stroke:#000000;stroke-width:1.0;"/><line style="stroke:#000000;stroke-width:1.0;" x1="1899" x2="3773.5" y1="896.9219" y2="896.9219"/><text fill="#000000" font-family="sans-serif" font-size="20" lengthAdjust="spacing" textLength="423" x="1906" y="890.2051">updateMedicalHistory(newMedicalHistory)</text><polygon fill="#000000" points="2586.5,930.2031,2576.5,934.2031,2586.5,938.2031,2582.5,934.2031" style="stroke:#000000;stroke-width:1.0;"/><line style="stroke:#000000;stroke-width:1.0;" x1="2580.5" x2="3778.5" y1="934.2031" y2="934.2031"/><text fill="#000000" font-family="sans-serif" font-size="20" lengthAdjust="spacing" textLength="803" x="2592.5" y="927.4863">Makes Http Request to add a family history entry in the patient's medical record</text><line style="stroke:#000000;stroke-width:1.0;" x1="2575.5" x2="2617.5" y1="971.4844" y2="971.4844"/><line style="stroke:#000000;stroke-width:1.0;" x1="2617.5" x2="2617.5" y1="971.4844" y2="984.4844"/><line style="stroke:#000000;stroke-width:1.0;" x1="2576.5" x2="2617.5" y1="984.4844" y2="984.4844"/><polygon fill="#000000" points="2586.5,980.4844,2576.5,984.4844,2586.5,988.4844,2582.5,984.4844" style="stroke:#000000;stroke-width:1.0;"/><text fill="#000000" font-family="sans-serif" font-size="20" lengthAdjust="spacing" textLength="563" x="2582.5" y="964.7676">Intercepts the request and adds the token to the header</text><path d="M2580,997.4844 L2580,1053.4844 L3099,1053.4844 L3099,1007.4844 L3089,997.4844 L2580,997.4844 " fill="#FEFFDD" style="stroke:#181818;stroke-width:0.5;"/><path d="M3089,997.4844 L3089,1007.4844 L3099,1007.4844 L3089,997.4844 " fill="#FEFFDD" style="stroke:#181818;stroke-width:0.5;"/><text fill="#000000" font-family="sans-serif" font-size="20" lengthAdjust="spacing" textLength="498" x="2586" y="1021.0488">The token is added to the header so that the MDV</text><text fill="#000000" font-family="sans-serif" font-size="20" lengthAdjust="spacing" textLength="442" x="2586" y="1044.3301">can authenticate and authorize the request.</text><polygon fill="#000000" points="3140.5,1084.3281,3150.5,1088.3281,3140.5,1092.3281,3144.5,1088.3281" style="stroke:#000000;stroke-width:1.0;"/><line style="stroke:#000000;stroke-width:1.0;" x1="2575.5" x2="3146.5" y1="1088.3281" y2="1088.3281"/><text fill="#000000" font-family="sans-serif" font-size="20" lengthAdjust="spacing" textLength="423" x="2582.5" y="1081.6113">updateMedicalHistory(newMedicalHistory)</text><line style="stroke:#000000;stroke-width:1.0;" x1="3162.5" x2="3204.5" y1="1125.6094" y2="1125.6094"/><line style="stroke:#000000;stroke-width:1.0;" x1="3204.5" x2="3204.5" y1="1125.6094" y2="1138.6094"/><line style="stroke:#000000;stroke-width:1.0;" x1="3163.5" x2="3204.5" y1="1138.6094" y2="1138.6094"/><polygon fill="#000000" points="3173.5,1134.6094,3163.5,1138.6094,3173.5,1142.6094,3169.5,1138.6094" style="stroke:#000000;stroke-width:1.0;"/><text fill="#000000" font-family="sans-serif" font-size="20" lengthAdjust="spacing" textLength="603" x="3169.5" y="1118.8926">Validates the data and updates the patient's medical record</text><polygon fill="#000000" points="2586.5,1171.8906,2576.5,1175.8906,2586.5,1179.8906,2582.5,1175.8906" style="stroke:#000000;stroke-width:1.0;"/><line style="stroke:#000000;stroke-width:1.0;stroke-dasharray:2.0,2.0;" x1="2580.5" x2="3156.5" y1="1175.8906" y2="1175.8906"/><text fill="#000000" font-family="sans-serif" font-size="20" lengthAdjust="spacing" textLength="311" x="2592.5" y="1169.1738">Returns Operation Status Code</text><polygon fill="#000000" points="3767.5,1209.1719,3777.5,1213.1719,3767.5,1217.1719,3771.5,1213.1719" style="stroke:#000000;stroke-width:1.0;"/><line style="stroke:#000000;stroke-width:1.0;stroke-dasharray:2.0,2.0;" x1="2570.5" x2="3773.5" y1="1213.1719" y2="1213.1719"/><text fill="#000000" font-family="sans-serif" font-size="20" lengthAdjust="spacing" textLength="305" x="2577.5" y="1206.4551">returns Operation Status Code</text><polygon fill="#000000" points="1910,1246.4531,1900,1250.4531,1910,1254.4531,1906,1250.4531" style="stroke:#000000;stroke-width:1.0;"/><line style="stroke:#000000;stroke-width:1.0;stroke-dasharray:2.0,2.0;" x1="1904" x2="3783.5" y1="1250.4531" y2="1250.4531"/><text fill="#000000" font-family="sans-serif" font-size="20" lengthAdjust="spacing" textLength="280" x="1916" y="1243.7363">returns Operation Response</text><polygon fill="#000000" points="734,1283.7344,724,1287.7344,734,1291.7344,730,1287.7344" style="stroke:#000000;stroke-width:1.0;"/><line style="stroke:#000000;stroke-width:1.0;stroke-dasharray:2.0,2.0;" x1="728" x2="1893" y1="1287.7344" y2="1287.7344"/><text fill="#000000" font-family="sans-serif" font-size="20" lengthAdjust="spacing" textLength="374" x="740" y="1281.0176">returns Operation In/Sucess message</text><polygon fill="#000000" points="57,1321.0156,47,1325.0156,57,1329.0156,53,1325.0156" style="stroke:#000000;stroke-width:1.0;"/><line style="stroke:#000000;stroke-width:1.0;stroke-dasharray:2.0,2.0;" x1="51" x2="717" y1="1325.0156" y2="1325.0156"/><text fill="#000000" font-family="sans-serif" font-size="20" lengthAdjust="spacing" textLength="374" x="63" y="1318.2988">returns Operation In/Sucess message</text><!--SRC=[tLRRJjj047ttLuoWKk21GgbwYoYISx6mH8eKDxmlzYJPnjbrTzUWjEg_TsRj41j2Mge-L4M2AECvPywSdLbZ5r8LmeXbhjC5Pf3XL9IvYxHoYVo6S7eI14ww7E4IRp67rn0DOI35Z211C9SP0YuBju8bBc_GsA1ZrunmAHMwLO6WZPlh8DWyINDXBNmFW7vw8btCZ2vLrjUvDcTdjo8lyUhc2wRk_1ps1s-7OVH-UwhHskT4Ws5lSB8znwAvbIbwgbVHwR2tBGts9t7qOVZEFmkDqNTLk9TJNl2ZgRsWY9ZXTlMmF-n5Rw8UGqJgA33G_aDO20CYS3ALXL0EhYNUSNGIjy9x8ynaAl8BQGcswkjbeHKgj-SPHlrsygJ8XCDTa4dOtyMVLERurAjnqauDIpUFbKEJOa79bOIstD7WcgFquVkLjoI76WtXw9mwwq9e5nQS1f5b860gbZ9VmRog3QIH_ae5RevagvCKw5YQ9AyG3ARQP1jQSceICp7Pq0Nod9JHY2q-TevBxyDHZJog2nntQzAwvx4d_5Joe7OQSibL-lMImpMpLxtJteOmyZZ35X-5lDAa2rDqwRpDSV2qhiE6hYG84yz2Hex4WZHTE5V06B-MQ1qBd24TGMrNpGqaMJH8uY2CroJtXsczvQOc4YhZ0wg2JYzGCJT_cQF8q0HA4vEHixa3FMLAdlpFzydICfmkZnOAB7yJpeTuG1YK2WM2negQ9z74wcjJG1k-RHggNWP8ZxXotG1HTBdXFx6Io_EehcaYFXFoSwjtFh5spA0hZQBTAD1G8QqWSSAL5lewm-QXSmNMMH_wR-FuV18FgsRl4MwCbkRDja79Ui0yI2hffCZ9GFkBaVMeUZNNfNOZ6bLvp2TrYrrw1zWY5wjgQFoCyzk3_AkEbFT-IlSUF_LHceqRhEQaHHflBek4JhpYKtGtCkeWyZT6hUgmHVBuNl1cb5lQENX1xoxb3jihszZHhI0IqOuyRpV_nfNtdstlisr-kBVNDELCOJTpnH8gNhlRrEPQZ__fjNwme1jGh8wJCaNBlLbB_uGylPxF1SV1Jm00]--></g></svg>