<?xml version="1.0" encoding="UTF-8" standalone="no"?><svg xmlns="http://www.w3.org/2000/svg" xmlns:xlink="http://www.w3.org/1999/xlink" contentStyleType="text/css" height="1467px" preserveAspectRatio="none" style="width:3399px;height:1467px;background:#FFFFFF;" version="1.1" viewBox="0 0 3399 1467" width="3399px" zoomAndPan="magnify"><defs/><g><text fill="#000000" font-family="sans-serif" font-size="14" font-weight="bold" lengthAdjust="spacing" textLength="472" x="1462" y="27.9951">Level 3 MDR Diagram for Listing/Search Operation Requests</text><rect fill="#FFFFFF" height="1234.6875" style="stroke:#181818;stroke-width:1.0;" width="10" x="15.5" y="135.5781"/><rect fill="#FFFFFF" height="122.125" style="stroke:#181818;stroke-width:1.0;" width="10" x="652.5" y="164.8594"/><rect fill="#FFFFFF" height="1037" style="stroke:#181818;stroke-width:1.0;" width="10" x="652.5" y="324.2656"/><rect fill="#FFFFFF" height="955.4375" style="stroke:#181818;stroke-width:1.0;" width="10" x="1288.5" y="361.5469"/><rect fill="#FFFFFF" height="568.0625" style="stroke:#181818;stroke-width:1.0;" width="10" x="1744.5" y="398.8281"/><rect fill="#FFFFFF" height="124.8438" style="stroke:#181818;stroke-width:1.0;" width="10" x="2041" y="1147.8594"/><rect fill="#FFFFFF" height="43.2813" style="stroke:#181818;stroke-width:1.0;" width="10" x="2526" y="1185.1406"/><rect fill="#FFFFFF" height="127.125" style="stroke:#181818;stroke-width:1.0;" width="10" x="2791" y="436.1094"/><rect fill="#FFFFFF" height="37.2813" style="stroke:#181818;stroke-width:1.0;" width="10" x="2791" y="641.0781"/><rect fill="#FFFFFF" height="37.2813" style="stroke:#181818;stroke-width:1.0;" width="10" x="2791" y="763.2031"/><rect fill="#FFFFFF" height="37.2813" style="stroke:#181818;stroke-width:1.0;" width="10" x="2791" y="885.3281"/><rect fill="#EBF5FB" height="108.125" style="stroke:#000000;stroke-width:1.5;" width="1271.5" x="1588.5" y="578.2344"/><rect fill="#EBF5FB" height="108.125" style="stroke:#000000;stroke-width:1.5;" width="1271.5" x="1588.5" y="700.3594"/><rect fill="#EBF5FB" height="108.125" style="stroke:#000000;stroke-width:1.5;" width="1271.5" x="1588.5" y="822.4844"/><rect fill="#EBF5FB" height="343.0938" style="stroke:#000000;stroke-width:1.5;" width="2306" x="500" y="981.8906"/><rect fill="#EBF5FB" height="272.25" style="stroke:none;stroke-width:1.0;" width="2306" x="500" y="1052.7344"/><rect fill="#EBF5FB" height="195.6875" style="stroke:#000000;stroke-width:1.5;" width="1647" x="1149" y="1085.0156"/><line style="stroke:#181818;stroke-width:0.5;stroke-dasharray:5.0,5.0;" x1="20" x2="20" y1="125.5781" y2="1379.2656"/><line style="stroke:#181818;stroke-width:0.5;stroke-dasharray:5.0,5.0;" x1="657" x2="657" y1="125.5781" y2="1379.2656"/><line style="stroke:#181818;stroke-width:0.5;stroke-dasharray:5.0,5.0;" x1="1293" x2="1293" y1="125.5781" y2="1379.2656"/><line style="stroke:#181818;stroke-width:0.5;stroke-dasharray:5.0,5.0;" x1="1749.5" x2="1749.5" y1="125.5781" y2="1379.2656"/><line style="stroke:#181818;stroke-width:0.5;stroke-dasharray:5.0,5.0;" x1="2045.5" x2="2045.5" y1="125.5781" y2="1379.2656"/><line style="stroke:#181818;stroke-width:0.5;stroke-dasharray:5.0,5.0;" x1="2530.5" x2="2530.5" y1="125.5781" y2="1379.2656"/><line style="stroke:#181818;stroke-width:0.5;stroke-dasharray:5.0,5.0;" x1="2796" x2="2796" y1="125.5781" y2="1379.2656"/><text fill="#000000" font-family="sans-serif" font-size="20" lengthAdjust="spacing" textLength="25" x="5" y="120.8613">FE</text><ellipse cx="20.5" cy="50.7969" fill="#E2E2F0" rx="8" ry="8" style="stroke:#181818;stroke-width:0.5;"/><path d="M20.5,58.7969 L20.5,85.7969 M7.5,66.7969 L33.5,66.7969 M20.5,85.7969 L7.5,100.7969 M20.5,85.7969 L33.5,100.7969 " fill="none" style="stroke:#181818;stroke-width:0.5;"/><text fill="#000000" font-family="sans-serif" font-size="20" lengthAdjust="spacing" textLength="25" x="5" y="1396.8301">FE</text><ellipse cx="20.5" cy="1410.0469" fill="#E2E2F0" rx="8" ry="8" style="stroke:#181818;stroke-width:0.5;"/><path d="M20.5,1418.0469 L20.5,1445.0469 M7.5,1426.0469 L33.5,1426.0469 M20.5,1445.0469 L7.5,1460.0469 M20.5,1445.0469 L33.5,1460.0469 " fill="none" style="stroke:#181818;stroke-width:0.5;"/><rect fill="#E2E2F0" height="37.2813" rx="2.5" ry="2.5" style="stroke:#181818;stroke-width:0.5;" width="295" x="510" y="87.2969"/><text fill="#000000" font-family="sans-serif" font-size="20" lengthAdjust="spacing" textLength="281" x="517" y="112.8613">OperationRequestController</text><rect fill="#E2E2F0" height="37.2813" rx="2.5" ry="2.5" style="stroke:#181818;stroke-width:0.5;" width="295" x="510" y="1378.2656"/><text fill="#000000" font-family="sans-serif" font-size="20" lengthAdjust="spacing" textLength="281" x="517" y="1403.8301">OperationRequestController</text><rect fill="#E2E2F0" height="37.2813" rx="2.5" ry="2.5" style="stroke:#181818;stroke-width:0.5;" width="269" x="1159" y="87.2969"/><text fill="#000000" font-family="sans-serif" font-size="20" lengthAdjust="spacing" textLength="255" x="1166" y="112.8613">OperationRequestService</text><rect fill="#E2E2F0" height="37.2813" rx="2.5" ry="2.5" style="stroke:#181818;stroke-width:0.5;" width="269" x="1159" y="1378.2656"/><text fill="#000000" font-family="sans-serif" font-size="20" lengthAdjust="spacing" textLength="255" x="1166" y="1403.8301">OperationRequestService</text><rect fill="#E2E2F0" height="37.2813" rx="2.5" ry="2.5" style="stroke:#181818;stroke-width:0.5;" width="302" x="1598.5" y="87.2969"/><text fill="#000000" font-family="sans-serif" font-size="20" lengthAdjust="spacing" textLength="288" x="1605.5" y="112.8613">OperationRequestRepository</text><rect fill="#E2E2F0" height="37.2813" rx="2.5" ry="2.5" style="stroke:#181818;stroke-width:0.5;" width="302" x="1598.5" y="1378.2656"/><text fill="#000000" font-family="sans-serif" font-size="20" lengthAdjust="spacing" textLength="288" x="1605.5" y="1403.8301">OperationRequestRepository</text><rect fill="#E2E2F0" height="37.2813" rx="2.5" ry="2.5" style="stroke:#181818;stroke-width:0.5;" width="271" x="1910.5" y="87.2969"/><text fill="#000000" font-family="sans-serif" font-size="20" lengthAdjust="spacing" textLength="257" x="1917.5" y="112.8613">OperationRequestMapper</text><rect fill="#E2E2F0" height="37.2813" rx="2.5" ry="2.5" style="stroke:#181818;stroke-width:0.5;" width="271" x="1910.5" y="1378.2656"/><text fill="#000000" font-family="sans-serif" font-size="20" lengthAdjust="spacing" textLength="257" x="1917.5" y="1403.8301">OperationRequestMapper</text><rect fill="#E2E2F0" height="37.2813" rx="2.5" ry="2.5" style="stroke:#181818;stroke-width:0.5;" width="239" x="2411.5" y="87.2969"/><text fill="#000000" font-family="sans-serif" font-size="20" lengthAdjust="spacing" textLength="225" x="2418.5" y="112.8613">OperationRequestDTO</text><rect fill="#E2E2F0" height="37.2813" rx="2.5" ry="2.5" style="stroke:#181818;stroke-width:0.5;" width="239" x="2411.5" y="1378.2656"/><text fill="#000000" font-family="sans-serif" font-size="20" lengthAdjust="spacing" textLength="225" x="2418.5" y="1403.8301">OperationRequestDTO</text><rect fill="#E2E2F0" height="37.2813" rx="2.5" ry="2.5" style="stroke:#181818;stroke-width:0.5;" width="108" x="2742" y="87.2969"/><text fill="#000000" font-family="sans-serif" font-size="20" lengthAdjust="spacing" textLength="94" x="2749" y="112.8613">Database</text><rect fill="#E2E2F0" height="37.2813" rx="2.5" ry="2.5" style="stroke:#181818;stroke-width:0.5;" width="108" x="2742" y="1378.2656"/><text fill="#000000" font-family="sans-serif" font-size="20" lengthAdjust="spacing" textLength="94" x="2749" y="1403.8301">Database</text><rect fill="#FFFFFF" height="1234.6875" style="stroke:#181818;stroke-width:1.0;" width="10" x="15.5" y="135.5781"/><rect fill="#FFFFFF" height="122.125" style="stroke:#181818;stroke-width:1.0;" width="10" x="652.5" y="164.8594"/><rect fill="#FFFFFF" height="1037" style="stroke:#181818;stroke-width:1.0;" width="10" x="652.5" y="324.2656"/><rect fill="#FFFFFF" height="955.4375" style="stroke:#181818;stroke-width:1.0;" width="10" x="1288.5" y="361.5469"/><rect fill="#FFFFFF" height="568.0625" style="stroke:#181818;stroke-width:1.0;" width="10" x="1744.5" y="398.8281"/><rect fill="#FFFFFF" height="124.8438" style="stroke:#181818;stroke-width:1.0;" width="10" x="2041" y="1147.8594"/><rect fill="#FFFFFF" height="43.2813" style="stroke:#181818;stroke-width:1.0;" width="10" x="2526" y="1185.1406"/><rect fill="#FFFFFF" height="127.125" style="stroke:#181818;stroke-width:1.0;" width="10" x="2791" y="436.1094"/><rect fill="#FFFFFF" height="37.2813" style="stroke:#181818;stroke-width:1.0;" width="10" x="2791" y="641.0781"/><rect fill="#FFFFFF" height="37.2813" style="stroke:#181818;stroke-width:1.0;" width="10" x="2791" y="763.2031"/><rect fill="#FFFFFF" height="37.2813" style="stroke:#181818;stroke-width:1.0;" width="10" x="2791" y="885.3281"/><polygon fill="#000000" points="640.5,160.8594,650.5,164.8594,640.5,168.8594,644.5,164.8594" style="stroke:#000000;stroke-width:1.0;"/><line style="stroke:#000000;stroke-width:1.0;" x1="25.5" x2="646.5" y1="164.8594" y2="164.8594"/><text fill="#000000" font-family="sans-serif" font-size="20" lengthAdjust="spacing" textLength="572" x="32.5" y="158.1426">Sends HTTP request to list the default operation requests</text><rect fill="none" height="79.8438" style="stroke:#000000;stroke-width:1.5;" width="647" x="507" y="172.8594"/><path d="M507,172.8594 L585,172.8594 L585,187.8594 L575,197.8594 L507,197.8594 L507,172.8594 " fill="#EEEEEE" style="stroke:#000000;stroke-width:2.0;"/><text fill="#000000" font-family="sans-serif" font-size="20" font-weight="bold" lengthAdjust="spacing" textLength="33" x="520" y="193.4238">ref</text><text fill="#000000" font-family="sans-serif" font-size="20" lengthAdjust="spacing" textLength="639" x="511" y="220.4238">This part will behave the same way as the representation below</text><text fill="#000000" font-family="sans-serif" font-size="20" lengthAdjust="spacing" textLength="372" x="644.5" y="243.7051">but without any filters being applied.</text><polygon fill="#000000" points="36.5,282.9844,26.5,286.9844,36.5,290.9844,32.5,286.9844" style="stroke:#000000;stroke-width:1.0;"/><line style="stroke:#000000;stroke-width:1.0;stroke-dasharray:2.0,2.0;" x1="30.5" x2="656.5" y1="286.9844" y2="286.9844"/><text fill="#000000" font-family="sans-serif" font-size="20" lengthAdjust="spacing" textLength="311" x="42.5" y="280.2676">Returns Operation Status Code</text><polygon fill="#000000" points="640.5,320.2656,650.5,324.2656,640.5,328.2656,644.5,324.2656" style="stroke:#000000;stroke-width:1.0;"/><line style="stroke:#000000;stroke-width:1.0;" x1="25.5" x2="646.5" y1="324.2656" y2="324.2656"/><text fill="#000000" font-family="sans-serif" font-size="20" lengthAdjust="spacing" textLength="608" x="32.5" y="317.5488">Sends HTTP request to list the operation requests with filters</text><polygon fill="#000000" points="1276.5,357.5469,1286.5,361.5469,1276.5,365.5469,1280.5,361.5469" style="stroke:#000000;stroke-width:1.0;"/><line style="stroke:#000000;stroke-width:1.0;" x1="662.5" x2="1282.5" y1="361.5469" y2="361.5469"/><text fill="#000000" font-family="sans-serif" font-size="20" lengthAdjust="spacing" textLength="607" x="669.5" y="354.8301">searchOperationRequests(SearchOperationRequestDTO dto)</text><polygon fill="#000000" points="1732.5,394.8281,1742.5,398.8281,1732.5,402.8281,1736.5,398.8281" style="stroke:#000000;stroke-width:1.0;"/><line style="stroke:#000000;stroke-width:1.0;" x1="1298.5" x2="1738.5" y1="398.8281" y2="398.8281"/><text fill="#000000" font-family="sans-serif" font-size="20" lengthAdjust="spacing" textLength="366" x="1305.5" y="392.1113">searchOperationRequestsAsync(dto)</text><polygon fill="#000000" points="2779,432.1094,2789,436.1094,2779,440.1094,2783,436.1094" style="stroke:#000000;stroke-width:1.0;"/><line style="stroke:#000000;stroke-width:1.0;" x1="1754.5" x2="2785" y1="436.1094" y2="436.1094"/><text fill="#000000" font-family="sans-serif" font-size="20" lengthAdjust="spacing" textLength="200" x="1761.5" y="429.3926">_objs.AsQueryable()</text><path d="M2806,449.1094 L2806,528.1094 L3392,528.1094 L3392,459.1094 L3382,449.1094 L2806,449.1094 " fill="#FEFFDD" style="stroke:#181818;stroke-width:0.5;"/><path d="M3382,449.1094 L3382,459.1094 L3392,459.1094 L3382,449.1094 " fill="#FEFFDD" style="stroke:#181818;stroke-width:0.5;"/><text fill="#000000" font-family="sans-serif" font-size="20" lengthAdjust="spacing" textLength="565" x="2812" y="472.6738">This will return a queryable list of all operation requests.</text><text fill="#000000" font-family="sans-serif" font-size="20" lengthAdjust="spacing" textLength="459" x="2812" y="495.9551">This means that other queries can be chained</text><text fill="#000000" font-family="sans-serif" font-size="20" lengthAdjust="spacing" textLength="406" x="2812" y="519.2363">to this one in order to filter the requests.</text><polygon fill="#000000" points="1765.5,559.2344,1755.5,563.2344,1765.5,567.2344,1761.5,563.2344" style="stroke:#000000;stroke-width:1.0;"/><line style="stroke:#000000;stroke-width:1.0;stroke-dasharray:2.0,2.0;" x1="1759.5" x2="2795" y1="563.2344" y2="563.2344"/><text fill="#000000" font-family="sans-serif" font-size="20" lengthAdjust="spacing" textLength="508" x="1771.5" y="556.5176">Returns the queryable list of all operation requests</text><path d="M1588.5,578.2344 L1671.5,578.2344 L1671.5,593.5156 L1661.5,603.5156 L1588.5,603.5156 L1588.5,578.2344 " fill="#EEEEEE" style="stroke:#000000;stroke-width:1.5;"/><rect fill="none" height="108.125" style="stroke:#000000;stroke-width:1.5;" width="1271.5" x="1588.5" y="578.2344"/><text fill="#000000" font-family="sans-serif" font-size="20" font-weight="bold" lengthAdjust="spacing" textLength="38" x="1603.5" y="597.7988">opt</text><text fill="#000000" font-family="sans-serif" font-size="20" font-weight="bold" lengthAdjust="spacing" textLength="418" x="1686.5" y="598.7988">[Filter queryable by Operation Type]</text><polygon fill="#000000" points="2779,637.0781,2789,641.0781,2779,645.0781,2783,641.0781" style="stroke:#000000;stroke-width:1.0;"/><line style="stroke:#000000;stroke-width:1.0;" x1="1754.5" x2="2785" y1="641.0781" y2="641.0781"/><text fill="#000000" font-family="sans-serif" font-size="20" lengthAdjust="spacing" textLength="593" x="1761.5" y="634.3613">query.Where(r =&gt; r.OperationType == dto.OperationType)</text><polygon fill="#000000" points="1765.5,674.3594,1755.5,678.3594,1765.5,682.3594,1761.5,678.3594" style="stroke:#000000;stroke-width:1.0;"/><line style="stroke:#000000;stroke-width:1.0;stroke-dasharray:2.0,2.0;" x1="1759.5" x2="2795" y1="678.3594" y2="678.3594"/><text fill="#000000" font-family="sans-serif" font-size="20" lengthAdjust="spacing" textLength="644" x="1771.5" y="671.6426">Returns the queryable list of requests filtered by Operation Type</text><path d="M1588.5,700.3594 L1671.5,700.3594 L1671.5,715.6406 L1661.5,725.6406 L1588.5,725.6406 L1588.5,700.3594 " fill="#EEEEEE" style="stroke:#000000;stroke-width:1.5;"/><rect fill="none" height="108.125" style="stroke:#000000;stroke-width:1.5;" width="1271.5" x="1588.5" y="700.3594"/><text fill="#000000" font-family="sans-serif" font-size="20" font-weight="bold" lengthAdjust="spacing" textLength="38" x="1603.5" y="719.9238">opt</text><text fill="#000000" font-family="sans-serif" font-size="20" font-weight="bold" lengthAdjust="spacing" textLength="405" x="1686.5" y="720.9238">[Filter queryable by Deadline Date]</text><polygon fill="#000000" points="2779,759.2031,2789,763.2031,2779,767.2031,2783,763.2031" style="stroke:#000000;stroke-width:1.0;"/><line style="stroke:#000000;stroke-width:1.0;" x1="1754.5" x2="2785" y1="763.2031" y2="763.2031"/><text fill="#000000" font-family="sans-serif" font-size="20" lengthAdjust="spacing" textLength="569" x="1761.5" y="756.4863">query.Where(r =&gt; r.DeadlineDate == dto.DeadlineDate)</text><polygon fill="#000000" points="1765.5,796.4844,1755.5,800.4844,1765.5,804.4844,1761.5,800.4844" style="stroke:#000000;stroke-width:1.0;"/><line style="stroke:#000000;stroke-width:1.0;stroke-dasharray:2.0,2.0;" x1="1759.5" x2="2795" y1="800.4844" y2="800.4844"/><text fill="#000000" font-family="sans-serif" font-size="20" lengthAdjust="spacing" textLength="632" x="1771.5" y="793.7676">Returns the queryable list of requests filtered by Deadline Date</text><path d="M1588.5,822.4844 L1671.5,822.4844 L1671.5,837.7656 L1661.5,847.7656 L1588.5,847.7656 L1588.5,822.4844 " fill="#EEEEEE" style="stroke:#000000;stroke-width:1.5;"/><rect fill="none" height="108.125" style="stroke:#000000;stroke-width:1.5;" width="1271.5" x="1588.5" y="822.4844"/><text fill="#000000" font-family="sans-serif" font-size="20" font-weight="bold" lengthAdjust="spacing" textLength="38" x="1603.5" y="842.0488">opt</text><text fill="#000000" font-family="sans-serif" font-size="20" font-weight="bold" lengthAdjust="spacing" textLength="328" x="1686.5" y="843.0488">[Filter queryable by Priority]</text><polygon fill="#000000" points="2779,881.3281,2789,885.3281,2779,889.3281,2783,885.3281" style="stroke:#000000;stroke-width:1.0;"/><line style="stroke:#000000;stroke-width:1.0;" x1="1754.5" x2="2785" y1="885.3281" y2="885.3281"/><text fill="#000000" font-family="sans-serif" font-size="20" lengthAdjust="spacing" textLength="439" x="1761.5" y="878.6113">query.Where(r =&gt; r.Priority == dto.Priority)</text><polygon fill="#000000" points="1765.5,918.6094,1755.5,922.6094,1765.5,926.6094,1761.5,922.6094" style="stroke:#000000;stroke-width:1.0;"/><line style="stroke:#000000;stroke-width:1.0;stroke-dasharray:2.0,2.0;" x1="1759.5" x2="2795" y1="922.6094" y2="922.6094"/><text fill="#000000" font-family="sans-serif" font-size="20" lengthAdjust="spacing" textLength="561" x="1771.5" y="915.8926">Returns the queryable list of requests filtered by Priority</text><polygon fill="#000000" points="1309.5,962.8906,1299.5,966.8906,1309.5,970.8906,1305.5,966.8906" style="stroke:#000000;stroke-width:1.0;"/><line style="stroke:#000000;stroke-width:1.0;stroke-dasharray:2.0,2.0;" x1="1303.5" x2="1748.5" y1="966.8906" y2="966.8906"/><text fill="#000000" font-family="sans-serif" font-size="20" lengthAdjust="spacing" textLength="422" x="1315.5" y="960.1738">Returns the final list of operation requests</text><path d="M500,981.8906 L576,981.8906 L576,997.1719 L566,1007.1719 L500,1007.1719 L500,981.8906 " fill="#EEEEEE" style="stroke:#000000;stroke-width:1.5;"/><rect fill="none" height="343.0938" style="stroke:#000000;stroke-width:1.5;" width="2306" x="500" y="981.8906"/><text fill="#000000" font-family="sans-serif" font-size="20" font-weight="bold" lengthAdjust="spacing" textLength="31" x="515" y="1001.4551">alt</text><text fill="#000000" font-family="sans-serif" font-size="20" font-weight="bold" lengthAdjust="spacing" textLength="129" x="591" y="1002.4551">[list is null]</text><polygon fill="#000000" points="673.5,1040.7344,663.5,1044.7344,673.5,1048.7344,669.5,1044.7344" style="stroke:#000000;stroke-width:1.0;"/><line style="stroke:#000000;stroke-width:1.0;stroke-dasharray:2.0,2.0;" x1="667.5" x2="1287.5" y1="1044.7344" y2="1044.7344"/><text fill="#000000" font-family="sans-serif" font-size="20" lengthAdjust="spacing" textLength="122" x="679.5" y="1038.0176">Returns null</text><line style="stroke:#000000;stroke-width:1.0;stroke-dasharray:2.0,2.0;" x1="500" x2="2806" y1="1053.7344" y2="1053.7344"/><text fill="#000000" font-family="sans-serif" font-size="20" font-weight="bold" lengthAdjust="spacing" textLength="174" x="505" y="1072.2988">[list is not null]</text><path d="M1149,1085.0156 L1243,1085.0156 L1243,1100.2969 L1233,1110.2969 L1149,1110.2969 L1149,1085.0156 " fill="#EEEEEE" style="stroke:#000000;stroke-width:1.5;"/><rect fill="none" height="195.6875" style="stroke:#000000;stroke-width:1.5;" width="1647" x="1149" y="1085.0156"/><text fill="#000000" font-family="sans-serif" font-size="20" font-weight="bold" lengthAdjust="spacing" textLength="49" x="1164" y="1104.5801">loop</text><text fill="#000000" font-family="sans-serif" font-size="20" font-weight="bold" lengthAdjust="spacing" textLength="358" x="1258" y="1105.5801">[for each requisition in the list]</text><polygon fill="#000000" points="2029,1143.8594,2039,1147.8594,2029,1151.8594,2033,1147.8594" style="stroke:#000000;stroke-width:1.0;"/><line style="stroke:#000000;stroke-width:1.0;" x1="1298.5" x2="2035" y1="1147.8594" y2="1147.8594"/><text fill="#000000" font-family="sans-serif" font-size="20" lengthAdjust="spacing" textLength="186" x="1305.5" y="1141.1426">toDTO(requisition)</text><polygon fill="#000000" points="2514,1181.1406,2524,1185.1406,2514,1189.1406,2518,1185.1406" style="stroke:#000000;stroke-width:1.0;"/><line style="stroke:#000000;stroke-width:1.0;" x1="2051" x2="2520" y1="1185.1406" y2="1185.1406"/><text fill="#000000" font-family="sans-serif" font-size="20" lengthAdjust="spacing" textLength="456" x="2058" y="1178.4238">new OperationRequestDTO(requisition fields)</text><line style="stroke:#000000;stroke-width:1.0;" x1="2536" x2="2578" y1="1227.4219" y2="1227.4219"/><line style="stroke:#000000;stroke-width:1.0;" x1="2578" x2="2578" y1="1227.4219" y2="1240.4219"/><line style="stroke:#000000;stroke-width:1.0;" x1="2531" x2="2578" y1="1240.4219" y2="1240.4219"/><polygon fill="#000000" points="2541,1236.4219,2531,1240.4219,2541,1244.4219,2537,1240.4219" style="stroke:#000000;stroke-width:1.0;"/><text fill="#000000" font-family="sans-serif" font-size="20" lengthAdjust="spacing" textLength="241" x="2543" y="1220.7051">OperationRequestDTO()</text><polygon fill="#000000" points="1309.5,1268.7031,1299.5,1272.7031,1309.5,1276.7031,1305.5,1272.7031" style="stroke:#000000;stroke-width:1.0;"/><line style="stroke:#000000;stroke-width:1.0;stroke-dasharray:2.0,2.0;" x1="1303.5" x2="2045" y1="1272.7031" y2="1272.7031"/><text fill="#000000" font-family="sans-serif" font-size="20" lengthAdjust="spacing" textLength="348" x="1315.5" y="1265.9863">Returns the OperationRequestDTO</text><polygon fill="#000000" points="673.5,1312.9844,663.5,1316.9844,673.5,1320.9844,669.5,1316.9844" style="stroke:#000000;stroke-width:1.0;"/><line style="stroke:#000000;stroke-width:1.0;stroke-dasharray:2.0,2.0;" x1="667.5" x2="1292.5" y1="1316.9844" y2="1316.9844"/><text fill="#000000" font-family="sans-serif" font-size="20" lengthAdjust="spacing" textLength="419" x="679.5" y="1310.2676">Returns the list of OperationRequestDTOs</text><polygon fill="#000000" points="36.5,1357.2656,26.5,1361.2656,36.5,1365.2656,32.5,1361.2656" style="stroke:#000000;stroke-width:1.0;"/><line style="stroke:#000000;stroke-width:1.0;stroke-dasharray:2.0,2.0;" x1="30.5" x2="656.5" y1="1361.2656" y2="1361.2656"/><text fill="#000000" font-family="sans-serif" font-size="20" lengthAdjust="spacing" textLength="413" x="42.5" y="1354.5488">Returns Operation Status Response Code</text><!--SRC=[jLR1Zjis4BthAmR98Tv3d3H5qzR86bXP5dg8iQbae9S01IMDBMPfKY4f6qhGV- -GicGvLXnVieVLQlZcySsR8RNcYSkAQROJAd_20WhSi5hOM4cRyYy8Rru7WULM8Bp7FGhu5LPH0X5dMyg1ZTBmdXlBvVPLYapd9JnMg9dbIaA2dsiqrWH1oGi4t5MsWHtkCjGcU66wZOb0ecqg1ALjgOBWj98BPWny3O1-GfO_RRMgPR5GGkbtx_PCrFYOVSBSpkVmF7gxV8Z_68TgfJmcZfPXz7eSOr3lUOwUwfVupJ8SWn75Clvp-RjVUz1Q7TfmA0WN_3VKNb64RN5SFJnVXl5lSUXIM6uf42-16VeTKBRbEQ-OjF2iD_FevOBQefKGg9yv-E8wEcrByj3qEZJ1IXbEGXgFJgwZLwogZX9Mrv7H-j73edDOn2pBc6cbHQ4tWU-PHUS0MV5o3eiPf2WB0t-jrnz0jtHW5GZkdYLsemggdpZTJLnFjmWqRa3jKTEVhX7haXjmMk30XO0CIxP7JsVO3k706YV9lMkiD1gKjkNEKAY3fyXgbqoZIayc6zXmOMca2K770CWQmR6O1YIUE3R10bvIEV5oHWV2rbgQmH59YRocFge2Wm87gc_ruB9sBwtJD3HYuHZJ6HX_Jhzjb9caet5g81HMtPsOqY1rJCbtcHvC8_F9UL8I92uf2cVmhye-cUc3-Rj6tR1Cu6I0ercGYfwQRqlgxCPd-9xvTcdl833ut2MtLX2GqVAb6zEFqcVla4dNLaPOyarx0eu6SkPQ2td9w1OgFaeorxe49H6uf2kf8305MqEFWt7a3gBGzpOvjTQjtwfjs76gMrKMudQN4qFM3APbJPUady3UIm-S_aC5uKJ3_Hpqj8SxDDpVk-wT1-yynt1hztvhBVsSjOxG9sDSutbnDCNVBJ12LWXo7-XM-75z7Tg1k_A6iPzGtQN0sulxeBdIt3O_hAi3TZLrxp-XdZDDbwKadZezfzvmoKHFUtsOau3HjUonT99aBOJVAVMyYnElNq5Xy8HLzeGNIbN-FmnYBlr6d3vHRbCwc4wJo_B88_iSLZCwgtHbJGReknxI2rprePNlo0ma7c3awXloa0Ke2ZD25_MXw4WtHdLA75e-L7Bf-WZF64jRZ-lTgC-TLwvp8upcspb8_HZSyDrAq5HAKlykFs3_0m00]--></g></svg>