<?xml version="1.0" encoding="UTF-8" standalone="no"?><svg xmlns="http://www.w3.org/2000/svg" xmlns:xlink="http://www.w3.org/1999/xlink" contentStyleType="text/css" height="1447px" preserveAspectRatio="none" style="width:4103px;height:1447px;background:#FFFFFF;" version="1.1" viewBox="0 0 4103 1447" width="4103px" zoomAndPan="magnify"><defs/><g><text fill="#000000" font-family="sans-serif" font-size="14" font-weight="bold" lengthAdjust="spacing" textLength="456" x="1825.5" y="27.9951">Level 3 FE Diagram for Listing/Search Operation Requests</text><rect fill="#FFFFFF" height="1214.7188" style="stroke:#181818;stroke-width:1.0;" width="10" x="36" y="135.5781"/><rect fill="#FFFFFF" height="569.9375" style="stroke:#181818;stroke-width:1.0;" width="10" x="679" y="164.8594"/><rect fill="#FFFFFF" height="569.2188" style="stroke:#181818;stroke-width:1.0;" width="10" x="679" y="772.0781"/><rect fill="#FFFFFF" height="67.2813" style="stroke:#181818;stroke-width:1.0;" width="10" x="1133" y="202.1406"/><rect fill="#FFFFFF" height="458.0938" style="stroke:#181818;stroke-width:1.0;" width="10" x="1645" y="239.4219"/><rect fill="#FFFFFF" height="428.0938" style="stroke:#181818;stroke-width:1.0;" width="10" x="1645" y="875.9219"/><rect fill="#FFFFFF" height="353.5313" style="stroke:#181818;stroke-width:1.0;" width="10" x="2081" y="306.7031"/><rect fill="#FFFFFF" height="353.5313" style="stroke:#181818;stroke-width:1.0;" width="10" x="2081" y="913.2031"/><rect fill="#FFFFFF" height="278.9688" style="stroke:#181818;stroke-width:1.0;" width="10" x="2718" y="343.9844"/><rect fill="#FFFFFF" height="278.9688" style="stroke:#181818;stroke-width:1.0;" width="10" x="2718" y="950.4844"/><rect fill="#FFFFFF" height="87.5625" style="stroke:#181818;stroke-width:1.0;" width="10" x="3507" y="498.1094"/><rect fill="#FFFFFF" height="87.5625" style="stroke:#181818;stroke-width:1.0;" width="10" x="3507" y="1104.6094"/><line style="stroke:#181818;stroke-width:0.5;stroke-dasharray:5.0,5.0;" x1="41" x2="41" y1="125.5781" y2="1359.2969"/><line style="stroke:#181818;stroke-width:0.5;stroke-dasharray:5.0,5.0;" x1="683.5" x2="683.5" y1="125.5781" y2="1359.2969"/><line style="stroke:#181818;stroke-width:0.5;stroke-dasharray:5.0,5.0;" x1="1138" x2="1138" y1="125.5781" y2="1359.2969"/><line style="stroke:#181818;stroke-width:0.5;stroke-dasharray:5.0,5.0;" x1="1650" x2="1650" y1="125.5781" y2="1359.2969"/><line style="stroke:#181818;stroke-width:0.5;stroke-dasharray:5.0,5.0;" x1="2085.5" x2="2085.5" y1="125.5781" y2="1359.2969"/><line style="stroke:#181818;stroke-width:0.5;stroke-dasharray:5.0,5.0;" x1="2722.5" x2="2722.5" y1="125.5781" y2="1359.2969"/><line style="stroke:#181818;stroke-width:0.5;stroke-dasharray:5.0,5.0;" x1="3512" x2="3512" y1="125.5781" y2="1359.2969"/><text fill="#000000" font-family="sans-serif" font-size="20" lengthAdjust="spacing" textLength="66" x="5" y="120.8613">Doctor</text><ellipse cx="41" cy="50.7969" fill="#E2E2F0" rx="8" ry="8" style="stroke:#181818;stroke-width:0.5;"/><path d="M41,58.7969 L41,85.7969 M28,66.7969 L54,66.7969 M41,85.7969 L28,100.7969 M41,85.7969 L54,100.7969 " fill="none" style="stroke:#181818;stroke-width:0.5;"/><text fill="#000000" font-family="sans-serif" font-size="20" lengthAdjust="spacing" textLength="66" x="5" y="1376.8613">Doctor</text><ellipse cx="41" cy="1390.0781" fill="#E2E2F0" rx="8" ry="8" style="stroke:#181818;stroke-width:0.5;"/><path d="M41,1398.0781 L41,1425.0781 M28,1406.0781 L54,1406.0781 M41,1425.0781 L28,1440.0781 M41,1425.0781 L54,1440.0781 " fill="none" style="stroke:#181818;stroke-width:0.5;"/><rect fill="#E2E2F0" height="37.2813" rx="2.5" ry="2.5" style="stroke:#181818;stroke-width:0.5;" width="63" x="652.5" y="87.2969"/><text fill="#000000" font-family="sans-serif" font-size="20" lengthAdjust="spacing" textLength="49" x="659.5" y="112.8613">View</text><rect fill="#E2E2F0" height="37.2813" rx="2.5" ry="2.5" style="stroke:#181818;stroke-width:0.5;" width="63" x="652.5" y="1358.2969"/><text fill="#000000" font-family="sans-serif" font-size="20" lengthAdjust="spacing" textLength="49" x="659.5" y="1383.8613">View</text><rect fill="#E2E2F0" height="37.2813" rx="2.5" ry="2.5" style="stroke:#181818;stroke-width:0.5;" width="252" x="1012" y="87.2969"/><text fill="#000000" font-family="sans-serif" font-size="20" lengthAdjust="spacing" textLength="238" x="1019" y="112.8613">PanelDoctorComponent</text><rect fill="#E2E2F0" height="37.2813" rx="2.5" ry="2.5" style="stroke:#181818;stroke-width:0.5;" width="252" x="1012" y="1358.2969"/><text fill="#000000" font-family="sans-serif" font-size="20" lengthAdjust="spacing" textLength="238" x="1019" y="1383.8613">PanelDoctorComponent</text><rect fill="#E2E2F0" height="37.2813" rx="2.5" ry="2.5" style="stroke:#181818;stroke-width:0.5;" width="396" x="1452" y="87.2969"/><text fill="#000000" font-family="sans-serif" font-size="20" lengthAdjust="spacing" textLength="382" x="1459" y="112.8613">ManageOperationrequestsComponent</text><rect fill="#E2E2F0" height="37.2813" rx="2.5" ry="2.5" style="stroke:#181818;stroke-width:0.5;" width="396" x="1452" y="1358.2969"/><text fill="#000000" font-family="sans-serif" font-size="20" lengthAdjust="spacing" textLength="382" x="1459" y="1383.8613">ManageOperationrequestsComponent</text><rect fill="#E2E2F0" height="37.2813" rx="2.5" ry="2.5" style="stroke:#181818;stroke-width:0.5;" width="269" x="1951.5" y="87.2969"/><text fill="#000000" font-family="sans-serif" font-size="20" lengthAdjust="spacing" textLength="255" x="1958.5" y="112.8613">OperationRequestService</text><rect fill="#E2E2F0" height="37.2813" rx="2.5" ry="2.5" style="stroke:#181818;stroke-width:0.5;" width="269" x="1951.5" y="1358.2969"/><text fill="#000000" font-family="sans-serif" font-size="20" lengthAdjust="spacing" textLength="255" x="1958.5" y="1383.8613">OperationRequestService</text><rect fill="#E2E2F0" height="37.2813" rx="2.5" ry="2.5" style="stroke:#181818;stroke-width:0.5;" width="173" x="2636.5" y="87.2969"/><text fill="#000000" font-family="sans-serif" font-size="20" lengthAdjust="spacing" textLength="159" x="2643.5" y="112.8613">AuthInterceptor</text><rect fill="#E2E2F0" height="37.2813" rx="2.5" ry="2.5" style="stroke:#181818;stroke-width:0.5;" width="173" x="2636.5" y="1358.2969"/><text fill="#000000" font-family="sans-serif" font-size="20" lengthAdjust="spacing" textLength="159" x="2643.5" y="1383.8613">AuthInterceptor</text><rect fill="#E2E2F0" height="37.2813" rx="2.5" ry="2.5" style="stroke:#181818;stroke-width:0.5;" width="60" x="3482" y="87.2969"/><text fill="#000000" font-family="sans-serif" font-size="20" lengthAdjust="spacing" textLength="46" x="3489" y="112.8613">MDR</text><rect fill="#E2E2F0" height="37.2813" rx="2.5" ry="2.5" style="stroke:#181818;stroke-width:0.5;" width="60" x="3482" y="1358.2969"/><text fill="#000000" font-family="sans-serif" font-size="20" lengthAdjust="spacing" textLength="46" x="3489" y="1383.8613">MDR</text><rect fill="#FFFFFF" height="1214.7188" style="stroke:#181818;stroke-width:1.0;" width="10" x="36" y="135.5781"/><rect fill="#FFFFFF" height="569.9375" style="stroke:#181818;stroke-width:1.0;" width="10" x="679" y="164.8594"/><rect fill="#FFFFFF" height="569.2188" style="stroke:#181818;stroke-width:1.0;" width="10" x="679" y="772.0781"/><rect fill="#FFFFFF" height="67.2813" style="stroke:#181818;stroke-width:1.0;" width="10" x="1133" y="202.1406"/><rect fill="#FFFFFF" height="458.0938" style="stroke:#181818;stroke-width:1.0;" width="10" x="1645" y="239.4219"/><rect fill="#FFFFFF" height="428.0938" style="stroke:#181818;stroke-width:1.0;" width="10" x="1645" y="875.9219"/><rect fill="#FFFFFF" height="353.5313" style="stroke:#181818;stroke-width:1.0;" width="10" x="2081" y="306.7031"/><rect fill="#FFFFFF" height="353.5313" style="stroke:#181818;stroke-width:1.0;" width="10" x="2081" y="913.2031"/><rect fill="#FFFFFF" height="278.9688" style="stroke:#181818;stroke-width:1.0;" width="10" x="2718" y="343.9844"/><rect fill="#FFFFFF" height="278.9688" style="stroke:#181818;stroke-width:1.0;" width="10" x="2718" y="950.4844"/><rect fill="#FFFFFF" height="87.5625" style="stroke:#181818;stroke-width:1.0;" width="10" x="3507" y="498.1094"/><rect fill="#FFFFFF" height="87.5625" style="stroke:#181818;stroke-width:1.0;" width="10" x="3507" y="1104.6094"/><polygon fill="#000000" points="667,160.8594,677,164.8594,667,168.8594,671,164.8594" style="stroke:#000000;stroke-width:1.0;"/><line style="stroke:#000000;stroke-width:1.0;" x1="46" x2="673" y1="164.8594" y2="164.8594"/><text fill="#000000" font-family="sans-serif" font-size="20" lengthAdjust="spacing" textLength="375" x="53" y="158.1426">Asks to list/search operation requests</text><polygon fill="#000000" points="1121,198.1406,1131,202.1406,1121,206.1406,1125,202.1406" style="stroke:#000000;stroke-width:1.0;"/><line style="stroke:#000000;stroke-width:1.0;" x1="689" x2="1127" y1="202.1406" y2="202.1406"/><text fill="#000000" font-family="sans-serif" font-size="20" lengthAdjust="spacing" textLength="425" x="696" y="195.4238">routerLink="/manage-operation-requests"</text><polygon fill="#000000" points="1633,235.4219,1643,239.4219,1633,243.4219,1637,239.4219" style="stroke:#000000;stroke-width:1.0;"/><line style="stroke:#000000;stroke-width:1.0;" x1="1143" x2="1639" y1="239.4219" y2="239.4219"/><text fill="#000000" font-family="sans-serif" font-size="20" lengthAdjust="spacing" textLength="483" x="1150" y="232.7051">routes to ManageOperationRequestsComponent</text><polygon fill="#000000" points="2069,302.7031,2079,306.7031,2069,310.7031,2073,306.7031" style="stroke:#000000;stroke-width:1.0;"/><line style="stroke:#000000;stroke-width:1.0;" x1="1655" x2="2075" y1="306.7031" y2="306.7031"/><text fill="#000000" font-family="sans-serif" font-size="20" lengthAdjust="spacing" textLength="350" x="1662" y="299.9863">getOperationRequestsWithFilters()</text><polygon fill="#000000" points="2706,339.9844,2716,343.9844,2706,347.9844,2710,343.9844" style="stroke:#000000;stroke-width:1.0;"/><line style="stroke:#000000;stroke-width:1.0;" x1="2091" x2="2712" y1="343.9844" y2="343.9844"/><text fill="#000000" font-family="sans-serif" font-size="20" lengthAdjust="spacing" textLength="572" x="2098" y="337.2676">Sends HTTP request to list the default operation requests</text><line style="stroke:#000000;stroke-width:1.0;" x1="2728" x2="2770" y1="381.2656" y2="381.2656"/><line style="stroke:#000000;stroke-width:1.0;" x1="2770" x2="2770" y1="381.2656" y2="394.2656"/><line style="stroke:#000000;stroke-width:1.0;" x1="2729" x2="2770" y1="394.2656" y2="394.2656"/><polygon fill="#000000" points="2739,390.2656,2729,394.2656,2739,398.2656,2735,394.2656" style="stroke:#000000;stroke-width:1.0;"/><text fill="#000000" font-family="sans-serif" font-size="20" lengthAdjust="spacing" textLength="563" x="2735" y="374.5488">Intercepts the request and adds the token to the header</text><path d="M2733,407.2656 L2733,463.2656 L3252,463.2656 L3252,417.2656 L3242,407.2656 L2733,407.2656 " fill="#FEFFDD" style="stroke:#181818;stroke-width:0.5;"/><path d="M3242,407.2656 L3242,417.2656 L3252,417.2656 L3242,407.2656 " fill="#FEFFDD" style="stroke:#181818;stroke-width:0.5;"/><text fill="#000000" font-family="sans-serif" font-size="20" lengthAdjust="spacing" textLength="498" x="2739" y="430.8301">The token is added to the header so that the MDR</text><text fill="#000000" font-family="sans-serif" font-size="20" lengthAdjust="spacing" textLength="442" x="2739" y="454.1113">can authenticate and authorize the request.</text><polygon fill="#000000" points="3495,494.1094,3505,498.1094,3495,502.1094,3499,498.1094" style="stroke:#000000;stroke-width:1.0;"/><line style="stroke:#000000;stroke-width:1.0;" x1="2728" x2="3501" y1="498.1094" y2="498.1094"/><text fill="#000000" font-family="sans-serif" font-size="20" lengthAdjust="spacing" textLength="724" x="2735" y="491.3926">Sends HTTP request with the token to list the default operation requests</text><line style="stroke:#000000;stroke-width:1.0;" x1="3517" x2="3559" y1="535.3906" y2="535.3906"/><line style="stroke:#000000;stroke-width:1.0;" x1="3559" x2="3559" y1="535.3906" y2="548.3906"/><line style="stroke:#000000;stroke-width:1.0;" x1="3518" x2="3559" y1="548.3906" y2="548.3906"/><polygon fill="#000000" points="3528,544.3906,3518,548.3906,3528,552.3906,3524,548.3906" style="stroke:#000000;stroke-width:1.0;"/><text fill="#000000" font-family="sans-serif" font-size="20" lengthAdjust="spacing" textLength="572" x="3524" y="528.6738">Validates the data and tries to list the operation requests</text><polygon fill="#000000" points="2739,581.6719,2729,585.6719,2739,589.6719,2735,585.6719" style="stroke:#000000;stroke-width:1.0;"/><line style="stroke:#000000;stroke-width:1.0;stroke-dasharray:2.0,2.0;" x1="2733" x2="3511" y1="585.6719" y2="585.6719"/><text fill="#000000" font-family="sans-serif" font-size="20" lengthAdjust="spacing" textLength="311" x="2745" y="578.9551">Returns Operation Status Code</text><polygon fill="#000000" points="2102,618.9531,2092,622.9531,2102,626.9531,2098,622.9531" style="stroke:#000000;stroke-width:1.0;"/><line style="stroke:#000000;stroke-width:1.0;stroke-dasharray:2.0,2.0;" x1="2096" x2="2722" y1="622.9531" y2="622.9531"/><text fill="#000000" font-family="sans-serif" font-size="20" lengthAdjust="spacing" textLength="311" x="2108" y="616.2363">Returns Operation Status Code</text><polygon fill="#000000" points="1666,656.2344,1656,660.2344,1666,664.2344,1662,660.2344" style="stroke:#000000;stroke-width:1.0;"/><line style="stroke:#000000;stroke-width:1.0;stroke-dasharray:2.0,2.0;" x1="1660" x2="2085" y1="660.2344" y2="660.2344"/><text fill="#000000" font-family="sans-serif" font-size="20" lengthAdjust="spacing" textLength="286" x="1672" y="653.5176">Returns Operation Response</text><polygon fill="#000000" points="700,693.5156,690,697.5156,700,701.5156,696,697.5156" style="stroke:#000000;stroke-width:1.0;"/><line style="stroke:#000000;stroke-width:1.0;stroke-dasharray:2.0,2.0;" x1="694" x2="1649" y1="697.5156" y2="697.5156"/><text fill="#000000" font-family="sans-serif" font-size="20" lengthAdjust="spacing" textLength="472" x="706" y="690.7988">Returns ManageOperationRequestsComponent</text><polygon fill="#000000" points="57,730.7969,47,734.7969,57,738.7969,53,734.7969" style="stroke:#000000;stroke-width:1.0;"/><line style="stroke:#000000;stroke-width:1.0;stroke-dasharray:2.0,2.0;" x1="51" x2="683" y1="734.7969" y2="734.7969"/><text fill="#000000" font-family="sans-serif" font-size="20" lengthAdjust="spacing" textLength="609" x="63" y="728.0801">Displays initial list and asks for the data to filter the requests</text><polygon fill="#000000" points="667,768.0781,677,772.0781,667,776.0781,671,772.0781" style="stroke:#000000;stroke-width:1.0;"/><line style="stroke:#000000;stroke-width:1.0;" x1="46" x2="673" y1="772.0781" y2="772.0781"/><text fill="#000000" font-family="sans-serif" font-size="20" lengthAdjust="spacing" textLength="361" x="53" y="765.3613">Sends the data to filter the requests</text><path d="M694,785.0781 L694,841.0781 L1032,841.0781 L1032,795.0781 L1022,785.0781 L694,785.0781 " fill="#FEFFDD" style="stroke:#181818;stroke-width:0.5;"/><path d="M1022,785.0781 L1022,795.0781 L1032,795.0781 L1022,785.0781 " fill="#FEFFDD" style="stroke:#181818;stroke-width:0.5;"/><text fill="#000000" font-family="sans-serif" font-size="20" lengthAdjust="spacing" textLength="317" x="700" y="808.6426">The data can be operationType,</text><text fill="#000000" font-family="sans-serif" font-size="20" lengthAdjust="spacing" textLength="244" x="700" y="831.9238">deadlineDate or priority.</text><polygon fill="#000000" points="1633,871.9219,1643,875.9219,1633,879.9219,1637,875.9219" style="stroke:#000000;stroke-width:1.0;"/><line style="stroke:#000000;stroke-width:1.0;" x1="689" x2="1639" y1="875.9219" y2="875.9219"/><text fill="#000000" font-family="sans-serif" font-size="20" lengthAdjust="spacing" textLength="202" x="696" y="869.2051">applyFilters($event)</text><polygon fill="#000000" points="2069,909.2031,2079,913.2031,2069,917.2031,2073,913.2031" style="stroke:#000000;stroke-width:1.0;"/><line style="stroke:#000000;stroke-width:1.0;" x1="1655" x2="2075" y1="913.2031" y2="913.2031"/><text fill="#000000" font-family="sans-serif" font-size="20" lengthAdjust="spacing" textLength="407" x="1662" y="906.4863">getOperationRequestsWithFilters(filters)</text><polygon fill="#000000" points="2706,946.4844,2716,950.4844,2706,954.4844,2710,950.4844" style="stroke:#000000;stroke-width:1.0;"/><line style="stroke:#000000;stroke-width:1.0;" x1="2091" x2="2712" y1="950.4844" y2="950.4844"/><text fill="#000000" font-family="sans-serif" font-size="20" lengthAdjust="spacing" textLength="608" x="2098" y="943.7676">Sends HTTP request to list the operation requests with filters</text><line style="stroke:#000000;stroke-width:1.0;" x1="2728" x2="2770" y1="987.7656" y2="987.7656"/><line style="stroke:#000000;stroke-width:1.0;" x1="2770" x2="2770" y1="987.7656" y2="1000.7656"/><line style="stroke:#000000;stroke-width:1.0;" x1="2729" x2="2770" y1="1000.7656" y2="1000.7656"/><polygon fill="#000000" points="2739,996.7656,2729,1000.7656,2739,1004.7656,2735,1000.7656" style="stroke:#000000;stroke-width:1.0;"/><text fill="#000000" font-family="sans-serif" font-size="20" lengthAdjust="spacing" textLength="563" x="2735" y="981.0488">Intercepts the request and adds the token to the header</text><path d="M2733,1013.7656 L2733,1069.7656 L3252,1069.7656 L3252,1023.7656 L3242,1013.7656 L2733,1013.7656 " fill="#FEFFDD" style="stroke:#181818;stroke-width:0.5;"/><path d="M3242,1013.7656 L3242,1023.7656 L3252,1023.7656 L3242,1013.7656 " fill="#FEFFDD" style="stroke:#181818;stroke-width:0.5;"/><text fill="#000000" font-family="sans-serif" font-size="20" lengthAdjust="spacing" textLength="498" x="2739" y="1037.3301">The token is added to the header so that the MDR</text><text fill="#000000" font-family="sans-serif" font-size="20" lengthAdjust="spacing" textLength="442" x="2739" y="1060.6113">can authenticate and authorize the request.</text><polygon fill="#000000" points="3495,1100.6094,3505,1104.6094,3495,1108.6094,3499,1104.6094" style="stroke:#000000;stroke-width:1.0;"/><line style="stroke:#000000;stroke-width:1.0;" x1="2728" x2="3501" y1="1104.6094" y2="1104.6094"/><text fill="#000000" font-family="sans-serif" font-size="20" lengthAdjust="spacing" textLength="760" x="2735" y="1097.8926">Sends HTTP request with the token to list the operation requests with filters</text><line style="stroke:#000000;stroke-width:1.0;" x1="3517" x2="3559" y1="1141.8906" y2="1141.8906"/><line style="stroke:#000000;stroke-width:1.0;" x1="3559" x2="3559" y1="1141.8906" y2="1154.8906"/><line style="stroke:#000000;stroke-width:1.0;" x1="3518" x2="3559" y1="1154.8906" y2="1154.8906"/><polygon fill="#000000" points="3528,1150.8906,3518,1154.8906,3528,1158.8906,3524,1154.8906" style="stroke:#000000;stroke-width:1.0;"/><text fill="#000000" font-family="sans-serif" font-size="20" lengthAdjust="spacing" textLength="572" x="3524" y="1135.1738">Validates the data and tries to list the operation requests</text><polygon fill="#000000" points="2739,1188.1719,2729,1192.1719,2739,1196.1719,2735,1192.1719" style="stroke:#000000;stroke-width:1.0;"/><line style="stroke:#000000;stroke-width:1.0;stroke-dasharray:2.0,2.0;" x1="2733" x2="3511" y1="1192.1719" y2="1192.1719"/><text fill="#000000" font-family="sans-serif" font-size="20" lengthAdjust="spacing" textLength="311" x="2745" y="1185.4551">Returns Operation Status Code</text><polygon fill="#000000" points="2102,1225.4531,2092,1229.4531,2102,1233.4531,2098,1229.4531" style="stroke:#000000;stroke-width:1.0;"/><line style="stroke:#000000;stroke-width:1.0;stroke-dasharray:2.0,2.0;" x1="2096" x2="2722" y1="1229.4531" y2="1229.4531"/><text fill="#000000" font-family="sans-serif" font-size="20" lengthAdjust="spacing" textLength="311" x="2108" y="1222.7363">Returns Operation Status Code</text><polygon fill="#000000" points="1666,1262.7344,1656,1266.7344,1666,1270.7344,1662,1266.7344" style="stroke:#000000;stroke-width:1.0;"/><line style="stroke:#000000;stroke-width:1.0;stroke-dasharray:2.0,2.0;" x1="1660" x2="2085" y1="1266.7344" y2="1266.7344"/><text fill="#000000" font-family="sans-serif" font-size="20" lengthAdjust="spacing" textLength="286" x="1672" y="1260.0176">Returns Operation Response</text><polygon fill="#000000" points="700,1300.0156,690,1304.0156,700,1308.0156,696,1304.0156" style="stroke:#000000;stroke-width:1.0;"/><line style="stroke:#000000;stroke-width:1.0;stroke-dasharray:2.0,2.0;" x1="694" x2="1649" y1="1304.0156" y2="1304.0156"/><text fill="#000000" font-family="sans-serif" font-size="20" lengthAdjust="spacing" textLength="285" x="706" y="1297.2988">Returns In/Success message</text><polygon fill="#000000" points="57,1337.2969,47,1341.2969,57,1345.2969,53,1341.2969" style="stroke:#000000;stroke-width:1.0;"/><line style="stroke:#000000;stroke-width:1.0;stroke-dasharray:2.0,2.0;" x1="51" x2="683" y1="1341.2969" y2="1341.2969"/><text fill="#000000" font-family="sans-serif" font-size="20" lengthAdjust="spacing" textLength="285" x="63" y="1334.5801">Returns In/Success message</text><!--SRC=[xLPTRzf047pthrWbbTf8JKXJzGkbaG1Z5IaHaK7kIrykzeAlc3ltxan4g_xtxfsniO4sIPyJoOauTcPtPsVFqGikSgROCfFn0XD8SCQAp0HIc0d_YN1nxdc6cmpX6bUOmLi8Xk1pDYS8pAI2QwuD5_FE19cAKnZdg9ZXKa28FmhKHdjUoXC4NEPc3KjStg7ItajTvIK2WMQT8qXbKkbvss_YZ6aDlpoWdpwB5tCb2v4CP2RLvUMAPGMExxvZRAwkuDX_F-m57m-7AYbTJE0F-_xvuHYDQiLZT5HlWejX_r0OKGo3JyCFxhkUKlA-FEvd5EVzRjQUqmcRu-7guNZO3zu5VGjXiQ43Nxe_J8Fl4O7XCS-PC70KSRm_ikTH-_oM2SnAr40kSobG61Ttwm_QaJTCK27rNDHcB6tKpJZSWTM0pHmdfK0kUXnEsi6zmgGZOL35c5D5BgWtsgd33yjKVkYwvYjcaDhruVGAeYxqz4A3aP2HeJgwT9EitLILlKL6NcIHr6yNI5fAJavQV3xgB5t3fpNsjC8URS5M9NeiWMrzm-3ox-WLxkgr9N6Y9TWYjMUMbIJgmXpD7izNRjA0PrIkVdMovRAIqcEXlL4N9YWI3L-cqzkgyqeQC2bMM_fFVKZ_tgZYguUZ7RxYP281bYJbeP4B53QD_P0YIr1vGXAJulEKSiqifNNpj0xcsiBfscYXGDjFh2pLZjk2OYQ0aKr8GHxR-bnkEf3AtZEDgiuyQXvivaq3H75GaNkIibtvamIobT5JPuXOnXFcN60Pc66kHgCuwXRv0LB7iz4wH5CeeHjNuSGmKsWOo0IRVh45s0uhkpmQI7DmNgdTkuyCKPDTTGjcFLRwizou2lMWuvirMyz7Zi7lqej0vnbRQ-226ywoKYCtMRlDzlrGQqaApfplcxFMJUwelWlAOJy4RPkJODCAOCrsrnZKbDulhxy9ofLazBhnRJQgBLUSt6VMPtktIYaho_DiNIth2th_2NEoi_vFslUo2VtVQxzll787DhpFk_yqbPulW0rg93gJ8ewH_jjQqY-w3Fw-ye_3HDuV]--></g></svg>