<?xml version="1.0" encoding="UTF-8" standalone="no"?><svg xmlns="http://www.w3.org/2000/svg" xmlns:xlink="http://www.w3.org/1999/xlink" contentStyleType="text/css" height="1009px" preserveAspectRatio="none" style="width:4199px;height:1009px;background:#FFFFFF;" version="1.1" viewBox="0 0 4199 1009" width="4199px" zoomAndPan="magnify"><defs/><g><text fill="#000000" font-family="sans-serif" font-size="14" font-weight="bold" lengthAdjust="spacing" textLength="149" x="2027" y="27.9951">Level 3 FE Diagram</text><rect fill="#FFFFFF" height="777.625" style="stroke:#181818;stroke-width:1.0;" width="10" x="36" y="135.5781"/><rect fill="#FFFFFF" height="199.4063" style="stroke:#181818;stroke-width:1.0;" width="10" x="784" y="164.8594"/><rect fill="#FFFFFF" height="502.6563" style="stroke:#181818;stroke-width:1.0;" width="10" x="784" y="401.5469"/><rect fill="#FFFFFF" height="37.2813" style="stroke:#181818;stroke-width:1.0;" width="10" x="1169" y="202.1406"/><rect fill="#FFFFFF" height="87.5625" style="stroke:#181818;stroke-width:1.0;" width="10" x="1634" y="239.4219"/><rect fill="#FFFFFF" height="428.0938" style="stroke:#181818;stroke-width:1.0;" width="10" x="1634" y="438.8281"/><rect fill="#FFFFFF" height="353.5313" style="stroke:#181818;stroke-width:1.0;" width="10" x="2101" y="476.1094"/><rect fill="#FFFFFF" height="278.9688" style="stroke:#181818;stroke-width:1.0;" width="10" x="2870" y="513.3906"/><rect fill="#FFFFFF" height="87.5625" style="stroke:#181818;stroke-width:1.0;" width="10" x="3483" y="667.5156"/><line style="stroke:#181818;stroke-width:0.5;stroke-dasharray:5.0,5.0;" x1="41" x2="41" y1="125.5781" y2="922.2031"/><line style="stroke:#181818;stroke-width:0.5;stroke-dasharray:5.0,5.0;" x1="788.5" x2="788.5" y1="125.5781" y2="922.2031"/><line style="stroke:#181818;stroke-width:0.5;stroke-dasharray:5.0,5.0;" x1="1173.5" x2="1173.5" y1="125.5781" y2="922.2031"/><line style="stroke:#181818;stroke-width:0.5;stroke-dasharray:5.0,5.0;" x1="1638.5" x2="1638.5" y1="125.5781" y2="922.2031"/><line style="stroke:#181818;stroke-width:0.5;stroke-dasharray:5.0,5.0;" x1="2105.5" x2="2105.5" y1="125.5781" y2="922.2031"/><line style="stroke:#181818;stroke-width:0.5;stroke-dasharray:5.0,5.0;" x1="2874.5" x2="2874.5" y1="125.5781" y2="922.2031"/><line style="stroke:#181818;stroke-width:0.5;stroke-dasharray:5.0,5.0;" x1="3488" x2="3488" y1="125.5781" y2="922.2031"/><text fill="#000000" font-family="sans-serif" font-size="20" lengthAdjust="spacing" textLength="66" x="5" y="120.8613">Admin</text><ellipse cx="41" cy="50.7969" fill="#E2E2F0" rx="8" ry="8" style="stroke:#181818;stroke-width:0.5;"/><path d="M41,58.7969 L41,85.7969 M28,66.7969 L54,66.7969 M41,85.7969 L28,100.7969 M41,85.7969 L54,100.7969 " fill="none" style="stroke:#181818;stroke-width:0.5;"/><text fill="#000000" font-family="sans-serif" font-size="20" lengthAdjust="spacing" textLength="66" x="5" y="939.7676">Admin</text><ellipse cx="41" cy="952.9844" fill="#E2E2F0" rx="8" ry="8" style="stroke:#181818;stroke-width:0.5;"/><path d="M41,960.9844 L41,987.9844 M28,968.9844 L54,968.9844 M41,987.9844 L28,1002.9844 M41,987.9844 L54,1002.9844 " fill="none" style="stroke:#181818;stroke-width:0.5;"/><rect fill="#E2E2F0" height="37.2813" rx="2.5" ry="2.5" style="stroke:#181818;stroke-width:0.5;" width="63" x="757.5" y="87.2969"/><text fill="#000000" font-family="sans-serif" font-size="20" lengthAdjust="spacing" textLength="49" x="764.5" y="112.8613">View</text><rect fill="#E2E2F0" height="37.2813" rx="2.5" ry="2.5" style="stroke:#181818;stroke-width:0.5;" width="63" x="757.5" y="921.2031"/><text fill="#000000" font-family="sans-serif" font-size="20" lengthAdjust="spacing" textLength="49" x="764.5" y="946.7676">View</text><rect fill="#E2E2F0" height="37.2813" rx="2.5" ry="2.5" style="stroke:#181818;stroke-width:0.5;" width="289" x="1029.5" y="87.2969"/><text fill="#000000" font-family="sans-serif" font-size="20" lengthAdjust="spacing" textLength="275" x="1036.5" y="112.8613">OperationTypesComponent</text><rect fill="#E2E2F0" height="37.2813" rx="2.5" ry="2.5" style="stroke:#181818;stroke-width:0.5;" width="289" x="1029.5" y="921.2031"/><text fill="#000000" font-family="sans-serif" font-size="20" lengthAdjust="spacing" textLength="275" x="1036.5" y="946.7676">OperationTypesComponent</text><rect fill="#E2E2F0" height="37.2813" rx="2.5" ry="2.5" style="stroke:#181818;stroke-width:0.5;" width="355" x="1461.5" y="87.2969"/><text fill="#000000" font-family="sans-serif" font-size="20" lengthAdjust="spacing" textLength="341" x="1468.5" y="112.8613">CreateOperationTypesComponent</text><rect fill="#E2E2F0" height="37.2813" rx="2.5" ry="2.5" style="stroke:#181818;stroke-width:0.5;" width="355" x="1461.5" y="921.2031"/><text fill="#000000" font-family="sans-serif" font-size="20" lengthAdjust="spacing" textLength="341" x="1468.5" y="946.7676">CreateOperationTypesComponent</text><rect fill="#E2E2F0" height="37.2813" rx="2.5" ry="2.5" style="stroke:#181818;stroke-width:0.5;" width="245" x="1983.5" y="87.2969"/><text fill="#000000" font-family="sans-serif" font-size="20" lengthAdjust="spacing" textLength="231" x="1990.5" y="112.8613">OperationTypesService</text><rect fill="#E2E2F0" height="37.2813" rx="2.5" ry="2.5" style="stroke:#181818;stroke-width:0.5;" width="245" x="1983.5" y="921.2031"/><text fill="#000000" font-family="sans-serif" font-size="20" lengthAdjust="spacing" textLength="231" x="1990.5" y="946.7676">OperationTypesService</text><rect fill="#E2E2F0" height="37.2813" rx="2.5" ry="2.5" style="stroke:#181818;stroke-width:0.5;" width="173" x="2788.5" y="87.2969"/><text fill="#000000" font-family="sans-serif" font-size="20" lengthAdjust="spacing" textLength="159" x="2795.5" y="112.8613">AuthInterceptor</text><rect fill="#E2E2F0" height="37.2813" rx="2.5" ry="2.5" style="stroke:#181818;stroke-width:0.5;" width="173" x="2788.5" y="921.2031"/><text fill="#000000" font-family="sans-serif" font-size="20" lengthAdjust="spacing" textLength="159" x="2795.5" y="946.7676">AuthInterceptor</text><rect fill="#E2E2F0" height="37.2813" rx="2.5" ry="2.5" style="stroke:#181818;stroke-width:0.5;" width="60" x="3458" y="87.2969"/><text fill="#000000" font-family="sans-serif" font-size="20" lengthAdjust="spacing" textLength="46" x="3465" y="112.8613">MDR</text><rect fill="#E2E2F0" height="37.2813" rx="2.5" ry="2.5" style="stroke:#181818;stroke-width:0.5;" width="60" x="3458" y="921.2031"/><text fill="#000000" font-family="sans-serif" font-size="20" lengthAdjust="spacing" textLength="46" x="3465" y="946.7676">MDR</text><rect fill="#FFFFFF" height="777.625" style="stroke:#181818;stroke-width:1.0;" width="10" x="36" y="135.5781"/><rect fill="#FFFFFF" height="199.4063" style="stroke:#181818;stroke-width:1.0;" width="10" x="784" y="164.8594"/><rect fill="#FFFFFF" height="502.6563" style="stroke:#181818;stroke-width:1.0;" width="10" x="784" y="401.5469"/><rect fill="#FFFFFF" height="37.2813" style="stroke:#181818;stroke-width:1.0;" width="10" x="1169" y="202.1406"/><rect fill="#FFFFFF" height="87.5625" style="stroke:#181818;stroke-width:1.0;" width="10" x="1634" y="239.4219"/><rect fill="#FFFFFF" height="428.0938" style="stroke:#181818;stroke-width:1.0;" width="10" x="1634" y="438.8281"/><rect fill="#FFFFFF" height="353.5313" style="stroke:#181818;stroke-width:1.0;" width="10" x="2101" y="476.1094"/><rect fill="#FFFFFF" height="278.9688" style="stroke:#181818;stroke-width:1.0;" width="10" x="2870" y="513.3906"/><rect fill="#FFFFFF" height="87.5625" style="stroke:#181818;stroke-width:1.0;" width="10" x="3483" y="667.5156"/><polygon fill="#000000" points="772,160.8594,782,164.8594,772,168.8594,776,164.8594" style="stroke:#000000;stroke-width:1.0;"/><line style="stroke:#000000;stroke-width:1.0;" x1="46" x2="778" y1="164.8594" y2="164.8594"/><text fill="#000000" font-family="sans-serif" font-size="20" lengthAdjust="spacing" textLength="311" x="53" y="158.1426">Asks to create a operation type</text><polygon fill="#000000" points="1157,198.1406,1167,202.1406,1157,206.1406,1161,202.1406" style="stroke:#000000;stroke-width:1.0;"/><line style="stroke:#000000;stroke-width:1.0;" x1="794" x2="1163" y1="202.1406" y2="202.1406"/><text fill="#000000" font-family="sans-serif" font-size="20" lengthAdjust="spacing" textLength="356" x="801" y="195.4238">routerLink='/create-operation-type'</text><polygon fill="#000000" points="1622,235.4219,1632,239.4219,1622,243.4219,1626,239.4219" style="stroke:#000000;stroke-width:1.0;"/><line style="stroke:#000000;stroke-width:1.0;" x1="1174" x2="1628" y1="239.4219" y2="239.4219"/><text fill="#000000" font-family="sans-serif" font-size="20" lengthAdjust="spacing" textLength="436" x="1181" y="232.7051">routes to CreateOperationTypesComponent</text><line style="stroke:#000000;stroke-width:1.0;" x1="1644" x2="1686" y1="276.7031" y2="276.7031"/><line style="stroke:#000000;stroke-width:1.0;" x1="1686" x2="1686" y1="276.7031" y2="289.7031"/><line style="stroke:#000000;stroke-width:1.0;" x1="1645" x2="1686" y1="289.7031" y2="289.7031"/><polygon fill="#000000" points="1655,285.7031,1645,289.7031,1655,293.7031,1651,289.7031" style="stroke:#000000;stroke-width:1.0;"/><text fill="#000000" font-family="sans-serif" font-size="20" lengthAdjust="spacing" textLength="443" x="1651" y="269.9863">initializes CreateOperationTypesComponent</text><polygon fill="#000000" points="805,322.9844,795,326.9844,805,330.9844,801,326.9844" style="stroke:#000000;stroke-width:1.0;"/><line style="stroke:#000000;stroke-width:1.0;stroke-dasharray:2.0,2.0;" x1="799" x2="1638" y1="326.9844" y2="326.9844"/><text fill="#000000" font-family="sans-serif" font-size="20" lengthAdjust="spacing" textLength="419" x="811" y="320.2676">returns CreateOperationTypesComponent</text><polygon fill="#000000" points="57,360.2656,47,364.2656,57,368.2656,53,364.2656" style="stroke:#000000;stroke-width:1.0;"/><line style="stroke:#000000;stroke-width:1.0;stroke-dasharray:2.0,2.0;" x1="51" x2="788" y1="364.2656" y2="364.2656"/><text fill="#000000" font-family="sans-serif" font-size="20" lengthAdjust="spacing" textLength="298" x="63" y="357.5488">Asks for operation type's data</text><polygon fill="#000000" points="772,397.5469,782,401.5469,772,405.5469,776,401.5469" style="stroke:#000000;stroke-width:1.0;"/><line style="stroke:#000000;stroke-width:1.0;" x1="46" x2="778" y1="401.5469" y2="401.5469"/><text fill="#000000" font-family="sans-serif" font-size="20" lengthAdjust="spacing" textLength="719" x="53" y="394.8301">Sends operation type's data (name, estimatedDuration, specializations)</text><polygon fill="#000000" points="1622,434.8281,1632,438.8281,1622,442.8281,1626,438.8281" style="stroke:#000000;stroke-width:1.0;"/><line style="stroke:#000000;stroke-width:1.0;" x1="794" x2="1628" y1="438.8281" y2="438.8281"/><text fill="#000000" font-family="sans-serif" font-size="20" lengthAdjust="spacing" textLength="296" x="801" y="432.1113">createOperationType($event)</text><polygon fill="#000000" points="2089,472.1094,2099,476.1094,2089,480.1094,2093,476.1094" style="stroke:#000000;stroke-width:1.0;"/><line style="stroke:#000000;stroke-width:1.0;" x1="1644" x2="2095" y1="476.1094" y2="476.1094"/><text fill="#000000" font-family="sans-serif" font-size="20" lengthAdjust="spacing" textLength="414" x="1651" y="469.3926">createOperationType(this.operationType)</text><polygon fill="#000000" points="2858,509.3906,2868,513.3906,2858,517.3906,2862,513.3906" style="stroke:#000000;stroke-width:1.0;"/><line style="stroke:#000000;stroke-width:1.0;" x1="2111" x2="2864" y1="513.3906" y2="513.3906"/><text fill="#000000" font-family="sans-serif" font-size="20" lengthAdjust="spacing" textLength="740" x="2118" y="506.6738">Sends HTTP Request to create a operation type with operation type's data</text><line style="stroke:#000000;stroke-width:1.0;" x1="2880" x2="2922" y1="550.6719" y2="550.6719"/><line style="stroke:#000000;stroke-width:1.0;" x1="2922" x2="2922" y1="550.6719" y2="563.6719"/><line style="stroke:#000000;stroke-width:1.0;" x1="2881" x2="2922" y1="563.6719" y2="563.6719"/><polygon fill="#000000" points="2891,559.6719,2881,563.6719,2891,567.6719,2887,563.6719" style="stroke:#000000;stroke-width:1.0;"/><text fill="#000000" font-family="sans-serif" font-size="20" lengthAdjust="spacing" textLength="563" x="2887" y="543.9551">Intercepts the request and adds the token to the header</text><path d="M2885,576.6719 L2885,632.6719 L3404,632.6719 L3404,586.6719 L3394,576.6719 L2885,576.6719 " fill="#FEFFDD" style="stroke:#181818;stroke-width:0.5;"/><path d="M3394,576.6719 L3394,586.6719 L3404,586.6719 L3394,576.6719 " fill="#FEFFDD" style="stroke:#181818;stroke-width:0.5;"/><text fill="#000000" font-family="sans-serif" font-size="20" lengthAdjust="spacing" textLength="498" x="2891" y="600.2363">The token is added to the header so that the MDR</text><text fill="#000000" font-family="sans-serif" font-size="20" lengthAdjust="spacing" textLength="442" x="2891" y="623.5176">can authenticate and authorize the request.</text><polygon fill="#000000" points="3471,663.5156,3481,667.5156,3471,671.5156,3475,667.5156" style="stroke:#000000;stroke-width:1.0;"/><line style="stroke:#000000;stroke-width:1.0;" x1="2880" x2="3477" y1="667.5156" y2="667.5156"/><text fill="#000000" font-family="sans-serif" font-size="20" lengthAdjust="spacing" textLength="584" x="2887" y="660.7988">Sends HTTP Request with token to create a operation type</text><line style="stroke:#000000;stroke-width:1.0;" x1="3493" x2="3535" y1="704.7969" y2="704.7969"/><line style="stroke:#000000;stroke-width:1.0;" x1="3535" x2="3535" y1="704.7969" y2="717.7969"/><line style="stroke:#000000;stroke-width:1.0;" x1="3494" x2="3535" y1="717.7969" y2="717.7969"/><polygon fill="#000000" points="3504,713.7969,3494,717.7969,3504,721.7969,3500,717.7969" style="stroke:#000000;stroke-width:1.0;"/><text fill="#000000" font-family="sans-serif" font-size="20" lengthAdjust="spacing" textLength="692" x="3500" y="698.0801">Validates operation type's data and tries to create the operation type</text><polygon fill="#000000" points="2891,751.0781,2881,755.0781,2891,759.0781,2887,755.0781" style="stroke:#000000;stroke-width:1.0;"/><line style="stroke:#000000;stroke-width:1.0;stroke-dasharray:2.0,2.0;" x1="2885" x2="3487" y1="755.0781" y2="755.0781"/><text fill="#000000" font-family="sans-serif" font-size="20" lengthAdjust="spacing" textLength="311" x="2897" y="748.3613">Returns Operation Status Code</text><polygon fill="#000000" points="2122,788.3594,2112,792.3594,2122,796.3594,2118,792.3594" style="stroke:#000000;stroke-width:1.0;"/><line style="stroke:#000000;stroke-width:1.0;stroke-dasharray:2.0,2.0;" x1="2116" x2="2874" y1="792.3594" y2="792.3594"/><text fill="#000000" font-family="sans-serif" font-size="20" lengthAdjust="spacing" textLength="311" x="2128" y="785.6426">Returns Operation Status Code</text><polygon fill="#000000" points="1655,825.6406,1645,829.6406,1655,833.6406,1651,829.6406" style="stroke:#000000;stroke-width:1.0;"/><line style="stroke:#000000;stroke-width:1.0;stroke-dasharray:2.0,2.0;" x1="1649" x2="2105" y1="829.6406" y2="829.6406"/><text fill="#000000" font-family="sans-serif" font-size="20" lengthAdjust="spacing" textLength="286" x="1661" y="822.9238">Returns Operation Response</text><polygon fill="#000000" points="805,862.9219,795,866.9219,805,870.9219,801,866.9219" style="stroke:#000000;stroke-width:1.0;"/><line style="stroke:#000000;stroke-width:1.0;stroke-dasharray:2.0,2.0;" x1="799" x2="1638" y1="866.9219" y2="866.9219"/><text fill="#000000" font-family="sans-serif" font-size="20" lengthAdjust="spacing" textLength="380" x="811" y="860.2051">Returns Operation In/Sucess message</text><polygon fill="#000000" points="57,900.2031,47,904.2031,57,908.2031,53,904.2031" style="stroke:#000000;stroke-width:1.0;"/><line style="stroke:#000000;stroke-width:1.0;stroke-dasharray:2.0,2.0;" x1="51" x2="788" y1="904.2031" y2="904.2031"/><text fill="#000000" font-family="sans-serif" font-size="20" lengthAdjust="spacing" textLength="380" x="63" y="897.4863">Returns Operation In/Sucess message</text><!--SRC=[bPLjQzim4CVVwrCSxI0jz6aTUofTmNbYWOQQEFYzQbzZBRRaIN9BD_RTTv8J9rxSj0ianEVxtSFVTx9P2bbopOjS9KjC8SK7NkLshAIDn2-4oml6hB0vmYq-OWuVO3o2eU0BGXZBH8g0HMcVeS3Y7hLXFREE2BT2edqk4PIscM9iSoV9kJ7mcm5z-ZnPBhIgP3fGkTBNruyyh_3k_WSczkO63eUVHi7uIxUhLihxZ8UZ_l2YsyUWVXG9-b3lnvUZVfSRXHYDluu- -tk1rkgfDlTpycD_jciloS8Ns5qz78xwuu_ZlaDuOiaGf8MGm0q4Z7Wh4b5oQU4W5lXquEnnstvNekPMA3advSn05QMIAArtdOPjtu56Rd4VCGZtHOzgQRnd6BKzWyfc4sbH9rXI7zudcBHzfiDPNTTmvjiLZrGEDHh0wGt4Ln2OfG6h8F5r0WUrJWzkBZP8p6A7JCCh82qfAOtEyblll0PF6-pKORqDHu9CGqSErgJFjrSNbk8st_mdgGPDB2655Jod3J2lH7DCtQr6MsbftfwTCiOU3bPIFT2yj2Ng6KYvvTjKtCWReKnDDm17aXTu0cYiA8XAXrNjT0AcnCItvg_DySvJSFqdkpqSlQC3GDhZ3iN2g9kmcJ1dQjkqHTF0XP6ZWycwbU_pUGWp_5bHsNlc1fw4pLuGQZE54nPCrk6RGQRno92UL9s2onHucjP6gvOeNLPtaI5FKJEfA98MYyo2Ud0XtShF6sTX74wdPei2uwwuzIQt6WvAE1q2j5Aae4XyKout6PHsn-nMLMUCj02NUTK0XUWKoAlGLFtgZhbAwDj4Z6a6I39yQO9SWLOBtDvWL-O_yNt8bSoprGOqKm2HvRQYbL0fjlQEQd7DhMRdpHmz0JSpgo7TnMPeQCrCYw4vs-peBZAHvr6L8BsE2lgXW_sb3VrFD6RiBm00]--></g></svg>