<?xml version="1.0" encoding="UTF-8" standalone="no"?><svg xmlns="http://www.w3.org/2000/svg" xmlns:xlink="http://www.w3.org/1999/xlink" contentStyleType="text/css" height="1009px" preserveAspectRatio="none" style="width:3877px;height:1009px;background:#FFFFFF;" version="1.1" viewBox="0 0 3877 1009" width="3877px" zoomAndPan="magnify"><defs/><g><text fill="#000000" font-family="sans-serif" font-size="14" font-weight="bold" lengthAdjust="spacing" textLength="149" x="1866" y="27.9951">Level 3 FE Diagram</text><rect fill="#FFFFFF" height="777.625" style="stroke:#181818;stroke-width:1.0;" width="10" x="36" y="135.5781"/><rect fill="#FFFFFF" height="199.4063" style="stroke:#181818;stroke-width:1.0;" width="10" x="545" y="164.8594"/><rect fill="#FFFFFF" height="502.6563" style="stroke:#181818;stroke-width:1.0;" width="10" x="545" y="401.5469"/><rect fill="#FFFFFF" height="37.2813" style="stroke:#181818;stroke-width:1.0;" width="10" x="921" y="202.1406"/><rect fill="#FFFFFF" height="87.5625" style="stroke:#181818;stroke-width:1.0;" width="10" x="1369" y="239.4219"/><rect fill="#FFFFFF" height="428.0938" style="stroke:#181818;stroke-width:1.0;" width="10" x="1369" y="438.8281"/><rect fill="#FFFFFF" height="353.5313" style="stroke:#181818;stroke-width:1.0;" width="10" x="1819" y="476.1094"/><rect fill="#FFFFFF" height="278.9688" style="stroke:#181818;stroke-width:1.0;" width="10" x="2572" y="513.3906"/><rect fill="#FFFFFF" height="87.5625" style="stroke:#181818;stroke-width:1.0;" width="10" x="3177" y="667.5156"/><line style="stroke:#181818;stroke-width:0.5;stroke-dasharray:5.0,5.0;" x1="41" x2="41" y1="125.5781" y2="922.2031"/><line style="stroke:#181818;stroke-width:0.5;stroke-dasharray:5.0,5.0;" x1="549.5" x2="549.5" y1="125.5781" y2="922.2031"/><line style="stroke:#181818;stroke-width:0.5;stroke-dasharray:5.0,5.0;" x1="926" x2="926" y1="125.5781" y2="922.2031"/><line style="stroke:#181818;stroke-width:0.5;stroke-dasharray:5.0,5.0;" x1="1374" x2="1374" y1="125.5781" y2="922.2031"/><line style="stroke:#181818;stroke-width:0.5;stroke-dasharray:5.0,5.0;" x1="1824" x2="1824" y1="125.5781" y2="922.2031"/><line style="stroke:#181818;stroke-width:0.5;stroke-dasharray:5.0,5.0;" x1="2576.5" x2="2576.5" y1="125.5781" y2="922.2031"/><line style="stroke:#181818;stroke-width:0.5;stroke-dasharray:5.0,5.0;" x1="3182" x2="3182" y1="125.5781" y2="922.2031"/><text fill="#000000" font-family="sans-serif" font-size="20" lengthAdjust="spacing" textLength="66" x="5" y="120.8613">Admin</text><ellipse cx="41" cy="50.7969" fill="#E2E2F0" rx="8" ry="8" style="stroke:#181818;stroke-width:0.5;"/><path d="M41,58.7969 L41,85.7969 M28,66.7969 L54,66.7969 M41,85.7969 L28,100.7969 M41,85.7969 L54,100.7969 " fill="none" style="stroke:#181818;stroke-width:0.5;"/><text fill="#000000" font-family="sans-serif" font-size="20" lengthAdjust="spacing" textLength="66" x="5" y="939.7676">Admin</text><ellipse cx="41" cy="952.9844" fill="#E2E2F0" rx="8" ry="8" style="stroke:#181818;stroke-width:0.5;"/><path d="M41,960.9844 L41,987.9844 M28,968.9844 L54,968.9844 M41,987.9844 L28,1002.9844 M41,987.9844 L54,1002.9844 " fill="none" style="stroke:#181818;stroke-width:0.5;"/><rect fill="#E2E2F0" height="37.2813" rx="2.5" ry="2.5" style="stroke:#181818;stroke-width:0.5;" width="63" x="518.5" y="87.2969"/><text fill="#000000" font-family="sans-serif" font-size="20" lengthAdjust="spacing" textLength="49" x="525.5" y="112.8613">View</text><rect fill="#E2E2F0" height="37.2813" rx="2.5" ry="2.5" style="stroke:#181818;stroke-width:0.5;" width="63" x="518.5" y="921.2031"/><text fill="#000000" font-family="sans-serif" font-size="20" lengthAdjust="spacing" textLength="49" x="525.5" y="946.7676">View</text><rect fill="#E2E2F0" height="37.2813" rx="2.5" ry="2.5" style="stroke:#181818;stroke-width:0.5;" width="272" x="790" y="87.2969"/><text fill="#000000" font-family="sans-serif" font-size="20" lengthAdjust="spacing" textLength="258" x="797" y="112.8613">SpecializationComponent</text><rect fill="#E2E2F0" height="37.2813" rx="2.5" ry="2.5" style="stroke:#181818;stroke-width:0.5;" width="272" x="790" y="921.2031"/><text fill="#000000" font-family="sans-serif" font-size="20" lengthAdjust="spacing" textLength="258" x="797" y="946.7676">SpecializationComponent</text><rect fill="#E2E2F0" height="37.2813" rx="2.5" ry="2.5" style="stroke:#181818;stroke-width:0.5;" width="338" x="1205" y="87.2969"/><text fill="#000000" font-family="sans-serif" font-size="20" lengthAdjust="spacing" textLength="324" x="1212" y="112.8613">CreateSpecializationComponent</text><rect fill="#E2E2F0" height="37.2813" rx="2.5" ry="2.5" style="stroke:#181818;stroke-width:0.5;" width="338" x="1205" y="921.2031"/><text fill="#000000" font-family="sans-serif" font-size="20" lengthAdjust="spacing" textLength="324" x="1212" y="946.7676">CreateSpecializationComponent</text><rect fill="#E2E2F0" height="37.2813" rx="2.5" ry="2.5" style="stroke:#181818;stroke-width:0.5;" width="228" x="1710" y="87.2969"/><text fill="#000000" font-family="sans-serif" font-size="20" lengthAdjust="spacing" textLength="214" x="1717" y="112.8613">SpecializationService</text><rect fill="#E2E2F0" height="37.2813" rx="2.5" ry="2.5" style="stroke:#181818;stroke-width:0.5;" width="228" x="1710" y="921.2031"/><text fill="#000000" font-family="sans-serif" font-size="20" lengthAdjust="spacing" textLength="214" x="1717" y="946.7676">SpecializationService</text><rect fill="#E2E2F0" height="37.2813" rx="2.5" ry="2.5" style="stroke:#181818;stroke-width:0.5;" width="173" x="2490.5" y="87.2969"/><text fill="#000000" font-family="sans-serif" font-size="20" lengthAdjust="spacing" textLength="159" x="2497.5" y="112.8613">AuthInterceptor</text><rect fill="#E2E2F0" height="37.2813" rx="2.5" ry="2.5" style="stroke:#181818;stroke-width:0.5;" width="173" x="2490.5" y="921.2031"/><text fill="#000000" font-family="sans-serif" font-size="20" lengthAdjust="spacing" textLength="159" x="2497.5" y="946.7676">AuthInterceptor</text><rect fill="#E2E2F0" height="37.2813" rx="2.5" ry="2.5" style="stroke:#181818;stroke-width:0.5;" width="60" x="3152" y="87.2969"/><text fill="#000000" font-family="sans-serif" font-size="20" lengthAdjust="spacing" textLength="46" x="3159" y="112.8613">MDR</text><rect fill="#E2E2F0" height="37.2813" rx="2.5" ry="2.5" style="stroke:#181818;stroke-width:0.5;" width="60" x="3152" y="921.2031"/><text fill="#000000" font-family="sans-serif" font-size="20" lengthAdjust="spacing" textLength="46" x="3159" y="946.7676">MDR</text><rect fill="#FFFFFF" height="777.625" style="stroke:#181818;stroke-width:1.0;" width="10" x="36" y="135.5781"/><rect fill="#FFFFFF" height="199.4063" style="stroke:#181818;stroke-width:1.0;" width="10" x="545" y="164.8594"/><rect fill="#FFFFFF" height="502.6563" style="stroke:#181818;stroke-width:1.0;" width="10" x="545" y="401.5469"/><rect fill="#FFFFFF" height="37.2813" style="stroke:#181818;stroke-width:1.0;" width="10" x="921" y="202.1406"/><rect fill="#FFFFFF" height="87.5625" style="stroke:#181818;stroke-width:1.0;" width="10" x="1369" y="239.4219"/><rect fill="#FFFFFF" height="428.0938" style="stroke:#181818;stroke-width:1.0;" width="10" x="1369" y="438.8281"/><rect fill="#FFFFFF" height="353.5313" style="stroke:#181818;stroke-width:1.0;" width="10" x="1819" y="476.1094"/><rect fill="#FFFFFF" height="278.9688" style="stroke:#181818;stroke-width:1.0;" width="10" x="2572" y="513.3906"/><rect fill="#FFFFFF" height="87.5625" style="stroke:#181818;stroke-width:1.0;" width="10" x="3177" y="667.5156"/><polygon fill="#000000" points="533,160.8594,543,164.8594,533,168.8594,537,164.8594" style="stroke:#000000;stroke-width:1.0;"/><line style="stroke:#000000;stroke-width:1.0;" x1="46" x2="539" y1="164.8594" y2="164.8594"/><text fill="#000000" font-family="sans-serif" font-size="20" lengthAdjust="spacing" textLength="303" x="53" y="158.1426">Asks to create a specialization</text><polygon fill="#000000" points="909,198.1406,919,202.1406,909,206.1406,913,202.1406" style="stroke:#000000;stroke-width:1.0;"/><line style="stroke:#000000;stroke-width:1.0;" x1="555" x2="915" y1="202.1406" y2="202.1406"/><text fill="#000000" font-family="sans-serif" font-size="20" lengthAdjust="spacing" textLength="347" x="562" y="195.4238">routerLink='/create-specialization'</text><polygon fill="#000000" points="1357,235.4219,1367,239.4219,1357,243.4219,1361,239.4219" style="stroke:#000000;stroke-width:1.0;"/><line style="stroke:#000000;stroke-width:1.0;" x1="926" x2="1363" y1="239.4219" y2="239.4219"/><text fill="#000000" font-family="sans-serif" font-size="20" lengthAdjust="spacing" textLength="419" x="933" y="232.7051">routes to CreateSpecializationComponent</text><line style="stroke:#000000;stroke-width:1.0;" x1="1379" x2="1421" y1="276.7031" y2="276.7031"/><line style="stroke:#000000;stroke-width:1.0;" x1="1421" x2="1421" y1="276.7031" y2="289.7031"/><line style="stroke:#000000;stroke-width:1.0;" x1="1380" x2="1421" y1="289.7031" y2="289.7031"/><polygon fill="#000000" points="1390,285.7031,1380,289.7031,1390,293.7031,1386,289.7031" style="stroke:#000000;stroke-width:1.0;"/><text fill="#000000" font-family="sans-serif" font-size="20" lengthAdjust="spacing" textLength="426" x="1386" y="269.9863">initializes CreateSpecializationComponent</text><polygon fill="#000000" points="566,322.9844,556,326.9844,566,330.9844,562,326.9844" style="stroke:#000000;stroke-width:1.0;"/><line style="stroke:#000000;stroke-width:1.0;stroke-dasharray:2.0,2.0;" x1="560" x2="1373" y1="326.9844" y2="326.9844"/><text fill="#000000" font-family="sans-serif" font-size="20" lengthAdjust="spacing" textLength="402" x="572" y="320.2676">returns CreateSpecializationComponent</text><polygon fill="#000000" points="57,360.2656,47,364.2656,57,368.2656,53,364.2656" style="stroke:#000000;stroke-width:1.0;"/><line style="stroke:#000000;stroke-width:1.0;stroke-dasharray:2.0,2.0;" x1="51" x2="549" y1="364.2656" y2="364.2656"/><text fill="#000000" font-family="sans-serif" font-size="20" lengthAdjust="spacing" textLength="290" x="63" y="357.5488">Asks for specialization's data</text><polygon fill="#000000" points="533,397.5469,543,401.5469,533,405.5469,537,401.5469" style="stroke:#000000;stroke-width:1.0;"/><line style="stroke:#000000;stroke-width:1.0;" x1="46" x2="539" y1="401.5469" y2="401.5469"/><text fill="#000000" font-family="sans-serif" font-size="20" lengthAdjust="spacing" textLength="480" x="53" y="394.8301">Sends specialization's data (specializationType)</text><polygon fill="#000000" points="1357,434.8281,1367,438.8281,1357,442.8281,1361,438.8281" style="stroke:#000000;stroke-width:1.0;"/><line style="stroke:#000000;stroke-width:1.0;" x1="555" x2="1363" y1="438.8281" y2="438.8281"/><text fill="#000000" font-family="sans-serif" font-size="20" lengthAdjust="spacing" textLength="289" x="562" y="432.1113">createSpecialization($event)</text><polygon fill="#000000" points="1807,472.1094,1817,476.1094,1807,480.1094,1811,476.1094" style="stroke:#000000;stroke-width:1.0;"/><line style="stroke:#000000;stroke-width:1.0;" x1="1379" x2="1813" y1="476.1094" y2="476.1094"/><text fill="#000000" font-family="sans-serif" font-size="20" lengthAdjust="spacing" textLength="401" x="1386" y="469.3926">createSpecialization(this.specialization)</text><polygon fill="#000000" points="2560,509.3906,2570,513.3906,2560,517.3906,2564,513.3906" style="stroke:#000000;stroke-width:1.0;"/><line style="stroke:#000000;stroke-width:1.0;" x1="1829" x2="2566" y1="513.3906" y2="513.3906"/><text fill="#000000" font-family="sans-serif" font-size="20" lengthAdjust="spacing" textLength="724" x="1836" y="506.6738">Sends HTTP Request to create a specialization with specialization's data</text><line style="stroke:#000000;stroke-width:1.0;" x1="2582" x2="2624" y1="550.6719" y2="550.6719"/><line style="stroke:#000000;stroke-width:1.0;" x1="2624" x2="2624" y1="550.6719" y2="563.6719"/><line style="stroke:#000000;stroke-width:1.0;" x1="2583" x2="2624" y1="563.6719" y2="563.6719"/><polygon fill="#000000" points="2593,559.6719,2583,563.6719,2593,567.6719,2589,563.6719" style="stroke:#000000;stroke-width:1.0;"/><text fill="#000000" font-family="sans-serif" font-size="20" lengthAdjust="spacing" textLength="563" x="2589" y="543.9551">Intercepts the request and adds the token to the header</text><path d="M2587,576.6719 L2587,632.6719 L3106,632.6719 L3106,586.6719 L3096,576.6719 L2587,576.6719 " fill="#FEFFDD" style="stroke:#181818;stroke-width:0.5;"/><path d="M3096,576.6719 L3096,586.6719 L3106,586.6719 L3096,576.6719 " fill="#FEFFDD" style="stroke:#181818;stroke-width:0.5;"/><text fill="#000000" font-family="sans-serif" font-size="20" lengthAdjust="spacing" textLength="498" x="2593" y="600.2363">The token is added to the header so that the MDR</text><text fill="#000000" font-family="sans-serif" font-size="20" lengthAdjust="spacing" textLength="442" x="2593" y="623.5176">can authenticate and authorize the request.</text><polygon fill="#000000" points="3165,663.5156,3175,667.5156,3165,671.5156,3169,667.5156" style="stroke:#000000;stroke-width:1.0;"/><line style="stroke:#000000;stroke-width:1.0;" x1="2582" x2="3171" y1="667.5156" y2="667.5156"/><text fill="#000000" font-family="sans-serif" font-size="20" lengthAdjust="spacing" textLength="576" x="2589" y="660.7988">Sends HTTP Request with token to create a specialization</text><line style="stroke:#000000;stroke-width:1.0;" x1="3187" x2="3229" y1="704.7969" y2="704.7969"/><line style="stroke:#000000;stroke-width:1.0;" x1="3229" x2="3229" y1="704.7969" y2="717.7969"/><line style="stroke:#000000;stroke-width:1.0;" x1="3188" x2="3229" y1="717.7969" y2="717.7969"/><polygon fill="#000000" points="3198,713.7969,3188,717.7969,3198,721.7969,3194,717.7969" style="stroke:#000000;stroke-width:1.0;"/><text fill="#000000" font-family="sans-serif" font-size="20" lengthAdjust="spacing" textLength="676" x="3194" y="698.0801">Validates specialization's data and tries to create the specialization</text><polygon fill="#000000" points="2593,751.0781,2583,755.0781,2593,759.0781,2589,755.0781" style="stroke:#000000;stroke-width:1.0;"/><line style="stroke:#000000;stroke-width:1.0;stroke-dasharray:2.0,2.0;" x1="2587" x2="3181" y1="755.0781" y2="755.0781"/><text fill="#000000" font-family="sans-serif" font-size="20" lengthAdjust="spacing" textLength="311" x="2599" y="748.3613">Returns Operation Status Code</text><polygon fill="#000000" points="1840,788.3594,1830,792.3594,1840,796.3594,1836,792.3594" style="stroke:#000000;stroke-width:1.0;"/><line style="stroke:#000000;stroke-width:1.0;stroke-dasharray:2.0,2.0;" x1="1834" x2="2576" y1="792.3594" y2="792.3594"/><text fill="#000000" font-family="sans-serif" font-size="20" lengthAdjust="spacing" textLength="311" x="1846" y="785.6426">Returns Operation Status Code</text><polygon fill="#000000" points="1390,825.6406,1380,829.6406,1390,833.6406,1386,829.6406" style="stroke:#000000;stroke-width:1.0;"/><line style="stroke:#000000;stroke-width:1.0;stroke-dasharray:2.0,2.0;" x1="1384" x2="1823" y1="829.6406" y2="829.6406"/><text fill="#000000" font-family="sans-serif" font-size="20" lengthAdjust="spacing" textLength="286" x="1396" y="822.9238">Returns Operation Response</text><polygon fill="#000000" points="566,862.9219,556,866.9219,566,870.9219,562,866.9219" style="stroke:#000000;stroke-width:1.0;"/><line style="stroke:#000000;stroke-width:1.0;stroke-dasharray:2.0,2.0;" x1="560" x2="1373" y1="866.9219" y2="866.9219"/><text fill="#000000" font-family="sans-serif" font-size="20" lengthAdjust="spacing" textLength="380" x="572" y="860.2051">Returns Operation In/Sucess message</text><polygon fill="#000000" points="57,900.2031,47,904.2031,57,908.2031,53,904.2031" style="stroke:#000000;stroke-width:1.0;"/><line style="stroke:#000000;stroke-width:1.0;stroke-dasharray:2.0,2.0;" x1="51" x2="549" y1="904.2031" y2="904.2031"/><text fill="#000000" font-family="sans-serif" font-size="20" lengthAdjust="spacing" textLength="380" x="63" y="897.4863">Returns Operation In/Sucess message</text><!--SRC=[bLNRJjj047tVhnYLIi03brBrXYYISx4QYGWhZlo-s4EyZRFhxev1KFNVEsldPd1I6YbHF9vpPkRupDhDbIwbbOl2f7FC8CDxMHKK6asnUaQuE1U251K8D_Y01No4S0W39MSC4I9N6G8kIdg21Ixkq3fnw5QCSACqqbE9O2pbHeZDdRIGpi5l0VpfoNG-iwRIMTyKnbvTFSYYmjkxdvZIzJKS33uFW_1hTwerfiu91yFUuBmxnw5zK2dML1_2Ys6lAuqfXk6tuPVwNc2jUMp2lOBpn9_jtakEo1bsTmy7mrxuAUnvY4o90q6sK1gaWq0mdbIgIga9tYKA7z_vUDAEnoMcIXRgMP8okcyMfT6egKuTH-tSlaL9k0_HZ_QnnuqqTMOKjpE3YlAH9hGfbZn7dHECsZdZmQJfQp2fnrKFt0uF6i39DIIN4BYv0pAGrds21DSglu4a8l6GSNG9h2KNPUlCln-UDS2JDknmWsD1nf57zbV8kjvUNKI6s_ZrVvQgl-PIMb6DPSBzR1xJJ6kHAglTswjpnQG61qkfxjalBsPra4cIswXaBM-CEdFT03XgXwUyXiUlzFQJfXtT7htdNTTqt25E5E-0KAxSQRle5fxT5SKU7unMVV-OJYEOuAyA7Uqn2JmgodUeih7SI0IZ5VtQjUo57FcnD2Mapa1cMHCaCqVjg_gB76M6LcZ3J5RDSW9pxodzVa_NoSfvE1-HBHGuVoMf3lazyA1KyiRp_h26Ags7yhKvOAm_KxUwEXMi1VZAom6OebEWMeLrr_zSADy9VzUC2UUmPBZBBhv1iWgtrzMt-OA_fbpAF5dQ_RP4spofc2HLx7-JOMl9k1S_tD8zRyRn4_2UMVhqDMo2ZdVAjJ3iiyr2leQCz5bSfSZldWN_y2c-Qnt_4ve8yHS0]--></g></svg>