<?xml version="1.0" encoding="UTF-8" standalone="no"?><svg xmlns="http://www.w3.org/2000/svg" xmlns:xlink="http://www.w3.org/1999/xlink" contentStyleType="text/css" height="1169px" preserveAspectRatio="none" style="width:3188px;height:1169px;background:#FFFFFF;" version="1.1" viewBox="0 0 3188 1169" width="3188px" zoomAndPan="magnify"><defs/><g><text fill="#000000" font-family="sans-serif" font-size="14" font-weight="bold" lengthAdjust="spacing" textLength="126" x="1533" y="27.9951">Level 3 Diagram</text><rect fill="#FFFFFF" height="502.6563" style="stroke:#181818;stroke-width:1.0;" width="10" x="462.5" y="164.8594"/><rect fill="#FFFFFF" height="311.25" style="stroke:#181818;stroke-width:1.0;" width="10" x="462.5" y="745.3594"/><rect fill="#FFFFFF" height="428.0938" style="stroke:#181818;stroke-width:1.0;" width="10" x="876.5" y="202.1406"/><rect fill="#FFFFFF" height="236.6875" style="stroke:#181818;stroke-width:1.0;" width="10" x="1149.5" y="782.6406"/><rect fill="#FFFFFF" height="353.5313" style="stroke:#181818;stroke-width:1.0;" width="10" x="1365" y="239.4219"/><rect fill="#FFFFFF" height="162.125" style="stroke:#181818;stroke-width:1.0;" width="10" x="1558.5" y="819.9219"/><rect fill="#FFFFFF" height="278.9688" style="stroke:#181818;stroke-width:1.0;" width="10" x="2025" y="276.7031"/><rect fill="#FFFFFF" height="87.5625" style="stroke:#181818;stroke-width:1.0;" width="10" x="2685" y="430.8281"/><rect fill="#FFFFFF" height="87.5625" style="stroke:#181818;stroke-width:1.0;" width="10" x="2685" y="857.2031"/><rect fill="#EBF5FB" height="382.0938" style="stroke:#000000;stroke-width:1.5;" width="3137" x="10" y="682.5156"/><line style="stroke:#181818;stroke-width:0.5;stroke-dasharray:5.0,5.0;" x1="58" x2="58" y1="125.5781" y2="1081.6094"/><line style="stroke:#181818;stroke-width:0.5;stroke-dasharray:5.0,5.0;" x1="467" x2="467" y1="125.5781" y2="1081.6094"/><line style="stroke:#181818;stroke-width:0.5;stroke-dasharray:5.0,5.0;" x1="881" x2="881" y1="125.5781" y2="1081.6094"/><line style="stroke:#181818;stroke-width:0.5;stroke-dasharray:5.0,5.0;" x1="1154" x2="1154" y1="125.5781" y2="1081.6094"/><line style="stroke:#181818;stroke-width:0.5;stroke-dasharray:5.0,5.0;" x1="1370" x2="1370" y1="125.5781" y2="1081.6094"/><line style="stroke:#181818;stroke-width:0.5;stroke-dasharray:5.0,5.0;" x1="1563" x2="1563" y1="125.5781" y2="1081.6094"/><line style="stroke:#181818;stroke-width:0.5;stroke-dasharray:5.0,5.0;" x1="2029.5" x2="2029.5" y1="125.5781" y2="1081.6094"/><line style="stroke:#181818;stroke-width:0.5;stroke-dasharray:5.0,5.0;" x1="2690" x2="2690" y1="125.5781" y2="1081.6094"/><text fill="#000000" font-family="sans-serif" font-size="20" lengthAdjust="spacing" textLength="71" x="20" y="120.8613">Patient</text><ellipse cx="58.5" cy="50.7969" fill="#E2E2F0" rx="8" ry="8" style="stroke:#181818;stroke-width:0.5;"/><path d="M58.5,58.7969 L58.5,85.7969 M45.5,66.7969 L71.5,66.7969 M58.5,85.7969 L45.5,100.7969 M58.5,85.7969 L71.5,100.7969 " fill="none" style="stroke:#181818;stroke-width:0.5;"/><text fill="#000000" font-family="sans-serif" font-size="20" lengthAdjust="spacing" textLength="71" x="20" y="1099.1738">Patient</text><ellipse cx="58.5" cy="1112.3906" fill="#E2E2F0" rx="8" ry="8" style="stroke:#181818;stroke-width:0.5;"/><path d="M58.5,1120.3906 L58.5,1147.3906 M45.5,1128.3906 L71.5,1128.3906 M58.5,1147.3906 L45.5,1162.3906 M58.5,1147.3906 L71.5,1162.3906 " fill="none" style="stroke:#181818;stroke-width:0.5;"/><rect fill="#E2E2F0" height="37.2813" rx="2.5" ry="2.5" style="stroke:#181818;stroke-width:0.5;" width="63" x="436" y="87.2969"/><text fill="#000000" font-family="sans-serif" font-size="20" lengthAdjust="spacing" textLength="49" x="443" y="112.8613">View</text><rect fill="#E2E2F0" height="37.2813" rx="2.5" ry="2.5" style="stroke:#181818;stroke-width:0.5;" width="63" x="436" y="1080.6094"/><text fill="#000000" font-family="sans-serif" font-size="20" lengthAdjust="spacing" textLength="49" x="443" y="1106.1738">View</text><rect fill="#E2E2F0" height="37.2813" rx="2.5" ry="2.5" style="stroke:#181818;stroke-width:0.5;" width="285" x="739" y="87.2969"/><text fill="#000000" font-family="sans-serif" font-size="20" lengthAdjust="spacing" textLength="271" x="746" y="112.8613">PatientSettingsComponent</text><rect fill="#E2E2F0" height="37.2813" rx="2.5" ry="2.5" style="stroke:#181818;stroke-width:0.5;" width="285" x="739" y="1080.6094"/><text fill="#000000" font-family="sans-serif" font-size="20" lengthAdjust="spacing" textLength="271" x="746" y="1106.1738">PatientSettingsComponent</text><rect fill="#E2E2F0" height="37.2813" rx="2.5" ry="2.5" style="stroke:#181818;stroke-width:0.5;" width="241" x="1034" y="87.2969"/><text fill="#000000" font-family="sans-serif" font-size="20" lengthAdjust="spacing" textLength="227" x="1041" y="112.8613">DeleteUserComponent</text><rect fill="#E2E2F0" height="37.2813" rx="2.5" ry="2.5" style="stroke:#181818;stroke-width:0.5;" width="241" x="1034" y="1080.6094"/><text fill="#000000" font-family="sans-serif" font-size="20" lengthAdjust="spacing" textLength="227" x="1041" y="1106.1738">DeleteUserComponent</text><rect fill="#E2E2F0" height="37.2813" rx="2.5" ry="2.5" style="stroke:#181818;stroke-width:0.5;" width="170" x="1285" y="87.2969"/><text fill="#000000" font-family="sans-serif" font-size="20" lengthAdjust="spacing" textLength="156" x="1292" y="112.8613">SettingsService</text><rect fill="#E2E2F0" height="37.2813" rx="2.5" ry="2.5" style="stroke:#181818;stroke-width:0.5;" width="170" x="1285" y="1080.6094"/><text fill="#000000" font-family="sans-serif" font-size="20" lengthAdjust="spacing" textLength="156" x="1292" y="1106.1738">SettingsService</text><rect fill="#E2E2F0" height="37.2813" rx="2.5" ry="2.5" style="stroke:#181818;stroke-width:0.5;" width="197" x="1465" y="87.2969"/><text fill="#000000" font-family="sans-serif" font-size="20" lengthAdjust="spacing" textLength="183" x="1472" y="112.8613">DeleteUserService</text><rect fill="#E2E2F0" height="37.2813" rx="2.5" ry="2.5" style="stroke:#181818;stroke-width:0.5;" width="197" x="1465" y="1080.6094"/><text fill="#000000" font-family="sans-serif" font-size="20" lengthAdjust="spacing" textLength="183" x="1472" y="1106.1738">DeleteUserService</text><rect fill="#E2E2F0" height="37.2813" rx="2.5" ry="2.5" style="stroke:#181818;stroke-width:0.5;" width="173" x="1943.5" y="87.2969"/><text fill="#000000" font-family="sans-serif" font-size="20" lengthAdjust="spacing" textLength="159" x="1950.5" y="112.8613">AuthInterceptor</text><rect fill="#E2E2F0" height="37.2813" rx="2.5" ry="2.5" style="stroke:#181818;stroke-width:0.5;" width="173" x="1943.5" y="1080.6094"/><text fill="#000000" font-family="sans-serif" font-size="20" lengthAdjust="spacing" textLength="159" x="1950.5" y="1106.1738">AuthInterceptor</text><rect fill="#E2E2F0" height="37.2813" rx="2.5" ry="2.5" style="stroke:#181818;stroke-width:0.5;" width="60" x="2660" y="87.2969"/><text fill="#000000" font-family="sans-serif" font-size="20" lengthAdjust="spacing" textLength="46" x="2667" y="112.8613">MDR</text><rect fill="#E2E2F0" height="37.2813" rx="2.5" ry="2.5" style="stroke:#181818;stroke-width:0.5;" width="60" x="2660" y="1080.6094"/><text fill="#000000" font-family="sans-serif" font-size="20" lengthAdjust="spacing" textLength="46" x="2667" y="1106.1738">MDR</text><rect fill="#FFFFFF" height="502.6563" style="stroke:#181818;stroke-width:1.0;" width="10" x="462.5" y="164.8594"/><rect fill="#FFFFFF" height="311.25" style="stroke:#181818;stroke-width:1.0;" width="10" x="462.5" y="745.3594"/><rect fill="#FFFFFF" height="428.0938" style="stroke:#181818;stroke-width:1.0;" width="10" x="876.5" y="202.1406"/><rect fill="#FFFFFF" height="236.6875" style="stroke:#181818;stroke-width:1.0;" width="10" x="1149.5" y="782.6406"/><rect fill="#FFFFFF" height="353.5313" style="stroke:#181818;stroke-width:1.0;" width="10" x="1365" y="239.4219"/><rect fill="#FFFFFF" height="162.125" style="stroke:#181818;stroke-width:1.0;" width="10" x="1558.5" y="819.9219"/><rect fill="#FFFFFF" height="278.9688" style="stroke:#181818;stroke-width:1.0;" width="10" x="2025" y="276.7031"/><rect fill="#FFFFFF" height="87.5625" style="stroke:#181818;stroke-width:1.0;" width="10" x="2685" y="430.8281"/><rect fill="#FFFFFF" height="87.5625" style="stroke:#181818;stroke-width:1.0;" width="10" x="2685" y="857.2031"/><polygon fill="#000000" points="450.5,160.8594,460.5,164.8594,450.5,168.8594,454.5,164.8594" style="stroke:#000000;stroke-width:1.0;"/><line style="stroke:#000000;stroke-width:1.0;" x1="58.5" x2="456.5" y1="164.8594" y2="164.8594"/><text fill="#000000" font-family="sans-serif" font-size="20" lengthAdjust="spacing" textLength="377" x="65.5" y="158.1426">Makes a request to delete user profile</text><polygon fill="#000000" points="864.5,198.1406,874.5,202.1406,864.5,206.1406,868.5,202.1406" style="stroke:#000000;stroke-width:1.0;"/><line style="stroke:#000000;stroke-width:1.0;" x1="472.5" x2="870.5" y1="202.1406" y2="202.1406"/><text fill="#000000" font-family="sans-serif" font-size="20" lengthAdjust="spacing" textLength="114" x="479.5" y="195.4238">onSubmit()</text><polygon fill="#000000" points="1353,235.4219,1363,239.4219,1353,243.4219,1357,239.4219" style="stroke:#000000;stroke-width:1.0;"/><line style="stroke:#000000;stroke-width:1.0;" x1="886.5" x2="1359" y1="239.4219" y2="239.4219"/><text fill="#000000" font-family="sans-serif" font-size="20" lengthAdjust="spacing" textLength="218" x="893.5" y="232.7051">deleteAccount(token)</text><polygon fill="#000000" points="2013,272.7031,2023,276.7031,2013,280.7031,2017,276.7031" style="stroke:#000000;stroke-width:1.0;"/><line style="stroke:#000000;stroke-width:1.0;" x1="1375" x2="2019" y1="276.7031" y2="276.7031"/><text fill="#000000" font-family="sans-serif" font-size="20" lengthAdjust="spacing" textLength="631" x="1382" y="269.9863">Sends HTTP Request with token to request delete user account</text><line style="stroke:#000000;stroke-width:1.0;" x1="2035" x2="2077" y1="313.9844" y2="313.9844"/><line style="stroke:#000000;stroke-width:1.0;" x1="2077" x2="2077" y1="313.9844" y2="326.9844"/><line style="stroke:#000000;stroke-width:1.0;" x1="2036" x2="2077" y1="326.9844" y2="326.9844"/><polygon fill="#000000" points="2046,322.9844,2036,326.9844,2046,330.9844,2042,326.9844" style="stroke:#000000;stroke-width:1.0;"/><text fill="#000000" font-family="sans-serif" font-size="20" lengthAdjust="spacing" textLength="563" x="2042" y="307.2676">Intercepts the request and adds the token to the header</text><path d="M2040,339.9844 L2040,395.9844 L2559,395.9844 L2559,349.9844 L2549,339.9844 L2040,339.9844 " fill="#FEFFDD" style="stroke:#181818;stroke-width:0.5;"/><path d="M2549,339.9844 L2549,349.9844 L2559,349.9844 L2549,339.9844 " fill="#FEFFDD" style="stroke:#181818;stroke-width:0.5;"/><text fill="#000000" font-family="sans-serif" font-size="20" lengthAdjust="spacing" textLength="498" x="2046" y="363.5488">The token is added to the header so that the MDR</text><text fill="#000000" font-family="sans-serif" font-size="20" lengthAdjust="spacing" textLength="442" x="2046" y="386.8301">can authenticate and authorize the request.</text><polygon fill="#000000" points="2673,426.8281,2683,430.8281,2673,434.8281,2677,430.8281" style="stroke:#000000;stroke-width:1.0;"/><line style="stroke:#000000;stroke-width:1.0;" x1="2035" x2="2679" y1="430.8281" y2="430.8281"/><text fill="#000000" font-family="sans-serif" font-size="20" lengthAdjust="spacing" textLength="631" x="2042" y="424.1113">Sends HTTP Request with token to request delete user account</text><line style="stroke:#000000;stroke-width:1.0;" x1="2695" x2="2737" y1="468.1094" y2="468.1094"/><line style="stroke:#000000;stroke-width:1.0;" x1="2737" x2="2737" y1="468.1094" y2="481.1094"/><line style="stroke:#000000;stroke-width:1.0;" x1="2696" x2="2737" y1="481.1094" y2="481.1094"/><polygon fill="#000000" points="2706,477.1094,2696,481.1094,2706,485.1094,2702,481.1094" style="stroke:#000000;stroke-width:1.0;"/><text fill="#000000" font-family="sans-serif" font-size="20" lengthAdjust="spacing" textLength="479" x="2702" y="461.3926">Validates token and tries to process the request</text><polygon fill="#000000" points="2046,514.3906,2036,518.3906,2046,522.3906,2042,518.3906" style="stroke:#000000;stroke-width:1.0;"/><line style="stroke:#000000;stroke-width:1.0;stroke-dasharray:2.0,2.0;" x1="2040" x2="2689" y1="518.3906" y2="518.3906"/><text fill="#000000" font-family="sans-serif" font-size="20" lengthAdjust="spacing" textLength="311" x="2052" y="511.6738">Returns Operation Status Code</text><polygon fill="#000000" points="1386,551.6719,1376,555.6719,1386,559.6719,1382,555.6719" style="stroke:#000000;stroke-width:1.0;"/><line style="stroke:#000000;stroke-width:1.0;stroke-dasharray:2.0,2.0;" x1="1380" x2="2029" y1="555.6719" y2="555.6719"/><text fill="#000000" font-family="sans-serif" font-size="20" lengthAdjust="spacing" textLength="311" x="1392" y="548.9551">Returns Operation Status Code</text><polygon fill="#000000" points="897.5,588.9531,887.5,592.9531,897.5,596.9531,893.5,592.9531" style="stroke:#000000;stroke-width:1.0;"/><line style="stroke:#000000;stroke-width:1.0;stroke-dasharray:2.0,2.0;" x1="891.5" x2="1369" y1="592.9531" y2="592.9531"/><text fill="#000000" font-family="sans-serif" font-size="20" lengthAdjust="spacing" textLength="286" x="903.5" y="586.2363">Returns Operation Response</text><polygon fill="#000000" points="483.5,626.2344,473.5,630.2344,483.5,634.2344,479.5,630.2344" style="stroke:#000000;stroke-width:1.0;"/><line style="stroke:#000000;stroke-width:1.0;stroke-dasharray:2.0,2.0;" x1="477.5" x2="880.5" y1="630.2344" y2="630.2344"/><text fill="#000000" font-family="sans-serif" font-size="20" lengthAdjust="spacing" textLength="380" x="489.5" y="623.5176">Returns Operation In/Sucess message</text><polygon fill="#000000" points="69.5,663.5156,59.5,667.5156,69.5,671.5156,65.5,667.5156" style="stroke:#000000;stroke-width:1.0;"/><line style="stroke:#000000;stroke-width:1.0;stroke-dasharray:2.0,2.0;" x1="63.5" x2="466.5" y1="667.5156" y2="667.5156"/><text fill="#000000" font-family="sans-serif" font-size="20" lengthAdjust="spacing" textLength="380" x="75.5" y="660.7988">Returns Operation In/Sucess message</text><path d="M10,682.5156 L86,682.5156 L86,697.7969 L76,707.7969 L10,707.7969 L10,682.5156 " fill="#EEEEEE" style="stroke:#000000;stroke-width:1.5;"/><rect fill="none" height="382.0938" style="stroke:#000000;stroke-width:1.5;" width="3137" x="10" y="682.5156"/><text fill="#000000" font-family="sans-serif" font-size="20" font-weight="bold" lengthAdjust="spacing" textLength="31" x="25" y="702.0801">alt</text><text fill="#000000" font-family="sans-serif" font-size="20" font-weight="bold" lengthAdjust="spacing" textLength="400" x="101" y="703.0801">[request response was successfull]</text><polygon fill="#000000" points="450.5,741.3594,460.5,745.3594,450.5,749.3594,454.5,745.3594" style="stroke:#000000;stroke-width:1.0;"/><line style="stroke:#000000;stroke-width:1.0;" x1="58.5" x2="456.5" y1="745.3594" y2="745.3594"/><text fill="#000000" font-family="sans-serif" font-size="20" lengthAdjust="spacing" textLength="305" x="65.5" y="738.6426">Confirms the account Deletion</text><polygon fill="#000000" points="1137.5,778.6406,1147.5,782.6406,1137.5,786.6406,1141.5,782.6406" style="stroke:#000000;stroke-width:1.0;"/><line style="stroke:#000000;stroke-width:1.0;" x1="472.5" x2="1143.5" y1="782.6406" y2="782.6406"/><text fill="#000000" font-family="sans-serif" font-size="20" lengthAdjust="spacing" textLength="106" x="479.5" y="775.9238">onDelete()</text><polygon fill="#000000" points="1546.5,815.9219,1556.5,819.9219,1546.5,823.9219,1550.5,819.9219" style="stroke:#000000;stroke-width:1.0;"/><line style="stroke:#000000;stroke-width:1.0;" x1="1159.5" x2="1552.5" y1="819.9219" y2="819.9219"/><text fill="#000000" font-family="sans-serif" font-size="20" lengthAdjust="spacing" textLength="218" x="1166.5" y="813.2051">deleteAccount(token)</text><polygon fill="#000000" points="2673,853.2031,2683,857.2031,2673,861.2031,2677,857.2031" style="stroke:#000000;stroke-width:1.0;"/><line style="stroke:#000000;stroke-width:1.0;" x1="1568.5" x2="2679" y1="857.2031" y2="857.2031"/><text fill="#000000" font-family="sans-serif" font-size="20" lengthAdjust="spacing" textLength="463" x="1575.5" y="850.4863">Sends HTTP Request with token to delete user</text><line style="stroke:#000000;stroke-width:1.0;" x1="2695" x2="2737" y1="894.4844" y2="894.4844"/><line style="stroke:#000000;stroke-width:1.0;" x1="2737" x2="2737" y1="894.4844" y2="907.4844"/><line style="stroke:#000000;stroke-width:1.0;" x1="2696" x2="2737" y1="907.4844" y2="907.4844"/><polygon fill="#000000" points="2706,903.4844,2696,907.4844,2706,911.4844,2702,907.4844" style="stroke:#000000;stroke-width:1.0;"/><text fill="#000000" font-family="sans-serif" font-size="20" lengthAdjust="spacing" textLength="433" x="2702" y="887.7676">Validates token and tries to delete the user</text><polygon fill="#000000" points="1579.5,940.7656,1569.5,944.7656,1579.5,948.7656,1575.5,944.7656" style="stroke:#000000;stroke-width:1.0;"/><line style="stroke:#000000;stroke-width:1.0;stroke-dasharray:2.0,2.0;" x1="1573.5" x2="2689" y1="944.7656" y2="944.7656"/><text fill="#000000" font-family="sans-serif" font-size="20" lengthAdjust="spacing" textLength="311" x="1585.5" y="938.0488">Returns Operation Status Code</text><polygon fill="#000000" points="1170.5,978.0469,1160.5,982.0469,1170.5,986.0469,1166.5,982.0469" style="stroke:#000000;stroke-width:1.0;"/><line style="stroke:#000000;stroke-width:1.0;stroke-dasharray:2.0,2.0;" x1="1164.5" x2="1562.5" y1="982.0469" y2="982.0469"/><text fill="#000000" font-family="sans-serif" font-size="20" lengthAdjust="spacing" textLength="286" x="1176.5" y="975.3301">Returns Operation Response</text><polygon fill="#000000" points="483.5,1015.3281,473.5,1019.3281,483.5,1023.3281,479.5,1019.3281" style="stroke:#000000;stroke-width:1.0;"/><line style="stroke:#000000;stroke-width:1.0;stroke-dasharray:2.0,2.0;" x1="477.5" x2="1153.5" y1="1019.3281" y2="1019.3281"/><text fill="#000000" font-family="sans-serif" font-size="20" lengthAdjust="spacing" textLength="380" x="489.5" y="1012.6113">Returns Operation In/Sucess message</text><polygon fill="#000000" points="69.5,1052.6094,59.5,1056.6094,69.5,1060.6094,65.5,1056.6094" style="stroke:#000000;stroke-width:1.0;"/><line style="stroke:#000000;stroke-width:1.0;stroke-dasharray:2.0,2.0;" x1="63.5" x2="466.5" y1="1056.6094" y2="1056.6094"/><text fill="#000000" font-family="sans-serif" font-size="20" lengthAdjust="spacing" textLength="380" x="75.5" y="1049.8926">Returns Operation In/Sucess message</text><!--SRC=[hLHTRzem57tthxXg7zOzREiwxGjLbO20XjIg2BTvTvCBU2HsPZkWRjf_txNp0Q6qejAGGkIRSuxllJxNTYLL8Op8CvsiC8KKvwBCt5Whn-LlX8jpnfnq6S8rhZ63Jn19iI0yOqkP8c1Uk4V8CNz0OzaRsyZ1jLJe7Wi4RTnICxRzacJ2MlZ3W7u3aQmMHfSg7UfCcylBjSXAl7tuYOcxkeBJwCkeF_vs66gq3fXnD1f4vuSn5irQ9XYaFeulHeD3C98OZR-FlePlVMFqfWeFCiAnlxkv5nGH2poSFPoE1kFFuu6dYCHHO2gSHEL0M9WoKd0oaOMWm4aiSNFYut4tNZCuEYVLmWvrNcX5WO2Tyc4N7M663k-foYumkjy3DdgywaS0SVwSs2ugkj-3zKktd2Y79i62QWoW_gIBkObc8KvlnjWKtbr1t8CRiK8B0Wp-Aj4wS9hivlU4aZQ5mkYvpD2tJgu5HMCMUoPLtGEjUFcGItVsTllTjuCUZ-6yLslrauGEn9qvlKAr0wPgEVVG_gG775LguSVTtHHcTJ8RwPOGI3wl9iNT_4Ibl9MaglkJHh9jYGMtn5P0g1H4cbR1LjulbYXID4nfKZ9oiNIWvrxI6-kk1KlhwJIO7HPOln8kX7oJFIaH2WGT3fb09Zw_i3S5jF6Jl9FLUqRrWz-vBe0a_bTJV3RqjAgno6HA7sojuvDoHeQrF_84RQTZ5RbkwWnTQPI5sm8D3OPMm9rmfOMXJf6bsDdLbr9RuMWUzTkxed7PKzuCBSsLxP38Ii5sbQkVSYRg0oz3NJdzqNMnI_QcZQiTNysDcSXSUmocJWqsD6csJ3nhNcPPC4CpSqEjvjBaLOlhmu8mwRHRG6xL8Qp3pD45ucUkkX9evZf0Vxlu0Bqhx7F3jyVYDOiVRxaTgtNL6jCVRRLQoRUXLMki5YfusJCUlkUtjfYcNo-uPu- -xSMhRFH4PTYSsF5ssjE8_LNm3m00]--></g></svg>