<?xml version="1.0" encoding="UTF-8" standalone="no"?><svg xmlns="http://www.w3.org/2000/svg" xmlns:xlink="http://www.w3.org/1999/xlink" contentStyleType="text/css" height="1512px" preserveAspectRatio="none" style="width:2657px;height:1512px;background:#FFFFFF;" version="1.1" viewBox="0 0 2657 1512" width="2657px" zoomAndPan="magnify"><defs/><g><text fill="#000000" font-family="sans-serif" font-size="14" font-weight="bold" lengthAdjust="spacing" textLength="165" x="1247" y="27.9951">Level 3 MDR Diagram</text><rect fill="#FFFFFF" height="1280.2813" style="stroke:#181818;stroke-width:1.0;" width="10" x="15.5" y="135.5781"/><rect fill="#FFFFFF" height="442.0938" style="stroke:#181818;stroke-width:1.0;" width="10" x="675.5" y="164.8594"/><rect fill="#FFFFFF" height="762.625" style="stroke:#181818;stroke-width:1.0;" width="10" x="675.5" y="644.2344"/><rect fill="#FFFFFF" height="367.5313" style="stroke:#181818;stroke-width:1.0;" width="10" x="970.5" y="202.1406"/><rect fill="#FFFFFF" height="696.0625" style="stroke:#181818;stroke-width:1.0;" width="10" x="970.5" y="681.5156"/><rect fill="#FFFFFF" height="43.2813" style="stroke:#181818;stroke-width:1.0;" width="10" x="1819.5" y="482.1094"/><rect fill="#FFFFFF" height="111.8438" style="stroke:#181818;stroke-width:1.0;" width="10" x="1984" y="332.9844"/><rect fill="#FFFFFF" height="111.8438" style="stroke:#181818;stroke-width:1.0;" width="10" x="1984" y="809.6406"/><rect fill="#FFFFFF" height="67.2813" style="stroke:#181818;stroke-width:1.0;" width="10" x="1984" y="958.7656"/><rect fill="#FFFFFF" height="111.8438" style="stroke:#181818;stroke-width:1.0;" width="10" x="2154.5" y="1150.8906"/><rect fill="#FFFFFF" height="43.2813" style="stroke:#181818;stroke-width:1.0;" width="10" x="2267.5" y="1063.3281"/><rect fill="#FFFFFF" height="37.2813" style="stroke:#181818;stroke-width:1.0;" width="10" x="2581" y="370.2656"/><rect fill="#FFFFFF" height="37.2813" style="stroke:#181818;stroke-width:1.0;" width="10" x="2581" y="846.9219"/><rect fill="#FFFFFF" height="30" style="stroke:#181818;stroke-width:1.0;" width="10" x="2581" y="996.0469"/><rect fill="#FFFFFF" height="37.2813" style="stroke:#181818;stroke-width:1.0;" width="10" x="2581" y="1188.1719"/><rect fill="#EBF5FB" height="623.7813" style="stroke:#000000;stroke-width:1.5;" width="2058.5" x="591.5" y="746.7969"/><rect fill="#EBF5FB" height="62.5625" style="stroke:none;stroke-width:1.0;" width="2058.5" x="591.5" y="1308.0156"/><line style="stroke:#181818;stroke-width:0.5;stroke-dasharray:5.0,5.0;" x1="20" x2="20" y1="125.5781" y2="1424.8594"/><line style="stroke:#181818;stroke-width:0.5;stroke-dasharray:5.0,5.0;" x1="680.5" x2="680.5" y1="125.5781" y2="1424.8594"/><line style="stroke:#181818;stroke-width:0.5;stroke-dasharray:5.0,5.0;" x1="975.5" x2="975.5" y1="125.5781" y2="1424.8594"/><line style="stroke:#181818;stroke-width:0.5;stroke-dasharray:5.0,5.0;" x1="1824.5" x2="1824.5" y1="125.5781" y2="1424.8594"/><line style="stroke:#181818;stroke-width:0.5;stroke-dasharray:5.0,5.0;" x1="1988.5" x2="1988.5" y1="125.5781" y2="1424.8594"/><line style="stroke:#181818;stroke-width:0.5;stroke-dasharray:5.0,5.0;" x1="2159.5" x2="2159.5" y1="125.5781" y2="1424.8594"/><line style="stroke:#181818;stroke-width:0.5;stroke-dasharray:5.0,5.0;" x1="2272.5" x2="2272.5" y1="125.5781" y2="1424.8594"/><line style="stroke:#181818;stroke-width:0.5;stroke-dasharray:5.0,5.0;" x1="2586" x2="2586" y1="125.5781" y2="1424.8594"/><text fill="#000000" font-family="sans-serif" font-size="20" lengthAdjust="spacing" textLength="25" x="5" y="120.8613">FE</text><ellipse cx="20.5" cy="50.7969" fill="#E2E2F0" rx="8" ry="8" style="stroke:#181818;stroke-width:0.5;"/><path d="M20.5,58.7969 L20.5,85.7969 M7.5,66.7969 L33.5,66.7969 M20.5,85.7969 L7.5,100.7969 M20.5,85.7969 L33.5,100.7969 " fill="none" style="stroke:#181818;stroke-width:0.5;"/><text fill="#000000" font-family="sans-serif" font-size="20" lengthAdjust="spacing" textLength="25" x="5" y="1442.4238">FE</text><ellipse cx="20.5" cy="1455.6406" fill="#E2E2F0" rx="8" ry="8" style="stroke:#181818;stroke-width:0.5;"/><path d="M20.5,1463.6406 L20.5,1490.6406 M7.5,1471.6406 L33.5,1471.6406 M20.5,1490.6406 L7.5,1505.6406 M20.5,1490.6406 L33.5,1505.6406 " fill="none" style="stroke:#181818;stroke-width:0.5;"/><rect fill="#E2E2F0" height="37.2813" rx="2.5" ry="2.5" style="stroke:#181818;stroke-width:0.5;" width="158" x="601.5" y="87.2969"/><text fill="#000000" font-family="sans-serif" font-size="20" lengthAdjust="spacing" textLength="144" x="608.5" y="112.8613">UserController</text><rect fill="#E2E2F0" height="37.2813" rx="2.5" ry="2.5" style="stroke:#181818;stroke-width:0.5;" width="158" x="601.5" y="1423.8594"/><text fill="#000000" font-family="sans-serif" font-size="20" lengthAdjust="spacing" textLength="144" x="608.5" y="1449.4238">UserController</text><rect fill="#E2E2F0" height="37.2813" rx="2.5" ry="2.5" style="stroke:#181818;stroke-width:0.5;" width="132" x="909.5" y="87.2969"/><text fill="#000000" font-family="sans-serif" font-size="20" lengthAdjust="spacing" textLength="118" x="916.5" y="112.8613">UserService</text><rect fill="#E2E2F0" height="37.2813" rx="2.5" ry="2.5" style="stroke:#181818;stroke-width:0.5;" width="132" x="909.5" y="1423.8594"/><text fill="#000000" font-family="sans-serif" font-size="20" lengthAdjust="spacing" textLength="118" x="916.5" y="1449.4238">UserService</text><rect fill="#E2E2F0" height="37.2813" rx="2.5" ry="2.5" style="stroke:#181818;stroke-width:0.5;" width="144" x="1752.5" y="87.2969"/><text fill="#000000" font-family="sans-serif" font-size="20" lengthAdjust="spacing" textLength="130" x="1759.5" y="112.8613">EmailService</text><rect fill="#E2E2F0" height="37.2813" rx="2.5" ry="2.5" style="stroke:#181818;stroke-width:0.5;" width="144" x="1752.5" y="1423.8594"/><text fill="#000000" font-family="sans-serif" font-size="20" lengthAdjust="spacing" textLength="130" x="1759.5" y="1449.4238">EmailService</text><rect fill="#E2E2F0" height="37.2813" rx="2.5" ry="2.5" style="stroke:#181818;stroke-width:0.5;" width="165" x="1906.5" y="87.2969"/><text fill="#000000" font-family="sans-serif" font-size="20" lengthAdjust="spacing" textLength="151" x="1913.5" y="112.8613">UserRepository</text><rect fill="#E2E2F0" height="37.2813" rx="2.5" ry="2.5" style="stroke:#181818;stroke-width:0.5;" width="165" x="1906.5" y="1423.8594"/><text fill="#000000" font-family="sans-serif" font-size="20" lengthAdjust="spacing" textLength="151" x="1913.5" y="1449.4238">UserRepository</text><rect fill="#E2E2F0" height="37.2813" rx="2.5" ry="2.5" style="stroke:#181818;stroke-width:0.5;" width="156" x="2081.5" y="87.2969"/><text fill="#000000" font-family="sans-serif" font-size="20" lengthAdjust="spacing" textLength="142" x="2088.5" y="112.8613">LogRepository</text><rect fill="#E2E2F0" height="37.2813" rx="2.5" ry="2.5" style="stroke:#181818;stroke-width:0.5;" width="156" x="2081.5" y="1423.8594"/><text fill="#000000" font-family="sans-serif" font-size="20" lengthAdjust="spacing" textLength="142" x="2088.5" y="1449.4238">LogRepository</text><rect fill="#E2E2F0" height="37.2813" rx="2.5" ry="2.5" style="stroke:#181818;stroke-width:0.5;" width="50" x="2247.5" y="87.2969"/><text fill="#000000" font-family="sans-serif" font-size="20" lengthAdjust="spacing" textLength="36" x="2254.5" y="112.8613">Log</text><rect fill="#E2E2F0" height="37.2813" rx="2.5" ry="2.5" style="stroke:#181818;stroke-width:0.5;" width="50" x="2247.5" y="1423.8594"/><text fill="#000000" font-family="sans-serif" font-size="20" lengthAdjust="spacing" textLength="36" x="2254.5" y="1449.4238">Log</text><rect fill="#E2E2F0" height="37.2813" rx="2.5" ry="2.5" style="stroke:#181818;stroke-width:0.5;" width="108" x="2532" y="87.2969"/><text fill="#000000" font-family="sans-serif" font-size="20" lengthAdjust="spacing" textLength="94" x="2539" y="112.8613">Database</text><rect fill="#E2E2F0" height="37.2813" rx="2.5" ry="2.5" style="stroke:#181818;stroke-width:0.5;" width="108" x="2532" y="1423.8594"/><text fill="#000000" font-family="sans-serif" font-size="20" lengthAdjust="spacing" textLength="94" x="2539" y="1449.4238">Database</text><rect fill="#FFFFFF" height="1280.2813" style="stroke:#181818;stroke-width:1.0;" width="10" x="15.5" y="135.5781"/><rect fill="#FFFFFF" height="442.0938" style="stroke:#181818;stroke-width:1.0;" width="10" x="675.5" y="164.8594"/><rect fill="#FFFFFF" height="762.625" style="stroke:#181818;stroke-width:1.0;" width="10" x="675.5" y="644.2344"/><rect fill="#FFFFFF" height="367.5313" style="stroke:#181818;stroke-width:1.0;" width="10" x="970.5" y="202.1406"/><rect fill="#FFFFFF" height="696.0625" style="stroke:#181818;stroke-width:1.0;" width="10" x="970.5" y="681.5156"/><rect fill="#FFFFFF" height="43.2813" style="stroke:#181818;stroke-width:1.0;" width="10" x="1819.5" y="482.1094"/><rect fill="#FFFFFF" height="111.8438" style="stroke:#181818;stroke-width:1.0;" width="10" x="1984" y="332.9844"/><rect fill="#FFFFFF" height="111.8438" style="stroke:#181818;stroke-width:1.0;" width="10" x="1984" y="809.6406"/><rect fill="#FFFFFF" height="67.2813" style="stroke:#181818;stroke-width:1.0;" width="10" x="1984" y="958.7656"/><rect fill="#FFFFFF" height="111.8438" style="stroke:#181818;stroke-width:1.0;" width="10" x="2154.5" y="1150.8906"/><rect fill="#FFFFFF" height="43.2813" style="stroke:#181818;stroke-width:1.0;" width="10" x="2267.5" y="1063.3281"/><rect fill="#FFFFFF" height="37.2813" style="stroke:#181818;stroke-width:1.0;" width="10" x="2581" y="370.2656"/><rect fill="#FFFFFF" height="37.2813" style="stroke:#181818;stroke-width:1.0;" width="10" x="2581" y="846.9219"/><rect fill="#FFFFFF" height="30" style="stroke:#181818;stroke-width:1.0;" width="10" x="2581" y="996.0469"/><rect fill="#FFFFFF" height="37.2813" style="stroke:#181818;stroke-width:1.0;" width="10" x="2581" y="1188.1719"/><polygon fill="#000000" points="663.5,160.8594,673.5,164.8594,663.5,168.8594,667.5,164.8594" style="stroke:#000000;stroke-width:1.0;"/><line style="stroke:#000000;stroke-width:1.0;" x1="25.5" x2="669.5" y1="164.8594" y2="164.8594"/><text fill="#000000" font-family="sans-serif" font-size="20" lengthAdjust="spacing" textLength="631" x="32.5" y="158.1426">Sends HTTP Request with token to request delete user account</text><polygon fill="#000000" points="958.5,198.1406,968.5,202.1406,958.5,206.1406,962.5,202.1406" style="stroke:#000000;stroke-width:1.0;"/><line style="stroke:#000000;stroke-width:1.0;" x1="685.5" x2="964.5" y1="202.1406" y2="202.1406"/><text fill="#000000" font-family="sans-serif" font-size="20" lengthAdjust="spacing" textLength="220" x="692.5" y="195.4238">RequestDelete(token)</text><path d="M985,215.1406 L985,248.1406 L1749,248.1406 L1749,225.1406 L1739,215.1406 L985,215.1406 " fill="#FEFFDD" style="stroke:#181818;stroke-width:0.5;"/><path d="M1739,215.1406 L1739,225.1406 L1749,225.1406 L1739,215.1406 " fill="#FEFFDD" style="stroke:#181818;stroke-width:0.5;"/><text fill="#000000" font-family="sans-serif" font-size="20" lengthAdjust="spacing" textLength="743" x="991" y="238.7051">This method verifies the provided token and returns the respective user id</text><line style="stroke:#000000;stroke-width:1.0;" x1="980.5" x2="1022.5" y1="282.7031" y2="282.7031"/><line style="stroke:#000000;stroke-width:1.0;" x1="1022.5" x2="1022.5" y1="282.7031" y2="295.7031"/><line style="stroke:#000000;stroke-width:1.0;" x1="981.5" x2="1022.5" y1="295.7031" y2="295.7031"/><polygon fill="#000000" points="991.5,291.7031,981.5,295.7031,991.5,299.7031,987.5,295.7031" style="stroke:#000000;stroke-width:1.0;"/><text fill="#000000" font-family="sans-serif" font-size="20" lengthAdjust="spacing" textLength="192" x="987.5" y="275.9863">VerifyToken(token)</text><polygon fill="#000000" points="1972,328.9844,1982,332.9844,1972,336.9844,1976,332.9844" style="stroke:#000000;stroke-width:1.0;"/><line style="stroke:#000000;stroke-width:1.0;" x1="980.5" x2="1978" y1="332.9844" y2="332.9844"/><text fill="#000000" font-family="sans-serif" font-size="20" lengthAdjust="spacing" textLength="217" x="987.5" y="326.2676">GetByIdAsync(userId)</text><polygon fill="#000000" points="2569,366.2656,2579,370.2656,2569,374.2656,2573,370.2656" style="stroke:#000000;stroke-width:1.0;"/><line style="stroke:#000000;stroke-width:1.0;" x1="1994" x2="2575" y1="370.2656" y2="370.2656"/><text fill="#000000" font-family="sans-serif" font-size="20" lengthAdjust="spacing" textLength="568" x="2001" y="363.5488">_objs.Where(x =&gt; id.Equals(x.Id)).FirstOrDefaultAsync();</text><polygon fill="#000000" points="2005,403.5469,1995,407.5469,2005,411.5469,2001,407.5469" style="stroke:#000000;stroke-width:1.0;"/><line style="stroke:#000000;stroke-width:1.0;stroke-dasharray:2.0,2.0;" x1="1999" x2="2585" y1="407.5469" y2="407.5469"/><text fill="#000000" font-family="sans-serif" font-size="20" lengthAdjust="spacing" textLength="129" x="2011" y="400.8301">Returns User</text><polygon fill="#000000" points="991.5,440.8281,981.5,444.8281,991.5,448.8281,987.5,444.8281" style="stroke:#000000;stroke-width:1.0;"/><line style="stroke:#000000;stroke-width:1.0;stroke-dasharray:2.0,2.0;" x1="985.5" x2="1988" y1="444.8281" y2="444.8281"/><text fill="#000000" font-family="sans-serif" font-size="20" lengthAdjust="spacing" textLength="129" x="997.5" y="438.1113">Returns User</text><polygon fill="#000000" points="1807.5,478.1094,1817.5,482.1094,1807.5,486.1094,1811.5,482.1094" style="stroke:#000000;stroke-width:1.0;"/><line style="stroke:#000000;stroke-width:1.0;" x1="980.5" x2="1813.5" y1="482.1094" y2="482.1094"/><text fill="#000000" font-family="sans-serif" font-size="20" lengthAdjust="spacing" textLength="820" x="987.5" y="475.3926">SendEmail(user.Email, "Delete User Request", GenerateLink(token, "DeleteUser")</text><line style="stroke:#000000;stroke-width:1.0;stroke-dasharray:2.0,2.0;" x1="1829.5" x2="1871.5" y1="524.3906" y2="524.3906"/><line style="stroke:#000000;stroke-width:1.0;stroke-dasharray:2.0,2.0;" x1="1871.5" x2="1871.5" y1="524.3906" y2="537.3906"/><line style="stroke:#000000;stroke-width:1.0;stroke-dasharray:2.0,2.0;" x1="1824.5" x2="1871.5" y1="537.3906" y2="537.3906"/><polygon fill="#000000" points="1834.5,533.3906,1824.5,537.3906,1834.5,541.3906,1830.5,537.3906" style="stroke:#000000;stroke-width:1.0;"/><text fill="#000000" font-family="sans-serif" font-size="20" lengthAdjust="spacing" textLength="121" x="1836.5" y="517.6738">sendEmail()</text><polygon fill="#000000" points="696.5,565.6719,686.5,569.6719,696.5,573.6719,692.5,569.6719" style="stroke:#000000;stroke-width:1.0;"/><line style="stroke:#000000;stroke-width:1.0;stroke-dasharray:2.0,2.0;" x1="690.5" x2="974.5" y1="569.6719" y2="569.6719"/><text fill="#000000" font-family="sans-serif" font-size="20" lengthAdjust="spacing" textLength="62" x="702.5" y="562.9551">return</text><polygon fill="#000000" points="36.5,602.9531,26.5,606.9531,36.5,610.9531,32.5,606.9531" style="stroke:#000000;stroke-width:1.0;"/><line style="stroke:#000000;stroke-width:1.0;stroke-dasharray:2.0,2.0;" x1="30.5" x2="679.5" y1="606.9531" y2="606.9531"/><text fill="#000000" font-family="sans-serif" font-size="20" lengthAdjust="spacing" textLength="413" x="42.5" y="600.2363">Returns Operation Status Response Code</text><polygon fill="#000000" points="663.5,640.2344,673.5,644.2344,663.5,648.2344,667.5,644.2344" style="stroke:#000000;stroke-width:1.0;"/><line style="stroke:#000000;stroke-width:1.0;" x1="25.5" x2="669.5" y1="644.2344" y2="644.2344"/><text fill="#000000" font-family="sans-serif" font-size="20" lengthAdjust="spacing" textLength="463" x="32.5" y="637.5176">Sends HTTP Request with token to delete user</text><polygon fill="#000000" points="958.5,677.5156,968.5,681.5156,958.5,685.5156,962.5,681.5156" style="stroke:#000000;stroke-width:1.0;"/><line style="stroke:#000000;stroke-width:1.0;" x1="685.5" x2="964.5" y1="681.5156" y2="681.5156"/><text fill="#000000" font-family="sans-serif" font-size="20" lengthAdjust="spacing" textLength="183" x="692.5" y="674.7988">DeleteUser(token)</text><line style="stroke:#000000;stroke-width:1.0;" x1="980.5" x2="1022.5" y1="718.7969" y2="718.7969"/><line style="stroke:#000000;stroke-width:1.0;" x1="1022.5" x2="1022.5" y1="718.7969" y2="731.7969"/><line style="stroke:#000000;stroke-width:1.0;" x1="981.5" x2="1022.5" y1="731.7969" y2="731.7969"/><polygon fill="#000000" points="991.5,727.7969,981.5,731.7969,991.5,735.7969,987.5,731.7969" style="stroke:#000000;stroke-width:1.0;"/><text fill="#000000" font-family="sans-serif" font-size="20" lengthAdjust="spacing" textLength="192" x="987.5" y="712.0801">VerifyToken(token)</text><path d="M591.5,746.7969 L667.5,746.7969 L667.5,762.0781 L657.5,772.0781 L591.5,772.0781 L591.5,746.7969 " fill="#EEEEEE" style="stroke:#000000;stroke-width:1.5;"/><rect fill="none" height="623.7813" style="stroke:#000000;stroke-width:1.5;" width="2058.5" x="591.5" y="746.7969"/><text fill="#000000" font-family="sans-serif" font-size="20" font-weight="bold" lengthAdjust="spacing" textLength="31" x="606.5" y="766.3613">alt</text><text fill="#000000" font-family="sans-serif" font-size="20" font-weight="bold" lengthAdjust="spacing" textLength="171" x="682.5" y="767.3613">[token is valid]</text><polygon fill="#000000" points="1972,805.6406,1982,809.6406,1972,813.6406,1976,809.6406" style="stroke:#000000;stroke-width:1.0;"/><line style="stroke:#000000;stroke-width:1.0;" x1="980.5" x2="1978" y1="809.6406" y2="809.6406"/><text fill="#000000" font-family="sans-serif" font-size="20" lengthAdjust="spacing" textLength="217" x="987.5" y="802.9238">GetByIdAsync(userId)</text><polygon fill="#000000" points="2569,842.9219,2579,846.9219,2569,850.9219,2573,846.9219" style="stroke:#000000;stroke-width:1.0;"/><line style="stroke:#000000;stroke-width:1.0;" x1="1994" x2="2575" y1="846.9219" y2="846.9219"/><text fill="#000000" font-family="sans-serif" font-size="20" lengthAdjust="spacing" textLength="568" x="2001" y="840.2051">_objs.Where(x =&gt; id.Equals(x.Id)).FirstOrDefaultAsync();</text><polygon fill="#000000" points="2005,880.2031,1995,884.2031,2005,888.2031,2001,884.2031" style="stroke:#000000;stroke-width:1.0;"/><line style="stroke:#000000;stroke-width:1.0;stroke-dasharray:2.0,2.0;" x1="1999" x2="2585" y1="884.2031" y2="884.2031"/><text fill="#000000" font-family="sans-serif" font-size="20" lengthAdjust="spacing" textLength="129" x="2011" y="877.4863">Returns User</text><polygon fill="#000000" points="991.5,917.4844,981.5,921.4844,991.5,925.4844,987.5,921.4844" style="stroke:#000000;stroke-width:1.0;"/><line style="stroke:#000000;stroke-width:1.0;stroke-dasharray:2.0,2.0;" x1="985.5" x2="1988" y1="921.4844" y2="921.4844"/><text fill="#000000" font-family="sans-serif" font-size="20" lengthAdjust="spacing" textLength="129" x="997.5" y="914.7676">Returns User</text><polygon fill="#000000" points="1972,954.7656,1982,958.7656,1972,962.7656,1976,958.7656" style="stroke:#000000;stroke-width:1.0;"/><line style="stroke:#000000;stroke-width:1.0;" x1="980.5" x2="1978" y1="958.7656" y2="958.7656"/><text fill="#000000" font-family="sans-serif" font-size="20" lengthAdjust="spacing" textLength="140" x="987.5" y="952.0488">Remove(user)</text><polygon fill="#000000" points="2569,992.0469,2579,996.0469,2569,1000.0469,2573,996.0469" style="stroke:#000000;stroke-width:1.0;"/><line style="stroke:#000000;stroke-width:1.0;" x1="1994" x2="2575" y1="996.0469" y2="996.0469"/><text fill="#000000" font-family="sans-serif" font-size="20" lengthAdjust="spacing" textLength="197" x="2001" y="989.3301">_objs.Remove(user)</text><polygon fill="#000000" points="2255.5,1059.3281,2265.5,1063.3281,2255.5,1067.3281,2259.5,1063.3281" style="stroke:#000000;stroke-width:1.0;"/><line style="stroke:#000000;stroke-width:1.0;" x1="980.5" x2="2261.5" y1="1063.3281" y2="1063.3281"/><text fill="#000000" font-family="sans-serif" font-size="20" lengthAdjust="spacing" textLength="738" x="987.5" y="1056.6113">new Log(TypeOfAction.Delete, userId, "User of Type Patient was deleted."</text><line style="stroke:#000000;stroke-width:1.0;" x1="2277.5" x2="2319.5" y1="1105.6094" y2="1105.6094"/><line style="stroke:#000000;stroke-width:1.0;" x1="2319.5" x2="2319.5" y1="1105.6094" y2="1118.6094"/><line style="stroke:#000000;stroke-width:1.0;" x1="2272.5" x2="2319.5" y1="1118.6094" y2="1118.6094"/><polygon fill="#000000" points="2282.5,1114.6094,2272.5,1118.6094,2282.5,1122.6094,2278.5,1118.6094" style="stroke:#000000;stroke-width:1.0;"/><text fill="#000000" font-family="sans-serif" font-size="20" lengthAdjust="spacing" textLength="52" x="2284.5" y="1098.8926">Log()</text><polygon fill="#000000" points="2142.5,1146.8906,2152.5,1150.8906,2142.5,1154.8906,2146.5,1150.8906" style="stroke:#000000;stroke-width:1.0;"/><line style="stroke:#000000;stroke-width:1.0;" x1="980.5" x2="2148.5" y1="1150.8906" y2="1150.8906"/><text fill="#000000" font-family="sans-serif" font-size="20" lengthAdjust="spacing" textLength="146" x="987.5" y="1144.1738">AddAsync(log)</text><polygon fill="#000000" points="2569,1184.1719,2579,1188.1719,2569,1192.1719,2573,1188.1719" style="stroke:#000000;stroke-width:1.0;"/><line style="stroke:#000000;stroke-width:1.0;" x1="2164.5" x2="2575" y1="1188.1719" y2="1188.1719"/><text fill="#000000" font-family="sans-serif" font-size="20" lengthAdjust="spacing" textLength="203" x="2171.5" y="1181.4551">_objs.AddAsync(log)</text><polygon fill="#000000" points="2175.5,1221.4531,2165.5,1225.4531,2175.5,1229.4531,2171.5,1225.4531" style="stroke:#000000;stroke-width:1.0;"/><line style="stroke:#000000;stroke-width:1.0;stroke-dasharray:2.0,2.0;" x1="2169.5" x2="2585" y1="1225.4531" y2="1225.4531"/><text fill="#000000" font-family="sans-serif" font-size="20" lengthAdjust="spacing" textLength="120" x="2181.5" y="1218.7363">Returns Log</text><polygon fill="#000000" points="991.5,1258.7344,981.5,1262.7344,991.5,1266.7344,987.5,1262.7344" style="stroke:#000000;stroke-width:1.0;"/><line style="stroke:#000000;stroke-width:1.0;stroke-dasharray:2.0,2.0;" x1="985.5" x2="2158.5" y1="1262.7344" y2="1262.7344"/><text fill="#000000" font-family="sans-serif" font-size="20" lengthAdjust="spacing" textLength="120" x="997.5" y="1256.0176">Returns Log</text><polygon fill="#000000" points="696.5,1296.0156,686.5,1300.0156,696.5,1304.0156,692.5,1300.0156" style="stroke:#000000;stroke-width:1.0;"/><line style="stroke:#000000;stroke-width:1.0;stroke-dasharray:2.0,2.0;" x1="690.5" x2="969.5" y1="1300.0156" y2="1300.0156"/><text fill="#000000" font-family="sans-serif" font-size="20" lengthAdjust="spacing" textLength="62" x="702.5" y="1293.2988">return</text><line style="stroke:#000000;stroke-width:1.0;stroke-dasharray:2.0,2.0;" x1="591.5" x2="2650" y1="1309.0156" y2="1309.0156"/><text fill="#000000" font-family="sans-serif" font-size="20" font-weight="bold" lengthAdjust="spacing" textLength="192" x="596.5" y="1327.5801">[token is invalid]</text><polygon fill="#000000" points="696.5,1358.5781,686.5,1362.5781,696.5,1366.5781,692.5,1362.5781" style="stroke:#000000;stroke-width:1.0;"/><line style="stroke:#000000;stroke-width:1.0;" x1="690.5" x2="969.5" y1="1362.5781" y2="1362.5781"/><text fill="#000000" font-family="sans-serif" font-size="20" lengthAdjust="spacing" textLength="261" x="702.5" y="1355.8613">return exception message</text><polygon fill="#000000" points="36.5,1402.8594,26.5,1406.8594,36.5,1410.8594,32.5,1406.8594" style="stroke:#000000;stroke-width:1.0;"/><line style="stroke:#000000;stroke-width:1.0;stroke-dasharray:2.0,2.0;" x1="30.5" x2="679.5" y1="1406.8594" y2="1406.8594"/><text fill="#000000" font-family="sans-serif" font-size="20" lengthAdjust="spacing" textLength="413" x="42.5" y="1400.1426">Returns Operation Status Response Code</text><!--SRC=[hLNRRjf047ttLup8Gq5AK2_gZRQHCBRRIAuIsRHzh3Rs1BOOhxkxG6ZLV-_ihWCsE56hbWS3EsTcpyoS6Qi5BoicsR8GsG9poF66hGeTYLAd_0V2qyUUfxak469SOm7Fu6EGGC3PZ7myRyvp15nMUWjBN5wZLDuZTHSIObwYtbO8GkgvyBoz9IkOKl3J0_huB5lCf5YL-KGKGhvzksR52Y-lls6cpy_X97WHZgDNtL0fXCL4GUW7Zxin2kMQPsX3FOcUXduNZ4A4qUlmfRMDfHGRT-mNXFD-DRbNTC9csCqUJa8_UXxvneLbcWwY49YYfqVUccUyOgM6tYTYDQ4YIr4KA7i6CZb6f8wwDQTjSxXal6ZQm_JOFy5AA4uijXQIj16nc1q0ucE4EsyV1qopQwRSlO5lC-Lhfj6aIVcUdSDa12cMkO8Fq-aL9FXzXKh3XkivQB70afuWwzCS2oJV5H46bcLKIxsFEF4c9buwkWiIM7JVHXdiSQbN2lgIV3RN86wCmtJE5ScIf9V36YM_uQX0pn4gATOatBocmigSkEYLB9rPeghGnAqvyTnBQmwVJPZjrBZTCR2cP0JlKVlRYtoijcNMDtuNUODUuYK65_WZ-2gklwdXbpbAxD_2ktEAFmo_hrYX-hT3SXeC8owLlfI1cqKNSV1c7unA7lXmvkvDQkQctrwEJL1YCUdzcCIn3rFNBQifotreVvvIgrrlZEDT0tgdb6k9aWBGW2zS7NPGW-mr4YTPXgdbOMvHkri6JHu4SXYIZUj4qveQ2P0n2lUPN5Q601Sbf9hf5McRcYPAHO8HEJQz9t-Xo8OIknIupx13VWz8X1MwleC4ITkD16LMnuFACO16dypVVrTGAsZW5k4zIZAcjffg2XsAEi0chUmIN8ershp-9AlxuJM5OrBTLySZA743jCBwKte7NTwCCwENeMlYARX2dxf5QJQ6GS4LYGffnsreiparvCDUcqTi_yRr7IR-u916tA119HZdTNCBCJj8AdQCuuCgFE3HRblSw1jHkQT2yL7VEh3nhdYjGSI2XcgdNbuUw7S71BpDiB8ZkKIbw0tfqRZzppd-3G00]--></g></svg>