<?xml version="1.0" encoding="UTF-8" standalone="no"?><svg xmlns="http://www.w3.org/2000/svg" xmlns:xlink="http://www.w3.org/1999/xlink" contentStyleType="text/css" height="1512px" preserveAspectRatio="none" style="width:2652px;height:1512px;background:#FFFFFF;" version="1.1" viewBox="0 0 2652 1512" width="2652px" zoomAndPan="magnify"><defs/><g><text fill="#000000" font-family="sans-serif" font-size="14" font-weight="bold" lengthAdjust="spacing" textLength="165" x="1244.5" y="27.9951">Level 3 MDR Diagram</text><rect fill="#FFFFFF" height="442.0938" style="stroke:#181818;stroke-width:1.0;" width="10" x="670.5" y="164.8594"/><rect fill="#FFFFFF" height="762.625" style="stroke:#181818;stroke-width:1.0;" width="10" x="670.5" y="644.2344"/><rect fill="#FFFFFF" height="367.5313" style="stroke:#181818;stroke-width:1.0;" width="10" x="965.5" y="202.1406"/><rect fill="#FFFFFF" height="696.0625" style="stroke:#181818;stroke-width:1.0;" width="10" x="965.5" y="681.5156"/><rect fill="#FFFFFF" height="43.2813" style="stroke:#181818;stroke-width:1.0;" width="10" x="1814.5" y="482.1094"/><rect fill="#FFFFFF" height="111.8438" style="stroke:#181818;stroke-width:1.0;" width="10" x="1979" y="332.9844"/><rect fill="#FFFFFF" height="111.8438" style="stroke:#181818;stroke-width:1.0;" width="10" x="1979" y="809.6406"/><rect fill="#FFFFFF" height="67.2813" style="stroke:#181818;stroke-width:1.0;" width="10" x="1979" y="958.7656"/><rect fill="#FFFFFF" height="111.8438" style="stroke:#181818;stroke-width:1.0;" width="10" x="2149.5" y="1150.8906"/><rect fill="#FFFFFF" height="43.2813" style="stroke:#181818;stroke-width:1.0;" width="10" x="2262.5" y="1063.3281"/><rect fill="#FFFFFF" height="37.2813" style="stroke:#181818;stroke-width:1.0;" width="10" x="2576" y="370.2656"/><rect fill="#FFFFFF" height="37.2813" style="stroke:#181818;stroke-width:1.0;" width="10" x="2576" y="846.9219"/><rect fill="#FFFFFF" height="30" style="stroke:#181818;stroke-width:1.0;" width="10" x="2576" y="996.0469"/><rect fill="#FFFFFF" height="37.2813" style="stroke:#181818;stroke-width:1.0;" width="10" x="2576" y="1188.1719"/><rect fill="#EBF5FB" height="623.7813" style="stroke:#000000;stroke-width:1.5;" width="2058.5" x="586.5" y="746.7969"/><rect fill="#EBF5FB" height="62.5625" style="stroke:none;stroke-width:1.0;" width="2058.5" x="586.5" y="1308.0156"/><line style="stroke:#181818;stroke-width:0.5;stroke-dasharray:5.0,5.0;" x1="20" x2="20" y1="125.5781" y2="1424.8594"/><line style="stroke:#181818;stroke-width:0.5;stroke-dasharray:5.0,5.0;" x1="675.5" x2="675.5" y1="125.5781" y2="1424.8594"/><line style="stroke:#181818;stroke-width:0.5;stroke-dasharray:5.0,5.0;" x1="970.5" x2="970.5" y1="125.5781" y2="1424.8594"/><line style="stroke:#181818;stroke-width:0.5;stroke-dasharray:5.0,5.0;" x1="1819.5" x2="1819.5" y1="125.5781" y2="1424.8594"/><line style="stroke:#181818;stroke-width:0.5;stroke-dasharray:5.0,5.0;" x1="1983.5" x2="1983.5" y1="125.5781" y2="1424.8594"/><line style="stroke:#181818;stroke-width:0.5;stroke-dasharray:5.0,5.0;" x1="2154.5" x2="2154.5" y1="125.5781" y2="1424.8594"/><line style="stroke:#181818;stroke-width:0.5;stroke-dasharray:5.0,5.0;" x1="2267.5" x2="2267.5" y1="125.5781" y2="1424.8594"/><line style="stroke:#181818;stroke-width:0.5;stroke-dasharray:5.0,5.0;" x1="2581" x2="2581" y1="125.5781" y2="1424.8594"/><text fill="#000000" font-family="sans-serif" font-size="20" lengthAdjust="spacing" textLength="25" x="5" y="120.8613">FE</text><ellipse cx="20.5" cy="50.7969" fill="#E2E2F0" rx="8" ry="8" style="stroke:#181818;stroke-width:0.5;"/><path d="M20.5,58.7969 L20.5,85.7969 M7.5,66.7969 L33.5,66.7969 M20.5,85.7969 L7.5,100.7969 M20.5,85.7969 L33.5,100.7969 " fill="none" style="stroke:#181818;stroke-width:0.5;"/><text fill="#000000" font-family="sans-serif" font-size="20" lengthAdjust="spacing" textLength="25" x="5" y="1442.4238">FE</text><ellipse cx="20.5" cy="1455.6406" fill="#E2E2F0" rx="8" ry="8" style="stroke:#181818;stroke-width:0.5;"/><path d="M20.5,1463.6406 L20.5,1490.6406 M7.5,1471.6406 L33.5,1471.6406 M20.5,1490.6406 L7.5,1505.6406 M20.5,1490.6406 L33.5,1505.6406 " fill="none" style="stroke:#181818;stroke-width:0.5;"/><rect fill="#E2E2F0" height="37.2813" rx="2.5" ry="2.5" style="stroke:#181818;stroke-width:0.5;" width="158" x="596.5" y="87.2969"/><text fill="#000000" font-family="sans-serif" font-size="20" lengthAdjust="spacing" textLength="144" x="603.5" y="112.8613">UserController</text><rect fill="#E2E2F0" height="37.2813" rx="2.5" ry="2.5" style="stroke:#181818;stroke-width:0.5;" width="158" x="596.5" y="1423.8594"/><text fill="#000000" font-family="sans-serif" font-size="20" lengthAdjust="spacing" textLength="144" x="603.5" y="1449.4238">UserController</text><rect fill="#E2E2F0" height="37.2813" rx="2.5" ry="2.5" style="stroke:#181818;stroke-width:0.5;" width="132" x="904.5" y="87.2969"/><text fill="#000000" font-family="sans-serif" font-size="20" lengthAdjust="spacing" textLength="118" x="911.5" y="112.8613">UserService</text><rect fill="#E2E2F0" height="37.2813" rx="2.5" ry="2.5" style="stroke:#181818;stroke-width:0.5;" width="132" x="904.5" y="1423.8594"/><text fill="#000000" font-family="sans-serif" font-size="20" lengthAdjust="spacing" textLength="118" x="911.5" y="1449.4238">UserService</text><rect fill="#E2E2F0" height="37.2813" rx="2.5" ry="2.5" style="stroke:#181818;stroke-width:0.5;" width="144" x="1747.5" y="87.2969"/><text fill="#000000" font-family="sans-serif" font-size="20" lengthAdjust="spacing" textLength="130" x="1754.5" y="112.8613">EmailService</text><rect fill="#E2E2F0" height="37.2813" rx="2.5" ry="2.5" style="stroke:#181818;stroke-width:0.5;" width="144" x="1747.5" y="1423.8594"/><text fill="#000000" font-family="sans-serif" font-size="20" lengthAdjust="spacing" textLength="130" x="1754.5" y="1449.4238">EmailService</text><rect fill="#E2E2F0" height="37.2813" rx="2.5" ry="2.5" style="stroke:#181818;stroke-width:0.5;" width="165" x="1901.5" y="87.2969"/><text fill="#000000" font-family="sans-serif" font-size="20" lengthAdjust="spacing" textLength="151" x="1908.5" y="112.8613">UserRepository</text><rect fill="#E2E2F0" height="37.2813" rx="2.5" ry="2.5" style="stroke:#181818;stroke-width:0.5;" width="165" x="1901.5" y="1423.8594"/><text fill="#000000" font-family="sans-serif" font-size="20" lengthAdjust="spacing" textLength="151" x="1908.5" y="1449.4238">UserRepository</text><rect fill="#E2E2F0" height="37.2813" rx="2.5" ry="2.5" style="stroke:#181818;stroke-width:0.5;" width="156" x="2076.5" y="87.2969"/><text fill="#000000" font-family="sans-serif" font-size="20" lengthAdjust="spacing" textLength="142" x="2083.5" y="112.8613">LogRepository</text><rect fill="#E2E2F0" height="37.2813" rx="2.5" ry="2.5" style="stroke:#181818;stroke-width:0.5;" width="156" x="2076.5" y="1423.8594"/><text fill="#000000" font-family="sans-serif" font-size="20" lengthAdjust="spacing" textLength="142" x="2083.5" y="1449.4238">LogRepository</text><rect fill="#E2E2F0" height="37.2813" rx="2.5" ry="2.5" style="stroke:#181818;stroke-width:0.5;" width="50" x="2242.5" y="87.2969"/><text fill="#000000" font-family="sans-serif" font-size="20" lengthAdjust="spacing" textLength="36" x="2249.5" y="112.8613">Log</text><rect fill="#E2E2F0" height="37.2813" rx="2.5" ry="2.5" style="stroke:#181818;stroke-width:0.5;" width="50" x="2242.5" y="1423.8594"/><text fill="#000000" font-family="sans-serif" font-size="20" lengthAdjust="spacing" textLength="36" x="2249.5" y="1449.4238">Log</text><rect fill="#E2E2F0" height="37.2813" rx="2.5" ry="2.5" style="stroke:#181818;stroke-width:0.5;" width="108" x="2527" y="87.2969"/><text fill="#000000" font-family="sans-serif" font-size="20" lengthAdjust="spacing" textLength="94" x="2534" y="112.8613">Database</text><rect fill="#E2E2F0" height="37.2813" rx="2.5" ry="2.5" style="stroke:#181818;stroke-width:0.5;" width="108" x="2527" y="1423.8594"/><text fill="#000000" font-family="sans-serif" font-size="20" lengthAdjust="spacing" textLength="94" x="2534" y="1449.4238">Database</text><rect fill="#FFFFFF" height="442.0938" style="stroke:#181818;stroke-width:1.0;" width="10" x="670.5" y="164.8594"/><rect fill="#FFFFFF" height="762.625" style="stroke:#181818;stroke-width:1.0;" width="10" x="670.5" y="644.2344"/><rect fill="#FFFFFF" height="367.5313" style="stroke:#181818;stroke-width:1.0;" width="10" x="965.5" y="202.1406"/><rect fill="#FFFFFF" height="696.0625" style="stroke:#181818;stroke-width:1.0;" width="10" x="965.5" y="681.5156"/><rect fill="#FFFFFF" height="43.2813" style="stroke:#181818;stroke-width:1.0;" width="10" x="1814.5" y="482.1094"/><rect fill="#FFFFFF" height="111.8438" style="stroke:#181818;stroke-width:1.0;" width="10" x="1979" y="332.9844"/><rect fill="#FFFFFF" height="111.8438" style="stroke:#181818;stroke-width:1.0;" width="10" x="1979" y="809.6406"/><rect fill="#FFFFFF" height="67.2813" style="stroke:#181818;stroke-width:1.0;" width="10" x="1979" y="958.7656"/><rect fill="#FFFFFF" height="111.8438" style="stroke:#181818;stroke-width:1.0;" width="10" x="2149.5" y="1150.8906"/><rect fill="#FFFFFF" height="43.2813" style="stroke:#181818;stroke-width:1.0;" width="10" x="2262.5" y="1063.3281"/><rect fill="#FFFFFF" height="37.2813" style="stroke:#181818;stroke-width:1.0;" width="10" x="2576" y="370.2656"/><rect fill="#FFFFFF" height="37.2813" style="stroke:#181818;stroke-width:1.0;" width="10" x="2576" y="846.9219"/><rect fill="#FFFFFF" height="30" style="stroke:#181818;stroke-width:1.0;" width="10" x="2576" y="996.0469"/><rect fill="#FFFFFF" height="37.2813" style="stroke:#181818;stroke-width:1.0;" width="10" x="2576" y="1188.1719"/><polygon fill="#000000" points="658.5,160.8594,668.5,164.8594,658.5,168.8594,662.5,164.8594" style="stroke:#000000;stroke-width:1.0;"/><line style="stroke:#000000;stroke-width:1.0;" x1="20.5" x2="664.5" y1="164.8594" y2="164.8594"/><text fill="#000000" font-family="sans-serif" font-size="20" lengthAdjust="spacing" textLength="631" x="27.5" y="158.1426">Sends HTTP Request with token to request delete user account</text><polygon fill="#000000" points="953.5,198.1406,963.5,202.1406,953.5,206.1406,957.5,202.1406" style="stroke:#000000;stroke-width:1.0;"/><line style="stroke:#000000;stroke-width:1.0;" x1="680.5" x2="959.5" y1="202.1406" y2="202.1406"/><text fill="#000000" font-family="sans-serif" font-size="20" lengthAdjust="spacing" textLength="220" x="687.5" y="195.4238">RequestDelete(token)</text><path d="M980,215.1406 L980,248.1406 L1744,248.1406 L1744,225.1406 L1734,215.1406 L980,215.1406 " fill="#FEFFDD" style="stroke:#181818;stroke-width:0.5;"/><path d="M1734,215.1406 L1734,225.1406 L1744,225.1406 L1734,215.1406 " fill="#FEFFDD" style="stroke:#181818;stroke-width:0.5;"/><text fill="#000000" font-family="sans-serif" font-size="20" lengthAdjust="spacing" textLength="743" x="986" y="238.7051">This method verifies the provided token and returns the respective user id</text><line style="stroke:#000000;stroke-width:1.0;" x1="975.5" x2="1017.5" y1="282.7031" y2="282.7031"/><line style="stroke:#000000;stroke-width:1.0;" x1="1017.5" x2="1017.5" y1="282.7031" y2="295.7031"/><line style="stroke:#000000;stroke-width:1.0;" x1="976.5" x2="1017.5" y1="295.7031" y2="295.7031"/><polygon fill="#000000" points="986.5,291.7031,976.5,295.7031,986.5,299.7031,982.5,295.7031" style="stroke:#000000;stroke-width:1.0;"/><text fill="#000000" font-family="sans-serif" font-size="20" lengthAdjust="spacing" textLength="192" x="982.5" y="275.9863">VerifyToken(token)</text><polygon fill="#000000" points="1967,328.9844,1977,332.9844,1967,336.9844,1971,332.9844" style="stroke:#000000;stroke-width:1.0;"/><line style="stroke:#000000;stroke-width:1.0;" x1="975.5" x2="1973" y1="332.9844" y2="332.9844"/><text fill="#000000" font-family="sans-serif" font-size="20" lengthAdjust="spacing" textLength="217" x="982.5" y="326.2676">GetByIdAsync(userId)</text><polygon fill="#000000" points="2564,366.2656,2574,370.2656,2564,374.2656,2568,370.2656" style="stroke:#000000;stroke-width:1.0;"/><line style="stroke:#000000;stroke-width:1.0;" x1="1989" x2="2570" y1="370.2656" y2="370.2656"/><text fill="#000000" font-family="sans-serif" font-size="20" lengthAdjust="spacing" textLength="568" x="1996" y="363.5488">_objs.Where(x =&gt; id.Equals(x.Id)).FirstOrDefaultAsync();</text><polygon fill="#000000" points="2000,403.5469,1990,407.5469,2000,411.5469,1996,407.5469" style="stroke:#000000;stroke-width:1.0;"/><line style="stroke:#000000;stroke-width:1.0;stroke-dasharray:2.0,2.0;" x1="1994" x2="2580" y1="407.5469" y2="407.5469"/><text fill="#000000" font-family="sans-serif" font-size="20" lengthAdjust="spacing" textLength="129" x="2006" y="400.8301">Returns User</text><polygon fill="#000000" points="986.5,440.8281,976.5,444.8281,986.5,448.8281,982.5,444.8281" style="stroke:#000000;stroke-width:1.0;"/><line style="stroke:#000000;stroke-width:1.0;stroke-dasharray:2.0,2.0;" x1="980.5" x2="1983" y1="444.8281" y2="444.8281"/><text fill="#000000" font-family="sans-serif" font-size="20" lengthAdjust="spacing" textLength="129" x="992.5" y="438.1113">Returns User</text><polygon fill="#000000" points="1802.5,478.1094,1812.5,482.1094,1802.5,486.1094,1806.5,482.1094" style="stroke:#000000;stroke-width:1.0;"/><line style="stroke:#000000;stroke-width:1.0;" x1="975.5" x2="1808.5" y1="482.1094" y2="482.1094"/><text fill="#000000" font-family="sans-serif" font-size="20" lengthAdjust="spacing" textLength="820" x="982.5" y="475.3926">SendEmail(user.Email, "Delete User Request", GenerateLink(token, "DeleteUser")</text><line style="stroke:#000000;stroke-width:1.0;stroke-dasharray:2.0,2.0;" x1="1824.5" x2="1866.5" y1="524.3906" y2="524.3906"/><line style="stroke:#000000;stroke-width:1.0;stroke-dasharray:2.0,2.0;" x1="1866.5" x2="1866.5" y1="524.3906" y2="537.3906"/><line style="stroke:#000000;stroke-width:1.0;stroke-dasharray:2.0,2.0;" x1="1819.5" x2="1866.5" y1="537.3906" y2="537.3906"/><polygon fill="#000000" points="1829.5,533.3906,1819.5,537.3906,1829.5,541.3906,1825.5,537.3906" style="stroke:#000000;stroke-width:1.0;"/><text fill="#000000" font-family="sans-serif" font-size="20" lengthAdjust="spacing" textLength="121" x="1831.5" y="517.6738">sendEmail()</text><polygon fill="#000000" points="691.5,565.6719,681.5,569.6719,691.5,573.6719,687.5,569.6719" style="stroke:#000000;stroke-width:1.0;"/><line style="stroke:#000000;stroke-width:1.0;stroke-dasharray:2.0,2.0;" x1="685.5" x2="969.5" y1="569.6719" y2="569.6719"/><text fill="#000000" font-family="sans-serif" font-size="20" lengthAdjust="spacing" textLength="62" x="697.5" y="562.9551">return</text><polygon fill="#000000" points="31.5,602.9531,21.5,606.9531,31.5,610.9531,27.5,606.9531" style="stroke:#000000;stroke-width:1.0;"/><line style="stroke:#000000;stroke-width:1.0;stroke-dasharray:2.0,2.0;" x1="25.5" x2="674.5" y1="606.9531" y2="606.9531"/><text fill="#000000" font-family="sans-serif" font-size="20" lengthAdjust="spacing" textLength="413" x="37.5" y="600.2363">Returns Operation Status Response Code</text><polygon fill="#000000" points="658.5,640.2344,668.5,644.2344,658.5,648.2344,662.5,644.2344" style="stroke:#000000;stroke-width:1.0;"/><line style="stroke:#000000;stroke-width:1.0;" x1="20.5" x2="664.5" y1="644.2344" y2="644.2344"/><text fill="#000000" font-family="sans-serif" font-size="20" lengthAdjust="spacing" textLength="463" x="27.5" y="637.5176">Sends HTTP Request with token to delete user</text><polygon fill="#000000" points="953.5,677.5156,963.5,681.5156,953.5,685.5156,957.5,681.5156" style="stroke:#000000;stroke-width:1.0;"/><line style="stroke:#000000;stroke-width:1.0;" x1="680.5" x2="959.5" y1="681.5156" y2="681.5156"/><text fill="#000000" font-family="sans-serif" font-size="20" lengthAdjust="spacing" textLength="183" x="687.5" y="674.7988">DeleteUser(token)</text><line style="stroke:#000000;stroke-width:1.0;" x1="975.5" x2="1017.5" y1="718.7969" y2="718.7969"/><line style="stroke:#000000;stroke-width:1.0;" x1="1017.5" x2="1017.5" y1="718.7969" y2="731.7969"/><line style="stroke:#000000;stroke-width:1.0;" x1="976.5" x2="1017.5" y1="731.7969" y2="731.7969"/><polygon fill="#000000" points="986.5,727.7969,976.5,731.7969,986.5,735.7969,982.5,731.7969" style="stroke:#000000;stroke-width:1.0;"/><text fill="#000000" font-family="sans-serif" font-size="20" lengthAdjust="spacing" textLength="192" x="982.5" y="712.0801">VerifyToken(token)</text><path d="M586.5,746.7969 L662.5,746.7969 L662.5,762.0781 L652.5,772.0781 L586.5,772.0781 L586.5,746.7969 " fill="#EEEEEE" style="stroke:#000000;stroke-width:1.5;"/><rect fill="none" height="623.7813" style="stroke:#000000;stroke-width:1.5;" width="2058.5" x="586.5" y="746.7969"/><text fill="#000000" font-family="sans-serif" font-size="20" font-weight="bold" lengthAdjust="spacing" textLength="31" x="601.5" y="766.3613">alt</text><text fill="#000000" font-family="sans-serif" font-size="20" font-weight="bold" lengthAdjust="spacing" textLength="171" x="677.5" y="767.3613">[token is valid]</text><polygon fill="#000000" points="1967,805.6406,1977,809.6406,1967,813.6406,1971,809.6406" style="stroke:#000000;stroke-width:1.0;"/><line style="stroke:#000000;stroke-width:1.0;" x1="975.5" x2="1973" y1="809.6406" y2="809.6406"/><text fill="#000000" font-family="sans-serif" font-size="20" lengthAdjust="spacing" textLength="217" x="982.5" y="802.9238">GetByIdAsync(userId)</text><polygon fill="#000000" points="2564,842.9219,2574,846.9219,2564,850.9219,2568,846.9219" style="stroke:#000000;stroke-width:1.0;"/><line style="stroke:#000000;stroke-width:1.0;" x1="1989" x2="2570" y1="846.9219" y2="846.9219"/><text fill="#000000" font-family="sans-serif" font-size="20" lengthAdjust="spacing" textLength="568" x="1996" y="840.2051">_objs.Where(x =&gt; id.Equals(x.Id)).FirstOrDefaultAsync();</text><polygon fill="#000000" points="2000,880.2031,1990,884.2031,2000,888.2031,1996,884.2031" style="stroke:#000000;stroke-width:1.0;"/><line style="stroke:#000000;stroke-width:1.0;stroke-dasharray:2.0,2.0;" x1="1994" x2="2580" y1="884.2031" y2="884.2031"/><text fill="#000000" font-family="sans-serif" font-size="20" lengthAdjust="spacing" textLength="129" x="2006" y="877.4863">Returns User</text><polygon fill="#000000" points="986.5,917.4844,976.5,921.4844,986.5,925.4844,982.5,921.4844" style="stroke:#000000;stroke-width:1.0;"/><line style="stroke:#000000;stroke-width:1.0;stroke-dasharray:2.0,2.0;" x1="980.5" x2="1983" y1="921.4844" y2="921.4844"/><text fill="#000000" font-family="sans-serif" font-size="20" lengthAdjust="spacing" textLength="129" x="992.5" y="914.7676">Returns User</text><polygon fill="#000000" points="1967,954.7656,1977,958.7656,1967,962.7656,1971,958.7656" style="stroke:#000000;stroke-width:1.0;"/><line style="stroke:#000000;stroke-width:1.0;" x1="975.5" x2="1973" y1="958.7656" y2="958.7656"/><text fill="#000000" font-family="sans-serif" font-size="20" lengthAdjust="spacing" textLength="140" x="982.5" y="952.0488">Remove(user)</text><polygon fill="#000000" points="2564,992.0469,2574,996.0469,2564,1000.0469,2568,996.0469" style="stroke:#000000;stroke-width:1.0;"/><line style="stroke:#000000;stroke-width:1.0;" x1="1989" x2="2570" y1="996.0469" y2="996.0469"/><text fill="#000000" font-family="sans-serif" font-size="20" lengthAdjust="spacing" textLength="197" x="1996" y="989.3301">_objs.Remove(user)</text><polygon fill="#000000" points="2250.5,1059.3281,2260.5,1063.3281,2250.5,1067.3281,2254.5,1063.3281" style="stroke:#000000;stroke-width:1.0;"/><line style="stroke:#000000;stroke-width:1.0;" x1="975.5" x2="2256.5" y1="1063.3281" y2="1063.3281"/><text fill="#000000" font-family="sans-serif" font-size="20" lengthAdjust="spacing" textLength="738" x="982.5" y="1056.6113">new Log(TypeOfAction.Delete, userId, "User of Type Patient was deleted."</text><line style="stroke:#000000;stroke-width:1.0;" x1="2272.5" x2="2314.5" y1="1105.6094" y2="1105.6094"/><line style="stroke:#000000;stroke-width:1.0;" x1="2314.5" x2="2314.5" y1="1105.6094" y2="1118.6094"/><line style="stroke:#000000;stroke-width:1.0;" x1="2267.5" x2="2314.5" y1="1118.6094" y2="1118.6094"/><polygon fill="#000000" points="2277.5,1114.6094,2267.5,1118.6094,2277.5,1122.6094,2273.5,1118.6094" style="stroke:#000000;stroke-width:1.0;"/><text fill="#000000" font-family="sans-serif" font-size="20" lengthAdjust="spacing" textLength="52" x="2279.5" y="1098.8926">Log()</text><polygon fill="#000000" points="2137.5,1146.8906,2147.5,1150.8906,2137.5,1154.8906,2141.5,1150.8906" style="stroke:#000000;stroke-width:1.0;"/><line style="stroke:#000000;stroke-width:1.0;" x1="975.5" x2="2143.5" y1="1150.8906" y2="1150.8906"/><text fill="#000000" font-family="sans-serif" font-size="20" lengthAdjust="spacing" textLength="146" x="982.5" y="1144.1738">AddAsync(log)</text><polygon fill="#000000" points="2564,1184.1719,2574,1188.1719,2564,1192.1719,2568,1188.1719" style="stroke:#000000;stroke-width:1.0;"/><line style="stroke:#000000;stroke-width:1.0;" x1="2159.5" x2="2570" y1="1188.1719" y2="1188.1719"/><text fill="#000000" font-family="sans-serif" font-size="20" lengthAdjust="spacing" textLength="203" x="2166.5" y="1181.4551">_objs.AddAsync(log)</text><polygon fill="#000000" points="2170.5,1221.4531,2160.5,1225.4531,2170.5,1229.4531,2166.5,1225.4531" style="stroke:#000000;stroke-width:1.0;"/><line style="stroke:#000000;stroke-width:1.0;stroke-dasharray:2.0,2.0;" x1="2164.5" x2="2580" y1="1225.4531" y2="1225.4531"/><text fill="#000000" font-family="sans-serif" font-size="20" lengthAdjust="spacing" textLength="120" x="2176.5" y="1218.7363">Returns Log</text><polygon fill="#000000" points="986.5,1258.7344,976.5,1262.7344,986.5,1266.7344,982.5,1262.7344" style="stroke:#000000;stroke-width:1.0;"/><line style="stroke:#000000;stroke-width:1.0;stroke-dasharray:2.0,2.0;" x1="980.5" x2="2153.5" y1="1262.7344" y2="1262.7344"/><text fill="#000000" font-family="sans-serif" font-size="20" lengthAdjust="spacing" textLength="120" x="992.5" y="1256.0176">Returns Log</text><polygon fill="#000000" points="691.5,1296.0156,681.5,1300.0156,691.5,1304.0156,687.5,1300.0156" style="stroke:#000000;stroke-width:1.0;"/><line style="stroke:#000000;stroke-width:1.0;stroke-dasharray:2.0,2.0;" x1="685.5" x2="964.5" y1="1300.0156" y2="1300.0156"/><text fill="#000000" font-family="sans-serif" font-size="20" lengthAdjust="spacing" textLength="62" x="697.5" y="1293.2988">return</text><line style="stroke:#000000;stroke-width:1.0;stroke-dasharray:2.0,2.0;" x1="586.5" x2="2645" y1="1309.0156" y2="1309.0156"/><text fill="#000000" font-family="sans-serif" font-size="20" font-weight="bold" lengthAdjust="spacing" textLength="192" x="591.5" y="1327.5801">[token is invalid]</text><polygon fill="#000000" points="691.5,1358.5781,681.5,1362.5781,691.5,1366.5781,687.5,1362.5781" style="stroke:#000000;stroke-width:1.0;"/><line style="stroke:#000000;stroke-width:1.0;" x1="685.5" x2="964.5" y1="1362.5781" y2="1362.5781"/><text fill="#000000" font-family="sans-serif" font-size="20" lengthAdjust="spacing" textLength="261" x="697.5" y="1355.8613">return exception message</text><polygon fill="#000000" points="31.5,1402.8594,21.5,1406.8594,31.5,1410.8594,27.5,1406.8594" style="stroke:#000000;stroke-width:1.0;"/><line style="stroke:#000000;stroke-width:1.0;stroke-dasharray:2.0,2.0;" x1="25.5" x2="674.5" y1="1406.8594" y2="1406.8594"/><text fill="#000000" font-family="sans-serif" font-size="20" lengthAdjust="spacing" textLength="413" x="37.5" y="1400.1426">Returns Operation Status Response Code</text><!--SRC=[hLNRRjf047tVhnYHXuAKe5xK6sqZOMotaLmbicdxM6ti2MmnNdTtWT2g_zvPhmCsE56hbWS3EsTcpyoS6Uk5A4gk-3ANwG8poF26ht8Joi8auWV2qyUC6M5oX0ZNcCCp-EZ7u0i-8n_6vY93m6Lfjh34vJKgpHxfkv0GYGBDjaIGoimbOtjBcdEjuIS3-dWyNSoKN1NPHEPIlNsxvlaABw-_OMhEp-74Vn6CmrVTK2LbXGdzmFCVTsCqghL8iGhr97mQU5qm2X64huENbMsibDouOoyd7FlLv5xI2PzXDtiu2RpmUUXP5vuQEWW3u9gUZBoDI4N92mEzJyHgGaLMCizHzInaSen87FNAdBJDmPABl6aFacF_64kf1R7OLf2uZOZax00G7IFSUVlOvuPVS-tkzJt6ACUpSvYC8C4Yq_1XEhs26B-lK1lO23C78nTOq1DKVPfXZWPXHII1fodLpzXwYJMdqmcRs7Z9w2w8Nw7xLPJ17fUmGjAN4hEv0NbZ7QPpeKcA9BSCrgZ4ZK0DPevGAhaciMOr5LvanCMiLE7C2dM9DcxDIMGigJbyjc6sK-jsnw0onIDuZyRRNcHZlItIllMxo1hqOXPRdE-DuAky_gQ7N-Qei7yBxyuf_Z3ulkAvxjyEoMam38NIvbBvRlvSnC6RVJ0gi-_1cRithfdR7hCCcw2umYJtOsB7FaXSjoeTLTo7rSzJQg_hZNMyQq3lb78jK5406kg5gyCEQf6zHk8anI2fUDXRzEwMGPC7WHo6PECwqRGcLW9a38Dz9fUb9I1a0OdXPaLwfgR9GfDWP8PDxybVABAXn2u5xZFiaDy34k6vgUyWGT968q7PTV6WSYoWqIVxzzyLr0hgk-LtZvAigQsccaA7eWwmSIkx69ToZLLUVvBL_V2QmZ6fxgkZ4HIu0LfR_IczTovlngdLoz0ryHHSeK_TShGRmwBWYaI5jDSsjCsS6h9XhyqZglv6zHqs_k2GHjIWGIKOPtLpSpaxI2foZAE3AZpWqMvRrEWRKRcdGj5HtpgmqQvuhK74d8PgfrvH7EXt1mIyJR6iHdA9MjDRaT6u_Syv_Wq0]--></g></svg>