<?xml version="1.0" encoding="UTF-8" standalone="no"?><svg xmlns="http://www.w3.org/2000/svg" xmlns:xlink="http://www.w3.org/1999/xlink" contentStyleType="text/css" height="1169px" preserveAspectRatio="none" style="width:3193px;height:1169px;background:#FFFFFF;" version="1.1" viewBox="0 0 3193 1169" width="3193px" zoomAndPan="magnify"><defs/><g><text fill="#000000" font-family="sans-serif" font-size="14" font-weight="bold" lengthAdjust="spacing" textLength="149" x="1524" y="27.9951">Level 3 FE Diagram</text><rect fill="#FFFFFF" height="937.0313" style="stroke:#181818;stroke-width:1.0;" width="10" x="53.5" y="135.5781"/><rect fill="#FFFFFF" height="502.6563" style="stroke:#181818;stroke-width:1.0;" width="10" x="467.5" y="164.8594"/><rect fill="#FFFFFF" height="311.25" style="stroke:#181818;stroke-width:1.0;" width="10" x="467.5" y="745.3594"/><rect fill="#FFFFFF" height="428.0938" style="stroke:#181818;stroke-width:1.0;" width="10" x="881.5" y="202.1406"/><rect fill="#FFFFFF" height="236.6875" style="stroke:#181818;stroke-width:1.0;" width="10" x="1154.5" y="782.6406"/><rect fill="#FFFFFF" height="353.5313" style="stroke:#181818;stroke-width:1.0;" width="10" x="1370" y="239.4219"/><rect fill="#FFFFFF" height="162.125" style="stroke:#181818;stroke-width:1.0;" width="10" x="1563.5" y="819.9219"/><rect fill="#FFFFFF" height="278.9688" style="stroke:#181818;stroke-width:1.0;" width="10" x="2030" y="276.7031"/><rect fill="#FFFFFF" height="87.5625" style="stroke:#181818;stroke-width:1.0;" width="10" x="2690" y="430.8281"/><rect fill="#FFFFFF" height="87.5625" style="stroke:#181818;stroke-width:1.0;" width="10" x="2690" y="857.2031"/><rect fill="#EBF5FB" height="382.0938" style="stroke:#000000;stroke-width:1.5;" width="3142" x="10" y="682.5156"/><line style="stroke:#181818;stroke-width:0.5;stroke-dasharray:5.0,5.0;" x1="58" x2="58" y1="125.5781" y2="1081.6094"/><line style="stroke:#181818;stroke-width:0.5;stroke-dasharray:5.0,5.0;" x1="472" x2="472" y1="125.5781" y2="1081.6094"/><line style="stroke:#181818;stroke-width:0.5;stroke-dasharray:5.0,5.0;" x1="886" x2="886" y1="125.5781" y2="1081.6094"/><line style="stroke:#181818;stroke-width:0.5;stroke-dasharray:5.0,5.0;" x1="1159" x2="1159" y1="125.5781" y2="1081.6094"/><line style="stroke:#181818;stroke-width:0.5;stroke-dasharray:5.0,5.0;" x1="1375" x2="1375" y1="125.5781" y2="1081.6094"/><line style="stroke:#181818;stroke-width:0.5;stroke-dasharray:5.0,5.0;" x1="1568" x2="1568" y1="125.5781" y2="1081.6094"/><line style="stroke:#181818;stroke-width:0.5;stroke-dasharray:5.0,5.0;" x1="2034.5" x2="2034.5" y1="125.5781" y2="1081.6094"/><line style="stroke:#181818;stroke-width:0.5;stroke-dasharray:5.0,5.0;" x1="2695" x2="2695" y1="125.5781" y2="1081.6094"/><text fill="#000000" font-family="sans-serif" font-size="20" lengthAdjust="spacing" textLength="71" x="20" y="120.8613">Patient</text><ellipse cx="58.5" cy="50.7969" fill="#E2E2F0" rx="8" ry="8" style="stroke:#181818;stroke-width:0.5;"/><path d="M58.5,58.7969 L58.5,85.7969 M45.5,66.7969 L71.5,66.7969 M58.5,85.7969 L45.5,100.7969 M58.5,85.7969 L71.5,100.7969 " fill="none" style="stroke:#181818;stroke-width:0.5;"/><text fill="#000000" font-family="sans-serif" font-size="20" lengthAdjust="spacing" textLength="71" x="20" y="1099.1738">Patient</text><ellipse cx="58.5" cy="1112.3906" fill="#E2E2F0" rx="8" ry="8" style="stroke:#181818;stroke-width:0.5;"/><path d="M58.5,1120.3906 L58.5,1147.3906 M45.5,1128.3906 L71.5,1128.3906 M58.5,1147.3906 L45.5,1162.3906 M58.5,1147.3906 L71.5,1162.3906 " fill="none" style="stroke:#181818;stroke-width:0.5;"/><rect fill="#E2E2F0" height="37.2813" rx="2.5" ry="2.5" style="stroke:#181818;stroke-width:0.5;" width="63" x="441" y="87.2969"/><text fill="#000000" font-family="sans-serif" font-size="20" lengthAdjust="spacing" textLength="49" x="448" y="112.8613">View</text><rect fill="#E2E2F0" height="37.2813" rx="2.5" ry="2.5" style="stroke:#181818;stroke-width:0.5;" width="63" x="441" y="1080.6094"/><text fill="#000000" font-family="sans-serif" font-size="20" lengthAdjust="spacing" textLength="49" x="448" y="1106.1738">View</text><rect fill="#E2E2F0" height="37.2813" rx="2.5" ry="2.5" style="stroke:#181818;stroke-width:0.5;" width="285" x="744" y="87.2969"/><text fill="#000000" font-family="sans-serif" font-size="20" lengthAdjust="spacing" textLength="271" x="751" y="112.8613">PatientSettingsComponent</text><rect fill="#E2E2F0" height="37.2813" rx="2.5" ry="2.5" style="stroke:#181818;stroke-width:0.5;" width="285" x="744" y="1080.6094"/><text fill="#000000" font-family="sans-serif" font-size="20" lengthAdjust="spacing" textLength="271" x="751" y="1106.1738">PatientSettingsComponent</text><rect fill="#E2E2F0" height="37.2813" rx="2.5" ry="2.5" style="stroke:#181818;stroke-width:0.5;" width="241" x="1039" y="87.2969"/><text fill="#000000" font-family="sans-serif" font-size="20" lengthAdjust="spacing" textLength="227" x="1046" y="112.8613">DeleteUserComponent</text><rect fill="#E2E2F0" height="37.2813" rx="2.5" ry="2.5" style="stroke:#181818;stroke-width:0.5;" width="241" x="1039" y="1080.6094"/><text fill="#000000" font-family="sans-serif" font-size="20" lengthAdjust="spacing" textLength="227" x="1046" y="1106.1738">DeleteUserComponent</text><rect fill="#E2E2F0" height="37.2813" rx="2.5" ry="2.5" style="stroke:#181818;stroke-width:0.5;" width="170" x="1290" y="87.2969"/><text fill="#000000" font-family="sans-serif" font-size="20" lengthAdjust="spacing" textLength="156" x="1297" y="112.8613">SettingsService</text><rect fill="#E2E2F0" height="37.2813" rx="2.5" ry="2.5" style="stroke:#181818;stroke-width:0.5;" width="170" x="1290" y="1080.6094"/><text fill="#000000" font-family="sans-serif" font-size="20" lengthAdjust="spacing" textLength="156" x="1297" y="1106.1738">SettingsService</text><rect fill="#E2E2F0" height="37.2813" rx="2.5" ry="2.5" style="stroke:#181818;stroke-width:0.5;" width="197" x="1470" y="87.2969"/><text fill="#000000" font-family="sans-serif" font-size="20" lengthAdjust="spacing" textLength="183" x="1477" y="112.8613">DeleteUserService</text><rect fill="#E2E2F0" height="37.2813" rx="2.5" ry="2.5" style="stroke:#181818;stroke-width:0.5;" width="197" x="1470" y="1080.6094"/><text fill="#000000" font-family="sans-serif" font-size="20" lengthAdjust="spacing" textLength="183" x="1477" y="1106.1738">DeleteUserService</text><rect fill="#E2E2F0" height="37.2813" rx="2.5" ry="2.5" style="stroke:#181818;stroke-width:0.5;" width="173" x="1948.5" y="87.2969"/><text fill="#000000" font-family="sans-serif" font-size="20" lengthAdjust="spacing" textLength="159" x="1955.5" y="112.8613">AuthInterceptor</text><rect fill="#E2E2F0" height="37.2813" rx="2.5" ry="2.5" style="stroke:#181818;stroke-width:0.5;" width="173" x="1948.5" y="1080.6094"/><text fill="#000000" font-family="sans-serif" font-size="20" lengthAdjust="spacing" textLength="159" x="1955.5" y="1106.1738">AuthInterceptor</text><rect fill="#E2E2F0" height="37.2813" rx="2.5" ry="2.5" style="stroke:#181818;stroke-width:0.5;" width="60" x="2665" y="87.2969"/><text fill="#000000" font-family="sans-serif" font-size="20" lengthAdjust="spacing" textLength="46" x="2672" y="112.8613">MDR</text><rect fill="#E2E2F0" height="37.2813" rx="2.5" ry="2.5" style="stroke:#181818;stroke-width:0.5;" width="60" x="2665" y="1080.6094"/><text fill="#000000" font-family="sans-serif" font-size="20" lengthAdjust="spacing" textLength="46" x="2672" y="1106.1738">MDR</text><rect fill="#FFFFFF" height="937.0313" style="stroke:#181818;stroke-width:1.0;" width="10" x="53.5" y="135.5781"/><rect fill="#FFFFFF" height="502.6563" style="stroke:#181818;stroke-width:1.0;" width="10" x="467.5" y="164.8594"/><rect fill="#FFFFFF" height="311.25" style="stroke:#181818;stroke-width:1.0;" width="10" x="467.5" y="745.3594"/><rect fill="#FFFFFF" height="428.0938" style="stroke:#181818;stroke-width:1.0;" width="10" x="881.5" y="202.1406"/><rect fill="#FFFFFF" height="236.6875" style="stroke:#181818;stroke-width:1.0;" width="10" x="1154.5" y="782.6406"/><rect fill="#FFFFFF" height="353.5313" style="stroke:#181818;stroke-width:1.0;" width="10" x="1370" y="239.4219"/><rect fill="#FFFFFF" height="162.125" style="stroke:#181818;stroke-width:1.0;" width="10" x="1563.5" y="819.9219"/><rect fill="#FFFFFF" height="278.9688" style="stroke:#181818;stroke-width:1.0;" width="10" x="2030" y="276.7031"/><rect fill="#FFFFFF" height="87.5625" style="stroke:#181818;stroke-width:1.0;" width="10" x="2690" y="430.8281"/><rect fill="#FFFFFF" height="87.5625" style="stroke:#181818;stroke-width:1.0;" width="10" x="2690" y="857.2031"/><polygon fill="#000000" points="455.5,160.8594,465.5,164.8594,455.5,168.8594,459.5,164.8594" style="stroke:#000000;stroke-width:1.0;"/><line style="stroke:#000000;stroke-width:1.0;" x1="63.5" x2="461.5" y1="164.8594" y2="164.8594"/><text fill="#000000" font-family="sans-serif" font-size="20" lengthAdjust="spacing" textLength="377" x="70.5" y="158.1426">Makes a request to delete user profile</text><polygon fill="#000000" points="869.5,198.1406,879.5,202.1406,869.5,206.1406,873.5,202.1406" style="stroke:#000000;stroke-width:1.0;"/><line style="stroke:#000000;stroke-width:1.0;" x1="477.5" x2="875.5" y1="202.1406" y2="202.1406"/><text fill="#000000" font-family="sans-serif" font-size="20" lengthAdjust="spacing" textLength="114" x="484.5" y="195.4238">onSubmit()</text><polygon fill="#000000" points="1358,235.4219,1368,239.4219,1358,243.4219,1362,239.4219" style="stroke:#000000;stroke-width:1.0;"/><line style="stroke:#000000;stroke-width:1.0;" x1="891.5" x2="1364" y1="239.4219" y2="239.4219"/><text fill="#000000" font-family="sans-serif" font-size="20" lengthAdjust="spacing" textLength="218" x="898.5" y="232.7051">deleteAccount(token)</text><polygon fill="#000000" points="2018,272.7031,2028,276.7031,2018,280.7031,2022,276.7031" style="stroke:#000000;stroke-width:1.0;"/><line style="stroke:#000000;stroke-width:1.0;" x1="1380" x2="2024" y1="276.7031" y2="276.7031"/><text fill="#000000" font-family="sans-serif" font-size="20" lengthAdjust="spacing" textLength="631" x="1387" y="269.9863">Sends HTTP Request with token to request delete user account</text><line style="stroke:#000000;stroke-width:1.0;" x1="2040" x2="2082" y1="313.9844" y2="313.9844"/><line style="stroke:#000000;stroke-width:1.0;" x1="2082" x2="2082" y1="313.9844" y2="326.9844"/><line style="stroke:#000000;stroke-width:1.0;" x1="2041" x2="2082" y1="326.9844" y2="326.9844"/><polygon fill="#000000" points="2051,322.9844,2041,326.9844,2051,330.9844,2047,326.9844" style="stroke:#000000;stroke-width:1.0;"/><text fill="#000000" font-family="sans-serif" font-size="20" lengthAdjust="spacing" textLength="563" x="2047" y="307.2676">Intercepts the request and adds the token to the header</text><path d="M2045,339.9844 L2045,395.9844 L2564,395.9844 L2564,349.9844 L2554,339.9844 L2045,339.9844 " fill="#FEFFDD" style="stroke:#181818;stroke-width:0.5;"/><path d="M2554,339.9844 L2554,349.9844 L2564,349.9844 L2554,339.9844 " fill="#FEFFDD" style="stroke:#181818;stroke-width:0.5;"/><text fill="#000000" font-family="sans-serif" font-size="20" lengthAdjust="spacing" textLength="498" x="2051" y="363.5488">The token is added to the header so that the MDR</text><text fill="#000000" font-family="sans-serif" font-size="20" lengthAdjust="spacing" textLength="442" x="2051" y="386.8301">can authenticate and authorize the request.</text><polygon fill="#000000" points="2678,426.8281,2688,430.8281,2678,434.8281,2682,430.8281" style="stroke:#000000;stroke-width:1.0;"/><line style="stroke:#000000;stroke-width:1.0;" x1="2040" x2="2684" y1="430.8281" y2="430.8281"/><text fill="#000000" font-family="sans-serif" font-size="20" lengthAdjust="spacing" textLength="631" x="2047" y="424.1113">Sends HTTP Request with token to request delete user account</text><line style="stroke:#000000;stroke-width:1.0;" x1="2700" x2="2742" y1="468.1094" y2="468.1094"/><line style="stroke:#000000;stroke-width:1.0;" x1="2742" x2="2742" y1="468.1094" y2="481.1094"/><line style="stroke:#000000;stroke-width:1.0;" x1="2701" x2="2742" y1="481.1094" y2="481.1094"/><polygon fill="#000000" points="2711,477.1094,2701,481.1094,2711,485.1094,2707,481.1094" style="stroke:#000000;stroke-width:1.0;"/><text fill="#000000" font-family="sans-serif" font-size="20" lengthAdjust="spacing" textLength="479" x="2707" y="461.3926">Validates token and tries to process the request</text><polygon fill="#000000" points="2051,514.3906,2041,518.3906,2051,522.3906,2047,518.3906" style="stroke:#000000;stroke-width:1.0;"/><line style="stroke:#000000;stroke-width:1.0;stroke-dasharray:2.0,2.0;" x1="2045" x2="2694" y1="518.3906" y2="518.3906"/><text fill="#000000" font-family="sans-serif" font-size="20" lengthAdjust="spacing" textLength="311" x="2057" y="511.6738">Returns Operation Status Code</text><polygon fill="#000000" points="1391,551.6719,1381,555.6719,1391,559.6719,1387,555.6719" style="stroke:#000000;stroke-width:1.0;"/><line style="stroke:#000000;stroke-width:1.0;stroke-dasharray:2.0,2.0;" x1="1385" x2="2034" y1="555.6719" y2="555.6719"/><text fill="#000000" font-family="sans-serif" font-size="20" lengthAdjust="spacing" textLength="311" x="1397" y="548.9551">Returns Operation Status Code</text><polygon fill="#000000" points="902.5,588.9531,892.5,592.9531,902.5,596.9531,898.5,592.9531" style="stroke:#000000;stroke-width:1.0;"/><line style="stroke:#000000;stroke-width:1.0;stroke-dasharray:2.0,2.0;" x1="896.5" x2="1374" y1="592.9531" y2="592.9531"/><text fill="#000000" font-family="sans-serif" font-size="20" lengthAdjust="spacing" textLength="286" x="908.5" y="586.2363">Returns Operation Response</text><polygon fill="#000000" points="488.5,626.2344,478.5,630.2344,488.5,634.2344,484.5,630.2344" style="stroke:#000000;stroke-width:1.0;"/><line style="stroke:#000000;stroke-width:1.0;stroke-dasharray:2.0,2.0;" x1="482.5" x2="885.5" y1="630.2344" y2="630.2344"/><text fill="#000000" font-family="sans-serif" font-size="20" lengthAdjust="spacing" textLength="380" x="494.5" y="623.5176">Returns Operation In/Sucess message</text><polygon fill="#000000" points="74.5,663.5156,64.5,667.5156,74.5,671.5156,70.5,667.5156" style="stroke:#000000;stroke-width:1.0;"/><line style="stroke:#000000;stroke-width:1.0;stroke-dasharray:2.0,2.0;" x1="68.5" x2="471.5" y1="667.5156" y2="667.5156"/><text fill="#000000" font-family="sans-serif" font-size="20" lengthAdjust="spacing" textLength="380" x="80.5" y="660.7988">Returns Operation In/Sucess message</text><path d="M10,682.5156 L86,682.5156 L86,697.7969 L76,707.7969 L10,707.7969 L10,682.5156 " fill="#EEEEEE" style="stroke:#000000;stroke-width:1.5;"/><rect fill="none" height="382.0938" style="stroke:#000000;stroke-width:1.5;" width="3142" x="10" y="682.5156"/><text fill="#000000" font-family="sans-serif" font-size="20" font-weight="bold" lengthAdjust="spacing" textLength="31" x="25" y="702.0801">alt</text><text fill="#000000" font-family="sans-serif" font-size="20" font-weight="bold" lengthAdjust="spacing" textLength="400" x="101" y="703.0801">[request response was successfull]</text><polygon fill="#000000" points="455.5,741.3594,465.5,745.3594,455.5,749.3594,459.5,745.3594" style="stroke:#000000;stroke-width:1.0;"/><line style="stroke:#000000;stroke-width:1.0;" x1="63.5" x2="461.5" y1="745.3594" y2="745.3594"/><text fill="#000000" font-family="sans-serif" font-size="20" lengthAdjust="spacing" textLength="305" x="70.5" y="738.6426">Confirms the account Deletion</text><polygon fill="#000000" points="1142.5,778.6406,1152.5,782.6406,1142.5,786.6406,1146.5,782.6406" style="stroke:#000000;stroke-width:1.0;"/><line style="stroke:#000000;stroke-width:1.0;" x1="477.5" x2="1148.5" y1="782.6406" y2="782.6406"/><text fill="#000000" font-family="sans-serif" font-size="20" lengthAdjust="spacing" textLength="106" x="484.5" y="775.9238">onDelete()</text><polygon fill="#000000" points="1551.5,815.9219,1561.5,819.9219,1551.5,823.9219,1555.5,819.9219" style="stroke:#000000;stroke-width:1.0;"/><line style="stroke:#000000;stroke-width:1.0;" x1="1164.5" x2="1557.5" y1="819.9219" y2="819.9219"/><text fill="#000000" font-family="sans-serif" font-size="20" lengthAdjust="spacing" textLength="218" x="1171.5" y="813.2051">deleteAccount(token)</text><polygon fill="#000000" points="2678,853.2031,2688,857.2031,2678,861.2031,2682,857.2031" style="stroke:#000000;stroke-width:1.0;"/><line style="stroke:#000000;stroke-width:1.0;" x1="1573.5" x2="2684" y1="857.2031" y2="857.2031"/><text fill="#000000" font-family="sans-serif" font-size="20" lengthAdjust="spacing" textLength="463" x="1580.5" y="850.4863">Sends HTTP Request with token to delete user</text><line style="stroke:#000000;stroke-width:1.0;" x1="2700" x2="2742" y1="894.4844" y2="894.4844"/><line style="stroke:#000000;stroke-width:1.0;" x1="2742" x2="2742" y1="894.4844" y2="907.4844"/><line style="stroke:#000000;stroke-width:1.0;" x1="2701" x2="2742" y1="907.4844" y2="907.4844"/><polygon fill="#000000" points="2711,903.4844,2701,907.4844,2711,911.4844,2707,907.4844" style="stroke:#000000;stroke-width:1.0;"/><text fill="#000000" font-family="sans-serif" font-size="20" lengthAdjust="spacing" textLength="433" x="2707" y="887.7676">Validates token and tries to delete the user</text><polygon fill="#000000" points="1584.5,940.7656,1574.5,944.7656,1584.5,948.7656,1580.5,944.7656" style="stroke:#000000;stroke-width:1.0;"/><line style="stroke:#000000;stroke-width:1.0;stroke-dasharray:2.0,2.0;" x1="1578.5" x2="2694" y1="944.7656" y2="944.7656"/><text fill="#000000" font-family="sans-serif" font-size="20" lengthAdjust="spacing" textLength="311" x="1590.5" y="938.0488">Returns Operation Status Code</text><polygon fill="#000000" points="1175.5,978.0469,1165.5,982.0469,1175.5,986.0469,1171.5,982.0469" style="stroke:#000000;stroke-width:1.0;"/><line style="stroke:#000000;stroke-width:1.0;stroke-dasharray:2.0,2.0;" x1="1169.5" x2="1567.5" y1="982.0469" y2="982.0469"/><text fill="#000000" font-family="sans-serif" font-size="20" lengthAdjust="spacing" textLength="286" x="1181.5" y="975.3301">Returns Operation Response</text><polygon fill="#000000" points="488.5,1015.3281,478.5,1019.3281,488.5,1023.3281,484.5,1019.3281" style="stroke:#000000;stroke-width:1.0;"/><line style="stroke:#000000;stroke-width:1.0;stroke-dasharray:2.0,2.0;" x1="482.5" x2="1158.5" y1="1019.3281" y2="1019.3281"/><text fill="#000000" font-family="sans-serif" font-size="20" lengthAdjust="spacing" textLength="380" x="494.5" y="1012.6113">Returns Operation In/Sucess message</text><polygon fill="#000000" points="74.5,1052.6094,64.5,1056.6094,74.5,1060.6094,70.5,1056.6094" style="stroke:#000000;stroke-width:1.0;"/><line style="stroke:#000000;stroke-width:1.0;stroke-dasharray:2.0,2.0;" x1="68.5" x2="471.5" y1="1056.6094" y2="1056.6094"/><text fill="#000000" font-family="sans-serif" font-size="20" lengthAdjust="spacing" textLength="380" x="80.5" y="1049.8926">Returns Operation In/Sucess message</text><!--SRC=[hLJBRjim4BphAnR9eUcXRPgYBoC8O5iMQY1133FHdP7MDck9L4dAHbhqtxka7fOS9t206f05hcQ6kyjPchMG1TSyprIonXHINF0oiv6IbedV21VdGM25pH2kSOCPV89e0g7WIw84mKga29WNzX5op1zGc-2DQHJXMaYqZmM2qdQbWc3t9ScuCV0d0FgDUB9UQbNATAmofIylDpmhyVRX9oRswWfEmo-JOVJjC5GhvJ5HE1c5vuSn1lL69EYbFaONaz4X64bCek-Jh_xRK6krhSAZZ731tsxk1KNu4Wzd3wUJKVGv6ZaAJom5PjmAb1QuWLb02bOaek0KE8a5RazSFEx7QmP3QuLSch7A2oKfuB4pDkwZGypGuZrLsGU6ztl0HezL_V0WnfuJwwB2-ptOiBIhgRIe4ooeHWyQJlkOct3ku_JshH0RRf5QC8DtLn0Fu8QlqG07ZRzAD1Qi8k-vtQ6axQ7GQY4ot37Z87PCgdy0IhBo8HVsx6r7cHf3ZyCmDgYrXab2HsFFh5gZx82fRiOST3WT04EP6lXnTpU3UPtCLjWLU9BBgqcncn-lb7UILFzmsaYspJ5WLzWAS9a2JzCgsCgxnGfvYZgGYfIqMAuig8MJT1QxQy72E3fDQOy5ngsuzI7NRaTAk0HEnqHs48dBp-zD0QNTM7UoUXzG_U1shWiWYV_L59SDFQrgp3EHqWTJwxYah1P-xOuyGTFhM4Mkcpf7MsffuBP0JIEY933BRMbWh58CKkpjwagfhN0qZ_hjND6ux2blZeOcpFH8P2LlkyhLJpbJ-O6LlgwS_kZYw9ATQUDgnrTpuu1djZq6NQS6MvevKoQEjIYpp9kXcRcnaWkXywh5zM61dtdQpIDtwk3NVkReAd4pLrqED7CzeBjdN83U5VQvuTjZiPh5ZhTSnsfzjSRqHrkjLd9jQDKQg_aANlQCW-_vhIscwTSBxjcZxthnAXizKHat9tQydVOqOdSL_0C0]--></g></svg>