<?xml version="1.0" encoding="UTF-8" standalone="no"?><svg xmlns="http://www.w3.org/2000/svg" xmlns:xlink="http://www.w3.org/1999/xlink" contentStyleType="text/css" height="773px" preserveAspectRatio="none" style="width:2824px;height:773px;background:#FFFFFF;" version="1.1" viewBox="0 0 2824 773" width="2824px" zoomAndPan="magnify"><defs/><g><text fill="#000000" font-family="sans-serif" font-size="14" font-weight="bold" lengthAdjust="spacing" textLength="321" x="1253.5" y="27.9951">Level 3 FE Diagram for Deactivating Staff</text><rect fill="#FFFFFF" height="540.9375" style="stroke:#181818;stroke-width:1.0;" width="10" x="36" y="135.5781"/><rect fill="#FFFFFF" height="502.6563" style="stroke:#181818;stroke-width:1.0;" width="10" x="461" y="164.8594"/><rect fill="#FFFFFF" height="428.0938" style="stroke:#181818;stroke-width:1.0;" width="10" x="886" y="202.1406"/><rect fill="#FFFFFF" height="353.5313" style="stroke:#181818;stroke-width:1.0;" width="10" x="1206" y="239.4219"/><rect fill="#FFFFFF" height="278.9688" style="stroke:#181818;stroke-width:1.0;" width="10" x="1631" y="276.7031"/><rect fill="#FFFFFF" height="87.5625" style="stroke:#181818;stroke-width:1.0;" width="10" x="2218" y="430.8281"/><line style="stroke:#181818;stroke-width:0.5;stroke-dasharray:5.0,5.0;" x1="41" x2="41" y1="125.5781" y2="685.5156"/><line style="stroke:#181818;stroke-width:0.5;stroke-dasharray:5.0,5.0;" x1="465.5" x2="465.5" y1="125.5781" y2="685.5156"/><line style="stroke:#181818;stroke-width:0.5;stroke-dasharray:5.0,5.0;" x1="890.5" x2="890.5" y1="125.5781" y2="685.5156"/><line style="stroke:#181818;stroke-width:0.5;stroke-dasharray:5.0,5.0;" x1="1211" x2="1211" y1="125.5781" y2="685.5156"/><line style="stroke:#181818;stroke-width:0.5;stroke-dasharray:5.0,5.0;" x1="1635.5" x2="1635.5" y1="125.5781" y2="685.5156"/><line style="stroke:#181818;stroke-width:0.5;stroke-dasharray:5.0,5.0;" x1="2223" x2="2223" y1="125.5781" y2="685.5156"/><text fill="#000000" font-family="sans-serif" font-size="20" lengthAdjust="spacing" textLength="66" x="5" y="120.8613">Admin</text><ellipse cx="41" cy="50.7969" fill="#E2E2F0" rx="8" ry="8" style="stroke:#181818;stroke-width:0.5;"/><path d="M41,58.7969 L41,85.7969 M28,66.7969 L54,66.7969 M41,85.7969 L28,100.7969 M41,85.7969 L54,100.7969 " fill="none" style="stroke:#181818;stroke-width:0.5;"/><text fill="#000000" font-family="sans-serif" font-size="20" lengthAdjust="spacing" textLength="66" x="5" y="703.0801">Admin</text><ellipse cx="41" cy="716.2969" fill="#E2E2F0" rx="8" ry="8" style="stroke:#181818;stroke-width:0.5;"/><path d="M41,724.2969 L41,751.2969 M28,732.2969 L54,732.2969 M41,751.2969 L28,766.2969 M41,751.2969 L54,766.2969 " fill="none" style="stroke:#181818;stroke-width:0.5;"/><rect fill="#E2E2F0" height="37.2813" rx="2.5" ry="2.5" style="stroke:#181818;stroke-width:0.5;" width="63" x="434.5" y="87.2969"/><text fill="#000000" font-family="sans-serif" font-size="20" lengthAdjust="spacing" textLength="49" x="441.5" y="112.8613">View</text><rect fill="#E2E2F0" height="37.2813" rx="2.5" ry="2.5" style="stroke:#181818;stroke-width:0.5;" width="63" x="434.5" y="684.5156"/><text fill="#000000" font-family="sans-serif" font-size="20" lengthAdjust="spacing" textLength="49" x="441.5" y="710.0801">View</text><rect fill="#E2E2F0" height="37.2813" rx="2.5" ry="2.5" style="stroke:#181818;stroke-width:0.5;" width="257" x="762.5" y="87.2969"/><text fill="#000000" font-family="sans-serif" font-size="20" lengthAdjust="spacing" textLength="243" x="769.5" y="112.8613">SearchStaffsComponent</text><rect fill="#E2E2F0" height="37.2813" rx="2.5" ry="2.5" style="stroke:#181818;stroke-width:0.5;" width="257" x="762.5" y="684.5156"/><text fill="#000000" font-family="sans-serif" font-size="20" lengthAdjust="spacing" textLength="243" x="769.5" y="710.0801">SearchStaffsComponent</text><rect fill="#E2E2F0" height="37.2813" rx="2.5" ry="2.5" style="stroke:#181818;stroke-width:0.5;" width="134" x="1144" y="87.2969"/><text fill="#000000" font-family="sans-serif" font-size="20" lengthAdjust="spacing" textLength="120" x="1151" y="112.8613">StaffService</text><rect fill="#E2E2F0" height="37.2813" rx="2.5" ry="2.5" style="stroke:#181818;stroke-width:0.5;" width="134" x="1144" y="684.5156"/><text fill="#000000" font-family="sans-serif" font-size="20" lengthAdjust="spacing" textLength="120" x="1151" y="710.0801">StaffService</text><rect fill="#E2E2F0" height="37.2813" rx="2.5" ry="2.5" style="stroke:#181818;stroke-width:0.5;" width="173" x="1549.5" y="87.2969"/><text fill="#000000" font-family="sans-serif" font-size="20" lengthAdjust="spacing" textLength="159" x="1556.5" y="112.8613">AuthInterceptor</text><rect fill="#E2E2F0" height="37.2813" rx="2.5" ry="2.5" style="stroke:#181818;stroke-width:0.5;" width="173" x="1549.5" y="684.5156"/><text fill="#000000" font-family="sans-serif" font-size="20" lengthAdjust="spacing" textLength="159" x="1556.5" y="710.0801">AuthInterceptor</text><rect fill="#E2E2F0" height="37.2813" rx="2.5" ry="2.5" style="stroke:#181818;stroke-width:0.5;" width="60" x="2193" y="87.2969"/><text fill="#000000" font-family="sans-serif" font-size="20" lengthAdjust="spacing" textLength="46" x="2200" y="112.8613">MDR</text><rect fill="#E2E2F0" height="37.2813" rx="2.5" ry="2.5" style="stroke:#181818;stroke-width:0.5;" width="60" x="2193" y="684.5156"/><text fill="#000000" font-family="sans-serif" font-size="20" lengthAdjust="spacing" textLength="46" x="2200" y="710.0801">MDR</text><rect fill="#FFFFFF" height="540.9375" style="stroke:#181818;stroke-width:1.0;" width="10" x="36" y="135.5781"/><rect fill="#FFFFFF" height="502.6563" style="stroke:#181818;stroke-width:1.0;" width="10" x="461" y="164.8594"/><rect fill="#FFFFFF" height="428.0938" style="stroke:#181818;stroke-width:1.0;" width="10" x="886" y="202.1406"/><rect fill="#FFFFFF" height="353.5313" style="stroke:#181818;stroke-width:1.0;" width="10" x="1206" y="239.4219"/><rect fill="#FFFFFF" height="278.9688" style="stroke:#181818;stroke-width:1.0;" width="10" x="1631" y="276.7031"/><rect fill="#FFFFFF" height="87.5625" style="stroke:#181818;stroke-width:1.0;" width="10" x="2218" y="430.8281"/><polygon fill="#000000" points="449,160.8594,459,164.8594,449,168.8594,453,164.8594" style="stroke:#000000;stroke-width:1.0;"/><line style="stroke:#000000;stroke-width:1.0;" x1="46" x2="455" y1="164.8594" y2="164.8594"/><text fill="#000000" font-family="sans-serif" font-size="20" lengthAdjust="spacing" textLength="254" x="53" y="158.1426">Asks to deactivate a Staff</text><polygon fill="#000000" points="874,198.1406,884,202.1406,874,206.1406,878,202.1406" style="stroke:#000000;stroke-width:1.0;"/><line style="stroke:#000000;stroke-width:1.0;" x1="471" x2="880" y1="202.1406" y2="202.1406"/><text fill="#000000" font-family="sans-serif" font-size="20" lengthAdjust="spacing" textLength="187" x="478" y="195.4238">deactivateStaff(id)</text><polygon fill="#000000" points="1194,235.4219,1204,239.4219,1194,243.4219,1198,239.4219" style="stroke:#000000;stroke-width:1.0;"/><line style="stroke:#000000;stroke-width:1.0;" x1="896" x2="1200" y1="239.4219" y2="239.4219"/><text fill="#000000" font-family="sans-serif" font-size="20" lengthAdjust="spacing" textLength="187" x="903" y="232.7051">deactivateStaff(id)</text><polygon fill="#000000" points="1619,272.7031,1629,276.7031,1619,280.7031,1623,276.7031" style="stroke:#000000;stroke-width:1.0;"/><line style="stroke:#000000;stroke-width:1.0;" x1="1216" x2="1625" y1="276.7031" y2="276.7031"/><text fill="#000000" font-family="sans-serif" font-size="20" lengthAdjust="spacing" textLength="396" x="1223" y="269.9863">Sends HTTP Request to deactivate Staff</text><line style="stroke:#000000;stroke-width:1.0;" x1="1641" x2="1683" y1="313.9844" y2="313.9844"/><line style="stroke:#000000;stroke-width:1.0;" x1="1683" x2="1683" y1="313.9844" y2="326.9844"/><line style="stroke:#000000;stroke-width:1.0;" x1="1642" x2="1683" y1="326.9844" y2="326.9844"/><polygon fill="#000000" points="1652,322.9844,1642,326.9844,1652,330.9844,1648,326.9844" style="stroke:#000000;stroke-width:1.0;"/><text fill="#000000" font-family="sans-serif" font-size="20" lengthAdjust="spacing" textLength="563" x="1648" y="307.2676">Intercepts the request and adds the token to the header</text><path d="M1646,339.9844 L1646,395.9844 L2165,395.9844 L2165,349.9844 L2155,339.9844 L1646,339.9844 " fill="#FEFFDD" style="stroke:#181818;stroke-width:0.5;"/><path d="M2155,339.9844 L2155,349.9844 L2165,349.9844 L2155,339.9844 " fill="#FEFFDD" style="stroke:#181818;stroke-width:0.5;"/><text fill="#000000" font-family="sans-serif" font-size="20" lengthAdjust="spacing" textLength="498" x="1652" y="363.5488">The token is added to the header so that the MDR</text><text fill="#000000" font-family="sans-serif" font-size="20" lengthAdjust="spacing" textLength="442" x="1652" y="386.8301">can authenticate and authorize the request.</text><polygon fill="#000000" points="2206,426.8281,2216,430.8281,2206,434.8281,2210,430.8281" style="stroke:#000000;stroke-width:1.0;"/><line style="stroke:#000000;stroke-width:1.0;" x1="1641" x2="2212" y1="430.8281" y2="430.8281"/><text fill="#000000" font-family="sans-serif" font-size="20" lengthAdjust="spacing" textLength="187" x="1648" y="424.1113">deactivateStaff(id)</text><line style="stroke:#000000;stroke-width:1.0;" x1="2228" x2="2270" y1="468.1094" y2="468.1094"/><line style="stroke:#000000;stroke-width:1.0;" x1="2270" x2="2270" y1="468.1094" y2="481.1094"/><line style="stroke:#000000;stroke-width:1.0;" x1="2229" x2="2270" y1="481.1094" y2="481.1094"/><polygon fill="#000000" points="2239,477.1094,2229,481.1094,2239,485.1094,2235,481.1094" style="stroke:#000000;stroke-width:1.0;"/><text fill="#000000" font-family="sans-serif" font-size="20" lengthAdjust="spacing" textLength="582" x="2235" y="461.3926">Validates Staff's Identifier and tries to deactivate the Staff</text><polygon fill="#000000" points="1652,514.3906,1642,518.3906,1652,522.3906,1648,518.3906" style="stroke:#000000;stroke-width:1.0;"/><line style="stroke:#000000;stroke-width:1.0;stroke-dasharray:2.0,2.0;" x1="1646" x2="2222" y1="518.3906" y2="518.3906"/><text fill="#000000" font-family="sans-serif" font-size="20" lengthAdjust="spacing" textLength="311" x="1658" y="511.6738">Returns Operation Status Code</text><polygon fill="#000000" points="1227,551.6719,1217,555.6719,1227,559.6719,1223,555.6719" style="stroke:#000000;stroke-width:1.0;"/><line style="stroke:#000000;stroke-width:1.0;stroke-dasharray:2.0,2.0;" x1="1221" x2="1635" y1="555.6719" y2="555.6719"/><text fill="#000000" font-family="sans-serif" font-size="20" lengthAdjust="spacing" textLength="311" x="1233" y="548.9551">Returns Operation Status Code</text><polygon fill="#000000" points="907,588.9531,897,592.9531,907,596.9531,903,592.9531" style="stroke:#000000;stroke-width:1.0;"/><line style="stroke:#000000;stroke-width:1.0;stroke-dasharray:2.0,2.0;" x1="901" x2="1210" y1="592.9531" y2="592.9531"/><text fill="#000000" font-family="sans-serif" font-size="20" lengthAdjust="spacing" textLength="286" x="913" y="586.2363">Returns Operation Response</text><polygon fill="#000000" points="482,626.2344,472,630.2344,482,634.2344,478,630.2344" style="stroke:#000000;stroke-width:1.0;"/><line style="stroke:#000000;stroke-width:1.0;stroke-dasharray:2.0,2.0;" x1="476" x2="890" y1="630.2344" y2="630.2344"/><text fill="#000000" font-family="sans-serif" font-size="20" lengthAdjust="spacing" textLength="391" x="488" y="623.5176">Returns Operation In/Success message</text><polygon fill="#000000" points="57,663.5156,47,667.5156,57,671.5156,53,667.5156" style="stroke:#000000;stroke-width:1.0;"/><line style="stroke:#000000;stroke-width:1.0;stroke-dasharray:2.0,2.0;" x1="51" x2="465" y1="667.5156" y2="667.5156"/><text fill="#000000" font-family="sans-serif" font-size="20" lengthAdjust="spacing" textLength="391" x="63" y="660.7988">Returns Operation In/Success message</text><!--SRC=[bLJRRXCn47ttLupQ1-01A4NSgYhI9jaLaK15SRNlhZr9J7RjnVQc0iI_C-DDGn8Y5I8bqHwVCtFcuerhwpeLLDjulKO31XUgRrBbNPBs1yBbXH39fWRX4swmWTTGbJ2rQaaIMFW0KrGwsOrArYr19hLO2B6o1W7RBds75jix3568-908TADYX9y2w3DMUhqCldTcuXiVhgytgkdnvkuhwZGQmVdqRLbKxqzJW_UPKqtByVJYD2TYs5YDETIhwh8Sdw9HYBBwKBxBPqK8_dw0nmtnnAzzxnqXQecdtSDvEQxUL6EMK5C8A4nh7QW8XI1zijfsoYKugotUdp5U7-8ILT2htCKuyMtd7RgKYL8UCPaZX-e6mk5vqQVLp2KC6ZjoaYd5x93pUJhFEFrdmpn59Ai5F1z1VGL5N4T8ddPYTwYs8zu1jQYPBUNL7Yrpdbhpx0-F_4kPcOyHHQOLiokGw4o4ZxUtNs2EttgCwSZDaHUghvWzY7V5KmahXB0De9m1PSm09hz6np7vOONAO13EKwHWbwi4Vi4XUT2tExADBAUBSg22o4ygPOZRoIAjQFGq1XgXrRbvd9i07_XcxRbw8QXIuCpR0YZ48stY9FJTaMlLM4C7SMZAamWpmuaNbjnnuXGi7a-JBGmzpA6sdPjZweEBSDDXe6lj7NDI7s7Y3OezENjWlyDK_rb6FPM3wAHgZf7sFXv8XkKPjl9lnSozbBtMI6-LbdxeVXve9Qyer_R_sbhy1W00]--></g></svg>