<?xml version="1.0" encoding="UTF-8" standalone="no"?><svg xmlns="http://www.w3.org/2000/svg" xmlns:xlink="http://www.w3.org/1999/xlink" contentStyleType="text/css" height="1384px" preserveAspectRatio="none" style="width:2541px;height:1384px;background:#FFFFFF;" version="1.1" viewBox="0 0 2541 1384" width="2541px" zoomAndPan="magnify"><defs/><g><text fill="#000000" font-family="sans-serif" font-size="14" font-weight="bold" lengthAdjust="spacing" textLength="337" x="1103" y="27.9951">Level 3 MDR Diagram for Deactivating Staff</text><rect fill="#FFFFFF" height="1152.4375" style="stroke:#181818;stroke-width:1.0;" width="10" x="15.5" y="135.5781"/><rect fill="#FFFFFF" height="1114.1563" style="stroke:#181818;stroke-width:1.0;" width="10" x="473.5" y="164.8594"/><rect fill="#FFFFFF" height="1032.5938" style="stroke:#181818;stroke-width:1.0;" width="10" x="1097.5" y="202.1406"/><rect fill="#FFFFFF" height="43.2813" style="stroke:#181818;stroke-width:1.0;" width="10" x="1249.5" y="429.1094"/><rect fill="#FFFFFF" height="111.8438" style="stroke:#181818;stroke-width:1.0;" width="10" x="1446.5" y="239.4219"/><rect fill="#FFFFFF" height="111.8438" style="stroke:#181818;stroke-width:1.0;" width="10" x="1622.5" y="516.6719"/><rect fill="#FFFFFF" height="67.2813" style="stroke:#181818;stroke-width:1.0;" width="10" x="1622.5" y="706.3594"/><rect fill="#FFFFFF" height="67.2813" style="stroke:#181818;stroke-width:1.0;" width="10" x="1793" y="905.4844"/><rect fill="#FFFFFF" height="124.8438" style="stroke:#181818;stroke-width:1.0;" width="10" x="1949" y="1010.0469"/><rect fill="#FFFFFF" height="43.2813" style="stroke:#181818;stroke-width:1.0;" width="10" x="2236" y="1047.3281"/><rect fill="#FFFFFF" height="43.2813" style="stroke:#181818;stroke-width:1.0;" width="10" x="2366" y="817.9219"/><rect fill="#FFFFFF" height="37.2813" style="stroke:#181818;stroke-width:1.0;" width="10" x="2455" y="276.7031"/><rect fill="#FFFFFF" height="37.2813" style="stroke:#181818;stroke-width:1.0;" width="10" x="2455" y="553.9531"/><rect fill="#FFFFFF" height="30" style="stroke:#181818;stroke-width:1.0;" width="10" x="2455" y="743.6406"/><rect fill="#FFFFFF" height="30" style="stroke:#181818;stroke-width:1.0;" width="10" x="2455" y="942.7656"/><rect fill="#EBF5FB" height="876.4688" style="stroke:#000000;stroke-width:1.5;" width="2145.5" x="388.5" y="366.2656"/><rect fill="#EBF5FB" height="138.125" style="stroke:#000000;stroke-width:1.5;" width="1498.5" x="1025.5" y="643.5156"/><rect fill="#EBF5FB" height="62.5625" style="stroke:none;stroke-width:1.0;" width="2145.5" x="388.5" y="1180.1719"/><line style="stroke:#181818;stroke-width:0.5;stroke-dasharray:5.0,5.0;" x1="20" x2="20" y1="125.5781" y2="1297.0156"/><line style="stroke:#181818;stroke-width:0.5;stroke-dasharray:5.0,5.0;" x1="478.5" x2="478.5" y1="125.5781" y2="1297.0156"/><line style="stroke:#181818;stroke-width:0.5;stroke-dasharray:5.0,5.0;" x1="1102.5" x2="1102.5" y1="125.5781" y2="1297.0156"/><line style="stroke:#181818;stroke-width:0.5;stroke-dasharray:5.0,5.0;" x1="1254" x2="1254" y1="125.5781" y2="1297.0156"/><line style="stroke:#181818;stroke-width:0.5;stroke-dasharray:5.0,5.0;" x1="1451" x2="1451" y1="125.5781" y2="1297.0156"/><line style="stroke:#181818;stroke-width:0.5;stroke-dasharray:5.0,5.0;" x1="1627" x2="1627" y1="125.5781" y2="1297.0156"/><line style="stroke:#181818;stroke-width:0.5;stroke-dasharray:5.0,5.0;" x1="1798" x2="1798" y1="125.5781" y2="1297.0156"/><line style="stroke:#181818;stroke-width:0.5;stroke-dasharray:5.0,5.0;" x1="1954" x2="1954" y1="125.5781" y2="1297.0156"/><line style="stroke:#181818;stroke-width:0.5;stroke-dasharray:5.0,5.0;" x1="2241" x2="2241" y1="125.5781" y2="1297.0156"/><line style="stroke:#181818;stroke-width:0.5;stroke-dasharray:5.0,5.0;" x1="2371" x2="2371" y1="125.5781" y2="1297.0156"/><line style="stroke:#181818;stroke-width:0.5;stroke-dasharray:5.0,5.0;" x1="2460" x2="2460" y1="125.5781" y2="1297.0156"/><text fill="#000000" font-family="sans-serif" font-size="20" lengthAdjust="spacing" textLength="25" x="5" y="120.8613">FE</text><ellipse cx="20.5" cy="50.7969" fill="#E2E2F0" rx="8" ry="8" style="stroke:#181818;stroke-width:0.5;"/><path d="M20.5,58.7969 L20.5,85.7969 M7.5,66.7969 L33.5,66.7969 M20.5,85.7969 L7.5,100.7969 M20.5,85.7969 L33.5,100.7969 " fill="none" style="stroke:#181818;stroke-width:0.5;"/><text fill="#000000" font-family="sans-serif" font-size="20" lengthAdjust="spacing" textLength="25" x="5" y="1314.5801">FE</text><ellipse cx="20.5" cy="1327.7969" fill="#E2E2F0" rx="8" ry="8" style="stroke:#181818;stroke-width:0.5;"/><path d="M20.5,1335.7969 L20.5,1362.7969 M7.5,1343.7969 L33.5,1343.7969 M20.5,1362.7969 L7.5,1377.7969 M20.5,1362.7969 L33.5,1377.7969 " fill="none" style="stroke:#181818;stroke-width:0.5;"/><rect fill="#E2E2F0" height="37.2813" rx="2.5" ry="2.5" style="stroke:#181818;stroke-width:0.5;" width="160" x="398.5" y="87.2969"/><text fill="#000000" font-family="sans-serif" font-size="20" lengthAdjust="spacing" textLength="146" x="405.5" y="112.8613">StaffController</text><rect fill="#E2E2F0" height="37.2813" rx="2.5" ry="2.5" style="stroke:#181818;stroke-width:0.5;" width="160" x="398.5" y="1296.0156"/><text fill="#000000" font-family="sans-serif" font-size="20" lengthAdjust="spacing" textLength="146" x="405.5" y="1321.5801">StaffController</text><rect fill="#E2E2F0" height="37.2813" rx="2.5" ry="2.5" style="stroke:#181818;stroke-width:0.5;" width="134" x="1035.5" y="87.2969"/><text fill="#000000" font-family="sans-serif" font-size="20" lengthAdjust="spacing" textLength="120" x="1042.5" y="112.8613">StaffService</text><rect fill="#E2E2F0" height="37.2813" rx="2.5" ry="2.5" style="stroke:#181818;stroke-width:0.5;" width="134" x="1035.5" y="1296.0156"/><text fill="#000000" font-family="sans-serif" font-size="20" lengthAdjust="spacing" textLength="120" x="1042.5" y="1321.5801">StaffService</text><rect fill="#E2E2F0" height="37.2813" rx="2.5" ry="2.5" style="stroke:#181818;stroke-width:0.5;" width="61" x="1224" y="87.2969"/><text fill="#000000" font-family="sans-serif" font-size="20" lengthAdjust="spacing" textLength="47" x="1231" y="112.8613">Staff</text><rect fill="#E2E2F0" height="37.2813" rx="2.5" ry="2.5" style="stroke:#181818;stroke-width:0.5;" width="61" x="1224" y="1296.0156"/><text fill="#000000" font-family="sans-serif" font-size="20" lengthAdjust="spacing" textLength="47" x="1231" y="1321.5801">Staff</text><rect fill="#E2E2F0" height="37.2813" rx="2.5" ry="2.5" style="stroke:#181818;stroke-width:0.5;" width="167" x="1368" y="87.2969"/><text fill="#000000" font-family="sans-serif" font-size="20" lengthAdjust="spacing" textLength="153" x="1375" y="112.8613">StaffRepository</text><rect fill="#E2E2F0" height="37.2813" rx="2.5" ry="2.5" style="stroke:#181818;stroke-width:0.5;" width="167" x="1368" y="1296.0156"/><text fill="#000000" font-family="sans-serif" font-size="20" lengthAdjust="spacing" textLength="153" x="1375" y="1321.5801">StaffRepository</text><rect fill="#E2E2F0" height="37.2813" rx="2.5" ry="2.5" style="stroke:#181818;stroke-width:0.5;" width="165" x="1545" y="87.2969"/><text fill="#000000" font-family="sans-serif" font-size="20" lengthAdjust="spacing" textLength="151" x="1552" y="112.8613">UserRepository</text><rect fill="#E2E2F0" height="37.2813" rx="2.5" ry="2.5" style="stroke:#181818;stroke-width:0.5;" width="165" x="1545" y="1296.0156"/><text fill="#000000" font-family="sans-serif" font-size="20" lengthAdjust="spacing" textLength="151" x="1552" y="1321.5801">UserRepository</text><rect fill="#E2E2F0" height="37.2813" rx="2.5" ry="2.5" style="stroke:#181818;stroke-width:0.5;" width="156" x="1720" y="87.2969"/><text fill="#000000" font-family="sans-serif" font-size="20" lengthAdjust="spacing" textLength="142" x="1727" y="112.8613">LogRepository</text><rect fill="#E2E2F0" height="37.2813" rx="2.5" ry="2.5" style="stroke:#181818;stroke-width:0.5;" width="156" x="1720" y="1296.0156"/><text fill="#000000" font-family="sans-serif" font-size="20" lengthAdjust="spacing" textLength="142" x="1727" y="1321.5801">LogRepository</text><rect fill="#E2E2F0" height="37.2813" rx="2.5" ry="2.5" style="stroke:#181818;stroke-width:0.5;" width="136" x="1886" y="87.2969"/><text fill="#000000" font-family="sans-serif" font-size="20" lengthAdjust="spacing" textLength="122" x="1893" y="112.8613">StaffMapper</text><rect fill="#E2E2F0" height="37.2813" rx="2.5" ry="2.5" style="stroke:#181818;stroke-width:0.5;" width="136" x="1886" y="1296.0156"/><text fill="#000000" font-family="sans-serif" font-size="20" lengthAdjust="spacing" textLength="122" x="1893" y="1321.5801">StaffMapper</text><rect fill="#E2E2F0" height="37.2813" rx="2.5" ry="2.5" style="stroke:#181818;stroke-width:0.5;" width="104" x="2189" y="87.2969"/><text fill="#000000" font-family="sans-serif" font-size="20" lengthAdjust="spacing" textLength="90" x="2196" y="112.8613">StaffDTO</text><rect fill="#E2E2F0" height="37.2813" rx="2.5" ry="2.5" style="stroke:#181818;stroke-width:0.5;" width="104" x="2189" y="1296.0156"/><text fill="#000000" font-family="sans-serif" font-size="20" lengthAdjust="spacing" textLength="90" x="2196" y="1321.5801">StaffDTO</text><rect fill="#E2E2F0" height="37.2813" rx="2.5" ry="2.5" style="stroke:#181818;stroke-width:0.5;" width="50" x="2346" y="87.2969"/><text fill="#000000" font-family="sans-serif" font-size="20" lengthAdjust="spacing" textLength="36" x="2353" y="112.8613">Log</text><rect fill="#E2E2F0" height="37.2813" rx="2.5" ry="2.5" style="stroke:#181818;stroke-width:0.5;" width="50" x="2346" y="1296.0156"/><text fill="#000000" font-family="sans-serif" font-size="20" lengthAdjust="spacing" textLength="36" x="2353" y="1321.5801">Log</text><rect fill="#E2E2F0" height="37.2813" rx="2.5" ry="2.5" style="stroke:#181818;stroke-width:0.5;" width="108" x="2406" y="87.2969"/><text fill="#000000" font-family="sans-serif" font-size="20" lengthAdjust="spacing" textLength="94" x="2413" y="112.8613">Database</text><rect fill="#E2E2F0" height="37.2813" rx="2.5" ry="2.5" style="stroke:#181818;stroke-width:0.5;" width="108" x="2406" y="1296.0156"/><text fill="#000000" font-family="sans-serif" font-size="20" lengthAdjust="spacing" textLength="94" x="2413" y="1321.5801">Database</text><rect fill="#FFFFFF" height="1152.4375" style="stroke:#181818;stroke-width:1.0;" width="10" x="15.5" y="135.5781"/><rect fill="#FFFFFF" height="1114.1563" style="stroke:#181818;stroke-width:1.0;" width="10" x="473.5" y="164.8594"/><rect fill="#FFFFFF" height="1032.5938" style="stroke:#181818;stroke-width:1.0;" width="10" x="1097.5" y="202.1406"/><rect fill="#FFFFFF" height="43.2813" style="stroke:#181818;stroke-width:1.0;" width="10" x="1249.5" y="429.1094"/><rect fill="#FFFFFF" height="111.8438" style="stroke:#181818;stroke-width:1.0;" width="10" x="1446.5" y="239.4219"/><rect fill="#FFFFFF" height="111.8438" style="stroke:#181818;stroke-width:1.0;" width="10" x="1622.5" y="516.6719"/><rect fill="#FFFFFF" height="67.2813" style="stroke:#181818;stroke-width:1.0;" width="10" x="1622.5" y="706.3594"/><rect fill="#FFFFFF" height="67.2813" style="stroke:#181818;stroke-width:1.0;" width="10" x="1793" y="905.4844"/><rect fill="#FFFFFF" height="124.8438" style="stroke:#181818;stroke-width:1.0;" width="10" x="1949" y="1010.0469"/><rect fill="#FFFFFF" height="43.2813" style="stroke:#181818;stroke-width:1.0;" width="10" x="2236" y="1047.3281"/><rect fill="#FFFFFF" height="43.2813" style="stroke:#181818;stroke-width:1.0;" width="10" x="2366" y="817.9219"/><rect fill="#FFFFFF" height="37.2813" style="stroke:#181818;stroke-width:1.0;" width="10" x="2455" y="276.7031"/><rect fill="#FFFFFF" height="37.2813" style="stroke:#181818;stroke-width:1.0;" width="10" x="2455" y="553.9531"/><rect fill="#FFFFFF" height="30" style="stroke:#181818;stroke-width:1.0;" width="10" x="2455" y="743.6406"/><rect fill="#FFFFFF" height="30" style="stroke:#181818;stroke-width:1.0;" width="10" x="2455" y="942.7656"/><polygon fill="#000000" points="461.5,160.8594,471.5,164.8594,461.5,168.8594,465.5,164.8594" style="stroke:#000000;stroke-width:1.0;"/><line style="stroke:#000000;stroke-width:1.0;" x1="25.5" x2="467.5" y1="164.8594" y2="164.8594"/><text fill="#000000" font-family="sans-serif" font-size="20" lengthAdjust="spacing" textLength="429" x="32.5" y="158.1426">Sends HTTP request to deactivate the Staff</text><polygon fill="#000000" points="1085.5,198.1406,1095.5,202.1406,1085.5,206.1406,1089.5,202.1406" style="stroke:#000000;stroke-width:1.0;"/><line style="stroke:#000000;stroke-width:1.0;stroke-dasharray:2.0,2.0;" x1="483.5" x2="1091.5" y1="202.1406" y2="202.1406"/><text fill="#000000" font-family="sans-serif" font-size="20" lengthAdjust="spacing" textLength="241" x="490.5" y="195.4238">deactivateStaff(Guid id)</text><polygon fill="#000000" points="1434.5,235.4219,1444.5,239.4219,1434.5,243.4219,1438.5,239.4219" style="stroke:#000000;stroke-width:1.0;"/><line style="stroke:#000000;stroke-width:1.0;" x1="1107.5" x2="1440.5" y1="239.4219" y2="239.4219"/><text fill="#000000" font-family="sans-serif" font-size="20" lengthAdjust="spacing" textLength="301" x="1114.5" y="232.7051">getByIdAsync(new StaffId(id))</text><polygon fill="#000000" points="2443,272.7031,2453,276.7031,2443,280.7031,2447,276.7031" style="stroke:#000000;stroke-width:1.0;"/><line style="stroke:#000000;stroke-width:1.0;" x1="1456.5" x2="2449" y1="276.7031" y2="276.7031"/><text fill="#000000" font-family="sans-serif" font-size="20" lengthAdjust="spacing" textLength="561" x="1463.5" y="269.9863">_objs.Where(x =&gt; id.Equals(x.Id)).FirstOrDefaultAsync()</text><polygon fill="#000000" points="1467.5,309.9844,1457.5,313.9844,1467.5,317.9844,1463.5,313.9844" style="stroke:#000000;stroke-width:1.0;"/><line style="stroke:#000000;stroke-width:1.0;stroke-dasharray:2.0,2.0;" x1="1461.5" x2="2459" y1="313.9844" y2="313.9844"/><text fill="#000000" font-family="sans-serif" font-size="20" lengthAdjust="spacing" textLength="112" x="1473.5" y="307.2676">return staff</text><polygon fill="#000000" points="1118.5,347.2656,1108.5,351.2656,1118.5,355.2656,1114.5,351.2656" style="stroke:#000000;stroke-width:1.0;"/><line style="stroke:#000000;stroke-width:1.0;stroke-dasharray:2.0,2.0;" x1="1112.5" x2="1450.5" y1="351.2656" y2="351.2656"/><text fill="#000000" font-family="sans-serif" font-size="20" lengthAdjust="spacing" textLength="112" x="1124.5" y="344.5488">return staff</text><path d="M388.5,366.2656 L464.5,366.2656 L464.5,381.5469 L454.5,391.5469 L388.5,391.5469 L388.5,366.2656 " fill="#EEEEEE" style="stroke:#000000;stroke-width:1.5;"/><rect fill="none" height="876.4688" style="stroke:#000000;stroke-width:1.5;" width="2145.5" x="388.5" y="366.2656"/><text fill="#000000" font-family="sans-serif" font-size="20" font-weight="bold" lengthAdjust="spacing" textLength="31" x="403.5" y="385.8301">alt</text><text fill="#000000" font-family="sans-serif" font-size="20" font-weight="bold" lengthAdjust="spacing" textLength="192" x="479.5" y="386.8301">[staff is not null]</text><polygon fill="#000000" points="1237.5,425.1094,1247.5,429.1094,1237.5,433.1094,1241.5,429.1094" style="stroke:#000000;stroke-width:1.0;"/><line style="stroke:#000000;stroke-width:1.0;" x1="1107.5" x2="1243.5" y1="429.1094" y2="429.1094"/><text fill="#000000" font-family="sans-serif" font-size="20" lengthAdjust="spacing" textLength="123" x="1114.5" y="422.3926">Deactivate()</text><line style="stroke:#000000;stroke-width:1.0;" x1="1259.5" x2="1301.5" y1="471.3906" y2="471.3906"/><line style="stroke:#000000;stroke-width:1.0;" x1="1301.5" x2="1301.5" y1="471.3906" y2="484.3906"/><line style="stroke:#000000;stroke-width:1.0;" x1="1254.5" x2="1301.5" y1="484.3906" y2="484.3906"/><polygon fill="#000000" points="1264.5,480.3906,1254.5,484.3906,1264.5,488.3906,1260.5,484.3906" style="stroke:#000000;stroke-width:1.0;"/><text fill="#000000" font-family="sans-serif" font-size="20" lengthAdjust="spacing" textLength="173" x="1266.5" y="464.6738">staff.Deactivate()</text><polygon fill="#000000" points="1610.5,512.6719,1620.5,516.6719,1610.5,520.6719,1614.5,516.6719" style="stroke:#000000;stroke-width:1.0;"/><line style="stroke:#000000;stroke-width:1.0;" x1="1107.5" x2="1616.5" y1="516.6719" y2="516.6719"/><text fill="#000000" font-family="sans-serif" font-size="20" lengthAdjust="spacing" textLength="266" x="1114.5" y="509.9551">getByIdAsync(staff.UserId)</text><polygon fill="#000000" points="2443,549.9531,2453,553.9531,2443,557.9531,2447,553.9531" style="stroke:#000000;stroke-width:1.0;"/><line style="stroke:#000000;stroke-width:1.0;" x1="1632.5" x2="2449" y1="553.9531" y2="553.9531"/><text fill="#000000" font-family="sans-serif" font-size="20" lengthAdjust="spacing" textLength="656" x="1639.5" y="547.2363">_objs.Where(x =&gt; staff.UserId.Equals(x.Id)).FirstOrDefaultAsync()</text><polygon fill="#000000" points="1643.5,587.2344,1633.5,591.2344,1643.5,595.2344,1639.5,591.2344" style="stroke:#000000;stroke-width:1.0;"/><line style="stroke:#000000;stroke-width:1.0;stroke-dasharray:2.0,2.0;" x1="1637.5" x2="2459" y1="591.2344" y2="591.2344"/><text fill="#000000" font-family="sans-serif" font-size="20" lengthAdjust="spacing" textLength="111" x="1649.5" y="584.5176">return user</text><polygon fill="#000000" points="1118.5,624.5156,1108.5,628.5156,1118.5,632.5156,1114.5,628.5156" style="stroke:#000000;stroke-width:1.0;"/><line style="stroke:#000000;stroke-width:1.0;stroke-dasharray:2.0,2.0;" x1="1112.5" x2="1626.5" y1="628.5156" y2="628.5156"/><text fill="#000000" font-family="sans-serif" font-size="20" lengthAdjust="spacing" textLength="111" x="1124.5" y="621.7988">return user</text><path d="M1025.5,643.5156 L1108.5,643.5156 L1108.5,658.7969 L1098.5,668.7969 L1025.5,668.7969 L1025.5,643.5156 " fill="#EEEEEE" style="stroke:#000000;stroke-width:1.5;"/><rect fill="none" height="138.125" style="stroke:#000000;stroke-width:1.5;" width="1498.5" x="1025.5" y="643.5156"/><text fill="#000000" font-family="sans-serif" font-size="20" font-weight="bold" lengthAdjust="spacing" textLength="38" x="1040.5" y="663.0801">opt</text><text fill="#000000" font-family="sans-serif" font-size="20" font-weight="bold" lengthAdjust="spacing" textLength="188" x="1123.5" y="664.0801">[user is not null]</text><polygon fill="#000000" points="1610.5,702.3594,1620.5,706.3594,1610.5,710.3594,1614.5,706.3594" style="stroke:#000000;stroke-width:1.0;"/><line style="stroke:#000000;stroke-width:1.0;" x1="1107.5" x2="1616.5" y1="706.3594" y2="706.3594"/><text fill="#000000" font-family="sans-serif" font-size="20" lengthAdjust="spacing" textLength="140" x="1114.5" y="699.6426">Remove(user)</text><polygon fill="#000000" points="2443,739.6406,2453,743.6406,2443,747.6406,2447,743.6406" style="stroke:#000000;stroke-width:1.0;"/><line style="stroke:#000000;stroke-width:1.0;" x1="1632.5" x2="2449" y1="743.6406" y2="743.6406"/><text fill="#000000" font-family="sans-serif" font-size="20" lengthAdjust="spacing" textLength="226" x="1639.5" y="736.9238">_objs.Remove(patient)</text><polygon fill="#000000" points="2354,813.9219,2364,817.9219,2354,821.9219,2358,817.9219" style="stroke:#000000;stroke-width:1.0;"/><line style="stroke:#000000;stroke-width:1.0;" x1="1107.5" x2="2360" y1="817.9219" y2="817.9219"/><text fill="#000000" font-family="sans-serif" font-size="20" lengthAdjust="spacing" textLength="691" x="1114.5" y="811.2051">new Log(TypeOfAction.Deactivate, id.ToString(), "Staff Deactivated")</text><line style="stroke:#000000;stroke-width:1.0;" x1="2376" x2="2418" y1="860.2031" y2="860.2031"/><line style="stroke:#000000;stroke-width:1.0;" x1="2418" x2="2418" y1="860.2031" y2="873.2031"/><line style="stroke:#000000;stroke-width:1.0;" x1="2371" x2="2418" y1="873.2031" y2="873.2031"/><polygon fill="#000000" points="2381,869.2031,2371,873.2031,2381,877.2031,2377,873.2031" style="stroke:#000000;stroke-width:1.0;"/><text fill="#000000" font-family="sans-serif" font-size="20" lengthAdjust="spacing" textLength="52" x="2383" y="853.4863">Log()</text><polygon fill="#000000" points="1781,901.4844,1791,905.4844,1781,909.4844,1785,905.4844" style="stroke:#000000;stroke-width:1.0;"/><line style="stroke:#000000;stroke-width:1.0;" x1="1107.5" x2="1787" y1="905.4844" y2="905.4844"/><text fill="#000000" font-family="sans-serif" font-size="20" lengthAdjust="spacing" textLength="144" x="1114.5" y="898.7676">addAsync(log)</text><polygon fill="#000000" points="2443,938.7656,2453,942.7656,2443,946.7656,2447,942.7656" style="stroke:#000000;stroke-width:1.0;"/><line style="stroke:#000000;stroke-width:1.0;" x1="1803" x2="2449" y1="942.7656" y2="942.7656"/><text fill="#000000" font-family="sans-serif" font-size="20" lengthAdjust="spacing" textLength="203" x="1810" y="936.0488">_objs.AddAsync(log)</text><polygon fill="#000000" points="1937,1006.0469,1947,1010.0469,1937,1014.0469,1941,1010.0469" style="stroke:#000000;stroke-width:1.0;"/><line style="stroke:#000000;stroke-width:1.0;" x1="1107.5" x2="1943" y1="1010.0469" y2="1010.0469"/><text fill="#000000" font-family="sans-serif" font-size="20" lengthAdjust="spacing" textLength="119" x="1114.5" y="1003.3301">ToDto(staff)</text><polygon fill="#000000" points="2224,1043.3281,2234,1047.3281,2224,1051.3281,2228,1047.3281" style="stroke:#000000;stroke-width:1.0;"/><line style="stroke:#000000;stroke-width:1.0;" x1="1959" x2="2230" y1="1047.3281" y2="1047.3281"/><text fill="#000000" font-family="sans-serif" font-size="20" lengthAdjust="spacing" textLength="258" x="1966" y="1040.6113">new StaffDTO(staff fields)</text><line style="stroke:#000000;stroke-width:1.0;" x1="2246" x2="2288" y1="1089.6094" y2="1089.6094"/><line style="stroke:#000000;stroke-width:1.0;" x1="2288" x2="2288" y1="1089.6094" y2="1102.6094"/><line style="stroke:#000000;stroke-width:1.0;" x1="2241" x2="2288" y1="1102.6094" y2="1102.6094"/><polygon fill="#000000" points="2251,1098.6094,2241,1102.6094,2251,1106.6094,2247,1102.6094" style="stroke:#000000;stroke-width:1.0;"/><text fill="#000000" font-family="sans-serif" font-size="20" lengthAdjust="spacing" textLength="106" x="2253" y="1082.8926">StaffDTO()</text><polygon fill="#000000" points="1118.5,1130.8906,1108.5,1134.8906,1118.5,1138.8906,1114.5,1134.8906" style="stroke:#000000;stroke-width:1.0;"/><line style="stroke:#000000;stroke-width:1.0;stroke-dasharray:2.0,2.0;" x1="1112.5" x2="1953" y1="1134.8906" y2="1134.8906"/><text fill="#000000" font-family="sans-serif" font-size="20" lengthAdjust="spacing" textLength="158" x="1124.5" y="1128.1738">return StaffDTO</text><polygon fill="#000000" points="494.5,1168.1719,484.5,1172.1719,494.5,1176.1719,490.5,1172.1719" style="stroke:#000000;stroke-width:1.0;"/><line style="stroke:#000000;stroke-width:1.0;stroke-dasharray:2.0,2.0;" x1="488.5" x2="1096.5" y1="1172.1719" y2="1172.1719"/><text fill="#000000" font-family="sans-serif" font-size="20" lengthAdjust="spacing" textLength="158" x="500.5" y="1165.4551">return StaffDTO</text><line style="stroke:#000000;stroke-width:1.0;stroke-dasharray:2.0,2.0;" x1="388.5" x2="2534" y1="1181.1719" y2="1181.1719"/><text fill="#000000" font-family="sans-serif" font-size="20" font-weight="bold" lengthAdjust="spacing" textLength="147" x="393.5" y="1199.7363">[staff is null]</text><polygon fill="#000000" points="494.5,1230.7344,484.5,1234.7344,494.5,1238.7344,490.5,1234.7344" style="stroke:#000000;stroke-width:1.0;"/><line style="stroke:#000000;stroke-width:1.0;stroke-dasharray:2.0,2.0;" x1="488.5" x2="1101.5" y1="1234.7344" y2="1234.7344"/><text fill="#000000" font-family="sans-serif" font-size="20" lengthAdjust="spacing" textLength="590" x="500.5" y="1228.0176">throw BusinessRuleValidationException("Staff not found.")</text><polygon fill="#000000" points="36.5,1275.0156,26.5,1279.0156,36.5,1283.0156,32.5,1279.0156" style="stroke:#000000;stroke-width:1.0;"/><line style="stroke:#000000;stroke-width:1.0;stroke-dasharray:2.0,2.0;" x1="30.5" x2="477.5" y1="1279.0156" y2="1279.0156"/><text fill="#000000" font-family="sans-serif" font-size="20" lengthAdjust="spacing" textLength="413" x="42.5" y="1272.2988">Returns Operation Status Response Code</text><!--SRC=[ZLNVZzeu47xFNp7QlcIb5lM7xdf5lPK8JkvM0d5AeFTuyfA1TTV4gUtGvKxztpks0uIGbOu789xl6yzy-JmsJwAgkUOxgTPFM4A96zv8cwdA5k9VXFTleyWAAn5ck4S97s3ESc22Rua36wM18LzRiUTML5ieBDziekXHb0Yug-q1ThXxG6sYo1ntWhNani1_4T0duUkdhLPDLKwLLFhpvpsN3IuUlkBQtjt1A_PhEib-6uPgfJmcOsd2tWvZ3EgzMADFzIvxdoP3C4gHPf_IZpusqLfz3yk995pqerjxJIjyYyFLmwiqoNx94aSXKMWXIu4R-ew8RSLQrBooSEDLcfB4Mac9-iPXfWEG8XJluyL0F0JOG2J7MXb15Hmy9h-4h4YL7cBLWypKjeUOvGFxp7bTjmtC1y9ikV0n-hrA7v9UBZDk-GCteMEMU1MTjT19I5g-kOFf60giIWD_BfT_WSPl3HeBLf5pJs3xYAqJJqlJQ0flY5wCEq2FYVzeH0cYl3s3YwXmM-LZsA9D3lVbn1ogTLpXzv3slem9to7aKUu8B1d3F-hXgndz_OWQusVu_OuoZz9l3PScVXxT4skK2MtiGhDmqaBgJYvgcoM-LjfVesrq1SOtq-cGGFcndvSmUSIb3SiW35JAGjL8wOth-olO-7nwaMfmaRC8B23P4UepZQu8dHs9Siw-wiiN-Cvx9CFbNkG-zxnwMSKk-N_fUP6VXMFVwhew2zjGmduNBNZL5tW8IuNx9LLR7xyI-aAE77TgZx43tfwYVH66X6Y9DGrPhEm0jwrvk9FhcjqA7IB_UtvZip4uYzFPZ9U76XUR2L5KrNdbhvsRbwgmcePzVFkwFUOT5vKtFUbd_d7MvdUvhsmpwvH0Al6oDOnKstwoKFgi9y_aPKOhmRKetVtpSm7pCImLiogujPTixX_dVlFb8gXrd7E101k1iZJz8cZyUVyj5oVkYNSbnn4zx_dloEZZvyVgmtJier4Qx4o1pWG8UFj8znqaZH4L6fCt4hzmAKhkNdtwlCRQ_OdR5-sylN7ttUZc-lH7pb9Xp6QfSxihnC22RWYVpTLa6xgDqDIgeggcgiJkn9f6Fm40]--></g></svg>