<?xml version="1.0" encoding="UTF-8" standalone="no"?><svg xmlns="http://www.w3.org/2000/svg" xmlns:xlink="http://www.w3.org/1999/xlink" contentStyleType="text/css" height="1126px" preserveAspectRatio="none" style="width:3808px;height:1126px;background:#FFFFFF;" version="1.1" viewBox="0 0 3808 1126" width="3808px" zoomAndPan="magnify"><defs/><g><text fill="#000000" font-family="sans-serif" font-size="14" font-weight="bold" lengthAdjust="spacing" textLength="427" x="1692.5" y="27.9951">Level 3 FE Diagram for Updating Operation Requisition</text><rect fill="#FFFFFF" height="894.4688" style="stroke:#181818;stroke-width:1.0;" width="10" x="36" y="135.5781"/><rect fill="#FFFFFF" height="199.4063" style="stroke:#181818;stroke-width:1.0;" width="10" x="514" y="164.8594"/><rect fill="#FFFFFF" height="619.5" style="stroke:#181818;stroke-width:1.0;" width="10" x="514" y="401.5469"/><rect fill="#FFFFFF" height="37.2813" style="stroke:#181818;stroke-width:1.0;" width="10" x="970" y="202.1406"/><rect fill="#FFFFFF" height="87.5625" style="stroke:#181818;stroke-width:1.0;" width="10" x="1497" y="239.4219"/><rect fill="#FFFFFF" height="478.375" style="stroke:#181818;stroke-width:1.0;" width="10" x="1497" y="505.3906"/><rect fill="#FFFFFF" height="353.5313" style="stroke:#181818;stroke-width:1.0;" width="10" x="2026" y="592.9531"/><rect fill="#FFFFFF" height="278.9688" style="stroke:#181818;stroke-width:1.0;" width="10" x="2738" y="630.2344"/><rect fill="#FFFFFF" height="87.5625" style="stroke:#181818;stroke-width:1.0;" width="10" x="3325" y="784.3594"/><line style="stroke:#181818;stroke-width:0.5;stroke-dasharray:5.0,5.0;" x1="41" x2="41" y1="125.5781" y2="1039.0469"/><line style="stroke:#181818;stroke-width:0.5;stroke-dasharray:5.0,5.0;" x1="518.5" x2="518.5" y1="125.5781" y2="1039.0469"/><line style="stroke:#181818;stroke-width:0.5;stroke-dasharray:5.0,5.0;" x1="974.5" x2="974.5" y1="125.5781" y2="1039.0469"/><line style="stroke:#181818;stroke-width:0.5;stroke-dasharray:5.0,5.0;" x1="1501.5" x2="1501.5" y1="125.5781" y2="1039.0469"/><line style="stroke:#181818;stroke-width:0.5;stroke-dasharray:5.0,5.0;" x1="2030.5" x2="2030.5" y1="125.5781" y2="1039.0469"/><line style="stroke:#181818;stroke-width:0.5;stroke-dasharray:5.0,5.0;" x1="2742.5" x2="2742.5" y1="125.5781" y2="1039.0469"/><line style="stroke:#181818;stroke-width:0.5;stroke-dasharray:5.0,5.0;" x1="3330" x2="3330" y1="125.5781" y2="1039.0469"/><text fill="#000000" font-family="sans-serif" font-size="20" lengthAdjust="spacing" textLength="66" x="5" y="120.8613">Doctor</text><ellipse cx="41" cy="50.7969" fill="#E2E2F0" rx="8" ry="8" style="stroke:#181818;stroke-width:0.5;"/><path d="M41,58.7969 L41,85.7969 M28,66.7969 L54,66.7969 M41,85.7969 L28,100.7969 M41,85.7969 L54,100.7969 " fill="none" style="stroke:#181818;stroke-width:0.5;"/><text fill="#000000" font-family="sans-serif" font-size="20" lengthAdjust="spacing" textLength="66" x="5" y="1056.6113">Doctor</text><ellipse cx="41" cy="1069.8281" fill="#E2E2F0" rx="8" ry="8" style="stroke:#181818;stroke-width:0.5;"/><path d="M41,1077.8281 L41,1104.8281 M28,1085.8281 L54,1085.8281 M41,1104.8281 L28,1119.8281 M41,1104.8281 L54,1119.8281 " fill="none" style="stroke:#181818;stroke-width:0.5;"/><rect fill="#E2E2F0" height="37.2813" rx="2.5" ry="2.5" style="stroke:#181818;stroke-width:0.5;" width="63" x="487.5" y="87.2969"/><text fill="#000000" font-family="sans-serif" font-size="20" lengthAdjust="spacing" textLength="49" x="494.5" y="112.8613">View</text><rect fill="#E2E2F0" height="37.2813" rx="2.5" ry="2.5" style="stroke:#181818;stroke-width:0.5;" width="63" x="487.5" y="1038.0469"/><text fill="#000000" font-family="sans-serif" font-size="20" lengthAdjust="spacing" textLength="49" x="494.5" y="1063.6113">View</text><rect fill="#E2E2F0" height="37.2813" rx="2.5" ry="2.5" style="stroke:#181818;stroke-width:0.5;" width="433" x="758.5" y="87.2969"/><text fill="#000000" font-family="sans-serif" font-size="20" lengthAdjust="spacing" textLength="419" x="765.5" y="112.8613">ManageOperationRequisitionsComponent</text><rect fill="#E2E2F0" height="37.2813" rx="2.5" ry="2.5" style="stroke:#181818;stroke-width:0.5;" width="433" x="758.5" y="1038.0469"/><text fill="#000000" font-family="sans-serif" font-size="20" lengthAdjust="spacing" textLength="419" x="765.5" y="1063.6113">ManageOperationRequisitionsComponent</text><rect fill="#E2E2F0" height="37.2813" rx="2.5" ry="2.5" style="stroke:#181818;stroke-width:0.5;" width="417" x="1293.5" y="87.2969"/><text fill="#000000" font-family="sans-serif" font-size="20" lengthAdjust="spacing" textLength="403" x="1300.5" y="112.8613">UpdateOperationRequisitionComponent</text><rect fill="#E2E2F0" height="37.2813" rx="2.5" ry="2.5" style="stroke:#181818;stroke-width:0.5;" width="417" x="1293.5" y="1038.0469"/><text fill="#000000" font-family="sans-serif" font-size="20" lengthAdjust="spacing" textLength="403" x="1300.5" y="1063.6113">UpdateOperationRequisitionComponent</text><rect fill="#E2E2F0" height="37.2813" rx="2.5" ry="2.5" style="stroke:#181818;stroke-width:0.5;" width="269" x="1896.5" y="87.2969"/><text fill="#000000" font-family="sans-serif" font-size="20" lengthAdjust="spacing" textLength="255" x="1903.5" y="112.8613">OperationRequestService</text><rect fill="#E2E2F0" height="37.2813" rx="2.5" ry="2.5" style="stroke:#181818;stroke-width:0.5;" width="269" x="1896.5" y="1038.0469"/><text fill="#000000" font-family="sans-serif" font-size="20" lengthAdjust="spacing" textLength="255" x="1903.5" y="1063.6113">OperationRequestService</text><rect fill="#E2E2F0" height="37.2813" rx="2.5" ry="2.5" style="stroke:#181818;stroke-width:0.5;" width="173" x="2656.5" y="87.2969"/><text fill="#000000" font-family="sans-serif" font-size="20" lengthAdjust="spacing" textLength="159" x="2663.5" y="112.8613">AuthInterceptor</text><rect fill="#E2E2F0" height="37.2813" rx="2.5" ry="2.5" style="stroke:#181818;stroke-width:0.5;" width="173" x="2656.5" y="1038.0469"/><text fill="#000000" font-family="sans-serif" font-size="20" lengthAdjust="spacing" textLength="159" x="2663.5" y="1063.6113">AuthInterceptor</text><rect fill="#E2E2F0" height="37.2813" rx="2.5" ry="2.5" style="stroke:#181818;stroke-width:0.5;" width="60" x="3300" y="87.2969"/><text fill="#000000" font-family="sans-serif" font-size="20" lengthAdjust="spacing" textLength="46" x="3307" y="112.8613">MDR</text><rect fill="#E2E2F0" height="37.2813" rx="2.5" ry="2.5" style="stroke:#181818;stroke-width:0.5;" width="60" x="3300" y="1038.0469"/><text fill="#000000" font-family="sans-serif" font-size="20" lengthAdjust="spacing" textLength="46" x="3307" y="1063.6113">MDR</text><rect fill="#FFFFFF" height="894.4688" style="stroke:#181818;stroke-width:1.0;" width="10" x="36" y="135.5781"/><rect fill="#FFFFFF" height="199.4063" style="stroke:#181818;stroke-width:1.0;" width="10" x="514" y="164.8594"/><rect fill="#FFFFFF" height="619.5" style="stroke:#181818;stroke-width:1.0;" width="10" x="514" y="401.5469"/><rect fill="#FFFFFF" height="37.2813" style="stroke:#181818;stroke-width:1.0;" width="10" x="970" y="202.1406"/><rect fill="#FFFFFF" height="87.5625" style="stroke:#181818;stroke-width:1.0;" width="10" x="1497" y="239.4219"/><rect fill="#FFFFFF" height="478.375" style="stroke:#181818;stroke-width:1.0;" width="10" x="1497" y="505.3906"/><rect fill="#FFFFFF" height="353.5313" style="stroke:#181818;stroke-width:1.0;" width="10" x="2026" y="592.9531"/><rect fill="#FFFFFF" height="278.9688" style="stroke:#181818;stroke-width:1.0;" width="10" x="2738" y="630.2344"/><rect fill="#FFFFFF" height="87.5625" style="stroke:#181818;stroke-width:1.0;" width="10" x="3325" y="784.3594"/><polygon fill="#000000" points="502,160.8594,512,164.8594,502,168.8594,506,164.8594" style="stroke:#000000;stroke-width:1.0;"/><line style="stroke:#000000;stroke-width:1.0;" x1="46" x2="508" y1="164.8594" y2="164.8594"/><text fill="#000000" font-family="sans-serif" font-size="20" lengthAdjust="spacing" textLength="405" x="53" y="158.1426">Asks to update an Operation Requisition</text><polygon fill="#000000" points="958,198.1406,968,202.1406,958,206.1406,962,202.1406" style="stroke:#000000;stroke-width:1.0;"/><line style="stroke:#000000;stroke-width:1.0;" x1="524" x2="964" y1="202.1406" y2="202.1406"/><text fill="#000000" font-family="sans-serif" font-size="20" lengthAdjust="spacing" textLength="427" x="531" y="195.4238">routerLink='/update-operation-requisition'</text><polygon fill="#000000" points="1485,235.4219,1495,239.4219,1485,243.4219,1489,239.4219" style="stroke:#000000;stroke-width:1.0;"/><line style="stroke:#000000;stroke-width:1.0;" x1="975" x2="1491" y1="239.4219" y2="239.4219"/><text fill="#000000" font-family="sans-serif" font-size="20" lengthAdjust="spacing" textLength="498" x="982" y="232.7051">routes to UpdateOperationRequisitionComponent</text><line style="stroke:#000000;stroke-width:1.0;" x1="1507" x2="1549" y1="276.7031" y2="276.7031"/><line style="stroke:#000000;stroke-width:1.0;" x1="1549" x2="1549" y1="276.7031" y2="289.7031"/><line style="stroke:#000000;stroke-width:1.0;" x1="1508" x2="1549" y1="289.7031" y2="289.7031"/><polygon fill="#000000" points="1518,285.7031,1508,289.7031,1518,293.7031,1514,289.7031" style="stroke:#000000;stroke-width:1.0;"/><text fill="#000000" font-family="sans-serif" font-size="20" lengthAdjust="spacing" textLength="505" x="1514" y="269.9863">initializes UpdateOperationRequisitionComponent</text><polygon fill="#000000" points="535,322.9844,525,326.9844,535,330.9844,531,326.9844" style="stroke:#000000;stroke-width:1.0;"/><line style="stroke:#000000;stroke-width:1.0;stroke-dasharray:2.0,2.0;" x1="529" x2="1501" y1="326.9844" y2="326.9844"/><text fill="#000000" font-family="sans-serif" font-size="20" lengthAdjust="spacing" textLength="481" x="541" y="320.2676">returns UpdateOperationRequisitionComponent</text><polygon fill="#000000" points="57,360.2656,47,364.2656,57,368.2656,53,364.2656" style="stroke:#000000;stroke-width:1.0;"/><line style="stroke:#000000;stroke-width:1.0;stroke-dasharray:2.0,2.0;" x1="51" x2="518" y1="364.2656" y2="364.2656"/><text fill="#000000" font-family="sans-serif" font-size="20" lengthAdjust="spacing" textLength="371" x="63" y="357.5488">Asks for Operation Requisition's data</text><polygon fill="#000000" points="502,397.5469,512,401.5469,502,405.5469,506,401.5469" style="stroke:#000000;stroke-width:1.0;"/><line style="stroke:#000000;stroke-width:1.0;" x1="46" x2="508" y1="401.5469" y2="401.5469"/><text fill="#000000" font-family="sans-serif" font-size="20" lengthAdjust="spacing" textLength="443" x="53" y="394.8301">Sends updated Operation Requisition's data</text><path d="M529,414.5469 L529,470.5469 L867,470.5469 L867,424.5469 L857,414.5469 L529,414.5469 " fill="#FEFFDD" style="stroke:#181818;stroke-width:0.5;"/><path d="M857,414.5469 L857,424.5469 L867,424.5469 L857,414.5469 " fill="#FEFFDD" style="stroke:#181818;stroke-width:0.5;"/><text fill="#000000" font-family="sans-serif" font-size="20" lengthAdjust="spacing" textLength="317" x="535" y="438.1113">The data can be operationType,</text><text fill="#000000" font-family="sans-serif" font-size="20" lengthAdjust="spacing" textLength="244" x="535" y="461.3926">deadlineDate or priority.</text><polygon fill="#000000" points="1485,501.3906,1495,505.3906,1485,509.3906,1489,505.3906" style="stroke:#000000;stroke-width:1.0;"/><line style="stroke:#000000;stroke-width:1.0;" x1="524" x2="1491" y1="505.3906" y2="505.3906"/><text fill="#000000" font-family="sans-serif" font-size="20" lengthAdjust="spacing" textLength="369" x="531" y="498.6738">updateOperationRequisition($event)</text><line style="stroke:#000000;stroke-width:1.0;" x1="1507" x2="1549" y1="542.6719" y2="542.6719"/><line style="stroke:#000000;stroke-width:1.0;" x1="1549" x2="1549" y1="542.6719" y2="555.6719"/><line style="stroke:#000000;stroke-width:1.0;" x1="1508" x2="1549" y1="555.6719" y2="555.6719"/><polygon fill="#000000" points="1518,551.6719,1508,555.6719,1518,559.6719,1514,555.6719" style="stroke:#000000;stroke-width:1.0;"/><text fill="#000000" font-family="sans-serif" font-size="20" lengthAdjust="spacing" textLength="301" x="1514" y="535.9551">extractRequisitionIDFromUrl()</text><polygon fill="#000000" points="2014,588.9531,2024,592.9531,2014,596.9531,2018,592.9531" style="stroke:#000000;stroke-width:1.0;"/><line style="stroke:#000000;stroke-width:1.0;" x1="1507" x2="2020" y1="592.9531" y2="592.9531"/><text fill="#000000" font-family="sans-serif" font-size="20" lengthAdjust="spacing" textLength="473" x="1514" y="586.2363">updateOperationRequisition(requisitionID, dto)</text><polygon fill="#000000" points="2726,626.2344,2736,630.2344,2726,634.2344,2730,630.2344" style="stroke:#000000;stroke-width:1.0;"/><line style="stroke:#000000;stroke-width:1.0;" x1="2036" x2="2732" y1="630.2344" y2="630.2344"/><text fill="#000000" font-family="sans-serif" font-size="20" lengthAdjust="spacing" textLength="683" x="2043" y="623.5176">Sends HTTP Request to update Operation Requisition with new data</text><line style="stroke:#000000;stroke-width:1.0;" x1="2748" x2="2790" y1="667.5156" y2="667.5156"/><line style="stroke:#000000;stroke-width:1.0;" x1="2790" x2="2790" y1="667.5156" y2="680.5156"/><line style="stroke:#000000;stroke-width:1.0;" x1="2749" x2="2790" y1="680.5156" y2="680.5156"/><polygon fill="#000000" points="2759,676.5156,2749,680.5156,2759,684.5156,2755,680.5156" style="stroke:#000000;stroke-width:1.0;"/><text fill="#000000" font-family="sans-serif" font-size="20" lengthAdjust="spacing" textLength="563" x="2755" y="660.7988">Intercepts the request and adds the token to the header</text><path d="M2753,693.5156 L2753,749.5156 L3272,749.5156 L3272,703.5156 L3262,693.5156 L2753,693.5156 " fill="#FEFFDD" style="stroke:#181818;stroke-width:0.5;"/><path d="M3262,693.5156 L3262,703.5156 L3272,703.5156 L3262,693.5156 " fill="#FEFFDD" style="stroke:#181818;stroke-width:0.5;"/><text fill="#000000" font-family="sans-serif" font-size="20" lengthAdjust="spacing" textLength="498" x="2759" y="717.0801">The token is added to the header so that the MDR</text><text fill="#000000" font-family="sans-serif" font-size="20" lengthAdjust="spacing" textLength="442" x="2759" y="740.3613">can authenticate and authorize the request.</text><polygon fill="#000000" points="3313,780.3594,3323,784.3594,3313,788.3594,3317,784.3594" style="stroke:#000000;stroke-width:1.0;"/><line style="stroke:#000000;stroke-width:1.0;" x1="2748" x2="3319" y1="784.3594" y2="784.3594"/><text fill="#000000" font-family="sans-serif" font-size="20" lengthAdjust="spacing" textLength="473" x="2755" y="777.6426">updateOperationRequisition(requisitionID, dto)</text><line style="stroke:#000000;stroke-width:1.0;" x1="3335" x2="3377" y1="821.6406" y2="821.6406"/><line style="stroke:#000000;stroke-width:1.0;" x1="3377" x2="3377" y1="821.6406" y2="834.6406"/><line style="stroke:#000000;stroke-width:1.0;" x1="3336" x2="3377" y1="834.6406" y2="834.6406"/><polygon fill="#000000" points="3346,830.6406,3336,834.6406,3346,838.6406,3342,834.6406" style="stroke:#000000;stroke-width:1.0;"/><text fill="#000000" font-family="sans-serif" font-size="20" lengthAdjust="spacing" textLength="459" x="3342" y="814.9238">Validates updated Operation Requisition data</text><polygon fill="#000000" points="2759,867.9219,2749,871.9219,2759,875.9219,2755,871.9219" style="stroke:#000000;stroke-width:1.0;"/><line style="stroke:#000000;stroke-width:1.0;stroke-dasharray:2.0,2.0;" x1="2753" x2="3329" y1="871.9219" y2="871.9219"/><text fill="#000000" font-family="sans-serif" font-size="20" lengthAdjust="spacing" textLength="311" x="2765" y="865.2051">Returns Operation Status Code</text><polygon fill="#000000" points="2047,905.2031,2037,909.2031,2047,913.2031,2043,909.2031" style="stroke:#000000;stroke-width:1.0;"/><line style="stroke:#000000;stroke-width:1.0;stroke-dasharray:2.0,2.0;" x1="2041" x2="2742" y1="909.2031" y2="909.2031"/><text fill="#000000" font-family="sans-serif" font-size="20" lengthAdjust="spacing" textLength="311" x="2053" y="902.4863">Returns Operation Status Code</text><polygon fill="#000000" points="1518,942.4844,1508,946.4844,1518,950.4844,1514,946.4844" style="stroke:#000000;stroke-width:1.0;"/><line style="stroke:#000000;stroke-width:1.0;stroke-dasharray:2.0,2.0;" x1="1512" x2="2030" y1="946.4844" y2="946.4844"/><text fill="#000000" font-family="sans-serif" font-size="20" lengthAdjust="spacing" textLength="286" x="1524" y="939.7676">Returns Operation Response</text><polygon fill="#000000" points="535,979.7656,525,983.7656,535,987.7656,531,983.7656" style="stroke:#000000;stroke-width:1.0;"/><line style="stroke:#000000;stroke-width:1.0;stroke-dasharray:2.0,2.0;" x1="529" x2="1501" y1="983.7656" y2="983.7656"/><text fill="#000000" font-family="sans-serif" font-size="20" lengthAdjust="spacing" textLength="444" x="541" y="977.0488">Returns Operation Update Success message</text><polygon fill="#000000" points="57,1017.0469,47,1021.0469,57,1025.0469,53,1021.0469" style="stroke:#000000;stroke-width:1.0;"/><line style="stroke:#000000;stroke-width:1.0;stroke-dasharray:2.0,2.0;" x1="51" x2="518" y1="1021.0469" y2="1021.0469"/><text fill="#000000" font-family="sans-serif" font-size="20" lengthAdjust="spacing" textLength="444" x="63" y="1014.3301">Returns Operation Update Success message</text><!--SRC=[dLLjJzim4FwUNt62IGK966FQ6s98RTDebK2Tsf9F-sBYe_MQsfdjjEkc_VUTdJHD8316fQJ9-Pxdpi_TEMOXPCOqMwOgMI07ZdSiJssaf9s8NmXdfq5WXKqHhd25ARo5Q02XO3E2m9tIS9DnPeMSmIX3JKzAmXX_vC88znm4Sy4HS9dP3InnUOlQ11sp3GfNGgBTP0XAsxaAWjrAaZ9Zu7S0zEknP37JAfUyhrAbBovMBCrnTFiT4tjv2VlX-q4t-jZkgfNoFb4uw8MdxJu6zKeawAdUH6U3NfiRKGoYJuCFVgshjLeNvbvAVi6VUkuPMTWCsxE7_K4lUXVr78GbbWoXyd_CG1WGWHM9o9Yqi1SBNEyvUzoqNpD9z9NWDRrDNoqp9L5QZxiUzPj8NwrMP1DuCnhVGpOmQEoaqCnxZyQJfdCtj_EXjAWJp6XhtgaxlBU9S5pa68wz4695cP428HnVGdmENRCmO1NaFcLWyf4Egw1n43iexVaSI6wAJjsr-DnvNJ0SgotyME_WdHtUYKMNut3RBqby3i-GBU3OOAfUl9JkjYCMah0ifVaopw8kq8Ki6cskfVdVb7mMiIS9IstTzBPAsZ50tAmEZwkoJ51oKnQ5FusNYf1QpEOMr9t3JkVeLo2XQjxIq6_HKpe2Zhv92iXJEX525vAooxHGMjZDoOCY5phcZsfmy8fEAsaFdom3_hIQrckmOHXfjRpHwS5XvKlD_MGaNOSV0RUg5jLD1bsEfplSYlTbElqAvHZLEhnLIrWBEmU9wqBIYfYcgJlSqbQZHirA4kkIcaaEZFF2QDK2fOlcNkOaDEfx1I9ATrnDAsTX79ogt421SM_CUfCRNWTo1MKqzAIvI8fnvTv0zQElI2shau0q01Uvt01Hl5nV5v-kYYUcgN9C_-ZGGamFB2KSbsErSvzOPdC3VSMnCTiKqIM-xOnd0qbUtmbL-pr4Zj7Gv9e6p7LGVVuVeegJ02PvaY1zCfTqew_3uyF_4eOu-0i0]--></g></svg>