<?xml version="1.0" encoding="UTF-8" standalone="no"?><svg xmlns="http://www.w3.org/2000/svg" xmlns:xlink="http://www.w3.org/1999/xlink" contentStyleType="text/css" height="1493px" preserveAspectRatio="none" style="width:4056px;height:1493px;background:#FFFFFF;" version="1.1" viewBox="0 0 4056 1493" width="4056px" zoomAndPan="magnify"><defs/><g><text fill="#000000" font-family="sans-serif" font-size="14" font-weight="bold" lengthAdjust="spacing" textLength="443" x="1807.5" y="27.9951">Level 3 MDR Diagram for Updating Operation Requisition</text><rect fill="#FFFFFF" height="1261.125" style="stroke:#181818;stroke-width:1.0;" width="10" x="15.5" y="135.5781"/><rect fill="#FFFFFF" height="1222.8438" style="stroke:#181818;stroke-width:1.0;" width="10" x="727.5" y="164.8594"/><rect fill="#FFFFFF" height="1194.5625" style="stroke:#181818;stroke-width:1.0;" width="10" x="1617.5" y="202.1406"/><rect fill="#FFFFFF" height="111.8438" style="stroke:#181818;stroke-width:1.0;" width="10" x="2041.5" y="239.4219"/><rect fill="#FFFFFF" height="111.8438" style="stroke:#181818;stroke-width:1.0;" width="10" x="2280.5" y="962.6094"/><rect fill="#FFFFFF" height="43.2813" style="stroke:#181818;stroke-width:1.0;" width="10" x="2466.5" y="469.6719"/><rect fill="#FFFFFF" height="43.2813" style="stroke:#181818;stroke-width:1.0;" width="10" x="2466.5" y="604.7969"/><rect fill="#FFFFFF" height="43.2813" style="stroke:#181818;stroke-width:1.0;" width="10" x="2466.5" y="739.9219"/><rect fill="#FFFFFF" height="43.2813" style="stroke:#181818;stroke-width:1.0;" width="10" x="2978.5" y="875.0469"/><rect fill="#FFFFFF" height="124.8438" style="stroke:#181818;stroke-width:1.0;" width="10" x="3149" y="1118.7344"/><rect fill="#FFFFFF" height="43.2813" style="stroke:#181818;stroke-width:1.0;" width="10" x="3705" y="1156.0156"/><rect fill="#FFFFFF" height="37.2813" style="stroke:#181818;stroke-width:1.0;" width="10" x="3970" y="276.7031"/><rect fill="#FFFFFF" height="37.2813" style="stroke:#181818;stroke-width:1.0;" width="10" x="3970" y="999.8906"/><rect fill="#EBF5FB" height="985.1563" style="stroke:#000000;stroke-width:1.5;" width="3474" x="575" y="366.2656"/><rect fill="#EBF5FB" height="121.125" style="stroke:#000000;stroke-width:1.5;" width="1466.5" x="1478" y="406.8281"/><rect fill="#EBF5FB" height="121.125" style="stroke:#000000;stroke-width:1.5;" width="1483.5" x="1478" y="541.9531"/><rect fill="#EBF5FB" height="121.125" style="stroke:#000000;stroke-width:1.5;" width="1317.5" x="1478" y="677.0781"/><rect fill="#EBF5FB" height="270.25" style="stroke:#000000;stroke-width:1.5;" width="2561" x="1478" y="812.2031"/><rect fill="#EBF5FB" height="62.5625" style="stroke:none;stroke-width:1.0;" width="3474" x="575" y="1288.8594"/><line style="stroke:#181818;stroke-width:0.5;stroke-dasharray:5.0,5.0;" x1="20" x2="20" y1="125.5781" y2="1405.7031"/><line style="stroke:#181818;stroke-width:0.5;stroke-dasharray:5.0,5.0;" x1="732" x2="732" y1="125.5781" y2="1405.7031"/><line style="stroke:#181818;stroke-width:0.5;stroke-dasharray:5.0,5.0;" x1="1622" x2="1622" y1="125.5781" y2="1405.7031"/><line style="stroke:#181818;stroke-width:0.5;stroke-dasharray:5.0,5.0;" x1="2046.5" x2="2046.5" y1="125.5781" y2="1405.7031"/><line style="stroke:#181818;stroke-width:0.5;stroke-dasharray:5.0,5.0;" x1="2285.5" x2="2285.5" y1="125.5781" y2="1405.7031"/><line style="stroke:#181818;stroke-width:0.5;stroke-dasharray:5.0,5.0;" x1="2471.5" x2="2471.5" y1="125.5781" y2="1405.7031"/><line style="stroke:#181818;stroke-width:0.5;stroke-dasharray:5.0,5.0;" x1="2983.5" x2="2983.5" y1="125.5781" y2="1405.7031"/><line style="stroke:#181818;stroke-width:0.5;stroke-dasharray:5.0,5.0;" x1="3153.5" x2="3153.5" y1="125.5781" y2="1405.7031"/><line style="stroke:#181818;stroke-width:0.5;stroke-dasharray:5.0,5.0;" x1="3709.5" x2="3709.5" y1="125.5781" y2="1405.7031"/><line style="stroke:#181818;stroke-width:0.5;stroke-dasharray:5.0,5.0;" x1="3975" x2="3975" y1="125.5781" y2="1405.7031"/><text fill="#000000" font-family="sans-serif" font-size="20" lengthAdjust="spacing" textLength="25" x="5" y="120.8613">FE</text><ellipse cx="20.5" cy="50.7969" fill="#E2E2F0" rx="8" ry="8" style="stroke:#181818;stroke-width:0.5;"/><path d="M20.5,58.7969 L20.5,85.7969 M7.5,66.7969 L33.5,66.7969 M20.5,85.7969 L7.5,100.7969 M20.5,85.7969 L33.5,100.7969 " fill="none" style="stroke:#181818;stroke-width:0.5;"/><text fill="#000000" font-family="sans-serif" font-size="20" lengthAdjust="spacing" textLength="25" x="5" y="1423.2676">FE</text><ellipse cx="20.5" cy="1436.4844" fill="#E2E2F0" rx="8" ry="8" style="stroke:#181818;stroke-width:0.5;"/><path d="M20.5,1444.4844 L20.5,1471.4844 M7.5,1452.4844 L33.5,1452.4844 M20.5,1471.4844 L7.5,1486.4844 M20.5,1471.4844 L33.5,1486.4844 " fill="none" style="stroke:#181818;stroke-width:0.5;"/><rect fill="#E2E2F0" height="37.2813" rx="2.5" ry="2.5" style="stroke:#181818;stroke-width:0.5;" width="295" x="585" y="87.2969"/><text fill="#000000" font-family="sans-serif" font-size="20" lengthAdjust="spacing" textLength="281" x="592" y="112.8613">OperationRequestController</text><rect fill="#E2E2F0" height="37.2813" rx="2.5" ry="2.5" style="stroke:#181818;stroke-width:0.5;" width="295" x="585" y="1404.7031"/><text fill="#000000" font-family="sans-serif" font-size="20" lengthAdjust="spacing" textLength="281" x="592" y="1430.2676">OperationRequestController</text><rect fill="#E2E2F0" height="37.2813" rx="2.5" ry="2.5" style="stroke:#181818;stroke-width:0.5;" width="269" x="1488" y="87.2969"/><text fill="#000000" font-family="sans-serif" font-size="20" lengthAdjust="spacing" textLength="255" x="1495" y="112.8613">OperationRequestService</text><rect fill="#E2E2F0" height="37.2813" rx="2.5" ry="2.5" style="stroke:#181818;stroke-width:0.5;" width="269" x="1488" y="1404.7031"/><text fill="#000000" font-family="sans-serif" font-size="20" lengthAdjust="spacing" textLength="255" x="1495" y="1430.2676">OperationRequestService</text><rect fill="#E2E2F0" height="37.2813" rx="2.5" ry="2.5" style="stroke:#181818;stroke-width:0.5;" width="302" x="1895.5" y="87.2969"/><text fill="#000000" font-family="sans-serif" font-size="20" lengthAdjust="spacing" textLength="288" x="1902.5" y="112.8613">OperationRequestRepository</text><rect fill="#E2E2F0" height="37.2813" rx="2.5" ry="2.5" style="stroke:#181818;stroke-width:0.5;" width="302" x="1895.5" y="1404.7031"/><text fill="#000000" font-family="sans-serif" font-size="20" lengthAdjust="spacing" textLength="288" x="1902.5" y="1430.2676">OperationRequestRepository</text><rect fill="#E2E2F0" height="37.2813" rx="2.5" ry="2.5" style="stroke:#181818;stroke-width:0.5;" width="156" x="2207.5" y="87.2969"/><text fill="#000000" font-family="sans-serif" font-size="20" lengthAdjust="spacing" textLength="142" x="2214.5" y="112.8613">LogRepository</text><rect fill="#E2E2F0" height="37.2813" rx="2.5" ry="2.5" style="stroke:#181818;stroke-width:0.5;" width="156" x="2207.5" y="1404.7031"/><text fill="#000000" font-family="sans-serif" font-size="20" lengthAdjust="spacing" textLength="142" x="2214.5" y="1430.2676">LogRepository</text><rect fill="#E2E2F0" height="37.2813" rx="2.5" ry="2.5" style="stroke:#181818;stroke-width:0.5;" width="196" x="2373.5" y="87.2969"/><text fill="#000000" font-family="sans-serif" font-size="20" lengthAdjust="spacing" textLength="182" x="2380.5" y="112.8613">OperationRequest</text><rect fill="#E2E2F0" height="37.2813" rx="2.5" ry="2.5" style="stroke:#181818;stroke-width:0.5;" width="196" x="2373.5" y="1404.7031"/><text fill="#000000" font-family="sans-serif" font-size="20" lengthAdjust="spacing" textLength="182" x="2380.5" y="1430.2676">OperationRequest</text><rect fill="#E2E2F0" height="37.2813" rx="2.5" ry="2.5" style="stroke:#181818;stroke-width:0.5;" width="50" x="2958.5" y="87.2969"/><text fill="#000000" font-family="sans-serif" font-size="20" lengthAdjust="spacing" textLength="36" x="2965.5" y="112.8613">Log</text><rect fill="#E2E2F0" height="37.2813" rx="2.5" ry="2.5" style="stroke:#181818;stroke-width:0.5;" width="50" x="2958.5" y="1404.7031"/><text fill="#000000" font-family="sans-serif" font-size="20" lengthAdjust="spacing" textLength="36" x="2965.5" y="1430.2676">Log</text><rect fill="#E2E2F0" height="37.2813" rx="2.5" ry="2.5" style="stroke:#181818;stroke-width:0.5;" width="271" x="3018.5" y="87.2969"/><text fill="#000000" font-family="sans-serif" font-size="20" lengthAdjust="spacing" textLength="257" x="3025.5" y="112.8613">OperationRequestMapper</text><rect fill="#E2E2F0" height="37.2813" rx="2.5" ry="2.5" style="stroke:#181818;stroke-width:0.5;" width="271" x="3018.5" y="1404.7031"/><text fill="#000000" font-family="sans-serif" font-size="20" lengthAdjust="spacing" textLength="257" x="3025.5" y="1430.2676">OperationRequestMapper</text><rect fill="#E2E2F0" height="37.2813" rx="2.5" ry="2.5" style="stroke:#181818;stroke-width:0.5;" width="239" x="3590.5" y="87.2969"/><text fill="#000000" font-family="sans-serif" font-size="20" lengthAdjust="spacing" textLength="225" x="3597.5" y="112.8613">OperationRequestDTO</text><rect fill="#E2E2F0" height="37.2813" rx="2.5" ry="2.5" style="stroke:#181818;stroke-width:0.5;" width="239" x="3590.5" y="1404.7031"/><text fill="#000000" font-family="sans-serif" font-size="20" lengthAdjust="spacing" textLength="225" x="3597.5" y="1430.2676">OperationRequestDTO</text><rect fill="#E2E2F0" height="37.2813" rx="2.5" ry="2.5" style="stroke:#181818;stroke-width:0.5;" width="108" x="3921" y="87.2969"/><text fill="#000000" font-family="sans-serif" font-size="20" lengthAdjust="spacing" textLength="94" x="3928" y="112.8613">Database</text><rect fill="#E2E2F0" height="37.2813" rx="2.5" ry="2.5" style="stroke:#181818;stroke-width:0.5;" width="108" x="3921" y="1404.7031"/><text fill="#000000" font-family="sans-serif" font-size="20" lengthAdjust="spacing" textLength="94" x="3928" y="1430.2676">Database</text><rect fill="#FFFFFF" height="1261.125" style="stroke:#181818;stroke-width:1.0;" width="10" x="15.5" y="135.5781"/><rect fill="#FFFFFF" height="1222.8438" style="stroke:#181818;stroke-width:1.0;" width="10" x="727.5" y="164.8594"/><rect fill="#FFFFFF" height="1194.5625" style="stroke:#181818;stroke-width:1.0;" width="10" x="1617.5" y="202.1406"/><rect fill="#FFFFFF" height="111.8438" style="stroke:#181818;stroke-width:1.0;" width="10" x="2041.5" y="239.4219"/><rect fill="#FFFFFF" height="111.8438" style="stroke:#181818;stroke-width:1.0;" width="10" x="2280.5" y="962.6094"/><rect fill="#FFFFFF" height="43.2813" style="stroke:#181818;stroke-width:1.0;" width="10" x="2466.5" y="469.6719"/><rect fill="#FFFFFF" height="43.2813" style="stroke:#181818;stroke-width:1.0;" width="10" x="2466.5" y="604.7969"/><rect fill="#FFFFFF" height="43.2813" style="stroke:#181818;stroke-width:1.0;" width="10" x="2466.5" y="739.9219"/><rect fill="#FFFFFF" height="43.2813" style="stroke:#181818;stroke-width:1.0;" width="10" x="2978.5" y="875.0469"/><rect fill="#FFFFFF" height="124.8438" style="stroke:#181818;stroke-width:1.0;" width="10" x="3149" y="1118.7344"/><rect fill="#FFFFFF" height="43.2813" style="stroke:#181818;stroke-width:1.0;" width="10" x="3705" y="1156.0156"/><rect fill="#FFFFFF" height="37.2813" style="stroke:#181818;stroke-width:1.0;" width="10" x="3970" y="276.7031"/><rect fill="#FFFFFF" height="37.2813" style="stroke:#181818;stroke-width:1.0;" width="10" x="3970" y="999.8906"/><polygon fill="#000000" points="715.5,160.8594,725.5,164.8594,715.5,168.8594,719.5,164.8594" style="stroke:#000000;stroke-width:1.0;"/><line style="stroke:#000000;stroke-width:1.0;" x1="25.5" x2="721.5" y1="164.8594" y2="164.8594"/><text fill="#000000" font-family="sans-serif" font-size="20" lengthAdjust="spacing" textLength="683" x="32.5" y="158.1426">Sends HTTP Request to update Operation Requisition with new data</text><polygon fill="#000000" points="1605.5,198.1406,1615.5,202.1406,1605.5,206.1406,1609.5,202.1406" style="stroke:#000000;stroke-width:1.0;"/><line style="stroke:#000000;stroke-width:1.0;" x1="737.5" x2="1611.5" y1="202.1406" y2="202.1406"/><text fill="#000000" font-family="sans-serif" font-size="20" lengthAdjust="spacing" textLength="861" x="744.5" y="195.4238">updateOperationRequisition(string requisitionID, UpdatingOperationRequestDTO dto)</text><polygon fill="#000000" points="2029.5,235.4219,2039.5,239.4219,2029.5,243.4219,2033.5,239.4219" style="stroke:#000000;stroke-width:1.0;"/><line style="stroke:#000000;stroke-width:1.0;" x1="1627.5" x2="2035.5" y1="239.4219" y2="239.4219"/><text fill="#000000" font-family="sans-serif" font-size="20" lengthAdjust="spacing" textLength="395" x="1634.5" y="232.7051">getByRequisitionIDAsync(requisitionID)</text><polygon fill="#000000" points="3958,272.7031,3968,276.7031,3958,280.7031,3962,276.7031" style="stroke:#000000;stroke-width:1.0;"/><line style="stroke:#000000;stroke-width:1.0;" x1="2051.5" x2="3964" y1="276.7031" y2="276.7031"/><text fill="#000000" font-family="sans-serif" font-size="20" lengthAdjust="spacing" textLength="792" x="2058.5" y="269.9863">_objs.Where(x =&gt; requisitionID.Equals(x.RequisitionID)).FirstOrDefaultAsync();</text><polygon fill="#000000" points="2062.5,309.9844,2052.5,313.9844,2062.5,317.9844,2058.5,313.9844" style="stroke:#000000;stroke-width:1.0;"/><line style="stroke:#000000;stroke-width:1.0;stroke-dasharray:2.0,2.0;" x1="2056.5" x2="3974" y1="313.9844" y2="313.9844"/><text fill="#000000" font-family="sans-serif" font-size="20" lengthAdjust="spacing" textLength="99" x="2068.5" y="307.2676">return var</text><polygon fill="#000000" points="1638.5,347.2656,1628.5,351.2656,1638.5,355.2656,1634.5,351.2656" style="stroke:#000000;stroke-width:1.0;"/><line style="stroke:#000000;stroke-width:1.0;stroke-dasharray:2.0,2.0;" x1="1632.5" x2="2045.5" y1="351.2656" y2="351.2656"/><text fill="#000000" font-family="sans-serif" font-size="20" lengthAdjust="spacing" textLength="99" x="1644.5" y="344.5488">return var</text><path d="M575,366.2656 L651,366.2656 L651,381.5469 L641,391.5469 L575,391.5469 L575,366.2656 " fill="#EEEEEE" style="stroke:#000000;stroke-width:1.5;"/><rect fill="none" height="985.1563" style="stroke:#000000;stroke-width:1.5;" width="3474" x="575" y="366.2656"/><text fill="#000000" font-family="sans-serif" font-size="20" font-weight="bold" lengthAdjust="spacing" textLength="31" x="590" y="385.8301">alt</text><text fill="#000000" font-family="sans-serif" font-size="20" font-weight="bold" lengthAdjust="spacing" textLength="175" x="666" y="386.8301">[var is not null]</text><path d="M1478,406.8281 L1561,406.8281 L1561,422.1094 L1551,432.1094 L1478,432.1094 L1478,406.8281 " fill="#EEEEEE" style="stroke:#000000;stroke-width:1.5;"/><rect fill="none" height="121.125" style="stroke:#000000;stroke-width:1.5;" width="1466.5" x="1478" y="406.8281"/><text fill="#000000" font-family="sans-serif" font-size="20" font-weight="bold" lengthAdjust="spacing" textLength="38" x="1493" y="426.3926">opt</text><text fill="#000000" font-family="sans-serif" font-size="20" font-weight="bold" lengthAdjust="spacing" textLength="740" x="1576" y="427.3926">[Operation Type is provided and different from the current data]</text><polygon fill="#000000" points="2454.5,465.6719,2464.5,469.6719,2454.5,473.6719,2458.5,469.6719" style="stroke:#000000;stroke-width:1.0;"/><line style="stroke:#000000;stroke-width:1.0;" x1="1627.5" x2="2460.5" y1="469.6719" y2="469.6719"/><text fill="#000000" font-family="sans-serif" font-size="20" lengthAdjust="spacing" textLength="424" x="1634.5" y="462.9551">ChangeOperationType(dto.operationType)</text><line style="stroke:#000000;stroke-width:1.0;" x1="2476.5" x2="2518.5" y1="511.9531" y2="511.9531"/><line style="stroke:#000000;stroke-width:1.0;" x1="2518.5" x2="2518.5" y1="511.9531" y2="524.9531"/><line style="stroke:#000000;stroke-width:1.0;" x1="2471.5" x2="2518.5" y1="524.9531" y2="524.9531"/><polygon fill="#000000" points="2481.5,520.9531,2471.5,524.9531,2481.5,528.9531,2477.5,524.9531" style="stroke:#000000;stroke-width:1.0;"/><text fill="#000000" font-family="sans-serif" font-size="20" lengthAdjust="spacing" textLength="449" x="2483.5" y="505.2363">ChangeOperationType(string operationType)</text><path d="M1478,541.9531 L1561,541.9531 L1561,557.2344 L1551,567.2344 L1478,567.2344 L1478,541.9531 " fill="#EEEEEE" style="stroke:#000000;stroke-width:1.5;"/><rect fill="none" height="121.125" style="stroke:#000000;stroke-width:1.5;" width="1483.5" x="1478" y="541.9531"/><text fill="#000000" font-family="sans-serif" font-size="20" font-weight="bold" lengthAdjust="spacing" textLength="38" x="1493" y="561.5176">opt</text><text fill="#000000" font-family="sans-serif" font-size="20" font-weight="bold" lengthAdjust="spacing" textLength="727" x="1576" y="562.5176">[Deadline Date is provided and different from the current data]</text><polygon fill="#000000" points="2454.5,600.7969,2464.5,604.7969,2454.5,608.7969,2458.5,604.7969" style="stroke:#000000;stroke-width:1.0;"/><line style="stroke:#000000;stroke-width:1.0;" x1="1627.5" x2="2460.5" y1="604.7969" y2="604.7969"/><text fill="#000000" font-family="sans-serif" font-size="20" lengthAdjust="spacing" textLength="402" x="1634.5" y="598.0801">ChangeDeadlineDate(dto.deadlineDate)</text><line style="stroke:#000000;stroke-width:1.0;" x1="2476.5" x2="2518.5" y1="647.0781" y2="647.0781"/><line style="stroke:#000000;stroke-width:1.0;" x1="2518.5" x2="2518.5" y1="647.0781" y2="660.0781"/><line style="stroke:#000000;stroke-width:1.0;" x1="2471.5" x2="2518.5" y1="660.0781" y2="660.0781"/><polygon fill="#000000" points="2481.5,656.0781,2471.5,660.0781,2481.5,664.0781,2477.5,660.0781" style="stroke:#000000;stroke-width:1.0;"/><text fill="#000000" font-family="sans-serif" font-size="20" lengthAdjust="spacing" textLength="466" x="2483.5" y="640.3613">ChangeDeadlineDate(DateTime deadlineDate)</text><path d="M1478,677.0781 L1561,677.0781 L1561,692.3594 L1551,702.3594 L1478,702.3594 L1478,677.0781 " fill="#EEEEEE" style="stroke:#000000;stroke-width:1.5;"/><rect fill="none" height="121.125" style="stroke:#000000;stroke-width:1.5;" width="1317.5" x="1478" y="677.0781"/><text fill="#000000" font-family="sans-serif" font-size="20" font-weight="bold" lengthAdjust="spacing" textLength="38" x="1493" y="696.6426">opt</text><text fill="#000000" font-family="sans-serif" font-size="20" font-weight="bold" lengthAdjust="spacing" textLength="650" x="1576" y="697.6426">[Priority is provided and different from the current data]</text><polygon fill="#000000" points="2454.5,735.9219,2464.5,739.9219,2454.5,743.9219,2458.5,739.9219" style="stroke:#000000;stroke-width:1.0;"/><line style="stroke:#000000;stroke-width:1.0;" x1="1627.5" x2="2460.5" y1="739.9219" y2="739.9219"/><text fill="#000000" font-family="sans-serif" font-size="20" lengthAdjust="spacing" textLength="275" x="1634.5" y="733.2051">ChangePriority(dto.priority)</text><line style="stroke:#000000;stroke-width:1.0;" x1="2476.5" x2="2518.5" y1="782.2031" y2="782.2031"/><line style="stroke:#000000;stroke-width:1.0;" x1="2518.5" x2="2518.5" y1="782.2031" y2="795.2031"/><line style="stroke:#000000;stroke-width:1.0;" x1="2471.5" x2="2518.5" y1="795.2031" y2="795.2031"/><polygon fill="#000000" points="2481.5,791.2031,2471.5,795.2031,2481.5,799.2031,2477.5,795.2031" style="stroke:#000000;stroke-width:1.0;"/><text fill="#000000" font-family="sans-serif" font-size="20" lengthAdjust="spacing" textLength="300" x="2483.5" y="775.4863">ChangePriority(string priority)</text><path d="M1478,812.2031 L1561,812.2031 L1561,827.4844 L1551,837.4844 L1478,837.4844 L1478,812.2031 " fill="#EEEEEE" style="stroke:#000000;stroke-width:1.5;"/><rect fill="none" height="270.25" style="stroke:#000000;stroke-width:1.5;" width="2561" x="1478" y="812.2031"/><text fill="#000000" font-family="sans-serif" font-size="20" font-weight="bold" lengthAdjust="spacing" textLength="38" x="1493" y="831.7676">opt</text><text fill="#000000" font-family="sans-serif" font-size="20" font-weight="bold" lengthAdjust="spacing" textLength="366" x="1576" y="832.7676">[At least one field was updated]</text><polygon fill="#000000" points="2966.5,871.0469,2976.5,875.0469,2966.5,879.0469,2970.5,875.0469" style="stroke:#000000;stroke-width:1.0;"/><line style="stroke:#000000;stroke-width:1.0;" x1="1627.5" x2="2972.5" y1="875.0469" y2="875.0469"/><text fill="#000000" font-family="sans-serif" font-size="20" lengthAdjust="spacing" textLength="1332" x="1634.5" y="868.3301">new Log(TypeOfAction.Update, requisitionID, "Operation Requisition updated. The following fields were updated: " + updatedFields)</text><line style="stroke:#000000;stroke-width:1.0;" x1="2988.5" x2="3030.5" y1="917.3281" y2="917.3281"/><line style="stroke:#000000;stroke-width:1.0;" x1="3030.5" x2="3030.5" y1="917.3281" y2="930.3281"/><line style="stroke:#000000;stroke-width:1.0;" x1="2983.5" x2="3030.5" y1="930.3281" y2="930.3281"/><polygon fill="#000000" points="2993.5,926.3281,2983.5,930.3281,2993.5,934.3281,2989.5,930.3281" style="stroke:#000000;stroke-width:1.0;"/><text fill="#000000" font-family="sans-serif" font-size="20" lengthAdjust="spacing" textLength="52" x="2995.5" y="910.6113">Log()</text><polygon fill="#000000" points="2268.5,958.6094,2278.5,962.6094,2268.5,966.6094,2272.5,962.6094" style="stroke:#000000;stroke-width:1.0;"/><line style="stroke:#000000;stroke-width:1.0;" x1="1627.5" x2="2274.5" y1="962.6094" y2="962.6094"/><text fill="#000000" font-family="sans-serif" font-size="20" lengthAdjust="spacing" textLength="144" x="1634.5" y="955.8926">addAsync(log)</text><polygon fill="#000000" points="3958,995.8906,3968,999.8906,3958,1003.8906,3962,999.8906" style="stroke:#000000;stroke-width:1.0;"/><line style="stroke:#000000;stroke-width:1.0;" x1="2290.5" x2="3964" y1="999.8906" y2="999.8906"/><text fill="#000000" font-family="sans-serif" font-size="20" lengthAdjust="spacing" textLength="203" x="2297.5" y="993.1738">_objs.AddAsync(log)</text><polygon fill="#000000" points="2301.5,1033.1719,2291.5,1037.1719,2301.5,1041.1719,2297.5,1037.1719" style="stroke:#000000;stroke-width:1.0;"/><line style="stroke:#000000;stroke-width:1.0;stroke-dasharray:2.0,2.0;" x1="2295.5" x2="3974" y1="1037.1719" y2="1037.1719"/><text fill="#000000" font-family="sans-serif" font-size="20" lengthAdjust="spacing" textLength="99" x="2307.5" y="1030.4551">return log</text><polygon fill="#000000" points="1638.5,1070.4531,1628.5,1074.4531,1638.5,1078.4531,1634.5,1074.4531" style="stroke:#000000;stroke-width:1.0;"/><line style="stroke:#000000;stroke-width:1.0;stroke-dasharray:2.0,2.0;" x1="1632.5" x2="2284.5" y1="1074.4531" y2="1074.4531"/><text fill="#000000" font-family="sans-serif" font-size="20" lengthAdjust="spacing" textLength="99" x="1644.5" y="1067.7363">return log</text><polygon fill="#000000" points="3137,1114.7344,3147,1118.7344,3137,1122.7344,3141,1118.7344" style="stroke:#000000;stroke-width:1.0;"/><line style="stroke:#000000;stroke-width:1.0;" x1="1627.5" x2="3143" y1="1118.7344" y2="1118.7344"/><text fill="#000000" font-family="sans-serif" font-size="20" lengthAdjust="spacing" textLength="249" x="1634.5" y="1112.0176">toDto(operationRequest)</text><polygon fill="#000000" points="3693,1152.0156,3703,1156.0156,3693,1160.0156,3697,1156.0156" style="stroke:#000000;stroke-width:1.0;"/><line style="stroke:#000000;stroke-width:1.0;" x1="3159" x2="3699" y1="1156.0156" y2="1156.0156"/><text fill="#000000" font-family="sans-serif" font-size="20" lengthAdjust="spacing" textLength="527" x="3166" y="1149.2988">new OperationRequestDTO(operationRequest fields)</text><line style="stroke:#000000;stroke-width:1.0;" x1="3715" x2="3757" y1="1198.2969" y2="1198.2969"/><line style="stroke:#000000;stroke-width:1.0;" x1="3757" x2="3757" y1="1198.2969" y2="1211.2969"/><line style="stroke:#000000;stroke-width:1.0;" x1="3710" x2="3757" y1="1211.2969" y2="1211.2969"/><polygon fill="#000000" points="3720,1207.2969,3710,1211.2969,3720,1215.2969,3716,1211.2969" style="stroke:#000000;stroke-width:1.0;"/><text fill="#000000" font-family="sans-serif" font-size="20" lengthAdjust="spacing" textLength="241" x="3722" y="1191.5801">OperationRequestDTO()</text><polygon fill="#000000" points="1638.5,1239.5781,1628.5,1243.5781,1638.5,1247.5781,1634.5,1243.5781" style="stroke:#000000;stroke-width:1.0;"/><line style="stroke:#000000;stroke-width:1.0;stroke-dasharray:2.0,2.0;" x1="1632.5" x2="3153" y1="1243.5781" y2="1243.5781"/><text fill="#000000" font-family="sans-serif" font-size="20" lengthAdjust="spacing" textLength="101" x="1644.5" y="1236.8613">return dto</text><polygon fill="#000000" points="748.5,1276.8594,738.5,1280.8594,748.5,1284.8594,744.5,1280.8594" style="stroke:#000000;stroke-width:1.0;"/><line style="stroke:#000000;stroke-width:1.0;stroke-dasharray:2.0,2.0;" x1="742.5" x2="1616.5" y1="1280.8594" y2="1280.8594"/><text fill="#000000" font-family="sans-serif" font-size="20" lengthAdjust="spacing" textLength="101" x="754.5" y="1274.1426">return dto</text><line style="stroke:#000000;stroke-width:1.0;stroke-dasharray:2.0,2.0;" x1="575" x2="4049" y1="1289.8594" y2="1289.8594"/><text fill="#000000" font-family="sans-serif" font-size="20" font-weight="bold" lengthAdjust="spacing" textLength="130" x="580" y="1308.4238">[var is null]</text><polygon fill="#000000" points="748.5,1339.4219,738.5,1343.4219,748.5,1347.4219,744.5,1343.4219" style="stroke:#000000;stroke-width:1.0;"/><line style="stroke:#000000;stroke-width:1.0;stroke-dasharray:2.0,2.0;" x1="742.5" x2="1616.5" y1="1343.4219" y2="1343.4219"/><text fill="#000000" font-family="sans-serif" font-size="20" lengthAdjust="spacing" textLength="390" x="754.5" y="1336.7051">return Operation Requisition not found</text><polygon fill="#000000" points="36.5,1383.7031,26.5,1387.7031,36.5,1391.7031,32.5,1387.7031" style="stroke:#000000;stroke-width:1.0;"/><line style="stroke:#000000;stroke-width:1.0;stroke-dasharray:2.0,2.0;" x1="30.5" x2="731.5" y1="1387.7031" y2="1387.7031"/><text fill="#000000" font-family="sans-serif" font-size="20" lengthAdjust="spacing" textLength="413" x="42.5" y="1380.9863">Returns Operation Status Response Code</text><!--SRC=[hLR1Zjis4BthAmQRGsqqCT8KQHitNS0IBRI030UoYnmBhZIscQL5XQJiE4N_lKDAbYMlra20w618epUFysQeHvj7KPHSyxrKsIFcaEE6LzB6gh0hyHNXpUiWiC9AX0GFAE5dMB0KcE1Roe6Dql1tcNChYYqiIzHqfmf8yNCbZ73tGR0JEGBkItk2FUuVK9lW1tDU5H9He3sL24hRdGg2ovjCScFWtm3e2ddskDMgAl98IQNVlpzmMU7ouHDczluUNh1VvhFujs6eLifZOZOFsUjXZ45z41bwgf_YD_Dm24OKy_ZT_5V_RgQrEjRXK18k-AzRUqaHliNXwk75F8pVng5BuPcbG3m7RkWte6mhCb7omi9Tsq_NJZGsefbe9INgEmUFRgDNjIGFNTs6fbWgcfRI9uzE- -X4RQy0INgRpuEMJsdgvDkv2rwMZS35RIHRBpsCzM6CM_x0JIsSXRx5ui0jklvIer_TGpI55HQvWJ_Nwm_Gq85LKBcjZCCR6Ox2xg308n26NrYZ87ASgscJtIkpoHqPgzqNeY-XlzZBziiPK0QvLUFB8gjWvHP9fx156vxIBi_Cd8firAFkPAP1wZ9PE8L_rCCdC_cuGusZB_37VR-SoVnpnQKPVPdqsCVZIIoqiKlDQcUebnl_Vbc2cin2U5NNfz5Mke03rq6ENKZg4Qld46d0fNL140OAPQ6efFHVZofjPo9hvnK4ARKwaB7am0ioBR7Pa2eQ_qQhFTWTGbPf7_33WkRoJLnIbT6E5zlBg1pfY3e-KTt8kCrhgwHDVOujqrjapS2VuUleRXXfExPY6V9SaYq2Su3lfFLCwZYzrBmJ-3QbFIhtinPxX66-sqe_QA6qe8FXEuayytc1PVFmRU9QYcQ2JrbkIvfPaCZ9JXGDS2DGvd0a8wgz8UyNdaozdv0pZjp-M6vccTih4-yB-FBQBkw6VQcXdi2QkhIXyq4TNU5-RGD7QkCPCeKx-F7y4Flt0yr9sb3I5EaA7DIVNEcXBl8yhnr2gkqG-QNpoPKnpMvdih2DDMwJNEo6KeRgw-Gar_xpJ4hI7wdNjPZIuS2i6gahewxBR7CN_d7XPTMZ7N3s9oJDfAwuc7za3TSGJvtGLNjUlgUJFeLhuE8ihJuBEq2K1biJFXlmDN1u6phFthZ_E87hNUHpulcKC2x9TB9MbjkA_cQWALL1wqKgn-vH40N_0m00]--></g></svg>