<?xml version="1.0" encoding="UTF-8" standalone="no"?><svg xmlns="http://www.w3.org/2000/svg" xmlns:xlink="http://www.w3.org/1999/xlink" contentStyleType="text/css" height="1103px" preserveAspectRatio="none" style="width:3806px;height:1103px;background:#FFFFFF;" version="1.1" viewBox="0 0 3806 1103" width="3806px" zoomAndPan="magnify"><defs/><g><text fill="#000000" font-family="sans-serif" font-size="14" font-weight="bold" lengthAdjust="spacing" textLength="149" x="1830.5" y="27.9951">Level 3 FE Diagram</text><rect fill="#FFFFFF" height="871.1875" style="stroke:#181818;stroke-width:1.0;" width="10" x="36" y="135.5781"/><rect fill="#FFFFFF" height="199.4063" style="stroke:#181818;stroke-width:1.0;" width="10" x="450" y="164.8594"/><rect fill="#FFFFFF" height="596.2188" style="stroke:#181818;stroke-width:1.0;" width="10" x="450" y="401.5469"/><rect fill="#FFFFFF" height="37.2813" style="stroke:#181818;stroke-width:1.0;" width="10" x="834" y="202.1406"/><rect fill="#FFFFFF" height="87.5625" style="stroke:#181818;stroke-width:1.0;" width="10" x="1289" y="239.4219"/><rect fill="#FFFFFF" height="478.375" style="stroke:#181818;stroke-width:1.0;" width="10" x="1289" y="482.1094"/><rect fill="#FFFFFF" height="353.5313" style="stroke:#181818;stroke-width:1.0;" width="10" x="1746" y="569.6719"/><rect fill="#FFFFFF" height="278.9688" style="stroke:#181818;stroke-width:1.0;" width="10" x="2483" y="606.9531"/><rect fill="#FFFFFF" height="87.5625" style="stroke:#181818;stroke-width:1.0;" width="10" x="3070" y="761.0781"/><line style="stroke:#181818;stroke-width:0.5;stroke-dasharray:5.0,5.0;" x1="41" x2="41" y1="125.5781" y2="1015.7656"/><line style="stroke:#181818;stroke-width:0.5;stroke-dasharray:5.0,5.0;" x1="454.5" x2="454.5" y1="125.5781" y2="1015.7656"/><line style="stroke:#181818;stroke-width:0.5;stroke-dasharray:5.0,5.0;" x1="839" x2="839" y1="125.5781" y2="1015.7656"/><line style="stroke:#181818;stroke-width:0.5;stroke-dasharray:5.0,5.0;" x1="1293.5" x2="1293.5" y1="125.5781" y2="1015.7656"/><line style="stroke:#181818;stroke-width:0.5;stroke-dasharray:5.0,5.0;" x1="1751" x2="1751" y1="125.5781" y2="1015.7656"/><line style="stroke:#181818;stroke-width:0.5;stroke-dasharray:5.0,5.0;" x1="2487.5" x2="2487.5" y1="125.5781" y2="1015.7656"/><line style="stroke:#181818;stroke-width:0.5;stroke-dasharray:5.0,5.0;" x1="3075" x2="3075" y1="125.5781" y2="1015.7656"/><text fill="#000000" font-family="sans-serif" font-size="20" lengthAdjust="spacing" textLength="66" x="5" y="120.8613">Admin</text><ellipse cx="41" cy="50.7969" fill="#E2E2F0" rx="8" ry="8" style="stroke:#181818;stroke-width:0.5;"/><path d="M41,58.7969 L41,85.7969 M28,66.7969 L54,66.7969 M41,85.7969 L28,100.7969 M41,85.7969 L54,100.7969 " fill="none" style="stroke:#181818;stroke-width:0.5;"/><text fill="#000000" font-family="sans-serif" font-size="20" lengthAdjust="spacing" textLength="66" x="5" y="1033.3301">Admin</text><ellipse cx="41" cy="1046.5469" fill="#E2E2F0" rx="8" ry="8" style="stroke:#181818;stroke-width:0.5;"/><path d="M41,1054.5469 L41,1081.5469 M28,1062.5469 L54,1062.5469 M41,1081.5469 L28,1096.5469 M41,1081.5469 L54,1096.5469 " fill="none" style="stroke:#181818;stroke-width:0.5;"/><rect fill="#E2E2F0" height="37.2813" rx="2.5" ry="2.5" style="stroke:#181818;stroke-width:0.5;" width="63" x="423.5" y="87.2969"/><text fill="#000000" font-family="sans-serif" font-size="20" lengthAdjust="spacing" textLength="49" x="430.5" y="112.8613">View</text><rect fill="#E2E2F0" height="37.2813" rx="2.5" ry="2.5" style="stroke:#181818;stroke-width:0.5;" width="63" x="423.5" y="1014.7656"/><text fill="#000000" font-family="sans-serif" font-size="20" lengthAdjust="spacing" textLength="49" x="430.5" y="1040.3301">View</text><rect fill="#E2E2F0" height="37.2813" rx="2.5" ry="2.5" style="stroke:#181818;stroke-width:0.5;" width="272" x="703" y="87.2969"/><text fill="#000000" font-family="sans-serif" font-size="20" lengthAdjust="spacing" textLength="258" x="710" y="112.8613">SpecializationComponent</text><rect fill="#E2E2F0" height="37.2813" rx="2.5" ry="2.5" style="stroke:#181818;stroke-width:0.5;" width="272" x="703" y="1014.7656"/><text fill="#000000" font-family="sans-serif" font-size="20" lengthAdjust="spacing" textLength="258" x="710" y="1040.3301">SpecializationComponent</text><rect fill="#E2E2F0" height="37.2813" rx="2.5" ry="2.5" style="stroke:#181818;stroke-width:0.5;" width="345" x="1121.5" y="87.2969"/><text fill="#000000" font-family="sans-serif" font-size="20" lengthAdjust="spacing" textLength="331" x="1128.5" y="112.8613">UpdateSpecializationComponent</text><rect fill="#E2E2F0" height="37.2813" rx="2.5" ry="2.5" style="stroke:#181818;stroke-width:0.5;" width="345" x="1121.5" y="1014.7656"/><text fill="#000000" font-family="sans-serif" font-size="20" lengthAdjust="spacing" textLength="331" x="1128.5" y="1040.3301">UpdateSpecializationComponent</text><rect fill="#E2E2F0" height="37.2813" rx="2.5" ry="2.5" style="stroke:#181818;stroke-width:0.5;" width="228" x="1637" y="87.2969"/><text fill="#000000" font-family="sans-serif" font-size="20" lengthAdjust="spacing" textLength="214" x="1644" y="112.8613">SpecializationService</text><rect fill="#E2E2F0" height="37.2813" rx="2.5" ry="2.5" style="stroke:#181818;stroke-width:0.5;" width="228" x="1637" y="1014.7656"/><text fill="#000000" font-family="sans-serif" font-size="20" lengthAdjust="spacing" textLength="214" x="1644" y="1040.3301">SpecializationService</text><rect fill="#E2E2F0" height="37.2813" rx="2.5" ry="2.5" style="stroke:#181818;stroke-width:0.5;" width="173" x="2401.5" y="87.2969"/><text fill="#000000" font-family="sans-serif" font-size="20" lengthAdjust="spacing" textLength="159" x="2408.5" y="112.8613">AuthInterceptor</text><rect fill="#E2E2F0" height="37.2813" rx="2.5" ry="2.5" style="stroke:#181818;stroke-width:0.5;" width="173" x="2401.5" y="1014.7656"/><text fill="#000000" font-family="sans-serif" font-size="20" lengthAdjust="spacing" textLength="159" x="2408.5" y="1040.3301">AuthInterceptor</text><rect fill="#E2E2F0" height="37.2813" rx="2.5" ry="2.5" style="stroke:#181818;stroke-width:0.5;" width="60" x="3045" y="87.2969"/><text fill="#000000" font-family="sans-serif" font-size="20" lengthAdjust="spacing" textLength="46" x="3052" y="112.8613">MDR</text><rect fill="#E2E2F0" height="37.2813" rx="2.5" ry="2.5" style="stroke:#181818;stroke-width:0.5;" width="60" x="3045" y="1014.7656"/><text fill="#000000" font-family="sans-serif" font-size="20" lengthAdjust="spacing" textLength="46" x="3052" y="1040.3301">MDR</text><rect fill="#FFFFFF" height="871.1875" style="stroke:#181818;stroke-width:1.0;" width="10" x="36" y="135.5781"/><rect fill="#FFFFFF" height="199.4063" style="stroke:#181818;stroke-width:1.0;" width="10" x="450" y="164.8594"/><rect fill="#FFFFFF" height="596.2188" style="stroke:#181818;stroke-width:1.0;" width="10" x="450" y="401.5469"/><rect fill="#FFFFFF" height="37.2813" style="stroke:#181818;stroke-width:1.0;" width="10" x="834" y="202.1406"/><rect fill="#FFFFFF" height="87.5625" style="stroke:#181818;stroke-width:1.0;" width="10" x="1289" y="239.4219"/><rect fill="#FFFFFF" height="478.375" style="stroke:#181818;stroke-width:1.0;" width="10" x="1289" y="482.1094"/><rect fill="#FFFFFF" height="353.5313" style="stroke:#181818;stroke-width:1.0;" width="10" x="1746" y="569.6719"/><rect fill="#FFFFFF" height="278.9688" style="stroke:#181818;stroke-width:1.0;" width="10" x="2483" y="606.9531"/><rect fill="#FFFFFF" height="87.5625" style="stroke:#181818;stroke-width:1.0;" width="10" x="3070" y="761.0781"/><polygon fill="#000000" points="438,160.8594,448,164.8594,438,168.8594,442,164.8594" style="stroke:#000000;stroke-width:1.0;"/><line style="stroke:#000000;stroke-width:1.0;" x1="46" x2="444" y1="164.8594" y2="164.8594"/><text fill="#000000" font-family="sans-serif" font-size="20" lengthAdjust="spacing" textLength="311" x="53" y="158.1426">Asks to update a specialization</text><polygon fill="#000000" points="822,198.1406,832,202.1406,822,206.1406,826,202.1406" style="stroke:#000000;stroke-width:1.0;"/><line style="stroke:#000000;stroke-width:1.0;" x1="460" x2="828" y1="202.1406" y2="202.1406"/><text fill="#000000" font-family="sans-serif" font-size="20" lengthAdjust="spacing" textLength="355" x="467" y="195.4238">routerLink='/update-specialization'</text><polygon fill="#000000" points="1277,235.4219,1287,239.4219,1277,243.4219,1281,239.4219" style="stroke:#000000;stroke-width:1.0;"/><line style="stroke:#000000;stroke-width:1.0;" x1="839" x2="1283" y1="239.4219" y2="239.4219"/><text fill="#000000" font-family="sans-serif" font-size="20" lengthAdjust="spacing" textLength="426" x="846" y="232.7051">routes to UpdateSpecializationComponent</text><line style="stroke:#000000;stroke-width:1.0;" x1="1299" x2="1341" y1="276.7031" y2="276.7031"/><line style="stroke:#000000;stroke-width:1.0;" x1="1341" x2="1341" y1="276.7031" y2="289.7031"/><line style="stroke:#000000;stroke-width:1.0;" x1="1300" x2="1341" y1="289.7031" y2="289.7031"/><polygon fill="#000000" points="1310,285.7031,1300,289.7031,1310,293.7031,1306,289.7031" style="stroke:#000000;stroke-width:1.0;"/><text fill="#000000" font-family="sans-serif" font-size="20" lengthAdjust="spacing" textLength="433" x="1306" y="269.9863">initializes UpdateSpecializationComponent</text><polygon fill="#000000" points="471,322.9844,461,326.9844,471,330.9844,467,326.9844" style="stroke:#000000;stroke-width:1.0;"/><line style="stroke:#000000;stroke-width:1.0;stroke-dasharray:2.0,2.0;" x1="465" x2="1293" y1="326.9844" y2="326.9844"/><text fill="#000000" font-family="sans-serif" font-size="20" lengthAdjust="spacing" textLength="409" x="477" y="320.2676">returns UpdateSpecializationComponent</text><polygon fill="#000000" points="57,360.2656,47,364.2656,57,368.2656,53,364.2656" style="stroke:#000000;stroke-width:1.0;"/><line style="stroke:#000000;stroke-width:1.0;stroke-dasharray:2.0,2.0;" x1="51" x2="454" y1="364.2656" y2="364.2656"/><text fill="#000000" font-family="sans-serif" font-size="20" lengthAdjust="spacing" textLength="290" x="63" y="357.5488">Asks for specialization's data</text><polygon fill="#000000" points="438,397.5469,448,401.5469,438,405.5469,442,401.5469" style="stroke:#000000;stroke-width:1.0;"/><line style="stroke:#000000;stroke-width:1.0;" x1="46" x2="444" y1="401.5469" y2="401.5469"/><text fill="#000000" font-family="sans-serif" font-size="20" lengthAdjust="spacing" textLength="272" x="53" y="394.8301">Sends specialization's data</text><path d="M465,414.5469 L465,447.5469 L839,447.5469 L839,424.5469 L829,414.5469 L465,414.5469 " fill="#FEFFDD" style="stroke:#181818;stroke-width:0.5;"/><path d="M829,414.5469 L829,424.5469 L839,424.5469 L829,414.5469 " fill="#FEFFDD" style="stroke:#181818;stroke-width:0.5;"/><text fill="#000000" font-family="sans-serif" font-size="20" lengthAdjust="spacing" textLength="353" x="471" y="438.1113">The data can be specializationType</text><polygon fill="#000000" points="1277,478.1094,1287,482.1094,1277,486.1094,1281,482.1094" style="stroke:#000000;stroke-width:1.0;"/><line style="stroke:#000000;stroke-width:1.0;" x1="460" x2="1283" y1="482.1094" y2="482.1094"/><text fill="#000000" font-family="sans-serif" font-size="20" lengthAdjust="spacing" textLength="297" x="467" y="475.3926">updateSpecialization($event)</text><line style="stroke:#000000;stroke-width:1.0;" x1="1299" x2="1341" y1="519.3906" y2="519.3906"/><line style="stroke:#000000;stroke-width:1.0;" x1="1341" x2="1341" y1="519.3906" y2="532.3906"/><line style="stroke:#000000;stroke-width:1.0;" x1="1300" x2="1341" y1="532.3906" y2="532.3906"/><polygon fill="#000000" points="1310,528.3906,1300,532.3906,1310,536.3906,1306,532.3906" style="stroke:#000000;stroke-width:1.0;"/><text fill="#000000" font-family="sans-serif" font-size="20" lengthAdjust="spacing" textLength="246" x="1306" y="512.6738">extractSpecializationId()</text><polygon fill="#000000" points="1734,565.6719,1744,569.6719,1734,573.6719,1738,569.6719" style="stroke:#000000;stroke-width:1.0;"/><line style="stroke:#000000;stroke-width:1.0;" x1="1299" x2="1740" y1="569.6719" y2="569.6719"/><text fill="#000000" font-family="sans-serif" font-size="20" lengthAdjust="spacing" textLength="292" x="1306" y="562.9551">updateSpecialization(id, dto)</text><polygon fill="#000000" points="2471,602.9531,2481,606.9531,2471,610.9531,2475,606.9531" style="stroke:#000000;stroke-width:1.0;"/><line style="stroke:#000000;stroke-width:1.0;" x1="1756" x2="2477" y1="606.9531" y2="606.9531"/><text fill="#000000" font-family="sans-serif" font-size="20" lengthAdjust="spacing" textLength="708" x="1763" y="600.2363">Sends HTTP Request to update specialization's data with the new data</text><line style="stroke:#000000;stroke-width:1.0;" x1="2493" x2="2535" y1="644.2344" y2="644.2344"/><line style="stroke:#000000;stroke-width:1.0;" x1="2535" x2="2535" y1="644.2344" y2="657.2344"/><line style="stroke:#000000;stroke-width:1.0;" x1="2494" x2="2535" y1="657.2344" y2="657.2344"/><polygon fill="#000000" points="2504,653.2344,2494,657.2344,2504,661.2344,2500,657.2344" style="stroke:#000000;stroke-width:1.0;"/><text fill="#000000" font-family="sans-serif" font-size="20" lengthAdjust="spacing" textLength="563" x="2500" y="637.5176">Intercepts the request and adds the token to the header</text><path d="M2498,670.2344 L2498,726.2344 L3017,726.2344 L3017,680.2344 L3007,670.2344 L2498,670.2344 " fill="#FEFFDD" style="stroke:#181818;stroke-width:0.5;"/><path d="M3007,670.2344 L3007,680.2344 L3017,680.2344 L3007,670.2344 " fill="#FEFFDD" style="stroke:#181818;stroke-width:0.5;"/><text fill="#000000" font-family="sans-serif" font-size="20" lengthAdjust="spacing" textLength="498" x="2504" y="693.7988">The token is added to the header so that the MDR</text><text fill="#000000" font-family="sans-serif" font-size="20" lengthAdjust="spacing" textLength="442" x="2504" y="717.0801">can authenticate and authorize the request.</text><polygon fill="#000000" points="3058,757.0781,3068,761.0781,3058,765.0781,3062,761.0781" style="stroke:#000000;stroke-width:1.0;"/><line style="stroke:#000000;stroke-width:1.0;" x1="2493" x2="3064" y1="761.0781" y2="761.0781"/><text fill="#000000" font-family="sans-serif" font-size="20" lengthAdjust="spacing" textLength="292" x="2500" y="754.3613">updateSpecialization(id, dto)</text><line style="stroke:#000000;stroke-width:1.0;" x1="3080" x2="3122" y1="798.3594" y2="798.3594"/><line style="stroke:#000000;stroke-width:1.0;" x1="3122" x2="3122" y1="798.3594" y2="811.3594"/><line style="stroke:#000000;stroke-width:1.0;" x1="3081" x2="3122" y1="811.3594" y2="811.3594"/><polygon fill="#000000" points="3091,807.3594,3081,811.3594,3091,815.3594,3087,811.3594" style="stroke:#000000;stroke-width:1.0;"/><text fill="#000000" font-family="sans-serif" font-size="20" lengthAdjust="spacing" textLength="712" x="3087" y="791.6426">Validates specialization's data and tries to update specialization's data</text><polygon fill="#000000" points="2504,844.6406,2494,848.6406,2504,852.6406,2500,848.6406" style="stroke:#000000;stroke-width:1.0;"/><line style="stroke:#000000;stroke-width:1.0;stroke-dasharray:2.0,2.0;" x1="2498" x2="3074" y1="848.6406" y2="848.6406"/><text fill="#000000" font-family="sans-serif" font-size="20" lengthAdjust="spacing" textLength="311" x="2510" y="841.9238">Returns Operation Status Code</text><polygon fill="#000000" points="1767,881.9219,1757,885.9219,1767,889.9219,1763,885.9219" style="stroke:#000000;stroke-width:1.0;"/><line style="stroke:#000000;stroke-width:1.0;stroke-dasharray:2.0,2.0;" x1="1761" x2="2487" y1="885.9219" y2="885.9219"/><text fill="#000000" font-family="sans-serif" font-size="20" lengthAdjust="spacing" textLength="311" x="1773" y="879.2051">Returns Operation Status Code</text><polygon fill="#000000" points="1310,919.2031,1300,923.2031,1310,927.2031,1306,923.2031" style="stroke:#000000;stroke-width:1.0;"/><line style="stroke:#000000;stroke-width:1.0;stroke-dasharray:2.0,2.0;" x1="1304" x2="1750" y1="923.2031" y2="923.2031"/><text fill="#000000" font-family="sans-serif" font-size="20" lengthAdjust="spacing" textLength="286" x="1316" y="916.4863">Returns Operation Response</text><polygon fill="#000000" points="471,956.4844,461,960.4844,471,964.4844,467,960.4844" style="stroke:#000000;stroke-width:1.0;"/><line style="stroke:#000000;stroke-width:1.0;stroke-dasharray:2.0,2.0;" x1="465" x2="1293" y1="960.4844" y2="960.4844"/><text fill="#000000" font-family="sans-serif" font-size="20" lengthAdjust="spacing" textLength="380" x="477" y="953.7676">Returns Operation In/Sucess message</text><polygon fill="#000000" points="57,993.7656,47,997.7656,57,1001.7656,53,997.7656" style="stroke:#000000;stroke-width:1.0;"/><line style="stroke:#000000;stroke-width:1.0;stroke-dasharray:2.0,2.0;" x1="51" x2="454" y1="997.7656" y2="997.7656"/><text fill="#000000" font-family="sans-serif" font-size="20" lengthAdjust="spacing" textLength="380" x="63" y="991.0488">Returns Operation In/Sucess message</text><!--SRC=[bLLjJzim4FxkNt62IO0q1jkqDyIGqfTebQY8cYxVJNnGhwcTsKuxcFRVTtRIbq3RiKgjclFpF7VtzCwrKwbARlYiqFaK1GYyurNXOgrSAXyHtfqpvgGh4AvnZWMyXxWFFSdlYSBOH0e4d9Nk0MOukqLZsP5TAiArLEWUIWHjt4GpjZx92suj_6P0hmxFf_T6LqfqTQ7DvUMS5nNUtFx0t5rTmM7lOp-AFs-76gq39kxrExtpxHYBPYvp359lutVzpZOOIVJZB_rFuImoHY_gSASW7FkpMNj94NwFswk7mtud_X1tF8NdZWAHc4a5t4B4YEzaBakk71na4XS7Ffwrusc9kUI5VEHEQjNLir8hL2v0XqaR-xqKtE4-HZVPfvxMrWHaahQHKUKc0-NGv5XI7m4J3TgOOMzKrzKRXNRbdCgXHYCulOBi0Y8xjU0qLA5Eu61RwTUKZ6MUCamkWBoaf3Gwqwz7PpNnj4qxMlF8a67YcTqbC-JRwmiJkCbVVIUhkYijgQGBN1BSh-OvTRS6NMMKVNbsofW5SjHOTKVpygHN2oJ6DrdPojuKbR0x24eJrCZxYGDzvy7Z2OOJoBc2Mtn26zEQFlivl17LbcQENz5LeDp93k_mbpDqqkOCnF59WqdI7R9Il0RXz8Ok3MMIUauqMBRxRJnEO8G_AxHkOxQskW0BwIRWg7E5YzgNzPGEM3HOIgy6tGQqQUIv4i25g8DEJr7vZFvXWboWUU8oIVehORm2I-lfTAksM63z4tSXv5V7a_olmcdbo5UPXsNnkIcWZR-6DwfwmyW7y9cR1aZYnORwTFHUqJ82U-AECGfLE2FH_ilgMhMnSzHimas99e0WTTnLT1rfWQtzet9y4yrKl9X7JlkvQ0RkEMs4bjRDjZWqI-jTVKuPgBEqof7-bcRqGHVyhatzJsh6_W80]--></g></svg>