<?xml version="1.0" encoding="UTF-8" standalone="no"?><svg xmlns="http://www.w3.org/2000/svg" xmlns:xlink="http://www.w3.org/1999/xlink" contentStyleType="text/css" height="1103px" preserveAspectRatio="none" style="width:3873px;height:1103px;background:#FFFFFF;" version="1.1" viewBox="0 0 3873 1103" width="3873px" zoomAndPan="magnify"><defs/><g><text fill="#000000" font-family="sans-serif" font-size="14" font-weight="bold" lengthAdjust="spacing" textLength="149" x="1864" y="27.9951">Level 3 FE Diagram</text><rect fill="#FFFFFF" height="871.1875" style="stroke:#181818;stroke-width:1.0;" width="10" x="36" y="135.5781"/><rect fill="#FFFFFF" height="199.4063" style="stroke:#181818;stroke-width:1.0;" width="10" x="450" y="164.8594"/><rect fill="#FFFFFF" height="596.2188" style="stroke:#181818;stroke-width:1.0;" width="10" x="450" y="401.5469"/><rect fill="#FFFFFF" height="37.2813" style="stroke:#181818;stroke-width:1.0;" width="10" x="843" y="202.1406"/><rect fill="#FFFFFF" height="87.5625" style="stroke:#181818;stroke-width:1.0;" width="10" x="1315" y="239.4219"/><rect fill="#FFFFFF" height="478.375" style="stroke:#181818;stroke-width:1.0;" width="10" x="1315" y="482.1094"/><rect fill="#FFFFFF" height="353.5313" style="stroke:#181818;stroke-width:1.0;" width="10" x="1789" y="569.6719"/><rect fill="#FFFFFF" height="278.9688" style="stroke:#181818;stroke-width:1.0;" width="10" x="2534" y="606.9531"/><rect fill="#FFFFFF" height="87.5625" style="stroke:#181818;stroke-width:1.0;" width="10" x="3121" y="761.0781"/><line style="stroke:#181818;stroke-width:0.5;stroke-dasharray:5.0,5.0;" x1="41" x2="41" y1="125.5781" y2="1015.7656"/><line style="stroke:#181818;stroke-width:0.5;stroke-dasharray:5.0,5.0;" x1="454.5" x2="454.5" y1="125.5781" y2="1015.7656"/><line style="stroke:#181818;stroke-width:0.5;stroke-dasharray:5.0,5.0;" x1="847.5" x2="847.5" y1="125.5781" y2="1015.7656"/><line style="stroke:#181818;stroke-width:0.5;stroke-dasharray:5.0,5.0;" x1="1320" x2="1320" y1="125.5781" y2="1015.7656"/><line style="stroke:#181818;stroke-width:0.5;stroke-dasharray:5.0,5.0;" x1="1793.5" x2="1793.5" y1="125.5781" y2="1015.7656"/><line style="stroke:#181818;stroke-width:0.5;stroke-dasharray:5.0,5.0;" x1="2538.5" x2="2538.5" y1="125.5781" y2="1015.7656"/><line style="stroke:#181818;stroke-width:0.5;stroke-dasharray:5.0,5.0;" x1="3126" x2="3126" y1="125.5781" y2="1015.7656"/><text fill="#000000" font-family="sans-serif" font-size="20" lengthAdjust="spacing" textLength="66" x="5" y="120.8613">Admin</text><ellipse cx="41" cy="50.7969" fill="#E2E2F0" rx="8" ry="8" style="stroke:#181818;stroke-width:0.5;"/><path d="M41,58.7969 L41,85.7969 M28,66.7969 L54,66.7969 M41,85.7969 L28,100.7969 M41,85.7969 L54,100.7969 " fill="none" style="stroke:#181818;stroke-width:0.5;"/><text fill="#000000" font-family="sans-serif" font-size="20" lengthAdjust="spacing" textLength="66" x="5" y="1033.3301">Admin</text><ellipse cx="41" cy="1046.5469" fill="#E2E2F0" rx="8" ry="8" style="stroke:#181818;stroke-width:0.5;"/><path d="M41,1054.5469 L41,1081.5469 M28,1062.5469 L54,1062.5469 M41,1081.5469 L28,1096.5469 M41,1081.5469 L54,1096.5469 " fill="none" style="stroke:#181818;stroke-width:0.5;"/><rect fill="#E2E2F0" height="37.2813" rx="2.5" ry="2.5" style="stroke:#181818;stroke-width:0.5;" width="63" x="423.5" y="87.2969"/><text fill="#000000" font-family="sans-serif" font-size="20" lengthAdjust="spacing" textLength="49" x="430.5" y="112.8613">View</text><rect fill="#E2E2F0" height="37.2813" rx="2.5" ry="2.5" style="stroke:#181818;stroke-width:0.5;" width="63" x="423.5" y="1014.7656"/><text fill="#000000" font-family="sans-serif" font-size="20" lengthAdjust="spacing" textLength="49" x="430.5" y="1040.3301">View</text><rect fill="#E2E2F0" height="37.2813" rx="2.5" ry="2.5" style="stroke:#181818;stroke-width:0.5;" width="289" x="703.5" y="87.2969"/><text fill="#000000" font-family="sans-serif" font-size="20" lengthAdjust="spacing" textLength="275" x="710.5" y="112.8613">OperationTypesComponent</text><rect fill="#E2E2F0" height="37.2813" rx="2.5" ry="2.5" style="stroke:#181818;stroke-width:0.5;" width="289" x="703.5" y="1014.7656"/><text fill="#000000" font-family="sans-serif" font-size="20" lengthAdjust="spacing" textLength="275" x="710.5" y="1040.3301">OperationTypesComponent</text><rect fill="#E2E2F0" height="37.2813" rx="2.5" ry="2.5" style="stroke:#181818;stroke-width:0.5;" width="362" x="1139" y="87.2969"/><text fill="#000000" font-family="sans-serif" font-size="20" lengthAdjust="spacing" textLength="348" x="1146" y="112.8613">UpdateOperationTypesComponent</text><rect fill="#E2E2F0" height="37.2813" rx="2.5" ry="2.5" style="stroke:#181818;stroke-width:0.5;" width="362" x="1139" y="1014.7656"/><text fill="#000000" font-family="sans-serif" font-size="20" lengthAdjust="spacing" textLength="348" x="1146" y="1040.3301">UpdateOperationTypesComponent</text><rect fill="#E2E2F0" height="37.2813" rx="2.5" ry="2.5" style="stroke:#181818;stroke-width:0.5;" width="235" x="1676.5" y="87.2969"/><text fill="#000000" font-family="sans-serif" font-size="20" lengthAdjust="spacing" textLength="221" x="1683.5" y="112.8613">OperationTypeService</text><rect fill="#E2E2F0" height="37.2813" rx="2.5" ry="2.5" style="stroke:#181818;stroke-width:0.5;" width="235" x="1676.5" y="1014.7656"/><text fill="#000000" font-family="sans-serif" font-size="20" lengthAdjust="spacing" textLength="221" x="1683.5" y="1040.3301">OperationTypeService</text><rect fill="#E2E2F0" height="37.2813" rx="2.5" ry="2.5" style="stroke:#181818;stroke-width:0.5;" width="173" x="2452.5" y="87.2969"/><text fill="#000000" font-family="sans-serif" font-size="20" lengthAdjust="spacing" textLength="159" x="2459.5" y="112.8613">AuthInterceptor</text><rect fill="#E2E2F0" height="37.2813" rx="2.5" ry="2.5" style="stroke:#181818;stroke-width:0.5;" width="173" x="2452.5" y="1014.7656"/><text fill="#000000" font-family="sans-serif" font-size="20" lengthAdjust="spacing" textLength="159" x="2459.5" y="1040.3301">AuthInterceptor</text><rect fill="#E2E2F0" height="37.2813" rx="2.5" ry="2.5" style="stroke:#181818;stroke-width:0.5;" width="60" x="3096" y="87.2969"/><text fill="#000000" font-family="sans-serif" font-size="20" lengthAdjust="spacing" textLength="46" x="3103" y="112.8613">MDR</text><rect fill="#E2E2F0" height="37.2813" rx="2.5" ry="2.5" style="stroke:#181818;stroke-width:0.5;" width="60" x="3096" y="1014.7656"/><text fill="#000000" font-family="sans-serif" font-size="20" lengthAdjust="spacing" textLength="46" x="3103" y="1040.3301">MDR</text><rect fill="#FFFFFF" height="871.1875" style="stroke:#181818;stroke-width:1.0;" width="10" x="36" y="135.5781"/><rect fill="#FFFFFF" height="199.4063" style="stroke:#181818;stroke-width:1.0;" width="10" x="450" y="164.8594"/><rect fill="#FFFFFF" height="596.2188" style="stroke:#181818;stroke-width:1.0;" width="10" x="450" y="401.5469"/><rect fill="#FFFFFF" height="37.2813" style="stroke:#181818;stroke-width:1.0;" width="10" x="843" y="202.1406"/><rect fill="#FFFFFF" height="87.5625" style="stroke:#181818;stroke-width:1.0;" width="10" x="1315" y="239.4219"/><rect fill="#FFFFFF" height="478.375" style="stroke:#181818;stroke-width:1.0;" width="10" x="1315" y="482.1094"/><rect fill="#FFFFFF" height="353.5313" style="stroke:#181818;stroke-width:1.0;" width="10" x="1789" y="569.6719"/><rect fill="#FFFFFF" height="278.9688" style="stroke:#181818;stroke-width:1.0;" width="10" x="2534" y="606.9531"/><rect fill="#FFFFFF" height="87.5625" style="stroke:#181818;stroke-width:1.0;" width="10" x="3121" y="761.0781"/><polygon fill="#000000" points="438,160.8594,448,164.8594,438,168.8594,442,164.8594" style="stroke:#000000;stroke-width:1.0;"/><line style="stroke:#000000;stroke-width:1.0;" x1="46" x2="444" y1="164.8594" y2="164.8594"/><text fill="#000000" font-family="sans-serif" font-size="20" lengthAdjust="spacing" textLength="319" x="53" y="158.1426">Asks to update a operation type</text><polygon fill="#000000" points="831,198.1406,841,202.1406,831,206.1406,835,202.1406" style="stroke:#000000;stroke-width:1.0;"/><line style="stroke:#000000;stroke-width:1.0;" x1="460" x2="837" y1="202.1406" y2="202.1406"/><text fill="#000000" font-family="sans-serif" font-size="20" lengthAdjust="spacing" textLength="364" x="467" y="195.4238">routerLink='/update-operation-type'</text><polygon fill="#000000" points="1303,235.4219,1313,239.4219,1303,243.4219,1307,239.4219" style="stroke:#000000;stroke-width:1.0;"/><line style="stroke:#000000;stroke-width:1.0;" x1="848" x2="1309" y1="239.4219" y2="239.4219"/><text fill="#000000" font-family="sans-serif" font-size="20" lengthAdjust="spacing" textLength="443" x="855" y="232.7051">routes to UpdateOperationTypesComponent</text><line style="stroke:#000000;stroke-width:1.0;" x1="1325" x2="1367" y1="276.7031" y2="276.7031"/><line style="stroke:#000000;stroke-width:1.0;" x1="1367" x2="1367" y1="276.7031" y2="289.7031"/><line style="stroke:#000000;stroke-width:1.0;" x1="1326" x2="1367" y1="289.7031" y2="289.7031"/><polygon fill="#000000" points="1336,285.7031,1326,289.7031,1336,293.7031,1332,289.7031" style="stroke:#000000;stroke-width:1.0;"/><text fill="#000000" font-family="sans-serif" font-size="20" lengthAdjust="spacing" textLength="450" x="1332" y="269.9863">initializes UpdateOperationTypesComponent</text><polygon fill="#000000" points="471,322.9844,461,326.9844,471,330.9844,467,326.9844" style="stroke:#000000;stroke-width:1.0;"/><line style="stroke:#000000;stroke-width:1.0;stroke-dasharray:2.0,2.0;" x1="465" x2="1319" y1="326.9844" y2="326.9844"/><text fill="#000000" font-family="sans-serif" font-size="20" lengthAdjust="spacing" textLength="426" x="477" y="320.2676">returns UpdateOperationTypesComponent</text><polygon fill="#000000" points="57,360.2656,47,364.2656,57,368.2656,53,364.2656" style="stroke:#000000;stroke-width:1.0;"/><line style="stroke:#000000;stroke-width:1.0;stroke-dasharray:2.0,2.0;" x1="51" x2="454" y1="364.2656" y2="364.2656"/><text fill="#000000" font-family="sans-serif" font-size="20" lengthAdjust="spacing" textLength="298" x="63" y="357.5488">Asks for operation type's data</text><polygon fill="#000000" points="438,397.5469,448,401.5469,438,405.5469,442,401.5469" style="stroke:#000000;stroke-width:1.0;"/><line style="stroke:#000000;stroke-width:1.0;" x1="46" x2="444" y1="401.5469" y2="401.5469"/><text fill="#000000" font-family="sans-serif" font-size="20" lengthAdjust="spacing" textLength="280" x="53" y="394.8301">Sends operation type's data</text><path d="M465,414.5469 L465,447.5469 L1070,447.5469 L1070,424.5469 L1060,414.5469 L465,414.5469 " fill="#FEFFDD" style="stroke:#181818;stroke-width:0.5;"/><path d="M1060,414.5469 L1060,424.5469 L1070,424.5469 L1060,414.5469 " fill="#FEFFDD" style="stroke:#181818;stroke-width:0.5;"/><text fill="#000000" font-family="sans-serif" font-size="20" lengthAdjust="spacing" textLength="584" x="471" y="438.1113">The data can be name, estimatedDuration, specializations</text><polygon fill="#000000" points="1303,478.1094,1313,482.1094,1303,486.1094,1307,482.1094" style="stroke:#000000;stroke-width:1.0;"/><line style="stroke:#000000;stroke-width:1.0;" x1="460" x2="1309" y1="482.1094" y2="482.1094"/><text fill="#000000" font-family="sans-serif" font-size="20" lengthAdjust="spacing" textLength="304" x="467" y="475.3926">updateOperationType($event)</text><line style="stroke:#000000;stroke-width:1.0;" x1="1325" x2="1367" y1="519.3906" y2="519.3906"/><line style="stroke:#000000;stroke-width:1.0;" x1="1367" x2="1367" y1="519.3906" y2="532.3906"/><line style="stroke:#000000;stroke-width:1.0;" x1="1326" x2="1367" y1="532.3906" y2="532.3906"/><polygon fill="#000000" points="1336,528.3906,1326,532.3906,1336,536.3906,1332,532.3906" style="stroke:#000000;stroke-width:1.0;"/><text fill="#000000" font-family="sans-serif" font-size="20" lengthAdjust="spacing" textLength="293" x="1332" y="512.6738">extractOperationTypeName()</text><polygon fill="#000000" points="1777,565.6719,1787,569.6719,1777,573.6719,1781,569.6719" style="stroke:#000000;stroke-width:1.0;"/><line style="stroke:#000000;stroke-width:1.0;" x1="1325" x2="1783" y1="569.6719" y2="569.6719"/><text fill="#000000" font-family="sans-serif" font-size="20" lengthAdjust="spacing" textLength="337" x="1332" y="562.9551">updateOperationType(name, dto)</text><polygon fill="#000000" points="2522,602.9531,2532,606.9531,2522,610.9531,2526,606.9531" style="stroke:#000000;stroke-width:1.0;"/><line style="stroke:#000000;stroke-width:1.0;" x1="1799" x2="2528" y1="606.9531" y2="606.9531"/><text fill="#000000" font-family="sans-serif" font-size="20" lengthAdjust="spacing" textLength="716" x="1806" y="600.2363">Sends HTTP Request to update operation type's data with the new data</text><line style="stroke:#000000;stroke-width:1.0;" x1="2544" x2="2586" y1="644.2344" y2="644.2344"/><line style="stroke:#000000;stroke-width:1.0;" x1="2586" x2="2586" y1="644.2344" y2="657.2344"/><line style="stroke:#000000;stroke-width:1.0;" x1="2545" x2="2586" y1="657.2344" y2="657.2344"/><polygon fill="#000000" points="2555,653.2344,2545,657.2344,2555,661.2344,2551,657.2344" style="stroke:#000000;stroke-width:1.0;"/><text fill="#000000" font-family="sans-serif" font-size="20" lengthAdjust="spacing" textLength="563" x="2551" y="637.5176">Intercepts the request and adds the token to the header</text><path d="M2549,670.2344 L2549,726.2344 L3068,726.2344 L3068,680.2344 L3058,670.2344 L2549,670.2344 " fill="#FEFFDD" style="stroke:#181818;stroke-width:0.5;"/><path d="M3058,670.2344 L3058,680.2344 L3068,680.2344 L3058,670.2344 " fill="#FEFFDD" style="stroke:#181818;stroke-width:0.5;"/><text fill="#000000" font-family="sans-serif" font-size="20" lengthAdjust="spacing" textLength="498" x="2555" y="693.7988">The token is added to the header so that the MDR</text><text fill="#000000" font-family="sans-serif" font-size="20" lengthAdjust="spacing" textLength="442" x="2555" y="717.0801">can authenticate and authorize the request.</text><polygon fill="#000000" points="3109,757.0781,3119,761.0781,3109,765.0781,3113,761.0781" style="stroke:#000000;stroke-width:1.0;"/><line style="stroke:#000000;stroke-width:1.0;" x1="2544" x2="3115" y1="761.0781" y2="761.0781"/><text fill="#000000" font-family="sans-serif" font-size="20" lengthAdjust="spacing" textLength="337" x="2551" y="754.3613">updateOperationType(name, dto)</text><line style="stroke:#000000;stroke-width:1.0;" x1="3131" x2="3173" y1="798.3594" y2="798.3594"/><line style="stroke:#000000;stroke-width:1.0;" x1="3173" x2="3173" y1="798.3594" y2="811.3594"/><line style="stroke:#000000;stroke-width:1.0;" x1="3132" x2="3173" y1="811.3594" y2="811.3594"/><polygon fill="#000000" points="3142,807.3594,3132,811.3594,3142,815.3594,3138,811.3594" style="stroke:#000000;stroke-width:1.0;"/><text fill="#000000" font-family="sans-serif" font-size="20" lengthAdjust="spacing" textLength="728" x="3138" y="791.6426">Validates operation type's data and tries to update operation type's data</text><polygon fill="#000000" points="2555,844.6406,2545,848.6406,2555,852.6406,2551,848.6406" style="stroke:#000000;stroke-width:1.0;"/><line style="stroke:#000000;stroke-width:1.0;stroke-dasharray:2.0,2.0;" x1="2549" x2="3125" y1="848.6406" y2="848.6406"/><text fill="#000000" font-family="sans-serif" font-size="20" lengthAdjust="spacing" textLength="311" x="2561" y="841.9238">Returns Operation Status Code</text><polygon fill="#000000" points="1810,881.9219,1800,885.9219,1810,889.9219,1806,885.9219" style="stroke:#000000;stroke-width:1.0;"/><line style="stroke:#000000;stroke-width:1.0;stroke-dasharray:2.0,2.0;" x1="1804" x2="2538" y1="885.9219" y2="885.9219"/><text fill="#000000" font-family="sans-serif" font-size="20" lengthAdjust="spacing" textLength="311" x="1816" y="879.2051">Returns Operation Status Code</text><polygon fill="#000000" points="1336,919.2031,1326,923.2031,1336,927.2031,1332,923.2031" style="stroke:#000000;stroke-width:1.0;"/><line style="stroke:#000000;stroke-width:1.0;stroke-dasharray:2.0,2.0;" x1="1330" x2="1793" y1="923.2031" y2="923.2031"/><text fill="#000000" font-family="sans-serif" font-size="20" lengthAdjust="spacing" textLength="286" x="1342" y="916.4863">Returns Operation Response</text><polygon fill="#000000" points="471,956.4844,461,960.4844,471,964.4844,467,960.4844" style="stroke:#000000;stroke-width:1.0;"/><line style="stroke:#000000;stroke-width:1.0;stroke-dasharray:2.0,2.0;" x1="465" x2="1319" y1="960.4844" y2="960.4844"/><text fill="#000000" font-family="sans-serif" font-size="20" lengthAdjust="spacing" textLength="380" x="477" y="953.7676">Returns Operation In/Sucess message</text><polygon fill="#000000" points="57,993.7656,47,997.7656,57,1001.7656,53,997.7656" style="stroke:#000000;stroke-width:1.0;"/><line style="stroke:#000000;stroke-width:1.0;stroke-dasharray:2.0,2.0;" x1="51" x2="454" y1="997.7656" y2="997.7656"/><text fill="#000000" font-family="sans-serif" font-size="20" lengthAdjust="spacing" textLength="380" x="63" y="991.0488">Returns Operation In/Sucess message</text><!--SRC=[bLLjRzem4FwUNt5g9z5APUqwxQtgAeMNQ4XbZGZBTpUvWaTYPxO3wwRzzvsT4CY0jaC2aVFpF7VtS6VqWek2APPdCbbW2Ya-i38pWHGcuhyGBYyypt2J8TpY4ZDu2y4G1fpDYE9vSvuYO5wOHyWnlqUblOvUAy8j5sWU2mIfp5nwtkOaoPZMyDi3UlLOifWfMOgqBpEfhg-NB2lnxlux9kRc1eu7xuT-y74_L4dfCC5Ws1jSxCTeL4kUe9Dw4rmEU_jW934CFWq_k3DVARcgmhsCSDwVxTeBYh0PxgyUZeUzu5tGinIM60huQSu5C0s-Htp34rumOU0evhWwil6u7RyhK373fPYISxelyq8A5CP1ns4R-wr8cS6d6Ftm2VMeSiO1mwWDz4ip7mc3Ai62sd0OVzJ6Z0UJggp1n7NBbrGDzUb3zmRYA_3rGeEHKBeoWO5SPmSx5XjAxCMMCWwlWAoaf3GvYy-TyuhORMXTI-jiUEJ7EBJC_fhfyZrfYvVYDh_vJaxr6oqkkE4iemNGpwXPJjMjGbCgeL-UdJB6ZkpNLZtGkBGjwcWWCRRDYXjx8nIfFa0Gag2Ap-O6v8C5J-VeJY1X0kuH1Cln350RdfDgEYWhaJFG1IQkTVUiTtuaQq-vs-B9AxeUX3azO2Z-D8fEMfIlLCB9QGqAe_soLPsfaLlADAjXP4d-QEt2b-aqX0d-AAcZhP7RQmwik9c38KC4hYgxDiCxylpHMhgPV-tGgfPd8WMMfbNGo0KAcz4-p96bgFundoJjHJ5jm5nREjsrBHPe-yIC2zcDiYJxOp7QH7AM9sw7R6uAI6KlvwsgNdla0zZCTGCayN97RJvwDxoO1i0o3uoNAyCeZlevholLsiz9lI5DFH0PPagwfMIAhRsaScmNzLoyc4TMsy6ePswNDa5DQwXR71gcpGxlKaRYF2eJf7-hd3xetZ-qmVz9ZRs_]--></g></svg>