<?xml version="1.0" encoding="UTF-8" standalone="no"?><svg xmlns="http://www.w3.org/2000/svg" xmlns:xlink="http://www.w3.org/1999/xlink" contentStyleType="text/css" height="1006px" preserveAspectRatio="none" style="width:2479px;height:1006px;background:#FFFFFF;" version="1.1" viewBox="0 0 2479 1006" width="2479px" zoomAndPan="magnify"><defs/><g><text fill="#000000" font-family="sans-serif" font-size="14" font-weight="bold" lengthAdjust="spacing" textLength="126" x="1178.5" y="27.9951">Level 2 Diagram</text><rect fill="#FFFFFF" height="774.3438" style="stroke:#181818;stroke-width:1.0;" width="10" x="36" y="135.5781"/><rect fill="#FFFFFF" height="411.8125" style="stroke:#181818;stroke-width:1.0;" width="10" x="694" y="164.8594"/><rect fill="#FFFFFF" height="286.9688" style="stroke:#181818;stroke-width:1.0;" width="10" x="694" y="613.9531"/><rect fill="#FFFFFF" height="87.5625" style="stroke:#181818;stroke-width:1.0;" width="10" x="1186" y="451.8281"/><rect fill="#FFFFFF" height="212.4063" style="stroke:#181818;stroke-width:1.0;" width="10" x="1186" y="651.2344"/><rect fill="#FFFFFF" height="87.5625" style="stroke:#181818;stroke-width:1.0;" width="10" x="1945" y="202.1406"/><rect fill="#FFFFFF" height="87.5625" style="stroke:#181818;stroke-width:1.0;" width="10" x="1945" y="326.9844"/><rect fill="#FFFFFF" height="87.5625" style="stroke:#181818;stroke-width:1.0;" width="10" x="1945" y="688.5156"/><line style="stroke:#181818;stroke-width:0.5;stroke-dasharray:5.0,5.0;" x1="41" x2="41" y1="125.5781" y2="918.9219"/><line style="stroke:#181818;stroke-width:0.5;stroke-dasharray:5.0,5.0;" x1="698.5" x2="698.5" y1="125.5781" y2="918.9219"/><line style="stroke:#181818;stroke-width:0.5;stroke-dasharray:5.0,5.0;" x1="1191" x2="1191" y1="125.5781" y2="918.9219"/><line style="stroke:#181818;stroke-width:0.5;stroke-dasharray:5.0,5.0;" x1="1950" x2="1950" y1="125.5781" y2="918.9219"/><text fill="#000000" font-family="sans-serif" font-size="20" lengthAdjust="spacing" textLength="66" x="5" y="120.8613">Doctor</text><ellipse cx="41" cy="50.7969" fill="#E2E2F0" rx="8" ry="8" style="stroke:#181818;stroke-width:0.5;"/><path d="M41,58.7969 L41,85.7969 M28,66.7969 L54,66.7969 M41,85.7969 L28,100.7969 M41,85.7969 L54,100.7969 " fill="none" style="stroke:#181818;stroke-width:0.5;"/><text fill="#000000" font-family="sans-serif" font-size="20" lengthAdjust="spacing" textLength="66" x="5" y="936.4863">Doctor</text><ellipse cx="41" cy="949.7031" fill="#E2E2F0" rx="8" ry="8" style="stroke:#181818;stroke-width:0.5;"/><path d="M41,957.7031 L41,984.7031 M28,965.7031 L54,965.7031 M41,984.7031 L28,999.7031 M41,984.7031 L54,999.7031 " fill="none" style="stroke:#181818;stroke-width:0.5;"/><rect fill="#E2E2F0" height="37.2813" rx="2.5" ry="2.5" style="stroke:#181818;stroke-width:0.5;" width="39" x="679.5" y="87.2969"/><text fill="#000000" font-family="sans-serif" font-size="20" lengthAdjust="spacing" textLength="25" x="686.5" y="112.8613">FE</text><rect fill="#E2E2F0" height="37.2813" rx="2.5" ry="2.5" style="stroke:#181818;stroke-width:0.5;" width="39" x="679.5" y="917.9219"/><text fill="#000000" font-family="sans-serif" font-size="20" lengthAdjust="spacing" textLength="25" x="686.5" y="943.4863">FE</text><rect fill="#E2E2F0" height="37.2813" rx="2.5" ry="2.5" style="stroke:#181818;stroke-width:0.5;" width="60" x="1161" y="87.2969"/><text fill="#000000" font-family="sans-serif" font-size="20" lengthAdjust="spacing" textLength="46" x="1168" y="112.8613">MDV</text><rect fill="#E2E2F0" height="37.2813" rx="2.5" ry="2.5" style="stroke:#181818;stroke-width:0.5;" width="60" x="1161" y="917.9219"/><text fill="#000000" font-family="sans-serif" font-size="20" lengthAdjust="spacing" textLength="46" x="1168" y="943.4863">MDV</text><rect fill="#E2E2F0" height="37.2813" rx="2.5" ry="2.5" style="stroke:#181818;stroke-width:0.5;" width="60" x="1920" y="87.2969"/><text fill="#000000" font-family="sans-serif" font-size="20" lengthAdjust="spacing" textLength="46" x="1927" y="112.8613">MDR</text><rect fill="#E2E2F0" height="37.2813" rx="2.5" ry="2.5" style="stroke:#181818;stroke-width:0.5;" width="60" x="1920" y="917.9219"/><text fill="#000000" font-family="sans-serif" font-size="20" lengthAdjust="spacing" textLength="46" x="1927" y="943.4863">MDR</text><rect fill="#FFFFFF" height="774.3438" style="stroke:#181818;stroke-width:1.0;" width="10" x="36" y="135.5781"/><rect fill="#FFFFFF" height="411.8125" style="stroke:#181818;stroke-width:1.0;" width="10" x="694" y="164.8594"/><rect fill="#FFFFFF" height="286.9688" style="stroke:#181818;stroke-width:1.0;" width="10" x="694" y="613.9531"/><rect fill="#FFFFFF" height="87.5625" style="stroke:#181818;stroke-width:1.0;" width="10" x="1186" y="451.8281"/><rect fill="#FFFFFF" height="212.4063" style="stroke:#181818;stroke-width:1.0;" width="10" x="1186" y="651.2344"/><rect fill="#FFFFFF" height="87.5625" style="stroke:#181818;stroke-width:1.0;" width="10" x="1945" y="202.1406"/><rect fill="#FFFFFF" height="87.5625" style="stroke:#181818;stroke-width:1.0;" width="10" x="1945" y="326.9844"/><rect fill="#FFFFFF" height="87.5625" style="stroke:#181818;stroke-width:1.0;" width="10" x="1945" y="688.5156"/><polygon fill="#000000" points="682,160.8594,692,164.8594,682,168.8594,686,164.8594" style="stroke:#000000;stroke-width:1.0;"/><line style="stroke:#000000;stroke-width:1.0;" x1="46" x2="688" y1="164.8594" y2="164.8594"/><text fill="#000000" font-family="sans-serif" font-size="20" lengthAdjust="spacing" textLength="556" x="53" y="158.1426">Asks to create an appointment for an operation request</text><polygon fill="#000000" points="1933,198.1406,1943,202.1406,1933,206.1406,1937,202.1406" style="stroke:#000000;stroke-width:1.0;"/><line style="stroke:#000000;stroke-width:1.0;" x1="704" x2="1939" y1="202.1406" y2="202.1406"/><text fill="#000000" font-family="sans-serif" font-size="20" lengthAdjust="spacing" textLength="460" x="711" y="195.4238">Makes Http Request to get Operation Request</text><line style="stroke:#000000;stroke-width:1.0;" x1="1955" x2="1997" y1="239.4219" y2="239.4219"/><line style="stroke:#000000;stroke-width:1.0;" x1="1997" x2="1997" y1="239.4219" y2="252.4219"/><line style="stroke:#000000;stroke-width:1.0;" x1="1956" x2="1997" y1="252.4219" y2="252.4219"/><polygon fill="#000000" points="1966,248.4219,1956,252.4219,1966,256.4219,1962,252.4219" style="stroke:#000000;stroke-width:1.0;"/><text fill="#000000" font-family="sans-serif" font-size="20" lengthAdjust="spacing" textLength="272" x="1962" y="232.7051">Fetches Operation Request</text><polygon fill="#000000" points="715,285.7031,705,289.7031,715,293.7031,711,289.7031" style="stroke:#000000;stroke-width:1.0;"/><line style="stroke:#000000;stroke-width:1.0;stroke-dasharray:2.0,2.0;" x1="709" x2="1949" y1="289.7031" y2="289.7031"/><text fill="#000000" font-family="sans-serif" font-size="20" lengthAdjust="spacing" textLength="256" x="721" y="282.9863">return Operation Request</text><polygon fill="#000000" points="1933,322.9844,1943,326.9844,1933,330.9844,1937,326.9844" style="stroke:#000000;stroke-width:1.0;"/><line style="stroke:#000000;stroke-width:1.0;" x1="704" x2="1939" y1="326.9844" y2="326.9844"/><text fill="#000000" font-family="sans-serif" font-size="20" lengthAdjust="spacing" textLength="386" x="711" y="320.2676">Makes Http Request to get Staff's data</text><line style="stroke:#000000;stroke-width:1.0;" x1="1955" x2="1997" y1="364.2656" y2="364.2656"/><line style="stroke:#000000;stroke-width:1.0;" x1="1997" x2="1997" y1="364.2656" y2="377.2656"/><line style="stroke:#000000;stroke-width:1.0;" x1="1956" x2="1997" y1="377.2656" y2="377.2656"/><polygon fill="#000000" points="1966,373.2656,1956,377.2656,1966,381.2656,1962,377.2656" style="stroke:#000000;stroke-width:1.0;"/><text fill="#000000" font-family="sans-serif" font-size="20" lengthAdjust="spacing" textLength="198" x="1962" y="357.5488">Fetches Staff's data</text><polygon fill="#000000" points="715,410.5469,705,414.5469,715,418.5469,711,414.5469" style="stroke:#000000;stroke-width:1.0;"/><line style="stroke:#000000;stroke-width:1.0;stroke-dasharray:2.0,2.0;" x1="709" x2="1949" y1="414.5469" y2="414.5469"/><text fill="#000000" font-family="sans-serif" font-size="20" lengthAdjust="spacing" textLength="115" x="721" y="407.8301">return Staff</text><polygon fill="#000000" points="1174,447.8281,1184,451.8281,1174,455.8281,1178,451.8281" style="stroke:#000000;stroke-width:1.0;"/><line style="stroke:#000000;stroke-width:1.0;" x1="704" x2="1180" y1="451.8281" y2="451.8281"/><text fill="#000000" font-family="sans-serif" font-size="20" lengthAdjust="spacing" textLength="397" x="711" y="445.1113">Makes Http Request to get Room's data</text><line style="stroke:#000000;stroke-width:1.0;" x1="1196" x2="1238" y1="489.1094" y2="489.1094"/><line style="stroke:#000000;stroke-width:1.0;" x1="1238" x2="1238" y1="489.1094" y2="502.1094"/><line style="stroke:#000000;stroke-width:1.0;" x1="1197" x2="1238" y1="502.1094" y2="502.1094"/><polygon fill="#000000" points="1207,498.1094,1197,502.1094,1207,506.1094,1203,502.1094" style="stroke:#000000;stroke-width:1.0;"/><text fill="#000000" font-family="sans-serif" font-size="20" lengthAdjust="spacing" textLength="209" x="1203" y="482.3926">Fetches Room's data</text><polygon fill="#000000" points="715,535.3906,705,539.3906,715,543.3906,711,539.3906" style="stroke:#000000;stroke-width:1.0;"/><line style="stroke:#000000;stroke-width:1.0;stroke-dasharray:2.0,2.0;" x1="709" x2="1190" y1="539.3906" y2="539.3906"/><text fill="#000000" font-family="sans-serif" font-size="20" lengthAdjust="spacing" textLength="136" x="721" y="532.6738">return Rooms</text><polygon fill="#000000" points="57,572.6719,47,576.6719,57,580.6719,53,576.6719" style="stroke:#000000;stroke-width:1.0;"/><line style="stroke:#000000;stroke-width:1.0;stroke-dasharray:2.0,2.0;" x1="51" x2="698" y1="576.6719" y2="576.6719"/><text fill="#000000" font-family="sans-serif" font-size="20" lengthAdjust="spacing" textLength="624" x="63" y="569.9551">Displays the fetched data and asks for the appointment's data</text><polygon fill="#000000" points="682,609.9531,692,613.9531,682,617.9531,686,613.9531" style="stroke:#000000;stroke-width:1.0;"/><line style="stroke:#000000;stroke-width:1.0;" x1="46" x2="688" y1="613.9531" y2="613.9531"/><text fill="#000000" font-family="sans-serif" font-size="20" lengthAdjust="spacing" textLength="521" x="53" y="607.2363">Sends appointment's data (DateTime, Room, Team)</text><polygon fill="#000000" points="1174,647.2344,1184,651.2344,1174,655.2344,1178,651.2344" style="stroke:#000000;stroke-width:1.0;"/><line style="stroke:#000000;stroke-width:1.0;" x1="704" x2="1180" y1="651.2344" y2="651.2344"/><text fill="#000000" font-family="sans-serif" font-size="20" lengthAdjust="spacing" textLength="463" x="711" y="644.5176">Makes Http Request to create an appointment</text><polygon fill="#000000" points="1933,684.5156,1943,688.5156,1933,692.5156,1937,688.5156" style="stroke:#000000;stroke-width:1.0;"/><line style="stroke:#000000;stroke-width:1.0;" x1="1196" x2="1939" y1="688.5156" y2="688.5156"/><text fill="#000000" font-family="sans-serif" font-size="20" lengthAdjust="spacing" textLength="730" x="1203" y="681.7988">Makes Http Request to change Operation Request's status to "Accepted"</text><line style="stroke:#000000;stroke-width:1.0;" x1="1955" x2="1997" y1="725.7969" y2="725.7969"/><line style="stroke:#000000;stroke-width:1.0;" x1="1997" x2="1997" y1="725.7969" y2="738.7969"/><line style="stroke:#000000;stroke-width:1.0;" x1="1956" x2="1997" y1="738.7969" y2="738.7969"/><polygon fill="#000000" points="1966,734.7969,1956,738.7969,1966,742.7969,1962,738.7969" style="stroke:#000000;stroke-width:1.0;"/><text fill="#000000" font-family="sans-serif" font-size="20" lengthAdjust="spacing" textLength="510" x="1962" y="719.0801">Changes Operation Request's status to "Accepted"</text><polygon fill="#000000" points="1207,772.0781,1197,776.0781,1207,780.0781,1203,776.0781" style="stroke:#000000;stroke-width:1.0;"/><line style="stroke:#000000;stroke-width:1.0;stroke-dasharray:2.0,2.0;" x1="1201" x2="1949" y1="776.0781" y2="776.0781"/><text fill="#000000" font-family="sans-serif" font-size="20" lengthAdjust="spacing" textLength="311" x="1213" y="769.3613">Returns Operation Status Code</text><line style="stroke:#000000;stroke-width:1.0;" x1="1196" x2="1238" y1="813.3594" y2="813.3594"/><line style="stroke:#000000;stroke-width:1.0;" x1="1238" x2="1238" y1="813.3594" y2="826.3594"/><line style="stroke:#000000;stroke-width:1.0;" x1="1197" x2="1238" y1="826.3594" y2="826.3594"/><polygon fill="#000000" points="1207,822.3594,1197,826.3594,1207,830.3594,1203,826.3594" style="stroke:#000000;stroke-width:1.0;"/><text fill="#000000" font-family="sans-serif" font-size="20" lengthAdjust="spacing" textLength="439" x="1203" y="806.6426">Validates appointment's data and creates it</text><polygon fill="#000000" points="715,859.6406,705,863.6406,715,867.6406,711,863.6406" style="stroke:#000000;stroke-width:1.0;"/><line style="stroke:#000000;stroke-width:1.0;stroke-dasharray:2.0,2.0;" x1="709" x2="1190" y1="863.6406" y2="863.6406"/><text fill="#000000" font-family="sans-serif" font-size="20" lengthAdjust="spacing" textLength="311" x="721" y="856.9238">Returns Operation Status Code</text><polygon fill="#000000" points="57,896.9219,47,900.9219,57,904.9219,53,900.9219" style="stroke:#000000;stroke-width:1.0;"/><line style="stroke:#000000;stroke-width:1.0;stroke-dasharray:2.0,2.0;" x1="51" x2="698" y1="900.9219" y2="900.9219"/><text fill="#000000" font-family="sans-serif" font-size="20" lengthAdjust="spacing" textLength="380" x="63" y="894.2051">Returns Operation In/Sucess message</text><!--SRC=[bPJTRjf048Nl_HIZv2AjbAefKlzGX6HZMwsKA9A9kD-i1zXYxxgxOofQzTqpkzI90TEcN80qS-RRmywntLhfHbXHLqQkiOGI5wAjA3UQPkedmkWgYaXHXN236wnW1AaIIzP7qKgL25Wtj8KQwmUqBhfm7Gvkb4RQDWZ6qif4qND7Li8v-1K1Vn8XrqjhMbrEJMNizVL6L2tUFNn3IPC9dASViZZ_D2ornWHDdcP9UZMiSMWtIc90lSj7MJ8aOqIMVyu-XbvihVcnAoSLwwBVVUyDLyGIXzt3UPRax_F4ZmX9N4XD-14EueW1fAHgX2R8Cr_BixtYRJhtLVuvA1UxSX6eQYC86HV3cmaJnX2xjGCo82twZj0WciOeJJNozC8Vhy4qQ0Kfey7YznOTFQFO1TjX69ymXbknHWTVY1eeTahFNYB1tHEYE4HuRzvc1ycHv8ennoD1zSUuHMgj7X2Lk4T-aRiPYSNYma4fIFpRs9vwm5Fed_8n_vkFmfXwmCOyyjljnZiRVN7exxlmRRVlOXvSi2mUyuFecafiUVahX4L0be752oyvCXmBlttVxIMYEw-7vGGyfMc6kdG3UdYLilHUrNWPV5t2FOhwzM2CJbxGO4HFNDF9RSkLqFm47iM6ZJeIr8Q7uIoM4Xl2yknq6AO1v5vEwe8I_c4HTjIVdkrcfgR4m-ZqbpyNbU8RnS5RzflRtP83HNkX-8y3-oav7lkgtyvQYVmEhlcBtsO7MNW4]--></g></svg>