<?xml version="1.0" encoding="UTF-8" standalone="no"?><svg xmlns="http://www.w3.org/2000/svg" xmlns:xlink="http://www.w3.org/1999/xlink" contentStyleType="text/css" height="2673px" preserveAspectRatio="none" style="width:4397px;height:2673px;background:#FFFFFF;" version="1.1" viewBox="0 0 4397 2673" width="4397px" zoomAndPan="magnify"><defs/><g><text fill="#000000" font-family="sans-serif" font-size="14" font-weight="bold" lengthAdjust="spacing" textLength="149" x="2126" y="27.9951">Level 3 FE Diagram</text><rect fill="#FFFFFF" height="2441.4375" style="stroke:#181818;stroke-width:1.0;" width="10" x="36" y="135.5781"/><rect fill="#FFFFFF" height="1863.2188" style="stroke:#181818;stroke-width:1.0;" width="10" x="694" y="164.8594"/><rect fill="#FFFFFF" height="502.6563" style="stroke:#181818;stroke-width:1.0;" width="10" x="694" y="2065.3594"/><rect fill="#FFFFFF" height="37.2813" style="stroke:#181818;stroke-width:1.0;" width="10" x="1103" y="202.1406"/><rect fill="#FFFFFF" height="1751.375" style="stroke:#181818;stroke-width:1.0;" width="10" x="1542" y="239.4219"/><rect fill="#FFFFFF" height="428.0938" style="stroke:#181818;stroke-width:1.0;" width="10" x="1542" y="2102.6406"/><rect fill="#FFFFFF" height="353.5313" style="stroke:#181818;stroke-width:1.0;" width="10" x="1990" y="276.7031"/><rect fill="#FFFFFF" height="353.5313" style="stroke:#181818;stroke-width:1.0;" width="10" x="2201.5" y="667.5156"/><rect fill="#FFFFFF" height="353.5313" style="stroke:#181818;stroke-width:1.0;" width="10" x="2351" y="1108.6094"/><rect fill="#FFFFFF" height="353.5313" style="stroke:#181818;stroke-width:1.0;" width="10" x="2543" y="1499.4219"/><rect fill="#FFFFFF" height="353.5313" style="stroke:#181818;stroke-width:1.0;" width="10" x="2543" y="2139.9219"/><rect fill="#FFFFFF" height="278.9688" style="stroke:#181818;stroke-width:1.0;" width="10" x="3043" y="313.9844"/><rect fill="#FFFFFF" height="278.9688" style="stroke:#181818;stroke-width:1.0;" width="10" x="3043" y="704.7969"/><rect fill="#FFFFFF" height="278.9688" style="stroke:#181818;stroke-width:1.0;" width="10" x="3043" y="1145.8906"/><rect fill="#FFFFFF" height="278.9688" style="stroke:#181818;stroke-width:1.0;" width="10" x="3043" y="1536.7031"/><rect fill="#FFFFFF" height="278.9688" style="stroke:#181818;stroke-width:1.0;" width="10" x="3043" y="2177.2031"/><rect fill="#FFFFFF" height="87.5625" style="stroke:#181818;stroke-width:1.0;" width="10" x="3630" y="1300.0156"/><rect fill="#FFFFFF" height="87.5625" style="stroke:#181818;stroke-width:1.0;" width="10" x="3630" y="1690.8281"/><rect fill="#FFFFFF" height="87.5625" style="stroke:#181818;stroke-width:1.0;" width="10" x="3630" y="2331.3281"/><rect fill="#FFFFFF" height="87.5625" style="stroke:#181818;stroke-width:1.0;" width="10" x="4101" y="468.1094"/><rect fill="#FFFFFF" height="87.5625" style="stroke:#181818;stroke-width:1.0;" width="10" x="4101" y="858.9219"/><line style="stroke:#181818;stroke-width:0.5;stroke-dasharray:5.0,5.0;" x1="41" x2="41" y1="125.5781" y2="2586.0156"/><line style="stroke:#181818;stroke-width:0.5;stroke-dasharray:5.0,5.0;" x1="698.5" x2="698.5" y1="125.5781" y2="2586.0156"/><line style="stroke:#181818;stroke-width:0.5;stroke-dasharray:5.0,5.0;" x1="1107.5" x2="1107.5" y1="125.5781" y2="2586.0156"/><line style="stroke:#181818;stroke-width:0.5;stroke-dasharray:5.0,5.0;" x1="1547" x2="1547" y1="125.5781" y2="2586.0156"/><line style="stroke:#181818;stroke-width:0.5;stroke-dasharray:5.0,5.0;" x1="1994.5" x2="1994.5" y1="125.5781" y2="2586.0156"/><line style="stroke:#181818;stroke-width:0.5;stroke-dasharray:5.0,5.0;" x1="2206.5" x2="2206.5" y1="125.5781" y2="2586.0156"/><line style="stroke:#181818;stroke-width:0.5;stroke-dasharray:5.0,5.0;" x1="2355.5" x2="2355.5" y1="125.5781" y2="2586.0156"/><line style="stroke:#181818;stroke-width:0.5;stroke-dasharray:5.0,5.0;" x1="2547.5" x2="2547.5" y1="125.5781" y2="2586.0156"/><line style="stroke:#181818;stroke-width:0.5;stroke-dasharray:5.0,5.0;" x1="3047.5" x2="3047.5" y1="125.5781" y2="2586.0156"/><line style="stroke:#181818;stroke-width:0.5;stroke-dasharray:5.0,5.0;" x1="3635" x2="3635" y1="125.5781" y2="2586.0156"/><line style="stroke:#181818;stroke-width:0.5;stroke-dasharray:5.0,5.0;" x1="4106" x2="4106" y1="125.5781" y2="2586.0156"/><text fill="#000000" font-family="sans-serif" font-size="20" lengthAdjust="spacing" textLength="66" x="5" y="120.8613">Doctor</text><ellipse cx="41" cy="50.7969" fill="#E2E2F0" rx="8" ry="8" style="stroke:#181818;stroke-width:0.5;"/><path d="M41,58.7969 L41,85.7969 M28,66.7969 L54,66.7969 M41,85.7969 L28,100.7969 M41,85.7969 L54,100.7969 " fill="none" style="stroke:#181818;stroke-width:0.5;"/><text fill="#000000" font-family="sans-serif" font-size="20" lengthAdjust="spacing" textLength="66" x="5" y="2603.5801">Doctor</text><ellipse cx="41" cy="2616.7969" fill="#E2E2F0" rx="8" ry="8" style="stroke:#181818;stroke-width:0.5;"/><path d="M41,2624.7969 L41,2651.7969 M28,2632.7969 L54,2632.7969 M41,2651.7969 L28,2666.7969 M41,2651.7969 L54,2666.7969 " fill="none" style="stroke:#181818;stroke-width:0.5;"/><rect fill="#E2E2F0" height="37.2813" rx="2.5" ry="2.5" style="stroke:#181818;stroke-width:0.5;" width="63" x="667.5" y="87.2969"/><text fill="#000000" font-family="sans-serif" font-size="20" lengthAdjust="spacing" textLength="49" x="674.5" y="112.8613">View</text><rect fill="#E2E2F0" height="37.2813" rx="2.5" ry="2.5" style="stroke:#181818;stroke-width:0.5;" width="63" x="667.5" y="2585.0156"/><text fill="#000000" font-family="sans-serif" font-size="20" lengthAdjust="spacing" textLength="49" x="674.5" y="2610.5801">View</text><rect fill="#E2E2F0" height="37.2813" rx="2.5" ry="2.5" style="stroke:#181818;stroke-width:0.5;" width="347" x="934.5" y="87.2969"/><text fill="#000000" font-family="sans-serif" font-size="20" lengthAdjust="spacing" textLength="333" x="941.5" y="112.8613">AppoitmentsManagerComponent</text><rect fill="#E2E2F0" height="37.2813" rx="2.5" ry="2.5" style="stroke:#181818;stroke-width:0.5;" width="347" x="934.5" y="2585.0156"/><text fill="#000000" font-family="sans-serif" font-size="20" lengthAdjust="spacing" textLength="333" x="941.5" y="2610.5801">AppoitmentsManagerComponent</text><rect fill="#E2E2F0" height="37.2813" rx="2.5" ry="2.5" style="stroke:#181818;stroke-width:0.5;" width="336" x="1379" y="87.2969"/><text fill="#000000" font-family="sans-serif" font-size="20" lengthAdjust="spacing" textLength="322" x="1386" y="112.8613">UpdateAppointmentComponent</text><rect fill="#E2E2F0" height="37.2813" rx="2.5" ry="2.5" style="stroke:#181818;stroke-width:0.5;" width="336" x="1379" y="2585.0156"/><text fill="#000000" font-family="sans-serif" font-size="20" lengthAdjust="spacing" textLength="322" x="1386" y="2610.5801">UpdateAppointmentComponent</text><rect fill="#E2E2F0" height="37.2813" rx="2.5" ry="2.5" style="stroke:#181818;stroke-width:0.5;" width="269" x="1860.5" y="87.2969"/><text fill="#000000" font-family="sans-serif" font-size="20" lengthAdjust="spacing" textLength="255" x="1867.5" y="112.8613">OperationRequestService</text><rect fill="#E2E2F0" height="37.2813" rx="2.5" ry="2.5" style="stroke:#181818;stroke-width:0.5;" width="269" x="1860.5" y="2585.0156"/><text fill="#000000" font-family="sans-serif" font-size="20" lengthAdjust="spacing" textLength="255" x="1867.5" y="2610.5801">OperationRequestService</text><rect fill="#E2E2F0" height="37.2813" rx="2.5" ry="2.5" style="stroke:#181818;stroke-width:0.5;" width="134" x="2139.5" y="87.2969"/><text fill="#000000" font-family="sans-serif" font-size="20" lengthAdjust="spacing" textLength="120" x="2146.5" y="112.8613">StaffService</text><rect fill="#E2E2F0" height="37.2813" rx="2.5" ry="2.5" style="stroke:#181818;stroke-width:0.5;" width="134" x="2139.5" y="2585.0156"/><text fill="#000000" font-family="sans-serif" font-size="20" lengthAdjust="spacing" textLength="120" x="2146.5" y="2610.5801">StaffService</text><rect fill="#E2E2F0" height="37.2813" rx="2.5" ry="2.5" style="stroke:#181818;stroke-width:0.5;" width="145" x="2283.5" y="87.2969"/><text fill="#000000" font-family="sans-serif" font-size="20" lengthAdjust="spacing" textLength="131" x="2290.5" y="112.8613">RoomService</text><rect fill="#E2E2F0" height="37.2813" rx="2.5" ry="2.5" style="stroke:#181818;stroke-width:0.5;" width="145" x="2283.5" y="2585.0156"/><text fill="#000000" font-family="sans-serif" font-size="20" lengthAdjust="spacing" textLength="131" x="2290.5" y="2610.5801">RoomService</text><rect fill="#E2E2F0" height="37.2813" rx="2.5" ry="2.5" style="stroke:#181818;stroke-width:0.5;" width="219" x="2438.5" y="87.2969"/><text fill="#000000" font-family="sans-serif" font-size="20" lengthAdjust="spacing" textLength="205" x="2445.5" y="112.8613">AppointmentService</text><rect fill="#E2E2F0" height="37.2813" rx="2.5" ry="2.5" style="stroke:#181818;stroke-width:0.5;" width="219" x="2438.5" y="2585.0156"/><text fill="#000000" font-family="sans-serif" font-size="20" lengthAdjust="spacing" textLength="205" x="2445.5" y="2610.5801">AppointmentService</text><rect fill="#E2E2F0" height="37.2813" rx="2.5" ry="2.5" style="stroke:#181818;stroke-width:0.5;" width="173" x="2961.5" y="87.2969"/><text fill="#000000" font-family="sans-serif" font-size="20" lengthAdjust="spacing" textLength="159" x="2968.5" y="112.8613">AuthInterceptor</text><rect fill="#E2E2F0" height="37.2813" rx="2.5" ry="2.5" style="stroke:#181818;stroke-width:0.5;" width="173" x="2961.5" y="2585.0156"/><text fill="#000000" font-family="sans-serif" font-size="20" lengthAdjust="spacing" textLength="159" x="2968.5" y="2610.5801">AuthInterceptor</text><rect fill="#E2E2F0" height="37.2813" rx="2.5" ry="2.5" style="stroke:#181818;stroke-width:0.5;" width="60" x="3605" y="87.2969"/><text fill="#000000" font-family="sans-serif" font-size="20" lengthAdjust="spacing" textLength="46" x="3612" y="112.8613">MDV</text><rect fill="#E2E2F0" height="37.2813" rx="2.5" ry="2.5" style="stroke:#181818;stroke-width:0.5;" width="60" x="3605" y="2585.0156"/><text fill="#000000" font-family="sans-serif" font-size="20" lengthAdjust="spacing" textLength="46" x="3612" y="2610.5801">MDV</text><rect fill="#E2E2F0" height="37.2813" rx="2.5" ry="2.5" style="stroke:#181818;stroke-width:0.5;" width="60" x="4076" y="87.2969"/><text fill="#000000" font-family="sans-serif" font-size="20" lengthAdjust="spacing" textLength="46" x="4083" y="112.8613">MDR</text><rect fill="#E2E2F0" height="37.2813" rx="2.5" ry="2.5" style="stroke:#181818;stroke-width:0.5;" width="60" x="4076" y="2585.0156"/><text fill="#000000" font-family="sans-serif" font-size="20" lengthAdjust="spacing" textLength="46" x="4083" y="2610.5801">MDR</text><rect fill="#FFFFFF" height="2441.4375" style="stroke:#181818;stroke-width:1.0;" width="10" x="36" y="135.5781"/><rect fill="#FFFFFF" height="1863.2188" style="stroke:#181818;stroke-width:1.0;" width="10" x="694" y="164.8594"/><rect fill="#FFFFFF" height="502.6563" style="stroke:#181818;stroke-width:1.0;" width="10" x="694" y="2065.3594"/><rect fill="#FFFFFF" height="37.2813" style="stroke:#181818;stroke-width:1.0;" width="10" x="1103" y="202.1406"/><rect fill="#FFFFFF" height="1751.375" style="stroke:#181818;stroke-width:1.0;" width="10" x="1542" y="239.4219"/><rect fill="#FFFFFF" height="428.0938" style="stroke:#181818;stroke-width:1.0;" width="10" x="1542" y="2102.6406"/><rect fill="#FFFFFF" height="353.5313" style="stroke:#181818;stroke-width:1.0;" width="10" x="1990" y="276.7031"/><rect fill="#FFFFFF" height="353.5313" style="stroke:#181818;stroke-width:1.0;" width="10" x="2201.5" y="667.5156"/><rect fill="#FFFFFF" height="353.5313" style="stroke:#181818;stroke-width:1.0;" width="10" x="2351" y="1108.6094"/><rect fill="#FFFFFF" height="353.5313" style="stroke:#181818;stroke-width:1.0;" width="10" x="2543" y="1499.4219"/><rect fill="#FFFFFF" height="353.5313" style="stroke:#181818;stroke-width:1.0;" width="10" x="2543" y="2139.9219"/><rect fill="#FFFFFF" height="278.9688" style="stroke:#181818;stroke-width:1.0;" width="10" x="3043" y="313.9844"/><rect fill="#FFFFFF" height="278.9688" style="stroke:#181818;stroke-width:1.0;" width="10" x="3043" y="704.7969"/><rect fill="#FFFFFF" height="278.9688" style="stroke:#181818;stroke-width:1.0;" width="10" x="3043" y="1145.8906"/><rect fill="#FFFFFF" height="278.9688" style="stroke:#181818;stroke-width:1.0;" width="10" x="3043" y="1536.7031"/><rect fill="#FFFFFF" height="278.9688" style="stroke:#181818;stroke-width:1.0;" width="10" x="3043" y="2177.2031"/><rect fill="#FFFFFF" height="87.5625" style="stroke:#181818;stroke-width:1.0;" width="10" x="3630" y="1300.0156"/><rect fill="#FFFFFF" height="87.5625" style="stroke:#181818;stroke-width:1.0;" width="10" x="3630" y="1690.8281"/><rect fill="#FFFFFF" height="87.5625" style="stroke:#181818;stroke-width:1.0;" width="10" x="3630" y="2331.3281"/><rect fill="#FFFFFF" height="87.5625" style="stroke:#181818;stroke-width:1.0;" width="10" x="4101" y="468.1094"/><rect fill="#FFFFFF" height="87.5625" style="stroke:#181818;stroke-width:1.0;" width="10" x="4101" y="858.9219"/><polygon fill="#000000" points="682,160.8594,692,164.8594,682,168.8594,686,164.8594" style="stroke:#000000;stroke-width:1.0;"/><line style="stroke:#000000;stroke-width:1.0;" x1="46" x2="688" y1="164.8594" y2="164.8594"/><text fill="#000000" font-family="sans-serif" font-size="20" lengthAdjust="spacing" textLength="564" x="53" y="158.1426">Asks to update an appointment for an operation request</text><polygon fill="#000000" points="1091,198.1406,1101,202.1406,1091,206.1406,1095,202.1406" style="stroke:#000000;stroke-width:1.0;"/><line style="stroke:#000000;stroke-width:1.0;" x1="704" x2="1097" y1="202.1406" y2="202.1406"/><text fill="#000000" font-family="sans-serif" font-size="20" lengthAdjust="spacing" textLength="380" x="711" y="195.4238">routerLink='/update-appointment/:id'</text><polygon fill="#000000" points="1530,235.4219,1540,239.4219,1530,243.4219,1534,239.4219" style="stroke:#000000;stroke-width:1.0;"/><line style="stroke:#000000;stroke-width:1.0;" x1="1108" x2="1536" y1="239.4219" y2="239.4219"/><text fill="#000000" font-family="sans-serif" font-size="20" lengthAdjust="spacing" textLength="410" x="1115" y="232.7051">routes to CreateAppointmentComponent</text><polygon fill="#000000" points="1978,272.7031,1988,276.7031,1978,280.7031,1982,276.7031" style="stroke:#000000;stroke-width:1.0;"/><line style="stroke:#000000;stroke-width:1.0;" x1="1552" x2="1984" y1="276.7031" y2="276.7031"/><text fill="#000000" font-family="sans-serif" font-size="20" lengthAdjust="spacing" textLength="268" x="1559" y="269.9863">fetchOperationRequest(id)</text><polygon fill="#000000" points="3031,309.9844,3041,313.9844,3031,317.9844,3035,313.9844" style="stroke:#000000;stroke-width:1.0;"/><line style="stroke:#000000;stroke-width:1.0;" x1="2000" x2="3037" y1="313.9844" y2="313.9844"/><text fill="#000000" font-family="sans-serif" font-size="20" lengthAdjust="spacing" textLength="460" x="2007" y="307.2676">Makes Http Request to get Operation Request</text><line style="stroke:#000000;stroke-width:1.0;" x1="3053" x2="3095" y1="351.2656" y2="351.2656"/><line style="stroke:#000000;stroke-width:1.0;" x1="3095" x2="3095" y1="351.2656" y2="364.2656"/><line style="stroke:#000000;stroke-width:1.0;" x1="3054" x2="3095" y1="364.2656" y2="364.2656"/><polygon fill="#000000" points="3064,360.2656,3054,364.2656,3064,368.2656,3060,364.2656" style="stroke:#000000;stroke-width:1.0;"/><text fill="#000000" font-family="sans-serif" font-size="20" lengthAdjust="spacing" textLength="563" x="3060" y="344.5488">Intercepts the request and adds the token to the header</text><path d="M3058,377.2656 L3058,433.2656 L3577,433.2656 L3577,387.2656 L3567,377.2656 L3058,377.2656 " fill="#FEFFDD" style="stroke:#181818;stroke-width:0.5;"/><path d="M3567,377.2656 L3567,387.2656 L3577,387.2656 L3567,377.2656 " fill="#FEFFDD" style="stroke:#181818;stroke-width:0.5;"/><text fill="#000000" font-family="sans-serif" font-size="20" lengthAdjust="spacing" textLength="498" x="3064" y="400.8301">The token is added to the header so that the MDR</text><text fill="#000000" font-family="sans-serif" font-size="20" lengthAdjust="spacing" textLength="442" x="3064" y="424.1113">can authenticate and authorize the request.</text><polygon fill="#000000" points="4089,464.1094,4099,468.1094,4089,472.1094,4093,468.1094" style="stroke:#000000;stroke-width:1.0;"/><line style="stroke:#000000;stroke-width:1.0;" x1="3053" x2="4095" y1="468.1094" y2="468.1094"/><text fill="#000000" font-family="sans-serif" font-size="20" lengthAdjust="spacing" textLength="250" x="3060" y="461.3926">getOperationRequest(id)</text><line style="stroke:#000000;stroke-width:1.0;" x1="4111" x2="4153" y1="505.3906" y2="505.3906"/><line style="stroke:#000000;stroke-width:1.0;" x1="4153" x2="4153" y1="505.3906" y2="518.3906"/><line style="stroke:#000000;stroke-width:1.0;" x1="4112" x2="4153" y1="518.3906" y2="518.3906"/><polygon fill="#000000" points="4122,514.3906,4112,518.3906,4122,522.3906,4118,518.3906" style="stroke:#000000;stroke-width:1.0;"/><text fill="#000000" font-family="sans-serif" font-size="20" lengthAdjust="spacing" textLength="272" x="4118" y="498.6738">Fetches Operation Request</text><polygon fill="#000000" points="3064,551.6719,3054,555.6719,3064,559.6719,3060,555.6719" style="stroke:#000000;stroke-width:1.0;"/><line style="stroke:#000000;stroke-width:1.0;stroke-dasharray:2.0,2.0;" x1="3058" x2="4105" y1="555.6719" y2="555.6719"/><text fill="#000000" font-family="sans-serif" font-size="20" lengthAdjust="spacing" textLength="305" x="3070" y="548.9551">returns Operation Status Code</text><polygon fill="#000000" points="2011,588.9531,2001,592.9531,2011,596.9531,2007,592.9531" style="stroke:#000000;stroke-width:1.0;"/><line style="stroke:#000000;stroke-width:1.0;stroke-dasharray:2.0,2.0;" x1="2005" x2="3047" y1="592.9531" y2="592.9531"/><text fill="#000000" font-family="sans-serif" font-size="20" lengthAdjust="spacing" textLength="305" x="2017" y="586.2363">returns Operation Status Code</text><polygon fill="#000000" points="1563,626.2344,1553,630.2344,1563,634.2344,1559,630.2344" style="stroke:#000000;stroke-width:1.0;"/><line style="stroke:#000000;stroke-width:1.0;" x1="1557" x2="1994" y1="630.2344" y2="630.2344"/><text fill="#000000" font-family="sans-serif" font-size="20" lengthAdjust="spacing" textLength="280" x="1569" y="623.5176">returns Operation Response</text><polygon fill="#000000" points="2189.5,663.5156,2199.5,667.5156,2189.5,671.5156,2193.5,667.5156" style="stroke:#000000;stroke-width:1.0;"/><line style="stroke:#000000;stroke-width:1.0;" x1="1552" x2="2195.5" y1="667.5156" y2="667.5156"/><text fill="#000000" font-family="sans-serif" font-size="20" lengthAdjust="spacing" textLength="114" x="1559" y="660.7988">fetchStaff()</text><polygon fill="#000000" points="3031,700.7969,3041,704.7969,3031,708.7969,3035,704.7969" style="stroke:#000000;stroke-width:1.0;"/><line style="stroke:#000000;stroke-width:1.0;" x1="2211.5" x2="3037" y1="704.7969" y2="704.7969"/><text fill="#000000" font-family="sans-serif" font-size="20" lengthAdjust="spacing" textLength="386" x="2218.5" y="698.0801">Makes Http Request to get Staff's data</text><line style="stroke:#000000;stroke-width:1.0;" x1="3053" x2="3095" y1="742.0781" y2="742.0781"/><line style="stroke:#000000;stroke-width:1.0;" x1="3095" x2="3095" y1="742.0781" y2="755.0781"/><line style="stroke:#000000;stroke-width:1.0;" x1="3054" x2="3095" y1="755.0781" y2="755.0781"/><polygon fill="#000000" points="3064,751.0781,3054,755.0781,3064,759.0781,3060,755.0781" style="stroke:#000000;stroke-width:1.0;"/><text fill="#000000" font-family="sans-serif" font-size="20" lengthAdjust="spacing" textLength="563" x="3060" y="735.3613">Intercepts the request and adds the token to the header</text><path d="M3058,768.0781 L3058,824.0781 L3577,824.0781 L3577,778.0781 L3567,768.0781 L3058,768.0781 " fill="#FEFFDD" style="stroke:#181818;stroke-width:0.5;"/><path d="M3567,768.0781 L3567,778.0781 L3577,778.0781 L3567,768.0781 " fill="#FEFFDD" style="stroke:#181818;stroke-width:0.5;"/><text fill="#000000" font-family="sans-serif" font-size="20" lengthAdjust="spacing" textLength="498" x="3064" y="791.6426">The token is added to the header so that the MDR</text><text fill="#000000" font-family="sans-serif" font-size="20" lengthAdjust="spacing" textLength="442" x="3064" y="814.9238">can authenticate and authorize the request.</text><polygon fill="#000000" points="4089,854.9219,4099,858.9219,4089,862.9219,4093,858.9219" style="stroke:#000000;stroke-width:1.0;"/><line style="stroke:#000000;stroke-width:1.0;" x1="3053" x2="4095" y1="858.9219" y2="858.9219"/><text fill="#000000" font-family="sans-serif" font-size="20" lengthAdjust="spacing" textLength="143" x="3060" y="852.2051">getStaffData()</text><line style="stroke:#000000;stroke-width:1.0;" x1="4111" x2="4153" y1="896.2031" y2="896.2031"/><line style="stroke:#000000;stroke-width:1.0;" x1="4153" x2="4153" y1="896.2031" y2="909.2031"/><line style="stroke:#000000;stroke-width:1.0;" x1="4112" x2="4153" y1="909.2031" y2="909.2031"/><polygon fill="#000000" points="4122,905.2031,4112,909.2031,4122,913.2031,4118,909.2031" style="stroke:#000000;stroke-width:1.0;"/><text fill="#000000" font-family="sans-serif" font-size="20" lengthAdjust="spacing" textLength="198" x="4118" y="889.4863">Fetches Staff's data</text><polygon fill="#000000" points="3064,942.4844,3054,946.4844,3064,950.4844,3060,946.4844" style="stroke:#000000;stroke-width:1.0;"/><line style="stroke:#000000;stroke-width:1.0;stroke-dasharray:2.0,2.0;" x1="3058" x2="4105" y1="946.4844" y2="946.4844"/><text fill="#000000" font-family="sans-serif" font-size="20" lengthAdjust="spacing" textLength="305" x="3070" y="939.7676">returns Operation Status Code</text><polygon fill="#000000" points="2222.5,979.7656,2212.5,983.7656,2222.5,987.7656,2218.5,983.7656" style="stroke:#000000;stroke-width:1.0;"/><line style="stroke:#000000;stroke-width:1.0;stroke-dasharray:2.0,2.0;" x1="2216.5" x2="3047" y1="983.7656" y2="983.7656"/><text fill="#000000" font-family="sans-serif" font-size="20" lengthAdjust="spacing" textLength="305" x="2228.5" y="977.0488">returns Operation Status Code</text><polygon fill="#000000" points="1563,1017.0469,1553,1021.0469,1563,1025.0469,1559,1021.0469" style="stroke:#000000;stroke-width:1.0;"/><line style="stroke:#000000;stroke-width:1.0;" x1="1557" x2="2205.5" y1="1021.0469" y2="1021.0469"/><text fill="#000000" font-family="sans-serif" font-size="20" lengthAdjust="spacing" textLength="280" x="1569" y="1014.3301">returns Operation Response</text><line style="stroke:#000000;stroke-width:1.0;" x1="1552" x2="1594" y1="1058.3281" y2="1058.3281"/><line style="stroke:#000000;stroke-width:1.0;" x1="1594" x2="1594" y1="1058.3281" y2="1071.3281"/><line style="stroke:#000000;stroke-width:1.0;" x1="1553" x2="1594" y1="1071.3281" y2="1071.3281"/><polygon fill="#000000" points="1563,1067.3281,1553,1071.3281,1563,1075.3281,1559,1071.3281" style="stroke:#000000;stroke-width:1.0;"/><text fill="#000000" font-family="sans-serif" font-size="20" lengthAdjust="spacing" textLength="277" x="1559" y="1051.6113">filter Staff by Specialization</text><polygon fill="#000000" points="2339,1104.6094,2349,1108.6094,2339,1112.6094,2343,1108.6094" style="stroke:#000000;stroke-width:1.0;"/><line style="stroke:#000000;stroke-width:1.0;" x1="1552" x2="2345" y1="1108.6094" y2="1108.6094"/><text fill="#000000" font-family="sans-serif" font-size="20" lengthAdjust="spacing" textLength="135" x="1559" y="1101.8926">fetchRooms()</text><polygon fill="#000000" points="3031,1141.8906,3041,1145.8906,3031,1149.8906,3035,1145.8906" style="stroke:#000000;stroke-width:1.0;"/><line style="stroke:#000000;stroke-width:1.0;" x1="2361" x2="3037" y1="1145.8906" y2="1145.8906"/><text fill="#000000" font-family="sans-serif" font-size="20" lengthAdjust="spacing" textLength="397" x="2368" y="1139.1738">Makes Http Request to get Room's data</text><line style="stroke:#000000;stroke-width:1.0;" x1="3053" x2="3095" y1="1183.1719" y2="1183.1719"/><line style="stroke:#000000;stroke-width:1.0;" x1="3095" x2="3095" y1="1183.1719" y2="1196.1719"/><line style="stroke:#000000;stroke-width:1.0;" x1="3054" x2="3095" y1="1196.1719" y2="1196.1719"/><polygon fill="#000000" points="3064,1192.1719,3054,1196.1719,3064,1200.1719,3060,1196.1719" style="stroke:#000000;stroke-width:1.0;"/><text fill="#000000" font-family="sans-serif" font-size="20" lengthAdjust="spacing" textLength="563" x="3060" y="1176.4551">Intercepts the request and adds the token to the header</text><path d="M3058,1209.1719 L3058,1265.1719 L3577,1265.1719 L3577,1219.1719 L3567,1209.1719 L3058,1209.1719 " fill="#FEFFDD" style="stroke:#181818;stroke-width:0.5;"/><path d="M3567,1209.1719 L3567,1219.1719 L3577,1219.1719 L3567,1209.1719 " fill="#FEFFDD" style="stroke:#181818;stroke-width:0.5;"/><text fill="#000000" font-family="sans-serif" font-size="20" lengthAdjust="spacing" textLength="498" x="3064" y="1232.7363">The token is added to the header so that the MDV</text><text fill="#000000" font-family="sans-serif" font-size="20" lengthAdjust="spacing" textLength="442" x="3064" y="1256.0176">can authenticate and authorize the request.</text><polygon fill="#000000" points="3618,1296.0156,3628,1300.0156,3618,1304.0156,3622,1300.0156" style="stroke:#000000;stroke-width:1.0;"/><line style="stroke:#000000;stroke-width:1.0;" x1="3053" x2="3624" y1="1300.0156" y2="1300.0156"/><text fill="#000000" font-family="sans-serif" font-size="20" lengthAdjust="spacing" textLength="154" x="3060" y="1293.2988">getRoomData()</text><line style="stroke:#000000;stroke-width:1.0;" x1="3640" x2="3682" y1="1337.2969" y2="1337.2969"/><line style="stroke:#000000;stroke-width:1.0;" x1="3682" x2="3682" y1="1337.2969" y2="1350.2969"/><line style="stroke:#000000;stroke-width:1.0;" x1="3641" x2="3682" y1="1350.2969" y2="1350.2969"/><polygon fill="#000000" points="3651,1346.2969,3641,1350.2969,3651,1354.2969,3647,1350.2969" style="stroke:#000000;stroke-width:1.0;"/><text fill="#000000" font-family="sans-serif" font-size="20" lengthAdjust="spacing" textLength="209" x="3647" y="1330.5801">Fetches Room's data</text><polygon fill="#000000" points="3064,1383.5781,3054,1387.5781,3064,1391.5781,3060,1387.5781" style="stroke:#000000;stroke-width:1.0;"/><line style="stroke:#000000;stroke-width:1.0;stroke-dasharray:2.0,2.0;" x1="3058" x2="3634" y1="1387.5781" y2="1387.5781"/><text fill="#000000" font-family="sans-serif" font-size="20" lengthAdjust="spacing" textLength="305" x="3070" y="1380.8613">returns Operation Status Code</text><polygon fill="#000000" points="2372,1420.8594,2362,1424.8594,2372,1428.8594,2368,1424.8594" style="stroke:#000000;stroke-width:1.0;"/><line style="stroke:#000000;stroke-width:1.0;stroke-dasharray:2.0,2.0;" x1="2366" x2="3047" y1="1424.8594" y2="1424.8594"/><text fill="#000000" font-family="sans-serif" font-size="20" lengthAdjust="spacing" textLength="305" x="2378" y="1418.1426">returns Operation Status Code</text><polygon fill="#000000" points="1563,1458.1406,1553,1462.1406,1563,1466.1406,1559,1462.1406" style="stroke:#000000;stroke-width:1.0;"/><line style="stroke:#000000;stroke-width:1.0;" x1="1557" x2="2355" y1="1462.1406" y2="1462.1406"/><text fill="#000000" font-family="sans-serif" font-size="20" lengthAdjust="spacing" textLength="280" x="1569" y="1455.4238">returns Operation Response</text><polygon fill="#000000" points="2531,1495.4219,2541,1499.4219,2531,1503.4219,2535,1499.4219" style="stroke:#000000;stroke-width:1.0;"/><line style="stroke:#000000;stroke-width:1.0;" x1="1552" x2="2537" y1="1499.4219" y2="1499.4219"/><text fill="#000000" font-family="sans-serif" font-size="20" lengthAdjust="spacing" textLength="218" x="1559" y="1492.7051">fetchAppointment(id)</text><polygon fill="#000000" points="3031,1532.7031,3041,1536.7031,3031,1540.7031,3035,1536.7031" style="stroke:#000000;stroke-width:1.0;"/><line style="stroke:#000000;stroke-width:1.0;" x1="2553" x2="3037" y1="1536.7031" y2="1536.7031"/><text fill="#000000" font-family="sans-serif" font-size="20" lengthAdjust="spacing" textLength="455" x="2560" y="1529.9863">Makes Http Request to get Appointment data</text><line style="stroke:#000000;stroke-width:1.0;" x1="3053" x2="3095" y1="1573.9844" y2="1573.9844"/><line style="stroke:#000000;stroke-width:1.0;" x1="3095" x2="3095" y1="1573.9844" y2="1586.9844"/><line style="stroke:#000000;stroke-width:1.0;" x1="3054" x2="3095" y1="1586.9844" y2="1586.9844"/><polygon fill="#000000" points="3064,1582.9844,3054,1586.9844,3064,1590.9844,3060,1586.9844" style="stroke:#000000;stroke-width:1.0;"/><text fill="#000000" font-family="sans-serif" font-size="20" lengthAdjust="spacing" textLength="563" x="3060" y="1567.2676">Intercepts the request and adds the token to the header</text><path d="M3058,1599.9844 L3058,1655.9844 L3577,1655.9844 L3577,1609.9844 L3567,1599.9844 L3058,1599.9844 " fill="#FEFFDD" style="stroke:#181818;stroke-width:0.5;"/><path d="M3567,1599.9844 L3567,1609.9844 L3577,1609.9844 L3567,1599.9844 " fill="#FEFFDD" style="stroke:#181818;stroke-width:0.5;"/><text fill="#000000" font-family="sans-serif" font-size="20" lengthAdjust="spacing" textLength="498" x="3064" y="1623.5488">The token is added to the header so that the MDV</text><text fill="#000000" font-family="sans-serif" font-size="20" lengthAdjust="spacing" textLength="442" x="3064" y="1646.8301">can authenticate and authorize the request.</text><polygon fill="#000000" points="3618,1686.8281,3628,1690.8281,3618,1694.8281,3622,1690.8281" style="stroke:#000000;stroke-width:1.0;"/><line style="stroke:#000000;stroke-width:1.0;" x1="3053" x2="3624" y1="1690.8281" y2="1690.8281"/><text fill="#000000" font-family="sans-serif" font-size="20" lengthAdjust="spacing" textLength="247" x="3060" y="1684.1113">getAppointmentData(id)</text><line style="stroke:#000000;stroke-width:1.0;" x1="3640" x2="3682" y1="1728.1094" y2="1728.1094"/><line style="stroke:#000000;stroke-width:1.0;" x1="3682" x2="3682" y1="1728.1094" y2="1741.1094"/><line style="stroke:#000000;stroke-width:1.0;" x1="3641" x2="3682" y1="1741.1094" y2="1741.1094"/><polygon fill="#000000" points="3651,1737.1094,3641,1741.1094,3651,1745.1094,3647,1741.1094" style="stroke:#000000;stroke-width:1.0;"/><text fill="#000000" font-family="sans-serif" font-size="20" lengthAdjust="spacing" textLength="267" x="3647" y="1721.3926">Fetches Appointment data</text><polygon fill="#000000" points="3064,1774.3906,3054,1778.3906,3064,1782.3906,3060,1778.3906" style="stroke:#000000;stroke-width:1.0;"/><line style="stroke:#000000;stroke-width:1.0;stroke-dasharray:2.0,2.0;" x1="3058" x2="3634" y1="1778.3906" y2="1778.3906"/><text fill="#000000" font-family="sans-serif" font-size="20" lengthAdjust="spacing" textLength="305" x="3070" y="1771.6738">returns Operation Status Code</text><polygon fill="#000000" points="2564,1811.6719,2554,1815.6719,2564,1819.6719,2560,1815.6719" style="stroke:#000000;stroke-width:1.0;"/><line style="stroke:#000000;stroke-width:1.0;stroke-dasharray:2.0,2.0;" x1="2558" x2="3047" y1="1815.6719" y2="1815.6719"/><text fill="#000000" font-family="sans-serif" font-size="20" lengthAdjust="spacing" textLength="305" x="2570" y="1808.9551">returns Operation Status Code</text><polygon fill="#000000" points="1563,1848.9531,1553,1852.9531,1563,1856.9531,1559,1852.9531" style="stroke:#000000;stroke-width:1.0;"/><line style="stroke:#000000;stroke-width:1.0;stroke-dasharray:2.0,2.0;" x1="1557" x2="2547" y1="1852.9531" y2="1852.9531"/><text fill="#000000" font-family="sans-serif" font-size="20" lengthAdjust="spacing" textLength="280" x="1569" y="1846.2363">returns Operation Response</text><line style="stroke:#000000;stroke-width:1.0;" x1="1552" x2="1594" y1="1890.2344" y2="1890.2344"/><line style="stroke:#000000;stroke-width:1.0;" x1="1594" x2="1594" y1="1890.2344" y2="1903.2344"/><line style="stroke:#000000;stroke-width:1.0;" x1="1553" x2="1594" y1="1903.2344" y2="1903.2344"/><polygon fill="#000000" points="1563,1899.2344,1553,1903.2344,1563,1907.2344,1559,1903.2344" style="stroke:#000000;stroke-width:1.0;"/><text fill="#000000" font-family="sans-serif" font-size="20" lengthAdjust="spacing" textLength="311" x="1559" y="1883.5176">filter Rooms by Operation Type</text><line style="stroke:#000000;stroke-width:1.0;" x1="1552" x2="1594" y1="1940.5156" y2="1940.5156"/><line style="stroke:#000000;stroke-width:1.0;" x1="1594" x2="1594" y1="1940.5156" y2="1953.5156"/><line style="stroke:#000000;stroke-width:1.0;" x1="1553" x2="1594" y1="1953.5156" y2="1953.5156"/><polygon fill="#000000" points="1563,1949.5156,1553,1953.5156,1563,1957.5156,1559,1953.5156" style="stroke:#000000;stroke-width:1.0;"/><text fill="#000000" font-family="sans-serif" font-size="20" lengthAdjust="spacing" textLength="424" x="1559" y="1933.7988">initializes UpdateAppointmentComponent</text><polygon fill="#000000" points="715,1986.7969,705,1990.7969,715,1994.7969,711,1990.7969" style="stroke:#000000;stroke-width:1.0;"/><line style="stroke:#000000;stroke-width:1.0;stroke-dasharray:2.0,2.0;" x1="709" x2="1546" y1="1990.7969" y2="1990.7969"/><text fill="#000000" font-family="sans-serif" font-size="20" lengthAdjust="spacing" textLength="400" x="721" y="1984.0801">returns UpdateAppointmentComponent</text><polygon fill="#000000" points="57,2024.0781,47,2028.0781,57,2032.0781,53,2028.0781" style="stroke:#000000;stroke-width:1.0;"/><line style="stroke:#000000;stroke-width:1.0;stroke-dasharray:2.0,2.0;" x1="51" x2="698" y1="2028.0781" y2="2028.0781"/><text fill="#000000" font-family="sans-serif" font-size="20" lengthAdjust="spacing" textLength="624" x="63" y="2021.3613">Displays the fetched data and asks for the appointment's data</text><polygon fill="#000000" points="682,2061.3594,692,2065.3594,682,2069.3594,686,2065.3594" style="stroke:#000000;stroke-width:1.0;"/><line style="stroke:#000000;stroke-width:1.0;" x1="46" x2="688" y1="2065.3594" y2="2065.3594"/><text fill="#000000" font-family="sans-serif" font-size="20" lengthAdjust="spacing" textLength="521" x="53" y="2058.6426">Sends appointment's data (DateTime, Room, Team)</text><polygon fill="#000000" points="1530,2098.6406,1540,2102.6406,1530,2106.6406,1534,2102.6406" style="stroke:#000000;stroke-width:1.0;"/><line style="stroke:#000000;stroke-width:1.0;" x1="704" x2="1536" y1="2102.6406" y2="2102.6406"/><text fill="#000000" font-family="sans-serif" font-size="20" lengthAdjust="spacing" textLength="288" x="711" y="2095.9238">updateAppointment($event)</text><polygon fill="#000000" points="2531,2135.9219,2541,2139.9219,2531,2143.9219,2535,2139.9219" style="stroke:#000000;stroke-width:1.0;"/><line style="stroke:#000000;stroke-width:1.0;" x1="1552" x2="2537" y1="2139.9219" y2="2139.9219"/><text fill="#000000" font-family="sans-serif" font-size="20" lengthAdjust="spacing" textLength="393" x="1559" y="2133.2051">updateAppointment(newAppointment)</text><polygon fill="#000000" points="3031,2173.2031,3041,2177.2031,3031,2181.2031,3035,2177.2031" style="stroke:#000000;stroke-width:1.0;"/><line style="stroke:#000000;stroke-width:1.0;" x1="2553" x2="3037" y1="2177.2031" y2="2177.2031"/><text fill="#000000" font-family="sans-serif" font-size="20" lengthAdjust="spacing" textLength="471" x="2560" y="2170.4863">Makes Http Request to update an appointment</text><line style="stroke:#000000;stroke-width:1.0;" x1="3053" x2="3095" y1="2214.4844" y2="2214.4844"/><line style="stroke:#000000;stroke-width:1.0;" x1="3095" x2="3095" y1="2214.4844" y2="2227.4844"/><line style="stroke:#000000;stroke-width:1.0;" x1="3054" x2="3095" y1="2227.4844" y2="2227.4844"/><polygon fill="#000000" points="3064,2223.4844,3054,2227.4844,3064,2231.4844,3060,2227.4844" style="stroke:#000000;stroke-width:1.0;"/><text fill="#000000" font-family="sans-serif" font-size="20" lengthAdjust="spacing" textLength="563" x="3060" y="2207.7676">Intercepts the request and adds the token to the header</text><path d="M3058,2240.4844 L3058,2296.4844 L3577,2296.4844 L3577,2250.4844 L3567,2240.4844 L3058,2240.4844 " fill="#FEFFDD" style="stroke:#181818;stroke-width:0.5;"/><path d="M3567,2240.4844 L3567,2250.4844 L3577,2250.4844 L3567,2240.4844 " fill="#FEFFDD" style="stroke:#181818;stroke-width:0.5;"/><text fill="#000000" font-family="sans-serif" font-size="20" lengthAdjust="spacing" textLength="498" x="3064" y="2264.0488">The token is added to the header so that the MDV</text><text fill="#000000" font-family="sans-serif" font-size="20" lengthAdjust="spacing" textLength="442" x="3064" y="2287.3301">can authenticate and authorize the request.</text><polygon fill="#000000" points="3618,2327.3281,3628,2331.3281,3618,2335.3281,3622,2331.3281" style="stroke:#000000;stroke-width:1.0;"/><line style="stroke:#000000;stroke-width:1.0;" x1="3053" x2="3624" y1="2331.3281" y2="2331.3281"/><text fill="#000000" font-family="sans-serif" font-size="20" lengthAdjust="spacing" textLength="393" x="3060" y="2324.6113">updateAppointment(newAppointment)</text><line style="stroke:#000000;stroke-width:1.0;" x1="3640" x2="3682" y1="2368.6094" y2="2368.6094"/><line style="stroke:#000000;stroke-width:1.0;" x1="3682" x2="3682" y1="2368.6094" y2="2381.6094"/><line style="stroke:#000000;stroke-width:1.0;" x1="3641" x2="3682" y1="2381.6094" y2="2381.6094"/><polygon fill="#000000" points="3651,2377.6094,3641,2381.6094,3651,2385.6094,3647,2381.6094" style="stroke:#000000;stroke-width:1.0;"/><text fill="#000000" font-family="sans-serif" font-size="20" lengthAdjust="spacing" textLength="447" x="3647" y="2361.8926">Validates appointment's data and updates it</text><polygon fill="#000000" points="3064,2414.8906,3054,2418.8906,3064,2422.8906,3060,2418.8906" style="stroke:#000000;stroke-width:1.0;"/><line style="stroke:#000000;stroke-width:1.0;stroke-dasharray:2.0,2.0;" x1="3058" x2="3634" y1="2418.8906" y2="2418.8906"/><text fill="#000000" font-family="sans-serif" font-size="20" lengthAdjust="spacing" textLength="311" x="3070" y="2412.1738">Returns Operation Status Code</text><polygon fill="#000000" points="2564,2452.1719,2554,2456.1719,2564,2460.1719,2560,2456.1719" style="stroke:#000000;stroke-width:1.0;"/><line style="stroke:#000000;stroke-width:1.0;stroke-dasharray:2.0,2.0;" x1="2558" x2="3047" y1="2456.1719" y2="2456.1719"/><text fill="#000000" font-family="sans-serif" font-size="20" lengthAdjust="spacing" textLength="305" x="2570" y="2449.4551">returns Operation Status Code</text><polygon fill="#000000" points="1563,2489.4531,1553,2493.4531,1563,2497.4531,1559,2493.4531" style="stroke:#000000;stroke-width:1.0;"/><line style="stroke:#000000;stroke-width:1.0;stroke-dasharray:2.0,2.0;" x1="1557" x2="2547" y1="2493.4531" y2="2493.4531"/><text fill="#000000" font-family="sans-serif" font-size="20" lengthAdjust="spacing" textLength="280" x="1569" y="2486.7363">returns Operation Response</text><polygon fill="#000000" points="715,2526.7344,705,2530.7344,715,2534.7344,711,2530.7344" style="stroke:#000000;stroke-width:1.0;"/><line style="stroke:#000000;stroke-width:1.0;stroke-dasharray:2.0,2.0;" x1="709" x2="1546" y1="2530.7344" y2="2530.7344"/><text fill="#000000" font-family="sans-serif" font-size="20" lengthAdjust="spacing" textLength="374" x="721" y="2524.0176">returns Operation In/Sucess message</text><polygon fill="#000000" points="57,2564.0156,47,2568.0156,57,2572.0156,53,2568.0156" style="stroke:#000000;stroke-width:1.0;"/><line style="stroke:#000000;stroke-width:1.0;stroke-dasharray:2.0,2.0;" x1="51" x2="698" y1="2568.0156" y2="2568.0156"/><text fill="#000000" font-family="sans-serif" font-size="20" lengthAdjust="spacing" textLength="374" x="63" y="2561.2988">returns Operation In/Sucess message</text><!--SRC=[tLTjQ-D64FwkNp5S2d7WhhbUwPkv1kGtQhWGi69_tqXZUsjfLzMk4dAb_xqpAyjUoSfXaIz70ehHxZoZcMUU6QtCJgfS529BTRp3119SYpArCwri9ByYVFeO15RQ5E4BFc8AFyDi2XCfDWG9WgrC433BxJDac3rWOO9BKtk4BrAXVSuHT66tEWYEEt4gZ85_0w2_aOXtcqANAXdhL1UVFp-AjCIxXxynjZStS37vTHhEVkysBRHsDhF9T3Jvs6rZi7YKCJfNFyq-JKTTPd2ndC_-cFxcziAYq4_LyYWbk-0_F_QSLiG6kwE7Y-bezijin10HMrgOQFSZ38G1ER0obhbG5bOIdtXrEMyilmlpN4kReRBcLYXwK37MMQuLBRnpNcx7JS0oJuH51rCErxHVXYtxknmBOQLM2_odH6EZYXzdVBU8ciQH5UkrRn6r31PQP_v-su4NbsyMjirAkvqhYqMCET5LsJIPkPsiU9L-MikBQddX69UFH0PH7SA76-9s2A7P6R0QIaSJ20NY61AikJGATCq951KfHrTKd-MSdH7nGw1AKv0axDsVbzULom-Ul-kXJ2wzCAXMTBbGmXhjeXaN-4BHWWGR-6CWL4Yws1cLQGXhjF6sNSo1JAwE42udNIvwek9MxEZfVrcRmzwSGzcWXOERUiFBOHw4yzh3eKIKn1PhieZ114IIL8jMxr2nOxxPeaYm29GcJuNSR2teDRlarha_64l3S9e-3HGOlXFMBN5z6HHp0Kain9ICgu8cRa4NFAwyg7uCaBRuoVi4oCMGi_qsP_mWrbGDc37DHDifHSvgJqo1jYoKRqMTOqi3OvsWNr9sp-7KLJmRIAJjIrb9wGItG4CACWqG2s2lcQYMZ6lfWPSnjNHqXaOSxj80QLwyPNcuF2UKvE0CLJH8UQqWefvwYFhA8JgemO7MCgLwLJd0mpD4ESPIfFAhyr2R7cODZthZaqBYEcUuCExxrStgzRfPETrmcgUoMGNytghDQjdubBZz_gfPrQhfEqLw3v7Z30bhANWlhkRqfFTwU8OaFFoRruMNgvD7wstJBP0JWbwhah2dIhYA_MGITWuNDpHuk1p1z_H9q32LIbetToZnbq-p5MH_ggj3-eQv5vexEkrv6DBNYybJyLp9nycPltk8vAguV5xaOo7lUaUxkbrzj_FZCJEYwfiEUnXGqV5UPlZUSV4Uxb5aLntdIqT5sSvdy0DzTYbxrNaEvAAU8XG-URVzchFpbFnckxC7T-r6NP5U6TnPSmwZycr0saRlBhxhtcrrrn4qLzTH6IDzj6VqZxvANswllk1vy3y0]--></g></svg>