<?xml version="1.0" encoding="UTF-8" standalone="no"?><svg xmlns="http://www.w3.org/2000/svg" xmlns:xlink="http://www.w3.org/1999/xlink" contentStyleType="text/css" height="1063px" preserveAspectRatio="none" style="width:3686px;height:1063px;background:#FFFFFF;" version="1.1" viewBox="0 0 3686 1063" width="3686px" zoomAndPan="magnify"><defs/><g><text fill="#000000" font-family="sans-serif" font-size="14" font-weight="bold" lengthAdjust="spacing" textLength="165" x="1759.5" y="27.9951">Level 3 MDR Diagram</text><rect fill="#FFFFFF" height="912.75" style="stroke:#181818;stroke-width:1.0;" width="10" x="19.5" y="90.5781"/><rect fill="#FFFFFF" height="423.0938" style="stroke:#181818;stroke-width:1.0;" width="10" x="508.5" y="119.8594"/><rect fill="#FFFFFF" height="348.5313" style="stroke:#181818;stroke-width:1.0;" width="10" x="845.5" y="157.1406"/><rect fill="#FFFFFF" height="111.8438" style="stroke:#181818;stroke-width:1.0;" width="10" x="1141" y="194.4219"/><rect fill="#FFFFFF" height="124.8438" style="stroke:#181818;stroke-width:1.0;" width="10" x="1437.5" y="343.5469"/><rect fill="#FFFFFF" height="43.2813" style="stroke:#181818;stroke-width:1.0;" width="10" x="1993.5" y="380.8281"/><rect fill="#FFFFFF" height="423.0938" style="stroke:#181818;stroke-width:1.0;" width="10" x="2668.5" y="580.2344"/><rect fill="#FFFFFF" height="348.5313" style="stroke:#181818;stroke-width:1.0;" width="10" x="2870.5" y="617.5156"/><rect fill="#FFFFFF" height="111.8438" style="stroke:#181818;stroke-width:1.0;" width="10" x="3039.5" y="654.7969"/><rect fill="#FFFFFF" height="124.8438" style="stroke:#181818;stroke-width:1.0;" width="10" x="3201" y="803.9219"/><rect fill="#FFFFFF" height="43.2813" style="stroke:#181818;stroke-width:1.0;" width="10" x="3491" y="841.2031"/><rect fill="#FFFFFF" height="37.2813" style="stroke:#181818;stroke-width:1.0;" width="10" x="3621" y="231.7031"/><rect fill="#FFFFFF" height="37.2813" style="stroke:#181818;stroke-width:1.0;" width="10" x="3621" y="692.0781"/><line style="stroke:#181818;stroke-width:0.5;stroke-dasharray:5.0,5.0;" x1="24" x2="24" y1="80.5781" y2="1021.3281"/><line style="stroke:#181818;stroke-width:0.5;stroke-dasharray:5.0,5.0;" x1="84" x2="84" y1="80.5781" y2="1021.3281"/><line style="stroke:#181818;stroke-width:0.5;stroke-dasharray:5.0,5.0;" x1="513" x2="513" y1="80.5781" y2="1021.3281"/><line style="stroke:#181818;stroke-width:0.5;stroke-dasharray:5.0,5.0;" x1="850" x2="850" y1="80.5781" y2="1021.3281"/><line style="stroke:#181818;stroke-width:0.5;stroke-dasharray:5.0,5.0;" x1="1146" x2="1146" y1="80.5781" y2="1021.3281"/><line style="stroke:#181818;stroke-width:0.5;stroke-dasharray:5.0,5.0;" x1="1442" x2="1442" y1="80.5781" y2="1021.3281"/><line style="stroke:#181818;stroke-width:0.5;stroke-dasharray:5.0,5.0;" x1="1998" x2="1998" y1="80.5781" y2="1021.3281"/><line style="stroke:#181818;stroke-width:0.5;stroke-dasharray:5.0,5.0;" x1="2259.5" x2="2259.5" y1="80.5781" y2="1021.3281"/><line style="stroke:#181818;stroke-width:0.5;stroke-dasharray:5.0,5.0;" x1="2445.5" x2="2445.5" y1="80.5781" y2="1021.3281"/><line style="stroke:#181818;stroke-width:0.5;stroke-dasharray:5.0,5.0;" x1="2558.5" x2="2558.5" y1="80.5781" y2="1021.3281"/><line style="stroke:#181818;stroke-width:0.5;stroke-dasharray:5.0,5.0;" x1="2673.5" x2="2673.5" y1="80.5781" y2="1021.3281"/><line style="stroke:#181818;stroke-width:0.5;stroke-dasharray:5.0,5.0;" x1="2875.5" x2="2875.5" y1="80.5781" y2="1021.3281"/><line style="stroke:#181818;stroke-width:0.5;stroke-dasharray:5.0,5.0;" x1="3044" x2="3044" y1="80.5781" y2="1021.3281"/><line style="stroke:#181818;stroke-width:0.5;stroke-dasharray:5.0,5.0;" x1="3206" x2="3206" y1="80.5781" y2="1021.3281"/><line style="stroke:#181818;stroke-width:0.5;stroke-dasharray:5.0,5.0;" x1="3496" x2="3496" y1="80.5781" y2="1021.3281"/><line style="stroke:#181818;stroke-width:0.5;stroke-dasharray:5.0,5.0;" x1="3626" x2="3626" y1="80.5781" y2="1021.3281"/><rect fill="#E2E2F0" height="37.2813" rx="2.5" ry="2.5" style="stroke:#181818;stroke-width:0.5;" width="39" x="5" y="42.2969"/><text fill="#000000" font-family="sans-serif" font-size="20" lengthAdjust="spacing" textLength="25" x="12" y="67.8613">FE</text><rect fill="#E2E2F0" height="37.2813" rx="2.5" ry="2.5" style="stroke:#181818;stroke-width:0.5;" width="39" x="5" y="1020.3281"/><text fill="#000000" font-family="sans-serif" font-size="20" lengthAdjust="spacing" textLength="25" x="12" y="1045.8926">FE</text><rect fill="#E2E2F0" height="37.2813" rx="2.5" ry="2.5" style="stroke:#181818;stroke-width:0.5;" width="60" x="54" y="42.2969"/><text fill="#000000" font-family="sans-serif" font-size="20" lengthAdjust="spacing" textLength="46" x="61" y="67.8613">MDV</text><rect fill="#E2E2F0" height="37.2813" rx="2.5" ry="2.5" style="stroke:#181818;stroke-width:0.5;" width="60" x="54" y="1020.3281"/><text fill="#000000" font-family="sans-serif" font-size="20" lengthAdjust="spacing" textLength="46" x="61" y="1045.8926">MDV</text><rect fill="#E2E2F0" height="37.2813" rx="2.5" ry="2.5" style="stroke:#181818;stroke-width:0.5;" width="295" x="366" y="42.2969"/><text fill="#000000" font-family="sans-serif" font-size="20" lengthAdjust="spacing" textLength="281" x="373" y="67.8613">OperationRequestController</text><rect fill="#E2E2F0" height="37.2813" rx="2.5" ry="2.5" style="stroke:#181818;stroke-width:0.5;" width="295" x="366" y="1020.3281"/><text fill="#000000" font-family="sans-serif" font-size="20" lengthAdjust="spacing" textLength="281" x="373" y="1045.8926">OperationRequestController</text><rect fill="#E2E2F0" height="37.2813" rx="2.5" ry="2.5" style="stroke:#181818;stroke-width:0.5;" width="269" x="716" y="42.2969"/><text fill="#000000" font-family="sans-serif" font-size="20" lengthAdjust="spacing" textLength="255" x="723" y="67.8613">OperationRequestService</text><rect fill="#E2E2F0" height="37.2813" rx="2.5" ry="2.5" style="stroke:#181818;stroke-width:0.5;" width="269" x="716" y="1020.3281"/><text fill="#000000" font-family="sans-serif" font-size="20" lengthAdjust="spacing" textLength="255" x="723" y="1045.8926">OperationRequestService</text><rect fill="#E2E2F0" height="37.2813" rx="2.5" ry="2.5" style="stroke:#181818;stroke-width:0.5;" width="302" x="995" y="42.2969"/><text fill="#000000" font-family="sans-serif" font-size="20" lengthAdjust="spacing" textLength="288" x="1002" y="67.8613">OperationRequestRepository</text><rect fill="#E2E2F0" height="37.2813" rx="2.5" ry="2.5" style="stroke:#181818;stroke-width:0.5;" width="302" x="995" y="1020.3281"/><text fill="#000000" font-family="sans-serif" font-size="20" lengthAdjust="spacing" textLength="288" x="1002" y="1045.8926">OperationRequestRepository</text><rect fill="#E2E2F0" height="37.2813" rx="2.5" ry="2.5" style="stroke:#181818;stroke-width:0.5;" width="271" x="1307" y="42.2969"/><text fill="#000000" font-family="sans-serif" font-size="20" lengthAdjust="spacing" textLength="257" x="1314" y="67.8613">OperationRequestMapper</text><rect fill="#E2E2F0" height="37.2813" rx="2.5" ry="2.5" style="stroke:#181818;stroke-width:0.5;" width="271" x="1307" y="1020.3281"/><text fill="#000000" font-family="sans-serif" font-size="20" lengthAdjust="spacing" textLength="257" x="1314" y="1045.8926">OperationRequestMapper</text><rect fill="#E2E2F0" height="37.2813" rx="2.5" ry="2.5" style="stroke:#181818;stroke-width:0.5;" width="239" x="1879" y="42.2969"/><text fill="#000000" font-family="sans-serif" font-size="20" lengthAdjust="spacing" textLength="225" x="1886" y="67.8613">OperationRequestDTO</text><rect fill="#E2E2F0" height="37.2813" rx="2.5" ry="2.5" style="stroke:#181818;stroke-width:0.5;" width="239" x="1879" y="1020.3281"/><text fill="#000000" font-family="sans-serif" font-size="20" lengthAdjust="spacing" textLength="225" x="1886" y="1045.8926">OperationRequestDTO</text><rect fill="#E2E2F0" height="37.2813" rx="2.5" ry="2.5" style="stroke:#181818;stroke-width:0.5;" width="196" x="2161.5" y="42.2969"/><text fill="#000000" font-family="sans-serif" font-size="20" lengthAdjust="spacing" textLength="182" x="2168.5" y="67.8613">OperationRequest</text><rect fill="#E2E2F0" height="37.2813" rx="2.5" ry="2.5" style="stroke:#181818;stroke-width:0.5;" width="196" x="2161.5" y="1020.3281"/><text fill="#000000" font-family="sans-serif" font-size="20" lengthAdjust="spacing" textLength="182" x="2168.5" y="1045.8926">OperationRequest</text><rect fill="#E2E2F0" height="37.2813" rx="2.5" ry="2.5" style="stroke:#181818;stroke-width:0.5;" width="156" x="2367.5" y="42.2969"/><text fill="#000000" font-family="sans-serif" font-size="20" lengthAdjust="spacing" textLength="142" x="2374.5" y="67.8613">LogRepository</text><rect fill="#E2E2F0" height="37.2813" rx="2.5" ry="2.5" style="stroke:#181818;stroke-width:0.5;" width="156" x="2367.5" y="1020.3281"/><text fill="#000000" font-family="sans-serif" font-size="20" lengthAdjust="spacing" textLength="142" x="2374.5" y="1045.8926">LogRepository</text><rect fill="#E2E2F0" height="37.2813" rx="2.5" ry="2.5" style="stroke:#181818;stroke-width:0.5;" width="50" x="2533.5" y="42.2969"/><text fill="#000000" font-family="sans-serif" font-size="20" lengthAdjust="spacing" textLength="36" x="2540.5" y="67.8613">Log</text><rect fill="#E2E2F0" height="37.2813" rx="2.5" ry="2.5" style="stroke:#181818;stroke-width:0.5;" width="50" x="2533.5" y="1020.3281"/><text fill="#000000" font-family="sans-serif" font-size="20" lengthAdjust="spacing" textLength="36" x="2540.5" y="1045.8926">Log</text><rect fill="#E2E2F0" height="37.2813" rx="2.5" ry="2.5" style="stroke:#181818;stroke-width:0.5;" width="160" x="2593.5" y="42.2969"/><text fill="#000000" font-family="sans-serif" font-size="20" lengthAdjust="spacing" textLength="146" x="2600.5" y="67.8613">StaffController</text><rect fill="#E2E2F0" height="37.2813" rx="2.5" ry="2.5" style="stroke:#181818;stroke-width:0.5;" width="160" x="2593.5" y="1020.3281"/><text fill="#000000" font-family="sans-serif" font-size="20" lengthAdjust="spacing" textLength="146" x="2600.5" y="1045.8926">StaffController</text><rect fill="#E2E2F0" height="37.2813" rx="2.5" ry="2.5" style="stroke:#181818;stroke-width:0.5;" width="134" x="2808.5" y="42.2969"/><text fill="#000000" font-family="sans-serif" font-size="20" lengthAdjust="spacing" textLength="120" x="2815.5" y="67.8613">StaffService</text><rect fill="#E2E2F0" height="37.2813" rx="2.5" ry="2.5" style="stroke:#181818;stroke-width:0.5;" width="134" x="2808.5" y="1020.3281"/><text fill="#000000" font-family="sans-serif" font-size="20" lengthAdjust="spacing" textLength="120" x="2815.5" y="1045.8926">StaffService</text><rect fill="#E2E2F0" height="37.2813" rx="2.5" ry="2.5" style="stroke:#181818;stroke-width:0.5;" width="167" x="2961" y="42.2969"/><text fill="#000000" font-family="sans-serif" font-size="20" lengthAdjust="spacing" textLength="153" x="2968" y="67.8613">StaffRepository</text><rect fill="#E2E2F0" height="37.2813" rx="2.5" ry="2.5" style="stroke:#181818;stroke-width:0.5;" width="167" x="2961" y="1020.3281"/><text fill="#000000" font-family="sans-serif" font-size="20" lengthAdjust="spacing" textLength="153" x="2968" y="1045.8926">StaffRepository</text><rect fill="#E2E2F0" height="37.2813" rx="2.5" ry="2.5" style="stroke:#181818;stroke-width:0.5;" width="136" x="3138" y="42.2969"/><text fill="#000000" font-family="sans-serif" font-size="20" lengthAdjust="spacing" textLength="122" x="3145" y="67.8613">StaffMapper</text><rect fill="#E2E2F0" height="37.2813" rx="2.5" ry="2.5" style="stroke:#181818;stroke-width:0.5;" width="136" x="3138" y="1020.3281"/><text fill="#000000" font-family="sans-serif" font-size="20" lengthAdjust="spacing" textLength="122" x="3145" y="1045.8926">StaffMapper</text><rect fill="#E2E2F0" height="37.2813" rx="2.5" ry="2.5" style="stroke:#181818;stroke-width:0.5;" width="104" x="3444" y="42.2969"/><text fill="#000000" font-family="sans-serif" font-size="20" lengthAdjust="spacing" textLength="90" x="3451" y="67.8613">StaffDTO</text><rect fill="#E2E2F0" height="37.2813" rx="2.5" ry="2.5" style="stroke:#181818;stroke-width:0.5;" width="104" x="3444" y="1020.3281"/><text fill="#000000" font-family="sans-serif" font-size="20" lengthAdjust="spacing" textLength="90" x="3451" y="1045.8926">StaffDTO</text><rect fill="#E2E2F0" height="37.2813" rx="2.5" ry="2.5" style="stroke:#181818;stroke-width:0.5;" width="108" x="3572" y="42.2969"/><text fill="#000000" font-family="sans-serif" font-size="20" lengthAdjust="spacing" textLength="94" x="3579" y="67.8613">Database</text><rect fill="#E2E2F0" height="37.2813" rx="2.5" ry="2.5" style="stroke:#181818;stroke-width:0.5;" width="108" x="3572" y="1020.3281"/><text fill="#000000" font-family="sans-serif" font-size="20" lengthAdjust="spacing" textLength="94" x="3579" y="1045.8926">Database</text><rect fill="#FFFFFF" height="912.75" style="stroke:#181818;stroke-width:1.0;" width="10" x="19.5" y="90.5781"/><rect fill="#FFFFFF" height="423.0938" style="stroke:#181818;stroke-width:1.0;" width="10" x="508.5" y="119.8594"/><rect fill="#FFFFFF" height="348.5313" style="stroke:#181818;stroke-width:1.0;" width="10" x="845.5" y="157.1406"/><rect fill="#FFFFFF" height="111.8438" style="stroke:#181818;stroke-width:1.0;" width="10" x="1141" y="194.4219"/><rect fill="#FFFFFF" height="124.8438" style="stroke:#181818;stroke-width:1.0;" width="10" x="1437.5" y="343.5469"/><rect fill="#FFFFFF" height="43.2813" style="stroke:#181818;stroke-width:1.0;" width="10" x="1993.5" y="380.8281"/><rect fill="#FFFFFF" height="423.0938" style="stroke:#181818;stroke-width:1.0;" width="10" x="2668.5" y="580.2344"/><rect fill="#FFFFFF" height="348.5313" style="stroke:#181818;stroke-width:1.0;" width="10" x="2870.5" y="617.5156"/><rect fill="#FFFFFF" height="111.8438" style="stroke:#181818;stroke-width:1.0;" width="10" x="3039.5" y="654.7969"/><rect fill="#FFFFFF" height="124.8438" style="stroke:#181818;stroke-width:1.0;" width="10" x="3201" y="803.9219"/><rect fill="#FFFFFF" height="43.2813" style="stroke:#181818;stroke-width:1.0;" width="10" x="3491" y="841.2031"/><rect fill="#FFFFFF" height="37.2813" style="stroke:#181818;stroke-width:1.0;" width="10" x="3621" y="231.7031"/><rect fill="#FFFFFF" height="37.2813" style="stroke:#181818;stroke-width:1.0;" width="10" x="3621" y="692.0781"/><polygon fill="#000000" points="496.5,115.8594,506.5,119.8594,496.5,123.8594,500.5,119.8594" style="stroke:#000000;stroke-width:1.0;"/><line style="stroke:#000000;stroke-width:1.0;" x1="29.5" x2="502.5" y1="119.8594" y2="119.8594"/><text fill="#000000" font-family="sans-serif" font-size="20" lengthAdjust="spacing" textLength="460" x="36.5" y="113.1426">Makes Http Request to get Operation Request</text><polygon fill="#000000" points="833.5,153.1406,843.5,157.1406,833.5,161.1406,837.5,157.1406" style="stroke:#000000;stroke-width:1.0;"/><line style="stroke:#000000;stroke-width:1.0;" x1="518.5" x2="839.5" y1="157.1406" y2="157.1406"/><text fill="#000000" font-family="sans-serif" font-size="20" lengthAdjust="spacing" textLength="250" x="525.5" y="150.4238">getOperationRequest(id)</text><polygon fill="#000000" points="1129,190.4219,1139,194.4219,1129,198.4219,1133,194.4219" style="stroke:#000000;stroke-width:1.0;"/><line style="stroke:#000000;stroke-width:1.0;" x1="855.5" x2="1135" y1="194.4219" y2="194.4219"/><text fill="#000000" font-family="sans-serif" font-size="20" lengthAdjust="spacing" textLength="118" x="862.5" y="187.7051">findById(id)</text><polygon fill="#000000" points="3609,227.7031,3619,231.7031,3609,235.7031,3613,231.7031" style="stroke:#000000;stroke-width:1.0;"/><line style="stroke:#000000;stroke-width:1.0;" x1="1151" x2="3615" y1="231.7031" y2="231.7031"/><text fill="#000000" font-family="sans-serif" font-size="20" lengthAdjust="spacing" textLength="499" x="1158" y="224.9863">SELECT * FROM OperationRequest WHERE id = id</text><polygon fill="#000000" points="1162,264.9844,1152,268.9844,1162,272.9844,1158,268.9844" style="stroke:#000000;stroke-width:1.0;"/><line style="stroke:#000000;stroke-width:1.0;stroke-dasharray:2.0,2.0;" x1="1156" x2="3625" y1="268.9844" y2="268.9844"/><text fill="#000000" font-family="sans-serif" font-size="20" lengthAdjust="spacing" textLength="260" x="1168" y="262.2676">returns OperationRequest</text><polygon fill="#000000" points="866.5,302.2656,856.5,306.2656,866.5,310.2656,862.5,306.2656" style="stroke:#000000;stroke-width:1.0;"/><line style="stroke:#000000;stroke-width:1.0;stroke-dasharray:2.0,2.0;" x1="860.5" x2="1145" y1="306.2656" y2="306.2656"/><text fill="#000000" font-family="sans-serif" font-size="20" lengthAdjust="spacing" textLength="260" x="872.5" y="299.5488">returns OperationRequest</text><polygon fill="#000000" points="1425.5,339.5469,1435.5,343.5469,1425.5,347.5469,1429.5,343.5469" style="stroke:#000000;stroke-width:1.0;"/><line style="stroke:#000000;stroke-width:1.0;" x1="855.5" x2="1431.5" y1="343.5469" y2="343.5469"/><text fill="#000000" font-family="sans-serif" font-size="20" lengthAdjust="spacing" textLength="253" x="862.5" y="336.8301">toDto(OperationRequest)</text><polygon fill="#000000" points="1981.5,376.8281,1991.5,380.8281,1981.5,384.8281,1985.5,380.8281" style="stroke:#000000;stroke-width:1.0;"/><line style="stroke:#000000;stroke-width:1.0;" x1="1447.5" x2="1987.5" y1="380.8281" y2="380.8281"/><text fill="#000000" font-family="sans-serif" font-size="20" lengthAdjust="spacing" textLength="527" x="1454.5" y="374.1113">new OperationRequestDTO(operationRequest fields)</text><line style="stroke:#000000;stroke-width:1.0;stroke-dasharray:2.0,2.0;" x1="2003.5" x2="2045.5" y1="423.1094" y2="423.1094"/><line style="stroke:#000000;stroke-width:1.0;stroke-dasharray:2.0,2.0;" x1="2045.5" x2="2045.5" y1="423.1094" y2="436.1094"/><line style="stroke:#000000;stroke-width:1.0;stroke-dasharray:2.0,2.0;" x1="1998.5" x2="2045.5" y1="436.1094" y2="436.1094"/><polygon fill="#000000" points="2008.5,432.1094,1998.5,436.1094,2008.5,440.1094,2004.5,436.1094" style="stroke:#000000;stroke-width:1.0;"/><text fill="#000000" font-family="sans-serif" font-size="20" lengthAdjust="spacing" textLength="237" x="2010.5" y="416.3926">operationRequestDTO()</text><polygon fill="#000000" points="866.5,464.3906,856.5,468.3906,866.5,472.3906,862.5,468.3906" style="stroke:#000000;stroke-width:1.0;"/><line style="stroke:#000000;stroke-width:1.0;stroke-dasharray:2.0,2.0;" x1="860.5" x2="1441.5" y1="468.3906" y2="468.3906"/><text fill="#000000" font-family="sans-serif" font-size="20" lengthAdjust="spacing" textLength="303" x="872.5" y="461.6738">returns OperationRequestDTO</text><polygon fill="#000000" points="529.5,501.6719,519.5,505.6719,529.5,509.6719,525.5,505.6719" style="stroke:#000000;stroke-width:1.0;"/><line style="stroke:#000000;stroke-width:1.0;stroke-dasharray:2.0,2.0;" x1="523.5" x2="849.5" y1="505.6719" y2="505.6719"/><text fill="#000000" font-family="sans-serif" font-size="20" lengthAdjust="spacing" textLength="303" x="535.5" y="498.9551">returns OperationRequestDTO</text><polygon fill="#000000" points="40.5,538.9531,30.5,542.9531,40.5,546.9531,36.5,542.9531" style="stroke:#000000;stroke-width:1.0;"/><line style="stroke:#000000;stroke-width:1.0;stroke-dasharray:2.0,2.0;" x1="34.5" x2="512.5" y1="542.9531" y2="542.9531"/><text fill="#000000" font-family="sans-serif" font-size="20" lengthAdjust="spacing" textLength="305" x="46.5" y="536.2363">returns Operation Status Code</text><polygon fill="#000000" points="2656.5,576.2344,2666.5,580.2344,2656.5,584.2344,2660.5,580.2344" style="stroke:#000000;stroke-width:1.0;"/><line style="stroke:#000000;stroke-width:1.0;" x1="29.5" x2="2662.5" y1="580.2344" y2="580.2344"/><text fill="#000000" font-family="sans-serif" font-size="20" lengthAdjust="spacing" textLength="386" x="36.5" y="573.5176">Makes Http Request to get Staff's data</text><polygon fill="#000000" points="2858.5,613.5156,2868.5,617.5156,2858.5,621.5156,2862.5,617.5156" style="stroke:#000000;stroke-width:1.0;"/><line style="stroke:#000000;stroke-width:1.0;" x1="2678.5" x2="2864.5" y1="617.5156" y2="617.5156"/><text fill="#000000" font-family="sans-serif" font-size="20" lengthAdjust="spacing" textLength="96" x="2685.5" y="610.7988">getStaff()</text><polygon fill="#000000" points="3027.5,650.7969,3037.5,654.7969,3027.5,658.7969,3031.5,654.7969" style="stroke:#000000;stroke-width:1.0;"/><line style="stroke:#000000;stroke-width:1.0;" x1="2880.5" x2="3033.5" y1="654.7969" y2="654.7969"/><text fill="#000000" font-family="sans-serif" font-size="20" lengthAdjust="spacing" textLength="81" x="2887.5" y="648.0801">findAll()</text><polygon fill="#000000" points="3609,688.0781,3619,692.0781,3609,696.0781,3613,692.0781" style="stroke:#000000;stroke-width:1.0;"/><line style="stroke:#000000;stroke-width:1.0;" x1="3049.5" x2="3615" y1="692.0781" y2="692.0781"/><text fill="#000000" font-family="sans-serif" font-size="20" lengthAdjust="spacing" textLength="210" x="3056.5" y="685.3613">SELECT * FROM Staff</text><polygon fill="#000000" points="3060.5,725.3594,3050.5,729.3594,3060.5,733.3594,3056.5,729.3594" style="stroke:#000000;stroke-width:1.0;"/><line style="stroke:#000000;stroke-width:1.0;stroke-dasharray:2.0,2.0;" x1="3054.5" x2="3625" y1="729.3594" y2="729.3594"/><text fill="#000000" font-family="sans-serif" font-size="20" lengthAdjust="spacing" textLength="135" x="3066.5" y="722.6426">returns Staffs</text><polygon fill="#000000" points="2891.5,762.6406,2881.5,766.6406,2891.5,770.6406,2887.5,766.6406" style="stroke:#000000;stroke-width:1.0;"/><line style="stroke:#000000;stroke-width:1.0;stroke-dasharray:2.0,2.0;" x1="2885.5" x2="3043.5" y1="766.6406" y2="766.6406"/><text fill="#000000" font-family="sans-serif" font-size="20" lengthAdjust="spacing" textLength="135" x="2897.5" y="759.9238">returns Staffs</text><polygon fill="#000000" points="3189,799.9219,3199,803.9219,3189,807.9219,3193,803.9219" style="stroke:#000000;stroke-width:1.0;"/><line style="stroke:#000000;stroke-width:1.0;" x1="2880.5" x2="3195" y1="803.9219" y2="803.9219"/><text fill="#000000" font-family="sans-serif" font-size="20" lengthAdjust="spacing" textLength="118" x="2887.5" y="797.2051">toDto(Staff)</text><polygon fill="#000000" points="3479,837.2031,3489,841.2031,3479,845.2031,3483,841.2031" style="stroke:#000000;stroke-width:1.0;"/><line style="stroke:#000000;stroke-width:1.0;" x1="3211" x2="3485" y1="841.2031" y2="841.2031"/><text fill="#000000" font-family="sans-serif" font-size="20" lengthAdjust="spacing" textLength="261" x="3218" y="834.4863">new StaffDTO(Staff fields)</text><line style="stroke:#000000;stroke-width:1.0;stroke-dasharray:2.0,2.0;" x1="3501" x2="3543" y1="883.4844" y2="883.4844"/><line style="stroke:#000000;stroke-width:1.0;stroke-dasharray:2.0,2.0;" x1="3543" x2="3543" y1="883.4844" y2="896.4844"/><line style="stroke:#000000;stroke-width:1.0;stroke-dasharray:2.0,2.0;" x1="3496" x2="3543" y1="896.4844" y2="896.4844"/><polygon fill="#000000" points="3506,892.4844,3496,896.4844,3506,900.4844,3502,896.4844" style="stroke:#000000;stroke-width:1.0;"/><text fill="#000000" font-family="sans-serif" font-size="20" lengthAdjust="spacing" textLength="106" x="3508" y="876.7676">StaffDTO()</text><polygon fill="#000000" points="2891.5,924.7656,2881.5,928.7656,2891.5,932.7656,2887.5,928.7656" style="stroke:#000000;stroke-width:1.0;"/><line style="stroke:#000000;stroke-width:1.0;stroke-dasharray:2.0,2.0;" x1="2885.5" x2="3205" y1="928.7656" y2="928.7656"/><text fill="#000000" font-family="sans-serif" font-size="20" lengthAdjust="spacing" textLength="168" x="2897.5" y="922.0488">returns StaffDTO</text><polygon fill="#000000" points="2689.5,962.0469,2679.5,966.0469,2689.5,970.0469,2685.5,966.0469" style="stroke:#000000;stroke-width:1.0;"/><line style="stroke:#000000;stroke-width:1.0;stroke-dasharray:2.0,2.0;" x1="2683.5" x2="2874.5" y1="966.0469" y2="966.0469"/><text fill="#000000" font-family="sans-serif" font-size="20" lengthAdjust="spacing" textLength="168" x="2695.5" y="959.3301">returns StaffDTO</text><polygon fill="#000000" points="35.5,999.3281,25.5,1003.3281,35.5,1007.3281,31.5,1003.3281" style="stroke:#000000;stroke-width:1.0;"/><line style="stroke:#000000;stroke-width:1.0;stroke-dasharray:2.0,2.0;" x1="29.5" x2="2672.5" y1="1003.3281" y2="1003.3281"/><text fill="#000000" font-family="sans-serif" font-size="20" lengthAdjust="spacing" textLength="305" x="41.5" y="996.6113">returns Operation Status Code</text><!--SRC=[bPHTJzim58Rl_IkEu88o2OanxQjYI2HE15AZIZ7RharoMhocSMQxHTsq_px7JcWIii8gjLNjvpsVRwfNegouukj2PYlC8SS5tnGcbgLXuXV2nJaXHfW2OOPRBE0T93G5AlZIQWXv43a2hYkpWpMkxr5fSgBRa30J9PfTXI2LUP24x6-oWciDlmdOLy2prLB9JPc7if3gydBBYmtExtzWPgwku9X-YAxZJ-Eeaj8nCOq2UZxEQ5HRaQ4BzJQ-Y88n38w_tiQVeu_kxbef-UYFWy9ov4-tzigUy2MELm_7KH2_ZuDQOd4ZCb7nqa0S0TVsitUOq6_rgVtg7H_DArJS25cc-7E3seHs6qeM1QgZcf-duM6U-OuRc1s6Kwoa5aQgNSEdX_c4LrLJI7AOf7Vp9YGz37ggpypaSb3PB7r6-FF-CJDyiHXCZ8KZJ7TAZ8q0W_mi7M4wqs39o7qx0pOO0UM6ttFjizE049uPiUK6QuzOivnTrMkUGi9NgE76c0gQOO6Hi4G3JqDiB_OXQeFOjm_2fZK-7Fb4vATT0RC2vWNf51QYp8FTRJwaKakbDKM3AR1e5eLty0RYT9x0C05yludI24GEN-p7FeZjbGPmrcPIQ3QgrC_a9CUknALjstcDnjVgEagcTcJKoCcGxxIMaCGtJwTGuYECM7aYXnqk11QvxWs8sgIqgTI6aYDXJljbqZhpIvrPNLUL-DPQZxnIvPSSEbqSZSZ0EjPiD8GonxumR2p93ZhI6Vv4GswzlH-AVVQOioBpJdJKf3Cr- -mnjoZMEE-wA7htAM7_C9sBDUOjrh6MW_J0KCpxYR53N9tPL_Ra8GTrYqi8SzPXZNFQfzwJpprY_mYOTqYjUA9xhgYPPBo-mKxhzDu9B7o1P6uD_xjxkxtEB_lVz1S0]--></g></svg>