<?xml version="1.0" encoding="UTF-8" standalone="no"?><svg xmlns="http://www.w3.org/2000/svg" xmlns:xlink="http://www.w3.org/1999/xlink" contentStyleType="text/css" height="2272px" preserveAspectRatio="none" style="width:3362px;height:2272px;background:#FFFFFF;" version="1.1" viewBox="0 0 3362 2272" width="3362px" zoomAndPan="magnify"><defs/><g><text fill="#000000" font-family="sans-serif" font-size="14" font-weight="bold" lengthAdjust="spacing" textLength="126" x="1619" y="27.9951">Level 3 Diagram</text><rect fill="#FFFFFF" height="2040.5938" style="stroke:#181818;stroke-width:1.0;" width="10" x="36" y="135.5781"/><rect fill="#FFFFFF" height="37.2813" style="stroke:#181818;stroke-width:1.0;" width="10" x="472" y="164.8594"/><rect fill="#FFFFFF" height="1927.75" style="stroke:#181818;stroke-width:1.0;" width="10" x="472" y="239.4219"/><rect fill="#FFFFFF" height="1763.3438" style="stroke:#181818;stroke-width:1.0;" width="10" x="990" y="366.5469"/><rect fill="#FFFFFF" height="1772.3438" style="stroke:#181818;stroke-width:1.0;" width="10" x="1508" y="403.8281"/><rect fill="#FFFFFF" height="111.8438" style="stroke:#181818;stroke-width:1.0;" width="10" x="1708" y="441.1094"/><rect fill="#FFFFFF" height="111.8438" style="stroke:#181818;stroke-width:1.0;" width="10" x="1891.5" y="1704.7969"/><rect fill="#FFFFFF" height="43.2813" style="stroke:#181818;stroke-width:1.0;" width="10" x="2051" y="671.3594"/><rect fill="#FFFFFF" height="43.2813" style="stroke:#181818;stroke-width:1.0;" width="10" x="2051" y="806.4844"/><rect fill="#FFFFFF" height="43.2813" style="stroke:#181818;stroke-width:1.0;" width="10" x="2051" y="941.6094"/><rect fill="#FFFFFF" height="43.2813" style="stroke:#181818;stroke-width:1.0;" width="10" x="2051" y="1076.7344"/><rect fill="#FFFFFF" height="43.2813" style="stroke:#181818;stroke-width:1.0;" width="10" x="2051" y="1211.8594"/><rect fill="#FFFFFF" height="43.2813" style="stroke:#181818;stroke-width:1.0;" width="10" x="2051" y="1346.9844"/><rect fill="#FFFFFF" height="43.2813" style="stroke:#181818;stroke-width:1.0;" width="10" x="2051" y="1482.1094"/><rect fill="#FFFFFF" height="43.2813" style="stroke:#181818;stroke-width:1.0;" width="10" x="2668" y="1617.2344"/><rect fill="#FFFFFF" height="124.8438" style="stroke:#181818;stroke-width:1.0;" width="10" x="2783" y="1860.9219"/><rect fill="#FFFFFF" height="43.2813" style="stroke:#181818;stroke-width:1.0;" width="10" x="3122" y="1898.2031"/><rect fill="#FFFFFF" height="37.2813" style="stroke:#181818;stroke-width:1.0;" width="10" x="3276" y="478.3906"/><rect fill="#FFFFFF" height="37.2813" style="stroke:#181818;stroke-width:1.0;" width="10" x="3276" y="1742.0781"/><rect fill="#EBF5FB" height="1525.6563" style="stroke:#000000;stroke-width:1.5;" width="2462" x="893" y="567.9531"/><rect fill="#EBF5FB" height="121.125" style="stroke:#000000;stroke-width:1.5;" width="1014" x="1424" y="608.5156"/><rect fill="#EBF5FB" height="121.125" style="stroke:#000000;stroke-width:1.5;" width="1011" x="1424" y="743.6406"/><rect fill="#EBF5FB" height="121.125" style="stroke:#000000;stroke-width:1.5;" width="1007" x="1424" y="878.7656"/><rect fill="#EBF5FB" height="121.125" style="stroke:#000000;stroke-width:1.5;" width="968" x="1424" y="1013.8906"/><rect fill="#EBF5FB" height="121.125" style="stroke:#000000;stroke-width:1.5;" width="1054" x="1424" y="1149.0156"/><rect fill="#EBF5FB" height="121.125" style="stroke:#000000;stroke-width:1.5;" width="1102" x="1424" y="1284.1406"/><rect fill="#EBF5FB" height="121.125" style="stroke:#000000;stroke-width:1.5;" width="1095" x="1424" y="1419.2656"/><rect fill="#EBF5FB" height="270.25" style="stroke:#000000;stroke-width:1.5;" width="1921" x="1424" y="1554.3906"/><rect fill="#EBF5FB" height="62.5625" style="stroke:none;stroke-width:1.0;" width="2462" x="893" y="2031.0469"/><line style="stroke:#181818;stroke-width:0.5;stroke-dasharray:5.0,5.0;" x1="41" x2="41" y1="125.5781" y2="2185.1719"/><line style="stroke:#181818;stroke-width:0.5;stroke-dasharray:5.0,5.0;" x1="477" x2="477" y1="125.5781" y2="2185.1719"/><line style="stroke:#181818;stroke-width:0.5;stroke-dasharray:5.0,5.0;" x1="995" x2="995" y1="125.5781" y2="2185.1719"/><line style="stroke:#181818;stroke-width:0.5;stroke-dasharray:5.0,5.0;" x1="1513" x2="1513" y1="125.5781" y2="2185.1719"/><line style="stroke:#181818;stroke-width:0.5;stroke-dasharray:5.0,5.0;" x1="1712.5" x2="1712.5" y1="125.5781" y2="2185.1719"/><line style="stroke:#181818;stroke-width:0.5;stroke-dasharray:5.0,5.0;" x1="1896.5" x2="1896.5" y1="125.5781" y2="2185.1719"/><line style="stroke:#181818;stroke-width:0.5;stroke-dasharray:5.0,5.0;" x1="2055.5" x2="2055.5" y1="125.5781" y2="2185.1719"/><line style="stroke:#181818;stroke-width:0.5;stroke-dasharray:5.0,5.0;" x1="2673" x2="2673" y1="125.5781" y2="2185.1719"/><line style="stroke:#181818;stroke-width:0.5;stroke-dasharray:5.0,5.0;" x1="2788" x2="2788" y1="125.5781" y2="2185.1719"/><line style="stroke:#181818;stroke-width:0.5;stroke-dasharray:5.0,5.0;" x1="3127" x2="3127" y1="125.5781" y2="2185.1719"/><line style="stroke:#181818;stroke-width:0.5;stroke-dasharray:5.0,5.0;" x1="3281" x2="3281" y1="125.5781" y2="2185.1719"/><text fill="#000000" font-family="sans-serif" font-size="20" lengthAdjust="spacing" textLength="66" x="5" y="120.8613">Admin</text><ellipse cx="41" cy="50.7969" fill="#E2E2F0" rx="8" ry="8" style="stroke:#181818;stroke-width:0.5;"/><path d="M41,58.7969 L41,85.7969 M28,66.7969 L54,66.7969 M41,85.7969 L28,100.7969 M41,85.7969 L54,100.7969 " fill="none" style="stroke:#181818;stroke-width:0.5;"/><text fill="#000000" font-family="sans-serif" font-size="20" lengthAdjust="spacing" textLength="66" x="5" y="2202.7363">Admin</text><ellipse cx="41" cy="2215.9531" fill="#E2E2F0" rx="8" ry="8" style="stroke:#181818;stroke-width:0.5;"/><path d="M41,2223.9531 L41,2250.9531 M28,2231.9531 L54,2231.9531 M41,2250.9531 L28,2265.9531 M41,2250.9531 L54,2265.9531 " fill="none" style="stroke:#181818;stroke-width:0.5;"/><rect fill="#E2E2F0" height="37.2813" rx="2.5" ry="2.5" style="stroke:#181818;stroke-width:0.5;" width="154" x="400" y="87.2969"/><text fill="#000000" font-family="sans-serif" font-size="20" lengthAdjust="spacing" textLength="140" x="407" y="112.8613">User Interface</text><rect fill="#E2E2F0" height="37.2813" rx="2.5" ry="2.5" style="stroke:#181818;stroke-width:0.5;" width="154" x="400" y="2184.1719"/><text fill="#000000" font-family="sans-serif" font-size="20" lengthAdjust="spacing" textLength="140" x="407" y="2209.7363">User Interface</text><rect fill="#E2E2F0" height="37.2813" rx="2.5" ry="2.5" style="stroke:#181818;stroke-width:0.5;" width="184" x="903" y="87.2969"/><text fill="#000000" font-family="sans-serif" font-size="20" lengthAdjust="spacing" textLength="170" x="910" y="112.8613">PatientController</text><rect fill="#E2E2F0" height="37.2813" rx="2.5" ry="2.5" style="stroke:#181818;stroke-width:0.5;" width="184" x="903" y="2184.1719"/><text fill="#000000" font-family="sans-serif" font-size="20" lengthAdjust="spacing" textLength="170" x="910" y="2209.7363">PatientController</text><rect fill="#E2E2F0" height="37.2813" rx="2.5" ry="2.5" style="stroke:#181818;stroke-width:0.5;" width="158" x="1434" y="87.2969"/><text fill="#000000" font-family="sans-serif" font-size="20" lengthAdjust="spacing" textLength="144" x="1441" y="112.8613">PatientService</text><rect fill="#E2E2F0" height="37.2813" rx="2.5" ry="2.5" style="stroke:#181818;stroke-width:0.5;" width="158" x="1434" y="2184.1719"/><text fill="#000000" font-family="sans-serif" font-size="20" lengthAdjust="spacing" textLength="144" x="1441" y="2209.7363">PatientService</text><rect fill="#E2E2F0" height="37.2813" rx="2.5" ry="2.5" style="stroke:#181818;stroke-width:0.5;" width="191" x="1617.5" y="87.2969"/><text fill="#000000" font-family="sans-serif" font-size="20" lengthAdjust="spacing" textLength="177" x="1624.5" y="112.8613">PatientRepository</text><rect fill="#E2E2F0" height="37.2813" rx="2.5" ry="2.5" style="stroke:#181818;stroke-width:0.5;" width="191" x="1617.5" y="2184.1719"/><text fill="#000000" font-family="sans-serif" font-size="20" lengthAdjust="spacing" textLength="177" x="1624.5" y="2209.7363">PatientRepository</text><rect fill="#E2E2F0" height="37.2813" rx="2.5" ry="2.5" style="stroke:#181818;stroke-width:0.5;" width="156" x="1818.5" y="87.2969"/><text fill="#000000" font-family="sans-serif" font-size="20" lengthAdjust="spacing" textLength="142" x="1825.5" y="112.8613">LogRepository</text><rect fill="#E2E2F0" height="37.2813" rx="2.5" ry="2.5" style="stroke:#181818;stroke-width:0.5;" width="156" x="1818.5" y="2184.1719"/><text fill="#000000" font-family="sans-serif" font-size="20" lengthAdjust="spacing" textLength="142" x="1825.5" y="2209.7363">LogRepository</text><rect fill="#E2E2F0" height="37.2813" rx="2.5" ry="2.5" style="stroke:#181818;stroke-width:0.5;" width="85" x="2013.5" y="87.2969"/><text fill="#000000" font-family="sans-serif" font-size="20" lengthAdjust="spacing" textLength="71" x="2020.5" y="112.8613">Patient</text><rect fill="#E2E2F0" height="37.2813" rx="2.5" ry="2.5" style="stroke:#181818;stroke-width:0.5;" width="85" x="2013.5" y="2184.1719"/><text fill="#000000" font-family="sans-serif" font-size="20" lengthAdjust="spacing" textLength="71" x="2020.5" y="2209.7363">Patient</text><rect fill="#E2E2F0" height="37.2813" rx="2.5" ry="2.5" style="stroke:#181818;stroke-width:0.5;" width="50" x="2648" y="87.2969"/><text fill="#000000" font-family="sans-serif" font-size="20" lengthAdjust="spacing" textLength="36" x="2655" y="112.8613">Log</text><rect fill="#E2E2F0" height="37.2813" rx="2.5" ry="2.5" style="stroke:#181818;stroke-width:0.5;" width="50" x="2648" y="2184.1719"/><text fill="#000000" font-family="sans-serif" font-size="20" lengthAdjust="spacing" textLength="36" x="2655" y="2209.7363">Log</text><rect fill="#E2E2F0" height="37.2813" rx="2.5" ry="2.5" style="stroke:#181818;stroke-width:0.5;" width="160" x="2708" y="87.2969"/><text fill="#000000" font-family="sans-serif" font-size="20" lengthAdjust="spacing" textLength="146" x="2715" y="112.8613">PatientMapper</text><rect fill="#E2E2F0" height="37.2813" rx="2.5" ry="2.5" style="stroke:#181818;stroke-width:0.5;" width="160" x="2708" y="2184.1719"/><text fill="#000000" font-family="sans-serif" font-size="20" lengthAdjust="spacing" textLength="146" x="2715" y="2209.7363">PatientMapper</text><rect fill="#E2E2F0" height="37.2813" rx="2.5" ry="2.5" style="stroke:#181818;stroke-width:0.5;" width="128" x="3063" y="87.2969"/><text fill="#000000" font-family="sans-serif" font-size="20" lengthAdjust="spacing" textLength="114" x="3070" y="112.8613">PatientDTO</text><rect fill="#E2E2F0" height="37.2813" rx="2.5" ry="2.5" style="stroke:#181818;stroke-width:0.5;" width="128" x="3063" y="2184.1719"/><text fill="#000000" font-family="sans-serif" font-size="20" lengthAdjust="spacing" textLength="114" x="3070" y="2209.7363">PatientDTO</text><rect fill="#E2E2F0" height="37.2813" rx="2.5" ry="2.5" style="stroke:#181818;stroke-width:0.5;" width="108" x="3227" y="87.2969"/><text fill="#000000" font-family="sans-serif" font-size="20" lengthAdjust="spacing" textLength="94" x="3234" y="112.8613">Database</text><rect fill="#E2E2F0" height="37.2813" rx="2.5" ry="2.5" style="stroke:#181818;stroke-width:0.5;" width="108" x="3227" y="2184.1719"/><text fill="#000000" font-family="sans-serif" font-size="20" lengthAdjust="spacing" textLength="94" x="3234" y="2209.7363">Database</text><rect fill="#FFFFFF" height="2040.5938" style="stroke:#181818;stroke-width:1.0;" width="10" x="36" y="135.5781"/><rect fill="#FFFFFF" height="37.2813" style="stroke:#181818;stroke-width:1.0;" width="10" x="472" y="164.8594"/><rect fill="#FFFFFF" height="1927.75" style="stroke:#181818;stroke-width:1.0;" width="10" x="472" y="239.4219"/><rect fill="#FFFFFF" height="1763.3438" style="stroke:#181818;stroke-width:1.0;" width="10" x="990" y="366.5469"/><rect fill="#FFFFFF" height="1772.3438" style="stroke:#181818;stroke-width:1.0;" width="10" x="1508" y="403.8281"/><rect fill="#FFFFFF" height="111.8438" style="stroke:#181818;stroke-width:1.0;" width="10" x="1708" y="441.1094"/><rect fill="#FFFFFF" height="111.8438" style="stroke:#181818;stroke-width:1.0;" width="10" x="1891.5" y="1704.7969"/><rect fill="#FFFFFF" height="43.2813" style="stroke:#181818;stroke-width:1.0;" width="10" x="2051" y="671.3594"/><rect fill="#FFFFFF" height="43.2813" style="stroke:#181818;stroke-width:1.0;" width="10" x="2051" y="806.4844"/><rect fill="#FFFFFF" height="43.2813" style="stroke:#181818;stroke-width:1.0;" width="10" x="2051" y="941.6094"/><rect fill="#FFFFFF" height="43.2813" style="stroke:#181818;stroke-width:1.0;" width="10" x="2051" y="1076.7344"/><rect fill="#FFFFFF" height="43.2813" style="stroke:#181818;stroke-width:1.0;" width="10" x="2051" y="1211.8594"/><rect fill="#FFFFFF" height="43.2813" style="stroke:#181818;stroke-width:1.0;" width="10" x="2051" y="1346.9844"/><rect fill="#FFFFFF" height="43.2813" style="stroke:#181818;stroke-width:1.0;" width="10" x="2051" y="1482.1094"/><rect fill="#FFFFFF" height="43.2813" style="stroke:#181818;stroke-width:1.0;" width="10" x="2668" y="1617.2344"/><rect fill="#FFFFFF" height="124.8438" style="stroke:#181818;stroke-width:1.0;" width="10" x="2783" y="1860.9219"/><rect fill="#FFFFFF" height="43.2813" style="stroke:#181818;stroke-width:1.0;" width="10" x="3122" y="1898.2031"/><rect fill="#FFFFFF" height="37.2813" style="stroke:#181818;stroke-width:1.0;" width="10" x="3276" y="478.3906"/><rect fill="#FFFFFF" height="37.2813" style="stroke:#181818;stroke-width:1.0;" width="10" x="3276" y="1742.0781"/><polygon fill="#000000" points="460,160.8594,470,164.8594,460,168.8594,464,164.8594" style="stroke:#000000;stroke-width:1.0;"/><line style="stroke:#000000;stroke-width:1.0;" x1="46" x2="466" y1="164.8594" y2="164.8594"/><text fill="#000000" font-family="sans-serif" font-size="20" lengthAdjust="spacing" textLength="297" x="53" y="158.1426">Asks to edit a Patient's Profile</text><polygon fill="#000000" points="57,198.1406,47,202.1406,57,206.1406,53,202.1406" style="stroke:#000000;stroke-width:1.0;"/><line style="stroke:#000000;stroke-width:1.0;stroke-dasharray:2.0,2.0;" x1="51" x2="476" y1="202.1406" y2="202.1406"/><text fill="#000000" font-family="sans-serif" font-size="20" lengthAdjust="spacing" textLength="402" x="63" y="195.4238">Asks for Patient's Id and the data to edit</text><polygon fill="#000000" points="460,235.4219,470,239.4219,460,243.4219,464,239.4219" style="stroke:#000000;stroke-width:1.0;"/><line style="stroke:#000000;stroke-width:1.0;" x1="46" x2="466" y1="239.4219" y2="239.4219"/><text fill="#000000" font-family="sans-serif" font-size="20" lengthAdjust="spacing" textLength="386" x="53" y="232.7051">Sends Patient's ID and the data to edit</text><path d="M487,252.4219 L487,331.4219 L1146,331.4219 L1146,262.4219 L1136,252.4219 L487,252.4219 " fill="#FEFFDD" style="stroke:#181818;stroke-width:0.5;"/><path d="M1136,252.4219 L1136,262.4219 L1146,262.4219 L1136,252.4219 " fill="#FEFFDD" style="stroke:#181818;stroke-width:0.5;"/><text fill="#000000" font-family="sans-serif" font-size="20" lengthAdjust="spacing" textLength="638" x="493" y="275.9863">The data can be First Name and/or Last Name and/or Full Name</text><text fill="#000000" font-family="sans-serif" font-size="20" lengthAdjust="spacing" textLength="628" x="493" y="299.2676">and/or Email and/or Phone Number and/or Emergency Contact</text><text fill="#000000" font-family="sans-serif" font-size="20" lengthAdjust="spacing" textLength="261" x="493" y="322.5488">and/or Medical Conditions</text><polygon fill="#000000" points="978,362.5469,988,366.5469,978,370.5469,982,366.5469" style="stroke:#000000;stroke-width:1.0;"/><line style="stroke:#000000;stroke-width:1.0;" x1="482" x2="984" y1="366.5469" y2="366.5469"/><text fill="#000000" font-family="sans-serif" font-size="20" lengthAdjust="spacing" textLength="489" x="489" y="359.8301">updatePatient(Guid id, UpdatingPatientDTO dto)</text><polygon fill="#000000" points="1496,399.8281,1506,403.8281,1496,407.8281,1500,403.8281" style="stroke:#000000;stroke-width:1.0;"/><line style="stroke:#000000;stroke-width:1.0;" x1="1000" x2="1502" y1="403.8281" y2="403.8281"/><text fill="#000000" font-family="sans-serif" font-size="20" lengthAdjust="spacing" textLength="489" x="1007" y="397.1113">updatePatient(Guid id, UpdatingPatientDTO dto)</text><polygon fill="#000000" points="1696,437.1094,1706,441.1094,1696,445.1094,1700,441.1094" style="stroke:#000000;stroke-width:1.0;"/><line style="stroke:#000000;stroke-width:1.0;" x1="1518" x2="1702" y1="441.1094" y2="441.1094"/><text fill="#000000" font-family="sans-serif" font-size="20" lengthAdjust="spacing" textLength="171" x="1525" y="434.3926">getByIdAsync(id)</text><polygon fill="#000000" points="3264,474.3906,3274,478.3906,3264,482.3906,3268,478.3906" style="stroke:#000000;stroke-width:1.0;"/><line style="stroke:#000000;stroke-width:1.0;" x1="1718" x2="3270" y1="478.3906" y2="478.3906"/><text fill="#000000" font-family="sans-serif" font-size="20" lengthAdjust="spacing" textLength="568" x="1725" y="471.6738">_objs.Where(x =&gt; id.Equals(x.Id)).FirstOrDefaultAsync();</text><polygon fill="#000000" points="1729,511.6719,1719,515.6719,1729,519.6719,1725,515.6719" style="stroke:#000000;stroke-width:1.0;"/><line style="stroke:#000000;stroke-width:1.0;stroke-dasharray:2.0,2.0;" x1="1723" x2="3280" y1="515.6719" y2="515.6719"/><text fill="#000000" font-family="sans-serif" font-size="20" lengthAdjust="spacing" textLength="99" x="1735" y="508.9551">return var</text><polygon fill="#000000" points="1529,548.9531,1519,552.9531,1529,556.9531,1525,552.9531" style="stroke:#000000;stroke-width:1.0;"/><line style="stroke:#000000;stroke-width:1.0;stroke-dasharray:2.0,2.0;" x1="1523" x2="1712" y1="552.9531" y2="552.9531"/><text fill="#000000" font-family="sans-serif" font-size="20" lengthAdjust="spacing" textLength="99" x="1535" y="546.2363">return var</text><path d="M893,567.9531 L969,567.9531 L969,583.2344 L959,593.2344 L893,593.2344 L893,567.9531 " fill="#EEEEEE" style="stroke:#000000;stroke-width:1.5;"/><rect fill="none" height="1525.6563" style="stroke:#000000;stroke-width:1.5;" width="2462" x="893" y="567.9531"/><text fill="#000000" font-family="sans-serif" font-size="20" font-weight="bold" lengthAdjust="spacing" textLength="31" x="908" y="587.5176">alt</text><text fill="#000000" font-family="sans-serif" font-size="20" font-weight="bold" lengthAdjust="spacing" textLength="175" x="984" y="588.5176">[var is not null]</text><path d="M1424,608.5156 L1507,608.5156 L1507,623.7969 L1497,633.7969 L1424,633.7969 L1424,608.5156 " fill="#EEEEEE" style="stroke:#000000;stroke-width:1.5;"/><rect fill="none" height="121.125" style="stroke:#000000;stroke-width:1.5;" width="1014" x="1424" y="608.5156"/><text fill="#000000" font-family="sans-serif" font-size="20" font-weight="bold" lengthAdjust="spacing" textLength="38" x="1439" y="628.0801">opt</text><text fill="#000000" font-family="sans-serif" font-size="20" font-weight="bold" lengthAdjust="spacing" textLength="690" x="1522" y="629.0801">[First Name is provided and different from the current data]</text><polygon fill="#000000" points="2039,667.3594,2049,671.3594,2039,675.3594,2043,671.3594" style="stroke:#000000;stroke-width:1.0;"/><line style="stroke:#000000;stroke-width:1.0;" x1="1518" x2="2045" y1="671.3594" y2="671.3594"/><text fill="#000000" font-family="sans-serif" font-size="20" lengthAdjust="spacing" textLength="338" x="1525" y="664.6426">ChangeFirstName(dto.FirstName)</text><line style="stroke:#000000;stroke-width:1.0;" x1="2061" x2="2103" y1="713.6406" y2="713.6406"/><line style="stroke:#000000;stroke-width:1.0;" x1="2103" x2="2103" y1="713.6406" y2="726.6406"/><line style="stroke:#000000;stroke-width:1.0;" x1="2056" x2="2103" y1="726.6406" y2="726.6406"/><polygon fill="#000000" points="2066,722.6406,2056,726.6406,2066,730.6406,2062,726.6406" style="stroke:#000000;stroke-width:1.0;"/><text fill="#000000" font-family="sans-serif" font-size="20" lengthAdjust="spacing" textLength="358" x="2068" y="706.9238">ChangeFirstName(string firstName)</text><path d="M1424,743.6406 L1507,743.6406 L1507,758.9219 L1497,768.9219 L1424,768.9219 L1424,743.6406 " fill="#EEEEEE" style="stroke:#000000;stroke-width:1.5;"/><rect fill="none" height="121.125" style="stroke:#000000;stroke-width:1.5;" width="1011" x="1424" y="743.6406"/><text fill="#000000" font-family="sans-serif" font-size="20" font-weight="bold" lengthAdjust="spacing" textLength="38" x="1439" y="763.2051">opt</text><text fill="#000000" font-family="sans-serif" font-size="20" font-weight="bold" lengthAdjust="spacing" textLength="686" x="1522" y="764.2051">[Last Name is provided and different from the current data]</text><polygon fill="#000000" points="2039,802.4844,2049,806.4844,2039,810.4844,2043,806.4844" style="stroke:#000000;stroke-width:1.0;"/><line style="stroke:#000000;stroke-width:1.0;" x1="1518" x2="2045" y1="806.4844" y2="806.4844"/><text fill="#000000" font-family="sans-serif" font-size="20" lengthAdjust="spacing" textLength="332" x="1525" y="799.7676">ChangeLastName(dto.LastName)</text><line style="stroke:#000000;stroke-width:1.0;" x1="2061" x2="2103" y1="848.7656" y2="848.7656"/><line style="stroke:#000000;stroke-width:1.0;" x1="2103" x2="2103" y1="848.7656" y2="861.7656"/><line style="stroke:#000000;stroke-width:1.0;" x1="2056" x2="2103" y1="861.7656" y2="861.7656"/><polygon fill="#000000" points="2066,857.7656,2056,861.7656,2066,865.7656,2062,861.7656" style="stroke:#000000;stroke-width:1.0;"/><text fill="#000000" font-family="sans-serif" font-size="20" lengthAdjust="spacing" textLength="355" x="2068" y="842.0488">ChangeLastName(string firstName)</text><path d="M1424,878.7656 L1507,878.7656 L1507,894.0469 L1497,904.0469 L1424,904.0469 L1424,878.7656 " fill="#EEEEEE" style="stroke:#000000;stroke-width:1.5;"/><rect fill="none" height="121.125" style="stroke:#000000;stroke-width:1.5;" width="1007" x="1424" y="878.7656"/><text fill="#000000" font-family="sans-serif" font-size="20" font-weight="bold" lengthAdjust="spacing" textLength="38" x="1439" y="898.3301">opt</text><text fill="#000000" font-family="sans-serif" font-size="20" font-weight="bold" lengthAdjust="spacing" textLength="679" x="1522" y="899.3301">[Full Name is provided and different from the current data]</text><polygon fill="#000000" points="2039,937.6094,2049,941.6094,2039,945.6094,2043,941.6094" style="stroke:#000000;stroke-width:1.0;"/><line style="stroke:#000000;stroke-width:1.0;" x1="1518" x2="2045" y1="941.6094" y2="941.6094"/><text fill="#000000" font-family="sans-serif" font-size="20" lengthAdjust="spacing" textLength="324" x="1525" y="934.8926">ChangeFullName(dto.FullName)</text><line style="stroke:#000000;stroke-width:1.0;" x1="2061" x2="2103" y1="983.8906" y2="983.8906"/><line style="stroke:#000000;stroke-width:1.0;" x1="2103" x2="2103" y1="983.8906" y2="996.8906"/><line style="stroke:#000000;stroke-width:1.0;" x1="2056" x2="2103" y1="996.8906" y2="996.8906"/><polygon fill="#000000" points="2066,992.8906,2056,996.8906,2066,1000.8906,2062,996.8906" style="stroke:#000000;stroke-width:1.0;"/><text fill="#000000" font-family="sans-serif" font-size="20" lengthAdjust="spacing" textLength="351" x="2068" y="977.1738">ChangeFullName(string firstName)</text><path d="M1424,1013.8906 L1507,1013.8906 L1507,1029.1719 L1497,1039.1719 L1424,1039.1719 L1424,1013.8906 " fill="#EEEEEE" style="stroke:#000000;stroke-width:1.5;"/><rect fill="none" height="121.125" style="stroke:#000000;stroke-width:1.5;" width="968" x="1424" y="1013.8906"/><text fill="#000000" font-family="sans-serif" font-size="20" font-weight="bold" lengthAdjust="spacing" textLength="38" x="1439" y="1033.4551">opt</text><text fill="#000000" font-family="sans-serif" font-size="20" font-weight="bold" lengthAdjust="spacing" textLength="627" x="1522" y="1034.4551">[Email is provided and different from the current data]</text><polygon fill="#000000" points="2039,1072.7344,2049,1076.7344,2039,1080.7344,2043,1076.7344" style="stroke:#000000;stroke-width:1.0;"/><line style="stroke:#000000;stroke-width:1.0;" x1="1518" x2="2045" y1="1076.7344" y2="1076.7344"/><text fill="#000000" font-family="sans-serif" font-size="20" lengthAdjust="spacing" textLength="246" x="1525" y="1070.0176">ChangeEmail(dto.Email)</text><line style="stroke:#000000;stroke-width:1.0;" x1="2061" x2="2103" y1="1119.0156" y2="1119.0156"/><line style="stroke:#000000;stroke-width:1.0;" x1="2103" x2="2103" y1="1119.0156" y2="1132.0156"/><line style="stroke:#000000;stroke-width:1.0;" x1="2056" x2="2103" y1="1132.0156" y2="1132.0156"/><polygon fill="#000000" points="2066,1128.0156,2056,1132.0156,2066,1136.0156,2062,1132.0156" style="stroke:#000000;stroke-width:1.0;"/><text fill="#000000" font-family="sans-serif" font-size="20" lengthAdjust="spacing" textLength="312" x="2068" y="1112.2988">ChangeEmail(string firstName)</text><path d="M1424,1149.0156 L1507,1149.0156 L1507,1164.2969 L1497,1174.2969 L1424,1174.2969 L1424,1149.0156 " fill="#EEEEEE" style="stroke:#000000;stroke-width:1.5;"/><rect fill="none" height="121.125" style="stroke:#000000;stroke-width:1.5;" width="1054" x="1424" y="1149.0156"/><text fill="#000000" font-family="sans-serif" font-size="20" font-weight="bold" lengthAdjust="spacing" textLength="38" x="1439" y="1168.5801">opt</text><text fill="#000000" font-family="sans-serif" font-size="20" font-weight="bold" lengthAdjust="spacing" textLength="732" x="1522" y="1169.5801">[Phone Number is provided and different from the current data]</text><polygon fill="#000000" points="2039,1207.8594,2049,1211.8594,2039,1215.8594,2043,1211.8594" style="stroke:#000000;stroke-width:1.0;"/><line style="stroke:#000000;stroke-width:1.0;" x1="1518" x2="2045" y1="1211.8594" y2="1211.8594"/><text fill="#000000" font-family="sans-serif" font-size="20" lengthAdjust="spacing" textLength="418" x="1525" y="1205.1426">ChangePhoneNumber(dto.PhoneNumber)</text><line style="stroke:#000000;stroke-width:1.0;" x1="2061" x2="2103" y1="1254.1406" y2="1254.1406"/><line style="stroke:#000000;stroke-width:1.0;" x1="2103" x2="2103" y1="1254.1406" y2="1267.1406"/><line style="stroke:#000000;stroke-width:1.0;" x1="2056" x2="2103" y1="1267.1406" y2="1267.1406"/><polygon fill="#000000" points="2066,1263.1406,2056,1267.1406,2066,1271.1406,2062,1267.1406" style="stroke:#000000;stroke-width:1.0;"/><text fill="#000000" font-family="sans-serif" font-size="20" lengthAdjust="spacing" textLength="398" x="2068" y="1247.4238">ChangePhoneNumber(string firstName)</text><path d="M1424,1284.1406 L1507,1284.1406 L1507,1299.4219 L1497,1309.4219 L1424,1309.4219 L1424,1284.1406 " fill="#EEEEEE" style="stroke:#000000;stroke-width:1.5;"/><rect fill="none" height="121.125" style="stroke:#000000;stroke-width:1.5;" width="1102" x="1424" y="1284.1406"/><text fill="#000000" font-family="sans-serif" font-size="20" font-weight="bold" lengthAdjust="spacing" textLength="38" x="1439" y="1303.7051">opt</text><text fill="#000000" font-family="sans-serif" font-size="20" font-weight="bold" lengthAdjust="spacing" textLength="786" x="1522" y="1304.7051">[Emergency Contact is provided and different from the current data]</text><polygon fill="#000000" points="2039,1342.9844,2049,1346.9844,2039,1350.9844,2043,1346.9844" style="stroke:#000000;stroke-width:1.0;"/><line style="stroke:#000000;stroke-width:1.0;" x1="1518" x2="2045" y1="1346.9844" y2="1346.9844"/><text fill="#000000" font-family="sans-serif" font-size="20" lengthAdjust="spacing" textLength="514" x="1525" y="1340.2676">ChangeEmergencyContact(dto.EmergencyContact)</text><line style="stroke:#000000;stroke-width:1.0;" x1="2061" x2="2103" y1="1389.2656" y2="1389.2656"/><line style="stroke:#000000;stroke-width:1.0;" x1="2103" x2="2103" y1="1389.2656" y2="1402.2656"/><line style="stroke:#000000;stroke-width:1.0;" x1="2056" x2="2103" y1="1402.2656" y2="1402.2656"/><polygon fill="#000000" points="2066,1398.2656,2056,1402.2656,2066,1406.2656,2062,1402.2656" style="stroke:#000000;stroke-width:1.0;"/><text fill="#000000" font-family="sans-serif" font-size="20" lengthAdjust="spacing" textLength="446" x="2068" y="1382.5488">ChangeEmergencyContact(string firstName)</text><path d="M1424,1419.2656 L1507,1419.2656 L1507,1434.5469 L1497,1444.5469 L1424,1444.5469 L1424,1419.2656 " fill="#EEEEEE" style="stroke:#000000;stroke-width:1.5;"/><rect fill="none" height="121.125" style="stroke:#000000;stroke-width:1.5;" width="1095" x="1424" y="1419.2656"/><text fill="#000000" font-family="sans-serif" font-size="20" font-weight="bold" lengthAdjust="spacing" textLength="38" x="1439" y="1438.8301">opt</text><text fill="#000000" font-family="sans-serif" font-size="20" font-weight="bold" lengthAdjust="spacing" textLength="799" x="1522" y="1439.8301">[Medical Conditions are provided and different from the current data]</text><polygon fill="#000000" points="2039,1478.1094,2049,1482.1094,2039,1486.1094,2043,1482.1094" style="stroke:#000000;stroke-width:1.0;"/><line style="stroke:#000000;stroke-width:1.0;" x1="1518" x2="2045" y1="1482.1094" y2="1482.1094"/><text fill="#000000" font-family="sans-serif" font-size="20" lengthAdjust="spacing" textLength="500" x="1525" y="1475.3926">ChangeMedicalConditions(dto.MedicalConditions)</text><line style="stroke:#000000;stroke-width:1.0;" x1="2061" x2="2103" y1="1524.3906" y2="1524.3906"/><line style="stroke:#000000;stroke-width:1.0;" x1="2103" x2="2103" y1="1524.3906" y2="1537.3906"/><line style="stroke:#000000;stroke-width:1.0;" x1="2056" x2="2103" y1="1537.3906" y2="1537.3906"/><polygon fill="#000000" points="2066,1533.3906,2056,1537.3906,2066,1541.3906,2062,1537.3906" style="stroke:#000000;stroke-width:1.0;"/><text fill="#000000" font-family="sans-serif" font-size="20" lengthAdjust="spacing" textLength="439" x="2068" y="1517.6738">ChangeMedicalConditions(string firstName)</text><path d="M1424,1554.3906 L1507,1554.3906 L1507,1569.6719 L1497,1579.6719 L1424,1579.6719 L1424,1554.3906 " fill="#EEEEEE" style="stroke:#000000;stroke-width:1.5;"/><rect fill="none" height="270.25" style="stroke:#000000;stroke-width:1.5;" width="1921" x="1424" y="1554.3906"/><text fill="#000000" font-family="sans-serif" font-size="20" font-weight="bold" lengthAdjust="spacing" textLength="38" x="1439" y="1573.9551">opt</text><text fill="#000000" font-family="sans-serif" font-size="20" font-weight="bold" lengthAdjust="spacing" textLength="366" x="1522" y="1574.9551">[At least one field was updated]</text><polygon fill="#000000" points="2656,1613.2344,2666,1617.2344,2656,1621.2344,2660,1617.2344" style="stroke:#000000;stroke-width:1.0;"/><line style="stroke:#000000;stroke-width:1.0;" x1="1518" x2="2662" y1="1617.2344" y2="1617.2344"/><text fill="#000000" font-family="sans-serif" font-size="20" lengthAdjust="spacing" textLength="1131" x="1525" y="1610.5176">new Log(TypeOfAction.Update, patientId, Patient updated. The following fields were updated:" + updatedFields)</text><line style="stroke:#000000;stroke-width:1.0;" x1="2678" x2="2720" y1="1659.5156" y2="1659.5156"/><line style="stroke:#000000;stroke-width:1.0;" x1="2720" x2="2720" y1="1659.5156" y2="1672.5156"/><line style="stroke:#000000;stroke-width:1.0;" x1="2673" x2="2720" y1="1672.5156" y2="1672.5156"/><polygon fill="#000000" points="2683,1668.5156,2673,1672.5156,2683,1676.5156,2679,1672.5156" style="stroke:#000000;stroke-width:1.0;"/><text fill="#000000" font-family="sans-serif" font-size="20" lengthAdjust="spacing" textLength="52" x="2685" y="1652.7988">Log()</text><polygon fill="#000000" points="1879.5,1700.7969,1889.5,1704.7969,1879.5,1708.7969,1883.5,1704.7969" style="stroke:#000000;stroke-width:1.0;"/><line style="stroke:#000000;stroke-width:1.0;" x1="1518" x2="1885.5" y1="1704.7969" y2="1704.7969"/><text fill="#000000" font-family="sans-serif" font-size="20" lengthAdjust="spacing" textLength="144" x="1525" y="1698.0801">addAsync(log)</text><polygon fill="#000000" points="3264,1738.0781,3274,1742.0781,3264,1746.0781,3268,1742.0781" style="stroke:#000000;stroke-width:1.0;"/><line style="stroke:#000000;stroke-width:1.0;" x1="1901.5" x2="3270" y1="1742.0781" y2="1742.0781"/><text fill="#000000" font-family="sans-serif" font-size="20" lengthAdjust="spacing" textLength="203" x="1908.5" y="1735.3613">_objs.AddAsync(log)</text><polygon fill="#000000" points="1912.5,1775.3594,1902.5,1779.3594,1912.5,1783.3594,1908.5,1779.3594" style="stroke:#000000;stroke-width:1.0;"/><line style="stroke:#000000;stroke-width:1.0;stroke-dasharray:2.0,2.0;" x1="1906.5" x2="3280" y1="1779.3594" y2="1779.3594"/><text fill="#000000" font-family="sans-serif" font-size="20" lengthAdjust="spacing" textLength="99" x="1918.5" y="1772.6426">return log</text><polygon fill="#000000" points="1529,1812.6406,1519,1816.6406,1529,1820.6406,1525,1816.6406" style="stroke:#000000;stroke-width:1.0;"/><line style="stroke:#000000;stroke-width:1.0;stroke-dasharray:2.0,2.0;" x1="1523" x2="1895.5" y1="1816.6406" y2="1816.6406"/><text fill="#000000" font-family="sans-serif" font-size="20" lengthAdjust="spacing" textLength="99" x="1535" y="1809.9238">return log</text><polygon fill="#000000" points="2771,1856.9219,2781,1860.9219,2771,1864.9219,2775,1860.9219" style="stroke:#000000;stroke-width:1.0;"/><line style="stroke:#000000;stroke-width:1.0;" x1="1518" x2="2777" y1="1860.9219" y2="1860.9219"/><text fill="#000000" font-family="sans-serif" font-size="20" lengthAdjust="spacing" textLength="143" x="1525" y="1854.2051">toDto(patient)</text><polygon fill="#000000" points="3110,1894.2031,3120,1898.2031,3110,1902.2031,3114,1898.2031" style="stroke:#000000;stroke-width:1.0;"/><line style="stroke:#000000;stroke-width:1.0;" x1="2793" x2="3116" y1="1898.2031" y2="1898.2031"/><text fill="#000000" font-family="sans-serif" font-size="20" lengthAdjust="spacing" textLength="310" x="2800" y="1891.4863">new PatientDTO(patient fields)</text><line style="stroke:#000000;stroke-width:1.0;" x1="3132" x2="3174" y1="1940.4844" y2="1940.4844"/><line style="stroke:#000000;stroke-width:1.0;" x1="3174" x2="3174" y1="1940.4844" y2="1953.4844"/><line style="stroke:#000000;stroke-width:1.0;" x1="3127" x2="3174" y1="1953.4844" y2="1953.4844"/><polygon fill="#000000" points="3137,1949.4844,3127,1953.4844,3137,1957.4844,3133,1953.4844" style="stroke:#000000;stroke-width:1.0;"/><text fill="#000000" font-family="sans-serif" font-size="20" lengthAdjust="spacing" textLength="130" x="3139" y="1933.7676">PatientDTO()</text><polygon fill="#000000" points="1529,1981.7656,1519,1985.7656,1529,1989.7656,1525,1985.7656" style="stroke:#000000;stroke-width:1.0;"/><line style="stroke:#000000;stroke-width:1.0;stroke-dasharray:2.0,2.0;" x1="1523" x2="2787" y1="1985.7656" y2="1985.7656"/><text fill="#000000" font-family="sans-serif" font-size="20" lengthAdjust="spacing" textLength="101" x="1535" y="1979.0488">return dto</text><polygon fill="#000000" points="1011,2019.0469,1001,2023.0469,1011,2027.0469,1007,2023.0469" style="stroke:#000000;stroke-width:1.0;"/><line style="stroke:#000000;stroke-width:1.0;stroke-dasharray:2.0,2.0;" x1="1005" x2="1507" y1="2023.0469" y2="2023.0469"/><text fill="#000000" font-family="sans-serif" font-size="20" lengthAdjust="spacing" textLength="101" x="1017" y="2016.3301">return dto</text><line style="stroke:#000000;stroke-width:1.0;stroke-dasharray:2.0,2.0;" x1="893" x2="3355" y1="2032.0469" y2="2032.0469"/><text fill="#000000" font-family="sans-serif" font-size="20" font-weight="bold" lengthAdjust="spacing" textLength="130" x="898" y="2050.6113">[var is null]</text><polygon fill="#000000" points="1011,2081.6094,1001,2085.6094,1011,2089.6094,1007,2085.6094" style="stroke:#000000;stroke-width:1.0;"/><line style="stroke:#000000;stroke-width:1.0;stroke-dasharray:2.0,2.0;" x1="1005" x2="1507" y1="2085.6094" y2="2085.6094"/><text fill="#000000" font-family="sans-serif" font-size="20" lengthAdjust="spacing" textLength="242" x="1017" y="2078.8926">return Patient not found</text><polygon fill="#000000" points="493,2125.8906,483,2129.8906,493,2133.8906,489,2129.8906" style="stroke:#000000;stroke-width:1.0;"/><line style="stroke:#000000;stroke-width:1.0;stroke-dasharray:2.0,2.0;" x1="487" x2="994" y1="2129.8906" y2="2129.8906"/><text fill="#000000" font-family="sans-serif" font-size="20" lengthAdjust="spacing" textLength="413" x="499" y="2123.1738">Returns Operation Status Response Code</text><polygon fill="#000000" points="57,2163.1719,47,2167.1719,57,2171.1719,53,2167.1719" style="stroke:#000000;stroke-width:1.0;"/><line style="stroke:#000000;stroke-width:1.0;stroke-dasharray:2.0,2.0;" x1="51" x2="476" y1="2167.1719" y2="2167.1719"/><text fill="#000000" font-family="sans-serif" font-size="20" lengthAdjust="spacing" textLength="380" x="63" y="2160.4551">Returns Operation In/Sucess message</text><!--SRC=[hLTTZ-8s57tFhxZQVLX6tMMtM_MBRaTA25H8OGV1ZFfIgV8aD-2TOAUsmooj-jzxxNm2cKeWU43a-fpZUtmT-wAVkCYPOjjCna-OG88fAp8pbSAi-Dy87pzudk4cGuXmXnby1o5dQy9xteOd2BZDpHwsk7r4fRqtkfQ3Y0iq-nn1AhEHdjUEn1dJ6lxnW3u1Yv_MIXOY6SjCga-VTYmhyExn2yRczXPUXpzC_EbF_L0bfSDCmqaGVkZ7Q5Gx7gEJ-dRwSHBqmKXYClrvygCRyvMIpsKuo0Zd_TlDFQS8MsD_zl1w4ao_dmQMmc930J_PSW5CW-yHt_2OvqmOUFL0US5C65GfY_4L-2juc1r25inm56PCXL0oor0vrBWNj2fTEiIg5x74N6fEAUqTQ7a8YkJw210jUsNSsEA4N59w6NEMvrNkyrv0U7_dHiF3qP0PziXqwIaCt8Bo7JD8I-d3krjQhn7u-ac3aO09Dy2WKdoZOQ5aoZDiIRIw3pDuHpo_egLKdfOmIu291Cm68Q6PQr4lmQv4C_4AHQAxzB2VBYGH5Lzl3CZKCUzhICm4F29CkT86FhCjMeNtb5J4ZWBJ8ijSu0zHHIPRnhDwUB6H0k5pOTz0Q02erYZYFTZzGnOQwfpoYbbcuvGWbqAVBD8jZ4TGv9GbLWu7lnKy0PwyXGSRvcBT5WyI8szQZR4tjWghonLMtiegB4UmHXFiPuclzo8UyAI3MNfBYmc34Vmf7x_euUyRL3Zu2h_UqYJ3oLy5o_JWwt2MtDmCtHBVgR0ysKgrcrzQCTfTOU3s1isfq1HAm8wfRkq9idI8rKk8fSSoOuF0DL3PGL3Lt24XSzEjCWtdIkxex2otNCBJb7AdFPygkNLRA2wK2zXzuYJinotAOWJZ3HDhT89MRq2BDsoURXfuazYY2IrUKD16KJqWFHNf-2jbQDitdjfzUXrBLgznL3-SOQZXN-YdUSskLIBIQojKFPnJe9f_eP_oaBYE5wVbZBXVPxWecHTQE3ZQhkF4IPQApa_d-GnNNPMBotDqH5-jL9Lk9LjLxJ1uLW6Fz2xqUthn05Du3SULSYliB9z4p_1ygdYXQTz0XlQSjFiuvPWby4pTO7ar9eT-eX48V0PgfmRtr3VVfNvivnww2nFVKklfBimPtQ7LtLdh35rNaLANA9_BB6aY3S-qb3Laz0g-gNzFtN3FSaHDAAeIiidqMesESgURaoNLJPt9TP_uibK_khpz_sU6GHEhxkcelQY9qfTVXnCTtzmlKAe4w_8vN_CHjNAXaODgySli6ihSFSwTcx9wRLTJKwfg7353znXMp0whn7MTr7CSUA0TVWoSrscN3Lm7Y9d6fZMfsv9ZOBsdRE-Ishyqdbs9iKFPndNfO1hkg9rdTcF2oZ1JQ1hGERqYrFh91BijqRZJSf-oP-BzgeYH_WbkwOl-Kntrsly1]--></g></svg>