<?xml version="1.0" encoding="UTF-8" standalone="no"?><svg xmlns="http://www.w3.org/2000/svg" xmlns:xlink="http://www.w3.org/1999/xlink" contentStyleType="text/css" height="1470px" preserveAspectRatio="none" style="width:3553px;height:1470px;background:#FFFFFF;" version="1.1" viewBox="0 0 3553 1470" width="3553px" zoomAndPan="magnify"><defs/><g><text fill="#000000" font-family="sans-serif" font-size="14" font-weight="bold" lengthAdjust="spacing" textLength="149" x="1704" y="27.9951">Level 3 FE Diagram</text><rect fill="#FFFFFF" height="1238" style="stroke:#181818;stroke-width:1.0;" width="10" x="36" y="135.5781"/><rect fill="#FFFFFF" height="569.9375" style="stroke:#181818;stroke-width:1.0;" width="10" x="675" y="164.8594"/><rect fill="#FFFFFF" height="592.5" style="stroke:#181818;stroke-width:1.0;" width="10" x="675" y="772.0781"/><rect fill="#FFFFFF" height="67.2813" style="stroke:#181818;stroke-width:1.0;" width="10" x="1022" y="202.1406"/><rect fill="#FFFFFF" height="458.0938" style="stroke:#181818;stroke-width:1.0;" width="10" x="1423" y="239.4219"/><rect fill="#FFFFFF" height="428.0938" style="stroke:#181818;stroke-width:1.0;" width="10" x="1423" y="899.2031"/><rect fill="#FFFFFF" height="353.5313" style="stroke:#181818;stroke-width:1.0;" width="10" x="1837" y="306.7031"/><rect fill="#FFFFFF" height="353.5313" style="stroke:#181818;stroke-width:1.0;" width="10" x="1837" y="936.4844"/><rect fill="#FFFFFF" height="278.9688" style="stroke:#181818;stroke-width:1.0;" width="10" x="2374" y="343.9844"/><rect fill="#FFFFFF" height="278.9688" style="stroke:#181818;stroke-width:1.0;" width="10" x="2374" y="973.7656"/><rect fill="#FFFFFF" height="87.5625" style="stroke:#181818;stroke-width:1.0;" width="10" x="3063" y="498.1094"/><rect fill="#FFFFFF" height="87.5625" style="stroke:#181818;stroke-width:1.0;" width="10" x="3063" y="1127.8906"/><line style="stroke:#181818;stroke-width:0.5;stroke-dasharray:5.0,5.0;" x1="41" x2="41" y1="125.5781" y2="1382.5781"/><line style="stroke:#181818;stroke-width:0.5;stroke-dasharray:5.0,5.0;" x1="679.5" x2="679.5" y1="125.5781" y2="1382.5781"/><line style="stroke:#181818;stroke-width:0.5;stroke-dasharray:5.0,5.0;" x1="1027" x2="1027" y1="125.5781" y2="1382.5781"/><line style="stroke:#181818;stroke-width:0.5;stroke-dasharray:5.0,5.0;" x1="1427.5" x2="1427.5" y1="125.5781" y2="1382.5781"/><line style="stroke:#181818;stroke-width:0.5;stroke-dasharray:5.0,5.0;" x1="1842" x2="1842" y1="125.5781" y2="1382.5781"/><line style="stroke:#181818;stroke-width:0.5;stroke-dasharray:5.0,5.0;" x1="2378.5" x2="2378.5" y1="125.5781" y2="1382.5781"/><line style="stroke:#181818;stroke-width:0.5;stroke-dasharray:5.0,5.0;" x1="3068" x2="3068" y1="125.5781" y2="1382.5781"/><text fill="#000000" font-family="sans-serif" font-size="20" lengthAdjust="spacing" textLength="66" x="5" y="120.8613">Admin</text><ellipse cx="41" cy="50.7969" fill="#E2E2F0" rx="8" ry="8" style="stroke:#181818;stroke-width:0.5;"/><path d="M41,58.7969 L41,85.7969 M28,66.7969 L54,66.7969 M41,85.7969 L28,100.7969 M41,85.7969 L54,100.7969 " fill="none" style="stroke:#181818;stroke-width:0.5;"/><text fill="#000000" font-family="sans-serif" font-size="20" lengthAdjust="spacing" textLength="66" x="5" y="1400.1426">Admin</text><ellipse cx="41" cy="1413.3594" fill="#E2E2F0" rx="8" ry="8" style="stroke:#181818;stroke-width:0.5;"/><path d="M41,1421.3594 L41,1448.3594 M28,1429.3594 L54,1429.3594 M41,1448.3594 L28,1463.3594 M41,1448.3594 L54,1463.3594 " fill="none" style="stroke:#181818;stroke-width:0.5;"/><rect fill="#E2E2F0" height="37.2813" rx="2.5" ry="2.5" style="stroke:#181818;stroke-width:0.5;" width="63" x="648.5" y="87.2969"/><text fill="#000000" font-family="sans-serif" font-size="20" lengthAdjust="spacing" textLength="49" x="655.5" y="112.8613">View</text><rect fill="#E2E2F0" height="37.2813" rx="2.5" ry="2.5" style="stroke:#181818;stroke-width:0.5;" width="63" x="648.5" y="1381.5781"/><text fill="#000000" font-family="sans-serif" font-size="20" lengthAdjust="spacing" textLength="49" x="655.5" y="1407.1426">View</text><rect fill="#E2E2F0" height="37.2813" rx="2.5" ry="2.5" style="stroke:#181818;stroke-width:0.5;" width="252" x="901" y="87.2969"/><text fill="#000000" font-family="sans-serif" font-size="20" lengthAdjust="spacing" textLength="238" x="908" y="112.8613">PanelAdminComponent</text><rect fill="#E2E2F0" height="37.2813" rx="2.5" ry="2.5" style="stroke:#181818;stroke-width:0.5;" width="252" x="901" y="1381.5781"/><text fill="#000000" font-family="sans-serif" font-size="20" lengthAdjust="spacing" textLength="238" x="908" y="1407.1426">PanelAdminComponent</text><rect fill="#E2E2F0" height="37.2813" rx="2.5" ry="2.5" style="stroke:#181818;stroke-width:0.5;" width="291" x="1282.5" y="87.2969"/><text fill="#000000" font-family="sans-serif" font-size="20" lengthAdjust="spacing" textLength="277" x="1289.5" y="112.8613">ManagePatientsComponent</text><rect fill="#E2E2F0" height="37.2813" rx="2.5" ry="2.5" style="stroke:#181818;stroke-width:0.5;" width="291" x="1282.5" y="1381.5781"/><text fill="#000000" font-family="sans-serif" font-size="20" lengthAdjust="spacing" textLength="277" x="1289.5" y="1407.1426">ManagePatientsComponent</text><rect fill="#E2E2F0" height="37.2813" rx="2.5" ry="2.5" style="stroke:#181818;stroke-width:0.5;" width="158" x="1763" y="87.2969"/><text fill="#000000" font-family="sans-serif" font-size="20" lengthAdjust="spacing" textLength="144" x="1770" y="112.8613">PatientService</text><rect fill="#E2E2F0" height="37.2813" rx="2.5" ry="2.5" style="stroke:#181818;stroke-width:0.5;" width="158" x="1763" y="1381.5781"/><text fill="#000000" font-family="sans-serif" font-size="20" lengthAdjust="spacing" textLength="144" x="1770" y="1407.1426">PatientService</text><rect fill="#E2E2F0" height="37.2813" rx="2.5" ry="2.5" style="stroke:#181818;stroke-width:0.5;" width="173" x="2292.5" y="87.2969"/><text fill="#000000" font-family="sans-serif" font-size="20" lengthAdjust="spacing" textLength="159" x="2299.5" y="112.8613">AuthInterceptor</text><rect fill="#E2E2F0" height="37.2813" rx="2.5" ry="2.5" style="stroke:#181818;stroke-width:0.5;" width="173" x="2292.5" y="1381.5781"/><text fill="#000000" font-family="sans-serif" font-size="20" lengthAdjust="spacing" textLength="159" x="2299.5" y="1407.1426">AuthInterceptor</text><rect fill="#E2E2F0" height="37.2813" rx="2.5" ry="2.5" style="stroke:#181818;stroke-width:0.5;" width="60" x="3038" y="87.2969"/><text fill="#000000" font-family="sans-serif" font-size="20" lengthAdjust="spacing" textLength="46" x="3045" y="112.8613">MDR</text><rect fill="#E2E2F0" height="37.2813" rx="2.5" ry="2.5" style="stroke:#181818;stroke-width:0.5;" width="60" x="3038" y="1381.5781"/><text fill="#000000" font-family="sans-serif" font-size="20" lengthAdjust="spacing" textLength="46" x="3045" y="1407.1426">MDR</text><rect fill="#FFFFFF" height="1238" style="stroke:#181818;stroke-width:1.0;" width="10" x="36" y="135.5781"/><rect fill="#FFFFFF" height="569.9375" style="stroke:#181818;stroke-width:1.0;" width="10" x="675" y="164.8594"/><rect fill="#FFFFFF" height="592.5" style="stroke:#181818;stroke-width:1.0;" width="10" x="675" y="772.0781"/><rect fill="#FFFFFF" height="67.2813" style="stroke:#181818;stroke-width:1.0;" width="10" x="1022" y="202.1406"/><rect fill="#FFFFFF" height="458.0938" style="stroke:#181818;stroke-width:1.0;" width="10" x="1423" y="239.4219"/><rect fill="#FFFFFF" height="428.0938" style="stroke:#181818;stroke-width:1.0;" width="10" x="1423" y="899.2031"/><rect fill="#FFFFFF" height="353.5313" style="stroke:#181818;stroke-width:1.0;" width="10" x="1837" y="306.7031"/><rect fill="#FFFFFF" height="353.5313" style="stroke:#181818;stroke-width:1.0;" width="10" x="1837" y="936.4844"/><rect fill="#FFFFFF" height="278.9688" style="stroke:#181818;stroke-width:1.0;" width="10" x="2374" y="343.9844"/><rect fill="#FFFFFF" height="278.9688" style="stroke:#181818;stroke-width:1.0;" width="10" x="2374" y="973.7656"/><rect fill="#FFFFFF" height="87.5625" style="stroke:#181818;stroke-width:1.0;" width="10" x="3063" y="498.1094"/><rect fill="#FFFFFF" height="87.5625" style="stroke:#181818;stroke-width:1.0;" width="10" x="3063" y="1127.8906"/><polygon fill="#000000" points="663,160.8594,673,164.8594,663,168.8594,667,164.8594" style="stroke:#000000;stroke-width:1.0;"/><line style="stroke:#000000;stroke-width:1.0;" x1="46" x2="669" y1="164.8594" y2="164.8594"/><text fill="#000000" font-family="sans-serif" font-size="20" lengthAdjust="spacing" textLength="196" x="53" y="158.1426">Asks to list patients</text><polygon fill="#000000" points="1010,198.1406,1020,202.1406,1010,206.1406,1014,202.1406" style="stroke:#000000;stroke-width:1.0;"/><line style="stroke:#000000;stroke-width:1.0;" x1="685" x2="1016" y1="202.1406" y2="202.1406"/><text fill="#000000" font-family="sans-serif" font-size="20" lengthAdjust="spacing" textLength="318" x="692" y="195.4238">routerLink="/manage-patients"</text><polygon fill="#000000" points="1411,235.4219,1421,239.4219,1411,243.4219,1415,239.4219" style="stroke:#000000;stroke-width:1.0;"/><line style="stroke:#000000;stroke-width:1.0;" x1="1032" x2="1417" y1="239.4219" y2="239.4219"/><text fill="#000000" font-family="sans-serif" font-size="20" lengthAdjust="spacing" textLength="372" x="1039" y="232.7051">routes to ManagePatientsComponent</text><polygon fill="#000000" points="1825,302.7031,1835,306.7031,1825,310.7031,1829,306.7031" style="stroke:#000000;stroke-width:1.0;"/><line style="stroke:#000000;stroke-width:1.0;" x1="1433" x2="1831" y1="306.7031" y2="306.7031"/><text fill="#000000" font-family="sans-serif" font-size="20" lengthAdjust="spacing" textLength="328" x="1440" y="299.9863">getPatientsWithAdvancedFilter()</text><polygon fill="#000000" points="2362,339.9844,2372,343.9844,2362,347.9844,2366,343.9844" style="stroke:#000000;stroke-width:1.0;"/><line style="stroke:#000000;stroke-width:1.0;" x1="1847" x2="2368" y1="343.9844" y2="343.9844"/><text fill="#000000" font-family="sans-serif" font-size="20" lengthAdjust="spacing" textLength="508" x="1854" y="337.2676">Sends HTTP request to list the default patient's list</text><line style="stroke:#000000;stroke-width:1.0;" x1="2384" x2="2426" y1="381.2656" y2="381.2656"/><line style="stroke:#000000;stroke-width:1.0;" x1="2426" x2="2426" y1="381.2656" y2="394.2656"/><line style="stroke:#000000;stroke-width:1.0;" x1="2385" x2="2426" y1="394.2656" y2="394.2656"/><polygon fill="#000000" points="2395,390.2656,2385,394.2656,2395,398.2656,2391,394.2656" style="stroke:#000000;stroke-width:1.0;"/><text fill="#000000" font-family="sans-serif" font-size="20" lengthAdjust="spacing" textLength="563" x="2391" y="374.5488">Intercepts the request and adds the token to the header</text><path d="M2389,407.2656 L2389,463.2656 L2908,463.2656 L2908,417.2656 L2898,407.2656 L2389,407.2656 " fill="#FEFFDD" style="stroke:#181818;stroke-width:0.5;"/><path d="M2898,407.2656 L2898,417.2656 L2908,417.2656 L2898,407.2656 " fill="#FEFFDD" style="stroke:#181818;stroke-width:0.5;"/><text fill="#000000" font-family="sans-serif" font-size="20" lengthAdjust="spacing" textLength="498" x="2395" y="430.8301">The token is added to the header so that the MDR</text><text fill="#000000" font-family="sans-serif" font-size="20" lengthAdjust="spacing" textLength="442" x="2395" y="454.1113">can authenticate and authorize the request.</text><polygon fill="#000000" points="3051,494.1094,3061,498.1094,3051,502.1094,3055,498.1094" style="stroke:#000000;stroke-width:1.0;"/><line style="stroke:#000000;stroke-width:1.0;" x1="2384" x2="3057" y1="498.1094" y2="498.1094"/><text fill="#000000" font-family="sans-serif" font-size="20" lengthAdjust="spacing" textLength="660" x="2391" y="491.3926">Sends HTTP request with the token to list the default patient's list</text><line style="stroke:#000000;stroke-width:1.0;" x1="3073" x2="3115" y1="535.3906" y2="535.3906"/><line style="stroke:#000000;stroke-width:1.0;" x1="3115" x2="3115" y1="535.3906" y2="548.3906"/><line style="stroke:#000000;stroke-width:1.0;" x1="3074" x2="3115" y1="548.3906" y2="548.3906"/><polygon fill="#000000" points="3084,544.3906,3074,548.3906,3084,552.3906,3080,548.3906" style="stroke:#000000;stroke-width:1.0;"/><text fill="#000000" font-family="sans-serif" font-size="20" lengthAdjust="spacing" textLength="466" x="3080" y="528.6738">Validates the data and tries to list the patients</text><polygon fill="#000000" points="2395,581.6719,2385,585.6719,2395,589.6719,2391,585.6719" style="stroke:#000000;stroke-width:1.0;"/><line style="stroke:#000000;stroke-width:1.0;stroke-dasharray:2.0,2.0;" x1="2389" x2="3067" y1="585.6719" y2="585.6719"/><text fill="#000000" font-family="sans-serif" font-size="20" lengthAdjust="spacing" textLength="311" x="2401" y="578.9551">Returns Operation Status Code</text><polygon fill="#000000" points="1858,618.9531,1848,622.9531,1858,626.9531,1854,622.9531" style="stroke:#000000;stroke-width:1.0;"/><line style="stroke:#000000;stroke-width:1.0;stroke-dasharray:2.0,2.0;" x1="1852" x2="2378" y1="622.9531" y2="622.9531"/><text fill="#000000" font-family="sans-serif" font-size="20" lengthAdjust="spacing" textLength="311" x="1864" y="616.2363">Returns Operation Status Code</text><polygon fill="#000000" points="1444,656.2344,1434,660.2344,1444,664.2344,1440,660.2344" style="stroke:#000000;stroke-width:1.0;"/><line style="stroke:#000000;stroke-width:1.0;stroke-dasharray:2.0,2.0;" x1="1438" x2="1841" y1="660.2344" y2="660.2344"/><text fill="#000000" font-family="sans-serif" font-size="20" lengthAdjust="spacing" textLength="286" x="1450" y="653.5176">Returns Operation Response</text><polygon fill="#000000" points="696,693.5156,686,697.5156,696,701.5156,692,697.5156" style="stroke:#000000;stroke-width:1.0;"/><line style="stroke:#000000;stroke-width:1.0;stroke-dasharray:2.0,2.0;" x1="690" x2="1427" y1="697.5156" y2="697.5156"/><text fill="#000000" font-family="sans-serif" font-size="20" lengthAdjust="spacing" textLength="361" x="702" y="690.7988">Returns ManagePatientsComponent</text><polygon fill="#000000" points="57,730.7969,47,734.7969,57,738.7969,53,734.7969" style="stroke:#000000;stroke-width:1.0;"/><line style="stroke:#000000;stroke-width:1.0;stroke-dasharray:2.0,2.0;" x1="51" x2="679" y1="734.7969" y2="734.7969"/><text fill="#000000" font-family="sans-serif" font-size="20" lengthAdjust="spacing" textLength="605" x="63" y="728.0801">Displays initial list and asks for the data to filter the patients</text><polygon fill="#000000" points="663,768.0781,673,772.0781,663,776.0781,667,772.0781" style="stroke:#000000;stroke-width:1.0;"/><line style="stroke:#000000;stroke-width:1.0;" x1="46" x2="669" y1="772.0781" y2="772.0781"/><text fill="#000000" font-family="sans-serif" font-size="20" lengthAdjust="spacing" textLength="357" x="53" y="765.3613">Sends the data to filter the patients</text><path d="M690,785.0781 L690,864.0781 L1377,864.0781 L1377,795.0781 L1367,785.0781 L690,785.0781 " fill="#FEFFDD" style="stroke:#181818;stroke-width:0.5;"/><path d="M1367,785.0781 L1367,795.0781 L1377,795.0781 L1367,785.0781 " fill="#FEFFDD" style="stroke:#181818;stroke-width:0.5;"/><text fill="#000000" font-family="sans-serif" font-size="20" lengthAdjust="spacing" textLength="638" x="696" y="808.6426">The data can be First Name and/or Last Name and/or Full Name</text><text fill="#000000" font-family="sans-serif" font-size="20" lengthAdjust="spacing" textLength="666" x="696" y="831.9238">and/or Date of Birth and/or Gender and/or Medical Record Number</text><text fill="#000000" font-family="sans-serif" font-size="20" lengthAdjust="spacing" textLength="354" x="696" y="855.2051">and/or Email and/or Phone Number</text><polygon fill="#000000" points="1411,895.2031,1421,899.2031,1411,903.2031,1415,899.2031" style="stroke:#000000;stroke-width:1.0;"/><line style="stroke:#000000;stroke-width:1.0;" x1="685" x2="1417" y1="899.2031" y2="899.2031"/><text fill="#000000" font-family="sans-serif" font-size="20" lengthAdjust="spacing" textLength="202" x="692" y="892.4863">applyFilters($event)</text><polygon fill="#000000" points="1825,932.4844,1835,936.4844,1825,940.4844,1829,936.4844" style="stroke:#000000;stroke-width:1.0;"/><line style="stroke:#000000;stroke-width:1.0;" x1="1433" x2="1831" y1="936.4844" y2="936.4844"/><text fill="#000000" font-family="sans-serif" font-size="20" lengthAdjust="spacing" textLength="385" x="1440" y="929.7676">getPatientsWithAdvancedFilter(filters)</text><polygon fill="#000000" points="2362,969.7656,2372,973.7656,2362,977.7656,2366,973.7656" style="stroke:#000000;stroke-width:1.0;"/><line style="stroke:#000000;stroke-width:1.0;" x1="1847" x2="2368" y1="973.7656" y2="973.7656"/><text fill="#000000" font-family="sans-serif" font-size="20" lengthAdjust="spacing" textLength="502" x="1854" y="967.0488">Sends HTTP request to list the patients with filters</text><line style="stroke:#000000;stroke-width:1.0;" x1="2384" x2="2426" y1="1011.0469" y2="1011.0469"/><line style="stroke:#000000;stroke-width:1.0;" x1="2426" x2="2426" y1="1011.0469" y2="1024.0469"/><line style="stroke:#000000;stroke-width:1.0;" x1="2385" x2="2426" y1="1024.0469" y2="1024.0469"/><polygon fill="#000000" points="2395,1020.0469,2385,1024.0469,2395,1028.0469,2391,1024.0469" style="stroke:#000000;stroke-width:1.0;"/><text fill="#000000" font-family="sans-serif" font-size="20" lengthAdjust="spacing" textLength="563" x="2391" y="1004.3301">Intercepts the request and adds the token to the header</text><path d="M2389,1037.0469 L2389,1093.0469 L2908,1093.0469 L2908,1047.0469 L2898,1037.0469 L2389,1037.0469 " fill="#FEFFDD" style="stroke:#181818;stroke-width:0.5;"/><path d="M2898,1037.0469 L2898,1047.0469 L2908,1047.0469 L2898,1037.0469 " fill="#FEFFDD" style="stroke:#181818;stroke-width:0.5;"/><text fill="#000000" font-family="sans-serif" font-size="20" lengthAdjust="spacing" textLength="498" x="2395" y="1060.6113">The token is added to the header so that the MDR</text><text fill="#000000" font-family="sans-serif" font-size="20" lengthAdjust="spacing" textLength="442" x="2395" y="1083.8926">can authenticate and authorize the request.</text><polygon fill="#000000" points="3051,1123.8906,3061,1127.8906,3051,1131.8906,3055,1127.8906" style="stroke:#000000;stroke-width:1.0;"/><line style="stroke:#000000;stroke-width:1.0;" x1="2384" x2="3057" y1="1127.8906" y2="1127.8906"/><text fill="#000000" font-family="sans-serif" font-size="20" lengthAdjust="spacing" textLength="654" x="2391" y="1121.1738">Sends HTTP request with the token to list the patients with filters</text><line style="stroke:#000000;stroke-width:1.0;" x1="3073" x2="3115" y1="1165.1719" y2="1165.1719"/><line style="stroke:#000000;stroke-width:1.0;" x1="3115" x2="3115" y1="1165.1719" y2="1178.1719"/><line style="stroke:#000000;stroke-width:1.0;" x1="3074" x2="3115" y1="1178.1719" y2="1178.1719"/><polygon fill="#000000" points="3084,1174.1719,3074,1178.1719,3084,1182.1719,3080,1178.1719" style="stroke:#000000;stroke-width:1.0;"/><text fill="#000000" font-family="sans-serif" font-size="20" lengthAdjust="spacing" textLength="466" x="3080" y="1158.4551">Validates the data and tries to list the patients</text><polygon fill="#000000" points="2395,1211.4531,2385,1215.4531,2395,1219.4531,2391,1215.4531" style="stroke:#000000;stroke-width:1.0;"/><line style="stroke:#000000;stroke-width:1.0;stroke-dasharray:2.0,2.0;" x1="2389" x2="3067" y1="1215.4531" y2="1215.4531"/><text fill="#000000" font-family="sans-serif" font-size="20" lengthAdjust="spacing" textLength="311" x="2401" y="1208.7363">Returns Operation Status Code</text><polygon fill="#000000" points="1858,1248.7344,1848,1252.7344,1858,1256.7344,1854,1252.7344" style="stroke:#000000;stroke-width:1.0;"/><line style="stroke:#000000;stroke-width:1.0;stroke-dasharray:2.0,2.0;" x1="1852" x2="2378" y1="1252.7344" y2="1252.7344"/><text fill="#000000" font-family="sans-serif" font-size="20" lengthAdjust="spacing" textLength="311" x="1864" y="1246.0176">Returns Operation Status Code</text><polygon fill="#000000" points="1444,1286.0156,1434,1290.0156,1444,1294.0156,1440,1290.0156" style="stroke:#000000;stroke-width:1.0;"/><line style="stroke:#000000;stroke-width:1.0;stroke-dasharray:2.0,2.0;" x1="1438" x2="1841" y1="1290.0156" y2="1290.0156"/><text fill="#000000" font-family="sans-serif" font-size="20" lengthAdjust="spacing" textLength="286" x="1450" y="1283.2988">Returns Operation Response</text><polygon fill="#000000" points="696,1323.2969,686,1327.2969,696,1331.2969,692,1327.2969" style="stroke:#000000;stroke-width:1.0;"/><line style="stroke:#000000;stroke-width:1.0;stroke-dasharray:2.0,2.0;" x1="690" x2="1427" y1="1327.2969" y2="1327.2969"/><text fill="#000000" font-family="sans-serif" font-size="20" lengthAdjust="spacing" textLength="274" x="702" y="1320.5801">Returns In/Sucess message</text><polygon fill="#000000" points="57,1360.5781,47,1364.5781,57,1368.5781,53,1364.5781" style="stroke:#000000;stroke-width:1.0;"/><line style="stroke:#000000;stroke-width:1.0;stroke-dasharray:2.0,2.0;" x1="51" x2="679" y1="1364.5781" y2="1364.5781"/><text fill="#000000" font-family="sans-serif" font-size="20" lengthAdjust="spacing" textLength="274" x="63" y="1357.8613">Returns In/Sucess message</text><!--SRC=[xLRVRzCm47xtNt7QaCOUO0F4hmecfMi3bTOHBLDvuSMBRwsfOmVRwJGG_pjd9-cQqOcALwZKIhvyt_tuV7UfMqfTSSjBPOeb2X1upMlbKwDzBhyZF3zcp4kl4CvmXGfUG3g6aUHpeZ2sa081oyhVGedb5Lh73bpd4SwaHdzR8HZh5uQnkoU5uix13mRq6V9YERUcrkBKA6FVlLjnLUEdgwzO-9CJs1-z6YVfc-rGQqp4fAFnS7Iy7UFGhcI1qTMpzFbuk0r6BiRfs_7h-2onrjmqvg4Y7FkvcNj55Zx7xTd3_dYOlao7HE65ftCYIgc1EqWOqRqiPCMrXxsPn9kzO9_rxHdNg2Bfr9ILqQXzX6N9QHyuvPgooBYN175zy3IxxpIYyaQ9nb_UXoIrNqoqHrjWHNb7J3Av5t9qqRWVNR1GdbnnZrHO0azEO3Q0n2qTU0DAEayoDPdT0MTi5e1KoG18COf53R9yltTKnbAUT8ozEqgechw1DirQLWpnGFLtJ990OC_FD8lHym7CqNVCpz8l4h7Yka2HIaKvFJxS29-pB0-iP3A07BLmyF7oCWEBtsga6hjQ_GAxmUdgFd3nqOPC4vPCEbzhfLtaTlwu5i25Q8pUB5674E6mG2xGCct8avNpXGTp7Lo65hnSWwKBT9hY7WjSEF4cpN1tWLHmwagwSqfL5Y6_69iCneQntyZgAQF28KHk2o0NMzMu8ItxcUyiJiYAlcllCwwauF6k0vjx7lFpLgBhELvtMMItwbwWhwrsyAb2Iy-DXjnpNpiuDG8tsoA43JMrVR4pZuGFVT5svU-q2tJKZwx7eLuA7TXCIaTvg8qtSyp2s8JA1hHtNQNuhGEffPTSDJh4cmkZTqtxPgqNgNGT6xglquRdsNfmcyly4xNVV4Ixx0YXcQuGKcafdNDUncuwecpE-3r3MYiL3LzqQnc5LCZVKD9BeeDze8GeV7kQeg0ULQHQOQo0ypgyQTOEnYMNgeDc2nAmHVosUS9byQfIjysakyUFw9Mc_M5lQ-ow9Xg5t5zkYqxKPcXQN_-NnIxQ_AkxOgAFyhf0-jzKqW-jZOUsn4w46Vi5]--></g></svg>