<?xml version="1.0" encoding="UTF-8" standalone="no"?><svg xmlns="http://www.w3.org/2000/svg" xmlns:xlink="http://www.w3.org/1999/xlink" contentStyleType="text/css" height="2077px" preserveAspectRatio="none" style="width:2664px;height:2077px;background:#FFFFFF;" version="1.1" viewBox="0 0 2664 2077" width="2664px" zoomAndPan="magnify"><defs/><g><text fill="#000000" font-family="sans-serif" font-size="14" font-weight="bold" lengthAdjust="spacing" textLength="165" x="1248" y="27.9951">Level 3 MDR Diagram</text><rect fill="#FFFFFF" height="1845.3125" style="stroke:#181818;stroke-width:1.0;" width="10" x="15.5" y="135.5781"/><rect fill="#FFFFFF" height="122.125" style="stroke:#181818;stroke-width:1.0;" width="10" x="546.5" y="164.8594"/><rect fill="#FFFFFF" height="1647.625" style="stroke:#181818;stroke-width:1.0;" width="10" x="546.5" y="324.2656"/><rect fill="#FFFFFF" height="1566.0625" style="stroke:#181818;stroke-width:1.0;" width="10" x="1013.5" y="361.5469"/><rect fill="#FFFFFF" height="1178.6875" style="stroke:#181818;stroke-width:1.0;" width="10" x="1363.5" y="398.8281"/><rect fill="#FFFFFF" height="124.8438" style="stroke:#181818;stroke-width:1.0;" width="10" x="1549" y="1758.4844"/><rect fill="#FFFFFF" height="43.2813" style="stroke:#181818;stroke-width:1.0;" width="10" x="1888" y="1795.7656"/><rect fill="#FFFFFF" height="127.125" style="stroke:#181818;stroke-width:1.0;" width="10" x="2162.5" y="436.1094"/><rect fill="#FFFFFF" height="37.2813" style="stroke:#181818;stroke-width:1.0;" width="10" x="2162.5" y="641.0781"/><rect fill="#FFFFFF" height="37.2813" style="stroke:#181818;stroke-width:1.0;" width="10" x="2162.5" y="763.2031"/><rect fill="#FFFFFF" height="37.2813" style="stroke:#181818;stroke-width:1.0;" width="10" x="2162.5" y="885.3281"/><rect fill="#FFFFFF" height="37.2813" style="stroke:#181818;stroke-width:1.0;" width="10" x="2162.5" y="1007.4531"/><rect fill="#FFFFFF" height="37.2813" style="stroke:#181818;stroke-width:1.0;" width="10" x="2162.5" y="1129.5781"/><rect fill="#FFFFFF" height="37.2813" style="stroke:#181818;stroke-width:1.0;" width="10" x="2162.5" y="1251.7031"/><rect fill="#FFFFFF" height="37.2813" style="stroke:#181818;stroke-width:1.0;" width="10" x="2162.5" y="1373.8281"/><rect fill="#FFFFFF" height="37.2813" style="stroke:#181818;stroke-width:1.0;" width="10" x="2162.5" y="1495.9531"/><rect fill="#EBF5FB" height="108.125" style="stroke:#000000;stroke-width:1.5;" width="968.5" x="1263" y="578.2344"/><rect fill="#EBF5FB" height="108.125" style="stroke:#000000;stroke-width:1.5;" width="968.5" x="1263" y="700.3594"/><rect fill="#EBF5FB" height="108.125" style="stroke:#000000;stroke-width:1.5;" width="968.5" x="1263" y="822.4844"/><rect fill="#EBF5FB" height="108.125" style="stroke:#000000;stroke-width:1.5;" width="968.5" x="1263" y="944.6094"/><rect fill="#EBF5FB" height="108.125" style="stroke:#000000;stroke-width:1.5;" width="968.5" x="1263" y="1066.7344"/><rect fill="#EBF5FB" height="108.125" style="stroke:#000000;stroke-width:1.5;" width="968.5" x="1263" y="1188.8594"/><rect fill="#EBF5FB" height="108.125" style="stroke:#000000;stroke-width:1.5;" width="968.5" x="1263" y="1310.9844"/><rect fill="#EBF5FB" height="108.125" style="stroke:#000000;stroke-width:1.5;" width="968.5" x="1263" y="1433.1094"/><rect fill="#EBF5FB" height="343.0938" style="stroke:#000000;stroke-width:1.5;" width="1607.5" x="449.5" y="1592.5156"/><rect fill="#EBF5FB" height="272.25" style="stroke:none;stroke-width:1.0;" width="1607.5" x="449.5" y="1663.3594"/><rect fill="#EBF5FB" height="195.6875" style="stroke:#000000;stroke-width:1.5;" width="1117.5" x="929.5" y="1695.6406"/><line style="stroke:#181818;stroke-width:0.5;stroke-dasharray:5.0,5.0;" x1="20" x2="20" y1="125.5781" y2="1989.8906"/><line style="stroke:#181818;stroke-width:0.5;stroke-dasharray:5.0,5.0;" x1="551.5" x2="551.5" y1="125.5781" y2="1989.8906"/><line style="stroke:#181818;stroke-width:0.5;stroke-dasharray:5.0,5.0;" x1="1018.5" x2="1018.5" y1="125.5781" y2="1989.8906"/><line style="stroke:#181818;stroke-width:0.5;stroke-dasharray:5.0,5.0;" x1="1368" x2="1368" y1="125.5781" y2="1989.8906"/><line style="stroke:#181818;stroke-width:0.5;stroke-dasharray:5.0,5.0;" x1="1554" x2="1554" y1="125.5781" y2="1989.8906"/><line style="stroke:#181818;stroke-width:0.5;stroke-dasharray:5.0,5.0;" x1="1893" x2="1893" y1="125.5781" y2="1989.8906"/><line style="stroke:#181818;stroke-width:0.5;stroke-dasharray:5.0,5.0;" x1="2167.5" x2="2167.5" y1="125.5781" y2="1989.8906"/><text fill="#000000" font-family="sans-serif" font-size="20" lengthAdjust="spacing" textLength="25" x="5" y="120.8613">FE</text><ellipse cx="20.5" cy="50.7969" fill="#E2E2F0" rx="8" ry="8" style="stroke:#181818;stroke-width:0.5;"/><path d="M20.5,58.7969 L20.5,85.7969 M7.5,66.7969 L33.5,66.7969 M20.5,85.7969 L7.5,100.7969 M20.5,85.7969 L33.5,100.7969 " fill="none" style="stroke:#181818;stroke-width:0.5;"/><text fill="#000000" font-family="sans-serif" font-size="20" lengthAdjust="spacing" textLength="25" x="5" y="2007.4551">FE</text><ellipse cx="20.5" cy="2020.6719" fill="#E2E2F0" rx="8" ry="8" style="stroke:#181818;stroke-width:0.5;"/><path d="M20.5,2028.6719 L20.5,2055.6719 M7.5,2036.6719 L33.5,2036.6719 M20.5,2055.6719 L7.5,2070.6719 M20.5,2055.6719 L33.5,2070.6719 " fill="none" style="stroke:#181818;stroke-width:0.5;"/><rect fill="#E2E2F0" height="37.2813" rx="2.5" ry="2.5" style="stroke:#181818;stroke-width:0.5;" width="184" x="459.5" y="87.2969"/><text fill="#000000" font-family="sans-serif" font-size="20" lengthAdjust="spacing" textLength="170" x="466.5" y="112.8613">PatientController</text><rect fill="#E2E2F0" height="37.2813" rx="2.5" ry="2.5" style="stroke:#181818;stroke-width:0.5;" width="184" x="459.5" y="1988.8906"/><text fill="#000000" font-family="sans-serif" font-size="20" lengthAdjust="spacing" textLength="170" x="466.5" y="2014.4551">PatientController</text><rect fill="#E2E2F0" height="37.2813" rx="2.5" ry="2.5" style="stroke:#181818;stroke-width:0.5;" width="158" x="939.5" y="87.2969"/><text fill="#000000" font-family="sans-serif" font-size="20" lengthAdjust="spacing" textLength="144" x="946.5" y="112.8613">PatientService</text><rect fill="#E2E2F0" height="37.2813" rx="2.5" ry="2.5" style="stroke:#181818;stroke-width:0.5;" width="158" x="939.5" y="1988.8906"/><text fill="#000000" font-family="sans-serif" font-size="20" lengthAdjust="spacing" textLength="144" x="946.5" y="2014.4551">PatientService</text><rect fill="#E2E2F0" height="37.2813" rx="2.5" ry="2.5" style="stroke:#181818;stroke-width:0.5;" width="191" x="1273" y="87.2969"/><text fill="#000000" font-family="sans-serif" font-size="20" lengthAdjust="spacing" textLength="177" x="1280" y="112.8613">PatientRepository</text><rect fill="#E2E2F0" height="37.2813" rx="2.5" ry="2.5" style="stroke:#181818;stroke-width:0.5;" width="191" x="1273" y="1988.8906"/><text fill="#000000" font-family="sans-serif" font-size="20" lengthAdjust="spacing" textLength="177" x="1280" y="2014.4551">PatientRepository</text><rect fill="#E2E2F0" height="37.2813" rx="2.5" ry="2.5" style="stroke:#181818;stroke-width:0.5;" width="160" x="1474" y="87.2969"/><text fill="#000000" font-family="sans-serif" font-size="20" lengthAdjust="spacing" textLength="146" x="1481" y="112.8613">PatientMapper</text><rect fill="#E2E2F0" height="37.2813" rx="2.5" ry="2.5" style="stroke:#181818;stroke-width:0.5;" width="160" x="1474" y="1988.8906"/><text fill="#000000" font-family="sans-serif" font-size="20" lengthAdjust="spacing" textLength="146" x="1481" y="2014.4551">PatientMapper</text><rect fill="#E2E2F0" height="37.2813" rx="2.5" ry="2.5" style="stroke:#181818;stroke-width:0.5;" width="128" x="1829" y="87.2969"/><text fill="#000000" font-family="sans-serif" font-size="20" lengthAdjust="spacing" textLength="114" x="1836" y="112.8613">PatientDTO</text><rect fill="#E2E2F0" height="37.2813" rx="2.5" ry="2.5" style="stroke:#181818;stroke-width:0.5;" width="128" x="1829" y="1988.8906"/><text fill="#000000" font-family="sans-serif" font-size="20" lengthAdjust="spacing" textLength="114" x="1836" y="2014.4551">PatientDTO</text><rect fill="#E2E2F0" height="37.2813" rx="2.5" ry="2.5" style="stroke:#181818;stroke-width:0.5;" width="108" x="2113.5" y="87.2969"/><text fill="#000000" font-family="sans-serif" font-size="20" lengthAdjust="spacing" textLength="94" x="2120.5" y="112.8613">Database</text><rect fill="#E2E2F0" height="37.2813" rx="2.5" ry="2.5" style="stroke:#181818;stroke-width:0.5;" width="108" x="2113.5" y="1988.8906"/><text fill="#000000" font-family="sans-serif" font-size="20" lengthAdjust="spacing" textLength="94" x="2120.5" y="2014.4551">Database</text><rect fill="#FFFFFF" height="1845.3125" style="stroke:#181818;stroke-width:1.0;" width="10" x="15.5" y="135.5781"/><rect fill="#FFFFFF" height="122.125" style="stroke:#181818;stroke-width:1.0;" width="10" x="546.5" y="164.8594"/><rect fill="#FFFFFF" height="1647.625" style="stroke:#181818;stroke-width:1.0;" width="10" x="546.5" y="324.2656"/><rect fill="#FFFFFF" height="1566.0625" style="stroke:#181818;stroke-width:1.0;" width="10" x="1013.5" y="361.5469"/><rect fill="#FFFFFF" height="1178.6875" style="stroke:#181818;stroke-width:1.0;" width="10" x="1363.5" y="398.8281"/><rect fill="#FFFFFF" height="124.8438" style="stroke:#181818;stroke-width:1.0;" width="10" x="1549" y="1758.4844"/><rect fill="#FFFFFF" height="43.2813" style="stroke:#181818;stroke-width:1.0;" width="10" x="1888" y="1795.7656"/><rect fill="#FFFFFF" height="127.125" style="stroke:#181818;stroke-width:1.0;" width="10" x="2162.5" y="436.1094"/><rect fill="#FFFFFF" height="37.2813" style="stroke:#181818;stroke-width:1.0;" width="10" x="2162.5" y="641.0781"/><rect fill="#FFFFFF" height="37.2813" style="stroke:#181818;stroke-width:1.0;" width="10" x="2162.5" y="763.2031"/><rect fill="#FFFFFF" height="37.2813" style="stroke:#181818;stroke-width:1.0;" width="10" x="2162.5" y="885.3281"/><rect fill="#FFFFFF" height="37.2813" style="stroke:#181818;stroke-width:1.0;" width="10" x="2162.5" y="1007.4531"/><rect fill="#FFFFFF" height="37.2813" style="stroke:#181818;stroke-width:1.0;" width="10" x="2162.5" y="1129.5781"/><rect fill="#FFFFFF" height="37.2813" style="stroke:#181818;stroke-width:1.0;" width="10" x="2162.5" y="1251.7031"/><rect fill="#FFFFFF" height="37.2813" style="stroke:#181818;stroke-width:1.0;" width="10" x="2162.5" y="1373.8281"/><rect fill="#FFFFFF" height="37.2813" style="stroke:#181818;stroke-width:1.0;" width="10" x="2162.5" y="1495.9531"/><polygon fill="#000000" points="534.5,160.8594,544.5,164.8594,534.5,168.8594,538.5,164.8594" style="stroke:#000000;stroke-width:1.0;"/><line style="stroke:#000000;stroke-width:1.0;" x1="25.5" x2="540.5" y1="164.8594" y2="164.8594"/><text fill="#000000" font-family="sans-serif" font-size="20" lengthAdjust="spacing" textLength="502" x="32.5" y="158.1426">Sends HTTP request to list the default patients list</text><rect fill="none" height="79.8438" style="stroke:#000000;stroke-width:1.5;" width="647" x="456.5" y="172.8594"/><path d="M456.5,172.8594 L534.5,172.8594 L534.5,187.8594 L524.5,197.8594 L456.5,197.8594 L456.5,172.8594 " fill="#EEEEEE" style="stroke:#000000;stroke-width:2.0;"/><text fill="#000000" font-family="sans-serif" font-size="20" font-weight="bold" lengthAdjust="spacing" textLength="33" x="469.5" y="193.4238">ref</text><text fill="#000000" font-family="sans-serif" font-size="20" lengthAdjust="spacing" textLength="639" x="460.5" y="220.4238">This part will behave the same way as the representation below</text><text fill="#000000" font-family="sans-serif" font-size="20" lengthAdjust="spacing" textLength="372" x="594" y="243.7051">but without any filters being applied.</text><polygon fill="#000000" points="36.5,282.9844,26.5,286.9844,36.5,290.9844,32.5,286.9844" style="stroke:#000000;stroke-width:1.0;"/><line style="stroke:#000000;stroke-width:1.0;stroke-dasharray:2.0,2.0;" x1="30.5" x2="550.5" y1="286.9844" y2="286.9844"/><text fill="#000000" font-family="sans-serif" font-size="20" lengthAdjust="spacing" textLength="311" x="42.5" y="280.2676">Returns Operation Status Code</text><polygon fill="#000000" points="534.5,320.2656,544.5,324.2656,534.5,328.2656,538.5,324.2656" style="stroke:#000000;stroke-width:1.0;"/><line style="stroke:#000000;stroke-width:1.0;" x1="25.5" x2="540.5" y1="324.2656" y2="324.2656"/><text fill="#000000" font-family="sans-serif" font-size="20" lengthAdjust="spacing" textLength="502" x="32.5" y="317.5488">Sends HTTP request to list the patients with filters</text><polygon fill="#000000" points="1001.5,357.5469,1011.5,361.5469,1001.5,365.5469,1005.5,361.5469" style="stroke:#000000;stroke-width:1.0;"/><line style="stroke:#000000;stroke-width:1.0;" x1="556.5" x2="1007.5" y1="361.5469" y2="361.5469"/><text fill="#000000" font-family="sans-serif" font-size="20" lengthAdjust="spacing" textLength="385" x="563.5" y="354.8301">searchPatients(SearchPatientDTO dto)</text><polygon fill="#000000" points="1351.5,394.8281,1361.5,398.8281,1351.5,402.8281,1355.5,398.8281" style="stroke:#000000;stroke-width:1.0;"/><line style="stroke:#000000;stroke-width:1.0;" x1="1023.5" x2="1357.5" y1="398.8281" y2="398.8281"/><text fill="#000000" font-family="sans-serif" font-size="20" lengthAdjust="spacing" textLength="255" x="1030.5" y="392.1113">searchPatientsAsync(dto)</text><polygon fill="#000000" points="2150.5,432.1094,2160.5,436.1094,2150.5,440.1094,2154.5,436.1094" style="stroke:#000000;stroke-width:1.0;"/><line style="stroke:#000000;stroke-width:1.0;" x1="1373.5" x2="2156.5" y1="436.1094" y2="436.1094"/><text fill="#000000" font-family="sans-serif" font-size="20" lengthAdjust="spacing" textLength="200" x="1380.5" y="429.3926">_objs.AsQueryable()</text><path d="M2177,449.1094 L2177,528.1094 L2657,528.1094 L2657,459.1094 L2647,449.1094 L2177,449.1094 " fill="#FEFFDD" style="stroke:#181818;stroke-width:0.5;"/><path d="M2647,449.1094 L2647,459.1094 L2657,459.1094 L2647,449.1094 " fill="#FEFFDD" style="stroke:#181818;stroke-width:0.5;"/><text fill="#000000" font-family="sans-serif" font-size="20" lengthAdjust="spacing" textLength="459" x="2183" y="472.6738">This will return a queryable list of all patients.</text><text fill="#000000" font-family="sans-serif" font-size="20" lengthAdjust="spacing" textLength="459" x="2183" y="495.9551">This means that other queries can be chained</text><text fill="#000000" font-family="sans-serif" font-size="20" lengthAdjust="spacing" textLength="402" x="2183" y="519.2363">to this one in order to filter the patients.</text><polygon fill="#000000" points="1384.5,559.2344,1374.5,563.2344,1384.5,567.2344,1380.5,563.2344" style="stroke:#000000;stroke-width:1.0;"/><line style="stroke:#000000;stroke-width:1.0;stroke-dasharray:2.0,2.0;" x1="1378.5" x2="2166.5" y1="563.2344" y2="563.2344"/><text fill="#000000" font-family="sans-serif" font-size="20" lengthAdjust="spacing" textLength="402" x="1390.5" y="556.5176">Returns the queryable list of all patients</text><path d="M1263,578.2344 L1346,578.2344 L1346,593.5156 L1336,603.5156 L1263,603.5156 L1263,578.2344 " fill="#EEEEEE" style="stroke:#000000;stroke-width:1.5;"/><rect fill="none" height="108.125" style="stroke:#000000;stroke-width:1.5;" width="968.5" x="1263" y="578.2344"/><text fill="#000000" font-family="sans-serif" font-size="20" font-weight="bold" lengthAdjust="spacing" textLength="38" x="1278" y="597.7988">opt</text><text fill="#000000" font-family="sans-serif" font-size="20" font-weight="bold" lengthAdjust="spacing" textLength="368" x="1361" y="598.7988">[Filter queryable by First Name]</text><polygon fill="#000000" points="2150.5,637.0781,2160.5,641.0781,2150.5,645.0781,2154.5,641.0781" style="stroke:#000000;stroke-width:1.0;"/><line style="stroke:#000000;stroke-width:1.0;" x1="1373.5" x2="2156.5" y1="641.0781" y2="641.0781"/><text fill="#000000" font-family="sans-serif" font-size="20" lengthAdjust="spacing" textLength="513" x="1380.5" y="634.3613">query.Where(p =&gt; p.FirstName == dto.FirstName)</text><polygon fill="#000000" points="1384.5,674.3594,1374.5,678.3594,1384.5,682.3594,1380.5,678.3594" style="stroke:#000000;stroke-width:1.0;"/><line style="stroke:#000000;stroke-width:1.0;stroke-dasharray:2.0,2.0;" x1="1378.5" x2="2166.5" y1="678.3594" y2="678.3594"/><text fill="#000000" font-family="sans-serif" font-size="20" lengthAdjust="spacing" textLength="530" x="1390.5" y="671.6426">Returns the queryable list of patients filtered by First</text><path d="M1263,700.3594 L1346,700.3594 L1346,715.6406 L1336,725.6406 L1263,725.6406 L1263,700.3594 " fill="#EEEEEE" style="stroke:#000000;stroke-width:1.5;"/><rect fill="none" height="108.125" style="stroke:#000000;stroke-width:1.5;" width="968.5" x="1263" y="700.3594"/><text fill="#000000" font-family="sans-serif" font-size="20" font-weight="bold" lengthAdjust="spacing" textLength="38" x="1278" y="719.9238">opt</text><text fill="#000000" font-family="sans-serif" font-size="20" font-weight="bold" lengthAdjust="spacing" textLength="364" x="1361" y="720.9238">[Filter queryable by Last Name]</text><polygon fill="#000000" points="2150.5,759.2031,2160.5,763.2031,2150.5,767.2031,2154.5,763.2031" style="stroke:#000000;stroke-width:1.0;"/><line style="stroke:#000000;stroke-width:1.0;" x1="1373.5" x2="2156.5" y1="763.2031" y2="763.2031"/><text fill="#000000" font-family="sans-serif" font-size="20" lengthAdjust="spacing" textLength="507" x="1380.5" y="756.4863">query.Where(p =&gt; p.LastName == dto.LastName)</text><polygon fill="#000000" points="1384.5,796.4844,1374.5,800.4844,1384.5,804.4844,1380.5,800.4844" style="stroke:#000000;stroke-width:1.0;"/><line style="stroke:#000000;stroke-width:1.0;stroke-dasharray:2.0,2.0;" x1="1378.5" x2="2166.5" y1="800.4844" y2="800.4844"/><text fill="#000000" font-family="sans-serif" font-size="20" lengthAdjust="spacing" textLength="592" x="1390.5" y="793.7676">Returns the queryable list of patients filtered by Last Name</text><path d="M1263,822.4844 L1346,822.4844 L1346,837.7656 L1336,847.7656 L1263,847.7656 L1263,822.4844 " fill="#EEEEEE" style="stroke:#000000;stroke-width:1.5;"/><rect fill="none" height="108.125" style="stroke:#000000;stroke-width:1.5;" width="968.5" x="1263" y="822.4844"/><text fill="#000000" font-family="sans-serif" font-size="20" font-weight="bold" lengthAdjust="spacing" textLength="38" x="1278" y="842.0488">opt</text><text fill="#000000" font-family="sans-serif" font-size="20" font-weight="bold" lengthAdjust="spacing" textLength="357" x="1361" y="843.0488">[Filter queryable by Full Name]</text><polygon fill="#000000" points="2150.5,881.3281,2160.5,885.3281,2150.5,889.3281,2154.5,885.3281" style="stroke:#000000;stroke-width:1.0;"/><line style="stroke:#000000;stroke-width:1.0;" x1="1373.5" x2="2156.5" y1="885.3281" y2="885.3281"/><text fill="#000000" font-family="sans-serif" font-size="20" lengthAdjust="spacing" textLength="515" x="1380.5" y="878.6113">query.Where(p =&gt; (p.FullName) == dto.FullName)</text><polygon fill="#000000" points="1384.5,918.6094,1374.5,922.6094,1384.5,926.6094,1380.5,922.6094" style="stroke:#000000;stroke-width:1.0;"/><line style="stroke:#000000;stroke-width:1.0;stroke-dasharray:2.0,2.0;" x1="1378.5" x2="2166.5" y1="922.6094" y2="922.6094"/><text fill="#000000" font-family="sans-serif" font-size="20" lengthAdjust="spacing" textLength="588" x="1390.5" y="915.8926">Returns the queryable list of patients filtered by Full Name</text><path d="M1263,944.6094 L1346,944.6094 L1346,959.8906 L1336,969.8906 L1263,969.8906 L1263,944.6094 " fill="#EEEEEE" style="stroke:#000000;stroke-width:1.5;"/><rect fill="none" height="108.125" style="stroke:#000000;stroke-width:1.5;" width="968.5" x="1263" y="944.6094"/><text fill="#000000" font-family="sans-serif" font-size="20" font-weight="bold" lengthAdjust="spacing" textLength="38" x="1278" y="964.1738">opt</text><text fill="#000000" font-family="sans-serif" font-size="20" font-weight="bold" lengthAdjust="spacing" textLength="390" x="1361" y="965.1738">[Filter queryable by Date of Birth]</text><polygon fill="#000000" points="2150.5,1003.4531,2160.5,1007.4531,2150.5,1011.4531,2154.5,1007.4531" style="stroke:#000000;stroke-width:1.0;"/><line style="stroke:#000000;stroke-width:1.0;" x1="1373.5" x2="2156.5" y1="1007.4531" y2="1007.4531"/><text fill="#000000" font-family="sans-serif" font-size="20" lengthAdjust="spacing" textLength="552" x="1380.5" y="1000.7363">query.Where(p =&gt; p.DateOfBirth == dto.DateOfBirth);</text><polygon fill="#000000" points="1384.5,1040.7344,1374.5,1044.7344,1384.5,1048.7344,1380.5,1044.7344" style="stroke:#000000;stroke-width:1.0;"/><line style="stroke:#000000;stroke-width:1.0;stroke-dasharray:2.0,2.0;" x1="1378.5" x2="2166.5" y1="1044.7344" y2="1044.7344"/><text fill="#000000" font-family="sans-serif" font-size="20" lengthAdjust="spacing" textLength="613" x="1390.5" y="1038.0176">Returns the queryable list of patients filtered by Date of Birth</text><path d="M1263,1066.7344 L1346,1066.7344 L1346,1082.0156 L1336,1092.0156 L1263,1092.0156 L1263,1066.7344 " fill="#EEEEEE" style="stroke:#000000;stroke-width:1.5;"/><rect fill="none" height="108.125" style="stroke:#000000;stroke-width:1.5;" width="968.5" x="1263" y="1066.7344"/><text fill="#000000" font-family="sans-serif" font-size="20" font-weight="bold" lengthAdjust="spacing" textLength="38" x="1278" y="1086.2988">opt</text><text fill="#000000" font-family="sans-serif" font-size="20" font-weight="bold" lengthAdjust="spacing" textLength="324" x="1361" y="1087.2988">[Filter queryable by Gender]</text><polygon fill="#000000" points="2150.5,1125.5781,2160.5,1129.5781,2150.5,1133.5781,2154.5,1129.5781" style="stroke:#000000;stroke-width:1.0;"/><line style="stroke:#000000;stroke-width:1.0;" x1="1373.5" x2="2156.5" y1="1129.5781" y2="1129.5781"/><text fill="#000000" font-family="sans-serif" font-size="20" lengthAdjust="spacing" textLength="498" x="1380.5" y="1122.8613">query.Where(p =&gt; p.GenderOptions == gender);</text><polygon fill="#000000" points="1384.5,1162.8594,1374.5,1166.8594,1384.5,1170.8594,1380.5,1166.8594" style="stroke:#000000;stroke-width:1.0;"/><line style="stroke:#000000;stroke-width:1.0;stroke-dasharray:2.0,2.0;" x1="1378.5" x2="2166.5" y1="1166.8594" y2="1166.8594"/><text fill="#000000" font-family="sans-serif" font-size="20" lengthAdjust="spacing" textLength="560" x="1390.5" y="1160.1426">Returns the queryable list of patients filtered by Gender</text><path d="M1263,1188.8594 L1346,1188.8594 L1346,1204.1406 L1336,1214.1406 L1263,1214.1406 L1263,1188.8594 " fill="#EEEEEE" style="stroke:#000000;stroke-width:1.5;"/><rect fill="none" height="108.125" style="stroke:#000000;stroke-width:1.5;" width="968.5" x="1263" y="1188.8594"/><text fill="#000000" font-family="sans-serif" font-size="20" font-weight="bold" lengthAdjust="spacing" textLength="38" x="1278" y="1208.4238">opt</text><text fill="#000000" font-family="sans-serif" font-size="20" font-weight="bold" lengthAdjust="spacing" textLength="513" x="1361" y="1209.4238">[Filter queryable by Medical Record Number]</text><polygon fill="#000000" points="2150.5,1247.7031,2160.5,1251.7031,2150.5,1255.7031,2154.5,1251.7031" style="stroke:#000000;stroke-width:1.0;"/><line style="stroke:#000000;stroke-width:1.0;" x1="1373.5" x2="2156.5" y1="1251.7031" y2="1251.7031"/><text fill="#000000" font-family="sans-serif" font-size="20" lengthAdjust="spacing" textLength="770" x="1380.5" y="1244.9863">query.Where(p =&gt; p.MedicalRecordNumber == dto.MedicalRecordNumber);</text><polygon fill="#000000" points="1384.5,1284.9844,1374.5,1288.9844,1384.5,1292.9844,1380.5,1288.9844" style="stroke:#000000;stroke-width:1.0;"/><line style="stroke:#000000;stroke-width:1.0;stroke-dasharray:2.0,2.0;" x1="1378.5" x2="2166.5" y1="1288.9844" y2="1288.9844"/><text fill="#000000" font-family="sans-serif" font-size="20" lengthAdjust="spacing" textLength="726" x="1390.5" y="1282.2676">Returns the queryable list of patients filtered by Medical Record Number</text><path d="M1263,1310.9844 L1346,1310.9844 L1346,1326.2656 L1336,1336.2656 L1263,1336.2656 L1263,1310.9844 " fill="#EEEEEE" style="stroke:#000000;stroke-width:1.5;"/><rect fill="none" height="108.125" style="stroke:#000000;stroke-width:1.5;" width="968.5" x="1263" y="1310.9844"/><text fill="#000000" font-family="sans-serif" font-size="20" font-weight="bold" lengthAdjust="spacing" textLength="38" x="1278" y="1330.5488">opt</text><text fill="#000000" font-family="sans-serif" font-size="20" font-weight="bold" lengthAdjust="spacing" textLength="305" x="1361" y="1331.5488">[Filter queryable by Email]</text><polygon fill="#000000" points="2150.5,1369.8281,2160.5,1373.8281,2150.5,1377.8281,2154.5,1373.8281" style="stroke:#000000;stroke-width:1.0;"/><line style="stroke:#000000;stroke-width:1.0;" x1="1373.5" x2="2156.5" y1="1373.8281" y2="1373.8281"/><text fill="#000000" font-family="sans-serif" font-size="20" lengthAdjust="spacing" textLength="428" x="1380.5" y="1367.1113">query.Where(p =&gt; p.Email == dto.Email);</text><polygon fill="#000000" points="1384.5,1407.1094,1374.5,1411.1094,1384.5,1415.1094,1380.5,1411.1094" style="stroke:#000000;stroke-width:1.0;"/><line style="stroke:#000000;stroke-width:1.0;stroke-dasharray:2.0,2.0;" x1="1378.5" x2="2166.5" y1="1411.1094" y2="1411.1094"/><text fill="#000000" font-family="sans-serif" font-size="20" lengthAdjust="spacing" textLength="543" x="1390.5" y="1404.3926">Returns the queryable list of patients filtered by Email</text><path d="M1263,1433.1094 L1346,1433.1094 L1346,1448.3906 L1336,1458.3906 L1263,1458.3906 L1263,1433.1094 " fill="#EEEEEE" style="stroke:#000000;stroke-width:1.5;"/><rect fill="none" height="108.125" style="stroke:#000000;stroke-width:1.5;" width="968.5" x="1263" y="1433.1094"/><text fill="#000000" font-family="sans-serif" font-size="20" font-weight="bold" lengthAdjust="spacing" textLength="38" x="1278" y="1452.6738">opt</text><text fill="#000000" font-family="sans-serif" font-size="20" font-weight="bold" lengthAdjust="spacing" textLength="410" x="1361" y="1453.6738">[Filter queryable by Phone Number]</text><polygon fill="#000000" points="2150.5,1491.9531,2160.5,1495.9531,2150.5,1499.9531,2154.5,1495.9531" style="stroke:#000000;stroke-width:1.0;"/><line style="stroke:#000000;stroke-width:1.0;" x1="1373.5" x2="2156.5" y1="1495.9531" y2="1495.9531"/><text fill="#000000" font-family="sans-serif" font-size="20" lengthAdjust="spacing" textLength="600" x="1380.5" y="1489.2363">query.Where(p =&gt; p.PhoneNumber == dto.PhoneNumber);</text><polygon fill="#000000" points="1384.5,1529.2344,1374.5,1533.2344,1384.5,1537.2344,1380.5,1533.2344" style="stroke:#000000;stroke-width:1.0;"/><line style="stroke:#000000;stroke-width:1.0;stroke-dasharray:2.0,2.0;" x1="1378.5" x2="2166.5" y1="1533.2344" y2="1533.2344"/><text fill="#000000" font-family="sans-serif" font-size="20" lengthAdjust="spacing" textLength="635" x="1390.5" y="1526.5176">Returns the queryable list of patients filtered by Phone Number</text><polygon fill="#000000" points="1034.5,1573.5156,1024.5,1577.5156,1034.5,1581.5156,1030.5,1577.5156" style="stroke:#000000;stroke-width:1.0;"/><line style="stroke:#000000;stroke-width:1.0;stroke-dasharray:2.0,2.0;" x1="1028.5" x2="1367.5" y1="1577.5156" y2="1577.5156"/><text fill="#000000" font-family="sans-serif" font-size="20" lengthAdjust="spacing" textLength="316" x="1040.5" y="1570.7988">Returns the final list of patients</text><path d="M449.5,1592.5156 L525.5,1592.5156 L525.5,1607.7969 L515.5,1617.7969 L449.5,1617.7969 L449.5,1592.5156 " fill="#EEEEEE" style="stroke:#000000;stroke-width:1.5;"/><rect fill="none" height="343.0938" style="stroke:#000000;stroke-width:1.5;" width="1607.5" x="449.5" y="1592.5156"/><text fill="#000000" font-family="sans-serif" font-size="20" font-weight="bold" lengthAdjust="spacing" textLength="31" x="464.5" y="1612.0801">alt</text><text fill="#000000" font-family="sans-serif" font-size="20" font-weight="bold" lengthAdjust="spacing" textLength="129" x="540.5" y="1613.0801">[list is null]</text><polygon fill="#000000" points="567.5,1651.3594,557.5,1655.3594,567.5,1659.3594,563.5,1655.3594" style="stroke:#000000;stroke-width:1.0;"/><line style="stroke:#000000;stroke-width:1.0;stroke-dasharray:2.0,2.0;" x1="561.5" x2="1012.5" y1="1655.3594" y2="1655.3594"/><text fill="#000000" font-family="sans-serif" font-size="20" lengthAdjust="spacing" textLength="122" x="573.5" y="1648.6426">Returns null</text><line style="stroke:#000000;stroke-width:1.0;stroke-dasharray:2.0,2.0;" x1="449.5" x2="2057" y1="1664.3594" y2="1664.3594"/><text fill="#000000" font-family="sans-serif" font-size="20" font-weight="bold" lengthAdjust="spacing" textLength="174" x="454.5" y="1682.9238">[list is not null]</text><path d="M929.5,1695.6406 L1023.5,1695.6406 L1023.5,1710.9219 L1013.5,1720.9219 L929.5,1720.9219 L929.5,1695.6406 " fill="#EEEEEE" style="stroke:#000000;stroke-width:1.5;"/><rect fill="none" height="195.6875" style="stroke:#000000;stroke-width:1.5;" width="1117.5" x="929.5" y="1695.6406"/><text fill="#000000" font-family="sans-serif" font-size="20" font-weight="bold" lengthAdjust="spacing" textLength="49" x="944.5" y="1715.2051">loop</text><text fill="#000000" font-family="sans-serif" font-size="20" font-weight="bold" lengthAdjust="spacing" textLength="318" x="1038.5" y="1716.2051">[for each patient in the list]</text><polygon fill="#000000" points="1537,1754.4844,1547,1758.4844,1537,1762.4844,1541,1758.4844" style="stroke:#000000;stroke-width:1.0;"/><line style="stroke:#000000;stroke-width:1.0;" x1="1023.5" x2="1543" y1="1758.4844" y2="1758.4844"/><text fill="#000000" font-family="sans-serif" font-size="20" lengthAdjust="spacing" textLength="151" x="1030.5" y="1751.7676">toDTO(patient)</text><polygon fill="#000000" points="1876,1791.7656,1886,1795.7656,1876,1799.7656,1880,1795.7656" style="stroke:#000000;stroke-width:1.0;"/><line style="stroke:#000000;stroke-width:1.0;" x1="1559" x2="1882" y1="1795.7656" y2="1795.7656"/><text fill="#000000" font-family="sans-serif" font-size="20" lengthAdjust="spacing" textLength="310" x="1566" y="1789.0488">new PatientDTO(patient fields)</text><line style="stroke:#000000;stroke-width:1.0;" x1="1898" x2="1940" y1="1838.0469" y2="1838.0469"/><line style="stroke:#000000;stroke-width:1.0;" x1="1940" x2="1940" y1="1838.0469" y2="1851.0469"/><line style="stroke:#000000;stroke-width:1.0;" x1="1893" x2="1940" y1="1851.0469" y2="1851.0469"/><polygon fill="#000000" points="1903,1847.0469,1893,1851.0469,1903,1855.0469,1899,1851.0469" style="stroke:#000000;stroke-width:1.0;"/><text fill="#000000" font-family="sans-serif" font-size="20" lengthAdjust="spacing" textLength="130" x="1905" y="1831.3301">PatientDTO()</text><polygon fill="#000000" points="1034.5,1879.3281,1024.5,1883.3281,1034.5,1887.3281,1030.5,1883.3281" style="stroke:#000000;stroke-width:1.0;"/><line style="stroke:#000000;stroke-width:1.0;stroke-dasharray:2.0,2.0;" x1="1028.5" x2="1553" y1="1883.3281" y2="1883.3281"/><text fill="#000000" font-family="sans-serif" font-size="20" lengthAdjust="spacing" textLength="237" x="1040.5" y="1876.6113">Returns the PatientDTO</text><polygon fill="#000000" points="567.5,1923.6094,557.5,1927.6094,567.5,1931.6094,563.5,1927.6094" style="stroke:#000000;stroke-width:1.0;"/><line style="stroke:#000000;stroke-width:1.0;stroke-dasharray:2.0,2.0;" x1="561.5" x2="1017.5" y1="1927.6094" y2="1927.6094"/><text fill="#000000" font-family="sans-serif" font-size="20" lengthAdjust="spacing" textLength="308" x="573.5" y="1920.8926">Returns the list of PatientDTOs</text><polygon fill="#000000" points="36.5,1967.8906,26.5,1971.8906,36.5,1975.8906,32.5,1971.8906" style="stroke:#000000;stroke-width:1.0;"/><line style="stroke:#000000;stroke-width:1.0;stroke-dasharray:2.0,2.0;" x1="30.5" x2="550.5" y1="1971.8906" y2="1971.8906"/><text fill="#000000" font-family="sans-serif" font-size="20" lengthAdjust="spacing" textLength="413" x="42.5" y="1965.1738">Returns Operation Status Response Code</text><!--SRC=[jLRHRjis57tdLroq3tCUQdGTjdLU4o2ohEqXhZCfm5uA3BHqRREXIPMaR7Z3_hsNb6N9YRheOVP3597d7fvp3q7HFWfLSiEtKkUFM421Arv9bsZbCl4tmhktZ3dX9C8Txb323p2FKuW5NrCDOnjH8E2sT0VOudQ9nhBlR4C9TqAXEvG8shYDPgoToIMt5lvXGB-8vuzheojLJBNKviE77PSLBfQVCNStD_0w_cbscxplXngj0oQ9Pr7yjXzZqUn4Ze7g- -JTBEg34SKi-MNsSvYxDKRlw-584exzszLUqWXVOxzwU3sBaX-JY4fuxkWzcG6tz9THiHEvABboyEgUEu7AJQdDHak9vfL7JNj1MQq_8B9UH8gbje9MEmHGsWkQyx8yhZFl1SGFYp0Rdy_6tF4bj_NwSSIyBx7Z3hqfSlVc1gOJo50L5dv_UBW7Wrygj0wS1YdySuFDjgBUXQLic6cPfipW2lGE3Vthk_gm4HQy3DWBAM696xx3m6Jv5c7F3rwDVpTO6hJ4ISnQ4LBgVQ1OLhwOzXqzkJh0IaX7-vCGGgs1cY455cD6kebZnQRmXfmaimcaw2gZB2oeNJLfHkGLnQCBP0LsL0-rVxBj1JLAklQddYURW4Lkyiqn43lAkg-K3nHENxLr6SjyNVgqxjOUL3uwnwOizTWuci1VUldPZc_j7nMQ0rzA77LmbB3Iz3HYlN6WLw4Yn16ICA4vmE5BKrox922dwSRe-9CADLlaokV42K6DCA5Ce8MS-wmWtt0w8ufFYhhbV85M24BHWL4Gc0RhNfqrSSpYA8ILjbdv-VzMr0sEFEhIGL9pjtNB0uqPglr8coniebFF0cZy9rd0KGdNDr2E0zGZuVhQ1zCEN8NQxdB-VQZgqsQflTEXVD8LUCwDqCRxffaxFjIBHtQjDEyNS78kQhYPfA8q1vWPKJ843UfFoJG35mZcJDPmEx7746aawDluOZuUlLW5REEfCtJrw__lwxc-uTv-eqaqBvggOOlIdx7Msrg7WKkuwIWQRcEEXSYvfFLoEe_WO-KlE2-wEbRLHNLD4rdFr2NCVbltSE-pBHVoHQy1rRWBBvVmqsePhlz-uxya0oCBuFEeEaENiFHCtdDdQQ3FpkbNGb6mJwcxtxQKSRfd1GHzJXMTJe4_2spJbYtCeBJOOhLhyLBh4bPqVoNcJREG_p9x5U7o1iTVk8BC9_InfWlAw8YyEasVXCrFG_CGnGGKxg6zspIbv15bONiOujDGV6JeLBVuRYkxQpxlPblULrmBzb7qDh1fX0-Y9R9Fqyn2c0DkbodQaiv1xBbcigy0]--></g></svg>