<?xml version="1.0" encoding="UTF-8" standalone="no"?><svg xmlns="http://www.w3.org/2000/svg" xmlns:xlink="http://www.w3.org/1999/xlink" contentStyleType="text/css" height="632px" preserveAspectRatio="none" style="width:1615px;height:632px;background:#FFFFFF;" version="1.1" viewBox="0 0 1615 632" width="1615px" zoomAndPan="magnify"><defs/><g><text fill="#000000" font-family="sans-serif" font-size="14" font-weight="bold" lengthAdjust="spacing" textLength="126" x="746.75" y="27.9951">Level 2 Diagram</text><rect fill="#FFFFFF" height="399.8125" style="stroke:#181818;stroke-width:1.0;" width="10" x="38.5" y="135.5781"/><rect fill="#FFFFFF" height="162.125" style="stroke:#181818;stroke-width:1.0;" width="10" x="452.5" y="164.8594"/><rect fill="#FFFFFF" height="162.125" style="stroke:#181818;stroke-width:1.0;" width="10" x="452.5" y="364.2656"/><rect fill="#FFFFFF" height="87.5625" style="stroke:#181818;stroke-width:1.0;" width="10" x="1112.5" y="202.1406"/><rect fill="#FFFFFF" height="87.5625" style="stroke:#181818;stroke-width:1.0;" width="10" x="1112.5" y="401.5469"/><line style="stroke:#181818;stroke-width:0.5;stroke-dasharray:5.0,5.0;" x1="43" x2="43" y1="125.5781" y2="544.3906"/><line style="stroke:#181818;stroke-width:0.5;stroke-dasharray:5.0,5.0;" x1="457" x2="457" y1="125.5781" y2="544.3906"/><line style="stroke:#181818;stroke-width:0.5;stroke-dasharray:5.0,5.0;" x1="1117.5" x2="1117.5" y1="125.5781" y2="544.3906"/><text fill="#000000" font-family="sans-serif" font-size="20" lengthAdjust="spacing" textLength="71" x="5" y="120.8613">Patient</text><ellipse cx="43.5" cy="50.7969" fill="#E2E2F0" rx="8" ry="8" style="stroke:#181818;stroke-width:0.5;"/><path d="M43.5,58.7969 L43.5,85.7969 M30.5,66.7969 L56.5,66.7969 M43.5,85.7969 L30.5,100.7969 M43.5,85.7969 L56.5,100.7969 " fill="none" style="stroke:#181818;stroke-width:0.5;"/><text fill="#000000" font-family="sans-serif" font-size="20" lengthAdjust="spacing" textLength="71" x="5" y="561.9551">Patient</text><ellipse cx="43.5" cy="575.1719" fill="#E2E2F0" rx="8" ry="8" style="stroke:#181818;stroke-width:0.5;"/><path d="M43.5,583.1719 L43.5,610.1719 M30.5,591.1719 L56.5,591.1719 M43.5,610.1719 L30.5,625.1719 M43.5,610.1719 L56.5,625.1719 " fill="none" style="stroke:#181818;stroke-width:0.5;"/><rect fill="#E2E2F0" height="37.2813" rx="2.5" ry="2.5" style="stroke:#181818;stroke-width:0.5;" width="39" x="438" y="87.2969"/><text fill="#000000" font-family="sans-serif" font-size="20" lengthAdjust="spacing" textLength="25" x="445" y="112.8613">FE</text><rect fill="#E2E2F0" height="37.2813" rx="2.5" ry="2.5" style="stroke:#181818;stroke-width:0.5;" width="39" x="438" y="543.3906"/><text fill="#000000" font-family="sans-serif" font-size="20" lengthAdjust="spacing" textLength="25" x="445" y="568.9551">FE</text><rect fill="#E2E2F0" height="37.2813" rx="2.5" ry="2.5" style="stroke:#181818;stroke-width:0.5;" width="60" x="1087.5" y="87.2969"/><text fill="#000000" font-family="sans-serif" font-size="20" lengthAdjust="spacing" textLength="46" x="1094.5" y="112.8613">MDR</text><rect fill="#E2E2F0" height="37.2813" rx="2.5" ry="2.5" style="stroke:#181818;stroke-width:0.5;" width="60" x="1087.5" y="543.3906"/><text fill="#000000" font-family="sans-serif" font-size="20" lengthAdjust="spacing" textLength="46" x="1094.5" y="568.9551">MDR</text><rect fill="#FFFFFF" height="399.8125" style="stroke:#181818;stroke-width:1.0;" width="10" x="38.5" y="135.5781"/><rect fill="#FFFFFF" height="162.125" style="stroke:#181818;stroke-width:1.0;" width="10" x="452.5" y="164.8594"/><rect fill="#FFFFFF" height="162.125" style="stroke:#181818;stroke-width:1.0;" width="10" x="452.5" y="364.2656"/><rect fill="#FFFFFF" height="87.5625" style="stroke:#181818;stroke-width:1.0;" width="10" x="1112.5" y="202.1406"/><rect fill="#FFFFFF" height="87.5625" style="stroke:#181818;stroke-width:1.0;" width="10" x="1112.5" y="401.5469"/><polygon fill="#000000" points="440.5,160.8594,450.5,164.8594,440.5,168.8594,444.5,164.8594" style="stroke:#000000;stroke-width:1.0;"/><line style="stroke:#000000;stroke-width:1.0;" x1="48.5" x2="446.5" y1="164.8594" y2="164.8594"/><text fill="#000000" font-family="sans-serif" font-size="20" lengthAdjust="spacing" textLength="377" x="55.5" y="158.1426">Makes a request to delete user profile</text><polygon fill="#000000" points="1100.5,198.1406,1110.5,202.1406,1100.5,206.1406,1104.5,202.1406" style="stroke:#000000;stroke-width:1.0;"/><line style="stroke:#000000;stroke-width:1.0;" x1="462.5" x2="1106.5" y1="202.1406" y2="202.1406"/><text fill="#000000" font-family="sans-serif" font-size="20" lengthAdjust="spacing" textLength="631" x="469.5" y="195.4238">Sends HTTP Request with token to request delete user account</text><line style="stroke:#000000;stroke-width:1.0;" x1="1122.5" x2="1164.5" y1="239.4219" y2="239.4219"/><line style="stroke:#000000;stroke-width:1.0;" x1="1164.5" x2="1164.5" y1="239.4219" y2="252.4219"/><line style="stroke:#000000;stroke-width:1.0;" x1="1123.5" x2="1164.5" y1="252.4219" y2="252.4219"/><polygon fill="#000000" points="1133.5,248.4219,1123.5,252.4219,1133.5,256.4219,1129.5,252.4219" style="stroke:#000000;stroke-width:1.0;"/><text fill="#000000" font-family="sans-serif" font-size="20" lengthAdjust="spacing" textLength="479" x="1129.5" y="232.7051">Validates token and tries to process the request</text><polygon fill="#000000" points="473.5,285.7031,463.5,289.7031,473.5,293.7031,469.5,289.7031" style="stroke:#000000;stroke-width:1.0;"/><line style="stroke:#000000;stroke-width:1.0;stroke-dasharray:2.0,2.0;" x1="467.5" x2="1116.5" y1="289.7031" y2="289.7031"/><text fill="#000000" font-family="sans-serif" font-size="20" lengthAdjust="spacing" textLength="311" x="479.5" y="282.9863">Returns Operation Status Code</text><polygon fill="#000000" points="59.5,322.9844,49.5,326.9844,59.5,330.9844,55.5,326.9844" style="stroke:#000000;stroke-width:1.0;"/><line style="stroke:#000000;stroke-width:1.0;stroke-dasharray:2.0,2.0;" x1="53.5" x2="456.5" y1="326.9844" y2="326.9844"/><text fill="#000000" font-family="sans-serif" font-size="20" lengthAdjust="spacing" textLength="380" x="65.5" y="320.2676">Returns Operation In/Sucess message</text><polygon fill="#000000" points="440.5,360.2656,450.5,364.2656,440.5,368.2656,444.5,364.2656" style="stroke:#000000;stroke-width:1.0;"/><line style="stroke:#000000;stroke-width:1.0;" x1="48.5" x2="446.5" y1="364.2656" y2="364.2656"/><text fill="#000000" font-family="sans-serif" font-size="20" lengthAdjust="spacing" textLength="305" x="55.5" y="357.5488">Confirms the account Deletion</text><polygon fill="#000000" points="1100.5,397.5469,1110.5,401.5469,1100.5,405.5469,1104.5,401.5469" style="stroke:#000000;stroke-width:1.0;"/><line style="stroke:#000000;stroke-width:1.0;" x1="462.5" x2="1106.5" y1="401.5469" y2="401.5469"/><text fill="#000000" font-family="sans-serif" font-size="20" lengthAdjust="spacing" textLength="463" x="469.5" y="394.8301">Sends HTTP Request with token to delete user</text><line style="stroke:#000000;stroke-width:1.0;" x1="1122.5" x2="1164.5" y1="438.8281" y2="438.8281"/><line style="stroke:#000000;stroke-width:1.0;" x1="1164.5" x2="1164.5" y1="438.8281" y2="451.8281"/><line style="stroke:#000000;stroke-width:1.0;" x1="1123.5" x2="1164.5" y1="451.8281" y2="451.8281"/><polygon fill="#000000" points="1133.5,447.8281,1123.5,451.8281,1133.5,455.8281,1129.5,451.8281" style="stroke:#000000;stroke-width:1.0;"/><text fill="#000000" font-family="sans-serif" font-size="20" lengthAdjust="spacing" textLength="433" x="1129.5" y="432.1113">Validates token and tries to delete the user</text><polygon fill="#000000" points="473.5,485.1094,463.5,489.1094,473.5,493.1094,469.5,489.1094" style="stroke:#000000;stroke-width:1.0;"/><line style="stroke:#000000;stroke-width:1.0;stroke-dasharray:2.0,2.0;" x1="467.5" x2="1116.5" y1="489.1094" y2="489.1094"/><text fill="#000000" font-family="sans-serif" font-size="20" lengthAdjust="spacing" textLength="311" x="479.5" y="482.3926">Returns Operation Status Code</text><polygon fill="#000000" points="59.5,522.3906,49.5,526.3906,59.5,530.3906,55.5,526.3906" style="stroke:#000000;stroke-width:1.0;"/><line style="stroke:#000000;stroke-width:1.0;stroke-dasharray:2.0,2.0;" x1="53.5" x2="456.5" y1="526.3906" y2="526.3906"/><text fill="#000000" font-family="sans-serif" font-size="20" lengthAdjust="spacing" textLength="380" x="65.5" y="519.6738">Returns Operation In/Sucess message</text><!--SRC=[nP5FRzim3CNl-XH4UzXfM1TW_ueYG1rRs80MDPAYTrPc4isov4bqYcxOTn_jE4qA-DJB3DY2gVT-8fzIRNsB4HiNJ4qLLBJ6ph4EdbVsDy7iGYcsx0XkQ4SEPf1Rt8XUgQsj2AXf-HaQQXuf9lKk7N1mOptnSqiG8c-3KiSTup0b-AD0dWnDlOcXyzKYk12lhdReEhfx_4c6vtCuppyNr_hhj3I6C6XqNcJvnRGcKTnPGmFgevuLsPHC48N-LdmPzgvZ34_xSkP4f_wUzjvA1JSqtJsS5vd-fBFUWeQbK29RyWoOe5H2O6jiYr8uqyLPNzN5w_9jlXpgiWuCkqCcyPRmVYxYIxZ5cX8WHFhLKMBW85VcI4ITp0fj36lhw6YL0tJHcuLu2IloLOBlz_SbB4V0a-MjK6hoFUk0FMMYCJ8Y7vbzS_A-K1_GsKesqiX1Nm57E_pt7HcI- -Oj7UXxypZGahYBFi5TIr7I2XvMZDmbM8IAL4MlJkr74LyvPVlXFwowuQX6Fd99fsQ9uIN2HV1h6vjzI-DmaFS32-RDoPqaziQaHaBVrK3vBodz0m00]--></g></svg>