<?xml version="1.0" encoding="UTF-8" standalone="no"?><svg xmlns="http://www.w3.org/2000/svg" xmlns:xlink="http://www.w3.org/1999/xlink" contentStyleType="text/css" height="502px" preserveAspectRatio="none" style="width:1011px;height:502px;background:#FFFFFF;" version="1.1" viewBox="0 0 1011 502" width="1011px" zoomAndPan="magnify"><defs/><g><rect fill="none" height="207.9688" style="stroke:#000000;stroke-width:1.5;" width="994.5" x="10" y="235.4063"/><line style="stroke:#181818;stroke-width:0.5;stroke-dasharray:5.0,5.0;" x1="99" x2="99" y1="43.2813" y2="460.375"/><line style="stroke:#181818;stroke-width:0.5;stroke-dasharray:5.0,5.0;" x1="530.5" x2="530.5" y1="43.2813" y2="460.375"/><line style="stroke:#181818;stroke-width:0.5;stroke-dasharray:5.0,5.0;" x1="710.5" x2="710.5" y1="43.2813" y2="460.375"/><line style="stroke:#181818;stroke-width:0.5;stroke-dasharray:5.0,5.0;" x1="836.5" x2="836.5" y1="43.2813" y2="460.375"/><line style="stroke:#181818;stroke-width:0.5;stroke-dasharray:5.0,5.0;" x1="941.5" x2="941.5" y1="43.2813" y2="460.375"/><rect fill="#E2E2F0" height="37.2813" rx="2.5" ry="2.5" style="stroke:#181818;stroke-width:0.5;" width="158" x="20" y="5"/><text fill="#000000" font-family="sans-serif" font-size="20" lengthAdjust="spacing" textLength="144" x="27" y="30.5645">PatientService</text><rect fill="#E2E2F0" height="37.2813" rx="2.5" ry="2.5" style="stroke:#181818;stroke-width:0.5;" width="158" x="20" y="459.375"/><text fill="#000000" font-family="sans-serif" font-size="20" lengthAdjust="spacing" textLength="144" x="27" y="484.9395">PatientService</text><rect fill="#E2E2F0" height="37.2813" rx="2.5" ry="2.5" style="stroke:#181818;stroke-width:0.5;" width="191" x="435.5" y="5"/><text fill="#000000" font-family="sans-serif" font-size="20" lengthAdjust="spacing" textLength="177" x="442.5" y="30.5645">PatientRepository</text><rect fill="#E2E2F0" height="37.2813" rx="2.5" ry="2.5" style="stroke:#181818;stroke-width:0.5;" width="191" x="435.5" y="459.375"/><text fill="#000000" font-family="sans-serif" font-size="20" lengthAdjust="spacing" textLength="177" x="442.5" y="484.9395">PatientRepository</text><rect fill="#E2E2F0" height="37.2813" rx="2.5" ry="2.5" style="stroke:#181818;stroke-width:0.5;" width="148" x="636.5" y="5"/><text fill="#000000" font-family="sans-serif" font-size="20" lengthAdjust="spacing" textLength="134" x="643.5" y="30.5645">TokenService</text><rect fill="#E2E2F0" height="37.2813" rx="2.5" ry="2.5" style="stroke:#181818;stroke-width:0.5;" width="148" x="636.5" y="459.375"/><text fill="#000000" font-family="sans-serif" font-size="20" lengthAdjust="spacing" textLength="134" x="643.5" y="484.9395">TokenService</text><rect fill="#E2E2F0" height="37.2813" rx="2.5" ry="2.5" style="stroke:#181818;stroke-width:0.5;" width="85" x="794.5" y="5"/><text fill="#000000" font-family="sans-serif" font-size="20" lengthAdjust="spacing" textLength="71" x="801.5" y="30.5645">Patient</text><rect fill="#E2E2F0" height="37.2813" rx="2.5" ry="2.5" style="stroke:#181818;stroke-width:0.5;" width="85" x="794.5" y="459.375"/><text fill="#000000" font-family="sans-serif" font-size="20" lengthAdjust="spacing" textLength="71" x="801.5" y="484.9395">Patient</text><rect fill="#E2E2F0" height="37.2813" rx="2.5" ry="2.5" style="stroke:#181818;stroke-width:0.5;" width="105" x="889.5" y="5"/><text fill="#000000" font-family="sans-serif" font-size="20" lengthAdjust="spacing" textLength="91" x="896.5" y="30.5645">Frontend</text><rect fill="#E2E2F0" height="37.2813" rx="2.5" ry="2.5" style="stroke:#181818;stroke-width:0.5;" width="105" x="889.5" y="459.375"/><text fill="#000000" font-family="sans-serif" font-size="20" lengthAdjust="spacing" textLength="91" x="896.5" y="484.9395">Frontend</text><polygon fill="#181818" points="519,78.5625,529,82.5625,519,86.5625,523,82.5625" style="stroke:#181818;stroke-width:1.0;"/><line style="stroke:#181818;stroke-width:1.0;" x1="99" x2="525" y1="82.5625" y2="82.5625"/><text fill="#000000" font-family="sans-serif" font-size="20" lengthAdjust="spacing" textLength="206" x="106" y="75.8457">Get patient by email</text><line style="stroke:#181818;stroke-width:1.0;" x1="531" x2="573" y1="119.8438" y2="119.8438"/><line style="stroke:#181818;stroke-width:1.0;" x1="573" x2="573" y1="119.8438" y2="132.8438"/><line style="stroke:#181818;stroke-width:1.0;" x1="532" x2="573" y1="132.8438" y2="132.8438"/><polygon fill="#181818" points="542,128.8438,532,132.8438,542,136.8438,538,132.8438" style="stroke:#181818;stroke-width:1.0;"/><text fill="#000000" font-family="sans-serif" font-size="20" lengthAdjust="spacing" textLength="145" x="538" y="113.127">Validate email</text><polygon fill="#181818" points="110,166.125,100,170.125,110,174.125,106,170.125" style="stroke:#181818;stroke-width:1.0;"/><line style="stroke:#181818;stroke-width:1.0;" x1="104" x2="530" y1="170.125" y2="170.125"/><text fill="#000000" font-family="sans-serif" font-size="20" lengthAdjust="spacing" textLength="196" x="116" y="163.4082">Return Patient data</text><line style="stroke:#181818;stroke-width:1.0;" x1="99" x2="141" y1="207.4063" y2="207.4063"/><line style="stroke:#181818;stroke-width:1.0;" x1="141" x2="141" y1="207.4063" y2="220.4063"/><line style="stroke:#181818;stroke-width:1.0;" x1="100" x2="141" y1="220.4063" y2="220.4063"/><polygon fill="#181818" points="110,216.4063,100,220.4063,110,224.4063,106,220.4063" style="stroke:#181818;stroke-width:1.0;"/><text fill="#000000" font-family="sans-serif" font-size="20" lengthAdjust="spacing" textLength="418" x="106" y="200.6895">VerifyPassword(Password, PasswordHash)</text><path d="M10,235.4063 L86,235.4063 L86,250.6875 L76,260.6875 L10,260.6875 L10,235.4063 " fill="#EEEEEE" style="stroke:#000000;stroke-width:1.5;"/><rect fill="none" height="207.9688" style="stroke:#000000;stroke-width:1.5;" width="994.5" x="10" y="235.4063"/><text fill="#000000" font-family="sans-serif" font-size="20" font-weight="bold" lengthAdjust="spacing" textLength="31" x="25" y="254.9707">alt</text><text fill="#000000" font-family="sans-serif" font-size="20" font-weight="bold" lengthAdjust="spacing" textLength="231" x="101" y="255.9707">[If valid credentials]</text><polygon fill="#181818" points="698.5,294.25,708.5,298.25,698.5,302.25,702.5,298.25" style="stroke:#181818;stroke-width:1.0;"/><line style="stroke:#181818;stroke-width:1.0;" x1="99" x2="704.5" y1="298.25" y2="298.25"/><text fill="#000000" font-family="sans-serif" font-size="20" lengthAdjust="spacing" textLength="241" x="106" y="291.5332">GenerateToken(Patient)</text><polygon fill="#181818" points="110,331.5313,100,335.5313,110,339.5313,106,335.5313" style="stroke:#181818;stroke-width:1.0;"/><line style="stroke:#181818;stroke-width:1.0;" x1="104" x2="709.5" y1="335.5313" y2="335.5313"/><text fill="#000000" font-family="sans-serif" font-size="20" lengthAdjust="spacing" textLength="135" x="116" y="328.8145">Return Token</text><polygon fill="#181818" points="930,368.8125,940,372.8125,930,376.8125,934,372.8125" style="stroke:#181818;stroke-width:1.0;"/><line style="stroke:#181818;stroke-width:1.0;" x1="99" x2="936" y1="372.8125" y2="372.8125"/><text fill="#000000" font-family="sans-serif" font-size="20" lengthAdjust="spacing" textLength="320" x="106" y="366.0957">Return login success with token</text><line style="stroke:#000000;stroke-width:1.0;stroke-dasharray:2.0,2.0;" x1="10" x2="1004.5" y1="381.8125" y2="381.8125"/><text fill="#000000" font-family="sans-serif" font-size="20" font-weight="bold" lengthAdjust="spacing" textLength="252" x="15" y="400.377">[If invalid credentials]</text><polygon fill="#181818" points="930,431.375,940,435.375,930,439.375,934,435.375" style="stroke:#181818;stroke-width:1.0;"/><line style="stroke:#181818;stroke-width:1.0;" x1="99" x2="936" y1="435.375" y2="435.375"/><text fill="#000000" font-family="sans-serif" font-size="20" lengthAdjust="spacing" textLength="289" x="106" y="428.6582">Return login failure message</text><!--SRC=[ZL9DJyCm3BtdLrWxRH98YECE70VSfe5sDucxMKkJAdOtbLzFLgZQgYjQJj7p-x2To8b3XGbB7-s973WgiFQwYK4_-9lW-SdaihBb2eF2OelAb6kKpcnf0IWmXcxITrH5OOsf6IfwT2pwZ2SAmuGXSDD_w6hCk25uV9a6mXfUIQ7wnU6h0IgHlPaIPzHxzEnGwGvTrySQTgHr2XqEMO_ppVQoFIKkcYsAN69oo-xo0Dtj3UMuCkWLtWiuNpi3cyXb4qOl1lAPnWoNsguZKCe3jV3oZxvgjIFcFtErl9cqJSe_YeBhsJuUE83Krf88N5YFeAq1UQ7h81pk7MNElCXFKoU2CYVWWKoc_000]--></g></svg>