<?xml version="1.0" encoding="UTF-8" standalone="no"?><svg xmlns="http://www.w3.org/2000/svg" xmlns:xlink="http://www.w3.org/1999/xlink" contentStyleType="text/css" height="604px" preserveAspectRatio="none" style="width:1045px;height:604px;background:#FFFFFF;" version="1.1" viewBox="0 0 1045 604" width="1045px" zoomAndPan="magnify"><defs/><g><rect fill="none" height="133.4063" style="stroke:#000000;stroke-width:1.5;" width="594.5" x="10" y="366.25"/><line style="stroke:#181818;stroke-width:0.5;stroke-dasharray:5.0,5.0;" x1="58" x2="58" y1="88.2813" y2="516.6563"/><line style="stroke:#181818;stroke-width:0.5;stroke-dasharray:5.0,5.0;" x1="501.5" x2="501.5" y1="88.2813" y2="516.6563"/><line style="stroke:#181818;stroke-width:0.5;stroke-dasharray:5.0,5.0;" x1="986" x2="986" y1="88.2813" y2="516.6563"/><text fill="#000000" font-family="sans-serif" font-size="20" lengthAdjust="spacing" textLength="71" x="20" y="83.5645">Patient</text><ellipse cx="58.5" cy="13.5" fill="#E2E2F0" rx="8" ry="8" style="stroke:#181818;stroke-width:0.5;"/><path d="M58.5,21.5 L58.5,48.5 M45.5,29.5 L71.5,29.5 M58.5,48.5 L45.5,63.5 M58.5,48.5 L71.5,63.5 " fill="none" style="stroke:#181818;stroke-width:0.5;"/><text fill="#000000" font-family="sans-serif" font-size="20" lengthAdjust="spacing" textLength="71" x="20" y="534.2207">Patient</text><ellipse cx="58.5" cy="547.4375" fill="#E2E2F0" rx="8" ry="8" style="stroke:#181818;stroke-width:0.5;"/><path d="M58.5,555.4375 L58.5,582.4375 M45.5,563.4375 L71.5,563.4375 M58.5,582.4375 L45.5,597.4375 M58.5,582.4375 L71.5,597.4375 " fill="none" style="stroke:#181818;stroke-width:0.5;"/><rect fill="#E2E2F0" height="37.2813" rx="2.5" ry="2.5" style="stroke:#181818;stroke-width:0.5;" width="186" x="408.5" y="50"/><text fill="#000000" font-family="sans-serif" font-size="20" lengthAdjust="spacing" textLength="172" x="415.5" y="75.5645">LoginComponent</text><rect fill="#E2E2F0" height="37.2813" rx="2.5" ry="2.5" style="stroke:#181818;stroke-width:0.5;" width="186" x="408.5" y="515.6563"/><text fill="#000000" font-family="sans-serif" font-size="20" lengthAdjust="spacing" textLength="172" x="415.5" y="541.2207">LoginComponent</text><rect fill="#E2E2F0" height="37.2813" rx="2.5" ry="2.5" style="stroke:#181818;stroke-width:0.5;" width="105" x="934" y="50"/><text fill="#000000" font-family="sans-serif" font-size="20" lengthAdjust="spacing" textLength="91" x="941" y="75.5645">Frontend</text><rect fill="#E2E2F0" height="37.2813" rx="2.5" ry="2.5" style="stroke:#181818;stroke-width:0.5;" width="105" x="934" y="515.6563"/><text fill="#000000" font-family="sans-serif" font-size="20" lengthAdjust="spacing" textLength="91" x="941" y="541.2207">Frontend</text><polygon fill="#181818" points="489.5,123.5625,499.5,127.5625,489.5,131.5625,493.5,127.5625" style="stroke:#181818;stroke-width:1.0;"/><line style="stroke:#181818;stroke-width:1.0;" x1="58.5" x2="495.5" y1="127.5625" y2="127.5625"/><text fill="#000000" font-family="sans-serif" font-size="20" lengthAdjust="spacing" textLength="134" x="65.5" y="120.8457">Asks to log in</text><polygon fill="#181818" points="69.5,160.8438,59.5,164.8438,69.5,168.8438,65.5,164.8438" style="stroke:#181818;stroke-width:1.0;"/><line style="stroke:#181818;stroke-width:1.0;" x1="63.5" x2="500.5" y1="164.8438" y2="164.8438"/><text fill="#000000" font-family="sans-serif" font-size="20" lengthAdjust="spacing" textLength="252" x="75.5" y="158.127">Asks for login credentials</text><polygon fill="#181818" points="489.5,198.125,499.5,202.125,489.5,206.125,493.5,202.125" style="stroke:#181818;stroke-width:1.0;"/><line style="stroke:#181818;stroke-width:1.0;" x1="58.5" x2="495.5" y1="202.125" y2="202.125"/><text fill="#000000" font-family="sans-serif" font-size="20" lengthAdjust="spacing" textLength="419" x="65.5" y="195.4082">Sends login credentials (Email, Password)</text><polygon fill="#181818" points="974.5,235.4063,984.5,239.4063,974.5,243.4063,978.5,239.4063" style="stroke:#181818;stroke-width:1.0;"/><line style="stroke:#181818;stroke-width:1.0;" x1="501.5" x2="980.5" y1="239.4063" y2="239.4063"/><text fill="#000000" font-family="sans-serif" font-size="20" lengthAdjust="spacing" textLength="317" x="508.5" y="232.6895">Sends login request to backend</text><polygon fill="#181818" points="512.5,272.6875,502.5,276.6875,512.5,280.6875,508.5,276.6875" style="stroke:#181818;stroke-width:1.0;"/><line style="stroke:#181818;stroke-width:1.0;" x1="506.5" x2="985.5" y1="276.6875" y2="276.6875"/><text fill="#000000" font-family="sans-serif" font-size="20" lengthAdjust="spacing" textLength="220" x="518.5" y="269.9707">Displays loading state</text><polygon fill="#181818" points="512.5,309.9688,502.5,313.9688,512.5,317.9688,508.5,313.9688" style="stroke:#181818;stroke-width:1.0;"/><line style="stroke:#181818;stroke-width:1.0;" x1="506.5" x2="985.5" y1="313.9688" y2="313.9688"/><text fill="#000000" font-family="sans-serif" font-size="20" lengthAdjust="spacing" textLength="461" x="518.5" y="307.252">Sends HTTP Request to log in with credentials</text><polygon fill="#181818" points="512.5,347.25,502.5,351.25,512.5,355.25,508.5,351.25" style="stroke:#181818;stroke-width:1.0;"/><line style="stroke:#181818;stroke-width:1.0;" x1="506.5" x2="985.5" y1="351.25" y2="351.25"/><text fill="#000000" font-family="sans-serif" font-size="20" lengthAdjust="spacing" textLength="355" x="518.5" y="344.5332">Returns login success/failure status</text><path d="M10,366.25 L86,366.25 L86,381.5313 L76,391.5313 L10,391.5313 L10,366.25 " fill="#EEEEEE" style="stroke:#000000;stroke-width:1.5;"/><rect fill="none" height="133.4063" style="stroke:#000000;stroke-width:1.5;" width="594.5" x="10" y="366.25"/><text fill="#000000" font-family="sans-serif" font-size="20" font-weight="bold" lengthAdjust="spacing" textLength="31" x="25" y="385.8145">alt</text><text fill="#000000" font-family="sans-serif" font-size="20" font-weight="bold" lengthAdjust="spacing" textLength="222" x="101" y="386.8145">[If login successful]</text><polygon fill="#181818" points="69.5,425.0938,59.5,429.0938,69.5,433.0938,65.5,429.0938" style="stroke:#181818;stroke-width:1.0;"/><line style="stroke:#181818;stroke-width:1.0;" x1="63.5" x2="500.5" y1="429.0938" y2="429.0938"/><text fill="#000000" font-family="sans-serif" font-size="20" lengthAdjust="spacing" textLength="368" x="75.5" y="422.377">Displays success message and token</text><line style="stroke:#000000;stroke-width:1.0;stroke-dasharray:2.0,2.0;" x1="10" x2="604.5" y1="438.0938" y2="438.0938"/><text fill="#000000" font-family="sans-serif" font-size="20" font-weight="bold" lengthAdjust="spacing" textLength="169" x="15" y="456.6582">[If login failed]</text><polygon fill="#181818" points="69.5,487.6563,59.5,491.6563,69.5,495.6563,65.5,491.6563" style="stroke:#181818;stroke-width:1.0;"/><line style="stroke:#181818;stroke-width:1.0;" x1="63.5" x2="500.5" y1="491.6563" y2="491.6563"/><text fill="#000000" font-family="sans-serif" font-size="20" lengthAdjust="spacing" textLength="232" x="75.5" y="484.9395">Displays error message</text><!--SRC=[ZL7DJiCm3BxdAQoTG0A1E790Gj0A90xJjXSmZLkYfac97KtmzBXRnzInJUIGG_pz-GktBlIOiFEnQic2fHgpbp86MRflWhjRWvN417CKHq6CWiLLhiSWC7kBZGjFiUjZqDaCa67wD8MNIMKfs0smB8mPHU7wuO07z_38BOD4yB415yp1N1axyWYjDQGVG50biZfmwFcimrAZy5yEN1GTEd-b1iphcEpb4VEoE118z9c9PKZyZbfbi4OnnsoV7VSUlmOYMXSQO46XK-YjnyjgDOV5tc9R2goTV4pMFI6o8CafxA9ohYfYlgbrovneuv_Pe1TuhQUOEdi3Uiwr_xlFo85EBsm8C5ZDgbKOyanxxS6NxFzrAINzsr7LQ1y_]--></g></svg>