<?xml version="1.0" encoding="UTF-8" standalone="no"?><svg xmlns="http://www.w3.org/2000/svg" xmlns:xlink="http://www.w3.org/1999/xlink" contentStyleType="text/css" height="741px" preserveAspectRatio="none" style="width:934px;height:741px;background:#FFFFFF;" version="1.1" viewBox="0 0 934 741" width="934px" zoomAndPan="magnify"><defs/><g><text fill="#000000" font-family="sans-serif" font-size="14" font-weight="bold" lengthAdjust="spacing" textLength="321" x="308" y="27.9951">Doctor Operation Request Flow - Level 1</text><rect fill="#FFFFFF" height="311.25" style="stroke:#181818;stroke-width:1.0;" width="10" x="320" y="164.8594"/><rect fill="#FFFFFF" height="236.6875" style="stroke:#181818;stroke-width:1.0;" width="10" x="536" y="202.1406"/><line style="stroke:#181818;stroke-width:0.5;stroke-dasharray:5.0,5.0;" x1="41" x2="41" y1="125.5781" y2="653.7969"/><line style="stroke:#181818;stroke-width:0.5;stroke-dasharray:5.0,5.0;" x1="324.5" x2="324.5" y1="125.5781" y2="653.7969"/><line style="stroke:#181818;stroke-width:0.5;stroke-dasharray:5.0,5.0;" x1="540.5" x2="540.5" y1="125.5781" y2="653.7969"/><line style="stroke:#181818;stroke-width:0.5;stroke-dasharray:5.0,5.0;" x1="883" x2="883" y1="125.5781" y2="653.7969"/><text fill="#000000" font-family="sans-serif" font-size="20" lengthAdjust="spacing" textLength="66" x="5" y="120.8613">Doctor</text><ellipse cx="41" cy="50.7969" fill="#E2E2F0" rx="8" ry="8" style="stroke:#181818;stroke-width:0.5;"/><path d="M41,58.7969 L41,85.7969 M28,66.7969 L54,66.7969 M41,85.7969 L28,100.7969 M41,85.7969 L54,100.7969 " fill="none" style="stroke:#181818;stroke-width:0.5;"/><text fill="#000000" font-family="sans-serif" font-size="20" lengthAdjust="spacing" textLength="66" x="5" y="671.3613">Doctor</text><ellipse cx="41" cy="684.5781" fill="#E2E2F0" rx="8" ry="8" style="stroke:#181818;stroke-width:0.5;"/><path d="M41,692.5781 L41,719.5781 M28,700.5781 L54,700.5781 M41,719.5781 L28,734.5781 M41,719.5781 L54,734.5781 " fill="none" style="stroke:#181818;stroke-width:0.5;"/><rect fill="#E2E2F0" height="37.2813" rx="2.5" ry="2.5" style="stroke:#181818;stroke-width:0.5;" width="105" x="272.5" y="87.2969"/><text fill="#000000" font-family="sans-serif" font-size="20" lengthAdjust="spacing" textLength="91" x="279.5" y="112.8613">Frontend</text><rect fill="#E2E2F0" height="37.2813" rx="2.5" ry="2.5" style="stroke:#181818;stroke-width:0.5;" width="105" x="272.5" y="652.7969"/><text fill="#000000" font-family="sans-serif" font-size="20" lengthAdjust="spacing" textLength="91" x="279.5" y="678.3613">Frontend</text><rect fill="#E2E2F0" height="37.2813" rx="2.5" ry="2.5" style="stroke:#181818;stroke-width:0.5;" width="101" x="490.5" y="87.2969"/><text fill="#000000" font-family="sans-serif" font-size="20" lengthAdjust="spacing" textLength="87" x="497.5" y="112.8613">Backend</text><rect fill="#E2E2F0" height="37.2813" rx="2.5" ry="2.5" style="stroke:#181818;stroke-width:0.5;" width="101" x="490.5" y="652.7969"/><text fill="#000000" font-family="sans-serif" font-size="20" lengthAdjust="spacing" textLength="87" x="497.5" y="678.3613">Backend</text><text fill="#000000" font-family="sans-serif" font-size="20" lengthAdjust="spacing" textLength="94" x="833" y="120.8613">Database</text><path d="M865,66.2969 C865,56.2969 883,56.2969 883,56.2969 C883,56.2969 901,56.2969 901,66.2969 L901,92.2969 C901,102.2969 883,102.2969 883,102.2969 C883,102.2969 865,102.2969 865,92.2969 L865,66.2969 " fill="#E2E2F0" style="stroke:#181818;stroke-width:1.5;"/><path d="M865,66.2969 C865,76.2969 883,76.2969 883,76.2969 C883,76.2969 901,76.2969 901,66.2969 " fill="none" style="stroke:#181818;stroke-width:1.5;"/><text fill="#000000" font-family="sans-serif" font-size="20" lengthAdjust="spacing" textLength="94" x="833" y="671.3613">Database</text><path d="M865,686.0781 C865,676.0781 883,676.0781 883,676.0781 C883,676.0781 901,676.0781 901,686.0781 L901,712.0781 C901,722.0781 883,722.0781 883,722.0781 C883,722.0781 865,722.0781 865,712.0781 L865,686.0781 " fill="#E2E2F0" style="stroke:#181818;stroke-width:1.5;"/><path d="M865,686.0781 C865,696.0781 883,696.0781 883,696.0781 C883,696.0781 901,696.0781 901,686.0781 " fill="none" style="stroke:#181818;stroke-width:1.5;"/><rect fill="#FFFFFF" height="311.25" style="stroke:#181818;stroke-width:1.0;" width="10" x="320" y="164.8594"/><rect fill="#FFFFFF" height="236.6875" style="stroke:#181818;stroke-width:1.0;" width="10" x="536" y="202.1406"/><polygon fill="#181818" points="308,160.8594,318,164.8594,308,168.8594,312,164.8594" style="stroke:#181818;stroke-width:1.0;"/><line style="stroke:#181818;stroke-width:1.0;" x1="41" x2="314" y1="164.8594" y2="164.8594"/><text fill="#000000" font-family="sans-serif" font-size="20" lengthAdjust="spacing" textLength="260" x="48" y="158.1426">Create Operation Request</text><polygon fill="#181818" points="524,198.1406,534,202.1406,524,206.1406,528,202.1406" style="stroke:#181818;stroke-width:1.0;"/><line style="stroke:#181818;stroke-width:1.0;" x1="330" x2="530" y1="202.1406" y2="202.1406"/><text fill="#000000" font-family="sans-serif" font-size="20" lengthAdjust="spacing" textLength="161" x="337" y="195.4238">Submit Request</text><line style="stroke:#181818;stroke-width:1.0;" x1="546" x2="588" y1="239.4219" y2="239.4219"/><line style="stroke:#181818;stroke-width:1.0;" x1="588" x2="588" y1="239.4219" y2="252.4219"/><line style="stroke:#181818;stroke-width:1.0;" x1="547" x2="588" y1="252.4219" y2="252.4219"/><polygon fill="#181818" points="557,248.4219,547,252.4219,557,256.4219,553,252.4219" style="stroke:#181818;stroke-width:1.0;"/><text fill="#000000" font-family="sans-serif" font-size="20" lengthAdjust="spacing" textLength="318" x="553" y="232.7051">Validate Doctor's Specialization</text><polygon fill="#181818" points="871,285.7031,881,289.7031,871,293.7031,875,289.7031" style="stroke:#181818;stroke-width:1.0;"/><line style="stroke:#181818;stroke-width:1.0;" x1="546" x2="877" y1="289.7031" y2="289.7031"/><text fill="#000000" font-family="sans-serif" font-size="20" lengthAdjust="spacing" textLength="242" x="553" y="282.9863">Save Operation Request</text><polygon fill="#181818" points="557,322.9844,547,326.9844,557,330.9844,553,326.9844" style="stroke:#181818;stroke-width:1.0;"/><line style="stroke:#181818;stroke-width:1.0;stroke-dasharray:2.0,2.0;" x1="551" x2="882" y1="326.9844" y2="326.9844"/><text fill="#000000" font-family="sans-serif" font-size="20" lengthAdjust="spacing" textLength="131" x="563" y="320.2676">Confirmation</text><polygon fill="#181818" points="871,360.2656,881,364.2656,871,368.2656,875,364.2656" style="stroke:#181818;stroke-width:1.0;"/><line style="stroke:#181818;stroke-width:1.0;" x1="546" x2="877" y1="364.2656" y2="364.2656"/><text fill="#000000" font-family="sans-serif" font-size="20" lengthAdjust="spacing" textLength="220" x="553" y="357.5488">Log in Medical History</text><polygon fill="#181818" points="557,397.5469,547,401.5469,557,405.5469,553,401.5469" style="stroke:#181818;stroke-width:1.0;"/><line style="stroke:#181818;stroke-width:1.0;stroke-dasharray:2.0,2.0;" x1="551" x2="882" y1="401.5469" y2="401.5469"/><text fill="#000000" font-family="sans-serif" font-size="20" lengthAdjust="spacing" textLength="173" x="563" y="394.8301">Log Confirmation</text><polygon fill="#181818" points="341,434.8281,331,438.8281,341,442.8281,337,438.8281" style="stroke:#181818;stroke-width:1.0;"/><line style="stroke:#181818;stroke-width:1.0;stroke-dasharray:2.0,2.0;" x1="335" x2="540" y1="438.8281" y2="438.8281"/><text fill="#000000" font-family="sans-serif" font-size="20" lengthAdjust="spacing" textLength="182" x="347" y="432.1113">Success Response</text><polygon fill="#181818" points="52,472.1094,42,476.1094,52,480.1094,48,476.1094" style="stroke:#181818;stroke-width:1.0;"/><line style="stroke:#181818;stroke-width:1.0;stroke-dasharray:2.0,2.0;" x1="46" x2="324" y1="476.1094" y2="476.1094"/><text fill="#000000" font-family="sans-serif" font-size="20" lengthAdjust="spacing" textLength="233" x="58" y="469.3926">Show Success Message</text><path d="M546,489.1094 L546,638.1094 L852,638.1094 L852,499.1094 L842,489.1094 L546,489.1094 " fill="#FEFFDD" style="stroke:#181818;stroke-width:0.5;"/><path d="M842,489.1094 L842,499.1094 L852,499.1094 L842,489.1094 " fill="#FEFFDD" style="stroke:#181818;stroke-width:0.5;"/><text fill="#000000" font-family="sans-serif" font-size="20" lengthAdjust="spacing" textLength="285" x="552" y="512.6738">Operation Request includes:</text><text fill="#000000" font-family="sans-serif" font-size="20" lengthAdjust="spacing" textLength="111" x="552" y="535.9551">- Patient ID</text><text fill="#000000" font-family="sans-serif" font-size="20" lengthAdjust="spacing" textLength="106" x="552" y="559.2363">- Doctor ID</text><text fill="#000000" font-family="sans-serif" font-size="20" lengthAdjust="spacing" textLength="167" x="552" y="582.5176">- Operation Type</text><text fill="#000000" font-family="sans-serif" font-size="20" lengthAdjust="spacing" textLength="102" x="552" y="605.7988">- Deadline</text><text fill="#000000" font-family="sans-serif" font-size="20" lengthAdjust="spacing" textLength="84" x="552" y="629.0801">- Priority</text><!--SRC=[RL7DRi8m3BxdAImkErNQTkImGodL9e66rcbtanYm24cNf4pmz7FRR0EnInJd-xFZk6VNOi23zNfF1WnjiBEfzYurV2Pul5U9aoMel4u-m6jB0HDx1s_qsL5CK5l_1GKiw4WM7fJ2WJVIbLWdrjoYIp2fWxYICnF02FNy6YnHyZDMpfN1X6kC19CgtmQaAfNAdHHFuZ65MI1CTDjNtmSVUqYIL3tl-QNmcsvzu7JBaanL_h8-qBBfdyUmkmXDIvhbzJoaP6fLYY4U_uklIYYosSox3OV3ABnGBlmMsC6I36kqyCnHeawNofvngywJDvtM5ACanjQxIChGrJJrI1qd4FfEzlIZMSg1soj9_qtEooNmTfV0RteJ-6VXxBJj3CMfe0Mi12HPu4irb7avkVeJlvzQ6Wc4nh8RYrLW7pYTb6mU-d3r3G00]--></g></svg>