<?xml version="1.0" encoding="UTF-8" standalone="no"?><svg xmlns="http://www.w3.org/2000/svg" xmlns:xlink="http://www.w3.org/1999/xlink" contentStyleType="text/css" height="507px" preserveAspectRatio="none" style="width:1761px;height:507px;background:#FFFFFF;" version="1.1" viewBox="0 0 1761 507" width="1761px" zoomAndPan="magnify"><defs/><g><text fill="#000000" font-family="sans-serif" font-size="14" font-weight="bold" lengthAdjust="spacing" textLength="126" x="819.5" y="27.9951">Level 2 Diagram</text><rect fill="#FFFFFF" height="274.9688" style="stroke:#181818;stroke-width:1.0;" width="10" x="36" y="135.5781"/><rect fill="#FFFFFF" height="37.2813" style="stroke:#181818;stroke-width:1.0;" width="10" x="450" y="164.8594"/><rect fill="#FFFFFF" height="162.125" style="stroke:#181818;stroke-width:1.0;" width="10" x="450" y="239.4219"/><rect fill="#FFFFFF" height="87.5625" style="stroke:#181818;stroke-width:1.0;" width="10" x="1007" y="276.7031"/><line style="stroke:#181818;stroke-width:0.5;stroke-dasharray:5.0,5.0;" x1="41" x2="41" y1="125.5781" y2="419.5469"/><line style="stroke:#181818;stroke-width:0.5;stroke-dasharray:5.0,5.0;" x1="454.5" x2="454.5" y1="125.5781" y2="419.5469"/><line style="stroke:#181818;stroke-width:0.5;stroke-dasharray:5.0,5.0;" x1="1012" x2="1012" y1="125.5781" y2="419.5469"/><text fill="#000000" font-family="sans-serif" font-size="20" lengthAdjust="spacing" textLength="66" x="5" y="120.8613">Admin</text><ellipse cx="41" cy="50.7969" fill="#E2E2F0" rx="8" ry="8" style="stroke:#181818;stroke-width:0.5;"/><path d="M41,58.7969 L41,85.7969 M28,66.7969 L54,66.7969 M41,85.7969 L28,100.7969 M41,85.7969 L54,100.7969 " fill="none" style="stroke:#181818;stroke-width:0.5;"/><text fill="#000000" font-family="sans-serif" font-size="20" lengthAdjust="spacing" textLength="66" x="5" y="437.1113">Admin</text><ellipse cx="41" cy="450.3281" fill="#E2E2F0" rx="8" ry="8" style="stroke:#181818;stroke-width:0.5;"/><path d="M41,458.3281 L41,485.3281 M28,466.3281 L54,466.3281 M41,485.3281 L28,500.3281 M41,485.3281 L54,500.3281 " fill="none" style="stroke:#181818;stroke-width:0.5;"/><text fill="#000000" font-family="sans-serif" font-size="20" lengthAdjust="spacing" textLength="25" x="439.5" y="120.8613">FE</text><ellipse cx="455" cy="50.7969" fill="#E2E2F0" rx="8" ry="8" style="stroke:#181818;stroke-width:0.5;"/><path d="M455,58.7969 L455,85.7969 M442,66.7969 L468,66.7969 M455,85.7969 L442,100.7969 M455,85.7969 L468,100.7969 " fill="none" style="stroke:#181818;stroke-width:0.5;"/><text fill="#000000" font-family="sans-serif" font-size="20" lengthAdjust="spacing" textLength="25" x="439.5" y="437.1113">FE</text><ellipse cx="455" cy="450.3281" fill="#E2E2F0" rx="8" ry="8" style="stroke:#181818;stroke-width:0.5;"/><path d="M455,458.3281 L455,485.3281 M442,466.3281 L468,466.3281 M455,485.3281 L442,500.3281 M455,485.3281 L468,500.3281 " fill="none" style="stroke:#181818;stroke-width:0.5;"/><rect fill="#E2E2F0" height="37.2813" rx="2.5" ry="2.5" style="stroke:#181818;stroke-width:0.5;" width="60" x="982" y="87.2969"/><text fill="#000000" font-family="sans-serif" font-size="20" lengthAdjust="spacing" textLength="46" x="989" y="112.8613">MDR</text><rect fill="#E2E2F0" height="37.2813" rx="2.5" ry="2.5" style="stroke:#181818;stroke-width:0.5;" width="60" x="982" y="418.5469"/><text fill="#000000" font-family="sans-serif" font-size="20" lengthAdjust="spacing" textLength="46" x="989" y="444.1113">MDR</text><rect fill="#FFFFFF" height="274.9688" style="stroke:#181818;stroke-width:1.0;" width="10" x="36" y="135.5781"/><rect fill="#FFFFFF" height="37.2813" style="stroke:#181818;stroke-width:1.0;" width="10" x="450" y="164.8594"/><rect fill="#FFFFFF" height="162.125" style="stroke:#181818;stroke-width:1.0;" width="10" x="450" y="239.4219"/><rect fill="#FFFFFF" height="87.5625" style="stroke:#181818;stroke-width:1.0;" width="10" x="1007" y="276.7031"/><polygon fill="#000000" points="438,160.8594,448,164.8594,438,168.8594,442,164.8594" style="stroke:#000000;stroke-width:1.0;"/><line style="stroke:#000000;stroke-width:1.0;" x1="46" x2="444" y1="164.8594" y2="164.8594"/><text fill="#000000" font-family="sans-serif" font-size="20" lengthAdjust="spacing" textLength="353" x="53" y="158.1426">Asks to deactivate a operation type</text><polygon fill="#000000" points="57,198.1406,47,202.1406,57,206.1406,53,202.1406" style="stroke:#000000;stroke-width:1.0;"/><line style="stroke:#000000;stroke-width:1.0;stroke-dasharray:2.0,2.0;" x1="51" x2="454" y1="202.1406" y2="202.1406"/><text fill="#000000" font-family="sans-serif" font-size="20" lengthAdjust="spacing" textLength="294" x="63" y="195.4238">Asks for operation type name</text><polygon fill="#000000" points="438,235.4219,448,239.4219,438,243.4219,442,239.4219" style="stroke:#000000;stroke-width:1.0;"/><line style="stroke:#000000;stroke-width:1.0;" x1="46" x2="444" y1="239.4219" y2="239.4219"/><text fill="#000000" font-family="sans-serif" font-size="20" lengthAdjust="spacing" textLength="276" x="53" y="232.7051">Sends operation type name</text><polygon fill="#000000" points="995,272.7031,1005,276.7031,995,280.7031,999,276.7031" style="stroke:#000000;stroke-width:1.0;"/><line style="stroke:#000000;stroke-width:1.0;" x1="460" x2="1001" y1="276.7031" y2="276.7031"/><text fill="#000000" font-family="sans-serif" font-size="20" lengthAdjust="spacing" textLength="528" x="467" y="269.9863">Sends HTTP request to deactivate the operation type</text><line style="stroke:#000000;stroke-width:1.0;" x1="1017" x2="1059" y1="313.9844" y2="313.9844"/><line style="stroke:#000000;stroke-width:1.0;" x1="1059" x2="1059" y1="313.9844" y2="326.9844"/><line style="stroke:#000000;stroke-width:1.0;" x1="1018" x2="1059" y1="326.9844" y2="326.9844"/><polygon fill="#000000" points="1028,322.9844,1018,326.9844,1028,330.9844,1024,326.9844" style="stroke:#000000;stroke-width:1.0;"/><text fill="#000000" font-family="sans-serif" font-size="20" lengthAdjust="spacing" textLength="730" x="1024" y="307.2676">Validates operation type name and tries to deactivate the operation type</text><polygon fill="#000000" points="471,360.2656,461,364.2656,471,368.2656,467,364.2656" style="stroke:#000000;stroke-width:1.0;"/><line style="stroke:#000000;stroke-width:1.0;stroke-dasharray:2.0,2.0;" x1="465" x2="1011" y1="364.2656" y2="364.2656"/><text fill="#000000" font-family="sans-serif" font-size="20" lengthAdjust="spacing" textLength="311" x="477" y="357.5488">Returns Operation Status Code</text><polygon fill="#000000" points="57,397.5469,47,401.5469,57,405.5469,53,401.5469" style="stroke:#000000;stroke-width:1.0;"/><line style="stroke:#000000;stroke-width:1.0;stroke-dasharray:2.0,2.0;" x1="51" x2="454" y1="401.5469" y2="401.5469"/><text fill="#000000" font-family="sans-serif" font-size="20" lengthAdjust="spacing" textLength="380" x="63" y="394.8301">Returns Operation In/Sucess message</text><!--SRC=[XL9TJzmm47pthrWT3tr2XPDAFuHEIeWjAb61EDJt9Lxkt7FirDvSHQl-TpRXk8CZY4XEbDcPsV7QUUL2YmaR7-iLMR1qXvrd4mFFtL-2wP5IxDWJND2QF4oXShWGlb9BPmceQVaU6cfkAMNr8J_PmOKBnFSjGKoyZ4hjAhN7dE6V0dbAh5UB5BjWpwAFwVHqZRwZozjVLFDi1WVLYIxCbt5gYd7Wc4gNrT4u9rDQkve6gsCprUKOJIoq-Qe_3xKYfVZd4IwzyDJ_vzbRGN11u-dXG9Vcaobx2TOiG64R5m0p51jWOlIa_pTQYI6xshKO62O_gki1bwyQn6wDJ28hu70cx6zGv5K6Zd90sof2R2aXknYW7_LE9_P6mw58YutoJfg_P4F0XjGpEn5jkyqfs3mgsEynwpC_2SvlRguWqU-ECk-5vIMz6RVVjQojsK_qpafXD05WiC39KNw_ms2wsT8rSPT2XiijPSx8NOQpQ5_CeK-pczvhsVVmSTxL97UuaPVSXhqXgWS0]--></g></svg>