<?xml version="1.0" encoding="UTF-8" standalone="no"?><svg xmlns="http://www.w3.org/2000/svg" xmlns:xlink="http://www.w3.org/1999/xlink" contentStyleType="text/css" height="696px" preserveAspectRatio="none" style="width:1620px;height:696px;background:#FFFFFF;" version="1.1" viewBox="0 0 1620 696" width="1620px" zoomAndPan="magnify"><defs><filter height="300%" id="fp25s833uppzd" width="300%" x="-1" y="-1"><feGaussianBlur result="blurOut" stdDeviation="2.0"/><feColorMatrix in="blurOut" result="blurOut2" type="matrix" values="0 0 0 0 0 0 0 0 0 0 0 0 0 0 0 0 0 0 .4 0"/><feOffset dx="4.0" dy="4.0" in="blurOut2" result="blurOut3"/><feBlend in="SourceGraphic" in2="blurOut3" mode="normal"/></filter></defs><g><rect fill="#FFFFFF" filter="url(#fp25s833uppzd)" height="498.6563" style="stroke:#181818;stroke-width:1.0;" width="10" x="36" y="101.2813"/><rect fill="#FFFFFF" filter="url(#fp25s833uppzd)" height="460.375" style="stroke:#181818;stroke-width:1.0;" width="10" x="176" y="130.5625"/><rect fill="#FFFFFF" filter="url(#fp25s833uppzd)" height="385.8125" style="stroke:#181818;stroke-width:1.0;" width="10" x="374" y="167.8438"/><rect fill="#FFFFFF" filter="url(#fp25s833uppzd)" height="311.25" style="stroke:#181818;stroke-width:1.0;" width="10" x="572" y="205.125"/><rect fill="#FFFFFF" filter="url(#fp25s833uppzd)" height="236.6875" style="stroke:#181818;stroke-width:1.0;" width="10" x="877" y="242.4063"/><rect fill="#FFFFFF" filter="url(#fp25s833uppzd)" height="320.25" style="stroke:#181818;stroke-width:1.0;" width="10" x="1075" y="279.6875"/><rect fill="#FFFFFF" filter="url(#fp25s833uppzd)" height="87.5625" style="stroke:#181818;stroke-width:1.0;" width="10" x="1462.5" y="316.9688"/><line style="stroke:#181818;stroke-width:0.5;stroke-dasharray:5.0,5.0;" x1="41" x2="41" y1="91.2813" y2="608.9375"/><line style="stroke:#181818;stroke-width:0.5;stroke-dasharray:5.0,5.0;" x1="181" x2="181" y1="91.2813" y2="608.9375"/><line style="stroke:#181818;stroke-width:0.5;stroke-dasharray:5.0,5.0;" x1="378.5" x2="378.5" y1="91.2813" y2="608.9375"/><line style="stroke:#181818;stroke-width:0.5;stroke-dasharray:5.0,5.0;" x1="577" x2="577" y1="91.2813" y2="608.9375"/><line style="stroke:#181818;stroke-width:0.5;stroke-dasharray:5.0,5.0;" x1="882" x2="882" y1="91.2813" y2="608.9375"/><line style="stroke:#181818;stroke-width:0.5;stroke-dasharray:5.0,5.0;" x1="1079.5" x2="1079.5" y1="91.2813" y2="608.9375"/><line style="stroke:#181818;stroke-width:0.5;stroke-dasharray:5.0,5.0;" x1="1215.5" x2="1215.5" y1="91.2813" y2="608.9375"/><line style="stroke:#181818;stroke-width:0.5;stroke-dasharray:5.0,5.0;" x1="1467" x2="1467" y1="91.2813" y2="608.9375"/><line style="stroke:#181818;stroke-width:0.5;stroke-dasharray:5.0,5.0;" x1="1575" x2="1575" y1="91.2813" y2="608.9375"/><text fill="#000000" font-family="FG Virgil" font-size="20" lengthAdjust="spacing" textLength="66" x="5" y="86.5645">Admin</text><ellipse cx="41" cy="13.5" fill="#E2E2F0" filter="url(#fp25s833uppzd)" rx="8" ry="8" style="stroke:#181818;stroke-width:0.5;"/><path d="M41,21.5 L41,48.5 M28,29.5 L54,29.5 M41,48.5 L28,63.5 M41,48.5 L54,63.5 " fill="none" filter="url(#fp25s833uppzd)" style="stroke:#181818;stroke-width:0.5;"/><text fill="#000000" font-family="FG Virgil" font-size="20" lengthAdjust="spacing" textLength="66" x="5" y="626.502">Admin</text><ellipse cx="41" cy="639.7188" fill="#E2E2F0" filter="url(#fp25s833uppzd)" rx="8" ry="8" style="stroke:#181818;stroke-width:0.5;"/><path d="M41,647.7188 L41,674.7188 M28,655.7188 L54,655.7188 M41,674.7188 L28,689.7188 M41,674.7188 L54,689.7188 " fill="none" filter="url(#fp25s833uppzd)" style="stroke:#181818;stroke-width:0.5;"/><rect fill="#E2E2F0" filter="url(#fp25s833uppzd)" height="37.2813" rx="2.5" ry="2.5" style="stroke:#181818;stroke-width:0.5;" width="83" x="138" y="50"/><text fill="#000000" font-family="FG Virgil" font-size="20" lengthAdjust="spacing" textLength="69" x="145" y="75.5645">Routes</text><rect fill="#E2E2F0" filter="url(#fp25s833uppzd)" height="37.2813" rx="2.5" ry="2.5" style="stroke:#181818;stroke-width:0.5;" width="83" x="138" y="607.9375"/><text fill="#000000" font-family="FG Virgil" font-size="20" lengthAdjust="spacing" textLength="69" x="145" y="633.502">Routes</text><rect fill="#E2E2F0" filter="url(#fp25s833uppzd)" height="37.2813" rx="2.5" ry="2.5" style="stroke:#181818;stroke-width:0.5;" width="60" x="347.5" y="50"/><text fill="#000000" font-family="FG Virgil" font-size="20" lengthAdjust="spacing" textLength="46" x="354.5" y="75.5645">MDR</text><rect fill="#E2E2F0" filter="url(#fp25s833uppzd)" height="37.2813" rx="2.5" ry="2.5" style="stroke:#181818;stroke-width:0.5;" width="60" x="347.5" y="607.9375"/><text fill="#000000" font-family="FG Virgil" font-size="20" lengthAdjust="spacing" textLength="46" x="354.5" y="633.502">MDR</text><rect fill="#E2E2F0" filter="url(#fp25s833uppzd)" height="37.2813" rx="2.5" ry="2.5" style="stroke:#181818;stroke-width:0.5;" width="113" x="519" y="50"/><text fill="#000000" font-family="FG Virgil" font-size="20" lengthAdjust="spacing" textLength="99" x="526" y="75.5645">Controller</text><rect fill="#E2E2F0" filter="url(#fp25s833uppzd)" height="37.2813" rx="2.5" ry="2.5" style="stroke:#181818;stroke-width:0.5;" width="113" x="519" y="607.9375"/><text fill="#000000" font-family="FG Virgil" font-size="20" lengthAdjust="spacing" textLength="99" x="526" y="633.502">Controller</text><rect fill="#E2E2F0" filter="url(#fp25s833uppzd)" height="37.2813" rx="2.5" ry="2.5" style="stroke:#181818;stroke-width:0.5;" width="87" x="837" y="50"/><text fill="#000000" font-family="FG Virgil" font-size="20" lengthAdjust="spacing" textLength="73" x="844" y="75.5645">Service</text><rect fill="#E2E2F0" filter="url(#fp25s833uppzd)" height="37.2813" rx="2.5" ry="2.5" style="stroke:#181818;stroke-width:0.5;" width="87" x="837" y="607.9375"/><text fill="#000000" font-family="FG Virgil" font-size="20" lengthAdjust="spacing" textLength="73" x="844" y="633.502">Service</text><rect fill="#E2E2F0" filter="url(#fp25s833uppzd)" height="37.2813" rx="2.5" ry="2.5" style="stroke:#181818;stroke-width:0.5;" width="188" x="984.5" y="50"/><text fill="#000000" font-family="FG Virgil" font-size="20" lengthAdjust="spacing" textLength="174" x="991.5" y="75.5645">CreatingUserDTO</text><rect fill="#E2E2F0" filter="url(#fp25s833uppzd)" height="37.2813" rx="2.5" ry="2.5" style="stroke:#181818;stroke-width:0.5;" width="188" x="984.5" y="607.9375"/><text fill="#000000" font-family="FG Virgil" font-size="20" lengthAdjust="spacing" textLength="174" x="991.5" y="633.502">CreatingUserDTO</text><rect fill="#E2E2F0" filter="url(#fp25s833uppzd)" height="37.2813" rx="2.5" ry="2.5" style="stroke:#181818;stroke-width:0.5;" width="57" x="1185.5" y="50"/><text fill="#000000" font-family="FG Virgil" font-size="20" lengthAdjust="spacing" textLength="43" x="1192.5" y="75.5645">DTO</text><rect fill="#E2E2F0" filter="url(#fp25s833uppzd)" height="37.2813" rx="2.5" ry="2.5" style="stroke:#181818;stroke-width:0.5;" width="57" x="1185.5" y="607.9375"/><text fill="#000000" font-family="FG Virgil" font-size="20" lengthAdjust="spacing" textLength="43" x="1192.5" y="633.502">DTO</text><rect fill="#E2E2F0" filter="url(#fp25s833uppzd)" height="37.2813" rx="2.5" ry="2.5" style="stroke:#181818;stroke-width:0.5;" width="120" x="1406" y="50"/><text fill="#000000" font-family="FG Virgil" font-size="20" lengthAdjust="spacing" textLength="106" x="1413" y="75.5645">Repository</text><rect fill="#E2E2F0" filter="url(#fp25s833uppzd)" height="37.2813" rx="2.5" ry="2.5" style="stroke:#181818;stroke-width:0.5;" width="120" x="1406" y="607.9375"/><text fill="#000000" font-family="FG Virgil" font-size="20" lengthAdjust="spacing" textLength="106" x="1413" y="633.502">Repository</text><rect fill="#E2E2F0" filter="url(#fp25s833uppzd)" height="37.2813" rx="2.5" ry="2.5" style="stroke:#181818;stroke-width:0.5;" width="69" x="1539" y="50"/><text fill="#000000" font-family="FG Virgil" font-size="20" lengthAdjust="spacing" textLength="55" x="1546" y="75.5645">USER</text><rect fill="#E2E2F0" filter="url(#fp25s833uppzd)" height="37.2813" rx="2.5" ry="2.5" style="stroke:#181818;stroke-width:0.5;" width="69" x="1539" y="607.9375"/><text fill="#000000" font-family="FG Virgil" font-size="20" lengthAdjust="spacing" textLength="55" x="1546" y="633.502">USER</text><rect fill="#FFFFFF" filter="url(#fp25s833uppzd)" height="498.6563" style="stroke:#181818;stroke-width:1.0;" width="10" x="36" y="101.2813"/><rect fill="#FFFFFF" filter="url(#fp25s833uppzd)" height="460.375" style="stroke:#181818;stroke-width:1.0;" width="10" x="176" y="130.5625"/><rect fill="#FFFFFF" filter="url(#fp25s833uppzd)" height="385.8125" style="stroke:#181818;stroke-width:1.0;" width="10" x="374" y="167.8438"/><rect fill="#FFFFFF" filter="url(#fp25s833uppzd)" height="311.25" style="stroke:#181818;stroke-width:1.0;" width="10" x="572" y="205.125"/><rect fill="#FFFFFF" filter="url(#fp25s833uppzd)" height="236.6875" style="stroke:#181818;stroke-width:1.0;" width="10" x="877" y="242.4063"/><rect fill="#FFFFFF" filter="url(#fp25s833uppzd)" height="320.25" style="stroke:#181818;stroke-width:1.0;" width="10" x="1075" y="279.6875"/><rect fill="#FFFFFF" filter="url(#fp25s833uppzd)" height="87.5625" style="stroke:#181818;stroke-width:1.0;" width="10" x="1462.5" y="316.9688"/><polygon fill="#181818" points="164,126.5625,174,130.5625,164,134.5625,168,130.5625" style="stroke:#181818;stroke-width:1.0;"/><line style="stroke:#181818;stroke-width:1.0;" x1="46" x2="170" y1="130.5625" y2="130.5625"/><text fill="#000000" font-family="FG Virgil" font-size="20" lengthAdjust="spacing" textLength="111" x="53" y="123.8457">post(\data)</text><polygon fill="#181818" points="362,163.8438,372,167.8438,362,171.8438,366,167.8438" style="stroke:#181818;stroke-width:1.0;"/><line style="stroke:#181818;stroke-width:1.0;" x1="186" x2="368" y1="167.8438" y2="167.8438"/><text fill="#000000" font-family="FG Virgil" font-size="20" lengthAdjust="spacing" textLength="169" x="193" y="161.127">createUser(data)</text><polygon fill="#181818" points="560,201.125,570,205.125,560,209.125,564,205.125" style="stroke:#181818;stroke-width:1.0;"/><line style="stroke:#181818;stroke-width:1.0;" x1="384" x2="566" y1="205.125" y2="205.125"/><text fill="#000000" font-family="FG Virgil" font-size="20" lengthAdjust="spacing" textLength="169" x="391" y="198.4082">createUser(data)</text><polygon fill="#181818" points="865,238.4063,875,242.4063,865,246.4063,869,242.4063" style="stroke:#181818;stroke-width:1.0;"/><line style="stroke:#181818;stroke-width:1.0;" x1="582" x2="871" y1="242.4063" y2="242.4063"/><text fill="#000000" font-family="FG Virgil" font-size="20" lengthAdjust="spacing" textLength="276" x="589" y="235.6895">instance().createUser(data)</text><polygon fill="#181818" points="1063,275.6875,1073,279.6875,1063,283.6875,1067,279.6875" style="stroke:#181818;stroke-width:1.0;"/><line style="stroke:#181818;stroke-width:1.0;" x1="887" x2="1069" y1="279.6875" y2="279.6875"/><text fill="#000000" font-family="FG Virgil" font-size="20" lengthAdjust="spacing" textLength="169" x="894" y="272.9707">createUser(data)</text><polygon fill="#181818" points="1450.5,312.9688,1460.5,316.9688,1450.5,320.9688,1454.5,316.9688" style="stroke:#181818;stroke-width:1.0;"/><line style="stroke:#181818;stroke-width:1.0;" x1="1215.5" x2="1456.5" y1="316.9688" y2="316.9688"/><text fill="#000000" font-family="FG Virgil" font-size="20" lengthAdjust="spacing" textLength="228" x="1222.5" y="310.252">saveBuilding(building)</text><line style="stroke:#181818;stroke-width:1.0;" x1="1472.5" x2="1514.5" y1="354.25" y2="354.25"/><line style="stroke:#181818;stroke-width:1.0;" x1="1514.5" x2="1514.5" y1="354.25" y2="367.25"/><line style="stroke:#181818;stroke-width:1.0;" x1="1473.5" x2="1514.5" y1="367.25" y2="367.25"/><polygon fill="#181818" points="1483.5,363.25,1473.5,367.25,1483.5,371.25,1479.5,367.25" style="stroke:#181818;stroke-width:1.0;"/><text fill="#000000" font-family="FG Virgil" font-size="20" lengthAdjust="spacing" textLength="61" x="1479.5" y="347.5332">save()</text><polygon fill="#181818" points="1226.5,400.5313,1216.5,404.5313,1226.5,408.5313,1222.5,404.5313" style="stroke:#181818;stroke-width:1.0;"/><line style="stroke:#181818;stroke-width:1.0;stroke-dasharray:2.0,2.0;" x1="1220.5" x2="1466.5" y1="404.5313" y2="404.5313"/><text fill="#000000" font-family="FG Virgil" font-size="20" lengthAdjust="spacing" textLength="39" x="1232.5" y="397.8145">200</text><polygon fill="#181818" points="898,437.8125,888,441.8125,898,445.8125,894,441.8125" style="stroke:#181818;stroke-width:1.0;"/><line style="stroke:#181818;stroke-width:1.0;stroke-dasharray:2.0,2.0;" x1="892" x2="1214.5" y1="441.8125" y2="441.8125"/><text fill="#000000" font-family="FG Virgil" font-size="20" lengthAdjust="spacing" textLength="39" x="904" y="435.0957">200</text><polygon fill="#181818" points="593,475.0938,583,479.0938,593,483.0938,589,479.0938" style="stroke:#181818;stroke-width:1.0;"/><line style="stroke:#181818;stroke-width:1.0;stroke-dasharray:2.0,2.0;" x1="587" x2="881" y1="479.0938" y2="479.0938"/><text fill="#000000" font-family="FG Virgil" font-size="20" lengthAdjust="spacing" textLength="39" x="599" y="472.377">200</text><polygon fill="#181818" points="395,512.375,385,516.375,395,520.375,391,516.375" style="stroke:#181818;stroke-width:1.0;"/><line style="stroke:#181818;stroke-width:1.0;stroke-dasharray:2.0,2.0;" x1="389" x2="576" y1="516.375" y2="516.375"/><text fill="#000000" font-family="FG Virgil" font-size="20" lengthAdjust="spacing" textLength="39" x="401" y="509.6582">200</text><polygon fill="#181818" points="197,549.6563,187,553.6563,197,557.6563,193,553.6563" style="stroke:#181818;stroke-width:1.0;"/><line style="stroke:#181818;stroke-width:1.0;stroke-dasharray:2.0,2.0;" x1="191" x2="378" y1="553.6563" y2="553.6563"/><text fill="#000000" font-family="FG Virgil" font-size="20" lengthAdjust="spacing" textLength="39" x="203" y="546.9395">200</text><polygon fill="#181818" points="1563,586.9375,1573,590.9375,1563,594.9375,1567,590.9375" style="stroke:#181818;stroke-width:1.0;"/><line style="stroke:#181818;stroke-width:1.0;stroke-dasharray:2.0,2.0;" x1="181" x2="1569" y1="590.9375" y2="590.9375"/><text fill="#000000" font-family="FG Virgil" font-size="20" lengthAdjust="spacing" textLength="165" x="188" y="584.2207">building created</text><!--SRC=[VP9DKyCW48Rl_0fkfeT-J8yvE5EDzQJEDDQJbnMs2LC24KWxzTSBQTBIM7jWMBBFlbdUnMw5gi509JNR8gSSDz18jzJAvU87wNn6xahdQfjEfxK4vPfAJfYkfXQ_6rGCnrn0uUk9xPLe2OhlZN0E5Ts0j1ZbAgqqAusky4-g1hQ50dDta4WDCXVbehPUmTSkd-c7C8MG4MDBu7elL46TQP0GO4uRkk2LK1GiNMJj9x43X-6moCRtTAKRXpQbjROk-UJWO7I6ZabotAYdNx9LIfb1drnRDCc0zsdYLo0VVQD6IudcLi6P8kSmbETeTe9XIeMo3hpBoMZolqn7asvl_nzWRqN0i_UtcqrSeiIleB12xudm3XvIQc673usGt6F9LnV4HfrOSWwlYIIZ2y0JRNFpsOnml2RNDXCRCa13mwTh3tmVeBrBiTFzJ0TeD9Tsdj536P1XvFtxyDGwV_9glKETwVpYRiStzGi0]--></g></svg>