<?xml version="1.0" encoding="UTF-8" standalone="no"?><svg xmlns="http://www.w3.org/2000/svg" xmlns:xlink="http://www.w3.org/1999/xlink" contentStyleType="text/css" height="1006px" preserveAspectRatio="none" style="width:1953px;height:1006px;background:#FFFFFF;" version="1.1" viewBox="0 0 1953 1006" width="1953px" zoomAndPan="magnify"><defs/><g><text fill="#000000" font-family="sans-serif" font-size="14" font-weight="bold" lengthAdjust="spacing" textLength="126" x="915.5" y="27.9951">Level 2 Diagram</text><rect fill="#FFFFFF" height="774.3438" style="stroke:#181818;stroke-width:1.0;" width="10" x="36" y="135.5781"/><rect fill="#FFFFFF" height="536.6563" style="stroke:#181818;stroke-width:1.0;" width="10" x="694" y="164.8594"/><rect fill="#FFFFFF" height="162.125" style="stroke:#181818;stroke-width:1.0;" width="10" x="694" y="738.7969"/><rect fill="#FFFFFF" height="87.5625" style="stroke:#181818;stroke-width:1.0;" width="10" x="1194" y="451.8281"/><rect fill="#FFFFFF" height="87.5625" style="stroke:#181818;stroke-width:1.0;" width="10" x="1194" y="576.6719"/><rect fill="#FFFFFF" height="87.5625" style="stroke:#181818;stroke-width:1.0;" width="10" x="1194" y="776.0781"/><rect fill="#FFFFFF" height="87.5625" style="stroke:#181818;stroke-width:1.0;" width="10" x="1657" y="202.1406"/><rect fill="#FFFFFF" height="87.5625" style="stroke:#181818;stroke-width:1.0;" width="10" x="1657" y="326.9844"/><line style="stroke:#181818;stroke-width:0.5;stroke-dasharray:5.0,5.0;" x1="41" x2="41" y1="125.5781" y2="918.9219"/><line style="stroke:#181818;stroke-width:0.5;stroke-dasharray:5.0,5.0;" x1="698.5" x2="698.5" y1="125.5781" y2="918.9219"/><line style="stroke:#181818;stroke-width:0.5;stroke-dasharray:5.0,5.0;" x1="1199" x2="1199" y1="125.5781" y2="918.9219"/><line style="stroke:#181818;stroke-width:0.5;stroke-dasharray:5.0,5.0;" x1="1662" x2="1662" y1="125.5781" y2="918.9219"/><text fill="#000000" font-family="sans-serif" font-size="20" lengthAdjust="spacing" textLength="66" x="5" y="120.8613">Doctor</text><ellipse cx="41" cy="50.7969" fill="#E2E2F0" rx="8" ry="8" style="stroke:#181818;stroke-width:0.5;"/><path d="M41,58.7969 L41,85.7969 M28,66.7969 L54,66.7969 M41,85.7969 L28,100.7969 M41,85.7969 L54,100.7969 " fill="none" style="stroke:#181818;stroke-width:0.5;"/><text fill="#000000" font-family="sans-serif" font-size="20" lengthAdjust="spacing" textLength="66" x="5" y="936.4863">Doctor</text><ellipse cx="41" cy="949.7031" fill="#E2E2F0" rx="8" ry="8" style="stroke:#181818;stroke-width:0.5;"/><path d="M41,957.7031 L41,984.7031 M28,965.7031 L54,965.7031 M41,984.7031 L28,999.7031 M41,984.7031 L54,999.7031 " fill="none" style="stroke:#181818;stroke-width:0.5;"/><rect fill="#E2E2F0" height="37.2813" rx="2.5" ry="2.5" style="stroke:#181818;stroke-width:0.5;" width="39" x="679.5" y="87.2969"/><text fill="#000000" font-family="sans-serif" font-size="20" lengthAdjust="spacing" textLength="25" x="686.5" y="112.8613">FE</text><rect fill="#E2E2F0" height="37.2813" rx="2.5" ry="2.5" style="stroke:#181818;stroke-width:0.5;" width="39" x="679.5" y="917.9219"/><text fill="#000000" font-family="sans-serif" font-size="20" lengthAdjust="spacing" textLength="25" x="686.5" y="943.4863">FE</text><rect fill="#E2E2F0" height="37.2813" rx="2.5" ry="2.5" style="stroke:#181818;stroke-width:0.5;" width="60" x="1169" y="87.2969"/><text fill="#000000" font-family="sans-serif" font-size="20" lengthAdjust="spacing" textLength="46" x="1176" y="112.8613">MDV</text><rect fill="#E2E2F0" height="37.2813" rx="2.5" ry="2.5" style="stroke:#181818;stroke-width:0.5;" width="60" x="1169" y="917.9219"/><text fill="#000000" font-family="sans-serif" font-size="20" lengthAdjust="spacing" textLength="46" x="1176" y="943.4863">MDV</text><rect fill="#E2E2F0" height="37.2813" rx="2.5" ry="2.5" style="stroke:#181818;stroke-width:0.5;" width="60" x="1632" y="87.2969"/><text fill="#000000" font-family="sans-serif" font-size="20" lengthAdjust="spacing" textLength="46" x="1639" y="112.8613">MDR</text><rect fill="#E2E2F0" height="37.2813" rx="2.5" ry="2.5" style="stroke:#181818;stroke-width:0.5;" width="60" x="1632" y="917.9219"/><text fill="#000000" font-family="sans-serif" font-size="20" lengthAdjust="spacing" textLength="46" x="1639" y="943.4863">MDR</text><rect fill="#FFFFFF" height="774.3438" style="stroke:#181818;stroke-width:1.0;" width="10" x="36" y="135.5781"/><rect fill="#FFFFFF" height="536.6563" style="stroke:#181818;stroke-width:1.0;" width="10" x="694" y="164.8594"/><rect fill="#FFFFFF" height="162.125" style="stroke:#181818;stroke-width:1.0;" width="10" x="694" y="738.7969"/><rect fill="#FFFFFF" height="87.5625" style="stroke:#181818;stroke-width:1.0;" width="10" x="1194" y="451.8281"/><rect fill="#FFFFFF" height="87.5625" style="stroke:#181818;stroke-width:1.0;" width="10" x="1194" y="576.6719"/><rect fill="#FFFFFF" height="87.5625" style="stroke:#181818;stroke-width:1.0;" width="10" x="1194" y="776.0781"/><rect fill="#FFFFFF" height="87.5625" style="stroke:#181818;stroke-width:1.0;" width="10" x="1657" y="202.1406"/><rect fill="#FFFFFF" height="87.5625" style="stroke:#181818;stroke-width:1.0;" width="10" x="1657" y="326.9844"/><polygon fill="#000000" points="682,160.8594,692,164.8594,682,168.8594,686,164.8594" style="stroke:#000000;stroke-width:1.0;"/><line style="stroke:#000000;stroke-width:1.0;" x1="46" x2="688" y1="164.8594" y2="164.8594"/><text fill="#000000" font-family="sans-serif" font-size="20" lengthAdjust="spacing" textLength="564" x="53" y="158.1426">Asks to update an appointment for an operation request</text><polygon fill="#000000" points="1645,198.1406,1655,202.1406,1645,206.1406,1649,202.1406" style="stroke:#000000;stroke-width:1.0;"/><line style="stroke:#000000;stroke-width:1.0;" x1="704" x2="1651" y1="202.1406" y2="202.1406"/><text fill="#000000" font-family="sans-serif" font-size="20" lengthAdjust="spacing" textLength="460" x="711" y="195.4238">Makes Http Request to get Operation Request</text><line style="stroke:#000000;stroke-width:1.0;" x1="1667" x2="1709" y1="239.4219" y2="239.4219"/><line style="stroke:#000000;stroke-width:1.0;" x1="1709" x2="1709" y1="239.4219" y2="252.4219"/><line style="stroke:#000000;stroke-width:1.0;" x1="1668" x2="1709" y1="252.4219" y2="252.4219"/><polygon fill="#000000" points="1678,248.4219,1668,252.4219,1678,256.4219,1674,252.4219" style="stroke:#000000;stroke-width:1.0;"/><text fill="#000000" font-family="sans-serif" font-size="20" lengthAdjust="spacing" textLength="272" x="1674" y="232.7051">Fetches Operation Request</text><polygon fill="#000000" points="715,285.7031,705,289.7031,715,293.7031,711,289.7031" style="stroke:#000000;stroke-width:1.0;"/><line style="stroke:#000000;stroke-width:1.0;stroke-dasharray:2.0,2.0;" x1="709" x2="1661" y1="289.7031" y2="289.7031"/><text fill="#000000" font-family="sans-serif" font-size="20" lengthAdjust="spacing" textLength="280" x="721" y="282.9863">returns Operation Response</text><polygon fill="#000000" points="1645,322.9844,1655,326.9844,1645,330.9844,1649,326.9844" style="stroke:#000000;stroke-width:1.0;"/><line style="stroke:#000000;stroke-width:1.0;" x1="704" x2="1651" y1="326.9844" y2="326.9844"/><text fill="#000000" font-family="sans-serif" font-size="20" lengthAdjust="spacing" textLength="386" x="711" y="320.2676">Makes Http Request to get Staff's data</text><line style="stroke:#000000;stroke-width:1.0;" x1="1667" x2="1709" y1="364.2656" y2="364.2656"/><line style="stroke:#000000;stroke-width:1.0;" x1="1709" x2="1709" y1="364.2656" y2="377.2656"/><line style="stroke:#000000;stroke-width:1.0;" x1="1668" x2="1709" y1="377.2656" y2="377.2656"/><polygon fill="#000000" points="1678,373.2656,1668,377.2656,1678,381.2656,1674,377.2656" style="stroke:#000000;stroke-width:1.0;"/><text fill="#000000" font-family="sans-serif" font-size="20" lengthAdjust="spacing" textLength="198" x="1674" y="357.5488">Fetches Staff's data</text><polygon fill="#000000" points="715,410.5469,705,414.5469,715,418.5469,711,414.5469" style="stroke:#000000;stroke-width:1.0;"/><line style="stroke:#000000;stroke-width:1.0;stroke-dasharray:2.0,2.0;" x1="709" x2="1661" y1="414.5469" y2="414.5469"/><text fill="#000000" font-family="sans-serif" font-size="20" lengthAdjust="spacing" textLength="280" x="721" y="407.8301">returns Operation Response</text><polygon fill="#000000" points="1182,447.8281,1192,451.8281,1182,455.8281,1186,451.8281" style="stroke:#000000;stroke-width:1.0;"/><line style="stroke:#000000;stroke-width:1.0;" x1="704" x2="1188" y1="451.8281" y2="451.8281"/><text fill="#000000" font-family="sans-serif" font-size="20" lengthAdjust="spacing" textLength="397" x="711" y="445.1113">Makes Http Request to get Room's data</text><line style="stroke:#000000;stroke-width:1.0;" x1="1204" x2="1246" y1="489.1094" y2="489.1094"/><line style="stroke:#000000;stroke-width:1.0;" x1="1246" x2="1246" y1="489.1094" y2="502.1094"/><line style="stroke:#000000;stroke-width:1.0;" x1="1205" x2="1246" y1="502.1094" y2="502.1094"/><polygon fill="#000000" points="1215,498.1094,1205,502.1094,1215,506.1094,1211,502.1094" style="stroke:#000000;stroke-width:1.0;"/><text fill="#000000" font-family="sans-serif" font-size="20" lengthAdjust="spacing" textLength="209" x="1211" y="482.3926">Fetches Room's data</text><polygon fill="#000000" points="715,535.3906,705,539.3906,715,543.3906,711,539.3906" style="stroke:#000000;stroke-width:1.0;"/><line style="stroke:#000000;stroke-width:1.0;stroke-dasharray:2.0,2.0;" x1="709" x2="1198" y1="539.3906" y2="539.3906"/><text fill="#000000" font-family="sans-serif" font-size="20" lengthAdjust="spacing" textLength="270" x="721" y="532.6738">return Operation Response</text><polygon fill="#000000" points="1182,572.6719,1192,576.6719,1182,580.6719,1186,576.6719" style="stroke:#000000;stroke-width:1.0;"/><line style="stroke:#000000;stroke-width:1.0;" x1="704" x2="1188" y1="576.6719" y2="576.6719"/><text fill="#000000" font-family="sans-serif" font-size="20" lengthAdjust="spacing" textLength="455" x="711" y="569.9551">Makes Http Request to get Appointment data</text><line style="stroke:#000000;stroke-width:1.0;" x1="1204" x2="1246" y1="613.9531" y2="613.9531"/><line style="stroke:#000000;stroke-width:1.0;" x1="1246" x2="1246" y1="613.9531" y2="626.9531"/><line style="stroke:#000000;stroke-width:1.0;" x1="1205" x2="1246" y1="626.9531" y2="626.9531"/><polygon fill="#000000" points="1215,622.9531,1205,626.9531,1215,630.9531,1211,626.9531" style="stroke:#000000;stroke-width:1.0;"/><text fill="#000000" font-family="sans-serif" font-size="20" lengthAdjust="spacing" textLength="267" x="1211" y="607.2363">Fetches Appointment data</text><polygon fill="#000000" points="715,660.2344,705,664.2344,715,668.2344,711,664.2344" style="stroke:#000000;stroke-width:1.0;"/><line style="stroke:#000000;stroke-width:1.0;stroke-dasharray:2.0,2.0;" x1="709" x2="1198" y1="664.2344" y2="664.2344"/><text fill="#000000" font-family="sans-serif" font-size="20" lengthAdjust="spacing" textLength="280" x="721" y="657.5176">returns Operation Response</text><polygon fill="#000000" points="57,697.5156,47,701.5156,57,705.5156,53,701.5156" style="stroke:#000000;stroke-width:1.0;"/><line style="stroke:#000000;stroke-width:1.0;stroke-dasharray:2.0,2.0;" x1="51" x2="698" y1="701.5156" y2="701.5156"/><text fill="#000000" font-family="sans-serif" font-size="20" lengthAdjust="spacing" textLength="624" x="63" y="694.7988">Displays the fetched data and asks for the appointment's data</text><polygon fill="#000000" points="682,734.7969,692,738.7969,682,742.7969,686,738.7969" style="stroke:#000000;stroke-width:1.0;"/><line style="stroke:#000000;stroke-width:1.0;" x1="46" x2="688" y1="738.7969" y2="738.7969"/><text fill="#000000" font-family="sans-serif" font-size="20" lengthAdjust="spacing" textLength="521" x="53" y="732.0801">Sends appointment's data (DateTime, Room, Team)</text><polygon fill="#000000" points="1182,772.0781,1192,776.0781,1182,780.0781,1186,776.0781" style="stroke:#000000;stroke-width:1.0;"/><line style="stroke:#000000;stroke-width:1.0;" x1="704" x2="1188" y1="776.0781" y2="776.0781"/><text fill="#000000" font-family="sans-serif" font-size="20" lengthAdjust="spacing" textLength="471" x="711" y="769.3613">Makes Http Request to update an appointment</text><line style="stroke:#000000;stroke-width:1.0;" x1="1204" x2="1246" y1="813.3594" y2="813.3594"/><line style="stroke:#000000;stroke-width:1.0;" x1="1246" x2="1246" y1="813.3594" y2="826.3594"/><line style="stroke:#000000;stroke-width:1.0;" x1="1205" x2="1246" y1="826.3594" y2="826.3594"/><polygon fill="#000000" points="1215,822.3594,1205,826.3594,1215,830.3594,1211,826.3594" style="stroke:#000000;stroke-width:1.0;"/><text fill="#000000" font-family="sans-serif" font-size="20" lengthAdjust="spacing" textLength="439" x="1211" y="806.6426">Validates appointment's data and creates it</text><polygon fill="#000000" points="715,859.6406,705,863.6406,715,867.6406,711,863.6406" style="stroke:#000000;stroke-width:1.0;"/><line style="stroke:#000000;stroke-width:1.0;stroke-dasharray:2.0,2.0;" x1="709" x2="1198" y1="863.6406" y2="863.6406"/><text fill="#000000" font-family="sans-serif" font-size="20" lengthAdjust="spacing" textLength="286" x="721" y="856.9238">Returns Operation Response</text><polygon fill="#000000" points="57,896.9219,47,900.9219,57,904.9219,53,900.9219" style="stroke:#000000;stroke-width:1.0;"/><line style="stroke:#000000;stroke-width:1.0;stroke-dasharray:2.0,2.0;" x1="51" x2="698" y1="900.9219" y2="900.9219"/><text fill="#000000" font-family="sans-serif" font-size="20" lengthAdjust="spacing" textLength="380" x="63" y="894.2051">Returns Operation In/Sucess message</text><!--SRC=[fPHlQzim4CRVwrCSz4Ktw5WNsBzG0lPiiq5BmIbvhzgNH8ijQT8v8nlxxZifInidxXeslx3Wxhb7FvzFyYkbhNIoRKormXfgdCkkeS9ecgeV2ADB8KXHWt2DQsnW19cI2zOBiLGr0hQMDj1YUu_EYtE_iuDhfP4s5i4uMXeX7ZDL8xs7dmBuIMMrMZZJwVgJQOoxkbhBfiFR-wzOqMG2PzcxF2a-34kTCL5JP7cQNGvhFBgrgZ1QlIb6UJeaOuky-9Y_Zxd4EVDz6quRrebV- -oM8tA1m_HmbgV5so8D9R8Y3cGcBj938jY0LAMir0H57c95tWlUPBCGvUKWN6x3PNHLQqd8TWcych3361A_ya06Ebk7ZDGWhJLAKujSFG_RQp0MdIHbD3Zyrg6dHokcO1msunt6S2DNwE4paOLogmpU2oIuVR0e3oq2My3ScHH8rP9jZakYwW-uG-gSxgkyDTgZgB7dVHBVbEHyVkw1ko2VH-kf_uzgzZUgqfXs06ecmj_UbU-WziKntsDw5cbs6bAoDnwdSHrL7CFv4-cuA1dp7U9j8pSyjqk4UTobZiuygpLFEqzq6DoGtHlcNMlsR7bu7mx257Nj1_Jm8cFfdMhn8dRu0kvGjYy7Jy2JZHiyNKztRYOR5Ge6US8tLWvZMb6lcUK_DFEuvej-FUqgv5ksvHVVLmSj-mq0]--></g></svg>