<?xml version="1.0" encoding="UTF-8" standalone="no"?><svg xmlns="http://www.w3.org/2000/svg" xmlns:xlink="http://www.w3.org/1999/xlink" contentStyleType="text/css" height="1834px" preserveAspectRatio="none" style="width:3646px;height:1834px;background:#FFFFFF;" version="1.1" viewBox="0 0 3646 1834" width="3646px" zoomAndPan="magnify"><defs/><g><text fill="#000000" font-family="sans-serif" font-size="14" font-weight="bold" lengthAdjust="spacing" textLength="294" x="1678" y="27.9951">Level 3 FE Diagram for Updating Staff</text><rect fill="#FFFFFF" height="1602.5313" style="stroke:#181818;stroke-width:1.0;" width="10" x="36" y="135.5781"/><rect fill="#FFFFFF" height="981.0313" style="stroke:#181818;stroke-width:1.0;" width="10" x="657" y="164.8594"/><rect fill="#FFFFFF" height="545.9375" style="stroke:#181818;stroke-width:1.0;" width="10" x="657" y="1183.1719"/><rect fill="#FFFFFF" height="37.2813" style="stroke:#181818;stroke-width:1.0;" width="10" x="947" y="202.1406"/><rect fill="#FFFFFF" height="869.1875" style="stroke:#181818;stroke-width:1.0;" width="10" x="1308" y="239.4219"/><rect fill="#FFFFFF" height="428.0938" style="stroke:#181818;stroke-width:1.0;" width="10" x="1308" y="1263.7344"/><rect fill="#FFFFFF" height="353.5313" style="stroke:#181818;stroke-width:1.0;" width="10" x="1859" y="326.9844"/><rect fill="#FFFFFF" height="353.5313" style="stroke:#181818;stroke-width:1.0;" width="10" x="1859" y="717.7969"/><rect fill="#FFFFFF" height="353.5313" style="stroke:#181818;stroke-width:1.0;" width="10" x="1859" y="1301.0156"/><rect fill="#FFFFFF" height="278.9688" style="stroke:#181818;stroke-width:1.0;" width="10" x="2505" y="364.2656"/><rect fill="#FFFFFF" height="278.9688" style="stroke:#181818;stroke-width:1.0;" width="10" x="2505" y="755.0781"/><rect fill="#FFFFFF" height="278.9688" style="stroke:#181818;stroke-width:1.0;" width="10" x="2505" y="1338.2969"/><rect fill="#FFFFFF" height="87.5625" style="stroke:#181818;stroke-width:1.0;" width="10" x="3092" y="518.3906"/><rect fill="#FFFFFF" height="87.5625" style="stroke:#181818;stroke-width:1.0;" width="10" x="3092" y="909.2031"/><rect fill="#FFFFFF" height="87.5625" style="stroke:#181818;stroke-width:1.0;" width="10" x="3092" y="1492.4219"/><line style="stroke:#181818;stroke-width:0.5;stroke-dasharray:5.0,5.0;" x1="41" x2="41" y1="125.5781" y2="1747.1094"/><line style="stroke:#181818;stroke-width:0.5;stroke-dasharray:5.0,5.0;" x1="661.5" x2="661.5" y1="125.5781" y2="1747.1094"/><line style="stroke:#181818;stroke-width:0.5;stroke-dasharray:5.0,5.0;" x1="951.5" x2="951.5" y1="125.5781" y2="1747.1094"/><line style="stroke:#181818;stroke-width:0.5;stroke-dasharray:5.0,5.0;" x1="1312.5" x2="1312.5" y1="125.5781" y2="1747.1094"/><line style="stroke:#181818;stroke-width:0.5;stroke-dasharray:5.0,5.0;" x1="1864" x2="1864" y1="125.5781" y2="1747.1094"/><line style="stroke:#181818;stroke-width:0.5;stroke-dasharray:5.0,5.0;" x1="2509.5" x2="2509.5" y1="125.5781" y2="1747.1094"/><line style="stroke:#181818;stroke-width:0.5;stroke-dasharray:5.0,5.0;" x1="3097" x2="3097" y1="125.5781" y2="1747.1094"/><text fill="#000000" font-family="sans-serif" font-size="20" lengthAdjust="spacing" textLength="66" x="5" y="120.8613">Admin</text><ellipse cx="41" cy="50.7969" fill="#E2E2F0" rx="8" ry="8" style="stroke:#181818;stroke-width:0.5;"/><path d="M41,58.7969 L41,85.7969 M28,66.7969 L54,66.7969 M41,85.7969 L28,100.7969 M41,85.7969 L54,100.7969 " fill="none" style="stroke:#181818;stroke-width:0.5;"/><text fill="#000000" font-family="sans-serif" font-size="20" lengthAdjust="spacing" textLength="66" x="5" y="1764.6738">Admin</text><ellipse cx="41" cy="1777.8906" fill="#E2E2F0" rx="8" ry="8" style="stroke:#181818;stroke-width:0.5;"/><path d="M41,1785.8906 L41,1812.8906 M28,1793.8906 L54,1793.8906 M41,1812.8906 L28,1827.8906 M41,1812.8906 L54,1827.8906 " fill="none" style="stroke:#181818;stroke-width:0.5;"/><rect fill="#E2E2F0" height="37.2813" rx="2.5" ry="2.5" style="stroke:#181818;stroke-width:0.5;" width="63" x="630.5" y="87.2969"/><text fill="#000000" font-family="sans-serif" font-size="20" lengthAdjust="spacing" textLength="49" x="637.5" y="112.8613">View</text><rect fill="#E2E2F0" height="37.2813" rx="2.5" ry="2.5" style="stroke:#181818;stroke-width:0.5;" width="63" x="630.5" y="1746.1094"/><text fill="#000000" font-family="sans-serif" font-size="20" lengthAdjust="spacing" textLength="49" x="637.5" y="1771.6738">View</text><rect fill="#E2E2F0" height="37.2813" rx="2.5" ry="2.5" style="stroke:#181818;stroke-width:0.5;" width="257" x="823.5" y="87.2969"/><text fill="#000000" font-family="sans-serif" font-size="20" lengthAdjust="spacing" textLength="243" x="830.5" y="112.8613">SearchStaffsComponent</text><rect fill="#E2E2F0" height="37.2813" rx="2.5" ry="2.5" style="stroke:#181818;stroke-width:0.5;" width="257" x="823.5" y="1746.1094"/><text fill="#000000" font-family="sans-serif" font-size="20" lengthAdjust="spacing" textLength="243" x="830.5" y="1771.6738">SearchStaffsComponent</text><rect fill="#E2E2F0" height="37.2813" rx="2.5" ry="2.5" style="stroke:#181818;stroke-width:0.5;" width="251" x="1187.5" y="87.2969"/><text fill="#000000" font-family="sans-serif" font-size="20" lengthAdjust="spacing" textLength="237" x="1194.5" y="112.8613">UpdateStaffComponent</text><rect fill="#E2E2F0" height="37.2813" rx="2.5" ry="2.5" style="stroke:#181818;stroke-width:0.5;" width="251" x="1187.5" y="1746.1094"/><text fill="#000000" font-family="sans-serif" font-size="20" lengthAdjust="spacing" textLength="237" x="1194.5" y="1771.6738">UpdateStaffComponent</text><rect fill="#E2E2F0" height="37.2813" rx="2.5" ry="2.5" style="stroke:#181818;stroke-width:0.5;" width="134" x="1797" y="87.2969"/><text fill="#000000" font-family="sans-serif" font-size="20" lengthAdjust="spacing" textLength="120" x="1804" y="112.8613">StaffService</text><rect fill="#E2E2F0" height="37.2813" rx="2.5" ry="2.5" style="stroke:#181818;stroke-width:0.5;" width="134" x="1797" y="1746.1094"/><text fill="#000000" font-family="sans-serif" font-size="20" lengthAdjust="spacing" textLength="120" x="1804" y="1771.6738">StaffService</text><rect fill="#E2E2F0" height="37.2813" rx="2.5" ry="2.5" style="stroke:#181818;stroke-width:0.5;" width="173" x="2423.5" y="87.2969"/><text fill="#000000" font-family="sans-serif" font-size="20" lengthAdjust="spacing" textLength="159" x="2430.5" y="112.8613">AuthInterceptor</text><rect fill="#E2E2F0" height="37.2813" rx="2.5" ry="2.5" style="stroke:#181818;stroke-width:0.5;" width="173" x="2423.5" y="1746.1094"/><text fill="#000000" font-family="sans-serif" font-size="20" lengthAdjust="spacing" textLength="159" x="2430.5" y="1771.6738">AuthInterceptor</text><rect fill="#E2E2F0" height="37.2813" rx="2.5" ry="2.5" style="stroke:#181818;stroke-width:0.5;" width="60" x="3067" y="87.2969"/><text fill="#000000" font-family="sans-serif" font-size="20" lengthAdjust="spacing" textLength="46" x="3074" y="112.8613">MDR</text><rect fill="#E2E2F0" height="37.2813" rx="2.5" ry="2.5" style="stroke:#181818;stroke-width:0.5;" width="60" x="3067" y="1746.1094"/><text fill="#000000" font-family="sans-serif" font-size="20" lengthAdjust="spacing" textLength="46" x="3074" y="1771.6738">MDR</text><rect fill="#FFFFFF" height="1602.5313" style="stroke:#181818;stroke-width:1.0;" width="10" x="36" y="135.5781"/><rect fill="#FFFFFF" height="981.0313" style="stroke:#181818;stroke-width:1.0;" width="10" x="657" y="164.8594"/><rect fill="#FFFFFF" height="545.9375" style="stroke:#181818;stroke-width:1.0;" width="10" x="657" y="1183.1719"/><rect fill="#FFFFFF" height="37.2813" style="stroke:#181818;stroke-width:1.0;" width="10" x="947" y="202.1406"/><rect fill="#FFFFFF" height="869.1875" style="stroke:#181818;stroke-width:1.0;" width="10" x="1308" y="239.4219"/><rect fill="#FFFFFF" height="428.0938" style="stroke:#181818;stroke-width:1.0;" width="10" x="1308" y="1263.7344"/><rect fill="#FFFFFF" height="353.5313" style="stroke:#181818;stroke-width:1.0;" width="10" x="1859" y="326.9844"/><rect fill="#FFFFFF" height="353.5313" style="stroke:#181818;stroke-width:1.0;" width="10" x="1859" y="717.7969"/><rect fill="#FFFFFF" height="353.5313" style="stroke:#181818;stroke-width:1.0;" width="10" x="1859" y="1301.0156"/><rect fill="#FFFFFF" height="278.9688" style="stroke:#181818;stroke-width:1.0;" width="10" x="2505" y="364.2656"/><rect fill="#FFFFFF" height="278.9688" style="stroke:#181818;stroke-width:1.0;" width="10" x="2505" y="755.0781"/><rect fill="#FFFFFF" height="278.9688" style="stroke:#181818;stroke-width:1.0;" width="10" x="2505" y="1338.2969"/><rect fill="#FFFFFF" height="87.5625" style="stroke:#181818;stroke-width:1.0;" width="10" x="3092" y="518.3906"/><rect fill="#FFFFFF" height="87.5625" style="stroke:#181818;stroke-width:1.0;" width="10" x="3092" y="909.2031"/><rect fill="#FFFFFF" height="87.5625" style="stroke:#181818;stroke-width:1.0;" width="10" x="3092" y="1492.4219"/><polygon fill="#000000" points="645,160.8594,655,164.8594,645,168.8594,649,164.8594" style="stroke:#000000;stroke-width:1.0;"/><line style="stroke:#000000;stroke-width:1.0;" x1="46" x2="651" y1="164.8594" y2="164.8594"/><text fill="#000000" font-family="sans-serif" font-size="20" lengthAdjust="spacing" textLength="220" x="53" y="158.1426">Asks to update a Staff</text><polygon fill="#000000" points="935,198.1406,945,202.1406,935,206.1406,939,202.1406" style="stroke:#000000;stroke-width:1.0;"/><line style="stroke:#000000;stroke-width:1.0;" x1="667" x2="941" y1="202.1406" y2="202.1406"/><text fill="#000000" font-family="sans-serif" font-size="20" lengthAdjust="spacing" textLength="261" x="674" y="195.4238">routerLink='/update-staff'</text><polygon fill="#000000" points="1296,235.4219,1306,239.4219,1296,243.4219,1300,239.4219" style="stroke:#000000;stroke-width:1.0;"/><line style="stroke:#000000;stroke-width:1.0;" x1="952" x2="1302" y1="239.4219" y2="239.4219"/><text fill="#000000" font-family="sans-serif" font-size="20" lengthAdjust="spacing" textLength="332" x="959" y="232.7051">routes to UpdateStaffComponent</text><line style="stroke:#000000;stroke-width:1.0;" x1="1318" x2="1360" y1="276.7031" y2="276.7031"/><line style="stroke:#000000;stroke-width:1.0;" x1="1360" x2="1360" y1="276.7031" y2="289.7031"/><line style="stroke:#000000;stroke-width:1.0;" x1="1319" x2="1360" y1="289.7031" y2="289.7031"/><polygon fill="#000000" points="1329,285.7031,1319,289.7031,1329,293.7031,1325,289.7031" style="stroke:#000000;stroke-width:1.0;"/><text fill="#000000" font-family="sans-serif" font-size="20" lengthAdjust="spacing" textLength="527" x="1325" y="269.9863">this.staffId = this.route.snapshot.paramMap.get('id')</text><polygon fill="#000000" points="1847,322.9844,1857,326.9844,1847,330.9844,1851,326.9844" style="stroke:#000000;stroke-width:1.0;"/><line style="stroke:#000000;stroke-width:1.0;" x1="1318" x2="1853" y1="326.9844" y2="326.9844"/><text fill="#000000" font-family="sans-serif" font-size="20" lengthAdjust="spacing" textLength="210" x="1325" y="320.2676">loadSpecializations()</text><polygon fill="#000000" points="2493,360.2656,2503,364.2656,2493,368.2656,2497,364.2656" style="stroke:#000000;stroke-width:1.0;"/><line style="stroke:#000000;stroke-width:1.0;" x1="1869" x2="2499" y1="364.2656" y2="364.2656"/><text fill="#000000" font-family="sans-serif" font-size="20" lengthAdjust="spacing" textLength="458" x="1876" y="357.5488">Sends HTTP Request to get all Specializations</text><line style="stroke:#000000;stroke-width:1.0;" x1="2515" x2="2557" y1="401.5469" y2="401.5469"/><line style="stroke:#000000;stroke-width:1.0;" x1="2557" x2="2557" y1="401.5469" y2="414.5469"/><line style="stroke:#000000;stroke-width:1.0;" x1="2516" x2="2557" y1="414.5469" y2="414.5469"/><polygon fill="#000000" points="2526,410.5469,2516,414.5469,2526,418.5469,2522,414.5469" style="stroke:#000000;stroke-width:1.0;"/><text fill="#000000" font-family="sans-serif" font-size="20" lengthAdjust="spacing" textLength="563" x="2522" y="394.8301">Intercepts the request and adds the token to the header</text><path d="M2520,427.5469 L2520,483.5469 L3039,483.5469 L3039,437.5469 L3029,427.5469 L2520,427.5469 " fill="#FEFFDD" style="stroke:#181818;stroke-width:0.5;"/><path d="M3029,427.5469 L3029,437.5469 L3039,437.5469 L3029,427.5469 " fill="#FEFFDD" style="stroke:#181818;stroke-width:0.5;"/><text fill="#000000" font-family="sans-serif" font-size="20" lengthAdjust="spacing" textLength="498" x="2526" y="451.1113">The token is added to the header so that the MDR</text><text fill="#000000" font-family="sans-serif" font-size="20" lengthAdjust="spacing" textLength="442" x="2526" y="474.3926">can authenticate and authorize the request.</text><polygon fill="#000000" points="3080,514.3906,3090,518.3906,3080,522.3906,3084,518.3906" style="stroke:#000000;stroke-width:1.0;"/><line style="stroke:#000000;stroke-width:1.0;" x1="2515" x2="3086" y1="518.3906" y2="518.3906"/><text fill="#000000" font-family="sans-serif" font-size="20" lengthAdjust="spacing" textLength="190" x="2522" y="511.6738">getSpecialization()</text><line style="stroke:#000000;stroke-width:1.0;" x1="3102" x2="3144" y1="555.6719" y2="555.6719"/><line style="stroke:#000000;stroke-width:1.0;" x1="3144" x2="3144" y1="555.6719" y2="568.6719"/><line style="stroke:#000000;stroke-width:1.0;" x1="3103" x2="3144" y1="568.6719" y2="568.6719"/><polygon fill="#000000" points="3113,564.6719,3103,568.6719,3113,572.6719,3109,568.6719" style="stroke:#000000;stroke-width:1.0;"/><text fill="#000000" font-family="sans-serif" font-size="20" lengthAdjust="spacing" textLength="321" x="3109" y="548.9551">Tries to get Specializations data</text><polygon fill="#000000" points="2526,601.9531,2516,605.9531,2526,609.9531,2522,605.9531" style="stroke:#000000;stroke-width:1.0;"/><line style="stroke:#000000;stroke-width:1.0;stroke-dasharray:2.0,2.0;" x1="2520" x2="3096" y1="605.9531" y2="605.9531"/><text fill="#000000" font-family="sans-serif" font-size="20" lengthAdjust="spacing" textLength="286" x="2532" y="599.2363">Returns Specializations data</text><polygon fill="#000000" points="1880,639.2344,1870,643.2344,1880,647.2344,1876,643.2344" style="stroke:#000000;stroke-width:1.0;"/><line style="stroke:#000000;stroke-width:1.0;stroke-dasharray:2.0,2.0;" x1="1874" x2="2509" y1="643.2344" y2="643.2344"/><text fill="#000000" font-family="sans-serif" font-size="20" lengthAdjust="spacing" textLength="286" x="1886" y="636.5176">Returns Specializations data</text><polygon fill="#000000" points="1329,676.5156,1319,680.5156,1329,684.5156,1325,680.5156" style="stroke:#000000;stroke-width:1.0;"/><line style="stroke:#000000;stroke-width:1.0;stroke-dasharray:2.0,2.0;" x1="1323" x2="1863" y1="680.5156" y2="680.5156"/><text fill="#000000" font-family="sans-serif" font-size="20" lengthAdjust="spacing" textLength="286" x="1335" y="673.7988">Returns Specializations data</text><polygon fill="#000000" points="1847,713.7969,1857,717.7969,1847,721.7969,1851,717.7969" style="stroke:#000000;stroke-width:1.0;"/><line style="stroke:#000000;stroke-width:1.0;" x1="1318" x2="1853" y1="717.7969" y2="717.7969"/><text fill="#000000" font-family="sans-serif" font-size="20" lengthAdjust="spacing" textLength="175" x="1325" y="711.0801">loadStaffDetails()</text><polygon fill="#000000" points="2493,751.0781,2503,755.0781,2493,759.0781,2497,755.0781" style="stroke:#000000;stroke-width:1.0;"/><line style="stroke:#000000;stroke-width:1.0;" x1="1869" x2="2499" y1="755.0781" y2="755.0781"/><text fill="#000000" font-family="sans-serif" font-size="20" lengthAdjust="spacing" textLength="376" x="1876" y="748.3613">Sends HTTP Request to get staff by Id</text><line style="stroke:#000000;stroke-width:1.0;" x1="2515" x2="2557" y1="792.3594" y2="792.3594"/><line style="stroke:#000000;stroke-width:1.0;" x1="2557" x2="2557" y1="792.3594" y2="805.3594"/><line style="stroke:#000000;stroke-width:1.0;" x1="2516" x2="2557" y1="805.3594" y2="805.3594"/><polygon fill="#000000" points="2526,801.3594,2516,805.3594,2526,809.3594,2522,805.3594" style="stroke:#000000;stroke-width:1.0;"/><text fill="#000000" font-family="sans-serif" font-size="20" lengthAdjust="spacing" textLength="563" x="2522" y="785.6426">Intercepts the request and adds the token to the header</text><path d="M2520,818.3594 L2520,874.3594 L3039,874.3594 L3039,828.3594 L3029,818.3594 L2520,818.3594 " fill="#FEFFDD" style="stroke:#181818;stroke-width:0.5;"/><path d="M3029,818.3594 L3029,828.3594 L3039,828.3594 L3029,818.3594 " fill="#FEFFDD" style="stroke:#181818;stroke-width:0.5;"/><text fill="#000000" font-family="sans-serif" font-size="20" lengthAdjust="spacing" textLength="498" x="2526" y="841.9238">The token is added to the header so that the MDR</text><text fill="#000000" font-family="sans-serif" font-size="20" lengthAdjust="spacing" textLength="442" x="2526" y="865.2051">can authenticate and authorize the request.</text><polygon fill="#000000" points="3080,905.2031,3090,909.2031,3080,913.2031,3084,909.2031" style="stroke:#000000;stroke-width:1.0;"/><line style="stroke:#000000;stroke-width:1.0;" x1="2515" x2="3086" y1="909.2031" y2="909.2031"/><text fill="#000000" font-family="sans-serif" font-size="20" lengthAdjust="spacing" textLength="246" x="2522" y="902.4863">getStaffById(this.staffId)</text><line style="stroke:#000000;stroke-width:1.0;" x1="3102" x2="3144" y1="946.4844" y2="946.4844"/><line style="stroke:#000000;stroke-width:1.0;" x1="3144" x2="3144" y1="946.4844" y2="959.4844"/><line style="stroke:#000000;stroke-width:1.0;" x1="3103" x2="3144" y1="959.4844" y2="959.4844"/><polygon fill="#000000" points="3113,955.4844,3103,959.4844,3113,963.4844,3109,959.4844" style="stroke:#000000;stroke-width:1.0;"/><text fill="#000000" font-family="sans-serif" font-size="20" lengthAdjust="spacing" textLength="258" x="3109" y="939.7676">Tries to get Staff's Id data</text><polygon fill="#000000" points="2526,992.7656,2516,996.7656,2526,1000.7656,2522,996.7656" style="stroke:#000000;stroke-width:1.0;"/><line style="stroke:#000000;stroke-width:1.0;stroke-dasharray:2.0,2.0;" x1="2520" x2="3096" y1="996.7656" y2="996.7656"/><text fill="#000000" font-family="sans-serif" font-size="20" lengthAdjust="spacing" textLength="198" x="2532" y="990.0488">Returns Staff's data</text><polygon fill="#000000" points="1880,1030.0469,1870,1034.0469,1880,1038.0469,1876,1034.0469" style="stroke:#000000;stroke-width:1.0;"/><line style="stroke:#000000;stroke-width:1.0;stroke-dasharray:2.0,2.0;" x1="1874" x2="2509" y1="1034.0469" y2="1034.0469"/><text fill="#000000" font-family="sans-serif" font-size="20" lengthAdjust="spacing" textLength="198" x="1886" y="1027.3301">Returns Staff's data</text><polygon fill="#000000" points="1329,1067.3281,1319,1071.3281,1329,1075.3281,1325,1071.3281" style="stroke:#000000;stroke-width:1.0;"/><line style="stroke:#000000;stroke-width:1.0;stroke-dasharray:2.0,2.0;" x1="1323" x2="1863" y1="1071.3281" y2="1071.3281"/><text fill="#000000" font-family="sans-serif" font-size="20" lengthAdjust="spacing" textLength="198" x="1335" y="1064.6113">Returns Staff's data</text><polygon fill="#000000" points="678,1104.6094,668,1108.6094,678,1112.6094,674,1108.6094" style="stroke:#000000;stroke-width:1.0;"/><line style="stroke:#000000;stroke-width:1.0;stroke-dasharray:2.0,2.0;" x1="672" x2="1312" y1="1108.6094" y2="1108.6094"/><text fill="#000000" font-family="sans-serif" font-size="20" lengthAdjust="spacing" textLength="315" x="684" y="1101.8926">returns UpdateStaffComponent</text><polygon fill="#000000" points="57,1141.8906,47,1145.8906,57,1149.8906,53,1145.8906" style="stroke:#000000;stroke-width:1.0;"/><line style="stroke:#000000;stroke-width:1.0;stroke-dasharray:2.0,2.0;" x1="51" x2="661" y1="1145.8906" y2="1145.8906"/><text fill="#000000" font-family="sans-serif" font-size="20" lengthAdjust="spacing" textLength="587" x="63" y="1139.1738">Display Staff's data (autofill form) and Asks for Staff's data</text><polygon fill="#000000" points="645,1179.1719,655,1183.1719,645,1187.1719,649,1183.1719" style="stroke:#000000;stroke-width:1.0;"/><line style="stroke:#000000;stroke-width:1.0;" x1="46" x2="651" y1="1183.1719" y2="1183.1719"/><text fill="#000000" font-family="sans-serif" font-size="20" lengthAdjust="spacing" textLength="181" x="53" y="1176.4551">Sends Staff's data</text><path d="M672,1196.1719 L672,1229.1719 L1426,1229.1719 L1426,1206.1719 L1416,1196.1719 L672,1196.1719 " fill="#FEFFDD" style="stroke:#181818;stroke-width:0.5;"/><path d="M1416,1196.1719 L1416,1206.1719 L1426,1206.1719 L1416,1196.1719 " fill="#FEFFDD" style="stroke:#181818;stroke-width:0.5;"/><text fill="#000000" font-family="sans-serif" font-size="20" lengthAdjust="spacing" textLength="733" x="678" y="1219.7363">The data can be Email and/or Phone Number and/or Specialization Name</text><polygon fill="#000000" points="1296,1259.7344,1306,1263.7344,1296,1267.7344,1300,1263.7344" style="stroke:#000000;stroke-width:1.0;"/><line style="stroke:#000000;stroke-width:1.0;" x1="667" x2="1302" y1="1263.7344" y2="1263.7344"/><text fill="#000000" font-family="sans-serif" font-size="20" lengthAdjust="spacing" textLength="114" x="674" y="1257.0176">onSubmit()</text><polygon fill="#000000" points="1847,1297.0156,1857,1301.0156,1847,1305.0156,1851,1301.0156" style="stroke:#000000;stroke-width:1.0;"/><line style="stroke:#000000;stroke-width:1.0;" x1="1318" x2="1853" y1="1301.0156" y2="1301.0156"/><text fill="#000000" font-family="sans-serif" font-size="20" lengthAdjust="spacing" textLength="370" x="1325" y="1294.2988">updateStaff(this.staffId, updateData)</text><polygon fill="#000000" points="2493,1334.2969,2503,1338.2969,2493,1342.2969,2497,1338.2969" style="stroke:#000000;stroke-width:1.0;"/><line style="stroke:#000000;stroke-width:1.0;" x1="1869" x2="2499" y1="1338.2969" y2="1338.2969"/><text fill="#000000" font-family="sans-serif" font-size="20" lengthAdjust="spacing" textLength="617" x="1876" y="1331.5801">Sends HTTP Request to update Staff's data with the new data</text><line style="stroke:#000000;stroke-width:1.0;" x1="2515" x2="2557" y1="1375.5781" y2="1375.5781"/><line style="stroke:#000000;stroke-width:1.0;" x1="2557" x2="2557" y1="1375.5781" y2="1388.5781"/><line style="stroke:#000000;stroke-width:1.0;" x1="2516" x2="2557" y1="1388.5781" y2="1388.5781"/><polygon fill="#000000" points="2526,1384.5781,2516,1388.5781,2526,1392.5781,2522,1388.5781" style="stroke:#000000;stroke-width:1.0;"/><text fill="#000000" font-family="sans-serif" font-size="20" lengthAdjust="spacing" textLength="563" x="2522" y="1368.8613">Intercepts the request and adds the token to the header</text><path d="M2520,1401.5781 L2520,1457.5781 L3039,1457.5781 L3039,1411.5781 L3029,1401.5781 L2520,1401.5781 " fill="#FEFFDD" style="stroke:#181818;stroke-width:0.5;"/><path d="M3029,1401.5781 L3029,1411.5781 L3039,1411.5781 L3029,1401.5781 " fill="#FEFFDD" style="stroke:#181818;stroke-width:0.5;"/><text fill="#000000" font-family="sans-serif" font-size="20" lengthAdjust="spacing" textLength="498" x="2526" y="1425.1426">The token is added to the header so that the MDR</text><text fill="#000000" font-family="sans-serif" font-size="20" lengthAdjust="spacing" textLength="442" x="2526" y="1448.4238">can authenticate and authorize the request.</text><polygon fill="#000000" points="3080,1488.4219,3090,1492.4219,3080,1496.4219,3084,1492.4219" style="stroke:#000000;stroke-width:1.0;"/><line style="stroke:#000000;stroke-width:1.0;" x1="2515" x2="3086" y1="1492.4219" y2="1492.4219"/><text fill="#000000" font-family="sans-serif" font-size="20" lengthAdjust="spacing" textLength="370" x="2522" y="1485.7051">updateStaff(this.staffId, updateData)</text><line style="stroke:#000000;stroke-width:1.0;" x1="3102" x2="3144" y1="1529.7031" y2="1529.7031"/><line style="stroke:#000000;stroke-width:1.0;" x1="3144" x2="3144" y1="1529.7031" y2="1542.7031"/><line style="stroke:#000000;stroke-width:1.0;" x1="3103" x2="3144" y1="1542.7031" y2="1542.7031"/><polygon fill="#000000" points="3113,1538.7031,3103,1542.7031,3113,1546.7031,3109,1542.7031" style="stroke:#000000;stroke-width:1.0;"/><text fill="#000000" font-family="sans-serif" font-size="20" lengthAdjust="spacing" textLength="530" x="3109" y="1522.9863">Validates Staff's data and tries to update Staff's data</text><polygon fill="#000000" points="2526,1575.9844,2516,1579.9844,2526,1583.9844,2522,1579.9844" style="stroke:#000000;stroke-width:1.0;"/><line style="stroke:#000000;stroke-width:1.0;stroke-dasharray:2.0,2.0;" x1="2520" x2="3096" y1="1579.9844" y2="1579.9844"/><text fill="#000000" font-family="sans-serif" font-size="20" lengthAdjust="spacing" textLength="311" x="2532" y="1573.2676">Returns Operation Status Code</text><polygon fill="#000000" points="1880,1613.2656,1870,1617.2656,1880,1621.2656,1876,1617.2656" style="stroke:#000000;stroke-width:1.0;"/><line style="stroke:#000000;stroke-width:1.0;stroke-dasharray:2.0,2.0;" x1="1874" x2="2509" y1="1617.2656" y2="1617.2656"/><text fill="#000000" font-family="sans-serif" font-size="20" lengthAdjust="spacing" textLength="311" x="1886" y="1610.5488">Returns Operation Status Code</text><polygon fill="#000000" points="1329,1650.5469,1319,1654.5469,1329,1658.5469,1325,1654.5469" style="stroke:#000000;stroke-width:1.0;"/><line style="stroke:#000000;stroke-width:1.0;stroke-dasharray:2.0,2.0;" x1="1323" x2="1863" y1="1654.5469" y2="1654.5469"/><text fill="#000000" font-family="sans-serif" font-size="20" lengthAdjust="spacing" textLength="286" x="1335" y="1647.8301">Returns Operation Response</text><polygon fill="#000000" points="678,1687.8281,668,1691.8281,678,1695.8281,674,1691.8281" style="stroke:#000000;stroke-width:1.0;"/><line style="stroke:#000000;stroke-width:1.0;stroke-dasharray:2.0,2.0;" x1="672" x2="1312" y1="1691.8281" y2="1691.8281"/><text fill="#000000" font-family="sans-serif" font-size="20" lengthAdjust="spacing" textLength="391" x="684" y="1685.1113">Returns Operation In/Success message</text><polygon fill="#000000" points="57,1725.1094,47,1729.1094,57,1733.1094,53,1729.1094" style="stroke:#000000;stroke-width:1.0;"/><line style="stroke:#000000;stroke-width:1.0;stroke-dasharray:2.0,2.0;" x1="51" x2="661" y1="1729.1094" y2="1729.1094"/><text fill="#000000" font-family="sans-serif" font-size="20" lengthAdjust="spacing" textLength="391" x="63" y="1722.3926">Returns Operation In/Success message</text><!--SRC=[tLRRZjCm47tFLupWONSbw78HjmfMIhUfY4G1DTsyk_6qCKtiO3kxMX3_pjX9BocfwF98fLQAS-PsviouPYranJGh2vMjaGF79QiBEr7I9k87mejdGM25BH0-uIqMy18c4Om5Mv49B9M6cuepA-GA4ikMoo381KV0ihBtK6AvG6s2m6o2G5OmO-1d0FGPiMozqggM_5eLIhz_VykA6hyilc5chwxWyVXr54xUzaErKXup6KUZyRD-Z45zApBqhfvFNaIZFXYvY2RleZV-NQYrkckEHmNXWb_xkLTqmbROdpqyZaQJLvEHCs6PfOEGbq82Cn06P6z59YecBJnA1TuzSkTfzpn1fhFSisYkLLafYT9wu3Jf8Ztbw95TuCq1q4EIXWOFI0u0OMtpM5hK6LQKiyU4SHSp7S-QBCOpNvgufU1KL0XFho0TGcZM1go2scS5h1N25fa6gKDEao4GNHJhav3h3sUN3VwfSUYp7PoAdIREu6PZuBttrHnmt3VR-I0URhO-R2xCm4U9ENne7htVWP6iChco0z_VAQi6AxJdPuAVNGIjWuGS58hnfC9Ci4By8AqhQSulTi68qyHZmtW82KfkuEDy_XLc-Br6Ortov1POKS21bpqsuo2CDpws3Q72SmJT-c6I0-EyERHgZTAvTWyvCeuwa8eyQR7ABQYbS-baEj-2XN7cDE8TAp3kYLb_v5hiZ396mYLf4CSYyqrriUb0QRSJzh8Q15GmkCXj0UHYwEhjbhhFbmj2toruhaNJOiVI0KD0JMSDkYLdXhRMzA8NkAy7Yk8oQdjugXcnvfhPIkTKAvB0eLwStiPecIZ-HInUhh2uXvZ_ro9nPOxkOtw-FwGdQyLl3aCS_I6JRUDQoAdgE08_eeeZw8qQclMeM_JV5XZjhBH9VqZtgwaATj-90EV4hLeAMYDqxPONdcw_UzqjV2oNDDZkwKPj7U0UhAiBWZjD-BYkpmk4g2Gjkw2N5EvhJld3vzhTxvkpxf30PrPYi_aTPqeczQ8KbcOXl9x7QJYFTblQjQ3UqTCHmvFspPXIUTWSjVTHXyCxONElJ8bt1nJyPzFrG3uF1osbHZfOLp0-2RkPmHw2UrVrbmfremc2sjh0jU9umZJ-rQv_B7TcCpGqPmOFXdCtct-QnF8ogRCCwKzgIJ_qT-_OZ3xKDWr-0m00]--></g></svg>