<?xml version="1.0" encoding="UTF-8" standalone="no"?><svg xmlns="http://www.w3.org/2000/svg" xmlns:xlink="http://www.w3.org/1999/xlink" contentStyleType="text/css" height="507px" preserveAspectRatio="none" style="width:1689px;height:507px;background:#FFFFFF;" version="1.1" viewBox="0 0 1689 507" width="1689px" zoomAndPan="magnify"><defs/><g><text fill="#000000" font-family="sans-serif" font-size="14" font-weight="bold" lengthAdjust="spacing" textLength="126" x="783.5" y="27.9951">Level 2 Diagram</text><rect fill="#FFFFFF" height="274.9688" style="stroke:#181818;stroke-width:1.0;" width="10" x="36" y="135.5781"/><rect fill="#FFFFFF" height="37.2813" style="stroke:#181818;stroke-width:1.0;" width="10" x="488" y="164.8594"/><rect fill="#FFFFFF" height="162.125" style="stroke:#181818;stroke-width:1.0;" width="10" x="488" y="239.4219"/><rect fill="#FFFFFF" height="87.5625" style="stroke:#181818;stroke-width:1.0;" width="10" x="928" y="276.7031"/><line style="stroke:#181818;stroke-width:0.5;stroke-dasharray:5.0,5.0;" x1="41" x2="41" y1="125.5781" y2="419.5469"/><line style="stroke:#181818;stroke-width:0.5;stroke-dasharray:5.0,5.0;" x1="492.5" x2="492.5" y1="125.5781" y2="419.5469"/><line style="stroke:#181818;stroke-width:0.5;stroke-dasharray:5.0,5.0;" x1="933" x2="933" y1="125.5781" y2="419.5469"/><text fill="#000000" font-family="sans-serif" font-size="20" lengthAdjust="spacing" textLength="66" x="5" y="120.8613">Admin</text><ellipse cx="41" cy="50.7969" fill="#E2E2F0" rx="8" ry="8" style="stroke:#181818;stroke-width:0.5;"/><path d="M41,58.7969 L41,85.7969 M28,66.7969 L54,66.7969 M41,85.7969 L28,100.7969 M41,85.7969 L54,100.7969 " fill="none" style="stroke:#181818;stroke-width:0.5;"/><text fill="#000000" font-family="sans-serif" font-size="20" lengthAdjust="spacing" textLength="66" x="5" y="437.1113">Admin</text><ellipse cx="41" cy="450.3281" fill="#E2E2F0" rx="8" ry="8" style="stroke:#181818;stroke-width:0.5;"/><path d="M41,458.3281 L41,485.3281 M28,466.3281 L54,466.3281 M41,485.3281 L28,500.3281 M41,485.3281 L54,500.3281 " fill="none" style="stroke:#181818;stroke-width:0.5;"/><text fill="#000000" font-family="sans-serif" font-size="20" lengthAdjust="spacing" textLength="25" x="477.5" y="120.8613">FE</text><ellipse cx="493" cy="50.7969" fill="#E2E2F0" rx="8" ry="8" style="stroke:#181818;stroke-width:0.5;"/><path d="M493,58.7969 L493,85.7969 M480,66.7969 L506,66.7969 M493,85.7969 L480,100.7969 M493,85.7969 L506,100.7969 " fill="none" style="stroke:#181818;stroke-width:0.5;"/><text fill="#000000" font-family="sans-serif" font-size="20" lengthAdjust="spacing" textLength="25" x="477.5" y="437.1113">FE</text><ellipse cx="493" cy="450.3281" fill="#E2E2F0" rx="8" ry="8" style="stroke:#181818;stroke-width:0.5;"/><path d="M493,458.3281 L493,485.3281 M480,466.3281 L506,466.3281 M493,485.3281 L480,500.3281 M493,485.3281 L506,500.3281 " fill="none" style="stroke:#181818;stroke-width:0.5;"/><rect fill="#E2E2F0" height="37.2813" rx="2.5" ry="2.5" style="stroke:#181818;stroke-width:0.5;" width="60" x="903" y="87.2969"/><text fill="#000000" font-family="sans-serif" font-size="20" lengthAdjust="spacing" textLength="46" x="910" y="112.8613">MDR</text><rect fill="#E2E2F0" height="37.2813" rx="2.5" ry="2.5" style="stroke:#181818;stroke-width:0.5;" width="60" x="903" y="418.5469"/><text fill="#000000" font-family="sans-serif" font-size="20" lengthAdjust="spacing" textLength="46" x="910" y="444.1113">MDR</text><rect fill="#FFFFFF" height="274.9688" style="stroke:#181818;stroke-width:1.0;" width="10" x="36" y="135.5781"/><rect fill="#FFFFFF" height="37.2813" style="stroke:#181818;stroke-width:1.0;" width="10" x="488" y="164.8594"/><rect fill="#FFFFFF" height="162.125" style="stroke:#181818;stroke-width:1.0;" width="10" x="488" y="239.4219"/><rect fill="#FFFFFF" height="87.5625" style="stroke:#181818;stroke-width:1.0;" width="10" x="928" y="276.7031"/><polygon fill="#000000" points="476,160.8594,486,164.8594,476,168.8594,480,164.8594" style="stroke:#000000;stroke-width:1.0;"/><line style="stroke:#000000;stroke-width:1.0;" x1="46" x2="482" y1="164.8594" y2="164.8594"/><text fill="#000000" font-family="sans-serif" font-size="20" lengthAdjust="spacing" textLength="236" x="53" y="158.1426">Asks to delete a Patient</text><polygon fill="#000000" points="57,198.1406,47,202.1406,57,206.1406,53,202.1406" style="stroke:#000000;stroke-width:1.0;"/><line style="stroke:#000000;stroke-width:1.0;stroke-dasharray:2.0,2.0;" x1="51" x2="492" y1="202.1406" y2="202.1406"/><text fill="#000000" font-family="sans-serif" font-size="20" lengthAdjust="spacing" textLength="418" x="63" y="195.4238">Asks for Patient's Medical Record Number</text><polygon fill="#000000" points="476,235.4219,486,239.4219,476,243.4219,480,239.4219" style="stroke:#000000;stroke-width:1.0;"/><line style="stroke:#000000;stroke-width:1.0;" x1="46" x2="482" y1="239.4219" y2="239.4219"/><text fill="#000000" font-family="sans-serif" font-size="20" lengthAdjust="spacing" textLength="400" x="53" y="232.7051">Sends Patient's Medical Record Number</text><polygon fill="#000000" points="916,272.7031,926,276.7031,916,280.7031,920,276.7031" style="stroke:#000000;stroke-width:1.0;"/><line style="stroke:#000000;stroke-width:1.0;" x1="498" x2="922" y1="276.7031" y2="276.7031"/><text fill="#000000" font-family="sans-serif" font-size="20" lengthAdjust="spacing" textLength="411" x="505" y="269.9863">Sends HTTP request to delete the Patient</text><line style="stroke:#000000;stroke-width:1.0;" x1="938" x2="980" y1="313.9844" y2="313.9844"/><line style="stroke:#000000;stroke-width:1.0;" x1="980" x2="980" y1="313.9844" y2="326.9844"/><line style="stroke:#000000;stroke-width:1.0;" x1="939" x2="980" y1="326.9844" y2="326.9844"/><polygon fill="#000000" points="949,322.9844,939,326.9844,949,330.9844,945,326.9844" style="stroke:#000000;stroke-width:1.0;"/><text fill="#000000" font-family="sans-serif" font-size="20" lengthAdjust="spacing" textLength="737" x="945" y="307.2676">Validates Patient's Medical Record Number and tries to delete the Patient</text><polygon fill="#000000" points="509,360.2656,499,364.2656,509,368.2656,505,364.2656" style="stroke:#000000;stroke-width:1.0;"/><line style="stroke:#000000;stroke-width:1.0;stroke-dasharray:2.0,2.0;" x1="503" x2="932" y1="364.2656" y2="364.2656"/><text fill="#000000" font-family="sans-serif" font-size="20" lengthAdjust="spacing" textLength="311" x="515" y="357.5488">Returns Operation Status Code</text><polygon fill="#000000" points="57,397.5469,47,401.5469,57,405.5469,53,401.5469" style="stroke:#000000;stroke-width:1.0;"/><line style="stroke:#000000;stroke-width:1.0;stroke-dasharray:2.0,2.0;" x1="51" x2="492" y1="401.5469" y2="401.5469"/><text fill="#000000" font-family="sans-serif" font-size="20" lengthAdjust="spacing" textLength="380" x="63" y="394.8301">Returns Operation In/Sucess message</text><!--SRC=[XL9TRzim37pNho3IXpuLQmFi4qK0kvQm0TrQ9CNUMObDrCYI9z4Pkc7_VRINDa6ReGPaGUJTyKYfh7tiC6CRabsJ0qTts0SsAVB2_oAOdYh5dWF19Mqem1GQZql1AxNoZe3QZX-WfVQMSb77vL4EBdqaVkW8KkPLKcgNiG5BWTyAvAlHhfSvzT5Tf93o-Va6GqzNj_TaUJQ3e-QThio7mz2SqeWnZQwRqyEOGddZBOrIPsQgwqCmaT3cetu_vggSqyz_uJe8JltPzzv919Tqs3qSwTgyDVL0GSiIg5ph8s21QXkO63qPpaOh4MHlVOUHOVArcOznsTL8zXja4be59pD1VuAgh0jmaWiA91c4QsHFaNTWqJGQJWHVRU5tKd4BEnPjSjvYW3dPb1rywuSxKuxs1PxABIYwyYhvUUtPqC0Z-VFDpJLa-j5JuJtdlAANteU-PJqfVCVWdIHUjG0O7N3sLFvJObJTDZKdxdCiSDLHbdIAi63ali15ShG_YS7ERfOlQL_YcqLlIPvnApzv4C_6gFu2]--></g></svg>