<?xml version="1.0" encoding="UTF-8" standalone="no"?><svg xmlns="http://www.w3.org/2000/svg" xmlns:xlink="http://www.w3.org/1999/xlink" contentStyleType="text/css" height="557px" preserveAspectRatio="none" style="width:1402px;height:557px;background:#FFFFFF;" version="1.1" viewBox="0 0 1402 557" width="1402px" zoomAndPan="magnify"><defs/><g><text fill="#000000" font-family="sans-serif" font-size="14" font-weight="bold" lengthAdjust="spacing" textLength="126" x="640.25" y="27.9951">Level 2 Diagram</text><rect fill="#FFFFFF" height="325.25" style="stroke:#181818;stroke-width:1.0;" width="10" x="38.5" y="135.5781"/><rect fill="#FFFFFF" height="286.9688" style="stroke:#181818;stroke-width:1.0;" width="10" x="452.5" y="164.8594"/><rect fill="#FFFFFF" height="87.5625" style="stroke:#181818;stroke-width:1.0;" width="10" x="899.5" y="202.1406"/><rect fill="#FFFFFF" height="87.5625" style="stroke:#181818;stroke-width:1.0;" width="10" x="899.5" y="326.9844"/><line style="stroke:#181818;stroke-width:0.5;stroke-dasharray:5.0,5.0;" x1="43" x2="43" y1="125.5781" y2="469.8281"/><line style="stroke:#181818;stroke-width:0.5;stroke-dasharray:5.0,5.0;" x1="457.5" x2="457.5" y1="125.5781" y2="469.8281"/><line style="stroke:#181818;stroke-width:0.5;stroke-dasharray:5.0,5.0;" x1="904.5" x2="904.5" y1="125.5781" y2="469.8281"/><text fill="#000000" font-family="sans-serif" font-size="20" lengthAdjust="spacing" textLength="71" x="5" y="120.8613">Patient</text><ellipse cx="43.5" cy="50.7969" fill="#E2E2F0" rx="8" ry="8" style="stroke:#181818;stroke-width:0.5;"/><path d="M43.5,58.7969 L43.5,85.7969 M30.5,66.7969 L56.5,66.7969 M43.5,85.7969 L30.5,100.7969 M43.5,85.7969 L56.5,100.7969 " fill="none" style="stroke:#181818;stroke-width:0.5;"/><text fill="#000000" font-family="sans-serif" font-size="20" lengthAdjust="spacing" textLength="71" x="5" y="487.3926">Patient</text><ellipse cx="43.5" cy="500.6094" fill="#E2E2F0" rx="8" ry="8" style="stroke:#181818;stroke-width:0.5;"/><path d="M43.5,508.6094 L43.5,535.6094 M30.5,516.6094 L56.5,516.6094 M43.5,535.6094 L30.5,550.6094 M43.5,535.6094 L56.5,550.6094 " fill="none" style="stroke:#181818;stroke-width:0.5;"/><rect fill="#E2E2F0" height="37.2813" rx="2.5" ry="2.5" style="stroke:#181818;stroke-width:0.5;" width="154" x="380.5" y="87.2969"/><text fill="#000000" font-family="sans-serif" font-size="20" lengthAdjust="spacing" textLength="140" x="387.5" y="112.8613">User Interface</text><rect fill="#E2E2F0" height="37.2813" rx="2.5" ry="2.5" style="stroke:#181818;stroke-width:0.5;" width="154" x="380.5" y="468.8281"/><text fill="#000000" font-family="sans-serif" font-size="20" lengthAdjust="spacing" textLength="140" x="387.5" y="494.3926">User Interface</text><rect fill="#E2E2F0" height="37.2813" rx="2.5" ry="2.5" style="stroke:#181818;stroke-width:0.5;" width="158" x="825.5" y="87.2969"/><text fill="#000000" font-family="sans-serif" font-size="20" lengthAdjust="spacing" textLength="144" x="832.5" y="112.8613">UserController</text><rect fill="#E2E2F0" height="37.2813" rx="2.5" ry="2.5" style="stroke:#181818;stroke-width:0.5;" width="158" x="825.5" y="468.8281"/><text fill="#000000" font-family="sans-serif" font-size="20" lengthAdjust="spacing" textLength="144" x="832.5" y="494.3926">UserController</text><rect fill="#FFFFFF" height="325.25" style="stroke:#181818;stroke-width:1.0;" width="10" x="38.5" y="135.5781"/><rect fill="#FFFFFF" height="286.9688" style="stroke:#181818;stroke-width:1.0;" width="10" x="452.5" y="164.8594"/><rect fill="#FFFFFF" height="87.5625" style="stroke:#181818;stroke-width:1.0;" width="10" x="899.5" y="202.1406"/><rect fill="#FFFFFF" height="87.5625" style="stroke:#181818;stroke-width:1.0;" width="10" x="899.5" y="326.9844"/><polygon fill="#000000" points="440.5,160.8594,450.5,164.8594,440.5,168.8594,444.5,164.8594" style="stroke:#000000;stroke-width:1.0;"/><line style="stroke:#000000;stroke-width:1.0;" x1="48.5" x2="446.5" y1="164.8594" y2="164.8594"/><text fill="#000000" font-family="sans-serif" font-size="20" lengthAdjust="spacing" textLength="263" x="55.5" y="158.1426">Asks to Delete User Profile</text><polygon fill="#000000" points="887.5,198.1406,897.5,202.1406,887.5,206.1406,891.5,202.1406" style="stroke:#000000;stroke-width:1.0;"/><line style="stroke:#000000;stroke-width:1.0;" x1="462.5" x2="893.5" y1="202.1406" y2="202.1406"/><text fill="#000000" font-family="sans-serif" font-size="20" lengthAdjust="spacing" textLength="220" x="469.5" y="195.4238">RequestDelete(token)</text><line style="stroke:#000000;stroke-width:1.0;" x1="909.5" x2="951.5" y1="239.4219" y2="239.4219"/><line style="stroke:#000000;stroke-width:1.0;" x1="951.5" x2="951.5" y1="239.4219" y2="252.4219"/><line style="stroke:#000000;stroke-width:1.0;" x1="910.5" x2="951.5" y1="252.4219" y2="252.4219"/><polygon fill="#000000" points="920.5,248.4219,910.5,252.4219,920.5,256.4219,916.5,252.4219" style="stroke:#000000;stroke-width:1.0;"/><text fill="#000000" font-family="sans-serif" font-size="20" lengthAdjust="spacing" textLength="479" x="916.5" y="232.7051">Validates token and tries to process the request</text><polygon fill="#000000" points="473.5,285.7031,463.5,289.7031,473.5,293.7031,469.5,289.7031" style="stroke:#000000;stroke-width:1.0;"/><line style="stroke:#000000;stroke-width:1.0;stroke-dasharray:2.0,2.0;" x1="467.5" x2="903.5" y1="289.7031" y2="289.7031"/><text fill="#000000" font-family="sans-serif" font-size="20" lengthAdjust="spacing" textLength="413" x="479.5" y="282.9863">Returns Operation Status Response Code</text><polygon fill="#000000" points="887.5,322.9844,897.5,326.9844,887.5,330.9844,891.5,326.9844" style="stroke:#000000;stroke-width:1.0;"/><line style="stroke:#000000;stroke-width:1.0;" x1="462.5" x2="893.5" y1="326.9844" y2="326.9844"/><text fill="#000000" font-family="sans-serif" font-size="20" lengthAdjust="spacing" textLength="183" x="469.5" y="320.2676">DeleteUser(token)</text><line style="stroke:#000000;stroke-width:1.0;" x1="909.5" x2="951.5" y1="364.2656" y2="364.2656"/><line style="stroke:#000000;stroke-width:1.0;" x1="951.5" x2="951.5" y1="364.2656" y2="377.2656"/><line style="stroke:#000000;stroke-width:1.0;" x1="910.5" x2="951.5" y1="377.2656" y2="377.2656"/><polygon fill="#000000" points="920.5,373.2656,910.5,377.2656,920.5,381.2656,916.5,377.2656" style="stroke:#000000;stroke-width:1.0;"/><text fill="#000000" font-family="sans-serif" font-size="20" lengthAdjust="spacing" textLength="433" x="916.5" y="357.5488">Validates token and tries to delete the user</text><polygon fill="#000000" points="473.5,410.5469,463.5,414.5469,473.5,418.5469,469.5,414.5469" style="stroke:#000000;stroke-width:1.0;"/><line style="stroke:#000000;stroke-width:1.0;stroke-dasharray:2.0,2.0;" x1="467.5" x2="903.5" y1="414.5469" y2="414.5469"/><text fill="#000000" font-family="sans-serif" font-size="20" lengthAdjust="spacing" textLength="413" x="479.5" y="407.8301">Returns Operation Status Response Code</text><polygon fill="#000000" points="59.5,447.8281,49.5,451.8281,59.5,455.8281,55.5,451.8281" style="stroke:#000000;stroke-width:1.0;"/><line style="stroke:#000000;stroke-width:1.0;stroke-dasharray:2.0,2.0;" x1="53.5" x2="456.5" y1="451.8281" y2="451.8281"/><text fill="#000000" font-family="sans-serif" font-size="20" lengthAdjust="spacing" textLength="380" x="65.5" y="445.1113">Returns Operation In/Sucess message</text><!--SRC=[hP9DQzmm48Rl-XL3ScXxA4qN-XN2mleB5W8nMRPtHPhTLIrhN6cy9ItzxntRQNSXFeNw8F3CyxvwDL9gNEXqrAqdqw05YplTUwueyCRzH5XSASMEFS8j7j730Wgdzy8hTN0M0TkE7w75zW5ZKg_INpkuTG7viKEWo0TIwjGnNgS4lnJ8bsdJx2FrmURaATxS7BNlyUxX6nfUBk6o-5Ykgi_pQ2GQcQeei-9gdaaOZyxWQFM-MfJP72OMPVMb_3JsLZ7IZwcSUU7Kx_FidLJq7kVJmsMPLH-gR91emrAeDJiC33f1hSI1dN6TbiB5LfB1EZ36dJPuCH3RzNCabtk8v3t64Sb7OtVKZ69OmzkbgAvXbPe4J52WH-cCtdMadVDuuiL-knuK-JNSu_SU4q_yQwO6mviJcQlyYVkglRDI6jo50HqiS7JZFtIH3CfDyW4XJeQ3y2dJFN8VGuAx3gDCWG9iM7EVf94w2acs8OlAujcs__9DmOPpl3ISdKOnPEl5vZy44tazfrw7Tvj-74GhYpoESwaC_Gy0]--></g></svg>