<?xml version="1.0" encoding="UTF-8" standalone="no"?><svg xmlns="http://www.w3.org/2000/svg" xmlns:xlink="http://www.w3.org/1999/xlink" contentStyleType="text/css" height="722px" preserveAspectRatio="none" style="width:1702px;height:722px;background:#FFFFFF;" version="1.1" viewBox="0 0 1702 722" width="1702px" zoomAndPan="magnify"><defs/><g><text fill="#000000" font-family="sans-serif" font-size="14" font-weight="bold" lengthAdjust="spacing" textLength="126" x="790" y="27.9951">Level 2 Diagram</text><rect fill="#FFFFFF" height="489.6563" style="stroke:#181818;stroke-width:1.0;" width="10" x="36" y="135.5781"/><rect fill="#FFFFFF" height="162.125" style="stroke:#181818;stroke-width:1.0;" width="10" x="675" y="164.8594"/><rect fill="#FFFFFF" height="251.9688" style="stroke:#181818;stroke-width:1.0;" width="10" x="675" y="364.2656"/><rect fill="#FFFFFF" height="87.5625" style="stroke:#181818;stroke-width:1.0;" width="10" x="1212" y="202.1406"/><rect fill="#FFFFFF" height="87.5625" style="stroke:#181818;stroke-width:1.0;" width="10" x="1212" y="491.3906"/><line style="stroke:#181818;stroke-width:0.5;stroke-dasharray:5.0,5.0;" x1="41" x2="41" y1="125.5781" y2="634.2344"/><line style="stroke:#181818;stroke-width:0.5;stroke-dasharray:5.0,5.0;" x1="679.5" x2="679.5" y1="125.5781" y2="634.2344"/><line style="stroke:#181818;stroke-width:0.5;stroke-dasharray:5.0,5.0;" x1="1217" x2="1217" y1="125.5781" y2="634.2344"/><text fill="#000000" font-family="sans-serif" font-size="20" lengthAdjust="spacing" textLength="66" x="5" y="120.8613">Admin</text><ellipse cx="41" cy="50.7969" fill="#E2E2F0" rx="8" ry="8" style="stroke:#181818;stroke-width:0.5;"/><path d="M41,58.7969 L41,85.7969 M28,66.7969 L54,66.7969 M41,85.7969 L28,100.7969 M41,85.7969 L54,100.7969 " fill="none" style="stroke:#181818;stroke-width:0.5;"/><text fill="#000000" font-family="sans-serif" font-size="20" lengthAdjust="spacing" textLength="66" x="5" y="651.7988">Admin</text><ellipse cx="41" cy="665.0156" fill="#E2E2F0" rx="8" ry="8" style="stroke:#181818;stroke-width:0.5;"/><path d="M41,673.0156 L41,700.0156 M28,681.0156 L54,681.0156 M41,700.0156 L28,715.0156 M41,700.0156 L54,715.0156 " fill="none" style="stroke:#181818;stroke-width:0.5;"/><rect fill="#E2E2F0" height="37.2813" rx="2.5" ry="2.5" style="stroke:#181818;stroke-width:0.5;" width="39" x="660.5" y="87.2969"/><text fill="#000000" font-family="sans-serif" font-size="20" lengthAdjust="spacing" textLength="25" x="667.5" y="112.8613">FE</text><rect fill="#E2E2F0" height="37.2813" rx="2.5" ry="2.5" style="stroke:#181818;stroke-width:0.5;" width="39" x="660.5" y="633.2344"/><text fill="#000000" font-family="sans-serif" font-size="20" lengthAdjust="spacing" textLength="25" x="667.5" y="658.7988">FE</text><rect fill="#E2E2F0" height="37.2813" rx="2.5" ry="2.5" style="stroke:#181818;stroke-width:0.5;" width="60" x="1187" y="87.2969"/><text fill="#000000" font-family="sans-serif" font-size="20" lengthAdjust="spacing" textLength="46" x="1194" y="112.8613">MDR</text><rect fill="#E2E2F0" height="37.2813" rx="2.5" ry="2.5" style="stroke:#181818;stroke-width:0.5;" width="60" x="1187" y="633.2344"/><text fill="#000000" font-family="sans-serif" font-size="20" lengthAdjust="spacing" textLength="46" x="1194" y="658.7988">MDR</text><rect fill="#FFFFFF" height="489.6563" style="stroke:#181818;stroke-width:1.0;" width="10" x="36" y="135.5781"/><rect fill="#FFFFFF" height="162.125" style="stroke:#181818;stroke-width:1.0;" width="10" x="675" y="164.8594"/><rect fill="#FFFFFF" height="251.9688" style="stroke:#181818;stroke-width:1.0;" width="10" x="675" y="364.2656"/><rect fill="#FFFFFF" height="87.5625" style="stroke:#181818;stroke-width:1.0;" width="10" x="1212" y="202.1406"/><rect fill="#FFFFFF" height="87.5625" style="stroke:#181818;stroke-width:1.0;" width="10" x="1212" y="491.3906"/><polygon fill="#000000" points="663,160.8594,673,164.8594,663,168.8594,667,164.8594" style="stroke:#000000;stroke-width:1.0;"/><line style="stroke:#000000;stroke-width:1.0;" x1="46" x2="669" y1="164.8594" y2="164.8594"/><text fill="#000000" font-family="sans-serif" font-size="20" lengthAdjust="spacing" textLength="196" x="53" y="158.1426">Asks to list patients</text><polygon fill="#000000" points="1200,198.1406,1210,202.1406,1200,206.1406,1204,202.1406" style="stroke:#000000;stroke-width:1.0;"/><line style="stroke:#000000;stroke-width:1.0;" x1="685" x2="1206" y1="202.1406" y2="202.1406"/><text fill="#000000" font-family="sans-serif" font-size="20" lengthAdjust="spacing" textLength="508" x="692" y="195.4238">Sends HTTP request to list the default patient's list</text><line style="stroke:#000000;stroke-width:1.0;" x1="1222" x2="1264" y1="239.4219" y2="239.4219"/><line style="stroke:#000000;stroke-width:1.0;" x1="1264" x2="1264" y1="239.4219" y2="252.4219"/><line style="stroke:#000000;stroke-width:1.0;" x1="1223" x2="1264" y1="252.4219" y2="252.4219"/><polygon fill="#000000" points="1233,248.4219,1223,252.4219,1233,256.4219,1229,252.4219" style="stroke:#000000;stroke-width:1.0;"/><text fill="#000000" font-family="sans-serif" font-size="20" lengthAdjust="spacing" textLength="466" x="1229" y="232.7051">Validates the data and tries to list the patients</text><polygon fill="#000000" points="696,285.7031,686,289.7031,696,293.7031,692,289.7031" style="stroke:#000000;stroke-width:1.0;"/><line style="stroke:#000000;stroke-width:1.0;stroke-dasharray:2.0,2.0;" x1="690" x2="1216" y1="289.7031" y2="289.7031"/><text fill="#000000" font-family="sans-serif" font-size="20" lengthAdjust="spacing" textLength="311" x="702" y="282.9863">Returns Operation Status Code</text><polygon fill="#000000" points="57,322.9844,47,326.9844,57,330.9844,53,326.9844" style="stroke:#000000;stroke-width:1.0;"/><line style="stroke:#000000;stroke-width:1.0;stroke-dasharray:2.0,2.0;" x1="51" x2="679" y1="326.9844" y2="326.9844"/><text fill="#000000" font-family="sans-serif" font-size="20" lengthAdjust="spacing" textLength="605" x="63" y="320.2676">Displays initial list and asks for the data to filter the patients</text><polygon fill="#000000" points="663,360.2656,673,364.2656,663,368.2656,667,364.2656" style="stroke:#000000;stroke-width:1.0;"/><line style="stroke:#000000;stroke-width:1.0;" x1="46" x2="669" y1="364.2656" y2="364.2656"/><text fill="#000000" font-family="sans-serif" font-size="20" lengthAdjust="spacing" textLength="357" x="53" y="357.5488">Sends the data to filter the patients</text><path d="M690,377.2656 L690,456.2656 L1377,456.2656 L1377,387.2656 L1367,377.2656 L690,377.2656 " fill="#FEFFDD" style="stroke:#181818;stroke-width:0.5;"/><path d="M1367,377.2656 L1367,387.2656 L1377,387.2656 L1367,377.2656 " fill="#FEFFDD" style="stroke:#181818;stroke-width:0.5;"/><text fill="#000000" font-family="sans-serif" font-size="20" lengthAdjust="spacing" textLength="638" x="696" y="400.8301">The data can be First Name and/or Last Name and/or Full Name</text><text fill="#000000" font-family="sans-serif" font-size="20" lengthAdjust="spacing" textLength="666" x="696" y="424.1113">and/or Date of Birth and/or Gender and/or Medical Record Number</text><text fill="#000000" font-family="sans-serif" font-size="20" lengthAdjust="spacing" textLength="354" x="696" y="447.3926">and/or Email and/or Phone Number</text><polygon fill="#000000" points="1200,487.3906,1210,491.3906,1200,495.3906,1204,491.3906" style="stroke:#000000;stroke-width:1.0;"/><line style="stroke:#000000;stroke-width:1.0;" x1="685" x2="1206" y1="491.3906" y2="491.3906"/><text fill="#000000" font-family="sans-serif" font-size="20" lengthAdjust="spacing" textLength="502" x="692" y="484.6738">Sends HTTP request to list the patients with filters</text><line style="stroke:#000000;stroke-width:1.0;" x1="1222" x2="1264" y1="528.6719" y2="528.6719"/><line style="stroke:#000000;stroke-width:1.0;" x1="1264" x2="1264" y1="528.6719" y2="541.6719"/><line style="stroke:#000000;stroke-width:1.0;" x1="1223" x2="1264" y1="541.6719" y2="541.6719"/><polygon fill="#000000" points="1233,537.6719,1223,541.6719,1233,545.6719,1229,541.6719" style="stroke:#000000;stroke-width:1.0;"/><text fill="#000000" font-family="sans-serif" font-size="20" lengthAdjust="spacing" textLength="466" x="1229" y="521.9551">Validates the data and tries to list the patients</text><polygon fill="#000000" points="696,574.9531,686,578.9531,696,582.9531,692,578.9531" style="stroke:#000000;stroke-width:1.0;"/><line style="stroke:#000000;stroke-width:1.0;stroke-dasharray:2.0,2.0;" x1="690" x2="1216" y1="578.9531" y2="578.9531"/><text fill="#000000" font-family="sans-serif" font-size="20" lengthAdjust="spacing" textLength="311" x="702" y="572.2363">Returns Operation Status Code</text><polygon fill="#000000" points="57,612.2344,47,616.2344,57,620.2344,53,616.2344" style="stroke:#000000;stroke-width:1.0;"/><line style="stroke:#000000;stroke-width:1.0;stroke-dasharray:2.0,2.0;" x1="51" x2="679" y1="616.2344" y2="616.2344"/><text fill="#000000" font-family="sans-serif" font-size="20" lengthAdjust="spacing" textLength="380" x="63" y="609.5176">Returns Operation In/Sucess message</text><!--SRC=[pLHDQzj04BthLmp98QUIrD0l4mnI9BK5vmFRzDJBM1hRKwzsrTsHGrhwtpkIBJjE3OMUAf24thptzktihiAQROqUA-EADPLGqW8R8xcpCkKV18EhA18MGp2c3HaOGCguL7uKhRWaeAgM9wYecfCFqKNexM3CbkIf9d1ULYwA3fN2O0ZmCmAz4YpMI-yQMzuuu_przGPDG_VpRrJ8Q0JdwTiipj-VfdhdEawUPabwTPeJo6-ueCxgTJx8abCqjSZo3zcxhXPxxnwtS6AK5_rwdhrM19TqEZsSPqd-9azQ2HQYG5nMR043n97gXGkkqGgSvTbPY-RPCNoRJZfStvq3Rr18jJ6y6Ybv275O1n07XeDe5c6o4WvCzSkpbgi6GvYIBGDyciqUmDFtXbJIIsL5_KhtDXUXAntCsX1wx-s-eE5I2s6hHa50Mu9ufd1alC_LgNV99oIDjm7kQ_9QTnQcWj84k74bHIKT3TjEGdNnK3TRg0q-1M3BmcYsexJZOjkAXVPudqOpBDW8-UCKpxorF_jMRhlpDx5rAlEyN0cuHQURzOe2BSpLaxqckiEAsbYN6cYCBu2yCQO3ljeTahPfr31XFHmzxQCcql5tNxTKSg4Jdb3XV0btJNl2zWPPXMnwwiFAMTen_d4pz1E6HzP0sqw4_sml_2dxR2-dJK7wDwdqeUVonMB_1W00]--></g></svg>