<?xml version="1.0" encoding="UTF-8" standalone="no"?><svg xmlns="http://www.w3.org/2000/svg" xmlns:xlink="http://www.w3.org/1999/xlink" contentStyleType="text/css" height="2157px" preserveAspectRatio="none" style="width:2962px;height:2157px;background:#FFFFFF;" version="1.1" viewBox="0 0 2962 2157" width="2962px" zoomAndPan="magnify"><defs/><g><text fill="#000000" font-family="sans-serif" font-size="14" font-weight="bold" lengthAdjust="spacing" textLength="126" x="1416.5" y="27.9951">Level 3 Diagram</text><rect fill="#FFFFFF" height="1924.875" style="stroke:#181818;stroke-width:1.0;" width="10" x="36" y="135.5781"/><rect fill="#FFFFFF" height="37.2813" style="stroke:#181818;stroke-width:1.0;" width="10" x="450" y="164.8594"/><rect fill="#FFFFFF" height="1812.0313" style="stroke:#181818;stroke-width:1.0;" width="10" x="450" y="239.4219"/><rect fill="#FFFFFF" height="1693.9063" style="stroke:#181818;stroke-width:1.0;" width="10" x="897" y="366.5469"/><rect fill="#FFFFFF" height="1581.0625" style="stroke:#181818;stroke-width:1.0;" width="10" x="1311" y="403.8281"/><rect fill="#FFFFFF" height="1178.6875" style="stroke:#181818;stroke-width:1.0;" width="10" x="1661" y="441.1094"/><rect fill="#FFFFFF" height="124.8438" style="stroke:#181818;stroke-width:1.0;" width="10" x="1846.5" y="1800.7656"/><rect fill="#FFFFFF" height="43.2813" style="stroke:#181818;stroke-width:1.0;" width="10" x="2185.5" y="1838.0469"/><rect fill="#FFFFFF" height="127.125" style="stroke:#181818;stroke-width:1.0;" width="10" x="2460" y="478.3906"/><rect fill="#FFFFFF" height="37.2813" style="stroke:#181818;stroke-width:1.0;" width="10" x="2460" y="683.3594"/><rect fill="#FFFFFF" height="37.2813" style="stroke:#181818;stroke-width:1.0;" width="10" x="2460" y="805.4844"/><rect fill="#FFFFFF" height="37.2813" style="stroke:#181818;stroke-width:1.0;" width="10" x="2460" y="927.6094"/><rect fill="#FFFFFF" height="37.2813" style="stroke:#181818;stroke-width:1.0;" width="10" x="2460" y="1049.7344"/><rect fill="#FFFFFF" height="37.2813" style="stroke:#181818;stroke-width:1.0;" width="10" x="2460" y="1171.8594"/><rect fill="#FFFFFF" height="37.2813" style="stroke:#181818;stroke-width:1.0;" width="10" x="2460" y="1293.9844"/><rect fill="#FFFFFF" height="37.2813" style="stroke:#181818;stroke-width:1.0;" width="10" x="2460" y="1416.1094"/><rect fill="#FFFFFF" height="37.2813" style="stroke:#181818;stroke-width:1.0;" width="10" x="2460" y="1538.2344"/><rect fill="#EBF5FB" height="108.125" style="stroke:#000000;stroke-width:1.5;" width="968.5" x="1560.5" y="620.5156"/><rect fill="#EBF5FB" height="108.125" style="stroke:#000000;stroke-width:1.5;" width="968.5" x="1560.5" y="742.6406"/><rect fill="#EBF5FB" height="108.125" style="stroke:#000000;stroke-width:1.5;" width="968.5" x="1560.5" y="864.7656"/><rect fill="#EBF5FB" height="108.125" style="stroke:#000000;stroke-width:1.5;" width="968.5" x="1560.5" y="986.8906"/><rect fill="#EBF5FB" height="108.125" style="stroke:#000000;stroke-width:1.5;" width="968.5" x="1560.5" y="1109.0156"/><rect fill="#EBF5FB" height="108.125" style="stroke:#000000;stroke-width:1.5;" width="968.5" x="1560.5" y="1231.1406"/><rect fill="#EBF5FB" height="108.125" style="stroke:#000000;stroke-width:1.5;" width="968.5" x="1560.5" y="1353.2656"/><rect fill="#EBF5FB" height="108.125" style="stroke:#000000;stroke-width:1.5;" width="968.5" x="1560.5" y="1475.3906"/><rect fill="#EBF5FB" height="343.0938" style="stroke:#000000;stroke-width:1.5;" width="1554.5" x="800" y="1634.7969"/><rect fill="#EBF5FB" height="272.25" style="stroke:none;stroke-width:1.0;" width="1554.5" x="800" y="1705.6406"/><rect fill="#EBF5FB" height="195.6875" style="stroke:#000000;stroke-width:1.5;" width="1117.5" x="1227" y="1737.9219"/><line style="stroke:#181818;stroke-width:0.5;stroke-dasharray:5.0,5.0;" x1="41" x2="41" y1="125.5781" y2="2069.4531"/><line style="stroke:#181818;stroke-width:0.5;stroke-dasharray:5.0,5.0;" x1="455" x2="455" y1="125.5781" y2="2069.4531"/><line style="stroke:#181818;stroke-width:0.5;stroke-dasharray:5.0,5.0;" x1="902" x2="902" y1="125.5781" y2="2069.4531"/><line style="stroke:#181818;stroke-width:0.5;stroke-dasharray:5.0,5.0;" x1="1316" x2="1316" y1="125.5781" y2="2069.4531"/><line style="stroke:#181818;stroke-width:0.5;stroke-dasharray:5.0,5.0;" x1="1665.5" x2="1665.5" y1="125.5781" y2="2069.4531"/><line style="stroke:#181818;stroke-width:0.5;stroke-dasharray:5.0,5.0;" x1="1851.5" x2="1851.5" y1="125.5781" y2="2069.4531"/><line style="stroke:#181818;stroke-width:0.5;stroke-dasharray:5.0,5.0;" x1="2190.5" x2="2190.5" y1="125.5781" y2="2069.4531"/><line style="stroke:#181818;stroke-width:0.5;stroke-dasharray:5.0,5.0;" x1="2465" x2="2465" y1="125.5781" y2="2069.4531"/><text fill="#000000" font-family="sans-serif" font-size="20" lengthAdjust="spacing" textLength="66" x="5" y="120.8613">Admin</text><ellipse cx="41" cy="50.7969" fill="#E2E2F0" rx="8" ry="8" style="stroke:#181818;stroke-width:0.5;"/><path d="M41,58.7969 L41,85.7969 M28,66.7969 L54,66.7969 M41,85.7969 L28,100.7969 M41,85.7969 L54,100.7969 " fill="none" style="stroke:#181818;stroke-width:0.5;"/><text fill="#000000" font-family="sans-serif" font-size="20" lengthAdjust="spacing" textLength="66" x="5" y="2087.0176">Admin</text><ellipse cx="41" cy="2100.2344" fill="#E2E2F0" rx="8" ry="8" style="stroke:#181818;stroke-width:0.5;"/><path d="M41,2108.2344 L41,2135.2344 M28,2116.2344 L54,2116.2344 M41,2135.2344 L28,2150.2344 M41,2135.2344 L54,2150.2344 " fill="none" style="stroke:#181818;stroke-width:0.5;"/><rect fill="#E2E2F0" height="37.2813" rx="2.5" ry="2.5" style="stroke:#181818;stroke-width:0.5;" width="154" x="378" y="87.2969"/><text fill="#000000" font-family="sans-serif" font-size="20" lengthAdjust="spacing" textLength="140" x="385" y="112.8613">User Interface</text><rect fill="#E2E2F0" height="37.2813" rx="2.5" ry="2.5" style="stroke:#181818;stroke-width:0.5;" width="154" x="378" y="2068.4531"/><text fill="#000000" font-family="sans-serif" font-size="20" lengthAdjust="spacing" textLength="140" x="385" y="2094.0176">User Interface</text><rect fill="#E2E2F0" height="37.2813" rx="2.5" ry="2.5" style="stroke:#181818;stroke-width:0.5;" width="184" x="810" y="87.2969"/><text fill="#000000" font-family="sans-serif" font-size="20" lengthAdjust="spacing" textLength="170" x="817" y="112.8613">PatientController</text><rect fill="#E2E2F0" height="37.2813" rx="2.5" ry="2.5" style="stroke:#181818;stroke-width:0.5;" width="184" x="810" y="2068.4531"/><text fill="#000000" font-family="sans-serif" font-size="20" lengthAdjust="spacing" textLength="170" x="817" y="2094.0176">PatientController</text><rect fill="#E2E2F0" height="37.2813" rx="2.5" ry="2.5" style="stroke:#181818;stroke-width:0.5;" width="158" x="1237" y="87.2969"/><text fill="#000000" font-family="sans-serif" font-size="20" lengthAdjust="spacing" textLength="144" x="1244" y="112.8613">PatientService</text><rect fill="#E2E2F0" height="37.2813" rx="2.5" ry="2.5" style="stroke:#181818;stroke-width:0.5;" width="158" x="1237" y="2068.4531"/><text fill="#000000" font-family="sans-serif" font-size="20" lengthAdjust="spacing" textLength="144" x="1244" y="2094.0176">PatientService</text><rect fill="#E2E2F0" height="37.2813" rx="2.5" ry="2.5" style="stroke:#181818;stroke-width:0.5;" width="191" x="1570.5" y="87.2969"/><text fill="#000000" font-family="sans-serif" font-size="20" lengthAdjust="spacing" textLength="177" x="1577.5" y="112.8613">PatientRepository</text><rect fill="#E2E2F0" height="37.2813" rx="2.5" ry="2.5" style="stroke:#181818;stroke-width:0.5;" width="191" x="1570.5" y="2068.4531"/><text fill="#000000" font-family="sans-serif" font-size="20" lengthAdjust="spacing" textLength="177" x="1577.5" y="2094.0176">PatientRepository</text><rect fill="#E2E2F0" height="37.2813" rx="2.5" ry="2.5" style="stroke:#181818;stroke-width:0.5;" width="160" x="1771.5" y="87.2969"/><text fill="#000000" font-family="sans-serif" font-size="20" lengthAdjust="spacing" textLength="146" x="1778.5" y="112.8613">PatientMapper</text><rect fill="#E2E2F0" height="37.2813" rx="2.5" ry="2.5" style="stroke:#181818;stroke-width:0.5;" width="160" x="1771.5" y="2068.4531"/><text fill="#000000" font-family="sans-serif" font-size="20" lengthAdjust="spacing" textLength="146" x="1778.5" y="2094.0176">PatientMapper</text><rect fill="#E2E2F0" height="37.2813" rx="2.5" ry="2.5" style="stroke:#181818;stroke-width:0.5;" width="128" x="2126.5" y="87.2969"/><text fill="#000000" font-family="sans-serif" font-size="20" lengthAdjust="spacing" textLength="114" x="2133.5" y="112.8613">PatientDTO</text><rect fill="#E2E2F0" height="37.2813" rx="2.5" ry="2.5" style="stroke:#181818;stroke-width:0.5;" width="128" x="2126.5" y="2068.4531"/><text fill="#000000" font-family="sans-serif" font-size="20" lengthAdjust="spacing" textLength="114" x="2133.5" y="2094.0176">PatientDTO</text><rect fill="#E2E2F0" height="37.2813" rx="2.5" ry="2.5" style="stroke:#181818;stroke-width:0.5;" width="108" x="2411" y="87.2969"/><text fill="#000000" font-family="sans-serif" font-size="20" lengthAdjust="spacing" textLength="94" x="2418" y="112.8613">Database</text><rect fill="#E2E2F0" height="37.2813" rx="2.5" ry="2.5" style="stroke:#181818;stroke-width:0.5;" width="108" x="2411" y="2068.4531"/><text fill="#000000" font-family="sans-serif" font-size="20" lengthAdjust="spacing" textLength="94" x="2418" y="2094.0176">Database</text><rect fill="#FFFFFF" height="1924.875" style="stroke:#181818;stroke-width:1.0;" width="10" x="36" y="135.5781"/><rect fill="#FFFFFF" height="37.2813" style="stroke:#181818;stroke-width:1.0;" width="10" x="450" y="164.8594"/><rect fill="#FFFFFF" height="1812.0313" style="stroke:#181818;stroke-width:1.0;" width="10" x="450" y="239.4219"/><rect fill="#FFFFFF" height="1693.9063" style="stroke:#181818;stroke-width:1.0;" width="10" x="897" y="366.5469"/><rect fill="#FFFFFF" height="1581.0625" style="stroke:#181818;stroke-width:1.0;" width="10" x="1311" y="403.8281"/><rect fill="#FFFFFF" height="1178.6875" style="stroke:#181818;stroke-width:1.0;" width="10" x="1661" y="441.1094"/><rect fill="#FFFFFF" height="124.8438" style="stroke:#181818;stroke-width:1.0;" width="10" x="1846.5" y="1800.7656"/><rect fill="#FFFFFF" height="43.2813" style="stroke:#181818;stroke-width:1.0;" width="10" x="2185.5" y="1838.0469"/><rect fill="#FFFFFF" height="127.125" style="stroke:#181818;stroke-width:1.0;" width="10" x="2460" y="478.3906"/><rect fill="#FFFFFF" height="37.2813" style="stroke:#181818;stroke-width:1.0;" width="10" x="2460" y="683.3594"/><rect fill="#FFFFFF" height="37.2813" style="stroke:#181818;stroke-width:1.0;" width="10" x="2460" y="805.4844"/><rect fill="#FFFFFF" height="37.2813" style="stroke:#181818;stroke-width:1.0;" width="10" x="2460" y="927.6094"/><rect fill="#FFFFFF" height="37.2813" style="stroke:#181818;stroke-width:1.0;" width="10" x="2460" y="1049.7344"/><rect fill="#FFFFFF" height="37.2813" style="stroke:#181818;stroke-width:1.0;" width="10" x="2460" y="1171.8594"/><rect fill="#FFFFFF" height="37.2813" style="stroke:#181818;stroke-width:1.0;" width="10" x="2460" y="1293.9844"/><rect fill="#FFFFFF" height="37.2813" style="stroke:#181818;stroke-width:1.0;" width="10" x="2460" y="1416.1094"/><rect fill="#FFFFFF" height="37.2813" style="stroke:#181818;stroke-width:1.0;" width="10" x="2460" y="1538.2344"/><polygon fill="#000000" points="438,160.8594,448,164.8594,438,168.8594,442,164.8594" style="stroke:#000000;stroke-width:1.0;"/><line style="stroke:#000000;stroke-width:1.0;" x1="46" x2="444" y1="164.8594" y2="164.8594"/><text fill="#000000" font-family="sans-serif" font-size="20" lengthAdjust="spacing" textLength="196" x="53" y="158.1426">Asks to list patients</text><polygon fill="#000000" points="57,198.1406,47,202.1406,57,206.1406,53,202.1406" style="stroke:#000000;stroke-width:1.0;"/><line style="stroke:#000000;stroke-width:1.0;stroke-dasharray:2.0,2.0;" x1="51" x2="454" y1="202.1406" y2="202.1406"/><text fill="#000000" font-family="sans-serif" font-size="20" lengthAdjust="spacing" textLength="375" x="63" y="195.4238">Asks for the data to filter the patients</text><polygon fill="#000000" points="438,235.4219,448,239.4219,438,243.4219,442,239.4219" style="stroke:#000000;stroke-width:1.0;"/><line style="stroke:#000000;stroke-width:1.0;" x1="46" x2="444" y1="239.4219" y2="239.4219"/><text fill="#000000" font-family="sans-serif" font-size="20" lengthAdjust="spacing" textLength="357" x="53" y="232.7051">Sends the data to filter the patients</text><path d="M465,252.4219 L465,331.4219 L1152,331.4219 L1152,262.4219 L1142,252.4219 L465,252.4219 " fill="#FEFFDD" style="stroke:#181818;stroke-width:0.5;"/><path d="M1142,252.4219 L1142,262.4219 L1152,262.4219 L1142,252.4219 " fill="#FEFFDD" style="stroke:#181818;stroke-width:0.5;"/><text fill="#000000" font-family="sans-serif" font-size="20" lengthAdjust="spacing" textLength="638" x="471" y="275.9863">The data can be First Name and/or Last Name and/or Full Name</text><text fill="#000000" font-family="sans-serif" font-size="20" lengthAdjust="spacing" textLength="666" x="471" y="299.2676">and/or Date of Birth and/or Gender and/or Medical Record Number</text><text fill="#000000" font-family="sans-serif" font-size="20" lengthAdjust="spacing" textLength="354" x="471" y="322.5488">and/or Email and/or Phone Number</text><polygon fill="#000000" points="885,362.5469,895,366.5469,885,370.5469,889,366.5469" style="stroke:#000000;stroke-width:1.0;"/><line style="stroke:#000000;stroke-width:1.0;" x1="460" x2="891" y1="366.5469" y2="366.5469"/><text fill="#000000" font-family="sans-serif" font-size="20" lengthAdjust="spacing" textLength="385" x="467" y="359.8301">searchPatients(SearchPatientDTO dto)</text><polygon fill="#000000" points="1299,399.8281,1309,403.8281,1299,407.8281,1303,403.8281" style="stroke:#000000;stroke-width:1.0;"/><line style="stroke:#000000;stroke-width:1.0;" x1="907" x2="1305" y1="403.8281" y2="403.8281"/><text fill="#000000" font-family="sans-serif" font-size="20" lengthAdjust="spacing" textLength="385" x="914" y="397.1113">searchPatients(SearchPatientDTO dto)</text><polygon fill="#000000" points="1649,437.1094,1659,441.1094,1649,445.1094,1653,441.1094" style="stroke:#000000;stroke-width:1.0;"/><line style="stroke:#000000;stroke-width:1.0;" x1="1321" x2="1655" y1="441.1094" y2="441.1094"/><text fill="#000000" font-family="sans-serif" font-size="20" lengthAdjust="spacing" textLength="255" x="1328" y="434.3926">searchPatientsAsync(dto)</text><polygon fill="#000000" points="2448,474.3906,2458,478.3906,2448,482.3906,2452,478.3906" style="stroke:#000000;stroke-width:1.0;"/><line style="stroke:#000000;stroke-width:1.0;" x1="1671" x2="2454" y1="478.3906" y2="478.3906"/><text fill="#000000" font-family="sans-serif" font-size="20" lengthAdjust="spacing" textLength="200" x="1678" y="471.6738">_objs.AsQueryable()</text><path d="M2475,491.3906 L2475,570.3906 L2955,570.3906 L2955,501.3906 L2945,491.3906 L2475,491.3906 " fill="#FEFFDD" style="stroke:#181818;stroke-width:0.5;"/><path d="M2945,491.3906 L2945,501.3906 L2955,501.3906 L2945,491.3906 " fill="#FEFFDD" style="stroke:#181818;stroke-width:0.5;"/><text fill="#000000" font-family="sans-serif" font-size="20" lengthAdjust="spacing" textLength="459" x="2481" y="514.9551">This will return a queryable list of all patients.</text><text fill="#000000" font-family="sans-serif" font-size="20" lengthAdjust="spacing" textLength="459" x="2481" y="538.2363">This means that other queries can be chained</text><text fill="#000000" font-family="sans-serif" font-size="20" lengthAdjust="spacing" textLength="402" x="2481" y="561.5176">to this one in order to filter the patients.</text><polygon fill="#000000" points="1682,601.5156,1672,605.5156,1682,609.5156,1678,605.5156" style="stroke:#000000;stroke-width:1.0;"/><line style="stroke:#000000;stroke-width:1.0;stroke-dasharray:2.0,2.0;" x1="1676" x2="2464" y1="605.5156" y2="605.5156"/><text fill="#000000" font-family="sans-serif" font-size="20" lengthAdjust="spacing" textLength="402" x="1688" y="598.7988">Returns the queryable list of all patients</text><path d="M1560.5,620.5156 L1643.5,620.5156 L1643.5,635.7969 L1633.5,645.7969 L1560.5,645.7969 L1560.5,620.5156 " fill="#EEEEEE" style="stroke:#000000;stroke-width:1.5;"/><rect fill="none" height="108.125" style="stroke:#000000;stroke-width:1.5;" width="968.5" x="1560.5" y="620.5156"/><text fill="#000000" font-family="sans-serif" font-size="20" font-weight="bold" lengthAdjust="spacing" textLength="38" x="1575.5" y="640.0801">opt</text><text fill="#000000" font-family="sans-serif" font-size="20" font-weight="bold" lengthAdjust="spacing" textLength="368" x="1658.5" y="641.0801">[Filter queryable by First Name]</text><polygon fill="#000000" points="2448,679.3594,2458,683.3594,2448,687.3594,2452,683.3594" style="stroke:#000000;stroke-width:1.0;"/><line style="stroke:#000000;stroke-width:1.0;" x1="1671" x2="2454" y1="683.3594" y2="683.3594"/><text fill="#000000" font-family="sans-serif" font-size="20" lengthAdjust="spacing" textLength="513" x="1678" y="676.6426">query.Where(p =&gt; p.FirstName == dto.FirstName)</text><polygon fill="#000000" points="1682,716.6406,1672,720.6406,1682,724.6406,1678,720.6406" style="stroke:#000000;stroke-width:1.0;"/><line style="stroke:#000000;stroke-width:1.0;stroke-dasharray:2.0,2.0;" x1="1676" x2="2464" y1="720.6406" y2="720.6406"/><text fill="#000000" font-family="sans-serif" font-size="20" lengthAdjust="spacing" textLength="530" x="1688" y="713.9238">Returns the queryable list of patients filtered by First</text><path d="M1560.5,742.6406 L1643.5,742.6406 L1643.5,757.9219 L1633.5,767.9219 L1560.5,767.9219 L1560.5,742.6406 " fill="#EEEEEE" style="stroke:#000000;stroke-width:1.5;"/><rect fill="none" height="108.125" style="stroke:#000000;stroke-width:1.5;" width="968.5" x="1560.5" y="742.6406"/><text fill="#000000" font-family="sans-serif" font-size="20" font-weight="bold" lengthAdjust="spacing" textLength="38" x="1575.5" y="762.2051">opt</text><text fill="#000000" font-family="sans-serif" font-size="20" font-weight="bold" lengthAdjust="spacing" textLength="364" x="1658.5" y="763.2051">[Filter queryable by Last Name]</text><polygon fill="#000000" points="2448,801.4844,2458,805.4844,2448,809.4844,2452,805.4844" style="stroke:#000000;stroke-width:1.0;"/><line style="stroke:#000000;stroke-width:1.0;" x1="1671" x2="2454" y1="805.4844" y2="805.4844"/><text fill="#000000" font-family="sans-serif" font-size="20" lengthAdjust="spacing" textLength="507" x="1678" y="798.7676">query.Where(p =&gt; p.LastName == dto.LastName)</text><polygon fill="#000000" points="1682,838.7656,1672,842.7656,1682,846.7656,1678,842.7656" style="stroke:#000000;stroke-width:1.0;"/><line style="stroke:#000000;stroke-width:1.0;stroke-dasharray:2.0,2.0;" x1="1676" x2="2464" y1="842.7656" y2="842.7656"/><text fill="#000000" font-family="sans-serif" font-size="20" lengthAdjust="spacing" textLength="592" x="1688" y="836.0488">Returns the queryable list of patients filtered by Last Name</text><path d="M1560.5,864.7656 L1643.5,864.7656 L1643.5,880.0469 L1633.5,890.0469 L1560.5,890.0469 L1560.5,864.7656 " fill="#EEEEEE" style="stroke:#000000;stroke-width:1.5;"/><rect fill="none" height="108.125" style="stroke:#000000;stroke-width:1.5;" width="968.5" x="1560.5" y="864.7656"/><text fill="#000000" font-family="sans-serif" font-size="20" font-weight="bold" lengthAdjust="spacing" textLength="38" x="1575.5" y="884.3301">opt</text><text fill="#000000" font-family="sans-serif" font-size="20" font-weight="bold" lengthAdjust="spacing" textLength="357" x="1658.5" y="885.3301">[Filter queryable by Full Name]</text><polygon fill="#000000" points="2448,923.6094,2458,927.6094,2448,931.6094,2452,927.6094" style="stroke:#000000;stroke-width:1.0;"/><line style="stroke:#000000;stroke-width:1.0;" x1="1671" x2="2454" y1="927.6094" y2="927.6094"/><text fill="#000000" font-family="sans-serif" font-size="20" lengthAdjust="spacing" textLength="515" x="1678" y="920.8926">query.Where(p =&gt; (p.FullName) == dto.FullName)</text><polygon fill="#000000" points="1682,960.8906,1672,964.8906,1682,968.8906,1678,964.8906" style="stroke:#000000;stroke-width:1.0;"/><line style="stroke:#000000;stroke-width:1.0;stroke-dasharray:2.0,2.0;" x1="1676" x2="2464" y1="964.8906" y2="964.8906"/><text fill="#000000" font-family="sans-serif" font-size="20" lengthAdjust="spacing" textLength="588" x="1688" y="958.1738">Returns the queryable list of patients filtered by Full Name</text><path d="M1560.5,986.8906 L1643.5,986.8906 L1643.5,1002.1719 L1633.5,1012.1719 L1560.5,1012.1719 L1560.5,986.8906 " fill="#EEEEEE" style="stroke:#000000;stroke-width:1.5;"/><rect fill="none" height="108.125" style="stroke:#000000;stroke-width:1.5;" width="968.5" x="1560.5" y="986.8906"/><text fill="#000000" font-family="sans-serif" font-size="20" font-weight="bold" lengthAdjust="spacing" textLength="38" x="1575.5" y="1006.4551">opt</text><text fill="#000000" font-family="sans-serif" font-size="20" font-weight="bold" lengthAdjust="spacing" textLength="390" x="1658.5" y="1007.4551">[Filter queryable by Date of Birth]</text><polygon fill="#000000" points="2448,1045.7344,2458,1049.7344,2448,1053.7344,2452,1049.7344" style="stroke:#000000;stroke-width:1.0;"/><line style="stroke:#000000;stroke-width:1.0;" x1="1671" x2="2454" y1="1049.7344" y2="1049.7344"/><text fill="#000000" font-family="sans-serif" font-size="20" lengthAdjust="spacing" textLength="552" x="1678" y="1043.0176">query.Where(p =&gt; p.DateOfBirth == dto.DateOfBirth);</text><polygon fill="#000000" points="1682,1083.0156,1672,1087.0156,1682,1091.0156,1678,1087.0156" style="stroke:#000000;stroke-width:1.0;"/><line style="stroke:#000000;stroke-width:1.0;stroke-dasharray:2.0,2.0;" x1="1676" x2="2464" y1="1087.0156" y2="1087.0156"/><text fill="#000000" font-family="sans-serif" font-size="20" lengthAdjust="spacing" textLength="613" x="1688" y="1080.2988">Returns the queryable list of patients filtered by Date of Birth</text><path d="M1560.5,1109.0156 L1643.5,1109.0156 L1643.5,1124.2969 L1633.5,1134.2969 L1560.5,1134.2969 L1560.5,1109.0156 " fill="#EEEEEE" style="stroke:#000000;stroke-width:1.5;"/><rect fill="none" height="108.125" style="stroke:#000000;stroke-width:1.5;" width="968.5" x="1560.5" y="1109.0156"/><text fill="#000000" font-family="sans-serif" font-size="20" font-weight="bold" lengthAdjust="spacing" textLength="38" x="1575.5" y="1128.5801">opt</text><text fill="#000000" font-family="sans-serif" font-size="20" font-weight="bold" lengthAdjust="spacing" textLength="324" x="1658.5" y="1129.5801">[Filter queryable by Gender]</text><polygon fill="#000000" points="2448,1167.8594,2458,1171.8594,2448,1175.8594,2452,1171.8594" style="stroke:#000000;stroke-width:1.0;"/><line style="stroke:#000000;stroke-width:1.0;" x1="1671" x2="2454" y1="1171.8594" y2="1171.8594"/><text fill="#000000" font-family="sans-serif" font-size="20" lengthAdjust="spacing" textLength="498" x="1678" y="1165.1426">query.Where(p =&gt; p.GenderOptions == gender);</text><polygon fill="#000000" points="1682,1205.1406,1672,1209.1406,1682,1213.1406,1678,1209.1406" style="stroke:#000000;stroke-width:1.0;"/><line style="stroke:#000000;stroke-width:1.0;stroke-dasharray:2.0,2.0;" x1="1676" x2="2464" y1="1209.1406" y2="1209.1406"/><text fill="#000000" font-family="sans-serif" font-size="20" lengthAdjust="spacing" textLength="560" x="1688" y="1202.4238">Returns the queryable list of patients filtered by Gender</text><path d="M1560.5,1231.1406 L1643.5,1231.1406 L1643.5,1246.4219 L1633.5,1256.4219 L1560.5,1256.4219 L1560.5,1231.1406 " fill="#EEEEEE" style="stroke:#000000;stroke-width:1.5;"/><rect fill="none" height="108.125" style="stroke:#000000;stroke-width:1.5;" width="968.5" x="1560.5" y="1231.1406"/><text fill="#000000" font-family="sans-serif" font-size="20" font-weight="bold" lengthAdjust="spacing" textLength="38" x="1575.5" y="1250.7051">opt</text><text fill="#000000" font-family="sans-serif" font-size="20" font-weight="bold" lengthAdjust="spacing" textLength="513" x="1658.5" y="1251.7051">[Filter queryable by Medical Record Number]</text><polygon fill="#000000" points="2448,1289.9844,2458,1293.9844,2448,1297.9844,2452,1293.9844" style="stroke:#000000;stroke-width:1.0;"/><line style="stroke:#000000;stroke-width:1.0;" x1="1671" x2="2454" y1="1293.9844" y2="1293.9844"/><text fill="#000000" font-family="sans-serif" font-size="20" lengthAdjust="spacing" textLength="770" x="1678" y="1287.2676">query.Where(p =&gt; p.MedicalRecordNumber == dto.MedicalRecordNumber);</text><polygon fill="#000000" points="1682,1327.2656,1672,1331.2656,1682,1335.2656,1678,1331.2656" style="stroke:#000000;stroke-width:1.0;"/><line style="stroke:#000000;stroke-width:1.0;stroke-dasharray:2.0,2.0;" x1="1676" x2="2464" y1="1331.2656" y2="1331.2656"/><text fill="#000000" font-family="sans-serif" font-size="20" lengthAdjust="spacing" textLength="726" x="1688" y="1324.5488">Returns the queryable list of patients filtered by Medical Record Number</text><path d="M1560.5,1353.2656 L1643.5,1353.2656 L1643.5,1368.5469 L1633.5,1378.5469 L1560.5,1378.5469 L1560.5,1353.2656 " fill="#EEEEEE" style="stroke:#000000;stroke-width:1.5;"/><rect fill="none" height="108.125" style="stroke:#000000;stroke-width:1.5;" width="968.5" x="1560.5" y="1353.2656"/><text fill="#000000" font-family="sans-serif" font-size="20" font-weight="bold" lengthAdjust="spacing" textLength="38" x="1575.5" y="1372.8301">opt</text><text fill="#000000" font-family="sans-serif" font-size="20" font-weight="bold" lengthAdjust="spacing" textLength="305" x="1658.5" y="1373.8301">[Filter queryable by Email]</text><polygon fill="#000000" points="2448,1412.1094,2458,1416.1094,2448,1420.1094,2452,1416.1094" style="stroke:#000000;stroke-width:1.0;"/><line style="stroke:#000000;stroke-width:1.0;" x1="1671" x2="2454" y1="1416.1094" y2="1416.1094"/><text fill="#000000" font-family="sans-serif" font-size="20" lengthAdjust="spacing" textLength="428" x="1678" y="1409.3926">query.Where(p =&gt; p.Email == dto.Email);</text><polygon fill="#000000" points="1682,1449.3906,1672,1453.3906,1682,1457.3906,1678,1453.3906" style="stroke:#000000;stroke-width:1.0;"/><line style="stroke:#000000;stroke-width:1.0;stroke-dasharray:2.0,2.0;" x1="1676" x2="2464" y1="1453.3906" y2="1453.3906"/><text fill="#000000" font-family="sans-serif" font-size="20" lengthAdjust="spacing" textLength="543" x="1688" y="1446.6738">Returns the queryable list of patients filtered by Email</text><path d="M1560.5,1475.3906 L1643.5,1475.3906 L1643.5,1490.6719 L1633.5,1500.6719 L1560.5,1500.6719 L1560.5,1475.3906 " fill="#EEEEEE" style="stroke:#000000;stroke-width:1.5;"/><rect fill="none" height="108.125" style="stroke:#000000;stroke-width:1.5;" width="968.5" x="1560.5" y="1475.3906"/><text fill="#000000" font-family="sans-serif" font-size="20" font-weight="bold" lengthAdjust="spacing" textLength="38" x="1575.5" y="1494.9551">opt</text><text fill="#000000" font-family="sans-serif" font-size="20" font-weight="bold" lengthAdjust="spacing" textLength="410" x="1658.5" y="1495.9551">[Filter queryable by Phone Number]</text><polygon fill="#000000" points="2448,1534.2344,2458,1538.2344,2448,1542.2344,2452,1538.2344" style="stroke:#000000;stroke-width:1.0;"/><line style="stroke:#000000;stroke-width:1.0;" x1="1671" x2="2454" y1="1538.2344" y2="1538.2344"/><text fill="#000000" font-family="sans-serif" font-size="20" lengthAdjust="spacing" textLength="600" x="1678" y="1531.5176">query.Where(p =&gt; p.PhoneNumber == dto.PhoneNumber);</text><polygon fill="#000000" points="1682,1571.5156,1672,1575.5156,1682,1579.5156,1678,1575.5156" style="stroke:#000000;stroke-width:1.0;"/><line style="stroke:#000000;stroke-width:1.0;stroke-dasharray:2.0,2.0;" x1="1676" x2="2464" y1="1575.5156" y2="1575.5156"/><text fill="#000000" font-family="sans-serif" font-size="20" lengthAdjust="spacing" textLength="635" x="1688" y="1568.7988">Returns the queryable list of patients filtered by Phone Number</text><polygon fill="#000000" points="1332,1615.7969,1322,1619.7969,1332,1623.7969,1328,1619.7969" style="stroke:#000000;stroke-width:1.0;"/><line style="stroke:#000000;stroke-width:1.0;stroke-dasharray:2.0,2.0;" x1="1326" x2="1665" y1="1619.7969" y2="1619.7969"/><text fill="#000000" font-family="sans-serif" font-size="20" lengthAdjust="spacing" textLength="316" x="1338" y="1613.0801">Returns the final list of patients</text><path d="M800,1634.7969 L876,1634.7969 L876,1650.0781 L866,1660.0781 L800,1660.0781 L800,1634.7969 " fill="#EEEEEE" style="stroke:#000000;stroke-width:1.5;"/><rect fill="none" height="343.0938" style="stroke:#000000;stroke-width:1.5;" width="1554.5" x="800" y="1634.7969"/><text fill="#000000" font-family="sans-serif" font-size="20" font-weight="bold" lengthAdjust="spacing" textLength="31" x="815" y="1654.3613">alt</text><text fill="#000000" font-family="sans-serif" font-size="20" font-weight="bold" lengthAdjust="spacing" textLength="129" x="891" y="1655.3613">[list is null]</text><polygon fill="#000000" points="918,1693.6406,908,1697.6406,918,1701.6406,914,1697.6406" style="stroke:#000000;stroke-width:1.0;"/><line style="stroke:#000000;stroke-width:1.0;stroke-dasharray:2.0,2.0;" x1="912" x2="1310" y1="1697.6406" y2="1697.6406"/><text fill="#000000" font-family="sans-serif" font-size="20" lengthAdjust="spacing" textLength="122" x="924" y="1690.9238">Returns null</text><line style="stroke:#000000;stroke-width:1.0;stroke-dasharray:2.0,2.0;" x1="800" x2="2354.5" y1="1706.6406" y2="1706.6406"/><text fill="#000000" font-family="sans-serif" font-size="20" font-weight="bold" lengthAdjust="spacing" textLength="174" x="805" y="1725.2051">[list is not null]</text><path d="M1227,1737.9219 L1321,1737.9219 L1321,1753.2031 L1311,1763.2031 L1227,1763.2031 L1227,1737.9219 " fill="#EEEEEE" style="stroke:#000000;stroke-width:1.5;"/><rect fill="none" height="195.6875" style="stroke:#000000;stroke-width:1.5;" width="1117.5" x="1227" y="1737.9219"/><text fill="#000000" font-family="sans-serif" font-size="20" font-weight="bold" lengthAdjust="spacing" textLength="49" x="1242" y="1757.4863">loop</text><text fill="#000000" font-family="sans-serif" font-size="20" font-weight="bold" lengthAdjust="spacing" textLength="318" x="1336" y="1758.4863">[for each patient in the list]</text><polygon fill="#000000" points="1834.5,1796.7656,1844.5,1800.7656,1834.5,1804.7656,1838.5,1800.7656" style="stroke:#000000;stroke-width:1.0;"/><line style="stroke:#000000;stroke-width:1.0;" x1="1321" x2="1840.5" y1="1800.7656" y2="1800.7656"/><text fill="#000000" font-family="sans-serif" font-size="20" lengthAdjust="spacing" textLength="151" x="1328" y="1794.0488">toDTO(patient)</text><polygon fill="#000000" points="2173.5,1834.0469,2183.5,1838.0469,2173.5,1842.0469,2177.5,1838.0469" style="stroke:#000000;stroke-width:1.0;"/><line style="stroke:#000000;stroke-width:1.0;" x1="1856.5" x2="2179.5" y1="1838.0469" y2="1838.0469"/><text fill="#000000" font-family="sans-serif" font-size="20" lengthAdjust="spacing" textLength="310" x="1863.5" y="1831.3301">new PatientDTO(patient fields)</text><line style="stroke:#000000;stroke-width:1.0;" x1="2195.5" x2="2237.5" y1="1880.3281" y2="1880.3281"/><line style="stroke:#000000;stroke-width:1.0;" x1="2237.5" x2="2237.5" y1="1880.3281" y2="1893.3281"/><line style="stroke:#000000;stroke-width:1.0;" x1="2190.5" x2="2237.5" y1="1893.3281" y2="1893.3281"/><polygon fill="#000000" points="2200.5,1889.3281,2190.5,1893.3281,2200.5,1897.3281,2196.5,1893.3281" style="stroke:#000000;stroke-width:1.0;"/><text fill="#000000" font-family="sans-serif" font-size="20" lengthAdjust="spacing" textLength="130" x="2202.5" y="1873.6113">PatientDTO()</text><polygon fill="#000000" points="1332,1921.6094,1322,1925.6094,1332,1929.6094,1328,1925.6094" style="stroke:#000000;stroke-width:1.0;"/><line style="stroke:#000000;stroke-width:1.0;stroke-dasharray:2.0,2.0;" x1="1326" x2="1850.5" y1="1925.6094" y2="1925.6094"/><text fill="#000000" font-family="sans-serif" font-size="20" lengthAdjust="spacing" textLength="237" x="1338" y="1918.8926">Returns the PatientDTO</text><polygon fill="#000000" points="918,1965.8906,908,1969.8906,918,1973.8906,914,1969.8906" style="stroke:#000000;stroke-width:1.0;"/><line style="stroke:#000000;stroke-width:1.0;stroke-dasharray:2.0,2.0;" x1="912" x2="1310" y1="1969.8906" y2="1969.8906"/><text fill="#000000" font-family="sans-serif" font-size="20" lengthAdjust="spacing" textLength="308" x="924" y="1963.1738">Returns the list of PatientDTOs</text><polygon fill="#000000" points="471,2010.1719,461,2014.1719,471,2018.1719,467,2014.1719" style="stroke:#000000;stroke-width:1.0;"/><line style="stroke:#000000;stroke-width:1.0;stroke-dasharray:2.0,2.0;" x1="465" x2="896" y1="2014.1719" y2="2014.1719"/><text fill="#000000" font-family="sans-serif" font-size="20" lengthAdjust="spacing" textLength="413" x="477" y="2007.4551">Returns Operation Status Response Code</text><polygon fill="#000000" points="57,2047.4531,47,2051.4531,57,2055.4531,53,2051.4531" style="stroke:#000000;stroke-width:1.0;"/><line style="stroke:#000000;stroke-width:1.0;stroke-dasharray:2.0,2.0;" x1="51" x2="454" y1="2051.4531" y2="2051.4531"/><text fill="#000000" font-family="sans-serif" font-size="20" lengthAdjust="spacing" textLength="380" x="63" y="2044.7363">Returns Operation In/Sucess message</text><!--SRC=[jLTDZzis4BthLmoIGxs7E6cAfgsRDM1PTh70EawbNVIoG45BOvjPcbH9UXTkqV_U8VMzLceNg7tZyBtXUvmHIPj7BdEcsKwez14po73DziBEbRG9_nFX_RiWiDmAX5jyGW7VGSJPXl11iEKP0kvoUu0TxbQeJV2DgTB1BPTe3pc2qdQhWg2PIGKp1luAW7uXInytMkrbDbL2wOyVdvZOutBr1LCx7iFhwCDiCl-n7wgLyfXvD0kZT_qOW_g9f-XJVJj_FmlxO9HYDlzfzeEVcsYjdejmA0WN_DtMdbE4RR1VFRoUXVFlvo5HM6ffFCbsN08pC0c8RddASoOjlBedMN0ZBUerI_6LGzpVT26VcUKexPJge9KGg3rgsWjA2fCUaVGYOioLuIJfu45nBsZ1yhnSPz4BYEwMVZRgpaRCiXKpnVfH63Zp_8bP9DiJU3CcRoEOc4S3Le7Wnj8k-docGPBz-njuG-19YLtJ_jajGaRP7N7D1UsN3zNq3Di9whKIb9avIPQAQ9fljXRKslFkAaRA9AmGvboJs4ziXy1azfO4tR8NWVbU21zua6KaSceeOSYfxolOBwI8rYz72ynuoWJ4c2gTmQUz-tZg1BCTuwA2VjugYINYQBV6C1s1GQRJRLaXCqZQGoeOP5PTDSnfC7MyvB_oaY1nlFWbRs8ECXrqiN4GEsmKZk1tjVfYXXFpwnxrWQq43beuQfLk3HpZRiiDF7FQLOrsh-dhWJygSj4y16GqNTLn-20zPuTCkg8pGb2TjQTnD5KnqosZ4obxaDGErX7SnjBNIHLmdT7R8yCW2drJak_OoodQwjyLjTkIFAhSKYVvt0rlTMXrbpzBwZtpeE5lP047ELoF8Hzwg6-xwsjNc2PmvRdjvTpuNDMLuj8x7V-rBf-dQuHw-AjcwW_Zf1U7R5kfnXTmqXLrlfdwepvXPa2L8QXNNrUc2boWC1rPvzlfd4Wdw-FGotLnUfMUMg6hd_z_NyVwplTM7AmdJHMmPMwv8craQ-C3bt3JKdI-ZTuRuQIhabMG2avLifwfIvZzkkxplVlxxgJNubOitVd19VmqMixNtxcYJzdmu6wfMg5BM3gIT-mizkcJRlerbrJObwdRTriSC64B15sdaauddp_nsQPDDZ-3mc23LRR12wLo_zgZpDjg8NSpEnMEuL5bvZ4iHdHPqmDbK2AlwkbQsA8EBNmfHY3n6PgtJKKbZoWoqvCXgaDHcQ75Rl3jhMolURoR3RsFN0XsfUZTm6eZN26QHCRNhfKbSM-xyWbSKPVqecVkr8F4Chkdfp-QdCv0UWcg35jlxcF2ZNoRx5Cqxcbb3FtfUV7S3lu1]--></g></svg>