<?xml version="1.0" encoding="UTF-8" standalone="no"?><svg xmlns="http://www.w3.org/2000/svg" xmlns:xlink="http://www.w3.org/1999/xlink" contentStyleType="text/css" height="507px" preserveAspectRatio="none" style="width:2223px;height:507px;background:#FFFFFF;" version="1.1" viewBox="0 0 2223 507" width="2223px" zoomAndPan="magnify"><defs/><g><text fill="#000000" font-family="sans-serif" font-size="14" font-weight="bold" lengthAdjust="spacing" textLength="268" x="979.5" y="27.9951">Level 2 Diagram for Creating Staff</text><rect fill="#FFFFFF" height="274.9688" style="stroke:#181818;stroke-width:1.0;" width="10" x="36" y="135.5781"/><rect fill="#FFFFFF" height="37.2813" style="stroke:#181818;stroke-width:1.0;" width="10" x="1134" y="164.8594"/><rect fill="#FFFFFF" height="162.125" style="stroke:#181818;stroke-width:1.0;" width="10" x="1134" y="239.4219"/><rect fill="#FFFFFF" height="87.5625" style="stroke:#181818;stroke-width:1.0;" width="10" x="1705" y="276.7031"/><line style="stroke:#181818;stroke-width:0.5;stroke-dasharray:5.0,5.0;" x1="41" x2="41" y1="125.5781" y2="419.5469"/><line style="stroke:#181818;stroke-width:0.5;stroke-dasharray:5.0,5.0;" x1="1138.5" x2="1138.5" y1="125.5781" y2="419.5469"/><line style="stroke:#181818;stroke-width:0.5;stroke-dasharray:5.0,5.0;" x1="1710" x2="1710" y1="125.5781" y2="419.5469"/><text fill="#000000" font-family="sans-serif" font-size="20" lengthAdjust="spacing" textLength="66" x="5" y="120.8613">Admin</text><ellipse cx="41" cy="50.7969" fill="#E2E2F0" rx="8" ry="8" style="stroke:#181818;stroke-width:0.5;"/><path d="M41,58.7969 L41,85.7969 M28,66.7969 L54,66.7969 M41,85.7969 L28,100.7969 M41,85.7969 L54,100.7969 " fill="none" style="stroke:#181818;stroke-width:0.5;"/><text fill="#000000" font-family="sans-serif" font-size="20" lengthAdjust="spacing" textLength="66" x="5" y="437.1113">Admin</text><ellipse cx="41" cy="450.3281" fill="#E2E2F0" rx="8" ry="8" style="stroke:#181818;stroke-width:0.5;"/><path d="M41,458.3281 L41,485.3281 M28,466.3281 L54,466.3281 M41,485.3281 L28,500.3281 M41,485.3281 L54,500.3281 " fill="none" style="stroke:#181818;stroke-width:0.5;"/><rect fill="#E2E2F0" height="37.2813" rx="2.5" ry="2.5" style="stroke:#181818;stroke-width:0.5;" width="39" x="1119.5" y="87.2969"/><text fill="#000000" font-family="sans-serif" font-size="20" lengthAdjust="spacing" textLength="25" x="1126.5" y="112.8613">FE</text><rect fill="#E2E2F0" height="37.2813" rx="2.5" ry="2.5" style="stroke:#181818;stroke-width:0.5;" width="39" x="1119.5" y="418.5469"/><text fill="#000000" font-family="sans-serif" font-size="20" lengthAdjust="spacing" textLength="25" x="1126.5" y="444.1113">FE</text><rect fill="#E2E2F0" height="37.2813" rx="2.5" ry="2.5" style="stroke:#181818;stroke-width:0.5;" width="60" x="1680" y="87.2969"/><text fill="#000000" font-family="sans-serif" font-size="20" lengthAdjust="spacing" textLength="46" x="1687" y="112.8613">MDR</text><rect fill="#E2E2F0" height="37.2813" rx="2.5" ry="2.5" style="stroke:#181818;stroke-width:0.5;" width="60" x="1680" y="418.5469"/><text fill="#000000" font-family="sans-serif" font-size="20" lengthAdjust="spacing" textLength="46" x="1687" y="444.1113">MDR</text><rect fill="#FFFFFF" height="274.9688" style="stroke:#181818;stroke-width:1.0;" width="10" x="36" y="135.5781"/><rect fill="#FFFFFF" height="37.2813" style="stroke:#181818;stroke-width:1.0;" width="10" x="1134" y="164.8594"/><rect fill="#FFFFFF" height="162.125" style="stroke:#181818;stroke-width:1.0;" width="10" x="1134" y="239.4219"/><rect fill="#FFFFFF" height="87.5625" style="stroke:#181818;stroke-width:1.0;" width="10" x="1705" y="276.7031"/><polygon fill="#000000" points="1122,160.8594,1132,164.8594,1122,168.8594,1126,164.8594" style="stroke:#000000;stroke-width:1.0;"/><line style="stroke:#000000;stroke-width:1.0;" x1="46" x2="1128" y1="164.8594" y2="164.8594"/><text fill="#000000" font-family="sans-serif" font-size="20" lengthAdjust="spacing" textLength="212" x="53" y="158.1426">Asks to create a Staff</text><polygon fill="#000000" points="57,198.1406,47,202.1406,57,206.1406,53,202.1406" style="stroke:#000000;stroke-width:1.0;"/><line style="stroke:#000000;stroke-width:1.0;stroke-dasharray:2.0,2.0;" x1="51" x2="1138" y1="202.1406" y2="202.1406"/><text fill="#000000" font-family="sans-serif" font-size="20" lengthAdjust="spacing" textLength="199" x="63" y="195.4238">Asks for Staff's data</text><polygon fill="#000000" points="1122,235.4219,1132,239.4219,1122,243.4219,1126,239.4219" style="stroke:#000000;stroke-width:1.0;"/><line style="stroke:#000000;stroke-width:1.0;" x1="46" x2="1128" y1="239.4219" y2="239.4219"/><text fill="#000000" font-family="sans-serif" font-size="20" lengthAdjust="spacing" textLength="1069" x="53" y="232.7051">Sends Staff's data (FirstName, LastName, FullName, Email, PhoneNumber, StaffType, SpecializationName)</text><polygon fill="#000000" points="1693,272.7031,1703,276.7031,1693,280.7031,1697,276.7031" style="stroke:#000000;stroke-width:1.0;"/><line style="stroke:#000000;stroke-width:1.0;" x1="1144" x2="1699" y1="276.7031" y2="276.7031"/><text fill="#000000" font-family="sans-serif" font-size="20" lengthAdjust="spacing" textLength="542" x="1151" y="269.9863">Sends HTTP Request to create a Staff with Staff's data</text><line style="stroke:#000000;stroke-width:1.0;" x1="1715" x2="1757" y1="313.9844" y2="313.9844"/><line style="stroke:#000000;stroke-width:1.0;" x1="1757" x2="1757" y1="313.9844" y2="326.9844"/><line style="stroke:#000000;stroke-width:1.0;" x1="1716" x2="1757" y1="326.9844" y2="326.9844"/><polygon fill="#000000" points="1726,322.9844,1716,326.9844,1726,330.9844,1722,326.9844" style="stroke:#000000;stroke-width:1.0;"/><text fill="#000000" font-family="sans-serif" font-size="20" lengthAdjust="spacing" textLength="494" x="1722" y="307.2676">Validates Staff's data and tries to create the Staff</text><polygon fill="#000000" points="1155,360.2656,1145,364.2656,1155,368.2656,1151,364.2656" style="stroke:#000000;stroke-width:1.0;"/><line style="stroke:#000000;stroke-width:1.0;stroke-dasharray:2.0,2.0;" x1="1149" x2="1709" y1="364.2656" y2="364.2656"/><text fill="#000000" font-family="sans-serif" font-size="20" lengthAdjust="spacing" textLength="311" x="1161" y="357.5488">Returns Operation Status Code</text><polygon fill="#000000" points="57,397.5469,47,401.5469,57,405.5469,53,401.5469" style="stroke:#000000;stroke-width:1.0;"/><line style="stroke:#000000;stroke-width:1.0;stroke-dasharray:2.0,2.0;" x1="51" x2="1138" y1="401.5469" y2="401.5469"/><text fill="#000000" font-family="sans-serif" font-size="20" lengthAdjust="spacing" textLength="391" x="63" y="394.8301">Returns Operation In/Success message</text><!--SRC=[RP9jQzim4CVV-rCSxOjjaB8kiATI0dOiiK7NbZZq_LM-95faoPFEAMtPTv_aF2nfOh0jJh_xtzrV2ajjM_JO6AUML4DDC-mCIsUvqYy4myiiOys6u8PMP608fSPvv67cF8mz8MixXufnDikoXQu9g6dv6Hfg7ic7B0lR2g0CXW2l6SIdGBMSUzVPUkoCyzVNApGTtJt-9iMZ4PoNNqGklvr6lNCz8qjHb9UdcK1-fHNrKf_aK1Idi2WXv7VnjT_BlNTFwt1X8fVztU-zZH6Sq-dkuLmKyhCiKWegZe6yRhG5391dCP-rqYrQXZCfpb9KYiFmhtBIn-E_Lz0hP8gvELoC8dm5ULW6O0Sg6Kw06yDtQ1IK0YuYdM_WT3mzz2v0ZOnPJVlqJhaYMuS34jvBxGFVOaC3kC7jIdR6h5UYGMq6SBzmbcwxTCo3jS3qkOtRLKjAez4lyMeucr8-73KwIgDkY_-OJkzXGdyw2dmy93nfNXoEibDBViLtf_SGoqQ2tWo4jWRsclOjv0LjJEm5DcvCY3jl0zorvFls4yDTWB6hQT_2LFc_uyTfF-t7gbEAueLluYTUdJS7y0y0]--></g></svg>