<?xml version="1.0" encoding="UTF-8" standalone="no"?><svg xmlns="http://www.w3.org/2000/svg" xmlns:xlink="http://www.w3.org/1999/xlink" contentStyleType="text/css" height="773px" preserveAspectRatio="none" style="width:3190px;height:773px;background:#FFFFFF;" version="1.1" viewBox="0 0 3190 773" width="3190px" zoomAndPan="magnify"><defs/><g><text fill="#000000" font-family="sans-serif" font-size="14" font-weight="bold" lengthAdjust="spacing" textLength="434" x="1380" y="27.9951">Level 3 FE Diagram for Removing Operation Requisition</text><rect fill="#FFFFFF" height="540.9375" style="stroke:#181818;stroke-width:1.0;" width="10" x="36" y="135.5781"/><rect fill="#FFFFFF" height="428.0938" style="stroke:#181818;stroke-width:1.0;" width="10" x="1004" y="202.1406"/><rect fill="#FFFFFF" height="353.5313" style="stroke:#181818;stroke-width:1.0;" width="10" x="1493" y="239.4219"/><rect fill="#FFFFFF" height="278.9688" style="stroke:#181818;stroke-width:1.0;" width="10" x="2056" y="276.7031"/><rect fill="#FFFFFF" height="87.5625" style="stroke:#181818;stroke-width:1.0;" width="10" x="2643" y="430.8281"/><line style="stroke:#181818;stroke-width:0.5;stroke-dasharray:5.0,5.0;" x1="41" x2="41" y1="125.5781" y2="685.5156"/><line style="stroke:#181818;stroke-width:0.5;stroke-dasharray:5.0,5.0;" x1="524.5" x2="524.5" y1="125.5781" y2="685.5156"/><line style="stroke:#181818;stroke-width:0.5;stroke-dasharray:5.0,5.0;" x1="1009" x2="1009" y1="125.5781" y2="685.5156"/><line style="stroke:#181818;stroke-width:0.5;stroke-dasharray:5.0,5.0;" x1="1497.5" x2="1497.5" y1="125.5781" y2="685.5156"/><line style="stroke:#181818;stroke-width:0.5;stroke-dasharray:5.0,5.0;" x1="2060.5" x2="2060.5" y1="125.5781" y2="685.5156"/><line style="stroke:#181818;stroke-width:0.5;stroke-dasharray:5.0,5.0;" x1="2648" x2="2648" y1="125.5781" y2="685.5156"/><text fill="#000000" font-family="sans-serif" font-size="20" lengthAdjust="spacing" textLength="66" x="5" y="120.8613">Doctor</text><ellipse cx="41" cy="50.7969" fill="#E2E2F0" rx="8" ry="8" style="stroke:#181818;stroke-width:0.5;"/><path d="M41,58.7969 L41,85.7969 M28,66.7969 L54,66.7969 M41,85.7969 L28,100.7969 M41,85.7969 L54,100.7969 " fill="none" style="stroke:#181818;stroke-width:0.5;"/><text fill="#000000" font-family="sans-serif" font-size="20" lengthAdjust="spacing" textLength="66" x="5" y="703.0801">Doctor</text><ellipse cx="41" cy="716.2969" fill="#E2E2F0" rx="8" ry="8" style="stroke:#181818;stroke-width:0.5;"/><path d="M41,724.2969 L41,751.2969 M28,732.2969 L54,732.2969 M41,751.2969 L28,766.2969 M41,751.2969 L54,766.2969 " fill="none" style="stroke:#181818;stroke-width:0.5;"/><rect fill="#E2E2F0" height="37.2813" rx="2.5" ry="2.5" style="stroke:#181818;stroke-width:0.5;" width="63" x="493.5" y="87.2969"/><text fill="#000000" font-family="sans-serif" font-size="20" lengthAdjust="spacing" textLength="49" x="500.5" y="112.8613">View</text><rect fill="#E2E2F0" height="37.2813" rx="2.5" ry="2.5" style="stroke:#181818;stroke-width:0.5;" width="63" x="493.5" y="684.5156"/><text fill="#000000" font-family="sans-serif" font-size="20" lengthAdjust="spacing" textLength="49" x="500.5" y="710.0801">View</text><rect fill="#E2E2F0" height="37.2813" rx="2.5" ry="2.5" style="stroke:#181818;stroke-width:0.5;" width="402" x="808" y="87.2969"/><text fill="#000000" font-family="sans-serif" font-size="20" lengthAdjust="spacing" textLength="388" x="815" y="112.8613">ManageOperationRequestsComponent</text><rect fill="#E2E2F0" height="37.2813" rx="2.5" ry="2.5" style="stroke:#181818;stroke-width:0.5;" width="402" x="808" y="684.5156"/><text fill="#000000" font-family="sans-serif" font-size="20" lengthAdjust="spacing" textLength="388" x="815" y="710.0801">ManageOperationRequestsComponent</text><rect fill="#E2E2F0" height="37.2813" rx="2.5" ry="2.5" style="stroke:#181818;stroke-width:0.5;" width="269" x="1363.5" y="87.2969"/><text fill="#000000" font-family="sans-serif" font-size="20" lengthAdjust="spacing" textLength="255" x="1370.5" y="112.8613">OperationRequestService</text><rect fill="#E2E2F0" height="37.2813" rx="2.5" ry="2.5" style="stroke:#181818;stroke-width:0.5;" width="269" x="1363.5" y="684.5156"/><text fill="#000000" font-family="sans-serif" font-size="20" lengthAdjust="spacing" textLength="255" x="1370.5" y="710.0801">OperationRequestService</text><rect fill="#E2E2F0" height="37.2813" rx="2.5" ry="2.5" style="stroke:#181818;stroke-width:0.5;" width="173" x="1974.5" y="87.2969"/><text fill="#000000" font-family="sans-serif" font-size="20" lengthAdjust="spacing" textLength="159" x="1981.5" y="112.8613">AuthInterceptor</text><rect fill="#E2E2F0" height="37.2813" rx="2.5" ry="2.5" style="stroke:#181818;stroke-width:0.5;" width="173" x="1974.5" y="684.5156"/><text fill="#000000" font-family="sans-serif" font-size="20" lengthAdjust="spacing" textLength="159" x="1981.5" y="710.0801">AuthInterceptor</text><rect fill="#E2E2F0" height="37.2813" rx="2.5" ry="2.5" style="stroke:#181818;stroke-width:0.5;" width="60" x="2618" y="87.2969"/><text fill="#000000" font-family="sans-serif" font-size="20" lengthAdjust="spacing" textLength="46" x="2625" y="112.8613">MDR</text><rect fill="#E2E2F0" height="37.2813" rx="2.5" ry="2.5" style="stroke:#181818;stroke-width:0.5;" width="60" x="2618" y="684.5156"/><text fill="#000000" font-family="sans-serif" font-size="20" lengthAdjust="spacing" textLength="46" x="2625" y="710.0801">MDR</text><rect fill="#FFFFFF" height="540.9375" style="stroke:#181818;stroke-width:1.0;" width="10" x="36" y="135.5781"/><rect fill="#FFFFFF" height="428.0938" style="stroke:#181818;stroke-width:1.0;" width="10" x="1004" y="202.1406"/><rect fill="#FFFFFF" height="353.5313" style="stroke:#181818;stroke-width:1.0;" width="10" x="1493" y="239.4219"/><rect fill="#FFFFFF" height="278.9688" style="stroke:#181818;stroke-width:1.0;" width="10" x="2056" y="276.7031"/><rect fill="#FFFFFF" height="87.5625" style="stroke:#181818;stroke-width:1.0;" width="10" x="2643" y="430.8281"/><polygon fill="#000000" points="513,160.8594,523,164.8594,513,168.8594,517,164.8594" style="stroke:#000000;stroke-width:1.0;"/><line style="stroke:#000000;stroke-width:1.0;" x1="46" x2="519" y1="164.8594" y2="164.8594"/><text fill="#000000" font-family="sans-serif" font-size="20" lengthAdjust="spacing" textLength="366" x="53" y="158.1426">Asks to delete an Operation Request</text><polygon fill="#000000" points="992,198.1406,1002,202.1406,992,206.1406,996,202.1406" style="stroke:#000000;stroke-width:1.0;"/><line style="stroke:#000000;stroke-width:1.0;" x1="525" x2="998" y1="202.1406" y2="202.1406"/><text fill="#000000" font-family="sans-serif" font-size="20" lengthAdjust="spacing" textLength="460" x="532" y="195.4238">deleteOperationRequest(operationRequestID)</text><polygon fill="#000000" points="1481,235.4219,1491,239.4219,1481,243.4219,1485,239.4219" style="stroke:#000000;stroke-width:1.0;"/><line style="stroke:#000000;stroke-width:1.0;" x1="1014" x2="1487" y1="239.4219" y2="239.4219"/><text fill="#000000" font-family="sans-serif" font-size="20" lengthAdjust="spacing" textLength="460" x="1021" y="232.7051">deleteOperationRequest(operationRequestID)</text><polygon fill="#000000" points="2044,272.7031,2054,276.7031,2044,280.7031,2048,276.7031" style="stroke:#000000;stroke-width:1.0;"/><line style="stroke:#000000;stroke-width:1.0;" x1="1503" x2="2050" y1="276.7031" y2="276.7031"/><text fill="#000000" font-family="sans-serif" font-size="20" lengthAdjust="spacing" textLength="534" x="1510" y="269.9863">Sends HTTP Request to delete the Operation Request</text><line style="stroke:#000000;stroke-width:1.0;" x1="2066" x2="2108" y1="313.9844" y2="313.9844"/><line style="stroke:#000000;stroke-width:1.0;" x1="2108" x2="2108" y1="313.9844" y2="326.9844"/><line style="stroke:#000000;stroke-width:1.0;" x1="2067" x2="2108" y1="326.9844" y2="326.9844"/><polygon fill="#000000" points="2077,322.9844,2067,326.9844,2077,330.9844,2073,326.9844" style="stroke:#000000;stroke-width:1.0;"/><text fill="#000000" font-family="sans-serif" font-size="20" lengthAdjust="spacing" textLength="563" x="2073" y="307.2676">Intercepts the request and adds the token to the header</text><path d="M2071,339.9844 L2071,395.9844 L2590,395.9844 L2590,349.9844 L2580,339.9844 L2071,339.9844 " fill="#FEFFDD" style="stroke:#181818;stroke-width:0.5;"/><path d="M2580,339.9844 L2580,349.9844 L2590,349.9844 L2580,339.9844 " fill="#FEFFDD" style="stroke:#181818;stroke-width:0.5;"/><text fill="#000000" font-family="sans-serif" font-size="20" lengthAdjust="spacing" textLength="498" x="2077" y="363.5488">The token is added to the header so that the MDR</text><text fill="#000000" font-family="sans-serif" font-size="20" lengthAdjust="spacing" textLength="442" x="2077" y="386.8301">can authenticate and authorize the request.</text><polygon fill="#000000" points="2631,426.8281,2641,430.8281,2631,434.8281,2635,430.8281" style="stroke:#000000;stroke-width:1.0;"/><line style="stroke:#000000;stroke-width:1.0;" x1="2066" x2="2637" y1="430.8281" y2="430.8281"/><text fill="#000000" font-family="sans-serif" font-size="20" lengthAdjust="spacing" textLength="460" x="2073" y="424.1113">deleteOperationRequest(operationRequestID)</text><line style="stroke:#000000;stroke-width:1.0;" x1="2653" x2="2695" y1="468.1094" y2="468.1094"/><line style="stroke:#000000;stroke-width:1.0;" x1="2695" x2="2695" y1="468.1094" y2="481.1094"/><line style="stroke:#000000;stroke-width:1.0;" x1="2654" x2="2695" y1="481.1094" y2="481.1094"/><polygon fill="#000000" points="2664,477.1094,2654,481.1094,2664,485.1094,2660,481.1094" style="stroke:#000000;stroke-width:1.0;"/><text fill="#000000" font-family="sans-serif" font-size="20" lengthAdjust="spacing" textLength="523" x="2660" y="461.3926">Validates Operation Request ID and tries to delete it</text><polygon fill="#000000" points="2077,514.3906,2067,518.3906,2077,522.3906,2073,518.3906" style="stroke:#000000;stroke-width:1.0;"/><line style="stroke:#000000;stroke-width:1.0;stroke-dasharray:2.0,2.0;" x1="2071" x2="2647" y1="518.3906" y2="518.3906"/><text fill="#000000" font-family="sans-serif" font-size="20" lengthAdjust="spacing" textLength="311" x="2083" y="511.6738">Returns Operation Status Code</text><polygon fill="#000000" points="1514,551.6719,1504,555.6719,1514,559.6719,1510,555.6719" style="stroke:#000000;stroke-width:1.0;"/><line style="stroke:#000000;stroke-width:1.0;stroke-dasharray:2.0,2.0;" x1="1508" x2="2060" y1="555.6719" y2="555.6719"/><text fill="#000000" font-family="sans-serif" font-size="20" lengthAdjust="spacing" textLength="311" x="1520" y="548.9551">Returns Operation Status Code</text><polygon fill="#000000" points="1025,588.9531,1015,592.9531,1025,596.9531,1021,592.9531" style="stroke:#000000;stroke-width:1.0;"/><line style="stroke:#000000;stroke-width:1.0;stroke-dasharray:2.0,2.0;" x1="1019" x2="1497" y1="592.9531" y2="592.9531"/><text fill="#000000" font-family="sans-serif" font-size="20" lengthAdjust="spacing" textLength="286" x="1031" y="586.2363">Returns Operation Response</text><polygon fill="#000000" points="536,626.2344,526,630.2344,536,634.2344,532,630.2344" style="stroke:#000000;stroke-width:1.0;"/><line style="stroke:#000000;stroke-width:1.0;stroke-dasharray:2.0,2.0;" x1="530" x2="1008" y1="630.2344" y2="630.2344"/><text fill="#000000" font-family="sans-serif" font-size="20" lengthAdjust="spacing" textLength="455" x="542" y="623.5176">Returns Operation Deletion Success message</text><polygon fill="#000000" points="57,663.5156,47,667.5156,57,671.5156,53,667.5156" style="stroke:#000000;stroke-width:1.0;"/><line style="stroke:#000000;stroke-width:1.0;stroke-dasharray:2.0,2.0;" x1="51" x2="524" y1="667.5156" y2="667.5156"/><text fill="#000000" font-family="sans-serif" font-size="20" lengthAdjust="spacing" textLength="455" x="63" y="660.7988">Returns Operation Deletion Success message</text><!--SRC=[dLHDRzim3BthLn3jOTjXGzTXNqLHm8biB42B34xXksepYHPRyYGwHJVqlu-IapHESnXYm8vDyJq-Ka_nAsrQvLHJstA55LGuLrrDcJKqqtyGBY-484qrmYskiOPFaAKWjLem1ERMGOwDNMkpW6cBJf6sXaE_E-rrU1TYgIi4R5fwWWQR1tHUlF7Red2h3T9JYs0TBQqGBojbhRo7lmBu6gbojN2sCzNOrjPTNwzLtU7quHUMT7C3v_9BccJVZgSwQsDE9jEHl3YUuz6jTOcHwcDscOwEfJ55cdrFlyQrn3dxs8T7DUU9vttjBKVK0e-hX_Dqb7tEHW6YIkA0jF57UP222KYNkbM6uApG-7WMuiKmVgSCq-y67kQDdlpODgqrQ2XYxgRvU0Wx1CpwjcFsD9yDavEEbXD3w4fiMLrCIYO7EcJUbv9vx4Ml5I4t8U7z3HHNaFYL1x9igXfvGPa3ax06KOJSeFLgatQeygqz24pakvTYiSlm23JSn6aieNk-0qSokO8Pcih3Z_lxdrkPUrtG4e-qiQFY6IMJBT5kW3x2t8PCcGfKLVL1iYiqWJzyB55Lw8InpEJqOabWvu4o-EX-bwnzWFDf7Q30Xoz5CHIs981A7hhYhMHNw5B5JQXYmBfmlFTKVH3SDOJAcmQOuiGzuTfyxpWALUkA5_phkS54HaNaDEvRHLFFi9bZZjGviu-VaQBEmzXMA2eSb0xgjsRuRo3FE1fWPyRNo1mz7oy_W0NZzExh7VyQ9KD3iN1NbiX_QGq_-FGEL0SJ5v53difHY7y0]--></g></svg>