<?xml version="1.0" encoding="UTF-8" standalone="no"?><svg xmlns="http://www.w3.org/2000/svg" xmlns:xlink="http://www.w3.org/1999/xlink" contentStyleType="text/css" height="938px" preserveAspectRatio="none" style="width:2554px;height:938px;background:#FFFFFF;" version="1.1" viewBox="0 0 2554 938" width="2554px" zoomAndPan="magnify"><defs/><g><text fill="#000000" font-family="sans-serif" font-size="14" font-weight="bold" lengthAdjust="spacing" textLength="428" x="1064.25" y="27.9951">Level 3 MDR Diagram for Removing Operation Request</text><rect fill="#FFFFFF" height="706.0625" style="stroke:#181818;stroke-width:1.0;" width="10" x="15.5" y="135.5781"/><rect fill="#FFFFFF" height="667.7813" style="stroke:#181818;stroke-width:1.0;" width="10" x="572.5" y="164.8594"/><rect fill="#FFFFFF" height="586.2188" style="stroke:#181818;stroke-width:1.0;" width="10" x="1125.5" y="202.1406"/><rect fill="#FFFFFF" height="111.8438" style="stroke:#181818;stroke-width:1.0;" width="10" x="1630.5" y="239.4219"/><rect fill="#FFFFFF" height="67.2813" style="stroke:#181818;stroke-width:1.0;" width="10" x="1630.5" y="491.6719"/><rect fill="#FFFFFF" height="67.2813" style="stroke:#181818;stroke-width:1.0;" width="10" x="1869.5" y="683.7969"/><rect fill="#FFFFFF" height="43.2813" style="stroke:#181818;stroke-width:1.0;" width="10" x="1982.5" y="596.2344"/><rect fill="#FFFFFF" height="37.2813" style="stroke:#181818;stroke-width:1.0;" width="10" x="2478.5" y="276.7031"/><rect fill="#FFFFFF" height="30" style="stroke:#181818;stroke-width:1.0;" width="10" x="2478.5" y="528.9531"/><rect fill="#FFFFFF" height="30" style="stroke:#181818;stroke-width:1.0;" width="10" x="2478.5" y="721.0781"/><rect fill="#EBF5FB" height="430.0938" style="stroke:#000000;stroke-width:1.5;" width="2127.5" x="420" y="366.2656"/><rect fill="#EBF5FB" height="359.25" style="stroke:none;stroke-width:1.0;" width="2127.5" x="420" y="437.1094"/><line style="stroke:#181818;stroke-width:0.5;stroke-dasharray:5.0,5.0;" x1="20" x2="20" y1="125.5781" y2="850.6406"/><line style="stroke:#181818;stroke-width:0.5;stroke-dasharray:5.0,5.0;" x1="577" x2="577" y1="125.5781" y2="850.6406"/><line style="stroke:#181818;stroke-width:0.5;stroke-dasharray:5.0,5.0;" x1="1130" x2="1130" y1="125.5781" y2="850.6406"/><line style="stroke:#181818;stroke-width:0.5;stroke-dasharray:5.0,5.0;" x1="1635.5" x2="1635.5" y1="125.5781" y2="850.6406"/><line style="stroke:#181818;stroke-width:0.5;stroke-dasharray:5.0,5.0;" x1="1874.5" x2="1874.5" y1="125.5781" y2="850.6406"/><line style="stroke:#181818;stroke-width:0.5;stroke-dasharray:5.0,5.0;" x1="1987.5" x2="1987.5" y1="125.5781" y2="850.6406"/><line style="stroke:#181818;stroke-width:0.5;stroke-dasharray:5.0,5.0;" x1="2483.5" x2="2483.5" y1="125.5781" y2="850.6406"/><text fill="#000000" font-family="sans-serif" font-size="20" lengthAdjust="spacing" textLength="25" x="5" y="120.8613">FE</text><ellipse cx="20.5" cy="50.7969" fill="#E2E2F0" rx="8" ry="8" style="stroke:#181818;stroke-width:0.5;"/><path d="M20.5,58.7969 L20.5,85.7969 M7.5,66.7969 L33.5,66.7969 M20.5,85.7969 L7.5,100.7969 M20.5,85.7969 L33.5,100.7969 " fill="none" style="stroke:#181818;stroke-width:0.5;"/><text fill="#000000" font-family="sans-serif" font-size="20" lengthAdjust="spacing" textLength="25" x="5" y="868.2051">FE</text><ellipse cx="20.5" cy="881.4219" fill="#E2E2F0" rx="8" ry="8" style="stroke:#181818;stroke-width:0.5;"/><path d="M20.5,889.4219 L20.5,916.4219 M7.5,897.4219 L33.5,897.4219 M20.5,916.4219 L7.5,931.4219 M20.5,916.4219 L33.5,931.4219 " fill="none" style="stroke:#181818;stroke-width:0.5;"/><rect fill="#E2E2F0" height="37.2813" rx="2.5" ry="2.5" style="stroke:#181818;stroke-width:0.5;" width="295" x="430" y="87.2969"/><text fill="#000000" font-family="sans-serif" font-size="20" lengthAdjust="spacing" textLength="281" x="437" y="112.8613">OperationRequestController</text><rect fill="#E2E2F0" height="37.2813" rx="2.5" ry="2.5" style="stroke:#181818;stroke-width:0.5;" width="295" x="430" y="849.6406"/><text fill="#000000" font-family="sans-serif" font-size="20" lengthAdjust="spacing" textLength="281" x="437" y="875.2051">OperationRequestController</text><rect fill="#E2E2F0" height="37.2813" rx="2.5" ry="2.5" style="stroke:#181818;stroke-width:0.5;" width="269" x="996" y="87.2969"/><text fill="#000000" font-family="sans-serif" font-size="20" lengthAdjust="spacing" textLength="255" x="1003" y="112.8613">OperationRequestService</text><rect fill="#E2E2F0" height="37.2813" rx="2.5" ry="2.5" style="stroke:#181818;stroke-width:0.5;" width="269" x="996" y="849.6406"/><text fill="#000000" font-family="sans-serif" font-size="20" lengthAdjust="spacing" textLength="255" x="1003" y="875.2051">OperationRequestService</text><rect fill="#E2E2F0" height="37.2813" rx="2.5" ry="2.5" style="stroke:#181818;stroke-width:0.5;" width="302" x="1484.5" y="87.2969"/><text fill="#000000" font-family="sans-serif" font-size="20" lengthAdjust="spacing" textLength="288" x="1491.5" y="112.8613">OperationRequestRepository</text><rect fill="#E2E2F0" height="37.2813" rx="2.5" ry="2.5" style="stroke:#181818;stroke-width:0.5;" width="302" x="1484.5" y="849.6406"/><text fill="#000000" font-family="sans-serif" font-size="20" lengthAdjust="spacing" textLength="288" x="1491.5" y="875.2051">OperationRequestRepository</text><rect fill="#E2E2F0" height="37.2813" rx="2.5" ry="2.5" style="stroke:#181818;stroke-width:0.5;" width="156" x="1796.5" y="87.2969"/><text fill="#000000" font-family="sans-serif" font-size="20" lengthAdjust="spacing" textLength="142" x="1803.5" y="112.8613">LogRepository</text><rect fill="#E2E2F0" height="37.2813" rx="2.5" ry="2.5" style="stroke:#181818;stroke-width:0.5;" width="156" x="1796.5" y="849.6406"/><text fill="#000000" font-family="sans-serif" font-size="20" lengthAdjust="spacing" textLength="142" x="1803.5" y="875.2051">LogRepository</text><rect fill="#E2E2F0" height="37.2813" rx="2.5" ry="2.5" style="stroke:#181818;stroke-width:0.5;" width="50" x="1962.5" y="87.2969"/><text fill="#000000" font-family="sans-serif" font-size="20" lengthAdjust="spacing" textLength="36" x="1969.5" y="112.8613">Log</text><rect fill="#E2E2F0" height="37.2813" rx="2.5" ry="2.5" style="stroke:#181818;stroke-width:0.5;" width="50" x="1962.5" y="849.6406"/><text fill="#000000" font-family="sans-serif" font-size="20" lengthAdjust="spacing" textLength="36" x="1969.5" y="875.2051">Log</text><rect fill="#E2E2F0" height="37.2813" rx="2.5" ry="2.5" style="stroke:#181818;stroke-width:0.5;" width="108" x="2429.5" y="87.2969"/><text fill="#000000" font-family="sans-serif" font-size="20" lengthAdjust="spacing" textLength="94" x="2436.5" y="112.8613">Database</text><rect fill="#E2E2F0" height="37.2813" rx="2.5" ry="2.5" style="stroke:#181818;stroke-width:0.5;" width="108" x="2429.5" y="849.6406"/><text fill="#000000" font-family="sans-serif" font-size="20" lengthAdjust="spacing" textLength="94" x="2436.5" y="875.2051">Database</text><rect fill="#FFFFFF" height="706.0625" style="stroke:#181818;stroke-width:1.0;" width="10" x="15.5" y="135.5781"/><rect fill="#FFFFFF" height="667.7813" style="stroke:#181818;stroke-width:1.0;" width="10" x="572.5" y="164.8594"/><rect fill="#FFFFFF" height="586.2188" style="stroke:#181818;stroke-width:1.0;" width="10" x="1125.5" y="202.1406"/><rect fill="#FFFFFF" height="111.8438" style="stroke:#181818;stroke-width:1.0;" width="10" x="1630.5" y="239.4219"/><rect fill="#FFFFFF" height="67.2813" style="stroke:#181818;stroke-width:1.0;" width="10" x="1630.5" y="491.6719"/><rect fill="#FFFFFF" height="67.2813" style="stroke:#181818;stroke-width:1.0;" width="10" x="1869.5" y="683.7969"/><rect fill="#FFFFFF" height="43.2813" style="stroke:#181818;stroke-width:1.0;" width="10" x="1982.5" y="596.2344"/><rect fill="#FFFFFF" height="37.2813" style="stroke:#181818;stroke-width:1.0;" width="10" x="2478.5" y="276.7031"/><rect fill="#FFFFFF" height="30" style="stroke:#181818;stroke-width:1.0;" width="10" x="2478.5" y="528.9531"/><rect fill="#FFFFFF" height="30" style="stroke:#181818;stroke-width:1.0;" width="10" x="2478.5" y="721.0781"/><polygon fill="#000000" points="560.5,160.8594,570.5,164.8594,560.5,168.8594,564.5,164.8594" style="stroke:#000000;stroke-width:1.0;"/><line style="stroke:#000000;stroke-width:1.0;" x1="25.5" x2="566.5" y1="164.8594" y2="164.8594"/><text fill="#000000" font-family="sans-serif" font-size="20" lengthAdjust="spacing" textLength="528" x="32.5" y="158.1426">Sends HTTP request to delete the Operation Request</text><polygon fill="#000000" points="1113.5,198.1406,1123.5,202.1406,1113.5,206.1406,1117.5,202.1406" style="stroke:#000000;stroke-width:1.0;"/><line style="stroke:#000000;stroke-width:1.0;stroke-dasharray:2.0,2.0;" x1="582.5" x2="1119.5" y1="202.1406" y2="202.1406"/><text fill="#000000" font-family="sans-serif" font-size="20" lengthAdjust="spacing" textLength="524" x="589.5" y="195.4238">deleteOperationRequest(string operationRequestID)</text><polygon fill="#000000" points="1618.5,235.4219,1628.5,239.4219,1618.5,243.4219,1622.5,239.4219" style="stroke:#000000;stroke-width:1.0;"/><line style="stroke:#000000;stroke-width:1.0;" x1="1135.5" x2="1624.5" y1="239.4219" y2="239.4219"/><text fill="#000000" font-family="sans-serif" font-size="20" lengthAdjust="spacing" textLength="476" x="1142.5" y="232.7051">getByOperationRequestID(operationRequestID)</text><polygon fill="#000000" points="2466.5,272.7031,2476.5,276.7031,2466.5,280.7031,2470.5,276.7031" style="stroke:#000000;stroke-width:1.0;"/><line style="stroke:#000000;stroke-width:1.0;" x1="1640.5" x2="2472.5" y1="276.7031" y2="276.7031"/><text fill="#000000" font-family="sans-serif" font-size="20" lengthAdjust="spacing" textLength="819" x="1647.5" y="269.9863">_objs.Where(x =&gt; x.operationRequestID == operationRequestID).FirstOrDefault()</text><polygon fill="#000000" points="1651.5,309.9844,1641.5,313.9844,1651.5,317.9844,1647.5,313.9844" style="stroke:#000000;stroke-width:1.0;"/><line style="stroke:#000000;stroke-width:1.0;stroke-dasharray:2.0,2.0;" x1="1645.5" x2="2482.5" y1="313.9844" y2="313.9844"/><text fill="#000000" font-family="sans-serif" font-size="20" lengthAdjust="spacing" textLength="99" x="1657.5" y="307.2676">return var</text><polygon fill="#000000" points="1146.5,347.2656,1136.5,351.2656,1146.5,355.2656,1142.5,351.2656" style="stroke:#000000;stroke-width:1.0;"/><line style="stroke:#000000;stroke-width:1.0;stroke-dasharray:2.0,2.0;" x1="1140.5" x2="1634.5" y1="351.2656" y2="351.2656"/><text fill="#000000" font-family="sans-serif" font-size="20" lengthAdjust="spacing" textLength="99" x="1152.5" y="344.5488">return var</text><path d="M420,366.2656 L496,366.2656 L496,381.5469 L486,391.5469 L420,391.5469 L420,366.2656 " fill="#EEEEEE" style="stroke:#000000;stroke-width:1.5;"/><rect fill="none" height="430.0938" style="stroke:#000000;stroke-width:1.5;" width="2127.5" x="420" y="366.2656"/><text fill="#000000" font-family="sans-serif" font-size="20" font-weight="bold" lengthAdjust="spacing" textLength="31" x="435" y="385.8301">alt</text><text fill="#000000" font-family="sans-serif" font-size="20" font-weight="bold" lengthAdjust="spacing" textLength="130" x="511" y="386.8301">[var is null]</text><polygon fill="#000000" points="593.5,425.1094,583.5,429.1094,593.5,433.1094,589.5,429.1094" style="stroke:#000000;stroke-width:1.0;"/><line style="stroke:#000000;stroke-width:1.0;stroke-dasharray:2.0,2.0;" x1="587.5" x2="1124.5" y1="429.1094" y2="429.1094"/><text fill="#000000" font-family="sans-serif" font-size="20" lengthAdjust="spacing" textLength="106" x="599.5" y="422.3926">return null</text><line style="stroke:#000000;stroke-width:1.0;stroke-dasharray:2.0,2.0;" x1="420" x2="2547.5" y1="438.1094" y2="438.1094"/><text fill="#000000" font-family="sans-serif" font-size="20" font-weight="bold" lengthAdjust="spacing" textLength="175" x="425" y="456.6738">[var is not null]</text><polygon fill="#000000" points="1618.5,487.6719,1628.5,491.6719,1618.5,495.6719,1622.5,491.6719" style="stroke:#000000;stroke-width:1.0;"/><line style="stroke:#000000;stroke-width:1.0;" x1="1135.5" x2="1624.5" y1="491.6719" y2="491.6719"/><text fill="#000000" font-family="sans-serif" font-size="20" lengthAdjust="spacing" textLength="173" x="1142.5" y="484.9551">Remove(request)</text><polygon fill="#000000" points="2466.5,524.9531,2476.5,528.9531,2466.5,532.9531,2470.5,528.9531" style="stroke:#000000;stroke-width:1.0;"/><line style="stroke:#000000;stroke-width:1.0;" x1="1640.5" x2="2472.5" y1="528.9531" y2="528.9531"/><text fill="#000000" font-family="sans-serif" font-size="20" lengthAdjust="spacing" textLength="230" x="1647.5" y="522.2363">_objs.Remove(request)</text><polygon fill="#000000" points="1970.5,592.2344,1980.5,596.2344,1970.5,600.2344,1974.5,596.2344" style="stroke:#000000;stroke-width:1.0;"/><line style="stroke:#000000;stroke-width:1.0;stroke-dasharray:2.0,2.0;" x1="1135.5" x2="1976.5" y1="596.2344" y2="596.2344"/><text fill="#000000" font-family="sans-serif" font-size="20" lengthAdjust="spacing" textLength="821" x="1142.5" y="589.5176">new Log(TypeOfAction.Delete, operationRequestID, "Operation Request Deleted")</text><line style="stroke:#000000;stroke-width:1.0;stroke-dasharray:2.0,2.0;" x1="1992.5" x2="2034.5" y1="638.5156" y2="638.5156"/><line style="stroke:#000000;stroke-width:1.0;stroke-dasharray:2.0,2.0;" x1="2034.5" x2="2034.5" y1="638.5156" y2="651.5156"/><line style="stroke:#000000;stroke-width:1.0;stroke-dasharray:2.0,2.0;" x1="1987.5" x2="2034.5" y1="651.5156" y2="651.5156"/><polygon fill="#000000" points="1997.5,647.5156,1987.5,651.5156,1997.5,655.5156,1993.5,651.5156" style="stroke:#000000;stroke-width:1.0;"/><text fill="#000000" font-family="sans-serif" font-size="20" lengthAdjust="spacing" textLength="52" x="1999.5" y="631.7988">Log()</text><polygon fill="#000000" points="1857.5,679.7969,1867.5,683.7969,1857.5,687.7969,1861.5,683.7969" style="stroke:#000000;stroke-width:1.0;"/><line style="stroke:#000000;stroke-width:1.0;stroke-dasharray:2.0,2.0;" x1="1135.5" x2="1863.5" y1="683.7969" y2="683.7969"/><text fill="#000000" font-family="sans-serif" font-size="20" lengthAdjust="spacing" textLength="146" x="1142.5" y="677.0801">AddAsync(log)</text><polygon fill="#000000" points="2466.5,717.0781,2476.5,721.0781,2466.5,725.0781,2470.5,721.0781" style="stroke:#000000;stroke-width:1.0;"/><line style="stroke:#000000;stroke-width:1.0;" x1="1879.5" x2="2472.5" y1="721.0781" y2="721.0781"/><text fill="#000000" font-family="sans-serif" font-size="20" lengthAdjust="spacing" textLength="203" x="1886.5" y="714.3613">_objs.AddAsync(log)</text><polygon fill="#000000" points="593.5,784.3594,583.5,788.3594,593.5,792.3594,589.5,788.3594" style="stroke:#000000;stroke-width:1.0;"/><line style="stroke:#000000;stroke-width:1.0;stroke-dasharray:2.0,2.0;" x1="587.5" x2="1129.5" y1="788.3594" y2="788.3594"/><text fill="#000000" font-family="sans-serif" font-size="20" lengthAdjust="spacing" textLength="144" x="599.5" y="781.6426">return request</text><polygon fill="#000000" points="36.5,828.6406,26.5,832.6406,36.5,836.6406,32.5,832.6406" style="stroke:#000000;stroke-width:1.0;"/><line style="stroke:#000000;stroke-width:1.0;stroke-dasharray:2.0,2.0;" x1="30.5" x2="576.5" y1="832.6406" y2="832.6406"/><text fill="#000000" font-family="sans-serif" font-size="20" lengthAdjust="spacing" textLength="413" x="42.5" y="825.9238">Returns Operation Status Response Code</text><!--SRC=[ZPHjRzem4CVV-rESsXTBfHPrdVQ42X9vqYPbOagGzd8ooJMuDNPcExHisdUVum0D8KBZ1HBdtvt_z_ST-ec9YYgwvZ9_mW8AVA0rDx4K9cE_4Uvk2J7CS8G4DyZX7NmBKmWPBMqEF4W5AQxbXeaIvXKgQfWKDlIhHcq8MR420TULsS8QrqjKchpH-niXOGBDjaAGogma8QydEQTQmny2zkFJ_AbKiXP58BbKz_SRockSBnynDzCfN8OVebdyQHXLKZec3YC_l1rcDAeDoz6LUXlVHVuGPaj4yUVeepkRAIMVsx3FBKV-ThLNDa9B75OFbv4Vlu_z9eNcnWRY2AYstyHc6vQpYWe35mSlTrO6zZsKv1pLHOC7v-ciRScXsNaqnKfgPeLi7PqUquaiUq1oIhJnut183LrItKe8VTSisr23JQUsvPif16F8K1GQlYmMtq6rSi18Eu8SBMXME31IXpe12U36bid6kuH-PvusgXbBsOj_3QzUgsGaQxIaOoZH-Dlv2UkTJKz9sgI7_XX-okMZ7lrOeKBl1IPJU1cTfi9aCgHd53EbpLo5xV9vdHkiTw7l6hKQ5PfQ2TXGHGhi8kdUYc4Y9PIR9WXCWwWvTwEPkQJWaEGEa6iyaD8SqKw3MtVqTkzrvSuw5pK_UvwSpGZRTJjkfnT9EtAJCGXy1ZjstiB-TSmVPddZvIXqCt0zuEvrP-ZtOmGjNbpqr2JkPxA_gRdbggycwQgnXioAOgQt8lUuBFlbMkL9pv0p6VzZHv8EFj_EtpwT4Rjakrs9e-Rz6bftLYiprDHszL5NKjZN3sI1tUa9o3y0]--></g></svg>