<?xml version="1.0" encoding="UTF-8" standalone="no"?><svg xmlns="http://www.w3.org/2000/svg" xmlns:xlink="http://www.w3.org/1999/xlink" contentStyleType="text/css" height="507px" preserveAspectRatio="none" style="width:1519px;height:507px;background:#FFFFFF;" version="1.1" viewBox="0 0 1519 507" width="1519px" zoomAndPan="magnify"><defs/><g><text fill="#000000" font-family="sans-serif" font-size="14" font-weight="bold" lengthAdjust="spacing" textLength="126" x="698.75" y="27.9951">Level 2 Diagram</text><rect fill="#FFFFFF" height="274.9688" style="stroke:#181818;stroke-width:1.0;" width="10" x="82.5" y="135.5781"/><rect fill="#FFFFFF" height="37.2813" style="stroke:#181818;stroke-width:1.0;" width="10" x="525.5" y="164.8594"/><rect fill="#FFFFFF" height="162.125" style="stroke:#181818;stroke-width:1.0;" width="10" x="525.5" y="239.4219"/><rect fill="#FFFFFF" height="87.5625" style="stroke:#181818;stroke-width:1.0;" width="10" x="1085.5" y="276.7031"/><line style="stroke:#181818;stroke-width:0.5;stroke-dasharray:5.0,5.0;" x1="87" x2="87" y1="125.5781" y2="419.5469"/><line style="stroke:#181818;stroke-width:0.5;stroke-dasharray:5.0,5.0;" x1="530" x2="530" y1="125.5781" y2="419.5469"/><line style="stroke:#181818;stroke-width:0.5;stroke-dasharray:5.0,5.0;" x1="1090.5" x2="1090.5" y1="125.5781" y2="419.5469"/><text fill="#000000" font-family="sans-serif" font-size="20" lengthAdjust="spacing" textLength="159" x="5" y="120.8613">Backoffice_User</text><ellipse cx="87.5" cy="50.7969" fill="#E2E2F0" rx="8" ry="8" style="stroke:#181818;stroke-width:0.5;"/><path d="M87.5,58.7969 L87.5,85.7969 M74.5,66.7969 L100.5,66.7969 M87.5,85.7969 L74.5,100.7969 M87.5,85.7969 L100.5,100.7969 " fill="none" style="stroke:#181818;stroke-width:0.5;"/><text fill="#000000" font-family="sans-serif" font-size="20" lengthAdjust="spacing" textLength="159" x="5" y="437.1113">Backoffice_User</text><ellipse cx="87.5" cy="450.3281" fill="#E2E2F0" rx="8" ry="8" style="stroke:#181818;stroke-width:0.5;"/><path d="M87.5,458.3281 L87.5,485.3281 M74.5,466.3281 L100.5,466.3281 M87.5,485.3281 L74.5,500.3281 M87.5,485.3281 L100.5,500.3281 " fill="none" style="stroke:#181818;stroke-width:0.5;"/><rect fill="#E2E2F0" height="37.2813" rx="2.5" ry="2.5" style="stroke:#181818;stroke-width:0.5;" width="39" x="511" y="87.2969"/><text fill="#000000" font-family="sans-serif" font-size="20" lengthAdjust="spacing" textLength="25" x="518" y="112.8613">FE</text><rect fill="#E2E2F0" height="37.2813" rx="2.5" ry="2.5" style="stroke:#181818;stroke-width:0.5;" width="39" x="511" y="418.5469"/><text fill="#000000" font-family="sans-serif" font-size="20" lengthAdjust="spacing" textLength="25" x="518" y="444.1113">FE</text><rect fill="#E2E2F0" height="37.2813" rx="2.5" ry="2.5" style="stroke:#181818;stroke-width:0.5;" width="60" x="1060.5" y="87.2969"/><text fill="#000000" font-family="sans-serif" font-size="20" lengthAdjust="spacing" textLength="46" x="1067.5" y="112.8613">MDR</text><rect fill="#E2E2F0" height="37.2813" rx="2.5" ry="2.5" style="stroke:#181818;stroke-width:0.5;" width="60" x="1060.5" y="418.5469"/><text fill="#000000" font-family="sans-serif" font-size="20" lengthAdjust="spacing" textLength="46" x="1067.5" y="444.1113">MDR</text><rect fill="#FFFFFF" height="274.9688" style="stroke:#181818;stroke-width:1.0;" width="10" x="82.5" y="135.5781"/><rect fill="#FFFFFF" height="37.2813" style="stroke:#181818;stroke-width:1.0;" width="10" x="525.5" y="164.8594"/><rect fill="#FFFFFF" height="162.125" style="stroke:#181818;stroke-width:1.0;" width="10" x="525.5" y="239.4219"/><rect fill="#FFFFFF" height="87.5625" style="stroke:#181818;stroke-width:1.0;" width="10" x="1085.5" y="276.7031"/><polygon fill="#000000" points="513.5,160.8594,523.5,164.8594,513.5,168.8594,517.5,164.8594" style="stroke:#000000;stroke-width:1.0;"/><line style="stroke:#000000;stroke-width:1.0;" x1="92.5" x2="519.5" y1="164.8594" y2="164.8594"/><text fill="#000000" font-family="sans-serif" font-size="20" lengthAdjust="spacing" textLength="289" x="99.5" y="158.1426">Asks to login into the system</text><polygon fill="#000000" points="103.5,198.1406,93.5,202.1406,103.5,206.1406,99.5,202.1406" style="stroke:#000000;stroke-width:1.0;"/><line style="stroke:#000000;stroke-width:1.0;stroke-dasharray:2.0,2.0;" x1="97.5" x2="529.5" y1="202.1406" y2="202.1406"/><text fill="#000000" font-family="sans-serif" font-size="20" lengthAdjust="spacing" textLength="409" x="109.5" y="195.4238">Asks for data to login the backoffice user</text><polygon fill="#000000" points="513.5,235.4219,523.5,239.4219,513.5,243.4219,517.5,239.4219" style="stroke:#000000;stroke-width:1.0;"/><line style="stroke:#000000;stroke-width:1.0;" x1="92.5" x2="519.5" y1="239.4219" y2="239.4219"/><text fill="#000000" font-family="sans-serif" font-size="20" lengthAdjust="spacing" textLength="291" x="99.5" y="232.7051">Sends data(email, password)</text><polygon fill="#000000" points="1073.5,272.7031,1083.5,276.7031,1073.5,280.7031,1077.5,276.7031" style="stroke:#000000;stroke-width:1.0;"/><line style="stroke:#000000;stroke-width:1.0;" x1="535.5" x2="1079.5" y1="276.7031" y2="276.7031"/><text fill="#000000" font-family="sans-serif" font-size="20" lengthAdjust="spacing" textLength="531" x="542.5" y="269.9863">Makes HTTP Request to Login data (email, password)</text><line style="stroke:#000000;stroke-width:1.0;stroke-dasharray:2.0,2.0;" x1="1095.5" x2="1137.5" y1="313.9844" y2="313.9844"/><line style="stroke:#000000;stroke-width:1.0;stroke-dasharray:2.0,2.0;" x1="1137.5" x2="1137.5" y1="313.9844" y2="326.9844"/><line style="stroke:#000000;stroke-width:1.0;stroke-dasharray:2.0,2.0;" x1="1096.5" x2="1137.5" y1="326.9844" y2="326.9844"/><polygon fill="#000000" points="1106.5,322.9844,1096.5,326.9844,1106.5,330.9844,1102.5,326.9844" style="stroke:#000000;stroke-width:1.0;"/><text fill="#000000" font-family="sans-serif" font-size="20" lengthAdjust="spacing" textLength="410" x="1102.5" y="307.2676">Validates data and tries to login the User</text><polygon fill="#000000" points="546.5,360.2656,536.5,364.2656,546.5,368.2656,542.5,364.2656" style="stroke:#000000;stroke-width:1.0;"/><line style="stroke:#000000;stroke-width:1.0;stroke-dasharray:2.0,2.0;" x1="540.5" x2="1089.5" y1="364.2656" y2="364.2656"/><text fill="#000000" font-family="sans-serif" font-size="20" lengthAdjust="spacing" textLength="311" x="552.5" y="357.5488">Returns Operation Status Code</text><polygon fill="#000000" points="103.5,397.5469,93.5,401.5469,103.5,405.5469,99.5,401.5469" style="stroke:#000000;stroke-width:1.0;"/><line style="stroke:#000000;stroke-width:1.0;stroke-dasharray:2.0,2.0;" x1="97.5" x2="529.5" y1="401.5469" y2="401.5469"/><text fill="#000000" font-family="sans-serif" font-size="20" lengthAdjust="spacing" textLength="380" x="109.5" y="394.8301">Returns Operation In/Sucess message</text><!--SRC=[VP9RQzj048NVzrSCoKDRQ6Xgw2q4WnLhQS51nKxxMiRIsDvgjQlkZXoSql_UsKqREusfG1TcptVcpA3O6jTZmCxwkgK66bhXO5bxnmjpHp0wLueDMu8PRSd22AO6rw9NQcCQ0kfwta57tP92LC_YNpkO6KUywmbyu8rNQdzIMumHVYgGgy2wNGS_kERAMnykBxTe1wgMtwdcyHXEfs_BYNv_N1gypnezBOlf-N5DfB0rDMMhrtfK5iTaOb7g3-MxV3O9mT_UbmihElNhC7il5LpJyVHmMXRwZIuIWZKd1n7urKeIVFiYKG0Z59KIApQrwT4ndEZo99Lr-RXyFPtdkhopcTaYKuAB2ix68h-0IMmZi0VhryQ1SVB96uAuYqpTdX5dNSAPG4Nr1rf9j0OPztG2bmzXOP2mgg53ZttV1RacPluvTMZiIzbAZBS-D2-UT1sd0IxW6bkAyF7cvZFCwST0aLFhMMwTW_p7AMr0xZn1DlkArWX4zna0NGCS3CN7qwHzFt0fzfnu22v2rLD0Djx1Wf6725U-eSDXKyE3ZJtbFhbNYw4c-OaxUSZlyC-gVWC0]--></g></svg>