<?xml version="1.0" encoding="UTF-8" standalone="no"?><svg xmlns="http://www.w3.org/2000/svg" xmlns:xlink="http://www.w3.org/1999/xlink" contentStyleType="text/css" height="840px" preserveAspectRatio="none" style="width:3277px;height:840px;background:#FFFFFF;" version="1.1" viewBox="0 0 3277 840" width="3277px" zoomAndPan="magnify"><defs/><g><text fill="#000000" font-family="sans-serif" font-size="14" font-weight="bold" lengthAdjust="spacing" textLength="149" x="1566" y="27.9951">Level 3 FE Diagram</text><rect fill="#FFFFFF" height="608.2188" style="stroke:#181818;stroke-width:1.0;" width="10" x="36" y="135.5781"/><rect fill="#FFFFFF" height="569.9375" style="stroke:#181818;stroke-width:1.0;" width="10" x="327" y="164.8594"/><rect fill="#FFFFFF" height="67.2813" style="stroke:#181818;stroke-width:1.0;" width="10" x="651" y="202.1406"/><rect fill="#FFFFFF" height="458.0938" style="stroke:#181818;stroke-width:1.0;" width="10" x="1033" y="239.4219"/><rect fill="#FFFFFF" height="353.5313" style="stroke:#181818;stroke-width:1.0;" width="10" x="1353" y="306.7031"/><rect fill="#FFFFFF" height="278.9688" style="stroke:#181818;stroke-width:1.0;" width="10" x="1966" y="343.9844"/><rect fill="#FFFFFF" height="87.5625" style="stroke:#181818;stroke-width:1.0;" width="10" x="2721" y="498.1094"/><line style="stroke:#181818;stroke-width:0.5;stroke-dasharray:5.0,5.0;" x1="41" x2="41" y1="125.5781" y2="752.7969"/><line style="stroke:#181818;stroke-width:0.5;stroke-dasharray:5.0,5.0;" x1="331.5" x2="331.5" y1="125.5781" y2="752.7969"/><line style="stroke:#181818;stroke-width:0.5;stroke-dasharray:5.0,5.0;" x1="656" x2="656" y1="125.5781" y2="752.7969"/><line style="stroke:#181818;stroke-width:0.5;stroke-dasharray:5.0,5.0;" x1="1038" x2="1038" y1="125.5781" y2="752.7969"/><line style="stroke:#181818;stroke-width:0.5;stroke-dasharray:5.0,5.0;" x1="1358" x2="1358" y1="125.5781" y2="752.7969"/><line style="stroke:#181818;stroke-width:0.5;stroke-dasharray:5.0,5.0;" x1="1970.5" x2="1970.5" y1="125.5781" y2="752.7969"/><line style="stroke:#181818;stroke-width:0.5;stroke-dasharray:5.0,5.0;" x1="2726" x2="2726" y1="125.5781" y2="752.7969"/><text fill="#000000" font-family="sans-serif" font-size="20" lengthAdjust="spacing" textLength="66" x="5" y="120.8613">Admin</text><ellipse cx="41" cy="50.7969" fill="#E2E2F0" rx="8" ry="8" style="stroke:#181818;stroke-width:0.5;"/><path d="M41,58.7969 L41,85.7969 M28,66.7969 L54,66.7969 M41,85.7969 L28,100.7969 M41,85.7969 L54,100.7969 " fill="none" style="stroke:#181818;stroke-width:0.5;"/><text fill="#000000" font-family="sans-serif" font-size="20" lengthAdjust="spacing" textLength="66" x="5" y="770.3613">Admin</text><ellipse cx="41" cy="783.5781" fill="#E2E2F0" rx="8" ry="8" style="stroke:#181818;stroke-width:0.5;"/><path d="M41,791.5781 L41,818.5781 M28,799.5781 L54,799.5781 M41,818.5781 L28,833.5781 M41,818.5781 L54,833.5781 " fill="none" style="stroke:#181818;stroke-width:0.5;"/><rect fill="#E2E2F0" height="37.2813" rx="2.5" ry="2.5" style="stroke:#181818;stroke-width:0.5;" width="63" x="300.5" y="87.2969"/><text fill="#000000" font-family="sans-serif" font-size="20" lengthAdjust="spacing" textLength="49" x="307.5" y="112.8613">View</text><rect fill="#E2E2F0" height="37.2813" rx="2.5" ry="2.5" style="stroke:#181818;stroke-width:0.5;" width="63" x="300.5" y="751.7969"/><text fill="#000000" font-family="sans-serif" font-size="20" lengthAdjust="spacing" textLength="49" x="307.5" y="777.3613">View</text><rect fill="#E2E2F0" height="37.2813" rx="2.5" ry="2.5" style="stroke:#181818;stroke-width:0.5;" width="252" x="530" y="87.2969"/><text fill="#000000" font-family="sans-serif" font-size="20" lengthAdjust="spacing" textLength="238" x="537" y="112.8613">PanelAdminComponent</text><rect fill="#E2E2F0" height="37.2813" rx="2.5" ry="2.5" style="stroke:#181818;stroke-width:0.5;" width="252" x="530" y="751.7969"/><text fill="#000000" font-family="sans-serif" font-size="20" lengthAdjust="spacing" textLength="238" x="537" y="777.3613">PanelAdminComponent</text><rect fill="#E2E2F0" height="37.2813" rx="2.5" ry="2.5" style="stroke:#181818;stroke-width:0.5;" width="272" x="902" y="87.2969"/><text fill="#000000" font-family="sans-serif" font-size="20" lengthAdjust="spacing" textLength="258" x="909" y="112.8613">SpecializationComponent</text><rect fill="#E2E2F0" height="37.2813" rx="2.5" ry="2.5" style="stroke:#181818;stroke-width:0.5;" width="272" x="902" y="751.7969"/><text fill="#000000" font-family="sans-serif" font-size="20" lengthAdjust="spacing" textLength="258" x="909" y="777.3613">SpecializationComponent</text><rect fill="#E2E2F0" height="37.2813" rx="2.5" ry="2.5" style="stroke:#181818;stroke-width:0.5;" width="228" x="1244" y="87.2969"/><text fill="#000000" font-family="sans-serif" font-size="20" lengthAdjust="spacing" textLength="214" x="1251" y="112.8613">SpecializationService</text><rect fill="#E2E2F0" height="37.2813" rx="2.5" ry="2.5" style="stroke:#181818;stroke-width:0.5;" width="228" x="1244" y="751.7969"/><text fill="#000000" font-family="sans-serif" font-size="20" lengthAdjust="spacing" textLength="214" x="1251" y="777.3613">SpecializationService</text><rect fill="#E2E2F0" height="37.2813" rx="2.5" ry="2.5" style="stroke:#181818;stroke-width:0.5;" width="173" x="1884.5" y="87.2969"/><text fill="#000000" font-family="sans-serif" font-size="20" lengthAdjust="spacing" textLength="159" x="1891.5" y="112.8613">AuthInterceptor</text><rect fill="#E2E2F0" height="37.2813" rx="2.5" ry="2.5" style="stroke:#181818;stroke-width:0.5;" width="173" x="1884.5" y="751.7969"/><text fill="#000000" font-family="sans-serif" font-size="20" lengthAdjust="spacing" textLength="159" x="1891.5" y="777.3613">AuthInterceptor</text><rect fill="#E2E2F0" height="37.2813" rx="2.5" ry="2.5" style="stroke:#181818;stroke-width:0.5;" width="60" x="2696" y="87.2969"/><text fill="#000000" font-family="sans-serif" font-size="20" lengthAdjust="spacing" textLength="46" x="2703" y="112.8613">MDR</text><rect fill="#E2E2F0" height="37.2813" rx="2.5" ry="2.5" style="stroke:#181818;stroke-width:0.5;" width="60" x="2696" y="751.7969"/><text fill="#000000" font-family="sans-serif" font-size="20" lengthAdjust="spacing" textLength="46" x="2703" y="777.3613">MDR</text><rect fill="#FFFFFF" height="608.2188" style="stroke:#181818;stroke-width:1.0;" width="10" x="36" y="135.5781"/><rect fill="#FFFFFF" height="569.9375" style="stroke:#181818;stroke-width:1.0;" width="10" x="327" y="164.8594"/><rect fill="#FFFFFF" height="67.2813" style="stroke:#181818;stroke-width:1.0;" width="10" x="651" y="202.1406"/><rect fill="#FFFFFF" height="458.0938" style="stroke:#181818;stroke-width:1.0;" width="10" x="1033" y="239.4219"/><rect fill="#FFFFFF" height="353.5313" style="stroke:#181818;stroke-width:1.0;" width="10" x="1353" y="306.7031"/><rect fill="#FFFFFF" height="278.9688" style="stroke:#181818;stroke-width:1.0;" width="10" x="1966" y="343.9844"/><rect fill="#FFFFFF" height="87.5625" style="stroke:#181818;stroke-width:1.0;" width="10" x="2721" y="498.1094"/><polygon fill="#000000" points="315,160.8594,325,164.8594,315,168.8594,319,164.8594" style="stroke:#000000;stroke-width:1.0;"/><line style="stroke:#000000;stroke-width:1.0;" x1="46" x2="321" y1="164.8594" y2="164.8594"/><text fill="#000000" font-family="sans-serif" font-size="20" lengthAdjust="spacing" textLength="262" x="53" y="158.1426">Asks to list specializations</text><polygon fill="#000000" points="639,198.1406,649,202.1406,639,206.1406,643,202.1406" style="stroke:#000000;stroke-width:1.0;"/><line style="stroke:#000000;stroke-width:1.0;" x1="337" x2="645" y1="202.1406" y2="202.1406"/><text fill="#000000" font-family="sans-serif" font-size="20" lengthAdjust="spacing" textLength="295" x="344" y="195.4238">routerLink="/specializations"</text><polygon fill="#000000" points="1021,235.4219,1031,239.4219,1021,243.4219,1025,239.4219" style="stroke:#000000;stroke-width:1.0;"/><line style="stroke:#000000;stroke-width:1.0;" x1="661" x2="1027" y1="239.4219" y2="239.4219"/><text fill="#000000" font-family="sans-serif" font-size="20" lengthAdjust="spacing" textLength="353" x="668" y="232.7051">routes to SpecializationComponent</text><polygon fill="#000000" points="1341,302.7031,1351,306.7031,1341,310.7031,1345,306.7031" style="stroke:#000000;stroke-width:1.0;"/><line style="stroke:#000000;stroke-width:1.0;" x1="1043" x2="1347" y1="306.7031" y2="306.7031"/><text fill="#000000" font-family="sans-serif" font-size="20" lengthAdjust="spacing" textLength="200" x="1050" y="299.9863">getSpecializations()</text><polygon fill="#000000" points="1954,339.9844,1964,343.9844,1954,347.9844,1958,343.9844" style="stroke:#000000;stroke-width:1.0;"/><line style="stroke:#000000;stroke-width:1.0;" x1="1363" x2="1960" y1="343.9844" y2="343.9844"/><text fill="#000000" font-family="sans-serif" font-size="20" lengthAdjust="spacing" textLength="584" x="1370" y="337.2676">Sends HTTP request to list the default specializations's list</text><line style="stroke:#000000;stroke-width:1.0;" x1="1976" x2="2018" y1="381.2656" y2="381.2656"/><line style="stroke:#000000;stroke-width:1.0;" x1="2018" x2="2018" y1="381.2656" y2="394.2656"/><line style="stroke:#000000;stroke-width:1.0;" x1="1977" x2="2018" y1="394.2656" y2="394.2656"/><polygon fill="#000000" points="1987,390.2656,1977,394.2656,1987,398.2656,1983,394.2656" style="stroke:#000000;stroke-width:1.0;"/><text fill="#000000" font-family="sans-serif" font-size="20" lengthAdjust="spacing" textLength="563" x="1983" y="374.5488">Intercepts the request and adds the token to the header</text><path d="M1981,407.2656 L1981,463.2656 L2500,463.2656 L2500,417.2656 L2490,407.2656 L1981,407.2656 " fill="#FEFFDD" style="stroke:#181818;stroke-width:0.5;"/><path d="M2490,407.2656 L2490,417.2656 L2500,417.2656 L2490,407.2656 " fill="#FEFFDD" style="stroke:#181818;stroke-width:0.5;"/><text fill="#000000" font-family="sans-serif" font-size="20" lengthAdjust="spacing" textLength="498" x="1987" y="430.8301">The token is added to the header so that the MDR</text><text fill="#000000" font-family="sans-serif" font-size="20" lengthAdjust="spacing" textLength="442" x="1987" y="454.1113">can authenticate and authorize the request.</text><polygon fill="#000000" points="2709,494.1094,2719,498.1094,2709,502.1094,2713,498.1094" style="stroke:#000000;stroke-width:1.0;"/><line style="stroke:#000000;stroke-width:1.0;" x1="1976" x2="2715" y1="498.1094" y2="498.1094"/><text fill="#000000" font-family="sans-serif" font-size="20" lengthAdjust="spacing" textLength="726" x="1983" y="491.3926">Sends HTTP request with the token to list the default specialization's list</text><line style="stroke:#000000;stroke-width:1.0;" x1="2731" x2="2773" y1="535.3906" y2="535.3906"/><line style="stroke:#000000;stroke-width:1.0;" x1="2773" x2="2773" y1="535.3906" y2="548.3906"/><line style="stroke:#000000;stroke-width:1.0;" x1="2732" x2="2773" y1="548.3906" y2="548.3906"/><polygon fill="#000000" points="2742,544.3906,2732,548.3906,2742,552.3906,2738,548.3906" style="stroke:#000000;stroke-width:1.0;"/><text fill="#000000" font-family="sans-serif" font-size="20" lengthAdjust="spacing" textLength="532" x="2738" y="528.6738">Validates the data and tries to list the specializations</text><polygon fill="#000000" points="1987,581.6719,1977,585.6719,1987,589.6719,1983,585.6719" style="stroke:#000000;stroke-width:1.0;"/><line style="stroke:#000000;stroke-width:1.0;stroke-dasharray:2.0,2.0;" x1="1981" x2="2725" y1="585.6719" y2="585.6719"/><text fill="#000000" font-family="sans-serif" font-size="20" lengthAdjust="spacing" textLength="311" x="1993" y="578.9551">Returns Operation Status Code</text><polygon fill="#000000" points="1374,618.9531,1364,622.9531,1374,626.9531,1370,622.9531" style="stroke:#000000;stroke-width:1.0;"/><line style="stroke:#000000;stroke-width:1.0;stroke-dasharray:2.0,2.0;" x1="1368" x2="1970" y1="622.9531" y2="622.9531"/><text fill="#000000" font-family="sans-serif" font-size="20" lengthAdjust="spacing" textLength="311" x="1380" y="616.2363">Returns Operation Status Code</text><polygon fill="#000000" points="1054,656.2344,1044,660.2344,1054,664.2344,1050,660.2344" style="stroke:#000000;stroke-width:1.0;"/><line style="stroke:#000000;stroke-width:1.0;stroke-dasharray:2.0,2.0;" x1="1048" x2="1357" y1="660.2344" y2="660.2344"/><text fill="#000000" font-family="sans-serif" font-size="20" lengthAdjust="spacing" textLength="286" x="1060" y="653.5176">Returns Operation Response</text><polygon fill="#000000" points="348,693.5156,338,697.5156,348,701.5156,344,697.5156" style="stroke:#000000;stroke-width:1.0;"/><line style="stroke:#000000;stroke-width:1.0;stroke-dasharray:2.0,2.0;" x1="342" x2="1037" y1="697.5156" y2="697.5156"/><text fill="#000000" font-family="sans-serif" font-size="20" lengthAdjust="spacing" textLength="342" x="354" y="690.7988">Returns SpecializationComponent</text><polygon fill="#000000" points="57,730.7969,47,734.7969,57,738.7969,53,734.7969" style="stroke:#000000;stroke-width:1.0;"/><line style="stroke:#000000;stroke-width:1.0;stroke-dasharray:2.0,2.0;" x1="51" x2="331" y1="734.7969" y2="734.7969"/><text fill="#000000" font-family="sans-serif" font-size="20" lengthAdjust="spacing" textLength="182" x="63" y="728.0801">Displays initial list</text><!--SRC=[ZLJBRjim4BppAnRE8UsXRPgYBoCD8DiIQY1612lGdP4s5ckPLCcrWwJeltT9sR7aE6q5w21oPdPtE9HRAjr8ArUrAPPOGebtSbrJOZHbwX7X_4m8KbGZNE46Q_W0IGmJ9HTC4Q9I9GAk6dg05QvkqJfnwdQASAKqqaE3O2nLHeZzJb5Bv-2N07v6ibWkh5dhScngOoykDh9Uu_Nj3opeyX9E9f_YAFbo76gD2PXa4eycPySn3kr65HYatYVdyUWOZ2NYv6lyEUn5rfhxTdbKCqxyxlRUy8fSuF7kuIGU9H-J4LDaGVmTbIkbGJg81DD95QgHcc2GAxmV-FMylvvAZNKWZSsgCHer1LWQZVl0hC52oLezIbBc03nB_uRDMaDQsQoFZDPKJJMXBR3XzWCcclOniycyhJAP2p-bsaX2dY-2DvUG3o5oImTae5QEmFLAkpq-5xd7yrn3OF-u9CTb-Mtmxe0ns5Ey1_nwsYpTiaAb5xpOCzcG4diwipHKpuQmGEhptQlNdPgPI3CFZQP3o52N3hxVtAHWyUSQURxTd5JXxkuSpdpg0gHZrLH4qvtcazikQEnqfIv1bcMxI6Q9sfVo7nNA4gtGXfMiMbG4vivB-ZJUF86LytI-q3qMEFybstRz-NbI8JcWVExic2fyVw4sBnZh_m2ThjuADW1yvUq0B77KbNj5LR_pVvZqp2FV7BzFHNA6bZASjnUH94ERP1MwdlvXu8B8rkivqjfg1zSDsh0D6KbQEnYR4hi9yTNzXDk8_3UFZy6dPHlGvxGvEewcwt4uOJwCxTtPKLvATBV7rDyWFzcGVyYkgUM30wKLCQyrimFE_m00]--></g></svg>