<?xml version="1.0" encoding="UTF-8" standalone="no"?><svg xmlns="http://www.w3.org/2000/svg" xmlns:xlink="http://www.w3.org/1999/xlink" contentStyleType="text/css" height="520px" preserveAspectRatio="none" style="width:1214px;height:520px;background:#FFFFFF;" version="1.1" viewBox="0 0 1214 520" width="1214px" zoomAndPan="magnify"><defs/><g><text fill="#000000" font-family="sans-serif" font-size="14" font-weight="bold" lengthAdjust="spacing" textLength="126" x="546" y="27.9951">Level 1 Diagram</text><rect fill="#FFFFFF" height="287.9688" style="stroke:#181818;stroke-width:1.0;" width="10" x="36" y="135.5781"/><rect fill="#FFFFFF" height="37.2813" style="stroke:#181818;stroke-width:1.0;" width="10" x="862" y="164.8594"/><rect fill="#FFFFFF" height="175.125" style="stroke:#181818;stroke-width:1.0;" width="10" x="862" y="239.4219"/><line style="stroke:#181818;stroke-width:0.5;stroke-dasharray:5.0,5.0;" x1="41" x2="41" y1="125.5781" y2="432.5469"/><line style="stroke:#181818;stroke-width:0.5;stroke-dasharray:5.0,5.0;" x1="125" x2="125" y1="125.5781" y2="432.5469"/><line style="stroke:#181818;stroke-width:0.5;stroke-dasharray:5.0,5.0;" x1="867" x2="867" y1="125.5781" y2="432.5469"/><text fill="#000000" font-family="sans-serif" font-size="20" lengthAdjust="spacing" textLength="66" x="5" y="120.8613">Doctor</text><ellipse cx="41" cy="50.7969" fill="#E2E2F0" rx="8" ry="8" style="stroke:#181818;stroke-width:0.5;"/><path d="M41,58.7969 L41,85.7969 M28,66.7969 L54,66.7969 M41,85.7969 L28,100.7969 M41,85.7969 L54,100.7969 " fill="none" style="stroke:#181818;stroke-width:0.5;"/><text fill="#000000" font-family="sans-serif" font-size="20" lengthAdjust="spacing" textLength="66" x="5" y="450.1113">Doctor</text><ellipse cx="41" cy="463.3281" fill="#E2E2F0" rx="8" ry="8" style="stroke:#181818;stroke-width:0.5;"/><path d="M41,471.3281 L41,498.3281 M28,479.3281 L54,479.3281 M41,498.3281 L28,513.3281 M41,498.3281 L54,513.3281 " fill="none" style="stroke:#181818;stroke-width:0.5;"/><text fill="#000000" font-family="sans-serif" font-size="20" lengthAdjust="spacing" textLength="71" x="87" y="120.8613">Patient</text><ellipse cx="125.5" cy="50.7969" fill="#E2E2F0" rx="8" ry="8" style="stroke:#181818;stroke-width:0.5;"/><path d="M125.5,58.7969 L125.5,85.7969 M112.5,66.7969 L138.5,66.7969 M125.5,85.7969 L112.5,100.7969 M125.5,85.7969 L138.5,100.7969 " fill="none" style="stroke:#181818;stroke-width:0.5;"/><text fill="#000000" font-family="sans-serif" font-size="20" lengthAdjust="spacing" textLength="71" x="87" y="450.1113">Patient</text><ellipse cx="125.5" cy="463.3281" fill="#E2E2F0" rx="8" ry="8" style="stroke:#181818;stroke-width:0.5;"/><path d="M125.5,471.3281 L125.5,498.3281 M112.5,479.3281 L138.5,479.3281 M125.5,498.3281 L112.5,513.3281 M125.5,498.3281 L138.5,513.3281 " fill="none" style="stroke:#181818;stroke-width:0.5;"/><rect fill="#E2E2F0" height="37.2813" rx="2.5" ry="2.5" style="stroke:#181818;stroke-width:0.5;" width="88" x="823" y="87.2969"/><text fill="#000000" font-family="sans-serif" font-size="20" lengthAdjust="spacing" textLength="74" x="830" y="112.8613">System</text><rect fill="#E2E2F0" height="37.2813" rx="2.5" ry="2.5" style="stroke:#181818;stroke-width:0.5;" width="88" x="823" y="431.5469"/><text fill="#000000" font-family="sans-serif" font-size="20" lengthAdjust="spacing" textLength="74" x="830" y="457.1113">System</text><rect fill="#FFFFFF" height="287.9688" style="stroke:#181818;stroke-width:1.0;" width="10" x="36" y="135.5781"/><rect fill="#FFFFFF" height="37.2813" style="stroke:#181818;stroke-width:1.0;" width="10" x="862" y="164.8594"/><rect fill="#FFFFFF" height="175.125" style="stroke:#181818;stroke-width:1.0;" width="10" x="862" y="239.4219"/><polygon fill="#000000" points="850,160.8594,860,164.8594,850,168.8594,854,164.8594" style="stroke:#000000;stroke-width:1.0;"/><line style="stroke:#000000;stroke-width:1.0;" x1="46" x2="856" y1="164.8594" y2="164.8594"/><text fill="#000000" font-family="sans-serif" font-size="20" lengthAdjust="spacing" textLength="402" x="53" y="158.1426">Requests to create an operation request</text><polygon fill="#000000" points="57,198.1406,47,202.1406,57,206.1406,53,202.1406" style="stroke:#000000;stroke-width:1.0;"/><line style="stroke:#000000;stroke-width:1.0;stroke-dasharray:2.0,2.0;" x1="51" x2="866" y1="202.1406" y2="202.1406"/><text fill="#000000" font-family="sans-serif" font-size="20" lengthAdjust="spacing" textLength="336" x="63" y="195.4238">Asks for operation request details</text><polygon fill="#000000" points="850,235.4219,860,239.4219,850,243.4219,854,239.4219" style="stroke:#000000;stroke-width:1.0;"/><line style="stroke:#000000;stroke-width:1.0;" x1="46" x2="856" y1="239.4219" y2="239.4219"/><text fill="#000000" font-family="sans-serif" font-size="20" lengthAdjust="spacing" textLength="797" x="53" y="232.7051">Sends operation request data (patientID, operationType, deadlineDate, priority)</text><line style="stroke:#000000;stroke-width:1.0;" x1="872" x2="914" y1="276.7031" y2="276.7031"/><line style="stroke:#000000;stroke-width:1.0;" x1="914" x2="914" y1="276.7031" y2="289.7031"/><line style="stroke:#000000;stroke-width:1.0;" x1="873" x2="914" y1="289.7031" y2="289.7031"/><polygon fill="#000000" points="883,285.7031,873,289.7031,883,293.7031,879,289.7031" style="stroke:#000000;stroke-width:1.0;"/><text fill="#000000" font-family="sans-serif" font-size="20" lengthAdjust="spacing" textLength="328" x="879" y="269.9863">Validates operation request data</text><line style="stroke:#000000;stroke-width:1.0;" x1="872" x2="914" y1="326.9844" y2="326.9844"/><line style="stroke:#000000;stroke-width:1.0;" x1="914" x2="914" y1="326.9844" y2="339.9844"/><line style="stroke:#000000;stroke-width:1.0;" x1="873" x2="914" y1="339.9844" y2="339.9844"/><polygon fill="#000000" points="883,335.9844,873,339.9844,883,343.9844,879,339.9844" style="stroke:#000000;stroke-width:1.0;"/><text fill="#000000" font-family="sans-serif" font-size="20" lengthAdjust="spacing" textLength="260" x="879" y="320.2676">Creates operation request</text><polygon fill="#000000" points="57,373.2656,47,377.2656,57,381.2656,53,377.2656" style="stroke:#000000;stroke-width:1.0;"/><line style="stroke:#000000;stroke-width:1.0;stroke-dasharray:2.0,2.0;" x1="51" x2="861" y1="377.2656" y2="377.2656"/><text fill="#000000" font-family="sans-serif" font-size="20" lengthAdjust="spacing" textLength="453" x="63" y="370.5488">Returns Operation Request Success message</text><polygon fill="#000000" points="136.5,410.5469,126.5,414.5469,136.5,418.5469,132.5,414.5469" style="stroke:#000000;stroke-width:1.0;"/><line style="stroke:#000000;stroke-width:1.0;stroke-dasharray:2.0,2.0;" x1="130.5" x2="866" y1="414.5469" y2="414.5469"/><text fill="#000000" font-family="sans-serif" font-size="20" lengthAdjust="spacing" textLength="441" x="142.5" y="407.8301">Notifies patient about the operation request</text><!--SRC=[TLBVIoCn47xFNp7WYqA5Ml2yArBecbquECvYnVTfTbfZiycQp5Pwn_tlDzsrLkkQXmryy_sOdKbQMrzZnCe5iwOIIbfYuxW8dkVs3y5eg1HRTWI_Q4CEBa1RN0bVgKTR4b1LynOggXOKar9fRmV6OKhmLu6S3Crw5KFZovlWGho-tg1hw7RnH8Od4pZHt_9fyRsV6aDeEONECptivoIA6skejReeHddMHnEBlFYHNxMrQOpXfOCp9pprxttljI2uelxkuIJFYiiYsqdGi00wj1ScqA_83DcIvnqqQrbsWqnIrd0-WVasCLLZkAFdXX8du00cqew17a9DKUJ1G-pg1tqdLDq5vsAbnp1DwmHB2Vqab6KoMfTKISSM7_gOaozJdnmPuRJk_kMd7XmezzkQ1cAFfREUj1WFe8usHClRio_xFIG-eBFYJb-bzaXksW7r28x6SKVSH9_WzettEcQODyQGlCbAFhBTzxhP67u7jaih0VL-TulGCF0ZzKH-7kX_]--></g></svg>