<?xml version="1.0" encoding="UTF-8" standalone="no"?><svg xmlns="http://www.w3.org/2000/svg" xmlns:xlink="http://www.w3.org/1999/xlink" contentStyleType="text/css" height="1158px" preserveAspectRatio="none" style="width:2612px;height:1158px;background:#FFFFFF;" version="1.1" viewBox="0 0 2612 1158" width="2612px" zoomAndPan="magnify"><defs/><g><text fill="#000000" font-family="sans-serif" font-size="14" font-weight="bold" lengthAdjust="spacing" textLength="298" x="1158.25" y="27.9951">Level 3 Diagram for Deactivating Staff</text><rect fill="#FFFFFF" height="925.75" style="stroke:#181818;stroke-width:1.0;" width="10" x="36" y="135.5781"/><rect fill="#FFFFFF" height="887.4688" style="stroke:#181818;stroke-width:1.0;" width="10" x="461" y="164.8594"/><rect fill="#FFFFFF" height="812.9063" style="stroke:#181818;stroke-width:1.0;" width="10" x="908" y="202.1406"/><rect fill="#FFFFFF" height="731.3438" style="stroke:#181818;stroke-width:1.0;" width="10" x="1532" y="239.4219"/><rect fill="#FFFFFF" height="124.8438" style="stroke:#181818;stroke-width:1.0;" width="10" x="1724" y="746.0781"/><rect fill="#FFFFFF" height="111.8438" style="stroke:#181818;stroke-width:1.0;" width="10" x="1885.5" y="276.7031"/><rect fill="#FFFFFF" height="43.2813" style="stroke:#181818;stroke-width:1.0;" width="10" x="2009.5" y="466.3906"/><rect fill="#FFFFFF" height="67.2813" style="stroke:#181818;stroke-width:1.0;" width="10" x="2206.5" y="641.5156"/><rect fill="#FFFFFF" height="43.2813" style="stroke:#181818;stroke-width:1.0;" width="10" x="2319.5" y="553.9531"/><rect fill="#FFFFFF" height="43.2813" style="stroke:#181818;stroke-width:1.0;" width="10" x="2406.5" y="783.3594"/><rect fill="#FFFFFF" height="37.2813" style="stroke:#181818;stroke-width:1.0;" width="10" x="2536.5" y="313.9844"/><rect fill="#FFFFFF" height="30" style="stroke:#181818;stroke-width:1.0;" width="10" x="2536.5" y="678.7969"/><rect fill="#EBF5FB" height="575.2188" style="stroke:#000000;stroke-width:1.5;" width="1782.5" x="823" y="403.5469"/><rect fill="#EBF5FB" height="62.5625" style="stroke:none;stroke-width:1.0;" width="1782.5" x="823" y="916.2031"/><line style="stroke:#181818;stroke-width:0.5;stroke-dasharray:5.0,5.0;" x1="41" x2="41" y1="125.5781" y2="1070.3281"/><line style="stroke:#181818;stroke-width:0.5;stroke-dasharray:5.0,5.0;" x1="466" x2="466" y1="125.5781" y2="1070.3281"/><line style="stroke:#181818;stroke-width:0.5;stroke-dasharray:5.0,5.0;" x1="913" x2="913" y1="125.5781" y2="1070.3281"/><line style="stroke:#181818;stroke-width:0.5;stroke-dasharray:5.0,5.0;" x1="1537" x2="1537" y1="125.5781" y2="1070.3281"/><line style="stroke:#181818;stroke-width:0.5;stroke-dasharray:5.0,5.0;" x1="1729" x2="1729" y1="125.5781" y2="1070.3281"/><line style="stroke:#181818;stroke-width:0.5;stroke-dasharray:5.0,5.0;" x1="1890" x2="1890" y1="125.5781" y2="1070.3281"/><line style="stroke:#181818;stroke-width:0.5;stroke-dasharray:5.0,5.0;" x1="2014" x2="2014" y1="125.5781" y2="1070.3281"/><line style="stroke:#181818;stroke-width:0.5;stroke-dasharray:5.0,5.0;" x1="2211.5" x2="2211.5" y1="125.5781" y2="1070.3281"/><line style="stroke:#181818;stroke-width:0.5;stroke-dasharray:5.0,5.0;" x1="2324.5" x2="2324.5" y1="125.5781" y2="1070.3281"/><line style="stroke:#181818;stroke-width:0.5;stroke-dasharray:5.0,5.0;" x1="2411.5" x2="2411.5" y1="125.5781" y2="1070.3281"/><line style="stroke:#181818;stroke-width:0.5;stroke-dasharray:5.0,5.0;" x1="2541.5" x2="2541.5" y1="125.5781" y2="1070.3281"/><text fill="#000000" font-family="sans-serif" font-size="20" lengthAdjust="spacing" textLength="66" x="5" y="120.8613">Admin</text><ellipse cx="41" cy="50.7969" fill="#E2E2F0" rx="8" ry="8" style="stroke:#181818;stroke-width:0.5;"/><path d="M41,58.7969 L41,85.7969 M28,66.7969 L54,66.7969 M41,85.7969 L28,100.7969 M41,85.7969 L54,100.7969 " fill="none" style="stroke:#181818;stroke-width:0.5;"/><text fill="#000000" font-family="sans-serif" font-size="20" lengthAdjust="spacing" textLength="66" x="5" y="1087.8926">Admin</text><ellipse cx="41" cy="1101.1094" fill="#E2E2F0" rx="8" ry="8" style="stroke:#181818;stroke-width:0.5;"/><path d="M41,1109.1094 L41,1136.1094 M28,1117.1094 L54,1117.1094 M41,1136.1094 L28,1151.1094 M41,1136.1094 L54,1151.1094 " fill="none" style="stroke:#181818;stroke-width:0.5;"/><rect fill="#E2E2F0" height="37.2813" rx="2.5" ry="2.5" style="stroke:#181818;stroke-width:0.5;" width="154" x="389" y="87.2969"/><text fill="#000000" font-family="sans-serif" font-size="20" lengthAdjust="spacing" textLength="140" x="396" y="112.8613">User Interface</text><rect fill="#E2E2F0" height="37.2813" rx="2.5" ry="2.5" style="stroke:#181818;stroke-width:0.5;" width="154" x="389" y="1069.3281"/><text fill="#000000" font-family="sans-serif" font-size="20" lengthAdjust="spacing" textLength="140" x="396" y="1094.8926">User Interface</text><rect fill="#E2E2F0" height="37.2813" rx="2.5" ry="2.5" style="stroke:#181818;stroke-width:0.5;" width="160" x="833" y="87.2969"/><text fill="#000000" font-family="sans-serif" font-size="20" lengthAdjust="spacing" textLength="146" x="840" y="112.8613">StaffController</text><rect fill="#E2E2F0" height="37.2813" rx="2.5" ry="2.5" style="stroke:#181818;stroke-width:0.5;" width="160" x="833" y="1069.3281"/><text fill="#000000" font-family="sans-serif" font-size="20" lengthAdjust="spacing" textLength="146" x="840" y="1094.8926">StaffController</text><rect fill="#E2E2F0" height="37.2813" rx="2.5" ry="2.5" style="stroke:#181818;stroke-width:0.5;" width="134" x="1470" y="87.2969"/><text fill="#000000" font-family="sans-serif" font-size="20" lengthAdjust="spacing" textLength="120" x="1477" y="112.8613">StaffService</text><rect fill="#E2E2F0" height="37.2813" rx="2.5" ry="2.5" style="stroke:#181818;stroke-width:0.5;" width="134" x="1470" y="1069.3281"/><text fill="#000000" font-family="sans-serif" font-size="20" lengthAdjust="spacing" textLength="120" x="1477" y="1094.8926">StaffService</text><rect fill="#E2E2F0" height="37.2813" rx="2.5" ry="2.5" style="stroke:#181818;stroke-width:0.5;" width="136" x="1661" y="87.2969"/><text fill="#000000" font-family="sans-serif" font-size="20" lengthAdjust="spacing" textLength="122" x="1668" y="112.8613">StaffMapper</text><rect fill="#E2E2F0" height="37.2813" rx="2.5" ry="2.5" style="stroke:#181818;stroke-width:0.5;" width="136" x="1661" y="1069.3281"/><text fill="#000000" font-family="sans-serif" font-size="20" lengthAdjust="spacing" textLength="122" x="1668" y="1094.8926">StaffMapper</text><rect fill="#E2E2F0" height="37.2813" rx="2.5" ry="2.5" style="stroke:#181818;stroke-width:0.5;" width="167" x="1807" y="87.2969"/><text fill="#000000" font-family="sans-serif" font-size="20" lengthAdjust="spacing" textLength="153" x="1814" y="112.8613">StaffRepository</text><rect fill="#E2E2F0" height="37.2813" rx="2.5" ry="2.5" style="stroke:#181818;stroke-width:0.5;" width="167" x="1807" y="1069.3281"/><text fill="#000000" font-family="sans-serif" font-size="20" lengthAdjust="spacing" textLength="153" x="1814" y="1094.8926">StaffRepository</text><rect fill="#E2E2F0" height="37.2813" rx="2.5" ry="2.5" style="stroke:#181818;stroke-width:0.5;" width="61" x="1984" y="87.2969"/><text fill="#000000" font-family="sans-serif" font-size="20" lengthAdjust="spacing" textLength="47" x="1991" y="112.8613">Staff</text><rect fill="#E2E2F0" height="37.2813" rx="2.5" ry="2.5" style="stroke:#181818;stroke-width:0.5;" width="61" x="1984" y="1069.3281"/><text fill="#000000" font-family="sans-serif" font-size="20" lengthAdjust="spacing" textLength="47" x="1991" y="1094.8926">Staff</text><rect fill="#E2E2F0" height="37.2813" rx="2.5" ry="2.5" style="stroke:#181818;stroke-width:0.5;" width="156" x="2133.5" y="87.2969"/><text fill="#000000" font-family="sans-serif" font-size="20" lengthAdjust="spacing" textLength="142" x="2140.5" y="112.8613">LogRepository</text><rect fill="#E2E2F0" height="37.2813" rx="2.5" ry="2.5" style="stroke:#181818;stroke-width:0.5;" width="156" x="2133.5" y="1069.3281"/><text fill="#000000" font-family="sans-serif" font-size="20" lengthAdjust="spacing" textLength="142" x="2140.5" y="1094.8926">LogRepository</text><rect fill="#E2E2F0" height="37.2813" rx="2.5" ry="2.5" style="stroke:#181818;stroke-width:0.5;" width="50" x="2299.5" y="87.2969"/><text fill="#000000" font-family="sans-serif" font-size="20" lengthAdjust="spacing" textLength="36" x="2306.5" y="112.8613">Log</text><rect fill="#E2E2F0" height="37.2813" rx="2.5" ry="2.5" style="stroke:#181818;stroke-width:0.5;" width="50" x="2299.5" y="1069.3281"/><text fill="#000000" font-family="sans-serif" font-size="20" lengthAdjust="spacing" textLength="36" x="2306.5" y="1094.8926">Log</text><rect fill="#E2E2F0" height="37.2813" rx="2.5" ry="2.5" style="stroke:#181818;stroke-width:0.5;" width="104" x="2359.5" y="87.2969"/><text fill="#000000" font-family="sans-serif" font-size="20" lengthAdjust="spacing" textLength="90" x="2366.5" y="112.8613">StaffDTO</text><rect fill="#E2E2F0" height="37.2813" rx="2.5" ry="2.5" style="stroke:#181818;stroke-width:0.5;" width="104" x="2359.5" y="1069.3281"/><text fill="#000000" font-family="sans-serif" font-size="20" lengthAdjust="spacing" textLength="90" x="2366.5" y="1094.8926">StaffDTO</text><rect fill="#E2E2F0" height="37.2813" rx="2.5" ry="2.5" style="stroke:#181818;stroke-width:0.5;" width="108" x="2487.5" y="87.2969"/><text fill="#000000" font-family="sans-serif" font-size="20" lengthAdjust="spacing" textLength="94" x="2494.5" y="112.8613">Database</text><rect fill="#E2E2F0" height="37.2813" rx="2.5" ry="2.5" style="stroke:#181818;stroke-width:0.5;" width="108" x="2487.5" y="1069.3281"/><text fill="#000000" font-family="sans-serif" font-size="20" lengthAdjust="spacing" textLength="94" x="2494.5" y="1094.8926">Database</text><rect fill="#FFFFFF" height="925.75" style="stroke:#181818;stroke-width:1.0;" width="10" x="36" y="135.5781"/><rect fill="#FFFFFF" height="887.4688" style="stroke:#181818;stroke-width:1.0;" width="10" x="461" y="164.8594"/><rect fill="#FFFFFF" height="812.9063" style="stroke:#181818;stroke-width:1.0;" width="10" x="908" y="202.1406"/><rect fill="#FFFFFF" height="731.3438" style="stroke:#181818;stroke-width:1.0;" width="10" x="1532" y="239.4219"/><rect fill="#FFFFFF" height="124.8438" style="stroke:#181818;stroke-width:1.0;" width="10" x="1724" y="746.0781"/><rect fill="#FFFFFF" height="111.8438" style="stroke:#181818;stroke-width:1.0;" width="10" x="1885.5" y="276.7031"/><rect fill="#FFFFFF" height="43.2813" style="stroke:#181818;stroke-width:1.0;" width="10" x="2009.5" y="466.3906"/><rect fill="#FFFFFF" height="67.2813" style="stroke:#181818;stroke-width:1.0;" width="10" x="2206.5" y="641.5156"/><rect fill="#FFFFFF" height="43.2813" style="stroke:#181818;stroke-width:1.0;" width="10" x="2319.5" y="553.9531"/><rect fill="#FFFFFF" height="43.2813" style="stroke:#181818;stroke-width:1.0;" width="10" x="2406.5" y="783.3594"/><rect fill="#FFFFFF" height="37.2813" style="stroke:#181818;stroke-width:1.0;" width="10" x="2536.5" y="313.9844"/><rect fill="#FFFFFF" height="30" style="stroke:#181818;stroke-width:1.0;" width="10" x="2536.5" y="678.7969"/><polygon fill="#000000" points="449,160.8594,459,164.8594,449,168.8594,453,164.8594" style="stroke:#000000;stroke-width:1.0;"/><line style="stroke:#000000;stroke-width:1.0;" x1="46" x2="455" y1="164.8594" y2="164.8594"/><text fill="#000000" font-family="sans-serif" font-size="20" lengthAdjust="spacing" textLength="254" x="53" y="158.1426">Asks to deactivate a Staff</text><polygon fill="#000000" points="896,198.1406,906,202.1406,896,206.1406,900,202.1406" style="stroke:#000000;stroke-width:1.0;"/><line style="stroke:#000000;stroke-width:1.0;" x1="471" x2="902" y1="202.1406" y2="202.1406"/><text fill="#000000" font-family="sans-serif" font-size="20" lengthAdjust="spacing" textLength="241" x="478" y="195.4238">deactivateStaff(Guid id)</text><polygon fill="#000000" points="1520,235.4219,1530,239.4219,1520,243.4219,1524,239.4219" style="stroke:#000000;stroke-width:1.0;"/><line style="stroke:#000000;stroke-width:1.0;" x1="918" x2="1526" y1="239.4219" y2="239.4219"/><text fill="#000000" font-family="sans-serif" font-size="20" lengthAdjust="spacing" textLength="300" x="925" y="232.7051">deactivateStaffAsync(Guid id)</text><polygon fill="#000000" points="1873.5,272.7031,1883.5,276.7031,1873.5,280.7031,1877.5,276.7031" style="stroke:#000000;stroke-width:1.0;"/><line style="stroke:#000000;stroke-width:1.0;" x1="1542" x2="1879.5" y1="276.7031" y2="276.7031"/><text fill="#000000" font-family="sans-serif" font-size="20" lengthAdjust="spacing" textLength="301" x="1549" y="269.9863">getByIdAsync(new StaffId(id))</text><polygon fill="#000000" points="2524.5,309.9844,2534.5,313.9844,2524.5,317.9844,2528.5,313.9844" style="stroke:#000000;stroke-width:1.0;"/><line style="stroke:#000000;stroke-width:1.0;" x1="1895.5" x2="2530.5" y1="313.9844" y2="313.9844"/><text fill="#000000" font-family="sans-serif" font-size="20" lengthAdjust="spacing" textLength="561" x="1902.5" y="307.2676">_objs.Where(x =&gt; id.Equals(x.Id)).FirstOrDefaultAsync()</text><polygon fill="#000000" points="1906.5,347.2656,1896.5,351.2656,1906.5,355.2656,1902.5,351.2656" style="stroke:#000000;stroke-width:1.0;"/><line style="stroke:#000000;stroke-width:1.0;stroke-dasharray:2.0,2.0;" x1="1900.5" x2="2540.5" y1="351.2656" y2="351.2656"/><text fill="#000000" font-family="sans-serif" font-size="20" lengthAdjust="spacing" textLength="112" x="1912.5" y="344.5488">return staff</text><polygon fill="#000000" points="1553,384.5469,1543,388.5469,1553,392.5469,1549,388.5469" style="stroke:#000000;stroke-width:1.0;"/><line style="stroke:#000000;stroke-width:1.0;stroke-dasharray:2.0,2.0;" x1="1547" x2="1889.5" y1="388.5469" y2="388.5469"/><text fill="#000000" font-family="sans-serif" font-size="20" lengthAdjust="spacing" textLength="112" x="1559" y="381.8301">return staff</text><path d="M823,403.5469 L899,403.5469 L899,418.8281 L889,428.8281 L823,428.8281 L823,403.5469 " fill="#EEEEEE" style="stroke:#000000;stroke-width:1.5;"/><rect fill="none" height="575.2188" style="stroke:#000000;stroke-width:1.5;" width="1782.5" x="823" y="403.5469"/><text fill="#000000" font-family="sans-serif" font-size="20" font-weight="bold" lengthAdjust="spacing" textLength="31" x="838" y="423.1113">alt</text><text fill="#000000" font-family="sans-serif" font-size="20" font-weight="bold" lengthAdjust="spacing" textLength="192" x="914" y="424.1113">[staff is not null]</text><polygon fill="#000000" points="1997.5,462.3906,2007.5,466.3906,1997.5,470.3906,2001.5,466.3906" style="stroke:#000000;stroke-width:1.0;"/><line style="stroke:#000000;stroke-width:1.0;" x1="1542" x2="2003.5" y1="466.3906" y2="466.3906"/><text fill="#000000" font-family="sans-serif" font-size="20" lengthAdjust="spacing" textLength="123" x="1549" y="459.6738">Deactivate()</text><line style="stroke:#000000;stroke-width:1.0;" x1="2019.5" x2="2061.5" y1="508.6719" y2="508.6719"/><line style="stroke:#000000;stroke-width:1.0;" x1="2061.5" x2="2061.5" y1="508.6719" y2="521.6719"/><line style="stroke:#000000;stroke-width:1.0;" x1="2014.5" x2="2061.5" y1="521.6719" y2="521.6719"/><polygon fill="#000000" points="2024.5,517.6719,2014.5,521.6719,2024.5,525.6719,2020.5,521.6719" style="stroke:#000000;stroke-width:1.0;"/><text fill="#000000" font-family="sans-serif" font-size="20" lengthAdjust="spacing" textLength="173" x="2026.5" y="501.9551">staff.Deactivate()</text><polygon fill="#000000" points="2307.5,549.9531,2317.5,553.9531,2307.5,557.9531,2311.5,553.9531" style="stroke:#000000;stroke-width:1.0;"/><line style="stroke:#000000;stroke-width:1.0;" x1="1542" x2="2313.5" y1="553.9531" y2="553.9531"/><text fill="#000000" font-family="sans-serif" font-size="20" lengthAdjust="spacing" textLength="615" x="1549" y="547.2363">new Log(TypeOfAction.Deactivate, id.ToString(), logMessage)</text><line style="stroke:#000000;stroke-width:1.0;" x1="2329.5" x2="2371.5" y1="596.2344" y2="596.2344"/><line style="stroke:#000000;stroke-width:1.0;" x1="2371.5" x2="2371.5" y1="596.2344" y2="609.2344"/><line style="stroke:#000000;stroke-width:1.0;" x1="2324.5" x2="2371.5" y1="609.2344" y2="609.2344"/><polygon fill="#000000" points="2334.5,605.2344,2324.5,609.2344,2334.5,613.2344,2330.5,609.2344" style="stroke:#000000;stroke-width:1.0;"/><text fill="#000000" font-family="sans-serif" font-size="20" lengthAdjust="spacing" textLength="52" x="2336.5" y="589.5176">Log()</text><polygon fill="#000000" points="2194.5,637.5156,2204.5,641.5156,2194.5,645.5156,2198.5,641.5156" style="stroke:#000000;stroke-width:1.0;"/><line style="stroke:#000000;stroke-width:1.0;" x1="1542" x2="2200.5" y1="641.5156" y2="641.5156"/><text fill="#000000" font-family="sans-serif" font-size="20" lengthAdjust="spacing" textLength="144" x="1549" y="634.7988">addAsync(log)</text><polygon fill="#000000" points="2524.5,674.7969,2534.5,678.7969,2524.5,682.7969,2528.5,678.7969" style="stroke:#000000;stroke-width:1.0;"/><line style="stroke:#000000;stroke-width:1.0;" x1="2216.5" x2="2530.5" y1="678.7969" y2="678.7969"/><text fill="#000000" font-family="sans-serif" font-size="20" lengthAdjust="spacing" textLength="203" x="2223.5" y="672.0801">_objs.AddAsync(log)</text><polygon fill="#000000" points="1712,742.0781,1722,746.0781,1712,750.0781,1716,746.0781" style="stroke:#000000;stroke-width:1.0;"/><line style="stroke:#000000;stroke-width:1.0;" x1="1542" x2="1718" y1="746.0781" y2="746.0781"/><text fill="#000000" font-family="sans-serif" font-size="20" lengthAdjust="spacing" textLength="119" x="1549" y="739.3613">ToDto(staff)</text><polygon fill="#000000" points="2394.5,779.3594,2404.5,783.3594,2394.5,787.3594,2398.5,783.3594" style="stroke:#000000;stroke-width:1.0;"/><line style="stroke:#000000;stroke-width:1.0;" x1="1734" x2="2400.5" y1="783.3594" y2="783.3594"/><text fill="#000000" font-family="sans-serif" font-size="20" lengthAdjust="spacing" textLength="258" x="1741" y="776.6426">new StaffDTO(staff fields)</text><line style="stroke:#000000;stroke-width:1.0;" x1="2416.5" x2="2458.5" y1="825.6406" y2="825.6406"/><line style="stroke:#000000;stroke-width:1.0;" x1="2458.5" x2="2458.5" y1="825.6406" y2="838.6406"/><line style="stroke:#000000;stroke-width:1.0;" x1="2411.5" x2="2458.5" y1="838.6406" y2="838.6406"/><polygon fill="#000000" points="2421.5,834.6406,2411.5,838.6406,2421.5,842.6406,2417.5,838.6406" style="stroke:#000000;stroke-width:1.0;"/><text fill="#000000" font-family="sans-serif" font-size="20" lengthAdjust="spacing" textLength="106" x="2423.5" y="818.9238">StaffDTO()</text><polygon fill="#000000" points="1553,866.9219,1543,870.9219,1553,874.9219,1549,870.9219" style="stroke:#000000;stroke-width:1.0;"/><line style="stroke:#000000;stroke-width:1.0;stroke-dasharray:2.0,2.0;" x1="1547" x2="1728" y1="870.9219" y2="870.9219"/><text fill="#000000" font-family="sans-serif" font-size="20" lengthAdjust="spacing" textLength="158" x="1559" y="864.2051">return StaffDTO</text><polygon fill="#000000" points="929,904.2031,919,908.2031,929,912.2031,925,908.2031" style="stroke:#000000;stroke-width:1.0;"/><line style="stroke:#000000;stroke-width:1.0;stroke-dasharray:2.0,2.0;" x1="923" x2="1531" y1="908.2031" y2="908.2031"/><text fill="#000000" font-family="sans-serif" font-size="20" lengthAdjust="spacing" textLength="158" x="935" y="901.4863">return StaffDTO</text><line style="stroke:#000000;stroke-width:1.0;stroke-dasharray:2.0,2.0;" x1="823" x2="2605.5" y1="917.2031" y2="917.2031"/><text fill="#000000" font-family="sans-serif" font-size="20" font-weight="bold" lengthAdjust="spacing" textLength="147" x="828" y="935.7676">[staff is null]</text><polygon fill="#000000" points="929,966.7656,919,970.7656,929,974.7656,925,970.7656" style="stroke:#000000;stroke-width:1.0;"/><line style="stroke:#000000;stroke-width:1.0;stroke-dasharray:2.0,2.0;" x1="923" x2="1536" y1="970.7656" y2="970.7656"/><text fill="#000000" font-family="sans-serif" font-size="20" lengthAdjust="spacing" textLength="590" x="935" y="964.0488">throw BusinessRuleValidationException("Staff not found.")</text><polygon fill="#000000" points="482,1011.0469,472,1015.0469,482,1019.0469,478,1015.0469" style="stroke:#000000;stroke-width:1.0;"/><line style="stroke:#000000;stroke-width:1.0;stroke-dasharray:2.0,2.0;" x1="476" x2="912" y1="1015.0469" y2="1015.0469"/><text fill="#000000" font-family="sans-serif" font-size="20" lengthAdjust="spacing" textLength="413" x="488" y="1008.3301">Returns Operation Status Response Code</text><polygon fill="#000000" points="57,1048.3281,47,1052.3281,57,1056.3281,53,1052.3281" style="stroke:#000000;stroke-width:1.0;"/><line style="stroke:#000000;stroke-width:1.0;stroke-dasharray:2.0,2.0;" x1="51" x2="465" y1="1052.3281" y2="1052.3281"/><text fill="#000000" font-family="sans-serif" font-size="20" lengthAdjust="spacing" textLength="391" x="63" y="1045.6113">Returns Operation In/Success message</text><!--SRC=[TLNlRzem4FsUl-BKVXYJMjPrsY_K8IK49YGGAA7RnybD3d1hxCnsQDcq_trd1sWQKhw4tBtt_7m-Nym3bmNJR2DKze0vvBXafR0Z9MtA_o1SNmM1vLOWJ72B0Zv0pDcAyB1K6c9acULRPhbSGMhPSXa4QvuZuAQmEzZWvWwr2TwOmoemuHBjha1GsgvL43ndCi6CWRy1q2zYsSDAgrBc0oMKlhdPCb7YxEuUCzllmtdyQHYElhH3jL8UCug7KNpLZZ6ejpn3B_L-T3sCsc0aCHnz7NxskL1hzLY58q6uu5_TUq4Hji9szt0-Z4OVHv6ZKBae4EORBe4P20FYMvxnWaaBPxVa2yRIebwo3CySudRy4kABFA3JqKe8r1upQ86arGvzFct9JrbHxEdJbdI2XJASlEuy96c1-CJyPMAYLWtc93b1LF4MnNWnypbwlip6pB8xPghTn94le-iwf0A6SDcdAlKWD0y6hA8EFcRPlYUF0QhcxTWH1hqQpeCwtqkU0y_VFgC7mS1XqnDiQ7OoQo6aGUe8IGzMQAFTEA-04Xyh8-EyG_WQ8GaIHuYZ7lnIT_Uc-tED6ZjFyArFojtXxv89qtdgZedL7N5jx4p7rGsjf6jQL9SuWijgVOssr1ACttwj8WHAF2Pz7PC4JDWg3Do0L1PaAOHlRR-_UU_vuYDPS8aZU-vVvtkSL-cUe6khpPzr9prmfQ8MwIneHCoM8O6KhD4lN5KMAhMQ1axdxGK8jPgYCNJt6ZOc_dMobtMI9ojFQYjJoLY-FoxIR8ebbLhZiCBN6N7KNEqqibVr1gOzMAZOgeulM4Diwb-dVl75h2hIuS9K15Xo5Bbfcg1xv0BqF7AFl9Do7D3JHdyS64tyzE2-kavDD0g3jIQgDL25jsiQg12LXZu8nYIbm1zCy9ov4ny-PLYuFvrgCFWUNBg1sZqxyPq6A7DtK_Tp8F563CneldarvycMDCJG54gIgu7AiTxm0pyKY1wsiSVoNLfc6PcaxvbljJgN9if_]--></g></svg>