<?xml version="1.0" encoding="UTF-8" standalone="no"?><svg xmlns="http://www.w3.org/2000/svg" xmlns:xlink="http://www.w3.org/1999/xlink" contentStyleType="text/css" height="510px" preserveAspectRatio="none" style="width:1193px;height:510px;background:#FFFFFF;" version="1.1" viewBox="0 0 1193 510" width="1193px" zoomAndPan="magnify"><defs><filter height="300%" id="f1sqiedo8ndzud" width="300%" x="-1" y="-1"><feGaussianBlur result="blurOut" stdDeviation="2.0"/><feColorMatrix in="blurOut" result="blurOut2" type="matrix" values="0 0 0 0 0 0 0 0 0 0 0 0 0 0 0 0 0 0 .4 0"/><feOffset dx="4.0" dy="4.0" in="blurOut2" result="blurOut3"/><feBlend in="SourceGraphic" in2="blurOut3" mode="normal"/></filter></defs><g><text fill="#000000" font-family="sans-serif" font-size="14" font-weight="bold" lengthAdjust="spacing" textLength="167" x="515.25" y="27.9951">5.1.22 Level 2 Diagra</text><rect fill="#FFFFFF" filter="url(#f1sqiedo8ndzud)" height="265.9688" style="stroke:#181818;stroke-width:1.0;" width="10" x="36.5" y="138.5781"/><rect fill="#FFFFFF" filter="url(#f1sqiedo8ndzud)" height="245.6875" style="stroke:#181818;stroke-width:1.0;" width="10" x="628.5" y="167.8594"/><rect fill="#FFFFFF" filter="url(#f1sqiedo8ndzud)" height="87.5625" style="stroke:#181818;stroke-width:1.0;" width="10" x="1033.5" y="279.7031"/><line style="stroke:#181818;stroke-width:0.5;stroke-dasharray:5.0,5.0;" x1="41" x2="41" y1="128.5781" y2="422.5469"/><line style="stroke:#181818;stroke-width:0.5;stroke-dasharray:5.0,5.0;" x1="633.5" x2="633.5" y1="128.5781" y2="422.5469"/><line style="stroke:#181818;stroke-width:0.5;stroke-dasharray:5.0,5.0;" x1="1038" x2="1038" y1="128.5781" y2="422.5469"/><text fill="#000000" font-family="sans-serif" font-size="20" lengthAdjust="spacing" textLength="67" x="5" y="123.8613">ADMIN</text><ellipse cx="41.5" cy="50.7969" fill="#E2E2F0" filter="url(#f1sqiedo8ndzud)" rx="8" ry="8" style="stroke:#181818;stroke-width:0.5;"/><path d="M41.5,58.7969 L41.5,85.7969 M28.5,66.7969 L54.5,66.7969 M41.5,85.7969 L28.5,100.7969 M41.5,85.7969 L54.5,100.7969 " fill="none" filter="url(#f1sqiedo8ndzud)" style="stroke:#181818;stroke-width:0.5;"/><text fill="#000000" font-family="sans-serif" font-size="20" lengthAdjust="spacing" textLength="67" x="5" y="440.1113">ADMIN</text><ellipse cx="41.5" cy="453.3281" fill="#E2E2F0" filter="url(#f1sqiedo8ndzud)" rx="8" ry="8" style="stroke:#181818;stroke-width:0.5;"/><path d="M41.5,461.3281 L41.5,488.3281 M28.5,469.3281 L54.5,469.3281 M41.5,488.3281 L28.5,503.3281 M41.5,488.3281 L54.5,503.3281 " fill="none" filter="url(#f1sqiedo8ndzud)" style="stroke:#181818;stroke-width:0.5;"/><rect fill="#E2E2F0" filter="url(#f1sqiedo8ndzud)" height="37.2813" rx="2.5" ry="2.5" style="stroke:#181818;stroke-width:0.5;" width="35" x="614.5" y="87.2969"/><text fill="#000000" font-family="sans-serif" font-size="20" lengthAdjust="spacing" textLength="21" x="621.5" y="112.8613">UI</text><rect fill="#E2E2F0" filter="url(#f1sqiedo8ndzud)" height="37.2813" rx="2.5" ry="2.5" style="stroke:#181818;stroke-width:0.5;" width="35" x="614.5" y="421.5469"/><text fill="#000000" font-family="sans-serif" font-size="20" lengthAdjust="spacing" textLength="21" x="621.5" y="447.1113">UI</text><rect fill="#E2E2F0" filter="url(#f1sqiedo8ndzud)" height="37.2813" rx="2.5" ry="2.5" style="stroke:#181818;stroke-width:0.5;" width="60" x="1007" y="87.2969"/><text fill="#000000" font-family="sans-serif" font-size="20" lengthAdjust="spacing" textLength="46" x="1014" y="112.8613">MDR</text><rect fill="#E2E2F0" filter="url(#f1sqiedo8ndzud)" height="37.2813" rx="2.5" ry="2.5" style="stroke:#181818;stroke-width:0.5;" width="60" x="1007" y="421.5469"/><text fill="#000000" font-family="sans-serif" font-size="20" lengthAdjust="spacing" textLength="46" x="1014" y="447.1113">MDR</text><rect fill="#FFFFFF" filter="url(#f1sqiedo8ndzud)" height="265.9688" style="stroke:#181818;stroke-width:1.0;" width="10" x="36.5" y="138.5781"/><rect fill="#FFFFFF" filter="url(#f1sqiedo8ndzud)" height="245.6875" style="stroke:#181818;stroke-width:1.0;" width="10" x="628.5" y="167.8594"/><rect fill="#FFFFFF" filter="url(#f1sqiedo8ndzud)" height="87.5625" style="stroke:#181818;stroke-width:1.0;" width="10" x="1033.5" y="279.7031"/><polygon fill="#181818" points="616.5,163.8594,626.5,167.8594,616.5,171.8594,620.5,167.8594" style="stroke:#181818;stroke-width:1.0;"/><line style="stroke:#181818;stroke-width:1.0;" x1="46.5" x2="622.5" y1="167.8594" y2="167.8594"/><text fill="#000000" font-family="sans-serif" font-size="20" lengthAdjust="spacing" textLength="377" x="53.5" y="161.1426">send request to delete operation type</text><polygon fill="#181818" points="57.5,201.1406,47.5,205.1406,57.5,209.1406,53.5,205.1406" style="stroke:#181818;stroke-width:1.0;"/><line style="stroke:#181818;stroke-width:1.0;" x1="51.5" x2="627.5" y1="205.1406" y2="205.1406"/><text fill="#000000" font-family="sans-serif" font-size="20" lengthAdjust="spacing" textLength="558" x="63.5" y="198.4238">ask to especify the ID or the name of the operation type</text><polygon fill="#181818" points="616.5,238.4219,626.5,242.4219,616.5,246.4219,620.5,242.4219" style="stroke:#181818;stroke-width:1.0;"/><line style="stroke:#181818;stroke-width:1.0;" x1="46.5" x2="622.5" y1="242.4219" y2="242.4219"/><text fill="#000000" font-family="sans-serif" font-size="20" lengthAdjust="spacing" textLength="312" x="53.5" y="235.7051">deleteOperationType(ID/name)</text><polygon fill="#181818" points="1021.5,275.7031,1031.5,279.7031,1021.5,283.7031,1025.5,279.7031" style="stroke:#181818;stroke-width:1.0;"/><line style="stroke:#181818;stroke-width:1.0;" x1="638.5" x2="1027.5" y1="279.7031" y2="279.7031"/><text fill="#000000" font-family="sans-serif" font-size="20" lengthAdjust="spacing" textLength="312" x="645.5" y="272.9863">deleteOperationType(ID/name)</text><line style="stroke:#181818;stroke-width:1.0;stroke-dasharray:2.0,2.0;" x1="1043.5" x2="1085.5" y1="316.9844" y2="316.9844"/><line style="stroke:#181818;stroke-width:1.0;stroke-dasharray:2.0,2.0;" x1="1085.5" x2="1085.5" y1="316.9844" y2="329.9844"/><line style="stroke:#181818;stroke-width:1.0;stroke-dasharray:2.0,2.0;" x1="1044.5" x2="1085.5" y1="329.9844" y2="329.9844"/><polygon fill="#181818" points="1054.5,325.9844,1044.5,329.9844,1054.5,333.9844,1050.5,329.9844" style="stroke:#181818;stroke-width:1.0;"/><text fill="#000000" font-family="sans-serif" font-size="20" lengthAdjust="spacing" textLength="136" x="1050.5" y="310.2676">Validate ID or</text><polygon fill="#181818" points="649.5,363.2656,639.5,367.2656,649.5,371.2656,645.5,367.2656" style="stroke:#181818;stroke-width:1.0;"/><line style="stroke:#181818;stroke-width:1.0;stroke-dasharray:2.0,2.0;" x1="643.5" x2="1037.5" y1="367.2656" y2="367.2656"/><text fill="#000000" font-family="sans-serif" font-size="20" lengthAdjust="spacing" textLength="371" x="655.5" y="360.5488">200 (Success) OR 400 (Bad Request)</text><polygon fill="#181818" points="52.5,400.5469,42.5,404.5469,52.5,408.5469,48.5,404.5469" style="stroke:#181818;stroke-width:1.0;"/><line style="stroke:#181818;stroke-width:1.0;" x1="46.5" x2="627.5" y1="404.5469" y2="404.5469"/><text fill="#000000" font-family="sans-serif" font-size="20" lengthAdjust="spacing" textLength="371" x="58.5" y="397.8301">200 (Success) OR 400 (Bad Request)</text><!--SRC=[bL3BRi8m4BpxA_PME41er5uuLAAAAaKgHOBI-yhU40l7JkCDY7vzro2WZqFLWwMHPsPdP-FM-XOxR5pGMp9WgCBUyLFmlB8V1Fb4tTJCRPncMUlGSz-uiGvD5kcz9wzfP2nknA_YUHBKwCs-iypaeK8NwGlN11zqtOM6Vb4jwYrkQCK7Hz2HvYzShD64lVKRuAudfTYoYEx7j-CyXsVQaOCSYkCcIg7cqC6ic9SlW550-h4xP4fuLi3e0TRb529v8q7I8p9maEwEH1DQwf1jyC27bgxUTQdMPVBEYgdCtIOBnPQqhGx0DK5PWEGcv57wXUg8Vuoxnf_Y5cVwLTX1MMJ9EvGaKSsBvH-oot8YLV9WTBQzeRCcCQUjBcHApYSJ6AnwhId68IoMS9S-7j70ydIDeJBqRVIr-F-ySkzF]--></g></svg>