<?xml version="1.0" encoding="UTF-8" standalone="no"?><svg xmlns="http://www.w3.org/2000/svg" xmlns:xlink="http://www.w3.org/1999/xlink" contentStyleType="text/css" height="773px" preserveAspectRatio="none" style="width:3139px;height:773px;background:#FFFFFF;" version="1.1" viewBox="0 0 3139 773" width="3139px" zoomAndPan="magnify"><defs/><g><text fill="#000000" font-family="sans-serif" font-size="14" font-weight="bold" lengthAdjust="spacing" textLength="149" x="1497" y="27.9951">Level 3 FE Diagram</text><rect fill="#FFFFFF" height="540.9375" style="stroke:#181818;stroke-width:1.0;" width="10" x="36" y="135.5781"/><rect fill="#FFFFFF" height="502.6563" style="stroke:#181818;stroke-width:1.0;" width="10" x="450" y="164.8594"/><rect fill="#FFFFFF" height="428.0938" style="stroke:#181818;stroke-width:1.0;" width="10" x="864" y="202.1406"/><rect fill="#FFFFFF" height="353.5313" style="stroke:#181818;stroke-width:1.0;" width="10" x="1219" y="239.4219"/><rect fill="#FFFFFF" height="278.9688" style="stroke:#181818;stroke-width:1.0;" width="10" x="1782" y="276.7031"/><rect fill="#FFFFFF" height="87.5625" style="stroke:#181818;stroke-width:1.0;" width="10" x="2369" y="430.8281"/><line style="stroke:#181818;stroke-width:0.5;stroke-dasharray:5.0,5.0;" x1="41" x2="41" y1="125.5781" y2="685.5156"/><line style="stroke:#181818;stroke-width:0.5;stroke-dasharray:5.0,5.0;" x1="454.5" x2="454.5" y1="125.5781" y2="685.5156"/><line style="stroke:#181818;stroke-width:0.5;stroke-dasharray:5.0,5.0;" x1="868.5" x2="868.5" y1="125.5781" y2="685.5156"/><line style="stroke:#181818;stroke-width:0.5;stroke-dasharray:5.0,5.0;" x1="1223.5" x2="1223.5" y1="125.5781" y2="685.5156"/><line style="stroke:#181818;stroke-width:0.5;stroke-dasharray:5.0,5.0;" x1="1786.5" x2="1786.5" y1="125.5781" y2="685.5156"/><line style="stroke:#181818;stroke-width:0.5;stroke-dasharray:5.0,5.0;" x1="2374" x2="2374" y1="125.5781" y2="685.5156"/><text fill="#000000" font-family="sans-serif" font-size="20" lengthAdjust="spacing" textLength="66" x="5" y="120.8613">Admin</text><ellipse cx="41" cy="50.7969" fill="#E2E2F0" rx="8" ry="8" style="stroke:#181818;stroke-width:0.5;"/><path d="M41,58.7969 L41,85.7969 M28,66.7969 L54,66.7969 M41,85.7969 L28,100.7969 M41,85.7969 L54,100.7969 " fill="none" style="stroke:#181818;stroke-width:0.5;"/><text fill="#000000" font-family="sans-serif" font-size="20" lengthAdjust="spacing" textLength="66" x="5" y="703.0801">Admin</text><ellipse cx="41" cy="716.2969" fill="#E2E2F0" rx="8" ry="8" style="stroke:#181818;stroke-width:0.5;"/><path d="M41,724.2969 L41,751.2969 M28,732.2969 L54,732.2969 M41,751.2969 L28,766.2969 M41,751.2969 L54,766.2969 " fill="none" style="stroke:#181818;stroke-width:0.5;"/><rect fill="#E2E2F0" height="37.2813" rx="2.5" ry="2.5" style="stroke:#181818;stroke-width:0.5;" width="63" x="423.5" y="87.2969"/><text fill="#000000" font-family="sans-serif" font-size="20" lengthAdjust="spacing" textLength="49" x="430.5" y="112.8613">View</text><rect fill="#E2E2F0" height="37.2813" rx="2.5" ry="2.5" style="stroke:#181818;stroke-width:0.5;" width="63" x="423.5" y="684.5156"/><text fill="#000000" font-family="sans-serif" font-size="20" lengthAdjust="spacing" textLength="49" x="430.5" y="710.0801">View</text><rect fill="#E2E2F0" height="37.2813" rx="2.5" ry="2.5" style="stroke:#181818;stroke-width:0.5;" width="289" x="724.5" y="87.2969"/><text fill="#000000" font-family="sans-serif" font-size="20" lengthAdjust="spacing" textLength="275" x="731.5" y="112.8613">OperationTypesComponent</text><rect fill="#E2E2F0" height="37.2813" rx="2.5" ry="2.5" style="stroke:#181818;stroke-width:0.5;" width="289" x="724.5" y="684.5156"/><text fill="#000000" font-family="sans-serif" font-size="20" lengthAdjust="spacing" textLength="275" x="731.5" y="710.0801">OperationTypesComponent</text><rect fill="#E2E2F0" height="37.2813" rx="2.5" ry="2.5" style="stroke:#181818;stroke-width:0.5;" width="235" x="1106.5" y="87.2969"/><text fill="#000000" font-family="sans-serif" font-size="20" lengthAdjust="spacing" textLength="221" x="1113.5" y="112.8613">OperationTypeService</text><rect fill="#E2E2F0" height="37.2813" rx="2.5" ry="2.5" style="stroke:#181818;stroke-width:0.5;" width="235" x="1106.5" y="684.5156"/><text fill="#000000" font-family="sans-serif" font-size="20" lengthAdjust="spacing" textLength="221" x="1113.5" y="710.0801">OperationTypeService</text><rect fill="#E2E2F0" height="37.2813" rx="2.5" ry="2.5" style="stroke:#181818;stroke-width:0.5;" width="173" x="1700.5" y="87.2969"/><text fill="#000000" font-family="sans-serif" font-size="20" lengthAdjust="spacing" textLength="159" x="1707.5" y="112.8613">AuthInterceptor</text><rect fill="#E2E2F0" height="37.2813" rx="2.5" ry="2.5" style="stroke:#181818;stroke-width:0.5;" width="173" x="1700.5" y="684.5156"/><text fill="#000000" font-family="sans-serif" font-size="20" lengthAdjust="spacing" textLength="159" x="1707.5" y="710.0801">AuthInterceptor</text><rect fill="#E2E2F0" height="37.2813" rx="2.5" ry="2.5" style="stroke:#181818;stroke-width:0.5;" width="60" x="2344" y="87.2969"/><text fill="#000000" font-family="sans-serif" font-size="20" lengthAdjust="spacing" textLength="46" x="2351" y="112.8613">MDR</text><rect fill="#E2E2F0" height="37.2813" rx="2.5" ry="2.5" style="stroke:#181818;stroke-width:0.5;" width="60" x="2344" y="684.5156"/><text fill="#000000" font-family="sans-serif" font-size="20" lengthAdjust="spacing" textLength="46" x="2351" y="710.0801">MDR</text><rect fill="#FFFFFF" height="540.9375" style="stroke:#181818;stroke-width:1.0;" width="10" x="36" y="135.5781"/><rect fill="#FFFFFF" height="502.6563" style="stroke:#181818;stroke-width:1.0;" width="10" x="450" y="164.8594"/><rect fill="#FFFFFF" height="428.0938" style="stroke:#181818;stroke-width:1.0;" width="10" x="864" y="202.1406"/><rect fill="#FFFFFF" height="353.5313" style="stroke:#181818;stroke-width:1.0;" width="10" x="1219" y="239.4219"/><rect fill="#FFFFFF" height="278.9688" style="stroke:#181818;stroke-width:1.0;" width="10" x="1782" y="276.7031"/><rect fill="#FFFFFF" height="87.5625" style="stroke:#181818;stroke-width:1.0;" width="10" x="2369" y="430.8281"/><polygon fill="#000000" points="438,160.8594,448,164.8594,438,168.8594,442,164.8594" style="stroke:#000000;stroke-width:1.0;"/><line style="stroke:#000000;stroke-width:1.0;" x1="46" x2="444" y1="164.8594" y2="164.8594"/><text fill="#000000" font-family="sans-serif" font-size="20" lengthAdjust="spacing" textLength="353" x="53" y="158.1426">Asks to deactivate a operation type</text><polygon fill="#000000" points="852,198.1406,862,202.1406,852,206.1406,856,202.1406" style="stroke:#000000;stroke-width:1.0;"/><line style="stroke:#000000;stroke-width:1.0;" x1="460" x2="858" y1="202.1406" y2="202.1406"/><text fill="#000000" font-family="sans-serif" font-size="20" lengthAdjust="spacing" textLength="326" x="467" y="195.4238">deactivateOperationType(name)</text><polygon fill="#000000" points="1207,235.4219,1217,239.4219,1207,243.4219,1211,239.4219" style="stroke:#000000;stroke-width:1.0;"/><line style="stroke:#000000;stroke-width:1.0;" x1="874" x2="1213" y1="239.4219" y2="239.4219"/><text fill="#000000" font-family="sans-serif" font-size="20" lengthAdjust="spacing" textLength="326" x="881" y="232.7051">deactivateOperationType(name)</text><polygon fill="#000000" points="1770,272.7031,1780,276.7031,1770,280.7031,1774,276.7031" style="stroke:#000000;stroke-width:1.0;"/><line style="stroke:#000000;stroke-width:1.0;" x1="1229" x2="1776" y1="276.7031" y2="276.7031"/><text fill="#000000" font-family="sans-serif" font-size="20" lengthAdjust="spacing" textLength="534" x="1236" y="269.9863">Sends HTTP Request to deactivate the operation type</text><line style="stroke:#000000;stroke-width:1.0;" x1="1792" x2="1834" y1="313.9844" y2="313.9844"/><line style="stroke:#000000;stroke-width:1.0;" x1="1834" x2="1834" y1="313.9844" y2="326.9844"/><line style="stroke:#000000;stroke-width:1.0;" x1="1793" x2="1834" y1="326.9844" y2="326.9844"/><polygon fill="#000000" points="1803,322.9844,1793,326.9844,1803,330.9844,1799,326.9844" style="stroke:#000000;stroke-width:1.0;"/><text fill="#000000" font-family="sans-serif" font-size="20" lengthAdjust="spacing" textLength="563" x="1799" y="307.2676">Intercepts the request and adds the token to the header</text><path d="M1797,339.9844 L1797,395.9844 L2316,395.9844 L2316,349.9844 L2306,339.9844 L1797,339.9844 " fill="#FEFFDD" style="stroke:#181818;stroke-width:0.5;"/><path d="M2306,339.9844 L2306,349.9844 L2316,349.9844 L2306,339.9844 " fill="#FEFFDD" style="stroke:#181818;stroke-width:0.5;"/><text fill="#000000" font-family="sans-serif" font-size="20" lengthAdjust="spacing" textLength="498" x="1803" y="363.5488">The token is added to the header so that the MDR</text><text fill="#000000" font-family="sans-serif" font-size="20" lengthAdjust="spacing" textLength="442" x="1803" y="386.8301">can authenticate and authorize the request.</text><polygon fill="#000000" points="2357,426.8281,2367,430.8281,2357,434.8281,2361,430.8281" style="stroke:#000000;stroke-width:1.0;"/><line style="stroke:#000000;stroke-width:1.0;" x1="1792" x2="2363" y1="430.8281" y2="430.8281"/><text fill="#000000" font-family="sans-serif" font-size="20" lengthAdjust="spacing" textLength="326" x="1799" y="424.1113">deactivateOperationType(name)</text><line style="stroke:#000000;stroke-width:1.0;" x1="2379" x2="2421" y1="468.1094" y2="468.1094"/><line style="stroke:#000000;stroke-width:1.0;" x1="2421" x2="2421" y1="468.1094" y2="481.1094"/><line style="stroke:#000000;stroke-width:1.0;" x1="2380" x2="2421" y1="481.1094" y2="481.1094"/><polygon fill="#000000" points="2390,477.1094,2380,481.1094,2390,485.1094,2386,481.1094" style="stroke:#000000;stroke-width:1.0;"/><text fill="#000000" font-family="sans-serif" font-size="20" lengthAdjust="spacing" textLength="746" x="2386" y="461.3926">Validates operation type's name and tries to deactivate the operation type</text><polygon fill="#000000" points="1803,514.3906,1793,518.3906,1803,522.3906,1799,518.3906" style="stroke:#000000;stroke-width:1.0;"/><line style="stroke:#000000;stroke-width:1.0;stroke-dasharray:2.0,2.0;" x1="1797" x2="2373" y1="518.3906" y2="518.3906"/><text fill="#000000" font-family="sans-serif" font-size="20" lengthAdjust="spacing" textLength="311" x="1809" y="511.6738">Returns Operation Status Code</text><polygon fill="#000000" points="1240,551.6719,1230,555.6719,1240,559.6719,1236,555.6719" style="stroke:#000000;stroke-width:1.0;"/><line style="stroke:#000000;stroke-width:1.0;stroke-dasharray:2.0,2.0;" x1="1234" x2="1786" y1="555.6719" y2="555.6719"/><text fill="#000000" font-family="sans-serif" font-size="20" lengthAdjust="spacing" textLength="311" x="1246" y="548.9551">Returns Operation Status Code</text><polygon fill="#000000" points="885,588.9531,875,592.9531,885,596.9531,881,592.9531" style="stroke:#000000;stroke-width:1.0;"/><line style="stroke:#000000;stroke-width:1.0;stroke-dasharray:2.0,2.0;" x1="879" x2="1223" y1="592.9531" y2="592.9531"/><text fill="#000000" font-family="sans-serif" font-size="20" lengthAdjust="spacing" textLength="286" x="891" y="586.2363">Returns Operation Response</text><polygon fill="#000000" points="471,626.2344,461,630.2344,471,634.2344,467,630.2344" style="stroke:#000000;stroke-width:1.0;"/><line style="stroke:#000000;stroke-width:1.0;stroke-dasharray:2.0,2.0;" x1="465" x2="868" y1="630.2344" y2="630.2344"/><text fill="#000000" font-family="sans-serif" font-size="20" lengthAdjust="spacing" textLength="380" x="477" y="623.5176">Returns Operation In/Sucess message</text><polygon fill="#000000" points="57,663.5156,47,667.5156,57,671.5156,53,667.5156" style="stroke:#000000;stroke-width:1.0;"/><line style="stroke:#000000;stroke-width:1.0;stroke-dasharray:2.0,2.0;" x1="51" x2="454" y1="667.5156" y2="667.5156"/><text fill="#000000" font-family="sans-serif" font-size="20" lengthAdjust="spacing" textLength="380" x="63" y="660.7988">Returns Operation In/Sucess message</text><!--SRC=[bLJBRjim4BppAnR98UsXRPgYBoCm8DaIQY161ClGdP4s5ck9LCcLWpJeltSfFvMuhIl00hIS6SuEbtPBfHjfPLsPV8a557WlsufYeobLFn6kBeKWHHN23QwmWWyGHp1MSi4K8KfL863Tq2FKMD-XTUB2RHNXHccanmR1M2gD4FkLl9BEmPC0VaAPBnVMjBeOcShOw-kLh5gylVkEEGs7S3x-50Nnb-DGQqo7YSTHEBuyZd5eLoh7JkfzV1M5ns0i4SLVey_TMc2jULYNmufnujUXzuOhSe77tSDv5COVuz1JP4vS28fQQP0E0i5yKhbgf2OuonG-dFbwrg_VDcWbAQFdd9mRcRen6ZLrq6do5sowxhC39caV6BHKJZIXpR5XKnqccFGnq_5ilSburdbNAqd8hWDuCuHi085REY334x9Rb62s3i0Vz9wMYSpJfidW0D-p-qhB6b_l6TpRDF6S93sPmsqcgUS4am6ag0i7t-Rp16RueqL7pznIYN_qos44awtIBYdNSUn6JUe2P56iYsIMgFq6_gD4MQ0Lsh2ILOkImDnxIJyWynrOEK_dEzPZWVDVahgIpzwJSiaZmsV61w_oBcc_DnUCzPVomDLRmMs3ttdJ04kSdZblnxyTBPELAdZ1FSlfme5dTYx8AdJ_JhQJtUGvGsgjTh3p0Yb9QXsCJ87YGCVxyLrifk1a7aVjvs0pS2zfCtHyYroFmxFZvsqzsoyf4_qkRNFaVwcQNtpVUpuJFzw-k_-cPaBy1W00]--></g></svg>