<?xml version="1.0" encoding="UTF-8" standalone="no"?><svg xmlns="http://www.w3.org/2000/svg" xmlns:xlink="http://www.w3.org/1999/xlink" contentStyleType="text/css" height="2033px" preserveAspectRatio="none" style="width:3524px;height:2033px;background:#FFFFFF;" version="1.1" viewBox="0 0 3524 2033" width="3524px" zoomAndPan="magnify"><defs/><g><text fill="#000000" font-family="sans-serif" font-size="14" font-weight="bold" lengthAdjust="spacing" textLength="165" x="1680.75" y="27.9951">Level 3 MDR Diagram</text><rect fill="#FFFFFF" height="1801.625" style="stroke:#181818;stroke-width:1.0;" width="10" x="15.5" y="135.5781"/><rect fill="#FFFFFF" height="1763.3438" style="stroke:#181818;stroke-width:1.0;" width="10" x="685.5" y="164.8594"/><rect fill="#FFFFFF" height="1735.0625" style="stroke:#181818;stroke-width:1.0;" width="10" x="1425.5" y="202.1406"/><rect fill="#FFFFFF" height="111.8438" style="stroke:#181818;stroke-width:1.0;" width="10" x="2046.5" y="239.4219"/><rect fill="#FFFFFF" height="111.8438" style="stroke:#181818;stroke-width:1.0;" width="10" x="2230" y="1503.1094"/><rect fill="#FFFFFF" height="43.2813" style="stroke:#181818;stroke-width:1.0;" width="10" x="2360.5" y="469.6719"/><rect fill="#FFFFFF" height="43.2813" style="stroke:#181818;stroke-width:1.0;" width="10" x="2360.5" y="604.7969"/><rect fill="#FFFFFF" height="43.2813" style="stroke:#181818;stroke-width:1.0;" width="10" x="2360.5" y="739.9219"/><rect fill="#FFFFFF" height="43.2813" style="stroke:#181818;stroke-width:1.0;" width="10" x="2360.5" y="875.0469"/><rect fill="#FFFFFF" height="43.2813" style="stroke:#181818;stroke-width:1.0;" width="10" x="2360.5" y="1010.1719"/><rect fill="#FFFFFF" height="43.2813" style="stroke:#181818;stroke-width:1.0;" width="10" x="2360.5" y="1145.2969"/><rect fill="#FFFFFF" height="43.2813" style="stroke:#181818;stroke-width:1.0;" width="10" x="2360.5" y="1280.4219"/><rect fill="#FFFFFF" height="43.2813" style="stroke:#181818;stroke-width:1.0;" width="10" x="2830.5" y="1415.5469"/><rect fill="#FFFFFF" height="124.8438" style="stroke:#181818;stroke-width:1.0;" width="10" x="2945.5" y="1659.2344"/><rect fill="#FFFFFF" height="43.2813" style="stroke:#181818;stroke-width:1.0;" width="10" x="3284.5" y="1696.5156"/><rect fill="#FFFFFF" height="37.2813" style="stroke:#181818;stroke-width:1.0;" width="10" x="3438.5" y="276.7031"/><rect fill="#FFFFFF" height="37.2813" style="stroke:#181818;stroke-width:1.0;" width="10" x="3438.5" y="1540.3906"/><rect fill="#EBF5FB" height="1525.6563" style="stroke:#000000;stroke-width:1.5;" width="2929" x="588.5" y="366.2656"/><rect fill="#EBF5FB" height="121.125" style="stroke:#000000;stroke-width:1.5;" width="1406" x="1341.5" y="406.8281"/><rect fill="#EBF5FB" height="121.125" style="stroke:#000000;stroke-width:1.5;" width="1403" x="1341.5" y="541.9531"/><rect fill="#EBF5FB" height="121.125" style="stroke:#000000;stroke-width:1.5;" width="1399" x="1341.5" y="677.0781"/><rect fill="#EBF5FB" height="121.125" style="stroke:#000000;stroke-width:1.5;" width="1360" x="1341.5" y="812.2031"/><rect fill="#EBF5FB" height="121.125" style="stroke:#000000;stroke-width:1.5;" width="1446" x="1341.5" y="947.3281"/><rect fill="#EBF5FB" height="121.125" style="stroke:#000000;stroke-width:1.5;" width="1494" x="1341.5" y="1082.4531"/><rect fill="#EBF5FB" height="121.125" style="stroke:#000000;stroke-width:1.5;" width="1487" x="1341.5" y="1217.5781"/><rect fill="#EBF5FB" height="270.25" style="stroke:#000000;stroke-width:1.5;" width="2166" x="1341.5" y="1352.7031"/><rect fill="#EBF5FB" height="62.5625" style="stroke:none;stroke-width:1.0;" width="2929" x="588.5" y="1829.3594"/><line style="stroke:#181818;stroke-width:0.5;stroke-dasharray:5.0,5.0;" x1="20" x2="20" y1="125.5781" y2="1946.2031"/><line style="stroke:#181818;stroke-width:0.5;stroke-dasharray:5.0,5.0;" x1="690.5" x2="690.5" y1="125.5781" y2="1946.2031"/><line style="stroke:#181818;stroke-width:0.5;stroke-dasharray:5.0,5.0;" x1="1430.5" x2="1430.5" y1="125.5781" y2="1946.2031"/><line style="stroke:#181818;stroke-width:0.5;stroke-dasharray:5.0,5.0;" x1="2051" x2="2051" y1="125.5781" y2="1946.2031"/><line style="stroke:#181818;stroke-width:0.5;stroke-dasharray:5.0,5.0;" x1="2235" x2="2235" y1="125.5781" y2="1946.2031"/><line style="stroke:#181818;stroke-width:0.5;stroke-dasharray:5.0,5.0;" x1="2365" x2="2365" y1="125.5781" y2="1946.2031"/><line style="stroke:#181818;stroke-width:0.5;stroke-dasharray:5.0,5.0;" x1="2835.5" x2="2835.5" y1="125.5781" y2="1946.2031"/><line style="stroke:#181818;stroke-width:0.5;stroke-dasharray:5.0,5.0;" x1="2950.5" x2="2950.5" y1="125.5781" y2="1946.2031"/><line style="stroke:#181818;stroke-width:0.5;stroke-dasharray:5.0,5.0;" x1="3289.5" x2="3289.5" y1="125.5781" y2="1946.2031"/><line style="stroke:#181818;stroke-width:0.5;stroke-dasharray:5.0,5.0;" x1="3443.5" x2="3443.5" y1="125.5781" y2="1946.2031"/><text fill="#000000" font-family="sans-serif" font-size="20" lengthAdjust="spacing" textLength="25" x="5" y="120.8613">FE</text><ellipse cx="20.5" cy="50.7969" fill="#E2E2F0" rx="8" ry="8" style="stroke:#181818;stroke-width:0.5;"/><path d="M20.5,58.7969 L20.5,85.7969 M7.5,66.7969 L33.5,66.7969 M20.5,85.7969 L7.5,100.7969 M20.5,85.7969 L33.5,100.7969 " fill="none" style="stroke:#181818;stroke-width:0.5;"/><text fill="#000000" font-family="sans-serif" font-size="20" lengthAdjust="spacing" textLength="25" x="5" y="1963.7676">FE</text><ellipse cx="20.5" cy="1976.9844" fill="#E2E2F0" rx="8" ry="8" style="stroke:#181818;stroke-width:0.5;"/><path d="M20.5,1984.9844 L20.5,2011.9844 M7.5,1992.9844 L33.5,1992.9844 M20.5,2011.9844 L7.5,2026.9844 M20.5,2011.9844 L33.5,2026.9844 " fill="none" style="stroke:#181818;stroke-width:0.5;"/><rect fill="#E2E2F0" height="37.2813" rx="2.5" ry="2.5" style="stroke:#181818;stroke-width:0.5;" width="184" x="598.5" y="87.2969"/><text fill="#000000" font-family="sans-serif" font-size="20" lengthAdjust="spacing" textLength="170" x="605.5" y="112.8613">PatientController</text><rect fill="#E2E2F0" height="37.2813" rx="2.5" ry="2.5" style="stroke:#181818;stroke-width:0.5;" width="184" x="598.5" y="1945.2031"/><text fill="#000000" font-family="sans-serif" font-size="20" lengthAdjust="spacing" textLength="170" x="605.5" y="1970.7676">PatientController</text><rect fill="#E2E2F0" height="37.2813" rx="2.5" ry="2.5" style="stroke:#181818;stroke-width:0.5;" width="158" x="1351.5" y="87.2969"/><text fill="#000000" font-family="sans-serif" font-size="20" lengthAdjust="spacing" textLength="144" x="1358.5" y="112.8613">PatientService</text><rect fill="#E2E2F0" height="37.2813" rx="2.5" ry="2.5" style="stroke:#181818;stroke-width:0.5;" width="158" x="1351.5" y="1945.2031"/><text fill="#000000" font-family="sans-serif" font-size="20" lengthAdjust="spacing" textLength="144" x="1358.5" y="1970.7676">PatientService</text><rect fill="#E2E2F0" height="37.2813" rx="2.5" ry="2.5" style="stroke:#181818;stroke-width:0.5;" width="191" x="1956" y="87.2969"/><text fill="#000000" font-family="sans-serif" font-size="20" lengthAdjust="spacing" textLength="177" x="1963" y="112.8613">PatientRepository</text><rect fill="#E2E2F0" height="37.2813" rx="2.5" ry="2.5" style="stroke:#181818;stroke-width:0.5;" width="191" x="1956" y="1945.2031"/><text fill="#000000" font-family="sans-serif" font-size="20" lengthAdjust="spacing" textLength="177" x="1963" y="1970.7676">PatientRepository</text><rect fill="#E2E2F0" height="37.2813" rx="2.5" ry="2.5" style="stroke:#181818;stroke-width:0.5;" width="156" x="2157" y="87.2969"/><text fill="#000000" font-family="sans-serif" font-size="20" lengthAdjust="spacing" textLength="142" x="2164" y="112.8613">LogRepository</text><rect fill="#E2E2F0" height="37.2813" rx="2.5" ry="2.5" style="stroke:#181818;stroke-width:0.5;" width="156" x="2157" y="1945.2031"/><text fill="#000000" font-family="sans-serif" font-size="20" lengthAdjust="spacing" textLength="142" x="2164" y="1970.7676">LogRepository</text><rect fill="#E2E2F0" height="37.2813" rx="2.5" ry="2.5" style="stroke:#181818;stroke-width:0.5;" width="85" x="2323" y="87.2969"/><text fill="#000000" font-family="sans-serif" font-size="20" lengthAdjust="spacing" textLength="71" x="2330" y="112.8613">Patient</text><rect fill="#E2E2F0" height="37.2813" rx="2.5" ry="2.5" style="stroke:#181818;stroke-width:0.5;" width="85" x="2323" y="1945.2031"/><text fill="#000000" font-family="sans-serif" font-size="20" lengthAdjust="spacing" textLength="71" x="2330" y="1970.7676">Patient</text><rect fill="#E2E2F0" height="37.2813" rx="2.5" ry="2.5" style="stroke:#181818;stroke-width:0.5;" width="50" x="2810.5" y="87.2969"/><text fill="#000000" font-family="sans-serif" font-size="20" lengthAdjust="spacing" textLength="36" x="2817.5" y="112.8613">Log</text><rect fill="#E2E2F0" height="37.2813" rx="2.5" ry="2.5" style="stroke:#181818;stroke-width:0.5;" width="50" x="2810.5" y="1945.2031"/><text fill="#000000" font-family="sans-serif" font-size="20" lengthAdjust="spacing" textLength="36" x="2817.5" y="1970.7676">Log</text><rect fill="#E2E2F0" height="37.2813" rx="2.5" ry="2.5" style="stroke:#181818;stroke-width:0.5;" width="160" x="2870.5" y="87.2969"/><text fill="#000000" font-family="sans-serif" font-size="20" lengthAdjust="spacing" textLength="146" x="2877.5" y="112.8613">PatientMapper</text><rect fill="#E2E2F0" height="37.2813" rx="2.5" ry="2.5" style="stroke:#181818;stroke-width:0.5;" width="160" x="2870.5" y="1945.2031"/><text fill="#000000" font-family="sans-serif" font-size="20" lengthAdjust="spacing" textLength="146" x="2877.5" y="1970.7676">PatientMapper</text><rect fill="#E2E2F0" height="37.2813" rx="2.5" ry="2.5" style="stroke:#181818;stroke-width:0.5;" width="128" x="3225.5" y="87.2969"/><text fill="#000000" font-family="sans-serif" font-size="20" lengthAdjust="spacing" textLength="114" x="3232.5" y="112.8613">PatientDTO</text><rect fill="#E2E2F0" height="37.2813" rx="2.5" ry="2.5" style="stroke:#181818;stroke-width:0.5;" width="128" x="3225.5" y="1945.2031"/><text fill="#000000" font-family="sans-serif" font-size="20" lengthAdjust="spacing" textLength="114" x="3232.5" y="1970.7676">PatientDTO</text><rect fill="#E2E2F0" height="37.2813" rx="2.5" ry="2.5" style="stroke:#181818;stroke-width:0.5;" width="108" x="3389.5" y="87.2969"/><text fill="#000000" font-family="sans-serif" font-size="20" lengthAdjust="spacing" textLength="94" x="3396.5" y="112.8613">Database</text><rect fill="#E2E2F0" height="37.2813" rx="2.5" ry="2.5" style="stroke:#181818;stroke-width:0.5;" width="108" x="3389.5" y="1945.2031"/><text fill="#000000" font-family="sans-serif" font-size="20" lengthAdjust="spacing" textLength="94" x="3396.5" y="1970.7676">Database</text><rect fill="#FFFFFF" height="1801.625" style="stroke:#181818;stroke-width:1.0;" width="10" x="15.5" y="135.5781"/><rect fill="#FFFFFF" height="1763.3438" style="stroke:#181818;stroke-width:1.0;" width="10" x="685.5" y="164.8594"/><rect fill="#FFFFFF" height="1735.0625" style="stroke:#181818;stroke-width:1.0;" width="10" x="1425.5" y="202.1406"/><rect fill="#FFFFFF" height="111.8438" style="stroke:#181818;stroke-width:1.0;" width="10" x="2046.5" y="239.4219"/><rect fill="#FFFFFF" height="111.8438" style="stroke:#181818;stroke-width:1.0;" width="10" x="2230" y="1503.1094"/><rect fill="#FFFFFF" height="43.2813" style="stroke:#181818;stroke-width:1.0;" width="10" x="2360.5" y="469.6719"/><rect fill="#FFFFFF" height="43.2813" style="stroke:#181818;stroke-width:1.0;" width="10" x="2360.5" y="604.7969"/><rect fill="#FFFFFF" height="43.2813" style="stroke:#181818;stroke-width:1.0;" width="10" x="2360.5" y="739.9219"/><rect fill="#FFFFFF" height="43.2813" style="stroke:#181818;stroke-width:1.0;" width="10" x="2360.5" y="875.0469"/><rect fill="#FFFFFF" height="43.2813" style="stroke:#181818;stroke-width:1.0;" width="10" x="2360.5" y="1010.1719"/><rect fill="#FFFFFF" height="43.2813" style="stroke:#181818;stroke-width:1.0;" width="10" x="2360.5" y="1145.2969"/><rect fill="#FFFFFF" height="43.2813" style="stroke:#181818;stroke-width:1.0;" width="10" x="2360.5" y="1280.4219"/><rect fill="#FFFFFF" height="43.2813" style="stroke:#181818;stroke-width:1.0;" width="10" x="2830.5" y="1415.5469"/><rect fill="#FFFFFF" height="124.8438" style="stroke:#181818;stroke-width:1.0;" width="10" x="2945.5" y="1659.2344"/><rect fill="#FFFFFF" height="43.2813" style="stroke:#181818;stroke-width:1.0;" width="10" x="3284.5" y="1696.5156"/><rect fill="#FFFFFF" height="37.2813" style="stroke:#181818;stroke-width:1.0;" width="10" x="3438.5" y="276.7031"/><rect fill="#FFFFFF" height="37.2813" style="stroke:#181818;stroke-width:1.0;" width="10" x="3438.5" y="1540.3906"/><polygon fill="#000000" points="673.5,160.8594,683.5,164.8594,673.5,168.8594,677.5,164.8594" style="stroke:#000000;stroke-width:1.0;"/><line style="stroke:#000000;stroke-width:1.0;" x1="25.5" x2="679.5" y1="164.8594" y2="164.8594"/><text fill="#000000" font-family="sans-serif" font-size="20" lengthAdjust="spacing" textLength="641" x="32.5" y="158.1426">Sends HTTP Request to update Patient's data with the new data</text><polygon fill="#000000" points="1413.5,198.1406,1423.5,202.1406,1413.5,206.1406,1417.5,202.1406" style="stroke:#000000;stroke-width:1.0;"/><line style="stroke:#000000;stroke-width:1.0;" x1="695.5" x2="1419.5" y1="202.1406" y2="202.1406"/><text fill="#000000" font-family="sans-serif" font-size="20" lengthAdjust="spacing" textLength="711" x="702.5" y="195.4238">updatePatient(string medicalRecordNumber, UpdatingPatientDTO dto)</text><polygon fill="#000000" points="2034.5,235.4219,2044.5,239.4219,2034.5,243.4219,2038.5,239.4219" style="stroke:#000000;stroke-width:1.0;"/><line style="stroke:#000000;stroke-width:1.0;" x1="1435.5" x2="2040.5" y1="239.4219" y2="239.4219"/><text fill="#000000" font-family="sans-serif" font-size="20" lengthAdjust="spacing" textLength="592" x="1442.5" y="232.7051">getByMedicalRecordNumberAsync(medicalRecordNumber)</text><polygon fill="#000000" points="3426.5,272.7031,3436.5,276.7031,3426.5,280.7031,3430.5,276.7031" style="stroke:#000000;stroke-width:1.0;"/><line style="stroke:#000000;stroke-width:1.0;" x1="2056.5" x2="3432.5" y1="276.7031" y2="276.7031"/><text fill="#000000" font-family="sans-serif" font-size="20" lengthAdjust="spacing" textLength="989" x="2063.5" y="269.9863">_objs.Where(x =&gt; medicalRecordNumber.Equals(x.MedicalRecordNumber)).FirstOrDefaultAsync();</text><polygon fill="#000000" points="2067.5,309.9844,2057.5,313.9844,2067.5,317.9844,2063.5,313.9844" style="stroke:#000000;stroke-width:1.0;"/><line style="stroke:#000000;stroke-width:1.0;stroke-dasharray:2.0,2.0;" x1="2061.5" x2="3442.5" y1="313.9844" y2="313.9844"/><text fill="#000000" font-family="sans-serif" font-size="20" lengthAdjust="spacing" textLength="99" x="2073.5" y="307.2676">return var</text><polygon fill="#000000" points="1446.5,347.2656,1436.5,351.2656,1446.5,355.2656,1442.5,351.2656" style="stroke:#000000;stroke-width:1.0;"/><line style="stroke:#000000;stroke-width:1.0;stroke-dasharray:2.0,2.0;" x1="1440.5" x2="2050.5" y1="351.2656" y2="351.2656"/><text fill="#000000" font-family="sans-serif" font-size="20" lengthAdjust="spacing" textLength="99" x="1452.5" y="344.5488">return var</text><path d="M588.5,366.2656 L664.5,366.2656 L664.5,381.5469 L654.5,391.5469 L588.5,391.5469 L588.5,366.2656 " fill="#EEEEEE" style="stroke:#000000;stroke-width:1.5;"/><rect fill="none" height="1525.6563" style="stroke:#000000;stroke-width:1.5;" width="2929" x="588.5" y="366.2656"/><text fill="#000000" font-family="sans-serif" font-size="20" font-weight="bold" lengthAdjust="spacing" textLength="31" x="603.5" y="385.8301">alt</text><text fill="#000000" font-family="sans-serif" font-size="20" font-weight="bold" lengthAdjust="spacing" textLength="175" x="679.5" y="386.8301">[var is not null]</text><path d="M1341.5,406.8281 L1424.5,406.8281 L1424.5,422.1094 L1414.5,432.1094 L1341.5,432.1094 L1341.5,406.8281 " fill="#EEEEEE" style="stroke:#000000;stroke-width:1.5;"/><rect fill="none" height="121.125" style="stroke:#000000;stroke-width:1.5;" width="1406" x="1341.5" y="406.8281"/><text fill="#000000" font-family="sans-serif" font-size="20" font-weight="bold" lengthAdjust="spacing" textLength="38" x="1356.5" y="426.3926">opt</text><text fill="#000000" font-family="sans-serif" font-size="20" font-weight="bold" lengthAdjust="spacing" textLength="690" x="1439.5" y="427.3926">[First Name is provided and different from the current data]</text><polygon fill="#000000" points="2348.5,465.6719,2358.5,469.6719,2348.5,473.6719,2352.5,469.6719" style="stroke:#000000;stroke-width:1.0;"/><line style="stroke:#000000;stroke-width:1.0;" x1="1435.5" x2="2354.5" y1="469.6719" y2="469.6719"/><text fill="#000000" font-family="sans-serif" font-size="20" lengthAdjust="spacing" textLength="338" x="1442.5" y="462.9551">ChangeFirstName(dto.FirstName)</text><line style="stroke:#000000;stroke-width:1.0;" x1="2370.5" x2="2412.5" y1="511.9531" y2="511.9531"/><line style="stroke:#000000;stroke-width:1.0;" x1="2412.5" x2="2412.5" y1="511.9531" y2="524.9531"/><line style="stroke:#000000;stroke-width:1.0;" x1="2365.5" x2="2412.5" y1="524.9531" y2="524.9531"/><polygon fill="#000000" points="2375.5,520.9531,2365.5,524.9531,2375.5,528.9531,2371.5,524.9531" style="stroke:#000000;stroke-width:1.0;"/><text fill="#000000" font-family="sans-serif" font-size="20" lengthAdjust="spacing" textLength="358" x="2377.5" y="505.2363">ChangeFirstName(string firstName)</text><path d="M1341.5,541.9531 L1424.5,541.9531 L1424.5,557.2344 L1414.5,567.2344 L1341.5,567.2344 L1341.5,541.9531 " fill="#EEEEEE" style="stroke:#000000;stroke-width:1.5;"/><rect fill="none" height="121.125" style="stroke:#000000;stroke-width:1.5;" width="1403" x="1341.5" y="541.9531"/><text fill="#000000" font-family="sans-serif" font-size="20" font-weight="bold" lengthAdjust="spacing" textLength="38" x="1356.5" y="561.5176">opt</text><text fill="#000000" font-family="sans-serif" font-size="20" font-weight="bold" lengthAdjust="spacing" textLength="686" x="1439.5" y="562.5176">[Last Name is provided and different from the current data]</text><polygon fill="#000000" points="2348.5,600.7969,2358.5,604.7969,2348.5,608.7969,2352.5,604.7969" style="stroke:#000000;stroke-width:1.0;"/><line style="stroke:#000000;stroke-width:1.0;" x1="1435.5" x2="2354.5" y1="604.7969" y2="604.7969"/><text fill="#000000" font-family="sans-serif" font-size="20" lengthAdjust="spacing" textLength="332" x="1442.5" y="598.0801">ChangeLastName(dto.LastName)</text><line style="stroke:#000000;stroke-width:1.0;" x1="2370.5" x2="2412.5" y1="647.0781" y2="647.0781"/><line style="stroke:#000000;stroke-width:1.0;" x1="2412.5" x2="2412.5" y1="647.0781" y2="660.0781"/><line style="stroke:#000000;stroke-width:1.0;" x1="2365.5" x2="2412.5" y1="660.0781" y2="660.0781"/><polygon fill="#000000" points="2375.5,656.0781,2365.5,660.0781,2375.5,664.0781,2371.5,660.0781" style="stroke:#000000;stroke-width:1.0;"/><text fill="#000000" font-family="sans-serif" font-size="20" lengthAdjust="spacing" textLength="355" x="2377.5" y="640.3613">ChangeLastName(string firstName)</text><path d="M1341.5,677.0781 L1424.5,677.0781 L1424.5,692.3594 L1414.5,702.3594 L1341.5,702.3594 L1341.5,677.0781 " fill="#EEEEEE" style="stroke:#000000;stroke-width:1.5;"/><rect fill="none" height="121.125" style="stroke:#000000;stroke-width:1.5;" width="1399" x="1341.5" y="677.0781"/><text fill="#000000" font-family="sans-serif" font-size="20" font-weight="bold" lengthAdjust="spacing" textLength="38" x="1356.5" y="696.6426">opt</text><text fill="#000000" font-family="sans-serif" font-size="20" font-weight="bold" lengthAdjust="spacing" textLength="679" x="1439.5" y="697.6426">[Full Name is provided and different from the current data]</text><polygon fill="#000000" points="2348.5,735.9219,2358.5,739.9219,2348.5,743.9219,2352.5,739.9219" style="stroke:#000000;stroke-width:1.0;"/><line style="stroke:#000000;stroke-width:1.0;" x1="1435.5" x2="2354.5" y1="739.9219" y2="739.9219"/><text fill="#000000" font-family="sans-serif" font-size="20" lengthAdjust="spacing" textLength="324" x="1442.5" y="733.2051">ChangeFullName(dto.FullName)</text><line style="stroke:#000000;stroke-width:1.0;" x1="2370.5" x2="2412.5" y1="782.2031" y2="782.2031"/><line style="stroke:#000000;stroke-width:1.0;" x1="2412.5" x2="2412.5" y1="782.2031" y2="795.2031"/><line style="stroke:#000000;stroke-width:1.0;" x1="2365.5" x2="2412.5" y1="795.2031" y2="795.2031"/><polygon fill="#000000" points="2375.5,791.2031,2365.5,795.2031,2375.5,799.2031,2371.5,795.2031" style="stroke:#000000;stroke-width:1.0;"/><text fill="#000000" font-family="sans-serif" font-size="20" lengthAdjust="spacing" textLength="351" x="2377.5" y="775.4863">ChangeFullName(string firstName)</text><path d="M1341.5,812.2031 L1424.5,812.2031 L1424.5,827.4844 L1414.5,837.4844 L1341.5,837.4844 L1341.5,812.2031 " fill="#EEEEEE" style="stroke:#000000;stroke-width:1.5;"/><rect fill="none" height="121.125" style="stroke:#000000;stroke-width:1.5;" width="1360" x="1341.5" y="812.2031"/><text fill="#000000" font-family="sans-serif" font-size="20" font-weight="bold" lengthAdjust="spacing" textLength="38" x="1356.5" y="831.7676">opt</text><text fill="#000000" font-family="sans-serif" font-size="20" font-weight="bold" lengthAdjust="spacing" textLength="627" x="1439.5" y="832.7676">[Email is provided and different from the current data]</text><polygon fill="#000000" points="2348.5,871.0469,2358.5,875.0469,2348.5,879.0469,2352.5,875.0469" style="stroke:#000000;stroke-width:1.0;"/><line style="stroke:#000000;stroke-width:1.0;" x1="1435.5" x2="2354.5" y1="875.0469" y2="875.0469"/><text fill="#000000" font-family="sans-serif" font-size="20" lengthAdjust="spacing" textLength="246" x="1442.5" y="868.3301">ChangeEmail(dto.Email)</text><line style="stroke:#000000;stroke-width:1.0;" x1="2370.5" x2="2412.5" y1="917.3281" y2="917.3281"/><line style="stroke:#000000;stroke-width:1.0;" x1="2412.5" x2="2412.5" y1="917.3281" y2="930.3281"/><line style="stroke:#000000;stroke-width:1.0;" x1="2365.5" x2="2412.5" y1="930.3281" y2="930.3281"/><polygon fill="#000000" points="2375.5,926.3281,2365.5,930.3281,2375.5,934.3281,2371.5,930.3281" style="stroke:#000000;stroke-width:1.0;"/><text fill="#000000" font-family="sans-serif" font-size="20" lengthAdjust="spacing" textLength="312" x="2377.5" y="910.6113">ChangeEmail(string firstName)</text><path d="M1341.5,947.3281 L1424.5,947.3281 L1424.5,962.6094 L1414.5,972.6094 L1341.5,972.6094 L1341.5,947.3281 " fill="#EEEEEE" style="stroke:#000000;stroke-width:1.5;"/><rect fill="none" height="121.125" style="stroke:#000000;stroke-width:1.5;" width="1446" x="1341.5" y="947.3281"/><text fill="#000000" font-family="sans-serif" font-size="20" font-weight="bold" lengthAdjust="spacing" textLength="38" x="1356.5" y="966.8926">opt</text><text fill="#000000" font-family="sans-serif" font-size="20" font-weight="bold" lengthAdjust="spacing" textLength="732" x="1439.5" y="967.8926">[Phone Number is provided and different from the current data]</text><polygon fill="#000000" points="2348.5,1006.1719,2358.5,1010.1719,2348.5,1014.1719,2352.5,1010.1719" style="stroke:#000000;stroke-width:1.0;"/><line style="stroke:#000000;stroke-width:1.0;" x1="1435.5" x2="2354.5" y1="1010.1719" y2="1010.1719"/><text fill="#000000" font-family="sans-serif" font-size="20" lengthAdjust="spacing" textLength="418" x="1442.5" y="1003.4551">ChangePhoneNumber(dto.PhoneNumber)</text><line style="stroke:#000000;stroke-width:1.0;" x1="2370.5" x2="2412.5" y1="1052.4531" y2="1052.4531"/><line style="stroke:#000000;stroke-width:1.0;" x1="2412.5" x2="2412.5" y1="1052.4531" y2="1065.4531"/><line style="stroke:#000000;stroke-width:1.0;" x1="2365.5" x2="2412.5" y1="1065.4531" y2="1065.4531"/><polygon fill="#000000" points="2375.5,1061.4531,2365.5,1065.4531,2375.5,1069.4531,2371.5,1065.4531" style="stroke:#000000;stroke-width:1.0;"/><text fill="#000000" font-family="sans-serif" font-size="20" lengthAdjust="spacing" textLength="398" x="2377.5" y="1045.7363">ChangePhoneNumber(string firstName)</text><path d="M1341.5,1082.4531 L1424.5,1082.4531 L1424.5,1097.7344 L1414.5,1107.7344 L1341.5,1107.7344 L1341.5,1082.4531 " fill="#EEEEEE" style="stroke:#000000;stroke-width:1.5;"/><rect fill="none" height="121.125" style="stroke:#000000;stroke-width:1.5;" width="1494" x="1341.5" y="1082.4531"/><text fill="#000000" font-family="sans-serif" font-size="20" font-weight="bold" lengthAdjust="spacing" textLength="38" x="1356.5" y="1102.0176">opt</text><text fill="#000000" font-family="sans-serif" font-size="20" font-weight="bold" lengthAdjust="spacing" textLength="786" x="1439.5" y="1103.0176">[Emergency Contact is provided and different from the current data]</text><polygon fill="#000000" points="2348.5,1141.2969,2358.5,1145.2969,2348.5,1149.2969,2352.5,1145.2969" style="stroke:#000000;stroke-width:1.0;"/><line style="stroke:#000000;stroke-width:1.0;" x1="1435.5" x2="2354.5" y1="1145.2969" y2="1145.2969"/><text fill="#000000" font-family="sans-serif" font-size="20" lengthAdjust="spacing" textLength="514" x="1442.5" y="1138.5801">ChangeEmergencyContact(dto.EmergencyContact)</text><line style="stroke:#000000;stroke-width:1.0;" x1="2370.5" x2="2412.5" y1="1187.5781" y2="1187.5781"/><line style="stroke:#000000;stroke-width:1.0;" x1="2412.5" x2="2412.5" y1="1187.5781" y2="1200.5781"/><line style="stroke:#000000;stroke-width:1.0;" x1="2365.5" x2="2412.5" y1="1200.5781" y2="1200.5781"/><polygon fill="#000000" points="2375.5,1196.5781,2365.5,1200.5781,2375.5,1204.5781,2371.5,1200.5781" style="stroke:#000000;stroke-width:1.0;"/><text fill="#000000" font-family="sans-serif" font-size="20" lengthAdjust="spacing" textLength="446" x="2377.5" y="1180.8613">ChangeEmergencyContact(string firstName)</text><path d="M1341.5,1217.5781 L1424.5,1217.5781 L1424.5,1232.8594 L1414.5,1242.8594 L1341.5,1242.8594 L1341.5,1217.5781 " fill="#EEEEEE" style="stroke:#000000;stroke-width:1.5;"/><rect fill="none" height="121.125" style="stroke:#000000;stroke-width:1.5;" width="1487" x="1341.5" y="1217.5781"/><text fill="#000000" font-family="sans-serif" font-size="20" font-weight="bold" lengthAdjust="spacing" textLength="38" x="1356.5" y="1237.1426">opt</text><text fill="#000000" font-family="sans-serif" font-size="20" font-weight="bold" lengthAdjust="spacing" textLength="799" x="1439.5" y="1238.1426">[Medical Conditions are provided and different from the current data]</text><polygon fill="#000000" points="2348.5,1276.4219,2358.5,1280.4219,2348.5,1284.4219,2352.5,1280.4219" style="stroke:#000000;stroke-width:1.0;"/><line style="stroke:#000000;stroke-width:1.0;" x1="1435.5" x2="2354.5" y1="1280.4219" y2="1280.4219"/><text fill="#000000" font-family="sans-serif" font-size="20" lengthAdjust="spacing" textLength="500" x="1442.5" y="1273.7051">ChangeMedicalConditions(dto.MedicalConditions)</text><line style="stroke:#000000;stroke-width:1.0;" x1="2370.5" x2="2412.5" y1="1322.7031" y2="1322.7031"/><line style="stroke:#000000;stroke-width:1.0;" x1="2412.5" x2="2412.5" y1="1322.7031" y2="1335.7031"/><line style="stroke:#000000;stroke-width:1.0;" x1="2365.5" x2="2412.5" y1="1335.7031" y2="1335.7031"/><polygon fill="#000000" points="2375.5,1331.7031,2365.5,1335.7031,2375.5,1339.7031,2371.5,1335.7031" style="stroke:#000000;stroke-width:1.0;"/><text fill="#000000" font-family="sans-serif" font-size="20" lengthAdjust="spacing" textLength="439" x="2377.5" y="1315.9863">ChangeMedicalConditions(string firstName)</text><path d="M1341.5,1352.7031 L1424.5,1352.7031 L1424.5,1367.9844 L1414.5,1377.9844 L1341.5,1377.9844 L1341.5,1352.7031 " fill="#EEEEEE" style="stroke:#000000;stroke-width:1.5;"/><rect fill="none" height="270.25" style="stroke:#000000;stroke-width:1.5;" width="2166" x="1341.5" y="1352.7031"/><text fill="#000000" font-family="sans-serif" font-size="20" font-weight="bold" lengthAdjust="spacing" textLength="38" x="1356.5" y="1372.2676">opt</text><text fill="#000000" font-family="sans-serif" font-size="20" font-weight="bold" lengthAdjust="spacing" textLength="366" x="1439.5" y="1373.2676">[At least one field was updated]</text><polygon fill="#000000" points="2818.5,1411.5469,2828.5,1415.5469,2818.5,1419.5469,2822.5,1415.5469" style="stroke:#000000;stroke-width:1.0;"/><line style="stroke:#000000;stroke-width:1.0;" x1="1435.5" x2="2824.5" y1="1415.5469" y2="1415.5469"/><text fill="#000000" font-family="sans-serif" font-size="20" lengthAdjust="spacing" textLength="1131" x="1442.5" y="1408.8301">new Log(TypeOfAction.Update, patientId, Patient updated. The following fields were updated:" + updatedFields)</text><line style="stroke:#000000;stroke-width:1.0;" x1="2840.5" x2="2882.5" y1="1457.8281" y2="1457.8281"/><line style="stroke:#000000;stroke-width:1.0;" x1="2882.5" x2="2882.5" y1="1457.8281" y2="1470.8281"/><line style="stroke:#000000;stroke-width:1.0;" x1="2835.5" x2="2882.5" y1="1470.8281" y2="1470.8281"/><polygon fill="#000000" points="2845.5,1466.8281,2835.5,1470.8281,2845.5,1474.8281,2841.5,1470.8281" style="stroke:#000000;stroke-width:1.0;"/><text fill="#000000" font-family="sans-serif" font-size="20" lengthAdjust="spacing" textLength="52" x="2847.5" y="1451.1113">Log()</text><polygon fill="#000000" points="2218,1499.1094,2228,1503.1094,2218,1507.1094,2222,1503.1094" style="stroke:#000000;stroke-width:1.0;"/><line style="stroke:#000000;stroke-width:1.0;" x1="1435.5" x2="2224" y1="1503.1094" y2="1503.1094"/><text fill="#000000" font-family="sans-serif" font-size="20" lengthAdjust="spacing" textLength="144" x="1442.5" y="1496.3926">addAsync(log)</text><polygon fill="#000000" points="3426.5,1536.3906,3436.5,1540.3906,3426.5,1544.3906,3430.5,1540.3906" style="stroke:#000000;stroke-width:1.0;"/><line style="stroke:#000000;stroke-width:1.0;" x1="2240" x2="3432.5" y1="1540.3906" y2="1540.3906"/><text fill="#000000" font-family="sans-serif" font-size="20" lengthAdjust="spacing" textLength="203" x="2247" y="1533.6738">_objs.AddAsync(log)</text><polygon fill="#000000" points="2251,1573.6719,2241,1577.6719,2251,1581.6719,2247,1577.6719" style="stroke:#000000;stroke-width:1.0;"/><line style="stroke:#000000;stroke-width:1.0;stroke-dasharray:2.0,2.0;" x1="2245" x2="3442.5" y1="1577.6719" y2="1577.6719"/><text fill="#000000" font-family="sans-serif" font-size="20" lengthAdjust="spacing" textLength="99" x="2257" y="1570.9551">return log</text><polygon fill="#000000" points="1446.5,1610.9531,1436.5,1614.9531,1446.5,1618.9531,1442.5,1614.9531" style="stroke:#000000;stroke-width:1.0;"/><line style="stroke:#000000;stroke-width:1.0;stroke-dasharray:2.0,2.0;" x1="1440.5" x2="2234" y1="1614.9531" y2="1614.9531"/><text fill="#000000" font-family="sans-serif" font-size="20" lengthAdjust="spacing" textLength="99" x="1452.5" y="1608.2363">return log</text><polygon fill="#000000" points="2933.5,1655.2344,2943.5,1659.2344,2933.5,1663.2344,2937.5,1659.2344" style="stroke:#000000;stroke-width:1.0;"/><line style="stroke:#000000;stroke-width:1.0;" x1="1435.5" x2="2939.5" y1="1659.2344" y2="1659.2344"/><text fill="#000000" font-family="sans-serif" font-size="20" lengthAdjust="spacing" textLength="143" x="1442.5" y="1652.5176">toDto(patient)</text><polygon fill="#000000" points="3272.5,1692.5156,3282.5,1696.5156,3272.5,1700.5156,3276.5,1696.5156" style="stroke:#000000;stroke-width:1.0;"/><line style="stroke:#000000;stroke-width:1.0;" x1="2955.5" x2="3278.5" y1="1696.5156" y2="1696.5156"/><text fill="#000000" font-family="sans-serif" font-size="20" lengthAdjust="spacing" textLength="310" x="2962.5" y="1689.7988">new PatientDTO(patient fields)</text><line style="stroke:#000000;stroke-width:1.0;" x1="3294.5" x2="3336.5" y1="1738.7969" y2="1738.7969"/><line style="stroke:#000000;stroke-width:1.0;" x1="3336.5" x2="3336.5" y1="1738.7969" y2="1751.7969"/><line style="stroke:#000000;stroke-width:1.0;" x1="3289.5" x2="3336.5" y1="1751.7969" y2="1751.7969"/><polygon fill="#000000" points="3299.5,1747.7969,3289.5,1751.7969,3299.5,1755.7969,3295.5,1751.7969" style="stroke:#000000;stroke-width:1.0;"/><text fill="#000000" font-family="sans-serif" font-size="20" lengthAdjust="spacing" textLength="130" x="3301.5" y="1732.0801">PatientDTO()</text><polygon fill="#000000" points="1446.5,1780.0781,1436.5,1784.0781,1446.5,1788.0781,1442.5,1784.0781" style="stroke:#000000;stroke-width:1.0;"/><line style="stroke:#000000;stroke-width:1.0;stroke-dasharray:2.0,2.0;" x1="1440.5" x2="2949.5" y1="1784.0781" y2="1784.0781"/><text fill="#000000" font-family="sans-serif" font-size="20" lengthAdjust="spacing" textLength="101" x="1452.5" y="1777.3613">return dto</text><polygon fill="#000000" points="706.5,1817.3594,696.5,1821.3594,706.5,1825.3594,702.5,1821.3594" style="stroke:#000000;stroke-width:1.0;"/><line style="stroke:#000000;stroke-width:1.0;stroke-dasharray:2.0,2.0;" x1="700.5" x2="1424.5" y1="1821.3594" y2="1821.3594"/><text fill="#000000" font-family="sans-serif" font-size="20" lengthAdjust="spacing" textLength="101" x="712.5" y="1814.6426">return dto</text><line style="stroke:#000000;stroke-width:1.0;stroke-dasharray:2.0,2.0;" x1="588.5" x2="3517.5" y1="1830.3594" y2="1830.3594"/><text fill="#000000" font-family="sans-serif" font-size="20" font-weight="bold" lengthAdjust="spacing" textLength="130" x="593.5" y="1848.9238">[var is null]</text><polygon fill="#000000" points="706.5,1879.9219,696.5,1883.9219,706.5,1887.9219,702.5,1883.9219" style="stroke:#000000;stroke-width:1.0;"/><line style="stroke:#000000;stroke-width:1.0;stroke-dasharray:2.0,2.0;" x1="700.5" x2="1424.5" y1="1883.9219" y2="1883.9219"/><text fill="#000000" font-family="sans-serif" font-size="20" lengthAdjust="spacing" textLength="242" x="712.5" y="1877.2051">return Patient not found</text><polygon fill="#000000" points="36.5,1924.2031,26.5,1928.2031,36.5,1932.2031,32.5,1928.2031" style="stroke:#000000;stroke-width:1.0;"/><line style="stroke:#000000;stroke-width:1.0;stroke-dasharray:2.0,2.0;" x1="30.5" x2="689.5" y1="1928.2031" y2="1928.2031"/><text fill="#000000" font-family="sans-serif" font-size="20" lengthAdjust="spacing" textLength="413" x="42.5" y="1921.4863">Returns Operation Status Response Code</text><!--SRC=[hLPTh-8s47tFhnZTVLXGxwBjLlsYsoiHGjHAOK49LHyhtsG0xmrnrdPWQTN_th7p2UHM0f47XCTdZkVCE9bHBppBcMIxLCGlc422QrQasXUPZlZV21_UEuxcEaK8S8yfV0TpBmIFimtvECwM9mYuo_KHThXxHgcSjwgcX81dg8yvWf1wAnodtObJfXJyum0zBejVDb8KMJ8LgP0VF-vPMk3Y-JF6-ka9tdW_p2R-J_rGAOJ5-DxCzTxtOnJAFO_HKdthVvYvVJ2YcFa_ptwqUnCfnQ4qkodXd7-xiUTaOHliZnxUp5p_UzyrBYpMPF1dm1JzEkIjUSnpbcbuM3BDCTDJohCKQOho0IOHJ7j1KId08g9UH8YvK9nEErfGU0eAnEOC48IzD7PlUU5SklHwp5cULx7FUm7UQc5tlTDTZsdsp5IfoNDjhlYUQJI9eeozUuBf62BC4WM_hLPB2F5BWKg35b3aYG5M1xnLG4i61wwteBS86HwifQMSEbD368qhryfpeBJasOOkRi9ZbeOO2vbyAimjVeG_399sMncGQ35iIICdCgJX63QetUFyacIYZbayw67li8HEQ5WyTmn_YUVFQlJd5YKEliAlJtrnZMPV2fQgmTTHptd3uSZdKkc5zCgNk0nW-4jx76NQS-5T6RT4NSWCzamw2NOXeKL4ho52XwNQ684ho8I6h4XJ-ow8N8CD0Jwn7PhjN8ezVI8IO1bzM_XwJUge_cifThPOSI6jmHOCgiScTZc6wPPb6xI4Xcz01HWrgs43Rm9RDgRbAmnLnTUN91rz9GrTlKPJmEuhoV0rYkh55O8Q_nlr-5ImkvQ8-DeALOjh2bJxtwXdjcCylPCMosM5s7zNg2WzRvImt8eCeNoHxwJ4KfQCLazdVOMgBilDvK6vmIm-Wcbt1BnRgIhUYhQgsgdngWAUyTsej_es6xK9rrna2fZ4UoYkc5jYA_d2UeNcIyORHKyqf6Y-a-OUhpcc2HnexYaxRdAg9nZRBasZnM15u-5YFOdDsIFRTF6H9YpRT7zF7kikN_ECO4MPMjF490vbb7IGWWEbieQC7-2R-hzljtlI4JIce0h81DChDJYBdJedIvAojwPYqqSUjkndxNto_vwUszYgFXsqZPfS-kBh-0JddViLboh0kdnMrtnCivMdnQ1AVXbTupAtoxbLKrQldOngbweQPvwUNNgLPyUhn7MLr6USQA0RVWwSrs6NOs87YAd2PZIfnv9pO7sdpEooDfExOp8njIX_DgPPqy0KB6YqPUPYGgIPBXHjg9nU4PeeHOBTaMZg_0S0]--></g></svg>