<?xml version="1.0" encoding="UTF-8" standalone="no"?><svg xmlns="http://www.w3.org/2000/svg" xmlns:xlink="http://www.w3.org/1999/xlink" contentStyleType="text/css" height="1150px" preserveAspectRatio="none" style="width:3475px;height:1150px;background:#FFFFFF;" version="1.1" viewBox="0 0 3475 1150" width="3475px" zoomAndPan="magnify"><defs/><g><text fill="#000000" font-family="sans-serif" font-size="14" font-weight="bold" lengthAdjust="spacing" textLength="149" x="1665" y="27.9951">Level 3 FE Diagram</text><rect fill="#FFFFFF" height="917.75" style="stroke:#181818;stroke-width:1.0;" width="10" x="36" y="135.5781"/><rect fill="#FFFFFF" height="199.4063" style="stroke:#181818;stroke-width:1.0;" width="10" x="450" y="164.8594"/><rect fill="#FFFFFF" height="642.7813" style="stroke:#181818;stroke-width:1.0;" width="10" x="450" y="401.5469"/><rect fill="#FFFFFF" height="37.2813" style="stroke:#181818;stroke-width:1.0;" width="10" x="768" y="202.1406"/><rect fill="#FFFFFF" height="87.5625" style="stroke:#181818;stroke-width:1.0;" width="10" x="1153" y="239.4219"/><rect fill="#FFFFFF" height="478.375" style="stroke:#181818;stroke-width:1.0;" width="10" x="1153" y="528.6719"/><rect fill="#FFFFFF" height="353.5313" style="stroke:#181818;stroke-width:1.0;" width="10" x="1616" y="616.2344"/><rect fill="#FFFFFF" height="278.9688" style="stroke:#181818;stroke-width:1.0;" width="10" x="2286" y="653.5156"/><rect fill="#FFFFFF" height="87.5625" style="stroke:#181818;stroke-width:1.0;" width="10" x="2873" y="807.6406"/><line style="stroke:#181818;stroke-width:0.5;stroke-dasharray:5.0,5.0;" x1="41" x2="41" y1="125.5781" y2="1062.3281"/><line style="stroke:#181818;stroke-width:0.5;stroke-dasharray:5.0,5.0;" x1="454.5" x2="454.5" y1="125.5781" y2="1062.3281"/><line style="stroke:#181818;stroke-width:0.5;stroke-dasharray:5.0,5.0;" x1="772.5" x2="772.5" y1="125.5781" y2="1062.3281"/><line style="stroke:#181818;stroke-width:0.5;stroke-dasharray:5.0,5.0;" x1="1157.5" x2="1157.5" y1="125.5781" y2="1062.3281"/><line style="stroke:#181818;stroke-width:0.5;stroke-dasharray:5.0,5.0;" x1="1621" x2="1621" y1="125.5781" y2="1062.3281"/><line style="stroke:#181818;stroke-width:0.5;stroke-dasharray:5.0,5.0;" x1="2290.5" x2="2290.5" y1="125.5781" y2="1062.3281"/><line style="stroke:#181818;stroke-width:0.5;stroke-dasharray:5.0,5.0;" x1="2878" x2="2878" y1="125.5781" y2="1062.3281"/><text fill="#000000" font-family="sans-serif" font-size="20" lengthAdjust="spacing" textLength="66" x="5" y="120.8613">Admin</text><ellipse cx="41" cy="50.7969" fill="#E2E2F0" rx="8" ry="8" style="stroke:#181818;stroke-width:0.5;"/><path d="M41,58.7969 L41,85.7969 M28,66.7969 L54,66.7969 M41,85.7969 L28,100.7969 M41,85.7969 L54,100.7969 " fill="none" style="stroke:#181818;stroke-width:0.5;"/><text fill="#000000" font-family="sans-serif" font-size="20" lengthAdjust="spacing" textLength="66" x="5" y="1079.8926">Admin</text><ellipse cx="41" cy="1093.1094" fill="#E2E2F0" rx="8" ry="8" style="stroke:#181818;stroke-width:0.5;"/><path d="M41,1101.1094 L41,1128.1094 M28,1109.1094 L54,1109.1094 M41,1128.1094 L28,1143.1094 M41,1128.1094 L54,1143.1094 " fill="none" style="stroke:#181818;stroke-width:0.5;"/><rect fill="#E2E2F0" height="37.2813" rx="2.5" ry="2.5" style="stroke:#181818;stroke-width:0.5;" width="63" x="423.5" y="87.2969"/><text fill="#000000" font-family="sans-serif" font-size="20" lengthAdjust="spacing" textLength="49" x="430.5" y="112.8613">View</text><rect fill="#E2E2F0" height="37.2813" rx="2.5" ry="2.5" style="stroke:#181818;stroke-width:0.5;" width="63" x="423.5" y="1061.3281"/><text fill="#000000" font-family="sans-serif" font-size="20" lengthAdjust="spacing" textLength="49" x="430.5" y="1086.8926">View</text><rect fill="#E2E2F0" height="37.2813" rx="2.5" ry="2.5" style="stroke:#181818;stroke-width:0.5;" width="291" x="627.5" y="87.2969"/><text fill="#000000" font-family="sans-serif" font-size="20" lengthAdjust="spacing" textLength="277" x="634.5" y="112.8613">ManagePatientsComponent</text><rect fill="#E2E2F0" height="37.2813" rx="2.5" ry="2.5" style="stroke:#181818;stroke-width:0.5;" width="291" x="627.5" y="1061.3281"/><text fill="#000000" font-family="sans-serif" font-size="20" lengthAdjust="spacing" textLength="277" x="634.5" y="1086.8926">ManagePatientsComponent</text><rect fill="#E2E2F0" height="37.2813" rx="2.5" ry="2.5" style="stroke:#181818;stroke-width:0.5;" width="275" x="1020.5" y="87.2969"/><text fill="#000000" font-family="sans-serif" font-size="20" lengthAdjust="spacing" textLength="261" x="1027.5" y="112.8613">UpdatePatientComponent</text><rect fill="#E2E2F0" height="37.2813" rx="2.5" ry="2.5" style="stroke:#181818;stroke-width:0.5;" width="275" x="1020.5" y="1061.3281"/><text fill="#000000" font-family="sans-serif" font-size="20" lengthAdjust="spacing" textLength="261" x="1027.5" y="1086.8926">UpdatePatientComponent</text><rect fill="#E2E2F0" height="37.2813" rx="2.5" ry="2.5" style="stroke:#181818;stroke-width:0.5;" width="158" x="1542" y="87.2969"/><text fill="#000000" font-family="sans-serif" font-size="20" lengthAdjust="spacing" textLength="144" x="1549" y="112.8613">PatientService</text><rect fill="#E2E2F0" height="37.2813" rx="2.5" ry="2.5" style="stroke:#181818;stroke-width:0.5;" width="158" x="1542" y="1061.3281"/><text fill="#000000" font-family="sans-serif" font-size="20" lengthAdjust="spacing" textLength="144" x="1549" y="1086.8926">PatientService</text><rect fill="#E2E2F0" height="37.2813" rx="2.5" ry="2.5" style="stroke:#181818;stroke-width:0.5;" width="173" x="2204.5" y="87.2969"/><text fill="#000000" font-family="sans-serif" font-size="20" lengthAdjust="spacing" textLength="159" x="2211.5" y="112.8613">AuthInterceptor</text><rect fill="#E2E2F0" height="37.2813" rx="2.5" ry="2.5" style="stroke:#181818;stroke-width:0.5;" width="173" x="2204.5" y="1061.3281"/><text fill="#000000" font-family="sans-serif" font-size="20" lengthAdjust="spacing" textLength="159" x="2211.5" y="1086.8926">AuthInterceptor</text><rect fill="#E2E2F0" height="37.2813" rx="2.5" ry="2.5" style="stroke:#181818;stroke-width:0.5;" width="60" x="2848" y="87.2969"/><text fill="#000000" font-family="sans-serif" font-size="20" lengthAdjust="spacing" textLength="46" x="2855" y="112.8613">MDR</text><rect fill="#E2E2F0" height="37.2813" rx="2.5" ry="2.5" style="stroke:#181818;stroke-width:0.5;" width="60" x="2848" y="1061.3281"/><text fill="#000000" font-family="sans-serif" font-size="20" lengthAdjust="spacing" textLength="46" x="2855" y="1086.8926">MDR</text><rect fill="#FFFFFF" height="917.75" style="stroke:#181818;stroke-width:1.0;" width="10" x="36" y="135.5781"/><rect fill="#FFFFFF" height="199.4063" style="stroke:#181818;stroke-width:1.0;" width="10" x="450" y="164.8594"/><rect fill="#FFFFFF" height="642.7813" style="stroke:#181818;stroke-width:1.0;" width="10" x="450" y="401.5469"/><rect fill="#FFFFFF" height="37.2813" style="stroke:#181818;stroke-width:1.0;" width="10" x="768" y="202.1406"/><rect fill="#FFFFFF" height="87.5625" style="stroke:#181818;stroke-width:1.0;" width="10" x="1153" y="239.4219"/><rect fill="#FFFFFF" height="478.375" style="stroke:#181818;stroke-width:1.0;" width="10" x="1153" y="528.6719"/><rect fill="#FFFFFF" height="353.5313" style="stroke:#181818;stroke-width:1.0;" width="10" x="1616" y="616.2344"/><rect fill="#FFFFFF" height="278.9688" style="stroke:#181818;stroke-width:1.0;" width="10" x="2286" y="653.5156"/><rect fill="#FFFFFF" height="87.5625" style="stroke:#181818;stroke-width:1.0;" width="10" x="2873" y="807.6406"/><polygon fill="#000000" points="438,160.8594,448,164.8594,438,168.8594,442,164.8594" style="stroke:#000000;stroke-width:1.0;"/><line style="stroke:#000000;stroke-width:1.0;" x1="46" x2="444" y1="164.8594" y2="164.8594"/><text fill="#000000" font-family="sans-serif" font-size="20" lengthAdjust="spacing" textLength="244" x="53" y="158.1426">Asks to update a Patient</text><polygon fill="#000000" points="756,198.1406,766,202.1406,756,206.1406,760,202.1406" style="stroke:#000000;stroke-width:1.0;"/><line style="stroke:#000000;stroke-width:1.0;" x1="460" x2="762" y1="202.1406" y2="202.1406"/><text fill="#000000" font-family="sans-serif" font-size="20" lengthAdjust="spacing" textLength="289" x="467" y="195.4238">routerLink='/update-patient'</text><polygon fill="#000000" points="1141,235.4219,1151,239.4219,1141,243.4219,1145,239.4219" style="stroke:#000000;stroke-width:1.0;"/><line style="stroke:#000000;stroke-width:1.0;" x1="773" x2="1147" y1="239.4219" y2="239.4219"/><text fill="#000000" font-family="sans-serif" font-size="20" lengthAdjust="spacing" textLength="356" x="780" y="232.7051">routes to UpdatePatientComponent</text><line style="stroke:#000000;stroke-width:1.0;" x1="1163" x2="1205" y1="276.7031" y2="276.7031"/><line style="stroke:#000000;stroke-width:1.0;" x1="1205" x2="1205" y1="276.7031" y2="289.7031"/><line style="stroke:#000000;stroke-width:1.0;" x1="1164" x2="1205" y1="289.7031" y2="289.7031"/><polygon fill="#000000" points="1174,285.7031,1164,289.7031,1174,293.7031,1170,289.7031" style="stroke:#000000;stroke-width:1.0;"/><text fill="#000000" font-family="sans-serif" font-size="20" lengthAdjust="spacing" textLength="363" x="1170" y="269.9863">initializes UpdatePatientComponent</text><polygon fill="#000000" points="471,322.9844,461,326.9844,471,330.9844,467,326.9844" style="stroke:#000000;stroke-width:1.0;"/><line style="stroke:#000000;stroke-width:1.0;stroke-dasharray:2.0,2.0;" x1="465" x2="1157" y1="326.9844" y2="326.9844"/><text fill="#000000" font-family="sans-serif" font-size="20" lengthAdjust="spacing" textLength="339" x="477" y="320.2676">returns UpdatePatientComponent</text><polygon fill="#000000" points="57,360.2656,47,364.2656,57,368.2656,53,364.2656" style="stroke:#000000;stroke-width:1.0;"/><line style="stroke:#000000;stroke-width:1.0;stroke-dasharray:2.0,2.0;" x1="51" x2="454" y1="364.2656" y2="364.2656"/><text fill="#000000" font-family="sans-serif" font-size="20" lengthAdjust="spacing" textLength="223" x="63" y="357.5488">Asks for Patient's data</text><polygon fill="#000000" points="438,397.5469,448,401.5469,438,405.5469,442,401.5469" style="stroke:#000000;stroke-width:1.0;"/><line style="stroke:#000000;stroke-width:1.0;" x1="46" x2="444" y1="401.5469" y2="401.5469"/><text fill="#000000" font-family="sans-serif" font-size="20" lengthAdjust="spacing" textLength="205" x="53" y="394.8301">Sends Patient's data</text><path d="M465,414.5469 L465,493.5469 L1124,493.5469 L1124,424.5469 L1114,414.5469 L465,414.5469 " fill="#FEFFDD" style="stroke:#181818;stroke-width:0.5;"/><path d="M1114,414.5469 L1114,424.5469 L1124,424.5469 L1114,414.5469 " fill="#FEFFDD" style="stroke:#181818;stroke-width:0.5;"/><text fill="#000000" font-family="sans-serif" font-size="20" lengthAdjust="spacing" textLength="638" x="471" y="438.1113">The data can be First Name and/or Last Name and/or Full Name</text><text fill="#000000" font-family="sans-serif" font-size="20" lengthAdjust="spacing" textLength="628" x="471" y="461.3926">and/or Email and/or Phone Number and/or Emergency Contact</text><text fill="#000000" font-family="sans-serif" font-size="20" lengthAdjust="spacing" textLength="261" x="471" y="484.6738">and/or Medical Conditions</text><polygon fill="#000000" points="1141,524.6719,1151,528.6719,1141,532.6719,1145,528.6719" style="stroke:#000000;stroke-width:1.0;"/><line style="stroke:#000000;stroke-width:1.0;" x1="460" x2="1147" y1="528.6719" y2="528.6719"/><text fill="#000000" font-family="sans-serif" font-size="20" lengthAdjust="spacing" textLength="227" x="467" y="521.9551">updatePatient($event)</text><line style="stroke:#000000;stroke-width:1.0;" x1="1163" x2="1205" y1="565.9531" y2="565.9531"/><line style="stroke:#000000;stroke-width:1.0;" x1="1205" x2="1205" y1="565.9531" y2="578.9531"/><line style="stroke:#000000;stroke-width:1.0;" x1="1164" x2="1205" y1="578.9531" y2="578.9531"/><polygon fill="#000000" points="1174,574.9531,1164,578.9531,1174,582.9531,1170,578.9531" style="stroke:#000000;stroke-width:1.0;"/><text fill="#000000" font-family="sans-serif" font-size="20" lengthAdjust="spacing" textLength="395" x="1170" y="559.2363">extractMedicalRecordNumberFromUrl()</text><polygon fill="#000000" points="1604,612.2344,1614,616.2344,1604,620.2344,1608,616.2344" style="stroke:#000000;stroke-width:1.0;"/><line style="stroke:#000000;stroke-width:1.0;" x1="1163" x2="1610" y1="616.2344" y2="616.2344"/><text fill="#000000" font-family="sans-serif" font-size="20" lengthAdjust="spacing" textLength="434" x="1170" y="609.5176">updatePatient(medicalRecordNumber, dto)</text><polygon fill="#000000" points="2274,649.5156,2284,653.5156,2274,657.5156,2278,653.5156" style="stroke:#000000;stroke-width:1.0;"/><line style="stroke:#000000;stroke-width:1.0;" x1="1626" x2="2280" y1="653.5156" y2="653.5156"/><text fill="#000000" font-family="sans-serif" font-size="20" lengthAdjust="spacing" textLength="641" x="1633" y="646.7988">Sends HTTP Request to update Patient's data with the new data</text><line style="stroke:#000000;stroke-width:1.0;" x1="2296" x2="2338" y1="690.7969" y2="690.7969"/><line style="stroke:#000000;stroke-width:1.0;" x1="2338" x2="2338" y1="690.7969" y2="703.7969"/><line style="stroke:#000000;stroke-width:1.0;" x1="2297" x2="2338" y1="703.7969" y2="703.7969"/><polygon fill="#000000" points="2307,699.7969,2297,703.7969,2307,707.7969,2303,703.7969" style="stroke:#000000;stroke-width:1.0;"/><text fill="#000000" font-family="sans-serif" font-size="20" lengthAdjust="spacing" textLength="563" x="2303" y="684.0801">Intercepts the request and adds the token to the header</text><path d="M2301,716.7969 L2301,772.7969 L2820,772.7969 L2820,726.7969 L2810,716.7969 L2301,716.7969 " fill="#FEFFDD" style="stroke:#181818;stroke-width:0.5;"/><path d="M2810,716.7969 L2810,726.7969 L2820,726.7969 L2810,716.7969 " fill="#FEFFDD" style="stroke:#181818;stroke-width:0.5;"/><text fill="#000000" font-family="sans-serif" font-size="20" lengthAdjust="spacing" textLength="498" x="2307" y="740.3613">The token is added to the header so that the MDR</text><text fill="#000000" font-family="sans-serif" font-size="20" lengthAdjust="spacing" textLength="442" x="2307" y="763.6426">can authenticate and authorize the request.</text><polygon fill="#000000" points="2861,803.6406,2871,807.6406,2861,811.6406,2865,807.6406" style="stroke:#000000;stroke-width:1.0;"/><line style="stroke:#000000;stroke-width:1.0;" x1="2296" x2="2867" y1="807.6406" y2="807.6406"/><text fill="#000000" font-family="sans-serif" font-size="20" lengthAdjust="spacing" textLength="434" x="2303" y="800.9238">updatePatient(medicalRecordNumber, dto)</text><line style="stroke:#000000;stroke-width:1.0;" x1="2883" x2="2925" y1="844.9219" y2="844.9219"/><line style="stroke:#000000;stroke-width:1.0;" x1="2925" x2="2925" y1="844.9219" y2="857.9219"/><line style="stroke:#000000;stroke-width:1.0;" x1="2884" x2="2925" y1="857.9219" y2="857.9219"/><polygon fill="#000000" points="2894,853.9219,2884,857.9219,2894,861.9219,2890,857.9219" style="stroke:#000000;stroke-width:1.0;"/><text fill="#000000" font-family="sans-serif" font-size="20" lengthAdjust="spacing" textLength="578" x="2890" y="838.2051">Validates Patient's data and tries to update Patient's data</text><polygon fill="#000000" points="2307,891.2031,2297,895.2031,2307,899.2031,2303,895.2031" style="stroke:#000000;stroke-width:1.0;"/><line style="stroke:#000000;stroke-width:1.0;stroke-dasharray:2.0,2.0;" x1="2301" x2="2877" y1="895.2031" y2="895.2031"/><text fill="#000000" font-family="sans-serif" font-size="20" lengthAdjust="spacing" textLength="311" x="2313" y="888.4863">Returns Operation Status Code</text><polygon fill="#000000" points="1637,928.4844,1627,932.4844,1637,936.4844,1633,932.4844" style="stroke:#000000;stroke-width:1.0;"/><line style="stroke:#000000;stroke-width:1.0;stroke-dasharray:2.0,2.0;" x1="1631" x2="2290" y1="932.4844" y2="932.4844"/><text fill="#000000" font-family="sans-serif" font-size="20" lengthAdjust="spacing" textLength="311" x="1643" y="925.7676">Returns Operation Status Code</text><polygon fill="#000000" points="1174,965.7656,1164,969.7656,1174,973.7656,1170,969.7656" style="stroke:#000000;stroke-width:1.0;"/><line style="stroke:#000000;stroke-width:1.0;stroke-dasharray:2.0,2.0;" x1="1168" x2="1620" y1="969.7656" y2="969.7656"/><text fill="#000000" font-family="sans-serif" font-size="20" lengthAdjust="spacing" textLength="286" x="1180" y="963.0488">Returns Operation Response</text><polygon fill="#000000" points="471,1003.0469,461,1007.0469,471,1011.0469,467,1007.0469" style="stroke:#000000;stroke-width:1.0;"/><line style="stroke:#000000;stroke-width:1.0;stroke-dasharray:2.0,2.0;" x1="465" x2="1157" y1="1007.0469" y2="1007.0469"/><text fill="#000000" font-family="sans-serif" font-size="20" lengthAdjust="spacing" textLength="380" x="477" y="1000.3301">Returns Operation In/Sucess message</text><polygon fill="#000000" points="57,1040.3281,47,1044.3281,57,1048.3281,53,1044.3281" style="stroke:#000000;stroke-width:1.0;"/><line style="stroke:#000000;stroke-width:1.0;stroke-dasharray:2.0,2.0;" x1="51" x2="454" y1="1044.3281" y2="1044.3281"/><text fill="#000000" font-family="sans-serif" font-size="20" lengthAdjust="spacing" textLength="380" x="63" y="1037.6113">Returns Operation In/Sucess message</text><!--SRC=[dLNRRjim37ttLn3jWBJ0kdOTTYkw0ix5M82cDUBKJtjHBJRHOakU92VhXltxADjnubo0RW4IsDGvl1oHZ9aBcJFDibGbS-J0yOaLgGsKj97uXN1vuNbMs1JX5XUOmZi81j0NR4eKpvi9Ze1PRfyXm-mHjV4wPkKHReL4-vmZA6rdolFM9qdAZ87V7j2dovBvLAj2yfvAbRw-Nh2qmFl7xvZOcniuxdyO-C6d_L2jL8a9-eDk_s8_ng1UY0HBLs-3oq5t7unS38BFWu_bcQ-rMbRcRaeuxyzcxZbPs1JtPm_7WsxmFkWw2aii6NoU2GdCWEyHtuf4v4nQE8e5Be-SFMxRHqoIzv1PWTAQdifo9UcfX8x2DlOXvyoki6reRmjQWw9AZ18IHcs8NzZPK5hK2UQKUOdnXrlPzSTL9lrnMQ1OK09KcWzdDn1VWM_c1go2eimC6DHnrzZOYnrs55u1oKRHg4lcNphd5UCih_2TDO6A7eMEqbjHoWZxQ_SuRXARPvAZrpWHKbZ1KcflSyYD0rSLQRI5bkO5yIX6NBByMeSdklwQq350TBO9ZnlH8fJSR2Eb8emMqva5zUHGancM9v0m2Oy8WT36mXtBI6R9podMBTio14MQbePlihOCCYRIrN4uenhWhd232mq0zHHbyWmzMW6KR4CT8HS9IvsTatvAcfrBTU8McpgTlAAb8UtfWOl0drRJIUrvZ8dIl4edq2fxqEd9QOqEestFsIxfDN2hDc9HWuUHO_l3bSXV9vCGnlYZG99gtQTjxM4fx0miwIrnMTt6kjM7dZzS-MocnPHeNVibmO1nNXcjcgDqeTpB31b7lNMtvD9jaaa35iRHQHctM63S6xEboSsV8xbUO3Itb3ofOR6AJGQbtVRUoEgDHmA0YrmNG2x-GrCNcBwDWvZcoBdOxjyo4Qi5ceCoLtvgASVrcDtdg9dhBeWiimKjCiMnDTMKW2kWReeNyqXbrmnrv-tIncXef4sBGmsqNWIxbA4yZue4wPyien_QseUsmJzIO-yl]--></g></svg>