<?xml version="1.0" encoding="UTF-8" standalone="no"?><svg xmlns="http://www.w3.org/2000/svg" xmlns:xlink="http://www.w3.org/1999/xlink" contentStyleType="text/css" height="867px" preserveAspectRatio="none" style="width:771px;height:867px;background:#FFFFFF;" version="1.1" viewBox="0 0 771 867" width="771px" zoomAndPan="magnify"><defs/><g><text fill="#000000" font-family="sans-serif" font-size="14" font-weight="bold" lengthAdjust="spacing" textLength="391" x="191" y="27.9951">Doctor Operation Request Deletion Flow - Level 1</text><rect fill="#FFFFFF" height="605.5" style="stroke:#181818;stroke-width:1.0;" width="10" x="334" y="164.8594"/><rect fill="#FFFFFF" height="479.6563" style="stroke:#181818;stroke-width:1.0;" width="10" x="339" y="289.7031"/><rect fill="none" height="357.0938" style="stroke:#000000;stroke-width:1.5;" width="754" x="10" y="405.2656"/><line style="stroke:#181818;stroke-width:0.5;stroke-dasharray:5.0,5.0;" x1="56" x2="56" y1="125.5781" y2="779.3594"/><line style="stroke:#181818;stroke-width:0.5;stroke-dasharray:5.0,5.0;" x1="338.5" x2="338.5" y1="125.5781" y2="779.3594"/><line style="stroke:#181818;stroke-width:0.5;stroke-dasharray:5.0,5.0;" x1="593" x2="593" y1="125.5781" y2="779.3594"/><line style="stroke:#181818;stroke-width:0.5;stroke-dasharray:5.0,5.0;" x1="704" x2="704" y1="125.5781" y2="779.3594"/><text fill="#000000" font-family="sans-serif" font-size="20" lengthAdjust="spacing" textLength="66" x="20" y="120.8613">Doctor</text><ellipse cx="56" cy="50.7969" fill="#E2E2F0" rx="8" ry="8" style="stroke:#181818;stroke-width:0.5;"/><path d="M56,58.7969 L56,85.7969 M43,66.7969 L69,66.7969 M56,85.7969 L43,100.7969 M56,85.7969 L69,100.7969 " fill="none" style="stroke:#181818;stroke-width:0.5;"/><text fill="#000000" font-family="sans-serif" font-size="20" lengthAdjust="spacing" textLength="66" x="20" y="796.9238">Doctor</text><ellipse cx="56" cy="810.1406" fill="#E2E2F0" rx="8" ry="8" style="stroke:#181818;stroke-width:0.5;"/><path d="M56,818.1406 L56,845.1406 M43,826.1406 L69,826.1406 M56,845.1406 L43,860.1406 M56,845.1406 L69,860.1406 " fill="none" style="stroke:#181818;stroke-width:0.5;"/><rect fill="#E2E2F0" height="60.5625" rx="2.5" ry="2.5" style="stroke:#181818;stroke-width:0.5;" width="123" x="277.5" y="64.0156"/><text fill="#000000" font-family="sans-serif" font-size="20" lengthAdjust="spacing" textLength="109" x="284.5" y="89.5801">Healthcare</text><text fill="#000000" font-family="sans-serif" font-size="20" lengthAdjust="spacing" textLength="74" x="302" y="112.8613">System</text><rect fill="#E2E2F0" height="60.5625" rx="2.5" ry="2.5" style="stroke:#181818;stroke-width:0.5;" width="123" x="277.5" y="778.3594"/><text fill="#000000" font-family="sans-serif" font-size="20" lengthAdjust="spacing" textLength="109" x="284.5" y="803.9238">Healthcare</text><text fill="#000000" font-family="sans-serif" font-size="20" lengthAdjust="spacing" textLength="74" x="302" y="827.2051">System</text><rect fill="#E2E2F0" height="60.5625" rx="2.5" ry="2.5" style="stroke:#181818;stroke-width:0.5;" width="102" x="542" y="64.0156"/><text fill="#000000" font-family="sans-serif" font-size="20" lengthAdjust="spacing" textLength="88" x="549" y="89.5801">Planning</text><text fill="#000000" font-family="sans-serif" font-size="20" lengthAdjust="spacing" textLength="73" x="556.5" y="112.8613">Module</text><rect fill="#E2E2F0" height="60.5625" rx="2.5" ry="2.5" style="stroke:#181818;stroke-width:0.5;" width="102" x="542" y="778.3594"/><text fill="#000000" font-family="sans-serif" font-size="20" lengthAdjust="spacing" textLength="88" x="549" y="803.9238">Planning</text><text fill="#000000" font-family="sans-serif" font-size="20" lengthAdjust="spacing" textLength="73" x="556.5" y="827.2051">Module</text><text fill="#000000" font-family="sans-serif" font-size="20" lengthAdjust="spacing" textLength="94" x="654" y="120.8613">Database</text><path d="M686,66.2969 C686,56.2969 704,56.2969 704,56.2969 C704,56.2969 722,56.2969 722,66.2969 L722,92.2969 C722,102.2969 704,102.2969 704,102.2969 C704,102.2969 686,102.2969 686,92.2969 L686,66.2969 " fill="#E2E2F0" style="stroke:#181818;stroke-width:1.5;"/><path d="M686,66.2969 C686,76.2969 704,76.2969 704,76.2969 C704,76.2969 722,76.2969 722,66.2969 " fill="none" style="stroke:#181818;stroke-width:1.5;"/><text fill="#000000" font-family="sans-serif" font-size="20" lengthAdjust="spacing" textLength="94" x="654" y="796.9238">Database</text><path d="M686,811.6406 C686,801.6406 704,801.6406 704,801.6406 C704,801.6406 722,801.6406 722,811.6406 L722,837.6406 C722,847.6406 704,847.6406 704,847.6406 C704,847.6406 686,847.6406 686,837.6406 L686,811.6406 " fill="#E2E2F0" style="stroke:#181818;stroke-width:1.5;"/><path d="M686,811.6406 C686,821.6406 704,821.6406 704,821.6406 C704,821.6406 722,821.6406 722,811.6406 " fill="none" style="stroke:#181818;stroke-width:1.5;"/><rect fill="#FFFFFF" height="605.5" style="stroke:#181818;stroke-width:1.0;" width="10" x="334" y="164.8594"/><rect fill="#FFFFFF" height="479.6563" style="stroke:#181818;stroke-width:1.0;" width="10" x="339" y="289.7031"/><polygon fill="#181818" points="322,160.8594,332,164.8594,322,168.8594,326,164.8594" style="stroke:#181818;stroke-width:1.0;"/><line style="stroke:#181818;stroke-width:1.0;" x1="56" x2="328" y1="164.8594" y2="164.8594"/><text fill="#000000" font-family="sans-serif" font-size="20" lengthAdjust="spacing" textLength="259" x="63" y="158.1426">Delete Operation Request</text><line style="stroke:#181818;stroke-width:1.0;" x1="344" x2="386" y1="202.1406" y2="202.1406"/><line style="stroke:#181818;stroke-width:1.0;" x1="386" x2="386" y1="202.1406" y2="215.1406"/><line style="stroke:#181818;stroke-width:1.0;" x1="345" x2="386" y1="215.1406" y2="215.1406"/><polygon fill="#181818" points="355,211.1406,345,215.1406,355,219.1406,351,215.1406" style="stroke:#181818;stroke-width:1.0;"/><text fill="#000000" font-family="sans-serif" font-size="20" lengthAdjust="spacing" textLength="219" x="351" y="195.4238">Request Confirmation</text><polygon fill="#181818" points="67,248.4219,57,252.4219,67,256.4219,63,252.4219" style="stroke:#181818;stroke-width:1.0;"/><line style="stroke:#181818;stroke-width:1.0;stroke-dasharray:2.0,2.0;" x1="61" x2="333" y1="252.4219" y2="252.4219"/><text fill="#000000" font-family="sans-serif" font-size="20" lengthAdjust="spacing" textLength="210" x="73" y="245.7051">Confirmation Prompt</text><polygon fill="#181818" points="327,285.7031,337,289.7031,327,293.7031,331,289.7031" style="stroke:#181818;stroke-width:1.0;"/><line style="stroke:#181818;stroke-width:1.0;" x1="56" x2="333" y1="289.7031" y2="289.7031"/><text fill="#000000" font-family="sans-serif" font-size="20" lengthAdjust="spacing" textLength="170" x="63" y="282.9863">Confirm Deletion</text><line style="stroke:#181818;stroke-width:1.0;" x1="349" x2="391" y1="326.9844" y2="326.9844"/><line style="stroke:#181818;stroke-width:1.0;" x1="391" x2="391" y1="326.9844" y2="339.9844"/><line style="stroke:#181818;stroke-width:1.0;" x1="350" x2="391" y1="339.9844" y2="339.9844"/><polygon fill="#181818" points="360,335.9844,350,339.9844,360,343.9844,356,339.9844" style="stroke:#181818;stroke-width:1.0;"/><text fill="#000000" font-family="sans-serif" font-size="20" lengthAdjust="spacing" textLength="225" x="356" y="320.2676">Validate Authorization</text><line style="stroke:#181818;stroke-width:1.0;" x1="349" x2="391" y1="377.2656" y2="377.2656"/><line style="stroke:#181818;stroke-width:1.0;" x1="391" x2="391" y1="377.2656" y2="390.2656"/><line style="stroke:#181818;stroke-width:1.0;" x1="350" x2="391" y1="390.2656" y2="390.2656"/><polygon fill="#181818" points="360,386.2656,350,390.2656,360,394.2656,356,390.2656" style="stroke:#181818;stroke-width:1.0;"/><text fill="#000000" font-family="sans-serif" font-size="20" lengthAdjust="spacing" textLength="220" x="356" y="370.5488">Check Request Status</text><path d="M10,405.2656 L86,405.2656 L86,420.5469 L76,430.5469 L10,430.5469 L10,405.2656 " fill="#EEEEEE" style="stroke:#000000;stroke-width:1.5;"/><rect fill="none" height="357.0938" style="stroke:#000000;stroke-width:1.5;" width="754" x="10" y="405.2656"/><text fill="#000000" font-family="sans-serif" font-size="20" font-weight="bold" lengthAdjust="spacing" textLength="31" x="25" y="424.8301">alt</text><text fill="#000000" font-family="sans-serif" font-size="20" font-weight="bold" lengthAdjust="spacing" textLength="294" x="101" y="425.8301">[Request Can Be Deleted]</text><polygon fill="#181818" points="692,464.1094,702,468.1094,692,472.1094,696,468.1094" style="stroke:#181818;stroke-width:1.0;"/><line style="stroke:#181818;stroke-width:1.0;" x1="349" x2="698" y1="468.1094" y2="468.1094"/><text fill="#000000" font-family="sans-serif" font-size="20" lengthAdjust="spacing" textLength="161" x="356" y="461.3926">Mark as Deleted</text><polygon fill="#181818" points="360,501.3906,350,505.3906,360,509.3906,356,505.3906" style="stroke:#181818;stroke-width:1.0;"/><line style="stroke:#181818;stroke-width:1.0;stroke-dasharray:2.0,2.0;" x1="354" x2="703" y1="505.3906" y2="505.3906"/><text fill="#000000" font-family="sans-serif" font-size="20" lengthAdjust="spacing" textLength="131" x="366" y="498.6738">Confirmation</text><polygon fill="#181818" points="581,538.6719,591,542.6719,581,546.6719,585,542.6719" style="stroke:#181818;stroke-width:1.0;"/><line style="stroke:#181818;stroke-width:1.0;" x1="349" x2="587" y1="542.6719" y2="542.6719"/><text fill="#000000" font-family="sans-serif" font-size="20" lengthAdjust="spacing" textLength="149" x="356" y="535.9551">Notify Deletion</text><polygon fill="#181818" points="360,575.9531,350,579.9531,360,583.9531,356,579.9531" style="stroke:#181818;stroke-width:1.0;"/><line style="stroke:#181818;stroke-width:1.0;stroke-dasharray:2.0,2.0;" x1="354" x2="592" y1="579.9531" y2="579.9531"/><text fill="#000000" font-family="sans-serif" font-size="20" lengthAdjust="spacing" textLength="176" x="366" y="573.2363">Acknowledgment</text><polygon fill="#181818" points="692,613.2344,702,617.2344,692,621.2344,696,617.2344" style="stroke:#181818;stroke-width:1.0;"/><line style="stroke:#181818;stroke-width:1.0;" x1="349" x2="698" y1="617.2344" y2="617.2344"/><text fill="#000000" font-family="sans-serif" font-size="20" lengthAdjust="spacing" textLength="126" x="356" y="610.5176">Log Deletion</text><polygon fill="#181818" points="360,650.5156,350,654.5156,360,658.5156,356,654.5156" style="stroke:#181818;stroke-width:1.0;"/><line style="stroke:#181818;stroke-width:1.0;stroke-dasharray:2.0,2.0;" x1="354" x2="703" y1="654.5156" y2="654.5156"/><text fill="#000000" font-family="sans-serif" font-size="20" lengthAdjust="spacing" textLength="173" x="366" y="647.7988">Log Confirmation</text><polygon fill="#181818" points="67,687.7969,57,691.7969,67,695.7969,63,691.7969" style="stroke:#181818;stroke-width:1.0;"/><line style="stroke:#181818;stroke-width:1.0;stroke-dasharray:2.0,2.0;" x1="61" x2="338" y1="691.7969" y2="691.7969"/><text fill="#000000" font-family="sans-serif" font-size="20" lengthAdjust="spacing" textLength="172" x="73" y="685.0801">Success Message</text><line style="stroke:#000000;stroke-width:1.0;stroke-dasharray:2.0,2.0;" x1="10" x2="764" y1="700.7969" y2="700.7969"/><text fill="#000000" font-family="sans-serif" font-size="20" font-weight="bold" lengthAdjust="spacing" textLength="182" x="15" y="719.3613">[Cannot Delete]</text><polygon fill="#181818" points="67,750.3594,57,754.3594,67,758.3594,63,754.3594" style="stroke:#181818;stroke-width:1.0;"/><line style="stroke:#181818;stroke-width:1.0;stroke-dasharray:2.0,2.0;" x1="61" x2="338" y1="754.3594" y2="754.3594"/><text fill="#000000" font-family="sans-serif" font-size="20" lengthAdjust="spacing" textLength="141" x="73" y="747.6426">Error Message</text><!--SRC=[ZP9DJyCm38Rl-HKMzqd0iGUamPWuR31HYTCkfl6wg6bI4dVJzkj9lzin43sqKVpwzMExFbEcG8Uvjab64YJjiDIyj8PZTIQulnMiM1CiRCBMmLj13bbP0-_qLP9dM92c-cAfxH5ciA83QRWJ0kk49a-46gmILQ1Xk7aXrBnFqD7Mn2VFbDy0UcYEK-b6ep7Af5kpjhBKL0kxIo6HyHDze6iFGhISiuVMBce0wITv1QWE649jOT5ynxbTaq_Mx9JBw_nU5dHDjMWIXuspUS7NK5fPFxF_87oWLhAIp4lUMwVEKuYH-PwIh2UE6RdqOGkQXoxGm2Er0v42mZFOT2ECO8qkgyOyrdNHkkkBTXgWIdLXsUqfWbVBQdSQ-gvqNNHYEKyoOu-QP9gJuMkc0-VAfbF7gv2Lwc_GqHxZCad8UrY75wOaI0UtC3PZsn-TVijyTYxikiypKWX9b-lz1W00]--></g></svg>