<?xml version="1.0" encoding="UTF-8" standalone="no"?><svg xmlns="http://www.w3.org/2000/svg" xmlns:xlink="http://www.w3.org/1999/xlink" contentStyleType="text/css" height="1430px" preserveAspectRatio="none" style="width:3888px;height:1430px;background:#FFFFFF;" version="1.1" viewBox="0 0 3888 1430" width="3888px" zoomAndPan="magnify"><defs/><g><text fill="#000000" font-family="sans-serif" font-size="14" font-weight="bold" lengthAdjust="spacing" textLength="149" x="1868.5" y="27.9951">Level 3 FE Diagram</text><rect fill="#FFFFFF" height="1198.4375" style="stroke:#181818;stroke-width:1.0;" width="10" x="36" y="135.5781"/><rect fill="#FFFFFF" height="620.2188" style="stroke:#181818;stroke-width:1.0;" width="10" x="790" y="164.8594"/><rect fill="#FFFFFF" height="502.6563" style="stroke:#181818;stroke-width:1.0;" width="10" x="790" y="822.3594"/><rect fill="#FFFFFF" height="67.2813" style="stroke:#181818;stroke-width:1.0;" width="10" x="1505" y="202.1406"/><rect fill="#FFFFFF" height="508.375" style="stroke:#181818;stroke-width:1.0;" width="10" x="1966" y="239.4219"/><rect fill="#FFFFFF" height="428.0938" style="stroke:#181818;stroke-width:1.0;" width="10" x="1966" y="859.6406"/><rect fill="#FFFFFF" height="278.9688" style="stroke:#181818;stroke-width:1.0;" width="10" x="2642.5" y="343.9844"/><rect fill="#FFFFFF" height="278.9688" style="stroke:#181818;stroke-width:1.0;" width="10" x="2642.5" y="934.2031"/><rect fill="#FFFFFF" height="87.5625" style="stroke:#181818;stroke-width:1.0;" width="10" x="3229.5" y="498.1094"/><rect fill="#FFFFFF" height="87.5625" style="stroke:#181818;stroke-width:1.0;" width="10" x="3229.5" y="1088.3281"/><rect fill="#FFFFFF" height="353.5313" style="stroke:#181818;stroke-width:1.0;" width="10" x="3856.5" y="306.7031"/><rect fill="#FFFFFF" height="353.5313" style="stroke:#181818;stroke-width:1.0;" width="10" x="3856.5" y="896.9219"/><line style="stroke:#181818;stroke-width:0.5;stroke-dasharray:5.0,5.0;" x1="41" x2="41" y1="125.5781" y2="1343.0156"/><line style="stroke:#181818;stroke-width:0.5;stroke-dasharray:5.0,5.0;" x1="794.5" x2="794.5" y1="125.5781" y2="1343.0156"/><line style="stroke:#181818;stroke-width:0.5;stroke-dasharray:5.0,5.0;" x1="1510" x2="1510" y1="125.5781" y2="1343.0156"/><line style="stroke:#181818;stroke-width:0.5;stroke-dasharray:5.0,5.0;" x1="1970.5" x2="1970.5" y1="125.5781" y2="1343.0156"/><line style="stroke:#181818;stroke-width:0.5;stroke-dasharray:5.0,5.0;" x1="2434" x2="2434" y1="125.5781" y2="1343.0156"/><line style="stroke:#181818;stroke-width:0.5;stroke-dasharray:5.0,5.0;" x1="2647" x2="2647" y1="125.5781" y2="1343.0156"/><line style="stroke:#181818;stroke-width:0.5;stroke-dasharray:5.0,5.0;" x1="3234.5" x2="3234.5" y1="125.5781" y2="1343.0156"/><line style="stroke:#181818;stroke-width:0.5;stroke-dasharray:5.0,5.0;" x1="3861" x2="3861" y1="125.5781" y2="1343.0156"/><text fill="#000000" font-family="sans-serif" font-size="20" lengthAdjust="spacing" textLength="66" x="5" y="120.8613">Doctor</text><ellipse cx="41" cy="50.7969" fill="#E2E2F0" rx="8" ry="8" style="stroke:#181818;stroke-width:0.5;"/><path d="M41,58.7969 L41,85.7969 M28,66.7969 L54,66.7969 M41,85.7969 L28,100.7969 M41,85.7969 L54,100.7969 " fill="none" style="stroke:#181818;stroke-width:0.5;"/><text fill="#000000" font-family="sans-serif" font-size="20" lengthAdjust="spacing" textLength="66" x="5" y="1360.5801">Doctor</text><ellipse cx="41" cy="1373.7969" fill="#E2E2F0" rx="8" ry="8" style="stroke:#181818;stroke-width:0.5;"/><path d="M41,1381.7969 L41,1408.7969 M28,1389.7969 L54,1389.7969 M41,1408.7969 L28,1423.7969 M41,1408.7969 L54,1423.7969 " fill="none" style="stroke:#181818;stroke-width:0.5;"/><rect fill="#E2E2F0" height="37.2813" rx="2.5" ry="2.5" style="stroke:#181818;stroke-width:0.5;" width="63" x="763.5" y="87.2969"/><text fill="#000000" font-family="sans-serif" font-size="20" lengthAdjust="spacing" textLength="49" x="770.5" y="112.8613">View</text><rect fill="#E2E2F0" height="37.2813" rx="2.5" ry="2.5" style="stroke:#181818;stroke-width:0.5;" width="63" x="763.5" y="1342.0156"/><text fill="#000000" font-family="sans-serif" font-size="20" lengthAdjust="spacing" textLength="49" x="770.5" y="1367.5801">View</text><rect fill="#E2E2F0" height="37.2813" rx="2.5" ry="2.5" style="stroke:#181818;stroke-width:0.5;" width="278" x="1371" y="87.2969"/><text fill="#000000" font-family="sans-serif" font-size="20" lengthAdjust="spacing" textLength="264" x="1378" y="112.8613">MedicalHistoryComponent</text><rect fill="#E2E2F0" height="37.2813" rx="2.5" ry="2.5" style="stroke:#181818;stroke-width:0.5;" width="278" x="1371" y="1342.0156"/><text fill="#000000" font-family="sans-serif" font-size="20" lengthAdjust="spacing" textLength="264" x="1378" y="1367.5801">MedicalHistoryComponent</text><rect fill="#E2E2F0" height="37.2813" rx="2.5" ry="2.5" style="stroke:#181818;stroke-width:0.5;" width="351" x="1795.5" y="87.2969"/><text fill="#000000" font-family="sans-serif" font-size="20" lengthAdjust="spacing" textLength="337" x="1802.5" y="112.8613">UpdateMedicalHistoryComponent</text><rect fill="#E2E2F0" height="37.2813" rx="2.5" ry="2.5" style="stroke:#181818;stroke-width:0.5;" width="351" x="1795.5" y="1342.0156"/><text fill="#000000" font-family="sans-serif" font-size="20" lengthAdjust="spacing" textLength="337" x="1802.5" y="1367.5801">UpdateMedicalHistoryComponent</text><rect fill="#E2E2F0" height="37.2813" rx="2.5" ry="2.5" style="stroke:#181818;stroke-width:0.5;" width="234" x="2317" y="87.2969"/><text fill="#000000" font-family="sans-serif" font-size="20" lengthAdjust="spacing" textLength="220" x="2324" y="112.8613">MedicalHistoryService</text><rect fill="#E2E2F0" height="37.2813" rx="2.5" ry="2.5" style="stroke:#181818;stroke-width:0.5;" width="234" x="2317" y="1342.0156"/><text fill="#000000" font-family="sans-serif" font-size="20" lengthAdjust="spacing" textLength="220" x="2324" y="1367.5801">MedicalHistoryService</text><rect fill="#E2E2F0" height="37.2813" rx="2.5" ry="2.5" style="stroke:#181818;stroke-width:0.5;" width="173" x="2561" y="87.2969"/><text fill="#000000" font-family="sans-serif" font-size="20" lengthAdjust="spacing" textLength="159" x="2568" y="112.8613">AuthInterceptor</text><rect fill="#E2E2F0" height="37.2813" rx="2.5" ry="2.5" style="stroke:#181818;stroke-width:0.5;" width="173" x="2561" y="1342.0156"/><text fill="#000000" font-family="sans-serif" font-size="20" lengthAdjust="spacing" textLength="159" x="2568" y="1367.5801">AuthInterceptor</text><rect fill="#E2E2F0" height="37.2813" rx="2.5" ry="2.5" style="stroke:#181818;stroke-width:0.5;" width="60" x="3204.5" y="87.2969"/><text fill="#000000" font-family="sans-serif" font-size="20" lengthAdjust="spacing" textLength="46" x="3211.5" y="112.8613">MDV</text><rect fill="#E2E2F0" height="37.2813" rx="2.5" ry="2.5" style="stroke:#181818;stroke-width:0.5;" width="60" x="3204.5" y="1342.0156"/><text fill="#000000" font-family="sans-serif" font-size="20" lengthAdjust="spacing" textLength="46" x="3211.5" y="1367.5801">MDV</text><rect fill="#E2E2F0" height="37.2813" rx="2.5" ry="2.5" style="stroke:#181818;stroke-width:0.5;" width="41" x="3841" y="87.2969"/><text fill="#000000" font-family="sans-serif" font-size="20" lengthAdjust="spacing" textLength="27" x="3848" y="112.8613">AS</text><rect fill="#E2E2F0" height="37.2813" rx="2.5" ry="2.5" style="stroke:#181818;stroke-width:0.5;" width="41" x="3841" y="1342.0156"/><text fill="#000000" font-family="sans-serif" font-size="20" lengthAdjust="spacing" textLength="27" x="3848" y="1367.5801">AS</text><rect fill="#FFFFFF" height="1198.4375" style="stroke:#181818;stroke-width:1.0;" width="10" x="36" y="135.5781"/><rect fill="#FFFFFF" height="620.2188" style="stroke:#181818;stroke-width:1.0;" width="10" x="790" y="164.8594"/><rect fill="#FFFFFF" height="502.6563" style="stroke:#181818;stroke-width:1.0;" width="10" x="790" y="822.3594"/><rect fill="#FFFFFF" height="67.2813" style="stroke:#181818;stroke-width:1.0;" width="10" x="1505" y="202.1406"/><rect fill="#FFFFFF" height="508.375" style="stroke:#181818;stroke-width:1.0;" width="10" x="1966" y="239.4219"/><rect fill="#FFFFFF" height="428.0938" style="stroke:#181818;stroke-width:1.0;" width="10" x="1966" y="859.6406"/><rect fill="#FFFFFF" height="278.9688" style="stroke:#181818;stroke-width:1.0;" width="10" x="2642.5" y="343.9844"/><rect fill="#FFFFFF" height="278.9688" style="stroke:#181818;stroke-width:1.0;" width="10" x="2642.5" y="934.2031"/><rect fill="#FFFFFF" height="87.5625" style="stroke:#181818;stroke-width:1.0;" width="10" x="3229.5" y="498.1094"/><rect fill="#FFFFFF" height="87.5625" style="stroke:#181818;stroke-width:1.0;" width="10" x="3229.5" y="1088.3281"/><rect fill="#FFFFFF" height="353.5313" style="stroke:#181818;stroke-width:1.0;" width="10" x="3856.5" y="306.7031"/><rect fill="#FFFFFF" height="353.5313" style="stroke:#181818;stroke-width:1.0;" width="10" x="3856.5" y="896.9219"/><polygon fill="#000000" points="778,160.8594,788,164.8594,778,168.8594,782,164.8594" style="stroke:#000000;stroke-width:1.0;"/><line style="stroke:#000000;stroke-width:1.0;" x1="46" x2="784" y1="164.8594" y2="164.8594"/><text fill="#000000" font-family="sans-serif" font-size="20" lengthAdjust="spacing" textLength="725" x="53" y="158.1426">Asks to update a medical condition entry in the patient's medical record</text><polygon fill="#000000" points="1493,198.1406,1503,202.1406,1493,206.1406,1497,202.1406" style="stroke:#000000;stroke-width:1.0;"/><line style="stroke:#000000;stroke-width:1.0;" x1="800" x2="1499" y1="202.1406" y2="202.1406"/><text fill="#000000" font-family="sans-serif" font-size="20" lengthAdjust="spacing" textLength="686" x="807" y="195.4238">routerLink='/update-medical-history/:patientMedicalRecordNumber'</text><polygon fill="#000000" points="1954,235.4219,1964,239.4219,1954,243.4219,1958,239.4219" style="stroke:#000000;stroke-width:1.0;"/><line style="stroke:#000000;stroke-width:1.0;" x1="1515" x2="1960" y1="239.4219" y2="239.4219"/><text fill="#000000" font-family="sans-serif" font-size="20" lengthAdjust="spacing" textLength="432" x="1522" y="232.7051">routes to UpdateMedicalHistoryComponent</text><polygon fill="#000000" points="3844.5,302.7031,3854.5,306.7031,3844.5,310.7031,3848.5,306.7031" style="stroke:#000000;stroke-width:1.0;"/><line style="stroke:#000000;stroke-width:1.0;" x1="1976" x2="3850.5" y1="306.7031" y2="306.7031"/><text fill="#000000" font-family="sans-serif" font-size="20" lengthAdjust="spacing" textLength="514" x="1983" y="299.9863">fetchMedicalHistory(patientMedicalRecordNumber)</text><polygon fill="#000000" points="2663.5,339.9844,2653.5,343.9844,2663.5,347.9844,2659.5,343.9844" style="stroke:#000000;stroke-width:1.0;"/><line style="stroke:#000000;stroke-width:1.0;" x1="2657.5" x2="3855.5" y1="343.9844" y2="343.9844"/><text fill="#000000" font-family="sans-serif" font-size="20" lengthAdjust="spacing" textLength="476" x="2669.5" y="337.2676">Makes Http Request to get Medical History data</text><line style="stroke:#000000;stroke-width:1.0;" x1="2652.5" x2="2694.5" y1="381.2656" y2="381.2656"/><line style="stroke:#000000;stroke-width:1.0;" x1="2694.5" x2="2694.5" y1="381.2656" y2="394.2656"/><line style="stroke:#000000;stroke-width:1.0;" x1="2653.5" x2="2694.5" y1="394.2656" y2="394.2656"/><polygon fill="#000000" points="2663.5,390.2656,2653.5,394.2656,2663.5,398.2656,2659.5,394.2656" style="stroke:#000000;stroke-width:1.0;"/><text fill="#000000" font-family="sans-serif" font-size="20" lengthAdjust="spacing" textLength="563" x="2659.5" y="374.5488">Intercepts the request and adds the token to the header</text><path d="M2657,407.2656 L2657,463.2656 L3176,463.2656 L3176,417.2656 L3166,407.2656 L2657,407.2656 " fill="#FEFFDD" style="stroke:#181818;stroke-width:0.5;"/><path d="M3166,407.2656 L3166,417.2656 L3176,417.2656 L3166,407.2656 " fill="#FEFFDD" style="stroke:#181818;stroke-width:0.5;"/><text fill="#000000" font-family="sans-serif" font-size="20" lengthAdjust="spacing" textLength="498" x="2663" y="430.8301">The token is added to the header so that the MDV</text><text fill="#000000" font-family="sans-serif" font-size="20" lengthAdjust="spacing" textLength="442" x="2663" y="454.1113">can authenticate and authorize the request.</text><polygon fill="#000000" points="3217.5,494.1094,3227.5,498.1094,3217.5,502.1094,3221.5,498.1094" style="stroke:#000000;stroke-width:1.0;"/><line style="stroke:#000000;stroke-width:1.0;" x1="2652.5" x2="3223.5" y1="498.1094" y2="498.1094"/><text fill="#000000" font-family="sans-serif" font-size="20" lengthAdjust="spacing" textLength="496" x="2659.5" y="491.3926">getMedicalHistory(patientMedicalRecordNumber)</text><line style="stroke:#000000;stroke-width:1.0;" x1="3239.5" x2="3281.5" y1="535.3906" y2="535.3906"/><line style="stroke:#000000;stroke-width:1.0;" x1="3281.5" x2="3281.5" y1="535.3906" y2="548.3906"/><line style="stroke:#000000;stroke-width:1.0;" x1="3240.5" x2="3281.5" y1="548.3906" y2="548.3906"/><polygon fill="#000000" points="3250.5,544.3906,3240.5,548.3906,3250.5,552.3906,3246.5,548.3906" style="stroke:#000000;stroke-width:1.0;"/><text fill="#000000" font-family="sans-serif" font-size="20" lengthAdjust="spacing" textLength="288" x="3246.5" y="528.6738">Fetches Medical History data</text><polygon fill="#000000" points="2663.5,581.6719,2653.5,585.6719,2663.5,589.6719,2659.5,585.6719" style="stroke:#000000;stroke-width:1.0;"/><line style="stroke:#000000;stroke-width:1.0;stroke-dasharray:2.0,2.0;" x1="2657.5" x2="3233.5" y1="585.6719" y2="585.6719"/><text fill="#000000" font-family="sans-serif" font-size="20" lengthAdjust="spacing" textLength="305" x="2669.5" y="578.9551">returns Operation Status Code</text><polygon fill="#000000" points="3844.5,618.9531,3854.5,622.9531,3844.5,626.9531,3848.5,622.9531" style="stroke:#000000;stroke-width:1.0;"/><line style="stroke:#000000;stroke-width:1.0;stroke-dasharray:2.0,2.0;" x1="2647.5" x2="3850.5" y1="622.9531" y2="622.9531"/><text fill="#000000" font-family="sans-serif" font-size="20" lengthAdjust="spacing" textLength="305" x="2654.5" y="616.2363">returns Operation Status Code</text><polygon fill="#000000" points="1987,656.2344,1977,660.2344,1987,664.2344,1983,660.2344" style="stroke:#000000;stroke-width:1.0;"/><line style="stroke:#000000;stroke-width:1.0;stroke-dasharray:2.0,2.0;" x1="1981" x2="3860.5" y1="660.2344" y2="660.2344"/><text fill="#000000" font-family="sans-serif" font-size="20" lengthAdjust="spacing" textLength="280" x="1993" y="653.5176">returns Operation Response</text><line style="stroke:#000000;stroke-width:1.0;" x1="1976" x2="2018" y1="697.5156" y2="697.5156"/><line style="stroke:#000000;stroke-width:1.0;" x1="2018" x2="2018" y1="697.5156" y2="710.5156"/><line style="stroke:#000000;stroke-width:1.0;" x1="1977" x2="2018" y1="710.5156" y2="710.5156"/><polygon fill="#000000" points="1987,706.5156,1977,710.5156,1987,714.5156,1983,710.5156" style="stroke:#000000;stroke-width:1.0;"/><text fill="#000000" font-family="sans-serif" font-size="20" lengthAdjust="spacing" textLength="439" x="1983" y="690.7988">initializes UpdateMedicalHistoryComponent</text><polygon fill="#000000" points="811,743.7969,801,747.7969,811,751.7969,807,747.7969" style="stroke:#000000;stroke-width:1.0;"/><line style="stroke:#000000;stroke-width:1.0;stroke-dasharray:2.0,2.0;" x1="805" x2="1970" y1="747.7969" y2="747.7969"/><text fill="#000000" font-family="sans-serif" font-size="20" lengthAdjust="spacing" textLength="415" x="817" y="741.0801">returns UpdateMedicalHistoryComponent</text><polygon fill="#000000" points="57,781.0781,47,785.0781,57,789.0781,53,785.0781" style="stroke:#000000;stroke-width:1.0;"/><line style="stroke:#000000;stroke-width:1.0;stroke-dasharray:2.0,2.0;" x1="51" x2="794" y1="785.0781" y2="785.0781"/><text fill="#000000" font-family="sans-serif" font-size="20" lengthAdjust="spacing" textLength="520" x="63" y="778.3613">Displays the fetched data and asks for the new data</text><polygon fill="#000000" points="778,818.3594,788,822.3594,778,826.3594,782,822.3594" style="stroke:#000000;stroke-width:1.0;"/><line style="stroke:#000000;stroke-width:1.0;" x1="46" x2="784" y1="822.3594" y2="822.3594"/><text fill="#000000" font-family="sans-serif" font-size="20" lengthAdjust="spacing" textLength="536" x="53" y="815.6426">Sends the new data(MedicalCondition) to be updated</text><polygon fill="#000000" points="1954,855.6406,1964,859.6406,1954,863.6406,1958,859.6406" style="stroke:#000000;stroke-width:1.0;"/><line style="stroke:#000000;stroke-width:1.0;" x1="800" x2="1960" y1="859.6406" y2="859.6406"/><text fill="#000000" font-family="sans-serif" font-size="20" lengthAdjust="spacing" textLength="303" x="807" y="852.9238">updateMedicalHistory($event)</text><polygon fill="#000000" points="3844.5,892.9219,3854.5,896.9219,3844.5,900.9219,3848.5,896.9219" style="stroke:#000000;stroke-width:1.0;"/><line style="stroke:#000000;stroke-width:1.0;" x1="1976" x2="3850.5" y1="896.9219" y2="896.9219"/><text fill="#000000" font-family="sans-serif" font-size="20" lengthAdjust="spacing" textLength="423" x="1983" y="890.2051">updateMedicalHistory(newMedicalHistory)</text><polygon fill="#000000" points="2663.5,930.2031,2653.5,934.2031,2663.5,938.2031,2659.5,934.2031" style="stroke:#000000;stroke-width:1.0;"/><line style="stroke:#000000;stroke-width:1.0;" x1="2657.5" x2="3855.5" y1="934.2031" y2="934.2031"/><text fill="#000000" font-family="sans-serif" font-size="20" lengthAdjust="spacing" textLength="880" x="2669.5" y="927.4863">Makes Http Request to update a medical condition entry in the patient's medical record</text><line style="stroke:#000000;stroke-width:1.0;" x1="2652.5" x2="2694.5" y1="971.4844" y2="971.4844"/><line style="stroke:#000000;stroke-width:1.0;" x1="2694.5" x2="2694.5" y1="971.4844" y2="984.4844"/><line style="stroke:#000000;stroke-width:1.0;" x1="2653.5" x2="2694.5" y1="984.4844" y2="984.4844"/><polygon fill="#000000" points="2663.5,980.4844,2653.5,984.4844,2663.5,988.4844,2659.5,984.4844" style="stroke:#000000;stroke-width:1.0;"/><text fill="#000000" font-family="sans-serif" font-size="20" lengthAdjust="spacing" textLength="563" x="2659.5" y="964.7676">Intercepts the request and adds the token to the header</text><path d="M2657,997.4844 L2657,1053.4844 L3176,1053.4844 L3176,1007.4844 L3166,997.4844 L2657,997.4844 " fill="#FEFFDD" style="stroke:#181818;stroke-width:0.5;"/><path d="M3166,997.4844 L3166,1007.4844 L3176,1007.4844 L3166,997.4844 " fill="#FEFFDD" style="stroke:#181818;stroke-width:0.5;"/><text fill="#000000" font-family="sans-serif" font-size="20" lengthAdjust="spacing" textLength="498" x="2663" y="1021.0488">The token is added to the header so that the MDV</text><text fill="#000000" font-family="sans-serif" font-size="20" lengthAdjust="spacing" textLength="442" x="2663" y="1044.3301">can authenticate and authorize the request.</text><polygon fill="#000000" points="3217.5,1084.3281,3227.5,1088.3281,3217.5,1092.3281,3221.5,1088.3281" style="stroke:#000000;stroke-width:1.0;"/><line style="stroke:#000000;stroke-width:1.0;" x1="2652.5" x2="3223.5" y1="1088.3281" y2="1088.3281"/><text fill="#000000" font-family="sans-serif" font-size="20" lengthAdjust="spacing" textLength="423" x="2659.5" y="1081.6113">updateMedicalHistory(newMedicalHistory)</text><line style="stroke:#000000;stroke-width:1.0;" x1="3239.5" x2="3281.5" y1="1125.6094" y2="1125.6094"/><line style="stroke:#000000;stroke-width:1.0;" x1="3281.5" x2="3281.5" y1="1125.6094" y2="1138.6094"/><line style="stroke:#000000;stroke-width:1.0;" x1="3240.5" x2="3281.5" y1="1138.6094" y2="1138.6094"/><polygon fill="#000000" points="3250.5,1134.6094,3240.5,1138.6094,3250.5,1142.6094,3246.5,1138.6094" style="stroke:#000000;stroke-width:1.0;"/><text fill="#000000" font-family="sans-serif" font-size="20" lengthAdjust="spacing" textLength="603" x="3246.5" y="1118.8926">Validates the data and updates the patient's medical record</text><polygon fill="#000000" points="2663.5,1171.8906,2653.5,1175.8906,2663.5,1179.8906,2659.5,1175.8906" style="stroke:#000000;stroke-width:1.0;"/><line style="stroke:#000000;stroke-width:1.0;stroke-dasharray:2.0,2.0;" x1="2657.5" x2="3233.5" y1="1175.8906" y2="1175.8906"/><text fill="#000000" font-family="sans-serif" font-size="20" lengthAdjust="spacing" textLength="311" x="2669.5" y="1169.1738">Returns Operation Status Code</text><polygon fill="#000000" points="3844.5,1209.1719,3854.5,1213.1719,3844.5,1217.1719,3848.5,1213.1719" style="stroke:#000000;stroke-width:1.0;"/><line style="stroke:#000000;stroke-width:1.0;stroke-dasharray:2.0,2.0;" x1="2647.5" x2="3850.5" y1="1213.1719" y2="1213.1719"/><text fill="#000000" font-family="sans-serif" font-size="20" lengthAdjust="spacing" textLength="305" x="2654.5" y="1206.4551">returns Operation Status Code</text><polygon fill="#000000" points="1987,1246.4531,1977,1250.4531,1987,1254.4531,1983,1250.4531" style="stroke:#000000;stroke-width:1.0;"/><line style="stroke:#000000;stroke-width:1.0;stroke-dasharray:2.0,2.0;" x1="1981" x2="3860.5" y1="1250.4531" y2="1250.4531"/><text fill="#000000" font-family="sans-serif" font-size="20" lengthAdjust="spacing" textLength="280" x="1993" y="1243.7363">returns Operation Response</text><polygon fill="#000000" points="811,1283.7344,801,1287.7344,811,1291.7344,807,1287.7344" style="stroke:#000000;stroke-width:1.0;"/><line style="stroke:#000000;stroke-width:1.0;stroke-dasharray:2.0,2.0;" x1="805" x2="1970" y1="1287.7344" y2="1287.7344"/><text fill="#000000" font-family="sans-serif" font-size="20" lengthAdjust="spacing" textLength="374" x="817" y="1281.0176">returns Operation In/Sucess message</text><polygon fill="#000000" points="57,1321.0156,47,1325.0156,57,1329.0156,53,1325.0156" style="stroke:#000000;stroke-width:1.0;"/><line style="stroke:#000000;stroke-width:1.0;stroke-dasharray:2.0,2.0;" x1="51" x2="794" y1="1325.0156" y2="1325.0156"/><text fill="#000000" font-family="sans-serif" font-size="20" lengthAdjust="spacing" textLength="374" x="63" y="1318.2988">returns Operation In/Sucess message</text><!--SRC=[tLRRRjD047ttLunQfBGFfQM8MrGgEHSBImsLOjBthJr9bZYxPdVTAY3-dPcrazWb3HJnWAXKHHdFd3rpzimuTY5L8OnOvZfTO0OPJaMPkqWhbyYl2ETdGU2aon6ky0vpU0dH40PIpAWa2EOoGy1buLQmnEKj6Xjqx1eHhgH2joeGj75p7GJR9sakh8Ll0T1VJwIBcT6bolewr-RYuaxa9LxVViRKNLx2uU3rC8pUxaurMlkSQ33i3SvsvrWqTp953_KYEX_sTgN1uIIEtWtV-6UXCVg-2lTooWk-DxaN514ptCqU3eUzw5NKunAHEWeCjFyG5iA009nCPI6KWnk9znoTnAtmmGWpcOhyWxHKjkhhPQ4LAdVW4KRzTlAao8J3VIMJiByFFwd4yQdNuwIT6fPk7Yk79iM2aYiARRgZmGr7wSFtA- -83ZKQmiabTTQ5q2uiE0sb9mg2REAFXrIhJ3gf5H1JimAfmCsHn7MI0XsxIJIOQfDjmKclISpm94ONI7dYHqPRlE-SLeUSr9Kdywh5qsuDMdS-ze0VIxPhfq6QjAL_JpnS8tlkUqLk42EbCspXKSWpJRemHPVEsnX7Z_CwRl1AWZ3nA2JdI2o8qmVd2XZZbnAjOu8pf8kevQgnWIYB1aWSXF4QP7EbrajkQY2XCX1PLWMTNg1YRFuoHv6X2PGc92DdSmTwof3i_q-RP6cvd5P8gmeiVnFEXzWcN9GA1OBCHSqJQVO5dqq1RNZdD5Wz3v0UySbr0mJHvOR_H4e-dWsxXeduJaZFdThvn5enWwuqYYQaG2EyQHCdN6cXhpDiNZgVm3phI__jEhwVn9TLtlkfReoM_6RRHSdQOBv8AfedaPE0zXUMzLNrWAwFsb_HE9LjFgbRxDARm1QvM5McyHxdTmZfLrqfJ_-KjXy_LRJllB9Di7YxAXAwQTlAFAhfzDUxufYzTOlrDjcr5BmIvOvUZfxHwqkvu_QyDWPqPn4nQKUUDfX_R-lzPmFyPB4VZkuD6PqXgcOtXgjmxNvHcvCz_gSd-y6CRejYTPgKALhkpLhwDVBuX3wrE0v-0000]--></g></svg>