<?xml version="1.0" encoding="UTF-8" standalone="no"?><svg xmlns="http://www.w3.org/2000/svg" xmlns:xlink="http://www.w3.org/1999/xlink" contentStyleType="text/css" height="1430px" preserveAspectRatio="none" style="width:3766px;height:1430px;background:#FFFFFF;" version="1.1" viewBox="0 0 3766 1430" width="3766px" zoomAndPan="magnify"><defs/><g><text fill="#000000" font-family="sans-serif" font-size="14" font-weight="bold" lengthAdjust="spacing" textLength="149" x="1807.5" y="27.9951">Level 3 FE Diagram</text><rect fill="#FFFFFF" height="1198.4375" style="stroke:#181818;stroke-width:1.0;" width="10" x="36" y="135.5781"/><rect fill="#FFFFFF" height="620.2188" style="stroke:#181818;stroke-width:1.0;" width="10" x="668" y="164.8594"/><rect fill="#FFFFFF" height="502.6563" style="stroke:#181818;stroke-width:1.0;" width="10" x="668" y="822.3594"/><rect fill="#FFFFFF" height="67.2813" style="stroke:#181818;stroke-width:1.0;" width="10" x="1383" y="202.1406"/><rect fill="#FFFFFF" height="508.375" style="stroke:#181818;stroke-width:1.0;" width="10" x="1844" y="239.4219"/><rect fill="#FFFFFF" height="428.0938" style="stroke:#181818;stroke-width:1.0;" width="10" x="1844" y="859.6406"/><rect fill="#FFFFFF" height="278.9688" style="stroke:#181818;stroke-width:1.0;" width="10" x="2520.5" y="343.9844"/><rect fill="#FFFFFF" height="278.9688" style="stroke:#181818;stroke-width:1.0;" width="10" x="2520.5" y="934.2031"/><rect fill="#FFFFFF" height="87.5625" style="stroke:#181818;stroke-width:1.0;" width="10" x="3107.5" y="498.1094"/><rect fill="#FFFFFF" height="87.5625" style="stroke:#181818;stroke-width:1.0;" width="10" x="3107.5" y="1088.3281"/><rect fill="#FFFFFF" height="353.5313" style="stroke:#181818;stroke-width:1.0;" width="10" x="3734.5" y="306.7031"/><rect fill="#FFFFFF" height="353.5313" style="stroke:#181818;stroke-width:1.0;" width="10" x="3734.5" y="896.9219"/><line style="stroke:#181818;stroke-width:0.5;stroke-dasharray:5.0,5.0;" x1="41" x2="41" y1="125.5781" y2="1343.0156"/><line style="stroke:#181818;stroke-width:0.5;stroke-dasharray:5.0,5.0;" x1="672.5" x2="672.5" y1="125.5781" y2="1343.0156"/><line style="stroke:#181818;stroke-width:0.5;stroke-dasharray:5.0,5.0;" x1="1388" x2="1388" y1="125.5781" y2="1343.0156"/><line style="stroke:#181818;stroke-width:0.5;stroke-dasharray:5.0,5.0;" x1="1848.5" x2="1848.5" y1="125.5781" y2="1343.0156"/><line style="stroke:#181818;stroke-width:0.5;stroke-dasharray:5.0,5.0;" x1="2312" x2="2312" y1="125.5781" y2="1343.0156"/><line style="stroke:#181818;stroke-width:0.5;stroke-dasharray:5.0,5.0;" x1="2525" x2="2525" y1="125.5781" y2="1343.0156"/><line style="stroke:#181818;stroke-width:0.5;stroke-dasharray:5.0,5.0;" x1="3112.5" x2="3112.5" y1="125.5781" y2="1343.0156"/><line style="stroke:#181818;stroke-width:0.5;stroke-dasharray:5.0,5.0;" x1="3739" x2="3739" y1="125.5781" y2="1343.0156"/><text fill="#000000" font-family="sans-serif" font-size="20" lengthAdjust="spacing" textLength="66" x="5" y="120.8613">Doctor</text><ellipse cx="41" cy="50.7969" fill="#E2E2F0" rx="8" ry="8" style="stroke:#181818;stroke-width:0.5;"/><path d="M41,58.7969 L41,85.7969 M28,66.7969 L54,66.7969 M41,85.7969 L28,100.7969 M41,85.7969 L54,100.7969 " fill="none" style="stroke:#181818;stroke-width:0.5;"/><text fill="#000000" font-family="sans-serif" font-size="20" lengthAdjust="spacing" textLength="66" x="5" y="1360.5801">Doctor</text><ellipse cx="41" cy="1373.7969" fill="#E2E2F0" rx="8" ry="8" style="stroke:#181818;stroke-width:0.5;"/><path d="M41,1381.7969 L41,1408.7969 M28,1389.7969 L54,1389.7969 M41,1408.7969 L28,1423.7969 M41,1408.7969 L54,1423.7969 " fill="none" style="stroke:#181818;stroke-width:0.5;"/><rect fill="#E2E2F0" height="37.2813" rx="2.5" ry="2.5" style="stroke:#181818;stroke-width:0.5;" width="63" x="641.5" y="87.2969"/><text fill="#000000" font-family="sans-serif" font-size="20" lengthAdjust="spacing" textLength="49" x="648.5" y="112.8613">View</text><rect fill="#E2E2F0" height="37.2813" rx="2.5" ry="2.5" style="stroke:#181818;stroke-width:0.5;" width="63" x="641.5" y="1342.0156"/><text fill="#000000" font-family="sans-serif" font-size="20" lengthAdjust="spacing" textLength="49" x="648.5" y="1367.5801">View</text><rect fill="#E2E2F0" height="37.2813" rx="2.5" ry="2.5" style="stroke:#181818;stroke-width:0.5;" width="278" x="1249" y="87.2969"/><text fill="#000000" font-family="sans-serif" font-size="20" lengthAdjust="spacing" textLength="264" x="1256" y="112.8613">MedicalHistoryComponent</text><rect fill="#E2E2F0" height="37.2813" rx="2.5" ry="2.5" style="stroke:#181818;stroke-width:0.5;" width="278" x="1249" y="1342.0156"/><text fill="#000000" font-family="sans-serif" font-size="20" lengthAdjust="spacing" textLength="264" x="1256" y="1367.5801">MedicalHistoryComponent</text><rect fill="#E2E2F0" height="37.2813" rx="2.5" ry="2.5" style="stroke:#181818;stroke-width:0.5;" width="351" x="1673.5" y="87.2969"/><text fill="#000000" font-family="sans-serif" font-size="20" lengthAdjust="spacing" textLength="337" x="1680.5" y="112.8613">UpdateMedicalHistoryComponent</text><rect fill="#E2E2F0" height="37.2813" rx="2.5" ry="2.5" style="stroke:#181818;stroke-width:0.5;" width="351" x="1673.5" y="1342.0156"/><text fill="#000000" font-family="sans-serif" font-size="20" lengthAdjust="spacing" textLength="337" x="1680.5" y="1367.5801">UpdateMedicalHistoryComponent</text><rect fill="#E2E2F0" height="37.2813" rx="2.5" ry="2.5" style="stroke:#181818;stroke-width:0.5;" width="234" x="2195" y="87.2969"/><text fill="#000000" font-family="sans-serif" font-size="20" lengthAdjust="spacing" textLength="220" x="2202" y="112.8613">MedicalHistoryService</text><rect fill="#E2E2F0" height="37.2813" rx="2.5" ry="2.5" style="stroke:#181818;stroke-width:0.5;" width="234" x="2195" y="1342.0156"/><text fill="#000000" font-family="sans-serif" font-size="20" lengthAdjust="spacing" textLength="220" x="2202" y="1367.5801">MedicalHistoryService</text><rect fill="#E2E2F0" height="37.2813" rx="2.5" ry="2.5" style="stroke:#181818;stroke-width:0.5;" width="173" x="2439" y="87.2969"/><text fill="#000000" font-family="sans-serif" font-size="20" lengthAdjust="spacing" textLength="159" x="2446" y="112.8613">AuthInterceptor</text><rect fill="#E2E2F0" height="37.2813" rx="2.5" ry="2.5" style="stroke:#181818;stroke-width:0.5;" width="173" x="2439" y="1342.0156"/><text fill="#000000" font-family="sans-serif" font-size="20" lengthAdjust="spacing" textLength="159" x="2446" y="1367.5801">AuthInterceptor</text><rect fill="#E2E2F0" height="37.2813" rx="2.5" ry="2.5" style="stroke:#181818;stroke-width:0.5;" width="60" x="3082.5" y="87.2969"/><text fill="#000000" font-family="sans-serif" font-size="20" lengthAdjust="spacing" textLength="46" x="3089.5" y="112.8613">MDV</text><rect fill="#E2E2F0" height="37.2813" rx="2.5" ry="2.5" style="stroke:#181818;stroke-width:0.5;" width="60" x="3082.5" y="1342.0156"/><text fill="#000000" font-family="sans-serif" font-size="20" lengthAdjust="spacing" textLength="46" x="3089.5" y="1367.5801">MDV</text><rect fill="#E2E2F0" height="37.2813" rx="2.5" ry="2.5" style="stroke:#181818;stroke-width:0.5;" width="41" x="3719" y="87.2969"/><text fill="#000000" font-family="sans-serif" font-size="20" lengthAdjust="spacing" textLength="27" x="3726" y="112.8613">AS</text><rect fill="#E2E2F0" height="37.2813" rx="2.5" ry="2.5" style="stroke:#181818;stroke-width:0.5;" width="41" x="3719" y="1342.0156"/><text fill="#000000" font-family="sans-serif" font-size="20" lengthAdjust="spacing" textLength="27" x="3726" y="1367.5801">AS</text><rect fill="#FFFFFF" height="1198.4375" style="stroke:#181818;stroke-width:1.0;" width="10" x="36" y="135.5781"/><rect fill="#FFFFFF" height="620.2188" style="stroke:#181818;stroke-width:1.0;" width="10" x="668" y="164.8594"/><rect fill="#FFFFFF" height="502.6563" style="stroke:#181818;stroke-width:1.0;" width="10" x="668" y="822.3594"/><rect fill="#FFFFFF" height="67.2813" style="stroke:#181818;stroke-width:1.0;" width="10" x="1383" y="202.1406"/><rect fill="#FFFFFF" height="508.375" style="stroke:#181818;stroke-width:1.0;" width="10" x="1844" y="239.4219"/><rect fill="#FFFFFF" height="428.0938" style="stroke:#181818;stroke-width:1.0;" width="10" x="1844" y="859.6406"/><rect fill="#FFFFFF" height="278.9688" style="stroke:#181818;stroke-width:1.0;" width="10" x="2520.5" y="343.9844"/><rect fill="#FFFFFF" height="278.9688" style="stroke:#181818;stroke-width:1.0;" width="10" x="2520.5" y="934.2031"/><rect fill="#FFFFFF" height="87.5625" style="stroke:#181818;stroke-width:1.0;" width="10" x="3107.5" y="498.1094"/><rect fill="#FFFFFF" height="87.5625" style="stroke:#181818;stroke-width:1.0;" width="10" x="3107.5" y="1088.3281"/><rect fill="#FFFFFF" height="353.5313" style="stroke:#181818;stroke-width:1.0;" width="10" x="3734.5" y="306.7031"/><rect fill="#FFFFFF" height="353.5313" style="stroke:#181818;stroke-width:1.0;" width="10" x="3734.5" y="896.9219"/><polygon fill="#000000" points="656,160.8594,666,164.8594,656,168.8594,660,164.8594" style="stroke:#000000;stroke-width:1.0;"/><line style="stroke:#000000;stroke-width:1.0;" x1="46" x2="662" y1="164.8594" y2="164.8594"/><text fill="#000000" font-family="sans-serif" font-size="20" lengthAdjust="spacing" textLength="596" x="53" y="158.1426">Asks to add a free text entry in the patient's medical record</text><polygon fill="#000000" points="1371,198.1406,1381,202.1406,1371,206.1406,1375,202.1406" style="stroke:#000000;stroke-width:1.0;"/><line style="stroke:#000000;stroke-width:1.0;" x1="678" x2="1377" y1="202.1406" y2="202.1406"/><text fill="#000000" font-family="sans-serif" font-size="20" lengthAdjust="spacing" textLength="686" x="685" y="195.4238">routerLink='/update-medical-history/:patientMedicalRecordNumber'</text><polygon fill="#000000" points="1832,235.4219,1842,239.4219,1832,243.4219,1836,239.4219" style="stroke:#000000;stroke-width:1.0;"/><line style="stroke:#000000;stroke-width:1.0;" x1="1393" x2="1838" y1="239.4219" y2="239.4219"/><text fill="#000000" font-family="sans-serif" font-size="20" lengthAdjust="spacing" textLength="432" x="1400" y="232.7051">routes to UpdateMedicalHistoryComponent</text><polygon fill="#000000" points="3722.5,302.7031,3732.5,306.7031,3722.5,310.7031,3726.5,306.7031" style="stroke:#000000;stroke-width:1.0;"/><line style="stroke:#000000;stroke-width:1.0;" x1="1854" x2="3728.5" y1="306.7031" y2="306.7031"/><text fill="#000000" font-family="sans-serif" font-size="20" lengthAdjust="spacing" textLength="514" x="1861" y="299.9863">fetchMedicalHistory(patientMedicalRecordNumber)</text><polygon fill="#000000" points="2541.5,339.9844,2531.5,343.9844,2541.5,347.9844,2537.5,343.9844" style="stroke:#000000;stroke-width:1.0;"/><line style="stroke:#000000;stroke-width:1.0;" x1="2535.5" x2="3733.5" y1="343.9844" y2="343.9844"/><text fill="#000000" font-family="sans-serif" font-size="20" lengthAdjust="spacing" textLength="476" x="2547.5" y="337.2676">Makes Http Request to get Medical History data</text><line style="stroke:#000000;stroke-width:1.0;" x1="2530.5" x2="2572.5" y1="381.2656" y2="381.2656"/><line style="stroke:#000000;stroke-width:1.0;" x1="2572.5" x2="2572.5" y1="381.2656" y2="394.2656"/><line style="stroke:#000000;stroke-width:1.0;" x1="2531.5" x2="2572.5" y1="394.2656" y2="394.2656"/><polygon fill="#000000" points="2541.5,390.2656,2531.5,394.2656,2541.5,398.2656,2537.5,394.2656" style="stroke:#000000;stroke-width:1.0;"/><text fill="#000000" font-family="sans-serif" font-size="20" lengthAdjust="spacing" textLength="563" x="2537.5" y="374.5488">Intercepts the request and adds the token to the header</text><path d="M2535,407.2656 L2535,463.2656 L3054,463.2656 L3054,417.2656 L3044,407.2656 L2535,407.2656 " fill="#FEFFDD" style="stroke:#181818;stroke-width:0.5;"/><path d="M3044,407.2656 L3044,417.2656 L3054,417.2656 L3044,407.2656 " fill="#FEFFDD" style="stroke:#181818;stroke-width:0.5;"/><text fill="#000000" font-family="sans-serif" font-size="20" lengthAdjust="spacing" textLength="498" x="2541" y="430.8301">The token is added to the header so that the MDV</text><text fill="#000000" font-family="sans-serif" font-size="20" lengthAdjust="spacing" textLength="442" x="2541" y="454.1113">can authenticate and authorize the request.</text><polygon fill="#000000" points="3095.5,494.1094,3105.5,498.1094,3095.5,502.1094,3099.5,498.1094" style="stroke:#000000;stroke-width:1.0;"/><line style="stroke:#000000;stroke-width:1.0;" x1="2530.5" x2="3101.5" y1="498.1094" y2="498.1094"/><text fill="#000000" font-family="sans-serif" font-size="20" lengthAdjust="spacing" textLength="496" x="2537.5" y="491.3926">getMedicalHistory(patientMedicalRecordNumber)</text><line style="stroke:#000000;stroke-width:1.0;" x1="3117.5" x2="3159.5" y1="535.3906" y2="535.3906"/><line style="stroke:#000000;stroke-width:1.0;" x1="3159.5" x2="3159.5" y1="535.3906" y2="548.3906"/><line style="stroke:#000000;stroke-width:1.0;" x1="3118.5" x2="3159.5" y1="548.3906" y2="548.3906"/><polygon fill="#000000" points="3128.5,544.3906,3118.5,548.3906,3128.5,552.3906,3124.5,548.3906" style="stroke:#000000;stroke-width:1.0;"/><text fill="#000000" font-family="sans-serif" font-size="20" lengthAdjust="spacing" textLength="288" x="3124.5" y="528.6738">Fetches Medical History data</text><polygon fill="#000000" points="2541.5,581.6719,2531.5,585.6719,2541.5,589.6719,2537.5,585.6719" style="stroke:#000000;stroke-width:1.0;"/><line style="stroke:#000000;stroke-width:1.0;stroke-dasharray:2.0,2.0;" x1="2535.5" x2="3111.5" y1="585.6719" y2="585.6719"/><text fill="#000000" font-family="sans-serif" font-size="20" lengthAdjust="spacing" textLength="305" x="2547.5" y="578.9551">returns Operation Status Code</text><polygon fill="#000000" points="3722.5,618.9531,3732.5,622.9531,3722.5,626.9531,3726.5,622.9531" style="stroke:#000000;stroke-width:1.0;"/><line style="stroke:#000000;stroke-width:1.0;stroke-dasharray:2.0,2.0;" x1="2525.5" x2="3728.5" y1="622.9531" y2="622.9531"/><text fill="#000000" font-family="sans-serif" font-size="20" lengthAdjust="spacing" textLength="305" x="2532.5" y="616.2363">returns Operation Status Code</text><polygon fill="#000000" points="1865,656.2344,1855,660.2344,1865,664.2344,1861,660.2344" style="stroke:#000000;stroke-width:1.0;"/><line style="stroke:#000000;stroke-width:1.0;stroke-dasharray:2.0,2.0;" x1="1859" x2="3738.5" y1="660.2344" y2="660.2344"/><text fill="#000000" font-family="sans-serif" font-size="20" lengthAdjust="spacing" textLength="280" x="1871" y="653.5176">returns Operation Response</text><line style="stroke:#000000;stroke-width:1.0;" x1="1854" x2="1896" y1="697.5156" y2="697.5156"/><line style="stroke:#000000;stroke-width:1.0;" x1="1896" x2="1896" y1="697.5156" y2="710.5156"/><line style="stroke:#000000;stroke-width:1.0;" x1="1855" x2="1896" y1="710.5156" y2="710.5156"/><polygon fill="#000000" points="1865,706.5156,1855,710.5156,1865,714.5156,1861,710.5156" style="stroke:#000000;stroke-width:1.0;"/><text fill="#000000" font-family="sans-serif" font-size="20" lengthAdjust="spacing" textLength="439" x="1861" y="690.7988">initializes UpdateMedicalHistoryComponent</text><polygon fill="#000000" points="689,743.7969,679,747.7969,689,751.7969,685,747.7969" style="stroke:#000000;stroke-width:1.0;"/><line style="stroke:#000000;stroke-width:1.0;stroke-dasharray:2.0,2.0;" x1="683" x2="1848" y1="747.7969" y2="747.7969"/><text fill="#000000" font-family="sans-serif" font-size="20" lengthAdjust="spacing" textLength="415" x="695" y="741.0801">returns UpdateMedicalHistoryComponent</text><polygon fill="#000000" points="57,781.0781,47,785.0781,57,789.0781,53,785.0781" style="stroke:#000000;stroke-width:1.0;"/><line style="stroke:#000000;stroke-width:1.0;stroke-dasharray:2.0,2.0;" x1="51" x2="672" y1="785.0781" y2="785.0781"/><text fill="#000000" font-family="sans-serif" font-size="20" lengthAdjust="spacing" textLength="598" x="63" y="778.3613">Displays the fetched data and asks for the data to be added</text><polygon fill="#000000" points="656,818.3594,666,822.3594,656,826.3594,660,822.3594" style="stroke:#000000;stroke-width:1.0;"/><line style="stroke:#000000;stroke-width:1.0;" x1="46" x2="662" y1="822.3594" y2="822.3594"/><text fill="#000000" font-family="sans-serif" font-size="20" lengthAdjust="spacing" textLength="428" x="53" y="815.6426">Sends the new data(FreeText) to be added</text><polygon fill="#000000" points="1832,855.6406,1842,859.6406,1832,863.6406,1836,859.6406" style="stroke:#000000;stroke-width:1.0;"/><line style="stroke:#000000;stroke-width:1.0;" x1="678" x2="1838" y1="859.6406" y2="859.6406"/><text fill="#000000" font-family="sans-serif" font-size="20" lengthAdjust="spacing" textLength="303" x="685" y="852.9238">updateMedicalHistory($event)</text><polygon fill="#000000" points="3722.5,892.9219,3732.5,896.9219,3722.5,900.9219,3726.5,896.9219" style="stroke:#000000;stroke-width:1.0;"/><line style="stroke:#000000;stroke-width:1.0;" x1="1854" x2="3728.5" y1="896.9219" y2="896.9219"/><text fill="#000000" font-family="sans-serif" font-size="20" lengthAdjust="spacing" textLength="423" x="1861" y="890.2051">updateMedicalHistory(newMedicalHistory)</text><polygon fill="#000000" points="2541.5,930.2031,2531.5,934.2031,2541.5,938.2031,2537.5,934.2031" style="stroke:#000000;stroke-width:1.0;"/><line style="stroke:#000000;stroke-width:1.0;" x1="2535.5" x2="3733.5" y1="934.2031" y2="934.2031"/><text fill="#000000" font-family="sans-serif" font-size="20" lengthAdjust="spacing" textLength="751" x="2547.5" y="927.4863">Makes Http Request to add a free text entry in the patient's medical record</text><line style="stroke:#000000;stroke-width:1.0;" x1="2530.5" x2="2572.5" y1="971.4844" y2="971.4844"/><line style="stroke:#000000;stroke-width:1.0;" x1="2572.5" x2="2572.5" y1="971.4844" y2="984.4844"/><line style="stroke:#000000;stroke-width:1.0;" x1="2531.5" x2="2572.5" y1="984.4844" y2="984.4844"/><polygon fill="#000000" points="2541.5,980.4844,2531.5,984.4844,2541.5,988.4844,2537.5,984.4844" style="stroke:#000000;stroke-width:1.0;"/><text fill="#000000" font-family="sans-serif" font-size="20" lengthAdjust="spacing" textLength="563" x="2537.5" y="964.7676">Intercepts the request and adds the token to the header</text><path d="M2535,997.4844 L2535,1053.4844 L3054,1053.4844 L3054,1007.4844 L3044,997.4844 L2535,997.4844 " fill="#FEFFDD" style="stroke:#181818;stroke-width:0.5;"/><path d="M3044,997.4844 L3044,1007.4844 L3054,1007.4844 L3044,997.4844 " fill="#FEFFDD" style="stroke:#181818;stroke-width:0.5;"/><text fill="#000000" font-family="sans-serif" font-size="20" lengthAdjust="spacing" textLength="498" x="2541" y="1021.0488">The token is added to the header so that the MDV</text><text fill="#000000" font-family="sans-serif" font-size="20" lengthAdjust="spacing" textLength="442" x="2541" y="1044.3301">can authenticate and authorize the request.</text><polygon fill="#000000" points="3095.5,1084.3281,3105.5,1088.3281,3095.5,1092.3281,3099.5,1088.3281" style="stroke:#000000;stroke-width:1.0;"/><line style="stroke:#000000;stroke-width:1.0;" x1="2530.5" x2="3101.5" y1="1088.3281" y2="1088.3281"/><text fill="#000000" font-family="sans-serif" font-size="20" lengthAdjust="spacing" textLength="423" x="2537.5" y="1081.6113">updateMedicalHistory(newMedicalHistory)</text><line style="stroke:#000000;stroke-width:1.0;" x1="3117.5" x2="3159.5" y1="1125.6094" y2="1125.6094"/><line style="stroke:#000000;stroke-width:1.0;" x1="3159.5" x2="3159.5" y1="1125.6094" y2="1138.6094"/><line style="stroke:#000000;stroke-width:1.0;" x1="3118.5" x2="3159.5" y1="1138.6094" y2="1138.6094"/><polygon fill="#000000" points="3128.5,1134.6094,3118.5,1138.6094,3128.5,1142.6094,3124.5,1138.6094" style="stroke:#000000;stroke-width:1.0;"/><text fill="#000000" font-family="sans-serif" font-size="20" lengthAdjust="spacing" textLength="603" x="3124.5" y="1118.8926">Validates the data and updates the patient's medical record</text><polygon fill="#000000" points="2541.5,1171.8906,2531.5,1175.8906,2541.5,1179.8906,2537.5,1175.8906" style="stroke:#000000;stroke-width:1.0;"/><line style="stroke:#000000;stroke-width:1.0;stroke-dasharray:2.0,2.0;" x1="2535.5" x2="3111.5" y1="1175.8906" y2="1175.8906"/><text fill="#000000" font-family="sans-serif" font-size="20" lengthAdjust="spacing" textLength="311" x="2547.5" y="1169.1738">Returns Operation Status Code</text><polygon fill="#000000" points="3722.5,1209.1719,3732.5,1213.1719,3722.5,1217.1719,3726.5,1213.1719" style="stroke:#000000;stroke-width:1.0;"/><line style="stroke:#000000;stroke-width:1.0;stroke-dasharray:2.0,2.0;" x1="2525.5" x2="3728.5" y1="1213.1719" y2="1213.1719"/><text fill="#000000" font-family="sans-serif" font-size="20" lengthAdjust="spacing" textLength="305" x="2532.5" y="1206.4551">returns Operation Status Code</text><polygon fill="#000000" points="1865,1246.4531,1855,1250.4531,1865,1254.4531,1861,1250.4531" style="stroke:#000000;stroke-width:1.0;"/><line style="stroke:#000000;stroke-width:1.0;stroke-dasharray:2.0,2.0;" x1="1859" x2="3738.5" y1="1250.4531" y2="1250.4531"/><text fill="#000000" font-family="sans-serif" font-size="20" lengthAdjust="spacing" textLength="280" x="1871" y="1243.7363">returns Operation Response</text><polygon fill="#000000" points="689,1283.7344,679,1287.7344,689,1291.7344,685,1287.7344" style="stroke:#000000;stroke-width:1.0;"/><line style="stroke:#000000;stroke-width:1.0;stroke-dasharray:2.0,2.0;" x1="683" x2="1848" y1="1287.7344" y2="1287.7344"/><text fill="#000000" font-family="sans-serif" font-size="20" lengthAdjust="spacing" textLength="374" x="695" y="1281.0176">returns Operation In/Sucess message</text><polygon fill="#000000" points="57,1321.0156,47,1325.0156,57,1329.0156,53,1325.0156" style="stroke:#000000;stroke-width:1.0;"/><line style="stroke:#000000;stroke-width:1.0;stroke-dasharray:2.0,2.0;" x1="51" x2="672" y1="1325.0156" y2="1325.0156"/><text fill="#000000" font-family="sans-serif" font-size="20" lengthAdjust="spacing" textLength="374" x="63" y="1318.2988">returns Operation In/Sucess message</text><!--SRC=[tLRRJjj047ttLuoW4l10eLIzHHJ9kLXO8aMA2U-BFKcsSNRTtJKqhVhldLaxn8QGblQbQgGeodZEsJDdPoQnSwaAOSGYr-aSCyXm8ihSHLgvH7v3E3aE0YTTZd21jvZ3QuW6q9TYIf0WcCaC0HU5My825pTeRB1dLunm8HMwPO6WZPlf85W_INDXBNmFW5vTaSwdHfSgw-bSczFJMv6NU7dp6LDtTWQx_RU3C7g_ETLexNEY_g3RFzwSOz7SoXGzrQlePD3Tb0QxupZwC7ZdduN6wBigtCqfB_ZHr5vGH4nnithO7NIZDr6N8I9r5EXh_o4iX04HE9dAGYW7rnBlE3gEM-6T8MOo5Vcvj0HRzlIYq0gLs_4CmruxULnamk4so3ZiRUDFAdDywkKeQQU6fPl5og59iQ3aIa9Rxh1_pL7wyFNAMv93XOPmU4QLTI2qSmjEWyWo430nYE3mgmEIPvOW5RWPagDEKc3FKXDvSM0mrIPRCv99uvWvoO4EaDqaYhfh_d7lgFGM7DR8mrbLrr6d9gtB7Nd2JoNtw5v3AHbARwysN35xmLkTRGWZUpDiyL78AqqwC46NpjeS-q_hEcZeIe8myIpauL3CITEvSmMCy4k9rh70APBxjLqrDv1aqI29Wp1UaTpVe_MMcvf8g8plfWewFKV5tFnbXY934oXDJ4PEPmxqX2cvwQ_kawLbEEsD5WeiVnFEXxWt69GA1O8wYeedqSJgpwQ0Dhne6gfU1aYF-EIw0ABeSC5_OYKVprsweeduJiZFZTxvnDenWwuqYiQYG4C7QGM94wwqqDCPDY-TJs2TzQN_Dexl9_6mglSUuKPegTzi6vIi6io3f99EYfmCjBzeMO-gft9rr7P4urHkyt5TOeVMloroiQoQnlSu_t2GVzMLyiXFQENnKn-bthZ1gazQfF5wJoHqunMVehN8gFs8biKLxOg35lxnIl0-b1igsNz1lrZA7RIdjJ6U6q5qVZlolB7yoqNtdytiinr-EAtNrDjCOTVTn18gNhlTrEOmZ_xfONumbcjGh8wICaNBjLbB_pgU7ihdWkFW9m00]--></g></svg>