<?xml version="1.0" encoding="UTF-8" standalone="no"?><svg xmlns="http://www.w3.org/2000/svg" xmlns:xlink="http://www.w3.org/1999/xlink" contentStyleType="text/css" height="2073px" preserveAspectRatio="none" style="width:5046px;height:2073px;background:#FFFFFF;" version="1.1" viewBox="0 0 5046 2073" width="5046px" zoomAndPan="magnify"><defs/><g><text fill="#000000" font-family="sans-serif" font-size="14" font-weight="bold" lengthAdjust="spacing" textLength="166" x="2442.25" y="27.9951">Level 3 MDV Diagram</text><rect fill="#FFFFFF" height="651.7813" style="stroke:#181818;stroke-width:1.0;" width="10" x="19.5" y="90.5781"/><rect fill="#FFFFFF" height="1233.7188" style="stroke:#181818;stroke-width:1.0;" width="10" x="19.5" y="779.6406"/><rect fill="#FFFFFF" height="622.5" style="stroke:#181818;stroke-width:1.0;" width="10" x="794.5" y="119.8594"/><rect fill="#FFFFFF" height="1233.7188" style="stroke:#181818;stroke-width:1.0;" width="10" x="794.5" y="779.6406"/><rect fill="#FFFFFF" height="547.9375" style="stroke:#181818;stroke-width:1.0;" width="10" x="1559.5" y="157.1406"/><rect fill="#FFFFFF" height="1159.1563" style="stroke:#181818;stroke-width:1.0;" width="10" x="1559.5" y="816.9219"/><rect fill="#FFFFFF" height="473.375" style="stroke:#181818;stroke-width:1.0;" width="10" x="2084.5" y="194.4219"/><rect fill="#FFFFFF" height="1084.5938" style="stroke:#181818;stroke-width:1.0;" width="10" x="2084.5" y="854.2031"/><rect fill="#FFFFFF" height="236.6875" style="stroke:#181818;stroke-width:1.0;" width="10" x="2792.5" y="231.7031"/><rect fill="#FFFFFF" height="236.6875" style="stroke:#181818;stroke-width:1.0;" width="10" x="2792.5" y="891.4844"/><rect fill="#FFFFFF" height="411.8125" style="stroke:#181818;stroke-width:1.0;" width="10" x="2792.5" y="1327.5781"/><rect fill="#FFFFFF" height="162.125" style="stroke:#181818;stroke-width:1.0;" width="10" x="3271.5" y="268.9844"/><rect fill="#FFFFFF" height="162.125" style="stroke:#181818;stroke-width:1.0;" width="10" x="3271.5" y="928.7656"/><rect fill="#FFFFFF" height="162.125" style="stroke:#181818;stroke-width:1.0;" width="10" x="3271.5" y="1364.8594"/><rect fill="#FFFFFF" height="124.8438" style="stroke:#181818;stroke-width:1.0;" width="10" x="3520.5" y="505.6719"/><rect fill="#FFFFFF" height="124.8438" style="stroke:#181818;stroke-width:1.0;" width="10" x="3520.5" y="1165.4531"/><rect fill="#FFFFFF" height="124.8438" style="stroke:#181818;stroke-width:1.0;" width="10" x="3520.5" y="1776.6719"/><rect fill="#FFFFFF" height="43.2813" style="stroke:#181818;stroke-width:1.0;" width="10" x="3830.5" y="542.9531"/><rect fill="#FFFFFF" height="43.2813" style="stroke:#181818;stroke-width:1.0;" width="10" x="3830.5" y="1202.7344"/><rect fill="#FFFFFF" height="43.2813" style="stroke:#181818;stroke-width:1.0;" width="10" x="3830.5" y="1813.9531"/><rect fill="#FFFFFF" height="87.5625" style="stroke:#181818;stroke-width:1.0;" width="10" x="3996.5" y="306.2656"/><rect fill="#FFFFFF" height="87.5625" style="stroke:#181818;stroke-width:1.0;" width="10" x="3996.5" y="966.0469"/><rect fill="#FFFFFF" height="87.5625" style="stroke:#181818;stroke-width:1.0;" width="10" x="3996.5" y="1402.1406"/><rect fill="#FFFFFF" height="87.5625" style="stroke:#181818;stroke-width:1.0;" width="10" x="3996.5" y="1614.5469"/><line style="stroke:#181818;stroke-width:0.5;stroke-dasharray:5.0,5.0;" x1="24" x2="24" y1="80.5781" y2="2031.3594"/><line style="stroke:#181818;stroke-width:0.5;stroke-dasharray:5.0,5.0;" x1="799.5" x2="799.5" y1="80.5781" y2="2031.3594"/><line style="stroke:#181818;stroke-width:0.5;stroke-dasharray:5.0,5.0;" x1="1564.5" x2="1564.5" y1="80.5781" y2="2031.3594"/><line style="stroke:#181818;stroke-width:0.5;stroke-dasharray:5.0,5.0;" x1="2089.5" x2="2089.5" y1="80.5781" y2="2031.3594"/><line style="stroke:#181818;stroke-width:0.5;stroke-dasharray:5.0,5.0;" x1="2797" x2="2797" y1="80.5781" y2="2031.3594"/><line style="stroke:#181818;stroke-width:0.5;stroke-dasharray:5.0,5.0;" x1="3276.5" x2="3276.5" y1="80.5781" y2="2031.3594"/><line style="stroke:#181818;stroke-width:0.5;stroke-dasharray:5.0,5.0;" x1="3525.5" x2="3525.5" y1="80.5781" y2="2031.3594"/><line style="stroke:#181818;stroke-width:0.5;stroke-dasharray:5.0,5.0;" x1="3835.5" x2="3835.5" y1="80.5781" y2="2031.3594"/><line style="stroke:#181818;stroke-width:0.5;stroke-dasharray:5.0,5.0;" x1="4001.5" x2="4001.5" y1="80.5781" y2="2031.3594"/><rect fill="#E2E2F0" height="37.2813" rx="2.5" ry="2.5" style="stroke:#181818;stroke-width:0.5;" width="39" x="5" y="42.2969"/><text fill="#000000" font-family="sans-serif" font-size="20" lengthAdjust="spacing" textLength="25" x="12" y="67.8613">FE</text><rect fill="#E2E2F0" height="37.2813" rx="2.5" ry="2.5" style="stroke:#181818;stroke-width:0.5;" width="39" x="5" y="2030.3594"/><text fill="#000000" font-family="sans-serif" font-size="20" lengthAdjust="spacing" textLength="25" x="12" y="2055.9238">FE</text><rect fill="#E2E2F0" height="37.2813" rx="2.5" ry="2.5" style="stroke:#181818;stroke-width:0.5;" width="228" x="685.5" y="42.2969"/><text fill="#000000" font-family="sans-serif" font-size="20" lengthAdjust="spacing" textLength="214" x="692.5" y="67.8613">MedicalHistoryRouter</text><rect fill="#E2E2F0" height="37.2813" rx="2.5" ry="2.5" style="stroke:#181818;stroke-width:0.5;" width="228" x="685.5" y="2030.3594"/><text fill="#000000" font-family="sans-serif" font-size="20" lengthAdjust="spacing" textLength="214" x="692.5" y="2055.9238">MedicalHistoryRouter</text><rect fill="#E2E2F0" height="37.2813" rx="2.5" ry="2.5" style="stroke:#181818;stroke-width:0.5;" width="260" x="1434.5" y="42.2969"/><text fill="#000000" font-family="sans-serif" font-size="20" lengthAdjust="spacing" textLength="246" x="1441.5" y="67.8613">MedicalHistoryController</text><rect fill="#E2E2F0" height="37.2813" rx="2.5" ry="2.5" style="stroke:#181818;stroke-width:0.5;" width="260" x="1434.5" y="2030.3594"/><text fill="#000000" font-family="sans-serif" font-size="20" lengthAdjust="spacing" textLength="246" x="1441.5" y="2055.9238">MedicalHistoryController</text><rect fill="#E2E2F0" height="37.2813" rx="2.5" ry="2.5" style="stroke:#181818;stroke-width:0.5;" width="234" x="1972.5" y="42.2969"/><text fill="#000000" font-family="sans-serif" font-size="20" lengthAdjust="spacing" textLength="220" x="1979.5" y="67.8613">MedicalHistoryService</text><rect fill="#E2E2F0" height="37.2813" rx="2.5" ry="2.5" style="stroke:#181818;stroke-width:0.5;" width="234" x="1972.5" y="2030.3594"/><text fill="#000000" font-family="sans-serif" font-size="20" lengthAdjust="spacing" textLength="220" x="1979.5" y="2055.9238">MedicalHistoryService</text><rect fill="#E2E2F0" height="37.2813" rx="2.5" ry="2.5" style="stroke:#181818;stroke-width:0.5;" width="267" x="2664" y="42.2969"/><text fill="#000000" font-family="sans-serif" font-size="20" lengthAdjust="spacing" textLength="253" x="2671" y="67.8613">MedicalHistoryRepository</text><rect fill="#E2E2F0" height="37.2813" rx="2.5" ry="2.5" style="stroke:#181818;stroke-width:0.5;" width="267" x="2664" y="2030.3594"/><text fill="#000000" font-family="sans-serif" font-size="20" lengthAdjust="spacing" textLength="253" x="2671" y="2055.9238">MedicalHistoryRepository</text><rect fill="#E2E2F0" height="37.2813" rx="2.5" ry="2.5" style="stroke:#181818;stroke-width:0.5;" width="242" x="3155.5" y="42.2969"/><text fill="#000000" font-family="sans-serif" font-size="20" lengthAdjust="spacing" textLength="228" x="3162.5" y="67.8613">MedicalHistorySchema</text><rect fill="#E2E2F0" height="37.2813" rx="2.5" ry="2.5" style="stroke:#181818;stroke-width:0.5;" width="242" x="3155.5" y="2030.3594"/><text fill="#000000" font-family="sans-serif" font-size="20" lengthAdjust="spacing" textLength="228" x="3162.5" y="2055.9238">MedicalHistorySchema</text><rect fill="#E2E2F0" height="37.2813" rx="2.5" ry="2.5" style="stroke:#181818;stroke-width:0.5;" width="236" x="3407.5" y="42.2969"/><text fill="#000000" font-family="sans-serif" font-size="20" lengthAdjust="spacing" textLength="222" x="3414.5" y="67.8613">MedicalHistoryMapper</text><rect fill="#E2E2F0" height="37.2813" rx="2.5" ry="2.5" style="stroke:#181818;stroke-width:0.5;" width="236" x="3407.5" y="2030.3594"/><text fill="#000000" font-family="sans-serif" font-size="20" lengthAdjust="spacing" textLength="222" x="3414.5" y="2055.9238">MedicalHistoryMapper</text><rect fill="#E2E2F0" height="37.2813" rx="2.5" ry="2.5" style="stroke:#181818;stroke-width:0.5;" width="204" x="3733.5" y="42.2969"/><text fill="#000000" font-family="sans-serif" font-size="20" lengthAdjust="spacing" textLength="190" x="3740.5" y="67.8613">MedicalHistoryDTO</text><rect fill="#E2E2F0" height="37.2813" rx="2.5" ry="2.5" style="stroke:#181818;stroke-width:0.5;" width="204" x="3733.5" y="2030.3594"/><text fill="#000000" font-family="sans-serif" font-size="20" lengthAdjust="spacing" textLength="190" x="3740.5" y="2055.9238">MedicalHistoryDTO</text><rect fill="#E2E2F0" height="37.2813" rx="2.5" ry="2.5" style="stroke:#181818;stroke-width:0.5;" width="108" x="3947.5" y="42.2969"/><text fill="#000000" font-family="sans-serif" font-size="20" lengthAdjust="spacing" textLength="94" x="3954.5" y="67.8613">Database</text><rect fill="#E2E2F0" height="37.2813" rx="2.5" ry="2.5" style="stroke:#181818;stroke-width:0.5;" width="108" x="3947.5" y="2030.3594"/><text fill="#000000" font-family="sans-serif" font-size="20" lengthAdjust="spacing" textLength="94" x="3954.5" y="2055.9238">Database</text><rect fill="#FFFFFF" height="651.7813" style="stroke:#181818;stroke-width:1.0;" width="10" x="19.5" y="90.5781"/><rect fill="#FFFFFF" height="1233.7188" style="stroke:#181818;stroke-width:1.0;" width="10" x="19.5" y="779.6406"/><rect fill="#FFFFFF" height="622.5" style="stroke:#181818;stroke-width:1.0;" width="10" x="794.5" y="119.8594"/><rect fill="#FFFFFF" height="1233.7188" style="stroke:#181818;stroke-width:1.0;" width="10" x="794.5" y="779.6406"/><rect fill="#FFFFFF" height="547.9375" style="stroke:#181818;stroke-width:1.0;" width="10" x="1559.5" y="157.1406"/><rect fill="#FFFFFF" height="1159.1563" style="stroke:#181818;stroke-width:1.0;" width="10" x="1559.5" y="816.9219"/><rect fill="#FFFFFF" height="473.375" style="stroke:#181818;stroke-width:1.0;" width="10" x="2084.5" y="194.4219"/><rect fill="#FFFFFF" height="1084.5938" style="stroke:#181818;stroke-width:1.0;" width="10" x="2084.5" y="854.2031"/><rect fill="#FFFFFF" height="236.6875" style="stroke:#181818;stroke-width:1.0;" width="10" x="2792.5" y="231.7031"/><rect fill="#FFFFFF" height="236.6875" style="stroke:#181818;stroke-width:1.0;" width="10" x="2792.5" y="891.4844"/><rect fill="#FFFFFF" height="411.8125" style="stroke:#181818;stroke-width:1.0;" width="10" x="2792.5" y="1327.5781"/><rect fill="#FFFFFF" height="162.125" style="stroke:#181818;stroke-width:1.0;" width="10" x="3271.5" y="268.9844"/><rect fill="#FFFFFF" height="162.125" style="stroke:#181818;stroke-width:1.0;" width="10" x="3271.5" y="928.7656"/><rect fill="#FFFFFF" height="162.125" style="stroke:#181818;stroke-width:1.0;" width="10" x="3271.5" y="1364.8594"/><rect fill="#FFFFFF" height="124.8438" style="stroke:#181818;stroke-width:1.0;" width="10" x="3520.5" y="505.6719"/><rect fill="#FFFFFF" height="124.8438" style="stroke:#181818;stroke-width:1.0;" width="10" x="3520.5" y="1165.4531"/><rect fill="#FFFFFF" height="124.8438" style="stroke:#181818;stroke-width:1.0;" width="10" x="3520.5" y="1776.6719"/><rect fill="#FFFFFF" height="43.2813" style="stroke:#181818;stroke-width:1.0;" width="10" x="3830.5" y="542.9531"/><rect fill="#FFFFFF" height="43.2813" style="stroke:#181818;stroke-width:1.0;" width="10" x="3830.5" y="1202.7344"/><rect fill="#FFFFFF" height="43.2813" style="stroke:#181818;stroke-width:1.0;" width="10" x="3830.5" y="1813.9531"/><rect fill="#FFFFFF" height="87.5625" style="stroke:#181818;stroke-width:1.0;" width="10" x="3996.5" y="306.2656"/><rect fill="#FFFFFF" height="87.5625" style="stroke:#181818;stroke-width:1.0;" width="10" x="3996.5" y="966.0469"/><rect fill="#FFFFFF" height="87.5625" style="stroke:#181818;stroke-width:1.0;" width="10" x="3996.5" y="1402.1406"/><rect fill="#FFFFFF" height="87.5625" style="stroke:#181818;stroke-width:1.0;" width="10" x="3996.5" y="1614.5469"/><polygon fill="#181818" points="782.5,115.8594,792.5,119.8594,782.5,123.8594,786.5,119.8594" style="stroke:#181818;stroke-width:1.0;"/><line style="stroke:#181818;stroke-width:1.0;" x1="29.5" x2="788.5" y1="119.8594" y2="119.8594"/><text fill="#000000" font-family="sans-serif" font-size="20" lengthAdjust="spacing" textLength="492" x="36.5" y="113.1426">Makes Http Request to get Medical History's data</text><polygon fill="#181818" points="1547.5,153.1406,1557.5,157.1406,1547.5,161.1406,1551.5,157.1406" style="stroke:#181818;stroke-width:1.0;"/><line style="stroke:#181818;stroke-width:1.0;" x1="804.5" x2="1553.5" y1="157.1406" y2="157.1406"/><text fill="#000000" font-family="sans-serif" font-size="20" lengthAdjust="spacing" textLength="496" x="811.5" y="150.4238">getMedicalHistory(patientMedicalRecordNumber)</text><polygon fill="#181818" points="2072.5,190.4219,2082.5,194.4219,2072.5,198.4219,2076.5,194.4219" style="stroke:#181818;stroke-width:1.0;"/><line style="stroke:#181818;stroke-width:1.0;" x1="1569.5" x2="2078.5" y1="194.4219" y2="194.4219"/><text fill="#000000" font-family="sans-serif" font-size="20" lengthAdjust="spacing" textLength="496" x="1576.5" y="187.7051">getMedicalHistory(patientMedicalRecordNumber)</text><polygon fill="#181818" points="2780.5,227.7031,2790.5,231.7031,2780.5,235.7031,2784.5,231.7031" style="stroke:#181818;stroke-width:1.0;"/><line style="stroke:#181818;stroke-width:1.0;" x1="2094.5" x2="2786.5" y1="231.7031" y2="231.7031"/><text fill="#000000" font-family="sans-serif" font-size="20" lengthAdjust="spacing" textLength="679" x="2101.5" y="224.9863">findByPatientMedicalRecordNumber(patientMedicalRecordNumber)</text><polygon fill="#181818" points="3259.5,264.9844,3269.5,268.9844,3259.5,272.9844,3263.5,268.9844" style="stroke:#181818;stroke-width:1.0;"/><line style="stroke:#181818;stroke-width:1.0;" x1="2802.5" x2="3265.5" y1="268.9844" y2="268.9844"/><text fill="#000000" font-family="sans-serif" font-size="20" lengthAdjust="spacing" textLength="153" x="2809.5" y="262.2676">findOne(query)</text><polygon fill="#181818" points="3984.5,302.2656,3994.5,306.2656,3984.5,310.2656,3988.5,306.2656" style="stroke:#181818;stroke-width:1.0;"/><line style="stroke:#181818;stroke-width:1.0;" x1="3281.5" x2="3990.5" y1="306.2656" y2="306.2656"/><text fill="#000000" font-family="sans-serif" font-size="20" lengthAdjust="spacing" textLength="73" x="3288.5" y="299.5488">query()</text><line style="stroke:#181818;stroke-width:1.0;" x1="4006.5" x2="4048.5" y1="343.5469" y2="343.5469"/><line style="stroke:#181818;stroke-width:1.0;" x1="4048.5" x2="4048.5" y1="343.5469" y2="356.5469"/><line style="stroke:#181818;stroke-width:1.0;" x1="4007.5" x2="4048.5" y1="356.5469" y2="356.5469"/><polygon fill="#181818" points="4017.5,352.5469,4007.5,356.5469,4017.5,360.5469,4013.5,356.5469" style="stroke:#181818;stroke-width:1.0;"/><text fill="#000000" font-family="sans-serif" font-size="20" lengthAdjust="spacing" textLength="1026" x="4013.5" y="336.8301">SELECT * FROM MedicalHistory WHERE patientMedicalRecordNumber = patientMedicalRecordNumber</text><polygon fill="#181818" points="3292.5,389.8281,3282.5,393.8281,3292.5,397.8281,3288.5,393.8281" style="stroke:#181818;stroke-width:1.0;"/><line style="stroke:#181818;stroke-width:1.0;stroke-dasharray:2.0,2.0;" x1="3286.5" x2="4000.5" y1="393.8281" y2="393.8281"/><text fill="#000000" font-family="sans-serif" font-size="20" lengthAdjust="spacing" textLength="141" x="3298.5" y="387.1113">returns Result</text><polygon fill="#181818" points="2813.5,427.1094,2803.5,431.1094,2813.5,435.1094,2809.5,431.1094" style="stroke:#181818;stroke-width:1.0;"/><line style="stroke:#181818;stroke-width:1.0;stroke-dasharray:2.0,2.0;" x1="2807.5" x2="3275.5" y1="431.1094" y2="431.1094"/><text fill="#000000" font-family="sans-serif" font-size="20" lengthAdjust="spacing" textLength="225" x="2819.5" y="424.3926">returns MedicalHistory</text><polygon fill="#181818" points="2105.5,464.3906,2095.5,468.3906,2105.5,472.3906,2101.5,468.3906" style="stroke:#181818;stroke-width:1.0;"/><line style="stroke:#181818;stroke-width:1.0;stroke-dasharray:2.0,2.0;" x1="2099.5" x2="2796.5" y1="468.3906" y2="468.3906"/><text fill="#000000" font-family="sans-serif" font-size="20" lengthAdjust="spacing" textLength="225" x="2111.5" y="461.6738">returns MedicalHistory</text><polygon fill="#181818" points="3508.5,501.6719,3518.5,505.6719,3508.5,509.6719,3512.5,505.6719" style="stroke:#181818;stroke-width:1.0;"/><line style="stroke:#181818;stroke-width:1.0;" x1="2094.5" x2="3514.5" y1="505.6719" y2="505.6719"/><text fill="#000000" font-family="sans-serif" font-size="20" lengthAdjust="spacing" textLength="226" x="2101.5" y="498.9551">toDTO(MedicalHistory)</text><polygon fill="#181818" points="3818.5,538.9531,3828.5,542.9531,3818.5,546.9531,3822.5,542.9531" style="stroke:#181818;stroke-width:1.0;"/><line style="stroke:#181818;stroke-width:1.0;" x1="3530.5" x2="3824.5" y1="542.9531" y2="542.9531"/><text fill="#000000" font-family="sans-serif" font-size="20" lengthAdjust="spacing" textLength="281" x="3537.5" y="536.2363">create(MedicalHistoryProps)</text><line style="stroke:#181818;stroke-width:1.0;" x1="3840.5" x2="3882.5" y1="585.2344" y2="585.2344"/><line style="stroke:#181818;stroke-width:1.0;" x1="3882.5" x2="3882.5" y1="585.2344" y2="598.2344"/><line style="stroke:#181818;stroke-width:1.0;" x1="3835.5" x2="3882.5" y1="598.2344" y2="598.2344"/><polygon fill="#181818" points="3845.5,594.2344,3835.5,598.2344,3845.5,602.2344,3841.5,598.2344" style="stroke:#181818;stroke-width:1.0;"/><text fill="#000000" font-family="sans-serif" font-size="20" lengthAdjust="spacing" textLength="79" x="3847.5" y="578.5176">create()</text><polygon fill="#181818" points="2105.5,626.5156,2095.5,630.5156,2105.5,634.5156,2101.5,630.5156" style="stroke:#181818;stroke-width:1.0;"/><line style="stroke:#181818;stroke-width:1.0;" x1="2099.5" x2="3524.5" y1="630.5156" y2="630.5156"/><text fill="#000000" font-family="sans-serif" font-size="20" lengthAdjust="spacing" textLength="268" x="2111.5" y="623.7988">returns MedicalHistoryDTO</text><polygon fill="#181818" points="1580.5,663.7969,1570.5,667.7969,1580.5,671.7969,1576.5,667.7969" style="stroke:#181818;stroke-width:1.0;"/><line style="stroke:#181818;stroke-width:1.0;" x1="1574.5" x2="2088.5" y1="667.7969" y2="667.7969"/><text fill="#000000" font-family="sans-serif" font-size="20" lengthAdjust="spacing" textLength="341" x="1586.5" y="661.0801">returns result(MedicalHistoryDTO)</text><polygon fill="#181818" points="815.5,701.0781,805.5,705.0781,815.5,709.0781,811.5,705.0781" style="stroke:#181818;stroke-width:1.0;"/><line style="stroke:#181818;stroke-width:1.0;" x1="809.5" x2="1563.5" y1="705.0781" y2="705.0781"/><text fill="#000000" font-family="sans-serif" font-size="20" lengthAdjust="spacing" textLength="305" x="821.5" y="698.3613">returns Operation Status Code</text><polygon fill="#181818" points="35.5,738.3594,25.5,742.3594,35.5,746.3594,31.5,742.3594" style="stroke:#181818;stroke-width:1.0;"/><line style="stroke:#181818;stroke-width:1.0;" x1="29.5" x2="798.5" y1="742.3594" y2="742.3594"/><text fill="#000000" font-family="sans-serif" font-size="20" lengthAdjust="spacing" textLength="305" x="41.5" y="735.6426">returns Operation Status Code</text><polygon fill="#181818" points="782.5,775.6406,792.5,779.6406,782.5,783.6406,786.5,779.6406" style="stroke:#181818;stroke-width:1.0;"/><line style="stroke:#181818;stroke-width:1.0;" x1="29.5" x2="788.5" y1="779.6406" y2="779.6406"/><text fill="#000000" font-family="sans-serif" font-size="20" lengthAdjust="spacing" textLength="751" x="36.5" y="772.9238">Makes Http Request to add a free text entry in the patient's medical record</text><polygon fill="#181818" points="1547.5,812.9219,1557.5,816.9219,1547.5,820.9219,1551.5,816.9219" style="stroke:#181818;stroke-width:1.0;"/><line style="stroke:#181818;stroke-width:1.0;" x1="804.5" x2="1553.5" y1="816.9219" y2="816.9219"/><text fill="#000000" font-family="sans-serif" font-size="20" lengthAdjust="spacing" textLength="736" x="811.5" y="810.2051">updateMedicalHistory(patientMedicalRecordNumber, MedicalHistoryDTO)</text><polygon fill="#181818" points="2072.5,850.2031,2082.5,854.2031,2072.5,858.2031,2076.5,854.2031" style="stroke:#181818;stroke-width:1.0;"/><line style="stroke:#181818;stroke-width:1.0;" x1="1569.5" x2="2078.5" y1="854.2031" y2="854.2031"/><text fill="#000000" font-family="sans-serif" font-size="20" lengthAdjust="spacing" textLength="365" x="1576.5" y="847.4863">updateMedicalHistory(req, res, next)</text><polygon fill="#181818" points="2780.5,887.4844,2790.5,891.4844,2780.5,895.4844,2784.5,891.4844" style="stroke:#181818;stroke-width:1.0;"/><line style="stroke:#181818;stroke-width:1.0;" x1="2094.5" x2="2786.5" y1="891.4844" y2="891.4844"/><text fill="#000000" font-family="sans-serif" font-size="20" lengthAdjust="spacing" textLength="679" x="2101.5" y="884.7676">findByPatientMedicalRecordNumber(patientMedicalRecordNumber)</text><polygon fill="#181818" points="3259.5,924.7656,3269.5,928.7656,3259.5,932.7656,3263.5,928.7656" style="stroke:#181818;stroke-width:1.0;"/><line style="stroke:#181818;stroke-width:1.0;" x1="2802.5" x2="3265.5" y1="928.7656" y2="928.7656"/><text fill="#000000" font-family="sans-serif" font-size="20" lengthAdjust="spacing" textLength="153" x="2809.5" y="922.0488">findOne(query)</text><polygon fill="#181818" points="3984.5,962.0469,3994.5,966.0469,3984.5,970.0469,3988.5,966.0469" style="stroke:#181818;stroke-width:1.0;"/><line style="stroke:#181818;stroke-width:1.0;" x1="3281.5" x2="3990.5" y1="966.0469" y2="966.0469"/><text fill="#000000" font-family="sans-serif" font-size="20" lengthAdjust="spacing" textLength="130" x="3288.5" y="959.3301">query(query)</text><line style="stroke:#181818;stroke-width:1.0;" x1="4006.5" x2="4048.5" y1="1003.3281" y2="1003.3281"/><line style="stroke:#181818;stroke-width:1.0;" x1="4048.5" x2="4048.5" y1="1003.3281" y2="1016.3281"/><line style="stroke:#181818;stroke-width:1.0;" x1="4007.5" x2="4048.5" y1="1016.3281" y2="1016.3281"/><polygon fill="#181818" points="4017.5,1012.3281,4007.5,1016.3281,4017.5,1020.3281,4013.5,1016.3281" style="stroke:#181818;stroke-width:1.0;"/><text fill="#000000" font-family="sans-serif" font-size="20" lengthAdjust="spacing" textLength="1026" x="4013.5" y="996.6113">SELECT * FROM MedicalHistory WHERE patientMedicalRecordNumber = patientMedicalRecordNumber</text><polygon fill="#181818" points="3292.5,1049.6094,3282.5,1053.6094,3292.5,1057.6094,3288.5,1053.6094" style="stroke:#181818;stroke-width:1.0;"/><line style="stroke:#181818;stroke-width:1.0;stroke-dasharray:2.0,2.0;" x1="3286.5" x2="4000.5" y1="1053.6094" y2="1053.6094"/><text fill="#000000" font-family="sans-serif" font-size="20" lengthAdjust="spacing" textLength="141" x="3298.5" y="1046.8926">returns Result</text><polygon fill="#181818" points="2813.5,1086.8906,2803.5,1090.8906,2813.5,1094.8906,2809.5,1090.8906" style="stroke:#181818;stroke-width:1.0;"/><line style="stroke:#181818;stroke-width:1.0;stroke-dasharray:2.0,2.0;" x1="2807.5" x2="3275.5" y1="1090.8906" y2="1090.8906"/><text fill="#000000" font-family="sans-serif" font-size="20" lengthAdjust="spacing" textLength="225" x="2819.5" y="1084.1738">returns MedicalHistory</text><polygon fill="#181818" points="2105.5,1124.1719,2095.5,1128.1719,2105.5,1132.1719,2101.5,1128.1719" style="stroke:#181818;stroke-width:1.0;"/><line style="stroke:#181818;stroke-width:1.0;stroke-dasharray:2.0,2.0;" x1="2099.5" x2="2796.5" y1="1128.1719" y2="1128.1719"/><text fill="#000000" font-family="sans-serif" font-size="20" lengthAdjust="spacing" textLength="225" x="2111.5" y="1121.4551">returns MedicalHistory</text><polygon fill="#181818" points="3508.5,1161.4531,3518.5,1165.4531,3508.5,1169.4531,3512.5,1165.4531" style="stroke:#181818;stroke-width:1.0;"/><line style="stroke:#181818;stroke-width:1.0;" x1="2094.5" x2="3514.5" y1="1165.4531" y2="1165.4531"/><text fill="#000000" font-family="sans-serif" font-size="20" lengthAdjust="spacing" textLength="218" x="2101.5" y="1158.7363">toDto(MedicalHistory)</text><polygon fill="#181818" points="3818.5,1198.7344,3828.5,1202.7344,3818.5,1206.7344,3822.5,1202.7344" style="stroke:#181818;stroke-width:1.0;"/><line style="stroke:#181818;stroke-width:1.0;" x1="3530.5" x2="3824.5" y1="1202.7344" y2="1202.7344"/><text fill="#000000" font-family="sans-serif" font-size="20" lengthAdjust="spacing" textLength="281" x="3537.5" y="1196.0176">create(MedicalHistoryProps)</text><line style="stroke:#181818;stroke-width:1.0;" x1="3840.5" x2="3882.5" y1="1245.0156" y2="1245.0156"/><line style="stroke:#181818;stroke-width:1.0;" x1="3882.5" x2="3882.5" y1="1245.0156" y2="1258.0156"/><line style="stroke:#181818;stroke-width:1.0;" x1="3835.5" x2="3882.5" y1="1258.0156" y2="1258.0156"/><polygon fill="#181818" points="3845.5,1254.0156,3835.5,1258.0156,3845.5,1262.0156,3841.5,1258.0156" style="stroke:#181818;stroke-width:1.0;"/><text fill="#000000" font-family="sans-serif" font-size="20" lengthAdjust="spacing" textLength="79" x="3847.5" y="1238.2988">create()</text><polygon fill="#181818" points="2105.5,1286.2969,2095.5,1290.2969,2105.5,1294.2969,2101.5,1290.2969" style="stroke:#181818;stroke-width:1.0;"/><line style="stroke:#181818;stroke-width:1.0;" x1="2099.5" x2="3524.5" y1="1290.2969" y2="1290.2969"/><text fill="#000000" font-family="sans-serif" font-size="20" lengthAdjust="spacing" textLength="268" x="2111.5" y="1283.5801">returns MedicalHistoryDTO</text><polygon fill="#181818" points="2780.5,1323.5781,2790.5,1327.5781,2780.5,1331.5781,2784.5,1327.5781" style="stroke:#181818;stroke-width:1.0;"/><line style="stroke:#181818;stroke-width:1.0;" x1="2094.5" x2="2786.5" y1="1327.5781" y2="1327.5781"/><text fill="#000000" font-family="sans-serif" font-size="20" lengthAdjust="spacing" textLength="208" x="2101.5" y="1320.8613">save(MedicalHistory)</text><polygon fill="#181818" points="3259.5,1360.8594,3269.5,1364.8594,3259.5,1368.8594,3263.5,1364.8594" style="stroke:#181818;stroke-width:1.0;"/><line style="stroke:#181818;stroke-width:1.0;" x1="2802.5" x2="3265.5" y1="1364.8594" y2="1364.8594"/><text fill="#000000" font-family="sans-serif" font-size="20" lengthAdjust="spacing" textLength="153" x="2809.5" y="1358.1426">findOne(query)</text><polygon fill="#181818" points="3984.5,1398.1406,3994.5,1402.1406,3984.5,1406.1406,3988.5,1402.1406" style="stroke:#181818;stroke-width:1.0;"/><line style="stroke:#181818;stroke-width:1.0;" x1="3281.5" x2="3990.5" y1="1402.1406" y2="1402.1406"/><text fill="#000000" font-family="sans-serif" font-size="20" lengthAdjust="spacing" textLength="130" x="3288.5" y="1395.4238">query(query)</text><line style="stroke:#181818;stroke-width:1.0;" x1="4006.5" x2="4048.5" y1="1439.4219" y2="1439.4219"/><line style="stroke:#181818;stroke-width:1.0;" x1="4048.5" x2="4048.5" y1="1439.4219" y2="1452.4219"/><line style="stroke:#181818;stroke-width:1.0;" x1="4007.5" x2="4048.5" y1="1452.4219" y2="1452.4219"/><polygon fill="#181818" points="4017.5,1448.4219,4007.5,1452.4219,4017.5,1456.4219,4013.5,1452.4219" style="stroke:#181818;stroke-width:1.0;"/><text fill="#000000" font-family="sans-serif" font-size="20" lengthAdjust="spacing" textLength="464" x="4013.5" y="1432.7051">SELECT * FROM MedicalHistory WHERE id = id</text><polygon fill="#181818" points="3292.5,1485.7031,3282.5,1489.7031,3292.5,1493.7031,3288.5,1489.7031" style="stroke:#181818;stroke-width:1.0;"/><line style="stroke:#181818;stroke-width:1.0;stroke-dasharray:2.0,2.0;" x1="3286.5" x2="4000.5" y1="1489.7031" y2="1489.7031"/><text fill="#000000" font-family="sans-serif" font-size="20" lengthAdjust="spacing" textLength="141" x="3298.5" y="1482.9863">returns Result</text><polygon fill="#181818" points="2813.5,1522.9844,2803.5,1526.9844,2813.5,1530.9844,2809.5,1526.9844" style="stroke:#181818;stroke-width:1.0;"/><line style="stroke:#181818;stroke-width:1.0;stroke-dasharray:2.0,2.0;" x1="2807.5" x2="3275.5" y1="1526.9844" y2="1526.9844"/><text fill="#000000" font-family="sans-serif" font-size="20" lengthAdjust="spacing" textLength="225" x="2819.5" y="1520.2676">returns MedicalHistory</text><line style="stroke:#181818;stroke-width:1.0;" x1="2802.5" x2="2844.5" y1="1564.2656" y2="1564.2656"/><line style="stroke:#181818;stroke-width:1.0;" x1="2844.5" x2="2844.5" y1="1564.2656" y2="1577.2656"/><line style="stroke:#181818;stroke-width:1.0;" x1="2803.5" x2="2844.5" y1="1577.2656" y2="1577.2656"/><polygon fill="#181818" points="2813.5,1573.2656,2803.5,1577.2656,2813.5,1581.2656,2809.5,1577.2656" style="stroke:#181818;stroke-width:1.0;"/><text fill="#000000" font-family="sans-serif" font-size="20" lengthAdjust="spacing" textLength="455" x="2809.5" y="1557.5488">Adds the free text entry to the MedicalHistory</text><polygon fill="#181818" points="3984.5,1610.5469,3994.5,1614.5469,3984.5,1618.5469,3988.5,1614.5469" style="stroke:#181818;stroke-width:1.0;"/><line style="stroke:#181818;stroke-width:1.0;" x1="2802.5" x2="3990.5" y1="1614.5469" y2="1614.5469"/><text fill="#000000" font-family="sans-serif" font-size="20" lengthAdjust="spacing" textLength="208" x="2809.5" y="1607.8301">save(MedicalHistory)</text><line style="stroke:#181818;stroke-width:1.0;" x1="4006.5" x2="4048.5" y1="1651.8281" y2="1651.8281"/><line style="stroke:#181818;stroke-width:1.0;" x1="4048.5" x2="4048.5" y1="1651.8281" y2="1664.8281"/><line style="stroke:#181818;stroke-width:1.0;" x1="4007.5" x2="4048.5" y1="1664.8281" y2="1664.8281"/><polygon fill="#181818" points="4017.5,1660.8281,4007.5,1664.8281,4017.5,1668.8281,4013.5,1664.8281" style="stroke:#181818;stroke-width:1.0;"/><text fill="#000000" font-family="sans-serif" font-size="20" lengthAdjust="spacing" textLength="456" x="4013.5" y="1645.1113">UPDATE MedicalHistory SET ... WHERE id = id</text><polygon fill="#181818" points="2813.5,1698.1094,2803.5,1702.1094,2813.5,1706.1094,2809.5,1702.1094" style="stroke:#181818;stroke-width:1.0;"/><line style="stroke:#181818;stroke-width:1.0;stroke-dasharray:2.0,2.0;" x1="2807.5" x2="4000.5" y1="1702.1094" y2="1702.1094"/><text fill="#000000" font-family="sans-serif" font-size="20" lengthAdjust="spacing" textLength="141" x="2819.5" y="1695.3926">returns Result</text><polygon fill="#181818" points="2105.5,1735.3906,2095.5,1739.3906,2105.5,1743.3906,2101.5,1739.3906" style="stroke:#181818;stroke-width:1.0;"/><line style="stroke:#181818;stroke-width:1.0;" x1="2099.5" x2="2796.5" y1="1739.3906" y2="1739.3906"/><text fill="#000000" font-family="sans-serif" font-size="20" lengthAdjust="spacing" textLength="225" x="2111.5" y="1732.6738">returns MedicalHistory</text><polygon fill="#181818" points="3508.5,1772.6719,3518.5,1776.6719,3508.5,1780.6719,3512.5,1776.6719" style="stroke:#181818;stroke-width:1.0;"/><line style="stroke:#181818;stroke-width:1.0;" x1="2094.5" x2="3514.5" y1="1776.6719" y2="1776.6719"/><text fill="#000000" font-family="sans-serif" font-size="20" lengthAdjust="spacing" textLength="218" x="2101.5" y="1769.9551">toDto(MedicalHistory)</text><polygon fill="#181818" points="3818.5,1809.9531,3828.5,1813.9531,3818.5,1817.9531,3822.5,1813.9531" style="stroke:#181818;stroke-width:1.0;"/><line style="stroke:#181818;stroke-width:1.0;" x1="3530.5" x2="3824.5" y1="1813.9531" y2="1813.9531"/><text fill="#000000" font-family="sans-serif" font-size="20" lengthAdjust="spacing" textLength="281" x="3537.5" y="1807.2363">create(MedicalHistoryProps)</text><line style="stroke:#181818;stroke-width:1.0;" x1="3840.5" x2="3882.5" y1="1856.2344" y2="1856.2344"/><line style="stroke:#181818;stroke-width:1.0;" x1="3882.5" x2="3882.5" y1="1856.2344" y2="1869.2344"/><line style="stroke:#181818;stroke-width:1.0;" x1="3835.5" x2="3882.5" y1="1869.2344" y2="1869.2344"/><polygon fill="#181818" points="3845.5,1865.2344,3835.5,1869.2344,3845.5,1873.2344,3841.5,1869.2344" style="stroke:#181818;stroke-width:1.0;"/><text fill="#000000" font-family="sans-serif" font-size="20" lengthAdjust="spacing" textLength="79" x="3847.5" y="1849.5176">create()</text><polygon fill="#181818" points="2105.5,1897.5156,2095.5,1901.5156,2105.5,1905.5156,2101.5,1901.5156" style="stroke:#181818;stroke-width:1.0;"/><line style="stroke:#181818;stroke-width:1.0;" x1="2099.5" x2="3524.5" y1="1901.5156" y2="1901.5156"/><text fill="#000000" font-family="sans-serif" font-size="20" lengthAdjust="spacing" textLength="268" x="2111.5" y="1894.7988">returns MedicalHistoryDTO</text><polygon fill="#181818" points="1580.5,1934.7969,1570.5,1938.7969,1580.5,1942.7969,1576.5,1938.7969" style="stroke:#181818;stroke-width:1.0;"/><line style="stroke:#181818;stroke-width:1.0;" x1="1574.5" x2="2088.5" y1="1938.7969" y2="1938.7969"/><text fill="#000000" font-family="sans-serif" font-size="20" lengthAdjust="spacing" textLength="341" x="1586.5" y="1932.0801">returns result(MedicalHistoryDTO)</text><polygon fill="#181818" points="815.5,1972.0781,805.5,1976.0781,815.5,1980.0781,811.5,1976.0781" style="stroke:#181818;stroke-width:1.0;"/><line style="stroke:#181818;stroke-width:1.0;" x1="809.5" x2="1563.5" y1="1976.0781" y2="1976.0781"/><text fill="#000000" font-family="sans-serif" font-size="20" lengthAdjust="spacing" textLength="305" x="821.5" y="1969.3613">returns Operation Status Code</text><polygon fill="#181818" points="35.5,2009.3594,25.5,2013.3594,35.5,2017.3594,31.5,2013.3594" style="stroke:#181818;stroke-width:1.0;"/><line style="stroke:#181818;stroke-width:1.0;" x1="29.5" x2="798.5" y1="2013.3594" y2="2013.3594"/><text fill="#000000" font-family="sans-serif" font-size="20" lengthAdjust="spacing" textLength="305" x="41.5" y="2006.6426">returns Operation Status Code</text><!--SRC=[vLLRRzCm67t6l-BJzh0EZMaCSQl6f2HEDAI5Laa7prxohJLBuyns2WNntt5kMbBIi26G64pgjDhd79_lEdNDqun9jan4T8qnn7Z5yaHx8jKX_u9mV4I8vZf1ECSL9l0CVFeUA6Tpmo5amMC4N6Pw3KjSNg9KP4yrad3EKzJh3458lH24tDv42LCAlX8mFpQBhkTIv6diY4J8avCLItASN7x4I9-UmYvzuLhUgtwe5AB4UDIrwL4_Hg5SyGXBgQVUiMltmM3tugttsdrPtbbM83vLntPYSEHRstjcJjWS-zt3hcjxppsxe1YuvX7FMAh1Su4fyxjpkEDZp2EMd76bXLm78jSeTmgW5Gm17LCTAPAa0Jj3uB0AlqA6W-zZ9XGl_gezJ0TremKkMIqxwC1dMTPOzOU0T3QfKBIBeaopIwQg6AXD28iqNp6DHK9DPf-S6hDZyDarAZZJEeC0Rt9K6hI0EMgedu7wdJq5iP6ybJ7fje9InXaNXAwjKSOqnxGv3J0ICdwN5-s-tz9mYEMK6k6lQuJ42gjmfcEuucbihwTRYNVKD6KqdygPKwbEKXoP1CbrvsqJG5X6GEqnbDUZrht9ExMRsz0zTvqPF0OlcFZG3HK-dBc12zlDmPk1o_AHngj4dSjKcN8givH8Z6qtfTacLmsoQwNDAEChyb2Nw0wC8dDLEVonQINJdgCkkfq-drX-YQLZY2IQimtmL8fCjHcKM7I3iTzvdpQIM-qQIns6tnXk9K-MoHlzGEo-5JRT6zmo9sPiJQ542g5cEbVWY1WxBAUU6y-z3ojeVpCZ_DCPPd4C3Aua8cZyhC6qZkapde9UODDBPgYNzPZBifywMw9_rFFCx06yywGUG4yI-nT0hxB4cuEY70UGcYZ-vhdV157xqNy__LeycEalSgBO2WSC_zxkk5zpyDWq0O__VB5hXXN7gbmLcnl4h9RYU4EffXR132Un4_V5b5epTpFWq9t1uU7Xbi3RuVG7tfJeN-_O1_N_wZi0]--></g></svg>