<?xml version="1.0" encoding="UTF-8" standalone="no"?><svg xmlns="http://www.w3.org/2000/svg" xmlns:xlink="http://www.w3.org/1999/xlink" contentStyleType="text/css" height="642px" preserveAspectRatio="none" style="width:678px;height:642px;background:#FFFFFF;" version="1.1" viewBox="0 0 678 642" width="678px" zoomAndPan="magnify"><defs/><g><text fill="#000000" font-family="sans-serif" font-size="14" font-weight="bold" lengthAdjust="spacing" textLength="287" x="197.25" y="27.9951">Patient Profile Update Flow - Level 1</text><rect fill="#FFFFFF" height="380.8125" style="stroke:#181818;stroke-width:1.0;" width="10" x="317.5" y="164.8594"/><rect fill="none" height="121.125" style="stroke:#000000;stroke-width:1.5;" width="617.5" x="10" y="304.7031"/><line style="stroke:#181818;stroke-width:0.5;stroke-dasharray:5.0,5.0;" x1="58" x2="58" y1="125.5781" y2="554.6719"/><line style="stroke:#181818;stroke-width:0.5;stroke-dasharray:5.0,5.0;" x1="322" x2="322" y1="125.5781" y2="554.6719"/><line style="stroke:#181818;stroke-width:0.5;stroke-dasharray:5.0,5.0;" x1="627.5" x2="627.5" y1="125.5781" y2="554.6719"/><text fill="#000000" font-family="sans-serif" font-size="20" lengthAdjust="spacing" textLength="71" x="20" y="120.8613">Patient</text><ellipse cx="58.5" cy="50.7969" fill="#E2E2F0" rx="8" ry="8" style="stroke:#181818;stroke-width:0.5;"/><path d="M58.5,58.7969 L58.5,85.7969 M45.5,66.7969 L71.5,66.7969 M58.5,85.7969 L45.5,100.7969 M58.5,85.7969 L71.5,100.7969 " fill="none" style="stroke:#181818;stroke-width:0.5;"/><text fill="#000000" font-family="sans-serif" font-size="20" lengthAdjust="spacing" textLength="71" x="20" y="572.2363">Patient</text><ellipse cx="58.5" cy="585.4531" fill="#E2E2F0" rx="8" ry="8" style="stroke:#181818;stroke-width:0.5;"/><path d="M58.5,593.4531 L58.5,620.4531 M45.5,601.4531 L71.5,601.4531 M58.5,620.4531 L45.5,635.4531 M58.5,620.4531 L71.5,635.4531 " fill="none" style="stroke:#181818;stroke-width:0.5;"/><rect fill="#E2E2F0" height="60.5625" rx="2.5" ry="2.5" style="stroke:#181818;stroke-width:0.5;" width="123" x="261" y="64.0156"/><text fill="#000000" font-family="sans-serif" font-size="20" lengthAdjust="spacing" textLength="109" x="268" y="89.5801">Healthcare</text><text fill="#000000" font-family="sans-serif" font-size="20" lengthAdjust="spacing" textLength="74" x="285.5" y="112.8613">System</text><rect fill="#E2E2F0" height="60.5625" rx="2.5" ry="2.5" style="stroke:#181818;stroke-width:0.5;" width="123" x="261" y="553.6719"/><text fill="#000000" font-family="sans-serif" font-size="20" lengthAdjust="spacing" textLength="109" x="268" y="579.2363">Healthcare</text><text fill="#000000" font-family="sans-serif" font-size="20" lengthAdjust="spacing" textLength="74" x="285.5" y="602.5176">System</text><text fill="#000000" font-family="sans-serif" font-size="20" lengthAdjust="spacing" textLength="94" x="577.5" y="120.8613">Database</text><path d="M609.5,66.2969 C609.5,56.2969 627.5,56.2969 627.5,56.2969 C627.5,56.2969 645.5,56.2969 645.5,66.2969 L645.5,92.2969 C645.5,102.2969 627.5,102.2969 627.5,102.2969 C627.5,102.2969 609.5,102.2969 609.5,92.2969 L609.5,66.2969 " fill="#E2E2F0" style="stroke:#181818;stroke-width:1.5;"/><path d="M609.5,66.2969 C609.5,76.2969 627.5,76.2969 627.5,76.2969 C627.5,76.2969 645.5,76.2969 645.5,66.2969 " fill="none" style="stroke:#181818;stroke-width:1.5;"/><text fill="#000000" font-family="sans-serif" font-size="20" lengthAdjust="spacing" textLength="94" x="577.5" y="572.2363">Database</text><path d="M609.5,586.9531 C609.5,576.9531 627.5,576.9531 627.5,576.9531 C627.5,576.9531 645.5,576.9531 645.5,586.9531 L645.5,612.9531 C645.5,622.9531 627.5,622.9531 627.5,622.9531 C627.5,622.9531 609.5,622.9531 609.5,612.9531 L609.5,586.9531 " fill="#E2E2F0" style="stroke:#181818;stroke-width:1.5;"/><path d="M609.5,586.9531 C609.5,596.9531 627.5,596.9531 627.5,596.9531 C627.5,596.9531 645.5,596.9531 645.5,586.9531 " fill="none" style="stroke:#181818;stroke-width:1.5;"/><rect fill="#FFFFFF" height="380.8125" style="stroke:#181818;stroke-width:1.0;" width="10" x="317.5" y="164.8594"/><polygon fill="#181818" points="305.5,160.8594,315.5,164.8594,305.5,168.8594,309.5,164.8594" style="stroke:#181818;stroke-width:1.0;"/><line style="stroke:#181818;stroke-width:1.0;" x1="58.5" x2="311.5" y1="164.8594" y2="164.8594"/><text fill="#000000" font-family="sans-serif" font-size="20" lengthAdjust="spacing" textLength="142" x="65.5" y="158.1426">Update Profile</text><line style="stroke:#181818;stroke-width:1.0;" x1="327.5" x2="369.5" y1="202.1406" y2="202.1406"/><line style="stroke:#181818;stroke-width:1.0;" x1="369.5" x2="369.5" y1="202.1406" y2="215.1406"/><line style="stroke:#181818;stroke-width:1.0;" x1="328.5" x2="369.5" y1="215.1406" y2="215.1406"/><polygon fill="#181818" points="338.5,211.1406,328.5,215.1406,338.5,219.1406,334.5,215.1406" style="stroke:#181818;stroke-width:1.0;"/><text fill="#000000" font-family="sans-serif" font-size="20" lengthAdjust="spacing" textLength="176" x="334.5" y="195.4238">Validate Changes</text><polygon fill="#181818" points="615.5,248.4219,625.5,252.4219,615.5,256.4219,619.5,252.4219" style="stroke:#181818;stroke-width:1.0;"/><line style="stroke:#181818;stroke-width:1.0;" x1="327.5" x2="621.5" y1="252.4219" y2="252.4219"/><text fill="#000000" font-family="sans-serif" font-size="20" lengthAdjust="spacing" textLength="195" x="334.5" y="245.7051">Update Profile Data</text><polygon fill="#181818" points="338.5,285.7031,328.5,289.7031,338.5,293.7031,334.5,289.7031" style="stroke:#181818;stroke-width:1.0;"/><line style="stroke:#181818;stroke-width:1.0;stroke-dasharray:2.0,2.0;" x1="332.5" x2="626.5" y1="289.7031" y2="289.7031"/><text fill="#000000" font-family="sans-serif" font-size="20" lengthAdjust="spacing" textLength="131" x="344.5" y="282.9863">Confirmation</text><path d="M10,304.7031 L86,304.7031 L86,319.9844 L76,329.9844 L10,329.9844 L10,304.7031 " fill="#EEEEEE" style="stroke:#000000;stroke-width:1.5;"/><rect fill="none" height="121.125" style="stroke:#000000;stroke-width:1.5;" width="617.5" x="10" y="304.7031"/><text fill="#000000" font-family="sans-serif" font-size="20" font-weight="bold" lengthAdjust="spacing" textLength="31" x="25" y="324.2676">alt</text><text fill="#000000" font-family="sans-serif" font-size="20" font-weight="bold" lengthAdjust="spacing" textLength="187" x="101" y="325.2676">[Email Changed]</text><line style="stroke:#181818;stroke-width:1.0;" x1="327.5" x2="369.5" y1="367.5469" y2="367.5469"/><line style="stroke:#181818;stroke-width:1.0;" x1="369.5" x2="369.5" y1="367.5469" y2="380.5469"/><line style="stroke:#181818;stroke-width:1.0;" x1="328.5" x2="369.5" y1="380.5469" y2="380.5469"/><polygon fill="#181818" points="338.5,376.5469,328.5,380.5469,338.5,384.5469,334.5,380.5469" style="stroke:#181818;stroke-width:1.0;"/><text fill="#000000" font-family="sans-serif" font-size="20" lengthAdjust="spacing" textLength="281" x="334.5" y="360.8301">Generate Verification Token</text><polygon fill="#181818" points="69.5,413.8281,59.5,417.8281,69.5,421.8281,65.5,417.8281" style="stroke:#181818;stroke-width:1.0;"/><line style="stroke:#181818;stroke-width:1.0;" x1="63.5" x2="316.5" y1="417.8281" y2="417.8281"/><text fill="#000000" font-family="sans-serif" font-size="20" lengthAdjust="spacing" textLength="235" x="75.5" y="411.1113">Send Verification Email</text><polygon fill="#181818" points="615.5,458.1094,625.5,462.1094,615.5,466.1094,619.5,462.1094" style="stroke:#181818;stroke-width:1.0;"/><line style="stroke:#181818;stroke-width:1.0;" x1="327.5" x2="621.5" y1="462.1094" y2="462.1094"/><text fill="#000000" font-family="sans-serif" font-size="20" lengthAdjust="spacing" textLength="184" x="334.5" y="455.3926">Log Profile Update</text><polygon fill="#181818" points="338.5,495.3906,328.5,499.3906,338.5,503.3906,334.5,499.3906" style="stroke:#181818;stroke-width:1.0;"/><line style="stroke:#181818;stroke-width:1.0;stroke-dasharray:2.0,2.0;" x1="332.5" x2="626.5" y1="499.3906" y2="499.3906"/><text fill="#000000" font-family="sans-serif" font-size="20" lengthAdjust="spacing" textLength="173" x="344.5" y="492.6738">Log Confirmation</text><polygon fill="#181818" points="69.5,532.6719,59.5,536.6719,69.5,540.6719,65.5,536.6719" style="stroke:#181818;stroke-width:1.0;"/><line style="stroke:#181818;stroke-width:1.0;stroke-dasharray:2.0,2.0;" x1="63.5" x2="316.5" y1="536.6719" y2="536.6719"/><text fill="#000000" font-family="sans-serif" font-size="20" lengthAdjust="spacing" textLength="172" x="75.5" y="529.9551">Success Message</text><!--SRC=[RL4zJyCm4DtlLvowHmB63Yo5mb2aIe5EB8TpQKznxCY-5i6lnqbZAGdrO9_Fx-EU71jn7GLghJSDLrXnJMUhM- -qb5_6XpjGKSku9nLsYllWQqdtZwuYPTnQ_uq5xlZ25ky1oAWF6Gn9MSL8HucuUcMoUZ8K-DELFr6vNI55l9QGrEYB8kFJM01ao-9n1AspwpX4xoQNlZ6AmFMSCWvaPU1iJkIE72UGxBIK7HuWls8nKTjuLqjeqs3UfR1MyRabiQDu1PZM_nbUs77e3GuSf1OpqF7TD-mMZ37o6ajsrHm-645gmyq8EtzS_Ctj13rkdYAhpUpFnd2C-9OsEZBy0G00]--></g></svg>