<?xml version="1.0" encoding="UTF-8" standalone="no"?><svg xmlns="http://www.w3.org/2000/svg" xmlns:xlink="http://www.w3.org/1999/xlink" contentStyleType="text/css" height="1477px" preserveAspectRatio="none" style="width:2824px;height:1477px;background:#FFFFFF;" version="1.1" viewBox="0 0 2824 1477" width="2824px" zoomAndPan="magnify"><defs/><g><text fill="#000000" font-family="sans-serif" font-size="14" font-weight="bold" lengthAdjust="spacing" textLength="126" x="1348" y="27.9951">Level 3 Diagram</text><rect fill="#FFFFFF" height="1244.7188" style="stroke:#181818;stroke-width:1.0;" width="10" x="38.5" y="135.5781"/><rect fill="#FFFFFF" height="1206.4375" style="stroke:#181818;stroke-width:1.0;" width="10" x="452.5" y="164.8594"/><rect fill="#FFFFFF" height="442.0938" style="stroke:#181818;stroke-width:1.0;" width="10" x="899.5" y="202.1406"/><rect fill="#FFFFFF" height="652.5" style="stroke:#181818;stroke-width:1.0;" width="10" x="899.5" y="681.5156"/><rect fill="#FFFFFF" height="367.5313" style="stroke:#181818;stroke-width:1.0;" width="10" x="1148.5" y="239.4219"/><rect fill="#FFFFFF" height="661.5" style="stroke:#181818;stroke-width:1.0;" width="10" x="1148.5" y="718.7969"/><rect fill="#FFFFFF" height="43.2813" style="stroke:#181818;stroke-width:1.0;" width="10" x="1997.5" y="519.3906"/><rect fill="#FFFFFF" height="111.8438" style="stroke:#181818;stroke-width:1.0;" width="10" x="2162" y="370.2656"/><rect fill="#FFFFFF" height="111.8438" style="stroke:#181818;stroke-width:1.0;" width="10" x="2162" y="806.3594"/><rect fill="#FFFFFF" height="67.2813" style="stroke:#181818;stroke-width:1.0;" width="10" x="2162" y="955.4844"/><rect fill="#FFFFFF" height="111.8438" style="stroke:#181818;stroke-width:1.0;" width="10" x="2332.5" y="1147.6094"/><rect fill="#FFFFFF" height="43.2813" style="stroke:#181818;stroke-width:1.0;" width="10" x="2445.5" y="1060.0469"/><rect fill="#FFFFFF" height="37.2813" style="stroke:#181818;stroke-width:1.0;" width="10" x="2759" y="407.5469"/><rect fill="#FFFFFF" height="37.2813" style="stroke:#181818;stroke-width:1.0;" width="10" x="2759" y="843.6406"/><rect fill="#FFFFFF" height="30" style="stroke:#181818;stroke-width:1.0;" width="10" x="2759" y="992.7656"/><rect fill="#FFFFFF" height="37.2813" style="stroke:#181818;stroke-width:1.0;" width="10" x="2759" y="1184.8906"/><line style="stroke:#181818;stroke-width:0.5;stroke-dasharray:5.0,5.0;" x1="43" x2="43" y1="125.5781" y2="1389.2969"/><line style="stroke:#181818;stroke-width:0.5;stroke-dasharray:5.0,5.0;" x1="457.5" x2="457.5" y1="125.5781" y2="1389.2969"/><line style="stroke:#181818;stroke-width:0.5;stroke-dasharray:5.0,5.0;" x1="904.5" x2="904.5" y1="125.5781" y2="1389.2969"/><line style="stroke:#181818;stroke-width:0.5;stroke-dasharray:5.0,5.0;" x1="1153.5" x2="1153.5" y1="125.5781" y2="1389.2969"/><line style="stroke:#181818;stroke-width:0.5;stroke-dasharray:5.0,5.0;" x1="2002.5" x2="2002.5" y1="125.5781" y2="1389.2969"/><line style="stroke:#181818;stroke-width:0.5;stroke-dasharray:5.0,5.0;" x1="2166.5" x2="2166.5" y1="125.5781" y2="1389.2969"/><line style="stroke:#181818;stroke-width:0.5;stroke-dasharray:5.0,5.0;" x1="2337.5" x2="2337.5" y1="125.5781" y2="1389.2969"/><line style="stroke:#181818;stroke-width:0.5;stroke-dasharray:5.0,5.0;" x1="2450.5" x2="2450.5" y1="125.5781" y2="1389.2969"/><line style="stroke:#181818;stroke-width:0.5;stroke-dasharray:5.0,5.0;" x1="2764" x2="2764" y1="125.5781" y2="1389.2969"/><text fill="#000000" font-family="sans-serif" font-size="20" lengthAdjust="spacing" textLength="71" x="5" y="120.8613">Patient</text><ellipse cx="43.5" cy="50.7969" fill="#E2E2F0" rx="8" ry="8" style="stroke:#181818;stroke-width:0.5;"/><path d="M43.5,58.7969 L43.5,85.7969 M30.5,66.7969 L56.5,66.7969 M43.5,85.7969 L30.5,100.7969 M43.5,85.7969 L56.5,100.7969 " fill="none" style="stroke:#181818;stroke-width:0.5;"/><text fill="#000000" font-family="sans-serif" font-size="20" lengthAdjust="spacing" textLength="71" x="5" y="1406.8613">Patient</text><ellipse cx="43.5" cy="1420.0781" fill="#E2E2F0" rx="8" ry="8" style="stroke:#181818;stroke-width:0.5;"/><path d="M43.5,1428.0781 L43.5,1455.0781 M30.5,1436.0781 L56.5,1436.0781 M43.5,1455.0781 L30.5,1470.0781 M43.5,1455.0781 L56.5,1470.0781 " fill="none" style="stroke:#181818;stroke-width:0.5;"/><rect fill="#E2E2F0" height="37.2813" rx="2.5" ry="2.5" style="stroke:#181818;stroke-width:0.5;" width="154" x="380.5" y="87.2969"/><text fill="#000000" font-family="sans-serif" font-size="20" lengthAdjust="spacing" textLength="140" x="387.5" y="112.8613">User Interface</text><rect fill="#E2E2F0" height="37.2813" rx="2.5" ry="2.5" style="stroke:#181818;stroke-width:0.5;" width="154" x="380.5" y="1388.2969"/><text fill="#000000" font-family="sans-serif" font-size="20" lengthAdjust="spacing" textLength="140" x="387.5" y="1413.8613">User Interface</text><rect fill="#E2E2F0" height="37.2813" rx="2.5" ry="2.5" style="stroke:#181818;stroke-width:0.5;" width="158" x="825.5" y="87.2969"/><text fill="#000000" font-family="sans-serif" font-size="20" lengthAdjust="spacing" textLength="144" x="832.5" y="112.8613">UserController</text><rect fill="#E2E2F0" height="37.2813" rx="2.5" ry="2.5" style="stroke:#181818;stroke-width:0.5;" width="158" x="825.5" y="1388.2969"/><text fill="#000000" font-family="sans-serif" font-size="20" lengthAdjust="spacing" textLength="144" x="832.5" y="1413.8613">UserController</text><rect fill="#E2E2F0" height="37.2813" rx="2.5" ry="2.5" style="stroke:#181818;stroke-width:0.5;" width="132" x="1087.5" y="87.2969"/><text fill="#000000" font-family="sans-serif" font-size="20" lengthAdjust="spacing" textLength="118" x="1094.5" y="112.8613">UserService</text><rect fill="#E2E2F0" height="37.2813" rx="2.5" ry="2.5" style="stroke:#181818;stroke-width:0.5;" width="132" x="1087.5" y="1388.2969"/><text fill="#000000" font-family="sans-serif" font-size="20" lengthAdjust="spacing" textLength="118" x="1094.5" y="1413.8613">UserService</text><rect fill="#E2E2F0" height="37.2813" rx="2.5" ry="2.5" style="stroke:#181818;stroke-width:0.5;" width="144" x="1930.5" y="87.2969"/><text fill="#000000" font-family="sans-serif" font-size="20" lengthAdjust="spacing" textLength="130" x="1937.5" y="112.8613">EmailService</text><rect fill="#E2E2F0" height="37.2813" rx="2.5" ry="2.5" style="stroke:#181818;stroke-width:0.5;" width="144" x="1930.5" y="1388.2969"/><text fill="#000000" font-family="sans-serif" font-size="20" lengthAdjust="spacing" textLength="130" x="1937.5" y="1413.8613">EmailService</text><rect fill="#E2E2F0" height="37.2813" rx="2.5" ry="2.5" style="stroke:#181818;stroke-width:0.5;" width="165" x="2084.5" y="87.2969"/><text fill="#000000" font-family="sans-serif" font-size="20" lengthAdjust="spacing" textLength="151" x="2091.5" y="112.8613">UserRepository</text><rect fill="#E2E2F0" height="37.2813" rx="2.5" ry="2.5" style="stroke:#181818;stroke-width:0.5;" width="165" x="2084.5" y="1388.2969"/><text fill="#000000" font-family="sans-serif" font-size="20" lengthAdjust="spacing" textLength="151" x="2091.5" y="1413.8613">UserRepository</text><rect fill="#E2E2F0" height="37.2813" rx="2.5" ry="2.5" style="stroke:#181818;stroke-width:0.5;" width="156" x="2259.5" y="87.2969"/><text fill="#000000" font-family="sans-serif" font-size="20" lengthAdjust="spacing" textLength="142" x="2266.5" y="112.8613">LogRepository</text><rect fill="#E2E2F0" height="37.2813" rx="2.5" ry="2.5" style="stroke:#181818;stroke-width:0.5;" width="156" x="2259.5" y="1388.2969"/><text fill="#000000" font-family="sans-serif" font-size="20" lengthAdjust="spacing" textLength="142" x="2266.5" y="1413.8613">LogRepository</text><rect fill="#E2E2F0" height="37.2813" rx="2.5" ry="2.5" style="stroke:#181818;stroke-width:0.5;" width="50" x="2425.5" y="87.2969"/><text fill="#000000" font-family="sans-serif" font-size="20" lengthAdjust="spacing" textLength="36" x="2432.5" y="112.8613">Log</text><rect fill="#E2E2F0" height="37.2813" rx="2.5" ry="2.5" style="stroke:#181818;stroke-width:0.5;" width="50" x="2425.5" y="1388.2969"/><text fill="#000000" font-family="sans-serif" font-size="20" lengthAdjust="spacing" textLength="36" x="2432.5" y="1413.8613">Log</text><rect fill="#E2E2F0" height="37.2813" rx="2.5" ry="2.5" style="stroke:#181818;stroke-width:0.5;" width="108" x="2710" y="87.2969"/><text fill="#000000" font-family="sans-serif" font-size="20" lengthAdjust="spacing" textLength="94" x="2717" y="112.8613">Database</text><rect fill="#E2E2F0" height="37.2813" rx="2.5" ry="2.5" style="stroke:#181818;stroke-width:0.5;" width="108" x="2710" y="1388.2969"/><text fill="#000000" font-family="sans-serif" font-size="20" lengthAdjust="spacing" textLength="94" x="2717" y="1413.8613">Database</text><rect fill="#FFFFFF" height="1244.7188" style="stroke:#181818;stroke-width:1.0;" width="10" x="38.5" y="135.5781"/><rect fill="#FFFFFF" height="1206.4375" style="stroke:#181818;stroke-width:1.0;" width="10" x="452.5" y="164.8594"/><rect fill="#FFFFFF" height="442.0938" style="stroke:#181818;stroke-width:1.0;" width="10" x="899.5" y="202.1406"/><rect fill="#FFFFFF" height="652.5" style="stroke:#181818;stroke-width:1.0;" width="10" x="899.5" y="681.5156"/><rect fill="#FFFFFF" height="367.5313" style="stroke:#181818;stroke-width:1.0;" width="10" x="1148.5" y="239.4219"/><rect fill="#FFFFFF" height="661.5" style="stroke:#181818;stroke-width:1.0;" width="10" x="1148.5" y="718.7969"/><rect fill="#FFFFFF" height="43.2813" style="stroke:#181818;stroke-width:1.0;" width="10" x="1997.5" y="519.3906"/><rect fill="#FFFFFF" height="111.8438" style="stroke:#181818;stroke-width:1.0;" width="10" x="2162" y="370.2656"/><rect fill="#FFFFFF" height="111.8438" style="stroke:#181818;stroke-width:1.0;" width="10" x="2162" y="806.3594"/><rect fill="#FFFFFF" height="67.2813" style="stroke:#181818;stroke-width:1.0;" width="10" x="2162" y="955.4844"/><rect fill="#FFFFFF" height="111.8438" style="stroke:#181818;stroke-width:1.0;" width="10" x="2332.5" y="1147.6094"/><rect fill="#FFFFFF" height="43.2813" style="stroke:#181818;stroke-width:1.0;" width="10" x="2445.5" y="1060.0469"/><rect fill="#FFFFFF" height="37.2813" style="stroke:#181818;stroke-width:1.0;" width="10" x="2759" y="407.5469"/><rect fill="#FFFFFF" height="37.2813" style="stroke:#181818;stroke-width:1.0;" width="10" x="2759" y="843.6406"/><rect fill="#FFFFFF" height="30" style="stroke:#181818;stroke-width:1.0;" width="10" x="2759" y="992.7656"/><rect fill="#FFFFFF" height="37.2813" style="stroke:#181818;stroke-width:1.0;" width="10" x="2759" y="1184.8906"/><polygon fill="#000000" points="440.5,160.8594,450.5,164.8594,440.5,168.8594,444.5,164.8594" style="stroke:#000000;stroke-width:1.0;"/><line style="stroke:#000000;stroke-width:1.0;" x1="48.5" x2="446.5" y1="164.8594" y2="164.8594"/><text fill="#000000" font-family="sans-serif" font-size="20" lengthAdjust="spacing" textLength="263" x="55.5" y="158.1426">Asks to Delete User Profile</text><polygon fill="#000000" points="887.5,198.1406,897.5,202.1406,887.5,206.1406,891.5,202.1406" style="stroke:#000000;stroke-width:1.0;"/><line style="stroke:#000000;stroke-width:1.0;" x1="462.5" x2="893.5" y1="202.1406" y2="202.1406"/><text fill="#000000" font-family="sans-serif" font-size="20" lengthAdjust="spacing" textLength="220" x="469.5" y="195.4238">RequestDelete(token)</text><polygon fill="#000000" points="1136.5,235.4219,1146.5,239.4219,1136.5,243.4219,1140.5,239.4219" style="stroke:#000000;stroke-width:1.0;"/><line style="stroke:#000000;stroke-width:1.0;" x1="909.5" x2="1142.5" y1="239.4219" y2="239.4219"/><text fill="#000000" font-family="sans-serif" font-size="20" lengthAdjust="spacing" textLength="220" x="916.5" y="232.7051">RequestDelete(token)</text><path d="M1163,252.4219 L1163,285.4219 L1927,285.4219 L1927,262.4219 L1917,252.4219 L1163,252.4219 " fill="#FEFFDD" style="stroke:#181818;stroke-width:0.5;"/><path d="M1917,252.4219 L1917,262.4219 L1927,262.4219 L1917,252.4219 " fill="#FEFFDD" style="stroke:#181818;stroke-width:0.5;"/><text fill="#000000" font-family="sans-serif" font-size="20" lengthAdjust="spacing" textLength="743" x="1169" y="275.9863">This method verifies the provided token and returns the respective user id</text><line style="stroke:#000000;stroke-width:1.0;" x1="1158.5" x2="1200.5" y1="319.9844" y2="319.9844"/><line style="stroke:#000000;stroke-width:1.0;" x1="1200.5" x2="1200.5" y1="319.9844" y2="332.9844"/><line style="stroke:#000000;stroke-width:1.0;" x1="1159.5" x2="1200.5" y1="332.9844" y2="332.9844"/><polygon fill="#000000" points="1169.5,328.9844,1159.5,332.9844,1169.5,336.9844,1165.5,332.9844" style="stroke:#000000;stroke-width:1.0;"/><text fill="#000000" font-family="sans-serif" font-size="20" lengthAdjust="spacing" textLength="192" x="1165.5" y="313.2676">VerifyToken(token)</text><polygon fill="#000000" points="2150,366.2656,2160,370.2656,2150,374.2656,2154,370.2656" style="stroke:#000000;stroke-width:1.0;"/><line style="stroke:#000000;stroke-width:1.0;" x1="1158.5" x2="2156" y1="370.2656" y2="370.2656"/><text fill="#000000" font-family="sans-serif" font-size="20" lengthAdjust="spacing" textLength="217" x="1165.5" y="363.5488">GetByIdAsync(userId)</text><polygon fill="#000000" points="2747,403.5469,2757,407.5469,2747,411.5469,2751,407.5469" style="stroke:#000000;stroke-width:1.0;"/><line style="stroke:#000000;stroke-width:1.0;" x1="2172" x2="2753" y1="407.5469" y2="407.5469"/><text fill="#000000" font-family="sans-serif" font-size="20" lengthAdjust="spacing" textLength="568" x="2179" y="400.8301">_objs.Where(x =&gt; id.Equals(x.Id)).FirstOrDefaultAsync();</text><polygon fill="#000000" points="2183,440.8281,2173,444.8281,2183,448.8281,2179,444.8281" style="stroke:#000000;stroke-width:1.0;"/><line style="stroke:#000000;stroke-width:1.0;stroke-dasharray:2.0,2.0;" x1="2177" x2="2763" y1="444.8281" y2="444.8281"/><text fill="#000000" font-family="sans-serif" font-size="20" lengthAdjust="spacing" textLength="129" x="2189" y="438.1113">Returns User</text><polygon fill="#000000" points="1169.5,478.1094,1159.5,482.1094,1169.5,486.1094,1165.5,482.1094" style="stroke:#000000;stroke-width:1.0;"/><line style="stroke:#000000;stroke-width:1.0;stroke-dasharray:2.0,2.0;" x1="1163.5" x2="2166" y1="482.1094" y2="482.1094"/><text fill="#000000" font-family="sans-serif" font-size="20" lengthAdjust="spacing" textLength="129" x="1175.5" y="475.3926">Returns User</text><polygon fill="#000000" points="1985.5,515.3906,1995.5,519.3906,1985.5,523.3906,1989.5,519.3906" style="stroke:#000000;stroke-width:1.0;"/><line style="stroke:#000000;stroke-width:1.0;" x1="1158.5" x2="1991.5" y1="519.3906" y2="519.3906"/><text fill="#000000" font-family="sans-serif" font-size="20" lengthAdjust="spacing" textLength="820" x="1165.5" y="512.6738">SendEmail(user.Email, "Delete User Request", GenerateLink(token, "DeleteUser")</text><line style="stroke:#000000;stroke-width:1.0;stroke-dasharray:2.0,2.0;" x1="2007.5" x2="2049.5" y1="561.6719" y2="561.6719"/><line style="stroke:#000000;stroke-width:1.0;stroke-dasharray:2.0,2.0;" x1="2049.5" x2="2049.5" y1="561.6719" y2="574.6719"/><line style="stroke:#000000;stroke-width:1.0;stroke-dasharray:2.0,2.0;" x1="2002.5" x2="2049.5" y1="574.6719" y2="574.6719"/><polygon fill="#000000" points="2012.5,570.6719,2002.5,574.6719,2012.5,578.6719,2008.5,574.6719" style="stroke:#000000;stroke-width:1.0;"/><text fill="#000000" font-family="sans-serif" font-size="20" lengthAdjust="spacing" textLength="121" x="2014.5" y="554.9551">sendEmail()</text><polygon fill="#000000" points="920.5,602.9531,910.5,606.9531,920.5,610.9531,916.5,606.9531" style="stroke:#000000;stroke-width:1.0;"/><line style="stroke:#000000;stroke-width:1.0;stroke-dasharray:2.0,2.0;" x1="914.5" x2="1152.5" y1="606.9531" y2="606.9531"/><text fill="#000000" font-family="sans-serif" font-size="20" lengthAdjust="spacing" textLength="62" x="926.5" y="600.2363">return</text><polygon fill="#000000" points="473.5,640.2344,463.5,644.2344,473.5,648.2344,469.5,644.2344" style="stroke:#000000;stroke-width:1.0;"/><line style="stroke:#000000;stroke-width:1.0;stroke-dasharray:2.0,2.0;" x1="467.5" x2="903.5" y1="644.2344" y2="644.2344"/><text fill="#000000" font-family="sans-serif" font-size="20" lengthAdjust="spacing" textLength="413" x="479.5" y="637.5176">Returns Operation Status Response Code</text><polygon fill="#000000" points="887.5,677.5156,897.5,681.5156,887.5,685.5156,891.5,681.5156" style="stroke:#000000;stroke-width:1.0;"/><line style="stroke:#000000;stroke-width:1.0;" x1="462.5" x2="893.5" y1="681.5156" y2="681.5156"/><text fill="#000000" font-family="sans-serif" font-size="20" lengthAdjust="spacing" textLength="183" x="469.5" y="674.7988">DeleteUser(token)</text><polygon fill="#000000" points="1136.5,714.7969,1146.5,718.7969,1136.5,722.7969,1140.5,718.7969" style="stroke:#000000;stroke-width:1.0;"/><line style="stroke:#000000;stroke-width:1.0;" x1="909.5" x2="1142.5" y1="718.7969" y2="718.7969"/><text fill="#000000" font-family="sans-serif" font-size="20" lengthAdjust="spacing" textLength="183" x="916.5" y="712.0801">DeleteUser(token)</text><line style="stroke:#000000;stroke-width:1.0;" x1="1158.5" x2="1200.5" y1="756.0781" y2="756.0781"/><line style="stroke:#000000;stroke-width:1.0;" x1="1200.5" x2="1200.5" y1="756.0781" y2="769.0781"/><line style="stroke:#000000;stroke-width:1.0;" x1="1159.5" x2="1200.5" y1="769.0781" y2="769.0781"/><polygon fill="#000000" points="1169.5,765.0781,1159.5,769.0781,1169.5,773.0781,1165.5,769.0781" style="stroke:#000000;stroke-width:1.0;"/><text fill="#000000" font-family="sans-serif" font-size="20" lengthAdjust="spacing" textLength="192" x="1165.5" y="749.3613">VerifyToken(token)</text><polygon fill="#000000" points="2150,802.3594,2160,806.3594,2150,810.3594,2154,806.3594" style="stroke:#000000;stroke-width:1.0;"/><line style="stroke:#000000;stroke-width:1.0;" x1="1158.5" x2="2156" y1="806.3594" y2="806.3594"/><text fill="#000000" font-family="sans-serif" font-size="20" lengthAdjust="spacing" textLength="217" x="1165.5" y="799.6426">GetByIdAsync(userId)</text><polygon fill="#000000" points="2747,839.6406,2757,843.6406,2747,847.6406,2751,843.6406" style="stroke:#000000;stroke-width:1.0;"/><line style="stroke:#000000;stroke-width:1.0;" x1="2172" x2="2753" y1="843.6406" y2="843.6406"/><text fill="#000000" font-family="sans-serif" font-size="20" lengthAdjust="spacing" textLength="568" x="2179" y="836.9238">_objs.Where(x =&gt; id.Equals(x.Id)).FirstOrDefaultAsync();</text><polygon fill="#000000" points="2183,876.9219,2173,880.9219,2183,884.9219,2179,880.9219" style="stroke:#000000;stroke-width:1.0;"/><line style="stroke:#000000;stroke-width:1.0;stroke-dasharray:2.0,2.0;" x1="2177" x2="2763" y1="880.9219" y2="880.9219"/><text fill="#000000" font-family="sans-serif" font-size="20" lengthAdjust="spacing" textLength="129" x="2189" y="874.2051">Returns User</text><polygon fill="#000000" points="1169.5,914.2031,1159.5,918.2031,1169.5,922.2031,1165.5,918.2031" style="stroke:#000000;stroke-width:1.0;"/><line style="stroke:#000000;stroke-width:1.0;stroke-dasharray:2.0,2.0;" x1="1163.5" x2="2166" y1="918.2031" y2="918.2031"/><text fill="#000000" font-family="sans-serif" font-size="20" lengthAdjust="spacing" textLength="129" x="1175.5" y="911.4863">Returns User</text><polygon fill="#000000" points="2150,951.4844,2160,955.4844,2150,959.4844,2154,955.4844" style="stroke:#000000;stroke-width:1.0;"/><line style="stroke:#000000;stroke-width:1.0;" x1="1158.5" x2="2156" y1="955.4844" y2="955.4844"/><text fill="#000000" font-family="sans-serif" font-size="20" lengthAdjust="spacing" textLength="140" x="1165.5" y="948.7676">Remove(user)</text><polygon fill="#000000" points="2747,988.7656,2757,992.7656,2747,996.7656,2751,992.7656" style="stroke:#000000;stroke-width:1.0;"/><line style="stroke:#000000;stroke-width:1.0;" x1="2172" x2="2753" y1="992.7656" y2="992.7656"/><text fill="#000000" font-family="sans-serif" font-size="20" lengthAdjust="spacing" textLength="197" x="2179" y="986.0488">_objs.Remove(user)</text><polygon fill="#000000" points="2433.5,1056.0469,2443.5,1060.0469,2433.5,1064.0469,2437.5,1060.0469" style="stroke:#000000;stroke-width:1.0;"/><line style="stroke:#000000;stroke-width:1.0;" x1="1158.5" x2="2439.5" y1="1060.0469" y2="1060.0469"/><text fill="#000000" font-family="sans-serif" font-size="20" lengthAdjust="spacing" textLength="738" x="1165.5" y="1053.3301">new Log(TypeOfAction.Delete, userId, "User of Type Patient was deleted."</text><line style="stroke:#000000;stroke-width:1.0;" x1="2455.5" x2="2497.5" y1="1102.3281" y2="1102.3281"/><line style="stroke:#000000;stroke-width:1.0;" x1="2497.5" x2="2497.5" y1="1102.3281" y2="1115.3281"/><line style="stroke:#000000;stroke-width:1.0;" x1="2450.5" x2="2497.5" y1="1115.3281" y2="1115.3281"/><polygon fill="#000000" points="2460.5,1111.3281,2450.5,1115.3281,2460.5,1119.3281,2456.5,1115.3281" style="stroke:#000000;stroke-width:1.0;"/><text fill="#000000" font-family="sans-serif" font-size="20" lengthAdjust="spacing" textLength="52" x="2462.5" y="1095.6113">Log()</text><polygon fill="#000000" points="2320.5,1143.6094,2330.5,1147.6094,2320.5,1151.6094,2324.5,1147.6094" style="stroke:#000000;stroke-width:1.0;"/><line style="stroke:#000000;stroke-width:1.0;" x1="1158.5" x2="2326.5" y1="1147.6094" y2="1147.6094"/><text fill="#000000" font-family="sans-serif" font-size="20" lengthAdjust="spacing" textLength="146" x="1165.5" y="1140.8926">AddAsync(log)</text><polygon fill="#000000" points="2747,1180.8906,2757,1184.8906,2747,1188.8906,2751,1184.8906" style="stroke:#000000;stroke-width:1.0;"/><line style="stroke:#000000;stroke-width:1.0;" x1="2342.5" x2="2753" y1="1184.8906" y2="1184.8906"/><text fill="#000000" font-family="sans-serif" font-size="20" lengthAdjust="spacing" textLength="203" x="2349.5" y="1178.1738">_objs.AddAsync(log)</text><polygon fill="#000000" points="2353.5,1218.1719,2343.5,1222.1719,2353.5,1226.1719,2349.5,1222.1719" style="stroke:#000000;stroke-width:1.0;"/><line style="stroke:#000000;stroke-width:1.0;stroke-dasharray:2.0,2.0;" x1="2347.5" x2="2763" y1="1222.1719" y2="1222.1719"/><text fill="#000000" font-family="sans-serif" font-size="20" lengthAdjust="spacing" textLength="120" x="2359.5" y="1215.4551">Returns Log</text><polygon fill="#000000" points="1169.5,1255.4531,1159.5,1259.4531,1169.5,1263.4531,1165.5,1259.4531" style="stroke:#000000;stroke-width:1.0;"/><line style="stroke:#000000;stroke-width:1.0;stroke-dasharray:2.0,2.0;" x1="1163.5" x2="2336.5" y1="1259.4531" y2="1259.4531"/><text fill="#000000" font-family="sans-serif" font-size="20" lengthAdjust="spacing" textLength="120" x="1175.5" y="1252.7363">Returns Log</text><polygon fill="#000000" points="920.5,1292.7344,910.5,1296.7344,920.5,1300.7344,916.5,1296.7344" style="stroke:#000000;stroke-width:1.0;"/><line style="stroke:#000000;stroke-width:1.0;stroke-dasharray:2.0,2.0;" x1="914.5" x2="1147.5" y1="1296.7344" y2="1296.7344"/><text fill="#000000" font-family="sans-serif" font-size="20" lengthAdjust="spacing" textLength="62" x="926.5" y="1290.0176">return</text><polygon fill="#000000" points="473.5,1330.0156,463.5,1334.0156,473.5,1338.0156,469.5,1334.0156" style="stroke:#000000;stroke-width:1.0;"/><line style="stroke:#000000;stroke-width:1.0;stroke-dasharray:2.0,2.0;" x1="467.5" x2="903.5" y1="1334.0156" y2="1334.0156"/><text fill="#000000" font-family="sans-serif" font-size="20" lengthAdjust="spacing" textLength="413" x="479.5" y="1327.2988">Returns Operation Status Response Code</text><polygon fill="#000000" points="59.5,1367.2969,49.5,1371.2969,59.5,1375.2969,55.5,1371.2969" style="stroke:#000000;stroke-width:1.0;"/><line style="stroke:#000000;stroke-width:1.0;stroke-dasharray:2.0,2.0;" x1="53.5" x2="456.5" y1="1371.2969" y2="1371.2969"/><text fill="#000000" font-family="sans-serif" font-size="20" lengthAdjust="spacing" textLength="380" x="65.5" y="1364.5801">Returns Operation In/Sucess message</text><!--SRC=[tPLBRzf04CVl_XGZSYX8XAQf-g8f4iQcGh84ifFsM2ts01lChhEx9g5LltjdroIOHz93Rys5QEStC_zvCEWb5mLJR9NBT8aPP3XZPMw6KfY4_qIulF0ymqsE4E4QStWB0MTpuZrlmJC4N1Lc0ojSJL5fxvL-30SH5sWs1O9KPY4zRsT9SwOr_FA0_doMBkTAbY8Ro5oggwiroqiSJsynDRqUd0Nlm_xmusbKIUcOOH3wmSLfHgDQynHTg3V3oz0_XL68SFWf_E1iVQNaVVNivyHvl-lQ2tfXSpoj7iv2V_Xkw5iNbXfwc333KHXW6YOUHJ0yvGMZXyODAOEHCAXcBCM69Mv6nyY0vg1adgDooE2OIAeAdJdPDuShnlEwFKoE_MCifEOaTkEGU9-8vFm0Y8w9wdt_EM26JPckyWQ-QmXVCuFKY0cSzwZQBlJrKeEH462EP74zcIWvupdkU6hBpSXw3BeGurs9sbHyqyWbYjQE77W3ooL_un9FIFfGVBum86VMuNh1DMqnRMe6QrHynf6KBH0A9TUqvncu8C141WfDgKHbLgWBj74HIgkUPrworV3DXjbSMxT71SuKT-4h6dypolfw8zAczHjbDNcn5rikyBlmGqvlTUVx0XKs7-1BZ-9tmhkIvRhvq26dLcV8bJPZ5LHVsofYw_Ck6BK-yE6yoXjlbTj6UndMeTWnoVDCNAaF2KbGP6wtdFQE-xTD8wzDSJk0Hfjg5QWe0Ds3PTM79zIIZLhXj9vXudJOBFefIwkkWw2AeNMe9b6t9dO5jjlrMCcui0Au590OPahQSHgQ59eMHcPOznxiDcsdy8KrUm5A_lCzS55MSerEzqkgJsEKQZ_nSOge2mBlWGvCyvf-ICQpVcgdsAcwteQgOUtjBQNliQMUJkuztPtCaLcdiSiRUT4sjesxjrdHDYsLri-sGydbl2QQRbzqKDqpvAxTKQtVbFAWwkYetmTC51-j-xzlEBbFJdcFnEkaJ57RKwWr_SxLNUaE_m40]--></g></svg>