<?xml version="1.0" encoding="UTF-8" standalone="no"?><svg xmlns="http://www.w3.org/2000/svg" xmlns:xlink="http://www.w3.org/1999/xlink" contentStyleType="text/css" height="1587px" preserveAspectRatio="none" style="width:2881px;height:1587px;background:#FFFFFF;" version="1.1" viewBox="0 0 2881 1587" width="2881px" zoomAndPan="magnify"><defs/><g><text fill="#000000" font-family="sans-serif" font-size="14" font-weight="bold" lengthAdjust="spacing" textLength="126" x="1378.5" y="27.9951">Level 3 Diagram</text><rect fill="#FFFFFF" height="1354.8438" style="stroke:#181818;stroke-width:1.0;" width="10" x="38.5" y="135.5781"/><rect fill="#FFFFFF" height="1316.5625" style="stroke:#181818;stroke-width:1.0;" width="10" x="452.5" y="164.8594"/><rect fill="#FFFFFF" height="442.0938" style="stroke:#181818;stroke-width:1.0;" width="10" x="899.5" y="202.1406"/><rect fill="#FFFFFF" height="762.625" style="stroke:#181818;stroke-width:1.0;" width="10" x="899.5" y="681.5156"/><rect fill="#FFFFFF" height="367.5313" style="stroke:#181818;stroke-width:1.0;" width="10" x="1194.5" y="239.4219"/><rect fill="#FFFFFF" height="696.0625" style="stroke:#181818;stroke-width:1.0;" width="10" x="1194.5" y="718.7969"/><rect fill="#FFFFFF" height="43.2813" style="stroke:#181818;stroke-width:1.0;" width="10" x="2043.5" y="519.3906"/><rect fill="#FFFFFF" height="111.8438" style="stroke:#181818;stroke-width:1.0;" width="10" x="2208" y="370.2656"/><rect fill="#FFFFFF" height="111.8438" style="stroke:#181818;stroke-width:1.0;" width="10" x="2208" y="846.9219"/><rect fill="#FFFFFF" height="67.2813" style="stroke:#181818;stroke-width:1.0;" width="10" x="2208" y="996.0469"/><rect fill="#FFFFFF" height="111.8438" style="stroke:#181818;stroke-width:1.0;" width="10" x="2378.5" y="1188.1719"/><rect fill="#FFFFFF" height="43.2813" style="stroke:#181818;stroke-width:1.0;" width="10" x="2491.5" y="1100.6094"/><rect fill="#FFFFFF" height="37.2813" style="stroke:#181818;stroke-width:1.0;" width="10" x="2805" y="407.5469"/><rect fill="#FFFFFF" height="37.2813" style="stroke:#181818;stroke-width:1.0;" width="10" x="2805" y="884.2031"/><rect fill="#FFFFFF" height="30" style="stroke:#181818;stroke-width:1.0;" width="10" x="2805" y="1033.3281"/><rect fill="#FFFFFF" height="37.2813" style="stroke:#181818;stroke-width:1.0;" width="10" x="2805" y="1225.4531"/><rect fill="#EBF5FB" height="623.7813" style="stroke:#000000;stroke-width:1.5;" width="2058.5" x="815.5" y="784.0781"/><rect fill="#EBF5FB" height="62.5625" style="stroke:none;stroke-width:1.0;" width="2058.5" x="815.5" y="1345.2969"/><line style="stroke:#181818;stroke-width:0.5;stroke-dasharray:5.0,5.0;" x1="43" x2="43" y1="125.5781" y2="1499.4219"/><line style="stroke:#181818;stroke-width:0.5;stroke-dasharray:5.0,5.0;" x1="457.5" x2="457.5" y1="125.5781" y2="1499.4219"/><line style="stroke:#181818;stroke-width:0.5;stroke-dasharray:5.0,5.0;" x1="904.5" x2="904.5" y1="125.5781" y2="1499.4219"/><line style="stroke:#181818;stroke-width:0.5;stroke-dasharray:5.0,5.0;" x1="1199.5" x2="1199.5" y1="125.5781" y2="1499.4219"/><line style="stroke:#181818;stroke-width:0.5;stroke-dasharray:5.0,5.0;" x1="2048.5" x2="2048.5" y1="125.5781" y2="1499.4219"/><line style="stroke:#181818;stroke-width:0.5;stroke-dasharray:5.0,5.0;" x1="2212.5" x2="2212.5" y1="125.5781" y2="1499.4219"/><line style="stroke:#181818;stroke-width:0.5;stroke-dasharray:5.0,5.0;" x1="2383.5" x2="2383.5" y1="125.5781" y2="1499.4219"/><line style="stroke:#181818;stroke-width:0.5;stroke-dasharray:5.0,5.0;" x1="2496.5" x2="2496.5" y1="125.5781" y2="1499.4219"/><line style="stroke:#181818;stroke-width:0.5;stroke-dasharray:5.0,5.0;" x1="2810" x2="2810" y1="125.5781" y2="1499.4219"/><text fill="#000000" font-family="sans-serif" font-size="20" lengthAdjust="spacing" textLength="71" x="5" y="120.8613">Patient</text><ellipse cx="43.5" cy="50.7969" fill="#E2E2F0" rx="8" ry="8" style="stroke:#181818;stroke-width:0.5;"/><path d="M43.5,58.7969 L43.5,85.7969 M30.5,66.7969 L56.5,66.7969 M43.5,85.7969 L30.5,100.7969 M43.5,85.7969 L56.5,100.7969 " fill="none" style="stroke:#181818;stroke-width:0.5;"/><text fill="#000000" font-family="sans-serif" font-size="20" lengthAdjust="spacing" textLength="71" x="5" y="1516.9863">Patient</text><ellipse cx="43.5" cy="1530.2031" fill="#E2E2F0" rx="8" ry="8" style="stroke:#181818;stroke-width:0.5;"/><path d="M43.5,1538.2031 L43.5,1565.2031 M30.5,1546.2031 L56.5,1546.2031 M43.5,1565.2031 L30.5,1580.2031 M43.5,1565.2031 L56.5,1580.2031 " fill="none" style="stroke:#181818;stroke-width:0.5;"/><rect fill="#E2E2F0" height="37.2813" rx="2.5" ry="2.5" style="stroke:#181818;stroke-width:0.5;" width="154" x="380.5" y="87.2969"/><text fill="#000000" font-family="sans-serif" font-size="20" lengthAdjust="spacing" textLength="140" x="387.5" y="112.8613">User Interface</text><rect fill="#E2E2F0" height="37.2813" rx="2.5" ry="2.5" style="stroke:#181818;stroke-width:0.5;" width="154" x="380.5" y="1498.4219"/><text fill="#000000" font-family="sans-serif" font-size="20" lengthAdjust="spacing" textLength="140" x="387.5" y="1523.9863">User Interface</text><rect fill="#E2E2F0" height="37.2813" rx="2.5" ry="2.5" style="stroke:#181818;stroke-width:0.5;" width="158" x="825.5" y="87.2969"/><text fill="#000000" font-family="sans-serif" font-size="20" lengthAdjust="spacing" textLength="144" x="832.5" y="112.8613">UserController</text><rect fill="#E2E2F0" height="37.2813" rx="2.5" ry="2.5" style="stroke:#181818;stroke-width:0.5;" width="158" x="825.5" y="1498.4219"/><text fill="#000000" font-family="sans-serif" font-size="20" lengthAdjust="spacing" textLength="144" x="832.5" y="1523.9863">UserController</text><rect fill="#E2E2F0" height="37.2813" rx="2.5" ry="2.5" style="stroke:#181818;stroke-width:0.5;" width="132" x="1133.5" y="87.2969"/><text fill="#000000" font-family="sans-serif" font-size="20" lengthAdjust="spacing" textLength="118" x="1140.5" y="112.8613">UserService</text><rect fill="#E2E2F0" height="37.2813" rx="2.5" ry="2.5" style="stroke:#181818;stroke-width:0.5;" width="132" x="1133.5" y="1498.4219"/><text fill="#000000" font-family="sans-serif" font-size="20" lengthAdjust="spacing" textLength="118" x="1140.5" y="1523.9863">UserService</text><rect fill="#E2E2F0" height="37.2813" rx="2.5" ry="2.5" style="stroke:#181818;stroke-width:0.5;" width="144" x="1976.5" y="87.2969"/><text fill="#000000" font-family="sans-serif" font-size="20" lengthAdjust="spacing" textLength="130" x="1983.5" y="112.8613">EmailService</text><rect fill="#E2E2F0" height="37.2813" rx="2.5" ry="2.5" style="stroke:#181818;stroke-width:0.5;" width="144" x="1976.5" y="1498.4219"/><text fill="#000000" font-family="sans-serif" font-size="20" lengthAdjust="spacing" textLength="130" x="1983.5" y="1523.9863">EmailService</text><rect fill="#E2E2F0" height="37.2813" rx="2.5" ry="2.5" style="stroke:#181818;stroke-width:0.5;" width="165" x="2130.5" y="87.2969"/><text fill="#000000" font-family="sans-serif" font-size="20" lengthAdjust="spacing" textLength="151" x="2137.5" y="112.8613">UserRepository</text><rect fill="#E2E2F0" height="37.2813" rx="2.5" ry="2.5" style="stroke:#181818;stroke-width:0.5;" width="165" x="2130.5" y="1498.4219"/><text fill="#000000" font-family="sans-serif" font-size="20" lengthAdjust="spacing" textLength="151" x="2137.5" y="1523.9863">UserRepository</text><rect fill="#E2E2F0" height="37.2813" rx="2.5" ry="2.5" style="stroke:#181818;stroke-width:0.5;" width="156" x="2305.5" y="87.2969"/><text fill="#000000" font-family="sans-serif" font-size="20" lengthAdjust="spacing" textLength="142" x="2312.5" y="112.8613">LogRepository</text><rect fill="#E2E2F0" height="37.2813" rx="2.5" ry="2.5" style="stroke:#181818;stroke-width:0.5;" width="156" x="2305.5" y="1498.4219"/><text fill="#000000" font-family="sans-serif" font-size="20" lengthAdjust="spacing" textLength="142" x="2312.5" y="1523.9863">LogRepository</text><rect fill="#E2E2F0" height="37.2813" rx="2.5" ry="2.5" style="stroke:#181818;stroke-width:0.5;" width="50" x="2471.5" y="87.2969"/><text fill="#000000" font-family="sans-serif" font-size="20" lengthAdjust="spacing" textLength="36" x="2478.5" y="112.8613">Log</text><rect fill="#E2E2F0" height="37.2813" rx="2.5" ry="2.5" style="stroke:#181818;stroke-width:0.5;" width="50" x="2471.5" y="1498.4219"/><text fill="#000000" font-family="sans-serif" font-size="20" lengthAdjust="spacing" textLength="36" x="2478.5" y="1523.9863">Log</text><rect fill="#E2E2F0" height="37.2813" rx="2.5" ry="2.5" style="stroke:#181818;stroke-width:0.5;" width="108" x="2756" y="87.2969"/><text fill="#000000" font-family="sans-serif" font-size="20" lengthAdjust="spacing" textLength="94" x="2763" y="112.8613">Database</text><rect fill="#E2E2F0" height="37.2813" rx="2.5" ry="2.5" style="stroke:#181818;stroke-width:0.5;" width="108" x="2756" y="1498.4219"/><text fill="#000000" font-family="sans-serif" font-size="20" lengthAdjust="spacing" textLength="94" x="2763" y="1523.9863">Database</text><rect fill="#FFFFFF" height="1354.8438" style="stroke:#181818;stroke-width:1.0;" width="10" x="38.5" y="135.5781"/><rect fill="#FFFFFF" height="1316.5625" style="stroke:#181818;stroke-width:1.0;" width="10" x="452.5" y="164.8594"/><rect fill="#FFFFFF" height="442.0938" style="stroke:#181818;stroke-width:1.0;" width="10" x="899.5" y="202.1406"/><rect fill="#FFFFFF" height="762.625" style="stroke:#181818;stroke-width:1.0;" width="10" x="899.5" y="681.5156"/><rect fill="#FFFFFF" height="367.5313" style="stroke:#181818;stroke-width:1.0;" width="10" x="1194.5" y="239.4219"/><rect fill="#FFFFFF" height="696.0625" style="stroke:#181818;stroke-width:1.0;" width="10" x="1194.5" y="718.7969"/><rect fill="#FFFFFF" height="43.2813" style="stroke:#181818;stroke-width:1.0;" width="10" x="2043.5" y="519.3906"/><rect fill="#FFFFFF" height="111.8438" style="stroke:#181818;stroke-width:1.0;" width="10" x="2208" y="370.2656"/><rect fill="#FFFFFF" height="111.8438" style="stroke:#181818;stroke-width:1.0;" width="10" x="2208" y="846.9219"/><rect fill="#FFFFFF" height="67.2813" style="stroke:#181818;stroke-width:1.0;" width="10" x="2208" y="996.0469"/><rect fill="#FFFFFF" height="111.8438" style="stroke:#181818;stroke-width:1.0;" width="10" x="2378.5" y="1188.1719"/><rect fill="#FFFFFF" height="43.2813" style="stroke:#181818;stroke-width:1.0;" width="10" x="2491.5" y="1100.6094"/><rect fill="#FFFFFF" height="37.2813" style="stroke:#181818;stroke-width:1.0;" width="10" x="2805" y="407.5469"/><rect fill="#FFFFFF" height="37.2813" style="stroke:#181818;stroke-width:1.0;" width="10" x="2805" y="884.2031"/><rect fill="#FFFFFF" height="30" style="stroke:#181818;stroke-width:1.0;" width="10" x="2805" y="1033.3281"/><rect fill="#FFFFFF" height="37.2813" style="stroke:#181818;stroke-width:1.0;" width="10" x="2805" y="1225.4531"/><polygon fill="#000000" points="440.5,160.8594,450.5,164.8594,440.5,168.8594,444.5,164.8594" style="stroke:#000000;stroke-width:1.0;"/><line style="stroke:#000000;stroke-width:1.0;" x1="48.5" x2="446.5" y1="164.8594" y2="164.8594"/><text fill="#000000" font-family="sans-serif" font-size="20" lengthAdjust="spacing" textLength="263" x="55.5" y="158.1426">Asks to Delete User Profile</text><polygon fill="#000000" points="887.5,198.1406,897.5,202.1406,887.5,206.1406,891.5,202.1406" style="stroke:#000000;stroke-width:1.0;"/><line style="stroke:#000000;stroke-width:1.0;" x1="462.5" x2="893.5" y1="202.1406" y2="202.1406"/><text fill="#000000" font-family="sans-serif" font-size="20" lengthAdjust="spacing" textLength="220" x="469.5" y="195.4238">RequestDelete(token)</text><polygon fill="#000000" points="1182.5,235.4219,1192.5,239.4219,1182.5,243.4219,1186.5,239.4219" style="stroke:#000000;stroke-width:1.0;"/><line style="stroke:#000000;stroke-width:1.0;" x1="909.5" x2="1188.5" y1="239.4219" y2="239.4219"/><text fill="#000000" font-family="sans-serif" font-size="20" lengthAdjust="spacing" textLength="220" x="916.5" y="232.7051">RequestDelete(token)</text><path d="M1209,252.4219 L1209,285.4219 L1973,285.4219 L1973,262.4219 L1963,252.4219 L1209,252.4219 " fill="#FEFFDD" style="stroke:#181818;stroke-width:0.5;"/><path d="M1963,252.4219 L1963,262.4219 L1973,262.4219 L1963,252.4219 " fill="#FEFFDD" style="stroke:#181818;stroke-width:0.5;"/><text fill="#000000" font-family="sans-serif" font-size="20" lengthAdjust="spacing" textLength="743" x="1215" y="275.9863">This method verifies the provided token and returns the respective user id</text><line style="stroke:#000000;stroke-width:1.0;" x1="1204.5" x2="1246.5" y1="319.9844" y2="319.9844"/><line style="stroke:#000000;stroke-width:1.0;" x1="1246.5" x2="1246.5" y1="319.9844" y2="332.9844"/><line style="stroke:#000000;stroke-width:1.0;" x1="1205.5" x2="1246.5" y1="332.9844" y2="332.9844"/><polygon fill="#000000" points="1215.5,328.9844,1205.5,332.9844,1215.5,336.9844,1211.5,332.9844" style="stroke:#000000;stroke-width:1.0;"/><text fill="#000000" font-family="sans-serif" font-size="20" lengthAdjust="spacing" textLength="192" x="1211.5" y="313.2676">VerifyToken(token)</text><polygon fill="#000000" points="2196,366.2656,2206,370.2656,2196,374.2656,2200,370.2656" style="stroke:#000000;stroke-width:1.0;"/><line style="stroke:#000000;stroke-width:1.0;" x1="1204.5" x2="2202" y1="370.2656" y2="370.2656"/><text fill="#000000" font-family="sans-serif" font-size="20" lengthAdjust="spacing" textLength="217" x="1211.5" y="363.5488">GetByIdAsync(userId)</text><polygon fill="#000000" points="2793,403.5469,2803,407.5469,2793,411.5469,2797,407.5469" style="stroke:#000000;stroke-width:1.0;"/><line style="stroke:#000000;stroke-width:1.0;" x1="2218" x2="2799" y1="407.5469" y2="407.5469"/><text fill="#000000" font-family="sans-serif" font-size="20" lengthAdjust="spacing" textLength="568" x="2225" y="400.8301">_objs.Where(x =&gt; id.Equals(x.Id)).FirstOrDefaultAsync();</text><polygon fill="#000000" points="2229,440.8281,2219,444.8281,2229,448.8281,2225,444.8281" style="stroke:#000000;stroke-width:1.0;"/><line style="stroke:#000000;stroke-width:1.0;stroke-dasharray:2.0,2.0;" x1="2223" x2="2809" y1="444.8281" y2="444.8281"/><text fill="#000000" font-family="sans-serif" font-size="20" lengthAdjust="spacing" textLength="129" x="2235" y="438.1113">Returns User</text><polygon fill="#000000" points="1215.5,478.1094,1205.5,482.1094,1215.5,486.1094,1211.5,482.1094" style="stroke:#000000;stroke-width:1.0;"/><line style="stroke:#000000;stroke-width:1.0;stroke-dasharray:2.0,2.0;" x1="1209.5" x2="2212" y1="482.1094" y2="482.1094"/><text fill="#000000" font-family="sans-serif" font-size="20" lengthAdjust="spacing" textLength="129" x="1221.5" y="475.3926">Returns User</text><polygon fill="#000000" points="2031.5,515.3906,2041.5,519.3906,2031.5,523.3906,2035.5,519.3906" style="stroke:#000000;stroke-width:1.0;"/><line style="stroke:#000000;stroke-width:1.0;" x1="1204.5" x2="2037.5" y1="519.3906" y2="519.3906"/><text fill="#000000" font-family="sans-serif" font-size="20" lengthAdjust="spacing" textLength="820" x="1211.5" y="512.6738">SendEmail(user.Email, "Delete User Request", GenerateLink(token, "DeleteUser")</text><line style="stroke:#000000;stroke-width:1.0;stroke-dasharray:2.0,2.0;" x1="2053.5" x2="2095.5" y1="561.6719" y2="561.6719"/><line style="stroke:#000000;stroke-width:1.0;stroke-dasharray:2.0,2.0;" x1="2095.5" x2="2095.5" y1="561.6719" y2="574.6719"/><line style="stroke:#000000;stroke-width:1.0;stroke-dasharray:2.0,2.0;" x1="2048.5" x2="2095.5" y1="574.6719" y2="574.6719"/><polygon fill="#000000" points="2058.5,570.6719,2048.5,574.6719,2058.5,578.6719,2054.5,574.6719" style="stroke:#000000;stroke-width:1.0;"/><text fill="#000000" font-family="sans-serif" font-size="20" lengthAdjust="spacing" textLength="121" x="2060.5" y="554.9551">sendEmail()</text><polygon fill="#000000" points="920.5,602.9531,910.5,606.9531,920.5,610.9531,916.5,606.9531" style="stroke:#000000;stroke-width:1.0;"/><line style="stroke:#000000;stroke-width:1.0;stroke-dasharray:2.0,2.0;" x1="914.5" x2="1198.5" y1="606.9531" y2="606.9531"/><text fill="#000000" font-family="sans-serif" font-size="20" lengthAdjust="spacing" textLength="62" x="926.5" y="600.2363">return</text><polygon fill="#000000" points="473.5,640.2344,463.5,644.2344,473.5,648.2344,469.5,644.2344" style="stroke:#000000;stroke-width:1.0;"/><line style="stroke:#000000;stroke-width:1.0;stroke-dasharray:2.0,2.0;" x1="467.5" x2="903.5" y1="644.2344" y2="644.2344"/><text fill="#000000" font-family="sans-serif" font-size="20" lengthAdjust="spacing" textLength="413" x="479.5" y="637.5176">Returns Operation Status Response Code</text><polygon fill="#000000" points="887.5,677.5156,897.5,681.5156,887.5,685.5156,891.5,681.5156" style="stroke:#000000;stroke-width:1.0;"/><line style="stroke:#000000;stroke-width:1.0;" x1="462.5" x2="893.5" y1="681.5156" y2="681.5156"/><text fill="#000000" font-family="sans-serif" font-size="20" lengthAdjust="spacing" textLength="183" x="469.5" y="674.7988">DeleteUser(token)</text><polygon fill="#000000" points="1182.5,714.7969,1192.5,718.7969,1182.5,722.7969,1186.5,718.7969" style="stroke:#000000;stroke-width:1.0;"/><line style="stroke:#000000;stroke-width:1.0;" x1="909.5" x2="1188.5" y1="718.7969" y2="718.7969"/><text fill="#000000" font-family="sans-serif" font-size="20" lengthAdjust="spacing" textLength="183" x="916.5" y="712.0801">DeleteUser(token)</text><line style="stroke:#000000;stroke-width:1.0;" x1="1204.5" x2="1246.5" y1="756.0781" y2="756.0781"/><line style="stroke:#000000;stroke-width:1.0;" x1="1246.5" x2="1246.5" y1="756.0781" y2="769.0781"/><line style="stroke:#000000;stroke-width:1.0;" x1="1205.5" x2="1246.5" y1="769.0781" y2="769.0781"/><polygon fill="#000000" points="1215.5,765.0781,1205.5,769.0781,1215.5,773.0781,1211.5,769.0781" style="stroke:#000000;stroke-width:1.0;"/><text fill="#000000" font-family="sans-serif" font-size="20" lengthAdjust="spacing" textLength="192" x="1211.5" y="749.3613">VerifyToken(token)</text><path d="M815.5,784.0781 L891.5,784.0781 L891.5,799.3594 L881.5,809.3594 L815.5,809.3594 L815.5,784.0781 " fill="#EEEEEE" style="stroke:#000000;stroke-width:1.5;"/><rect fill="none" height="623.7813" style="stroke:#000000;stroke-width:1.5;" width="2058.5" x="815.5" y="784.0781"/><text fill="#000000" font-family="sans-serif" font-size="20" font-weight="bold" lengthAdjust="spacing" textLength="31" x="830.5" y="803.6426">alt</text><text fill="#000000" font-family="sans-serif" font-size="20" font-weight="bold" lengthAdjust="spacing" textLength="171" x="906.5" y="804.6426">[token is valid]</text><polygon fill="#000000" points="2196,842.9219,2206,846.9219,2196,850.9219,2200,846.9219" style="stroke:#000000;stroke-width:1.0;"/><line style="stroke:#000000;stroke-width:1.0;" x1="1204.5" x2="2202" y1="846.9219" y2="846.9219"/><text fill="#000000" font-family="sans-serif" font-size="20" lengthAdjust="spacing" textLength="217" x="1211.5" y="840.2051">GetByIdAsync(userId)</text><polygon fill="#000000" points="2793,880.2031,2803,884.2031,2793,888.2031,2797,884.2031" style="stroke:#000000;stroke-width:1.0;"/><line style="stroke:#000000;stroke-width:1.0;" x1="2218" x2="2799" y1="884.2031" y2="884.2031"/><text fill="#000000" font-family="sans-serif" font-size="20" lengthAdjust="spacing" textLength="568" x="2225" y="877.4863">_objs.Where(x =&gt; id.Equals(x.Id)).FirstOrDefaultAsync();</text><polygon fill="#000000" points="2229,917.4844,2219,921.4844,2229,925.4844,2225,921.4844" style="stroke:#000000;stroke-width:1.0;"/><line style="stroke:#000000;stroke-width:1.0;stroke-dasharray:2.0,2.0;" x1="2223" x2="2809" y1="921.4844" y2="921.4844"/><text fill="#000000" font-family="sans-serif" font-size="20" lengthAdjust="spacing" textLength="129" x="2235" y="914.7676">Returns User</text><polygon fill="#000000" points="1215.5,954.7656,1205.5,958.7656,1215.5,962.7656,1211.5,958.7656" style="stroke:#000000;stroke-width:1.0;"/><line style="stroke:#000000;stroke-width:1.0;stroke-dasharray:2.0,2.0;" x1="1209.5" x2="2212" y1="958.7656" y2="958.7656"/><text fill="#000000" font-family="sans-serif" font-size="20" lengthAdjust="spacing" textLength="129" x="1221.5" y="952.0488">Returns User</text><polygon fill="#000000" points="2196,992.0469,2206,996.0469,2196,1000.0469,2200,996.0469" style="stroke:#000000;stroke-width:1.0;"/><line style="stroke:#000000;stroke-width:1.0;" x1="1204.5" x2="2202" y1="996.0469" y2="996.0469"/><text fill="#000000" font-family="sans-serif" font-size="20" lengthAdjust="spacing" textLength="140" x="1211.5" y="989.3301">Remove(user)</text><polygon fill="#000000" points="2793,1029.3281,2803,1033.3281,2793,1037.3281,2797,1033.3281" style="stroke:#000000;stroke-width:1.0;"/><line style="stroke:#000000;stroke-width:1.0;" x1="2218" x2="2799" y1="1033.3281" y2="1033.3281"/><text fill="#000000" font-family="sans-serif" font-size="20" lengthAdjust="spacing" textLength="197" x="2225" y="1026.6113">_objs.Remove(user)</text><polygon fill="#000000" points="2479.5,1096.6094,2489.5,1100.6094,2479.5,1104.6094,2483.5,1100.6094" style="stroke:#000000;stroke-width:1.0;"/><line style="stroke:#000000;stroke-width:1.0;" x1="1204.5" x2="2485.5" y1="1100.6094" y2="1100.6094"/><text fill="#000000" font-family="sans-serif" font-size="20" lengthAdjust="spacing" textLength="738" x="1211.5" y="1093.8926">new Log(TypeOfAction.Delete, userId, "User of Type Patient was deleted."</text><line style="stroke:#000000;stroke-width:1.0;" x1="2501.5" x2="2543.5" y1="1142.8906" y2="1142.8906"/><line style="stroke:#000000;stroke-width:1.0;" x1="2543.5" x2="2543.5" y1="1142.8906" y2="1155.8906"/><line style="stroke:#000000;stroke-width:1.0;" x1="2496.5" x2="2543.5" y1="1155.8906" y2="1155.8906"/><polygon fill="#000000" points="2506.5,1151.8906,2496.5,1155.8906,2506.5,1159.8906,2502.5,1155.8906" style="stroke:#000000;stroke-width:1.0;"/><text fill="#000000" font-family="sans-serif" font-size="20" lengthAdjust="spacing" textLength="52" x="2508.5" y="1136.1738">Log()</text><polygon fill="#000000" points="2366.5,1184.1719,2376.5,1188.1719,2366.5,1192.1719,2370.5,1188.1719" style="stroke:#000000;stroke-width:1.0;"/><line style="stroke:#000000;stroke-width:1.0;" x1="1204.5" x2="2372.5" y1="1188.1719" y2="1188.1719"/><text fill="#000000" font-family="sans-serif" font-size="20" lengthAdjust="spacing" textLength="146" x="1211.5" y="1181.4551">AddAsync(log)</text><polygon fill="#000000" points="2793,1221.4531,2803,1225.4531,2793,1229.4531,2797,1225.4531" style="stroke:#000000;stroke-width:1.0;"/><line style="stroke:#000000;stroke-width:1.0;" x1="2388.5" x2="2799" y1="1225.4531" y2="1225.4531"/><text fill="#000000" font-family="sans-serif" font-size="20" lengthAdjust="spacing" textLength="203" x="2395.5" y="1218.7363">_objs.AddAsync(log)</text><polygon fill="#000000" points="2399.5,1258.7344,2389.5,1262.7344,2399.5,1266.7344,2395.5,1262.7344" style="stroke:#000000;stroke-width:1.0;"/><line style="stroke:#000000;stroke-width:1.0;stroke-dasharray:2.0,2.0;" x1="2393.5" x2="2809" y1="1262.7344" y2="1262.7344"/><text fill="#000000" font-family="sans-serif" font-size="20" lengthAdjust="spacing" textLength="120" x="2405.5" y="1256.0176">Returns Log</text><polygon fill="#000000" points="1215.5,1296.0156,1205.5,1300.0156,1215.5,1304.0156,1211.5,1300.0156" style="stroke:#000000;stroke-width:1.0;"/><line style="stroke:#000000;stroke-width:1.0;stroke-dasharray:2.0,2.0;" x1="1209.5" x2="2382.5" y1="1300.0156" y2="1300.0156"/><text fill="#000000" font-family="sans-serif" font-size="20" lengthAdjust="spacing" textLength="120" x="1221.5" y="1293.2988">Returns Log</text><polygon fill="#000000" points="920.5,1333.2969,910.5,1337.2969,920.5,1341.2969,916.5,1337.2969" style="stroke:#000000;stroke-width:1.0;"/><line style="stroke:#000000;stroke-width:1.0;stroke-dasharray:2.0,2.0;" x1="914.5" x2="1193.5" y1="1337.2969" y2="1337.2969"/><text fill="#000000" font-family="sans-serif" font-size="20" lengthAdjust="spacing" textLength="62" x="926.5" y="1330.5801">return</text><line style="stroke:#000000;stroke-width:1.0;stroke-dasharray:2.0,2.0;" x1="815.5" x2="2874" y1="1346.2969" y2="1346.2969"/><text fill="#000000" font-family="sans-serif" font-size="20" font-weight="bold" lengthAdjust="spacing" textLength="192" x="820.5" y="1364.8613">[token is invalid]</text><polygon fill="#000000" points="920.5,1395.8594,910.5,1399.8594,920.5,1403.8594,916.5,1399.8594" style="stroke:#000000;stroke-width:1.0;"/><line style="stroke:#000000;stroke-width:1.0;" x1="914.5" x2="1193.5" y1="1399.8594" y2="1399.8594"/><text fill="#000000" font-family="sans-serif" font-size="20" lengthAdjust="spacing" textLength="261" x="926.5" y="1393.1426">return exception message</text><polygon fill="#000000" points="473.5,1440.1406,463.5,1444.1406,473.5,1448.1406,469.5,1444.1406" style="stroke:#000000;stroke-width:1.0;"/><line style="stroke:#000000;stroke-width:1.0;stroke-dasharray:2.0,2.0;" x1="467.5" x2="903.5" y1="1444.1406" y2="1444.1406"/><text fill="#000000" font-family="sans-serif" font-size="20" lengthAdjust="spacing" textLength="413" x="479.5" y="1437.4238">Returns Operation Status Response Code</text><polygon fill="#000000" points="59.5,1477.4219,49.5,1481.4219,59.5,1485.4219,55.5,1481.4219" style="stroke:#000000;stroke-width:1.0;"/><line style="stroke:#000000;stroke-width:1.0;stroke-dasharray:2.0,2.0;" x1="53.5" x2="456.5" y1="1481.4219" y2="1481.4219"/><text fill="#000000" font-family="sans-serif" font-size="20" lengthAdjust="spacing" textLength="380" x="65.5" y="1474.7051">Returns Operation In/Sucess message</text><!--SRC=[hPLHZzeu4CVVyob6zE50sj9UJzVsQ6ybGaA556bHidjzhBp902x1Jcs7NQxgT-_Opa82B7VItRwmU7up_dlcRwFNN5HCiKqfypKMKE22rQMPIc4o_ZV2czT1OBWf4HBSOWc_GSJPalWWMF420JULsS46D_UeTF2BVYe72HTeTXM2L6ObW-0GoKkcDNmFWFv2bg-NIjQYcCXIgeyVjwoiyUR-A-Rc-XfUH6_ZyVJzULH9wPXf58VHw_ECHhNbERfIlqxVnE4vZ4h4qp_YTousLae- -EMm92xuqTPUqGfRuddry28EfxzFGvl2SaCBSsOu2WDCmpoW2eRdl6AqqBiZPJ0J1jM2vTYpnDti59dG79GiIrGEcPmIcJ-X2sVTSBnXl6p7u-mqFyLAQavYTmv9kqGYbqT0SahuzUvon0oxPzhl6uMk8NpB358Zvl3ocauxWh5UQp0I8YoH8gudSoKNlCG3JssvczcCoGXI_5QZDfxl6xb6CJYGas1YkUoVk2mGaZuKNwuCo8LDk5rnJIucfnQmHSKN74dP2g5ISai-By0L0IOAK6Xg9NnOeQxGraMehNfU15cZuIzRPdThqvuKk50wWazemjsi6EkToFisRrQqvAL1Qhae7C4NUVzL3p-lK67_4Vwyflh3-5lDIjr_75BIO3ZbIfiR5VbhwoiEFXoAKUkZ45xwVTD6kMrqK60RIXsJFS-aNdrCI8QYSDvoseVktoiQUMkApG1wLtHMWOeAq7kmzdtOevRijGvEzempfyFkelUx3Dew2F8CsS5FeXtDh0KQTpsTvAQo0hWKa1bcQl8u3KqAJOQH1RQp9mUd7HHUiDa5ABla0rQQna_aEdhno3NsERbe3mkqXc6__dURT8f6_d5ynYusrBLC8-6CROxOj7Ew53ToY-vS_-PKp-EDX5DHvxTEHY3m0UYzwj_IxzBDOfnRKmpz4A_0D_ggUPhfMR3K_WL_e6UiS6Gnx7Lr9EvhqknXwm-EPIGj6TI2ST4CjvJBeqCbNd5or8KB6Tsn9QsvaPHdEfISpEqCc-oRrxbjMDBDsRkNYoF_xa70nnmhT-ysg3NzQWPqe__loqhfytFPC_4ggtFQTxzvAvL-Kdu2]--></g></svg>