<?xml version="1.0" encoding="UTF-8" standalone="no"?><svg xmlns="http://www.w3.org/2000/svg" xmlns:xlink="http://www.w3.org/1999/xlink" contentStyleType="text/css" height="530px" preserveAspectRatio="none" style="width:1971px;height:530px;background:#FFFFFF;" version="1.1" viewBox="0 0 1971 530" width="1971px" zoomAndPan="magnify"><defs/><g><text fill="#000000" font-family="sans-serif" font-size="14" font-weight="bold" lengthAdjust="spacing" textLength="126" x="924.5" y="27.9951">Level 2 Diagram</text><rect fill="#FFFFFF" height="298.25" style="stroke:#181818;stroke-width:1.0;" width="10" x="36" y="135.5781"/><rect fill="#FFFFFF" height="37.2813" style="stroke:#181818;stroke-width:1.0;" width="10" x="786" y="164.8594"/><rect fill="#FFFFFF" height="162.125" style="stroke:#181818;stroke-width:1.0;" width="10" x="786" y="262.7031"/><rect fill="#FFFFFF" height="87.5625" style="stroke:#181818;stroke-width:1.0;" width="10" x="1405" y="299.9844"/><line style="stroke:#181818;stroke-width:0.5;stroke-dasharray:5.0,5.0;" x1="41" x2="41" y1="125.5781" y2="442.8281"/><line style="stroke:#181818;stroke-width:0.5;stroke-dasharray:5.0,5.0;" x1="790.5" x2="790.5" y1="125.5781" y2="442.8281"/><line style="stroke:#181818;stroke-width:0.5;stroke-dasharray:5.0,5.0;" x1="1410" x2="1410" y1="125.5781" y2="442.8281"/><text fill="#000000" font-family="sans-serif" font-size="20" lengthAdjust="spacing" textLength="66" x="5" y="120.8613">Admin</text><ellipse cx="41" cy="50.7969" fill="#E2E2F0" rx="8" ry="8" style="stroke:#181818;stroke-width:0.5;"/><path d="M41,58.7969 L41,85.7969 M28,66.7969 L54,66.7969 M41,85.7969 L28,100.7969 M41,85.7969 L54,100.7969 " fill="none" style="stroke:#181818;stroke-width:0.5;"/><text fill="#000000" font-family="sans-serif" font-size="20" lengthAdjust="spacing" textLength="66" x="5" y="460.3926">Admin</text><ellipse cx="41" cy="473.6094" fill="#E2E2F0" rx="8" ry="8" style="stroke:#181818;stroke-width:0.5;"/><path d="M41,481.6094 L41,508.6094 M28,489.6094 L54,489.6094 M41,508.6094 L28,523.6094 M41,508.6094 L54,523.6094 " fill="none" style="stroke:#181818;stroke-width:0.5;"/><rect fill="#E2E2F0" height="37.2813" rx="2.5" ry="2.5" style="stroke:#181818;stroke-width:0.5;" width="39" x="771.5" y="87.2969"/><text fill="#000000" font-family="sans-serif" font-size="20" lengthAdjust="spacing" textLength="25" x="778.5" y="112.8613">FE</text><rect fill="#E2E2F0" height="37.2813" rx="2.5" ry="2.5" style="stroke:#181818;stroke-width:0.5;" width="39" x="771.5" y="441.8281"/><text fill="#000000" font-family="sans-serif" font-size="20" lengthAdjust="spacing" textLength="25" x="778.5" y="467.3926">FE</text><rect fill="#E2E2F0" height="37.2813" rx="2.5" ry="2.5" style="stroke:#181818;stroke-width:0.5;" width="60" x="1380" y="87.2969"/><text fill="#000000" font-family="sans-serif" font-size="20" lengthAdjust="spacing" textLength="46" x="1387" y="112.8613">MDR</text><rect fill="#E2E2F0" height="37.2813" rx="2.5" ry="2.5" style="stroke:#181818;stroke-width:0.5;" width="60" x="1380" y="441.8281"/><text fill="#000000" font-family="sans-serif" font-size="20" lengthAdjust="spacing" textLength="46" x="1387" y="467.3926">MDR</text><rect fill="#FFFFFF" height="298.25" style="stroke:#181818;stroke-width:1.0;" width="10" x="36" y="135.5781"/><rect fill="#FFFFFF" height="37.2813" style="stroke:#181818;stroke-width:1.0;" width="10" x="786" y="164.8594"/><rect fill="#FFFFFF" height="162.125" style="stroke:#181818;stroke-width:1.0;" width="10" x="786" y="262.7031"/><rect fill="#FFFFFF" height="87.5625" style="stroke:#181818;stroke-width:1.0;" width="10" x="1405" y="299.9844"/><polygon fill="#000000" points="774,160.8594,784,164.8594,774,168.8594,778,164.8594" style="stroke:#000000;stroke-width:1.0;"/><line style="stroke:#000000;stroke-width:1.0;" x1="46" x2="780" y1="164.8594" y2="164.8594"/><text fill="#000000" font-family="sans-serif" font-size="20" lengthAdjust="spacing" textLength="236" x="53" y="158.1426">Asks to create a Patient</text><polygon fill="#000000" points="57,198.1406,47,202.1406,57,206.1406,53,202.1406" style="stroke:#000000;stroke-width:1.0;"/><line style="stroke:#000000;stroke-width:1.0;stroke-dasharray:2.0,2.0;" x1="51" x2="790" y1="202.1406" y2="202.1406"/><text fill="#000000" font-family="sans-serif" font-size="20" lengthAdjust="spacing" textLength="223" x="63" y="195.4238">Asks for Patient's data</text><polygon fill="#000000" points="774,258.7031,784,262.7031,774,266.7031,778,262.7031" style="stroke:#000000;stroke-width:1.0;"/><line style="stroke:#000000;stroke-width:1.0;" x1="46" x2="780" y1="262.7031" y2="262.7031"/><text fill="#000000" font-family="sans-serif" font-size="20" lengthAdjust="spacing" textLength="692" x="53" y="232.7051">Sends Patient's data (First name, Last name, Fullname, Date of birth,</text><text fill="#000000" font-family="sans-serif" font-size="20" lengthAdjust="spacing" textLength="721" x="53" y="255.9863">Gender, Email, Phone number, Emergency Contact, Medical Conditions)</text><polygon fill="#000000" points="1393,295.9844,1403,299.9844,1393,303.9844,1397,299.9844" style="stroke:#000000;stroke-width:1.0;"/><line style="stroke:#000000;stroke-width:1.0;" x1="796" x2="1399" y1="299.9844" y2="299.9844"/><text fill="#000000" font-family="sans-serif" font-size="20" lengthAdjust="spacing" textLength="590" x="803" y="293.2676">Sends HTTP Request to create a Patient with Patient's data</text><line style="stroke:#000000;stroke-width:1.0;" x1="1415" x2="1457" y1="337.2656" y2="337.2656"/><line style="stroke:#000000;stroke-width:1.0;" x1="1457" x2="1457" y1="337.2656" y2="350.2656"/><line style="stroke:#000000;stroke-width:1.0;" x1="1416" x2="1457" y1="350.2656" y2="350.2656"/><polygon fill="#000000" points="1426,346.2656,1416,350.2656,1426,354.2656,1422,350.2656" style="stroke:#000000;stroke-width:1.0;"/><text fill="#000000" font-family="sans-serif" font-size="20" lengthAdjust="spacing" textLength="542" x="1422" y="330.5488">Validates Patient's data and tries to create the Patient</text><polygon fill="#000000" points="807,383.5469,797,387.5469,807,391.5469,803,387.5469" style="stroke:#000000;stroke-width:1.0;"/><line style="stroke:#000000;stroke-width:1.0;stroke-dasharray:2.0,2.0;" x1="801" x2="1409" y1="387.5469" y2="387.5469"/><text fill="#000000" font-family="sans-serif" font-size="20" lengthAdjust="spacing" textLength="311" x="813" y="380.8301">Returns Operation Status Code</text><polygon fill="#000000" points="57,420.8281,47,424.8281,57,428.8281,53,424.8281" style="stroke:#000000;stroke-width:1.0;"/><line style="stroke:#000000;stroke-width:1.0;stroke-dasharray:2.0,2.0;" x1="51" x2="790" y1="424.8281" y2="424.8281"/><text fill="#000000" font-family="sans-serif" font-size="20" lengthAdjust="spacing" textLength="380" x="63" y="418.1113">Returns Operation In/Sucess message</text><!--SRC=[RPDlRzem4CRV-rESsXVT9AfrIFkh2YbfucqILH5KUxKtHto0XsCp-qB5fdttNL8A38YKn7hykoTtvqjQMh_2YBKBrP8C69fXurW7pnFxcw1_enHRTWH3MfE3FXGMvy8hjR26WEeLRw2cUaengQlqOWT3wuatAu8GUH6KskzK3bE2Fmhaoh5QpcDelBaBBiJRspMwXXwcFwdYmG0kY_TbfZ-UHsC87QEBCYzkpZE9ujfMr5czrVqoFuU9HQa_bH-wlIp6yFGivquuzVSmzvKeEAVpsSDbcUjtEcz3i68HCbDR3vWWKnBFjh8hz0mNkhneLLt-BzyNuqwNj-eix1gP93Y3wu7Gdo5BomGSe8hKxY2Ca2rvtiFYgKku5ZxRuZD9P8jT9J38g0mTyZlt2NcJZbXufMrC31vhwi4GTqlTEFUyAbgVC8EfbQFkmG__HNmezg2iqReUZ1R14_YcdP5Mf3WdNstWJePCykZ1FHbReMi5Oza6drwV53Hek_AIujV7nn6CwLT3aiwPTi2JvSLnqJl7jhroxpo_exD2q4dfw0rmj7JOSbxGhkcToRPtO-8c-WGFAuhOrW0JHcwI56NeiE7jr_SdT1hspR-PD1N9BrBBGuRjwBJKFm00]--></g></svg>