<?xml version="1.0" encoding="UTF-8" standalone="no"?><svg xmlns="http://www.w3.org/2000/svg" xmlns:xlink="http://www.w3.org/1999/xlink" contentStyleType="text/css" height="810px" preserveAspectRatio="none" style="width:3491px;height:810px;background:#FFFFFF;" version="1.1" viewBox="0 0 3491 810" width="3491px" zoomAndPan="magnify"><defs/><g><text fill="#000000" font-family="sans-serif" font-size="14" font-weight="bold" lengthAdjust="spacing" textLength="248" x="1623.5" y="27.9951">Level 3 FE Diagram for US 7.2.5</text><rect fill="#FFFFFF" height="578.2188" style="stroke:#181818;stroke-width:1.0;" width="10" x="36" y="135.5781"/><rect fill="#FFFFFF" height="539.9375" style="stroke:#181818;stroke-width:1.0;" width="10" x="496" y="164.8594"/><rect fill="#FFFFFF" height="37.2813" style="stroke:#181818;stroke-width:1.0;" width="10" x="916" y="202.1406"/><rect fill="#FFFFFF" height="428.0938" style="stroke:#181818;stroke-width:1.0;" width="10" x="1562" y="239.4219"/><rect fill="#FFFFFF" height="353.5313" style="stroke:#181818;stroke-width:1.0;" width="10" x="1998" y="276.7031"/><rect fill="#FFFFFF" height="278.9688" style="stroke:#181818;stroke-width:1.0;" width="10" x="2524" y="313.9844"/><rect fill="#FFFFFF" height="87.5625" style="stroke:#181818;stroke-width:1.0;" width="10" x="3163" y="468.1094"/><line style="stroke:#181818;stroke-width:0.5;stroke-dasharray:5.0,5.0;" x1="41" x2="41" y1="125.5781" y2="722.7969"/><line style="stroke:#181818;stroke-width:0.5;stroke-dasharray:5.0,5.0;" x1="500.5" x2="500.5" y1="125.5781" y2="722.7969"/><line style="stroke:#181818;stroke-width:0.5;stroke-dasharray:5.0,5.0;" x1="920.5" x2="920.5" y1="125.5781" y2="722.7969"/><line style="stroke:#181818;stroke-width:0.5;stroke-dasharray:5.0,5.0;" x1="1566.5" x2="1566.5" y1="125.5781" y2="722.7969"/><line style="stroke:#181818;stroke-width:0.5;stroke-dasharray:5.0,5.0;" x1="2002.5" x2="2002.5" y1="125.5781" y2="722.7969"/><line style="stroke:#181818;stroke-width:0.5;stroke-dasharray:5.0,5.0;" x1="2528.5" x2="2528.5" y1="125.5781" y2="722.7969"/><line style="stroke:#181818;stroke-width:0.5;stroke-dasharray:5.0,5.0;" x1="3168" x2="3168" y1="125.5781" y2="722.7969"/><text fill="#000000" font-family="sans-serif" font-size="20" lengthAdjust="spacing" textLength="66" x="5" y="120.8613">Doctor</text><ellipse cx="41" cy="50.7969" fill="#E2E2F0" rx="8" ry="8" style="stroke:#181818;stroke-width:0.5;"/><path d="M41,58.7969 L41,85.7969 M28,66.7969 L54,66.7969 M41,85.7969 L28,100.7969 M41,85.7969 L54,100.7969 " fill="none" style="stroke:#181818;stroke-width:0.5;"/><text fill="#000000" font-family="sans-serif" font-size="20" lengthAdjust="spacing" textLength="66" x="5" y="740.3613">Doctor</text><ellipse cx="41" cy="753.5781" fill="#E2E2F0" rx="8" ry="8" style="stroke:#181818;stroke-width:0.5;"/><path d="M41,761.5781 L41,788.5781 M28,769.5781 L54,769.5781 M41,788.5781 L28,803.5781 M41,788.5781 L54,803.5781 " fill="none" style="stroke:#181818;stroke-width:0.5;"/><rect fill="#E2E2F0" height="37.2813" rx="2.5" ry="2.5" style="stroke:#181818;stroke-width:0.5;" width="63" x="469.5" y="87.2969"/><text fill="#000000" font-family="sans-serif" font-size="20" lengthAdjust="spacing" textLength="49" x="476.5" y="112.8613">View</text><rect fill="#E2E2F0" height="37.2813" rx="2.5" ry="2.5" style="stroke:#181818;stroke-width:0.5;" width="63" x="469.5" y="721.7969"/><text fill="#000000" font-family="sans-serif" font-size="20" lengthAdjust="spacing" textLength="49" x="476.5" y="747.3613">View</text><rect fill="#E2E2F0" height="37.2813" rx="2.5" ry="2.5" style="stroke:#181818;stroke-width:0.5;" width="365" x="738.5" y="87.2969"/><text fill="#000000" font-family="sans-serif" font-size="20" lengthAdjust="spacing" textLength="351" x="745.5" y="112.8613">MedicalHistoryManagerComponent</text><rect fill="#E2E2F0" height="37.2813" rx="2.5" ry="2.5" style="stroke:#181818;stroke-width:0.5;" width="365" x="738.5" y="721.7969"/><text fill="#000000" font-family="sans-serif" font-size="20" lengthAdjust="spacing" textLength="351" x="745.5" y="747.3613">MedicalHistoryManagerComponent</text><rect fill="#E2E2F0" height="37.2813" rx="2.5" ry="2.5" style="stroke:#181818;stroke-width:0.5;" width="351" x="1391.5" y="87.2969"/><text fill="#000000" font-family="sans-serif" font-size="20" lengthAdjust="spacing" textLength="337" x="1398.5" y="112.8613">UpdateMedicalHistoryComponent</text><rect fill="#E2E2F0" height="37.2813" rx="2.5" ry="2.5" style="stroke:#181818;stroke-width:0.5;" width="351" x="1391.5" y="721.7969"/><text fill="#000000" font-family="sans-serif" font-size="20" lengthAdjust="spacing" textLength="337" x="1398.5" y="747.3613">UpdateMedicalHistoryComponent</text><rect fill="#E2E2F0" height="37.2813" rx="2.5" ry="2.5" style="stroke:#181818;stroke-width:0.5;" width="261" x="1872.5" y="87.2969"/><text fill="#000000" font-family="sans-serif" font-size="20" lengthAdjust="spacing" textLength="247" x="1879.5" y="112.8613">MedicalConditionService</text><rect fill="#E2E2F0" height="37.2813" rx="2.5" ry="2.5" style="stroke:#181818;stroke-width:0.5;" width="261" x="1872.5" y="721.7969"/><text fill="#000000" font-family="sans-serif" font-size="20" lengthAdjust="spacing" textLength="247" x="1879.5" y="747.3613">MedicalConditionService</text><rect fill="#E2E2F0" height="37.2813" rx="2.5" ry="2.5" style="stroke:#181818;stroke-width:0.5;" width="173" x="2442.5" y="87.2969"/><text fill="#000000" font-family="sans-serif" font-size="20" lengthAdjust="spacing" textLength="159" x="2449.5" y="112.8613">AuthInterceptor</text><rect fill="#E2E2F0" height="37.2813" rx="2.5" ry="2.5" style="stroke:#181818;stroke-width:0.5;" width="173" x="2442.5" y="721.7969"/><text fill="#000000" font-family="sans-serif" font-size="20" lengthAdjust="spacing" textLength="159" x="2449.5" y="747.3613">AuthInterceptor</text><rect fill="#E2E2F0" height="37.2813" rx="2.5" ry="2.5" style="stroke:#181818;stroke-width:0.5;" width="60" x="3138" y="87.2969"/><text fill="#000000" font-family="sans-serif" font-size="20" lengthAdjust="spacing" textLength="46" x="3145" y="112.8613">MDV</text><rect fill="#E2E2F0" height="37.2813" rx="2.5" ry="2.5" style="stroke:#181818;stroke-width:0.5;" width="60" x="3138" y="721.7969"/><text fill="#000000" font-family="sans-serif" font-size="20" lengthAdjust="spacing" textLength="46" x="3145" y="747.3613">MDV</text><rect fill="#FFFFFF" height="578.2188" style="stroke:#181818;stroke-width:1.0;" width="10" x="36" y="135.5781"/><rect fill="#FFFFFF" height="539.9375" style="stroke:#181818;stroke-width:1.0;" width="10" x="496" y="164.8594"/><rect fill="#FFFFFF" height="37.2813" style="stroke:#181818;stroke-width:1.0;" width="10" x="916" y="202.1406"/><rect fill="#FFFFFF" height="428.0938" style="stroke:#181818;stroke-width:1.0;" width="10" x="1562" y="239.4219"/><rect fill="#FFFFFF" height="353.5313" style="stroke:#181818;stroke-width:1.0;" width="10" x="1998" y="276.7031"/><rect fill="#FFFFFF" height="278.9688" style="stroke:#181818;stroke-width:1.0;" width="10" x="2524" y="313.9844"/><rect fill="#FFFFFF" height="87.5625" style="stroke:#181818;stroke-width:1.0;" width="10" x="3163" y="468.1094"/><polygon fill="#000000" points="484,160.8594,494,164.8594,484,168.8594,488,164.8594" style="stroke:#000000;stroke-width:1.0;"/><line style="stroke:#000000;stroke-width:1.0;" x1="46" x2="490" y1="164.8594" y2="164.8594"/><text fill="#000000" font-family="sans-serif" font-size="20" lengthAdjust="spacing" textLength="431" x="53" y="158.1426">Requests to update Patient Medical Record</text><polygon fill="#000000" points="904,198.1406,914,202.1406,904,206.1406,908,202.1406" style="stroke:#000000;stroke-width:1.0;"/><line style="stroke:#000000;stroke-width:1.0;" x1="506" x2="910" y1="202.1406" y2="202.1406"/><text fill="#000000" font-family="sans-serif" font-size="20" lengthAdjust="spacing" textLength="391" x="513" y="195.4238">routerLink='/medical-history-manager'</text><polygon fill="#000000" points="1550,235.4219,1560,239.4219,1550,243.4219,1554,239.4219" style="stroke:#000000;stroke-width:1.0;"/><line style="stroke:#000000;stroke-width:1.0;" x1="921" x2="1556" y1="239.4219" y2="239.4219"/><text fill="#000000" font-family="sans-serif" font-size="20" lengthAdjust="spacing" textLength="617" x="928" y="232.7051">routerLink='/update-medical-history/:medicalRecordNumber'</text><polygon fill="#000000" points="1986,272.7031,1996,276.7031,1986,280.7031,1990,276.7031" style="stroke:#000000;stroke-width:1.0;"/><line style="stroke:#000000;stroke-width:1.0;" x1="1572" x2="1992" y1="276.7031" y2="276.7031"/><text fill="#000000" font-family="sans-serif" font-size="20" lengthAdjust="spacing" textLength="233" x="1579" y="269.9863">getMedicalConditions()</text><polygon fill="#000000" points="2512,309.9844,2522,313.9844,2512,317.9844,2516,313.9844" style="stroke:#000000;stroke-width:1.0;"/><line style="stroke:#000000;stroke-width:1.0;" x1="2008" x2="2518" y1="313.9844" y2="313.9844"/><text fill="#000000" font-family="sans-serif" font-size="20" lengthAdjust="spacing" textLength="497" x="2015" y="307.2676">Sends HTTP Request to get all Medical Conditions</text><line style="stroke:#000000;stroke-width:1.0;" x1="2534" x2="2576" y1="351.2656" y2="351.2656"/><line style="stroke:#000000;stroke-width:1.0;" x1="2576" x2="2576" y1="351.2656" y2="364.2656"/><line style="stroke:#000000;stroke-width:1.0;" x1="2535" x2="2576" y1="364.2656" y2="364.2656"/><polygon fill="#000000" points="2545,360.2656,2535,364.2656,2545,368.2656,2541,364.2656" style="stroke:#000000;stroke-width:1.0;"/><text fill="#000000" font-family="sans-serif" font-size="20" lengthAdjust="spacing" textLength="563" x="2541" y="344.5488">Intercepts the request and adds the token to the header</text><path d="M2539,377.2656 L2539,433.2656 L3058,433.2656 L3058,387.2656 L3048,377.2656 L2539,377.2656 " fill="#FEFFDD" style="stroke:#181818;stroke-width:0.5;"/><path d="M3048,377.2656 L3048,387.2656 L3058,387.2656 L3048,377.2656 " fill="#FEFFDD" style="stroke:#181818;stroke-width:0.5;"/><text fill="#000000" font-family="sans-serif" font-size="20" lengthAdjust="spacing" textLength="498" x="2545" y="400.8301">The token is added to the header so that the MDV</text><text fill="#000000" font-family="sans-serif" font-size="20" lengthAdjust="spacing" textLength="442" x="2545" y="424.1113">can authenticate and authorize the request.</text><polygon fill="#000000" points="3151,464.1094,3161,468.1094,3151,472.1094,3155,468.1094" style="stroke:#000000;stroke-width:1.0;"/><line style="stroke:#000000;stroke-width:1.0;" x1="2534" x2="3157" y1="468.1094" y2="468.1094"/><text fill="#000000" font-family="sans-serif" font-size="20" lengthAdjust="spacing" textLength="610" x="2541" y="461.3926">Sends HTTP Request with token to get all Medical Conditions</text><line style="stroke:#000000;stroke-width:1.0;" x1="3173" x2="3215" y1="505.3906" y2="505.3906"/><line style="stroke:#000000;stroke-width:1.0;" x1="3215" x2="3215" y1="505.3906" y2="518.3906"/><line style="stroke:#000000;stroke-width:1.0;" x1="3174" x2="3215" y1="518.3906" y2="518.3906"/><polygon fill="#000000" points="3184,514.3906,3174,518.3906,3184,522.3906,3180,518.3906" style="stroke:#000000;stroke-width:1.0;"/><text fill="#000000" font-family="sans-serif" font-size="20" lengthAdjust="spacing" textLength="304" x="3180" y="498.6738">Fetches all Medical Conditions</text><polygon fill="#000000" points="2545,551.6719,2535,555.6719,2545,559.6719,2541,555.6719" style="stroke:#000000;stroke-width:1.0;"/><line style="stroke:#000000;stroke-width:1.0;stroke-dasharray:2.0,2.0;" x1="2539" x2="3167" y1="555.6719" y2="555.6719"/><text fill="#000000" font-family="sans-serif" font-size="20" lengthAdjust="spacing" textLength="402" x="2551" y="548.9551">Returns get results (Medical Conditions)</text><polygon fill="#000000" points="2019,588.9531,2009,592.9531,2019,596.9531,2015,592.9531" style="stroke:#000000;stroke-width:1.0;"/><line style="stroke:#000000;stroke-width:1.0;stroke-dasharray:2.0,2.0;" x1="2013" x2="2528" y1="592.9531" y2="592.9531"/><text fill="#000000" font-family="sans-serif" font-size="20" lengthAdjust="spacing" textLength="402" x="2025" y="586.2363">Returns get results (Medical Conditions)</text><polygon fill="#000000" points="1583,626.2344,1573,630.2344,1583,634.2344,1579,630.2344" style="stroke:#000000;stroke-width:1.0;"/><line style="stroke:#000000;stroke-width:1.0;stroke-dasharray:2.0,2.0;" x1="1577" x2="2002" y1="630.2344" y2="630.2344"/><text fill="#000000" font-family="sans-serif" font-size="20" lengthAdjust="spacing" textLength="402" x="1589" y="623.5176">Returns get results (Medical Conditions)</text><polygon fill="#000000" points="517,663.5156,507,667.5156,517,671.5156,513,667.5156" style="stroke:#000000;stroke-width:1.0;"/><line style="stroke:#000000;stroke-width:1.0;stroke-dasharray:2.0,2.0;" x1="511" x2="1566" y1="667.5156" y2="667.5156"/><text fill="#000000" font-family="sans-serif" font-size="20" lengthAdjust="spacing" textLength="402" x="523" y="660.7988">Returns get results (Medical Conditions)</text><polygon fill="#000000" points="57,700.7969,47,704.7969,57,708.7969,53,704.7969" style="stroke:#000000;stroke-width:1.0;"/><line style="stroke:#000000;stroke-width:1.0;stroke-dasharray:2.0,2.0;" x1="51" x2="500" y1="704.7969" y2="704.7969"/><text fill="#000000" font-family="sans-serif" font-size="20" lengthAdjust="spacing" textLength="407" x="63" y="698.0801">Displays get results (Medical Conditions)</text><!--SRC=[dLHTJzim57tthxY21-2Xm9WOMyMGsdoebUY6AEJTn9V6Qs9djbC4q_xxhfr-aAwJ1f6Io3Vtd7lkyOtjNAgQ6rwLEf-Z086Fl2bTgfMRoXU4irF6d7GbmZKki8IFa2OGIpuZ23ng0_TJk3W-Epvdh9020QlQFKE5rGCQovXTqKDUSclX5mEwXZoVpunkb8XqgStbvOAN3Nv_-86vkxg2_VXJCaW_xqurMeUSD4w6yUdk78jc8NCCL1_IisIuAuqealHBSX6-3OpHJsruM58U-_rQUqqHFiFTwc4_6QRdwT13UEue4ElmuXPYHWHEvhBcoi5U9l5fpySpw7wOe90vBqVI4l1vmXLLCv6kQgrGkG2PZ2PH5tHV2-wm2-rYxYUZQ6UXI2iXdTHgsZhLLeYctUH1uugnScXoh8ay90t6MuHnreBZBBGl5wI9-ewXTmLP7sxnPuFMMN0QcY0ORhYJf12MMYWbrqPim1dBFDWtt0VocGHSIpN_Ud1IjOXUqJRRgrgZ3ZROu99_U0RV_XP3Aw6tHNJINmPQATyQFxq7J62NTxqAllf7q1bD-p13jssjFJnwfOkyfTld3yPzcA8I5aPtTpShWxm_H0AyBDV6RAWsHEJ_OBoYMMyEsLiWc2KLLmAu46tGwJagp-uN1NA1XYbDJ4RE2WVwqLFwiRvR9qlhuNGOT51W_Ogx4FBRxK4vLy1fJ6W_IJAnXjeKqCQV7gzK7JFg6NpbPGD4iTE89-cAZUh_ySIBeNjDcgBB2xJ_meNKfOEtw1gZR2XZqDB9P-7mRynHPnQed6zXjVVluI3FmpYif_HTGcYebcEu-jdUJX9ckJKaxjF9RkkIFx-D8cD_0000]--></g></svg>