<?xml version="1.0" encoding="UTF-8" standalone="no"?><svg xmlns="http://www.w3.org/2000/svg" xmlns:xlink="http://www.w3.org/1999/xlink" contentStyleType="text/css" height="802px" preserveAspectRatio="none" style="width:3396px;height:802px;background:#FFFFFF;" version="1.1" viewBox="0 0 3396 802" width="3396px" zoomAndPan="magnify"><defs/><g><text fill="#000000" font-family="sans-serif" font-size="14" font-weight="bold" lengthAdjust="spacing" textLength="225" x="1587.75" y="27.9951">Level 3 Diagram for US 7.2.5</text><rect fill="#FFFFFF" height="660.7813" style="stroke:#181818;stroke-width:1.0;" width="10" x="19.5" y="90.5781"/><rect fill="#FFFFFF" height="622.5" style="stroke:#181818;stroke-width:1.0;" width="10" x="540.5" y="119.8594"/><rect fill="#FFFFFF" height="547.9375" style="stroke:#181818;stroke-width:1.0;" width="10" x="946.5" y="157.1406"/><rect fill="#FFFFFF" height="473.375" style="stroke:#181818;stroke-width:1.0;" width="10" x="1352.5" y="194.4219"/><rect fill="#FFFFFF" height="236.6875" style="stroke:#181818;stroke-width:1.0;" width="10" x="1684.5" y="231.7031"/><rect fill="#FFFFFF" height="124.8438" style="stroke:#181818;stroke-width:1.0;" width="10" x="2336.5" y="505.6719"/><rect fill="#FFFFFF" height="162.125" style="stroke:#181818;stroke-width:1.0;" width="10" x="2596" y="268.9844"/><rect fill="#FFFFFF" height="43.2813" style="stroke:#181818;stroke-width:1.0;" width="10" x="2856" y="542.9531"/><rect fill="#FFFFFF" height="87.5625" style="stroke:#181818;stroke-width:1.0;" width="10" x="3035.5" y="306.2656"/><line style="stroke:#181818;stroke-width:0.5;stroke-dasharray:5.0,5.0;" x1="24" x2="24" y1="80.5781" y2="760.3594"/><line style="stroke:#181818;stroke-width:0.5;stroke-dasharray:5.0,5.0;" x1="545" x2="545" y1="80.5781" y2="760.3594"/><line style="stroke:#181818;stroke-width:0.5;stroke-dasharray:5.0,5.0;" x1="951" x2="951" y1="80.5781" y2="760.3594"/><line style="stroke:#181818;stroke-width:0.5;stroke-dasharray:5.0,5.0;" x1="1357" x2="1357" y1="80.5781" y2="760.3594"/><line style="stroke:#181818;stroke-width:0.5;stroke-dasharray:5.0,5.0;" x1="1689" x2="1689" y1="80.5781" y2="760.3594"/><line style="stroke:#181818;stroke-width:0.5;stroke-dasharray:5.0,5.0;" x1="2341.5" x2="2341.5" y1="80.5781" y2="760.3594"/><line style="stroke:#181818;stroke-width:0.5;stroke-dasharray:5.0,5.0;" x1="2600.5" x2="2600.5" y1="80.5781" y2="760.3594"/><line style="stroke:#181818;stroke-width:0.5;stroke-dasharray:5.0,5.0;" x1="2860.5" x2="2860.5" y1="80.5781" y2="760.3594"/><line style="stroke:#181818;stroke-width:0.5;stroke-dasharray:5.0,5.0;" x1="3040.5" x2="3040.5" y1="80.5781" y2="760.3594"/><rect fill="#E2E2F0" height="37.2813" rx="2.5" ry="2.5" style="stroke:#181818;stroke-width:0.5;" width="39" x="5" y="42.2969"/><text fill="#000000" font-family="sans-serif" font-size="20" lengthAdjust="spacing" textLength="25" x="12" y="67.8613">FE</text><rect fill="#E2E2F0" height="37.2813" rx="2.5" ry="2.5" style="stroke:#181818;stroke-width:0.5;" width="39" x="5" y="759.3594"/><text fill="#000000" font-family="sans-serif" font-size="20" lengthAdjust="spacing" textLength="25" x="12" y="784.9238">FE</text><rect fill="#E2E2F0" height="37.2813" rx="2.5" ry="2.5" style="stroke:#181818;stroke-width:0.5;" width="255" x="418" y="42.2969"/><text fill="#000000" font-family="sans-serif" font-size="20" lengthAdjust="spacing" textLength="241" x="425" y="67.8613">MedicalConditionRouter</text><rect fill="#E2E2F0" height="37.2813" rx="2.5" ry="2.5" style="stroke:#181818;stroke-width:0.5;" width="255" x="418" y="759.3594"/><text fill="#000000" font-family="sans-serif" font-size="20" lengthAdjust="spacing" textLength="241" x="425" y="784.9238">MedicalConditionRouter</text><rect fill="#E2E2F0" height="37.2813" rx="2.5" ry="2.5" style="stroke:#181818;stroke-width:0.5;" width="287" x="808" y="42.2969"/><text fill="#000000" font-family="sans-serif" font-size="20" lengthAdjust="spacing" textLength="273" x="815" y="67.8613">MedicalConditionController</text><rect fill="#E2E2F0" height="37.2813" rx="2.5" ry="2.5" style="stroke:#181818;stroke-width:0.5;" width="287" x="808" y="759.3594"/><text fill="#000000" font-family="sans-serif" font-size="20" lengthAdjust="spacing" textLength="273" x="815" y="784.9238">MedicalConditionController</text><rect fill="#E2E2F0" height="37.2813" rx="2.5" ry="2.5" style="stroke:#181818;stroke-width:0.5;" width="261" x="1227" y="42.2969"/><text fill="#000000" font-family="sans-serif" font-size="20" lengthAdjust="spacing" textLength="247" x="1234" y="67.8613">MedicalConditionService</text><rect fill="#E2E2F0" height="37.2813" rx="2.5" ry="2.5" style="stroke:#181818;stroke-width:0.5;" width="261" x="1227" y="759.3594"/><text fill="#000000" font-family="sans-serif" font-size="20" lengthAdjust="spacing" textLength="247" x="1234" y="784.9238">MedicalConditionService</text><rect fill="#E2E2F0" height="37.2813" rx="2.5" ry="2.5" style="stroke:#181818;stroke-width:0.5;" width="239" x="1570" y="42.2969"/><text fill="#000000" font-family="sans-serif" font-size="20" lengthAdjust="spacing" textLength="225" x="1577" y="67.8613">MedicalConditionRepo</text><rect fill="#E2E2F0" height="37.2813" rx="2.5" ry="2.5" style="stroke:#181818;stroke-width:0.5;" width="239" x="1570" y="759.3594"/><text fill="#000000" font-family="sans-serif" font-size="20" lengthAdjust="spacing" textLength="225" x="1577" y="784.9238">MedicalConditionRepo</text><rect fill="#E2E2F0" height="37.2813" rx="2.5" ry="2.5" style="stroke:#181818;stroke-width:0.5;" width="230" x="2226.5" y="42.2969"/><text fill="#000000" font-family="sans-serif" font-size="20" lengthAdjust="spacing" textLength="216" x="2233.5" y="67.8613">MedicalConditionMap</text><rect fill="#E2E2F0" height="37.2813" rx="2.5" ry="2.5" style="stroke:#181818;stroke-width:0.5;" width="230" x="2226.5" y="759.3594"/><text fill="#000000" font-family="sans-serif" font-size="20" lengthAdjust="spacing" textLength="216" x="2233.5" y="784.9238">MedicalConditionMap</text><rect fill="#E2E2F0" height="37.2813" rx="2.5" ry="2.5" style="stroke:#181818;stroke-width:0.5;" width="269" x="2466.5" y="42.2969"/><text fill="#000000" font-family="sans-serif" font-size="20" lengthAdjust="spacing" textLength="255" x="2473.5" y="67.8613">MedicalConditionSchema</text><rect fill="#E2E2F0" height="37.2813" rx="2.5" ry="2.5" style="stroke:#181818;stroke-width:0.5;" width="269" x="2466.5" y="759.3594"/><text fill="#000000" font-family="sans-serif" font-size="20" lengthAdjust="spacing" textLength="255" x="2473.5" y="784.9238">MedicalConditionSchema</text><rect fill="#E2E2F0" height="37.2813" rx="2.5" ry="2.5" style="stroke:#181818;stroke-width:0.5;" width="231" x="2745.5" y="42.2969"/><text fill="#000000" font-family="sans-serif" font-size="20" lengthAdjust="spacing" textLength="217" x="2752.5" y="67.8613">MedicalConditionDTO</text><rect fill="#E2E2F0" height="37.2813" rx="2.5" ry="2.5" style="stroke:#181818;stroke-width:0.5;" width="231" x="2745.5" y="759.3594"/><text fill="#000000" font-family="sans-serif" font-size="20" lengthAdjust="spacing" textLength="217" x="2752.5" y="784.9238">MedicalConditionDTO</text><rect fill="#E2E2F0" height="37.2813" rx="2.5" ry="2.5" style="stroke:#181818;stroke-width:0.5;" width="108" x="2986.5" y="42.2969"/><text fill="#000000" font-family="sans-serif" font-size="20" lengthAdjust="spacing" textLength="94" x="2993.5" y="67.8613">Database</text><rect fill="#E2E2F0" height="37.2813" rx="2.5" ry="2.5" style="stroke:#181818;stroke-width:0.5;" width="108" x="2986.5" y="759.3594"/><text fill="#000000" font-family="sans-serif" font-size="20" lengthAdjust="spacing" textLength="94" x="2993.5" y="784.9238">Database</text><rect fill="#FFFFFF" height="660.7813" style="stroke:#181818;stroke-width:1.0;" width="10" x="19.5" y="90.5781"/><rect fill="#FFFFFF" height="622.5" style="stroke:#181818;stroke-width:1.0;" width="10" x="540.5" y="119.8594"/><rect fill="#FFFFFF" height="547.9375" style="stroke:#181818;stroke-width:1.0;" width="10" x="946.5" y="157.1406"/><rect fill="#FFFFFF" height="473.375" style="stroke:#181818;stroke-width:1.0;" width="10" x="1352.5" y="194.4219"/><rect fill="#FFFFFF" height="236.6875" style="stroke:#181818;stroke-width:1.0;" width="10" x="1684.5" y="231.7031"/><rect fill="#FFFFFF" height="124.8438" style="stroke:#181818;stroke-width:1.0;" width="10" x="2336.5" y="505.6719"/><rect fill="#FFFFFF" height="162.125" style="stroke:#181818;stroke-width:1.0;" width="10" x="2596" y="268.9844"/><rect fill="#FFFFFF" height="43.2813" style="stroke:#181818;stroke-width:1.0;" width="10" x="2856" y="542.9531"/><rect fill="#FFFFFF" height="87.5625" style="stroke:#181818;stroke-width:1.0;" width="10" x="3035.5" y="306.2656"/><polygon fill="#000000" points="528.5,115.8594,538.5,119.8594,528.5,123.8594,532.5,119.8594" style="stroke:#000000;stroke-width:1.0;"/><line style="stroke:#000000;stroke-width:1.0;" x1="29.5" x2="534.5" y1="119.8594" y2="119.8594"/><text fill="#000000" font-family="sans-serif" font-size="20" lengthAdjust="spacing" textLength="492" x="36.5" y="113.1426">Makes Http Request to get all Medical Conditions</text><polygon fill="#000000" points="934.5,153.1406,944.5,157.1406,934.5,161.1406,938.5,157.1406" style="stroke:#000000;stroke-width:1.0;"/><line style="stroke:#000000;stroke-width:1.0;" x1="550.5" x2="940.5" y1="157.1406" y2="157.1406"/><text fill="#000000" font-family="sans-serif" font-size="20" lengthAdjust="spacing" textLength="361" x="557.5" y="150.4238">listMedicalConditions(req, res, next)</text><polygon fill="#000000" points="1340.5,190.4219,1350.5,194.4219,1340.5,198.4219,1344.5,194.4219" style="stroke:#000000;stroke-width:1.0;"/><line style="stroke:#000000;stroke-width:1.0;" x1="956.5" x2="1346.5" y1="194.4219" y2="194.4219"/><text fill="#000000" font-family="sans-serif" font-size="20" lengthAdjust="spacing" textLength="230" x="963.5" y="187.7051">listMedicalConditions()</text><polygon fill="#000000" points="1672.5,227.7031,1682.5,231.7031,1672.5,235.7031,1676.5,231.7031" style="stroke:#000000;stroke-width:1.0;"/><line style="stroke:#000000;stroke-width:1.0;" x1="1362.5" x2="1678.5" y1="231.7031" y2="231.7031"/><text fill="#000000" font-family="sans-serif" font-size="20" lengthAdjust="spacing" textLength="79" x="1369.5" y="224.9863">findall()</text><polygon fill="#000000" points="2584,264.9844,2594,268.9844,2584,272.9844,2588,268.9844" style="stroke:#000000;stroke-width:1.0;"/><line style="stroke:#000000;stroke-width:1.0;" x1="1694.5" x2="2590" y1="268.9844" y2="268.9844"/><text fill="#000000" font-family="sans-serif" font-size="20" lengthAdjust="spacing" textLength="55" x="1701.5" y="262.2676">find()</text><polygon fill="#000000" points="3023.5,302.2656,3033.5,306.2656,3023.5,310.2656,3027.5,306.2656" style="stroke:#000000;stroke-width:1.0;"/><line style="stroke:#000000;stroke-width:1.0;" x1="2606" x2="3029.5" y1="306.2656" y2="306.2656"/><text fill="#000000" font-family="sans-serif" font-size="20" lengthAdjust="spacing" textLength="73" x="2613" y="299.5488">query()</text><line style="stroke:#000000;stroke-width:1.0;" x1="3045.5" x2="3087.5" y1="343.5469" y2="343.5469"/><line style="stroke:#000000;stroke-width:1.0;" x1="3087.5" x2="3087.5" y1="343.5469" y2="356.5469"/><line style="stroke:#000000;stroke-width:1.0;" x1="3046.5" x2="3087.5" y1="356.5469" y2="356.5469"/><polygon fill="#000000" points="3056.5,352.5469,3046.5,356.5469,3056.5,360.5469,3052.5,356.5469" style="stroke:#000000;stroke-width:1.0;"/><text fill="#000000" font-family="sans-serif" font-size="20" lengthAdjust="spacing" textLength="337" x="3052.5" y="336.8301">SELECT * FROM MedicalCondition</text><polygon fill="#000000" points="2617,389.8281,2607,393.8281,2617,397.8281,2613,393.8281" style="stroke:#000000;stroke-width:1.0;"/><line style="stroke:#000000;stroke-width:1.0;stroke-dasharray:2.0,2.0;" x1="2611" x2="3039.5" y1="393.8281" y2="393.8281"/><text fill="#000000" font-family="sans-serif" font-size="20" lengthAdjust="spacing" textLength="298" x="2623" y="387.1113">Returns all MedicalConditions</text><polygon fill="#000000" points="1705.5,427.1094,1695.5,431.1094,1705.5,435.1094,1701.5,431.1094" style="stroke:#000000;stroke-width:1.0;"/><line style="stroke:#000000;stroke-width:1.0;stroke-dasharray:2.0,2.0;" x1="1699.5" x2="2600" y1="431.1094" y2="431.1094"/><text fill="#000000" font-family="sans-serif" font-size="20" lengthAdjust="spacing" textLength="298" x="1711.5" y="424.3926">Returns all MedicalConditions</text><polygon fill="#000000" points="1373.5,464.3906,1363.5,468.3906,1373.5,472.3906,1369.5,468.3906" style="stroke:#000000;stroke-width:1.0;"/><line style="stroke:#000000;stroke-width:1.0;stroke-dasharray:2.0,2.0;" x1="1367.5" x2="1688.5" y1="468.3906" y2="468.3906"/><text fill="#000000" font-family="sans-serif" font-size="20" lengthAdjust="spacing" textLength="298" x="1379.5" y="461.6738">Returns all MedicalConditions</text><polygon fill="#000000" points="2324.5,501.6719,2334.5,505.6719,2324.5,509.6719,2328.5,505.6719" style="stroke:#000000;stroke-width:1.0;"/><line style="stroke:#000000;stroke-width:1.0;" x1="1362.5" x2="2330.5" y1="505.6719" y2="505.6719"/><text fill="#000000" font-family="sans-serif" font-size="20" lengthAdjust="spacing" textLength="955" x="1369.5" y="498.9551">medicalConditions.map(medicalCondition =&gt; MedicalConditionMap.toDTO(medicalCondition))</text><polygon fill="#000000" points="2844,538.9531,2854,542.9531,2844,546.9531,2848,542.9531" style="stroke:#000000;stroke-width:1.0;"/><line style="stroke:#000000;stroke-width:1.0;" x1="2346.5" x2="2850" y1="542.9531" y2="542.9531"/><text fill="#000000" font-family="sans-serif" font-size="20" lengthAdjust="spacing" textLength="308" x="2353.5" y="536.2363">create(MedicalConditionProps)</text><line style="stroke:#000000;stroke-width:1.0;" x1="2866" x2="2908" y1="585.2344" y2="585.2344"/><line style="stroke:#000000;stroke-width:1.0;" x1="2908" x2="2908" y1="585.2344" y2="598.2344"/><line style="stroke:#000000;stroke-width:1.0;" x1="2861" x2="2908" y1="598.2344" y2="598.2344"/><polygon fill="#000000" points="2871,594.2344,2861,598.2344,2871,602.2344,2867,598.2344" style="stroke:#000000;stroke-width:1.0;"/><text fill="#000000" font-family="sans-serif" font-size="20" lengthAdjust="spacing" textLength="79" x="2873" y="578.5176">create()</text><polygon fill="#000000" points="1373.5,626.5156,1363.5,630.5156,1373.5,634.5156,1369.5,630.5156" style="stroke:#000000;stroke-width:1.0;"/><line style="stroke:#000000;stroke-width:1.0;stroke-dasharray:2.0,2.0;" x1="1367.5" x2="2340.5" y1="630.5156" y2="630.5156"/><text fill="#000000" font-family="sans-serif" font-size="20" lengthAdjust="spacing" textLength="375" x="1379.5" y="623.7988">Returns list of medicalConditionDTOs</text><polygon fill="#000000" points="967.5,663.7969,957.5,667.7969,967.5,671.7969,963.5,667.7969" style="stroke:#000000;stroke-width:1.0;"/><line style="stroke:#000000;stroke-width:1.0;stroke-dasharray:2.0,2.0;" x1="961.5" x2="1356.5" y1="667.7969" y2="667.7969"/><text fill="#000000" font-family="sans-serif" font-size="20" lengthAdjust="spacing" textLength="372" x="973.5" y="661.0801">Returns list of MedicalConditionDTOs</text><polygon fill="#000000" points="561.5,701.0781,551.5,705.0781,561.5,709.0781,557.5,705.0781" style="stroke:#000000;stroke-width:1.0;"/><line style="stroke:#000000;stroke-width:1.0;stroke-dasharray:2.0,2.0;" x1="555.5" x2="950.5" y1="705.0781" y2="705.0781"/><text fill="#000000" font-family="sans-serif" font-size="20" lengthAdjust="spacing" textLength="372" x="567.5" y="698.3613">Returns list of MedicalConditionDTOs</text><polygon fill="#000000" points="40.5,738.3594,30.5,742.3594,40.5,746.3594,36.5,742.3594" style="stroke:#000000;stroke-width:1.0;"/><line style="stroke:#000000;stroke-width:1.0;stroke-dasharray:2.0,2.0;" x1="34.5" x2="544.5" y1="742.3594" y2="742.3594"/><text fill="#000000" font-family="sans-serif" font-size="20" lengthAdjust="spacing" textLength="372" x="46.5" y="735.6426">Returns list of MedicalConditionDTOs</text><!--SRC=[dPHTRvim58Rl_IkEsfjawg8kKzSDTP7AbtPHr0co7-32IMh5O6exsRff_tt6G08aA-kuY8ZzlEVZzJ5gmugIIffpaMumWmnNTCjrA0gTi9y8yqj2DDCSuGvtoE4z-8ok3Gyh8U5R0jUp-UoAa4UM8M1UwcV8CNz0gGXHRMn8ELKAVX4mZqlJpLgARP5vWWjvSvEQN59mZdAnW7F_Gt0RVZnDAfGxbgB5teNpm3sDIIo5Obh8vueC_S3rBq-JEItB9kqByR0m3ep4Cdj1-2cujdktKehlzRBB3KT-TyqepGfTusaxu3nmmwlGhIG6ronb9IqqX05G1NvlxIp2ZAMKUwB8c6QYYCLMepohoCYBb_0oxUrzRnJUY22fxM_eP8IEpIcqfOoW4IqRCXeh8Nt4dBOLs3yZ2dzvt-3chO_wLDC7gkg6V9SGccgsengDppwyNLWJ7OZe1XLyqRg469-sg3He0MlKG3c79X_i4wf3c4fFx4dOO9u3d2azh51D93vTW4Hr0GN-qDDk08zKvsBboT_aFK52ggEfYtTWnOhCLDb7uggc9gQriEO6SUmEsRjiSDzrmFGldxkaySrtszqak0ky9Ro1CBwFO5Yf1NjfOzHRMQYkaOU-W6JOJNCefUtkt-MTVkAsXjVfuuElaME-SGDwPZuba-4gV5x0YLcVQM5cyOYUzloFI7KRR3u3Ev1AD1kJORYlKfIg9wp6tFuUYwVzbceoElQZ6ZCGgwCkZK3rGqIrA-ru3mD4em6IUhxtb-tr4RpcXbKZ-3zwSqN_0000]--></g></svg>