<?xml version="1.0" encoding="UTF-8" standalone="no"?><svg xmlns="http://www.w3.org/2000/svg" xmlns:xlink="http://www.w3.org/1999/xlink" contentStyleType="text/css" height="1339px" preserveAspectRatio="none" style="width:4590px;height:1339px;background:#FFFFFF;" version="1.1" viewBox="0 0 4590 1339" width="4590px" zoomAndPan="magnify"><defs/><g><text fill="#000000" font-family="sans-serif" font-size="14" font-weight="bold" lengthAdjust="spacing" textLength="225" x="2184.75" y="27.9951">Level 3 Diagram for US 7.2.4</text><rect fill="#FFFFFF" height="1197.4375" style="stroke:#181818;stroke-width:1.0;" width="10" x="19.5" y="90.5781"/><rect fill="#FFFFFF" height="1168.1563" style="stroke:#181818;stroke-width:1.0;" width="10" x="998.5" y="119.8594"/><rect fill="#FFFFFF" height="1084.5938" style="stroke:#181818;stroke-width:1.0;" width="10" x="1418.5" y="157.1406"/><rect fill="#FFFFFF" height="1010.0313" style="stroke:#181818;stroke-width:1.0;" width="10" x="1917.5" y="194.4219"/><rect fill="#FFFFFF" height="685.7813" style="stroke:#181818;stroke-width:1.0;" width="10" x="2209.5" y="319.2656"/><rect fill="#FFFFFF" height="124.8438" style="stroke:#181818;stroke-width:1.0;" width="10" x="2615.5" y="555.9531"/><rect fill="#FFFFFF" height="124.8438" style="stroke:#181818;stroke-width:1.0;" width="10" x="2615.5" y="842.9219"/><rect fill="#FFFFFF" height="124.8438" style="stroke:#181818;stroke-width:1.0;" width="10" x="2615.5" y="1042.3281"/><rect fill="#FFFFFF" height="43.2813" style="stroke:#181818;stroke-width:1.0;" width="10" x="2983.5" y="231.7031"/><rect fill="#FFFFFF" height="43.2813" style="stroke:#181818;stroke-width:1.0;" width="10" x="2983.5" y="880.2031"/><rect fill="#FFFFFF" height="162.125" style="stroke:#181818;stroke-width:1.0;" width="10" x="3222" y="356.5469"/><rect fill="#FFFFFF" height="43.2813" style="stroke:#181818;stroke-width:1.0;" width="10" x="3482" y="1079.6094"/><rect fill="#FFFFFF" height="43.2813" style="stroke:#181818;stroke-width:1.0;" width="10" x="3758.5" y="593.2344"/><rect fill="#FFFFFF" height="87.5625" style="stroke:#181818;stroke-width:1.0;" width="10" x="3973.5" y="393.8281"/><rect fill="#FFFFFF" height="87.5625" style="stroke:#181818;stroke-width:1.0;" width="10" x="3973.5" y="718.0781"/><line style="stroke:#181818;stroke-width:0.5;stroke-dasharray:5.0,5.0;" x1="24" x2="24" y1="80.5781" y2="1297.0156"/><line style="stroke:#181818;stroke-width:0.5;stroke-dasharray:5.0,5.0;" x1="1003" x2="1003" y1="80.5781" y2="1297.0156"/><line style="stroke:#181818;stroke-width:0.5;stroke-dasharray:5.0,5.0;" x1="1423" x2="1423" y1="80.5781" y2="1297.0156"/><line style="stroke:#181818;stroke-width:0.5;stroke-dasharray:5.0,5.0;" x1="1922" x2="1922" y1="80.5781" y2="1297.0156"/><line style="stroke:#181818;stroke-width:0.5;stroke-dasharray:5.0,5.0;" x1="2214" x2="2214" y1="80.5781" y2="1297.0156"/><line style="stroke:#181818;stroke-width:0.5;stroke-dasharray:5.0,5.0;" x1="2620.5" x2="2620.5" y1="80.5781" y2="1297.0156"/><line style="stroke:#181818;stroke-width:0.5;stroke-dasharray:5.0,5.0;" x1="2988.5" x2="2988.5" y1="80.5781" y2="1297.0156"/><line style="stroke:#181818;stroke-width:0.5;stroke-dasharray:5.0,5.0;" x1="3226.5" x2="3226.5" y1="80.5781" y2="1297.0156"/><line style="stroke:#181818;stroke-width:0.5;stroke-dasharray:5.0,5.0;" x1="3486.5" x2="3486.5" y1="80.5781" y2="1297.0156"/><line style="stroke:#181818;stroke-width:0.5;stroke-dasharray:5.0,5.0;" x1="3763.5" x2="3763.5" y1="80.5781" y2="1297.0156"/><line style="stroke:#181818;stroke-width:0.5;stroke-dasharray:5.0,5.0;" x1="3978.5" x2="3978.5" y1="80.5781" y2="1297.0156"/><rect fill="#E2E2F0" height="37.2813" rx="2.5" ry="2.5" style="stroke:#181818;stroke-width:0.5;" width="39" x="5" y="42.2969"/><text fill="#000000" font-family="sans-serif" font-size="20" lengthAdjust="spacing" textLength="25" x="12" y="67.8613">FE</text><rect fill="#E2E2F0" height="37.2813" rx="2.5" ry="2.5" style="stroke:#181818;stroke-width:0.5;" width="39" x="5" y="1296.0156"/><text fill="#000000" font-family="sans-serif" font-size="20" lengthAdjust="spacing" textLength="25" x="12" y="1321.5801">FE</text><rect fill="#E2E2F0" height="37.2813" rx="2.5" ry="2.5" style="stroke:#181818;stroke-width:0.5;" width="255" x="876" y="42.2969"/><text fill="#000000" font-family="sans-serif" font-size="20" lengthAdjust="spacing" textLength="241" x="883" y="67.8613">MedicalConditionRouter</text><rect fill="#E2E2F0" height="37.2813" rx="2.5" ry="2.5" style="stroke:#181818;stroke-width:0.5;" width="255" x="876" y="1296.0156"/><text fill="#000000" font-family="sans-serif" font-size="20" lengthAdjust="spacing" textLength="241" x="883" y="1321.5801">MedicalConditionRouter</text><rect fill="#E2E2F0" height="37.2813" rx="2.5" ry="2.5" style="stroke:#181818;stroke-width:0.5;" width="287" x="1280" y="42.2969"/><text fill="#000000" font-family="sans-serif" font-size="20" lengthAdjust="spacing" textLength="273" x="1287" y="67.8613">MedicalConditionController</text><rect fill="#E2E2F0" height="37.2813" rx="2.5" ry="2.5" style="stroke:#181818;stroke-width:0.5;" width="287" x="1280" y="1296.0156"/><text fill="#000000" font-family="sans-serif" font-size="20" lengthAdjust="spacing" textLength="273" x="1287" y="1321.5801">MedicalConditionController</text><rect fill="#E2E2F0" height="37.2813" rx="2.5" ry="2.5" style="stroke:#181818;stroke-width:0.5;" width="261" x="1792" y="42.2969"/><text fill="#000000" font-family="sans-serif" font-size="20" lengthAdjust="spacing" textLength="247" x="1799" y="67.8613">MedicalConditionService</text><rect fill="#E2E2F0" height="37.2813" rx="2.5" ry="2.5" style="stroke:#181818;stroke-width:0.5;" width="261" x="1792" y="1296.0156"/><text fill="#000000" font-family="sans-serif" font-size="20" lengthAdjust="spacing" textLength="247" x="1799" y="1321.5801">MedicalConditionService</text><rect fill="#E2E2F0" height="37.2813" rx="2.5" ry="2.5" style="stroke:#181818;stroke-width:0.5;" width="239" x="2095" y="42.2969"/><text fill="#000000" font-family="sans-serif" font-size="20" lengthAdjust="spacing" textLength="225" x="2102" y="67.8613">MedicalConditionRepo</text><rect fill="#E2E2F0" height="37.2813" rx="2.5" ry="2.5" style="stroke:#181818;stroke-width:0.5;" width="239" x="2095" y="1296.0156"/><text fill="#000000" font-family="sans-serif" font-size="20" lengthAdjust="spacing" textLength="225" x="2102" y="1321.5801">MedicalConditionRepo</text><rect fill="#E2E2F0" height="37.2813" rx="2.5" ry="2.5" style="stroke:#181818;stroke-width:0.5;" width="230" x="2505.5" y="42.2969"/><text fill="#000000" font-family="sans-serif" font-size="20" lengthAdjust="spacing" textLength="216" x="2512.5" y="67.8613">MedicalConditionMap</text><rect fill="#E2E2F0" height="37.2813" rx="2.5" ry="2.5" style="stroke:#181818;stroke-width:0.5;" width="230" x="2505.5" y="1296.0156"/><text fill="#000000" font-family="sans-serif" font-size="20" lengthAdjust="spacing" textLength="216" x="2512.5" y="1321.5801">MedicalConditionMap</text><rect fill="#E2E2F0" height="37.2813" rx="2.5" ry="2.5" style="stroke:#181818;stroke-width:0.5;" width="188" x="2894.5" y="42.2969"/><text fill="#000000" font-family="sans-serif" font-size="20" lengthAdjust="spacing" textLength="174" x="2901.5" y="67.8613">MedicalCondition</text><rect fill="#E2E2F0" height="37.2813" rx="2.5" ry="2.5" style="stroke:#181818;stroke-width:0.5;" width="188" x="2894.5" y="1296.0156"/><text fill="#000000" font-family="sans-serif" font-size="20" lengthAdjust="spacing" textLength="174" x="2901.5" y="1321.5801">MedicalCondition</text><rect fill="#E2E2F0" height="37.2813" rx="2.5" ry="2.5" style="stroke:#181818;stroke-width:0.5;" width="269" x="3092.5" y="42.2969"/><text fill="#000000" font-family="sans-serif" font-size="20" lengthAdjust="spacing" textLength="255" x="3099.5" y="67.8613">MedicalConditionSchema</text><rect fill="#E2E2F0" height="37.2813" rx="2.5" ry="2.5" style="stroke:#181818;stroke-width:0.5;" width="269" x="3092.5" y="1296.0156"/><text fill="#000000" font-family="sans-serif" font-size="20" lengthAdjust="spacing" textLength="255" x="3099.5" y="1321.5801">MedicalConditionSchema</text><rect fill="#E2E2F0" height="37.2813" rx="2.5" ry="2.5" style="stroke:#181818;stroke-width:0.5;" width="231" x="3371.5" y="42.2969"/><text fill="#000000" font-family="sans-serif" font-size="20" lengthAdjust="spacing" textLength="217" x="3378.5" y="67.8613">MedicalConditionDTO</text><rect fill="#E2E2F0" height="37.2813" rx="2.5" ry="2.5" style="stroke:#181818;stroke-width:0.5;" width="231" x="3371.5" y="1296.0156"/><text fill="#000000" font-family="sans-serif" font-size="20" lengthAdjust="spacing" textLength="217" x="3378.5" y="1321.5801">MedicalConditionDTO</text><rect fill="#E2E2F0" height="37.2813" rx="2.5" ry="2.5" style="stroke:#181818;stroke-width:0.5;" width="302" x="3612.5" y="42.2969"/><text fill="#000000" font-family="sans-serif" font-size="20" lengthAdjust="spacing" textLength="288" x="3619.5" y="67.8613">MedicalConditionPersistence</text><rect fill="#E2E2F0" height="37.2813" rx="2.5" ry="2.5" style="stroke:#181818;stroke-width:0.5;" width="302" x="3612.5" y="1296.0156"/><text fill="#000000" font-family="sans-serif" font-size="20" lengthAdjust="spacing" textLength="288" x="3619.5" y="1321.5801">MedicalConditionPersistence</text><rect fill="#E2E2F0" height="37.2813" rx="2.5" ry="2.5" style="stroke:#181818;stroke-width:0.5;" width="108" x="3924.5" y="42.2969"/><text fill="#000000" font-family="sans-serif" font-size="20" lengthAdjust="spacing" textLength="94" x="3931.5" y="67.8613">Database</text><rect fill="#E2E2F0" height="37.2813" rx="2.5" ry="2.5" style="stroke:#181818;stroke-width:0.5;" width="108" x="3924.5" y="1296.0156"/><text fill="#000000" font-family="sans-serif" font-size="20" lengthAdjust="spacing" textLength="94" x="3931.5" y="1321.5801">Database</text><rect fill="#FFFFFF" height="1197.4375" style="stroke:#181818;stroke-width:1.0;" width="10" x="19.5" y="90.5781"/><rect fill="#FFFFFF" height="1168.1563" style="stroke:#181818;stroke-width:1.0;" width="10" x="998.5" y="119.8594"/><rect fill="#FFFFFF" height="1084.5938" style="stroke:#181818;stroke-width:1.0;" width="10" x="1418.5" y="157.1406"/><rect fill="#FFFFFF" height="1010.0313" style="stroke:#181818;stroke-width:1.0;" width="10" x="1917.5" y="194.4219"/><rect fill="#FFFFFF" height="685.7813" style="stroke:#181818;stroke-width:1.0;" width="10" x="2209.5" y="319.2656"/><rect fill="#FFFFFF" height="124.8438" style="stroke:#181818;stroke-width:1.0;" width="10" x="2615.5" y="555.9531"/><rect fill="#FFFFFF" height="124.8438" style="stroke:#181818;stroke-width:1.0;" width="10" x="2615.5" y="842.9219"/><rect fill="#FFFFFF" height="124.8438" style="stroke:#181818;stroke-width:1.0;" width="10" x="2615.5" y="1042.3281"/><rect fill="#FFFFFF" height="43.2813" style="stroke:#181818;stroke-width:1.0;" width="10" x="2983.5" y="231.7031"/><rect fill="#FFFFFF" height="43.2813" style="stroke:#181818;stroke-width:1.0;" width="10" x="2983.5" y="880.2031"/><rect fill="#FFFFFF" height="162.125" style="stroke:#181818;stroke-width:1.0;" width="10" x="3222" y="356.5469"/><rect fill="#FFFFFF" height="43.2813" style="stroke:#181818;stroke-width:1.0;" width="10" x="3482" y="1079.6094"/><rect fill="#FFFFFF" height="43.2813" style="stroke:#181818;stroke-width:1.0;" width="10" x="3758.5" y="593.2344"/><rect fill="#FFFFFF" height="87.5625" style="stroke:#181818;stroke-width:1.0;" width="10" x="3973.5" y="393.8281"/><rect fill="#FFFFFF" height="87.5625" style="stroke:#181818;stroke-width:1.0;" width="10" x="3973.5" y="718.0781"/><polygon fill="#000000" points="986.5,115.8594,996.5,119.8594,986.5,123.8594,990.5,119.8594" style="stroke:#000000;stroke-width:1.0;"/><line style="stroke:#000000;stroke-width:1.0;" x1="29.5" x2="992.5" y1="119.8594" y2="119.8594"/><text fill="#000000" font-family="sans-serif" font-size="20" lengthAdjust="spacing" textLength="950" x="36.5" y="113.1426">Makes Http Request with Medical Condition details data (Code, Name, Description, Symptoms)</text><polygon fill="#000000" points="1406.5,153.1406,1416.5,157.1406,1406.5,161.1406,1410.5,157.1406" style="stroke:#000000;stroke-width:1.0;"/><line style="stroke:#000000;stroke-width:1.0;" x1="1008.5" x2="1412.5" y1="157.1406" y2="157.1406"/><text fill="#000000" font-family="sans-serif" font-size="20" lengthAdjust="spacing" textLength="391" x="1015.5" y="150.4238">createMedicalCondition(req, res, next);</text><polygon fill="#000000" points="1905.5,190.4219,1915.5,194.4219,1905.5,198.4219,1909.5,194.4219" style="stroke:#000000;stroke-width:1.0;"/><line style="stroke:#000000;stroke-width:1.0;" x1="1428.5" x2="1911.5" y1="194.4219" y2="194.4219"/><text fill="#000000" font-family="sans-serif" font-size="20" lengthAdjust="spacing" textLength="470" x="1435.5" y="187.7051">createMedicalCondition(MedicalConditionDTO)</text><polygon fill="#000000" points="2971.5,227.7031,2981.5,231.7031,2971.5,235.7031,2975.5,231.7031" style="stroke:#000000;stroke-width:1.0;"/><line style="stroke:#000000;stroke-width:1.0;" x1="1927.5" x2="2977.5" y1="231.7031" y2="231.7031"/><text fill="#000000" font-family="sans-serif" font-size="20" lengthAdjust="spacing" textLength="339" x="1934.5" y="224.9863">create(MedicalConditionProps, id)</text><line style="stroke:#000000;stroke-width:1.0;" x1="2993.5" x2="3035.5" y1="273.9844" y2="273.9844"/><line style="stroke:#000000;stroke-width:1.0;" x1="3035.5" x2="3035.5" y1="273.9844" y2="286.9844"/><line style="stroke:#000000;stroke-width:1.0;" x1="2988.5" x2="3035.5" y1="286.9844" y2="286.9844"/><polygon fill="#000000" points="2998.5,282.9844,2988.5,286.9844,2998.5,290.9844,2994.5,286.9844" style="stroke:#000000;stroke-width:1.0;"/><text fill="#000000" font-family="sans-serif" font-size="20" lengthAdjust="spacing" textLength="79" x="3000.5" y="267.2676">create()</text><polygon fill="#000000" points="2197.5,315.2656,2207.5,319.2656,2197.5,323.2656,2201.5,319.2656" style="stroke:#000000;stroke-width:1.0;"/><line style="stroke:#000000;stroke-width:1.0;" x1="1927.5" x2="2203.5" y1="319.2656" y2="319.2656"/><text fill="#000000" font-family="sans-serif" font-size="20" lengthAdjust="spacing" textLength="238" x="1934.5" y="312.5488">save(medicalCondition)</text><polygon fill="#000000" points="3210,352.5469,3220,356.5469,3210,360.5469,3214,356.5469" style="stroke:#000000;stroke-width:1.0;"/><line style="stroke:#000000;stroke-width:1.0;" x1="2219.5" x2="3216" y1="356.5469" y2="356.5469"/><text fill="#000000" font-family="sans-serif" font-size="20" lengthAdjust="spacing" textLength="153" x="2226.5" y="349.8301">findOne(query)</text><polygon fill="#000000" points="3961.5,389.8281,3971.5,393.8281,3961.5,397.8281,3965.5,393.8281" style="stroke:#000000;stroke-width:1.0;"/><line style="stroke:#000000;stroke-width:1.0;" x1="3232" x2="3967.5" y1="393.8281" y2="393.8281"/><text fill="#000000" font-family="sans-serif" font-size="20" lengthAdjust="spacing" textLength="130" x="3239" y="387.1113">query(query)</text><line style="stroke:#000000;stroke-width:1.0;" x1="3983.5" x2="4025.5" y1="431.1094" y2="431.1094"/><line style="stroke:#000000;stroke-width:1.0;" x1="4025.5" x2="4025.5" y1="431.1094" y2="444.1094"/><line style="stroke:#000000;stroke-width:1.0;" x1="3984.5" x2="4025.5" y1="444.1094" y2="444.1094"/><polygon fill="#000000" points="3994.5,440.1094,3984.5,444.1094,3994.5,448.1094,3990.5,444.1094" style="stroke:#000000;stroke-width:1.0;"/><text fill="#000000" font-family="sans-serif" font-size="20" lengthAdjust="spacing" textLength="491" x="3990.5" y="424.3926">SELECT * FROM MedicalCondition WHERE id = id</text><polygon fill="#000000" points="3243,477.3906,3233,481.3906,3243,485.3906,3239,481.3906" style="stroke:#000000;stroke-width:1.0;"/><line style="stroke:#000000;stroke-width:1.0;stroke-dasharray:2.0,2.0;" x1="3237" x2="3977.5" y1="481.3906" y2="481.3906"/><text fill="#000000" font-family="sans-serif" font-size="20" lengthAdjust="spacing" textLength="372" x="3249" y="474.6738">Returns MedicalConditionPersistence</text><polygon fill="#000000" points="2230.5,514.6719,2220.5,518.6719,2230.5,522.6719,2226.5,518.6719" style="stroke:#000000;stroke-width:1.0;"/><line style="stroke:#000000;stroke-width:1.0;stroke-dasharray:2.0,2.0;" x1="2224.5" x2="3226" y1="518.6719" y2="518.6719"/><text fill="#000000" font-family="sans-serif" font-size="20" lengthAdjust="spacing" textLength="372" x="2236.5" y="511.9551">Returns MedicalConditionPersistence</text><polygon fill="#000000" points="2603.5,551.9531,2613.5,555.9531,2603.5,559.9531,2607.5,555.9531" style="stroke:#000000;stroke-width:1.0;"/><line style="stroke:#000000;stroke-width:1.0;" x1="2219.5" x2="2609.5" y1="555.9531" y2="555.9531"/><text fill="#000000" font-family="sans-serif" font-size="20" lengthAdjust="spacing" textLength="327" x="2226.5" y="549.2363">toPersistence(medicalCondition)</text><polygon fill="#000000" points="3746.5,589.2344,3756.5,593.2344,3746.5,597.2344,3750.5,593.2344" style="stroke:#000000;stroke-width:1.0;"/><line style="stroke:#000000;stroke-width:1.0;" x1="2625.5" x2="3752.5" y1="593.2344" y2="593.2344"/><text fill="#000000" font-family="sans-serif" font-size="20" lengthAdjust="spacing" textLength="249" x="2632.5" y="586.5176">create(persistenceProps)</text><line style="stroke:#000000;stroke-width:1.0;stroke-dasharray:2.0,2.0;" x1="3768.5" x2="3810.5" y1="635.5156" y2="635.5156"/><line style="stroke:#000000;stroke-width:1.0;stroke-dasharray:2.0,2.0;" x1="3810.5" x2="3810.5" y1="635.5156" y2="648.5156"/><line style="stroke:#000000;stroke-width:1.0;stroke-dasharray:2.0,2.0;" x1="3763.5" x2="3810.5" y1="648.5156" y2="648.5156"/><polygon fill="#000000" points="3773.5,644.5156,3763.5,648.5156,3773.5,652.5156,3769.5,648.5156" style="stroke:#000000;stroke-width:1.0;"/><text fill="#000000" font-family="sans-serif" font-size="20" lengthAdjust="spacing" textLength="79" x="3775.5" y="628.7988">create()</text><polygon fill="#000000" points="2230.5,676.7969,2220.5,680.7969,2230.5,684.7969,2226.5,680.7969" style="stroke:#000000;stroke-width:1.0;"/><line style="stroke:#000000;stroke-width:1.0;stroke-dasharray:2.0,2.0;" x1="2224.5" x2="2619.5" y1="680.7969" y2="680.7969"/><text fill="#000000" font-family="sans-serif" font-size="20" lengthAdjust="spacing" textLength="372" x="2236.5" y="674.0801">Returns MedicalConditionPersistence</text><polygon fill="#000000" points="3961.5,714.0781,3971.5,718.0781,3961.5,722.0781,3965.5,718.0781" style="stroke:#000000;stroke-width:1.0;"/><line style="stroke:#000000;stroke-width:1.0;" x1="2219.5" x2="3967.5" y1="718.0781" y2="718.0781"/><text fill="#000000" font-family="sans-serif" font-size="20" lengthAdjust="spacing" textLength="241" x="2226.5" y="711.3613">creat(MedicalCondition)</text><line style="stroke:#000000;stroke-width:1.0;" x1="3983.5" x2="4025.5" y1="755.3594" y2="755.3594"/><line style="stroke:#000000;stroke-width:1.0;" x1="4025.5" x2="4025.5" y1="755.3594" y2="768.3594"/><line style="stroke:#000000;stroke-width:1.0;" x1="3984.5" x2="4025.5" y1="768.3594" y2="768.3594"/><polygon fill="#000000" points="3994.5,764.3594,3984.5,768.3594,3994.5,772.3594,3990.5,768.3594" style="stroke:#000000;stroke-width:1.0;"/><text fill="#000000" font-family="sans-serif" font-size="20" lengthAdjust="spacing" textLength="593" x="3990.5" y="748.6426">INSERT INTO MedicalCondition VALUES (medicalCondition)</text><polygon fill="#000000" points="2230.5,801.6406,2220.5,805.6406,2230.5,809.6406,2226.5,805.6406" style="stroke:#000000;stroke-width:1.0;"/><line style="stroke:#000000;stroke-width:1.0;" x1="2224.5" x2="3977.5" y1="805.6406" y2="805.6406"/><text fill="#000000" font-family="sans-serif" font-size="20" lengthAdjust="spacing" textLength="141" x="2236.5" y="798.9238">returns Result</text><polygon fill="#000000" points="2603.5,838.9219,2613.5,842.9219,2603.5,846.9219,2607.5,842.9219" style="stroke:#000000;stroke-width:1.0;"/><line style="stroke:#000000;stroke-width:1.0;" x1="2219.5" x2="2609.5" y1="842.9219" y2="842.9219"/><text fill="#000000" font-family="sans-serif" font-size="20" lengthAdjust="spacing" textLength="370" x="2226.5" y="836.2051">toDomain(medicalConditionCreated)</text><polygon fill="#000000" points="2971.5,876.2031,2981.5,880.2031,2971.5,884.2031,2975.5,880.2031" style="stroke:#000000;stroke-width:1.0;"/><line style="stroke:#000000;stroke-width:1.0;" x1="2625.5" x2="2977.5" y1="880.2031" y2="880.2031"/><text fill="#000000" font-family="sans-serif" font-size="20" lengthAdjust="spacing" textLength="339" x="2632.5" y="873.4863">create(MedicalConditionProps, id)</text><line style="stroke:#000000;stroke-width:1.0;" x1="2993.5" x2="3035.5" y1="922.4844" y2="922.4844"/><line style="stroke:#000000;stroke-width:1.0;" x1="3035.5" x2="3035.5" y1="922.4844" y2="935.4844"/><line style="stroke:#000000;stroke-width:1.0;" x1="2988.5" x2="3035.5" y1="935.4844" y2="935.4844"/><polygon fill="#000000" points="2998.5,931.4844,2988.5,935.4844,2998.5,939.4844,2994.5,935.4844" style="stroke:#000000;stroke-width:1.0;"/><text fill="#000000" font-family="sans-serif" font-size="20" lengthAdjust="spacing" textLength="79" x="3000.5" y="915.7676">create()</text><polygon fill="#000000" points="2230.5,963.7656,2220.5,967.7656,2230.5,971.7656,2226.5,967.7656" style="stroke:#000000;stroke-width:1.0;"/><line style="stroke:#000000;stroke-width:1.0;stroke-dasharray:2.0,2.0;" x1="2224.5" x2="2619.5" y1="967.7656" y2="967.7656"/><text fill="#000000" font-family="sans-serif" font-size="20" lengthAdjust="spacing" textLength="258" x="2236.5" y="961.0488">Returns MedicalCondition</text><polygon fill="#000000" points="1938.5,1001.0469,1928.5,1005.0469,1938.5,1009.0469,1934.5,1005.0469" style="stroke:#000000;stroke-width:1.0;"/><line style="stroke:#000000;stroke-width:1.0;stroke-dasharray:2.0,2.0;" x1="1932.5" x2="2213.5" y1="1005.0469" y2="1005.0469"/><text fill="#000000" font-family="sans-serif" font-size="20" lengthAdjust="spacing" textLength="258" x="1944.5" y="998.3301">Returns MedicalCondition</text><polygon fill="#000000" points="2603.5,1038.3281,2613.5,1042.3281,2603.5,1046.3281,2607.5,1042.3281" style="stroke:#000000;stroke-width:1.0;"/><line style="stroke:#000000;stroke-width:1.0;" x1="1927.5" x2="2609.5" y1="1042.3281" y2="1042.3281"/><text fill="#000000" font-family="sans-serif" font-size="20" lengthAdjust="spacing" textLength="256" x="1934.5" y="1035.6113">toDTO(medicalCondition)</text><polygon fill="#000000" points="3470,1075.6094,3480,1079.6094,3470,1083.6094,3474,1079.6094" style="stroke:#000000;stroke-width:1.0;"/><line style="stroke:#000000;stroke-width:1.0;" x1="2625.5" x2="3476" y1="1079.6094" y2="1079.6094"/><text fill="#000000" font-family="sans-serif" font-size="20" lengthAdjust="spacing" textLength="308" x="2632.5" y="1072.8926">create(MedicalConditionProps)</text><line style="stroke:#000000;stroke-width:1.0;" x1="3492" x2="3534" y1="1121.8906" y2="1121.8906"/><line style="stroke:#000000;stroke-width:1.0;" x1="3534" x2="3534" y1="1121.8906" y2="1134.8906"/><line style="stroke:#000000;stroke-width:1.0;" x1="3487" x2="3534" y1="1134.8906" y2="1134.8906"/><polygon fill="#000000" points="3497,1130.8906,3487,1134.8906,3497,1138.8906,3493,1134.8906" style="stroke:#000000;stroke-width:1.0;"/><text fill="#000000" font-family="sans-serif" font-size="20" lengthAdjust="spacing" textLength="79" x="3499" y="1115.1738">create()</text><polygon fill="#000000" points="1938.5,1163.1719,1928.5,1167.1719,1938.5,1171.1719,1934.5,1167.1719" style="stroke:#000000;stroke-width:1.0;"/><line style="stroke:#000000;stroke-width:1.0;stroke-dasharray:2.0,2.0;" x1="1932.5" x2="2619.5" y1="1167.1719" y2="1167.1719"/><text fill="#000000" font-family="sans-serif" font-size="20" lengthAdjust="spacing" textLength="304" x="1944.5" y="1160.4551">Returns medicalConditionDTO</text><polygon fill="#000000" points="1439.5,1200.4531,1429.5,1204.4531,1439.5,1208.4531,1435.5,1204.4531" style="stroke:#000000;stroke-width:1.0;"/><line style="stroke:#000000;stroke-width:1.0;stroke-dasharray:2.0,2.0;" x1="1433.5" x2="1921.5" y1="1204.4531" y2="1204.4531"/><text fill="#000000" font-family="sans-serif" font-size="20" lengthAdjust="spacing" textLength="377" x="1445.5" y="1197.7363">Returns result(medicalConditionDTO)</text><polygon fill="#000000" points="1019.5,1237.7344,1009.5,1241.7344,1019.5,1245.7344,1015.5,1241.7344" style="stroke:#000000;stroke-width:1.0;"/><line style="stroke:#000000;stroke-width:1.0;stroke-dasharray:2.0,2.0;" x1="1013.5" x2="1422.5" y1="1241.7344" y2="1241.7344"/><text fill="#000000" font-family="sans-serif" font-size="20" lengthAdjust="spacing" textLength="305" x="1025.5" y="1235.0176">returns Operation Status Code</text><polygon fill="#000000" points="40.5,1275.0156,30.5,1279.0156,40.5,1283.0156,36.5,1279.0156" style="stroke:#000000;stroke-width:1.0;"/><line style="stroke:#000000;stroke-width:1.0;stroke-dasharray:2.0,2.0;" x1="34.5" x2="997.5" y1="1279.0156" y2="1279.0156"/><text fill="#000000" font-family="sans-serif" font-size="20" lengthAdjust="spacing" textLength="305" x="46.5" y="1272.2988">returns Operation Status Code</text><!--SRC=[jLNRJjj047ttLupW9QbIHEc5DgL8yKqWOHBPeNrUx05MiRrcTmEbLV-zuxLpSMmIg5GUBE8zvypCcPcrcl6yO99bgOXdc422DsoUQb_aEkA_48uEBKjpdI9Su0Ecy1vSpcu93pT2mbK4nmT71nyiwuud29WL-WaopAvHAijI2ss8KwOK_BQ0_cmMpswbcEU98r8XJqvYYYL5cg8yFOLzzvCtyZzt8nNA1nwZWRtpZpox6oQn48fh8PzAfEzwjdlOZSnOKTHXj-XXJWxiqA8pp__Y7PkpaPJYiNfjfuIp_goRKT0RTelTTi2-P_iVVRka45ppc1Sir-1xm1IC6k_s0anup597v0dNNEIXc6kKUoKoSC8fR4SxIzzhXhE345Nsr-XeHoxKX4KcEtG3LjJ8O3kmHkrACxx3Z2soD3zsCDpfk8RJVzkX4vfihZJcInycJOBBDBjcgZfrRSjYiUOFJ2CrRmHlJqrdXX2m6Ieuqxg04E_dg3GySdq7TJnO1gIDr8od2X8IXfuZ4Xp09SlewQAA9IzAr02Y9re-aQd-Ac0PoJA3OC8wGuWbqi5cJJs9zmEGg0QGuq_T_xekuLZbO1Y1w5c13aCRUKGa4bKY2uqMPo95GHdmfC4auWQl3rQ2JKGj7Gv1iGViPHlAVQlXIMb9NP0PZY7Sy3mPvzYZFiYdPk86OItdY6YkFGG3RC6fswwzW4JUXUTCuGtuuJY0pMBXnvaNUbGiVAE7eJKo2b7FPQvWo_Yjkq2HLoakl7YbnhBObJ_14BHOWtSukqOFY1XKnCcoMyMARHhSO4o8CQaJNb7wpQmcbUm_LnKi2ohROcAqPk-v9fvVHXwjp_dbTDnkuVVHnPKNGOSfbO19LzRfXgZeixhHimsdNP4ndhVq76DByfpN_sEXNk1to-IgcCL5yJ9QQAssjx9WEdxna15sU-qDOdcpcsURl35m5J9ervArRxcEKOjgehCYIjFyNjPrIpOtiBfibr-9nVICQOsO6Rf8CprNK7u6cbIdlkc9EtebyIy0]--></g></svg>