<?xml version="1.0" encoding="UTF-8" standalone="no"?><svg xmlns="http://www.w3.org/2000/svg" xmlns:xlink="http://www.w3.org/1999/xlink" contentStyleType="text/css" height="810px" preserveAspectRatio="none" style="width:4212px;height:810px;background:#FFFFFF;" version="1.1" viewBox="0 0 4212 810" width="4212px" zoomAndPan="magnify"><defs/><g><text fill="#000000" font-family="sans-serif" font-size="14" font-weight="bold" lengthAdjust="spacing" textLength="248" x="1984" y="27.9951">Level 3 FE Diagram for US 7.2.4</text><rect fill="#FFFFFF" height="578.2188" style="stroke:#181818;stroke-width:1.0;" width="10" x="36" y="135.5781"/><rect fill="#FFFFFF" height="539.9375" style="stroke:#181818;stroke-width:1.0;" width="10" x="450" y="164.8594"/><rect fill="#FFFFFF" height="37.2813" style="stroke:#181818;stroke-width:1.0;" width="10" x="948" y="202.1406"/><rect fill="#FFFFFF" height="428.0938" style="stroke:#181818;stroke-width:1.0;" width="10" x="1751" y="239.4219"/><rect fill="#FFFFFF" height="353.5313" style="stroke:#181818;stroke-width:1.0;" width="10" x="2263" y="276.7031"/><rect fill="#FFFFFF" height="278.9688" style="stroke:#181818;stroke-width:1.0;" width="10" x="2797" y="313.9844"/><rect fill="#FFFFFF" height="87.5625" style="stroke:#181818;stroke-width:1.0;" width="10" x="3444" y="468.1094"/><line style="stroke:#181818;stroke-width:0.5;stroke-dasharray:5.0,5.0;" x1="41" x2="41" y1="125.5781" y2="722.7969"/><line style="stroke:#181818;stroke-width:0.5;stroke-dasharray:5.0,5.0;" x1="454.5" x2="454.5" y1="125.5781" y2="722.7969"/><line style="stroke:#181818;stroke-width:0.5;stroke-dasharray:5.0,5.0;" x1="953" x2="953" y1="125.5781" y2="722.7969"/><line style="stroke:#181818;stroke-width:0.5;stroke-dasharray:5.0,5.0;" x1="1756" x2="1756" y1="125.5781" y2="722.7969"/><line style="stroke:#181818;stroke-width:0.5;stroke-dasharray:5.0,5.0;" x1="2267.5" x2="2267.5" y1="125.5781" y2="722.7969"/><line style="stroke:#181818;stroke-width:0.5;stroke-dasharray:5.0,5.0;" x1="2801.5" x2="2801.5" y1="125.5781" y2="722.7969"/><line style="stroke:#181818;stroke-width:0.5;stroke-dasharray:5.0,5.0;" x1="3449" x2="3449" y1="125.5781" y2="722.7969"/><text fill="#000000" font-family="sans-serif" font-size="20" lengthAdjust="spacing" textLength="66" x="5" y="120.8613">Admin</text><ellipse cx="41" cy="50.7969" fill="#E2E2F0" rx="8" ry="8" style="stroke:#181818;stroke-width:0.5;"/><path d="M41,58.7969 L41,85.7969 M28,66.7969 L54,66.7969 M41,85.7969 L28,100.7969 M41,85.7969 L54,100.7969 " fill="none" style="stroke:#181818;stroke-width:0.5;"/><text fill="#000000" font-family="sans-serif" font-size="20" lengthAdjust="spacing" textLength="66" x="5" y="740.3613">Admin</text><ellipse cx="41" cy="753.5781" fill="#E2E2F0" rx="8" ry="8" style="stroke:#181818;stroke-width:0.5;"/><path d="M41,761.5781 L41,788.5781 M28,769.5781 L54,769.5781 M41,788.5781 L28,803.5781 M41,788.5781 L54,803.5781 " fill="none" style="stroke:#181818;stroke-width:0.5;"/><rect fill="#E2E2F0" height="37.2813" rx="2.5" ry="2.5" style="stroke:#181818;stroke-width:0.5;" width="63" x="423.5" y="87.2969"/><text fill="#000000" font-family="sans-serif" font-size="20" lengthAdjust="spacing" textLength="49" x="430.5" y="112.8613">View</text><rect fill="#E2E2F0" height="37.2813" rx="2.5" ry="2.5" style="stroke:#181818;stroke-width:0.5;" width="63" x="423.5" y="721.7969"/><text fill="#000000" font-family="sans-serif" font-size="20" lengthAdjust="spacing" textLength="49" x="430.5" y="747.3613">View</text><rect fill="#E2E2F0" height="37.2813" rx="2.5" ry="2.5" style="stroke:#181818;stroke-width:0.5;" width="444" x="731" y="87.2969"/><text fill="#000000" font-family="sans-serif" font-size="20" lengthAdjust="spacing" textLength="430" x="738" y="112.8613">ManageAllergiesAndConditionsComponent</text><rect fill="#E2E2F0" height="37.2813" rx="2.5" ry="2.5" style="stroke:#181818;stroke-width:0.5;" width="444" x="731" y="721.7969"/><text fill="#000000" font-family="sans-serif" font-size="20" lengthAdjust="spacing" textLength="430" x="738" y="747.3613">ManageAllergiesAndConditionsComponent</text><rect fill="#E2E2F0" height="37.2813" rx="2.5" ry="2.5" style="stroke:#181818;stroke-width:0.5;" width="304" x="1604" y="87.2969"/><text fill="#000000" font-family="sans-serif" font-size="20" lengthAdjust="spacing" textLength="290" x="1611" y="112.8613">CreateConditionsComponent</text><rect fill="#E2E2F0" height="37.2813" rx="2.5" ry="2.5" style="stroke:#181818;stroke-width:0.5;" width="304" x="1604" y="721.7969"/><text fill="#000000" font-family="sans-serif" font-size="20" lengthAdjust="spacing" textLength="290" x="1611" y="747.3613">CreateConditionsComponent</text><rect fill="#E2E2F0" height="37.2813" rx="2.5" ry="2.5" style="stroke:#181818;stroke-width:0.5;" width="261" x="2137.5" y="87.2969"/><text fill="#000000" font-family="sans-serif" font-size="20" lengthAdjust="spacing" textLength="247" x="2144.5" y="112.8613">MedicalConditionService</text><rect fill="#E2E2F0" height="37.2813" rx="2.5" ry="2.5" style="stroke:#181818;stroke-width:0.5;" width="261" x="2137.5" y="721.7969"/><text fill="#000000" font-family="sans-serif" font-size="20" lengthAdjust="spacing" textLength="247" x="2144.5" y="747.3613">MedicalConditionService</text><rect fill="#E2E2F0" height="37.2813" rx="2.5" ry="2.5" style="stroke:#181818;stroke-width:0.5;" width="173" x="2715.5" y="87.2969"/><text fill="#000000" font-family="sans-serif" font-size="20" lengthAdjust="spacing" textLength="159" x="2722.5" y="112.8613">AuthInterceptor</text><rect fill="#E2E2F0" height="37.2813" rx="2.5" ry="2.5" style="stroke:#181818;stroke-width:0.5;" width="173" x="2715.5" y="721.7969"/><text fill="#000000" font-family="sans-serif" font-size="20" lengthAdjust="spacing" textLength="159" x="2722.5" y="747.3613">AuthInterceptor</text><rect fill="#E2E2F0" height="37.2813" rx="2.5" ry="2.5" style="stroke:#181818;stroke-width:0.5;" width="60" x="3419" y="87.2969"/><text fill="#000000" font-family="sans-serif" font-size="20" lengthAdjust="spacing" textLength="46" x="3426" y="112.8613">MDV</text><rect fill="#E2E2F0" height="37.2813" rx="2.5" ry="2.5" style="stroke:#181818;stroke-width:0.5;" width="60" x="3419" y="721.7969"/><text fill="#000000" font-family="sans-serif" font-size="20" lengthAdjust="spacing" textLength="46" x="3426" y="747.3613">MDV</text><rect fill="#FFFFFF" height="578.2188" style="stroke:#181818;stroke-width:1.0;" width="10" x="36" y="135.5781"/><rect fill="#FFFFFF" height="539.9375" style="stroke:#181818;stroke-width:1.0;" width="10" x="450" y="164.8594"/><rect fill="#FFFFFF" height="37.2813" style="stroke:#181818;stroke-width:1.0;" width="10" x="948" y="202.1406"/><rect fill="#FFFFFF" height="428.0938" style="stroke:#181818;stroke-width:1.0;" width="10" x="1751" y="239.4219"/><rect fill="#FFFFFF" height="353.5313" style="stroke:#181818;stroke-width:1.0;" width="10" x="2263" y="276.7031"/><rect fill="#FFFFFF" height="278.9688" style="stroke:#181818;stroke-width:1.0;" width="10" x="2797" y="313.9844"/><rect fill="#FFFFFF" height="87.5625" style="stroke:#181818;stroke-width:1.0;" width="10" x="3444" y="468.1094"/><polygon fill="#000000" points="438,160.8594,448,164.8594,438,168.8594,442,164.8594" style="stroke:#000000;stroke-width:1.0;"/><line style="stroke:#000000;stroke-width:1.0;" x1="46" x2="444" y1="164.8594" y2="164.8594"/><text fill="#000000" font-family="sans-serif" font-size="20" lengthAdjust="spacing" textLength="345" x="53" y="158.1426">Asks to create a Medical Condition</text><polygon fill="#000000" points="936,198.1406,946,202.1406,936,206.1406,940,202.1406" style="stroke:#000000;stroke-width:1.0;"/><line style="stroke:#000000;stroke-width:1.0;" x1="460" x2="942" y1="202.1406" y2="202.1406"/><text fill="#000000" font-family="sans-serif" font-size="20" lengthAdjust="spacing" textLength="469" x="467" y="195.4238">routerLink='/manage-allergies-and-conditions'</text><polygon fill="#000000" points="1739,235.4219,1749,239.4219,1739,243.4219,1743,239.4219" style="stroke:#000000;stroke-width:1.0;"/><line style="stroke:#000000;stroke-width:1.0;" x1="953" x2="1745" y1="239.4219" y2="239.4219"/><text fill="#000000" font-family="sans-serif" font-size="20" lengthAdjust="spacing" textLength="774" x="960" y="232.7051">this.router.navigate([`/manage-allergies-and-conditions/create-conditions`]);</text><polygon fill="#000000" points="2251,272.7031,2261,276.7031,2251,280.7031,2255,276.7031" style="stroke:#000000;stroke-width:1.0;"/><line style="stroke:#000000;stroke-width:1.0;" x1="1761" x2="2257" y1="276.7031" y2="276.7031"/><text fill="#000000" font-family="sans-serif" font-size="20" lengthAdjust="spacing" textLength="483" x="1768" y="269.9863">createMedicalConditions(this.medicalCondition)</text><polygon fill="#000000" points="2785,309.9844,2795,313.9844,2785,317.9844,2789,313.9844" style="stroke:#000000;stroke-width:1.0;"/><line style="stroke:#000000;stroke-width:1.0;" x1="2273" x2="2791" y1="313.9844" y2="313.9844"/><text fill="#000000" font-family="sans-serif" font-size="20" lengthAdjust="spacing" textLength="505" x="2280" y="307.2676">Sends HTTP Request to create a Medical Condition</text><line style="stroke:#000000;stroke-width:1.0;" x1="2807" x2="2849" y1="351.2656" y2="351.2656"/><line style="stroke:#000000;stroke-width:1.0;" x1="2849" x2="2849" y1="351.2656" y2="364.2656"/><line style="stroke:#000000;stroke-width:1.0;" x1="2808" x2="2849" y1="364.2656" y2="364.2656"/><polygon fill="#000000" points="2818,360.2656,2808,364.2656,2818,368.2656,2814,364.2656" style="stroke:#000000;stroke-width:1.0;"/><text fill="#000000" font-family="sans-serif" font-size="20" lengthAdjust="spacing" textLength="563" x="2814" y="344.5488">Intercepts the request and adds the token to the header</text><path d="M2812,377.2656 L2812,433.2656 L3331,433.2656 L3331,387.2656 L3321,377.2656 L2812,377.2656 " fill="#FEFFDD" style="stroke:#181818;stroke-width:0.5;"/><path d="M3321,377.2656 L3321,387.2656 L3331,387.2656 L3321,377.2656 " fill="#FEFFDD" style="stroke:#181818;stroke-width:0.5;"/><text fill="#000000" font-family="sans-serif" font-size="20" lengthAdjust="spacing" textLength="498" x="2818" y="400.8301">The token is added to the header so that the MDV</text><text fill="#000000" font-family="sans-serif" font-size="20" lengthAdjust="spacing" textLength="442" x="2818" y="424.1113">can authenticate and authorize the request.</text><polygon fill="#000000" points="3432,464.1094,3442,468.1094,3432,472.1094,3436,468.1094" style="stroke:#000000;stroke-width:1.0;"/><line style="stroke:#000000;stroke-width:1.0;" x1="2807" x2="3438" y1="468.1094" y2="468.1094"/><text fill="#000000" font-family="sans-serif" font-size="20" lengthAdjust="spacing" textLength="618" x="2814" y="461.3926">Sends HTTP Request with token to create a Medical Condition</text><line style="stroke:#000000;stroke-width:1.0;" x1="3454" x2="3496" y1="505.3906" y2="505.3906"/><line style="stroke:#000000;stroke-width:1.0;" x1="3496" x2="3496" y1="505.3906" y2="518.3906"/><line style="stroke:#000000;stroke-width:1.0;" x1="3455" x2="3496" y1="518.3906" y2="518.3906"/><polygon fill="#000000" points="3465,514.3906,3455,518.3906,3465,522.3906,3461,518.3906" style="stroke:#000000;stroke-width:1.0;"/><text fill="#000000" font-family="sans-serif" font-size="20" lengthAdjust="spacing" textLength="744" x="3461" y="498.6738">Validates Medical Condition data and tries to create the Medical Condition</text><polygon fill="#000000" points="2818,551.6719,2808,555.6719,2818,559.6719,2814,555.6719" style="stroke:#000000;stroke-width:1.0;"/><line style="stroke:#000000;stroke-width:1.0;stroke-dasharray:2.0,2.0;" x1="2812" x2="3448" y1="555.6719" y2="555.6719"/><text fill="#000000" font-family="sans-serif" font-size="20" lengthAdjust="spacing" textLength="311" x="2824" y="548.9551">Returns Operation Status Code</text><polygon fill="#000000" points="2284,588.9531,2274,592.9531,2284,596.9531,2280,592.9531" style="stroke:#000000;stroke-width:1.0;"/><line style="stroke:#000000;stroke-width:1.0;stroke-dasharray:2.0,2.0;" x1="2278" x2="2801" y1="592.9531" y2="592.9531"/><text fill="#000000" font-family="sans-serif" font-size="20" lengthAdjust="spacing" textLength="311" x="2290" y="586.2363">Returns Operation Status Code</text><polygon fill="#000000" points="1772,626.2344,1762,630.2344,1772,634.2344,1768,630.2344" style="stroke:#000000;stroke-width:1.0;"/><line style="stroke:#000000;stroke-width:1.0;stroke-dasharray:2.0,2.0;" x1="1766" x2="2267" y1="630.2344" y2="630.2344"/><text fill="#000000" font-family="sans-serif" font-size="20" lengthAdjust="spacing" textLength="286" x="1778" y="623.5176">Returns Operation Response</text><polygon fill="#000000" points="471,663.5156,461,667.5156,471,671.5156,467,667.5156" style="stroke:#000000;stroke-width:1.0;"/><line style="stroke:#000000;stroke-width:1.0;stroke-dasharray:2.0,2.0;" x1="465" x2="1755" y1="667.5156" y2="667.5156"/><text fill="#000000" font-family="sans-serif" font-size="20" lengthAdjust="spacing" textLength="380" x="477" y="660.7988">Returns Operation In/Sucess message</text><polygon fill="#000000" points="57,700.7969,47,704.7969,57,708.7969,53,704.7969" style="stroke:#000000;stroke-width:1.0;"/><line style="stroke:#000000;stroke-width:1.0;stroke-dasharray:2.0,2.0;" x1="51" x2="454" y1="704.7969" y2="704.7969"/><text fill="#000000" font-family="sans-serif" font-size="20" lengthAdjust="spacing" textLength="380" x="63" y="698.0801">Returns Operation In/Sucess message</text><!--SRC=[bLJlJzim4Ftkl-847u0FBOpzOEiOKfecMYKG4sNvCat2n4VZDR4xsodQfltlEpjjQDfEOvLSoPTxxzuzdsrdKisvuLMfynaA4FZ0wzAbMhc9_8bmUiAOawv4kCG5bl0IqWH6aay90W_QmES9dFLF-wyOAwH0m6hkVa25rJqQovXTqKDUSclX5mFw3Na-cnfTAn7hKflpymKlQxo-_uQvkxY0_T6R94hVxaurMeUST9GCHoUxSooQXSmnKBr8JvFXhZIYID9toLdu5XcZ7vlmiAGyzdjT-vmYV8gxrSD-CanVfqCFuRcZG2GggO1RY1ZXdSpbd2i7Uvd4npqVpxhnAww8FIfBD5E9DlB4IaWdjRAnhkPQeN81U1N5NMXia3lyMtgyaNs5GkQyRDCdZKyDTJpf9aUrAyRAeSbnJbs5f6YyGJZA6l0e2ytB1QcXjYFeNK0sWCZEB3WDUP0979OAe9NmXCfOvb7KuW38NIfyATNimy5n5UpfyPK_FQv4BszRFdYYyFRGyZGniRX2sdv3rLTy8QUKS_Zbxb-4nutQjSZTrwFtJ62dJhiXaraSQfA5WsMhcqxRmo2csWWVhMad_sbvdcWyW0agOU7ZxUqdkC7lDLhtN1_fZABnYgOzG3g60i4igQXXu48qGQTdg3oxtnJ81HgcD34PEIqSw0TFwGV_jasMriFfkUYWmFeTTo7aHyA3SavNWKQ9Pf8KU_6-DWMqyU_Bcge-evx1LrusG1GxZNYKhdXI_HnFl1XQBMd6IodeWzq60SLv4EaCpSPQXT3LLer0ktJx1brjb8NhEHeUo2QEkvekeXRO6I3IutjS3SspWNGIOKYM4xwDkq5B3u3jLgFHyXFQtCbjp5WTJ-eSwNckw8-knZhOZ_Uom__6PkmF]--></g></svg>