<?xml version="1.0" encoding="UTF-8" standalone="no"?><svg xmlns="http://www.w3.org/2000/svg" xmlns:xlink="http://www.w3.org/1999/xlink" contentStyleType="text/css" height="530px" preserveAspectRatio="none" style="width:1708px;height:530px;background:#FFFFFF;" version="1.1" viewBox="0 0 1708 530" width="1708px" zoomAndPan="magnify"><defs/><g><text fill="#000000" font-family="sans-serif" font-size="14" font-weight="bold" lengthAdjust="spacing" textLength="225" x="743.5" y="27.9951">Level 2 Diagram for US 7.2.4</text><rect fill="#FFFFFF" height="298.25" style="stroke:#181818;stroke-width:1.0;" width="10" x="36" y="135.5781"/><rect fill="#FFFFFF" height="37.2813" style="stroke:#181818;stroke-width:1.0;" width="10" x="840" y="164.8594"/><rect fill="#FFFFFF" height="185.4063" style="stroke:#181818;stroke-width:1.0;" width="10" x="840" y="239.4219"/><rect fill="#FFFFFF" height="110.8438" style="stroke:#181818;stroke-width:1.0;" width="10" x="1326" y="276.7031"/><line style="stroke:#181818;stroke-width:0.5;stroke-dasharray:5.0,5.0;" x1="41" x2="41" y1="125.5781" y2="442.8281"/><line style="stroke:#181818;stroke-width:0.5;stroke-dasharray:5.0,5.0;" x1="844.5" x2="844.5" y1="125.5781" y2="442.8281"/><line style="stroke:#181818;stroke-width:0.5;stroke-dasharray:5.0,5.0;" x1="1331" x2="1331" y1="125.5781" y2="442.8281"/><text fill="#000000" font-family="sans-serif" font-size="20" lengthAdjust="spacing" textLength="66" x="5" y="120.8613">Doctor</text><ellipse cx="41" cy="50.7969" fill="#E2E2F0" rx="8" ry="8" style="stroke:#181818;stroke-width:0.5;"/><path d="M41,58.7969 L41,85.7969 M28,66.7969 L54,66.7969 M41,85.7969 L28,100.7969 M41,85.7969 L54,100.7969 " fill="none" style="stroke:#181818;stroke-width:0.5;"/><text fill="#000000" font-family="sans-serif" font-size="20" lengthAdjust="spacing" textLength="66" x="5" y="460.3926">Doctor</text><ellipse cx="41" cy="473.6094" fill="#E2E2F0" rx="8" ry="8" style="stroke:#181818;stroke-width:0.5;"/><path d="M41,481.6094 L41,508.6094 M28,489.6094 L54,489.6094 M41,508.6094 L28,523.6094 M41,508.6094 L54,523.6094 " fill="none" style="stroke:#181818;stroke-width:0.5;"/><rect fill="#E2E2F0" height="37.2813" rx="2.5" ry="2.5" style="stroke:#181818;stroke-width:0.5;" width="39" x="825.5" y="87.2969"/><text fill="#000000" font-family="sans-serif" font-size="20" lengthAdjust="spacing" textLength="25" x="832.5" y="112.8613">FE</text><rect fill="#E2E2F0" height="37.2813" rx="2.5" ry="2.5" style="stroke:#181818;stroke-width:0.5;" width="39" x="825.5" y="441.8281"/><text fill="#000000" font-family="sans-serif" font-size="20" lengthAdjust="spacing" textLength="25" x="832.5" y="467.3926">FE</text><rect fill="#E2E2F0" height="37.2813" rx="2.5" ry="2.5" style="stroke:#181818;stroke-width:0.5;" width="60" x="1301" y="87.2969"/><text fill="#000000" font-family="sans-serif" font-size="20" lengthAdjust="spacing" textLength="46" x="1308" y="112.8613">MDV</text><rect fill="#E2E2F0" height="37.2813" rx="2.5" ry="2.5" style="stroke:#181818;stroke-width:0.5;" width="60" x="1301" y="441.8281"/><text fill="#000000" font-family="sans-serif" font-size="20" lengthAdjust="spacing" textLength="46" x="1308" y="467.3926">MDV</text><rect fill="#FFFFFF" height="298.25" style="stroke:#181818;stroke-width:1.0;" width="10" x="36" y="135.5781"/><rect fill="#FFFFFF" height="37.2813" style="stroke:#181818;stroke-width:1.0;" width="10" x="840" y="164.8594"/><rect fill="#FFFFFF" height="185.4063" style="stroke:#181818;stroke-width:1.0;" width="10" x="840" y="239.4219"/><rect fill="#FFFFFF" height="110.8438" style="stroke:#181818;stroke-width:1.0;" width="10" x="1326" y="276.7031"/><polygon fill="#000000" points="828,160.8594,838,164.8594,828,168.8594,832,164.8594" style="stroke:#000000;stroke-width:1.0;"/><line style="stroke:#000000;stroke-width:1.0;" x1="46" x2="834" y1="164.8594" y2="164.8594"/><text fill="#000000" font-family="sans-serif" font-size="20" lengthAdjust="spacing" textLength="414" x="53" y="158.1426">Requests to add a new Medical Condition</text><polygon fill="#000000" points="57,198.1406,47,202.1406,57,206.1406,53,202.1406" style="stroke:#000000;stroke-width:1.0;"/><line style="stroke:#000000;stroke-width:1.0;stroke-dasharray:2.0,2.0;" x1="51" x2="844" y1="202.1406" y2="202.1406"/><text fill="#000000" font-family="sans-serif" font-size="20" lengthAdjust="spacing" textLength="480" x="63" y="195.4238">Displays form to enter Medical Condition details</text><polygon fill="#000000" points="828,235.4219,838,239.4219,828,243.4219,832,239.4219" style="stroke:#000000;stroke-width:1.0;"/><line style="stroke:#000000;stroke-width:1.0;" x1="46" x2="834" y1="239.4219" y2="239.4219"/><text fill="#000000" font-family="sans-serif" font-size="20" lengthAdjust="spacing" textLength="775" x="53" y="232.7051">Send data of Medical Condition details (Code, Name, Description, Symptoms)</text><polygon fill="#000000" points="1314,272.7031,1324,276.7031,1314,280.7031,1318,276.7031" style="stroke:#000000;stroke-width:1.0;"/><line style="stroke:#000000;stroke-width:1.0;" x1="850" x2="1320" y1="276.7031" y2="276.7031"/><text fill="#000000" font-family="sans-serif" font-size="20" lengthAdjust="spacing" textLength="457" x="857" y="269.9863">Makes Http Request to add Medical Condition</text><line style="stroke:#000000;stroke-width:1.0;" x1="1336" x2="1378" y1="337.2656" y2="337.2656"/><line style="stroke:#000000;stroke-width:1.0;" x1="1378" x2="1378" y1="337.2656" y2="350.2656"/><line style="stroke:#000000;stroke-width:1.0;" x1="1337" x2="1378" y1="350.2656" y2="350.2656"/><polygon fill="#000000" points="1347,346.2656,1337,350.2656,1347,354.2656,1343,350.2656" style="stroke:#000000;stroke-width:1.0;"/><text fill="#000000" font-family="sans-serif" font-size="20" lengthAdjust="spacing" textLength="352" x="1343" y="307.2676">Validates Medical Condition details</text><text fill="#000000" font-family="sans-serif" font-size="20" lengthAdjust="spacing" textLength="275" x="1349" y="330.5488">and adds it to the database</text><polygon fill="#000000" points="861,383.5469,851,387.5469,861,391.5469,857,387.5469" style="stroke:#000000;stroke-width:1.0;"/><line style="stroke:#000000;stroke-width:1.0;stroke-dasharray:2.0,2.0;" x1="855" x2="1330" y1="387.5469" y2="387.5469"/><text fill="#000000" font-family="sans-serif" font-size="20" lengthAdjust="spacing" textLength="335" x="867" y="380.8301">Returns Success/Failure message</text><polygon fill="#000000" points="57,420.8281,47,424.8281,57,428.8281,53,424.8281" style="stroke:#000000;stroke-width:1.0;"/><line style="stroke:#000000;stroke-width:1.0;stroke-dasharray:2.0,2.0;" x1="51" x2="844" y1="424.8281" y2="424.8281"/><text fill="#000000" font-family="sans-serif" font-size="20" lengthAdjust="spacing" textLength="335" x="63" y="418.1113">Returns Success/Failure message</text><!--SRC=[bL9DRnCn4BtxLupK2qXjAH5GYAf8kzbTSI0WiQ8dBXDxaffuxSNZJHLG_plZhT86DKLY3slf-RtdDn-yiRx7Y9qBUaC63ArmSAa9FhNs5y7aGgbaaoFuH5joC87Aubhui0eHlhLmUJuvVwFKZJK4rFLf1nrrIugi5E-zGJjaXjyAv2jHRzOn3DxCWmlnwcgBRg0lon-aqsm69zMxkcZU7wV644PEKzLbTN6SmnItLjDezRgPrEKncbZKpOVwShmhOWotzt3fXAVk3hFtWk2QZgU7axfitZPbbg1E0bHXF92XK6AGhBOz-WHDdR6c_WjSLDSPbMEKsoqc4bq1PpEXJk4h_Ho84qCAWCO0WgTRM92n6XtCWpSssU0VjU8l3vs9l9ZAfBXtkECygYvRa4yKdyfbw0cjOsNeqEWXHKjU5WCJGbWzhuONys3e53vZ9_-AM4VRPy8fj3jPZD3nooT1PxdsAInmGmmVK-ht9Uyh_aUjkMkvWNkJQtHMKehHync_Uq0fHfmPxFX8kg6njYKotTizz3uDqJEqWzR4_AeHWo6Ih3UpxCDXitAInxR_Xr2wy0S0]--></g></svg>