<?xml version="1.0" encoding="UTF-8" standalone="no"?><svg xmlns="http://www.w3.org/2000/svg" xmlns:xlink="http://www.w3.org/1999/xlink" contentStyleType="text/css" height="698px" preserveAspectRatio="none" style="width:1660px;height:698px;background:#FFFFFF;" version="1.1" viewBox="0 0 1660 698" width="1660px" zoomAndPan="magnify"><defs/><g><text fill="#000000" font-family="sans-serif" font-size="14" font-weight="bold" lengthAdjust="spacing" textLength="280" x="692" y="27.9951">Level 2 Diagram for Searching Staff</text><rect fill="#FFFFFF" height="466.375" style="stroke:#181818;stroke-width:1.0;" width="10" x="36" y="135.5781"/><rect fill="#FFFFFF" height="162.125" style="stroke:#181818;stroke-width:1.0;" width="10" x="637" y="164.8594"/><rect fill="#FFFFFF" height="228.6875" style="stroke:#181818;stroke-width:1.0;" width="10" x="637" y="364.2656"/><rect fill="#FFFFFF" height="87.5625" style="stroke:#181818;stroke-width:1.0;" width="10" x="1130" y="202.1406"/><rect fill="#FFFFFF" height="87.5625" style="stroke:#181818;stroke-width:1.0;" width="10" x="1130" y="468.1094"/><line style="stroke:#181818;stroke-width:0.5;stroke-dasharray:5.0,5.0;" x1="41" x2="41" y1="125.5781" y2="610.9531"/><line style="stroke:#181818;stroke-width:0.5;stroke-dasharray:5.0,5.0;" x1="641.5" x2="641.5" y1="125.5781" y2="610.9531"/><line style="stroke:#181818;stroke-width:0.5;stroke-dasharray:5.0,5.0;" x1="1135" x2="1135" y1="125.5781" y2="610.9531"/><text fill="#000000" font-family="sans-serif" font-size="20" lengthAdjust="spacing" textLength="66" x="5" y="120.8613">Admin</text><ellipse cx="41" cy="50.7969" fill="#E2E2F0" rx="8" ry="8" style="stroke:#181818;stroke-width:0.5;"/><path d="M41,58.7969 L41,85.7969 M28,66.7969 L54,66.7969 M41,85.7969 L28,100.7969 M41,85.7969 L54,100.7969 " fill="none" style="stroke:#181818;stroke-width:0.5;"/><text fill="#000000" font-family="sans-serif" font-size="20" lengthAdjust="spacing" textLength="66" x="5" y="628.5176">Admin</text><ellipse cx="41" cy="641.7344" fill="#E2E2F0" rx="8" ry="8" style="stroke:#181818;stroke-width:0.5;"/><path d="M41,649.7344 L41,676.7344 M28,657.7344 L54,657.7344 M41,676.7344 L28,691.7344 M41,676.7344 L54,691.7344 " fill="none" style="stroke:#181818;stroke-width:0.5;"/><rect fill="#E2E2F0" height="37.2813" rx="2.5" ry="2.5" style="stroke:#181818;stroke-width:0.5;" width="39" x="622.5" y="87.2969"/><text fill="#000000" font-family="sans-serif" font-size="20" lengthAdjust="spacing" textLength="25" x="629.5" y="112.8613">FE</text><rect fill="#E2E2F0" height="37.2813" rx="2.5" ry="2.5" style="stroke:#181818;stroke-width:0.5;" width="39" x="622.5" y="609.9531"/><text fill="#000000" font-family="sans-serif" font-size="20" lengthAdjust="spacing" textLength="25" x="629.5" y="635.5176">FE</text><rect fill="#E2E2F0" height="37.2813" rx="2.5" ry="2.5" style="stroke:#181818;stroke-width:0.5;" width="60" x="1105" y="87.2969"/><text fill="#000000" font-family="sans-serif" font-size="20" lengthAdjust="spacing" textLength="46" x="1112" y="112.8613">MDR</text><rect fill="#E2E2F0" height="37.2813" rx="2.5" ry="2.5" style="stroke:#181818;stroke-width:0.5;" width="60" x="1105" y="609.9531"/><text fill="#000000" font-family="sans-serif" font-size="20" lengthAdjust="spacing" textLength="46" x="1112" y="635.5176">MDR</text><rect fill="#FFFFFF" height="466.375" style="stroke:#181818;stroke-width:1.0;" width="10" x="36" y="135.5781"/><rect fill="#FFFFFF" height="162.125" style="stroke:#181818;stroke-width:1.0;" width="10" x="637" y="164.8594"/><rect fill="#FFFFFF" height="228.6875" style="stroke:#181818;stroke-width:1.0;" width="10" x="637" y="364.2656"/><rect fill="#FFFFFF" height="87.5625" style="stroke:#181818;stroke-width:1.0;" width="10" x="1130" y="202.1406"/><rect fill="#FFFFFF" height="87.5625" style="stroke:#181818;stroke-width:1.0;" width="10" x="1130" y="468.1094"/><polygon fill="#000000" points="625,160.8594,635,164.8594,625,168.8594,629,164.8594" style="stroke:#000000;stroke-width:1.0;"/><line style="stroke:#000000;stroke-width:1.0;" x1="46" x2="631" y1="164.8594" y2="164.8594"/><text fill="#000000" font-family="sans-serif" font-size="20" lengthAdjust="spacing" textLength="194" x="53" y="158.1426">Asks to search staff</text><polygon fill="#000000" points="1118,198.1406,1128,202.1406,1118,206.1406,1122,202.1406" style="stroke:#000000;stroke-width:1.0;"/><line style="stroke:#000000;stroke-width:1.0;" x1="647" x2="1124" y1="202.1406" y2="202.1406"/><text fill="#000000" font-family="sans-serif" font-size="20" lengthAdjust="spacing" textLength="464" x="654" y="195.4238">Sends HTTP request to list the default staff list</text><line style="stroke:#000000;stroke-width:1.0;" x1="1140" x2="1182" y1="239.4219" y2="239.4219"/><line style="stroke:#000000;stroke-width:1.0;" x1="1182" x2="1182" y1="239.4219" y2="252.4219"/><line style="stroke:#000000;stroke-width:1.0;" x1="1141" x2="1182" y1="252.4219" y2="252.4219"/><polygon fill="#000000" points="1151,248.4219,1141,252.4219,1151,256.4219,1147,252.4219" style="stroke:#000000;stroke-width:1.0;"/><text fill="#000000" font-family="sans-serif" font-size="20" lengthAdjust="spacing" textLength="428" x="1147" y="232.7051">Validates the data and tries to list the staff</text><polygon fill="#000000" points="658,285.7031,648,289.7031,658,293.7031,654,289.7031" style="stroke:#000000;stroke-width:1.0;"/><line style="stroke:#000000;stroke-width:1.0;stroke-dasharray:2.0,2.0;" x1="652" x2="1134" y1="289.7031" y2="289.7031"/><text fill="#000000" font-family="sans-serif" font-size="20" lengthAdjust="spacing" textLength="311" x="664" y="282.9863">Returns Operation Status Code</text><polygon fill="#000000" points="57,322.9844,47,326.9844,57,330.9844,53,326.9844" style="stroke:#000000;stroke-width:1.0;"/><line style="stroke:#000000;stroke-width:1.0;stroke-dasharray:2.0,2.0;" x1="51" x2="641" y1="326.9844" y2="326.9844"/><text fill="#000000" font-family="sans-serif" font-size="20" lengthAdjust="spacing" textLength="567" x="63" y="320.2676">Displays initial list and asks for the data to filter the staff</text><polygon fill="#000000" points="625,360.2656,635,364.2656,625,368.2656,629,364.2656" style="stroke:#000000;stroke-width:1.0;"/><line style="stroke:#000000;stroke-width:1.0;" x1="46" x2="631" y1="364.2656" y2="364.2656"/><text fill="#000000" font-family="sans-serif" font-size="20" lengthAdjust="spacing" textLength="319" x="53" y="357.5488">Sends the data to filter the staff</text><path d="M652,377.2656 L652,433.2656 L1203,433.2656 L1203,387.2656 L1193,377.2656 L652,377.2656 " fill="#FEFFDD" style="stroke:#181818;stroke-width:0.5;"/><path d="M1193,377.2656 L1193,387.2656 L1203,387.2656 L1193,377.2656 " fill="#FEFFDD" style="stroke:#181818;stroke-width:0.5;"/><text fill="#000000" font-family="sans-serif" font-size="20" lengthAdjust="spacing" textLength="530" x="658" y="400.8301">The data can be First Name and/or Last Name and/or</text><text fill="#000000" font-family="sans-serif" font-size="20" lengthAdjust="spacing" textLength="513" x="664" y="424.1113">Full Nameand/or Email and/or Specialization Name</text><polygon fill="#000000" points="1118,464.1094,1128,468.1094,1118,472.1094,1122,468.1094" style="stroke:#000000;stroke-width:1.0;"/><line style="stroke:#000000;stroke-width:1.0;" x1="647" x2="1124" y1="468.1094" y2="468.1094"/><text fill="#000000" font-family="sans-serif" font-size="20" lengthAdjust="spacing" textLength="464" x="654" y="461.3926">Sends HTTP request to list the staff with filters</text><line style="stroke:#000000;stroke-width:1.0;" x1="1140" x2="1182" y1="505.3906" y2="505.3906"/><line style="stroke:#000000;stroke-width:1.0;" x1="1182" x2="1182" y1="505.3906" y2="518.3906"/><line style="stroke:#000000;stroke-width:1.0;" x1="1141" x2="1182" y1="518.3906" y2="518.3906"/><polygon fill="#000000" points="1151,514.3906,1141,518.3906,1151,522.3906,1147,518.3906" style="stroke:#000000;stroke-width:1.0;"/><text fill="#000000" font-family="sans-serif" font-size="20" lengthAdjust="spacing" textLength="506" x="1147" y="498.6738">Validates the data and tries to list the filtered staff</text><polygon fill="#000000" points="658,551.6719,648,555.6719,658,559.6719,654,555.6719" style="stroke:#000000;stroke-width:1.0;"/><line style="stroke:#000000;stroke-width:1.0;stroke-dasharray:2.0,2.0;" x1="652" x2="1134" y1="555.6719" y2="555.6719"/><text fill="#000000" font-family="sans-serif" font-size="20" lengthAdjust="spacing" textLength="242" x="664" y="548.9551">Returns filtered staff list</text><polygon fill="#000000" points="57,588.9531,47,592.9531,57,596.9531,53,592.9531" style="stroke:#000000;stroke-width:1.0;"/><line style="stroke:#000000;stroke-width:1.0;stroke-dasharray:2.0,2.0;" x1="51" x2="641" y1="592.9531" y2="592.9531"/><text fill="#000000" font-family="sans-serif" font-size="20" lengthAdjust="spacing" textLength="247" x="63" y="586.2363">Displays filtered staff list</text><!--SRC=[hLHTQzj047pNhrYIvzBKq2yJ35AiemzfKsBJfxwifPMyzUbElJiv9AN_lNidsxN1RQ1K80HpCxDpkulyXasF3ZjjgmtLK5E3WmxAch3W9uB9LPO53fhWbhQaOG9pnbRuq5W72q9NhTcqi0ZOD5csvfg0kZuyGaVTYfpFChyl0PL6x-571l8KM6rQPmTJtrXjtVNr5lL0TwjlL8NP32xdRyfSlJjFTTOcZfgNnVpgFCUJst95oUgLcfJ5EPfObEfz-JQTvSxPXn4kjF2odyVPUq6mfVFfuR8ir6jLH0bMGO2yxjW0UiWpqGUkk4SJu4AL5n5LvIdySNwVSFac1zvY8D7cy68cv2daVkCXMF2fu-1Jkmz4iLDbf8f-AbCnjOSFo-LdSFHz81-YKdFyhca_uj4ZmR-DOdrv3rPVK7Cj1tvKOa10KqDmJFx4T0oKfBl4znG6PppSzUGmi3LnHyBWuSRMbDLqKZEc5rq-bVNolSP73smuCEgnH2oAiGLnwmvH9433Ef0xYd1aB5qvz6_ioL-Lneh6SRiEO9iaMkxf5HfOYI4xoV89Eug1NagKMpm5lXfGWzO9sb7A3bdl-OkUAhaKFuqTYRH_dE8ulGSEwzrD_7-OukWalu4_Z_EKCgxFyyDyHYKt_mK0]--></g></svg>