<?xml version="1.0" encoding="UTF-8" standalone="no"?><svg xmlns="http://www.w3.org/2000/svg" xmlns:xlink="http://www.w3.org/1999/xlink" contentStyleType="text/css" height="398px" preserveAspectRatio="none" style="width:1129px;height:398px;background:#FFFFFF;" version="1.1" viewBox="0 0 1129 398" width="1129px" zoomAndPan="magnify"><defs><filter height="300%" id="f1gr0ybw2ex0hv" width="300%" x="-1" y="-1"><feGaussianBlur result="blurOut" stdDeviation="2.0"/><feColorMatrix in="blurOut" result="blurOut2" type="matrix" values="0 0 0 0 0 0 0 0 0 0 0 0 0 0 0 0 0 0 .4 0"/><feOffset dx="4.0" dy="4.0" in="blurOut2" result="blurOut3"/><feBlend in="SourceGraphic" in2="blurOut3" mode="normal"/></filter></defs><g><rect fill="#FFFFFF" filter="url(#f1gr0ybw2ex0hv)" height="200.4063" style="stroke:#181818;stroke-width:1.0;" width="10" x="36" y="101.2813"/><rect fill="#FFFFFF" filter="url(#f1gr0ybw2ex0hv)" height="162.125" style="stroke:#181818;stroke-width:1.0;" width="10" x="501" y="130.5625"/><rect fill="#FFFFFF" filter="url(#f1gr0ybw2ex0hv)" height="87.5625" style="stroke:#181818;stroke-width:1.0;" width="10" x="906" y="167.8438"/><line style="stroke:#181818;stroke-width:0.5;stroke-dasharray:5.0,5.0;" x1="41" x2="41" y1="91.2813" y2="310.6875"/><line style="stroke:#181818;stroke-width:0.5;stroke-dasharray:5.0,5.0;" x1="506" x2="506" y1="91.2813" y2="310.6875"/><line style="stroke:#181818;stroke-width:0.5;stroke-dasharray:5.0,5.0;" x1="911" x2="911" y1="91.2813" y2="310.6875"/><text fill="#000000" font-family="FG Virgil" font-size="20" lengthAdjust="spacing" textLength="66" x="5" y="86.5645">Admin</text><ellipse cx="41" cy="13.5" fill="#E2E2F0" filter="url(#f1gr0ybw2ex0hv)" rx="8" ry="8" style="stroke:#181818;stroke-width:0.5;"/><path d="M41,21.5 L41,48.5 M28,29.5 L54,29.5 M41,48.5 L28,63.5 M41,48.5 L54,63.5 " fill="none" filter="url(#f1gr0ybw2ex0hv)" style="stroke:#181818;stroke-width:0.5;"/><text fill="#000000" font-family="FG Virgil" font-size="20" lengthAdjust="spacing" textLength="66" x="5" y="328.252">Admin</text><ellipse cx="41" cy="341.4688" fill="#E2E2F0" filter="url(#f1gr0ybw2ex0hv)" rx="8" ry="8" style="stroke:#181818;stroke-width:0.5;"/><path d="M41,349.4688 L41,376.4688 M28,357.4688 L54,357.4688 M41,376.4688 L28,391.4688 M41,376.4688 L54,391.4688 " fill="none" filter="url(#f1gr0ybw2ex0hv)" style="stroke:#181818;stroke-width:0.5;"/><rect fill="#E2E2F0" filter="url(#f1gr0ybw2ex0hv)" height="37.2813" rx="2.5" ry="2.5" style="stroke:#181818;stroke-width:0.5;" width="35" x="487" y="50"/><text fill="#000000" font-family="FG Virgil" font-size="20" lengthAdjust="spacing" textLength="21" x="494" y="75.5645">UI</text><rect fill="#E2E2F0" filter="url(#f1gr0ybw2ex0hv)" height="37.2813" rx="2.5" ry="2.5" style="stroke:#181818;stroke-width:0.5;" width="35" x="487" y="309.6875"/><text fill="#000000" font-family="FG Virgil" font-size="20" lengthAdjust="spacing" textLength="21" x="494" y="335.252">UI</text><rect fill="#E2E2F0" filter="url(#f1gr0ybw2ex0hv)" height="37.2813" rx="2.5" ry="2.5" style="stroke:#181818;stroke-width:0.5;" width="113" x="853" y="50"/><text fill="#000000" font-family="FG Virgil" font-size="20" lengthAdjust="spacing" textLength="99" x="860" y="75.5645">Controller</text><rect fill="#E2E2F0" filter="url(#f1gr0ybw2ex0hv)" height="37.2813" rx="2.5" ry="2.5" style="stroke:#181818;stroke-width:0.5;" width="113" x="853" y="309.6875"/><text fill="#000000" font-family="FG Virgil" font-size="20" lengthAdjust="spacing" textLength="99" x="860" y="335.252">Controller</text><rect fill="#FFFFFF" filter="url(#f1gr0ybw2ex0hv)" height="200.4063" style="stroke:#181818;stroke-width:1.0;" width="10" x="36" y="101.2813"/><rect fill="#FFFFFF" filter="url(#f1gr0ybw2ex0hv)" height="162.125" style="stroke:#181818;stroke-width:1.0;" width="10" x="501" y="130.5625"/><rect fill="#FFFFFF" filter="url(#f1gr0ybw2ex0hv)" height="87.5625" style="stroke:#181818;stroke-width:1.0;" width="10" x="906" y="167.8438"/><polygon fill="#181818" points="489,126.5625,499,130.5625,489,134.5625,493,130.5625" style="stroke:#181818;stroke-width:1.0;"/><line style="stroke:#181818;stroke-width:1.0;" x1="46" x2="495" y1="130.5625" y2="130.5625"/><text fill="#000000" font-family="FG Virgil" font-size="20" lengthAdjust="spacing" textLength="436" x="53" y="123.8457">ask to create a user (username, email, role)</text><polygon fill="#181818" points="894,163.8438,904,167.8438,894,171.8438,898,167.8438" style="stroke:#181818;stroke-width:1.0;"/><line style="stroke:#181818;stroke-width:1.0;" x1="511" x2="900" y1="167.8438" y2="167.8438"/><text fill="#000000" font-family="FG Virgil" font-size="20" lengthAdjust="spacing" textLength="298" x="518" y="161.127">createUser(CreatingUserDTO)</text><line style="stroke:#181818;stroke-width:1.0;stroke-dasharray:2.0,2.0;" x1="916" x2="958" y1="205.125" y2="205.125"/><line style="stroke:#181818;stroke-width:1.0;stroke-dasharray:2.0,2.0;" x1="958" x2="958" y1="205.125" y2="218.125"/><line style="stroke:#181818;stroke-width:1.0;stroke-dasharray:2.0,2.0;" x1="917" x2="958" y1="218.125" y2="218.125"/><polygon fill="#181818" points="927,214.125,917,218.125,927,222.125,923,218.125" style="stroke:#181818;stroke-width:1.0;"/><text fill="#000000" font-family="FG Virgil" font-size="20" lengthAdjust="spacing" textLength="199" x="923" y="198.4082">Validate user's data</text><polygon fill="#181818" points="522,251.4063,512,255.4063,522,259.4063,518,255.4063" style="stroke:#181818;stroke-width:1.0;"/><line style="stroke:#181818;stroke-width:1.0;stroke-dasharray:2.0,2.0;" x1="516" x2="910" y1="255.4063" y2="255.4063"/><text fill="#000000" font-family="FG Virgil" font-size="20" lengthAdjust="spacing" textLength="371" x="528" y="248.6895">200 (Success) OR 400 (Bad Request)</text><polygon fill="#181818" points="57,288.6875,47,292.6875,57,296.6875,53,292.6875" style="stroke:#181818;stroke-width:1.0;"/><line style="stroke:#181818;stroke-width:1.0;" x1="51" x2="505" y1="292.6875" y2="292.6875"/><text fill="#000000" font-family="FG Virgil" font-size="20" lengthAdjust="spacing" textLength="371" x="63" y="285.9707">200 (Success) OR 400 (Bad Request)</text><!--SRC=[bL4zRy8m4DtzAsuZI50GwiHGAIMYOYaIDEmd-qYi-2ErBqNjhw-jjYAYNRfOp_S-xbcEdNOz1hJ6ouuKA3hZO7Zh7H_r1y5gAIOjSn_NYqLlqF5WpPtqTX7fTI0dQQuqDialuayIjEZK9MXcSd164sd4MU-yR8Etz8lgKNROq97V3K4WoIDkLEiPatVx12ST6cr6cjYYyXVj6k0ma10esGSebTKEC49PvOb-GwQComhc3r3lredhW3t8G9b26285AFBfqgePa4LjPX2yeUarejw9UfSZDgbJuWo5zNT6dQp59iDK9b-gb_t8UJM8AuJvJTG9ZLPPdejC8YICj_hSVhLSGd4SfAGOfx0_m7qUFAA2G_wXo5EXwA_TN-tBwhyHwU6V]--></g></svg>