<?xml version="1.0" encoding="UTF-8" standalone="no"?><svg xmlns="http://www.w3.org/2000/svg" xmlns:xlink="http://www.w3.org/1999/xlink" contentStyleType="text/css" height="573px" preserveAspectRatio="none" style="width:1720px;height:573px;background:#FFFFFF;" version="1.1" viewBox="0 0 1720 573" width="1720px" zoomAndPan="magnify"><defs/><g><text fill="#000000" font-family="sans-serif" font-size="14" font-weight="bold" lengthAdjust="spacing" textLength="271" x="726.5" y="27.9951">Level 2 Diagram for Updating Staff</text><rect fill="#FFFFFF" height="341.5313" style="stroke:#181818;stroke-width:1.0;" width="10" x="36" y="135.5781"/><rect fill="#FFFFFF" height="37.2813" style="stroke:#181818;stroke-width:1.0;" width="10" x="520" y="164.8594"/><rect fill="#FFFFFF" height="228.6875" style="stroke:#181818;stroke-width:1.0;" width="10" x="520" y="239.4219"/><rect fill="#FFFFFF" height="87.5625" style="stroke:#181818;stroke-width:1.0;" width="10" x="1166" y="343.2656"/><line style="stroke:#181818;stroke-width:0.5;stroke-dasharray:5.0,5.0;" x1="41" x2="41" y1="125.5781" y2="486.1094"/><line style="stroke:#181818;stroke-width:0.5;stroke-dasharray:5.0,5.0;" x1="524.5" x2="524.5" y1="125.5781" y2="486.1094"/><line style="stroke:#181818;stroke-width:0.5;stroke-dasharray:5.0,5.0;" x1="1171" x2="1171" y1="125.5781" y2="486.1094"/><text fill="#000000" font-family="sans-serif" font-size="20" lengthAdjust="spacing" textLength="66" x="5" y="120.8613">Admin</text><ellipse cx="41" cy="50.7969" fill="#E2E2F0" rx="8" ry="8" style="stroke:#181818;stroke-width:0.5;"/><path d="M41,58.7969 L41,85.7969 M28,66.7969 L54,66.7969 M41,85.7969 L28,100.7969 M41,85.7969 L54,100.7969 " fill="none" style="stroke:#181818;stroke-width:0.5;"/><text fill="#000000" font-family="sans-serif" font-size="20" lengthAdjust="spacing" textLength="66" x="5" y="503.6738">Admin</text><ellipse cx="41" cy="516.8906" fill="#E2E2F0" rx="8" ry="8" style="stroke:#181818;stroke-width:0.5;"/><path d="M41,524.8906 L41,551.8906 M28,532.8906 L54,532.8906 M41,551.8906 L28,566.8906 M41,551.8906 L54,566.8906 " fill="none" style="stroke:#181818;stroke-width:0.5;"/><rect fill="#E2E2F0" height="37.2813" rx="2.5" ry="2.5" style="stroke:#181818;stroke-width:0.5;" width="39" x="505.5" y="87.2969"/><text fill="#000000" font-family="sans-serif" font-size="20" lengthAdjust="spacing" textLength="25" x="512.5" y="112.8613">FE</text><rect fill="#E2E2F0" height="37.2813" rx="2.5" ry="2.5" style="stroke:#181818;stroke-width:0.5;" width="39" x="505.5" y="485.1094"/><text fill="#000000" font-family="sans-serif" font-size="20" lengthAdjust="spacing" textLength="25" x="512.5" y="510.6738">FE</text><rect fill="#E2E2F0" height="37.2813" rx="2.5" ry="2.5" style="stroke:#181818;stroke-width:0.5;" width="60" x="1141" y="87.2969"/><text fill="#000000" font-family="sans-serif" font-size="20" lengthAdjust="spacing" textLength="46" x="1148" y="112.8613">MDR</text><rect fill="#E2E2F0" height="37.2813" rx="2.5" ry="2.5" style="stroke:#181818;stroke-width:0.5;" width="60" x="1141" y="485.1094"/><text fill="#000000" font-family="sans-serif" font-size="20" lengthAdjust="spacing" textLength="46" x="1148" y="510.6738">MDR</text><rect fill="#FFFFFF" height="341.5313" style="stroke:#181818;stroke-width:1.0;" width="10" x="36" y="135.5781"/><rect fill="#FFFFFF" height="37.2813" style="stroke:#181818;stroke-width:1.0;" width="10" x="520" y="164.8594"/><rect fill="#FFFFFF" height="228.6875" style="stroke:#181818;stroke-width:1.0;" width="10" x="520" y="239.4219"/><rect fill="#FFFFFF" height="87.5625" style="stroke:#181818;stroke-width:1.0;" width="10" x="1166" y="343.2656"/><polygon fill="#000000" points="508,160.8594,518,164.8594,508,168.8594,512,164.8594" style="stroke:#000000;stroke-width:1.0;"/><line style="stroke:#000000;stroke-width:1.0;" x1="46" x2="514" y1="164.8594" y2="164.8594"/><text fill="#000000" font-family="sans-serif" font-size="20" lengthAdjust="spacing" textLength="273" x="53" y="158.1426">Asks to edit a Staff's Profile</text><polygon fill="#000000" points="57,198.1406,47,202.1406,57,206.1406,53,202.1406" style="stroke:#000000;stroke-width:1.0;"/><line style="stroke:#000000;stroke-width:1.0;stroke-dasharray:2.0,2.0;" x1="51" x2="524" y1="202.1406" y2="202.1406"/><text fill="#000000" font-family="sans-serif" font-size="20" lengthAdjust="spacing" textLength="450" x="63" y="195.4238">Asks for Staff's Identifier and the data to edit</text><polygon fill="#000000" points="508,235.4219,518,239.4219,508,243.4219,512,239.4219" style="stroke:#000000;stroke-width:1.0;"/><line style="stroke:#000000;stroke-width:1.0;" x1="46" x2="514" y1="239.4219" y2="239.4219"/><text fill="#000000" font-family="sans-serif" font-size="20" lengthAdjust="spacing" textLength="181" x="53" y="232.7051">Sends Staff's data</text><path d="M535,252.4219 L535,308.4219 L1012,308.4219 L1012,262.4219 L1002,252.4219 L535,252.4219 " fill="#FEFFDD" style="stroke:#181818;stroke-width:0.5;"/><path d="M1002,252.4219 L1002,262.4219 L1012,262.4219 L1002,252.4219 " fill="#FEFFDD" style="stroke:#181818;stroke-width:0.5;"/><text fill="#000000" font-family="sans-serif" font-size="20" lengthAdjust="spacing" textLength="456" x="541" y="275.9863">The data can be  Email and/or Phone Number</text><text fill="#000000" font-family="sans-serif" font-size="20" lengthAdjust="spacing" textLength="277" x="547" y="299.2676">and/or Specialization Name</text><polygon fill="#000000" points="1154,339.2656,1164,343.2656,1154,347.2656,1158,343.2656" style="stroke:#000000;stroke-width:1.0;"/><line style="stroke:#000000;stroke-width:1.0;" x1="530" x2="1160" y1="343.2656" y2="343.2656"/><text fill="#000000" font-family="sans-serif" font-size="20" lengthAdjust="spacing" textLength="617" x="537" y="336.5488">Sends HTTP Request to update Staff's data with the new data</text><line style="stroke:#000000;stroke-width:1.0;" x1="1176" x2="1218" y1="380.5469" y2="380.5469"/><line style="stroke:#000000;stroke-width:1.0;" x1="1218" x2="1218" y1="380.5469" y2="393.5469"/><line style="stroke:#000000;stroke-width:1.0;" x1="1177" x2="1218" y1="393.5469" y2="393.5469"/><polygon fill="#000000" points="1187,389.5469,1177,393.5469,1187,397.5469,1183,393.5469" style="stroke:#000000;stroke-width:1.0;"/><text fill="#000000" font-family="sans-serif" font-size="20" lengthAdjust="spacing" textLength="530" x="1183" y="373.8301">Validates Staff's data and tries to update Staff's data</text><polygon fill="#000000" points="541,426.8281,531,430.8281,541,434.8281,537,430.8281" style="stroke:#000000;stroke-width:1.0;"/><line style="stroke:#000000;stroke-width:1.0;stroke-dasharray:2.0,2.0;" x1="535" x2="1170" y1="430.8281" y2="430.8281"/><text fill="#000000" font-family="sans-serif" font-size="20" lengthAdjust="spacing" textLength="311" x="547" y="424.1113">Returns Operation Status Code</text><polygon fill="#000000" points="57,464.1094,47,468.1094,57,472.1094,53,468.1094" style="stroke:#000000;stroke-width:1.0;"/><line style="stroke:#000000;stroke-width:1.0;stroke-dasharray:2.0,2.0;" x1="51" x2="524" y1="468.1094" y2="468.1094"/><text fill="#000000" font-family="sans-serif" font-size="20" lengthAdjust="spacing" textLength="391" x="63" y="461.3926">Returns Operation In/Success message</text><!--SRC=[TLFBRjim4BppAnR9eQSWgO6-Wi2054jeW3On8hUdNjRaocPDaIf9sMYA_dkNKkNOZIj04Z2QcPtTfS96snOzDiR93IbGL6DdOkbihFGJmUHAYAYZ8VX4Mp8mWPd65VEXTXw-j0gZjYke8jQr46kj2AXfuqzeg5cI3qA4iG98Wo70Bm5yvIWtA-ywgswTSVxcPekceuVbTv9nEeNpsTiYAz-VfdhdUauvA_BPrMbE8B_Ladghr-Mao4_HsA8eFnJl-c-PzsutmBbXdlXzcBrb15TqEZsS5tdvfioJ16La85EDje01Ci7wgALkqKOuAukpX9R5CVnvzjZZ_EuTz1OZiJQ3YocJho4Bcm3H0IaT0OTnlmemzwxMXfubR5mMSC6gxAyehMcatocoKTUQFA1L4DS4l3ySZOMYGwDzyOgi2dkJf13MCSVhrJg2gtlIOZIJQ65904M3sgGwbvnWldQMuBvBP-AR7T6g9QdHw2S-HCx2FJOlMvcceOmPFYuMStYa7ns5c59twVpHKJJOwRZkMxEq6yBkBTDu-TwRVkNQoU2ukM4sNbFuJud1enyEN7ESs7aRuA4bF_J1tDW5k7MA3aUQgZylvwNipbvMdPJ4_qZ33pvj_opa3m00]--></g></svg>