<?xml version="1.0" encoding="UTF-8" standalone="no"?><svg xmlns="http://www.w3.org/2000/svg" xmlns:xlink="http://www.w3.org/1999/xlink" contentStyleType="text/css" height="993px" preserveAspectRatio="none" style="width:2745px;height:993px;background:#FFFFFF;" version="1.1" viewBox="0 0 2745 993" width="2745px" zoomAndPan="magnify"><defs><filter height="300%" id="f19pi0cfv8yar8" width="300%" x="-1" y="-1"><feGaussianBlur result="blurOut" stdDeviation="2.0"/><feColorMatrix in="blurOut" result="blurOut2" type="matrix" values="0 0 0 0 0 0 0 0 0 0 0 0 0 0 0 0 0 0 .4 0"/><feOffset dx="4.0" dy="4.0" in="blurOut2" result="blurOut3"/><feBlend in="SourceGraphic" in2="blurOut3" mode="normal"/></filter></defs><g><rect fill="#FFFFFF" filter="url(#f19pi0cfv8yar8)" height="794.1875" style="stroke:#181818;stroke-width:1.0;" width="10" x="51" y="101.2813"/><rect fill="#FFFFFF" filter="url(#f19pi0cfv8yar8)" height="500.9375" style="stroke:#181818;stroke-width:1.0;" width="10" x="384" y="130.5625"/><rect fill="#FFFFFF" filter="url(#f19pi0cfv8yar8)" height="426.375" style="stroke:#181818;stroke-width:1.0;" width="10" x="831" y="167.8438"/><rect fill="#FFFFFF" filter="url(#f19pi0cfv8yar8)" height="351.8125" style="stroke:#181818;stroke-width:1.0;" width="10" x="1278" y="205.125"/><rect fill="#FFFFFF" filter="url(#f19pi0cfv8yar8)" height="277.25" style="stroke:#181818;stroke-width:1.0;" width="10" x="1832" y="242.4063"/><rect fill="#FFFFFF" filter="url(#f19pi0cfv8yar8)" height="202.6875" style="stroke:#181818;stroke-width:1.0;" width="10" x="2275" y="279.6875"/><rect fill="#FFFFFF" filter="url(#f19pi0cfv8yar8)" height="128.125" style="stroke:#181818;stroke-width:1.0;" width="10" x="2657" y="316.9688"/><rect fill="none" filter="url(#f19pi0cfv8yar8)" height="506.2188" style="stroke:#000000;stroke-width:1.5;" width="2723.5" x="10" y="382.25"/><line style="stroke:#181818;stroke-width:0.5;stroke-dasharray:5.0,5.0;" x1="56" x2="56" y1="91.2813" y2="905.4688"/><line style="stroke:#181818;stroke-width:0.5;stroke-dasharray:5.0,5.0;" x1="389" x2="389" y1="91.2813" y2="905.4688"/><line style="stroke:#181818;stroke-width:0.5;stroke-dasharray:5.0,5.0;" x1="835.5" x2="835.5" y1="91.2813" y2="905.4688"/><line style="stroke:#181818;stroke-width:0.5;stroke-dasharray:5.0,5.0;" x1="1283" x2="1283" y1="91.2813" y2="905.4688"/><line style="stroke:#181818;stroke-width:0.5;stroke-dasharray:5.0,5.0;" x1="1837" x2="1837" y1="91.2813" y2="905.4688"/><line style="stroke:#181818;stroke-width:0.5;stroke-dasharray:5.0,5.0;" x1="2280" x2="2280" y1="91.2813" y2="905.4688"/><line style="stroke:#181818;stroke-width:0.5;stroke-dasharray:5.0,5.0;" x1="2661.5" x2="2661.5" y1="91.2813" y2="905.4688"/><text fill="#000000" font-family="sans-serif" font-size="20" lengthAdjust="spacing" textLength="66" x="20" y="86.5645">Admin</text><ellipse cx="56" cy="13.5" fill="#E2E2F0" filter="url(#f19pi0cfv8yar8)" rx="8" ry="8" style="stroke:#181818;stroke-width:0.5;"/><path d="M56,21.5 L56,48.5 M43,29.5 L69,29.5 M56,48.5 L43,63.5 M56,48.5 L69,63.5 " fill="none" filter="url(#f19pi0cfv8yar8)" style="stroke:#181818;stroke-width:0.5;"/><text fill="#000000" font-family="sans-serif" font-size="20" lengthAdjust="spacing" textLength="66" x="20" y="923.0332">Admin</text><ellipse cx="56" cy="936.25" fill="#E2E2F0" filter="url(#f19pi0cfv8yar8)" rx="8" ry="8" style="stroke:#181818;stroke-width:0.5;"/><path d="M56,944.25 L56,971.25 M43,952.25 L69,952.25 M56,971.25 L43,986.25 M56,971.25 L69,986.25 " fill="none" filter="url(#f19pi0cfv8yar8)" style="stroke:#181818;stroke-width:0.5;"/><rect fill="#E2E2F0" filter="url(#f19pi0cfv8yar8)" height="37.2813" rx="2.5" ry="2.5" style="stroke:#181818;stroke-width:0.5;" width="83" x="346" y="50"/><text fill="#000000" font-family="sans-serif" font-size="20" lengthAdjust="spacing" textLength="69" x="353" y="75.5645">Routes</text><rect fill="#E2E2F0" filter="url(#f19pi0cfv8yar8)" height="37.2813" rx="2.5" ry="2.5" style="stroke:#181818;stroke-width:0.5;" width="83" x="346" y="904.4688"/><text fill="#000000" font-family="sans-serif" font-size="20" lengthAdjust="spacing" textLength="69" x="353" y="930.0332">Routes</text><rect fill="#E2E2F0" filter="url(#f19pi0cfv8yar8)" height="37.2813" rx="2.5" ry="2.5" style="stroke:#181818;stroke-width:0.5;" width="60" x="804.5" y="50"/><text fill="#000000" font-family="sans-serif" font-size="20" lengthAdjust="spacing" textLength="46" x="811.5" y="75.5645">MDR</text><rect fill="#E2E2F0" filter="url(#f19pi0cfv8yar8)" height="37.2813" rx="2.5" ry="2.5" style="stroke:#181818;stroke-width:0.5;" width="60" x="804.5" y="904.4688"/><text fill="#000000" font-family="sans-serif" font-size="20" lengthAdjust="spacing" textLength="46" x="811.5" y="930.0332">MDR</text><rect fill="#E2E2F0" filter="url(#f19pi0cfv8yar8)" height="37.2813" rx="2.5" ry="2.5" style="stroke:#181818;stroke-width:0.5;" width="113" x="1225" y="50"/><text fill="#000000" font-family="sans-serif" font-size="20" lengthAdjust="spacing" textLength="99" x="1232" y="75.5645">Controller</text><rect fill="#E2E2F0" filter="url(#f19pi0cfv8yar8)" height="37.2813" rx="2.5" ry="2.5" style="stroke:#181818;stroke-width:0.5;" width="113" x="1225" y="904.4688"/><text fill="#000000" font-family="sans-serif" font-size="20" lengthAdjust="spacing" textLength="99" x="1232" y="930.0332">Controller</text><rect fill="#E2E2F0" filter="url(#f19pi0cfv8yar8)" height="37.2813" rx="2.5" ry="2.5" style="stroke:#181818;stroke-width:0.5;" width="87" x="1792" y="50"/><text fill="#000000" font-family="sans-serif" font-size="20" lengthAdjust="spacing" textLength="73" x="1799" y="75.5645">Service</text><rect fill="#E2E2F0" filter="url(#f19pi0cfv8yar8)" height="37.2813" rx="2.5" ry="2.5" style="stroke:#181818;stroke-width:0.5;" width="87" x="1792" y="904.4688"/><text fill="#000000" font-family="sans-serif" font-size="20" lengthAdjust="spacing" textLength="73" x="1799" y="930.0332">Service</text><rect fill="#E2E2F0" filter="url(#f19pi0cfv8yar8)" height="37.2813" rx="2.5" ry="2.5" style="stroke:#181818;stroke-width:0.5;" width="57" x="2250" y="50"/><text fill="#000000" font-family="sans-serif" font-size="20" lengthAdjust="spacing" textLength="43" x="2257" y="75.5645">DTO</text><rect fill="#E2E2F0" filter="url(#f19pi0cfv8yar8)" height="37.2813" rx="2.5" ry="2.5" style="stroke:#181818;stroke-width:0.5;" width="57" x="2250" y="904.4688"/><text fill="#000000" font-family="sans-serif" font-size="20" lengthAdjust="spacing" textLength="43" x="2257" y="930.0332">DTO</text><rect fill="#E2E2F0" filter="url(#f19pi0cfv8yar8)" height="37.2813" rx="2.5" ry="2.5" style="stroke:#181818;stroke-width:0.5;" width="120" x="2600.5" y="50"/><text fill="#000000" font-family="sans-serif" font-size="20" lengthAdjust="spacing" textLength="106" x="2607.5" y="75.5645">Repository</text><rect fill="#E2E2F0" filter="url(#f19pi0cfv8yar8)" height="37.2813" rx="2.5" ry="2.5" style="stroke:#181818;stroke-width:0.5;" width="120" x="2600.5" y="904.4688"/><text fill="#000000" font-family="sans-serif" font-size="20" lengthAdjust="spacing" textLength="106" x="2607.5" y="930.0332">Repository</text><rect fill="#FFFFFF" filter="url(#f19pi0cfv8yar8)" height="794.1875" style="stroke:#181818;stroke-width:1.0;" width="10" x="51" y="101.2813"/><rect fill="#FFFFFF" filter="url(#f19pi0cfv8yar8)" height="500.9375" style="stroke:#181818;stroke-width:1.0;" width="10" x="384" y="130.5625"/><rect fill="#FFFFFF" filter="url(#f19pi0cfv8yar8)" height="426.375" style="stroke:#181818;stroke-width:1.0;" width="10" x="831" y="167.8438"/><rect fill="#FFFFFF" filter="url(#f19pi0cfv8yar8)" height="351.8125" style="stroke:#181818;stroke-width:1.0;" width="10" x="1278" y="205.125"/><rect fill="#FFFFFF" filter="url(#f19pi0cfv8yar8)" height="277.25" style="stroke:#181818;stroke-width:1.0;" width="10" x="1832" y="242.4063"/><rect fill="#FFFFFF" filter="url(#f19pi0cfv8yar8)" height="202.6875" style="stroke:#181818;stroke-width:1.0;" width="10" x="2275" y="279.6875"/><rect fill="#FFFFFF" filter="url(#f19pi0cfv8yar8)" height="128.125" style="stroke:#181818;stroke-width:1.0;" width="10" x="2657" y="316.9688"/><polygon fill="#181818" points="372,126.5625,382,130.5625,372,134.5625,376,130.5625" style="stroke:#181818;stroke-width:1.0;"/><line style="stroke:#181818;stroke-width:1.0;" x1="61" x2="378" y1="130.5625" y2="130.5625"/><text fill="#000000" font-family="sans-serif" font-size="20" lengthAdjust="spacing" textLength="257" x="68" y="123.8457">post(\operationTypeData)</text><polygon fill="#181818" points="819,163.8438,829,167.8438,819,171.8438,823,167.8438" style="stroke:#181818;stroke-width:1.0;"/><line style="stroke:#181818;stroke-width:1.0;" x1="394" x2="825" y1="167.8438" y2="167.8438"/><text fill="#000000" font-family="sans-serif" font-size="20" lengthAdjust="spacing" textLength="418" x="401" y="161.127">createOperationType(operationTypeData)</text><polygon fill="#181818" points="1266,201.125,1276,205.125,1266,209.125,1270,205.125" style="stroke:#181818;stroke-width:1.0;"/><line style="stroke:#181818;stroke-width:1.0;" x1="841" x2="1272" y1="205.125" y2="205.125"/><text fill="#000000" font-family="sans-serif" font-size="20" lengthAdjust="spacing" textLength="418" x="848" y="198.4082">createOperationType(operationTypeData)</text><polygon fill="#181818" points="1820,238.4063,1830,242.4063,1820,246.4063,1824,242.4063" style="stroke:#181818;stroke-width:1.0;"/><line style="stroke:#181818;stroke-width:1.0;" x1="1288" x2="1826" y1="242.4063" y2="242.4063"/><text fill="#000000" font-family="sans-serif" font-size="20" lengthAdjust="spacing" textLength="525" x="1295" y="235.6895">instance().createOperationType(operationTypeData)</text><polygon fill="#181818" points="2263,275.6875,2273,279.6875,2263,283.6875,2267,279.6875" style="stroke:#181818;stroke-width:1.0;"/><line style="stroke:#181818;stroke-width:1.0;" x1="1842" x2="2269" y1="279.6875" y2="279.6875"/><text fill="#000000" font-family="sans-serif" font-size="20" lengthAdjust="spacing" textLength="414" x="1849" y="272.9707">createOperationType(operationTypeDTO)</text><polygon fill="#181818" points="2645,312.9688,2655,316.9688,2645,320.9688,2649,316.9688" style="stroke:#181818;stroke-width:1.0;"/><line style="stroke:#181818;stroke-width:1.0;" x1="2285" x2="2651" y1="316.9688" y2="316.9688"/><text fill="#000000" font-family="sans-serif" font-size="20" lengthAdjust="spacing" textLength="353" x="2292" y="310.252">saveOperationType(operationType)</text><line style="stroke:#181818;stroke-width:1.0;" x1="2667" x2="2709" y1="354.25" y2="354.25"/><line style="stroke:#181818;stroke-width:1.0;" x1="2709" x2="2709" y1="354.25" y2="367.25"/><line style="stroke:#181818;stroke-width:1.0;" x1="2668" x2="2709" y1="367.25" y2="367.25"/><polygon fill="#181818" points="2678,363.25,2668,367.25,2678,371.25,2674,367.25" style="stroke:#181818;stroke-width:1.0;"/><text fill="#000000" font-family="sans-serif" font-size="20" lengthAdjust="spacing" textLength="61" x="2674" y="347.5332">save()</text><path d="M10,382.25 L86,382.25 L86,397.5313 L76,407.5313 L10,407.5313 L10,382.25 " fill="#EEEEEE" style="stroke:#000000;stroke-width:1.5;"/><rect fill="none" height="506.2188" style="stroke:#000000;stroke-width:1.5;" width="2723.5" x="10" y="382.25"/><text fill="#000000" font-family="sans-serif" font-size="20" font-weight="bold" lengthAdjust="spacing" textLength="31" x="25" y="401.8145">alt</text><text fill="#000000" font-family="sans-serif" font-size="20" font-weight="bold" lengthAdjust="spacing" textLength="157" x="101" y="402.8145">[Success 200]</text><polygon fill="#181818" points="2296,441.0938,2286,445.0938,2296,449.0938,2292,445.0938" style="stroke:#181818;stroke-width:1.0;"/><line style="stroke:#181818;stroke-width:1.0;stroke-dasharray:2.0,2.0;" x1="2290" x2="2661" y1="445.0938" y2="445.0938"/><text fill="#000000" font-family="sans-serif" font-size="20" lengthAdjust="spacing" textLength="39" x="2302" y="438.377">200</text><polygon fill="#181818" points="1853,478.375,1843,482.375,1853,486.375,1849,482.375" style="stroke:#181818;stroke-width:1.0;"/><line style="stroke:#181818;stroke-width:1.0;stroke-dasharray:2.0,2.0;" x1="1847" x2="2279" y1="482.375" y2="482.375"/><text fill="#000000" font-family="sans-serif" font-size="20" lengthAdjust="spacing" textLength="39" x="1859" y="475.6582">200</text><polygon fill="#181818" points="1299,515.6563,1289,519.6563,1299,523.6563,1295,519.6563" style="stroke:#181818;stroke-width:1.0;"/><line style="stroke:#181818;stroke-width:1.0;stroke-dasharray:2.0,2.0;" x1="1293" x2="1836" y1="519.6563" y2="519.6563"/><text fill="#000000" font-family="sans-serif" font-size="20" lengthAdjust="spacing" textLength="39" x="1305" y="512.9395">200</text><polygon fill="#181818" points="852,552.9375,842,556.9375,852,560.9375,848,556.9375" style="stroke:#181818;stroke-width:1.0;"/><line style="stroke:#181818;stroke-width:1.0;stroke-dasharray:2.0,2.0;" x1="846" x2="1282" y1="556.9375" y2="556.9375"/><text fill="#000000" font-family="sans-serif" font-size="20" lengthAdjust="spacing" textLength="39" x="858" y="550.2207">200</text><polygon fill="#181818" points="405,590.2188,395,594.2188,405,598.2188,401,594.2188" style="stroke:#181818;stroke-width:1.0;"/><line style="stroke:#181818;stroke-width:1.0;stroke-dasharray:2.0,2.0;" x1="399" x2="835" y1="594.2188" y2="594.2188"/><text fill="#000000" font-family="sans-serif" font-size="20" lengthAdjust="spacing" textLength="39" x="411" y="587.502">200</text><polygon fill="#181818" points="72,627.5,62,631.5,72,635.5,68,631.5" style="stroke:#181818;stroke-width:1.0;"/><line style="stroke:#181818;stroke-width:1.0;stroke-dasharray:2.0,2.0;" x1="66" x2="388" y1="631.5" y2="631.5"/><text fill="#000000" font-family="sans-serif" font-size="20" lengthAdjust="spacing" textLength="236" x="78" y="624.7832">Operation Type created</text><line style="stroke:#000000;stroke-width:1.0;stroke-dasharray:2.0,2.0;" x1="10" x2="2733.5" y1="640.5" y2="640.5"/><text fill="#000000" font-family="sans-serif" font-size="20" font-weight="bold" lengthAdjust="spacing" textLength="147" x="15" y="659.0645">[Failure 400]</text><polygon fill="#181818" points="2291,690.0625,2281,694.0625,2291,698.0625,2287,694.0625" style="stroke:#181818;stroke-width:1.0;"/><line style="stroke:#181818;stroke-width:1.0;stroke-dasharray:2.0,2.0;" x1="2285" x2="2661" y1="694.0625" y2="694.0625"/><text fill="#000000" font-family="sans-serif" font-size="20" lengthAdjust="spacing" textLength="39" x="2297" y="687.3457">400</text><polygon fill="#181818" points="1848,727.3438,1838,731.3438,1848,735.3438,1844,731.3438" style="stroke:#181818;stroke-width:1.0;"/><line style="stroke:#181818;stroke-width:1.0;stroke-dasharray:2.0,2.0;" x1="1842" x2="2279" y1="731.3438" y2="731.3438"/><text fill="#000000" font-family="sans-serif" font-size="20" lengthAdjust="spacing" textLength="39" x="1854" y="724.627">400</text><polygon fill="#181818" points="1294,764.625,1284,768.625,1294,772.625,1290,768.625" style="stroke:#181818;stroke-width:1.0;"/><line style="stroke:#181818;stroke-width:1.0;stroke-dasharray:2.0,2.0;" x1="1288" x2="1836" y1="768.625" y2="768.625"/><text fill="#000000" font-family="sans-serif" font-size="20" lengthAdjust="spacing" textLength="39" x="1300" y="761.9082">400</text><polygon fill="#181818" points="847,801.9063,837,805.9063,847,809.9063,843,805.9063" style="stroke:#181818;stroke-width:1.0;"/><line style="stroke:#181818;stroke-width:1.0;stroke-dasharray:2.0,2.0;" x1="841" x2="1282" y1="805.9063" y2="805.9063"/><text fill="#000000" font-family="sans-serif" font-size="20" lengthAdjust="spacing" textLength="39" x="853" y="799.1895">400</text><polygon fill="#181818" points="400,839.1875,390,843.1875,400,847.1875,396,843.1875" style="stroke:#181818;stroke-width:1.0;"/><line style="stroke:#181818;stroke-width:1.0;stroke-dasharray:2.0,2.0;" x1="394" x2="835" y1="843.1875" y2="843.1875"/><text fill="#000000" font-family="sans-serif" font-size="20" lengthAdjust="spacing" textLength="39" x="406" y="836.4707">400</text><polygon fill="#181818" points="72,876.4688,62,880.4688,72,884.4688,68,880.4688" style="stroke:#181818;stroke-width:1.0;"/><line style="stroke:#181818;stroke-width:1.0;stroke-dasharray:2.0,2.0;" x1="66" x2="388" y1="880.4688" y2="880.4688"/><text fill="#000000" font-family="sans-serif" font-size="20" lengthAdjust="spacing" textLength="304" x="78" y="873.752">Operation Type creation failed</text><!--SRC=[fPGzQyCm48Pt_OeRdQ6b54yU2gOcMmd46RiSqYKHaIKZoGdfhw_as8bet51JWz37wNqjFNUsEqZTeiL66NuW0OAss2c_DDhNyelWzOMvSGliKOkJbTwJXYqgHqciCThmlJKDtOLQv0VSKUtFYi0IzqdCxL6OazGxyBOZnf1xOw4KZTI03iggNv97z1GdPGLFRx0sdITNG6kSppvDInQzD7fpRgb2ZukRvBAJNRee_QZM1N1B8RXATTaZbo1YeKNzUm1ZZL9avzlSjEmsZAOrsQFaL83KpgFcb2sUvveF7cpeessrMVtba9jLOXDcBBIUCWM-CgJZN833uoEFbFXLnMx3ARiiY9I7kkESd0k5zi8WFAbelCCO4pJrcXZfZvoId934gyMbAw4VwPoGZ53ZSfgoiP0c94cIOwGlcwHa9nInklgR3qKQTfTL0LVS40aFUHHt72u5Jk6BWoLArLc2_07AV3xAV3xAV3xAV3RA_5yeusmRWFsEL0kMh8QVppS0]--></g></svg>