<?xml version="1.0" encoding="UTF-8" standalone="no"?><svg xmlns="http://www.w3.org/2000/svg" xmlns:xlink="http://www.w3.org/1999/xlink" contentStyleType="text/css" height="632px" preserveAspectRatio="none" style="width:815px;height:632px;background:#FFFFFF;" version="1.1" viewBox="0 0 815 632" width="815px" zoomAndPan="magnify"><defs/><g><text fill="#000000" font-family="sans-serif" font-size="14" font-weight="bold" lengthAdjust="spacing" textLength="382" x="218" y="27.9951">Doctor Operation Request Update Flow - Level 1</text><rect fill="#FFFFFF" height="370.5313" style="stroke:#181818;stroke-width:1.0;" width="10" x="327" y="164.8594"/><line style="stroke:#181818;stroke-width:0.5;stroke-dasharray:5.0,5.0;" x1="41" x2="41" y1="125.5781" y2="544.3906"/><line style="stroke:#181818;stroke-width:0.5;stroke-dasharray:5.0,5.0;" x1="331.5" x2="331.5" y1="125.5781" y2="544.3906"/><line style="stroke:#181818;stroke-width:0.5;stroke-dasharray:5.0,5.0;" x1="653" x2="653" y1="125.5781" y2="544.3906"/><line style="stroke:#181818;stroke-width:0.5;stroke-dasharray:5.0,5.0;" x1="764" x2="764" y1="125.5781" y2="544.3906"/><text fill="#000000" font-family="sans-serif" font-size="20" lengthAdjust="spacing" textLength="66" x="5" y="120.8613">Doctor</text><ellipse cx="41" cy="50.7969" fill="#E2E2F0" rx="8" ry="8" style="stroke:#181818;stroke-width:0.5;"/><path d="M41,58.7969 L41,85.7969 M28,66.7969 L54,66.7969 M41,85.7969 L28,100.7969 M41,85.7969 L54,100.7969 " fill="none" style="stroke:#181818;stroke-width:0.5;"/><text fill="#000000" font-family="sans-serif" font-size="20" lengthAdjust="spacing" textLength="66" x="5" y="561.9551">Doctor</text><ellipse cx="41" cy="575.1719" fill="#E2E2F0" rx="8" ry="8" style="stroke:#181818;stroke-width:0.5;"/><path d="M41,583.1719 L41,610.1719 M28,591.1719 L54,591.1719 M41,610.1719 L28,625.1719 M41,610.1719 L54,625.1719 " fill="none" style="stroke:#181818;stroke-width:0.5;"/><rect fill="#E2E2F0" height="60.5625" rx="2.5" ry="2.5" style="stroke:#181818;stroke-width:0.5;" width="123" x="270.5" y="64.0156"/><text fill="#000000" font-family="sans-serif" font-size="20" lengthAdjust="spacing" textLength="109" x="277.5" y="89.5801">Healthcare</text><text fill="#000000" font-family="sans-serif" font-size="20" lengthAdjust="spacing" textLength="74" x="295" y="112.8613">System</text><rect fill="#E2E2F0" height="60.5625" rx="2.5" ry="2.5" style="stroke:#181818;stroke-width:0.5;" width="123" x="270.5" y="543.3906"/><text fill="#000000" font-family="sans-serif" font-size="20" lengthAdjust="spacing" textLength="109" x="277.5" y="568.9551">Healthcare</text><text fill="#000000" font-family="sans-serif" font-size="20" lengthAdjust="spacing" textLength="74" x="295" y="592.2363">System</text><rect fill="#E2E2F0" height="60.5625" rx="2.5" ry="2.5" style="stroke:#181818;stroke-width:0.5;" width="102" x="602" y="64.0156"/><text fill="#000000" font-family="sans-serif" font-size="20" lengthAdjust="spacing" textLength="88" x="609" y="89.5801">Planning</text><text fill="#000000" font-family="sans-serif" font-size="20" lengthAdjust="spacing" textLength="73" x="616.5" y="112.8613">Module</text><rect fill="#E2E2F0" height="60.5625" rx="2.5" ry="2.5" style="stroke:#181818;stroke-width:0.5;" width="102" x="602" y="543.3906"/><text fill="#000000" font-family="sans-serif" font-size="20" lengthAdjust="spacing" textLength="88" x="609" y="568.9551">Planning</text><text fill="#000000" font-family="sans-serif" font-size="20" lengthAdjust="spacing" textLength="73" x="616.5" y="592.2363">Module</text><text fill="#000000" font-family="sans-serif" font-size="20" lengthAdjust="spacing" textLength="94" x="714" y="120.8613">Database</text><path d="M746,66.2969 C746,56.2969 764,56.2969 764,56.2969 C764,56.2969 782,56.2969 782,66.2969 L782,92.2969 C782,102.2969 764,102.2969 764,102.2969 C764,102.2969 746,102.2969 746,92.2969 L746,66.2969 " fill="#E2E2F0" style="stroke:#181818;stroke-width:1.5;"/><path d="M746,66.2969 C746,76.2969 764,76.2969 764,76.2969 C764,76.2969 782,76.2969 782,66.2969 " fill="none" style="stroke:#181818;stroke-width:1.5;"/><text fill="#000000" font-family="sans-serif" font-size="20" lengthAdjust="spacing" textLength="94" x="714" y="561.9551">Database</text><path d="M746,576.6719 C746,566.6719 764,566.6719 764,566.6719 C764,566.6719 782,566.6719 782,576.6719 L782,602.6719 C782,612.6719 764,612.6719 764,612.6719 C764,612.6719 746,612.6719 746,602.6719 L746,576.6719 " fill="#E2E2F0" style="stroke:#181818;stroke-width:1.5;"/><path d="M746,576.6719 C746,586.6719 764,586.6719 764,586.6719 C764,586.6719 782,586.6719 782,576.6719 " fill="none" style="stroke:#181818;stroke-width:1.5;"/><rect fill="#FFFFFF" height="370.5313" style="stroke:#181818;stroke-width:1.0;" width="10" x="327" y="164.8594"/><polygon fill="#181818" points="315,160.8594,325,164.8594,315,168.8594,319,164.8594" style="stroke:#181818;stroke-width:1.0;"/><line style="stroke:#181818;stroke-width:1.0;" x1="41" x2="321" y1="164.8594" y2="164.8594"/><text fill="#000000" font-family="sans-serif" font-size="20" lengthAdjust="spacing" textLength="267" x="48" y="158.1426">Update Operation Request</text><line style="stroke:#181818;stroke-width:1.0;" x1="337" x2="379" y1="202.1406" y2="202.1406"/><line style="stroke:#181818;stroke-width:1.0;" x1="379" x2="379" y1="202.1406" y2="215.1406"/><line style="stroke:#181818;stroke-width:1.0;" x1="338" x2="379" y1="215.1406" y2="215.1406"/><polygon fill="#181818" points="348,211.1406,338,215.1406,348,219.1406,344,215.1406" style="stroke:#181818;stroke-width:1.0;"/><text fill="#000000" font-family="sans-serif" font-size="20" lengthAdjust="spacing" textLength="297" x="344" y="195.4238">Validate Doctor Authorization</text><line style="stroke:#181818;stroke-width:1.0;" x1="337" x2="379" y1="252.4219" y2="252.4219"/><line style="stroke:#181818;stroke-width:1.0;" x1="379" x2="379" y1="252.4219" y2="265.4219"/><line style="stroke:#181818;stroke-width:1.0;" x1="338" x2="379" y1="265.4219" y2="265.4219"/><polygon fill="#181818" points="348,261.4219,338,265.4219,348,269.4219,344,265.4219" style="stroke:#181818;stroke-width:1.0;"/><text fill="#000000" font-family="sans-serif" font-size="20" lengthAdjust="spacing" textLength="176" x="344" y="245.7051">Validate Changes</text><polygon fill="#181818" points="752,298.7031,762,302.7031,752,306.7031,756,302.7031" style="stroke:#181818;stroke-width:1.0;"/><line style="stroke:#181818;stroke-width:1.0;" x1="337" x2="758" y1="302.7031" y2="302.7031"/><text fill="#000000" font-family="sans-serif" font-size="20" lengthAdjust="spacing" textLength="161" x="344" y="295.9863">Update Request</text><polygon fill="#181818" points="348,335.9844,338,339.9844,348,343.9844,344,339.9844" style="stroke:#181818;stroke-width:1.0;"/><line style="stroke:#181818;stroke-width:1.0;stroke-dasharray:2.0,2.0;" x1="342" x2="763" y1="339.9844" y2="339.9844"/><text fill="#000000" font-family="sans-serif" font-size="20" lengthAdjust="spacing" textLength="131" x="354" y="333.2676">Confirmation</text><polygon fill="#181818" points="641,373.2656,651,377.2656,641,381.2656,645,377.2656" style="stroke:#181818;stroke-width:1.0;"/><line style="stroke:#181818;stroke-width:1.0;" x1="337" x2="647" y1="377.2656" y2="377.2656"/><text fill="#000000" font-family="sans-serif" font-size="20" lengthAdjust="spacing" textLength="152" x="344" y="370.5488">Notify Changes</text><polygon fill="#181818" points="348,410.5469,338,414.5469,348,418.5469,344,414.5469" style="stroke:#181818;stroke-width:1.0;"/><line style="stroke:#181818;stroke-width:1.0;stroke-dasharray:2.0,2.0;" x1="342" x2="652" y1="414.5469" y2="414.5469"/><text fill="#000000" font-family="sans-serif" font-size="20" lengthAdjust="spacing" textLength="176" x="354" y="407.8301">Acknowledgment</text><polygon fill="#181818" points="752,447.8281,762,451.8281,752,455.8281,756,451.8281" style="stroke:#181818;stroke-width:1.0;"/><line style="stroke:#181818;stroke-width:1.0;" x1="337" x2="758" y1="451.8281" y2="451.8281"/><text fill="#000000" font-family="sans-serif" font-size="20" lengthAdjust="spacing" textLength="115" x="344" y="445.1113">Log Update</text><polygon fill="#181818" points="348,485.1094,338,489.1094,348,493.1094,344,489.1094" style="stroke:#181818;stroke-width:1.0;"/><line style="stroke:#181818;stroke-width:1.0;stroke-dasharray:2.0,2.0;" x1="342" x2="763" y1="489.1094" y2="489.1094"/><text fill="#000000" font-family="sans-serif" font-size="20" lengthAdjust="spacing" textLength="173" x="354" y="482.3926">Log Confirmation</text><polygon fill="#181818" points="52,522.3906,42,526.3906,52,530.3906,48,526.3906" style="stroke:#181818;stroke-width:1.0;"/><line style="stroke:#181818;stroke-width:1.0;stroke-dasharray:2.0,2.0;" x1="46" x2="326" y1="526.3906" y2="526.3906"/><text fill="#000000" font-family="sans-serif" font-size="20" lengthAdjust="spacing" textLength="172" x="58" y="519.6738">Success Message</text><!--SRC=[VP3DQiCm48JlUeebTqFRem-5a19wID9IqvvosSfhMrXUkTOw8Ndw-a_1eQONIMXcPpx9buPhRB2oJfUKGaePjbQsZYKnLuAd1oL6BC6Bq-8QUAkfGJ6EuOD-Ml82dtMAGh2rxWmHxEX45XwLmi4-JgckGOmsDRB0wfNGIg6neICd5ozKhG0zZCTxwxj5PiFvaVSkRIqDnd2fkbxyHj-nJGUb9iheUOgB0zuVxXxGd7ffAbRZFf_zGck6wIbstKhX6dCTWlxpRmhadFmyCp3UY097422Q9MqSPwQfng9PIdXx30Sd9hlSce9mbxBM9RkpfJIlY6MPPkVoYMYPfDUNQVgOuLzYI5gjoNlOTmlcf7u1]--></g></svg>