<?xml version="1.0" encoding="UTF-8" standalone="no"?><svg xmlns="http://www.w3.org/2000/svg" xmlns:xlink="http://www.w3.org/1999/xlink" contentStyleType="text/css" height="597px" preserveAspectRatio="none" style="width:1744px;height:597px;background:#FFFFFF;" version="1.1" viewBox="0 0 1744 597" width="1744px" zoomAndPan="magnify"><defs/><g><text fill="#000000" font-family="sans-serif" font-size="14" font-weight="bold" lengthAdjust="spacing" textLength="126" x="811" y="27.9951">Level 2 Diagram</text><rect fill="#FFFFFF" height="364.8125" style="stroke:#181818;stroke-width:1.0;" width="10" x="36" y="135.5781"/><rect fill="#FFFFFF" height="37.2813" style="stroke:#181818;stroke-width:1.0;" width="10" x="472" y="164.8594"/><rect fill="#FFFFFF" height="251.9688" style="stroke:#181818;stroke-width:1.0;" width="10" x="472" y="239.4219"/><rect fill="#FFFFFF" height="87.5625" style="stroke:#181818;stroke-width:1.0;" width="10" x="1142" y="366.5469"/><line style="stroke:#181818;stroke-width:0.5;stroke-dasharray:5.0,5.0;" x1="41" x2="41" y1="125.5781" y2="509.3906"/><line style="stroke:#181818;stroke-width:0.5;stroke-dasharray:5.0,5.0;" x1="476.5" x2="476.5" y1="125.5781" y2="509.3906"/><line style="stroke:#181818;stroke-width:0.5;stroke-dasharray:5.0,5.0;" x1="1147" x2="1147" y1="125.5781" y2="509.3906"/><text fill="#000000" font-family="sans-serif" font-size="20" lengthAdjust="spacing" textLength="66" x="5" y="120.8613">Admin</text><ellipse cx="41" cy="50.7969" fill="#E2E2F0" rx="8" ry="8" style="stroke:#181818;stroke-width:0.5;"/><path d="M41,58.7969 L41,85.7969 M28,66.7969 L54,66.7969 M41,85.7969 L28,100.7969 M41,85.7969 L54,100.7969 " fill="none" style="stroke:#181818;stroke-width:0.5;"/><text fill="#000000" font-family="sans-serif" font-size="20" lengthAdjust="spacing" textLength="66" x="5" y="526.9551">Admin</text><ellipse cx="41" cy="540.1719" fill="#E2E2F0" rx="8" ry="8" style="stroke:#181818;stroke-width:0.5;"/><path d="M41,548.1719 L41,575.1719 M28,556.1719 L54,556.1719 M41,575.1719 L28,590.1719 M41,575.1719 L54,590.1719 " fill="none" style="stroke:#181818;stroke-width:0.5;"/><rect fill="#E2E2F0" height="37.2813" rx="2.5" ry="2.5" style="stroke:#181818;stroke-width:0.5;" width="39" x="457.5" y="87.2969"/><text fill="#000000" font-family="sans-serif" font-size="20" lengthAdjust="spacing" textLength="25" x="464.5" y="112.8613">FE</text><rect fill="#E2E2F0" height="37.2813" rx="2.5" ry="2.5" style="stroke:#181818;stroke-width:0.5;" width="39" x="457.5" y="508.3906"/><text fill="#000000" font-family="sans-serif" font-size="20" lengthAdjust="spacing" textLength="25" x="464.5" y="533.9551">FE</text><rect fill="#E2E2F0" height="37.2813" rx="2.5" ry="2.5" style="stroke:#181818;stroke-width:0.5;" width="60" x="1117" y="87.2969"/><text fill="#000000" font-family="sans-serif" font-size="20" lengthAdjust="spacing" textLength="46" x="1124" y="112.8613">MDR</text><rect fill="#E2E2F0" height="37.2813" rx="2.5" ry="2.5" style="stroke:#181818;stroke-width:0.5;" width="60" x="1117" y="508.3906"/><text fill="#000000" font-family="sans-serif" font-size="20" lengthAdjust="spacing" textLength="46" x="1124" y="533.9551">MDR</text><rect fill="#FFFFFF" height="364.8125" style="stroke:#181818;stroke-width:1.0;" width="10" x="36" y="135.5781"/><rect fill="#FFFFFF" height="37.2813" style="stroke:#181818;stroke-width:1.0;" width="10" x="472" y="164.8594"/><rect fill="#FFFFFF" height="251.9688" style="stroke:#181818;stroke-width:1.0;" width="10" x="472" y="239.4219"/><rect fill="#FFFFFF" height="87.5625" style="stroke:#181818;stroke-width:1.0;" width="10" x="1142" y="366.5469"/><polygon fill="#000000" points="460,160.8594,470,164.8594,460,168.8594,464,164.8594" style="stroke:#000000;stroke-width:1.0;"/><line style="stroke:#000000;stroke-width:1.0;" x1="46" x2="466" y1="164.8594" y2="164.8594"/><text fill="#000000" font-family="sans-serif" font-size="20" lengthAdjust="spacing" textLength="297" x="53" y="158.1426">Asks to edit a Patient's Profile</text><polygon fill="#000000" points="57,198.1406,47,202.1406,57,206.1406,53,202.1406" style="stroke:#000000;stroke-width:1.0;"/><line style="stroke:#000000;stroke-width:1.0;stroke-dasharray:2.0,2.0;" x1="51" x2="476" y1="202.1406" y2="202.1406"/><text fill="#000000" font-family="sans-serif" font-size="20" lengthAdjust="spacing" textLength="402" x="63" y="195.4238">Asks for Patient's Id and the data to edit</text><polygon fill="#000000" points="460,235.4219,470,239.4219,460,243.4219,464,239.4219" style="stroke:#000000;stroke-width:1.0;"/><line style="stroke:#000000;stroke-width:1.0;" x1="46" x2="466" y1="239.4219" y2="239.4219"/><text fill="#000000" font-family="sans-serif" font-size="20" lengthAdjust="spacing" textLength="205" x="53" y="232.7051">Sends Patient's data</text><path d="M487,252.4219 L487,331.4219 L1146,331.4219 L1146,262.4219 L1136,252.4219 L487,252.4219 " fill="#FEFFDD" style="stroke:#181818;stroke-width:0.5;"/><path d="M1136,252.4219 L1136,262.4219 L1146,262.4219 L1136,252.4219 " fill="#FEFFDD" style="stroke:#181818;stroke-width:0.5;"/><text fill="#000000" font-family="sans-serif" font-size="20" lengthAdjust="spacing" textLength="638" x="493" y="275.9863">The data can be First Name and/or Last Name and/or Full Name</text><text fill="#000000" font-family="sans-serif" font-size="20" lengthAdjust="spacing" textLength="628" x="493" y="299.2676">and/or Email and/or Phone Number and/or Emergency Contact</text><text fill="#000000" font-family="sans-serif" font-size="20" lengthAdjust="spacing" textLength="261" x="493" y="322.5488">and/or Medical Conditions</text><polygon fill="#000000" points="1130,362.5469,1140,366.5469,1130,370.5469,1134,366.5469" style="stroke:#000000;stroke-width:1.0;"/><line style="stroke:#000000;stroke-width:1.0;" x1="482" x2="1136" y1="366.5469" y2="366.5469"/><text fill="#000000" font-family="sans-serif" font-size="20" lengthAdjust="spacing" textLength="641" x="489" y="359.8301">Sends HTTP Request to update Patient's data with the new data</text><line style="stroke:#000000;stroke-width:1.0;" x1="1152" x2="1194" y1="403.8281" y2="403.8281"/><line style="stroke:#000000;stroke-width:1.0;" x1="1194" x2="1194" y1="403.8281" y2="416.8281"/><line style="stroke:#000000;stroke-width:1.0;" x1="1153" x2="1194" y1="416.8281" y2="416.8281"/><polygon fill="#000000" points="1163,412.8281,1153,416.8281,1163,420.8281,1159,416.8281" style="stroke:#000000;stroke-width:1.0;"/><text fill="#000000" font-family="sans-serif" font-size="20" lengthAdjust="spacing" textLength="578" x="1159" y="397.1113">Validates Patient's data and tries to update Patient's data</text><polygon fill="#000000" points="493,450.1094,483,454.1094,493,458.1094,489,454.1094" style="stroke:#000000;stroke-width:1.0;"/><line style="stroke:#000000;stroke-width:1.0;stroke-dasharray:2.0,2.0;" x1="487" x2="1146" y1="454.1094" y2="454.1094"/><text fill="#000000" font-family="sans-serif" font-size="20" lengthAdjust="spacing" textLength="311" x="499" y="447.3926">Returns Operation Status Code</text><polygon fill="#000000" points="57,487.3906,47,491.3906,57,495.3906,53,491.3906" style="stroke:#000000;stroke-width:1.0;"/><line style="stroke:#000000;stroke-width:1.0;stroke-dasharray:2.0,2.0;" x1="51" x2="476" y1="491.3906" y2="491.3906"/><text fill="#000000" font-family="sans-serif" font-size="20" lengthAdjust="spacing" textLength="380" x="63" y="484.6738">Returns Operation In/Sucess message</text><!--SRC=[TLFBRjim4BppAnR98QSWgO6-Wi2054je02Snug2dNjRYscPDaIgvik4M_VSkvVWHnnKW2HZE36TtoRWmhi60jVNLWZHecc9hkVIEn-OtGUzQAJPi2OQq90iz61YS2L-fkT44L3UyXfhg2OMeBkBM3eR64QyR0XzuxfNQhrGMOuG_2kJ9iLhCWc-TllFMXzlR9TgMdYO_gU9-7yu7dugi_7AQ6hplEEMWo0VNfpcHmj9Kr5bzA7j5Veec5aNvjVZShMKX-DK6pgtmrD_3x8qWEAFJwU6yoCkFPPuaMB40cQwD0uoGAT6pgKo3Zk6iBCuIMXPluOV1SuVBltCmIsGIRGQNVI7VG1ON4TW3QSE0C48svFWYmYZugR6q5ubrMS2bwB9NsLJox0Nt6j1fu3c1HiQjgT9qQB7RU4nEnmDvqYZdXHNCRCxWfntjPMjNeOE9M9WG6HwnfhJRbIGOuX5GjjPsm0_tYXGr6hjT7isz8tXiq_c27O72Z5orXZivff9t9tsG6Ygq2PTYZ7VnNKVwgRlRWhwzl8pWcNwr9Aca1MsZ4_LjdR0oFEywvMYrgNndcYObxyxsErgJB8vxjMbsC1J_kyt6f-itt4WeReEByDHGm5G9Z1cvZLAQfiCffGJxIR-NtRkhSLkHtBXQFd9sZqRy3m00]--></g></svg>