<?xml version="1.0" encoding="UTF-8" standalone="no"?><svg xmlns="http://www.w3.org/2000/svg" xmlns:xlink="http://www.w3.org/1999/xlink" contentStyleType="text/css" height="597px" preserveAspectRatio="none" style="width:1791px;height:597px;background:#FFFFFF;" version="1.1" viewBox="0 0 1791 597" width="1791px" zoomAndPan="magnify"><defs/><g><text fill="#000000" font-family="sans-serif" font-size="14" font-weight="bold" lengthAdjust="spacing" textLength="404" x="695.5" y="27.9951">Level 2 Diagram for Updating Operation Requisition</text><rect fill="#FFFFFF" height="364.8125" style="stroke:#181818;stroke-width:1.0;" width="10" x="36" y="135.5781"/><rect fill="#FFFFFF" height="37.2813" style="stroke:#181818;stroke-width:1.0;" width="10" x="606" y="164.8594"/><rect fill="#FFFFFF" height="251.9688" style="stroke:#181818;stroke-width:1.0;" width="10" x="606" y="239.4219"/><rect fill="#FFFFFF" height="87.5625" style="stroke:#181818;stroke-width:1.0;" width="10" x="1318" y="366.5469"/><line style="stroke:#181818;stroke-width:0.5;stroke-dasharray:5.0,5.0;" x1="41" x2="41" y1="125.5781" y2="509.3906"/><line style="stroke:#181818;stroke-width:0.5;stroke-dasharray:5.0,5.0;" x1="610.5" x2="610.5" y1="125.5781" y2="509.3906"/><line style="stroke:#181818;stroke-width:0.5;stroke-dasharray:5.0,5.0;" x1="1323" x2="1323" y1="125.5781" y2="509.3906"/><text fill="#000000" font-family="sans-serif" font-size="20" lengthAdjust="spacing" textLength="66" x="5" y="120.8613">Doctor</text><ellipse cx="41" cy="50.7969" fill="#E2E2F0" rx="8" ry="8" style="stroke:#181818;stroke-width:0.5;"/><path d="M41,58.7969 L41,85.7969 M28,66.7969 L54,66.7969 M41,85.7969 L28,100.7969 M41,85.7969 L54,100.7969 " fill="none" style="stroke:#181818;stroke-width:0.5;"/><text fill="#000000" font-family="sans-serif" font-size="20" lengthAdjust="spacing" textLength="66" x="5" y="526.9551">Doctor</text><ellipse cx="41" cy="540.1719" fill="#E2E2F0" rx="8" ry="8" style="stroke:#181818;stroke-width:0.5;"/><path d="M41,548.1719 L41,575.1719 M28,556.1719 L54,556.1719 M41,575.1719 L28,590.1719 M41,575.1719 L54,590.1719 " fill="none" style="stroke:#181818;stroke-width:0.5;"/><rect fill="#E2E2F0" height="37.2813" rx="2.5" ry="2.5" style="stroke:#181818;stroke-width:0.5;" width="39" x="591.5" y="87.2969"/><text fill="#000000" font-family="sans-serif" font-size="20" lengthAdjust="spacing" textLength="25" x="598.5" y="112.8613">FE</text><rect fill="#E2E2F0" height="37.2813" rx="2.5" ry="2.5" style="stroke:#181818;stroke-width:0.5;" width="39" x="591.5" y="508.3906"/><text fill="#000000" font-family="sans-serif" font-size="20" lengthAdjust="spacing" textLength="25" x="598.5" y="533.9551">FE</text><rect fill="#E2E2F0" height="37.2813" rx="2.5" ry="2.5" style="stroke:#181818;stroke-width:0.5;" width="60" x="1293" y="87.2969"/><text fill="#000000" font-family="sans-serif" font-size="20" lengthAdjust="spacing" textLength="46" x="1300" y="112.8613">MDR</text><rect fill="#E2E2F0" height="37.2813" rx="2.5" ry="2.5" style="stroke:#181818;stroke-width:0.5;" width="60" x="1293" y="508.3906"/><text fill="#000000" font-family="sans-serif" font-size="20" lengthAdjust="spacing" textLength="46" x="1300" y="533.9551">MDR</text><rect fill="#FFFFFF" height="364.8125" style="stroke:#181818;stroke-width:1.0;" width="10" x="36" y="135.5781"/><rect fill="#FFFFFF" height="37.2813" style="stroke:#181818;stroke-width:1.0;" width="10" x="606" y="164.8594"/><rect fill="#FFFFFF" height="251.9688" style="stroke:#181818;stroke-width:1.0;" width="10" x="606" y="239.4219"/><rect fill="#FFFFFF" height="87.5625" style="stroke:#181818;stroke-width:1.0;" width="10" x="1318" y="366.5469"/><polygon fill="#000000" points="594,160.8594,604,164.8594,594,168.8594,598,164.8594" style="stroke:#000000;stroke-width:1.0;"/><line style="stroke:#000000;stroke-width:1.0;" x1="46" x2="600" y1="164.8594" y2="164.8594"/><text fill="#000000" font-family="sans-serif" font-size="20" lengthAdjust="spacing" textLength="373" x="53" y="158.1426">Asks to edit an Operation Requisition</text><polygon fill="#000000" points="57,198.1406,47,202.1406,57,206.1406,53,202.1406" style="stroke:#000000;stroke-width:1.0;"/><line style="stroke:#000000;stroke-width:1.0;stroke-dasharray:2.0,2.0;" x1="51" x2="610" y1="202.1406" y2="202.1406"/><text fill="#000000" font-family="sans-serif" font-size="20" lengthAdjust="spacing" textLength="536" x="63" y="195.4238">Asks for Operation Requisition ID and the data to edit</text><polygon fill="#000000" points="594,235.4219,604,239.4219,594,243.4219,598,239.4219" style="stroke:#000000;stroke-width:1.0;"/><line style="stroke:#000000;stroke-width:1.0;" x1="46" x2="600" y1="239.4219" y2="239.4219"/><text fill="#000000" font-family="sans-serif" font-size="20" lengthAdjust="spacing" textLength="417" x="53" y="232.7051">Sends updated operation requisition data</text><path d="M621,252.4219 L621,331.4219 L959,331.4219 L959,262.4219 L949,252.4219 L621,252.4219 " fill="#FEFFDD" style="stroke:#181818;stroke-width:0.5;"/><path d="M949,252.4219 L949,262.4219 L959,262.4219 L949,252.4219 " fill="#FEFFDD" style="stroke:#181818;stroke-width:0.5;"/><text fill="#000000" font-family="sans-serif" font-size="20" lengthAdjust="spacing" textLength="317" x="627" y="275.9863">The data can be operationType,</text><text fill="#000000" font-family="sans-serif" font-size="20" lengthAdjust="spacing" textLength="140" x="627" y="299.2676">deadlineDate,</text><text fill="#000000" font-family="sans-serif" font-size="20" lengthAdjust="spacing" textLength="121" x="627" y="322.5488">priority, etc.</text><polygon fill="#000000" points="1306,362.5469,1316,366.5469,1306,370.5469,1310,366.5469" style="stroke:#000000;stroke-width:1.0;"/><line style="stroke:#000000;stroke-width:1.0;" x1="616" x2="1312" y1="366.5469" y2="366.5469"/><text fill="#000000" font-family="sans-serif" font-size="20" lengthAdjust="spacing" textLength="683" x="623" y="359.8301">Sends HTTP Request to update Operation Requisition with new data</text><line style="stroke:#000000;stroke-width:1.0;" x1="1328" x2="1370" y1="403.8281" y2="403.8281"/><line style="stroke:#000000;stroke-width:1.0;" x1="1370" x2="1370" y1="403.8281" y2="416.8281"/><line style="stroke:#000000;stroke-width:1.0;" x1="1329" x2="1370" y1="416.8281" y2="416.8281"/><polygon fill="#000000" points="1339,412.8281,1329,416.8281,1339,420.8281,1335,416.8281" style="stroke:#000000;stroke-width:1.0;"/><text fill="#000000" font-family="sans-serif" font-size="20" lengthAdjust="spacing" textLength="449" x="1335" y="397.1113">Validates updated operation requisition data</text><polygon fill="#000000" points="627,450.1094,617,454.1094,627,458.1094,623,454.1094" style="stroke:#000000;stroke-width:1.0;"/><line style="stroke:#000000;stroke-width:1.0;stroke-dasharray:2.0,2.0;" x1="621" x2="1322" y1="454.1094" y2="454.1094"/><text fill="#000000" font-family="sans-serif" font-size="20" lengthAdjust="spacing" textLength="311" x="633" y="447.3926">Returns Operation Status Code</text><polygon fill="#000000" points="57,487.3906,47,491.3906,57,495.3906,53,491.3906" style="stroke:#000000;stroke-width:1.0;"/><line style="stroke:#000000;stroke-width:1.0;stroke-dasharray:2.0,2.0;" x1="51" x2="610" y1="491.3906" y2="491.3906"/><text fill="#000000" font-family="sans-serif" font-size="20" lengthAdjust="spacing" textLength="444" x="63" y="484.6738">Returns Operation Update Success message</text><!--SRC=[ZLDDRzim3BthLn3jOPTsw0Bi4qM0kBAm0Hqw9EbElIWIusXn94-Y4sJ3_lieft7IDGLcm9PCyJtoaLHQEj_eg5TrC4kqO76ksvfKy3Hnln06LqAGenhX5jTOmm2aqnNxmpn4k6-i9kShk6imyYvu6EFFrYMNzq8id4N0LKDRME5gXZ69LsaV4MwTHzes227I8WXnE36rJWb-2-2dq6PPnT1wUnFg4A-lrxfkyMxs0mqDXt0ktvKZzU6qQmoXyr6oBEJLQP-4SUqCTbHlrA0iJhanHQa-bk-xir6CORCp5pNxYJ_7kJTiqHMUpXxEoqAzLKM6Q4DiaA5RT08fc82SSOts16UgFCjMLJurVvNZpivhH-7Mcf2n4Yw7xFm9HccPW0AWTGJQlz2Q7idygeHB1ij7R6xiIH1yaKneWHO8t7UzZo8i7jFrcKpGsmHjdX6UhD1JnYFAp2DyO6HqrO8Wp3leT1_2i88P7i1JdfUB1yyHRStZ8vcQVvleGdIqlG0ay_gPk66krZwVpzFfjquL9ieATlcze7ZZQ04UDxiyUzvSV7vxvk-wTfdblzHsmCSIZP7QwDDHz0bfQXFS18l7TSqH3trw3hlVgPYqnY1VdHL_U0Z_wSnV]--></g></svg>