<?xml version="1.0" encoding="UTF-8" standalone="no"?><svg xmlns="http://www.w3.org/2000/svg" xmlns:xlink="http://www.w3.org/1999/xlink" contentStyleType="text/css" height="2780px" preserveAspectRatio="none" style="width:4686px;height:2780px;background:#FFFFFF;" version="1.1" viewBox="0 0 4686 2780" width="4686px" zoomAndPan="magnify"><defs/><g><text fill="#000000" font-family="sans-serif" font-size="14" font-weight="bold" lengthAdjust="spacing" textLength="166" x="2262" y="27.9951">Level 3 MDV Diagram</text><rect fill="#FFFFFF" height="699.3438" style="stroke:#181818;stroke-width:1.0;" width="10" x="19.5" y="90.5781"/><rect fill="#FFFFFF" height="622.5" style="stroke:#181818;stroke-width:1.0;" width="10" x="19.5" y="827.2031"/><rect fill="#FFFFFF" height="1233.7188" style="stroke:#181818;stroke-width:1.0;" width="10" x="19.5" y="1486.9844"/><rect fill="#FFFFFF" height="670.0625" style="stroke:#181818;stroke-width:1.0;" width="10" x="445.5" y="119.8594"/><rect fill="#FFFFFF" height="595.5" style="stroke:#181818;stroke-width:1.0;" width="10" x="784.5" y="157.1406"/><rect fill="#FFFFFF" height="520.9375" style="stroke:#181818;stroke-width:1.0;" width="10" x="1074.5" y="194.4219"/><rect fill="#FFFFFF" height="236.6875" style="stroke:#181818;stroke-width:1.0;" width="10" x="1248.5" y="231.7031"/><rect fill="#FFFFFF" height="162.125" style="stroke:#181818;stroke-width:1.0;" width="10" x="1424" y="268.9844"/><rect fill="#FFFFFF" height="124.8438" style="stroke:#181818;stroke-width:1.0;" width="10" x="1584" y="546.2344"/><rect fill="#FFFFFF" height="43.2813" style="stroke:#181818;stroke-width:1.0;" width="10" x="1799" y="583.5156"/><rect fill="#FFFFFF" height="622.5" style="stroke:#181818;stroke-width:1.0;" width="10" x="1973" y="827.2031"/><rect fill="#FFFFFF" height="1233.7188" style="stroke:#181818;stroke-width:1.0;" width="10" x="1973" y="1486.9844"/><rect fill="#FFFFFF" height="547.9375" style="stroke:#181818;stroke-width:1.0;" width="10" x="2455" y="864.4844"/><rect fill="#FFFFFF" height="1159.1563" style="stroke:#181818;stroke-width:1.0;" width="10" x="2455" y="1524.2656"/><rect fill="#FFFFFF" height="473.375" style="stroke:#181818;stroke-width:1.0;" width="10" x="2876" y="901.7656"/><rect fill="#FFFFFF" height="1084.5938" style="stroke:#181818;stroke-width:1.0;" width="10" x="2876" y="1561.5469"/><rect fill="#FFFFFF" height="236.6875" style="stroke:#181818;stroke-width:1.0;" width="10" x="3121.5" y="939.0469"/><rect fill="#FFFFFF" height="236.6875" style="stroke:#181818;stroke-width:1.0;" width="10" x="3121.5" y="1598.8281"/><rect fill="#FFFFFF" height="411.8125" style="stroke:#181818;stroke-width:1.0;" width="10" x="3121.5" y="2034.9219"/><rect fill="#FFFFFF" height="162.125" style="stroke:#181818;stroke-width:1.0;" width="10" x="3527.5" y="976.3281"/><rect fill="#FFFFFF" height="162.125" style="stroke:#181818;stroke-width:1.0;" width="10" x="3527.5" y="1636.1094"/><rect fill="#FFFFFF" height="162.125" style="stroke:#181818;stroke-width:1.0;" width="10" x="3527.5" y="2072.2031"/><rect fill="#FFFFFF" height="124.8438" style="stroke:#181818;stroke-width:1.0;" width="10" x="3761.5" y="1213.0156"/><rect fill="#FFFFFF" height="124.8438" style="stroke:#181818;stroke-width:1.0;" width="10" x="3761.5" y="1872.7969"/><rect fill="#FFFFFF" height="124.8438" style="stroke:#181818;stroke-width:1.0;" width="10" x="3761.5" y="2484.0156"/><rect fill="#FFFFFF" height="43.2813" style="stroke:#181818;stroke-width:1.0;" width="10" x="4054.5" y="1250.2969"/><rect fill="#FFFFFF" height="43.2813" style="stroke:#181818;stroke-width:1.0;" width="10" x="4054.5" y="1910.0781"/><rect fill="#FFFFFF" height="43.2813" style="stroke:#181818;stroke-width:1.0;" width="10" x="4054.5" y="2521.2969"/><rect fill="#FFFFFF" height="87.5625" style="stroke:#181818;stroke-width:1.0;" width="10" x="4213" y="306.2656"/><rect fill="#FFFFFF" height="87.5625" style="stroke:#181818;stroke-width:1.0;" width="10" x="4213" y="1013.6094"/><rect fill="#FFFFFF" height="87.5625" style="stroke:#181818;stroke-width:1.0;" width="10" x="4213" y="1673.3906"/><rect fill="#FFFFFF" height="87.5625" style="stroke:#181818;stroke-width:1.0;" width="10" x="4213" y="2109.4844"/><rect fill="#FFFFFF" height="87.5625" style="stroke:#181818;stroke-width:1.0;" width="10" x="4213" y="2321.8906"/><rect fill="#EBF5FB" height="195.6875" style="stroke:#000000;stroke-width:1.5;" width="910" x="997" y="483.3906"/><line style="stroke:#181818;stroke-width:0.5;stroke-dasharray:5.0,5.0;" x1="24" x2="24" y1="80.5781" y2="2738.7031"/><line style="stroke:#181818;stroke-width:0.5;stroke-dasharray:5.0,5.0;" x1="450" x2="450" y1="80.5781" y2="2738.7031"/><line style="stroke:#181818;stroke-width:0.5;stroke-dasharray:5.0,5.0;" x1="789" x2="789" y1="80.5781" y2="2738.7031"/><line style="stroke:#181818;stroke-width:0.5;stroke-dasharray:5.0,5.0;" x1="1079" x2="1079" y1="80.5781" y2="2738.7031"/><line style="stroke:#181818;stroke-width:0.5;stroke-dasharray:5.0,5.0;" x1="1253.5" x2="1253.5" y1="80.5781" y2="2738.7031"/><line style="stroke:#181818;stroke-width:0.5;stroke-dasharray:5.0,5.0;" x1="1428.5" x2="1428.5" y1="80.5781" y2="2738.7031"/><line style="stroke:#181818;stroke-width:0.5;stroke-dasharray:5.0,5.0;" x1="1588.5" x2="1588.5" y1="80.5781" y2="2738.7031"/><line style="stroke:#181818;stroke-width:0.5;stroke-dasharray:5.0,5.0;" x1="1803.5" x2="1803.5" y1="80.5781" y2="2738.7031"/><line style="stroke:#181818;stroke-width:0.5;stroke-dasharray:5.0,5.0;" x1="1977.5" x2="1977.5" y1="80.5781" y2="2738.7031"/><line style="stroke:#181818;stroke-width:0.5;stroke-dasharray:5.0,5.0;" x1="2459.5" x2="2459.5" y1="80.5781" y2="2738.7031"/><line style="stroke:#181818;stroke-width:0.5;stroke-dasharray:5.0,5.0;" x1="2880.5" x2="2880.5" y1="80.5781" y2="2738.7031"/><line style="stroke:#181818;stroke-width:0.5;stroke-dasharray:5.0,5.0;" x1="3126.5" x2="3126.5" y1="80.5781" y2="2738.7031"/><line style="stroke:#181818;stroke-width:0.5;stroke-dasharray:5.0,5.0;" x1="3532" x2="3532" y1="80.5781" y2="2738.7031"/><line style="stroke:#181818;stroke-width:0.5;stroke-dasharray:5.0,5.0;" x1="3766" x2="3766" y1="80.5781" y2="2738.7031"/><line style="stroke:#181818;stroke-width:0.5;stroke-dasharray:5.0,5.0;" x1="4059" x2="4059" y1="80.5781" y2="2738.7031"/><line style="stroke:#181818;stroke-width:0.5;stroke-dasharray:5.0,5.0;" x1="4218" x2="4218" y1="80.5781" y2="2738.7031"/><rect fill="#E2E2F0" height="37.2813" rx="2.5" ry="2.5" style="stroke:#181818;stroke-width:0.5;" width="39" x="5" y="42.2969"/><text fill="#000000" font-family="sans-serif" font-size="20" lengthAdjust="spacing" textLength="25" x="12" y="67.8613">FE</text><rect fill="#E2E2F0" height="37.2813" rx="2.5" ry="2.5" style="stroke:#181818;stroke-width:0.5;" width="39" x="5" y="2737.7031"/><text fill="#000000" font-family="sans-serif" font-size="20" lengthAdjust="spacing" textLength="25" x="12" y="2763.2676">FE</text><rect fill="#E2E2F0" height="37.2813" rx="2.5" ry="2.5" style="stroke:#181818;stroke-width:0.5;" width="139" x="381" y="42.2969"/><text fill="#000000" font-family="sans-serif" font-size="20" lengthAdjust="spacing" textLength="125" x="388" y="67.8613">RoomRouter</text><rect fill="#E2E2F0" height="37.2813" rx="2.5" ry="2.5" style="stroke:#181818;stroke-width:0.5;" width="139" x="381" y="2737.7031"/><text fill="#000000" font-family="sans-serif" font-size="20" lengthAdjust="spacing" textLength="125" x="388" y="2763.2676">RoomRouter</text><rect fill="#E2E2F0" height="37.2813" rx="2.5" ry="2.5" style="stroke:#181818;stroke-width:0.5;" width="171" x="704" y="42.2969"/><text fill="#000000" font-family="sans-serif" font-size="20" lengthAdjust="spacing" textLength="157" x="711" y="67.8613">RoomController</text><rect fill="#E2E2F0" height="37.2813" rx="2.5" ry="2.5" style="stroke:#181818;stroke-width:0.5;" width="171" x="704" y="2737.7031"/><text fill="#000000" font-family="sans-serif" font-size="20" lengthAdjust="spacing" textLength="157" x="711" y="2763.2676">RoomController</text><rect fill="#E2E2F0" height="37.2813" rx="2.5" ry="2.5" style="stroke:#181818;stroke-width:0.5;" width="145" x="1007" y="42.2969"/><text fill="#000000" font-family="sans-serif" font-size="20" lengthAdjust="spacing" textLength="131" x="1014" y="67.8613">RoomService</text><rect fill="#E2E2F0" height="37.2813" rx="2.5" ry="2.5" style="stroke:#181818;stroke-width:0.5;" width="145" x="1007" y="2737.7031"/><text fill="#000000" font-family="sans-serif" font-size="20" lengthAdjust="spacing" textLength="131" x="1014" y="2763.2676">RoomService</text><rect fill="#E2E2F0" height="37.2813" rx="2.5" ry="2.5" style="stroke:#181818;stroke-width:0.5;" width="178" x="1164.5" y="42.2969"/><text fill="#000000" font-family="sans-serif" font-size="20" lengthAdjust="spacing" textLength="164" x="1171.5" y="67.8613">RoomRepository</text><rect fill="#E2E2F0" height="37.2813" rx="2.5" ry="2.5" style="stroke:#181818;stroke-width:0.5;" width="178" x="1164.5" y="2737.7031"/><text fill="#000000" font-family="sans-serif" font-size="20" lengthAdjust="spacing" textLength="164" x="1171.5" y="2763.2676">RoomRepository</text><rect fill="#E2E2F0" height="37.2813" rx="2.5" ry="2.5" style="stroke:#181818;stroke-width:0.5;" width="153" x="1352.5" y="42.2969"/><text fill="#000000" font-family="sans-serif" font-size="20" lengthAdjust="spacing" textLength="139" x="1359.5" y="67.8613">RoomSchema</text><rect fill="#E2E2F0" height="37.2813" rx="2.5" ry="2.5" style="stroke:#181818;stroke-width:0.5;" width="153" x="1352.5" y="2737.7031"/><text fill="#000000" font-family="sans-serif" font-size="20" lengthAdjust="spacing" textLength="139" x="1359.5" y="2763.2676">RoomSchema</text><rect fill="#E2E2F0" height="37.2813" rx="2.5" ry="2.5" style="stroke:#181818;stroke-width:0.5;" width="147" x="1515.5" y="42.2969"/><text fill="#000000" font-family="sans-serif" font-size="20" lengthAdjust="spacing" textLength="133" x="1522.5" y="67.8613">RoomMapper</text><rect fill="#E2E2F0" height="37.2813" rx="2.5" ry="2.5" style="stroke:#181818;stroke-width:0.5;" width="147" x="1515.5" y="2737.7031"/><text fill="#000000" font-family="sans-serif" font-size="20" lengthAdjust="spacing" textLength="133" x="1522.5" y="2763.2676">RoomMapper</text><rect fill="#E2E2F0" height="37.2813" rx="2.5" ry="2.5" style="stroke:#181818;stroke-width:0.5;" width="115" x="1746.5" y="42.2969"/><text fill="#000000" font-family="sans-serif" font-size="20" lengthAdjust="spacing" textLength="101" x="1753.5" y="67.8613">RoomDTO</text><rect fill="#E2E2F0" height="37.2813" rx="2.5" ry="2.5" style="stroke:#181818;stroke-width:0.5;" width="115" x="1746.5" y="2737.7031"/><text fill="#000000" font-family="sans-serif" font-size="20" lengthAdjust="spacing" textLength="101" x="1753.5" y="2763.2676">RoomDTO</text><rect fill="#E2E2F0" height="37.2813" rx="2.5" ry="2.5" style="stroke:#181818;stroke-width:0.5;" width="213" x="1871.5" y="42.2969"/><text fill="#000000" font-family="sans-serif" font-size="20" lengthAdjust="spacing" textLength="199" x="1878.5" y="67.8613">AppointmentRouter</text><rect fill="#E2E2F0" height="37.2813" rx="2.5" ry="2.5" style="stroke:#181818;stroke-width:0.5;" width="213" x="1871.5" y="2737.7031"/><text fill="#000000" font-family="sans-serif" font-size="20" lengthAdjust="spacing" textLength="199" x="1878.5" y="2763.2676">AppointmentRouter</text><rect fill="#E2E2F0" height="37.2813" rx="2.5" ry="2.5" style="stroke:#181818;stroke-width:0.5;" width="245" x="2337.5" y="42.2969"/><text fill="#000000" font-family="sans-serif" font-size="20" lengthAdjust="spacing" textLength="231" x="2344.5" y="67.8613">AppointmentController</text><rect fill="#E2E2F0" height="37.2813" rx="2.5" ry="2.5" style="stroke:#181818;stroke-width:0.5;" width="245" x="2337.5" y="2737.7031"/><text fill="#000000" font-family="sans-serif" font-size="20" lengthAdjust="spacing" textLength="231" x="2344.5" y="2763.2676">AppointmentController</text><rect fill="#E2E2F0" height="37.2813" rx="2.5" ry="2.5" style="stroke:#181818;stroke-width:0.5;" width="219" x="2771.5" y="42.2969"/><text fill="#000000" font-family="sans-serif" font-size="20" lengthAdjust="spacing" textLength="205" x="2778.5" y="67.8613">AppointmentService</text><rect fill="#E2E2F0" height="37.2813" rx="2.5" ry="2.5" style="stroke:#181818;stroke-width:0.5;" width="219" x="2771.5" y="2737.7031"/><text fill="#000000" font-family="sans-serif" font-size="20" lengthAdjust="spacing" textLength="205" x="2778.5" y="2763.2676">AppointmentService</text><rect fill="#E2E2F0" height="37.2813" rx="2.5" ry="2.5" style="stroke:#181818;stroke-width:0.5;" width="252" x="3000.5" y="42.2969"/><text fill="#000000" font-family="sans-serif" font-size="20" lengthAdjust="spacing" textLength="238" x="3007.5" y="67.8613">AppointmentRepository</text><rect fill="#E2E2F0" height="37.2813" rx="2.5" ry="2.5" style="stroke:#181818;stroke-width:0.5;" width="252" x="3000.5" y="2737.7031"/><text fill="#000000" font-family="sans-serif" font-size="20" lengthAdjust="spacing" textLength="238" x="3007.5" y="2763.2676">AppointmentRepository</text><rect fill="#E2E2F0" height="37.2813" rx="2.5" ry="2.5" style="stroke:#181818;stroke-width:0.5;" width="227" x="3419" y="42.2969"/><text fill="#000000" font-family="sans-serif" font-size="20" lengthAdjust="spacing" textLength="213" x="3426" y="67.8613">AppointmentSchema</text><rect fill="#E2E2F0" height="37.2813" rx="2.5" ry="2.5" style="stroke:#181818;stroke-width:0.5;" width="227" x="3419" y="2737.7031"/><text fill="#000000" font-family="sans-serif" font-size="20" lengthAdjust="spacing" textLength="213" x="3426" y="2763.2676">AppointmentSchema</text><rect fill="#E2E2F0" height="37.2813" rx="2.5" ry="2.5" style="stroke:#181818;stroke-width:0.5;" width="221" x="3656" y="42.2969"/><text fill="#000000" font-family="sans-serif" font-size="20" lengthAdjust="spacing" textLength="207" x="3663" y="67.8613">AppointmentMapper</text><rect fill="#E2E2F0" height="37.2813" rx="2.5" ry="2.5" style="stroke:#181818;stroke-width:0.5;" width="221" x="3656" y="2737.7031"/><text fill="#000000" font-family="sans-serif" font-size="20" lengthAdjust="spacing" textLength="207" x="3663" y="2763.2676">AppointmentMapper</text><rect fill="#E2E2F0" height="37.2813" rx="2.5" ry="2.5" style="stroke:#181818;stroke-width:0.5;" width="189" x="3965" y="42.2969"/><text fill="#000000" font-family="sans-serif" font-size="20" lengthAdjust="spacing" textLength="175" x="3972" y="67.8613">AppointmentDTO</text><rect fill="#E2E2F0" height="37.2813" rx="2.5" ry="2.5" style="stroke:#181818;stroke-width:0.5;" width="189" x="3965" y="2737.7031"/><text fill="#000000" font-family="sans-serif" font-size="20" lengthAdjust="spacing" textLength="175" x="3972" y="2763.2676">AppointmentDTO</text><rect fill="#E2E2F0" height="37.2813" rx="2.5" ry="2.5" style="stroke:#181818;stroke-width:0.5;" width="108" x="4164" y="42.2969"/><text fill="#000000" font-family="sans-serif" font-size="20" lengthAdjust="spacing" textLength="94" x="4171" y="67.8613">Database</text><rect fill="#E2E2F0" height="37.2813" rx="2.5" ry="2.5" style="stroke:#181818;stroke-width:0.5;" width="108" x="4164" y="2737.7031"/><text fill="#000000" font-family="sans-serif" font-size="20" lengthAdjust="spacing" textLength="94" x="4171" y="2763.2676">Database</text><rect fill="#FFFFFF" height="699.3438" style="stroke:#181818;stroke-width:1.0;" width="10" x="19.5" y="90.5781"/><rect fill="#FFFFFF" height="622.5" style="stroke:#181818;stroke-width:1.0;" width="10" x="19.5" y="827.2031"/><rect fill="#FFFFFF" height="1233.7188" style="stroke:#181818;stroke-width:1.0;" width="10" x="19.5" y="1486.9844"/><rect fill="#FFFFFF" height="670.0625" style="stroke:#181818;stroke-width:1.0;" width="10" x="445.5" y="119.8594"/><rect fill="#FFFFFF" height="595.5" style="stroke:#181818;stroke-width:1.0;" width="10" x="784.5" y="157.1406"/><rect fill="#FFFFFF" height="520.9375" style="stroke:#181818;stroke-width:1.0;" width="10" x="1074.5" y="194.4219"/><rect fill="#FFFFFF" height="236.6875" style="stroke:#181818;stroke-width:1.0;" width="10" x="1248.5" y="231.7031"/><rect fill="#FFFFFF" height="162.125" style="stroke:#181818;stroke-width:1.0;" width="10" x="1424" y="268.9844"/><rect fill="#FFFFFF" height="124.8438" style="stroke:#181818;stroke-width:1.0;" width="10" x="1584" y="546.2344"/><rect fill="#FFFFFF" height="43.2813" style="stroke:#181818;stroke-width:1.0;" width="10" x="1799" y="583.5156"/><rect fill="#FFFFFF" height="622.5" style="stroke:#181818;stroke-width:1.0;" width="10" x="1973" y="827.2031"/><rect fill="#FFFFFF" height="1233.7188" style="stroke:#181818;stroke-width:1.0;" width="10" x="1973" y="1486.9844"/><rect fill="#FFFFFF" height="547.9375" style="stroke:#181818;stroke-width:1.0;" width="10" x="2455" y="864.4844"/><rect fill="#FFFFFF" height="1159.1563" style="stroke:#181818;stroke-width:1.0;" width="10" x="2455" y="1524.2656"/><rect fill="#FFFFFF" height="473.375" style="stroke:#181818;stroke-width:1.0;" width="10" x="2876" y="901.7656"/><rect fill="#FFFFFF" height="1084.5938" style="stroke:#181818;stroke-width:1.0;" width="10" x="2876" y="1561.5469"/><rect fill="#FFFFFF" height="236.6875" style="stroke:#181818;stroke-width:1.0;" width="10" x="3121.5" y="939.0469"/><rect fill="#FFFFFF" height="236.6875" style="stroke:#181818;stroke-width:1.0;" width="10" x="3121.5" y="1598.8281"/><rect fill="#FFFFFF" height="411.8125" style="stroke:#181818;stroke-width:1.0;" width="10" x="3121.5" y="2034.9219"/><rect fill="#FFFFFF" height="162.125" style="stroke:#181818;stroke-width:1.0;" width="10" x="3527.5" y="976.3281"/><rect fill="#FFFFFF" height="162.125" style="stroke:#181818;stroke-width:1.0;" width="10" x="3527.5" y="1636.1094"/><rect fill="#FFFFFF" height="162.125" style="stroke:#181818;stroke-width:1.0;" width="10" x="3527.5" y="2072.2031"/><rect fill="#FFFFFF" height="124.8438" style="stroke:#181818;stroke-width:1.0;" width="10" x="3761.5" y="1213.0156"/><rect fill="#FFFFFF" height="124.8438" style="stroke:#181818;stroke-width:1.0;" width="10" x="3761.5" y="1872.7969"/><rect fill="#FFFFFF" height="124.8438" style="stroke:#181818;stroke-width:1.0;" width="10" x="3761.5" y="2484.0156"/><rect fill="#FFFFFF" height="43.2813" style="stroke:#181818;stroke-width:1.0;" width="10" x="4054.5" y="1250.2969"/><rect fill="#FFFFFF" height="43.2813" style="stroke:#181818;stroke-width:1.0;" width="10" x="4054.5" y="1910.0781"/><rect fill="#FFFFFF" height="43.2813" style="stroke:#181818;stroke-width:1.0;" width="10" x="4054.5" y="2521.2969"/><rect fill="#FFFFFF" height="87.5625" style="stroke:#181818;stroke-width:1.0;" width="10" x="4213" y="306.2656"/><rect fill="#FFFFFF" height="87.5625" style="stroke:#181818;stroke-width:1.0;" width="10" x="4213" y="1013.6094"/><rect fill="#FFFFFF" height="87.5625" style="stroke:#181818;stroke-width:1.0;" width="10" x="4213" y="1673.3906"/><rect fill="#FFFFFF" height="87.5625" style="stroke:#181818;stroke-width:1.0;" width="10" x="4213" y="2109.4844"/><rect fill="#FFFFFF" height="87.5625" style="stroke:#181818;stroke-width:1.0;" width="10" x="4213" y="2321.8906"/><polygon fill="#000000" points="433.5,115.8594,443.5,119.8594,433.5,123.8594,437.5,119.8594" style="stroke:#000000;stroke-width:1.0;"/><line style="stroke:#000000;stroke-width:1.0;" x1="29.5" x2="439.5" y1="119.8594" y2="119.8594"/><text fill="#000000" font-family="sans-serif" font-size="20" lengthAdjust="spacing" textLength="397" x="36.5" y="113.1426">Makes Http Request to get Room's data</text><polygon fill="#000000" points="772.5,153.1406,782.5,157.1406,772.5,161.1406,776.5,157.1406" style="stroke:#000000;stroke-width:1.0;"/><line style="stroke:#000000;stroke-width:1.0;" x1="455.5" x2="778.5" y1="157.1406" y2="157.1406"/><text fill="#000000" font-family="sans-serif" font-size="20" lengthAdjust="spacing" textLength="117" x="462.5" y="150.4238">getRooms()</text><polygon fill="#000000" points="1062.5,190.4219,1072.5,194.4219,1062.5,198.4219,1066.5,194.4219" style="stroke:#000000;stroke-width:1.0;"/><line style="stroke:#000000;stroke-width:1.0;" x1="794.5" x2="1068.5" y1="194.4219" y2="194.4219"/><text fill="#000000" font-family="sans-serif" font-size="20" lengthAdjust="spacing" textLength="81" x="801.5" y="187.7051">findAll()</text><polygon fill="#000000" points="1236.5,227.7031,1246.5,231.7031,1236.5,235.7031,1240.5,231.7031" style="stroke:#000000;stroke-width:1.0;"/><line style="stroke:#000000;stroke-width:1.0;" x1="1084.5" x2="1242.5" y1="231.7031" y2="231.7031"/><text fill="#000000" font-family="sans-serif" font-size="20" lengthAdjust="spacing" textLength="81" x="1091.5" y="224.9863">findAll()</text><polygon fill="#000000" points="1412,264.9844,1422,268.9844,1412,272.9844,1416,268.9844" style="stroke:#000000;stroke-width:1.0;"/><line style="stroke:#000000;stroke-width:1.0;" x1="1258.5" x2="1418" y1="268.9844" y2="268.9844"/><text fill="#000000" font-family="sans-serif" font-size="20" lengthAdjust="spacing" textLength="55" x="1265.5" y="262.2676">find()</text><polygon fill="#000000" points="4201,302.2656,4211,306.2656,4201,310.2656,4205,306.2656" style="stroke:#000000;stroke-width:1.0;"/><line style="stroke:#000000;stroke-width:1.0;" x1="1434" x2="4207" y1="306.2656" y2="306.2656"/><text fill="#000000" font-family="sans-serif" font-size="20" lengthAdjust="spacing" textLength="73" x="1441" y="299.5488">query()</text><line style="stroke:#000000;stroke-width:1.0;" x1="4223" x2="4265" y1="343.5469" y2="343.5469"/><line style="stroke:#000000;stroke-width:1.0;" x1="4265" x2="4265" y1="343.5469" y2="356.5469"/><line style="stroke:#000000;stroke-width:1.0;" x1="4224" x2="4265" y1="356.5469" y2="356.5469"/><polygon fill="#000000" points="4234,352.5469,4224,356.5469,4234,360.5469,4230,356.5469" style="stroke:#000000;stroke-width:1.0;"/><text fill="#000000" font-family="sans-serif" font-size="20" lengthAdjust="spacing" textLength="221" x="4230" y="336.8301">SELECT * FROM Room</text><polygon fill="#000000" points="1445,389.8281,1435,393.8281,1445,397.8281,1441,393.8281" style="stroke:#000000;stroke-width:1.0;"/><line style="stroke:#000000;stroke-width:1.0;stroke-dasharray:2.0,2.0;" x1="1439" x2="4217" y1="393.8281" y2="393.8281"/><text fill="#000000" font-family="sans-serif" font-size="20" lengthAdjust="spacing" textLength="141" x="1451" y="387.1113">returns Result</text><polygon fill="#000000" points="1269.5,427.1094,1259.5,431.1094,1269.5,435.1094,1265.5,431.1094" style="stroke:#000000;stroke-width:1.0;"/><line style="stroke:#000000;stroke-width:1.0;stroke-dasharray:2.0,2.0;" x1="1263.5" x2="1428" y1="431.1094" y2="431.1094"/><text fill="#000000" font-family="sans-serif" font-size="20" lengthAdjust="spacing" textLength="140" x="1275.5" y="424.3926">returns rooms</text><polygon fill="#000000" points="1095.5,464.3906,1085.5,468.3906,1095.5,472.3906,1091.5,468.3906" style="stroke:#000000;stroke-width:1.0;"/><line style="stroke:#000000;stroke-width:1.0;stroke-dasharray:2.0,2.0;" x1="1089.5" x2="1252.5" y1="468.3906" y2="468.3906"/><text fill="#000000" font-family="sans-serif" font-size="20" lengthAdjust="spacing" textLength="140" x="1101.5" y="461.6738">returns rooms</text><path d="M997,483.3906 L1091,483.3906 L1091,498.6719 L1081,508.6719 L997,508.6719 L997,483.3906 " fill="#EEEEEE" style="stroke:#000000;stroke-width:1.5;"/><rect fill="none" height="195.6875" style="stroke:#000000;stroke-width:1.5;" width="910" x="997" y="483.3906"/><text fill="#000000" font-family="sans-serif" font-size="20" font-weight="bold" lengthAdjust="spacing" textLength="49" x="1012" y="502.9551">loop</text><text fill="#000000" font-family="sans-serif" font-size="20" font-weight="bold" lengthAdjust="spacing" textLength="284" x="1106" y="503.9551">[for each room in rooms]</text><polygon fill="#000000" points="1572,542.2344,1582,546.2344,1572,550.2344,1576,546.2344" style="stroke:#000000;stroke-width:1.0;"/><line style="stroke:#000000;stroke-width:1.0;" x1="1084.5" x2="1578" y1="546.2344" y2="546.2344"/><text fill="#000000" font-family="sans-serif" font-size="20" lengthAdjust="spacing" textLength="141" x="1091.5" y="539.5176">toDTO(rooms)</text><polygon fill="#000000" points="1787,579.5156,1797,583.5156,1787,587.5156,1791,583.5156" style="stroke:#000000;stroke-width:1.0;"/><line style="stroke:#000000;stroke-width:1.0;" x1="1594" x2="1793" y1="583.5156" y2="583.5156"/><text fill="#000000" font-family="sans-serif" font-size="20" lengthAdjust="spacing" textLength="186" x="1601" y="576.7988">create(roomProps)</text><line style="stroke:#000000;stroke-width:1.0;" x1="1809" x2="1851" y1="625.7969" y2="625.7969"/><line style="stroke:#000000;stroke-width:1.0;" x1="1851" x2="1851" y1="625.7969" y2="638.7969"/><line style="stroke:#000000;stroke-width:1.0;" x1="1804" x2="1851" y1="638.7969" y2="638.7969"/><polygon fill="#000000" points="1814,634.7969,1804,638.7969,1814,642.7969,1810,638.7969" style="stroke:#000000;stroke-width:1.0;"/><text fill="#000000" font-family="sans-serif" font-size="20" lengthAdjust="spacing" textLength="79" x="1816" y="619.0801">create()</text><polygon fill="#000000" points="1095.5,667.0781,1085.5,671.0781,1095.5,675.0781,1091.5,671.0781" style="stroke:#000000;stroke-width:1.0;"/><line style="stroke:#000000;stroke-width:1.0;" x1="1089.5" x2="1588" y1="671.0781" y2="671.0781"/><text fill="#000000" font-family="sans-serif" font-size="20" lengthAdjust="spacing" textLength="173" x="1101.5" y="664.3613">returns roomDTO</text><polygon fill="#000000" points="805.5,711.3594,795.5,715.3594,805.5,719.3594,801.5,715.3594" style="stroke:#000000;stroke-width:1.0;"/><line style="stroke:#000000;stroke-width:1.0;" x1="799.5" x2="1078.5" y1="715.3594" y2="715.3594"/><text fill="#000000" font-family="sans-serif" font-size="20" lengthAdjust="spacing" textLength="256" x="811.5" y="708.6426">returns result(roomDTOs)</text><polygon fill="#000000" points="466.5,748.6406,456.5,752.6406,466.5,756.6406,462.5,752.6406" style="stroke:#000000;stroke-width:1.0;"/><line style="stroke:#000000;stroke-width:1.0;" x1="460.5" x2="788.5" y1="752.6406" y2="752.6406"/><text fill="#000000" font-family="sans-serif" font-size="20" lengthAdjust="spacing" textLength="305" x="472.5" y="745.9238">returns Operation Status Code</text><polygon fill="#000000" points="35.5,785.9219,25.5,789.9219,35.5,793.9219,31.5,789.9219" style="stroke:#000000;stroke-width:1.0;"/><line style="stroke:#000000;stroke-width:1.0;" x1="29.5" x2="449.5" y1="789.9219" y2="789.9219"/><text fill="#000000" font-family="sans-serif" font-size="20" lengthAdjust="spacing" textLength="305" x="41.5" y="783.2051">returns Operation Status Code</text><polygon fill="#000000" points="1961,823.2031,1971,827.2031,1961,831.2031,1965,827.2031" style="stroke:#000000;stroke-width:1.0;"/><line style="stroke:#000000;stroke-width:1.0;" x1="29.5" x2="1967" y1="827.2031" y2="827.2031"/><text fill="#000000" font-family="sans-serif" font-size="20" lengthAdjust="spacing" textLength="471" x="36.5" y="820.4863">Makes Http Request to get Appointment's data</text><polygon fill="#000000" points="2443,860.4844,2453,864.4844,2443,868.4844,2447,864.4844" style="stroke:#000000;stroke-width:1.0;"/><line style="stroke:#000000;stroke-width:1.0;" x1="1983" x2="2449" y1="864.4844" y2="864.4844"/><text fill="#000000" font-family="sans-serif" font-size="20" lengthAdjust="spacing" textLength="200" x="1990" y="857.7676">getAppointment(id)</text><polygon fill="#000000" points="2864,897.7656,2874,901.7656,2864,905.7656,2868,901.7656" style="stroke:#000000;stroke-width:1.0;"/><line style="stroke:#000000;stroke-width:1.0;" x1="2465" x2="2870" y1="901.7656" y2="901.7656"/><text fill="#000000" font-family="sans-serif" font-size="20" lengthAdjust="spacing" textLength="200" x="2472" y="895.0488">getAppointment(id)</text><polygon fill="#000000" points="3109.5,935.0469,3119.5,939.0469,3109.5,943.0469,3113.5,939.0469" style="stroke:#000000;stroke-width:1.0;"/><line style="stroke:#000000;stroke-width:1.0;" x1="2886" x2="3115.5" y1="939.0469" y2="939.0469"/><text fill="#000000" font-family="sans-serif" font-size="20" lengthAdjust="spacing" textLength="196" x="2893" y="932.3301">findByDomainId(id)</text><polygon fill="#000000" points="3515.5,972.3281,3525.5,976.3281,3515.5,980.3281,3519.5,976.3281" style="stroke:#000000;stroke-width:1.0;"/><line style="stroke:#000000;stroke-width:1.0;" x1="3131.5" x2="3521.5" y1="976.3281" y2="976.3281"/><text fill="#000000" font-family="sans-serif" font-size="20" lengthAdjust="spacing" textLength="153" x="3138.5" y="969.6113">findOne(query)</text><polygon fill="#000000" points="4201,1009.6094,4211,1013.6094,4201,1017.6094,4205,1013.6094" style="stroke:#000000;stroke-width:1.0;"/><line style="stroke:#000000;stroke-width:1.0;" x1="3537.5" x2="4207" y1="1013.6094" y2="1013.6094"/><text fill="#000000" font-family="sans-serif" font-size="20" lengthAdjust="spacing" textLength="73" x="3544.5" y="1006.8926">query()</text><line style="stroke:#000000;stroke-width:1.0;" x1="4223" x2="4265" y1="1050.8906" y2="1050.8906"/><line style="stroke:#000000;stroke-width:1.0;" x1="4265" x2="4265" y1="1050.8906" y2="1063.8906"/><line style="stroke:#000000;stroke-width:1.0;" x1="4224" x2="4265" y1="1063.8906" y2="1063.8906"/><polygon fill="#000000" points="4234,1059.8906,4224,1063.8906,4234,1067.8906,4230,1063.8906" style="stroke:#000000;stroke-width:1.0;"/><text fill="#000000" font-family="sans-serif" font-size="20" lengthAdjust="spacing" textLength="449" x="4230" y="1044.1738">SELECT * FROM Appointment WHERE id = id</text><polygon fill="#000000" points="3548.5,1097.1719,3538.5,1101.1719,3548.5,1105.1719,3544.5,1101.1719" style="stroke:#000000;stroke-width:1.0;"/><line style="stroke:#000000;stroke-width:1.0;stroke-dasharray:2.0,2.0;" x1="3542.5" x2="4217" y1="1101.1719" y2="1101.1719"/><text fill="#000000" font-family="sans-serif" font-size="20" lengthAdjust="spacing" textLength="141" x="3554.5" y="1094.4551">returns Result</text><polygon fill="#000000" points="3142.5,1134.4531,3132.5,1138.4531,3142.5,1142.4531,3138.5,1138.4531" style="stroke:#000000;stroke-width:1.0;"/><line style="stroke:#000000;stroke-width:1.0;stroke-dasharray:2.0,2.0;" x1="3136.5" x2="3531.5" y1="1138.4531" y2="1138.4531"/><text fill="#000000" font-family="sans-serif" font-size="20" lengthAdjust="spacing" textLength="208" x="3148.5" y="1131.7363">returns appointment</text><polygon fill="#000000" points="2897,1171.7344,2887,1175.7344,2897,1179.7344,2893,1175.7344" style="stroke:#000000;stroke-width:1.0;"/><line style="stroke:#000000;stroke-width:1.0;stroke-dasharray:2.0,2.0;" x1="2891" x2="3125.5" y1="1175.7344" y2="1175.7344"/><text fill="#000000" font-family="sans-serif" font-size="20" lengthAdjust="spacing" textLength="208" x="2903" y="1169.0176">returns appointment</text><polygon fill="#000000" points="3749.5,1209.0156,3759.5,1213.0156,3749.5,1217.0156,3753.5,1213.0156" style="stroke:#000000;stroke-width:1.0;"/><line style="stroke:#000000;stroke-width:1.0;" x1="2886" x2="3755.5" y1="1213.0156" y2="1213.0156"/><text fill="#000000" font-family="sans-serif" font-size="20" lengthAdjust="spacing" textLength="209" x="2893" y="1206.2988">toDTO(appointment)</text><polygon fill="#000000" points="4042.5,1246.2969,4052.5,1250.2969,4042.5,1254.2969,4046.5,1250.2969" style="stroke:#000000;stroke-width:1.0;"/><line style="stroke:#000000;stroke-width:1.0;" x1="3771.5" x2="4048.5" y1="1250.2969" y2="1250.2969"/><text fill="#000000" font-family="sans-serif" font-size="20" lengthAdjust="spacing" textLength="264" x="3778.5" y="1243.5801">create(appointmentProps)</text><line style="stroke:#000000;stroke-width:1.0;" x1="4064.5" x2="4106.5" y1="1292.5781" y2="1292.5781"/><line style="stroke:#000000;stroke-width:1.0;" x1="4106.5" x2="4106.5" y1="1292.5781" y2="1305.5781"/><line style="stroke:#000000;stroke-width:1.0;" x1="4059.5" x2="4106.5" y1="1305.5781" y2="1305.5781"/><polygon fill="#000000" points="4069.5,1301.5781,4059.5,1305.5781,4069.5,1309.5781,4065.5,1305.5781" style="stroke:#000000;stroke-width:1.0;"/><text fill="#000000" font-family="sans-serif" font-size="20" lengthAdjust="spacing" textLength="79" x="4071.5" y="1285.8613">create()</text><polygon fill="#000000" points="2897,1333.8594,2887,1337.8594,2897,1341.8594,2893,1337.8594" style="stroke:#000000;stroke-width:1.0;"/><line style="stroke:#000000;stroke-width:1.0;" x1="2891" x2="3765.5" y1="1337.8594" y2="1337.8594"/><text fill="#000000" font-family="sans-serif" font-size="20" lengthAdjust="spacing" textLength="251" x="2903" y="1331.1426">returns appointmentDTO</text><polygon fill="#000000" points="2476,1371.1406,2466,1375.1406,2476,1379.1406,2472,1375.1406" style="stroke:#000000;stroke-width:1.0;"/><line style="stroke:#000000;stroke-width:1.0;" x1="2470" x2="2880" y1="1375.1406" y2="1375.1406"/><text fill="#000000" font-family="sans-serif" font-size="20" lengthAdjust="spacing" textLength="324" x="2482" y="1368.4238">returns result(appointmentDTO)</text><polygon fill="#000000" points="1994,1408.4219,1984,1412.4219,1994,1416.4219,1990,1412.4219" style="stroke:#000000;stroke-width:1.0;"/><line style="stroke:#000000;stroke-width:1.0;" x1="1988" x2="2459" y1="1412.4219" y2="1412.4219"/><text fill="#000000" font-family="sans-serif" font-size="20" lengthAdjust="spacing" textLength="305" x="2000" y="1405.7051">returns Operation Status Code</text><polygon fill="#000000" points="35.5,1445.7031,25.5,1449.7031,35.5,1453.7031,31.5,1449.7031" style="stroke:#000000;stroke-width:1.0;"/><line style="stroke:#000000;stroke-width:1.0;" x1="29.5" x2="1977" y1="1449.7031" y2="1449.7031"/><text fill="#000000" font-family="sans-serif" font-size="20" lengthAdjust="spacing" textLength="305" x="41.5" y="1442.9863">returns Operation Status Code</text><polygon fill="#000000" points="1961,1482.9844,1971,1486.9844,1961,1490.9844,1965,1486.9844" style="stroke:#000000;stroke-width:1.0;"/><line style="stroke:#000000;stroke-width:1.0;" x1="29.5" x2="1967" y1="1486.9844" y2="1486.9844"/><text fill="#000000" font-family="sans-serif" font-size="20" lengthAdjust="spacing" textLength="471" x="36.5" y="1480.2676">Makes Http Request to update an appointment</text><polygon fill="#000000" points="2443,1520.2656,2453,1524.2656,2443,1528.2656,2447,1524.2656" style="stroke:#000000;stroke-width:1.0;"/><line style="stroke:#000000;stroke-width:1.0;" x1="1983" x2="2449" y1="1524.2656" y2="1524.2656"/><text fill="#000000" font-family="sans-serif" font-size="20" lengthAdjust="spacing" textLength="453" x="1990" y="1517.5488">updateAppointment(request, response, next)</text><polygon fill="#000000" points="2864,1557.5469,2874,1561.5469,2864,1565.5469,2868,1561.5469" style="stroke:#000000;stroke-width:1.0;"/><line style="stroke:#000000;stroke-width:1.0;" x1="2465" x2="2870" y1="1561.5469" y2="1561.5469"/><text fill="#000000" font-family="sans-serif" font-size="20" lengthAdjust="spacing" textLength="392" x="2472" y="1554.8301">updateAppointment(appointmentDTO)</text><polygon fill="#000000" points="3109.5,1594.8281,3119.5,1598.8281,3109.5,1602.8281,3113.5,1598.8281" style="stroke:#000000;stroke-width:1.0;"/><line style="stroke:#000000;stroke-width:1.0;" x1="2886" x2="3115.5" y1="1598.8281" y2="1598.8281"/><text fill="#000000" font-family="sans-serif" font-size="20" lengthAdjust="spacing" textLength="196" x="2893" y="1592.1113">findByDomainId(id)</text><polygon fill="#000000" points="3515.5,1632.1094,3525.5,1636.1094,3515.5,1640.1094,3519.5,1636.1094" style="stroke:#000000;stroke-width:1.0;"/><line style="stroke:#000000;stroke-width:1.0;" x1="3131.5" x2="3521.5" y1="1636.1094" y2="1636.1094"/><text fill="#000000" font-family="sans-serif" font-size="20" lengthAdjust="spacing" textLength="153" x="3138.5" y="1629.3926">findOne(query)</text><polygon fill="#000000" points="4201,1669.3906,4211,1673.3906,4201,1677.3906,4205,1673.3906" style="stroke:#000000;stroke-width:1.0;"/><line style="stroke:#000000;stroke-width:1.0;" x1="3537.5" x2="4207" y1="1673.3906" y2="1673.3906"/><text fill="#000000" font-family="sans-serif" font-size="20" lengthAdjust="spacing" textLength="130" x="3544.5" y="1666.6738">query(query)</text><line style="stroke:#000000;stroke-width:1.0;" x1="4223" x2="4265" y1="1710.6719" y2="1710.6719"/><line style="stroke:#000000;stroke-width:1.0;" x1="4265" x2="4265" y1="1710.6719" y2="1723.6719"/><line style="stroke:#000000;stroke-width:1.0;" x1="4224" x2="4265" y1="1723.6719" y2="1723.6719"/><polygon fill="#000000" points="4234,1719.6719,4224,1723.6719,4234,1727.6719,4230,1723.6719" style="stroke:#000000;stroke-width:1.0;"/><text fill="#000000" font-family="sans-serif" font-size="20" lengthAdjust="spacing" textLength="449" x="4230" y="1703.9551">SELECT * FROM Appointment WHERE id = id</text><polygon fill="#000000" points="3548.5,1756.9531,3538.5,1760.9531,3548.5,1764.9531,3544.5,1760.9531" style="stroke:#000000;stroke-width:1.0;"/><line style="stroke:#000000;stroke-width:1.0;stroke-dasharray:2.0,2.0;" x1="3542.5" x2="4217" y1="1760.9531" y2="1760.9531"/><text fill="#000000" font-family="sans-serif" font-size="20" lengthAdjust="spacing" textLength="141" x="3554.5" y="1754.2363">returns Result</text><polygon fill="#000000" points="3142.5,1794.2344,3132.5,1798.2344,3142.5,1802.2344,3138.5,1798.2344" style="stroke:#000000;stroke-width:1.0;"/><line style="stroke:#000000;stroke-width:1.0;stroke-dasharray:2.0,2.0;" x1="3136.5" x2="3531.5" y1="1798.2344" y2="1798.2344"/><text fill="#000000" font-family="sans-serif" font-size="20" lengthAdjust="spacing" textLength="208" x="3148.5" y="1791.5176">returns appointment</text><polygon fill="#000000" points="2897,1831.5156,2887,1835.5156,2897,1839.5156,2893,1835.5156" style="stroke:#000000;stroke-width:1.0;"/><line style="stroke:#000000;stroke-width:1.0;stroke-dasharray:2.0,2.0;" x1="2891" x2="3125.5" y1="1835.5156" y2="1835.5156"/><text fill="#000000" font-family="sans-serif" font-size="20" lengthAdjust="spacing" textLength="208" x="2903" y="1828.7988">returns appointment</text><polygon fill="#000000" points="3749.5,1868.7969,3759.5,1872.7969,3749.5,1876.7969,3753.5,1872.7969" style="stroke:#000000;stroke-width:1.0;"/><line style="stroke:#000000;stroke-width:1.0;" x1="2886" x2="3755.5" y1="1872.7969" y2="1872.7969"/><text fill="#000000" font-family="sans-serif" font-size="20" lengthAdjust="spacing" textLength="201" x="2893" y="1866.0801">toDto(appointment)</text><polygon fill="#000000" points="4042.5,1906.0781,4052.5,1910.0781,4042.5,1914.0781,4046.5,1910.0781" style="stroke:#000000;stroke-width:1.0;"/><line style="stroke:#000000;stroke-width:1.0;" x1="3771.5" x2="4048.5" y1="1910.0781" y2="1910.0781"/><text fill="#000000" font-family="sans-serif" font-size="20" lengthAdjust="spacing" textLength="264" x="3778.5" y="1903.3613">create(appointmentProps)</text><line style="stroke:#000000;stroke-width:1.0;" x1="4064.5" x2="4106.5" y1="1952.3594" y2="1952.3594"/><line style="stroke:#000000;stroke-width:1.0;" x1="4106.5" x2="4106.5" y1="1952.3594" y2="1965.3594"/><line style="stroke:#000000;stroke-width:1.0;" x1="4059.5" x2="4106.5" y1="1965.3594" y2="1965.3594"/><polygon fill="#000000" points="4069.5,1961.3594,4059.5,1965.3594,4069.5,1969.3594,4065.5,1965.3594" style="stroke:#000000;stroke-width:1.0;"/><text fill="#000000" font-family="sans-serif" font-size="20" lengthAdjust="spacing" textLength="79" x="4071.5" y="1945.6426">create()</text><polygon fill="#000000" points="2897,1993.6406,2887,1997.6406,2897,2001.6406,2893,1997.6406" style="stroke:#000000;stroke-width:1.0;"/><line style="stroke:#000000;stroke-width:1.0;" x1="2891" x2="3765.5" y1="1997.6406" y2="1997.6406"/><text fill="#000000" font-family="sans-serif" font-size="20" lengthAdjust="spacing" textLength="251" x="2903" y="1990.9238">returns appointmentDTO</text><polygon fill="#000000" points="3109.5,2030.9219,3119.5,2034.9219,3109.5,2038.9219,3113.5,2034.9219" style="stroke:#000000;stroke-width:1.0;"/><line style="stroke:#000000;stroke-width:1.0;" x1="2886" x2="3115.5" y1="2034.9219" y2="2034.9219"/><text fill="#000000" font-family="sans-serif" font-size="20" lengthAdjust="spacing" textLength="191" x="2893" y="2028.2051">save(appointment)</text><polygon fill="#000000" points="3515.5,2068.2031,3525.5,2072.2031,3515.5,2076.2031,3519.5,2072.2031" style="stroke:#000000;stroke-width:1.0;"/><line style="stroke:#000000;stroke-width:1.0;" x1="3131.5" x2="3521.5" y1="2072.2031" y2="2072.2031"/><text fill="#000000" font-family="sans-serif" font-size="20" lengthAdjust="spacing" textLength="153" x="3138.5" y="2065.4863">findOne(query)</text><polygon fill="#000000" points="4201,2105.4844,4211,2109.4844,4201,2113.4844,4205,2109.4844" style="stroke:#000000;stroke-width:1.0;"/><line style="stroke:#000000;stroke-width:1.0;" x1="3537.5" x2="4207" y1="2109.4844" y2="2109.4844"/><text fill="#000000" font-family="sans-serif" font-size="20" lengthAdjust="spacing" textLength="130" x="3544.5" y="2102.7676">query(query)</text><line style="stroke:#000000;stroke-width:1.0;" x1="4223" x2="4265" y1="2146.7656" y2="2146.7656"/><line style="stroke:#000000;stroke-width:1.0;" x1="4265" x2="4265" y1="2146.7656" y2="2159.7656"/><line style="stroke:#000000;stroke-width:1.0;" x1="4224" x2="4265" y1="2159.7656" y2="2159.7656"/><polygon fill="#000000" points="4234,2155.7656,4224,2159.7656,4234,2163.7656,4230,2159.7656" style="stroke:#000000;stroke-width:1.0;"/><text fill="#000000" font-family="sans-serif" font-size="20" lengthAdjust="spacing" textLength="449" x="4230" y="2140.0488">SELECT * FROM Appointment WHERE id = id</text><polygon fill="#000000" points="3548.5,2193.0469,3538.5,2197.0469,3548.5,2201.0469,3544.5,2197.0469" style="stroke:#000000;stroke-width:1.0;"/><line style="stroke:#000000;stroke-width:1.0;stroke-dasharray:2.0,2.0;" x1="3542.5" x2="4217" y1="2197.0469" y2="2197.0469"/><text fill="#000000" font-family="sans-serif" font-size="20" lengthAdjust="spacing" textLength="141" x="3554.5" y="2190.3301">returns Result</text><polygon fill="#000000" points="3142.5,2230.3281,3132.5,2234.3281,3142.5,2238.3281,3138.5,2234.3281" style="stroke:#000000;stroke-width:1.0;"/><line style="stroke:#000000;stroke-width:1.0;stroke-dasharray:2.0,2.0;" x1="3136.5" x2="3531.5" y1="2234.3281" y2="2234.3281"/><text fill="#000000" font-family="sans-serif" font-size="20" lengthAdjust="spacing" textLength="208" x="3148.5" y="2227.6113">returns appointment</text><line style="stroke:#000000;stroke-width:1.0;" x1="3131.5" x2="3173.5" y1="2271.6094" y2="2271.6094"/><line style="stroke:#000000;stroke-width:1.0;" x1="3173.5" x2="3173.5" y1="2271.6094" y2="2284.6094"/><line style="stroke:#000000;stroke-width:1.0;" x1="3132.5" x2="3173.5" y1="2284.6094" y2="2284.6094"/><polygon fill="#000000" points="3142.5,2280.6094,3132.5,2284.6094,3142.5,2288.6094,3138.5,2284.6094" style="stroke:#000000;stroke-width:1.0;"/><text fill="#000000" font-family="sans-serif" font-size="20" lengthAdjust="spacing" textLength="382" x="3138.5" y="2264.8926">Updates the fields of the appointment</text><polygon fill="#000000" points="4201,2317.8906,4211,2321.8906,4201,2325.8906,4205,2321.8906" style="stroke:#000000;stroke-width:1.0;"/><line style="stroke:#000000;stroke-width:1.0;" x1="3131.5" x2="4207" y1="2321.8906" y2="2321.8906"/><text fill="#000000" font-family="sans-serif" font-size="20" lengthAdjust="spacing" textLength="191" x="3138.5" y="2315.1738">save(appointment)</text><line style="stroke:#000000;stroke-width:1.0;" x1="4223" x2="4265" y1="2359.1719" y2="2359.1719"/><line style="stroke:#000000;stroke-width:1.0;" x1="4265" x2="4265" y1="2359.1719" y2="2372.1719"/><line style="stroke:#000000;stroke-width:1.0;" x1="4224" x2="4265" y1="2372.1719" y2="2372.1719"/><polygon fill="#000000" points="4234,2368.1719,4224,2372.1719,4234,2376.1719,4230,2372.1719" style="stroke:#000000;stroke-width:1.0;"/><text fill="#000000" font-family="sans-serif" font-size="20" lengthAdjust="spacing" textLength="441" x="4230" y="2352.4551">UPDATE Appointment SET ... WHERE id = id</text><polygon fill="#000000" points="3142.5,2405.4531,3132.5,2409.4531,3142.5,2413.4531,3138.5,2409.4531" style="stroke:#000000;stroke-width:1.0;"/><line style="stroke:#000000;stroke-width:1.0;stroke-dasharray:2.0,2.0;" x1="3136.5" x2="4217" y1="2409.4531" y2="2409.4531"/><text fill="#000000" font-family="sans-serif" font-size="20" lengthAdjust="spacing" textLength="141" x="3148.5" y="2402.7363">returns Result</text><polygon fill="#000000" points="2897,2442.7344,2887,2446.7344,2897,2450.7344,2893,2446.7344" style="stroke:#000000;stroke-width:1.0;"/><line style="stroke:#000000;stroke-width:1.0;" x1="2891" x2="3125.5" y1="2446.7344" y2="2446.7344"/><text fill="#000000" font-family="sans-serif" font-size="20" lengthAdjust="spacing" textLength="208" x="2903" y="2440.0176">returns appointment</text><polygon fill="#000000" points="3749.5,2480.0156,3759.5,2484.0156,3749.5,2488.0156,3753.5,2484.0156" style="stroke:#000000;stroke-width:1.0;"/><line style="stroke:#000000;stroke-width:1.0;" x1="2886" x2="3755.5" y1="2484.0156" y2="2484.0156"/><text fill="#000000" font-family="sans-serif" font-size="20" lengthAdjust="spacing" textLength="201" x="2893" y="2477.2988">toDto(appointment)</text><polygon fill="#000000" points="4042.5,2517.2969,4052.5,2521.2969,4042.5,2525.2969,4046.5,2521.2969" style="stroke:#000000;stroke-width:1.0;"/><line style="stroke:#000000;stroke-width:1.0;" x1="3771.5" x2="4048.5" y1="2521.2969" y2="2521.2969"/><text fill="#000000" font-family="sans-serif" font-size="20" lengthAdjust="spacing" textLength="264" x="3778.5" y="2514.5801">create(appointmentProps)</text><line style="stroke:#000000;stroke-width:1.0;" x1="4064.5" x2="4106.5" y1="2563.5781" y2="2563.5781"/><line style="stroke:#000000;stroke-width:1.0;" x1="4106.5" x2="4106.5" y1="2563.5781" y2="2576.5781"/><line style="stroke:#000000;stroke-width:1.0;" x1="4059.5" x2="4106.5" y1="2576.5781" y2="2576.5781"/><polygon fill="#000000" points="4069.5,2572.5781,4059.5,2576.5781,4069.5,2580.5781,4065.5,2576.5781" style="stroke:#000000;stroke-width:1.0;"/><text fill="#000000" font-family="sans-serif" font-size="20" lengthAdjust="spacing" textLength="79" x="4071.5" y="2556.8613">create()</text><polygon fill="#000000" points="2897,2604.8594,2887,2608.8594,2897,2612.8594,2893,2608.8594" style="stroke:#000000;stroke-width:1.0;"/><line style="stroke:#000000;stroke-width:1.0;" x1="2891" x2="3765.5" y1="2608.8594" y2="2608.8594"/><text fill="#000000" font-family="sans-serif" font-size="20" lengthAdjust="spacing" textLength="251" x="2903" y="2602.1426">returns appointmentDTO</text><polygon fill="#000000" points="2476,2642.1406,2466,2646.1406,2476,2650.1406,2472,2646.1406" style="stroke:#000000;stroke-width:1.0;"/><line style="stroke:#000000;stroke-width:1.0;" x1="2470" x2="2880" y1="2646.1406" y2="2646.1406"/><text fill="#000000" font-family="sans-serif" font-size="20" lengthAdjust="spacing" textLength="324" x="2482" y="2639.4238">returns result(appointmentDTO)</text><polygon fill="#000000" points="1994,2679.4219,1984,2683.4219,1994,2687.4219,1990,2683.4219" style="stroke:#000000;stroke-width:1.0;"/><line style="stroke:#000000;stroke-width:1.0;" x1="1988" x2="2459" y1="2683.4219" y2="2683.4219"/><text fill="#000000" font-family="sans-serif" font-size="20" lengthAdjust="spacing" textLength="305" x="2000" y="2676.7051">returns Operation Status Code</text><polygon fill="#000000" points="35.5,2716.7031,25.5,2720.7031,35.5,2724.7031,31.5,2720.7031" style="stroke:#000000;stroke-width:1.0;"/><line style="stroke:#000000;stroke-width:1.0;" x1="29.5" x2="1977" y1="2720.7031" y2="2720.7031"/><text fill="#000000" font-family="sans-serif" font-size="20" lengthAdjust="spacing" textLength="305" x="41.5" y="2713.9863">returns Operation Status Code</text><!--SRC=[tPHlRzis4CPVZv_YqBoeEtH1rs7_Z2u09KfeWGWEf6HxpKYNM8iiQYJjpXlstNUYf9gofGOPXg5h01knxdV7k-Fpo3oKTIErt5GgVy022hoJsyh6ghPP-GV2wrUCsT9M29Uummg-WKJy3AAKzvJ3sBei473Js3riS7EBsh3dPYW9bsMDTjyWA6tNYh539A-aCV0d0_eBPFvmhzMsBa9LAVtcpKvMMrpT_egvlRY0C_5TnECVfb6jb6DY4GNYrJHZKE_A75sfh-FNKJ25mTdDk_Z7w7iNurghzztZe2AE_UNttj0JUO_JtSDP5CJVna6RGhWjyxAHjOKu0cdeU_JmMQhK9bLRY_fP6qxJqt18Dw5LLGr8U8fatO1TF9iu0HjbIglqlZzbeeiiN-D6zYKcpaXaqmmj9ATXSRtgOc8SuqsZojfkiBRUd3oTfOx6vU4iwK_Di_bZnyFpz6g-uc47F9i_s5i5JsQfOIFyQ2D2MdahJTUt21XZChVbJbfirK4o-Ug2RcW9YNn00s-jRI35txPeB5W5zsYXtVTp0mKLEkIITDBKvORBbceXitZX0I5BGmTaIxWhwu9NrIYUiJJh3e-c0P8DVReIOOUC2z09cJj214kWblNUZzEi8XYYMNGPXTVm9SJfAd4JkU1GMwFTwfhaX8PUHgn0luexP6Xq87Kxhm-wTjfs-v7dGPghKgg1Et8lFLux1CgwHrkJzvj9bdG7TB4B5tdXGeSwIOSc3XLBo3NISyTUQTMSyABZnH7VONw3mYzyD0frSy8d3EjYk4rlczfjSz6dKJ-ZTGtoI0y9AzAvjAMg8RFIRWs4gi1HLjYhBewUafNwlqZrlUpvHsNlUUj4_LJZm__qSk6k9zuvmSjRb8KdI7gtS3Sopnu1CyQphi6hJlV1NgYDBEjtnH59RnVwT4LxZwngN3WpZ2hIsV_CArwNyClRY1HU5l0JVGq6ueyQYFS6SkCCf3pKzN7NQJjHlwV7y7O1tQu-cCL3_HKaZ3j5yuFqFR9tp04NZ8iZV2JW5aXWlilMA3wU37sU6cISDJub6pJp59kqIdkwJVYJRR9jYXQLzUXw7dT9b-VhNtT5NxOhQLHjy2NK-BkTSyzfWUCT_jTcEeP4yCNdOYchFdLBjKimSeTpVVwx5_l9tMkFtpXJ6B1hf16nAWoeE_VBBz1djDr_P6MZAM-k1B-EHkDbqJMSdv_FZEatFptcS1kVenh_Fo_ulm40]--></g></svg>