<?xml version="1.0" encoding="UTF-8" standalone="no"?><svg xmlns="http://www.w3.org/2000/svg" xmlns:xlink="http://www.w3.org/1999/xlink" contentStyleType="text/css" height="1509px" preserveAspectRatio="none" style="width:6375px;height:1509px;background:#FFFFFF;" version="1.1" viewBox="0 0 6375 1509" width="6375px" zoomAndPan="magnify"><defs/><g><text fill="#000000" font-family="sans-serif" font-size="14" font-weight="bold" lengthAdjust="spacing" textLength="166" x="3106.75" y="27.9951">Level 3 MDV Diagram</text><rect fill="#FFFFFF" height="699.3438" style="stroke:#181818;stroke-width:1.0;" width="10" x="19.5" y="90.5781"/><rect fill="#FFFFFF" height="622.5" style="stroke:#181818;stroke-width:1.0;" width="10" x="19.5" y="827.2031"/><rect fill="#FFFFFF" height="670.0625" style="stroke:#181818;stroke-width:1.0;" width="10" x="457.5" y="119.8594"/><rect fill="#FFFFFF" height="595.5" style="stroke:#181818;stroke-width:1.0;" width="10" x="796.5" y="157.1406"/><rect fill="#FFFFFF" height="520.9375" style="stroke:#181818;stroke-width:1.0;" width="10" x="1104.5" y="194.4219"/><rect fill="#FFFFFF" height="236.6875" style="stroke:#181818;stroke-width:1.0;" width="10" x="1296.5" y="231.7031"/><rect fill="#FFFFFF" height="162.125" style="stroke:#181818;stroke-width:1.0;" width="10" x="1488.5" y="268.9844"/><rect fill="#FFFFFF" height="124.8438" style="stroke:#181818;stroke-width:1.0;" width="10" x="1660.5" y="546.2344"/><rect fill="#FFFFFF" height="43.2813" style="stroke:#181818;stroke-width:1.0;" width="10" x="1893.5" y="583.5156"/><rect fill="#FFFFFF" height="622.5" style="stroke:#181818;stroke-width:1.0;" width="10" x="2116.5" y="827.2031"/><rect fill="#FFFFFF" height="547.9375" style="stroke:#181818;stroke-width:1.0;" width="10" x="2712.5" y="864.4844"/><rect fill="#FFFFFF" height="473.375" style="stroke:#181818;stroke-width:1.0;" width="10" x="3308.5" y="901.7656"/><rect fill="#FFFFFF" height="236.6875" style="stroke:#181818;stroke-width:1.0;" width="10" x="4016.5" y="939.0469"/><rect fill="#FFFFFF" height="162.125" style="stroke:#181818;stroke-width:1.0;" width="10" x="4352" y="976.3281"/><rect fill="#FFFFFF" height="124.8438" style="stroke:#181818;stroke-width:1.0;" width="10" x="4672" y="1213.0156"/><rect fill="#FFFFFF" height="43.2813" style="stroke:#181818;stroke-width:1.0;" width="10" x="5053" y="1250.2969"/><rect fill="#FFFFFF" height="87.5625" style="stroke:#181818;stroke-width:1.0;" width="10" x="5254.5" y="306.2656"/><rect fill="#FFFFFF" height="87.5625" style="stroke:#181818;stroke-width:1.0;" width="10" x="5254.5" y="1013.6094"/><rect fill="#EBF5FB" height="195.6875" style="stroke:#000000;stroke-width:1.5;" width="980.5" x="1021" y="483.3906"/><line style="stroke:#181818;stroke-width:0.5;stroke-dasharray:5.0,5.0;" x1="24" x2="24" y1="80.5781" y2="1467.7031"/><line style="stroke:#181818;stroke-width:0.5;stroke-dasharray:5.0,5.0;" x1="462" x2="462" y1="80.5781" y2="1467.7031"/><line style="stroke:#181818;stroke-width:0.5;stroke-dasharray:5.0,5.0;" x1="801" x2="801" y1="80.5781" y2="1467.7031"/><line style="stroke:#181818;stroke-width:0.5;stroke-dasharray:5.0,5.0;" x1="1109" x2="1109" y1="80.5781" y2="1467.7031"/><line style="stroke:#181818;stroke-width:0.5;stroke-dasharray:5.0,5.0;" x1="1301.5" x2="1301.5" y1="80.5781" y2="1467.7031"/><line style="stroke:#181818;stroke-width:0.5;stroke-dasharray:5.0,5.0;" x1="1493" x2="1493" y1="80.5781" y2="1467.7031"/><line style="stroke:#181818;stroke-width:0.5;stroke-dasharray:5.0,5.0;" x1="1665" x2="1665" y1="80.5781" y2="1467.7031"/><line style="stroke:#181818;stroke-width:0.5;stroke-dasharray:5.0,5.0;" x1="1898" x2="1898" y1="80.5781" y2="1467.7031"/><line style="stroke:#181818;stroke-width:0.5;stroke-dasharray:5.0,5.0;" x1="2121" x2="2121" y1="80.5781" y2="1467.7031"/><line style="stroke:#181818;stroke-width:0.5;stroke-dasharray:5.0,5.0;" x1="2717" x2="2717" y1="80.5781" y2="1467.7031"/><line style="stroke:#181818;stroke-width:0.5;stroke-dasharray:5.0,5.0;" x1="3313" x2="3313" y1="80.5781" y2="1467.7031"/><line style="stroke:#181818;stroke-width:0.5;stroke-dasharray:5.0,5.0;" x1="4021.5" x2="4021.5" y1="80.5781" y2="1467.7031"/><line style="stroke:#181818;stroke-width:0.5;stroke-dasharray:5.0,5.0;" x1="4356.5" x2="4356.5" y1="80.5781" y2="1467.7031"/><line style="stroke:#181818;stroke-width:0.5;stroke-dasharray:5.0,5.0;" x1="4676.5" x2="4676.5" y1="80.5781" y2="1467.7031"/><line style="stroke:#181818;stroke-width:0.5;stroke-dasharray:5.0,5.0;" x1="5057.5" x2="5057.5" y1="80.5781" y2="1467.7031"/><line style="stroke:#181818;stroke-width:0.5;stroke-dasharray:5.0,5.0;" x1="5259.5" x2="5259.5" y1="80.5781" y2="1467.7031"/><rect fill="#E2E2F0" height="37.2813" rx="2.5" ry="2.5" style="stroke:#181818;stroke-width:0.5;" width="39" x="5" y="42.2969"/><text fill="#000000" font-family="sans-serif" font-size="20" lengthAdjust="spacing" textLength="25" x="12" y="67.8613">FE</text><rect fill="#E2E2F0" height="37.2813" rx="2.5" ry="2.5" style="stroke:#181818;stroke-width:0.5;" width="39" x="5" y="1466.7031"/><text fill="#000000" font-family="sans-serif" font-size="20" lengthAdjust="spacing" textLength="25" x="12" y="1492.2676">FE</text><rect fill="#E2E2F0" height="37.2813" rx="2.5" ry="2.5" style="stroke:#181818;stroke-width:0.5;" width="151" x="387" y="42.2969"/><text fill="#000000" font-family="sans-serif" font-size="20" lengthAdjust="spacing" textLength="137" x="394" y="67.8613">AllergyRouter</text><rect fill="#E2E2F0" height="37.2813" rx="2.5" ry="2.5" style="stroke:#181818;stroke-width:0.5;" width="151" x="387" y="1466.7031"/><text fill="#000000" font-family="sans-serif" font-size="20" lengthAdjust="spacing" textLength="137" x="394" y="1492.2676">AllergyRouter</text><rect fill="#E2E2F0" height="37.2813" rx="2.5" ry="2.5" style="stroke:#181818;stroke-width:0.5;" width="183" x="710" y="42.2969"/><text fill="#000000" font-family="sans-serif" font-size="20" lengthAdjust="spacing" textLength="169" x="717" y="67.8613">AllergyController</text><rect fill="#E2E2F0" height="37.2813" rx="2.5" ry="2.5" style="stroke:#181818;stroke-width:0.5;" width="183" x="710" y="1466.7031"/><text fill="#000000" font-family="sans-serif" font-size="20" lengthAdjust="spacing" textLength="169" x="717" y="1492.2676">AllergyController</text><rect fill="#E2E2F0" height="37.2813" rx="2.5" ry="2.5" style="stroke:#181818;stroke-width:0.5;" width="157" x="1031" y="42.2969"/><text fill="#000000" font-family="sans-serif" font-size="20" lengthAdjust="spacing" textLength="143" x="1038" y="67.8613">AllergyService</text><rect fill="#E2E2F0" height="37.2813" rx="2.5" ry="2.5" style="stroke:#181818;stroke-width:0.5;" width="157" x="1031" y="1466.7031"/><text fill="#000000" font-family="sans-serif" font-size="20" lengthAdjust="spacing" textLength="143" x="1038" y="1492.2676">AllergyService</text><rect fill="#E2E2F0" height="37.2813" rx="2.5" ry="2.5" style="stroke:#181818;stroke-width:0.5;" width="190" x="1206.5" y="42.2969"/><text fill="#000000" font-family="sans-serif" font-size="20" lengthAdjust="spacing" textLength="176" x="1213.5" y="67.8613">AllergyRepository</text><rect fill="#E2E2F0" height="37.2813" rx="2.5" ry="2.5" style="stroke:#181818;stroke-width:0.5;" width="190" x="1206.5" y="1466.7031"/><text fill="#000000" font-family="sans-serif" font-size="20" lengthAdjust="spacing" textLength="176" x="1213.5" y="1492.2676">AllergyRepository</text><rect fill="#E2E2F0" height="37.2813" rx="2.5" ry="2.5" style="stroke:#181818;stroke-width:0.5;" width="165" x="1411" y="42.2969"/><text fill="#000000" font-family="sans-serif" font-size="20" lengthAdjust="spacing" textLength="151" x="1418" y="67.8613">AllergySchema</text><rect fill="#E2E2F0" height="37.2813" rx="2.5" ry="2.5" style="stroke:#181818;stroke-width:0.5;" width="165" x="1411" y="1466.7031"/><text fill="#000000" font-family="sans-serif" font-size="20" lengthAdjust="spacing" textLength="151" x="1418" y="1492.2676">AllergySchema</text><rect fill="#E2E2F0" height="37.2813" rx="2.5" ry="2.5" style="stroke:#181818;stroke-width:0.5;" width="159" x="1586" y="42.2969"/><text fill="#000000" font-family="sans-serif" font-size="20" lengthAdjust="spacing" textLength="145" x="1593" y="67.8613">AllergyMapper</text><rect fill="#E2E2F0" height="37.2813" rx="2.5" ry="2.5" style="stroke:#181818;stroke-width:0.5;" width="159" x="1586" y="1466.7031"/><text fill="#000000" font-family="sans-serif" font-size="20" lengthAdjust="spacing" textLength="145" x="1593" y="1492.2676">AllergyMapper</text><rect fill="#E2E2F0" height="37.2813" rx="2.5" ry="2.5" style="stroke:#181818;stroke-width:0.5;" width="127" x="1835" y="42.2969"/><text fill="#000000" font-family="sans-serif" font-size="20" lengthAdjust="spacing" textLength="113" x="1842" y="67.8613">AllergyDTO</text><rect fill="#E2E2F0" height="37.2813" rx="2.5" ry="2.5" style="stroke:#181818;stroke-width:0.5;" width="127" x="1835" y="1466.7031"/><text fill="#000000" font-family="sans-serif" font-size="20" lengthAdjust="spacing" textLength="113" x="1842" y="1492.2676">AllergyDTO</text><rect fill="#E2E2F0" height="37.2813" rx="2.5" ry="2.5" style="stroke:#181818;stroke-width:0.5;" width="299" x="1972" y="42.2969"/><text fill="#000000" font-family="sans-serif" font-size="20" lengthAdjust="spacing" textLength="285" x="1979" y="67.8613">PatientMedicalHistoryRouter</text><rect fill="#E2E2F0" height="37.2813" rx="2.5" ry="2.5" style="stroke:#181818;stroke-width:0.5;" width="299" x="1972" y="1466.7031"/><text fill="#000000" font-family="sans-serif" font-size="20" lengthAdjust="spacing" textLength="285" x="1979" y="1492.2676">PatientMedicalHistoryRouter</text><rect fill="#E2E2F0" height="37.2813" rx="2.5" ry="2.5" style="stroke:#181818;stroke-width:0.5;" width="331" x="2552" y="42.2969"/><text fill="#000000" font-family="sans-serif" font-size="20" lengthAdjust="spacing" textLength="317" x="2559" y="67.8613">PatientMedicalHistoryController</text><rect fill="#E2E2F0" height="37.2813" rx="2.5" ry="2.5" style="stroke:#181818;stroke-width:0.5;" width="331" x="2552" y="1466.7031"/><text fill="#000000" font-family="sans-serif" font-size="20" lengthAdjust="spacing" textLength="317" x="2559" y="1492.2676">PatientMedicalHistoryController</text><rect fill="#E2E2F0" height="37.2813" rx="2.5" ry="2.5" style="stroke:#181818;stroke-width:0.5;" width="305" x="3161" y="42.2969"/><text fill="#000000" font-family="sans-serif" font-size="20" lengthAdjust="spacing" textLength="291" x="3168" y="67.8613">PatientMedicalHistoryService</text><rect fill="#E2E2F0" height="37.2813" rx="2.5" ry="2.5" style="stroke:#181818;stroke-width:0.5;" width="305" x="3161" y="1466.7031"/><text fill="#000000" font-family="sans-serif" font-size="20" lengthAdjust="spacing" textLength="291" x="3168" y="1492.2676">PatientMedicalHistoryService</text><rect fill="#E2E2F0" height="37.2813" rx="2.5" ry="2.5" style="stroke:#181818;stroke-width:0.5;" width="338" x="3852.5" y="42.2969"/><text fill="#000000" font-family="sans-serif" font-size="20" lengthAdjust="spacing" textLength="324" x="3859.5" y="67.8613">PatientMedicalHistoryRepository</text><rect fill="#E2E2F0" height="37.2813" rx="2.5" ry="2.5" style="stroke:#181818;stroke-width:0.5;" width="338" x="3852.5" y="1466.7031"/><text fill="#000000" font-family="sans-serif" font-size="20" lengthAdjust="spacing" textLength="324" x="3859.5" y="1492.2676">PatientMedicalHistoryRepository</text><rect fill="#E2E2F0" height="37.2813" rx="2.5" ry="2.5" style="stroke:#181818;stroke-width:0.5;" width="313" x="4200.5" y="42.2969"/><text fill="#000000" font-family="sans-serif" font-size="20" lengthAdjust="spacing" textLength="299" x="4207.5" y="67.8613">PatientMedicalHistorySchema</text><rect fill="#E2E2F0" height="37.2813" rx="2.5" ry="2.5" style="stroke:#181818;stroke-width:0.5;" width="313" x="4200.5" y="1466.7031"/><text fill="#000000" font-family="sans-serif" font-size="20" lengthAdjust="spacing" textLength="299" x="4207.5" y="1492.2676">PatientMedicalHistorySchema</text><rect fill="#E2E2F0" height="37.2813" rx="2.5" ry="2.5" style="stroke:#181818;stroke-width:0.5;" width="307" x="4523.5" y="42.2969"/><text fill="#000000" font-family="sans-serif" font-size="20" lengthAdjust="spacing" textLength="293" x="4530.5" y="67.8613">PatientMedicalHistoryMapper</text><rect fill="#E2E2F0" height="37.2813" rx="2.5" ry="2.5" style="stroke:#181818;stroke-width:0.5;" width="307" x="4523.5" y="1466.7031"/><text fill="#000000" font-family="sans-serif" font-size="20" lengthAdjust="spacing" textLength="293" x="4530.5" y="1492.2676">PatientMedicalHistoryMapper</text><rect fill="#E2E2F0" height="37.2813" rx="2.5" ry="2.5" style="stroke:#181818;stroke-width:0.5;" width="275" x="4920.5" y="42.2969"/><text fill="#000000" font-family="sans-serif" font-size="20" lengthAdjust="spacing" textLength="261" x="4927.5" y="67.8613">PatientMedicalHistoryDTO</text><rect fill="#E2E2F0" height="37.2813" rx="2.5" ry="2.5" style="stroke:#181818;stroke-width:0.5;" width="275" x="4920.5" y="1466.7031"/><text fill="#000000" font-family="sans-serif" font-size="20" lengthAdjust="spacing" textLength="261" x="4927.5" y="1492.2676">PatientMedicalHistoryDTO</text><rect fill="#E2E2F0" height="37.2813" rx="2.5" ry="2.5" style="stroke:#181818;stroke-width:0.5;" width="108" x="5205.5" y="42.2969"/><text fill="#000000" font-family="sans-serif" font-size="20" lengthAdjust="spacing" textLength="94" x="5212.5" y="67.8613">Database</text><rect fill="#E2E2F0" height="37.2813" rx="2.5" ry="2.5" style="stroke:#181818;stroke-width:0.5;" width="108" x="5205.5" y="1466.7031"/><text fill="#000000" font-family="sans-serif" font-size="20" lengthAdjust="spacing" textLength="94" x="5212.5" y="1492.2676">Database</text><rect fill="#FFFFFF" height="699.3438" style="stroke:#181818;stroke-width:1.0;" width="10" x="19.5" y="90.5781"/><rect fill="#FFFFFF" height="622.5" style="stroke:#181818;stroke-width:1.0;" width="10" x="19.5" y="827.2031"/><rect fill="#FFFFFF" height="670.0625" style="stroke:#181818;stroke-width:1.0;" width="10" x="457.5" y="119.8594"/><rect fill="#FFFFFF" height="595.5" style="stroke:#181818;stroke-width:1.0;" width="10" x="796.5" y="157.1406"/><rect fill="#FFFFFF" height="520.9375" style="stroke:#181818;stroke-width:1.0;" width="10" x="1104.5" y="194.4219"/><rect fill="#FFFFFF" height="236.6875" style="stroke:#181818;stroke-width:1.0;" width="10" x="1296.5" y="231.7031"/><rect fill="#FFFFFF" height="162.125" style="stroke:#181818;stroke-width:1.0;" width="10" x="1488.5" y="268.9844"/><rect fill="#FFFFFF" height="124.8438" style="stroke:#181818;stroke-width:1.0;" width="10" x="1660.5" y="546.2344"/><rect fill="#FFFFFF" height="43.2813" style="stroke:#181818;stroke-width:1.0;" width="10" x="1893.5" y="583.5156"/><rect fill="#FFFFFF" height="622.5" style="stroke:#181818;stroke-width:1.0;" width="10" x="2116.5" y="827.2031"/><rect fill="#FFFFFF" height="547.9375" style="stroke:#181818;stroke-width:1.0;" width="10" x="2712.5" y="864.4844"/><rect fill="#FFFFFF" height="473.375" style="stroke:#181818;stroke-width:1.0;" width="10" x="3308.5" y="901.7656"/><rect fill="#FFFFFF" height="236.6875" style="stroke:#181818;stroke-width:1.0;" width="10" x="4016.5" y="939.0469"/><rect fill="#FFFFFF" height="162.125" style="stroke:#181818;stroke-width:1.0;" width="10" x="4352" y="976.3281"/><rect fill="#FFFFFF" height="124.8438" style="stroke:#181818;stroke-width:1.0;" width="10" x="4672" y="1213.0156"/><rect fill="#FFFFFF" height="43.2813" style="stroke:#181818;stroke-width:1.0;" width="10" x="5053" y="1250.2969"/><rect fill="#FFFFFF" height="87.5625" style="stroke:#181818;stroke-width:1.0;" width="10" x="5254.5" y="306.2656"/><rect fill="#FFFFFF" height="87.5625" style="stroke:#181818;stroke-width:1.0;" width="10" x="5254.5" y="1013.6094"/><polygon fill="#000000" points="445.5,115.8594,455.5,119.8594,445.5,123.8594,449.5,119.8594" style="stroke:#000000;stroke-width:1.0;"/><line style="stroke:#000000;stroke-width:1.0;" x1="29.5" x2="451.5" y1="119.8594" y2="119.8594"/><text fill="#000000" font-family="sans-serif" font-size="20" lengthAdjust="spacing" textLength="409" x="36.5" y="113.1426">Makes Http Request to get Allergy's data</text><polygon fill="#000000" points="784.5,153.1406,794.5,157.1406,784.5,161.1406,788.5,157.1406" style="stroke:#000000;stroke-width:1.0;"/><line style="stroke:#000000;stroke-width:1.0;" x1="467.5" x2="790.5" y1="157.1406" y2="157.1406"/><text fill="#000000" font-family="sans-serif" font-size="20" lengthAdjust="spacing" textLength="129" x="474.5" y="150.4238">getAllergys()</text><polygon fill="#000000" points="1092.5,190.4219,1102.5,194.4219,1092.5,198.4219,1096.5,194.4219" style="stroke:#000000;stroke-width:1.0;"/><line style="stroke:#000000;stroke-width:1.0;" x1="806.5" x2="1098.5" y1="194.4219" y2="194.4219"/><text fill="#000000" font-family="sans-serif" font-size="20" lengthAdjust="spacing" textLength="81" x="813.5" y="187.7051">findAll()</text><polygon fill="#000000" points="1284.5,227.7031,1294.5,231.7031,1284.5,235.7031,1288.5,231.7031" style="stroke:#000000;stroke-width:1.0;"/><line style="stroke:#000000;stroke-width:1.0;" x1="1114.5" x2="1290.5" y1="231.7031" y2="231.7031"/><text fill="#000000" font-family="sans-serif" font-size="20" lengthAdjust="spacing" textLength="81" x="1121.5" y="224.9863">findAll()</text><polygon fill="#000000" points="1476.5,264.9844,1486.5,268.9844,1476.5,272.9844,1480.5,268.9844" style="stroke:#000000;stroke-width:1.0;"/><line style="stroke:#000000;stroke-width:1.0;" x1="1306.5" x2="1482.5" y1="268.9844" y2="268.9844"/><text fill="#000000" font-family="sans-serif" font-size="20" lengthAdjust="spacing" textLength="55" x="1313.5" y="262.2676">find()</text><polygon fill="#000000" points="5242.5,302.2656,5252.5,306.2656,5242.5,310.2656,5246.5,306.2656" style="stroke:#000000;stroke-width:1.0;"/><line style="stroke:#000000;stroke-width:1.0;" x1="1498.5" x2="5248.5" y1="306.2656" y2="306.2656"/><text fill="#000000" font-family="sans-serif" font-size="20" lengthAdjust="spacing" textLength="73" x="1505.5" y="299.5488">query()</text><line style="stroke:#000000;stroke-width:1.0;" x1="5264.5" x2="5306.5" y1="343.5469" y2="343.5469"/><line style="stroke:#000000;stroke-width:1.0;" x1="5306.5" x2="5306.5" y1="343.5469" y2="356.5469"/><line style="stroke:#000000;stroke-width:1.0;" x1="5265.5" x2="5306.5" y1="356.5469" y2="356.5469"/><polygon fill="#000000" points="5275.5,352.5469,5265.5,356.5469,5275.5,360.5469,5271.5,356.5469" style="stroke:#000000;stroke-width:1.0;"/><text fill="#000000" font-family="sans-serif" font-size="20" lengthAdjust="spacing" textLength="233" x="5271.5" y="336.8301">SELECT * FROM Allergy</text><polygon fill="#000000" points="1509.5,389.8281,1499.5,393.8281,1509.5,397.8281,1505.5,393.8281" style="stroke:#000000;stroke-width:1.0;"/><line style="stroke:#000000;stroke-width:1.0;stroke-dasharray:2.0,2.0;" x1="1503.5" x2="5258.5" y1="393.8281" y2="393.8281"/><text fill="#000000" font-family="sans-serif" font-size="20" lengthAdjust="spacing" textLength="141" x="1515.5" y="387.1113">returns Result</text><polygon fill="#000000" points="1317.5,427.1094,1307.5,431.1094,1317.5,435.1094,1313.5,431.1094" style="stroke:#000000;stroke-width:1.0;"/><line style="stroke:#000000;stroke-width:1.0;stroke-dasharray:2.0,2.0;" x1="1311.5" x2="1492.5" y1="431.1094" y2="431.1094"/><text fill="#000000" font-family="sans-serif" font-size="20" lengthAdjust="spacing" textLength="158" x="1323.5" y="424.3926">returns Allergys</text><polygon fill="#000000" points="1125.5,464.3906,1115.5,468.3906,1125.5,472.3906,1121.5,468.3906" style="stroke:#000000;stroke-width:1.0;"/><line style="stroke:#000000;stroke-width:1.0;stroke-dasharray:2.0,2.0;" x1="1119.5" x2="1300.5" y1="468.3906" y2="468.3906"/><text fill="#000000" font-family="sans-serif" font-size="20" lengthAdjust="spacing" textLength="158" x="1131.5" y="461.6738">returns Allergys</text><path d="M1021,483.3906 L1115,483.3906 L1115,498.6719 L1105,508.6719 L1021,508.6719 L1021,483.3906 " fill="#EEEEEE" style="stroke:#000000;stroke-width:1.5;"/><rect fill="none" height="195.6875" style="stroke:#000000;stroke-width:1.5;" width="980.5" x="1021" y="483.3906"/><text fill="#000000" font-family="sans-serif" font-size="20" font-weight="bold" lengthAdjust="spacing" textLength="49" x="1036" y="502.9551">loop</text><text fill="#000000" font-family="sans-serif" font-size="20" font-weight="bold" lengthAdjust="spacing" textLength="326" x="1130" y="503.9551">[for each Allergy in Allergys]</text><polygon fill="#000000" points="1648.5,542.2344,1658.5,546.2344,1648.5,550.2344,1652.5,546.2344" style="stroke:#000000;stroke-width:1.0;"/><line style="stroke:#000000;stroke-width:1.0;" x1="1114.5" x2="1654.5" y1="546.2344" y2="546.2344"/><text fill="#000000" font-family="sans-serif" font-size="20" lengthAdjust="spacing" textLength="159" x="1121.5" y="539.5176">toDTO(Allergys)</text><polygon fill="#000000" points="1881.5,579.5156,1891.5,583.5156,1881.5,587.5156,1885.5,583.5156" style="stroke:#000000;stroke-width:1.0;"/><line style="stroke:#000000;stroke-width:1.0;" x1="1670.5" x2="1887.5" y1="583.5156" y2="583.5156"/><text fill="#000000" font-family="sans-serif" font-size="20" lengthAdjust="spacing" textLength="204" x="1677.5" y="576.7988">create(AllergyProps)</text><line style="stroke:#000000;stroke-width:1.0;" x1="1903.5" x2="1945.5" y1="625.7969" y2="625.7969"/><line style="stroke:#000000;stroke-width:1.0;" x1="1945.5" x2="1945.5" y1="625.7969" y2="638.7969"/><line style="stroke:#000000;stroke-width:1.0;" x1="1898.5" x2="1945.5" y1="638.7969" y2="638.7969"/><polygon fill="#000000" points="1908.5,634.7969,1898.5,638.7969,1908.5,642.7969,1904.5,638.7969" style="stroke:#000000;stroke-width:1.0;"/><text fill="#000000" font-family="sans-serif" font-size="20" lengthAdjust="spacing" textLength="79" x="1910.5" y="619.0801">create()</text><polygon fill="#000000" points="1125.5,667.0781,1115.5,671.0781,1125.5,675.0781,1121.5,671.0781" style="stroke:#000000;stroke-width:1.0;"/><line style="stroke:#000000;stroke-width:1.0;" x1="1119.5" x2="1664.5" y1="671.0781" y2="671.0781"/><text fill="#000000" font-family="sans-serif" font-size="20" lengthAdjust="spacing" textLength="191" x="1131.5" y="664.3613">returns AllergyDTO</text><polygon fill="#000000" points="817.5,711.3594,807.5,715.3594,817.5,719.3594,813.5,715.3594" style="stroke:#000000;stroke-width:1.0;"/><line style="stroke:#000000;stroke-width:1.0;" x1="811.5" x2="1108.5" y1="715.3594" y2="715.3594"/><text fill="#000000" font-family="sans-serif" font-size="20" lengthAdjust="spacing" textLength="274" x="823.5" y="708.6426">returns result(AllergyDTOs)</text><polygon fill="#000000" points="478.5,748.6406,468.5,752.6406,478.5,756.6406,474.5,752.6406" style="stroke:#000000;stroke-width:1.0;"/><line style="stroke:#000000;stroke-width:1.0;" x1="472.5" x2="800.5" y1="752.6406" y2="752.6406"/><text fill="#000000" font-family="sans-serif" font-size="20" lengthAdjust="spacing" textLength="305" x="484.5" y="745.9238">returns Operation Status Code</text><polygon fill="#000000" points="35.5,785.9219,25.5,789.9219,35.5,793.9219,31.5,789.9219" style="stroke:#000000;stroke-width:1.0;"/><line style="stroke:#000000;stroke-width:1.0;" x1="29.5" x2="461.5" y1="789.9219" y2="789.9219"/><text fill="#000000" font-family="sans-serif" font-size="20" lengthAdjust="spacing" textLength="305" x="41.5" y="783.2051">returns Operation Status Code</text><polygon fill="#000000" points="2104.5,823.2031,2114.5,827.2031,2104.5,831.2031,2108.5,827.2031" style="stroke:#000000;stroke-width:1.0;"/><line style="stroke:#000000;stroke-width:1.0;" x1="29.5" x2="2110.5" y1="827.2031" y2="827.2031"/><text fill="#000000" font-family="sans-serif" font-size="20" lengthAdjust="spacing" textLength="557" x="36.5" y="820.4863">Makes Http Request to get PatientMedicalHistory's data</text><polygon fill="#000000" points="2700.5,860.4844,2710.5,864.4844,2700.5,868.4844,2704.5,864.4844" style="stroke:#000000;stroke-width:1.0;"/><line style="stroke:#000000;stroke-width:1.0;" x1="2126.5" x2="2706.5" y1="864.4844" y2="864.4844"/><text fill="#000000" font-family="sans-serif" font-size="20" lengthAdjust="spacing" textLength="567" x="2133.5" y="857.7676">getPatientMedicalHistory(patientMedicalRecordNumber)</text><polygon fill="#000000" points="3296.5,897.7656,3306.5,901.7656,3296.5,905.7656,3300.5,901.7656" style="stroke:#000000;stroke-width:1.0;"/><line style="stroke:#000000;stroke-width:1.0;" x1="2722.5" x2="3302.5" y1="901.7656" y2="901.7656"/><text fill="#000000" font-family="sans-serif" font-size="20" lengthAdjust="spacing" textLength="567" x="2729.5" y="895.0488">getPatientMedicalHistory(patientMedicalRecordNumber)</text><polygon fill="#000000" points="4004.5,935.0469,4014.5,939.0469,4004.5,943.0469,4008.5,939.0469" style="stroke:#000000;stroke-width:1.0;"/><line style="stroke:#000000;stroke-width:1.0;" x1="3318.5" x2="4010.5" y1="939.0469" y2="939.0469"/><text fill="#000000" font-family="sans-serif" font-size="20" lengthAdjust="spacing" textLength="679" x="3325.5" y="932.3301">findByPatientMedicalRecordNumber(patientMedicalRecordNumber)</text><polygon fill="#000000" points="4340,972.3281,4350,976.3281,4340,980.3281,4344,976.3281" style="stroke:#000000;stroke-width:1.0;"/><line style="stroke:#000000;stroke-width:1.0;" x1="4026.5" x2="4346" y1="976.3281" y2="976.3281"/><text fill="#000000" font-family="sans-serif" font-size="20" lengthAdjust="spacing" textLength="153" x="4033.5" y="969.6113">findOne(query)</text><polygon fill="#000000" points="5242.5,1009.6094,5252.5,1013.6094,5242.5,1017.6094,5246.5,1013.6094" style="stroke:#000000;stroke-width:1.0;"/><line style="stroke:#000000;stroke-width:1.0;" x1="4362" x2="5248.5" y1="1013.6094" y2="1013.6094"/><text fill="#000000" font-family="sans-serif" font-size="20" lengthAdjust="spacing" textLength="73" x="4369" y="1006.8926">query()</text><line style="stroke:#000000;stroke-width:1.0;" x1="5264.5" x2="5306.5" y1="1050.8906" y2="1050.8906"/><line style="stroke:#000000;stroke-width:1.0;" x1="5306.5" x2="5306.5" y1="1050.8906" y2="1063.8906"/><line style="stroke:#000000;stroke-width:1.0;" x1="5265.5" x2="5306.5" y1="1063.8906" y2="1063.8906"/><polygon fill="#000000" points="5275.5,1059.8906,5265.5,1063.8906,5275.5,1067.8906,5271.5,1063.8906" style="stroke:#000000;stroke-width:1.0;"/><text fill="#000000" font-family="sans-serif" font-size="20" lengthAdjust="spacing" textLength="1097" x="5271.5" y="1044.1738">SELECT * FROM PatientMedicalHistory WHERE patientMedicalRecordNumber = patientMedicalRecordNumber</text><polygon fill="#000000" points="4373,1097.1719,4363,1101.1719,4373,1105.1719,4369,1101.1719" style="stroke:#000000;stroke-width:1.0;"/><line style="stroke:#000000;stroke-width:1.0;stroke-dasharray:2.0,2.0;" x1="4367" x2="5258.5" y1="1101.1719" y2="1101.1719"/><text fill="#000000" font-family="sans-serif" font-size="20" lengthAdjust="spacing" textLength="141" x="4379" y="1094.4551">returns Result</text><polygon fill="#000000" points="4037.5,1134.4531,4027.5,1138.4531,4037.5,1142.4531,4033.5,1138.4531" style="stroke:#000000;stroke-width:1.0;"/><line style="stroke:#000000;stroke-width:1.0;stroke-dasharray:2.0,2.0;" x1="4031.5" x2="4356" y1="1138.4531" y2="1138.4531"/><text fill="#000000" font-family="sans-serif" font-size="20" lengthAdjust="spacing" textLength="296" x="4043.5" y="1131.7363">returns PatientMedicalHistory</text><polygon fill="#000000" points="3329.5,1171.7344,3319.5,1175.7344,3329.5,1179.7344,3325.5,1175.7344" style="stroke:#000000;stroke-width:1.0;"/><line style="stroke:#000000;stroke-width:1.0;stroke-dasharray:2.0,2.0;" x1="3323.5" x2="4020.5" y1="1175.7344" y2="1175.7344"/><text fill="#000000" font-family="sans-serif" font-size="20" lengthAdjust="spacing" textLength="296" x="3335.5" y="1169.0176">returns PatientMedicalHistory</text><polygon fill="#000000" points="4660,1209.0156,4670,1213.0156,4660,1217.0156,4664,1213.0156" style="stroke:#000000;stroke-width:1.0;"/><line style="stroke:#000000;stroke-width:1.0;" x1="3318.5" x2="4666" y1="1213.0156" y2="1213.0156"/><text fill="#000000" font-family="sans-serif" font-size="20" lengthAdjust="spacing" textLength="297" x="3325.5" y="1206.2988">toDTO(PatientMedicalHistory)</text><polygon fill="#000000" points="5041,1246.2969,5051,1250.2969,5041,1254.2969,5045,1250.2969" style="stroke:#000000;stroke-width:1.0;"/><line style="stroke:#000000;stroke-width:1.0;" x1="4682" x2="5047" y1="1250.2969" y2="1250.2969"/><text fill="#000000" font-family="sans-serif" font-size="20" lengthAdjust="spacing" textLength="352" x="4689" y="1243.5801">create(PatientMedicalHistoryProps)</text><line style="stroke:#000000;stroke-width:1.0;" x1="5063" x2="5105" y1="1292.5781" y2="1292.5781"/><line style="stroke:#000000;stroke-width:1.0;" x1="5105" x2="5105" y1="1292.5781" y2="1305.5781"/><line style="stroke:#000000;stroke-width:1.0;" x1="5058" x2="5105" y1="1305.5781" y2="1305.5781"/><polygon fill="#000000" points="5068,1301.5781,5058,1305.5781,5068,1309.5781,5064,1305.5781" style="stroke:#000000;stroke-width:1.0;"/><text fill="#000000" font-family="sans-serif" font-size="20" lengthAdjust="spacing" textLength="79" x="5070" y="1285.8613">create()</text><polygon fill="#000000" points="3329.5,1333.8594,3319.5,1337.8594,3329.5,1341.8594,3325.5,1337.8594" style="stroke:#000000;stroke-width:1.0;"/><line style="stroke:#000000;stroke-width:1.0;" x1="3323.5" x2="4676" y1="1337.8594" y2="1337.8594"/><text fill="#000000" font-family="sans-serif" font-size="20" lengthAdjust="spacing" textLength="339" x="3335.5" y="1331.1426">returns PatientMedicalHistoryDTO</text><polygon fill="#000000" points="2733.5,1371.1406,2723.5,1375.1406,2733.5,1379.1406,2729.5,1375.1406" style="stroke:#000000;stroke-width:1.0;"/><line style="stroke:#000000;stroke-width:1.0;" x1="2727.5" x2="3312.5" y1="1375.1406" y2="1375.1406"/><text fill="#000000" font-family="sans-serif" font-size="20" lengthAdjust="spacing" textLength="412" x="2739.5" y="1368.4238">returns result(PatientMedicalHistoryDTO)</text><polygon fill="#000000" points="2137.5,1408.4219,2127.5,1412.4219,2137.5,1416.4219,2133.5,1412.4219" style="stroke:#000000;stroke-width:1.0;"/><line style="stroke:#000000;stroke-width:1.0;" x1="2131.5" x2="2716.5" y1="1412.4219" y2="1412.4219"/><text fill="#000000" font-family="sans-serif" font-size="20" lengthAdjust="spacing" textLength="305" x="2143.5" y="1405.7051">returns Operation Status Code</text><polygon fill="#000000" points="35.5,1445.7031,25.5,1449.7031,35.5,1453.7031,31.5,1449.7031" style="stroke:#000000;stroke-width:1.0;"/><line style="stroke:#000000;stroke-width:1.0;" x1="29.5" x2="2120.5" y1="1449.7031" y2="1449.7031"/><text fill="#000000" font-family="sans-serif" font-size="20" lengthAdjust="spacing" textLength="305" x="41.5" y="1442.9863">returns Operation Status Code</text><!--SRC=[fLLjRzis4FxENt5eFjGTCA3ji3UZ2q2z8GEYsP2wzJCZNHmjigXHT0flw7_lYHGhoMPIPJKWG-OzpzrpnxjpTryrhL1YNylY7aieyLOSQft8HkVLlmXlNpEcArqZNEC3rl03fD5V45LYHnp6xgeI0VUjFi8UzpUeElQoSoxXkcfG7ri4gVITP6oq5BNeElYF0Nq2KTplb3mqPIXhgTwzUn3r0JStVsEXBo_X8lefvialVgYIqc2IA0wYrtvCX-gXAj2uUfEyZGCV32x-_3tvDVxPsBXIygCz3ch2iKzJxIsTY1twrSD572G_9a5F8RYkYgeLZOOa1j7Hz-pm1QzhLBjZ9WyQrOiUaMLUH4ZteMJ_Rb6X5vNRJ2qazuV2LdQLbkeuXFChoeixt8l1aJzOAjhMoKczYEZznfgZkNahT8MDJh6i2b5VLLqlPr83dYt0drI4Xmiuq_hmV8ceURLujbqIPQmTpvV8cbIIfmlmhgxyfAwHqE96T3Q_A62CYK9N3q9ZttZKWTzVqeMl8HNtsC6LrYra-Cy1EmrQmWur31VtieEIV8rqwieiC_HmtGC7NBTwDS64B0iD9b_3RTMK19hPSvRbLaBi1r0lqcDTX1OoTq0HSXCY2jP0mjLnQgUCey1Py_Ww3j_3Tv1aczJbPUpElK9zK0rr9tQqy5Y9KqScZjFga2xhATQ8waKFYJ-9fGHhALkufJr1ntSE1LKp4lgbCXGgNTF5q6sldF6LiOuEKujE3JfQGw6GpXrygsHxHeai9JgXMDXKR3JrVPuPoJgZf0oRqjtofCJAb7WrCadLh8QkSxAHiw6HeEQN3UHQw4C7eInnnWg7dapYvx2owIyQYs4k-9DpuHt3ioaXRr_UQOTneuxRYV5wMBMpqmmBgSe_3lt_wAIlQRLnKnwUVxEhdF7Sfhkr0nOSjuyI5_gafKYF5JYCxQR1bPdFMMpAu_-DhpTZ-70Lq-0zhX5-UyBeLW7_wYhWmoem9ND8hw8fqMJRLsMuj-N4lfpsZhwClvSqBMtAk9bJFWwqbpDiX94OCHwT46UZsGDIM993lm-cnDHbSRu77kFF8-Ukwv-p5FfPUVvIuATBuJC0]--></g></svg>