<?xml version="1.0" encoding="UTF-8" standalone="no"?><svg xmlns="http://www.w3.org/2000/svg" xmlns:xlink="http://www.w3.org/1999/xlink" contentStyleType="text/css" height="1705px" preserveAspectRatio="none" style="width:3893px;height:1705px;background:#FFFFFF;" version="1.1" viewBox="0 0 3893 1705" width="3893px" zoomAndPan="magnify"><defs/><g><text fill="#000000" font-family="sans-serif" font-size="14" font-weight="bold" lengthAdjust="spacing" textLength="149" x="1874.25" y="27.9951">Level 3 FE Diagram</text><rect fill="#FFFFFF" height="1473.4063" style="stroke:#181818;stroke-width:1.0;" width="10" x="36" y="135.5781"/><rect fill="#FFFFFF" height="1444.125" style="stroke:#181818;stroke-width:1.0;" width="10" x="509" y="164.8594"/><rect fill="#FFFFFF" height="1360.5625" style="stroke:#181818;stroke-width:1.0;" width="10" x="1234" y="202.1406"/><rect fill="#FFFFFF" height="353.5313" style="stroke:#181818;stroke-width:1.0;" width="10" x="1768" y="1071.3281"/><rect fill="#FFFFFF" height="353.5313" style="stroke:#181818;stroke-width:1.0;" width="10" x="1973.5" y="289.7031"/><rect fill="#FFFFFF" height="353.5313" style="stroke:#181818;stroke-width:1.0;" width="10" x="2192.5" y="680.5156"/><rect fill="#FFFFFF" height="278.9688" style="stroke:#181818;stroke-width:1.0;" width="10" x="2864.5" y="326.9844"/><rect fill="#FFFFFF" height="278.9688" style="stroke:#181818;stroke-width:1.0;" width="10" x="2864.5" y="717.7969"/><rect fill="#FFFFFF" height="278.9688" style="stroke:#181818;stroke-width:1.0;" width="10" x="2864.5" y="1108.6094"/><rect fill="#FFFFFF" height="87.5625" style="stroke:#181818;stroke-width:1.0;" width="10" x="3451.5" y="481.1094"/><rect fill="#FFFFFF" height="87.5625" style="stroke:#181818;stroke-width:1.0;" width="10" x="3451.5" y="871.9219"/><rect fill="#FFFFFF" height="87.5625" style="stroke:#181818;stroke-width:1.0;" width="10" x="3451.5" y="1262.7344"/><line style="stroke:#181818;stroke-width:0.5;stroke-dasharray:5.0,5.0;" x1="41" x2="41" y1="125.5781" y2="1617.9844"/><line style="stroke:#181818;stroke-width:0.5;stroke-dasharray:5.0,5.0;" x1="513.5" x2="513.5" y1="125.5781" y2="1617.9844"/><line style="stroke:#181818;stroke-width:0.5;stroke-dasharray:5.0,5.0;" x1="1238.5" x2="1238.5" y1="125.5781" y2="1617.9844"/><line style="stroke:#181818;stroke-width:0.5;stroke-dasharray:5.0,5.0;" x1="1773" x2="1773" y1="125.5781" y2="1617.9844"/><line style="stroke:#181818;stroke-width:0.5;stroke-dasharray:5.0,5.0;" x1="1978" x2="1978" y1="125.5781" y2="1617.9844"/><line style="stroke:#181818;stroke-width:0.5;stroke-dasharray:5.0,5.0;" x1="2197" x2="2197" y1="125.5781" y2="1617.9844"/><line style="stroke:#181818;stroke-width:0.5;stroke-dasharray:5.0,5.0;" x1="2869" x2="2869" y1="125.5781" y2="1617.9844"/><line style="stroke:#181818;stroke-width:0.5;stroke-dasharray:5.0,5.0;" x1="3456.5" x2="3456.5" y1="125.5781" y2="1617.9844"/><text fill="#000000" font-family="sans-serif" font-size="20" lengthAdjust="spacing" textLength="66" x="5" y="120.8613">Doctor</text><ellipse cx="41" cy="50.7969" fill="#E2E2F0" rx="8" ry="8" style="stroke:#181818;stroke-width:0.5;"/><path d="M41,58.7969 L41,85.7969 M28,66.7969 L54,66.7969 M41,85.7969 L28,100.7969 M41,85.7969 L54,100.7969 " fill="none" style="stroke:#181818;stroke-width:0.5;"/><text fill="#000000" font-family="sans-serif" font-size="20" lengthAdjust="spacing" textLength="66" x="5" y="1635.5488">Doctor</text><ellipse cx="41" cy="1648.7656" fill="#E2E2F0" rx="8" ry="8" style="stroke:#181818;stroke-width:0.5;"/><path d="M41,1656.7656 L41,1683.7656 M28,1664.7656 L54,1664.7656 M41,1683.7656 L28,1698.7656 M41,1683.7656 L54,1698.7656 " fill="none" style="stroke:#181818;stroke-width:0.5;"/><rect fill="#E2E2F0" height="37.2813" rx="2.5" ry="2.5" style="stroke:#181818;stroke-width:0.5;" width="63" x="482.5" y="87.2969"/><text fill="#000000" font-family="sans-serif" font-size="20" lengthAdjust="spacing" textLength="49" x="489.5" y="112.8613">View</text><rect fill="#E2E2F0" height="37.2813" rx="2.5" ry="2.5" style="stroke:#181818;stroke-width:0.5;" width="63" x="482.5" y="1616.9844"/><text fill="#000000" font-family="sans-serif" font-size="20" lengthAdjust="spacing" textLength="49" x="489.5" y="1642.5488">View</text><rect fill="#E2E2F0" height="37.2813" rx="2.5" ry="2.5" style="stroke:#181818;stroke-width:0.5;" width="365" x="1056.5" y="87.2969"/><text fill="#000000" font-family="sans-serif" font-size="20" lengthAdjust="spacing" textLength="351" x="1063.5" y="112.8613">MedicalHistoryManagerComponent</text><rect fill="#E2E2F0" height="37.2813" rx="2.5" ry="2.5" style="stroke:#181818;stroke-width:0.5;" width="365" x="1056.5" y="1616.9844"/><text fill="#000000" font-family="sans-serif" font-size="20" lengthAdjust="spacing" textLength="351" x="1063.5" y="1642.5488">MedicalHistoryManagerComponent</text><rect fill="#E2E2F0" height="37.2813" rx="2.5" ry="2.5" style="stroke:#181818;stroke-width:0.5;" width="234" x="1656" y="87.2969"/><text fill="#000000" font-family="sans-serif" font-size="20" lengthAdjust="spacing" textLength="220" x="1663" y="112.8613">MedicalHistoryService</text><rect fill="#E2E2F0" height="37.2813" rx="2.5" ry="2.5" style="stroke:#181818;stroke-width:0.5;" width="234" x="1656" y="1616.9844"/><text fill="#000000" font-family="sans-serif" font-size="20" lengthAdjust="spacing" textLength="220" x="1663" y="1642.5488">MedicalHistoryService</text><rect fill="#E2E2F0" height="37.2813" rx="2.5" ry="2.5" style="stroke:#181818;stroke-width:0.5;" width="157" x="1900" y="87.2969"/><text fill="#000000" font-family="sans-serif" font-size="20" lengthAdjust="spacing" textLength="143" x="1907" y="112.8613">AllergyService</text><rect fill="#E2E2F0" height="37.2813" rx="2.5" ry="2.5" style="stroke:#181818;stroke-width:0.5;" width="157" x="1900" y="1616.9844"/><text fill="#000000" font-family="sans-serif" font-size="20" lengthAdjust="spacing" textLength="143" x="1907" y="1642.5488">AllergyService</text><rect fill="#E2E2F0" height="37.2813" rx="2.5" ry="2.5" style="stroke:#181818;stroke-width:0.5;" width="261" x="2067" y="87.2969"/><text fill="#000000" font-family="sans-serif" font-size="20" lengthAdjust="spacing" textLength="247" x="2074" y="112.8613">MedicalConditionService</text><rect fill="#E2E2F0" height="37.2813" rx="2.5" ry="2.5" style="stroke:#181818;stroke-width:0.5;" width="261" x="2067" y="1616.9844"/><text fill="#000000" font-family="sans-serif" font-size="20" lengthAdjust="spacing" textLength="247" x="2074" y="1642.5488">MedicalConditionService</text><rect fill="#E2E2F0" height="37.2813" rx="2.5" ry="2.5" style="stroke:#181818;stroke-width:0.5;" width="173" x="2783" y="87.2969"/><text fill="#000000" font-family="sans-serif" font-size="20" lengthAdjust="spacing" textLength="159" x="2790" y="112.8613">AuthInterceptor</text><rect fill="#E2E2F0" height="37.2813" rx="2.5" ry="2.5" style="stroke:#181818;stroke-width:0.5;" width="173" x="2783" y="1616.9844"/><text fill="#000000" font-family="sans-serif" font-size="20" lengthAdjust="spacing" textLength="159" x="2790" y="1642.5488">AuthInterceptor</text><rect fill="#E2E2F0" height="37.2813" rx="2.5" ry="2.5" style="stroke:#181818;stroke-width:0.5;" width="60" x="3426.5" y="87.2969"/><text fill="#000000" font-family="sans-serif" font-size="20" lengthAdjust="spacing" textLength="46" x="3433.5" y="112.8613">MDV</text><rect fill="#E2E2F0" height="37.2813" rx="2.5" ry="2.5" style="stroke:#181818;stroke-width:0.5;" width="60" x="3426.5" y="1616.9844"/><text fill="#000000" font-family="sans-serif" font-size="20" lengthAdjust="spacing" textLength="46" x="3433.5" y="1642.5488">MDV</text><rect fill="#FFFFFF" height="1473.4063" style="stroke:#181818;stroke-width:1.0;" width="10" x="36" y="135.5781"/><rect fill="#FFFFFF" height="1444.125" style="stroke:#181818;stroke-width:1.0;" width="10" x="509" y="164.8594"/><rect fill="#FFFFFF" height="1360.5625" style="stroke:#181818;stroke-width:1.0;" width="10" x="1234" y="202.1406"/><rect fill="#FFFFFF" height="353.5313" style="stroke:#181818;stroke-width:1.0;" width="10" x="1768" y="1071.3281"/><rect fill="#FFFFFF" height="353.5313" style="stroke:#181818;stroke-width:1.0;" width="10" x="1973.5" y="289.7031"/><rect fill="#FFFFFF" height="353.5313" style="stroke:#181818;stroke-width:1.0;" width="10" x="2192.5" y="680.5156"/><rect fill="#FFFFFF" height="278.9688" style="stroke:#181818;stroke-width:1.0;" width="10" x="2864.5" y="326.9844"/><rect fill="#FFFFFF" height="278.9688" style="stroke:#181818;stroke-width:1.0;" width="10" x="2864.5" y="717.7969"/><rect fill="#FFFFFF" height="278.9688" style="stroke:#181818;stroke-width:1.0;" width="10" x="2864.5" y="1108.6094"/><rect fill="#FFFFFF" height="87.5625" style="stroke:#181818;stroke-width:1.0;" width="10" x="3451.5" y="481.1094"/><rect fill="#FFFFFF" height="87.5625" style="stroke:#181818;stroke-width:1.0;" width="10" x="3451.5" y="871.9219"/><rect fill="#FFFFFF" height="87.5625" style="stroke:#181818;stroke-width:1.0;" width="10" x="3451.5" y="1262.7344"/><polygon fill="#000000" points="497,160.8594,507,164.8594,497,168.8594,501,164.8594" style="stroke:#000000;stroke-width:1.0;"/><line style="stroke:#000000;stroke-width:1.0;" x1="46" x2="503" y1="164.8594" y2="164.8594"/><text fill="#000000" font-family="sans-serif" font-size="20" lengthAdjust="spacing" textLength="444" x="53" y="158.1426">Asks to see the medical History of a patients</text><polygon fill="#000000" points="1222,198.1406,1232,202.1406,1222,206.1406,1226,202.1406" style="stroke:#000000;stroke-width:1.0;"/><line style="stroke:#000000;stroke-width:1.0;" x1="519" x2="1228" y1="202.1406" y2="202.1406"/><text fill="#000000" font-family="sans-serif" font-size="20" lengthAdjust="spacing" textLength="511" x="526" y="195.4238">viewPatientDetails(patient.medicalRecordNumber)</text><line style="stroke:#000000;stroke-width:1.0;" x1="1244" x2="1286" y1="239.4219" y2="239.4219"/><line style="stroke:#000000;stroke-width:1.0;" x1="1286" x2="1286" y1="239.4219" y2="252.4219"/><line style="stroke:#000000;stroke-width:1.0;" x1="1245" x2="1286" y1="252.4219" y2="252.4219"/><polygon fill="#000000" points="1255,248.4219,1245,252.4219,1255,256.4219,1251,252.4219" style="stroke:#000000;stroke-width:1.0;"/><text fill="#000000" font-family="sans-serif" font-size="20" lengthAdjust="spacing" textLength="273" x="1251" y="232.7051">openMedicalHistoryModal()</text><polygon fill="#000000" points="1961.5,285.7031,1971.5,289.7031,1961.5,293.7031,1965.5,289.7031" style="stroke:#000000;stroke-width:1.0;"/><line style="stroke:#000000;stroke-width:1.0;" x1="1244" x2="1967.5" y1="289.7031" y2="289.7031"/><text fill="#000000" font-family="sans-serif" font-size="20" lengthAdjust="spacing" textLength="136" x="1251" y="282.9863">getAllergies()</text><polygon fill="#000000" points="2852.5,322.9844,2862.5,326.9844,2852.5,330.9844,2856.5,326.9844" style="stroke:#000000;stroke-width:1.0;"/><line style="stroke:#000000;stroke-width:1.0;" x1="1983.5" x2="2858.5" y1="326.9844" y2="326.9844"/><text fill="#000000" font-family="sans-serif" font-size="20" lengthAdjust="spacing" textLength="359" x="1990.5" y="320.2676">Makes Http Request to get Allergies</text><line style="stroke:#000000;stroke-width:1.0;" x1="2874.5" x2="2916.5" y1="364.2656" y2="364.2656"/><line style="stroke:#000000;stroke-width:1.0;" x1="2916.5" x2="2916.5" y1="364.2656" y2="377.2656"/><line style="stroke:#000000;stroke-width:1.0;" x1="2875.5" x2="2916.5" y1="377.2656" y2="377.2656"/><polygon fill="#000000" points="2885.5,373.2656,2875.5,377.2656,2885.5,381.2656,2881.5,377.2656" style="stroke:#000000;stroke-width:1.0;"/><text fill="#000000" font-family="sans-serif" font-size="20" lengthAdjust="spacing" textLength="563" x="2881.5" y="357.5488">Intercepts the request and adds the token to the header</text><path d="M2879,390.2656 L2879,446.2656 L3398,446.2656 L3398,400.2656 L3388,390.2656 L2879,390.2656 " fill="#FEFFDD" style="stroke:#181818;stroke-width:0.5;"/><path d="M3388,390.2656 L3388,400.2656 L3398,400.2656 L3388,390.2656 " fill="#FEFFDD" style="stroke:#181818;stroke-width:0.5;"/><text fill="#000000" font-family="sans-serif" font-size="20" lengthAdjust="spacing" textLength="498" x="2885" y="413.8301">The token is added to the header so that the MDR</text><text fill="#000000" font-family="sans-serif" font-size="20" lengthAdjust="spacing" textLength="442" x="2885" y="437.1113">can authenticate and authorize the request.</text><polygon fill="#000000" points="3439.5,477.1094,3449.5,481.1094,3439.5,485.1094,3443.5,481.1094" style="stroke:#000000;stroke-width:1.0;"/><line style="stroke:#000000;stroke-width:1.0;" x1="2874.5" x2="3445.5" y1="481.1094" y2="481.1094"/><text fill="#000000" font-family="sans-serif" font-size="20" lengthAdjust="spacing" textLength="128" x="2881.5" y="474.3926">getAllegies()</text><line style="stroke:#000000;stroke-width:1.0;" x1="3461.5" x2="3503.5" y1="518.3906" y2="518.3906"/><line style="stroke:#000000;stroke-width:1.0;" x1="3503.5" x2="3503.5" y1="518.3906" y2="531.3906"/><line style="stroke:#000000;stroke-width:1.0;" x1="3462.5" x2="3503.5" y1="531.3906" y2="531.3906"/><polygon fill="#000000" points="3472.5,527.3906,3462.5,531.3906,3472.5,535.3906,3468.5,531.3906" style="stroke:#000000;stroke-width:1.0;"/><text fill="#000000" font-family="sans-serif" font-size="20" lengthAdjust="spacing" textLength="210" x="3468.5" y="511.6738">Fetches the Allergies</text><polygon fill="#000000" points="2885.5,564.6719,2875.5,568.6719,2885.5,572.6719,2881.5,568.6719" style="stroke:#000000;stroke-width:1.0;"/><line style="stroke:#000000;stroke-width:1.0;stroke-dasharray:2.0,2.0;" x1="2879.5" x2="3455.5" y1="568.6719" y2="568.6719"/><text fill="#000000" font-family="sans-serif" font-size="20" lengthAdjust="spacing" textLength="305" x="2891.5" y="561.9551">returns Operation Status Code</text><polygon fill="#000000" points="1994.5,601.9531,1984.5,605.9531,1994.5,609.9531,1990.5,605.9531" style="stroke:#000000;stroke-width:1.0;"/><line style="stroke:#000000;stroke-width:1.0;stroke-dasharray:2.0,2.0;" x1="1988.5" x2="2868.5" y1="605.9531" y2="605.9531"/><text fill="#000000" font-family="sans-serif" font-size="20" lengthAdjust="spacing" textLength="305" x="2000.5" y="599.2363">returns Operation Status Code</text><polygon fill="#000000" points="1255,639.2344,1245,643.2344,1255,647.2344,1251,643.2344" style="stroke:#000000;stroke-width:1.0;"/><line style="stroke:#000000;stroke-width:1.0;stroke-dasharray:2.0,2.0;" x1="1249" x2="1977.5" y1="643.2344" y2="643.2344"/><text fill="#000000" font-family="sans-serif" font-size="20" lengthAdjust="spacing" textLength="280" x="1261" y="636.5176">returns Operation Response</text><polygon fill="#000000" points="2180.5,676.5156,2190.5,680.5156,2180.5,684.5156,2184.5,680.5156" style="stroke:#000000;stroke-width:1.0;"/><line style="stroke:#000000;stroke-width:1.0;" x1="1244" x2="2186.5" y1="680.5156" y2="680.5156"/><text fill="#000000" font-family="sans-serif" font-size="20" lengthAdjust="spacing" textLength="233" x="1251" y="673.7988">getMedicalConditions()</text><polygon fill="#000000" points="2852.5,713.7969,2862.5,717.7969,2852.5,721.7969,2856.5,717.7969" style="stroke:#000000;stroke-width:1.0;"/><line style="stroke:#000000;stroke-width:1.0;" x1="2202.5" x2="2858.5" y1="717.7969" y2="717.7969"/><text fill="#000000" font-family="sans-serif" font-size="20" lengthAdjust="spacing" textLength="643" x="2209.5" y="711.0801">Makes Http Request to get the Medical Conditions of the patient</text><line style="stroke:#000000;stroke-width:1.0;" x1="2874.5" x2="2916.5" y1="755.0781" y2="755.0781"/><line style="stroke:#000000;stroke-width:1.0;" x1="2916.5" x2="2916.5" y1="755.0781" y2="768.0781"/><line style="stroke:#000000;stroke-width:1.0;" x1="2875.5" x2="2916.5" y1="768.0781" y2="768.0781"/><polygon fill="#000000" points="2885.5,764.0781,2875.5,768.0781,2885.5,772.0781,2881.5,768.0781" style="stroke:#000000;stroke-width:1.0;"/><text fill="#000000" font-family="sans-serif" font-size="20" lengthAdjust="spacing" textLength="563" x="2881.5" y="748.3613">Intercepts the request and adds the token to the header</text><path d="M2879,781.0781 L2879,837.0781 L3398,837.0781 L3398,791.0781 L3388,781.0781 L2879,781.0781 " fill="#FEFFDD" style="stroke:#181818;stroke-width:0.5;"/><path d="M3388,781.0781 L3388,791.0781 L3398,791.0781 L3388,781.0781 " fill="#FEFFDD" style="stroke:#181818;stroke-width:0.5;"/><text fill="#000000" font-family="sans-serif" font-size="20" lengthAdjust="spacing" textLength="498" x="2885" y="804.6426">The token is added to the header so that the MDR</text><text fill="#000000" font-family="sans-serif" font-size="20" lengthAdjust="spacing" textLength="442" x="2885" y="827.9238">can authenticate and authorize the request.</text><polygon fill="#000000" points="3439.5,867.9219,3449.5,871.9219,3439.5,875.9219,3443.5,871.9219" style="stroke:#000000;stroke-width:1.0;"/><line style="stroke:#000000;stroke-width:1.0;" x1="2874.5" x2="3445.5" y1="871.9219" y2="871.9219"/><text fill="#000000" font-family="sans-serif" font-size="20" lengthAdjust="spacing" textLength="233" x="2881.5" y="865.2051">getMedicalConditions()</text><line style="stroke:#000000;stroke-width:1.0;" x1="3461.5" x2="3503.5" y1="909.2031" y2="909.2031"/><line style="stroke:#000000;stroke-width:1.0;" x1="3503.5" x2="3503.5" y1="909.2031" y2="922.2031"/><line style="stroke:#000000;stroke-width:1.0;" x1="3462.5" x2="3503.5" y1="922.2031" y2="922.2031"/><polygon fill="#000000" points="3472.5,918.2031,3462.5,922.2031,3472.5,926.2031,3468.5,922.2031" style="stroke:#000000;stroke-width:1.0;"/><text fill="#000000" font-family="sans-serif" font-size="20" lengthAdjust="spacing" textLength="313" x="3468.5" y="902.4863">Fetches the Medical Conditions</text><polygon fill="#000000" points="2885.5,955.4844,2875.5,959.4844,2885.5,963.4844,2881.5,959.4844" style="stroke:#000000;stroke-width:1.0;"/><line style="stroke:#000000;stroke-width:1.0;stroke-dasharray:2.0,2.0;" x1="2879.5" x2="3455.5" y1="959.4844" y2="959.4844"/><text fill="#000000" font-family="sans-serif" font-size="20" lengthAdjust="spacing" textLength="305" x="2891.5" y="952.7676">returns Operation Status Code</text><polygon fill="#000000" points="2213.5,992.7656,2203.5,996.7656,2213.5,1000.7656,2209.5,996.7656" style="stroke:#000000;stroke-width:1.0;"/><line style="stroke:#000000;stroke-width:1.0;stroke-dasharray:2.0,2.0;" x1="2207.5" x2="2868.5" y1="996.7656" y2="996.7656"/><text fill="#000000" font-family="sans-serif" font-size="20" lengthAdjust="spacing" textLength="305" x="2219.5" y="990.0488">returns Operation Status Code</text><polygon fill="#000000" points="1255,1030.0469,1245,1034.0469,1255,1038.0469,1251,1034.0469" style="stroke:#000000;stroke-width:1.0;"/><line style="stroke:#000000;stroke-width:1.0;stroke-dasharray:2.0,2.0;" x1="1249" x2="2196.5" y1="1034.0469" y2="1034.0469"/><text fill="#000000" font-family="sans-serif" font-size="20" lengthAdjust="spacing" textLength="280" x="1261" y="1027.3301">returns Operation Response</text><polygon fill="#000000" points="1756,1067.3281,1766,1071.3281,1756,1075.3281,1760,1071.3281" style="stroke:#000000;stroke-width:1.0;"/><line style="stroke:#000000;stroke-width:1.0;" x1="1244" x2="1762" y1="1071.3281" y2="1071.3281"/><text fill="#000000" font-family="sans-serif" font-size="20" lengthAdjust="spacing" textLength="505" x="1251" y="1064.6113">getMedicalHistory(patient.medicalRecordNumber)</text><polygon fill="#000000" points="2852.5,1104.6094,2862.5,1108.6094,2852.5,1112.6094,2856.5,1108.6094" style="stroke:#000000;stroke-width:1.0;"/><line style="stroke:#000000;stroke-width:1.0;" x1="1778" x2="2858.5" y1="1108.6094" y2="1108.6094"/><text fill="#000000" font-family="sans-serif" font-size="20" lengthAdjust="spacing" textLength="606" x="1785" y="1101.8926">Makes Http Request to get the Medical History of the patient</text><line style="stroke:#000000;stroke-width:1.0;" x1="2874.5" x2="2916.5" y1="1145.8906" y2="1145.8906"/><line style="stroke:#000000;stroke-width:1.0;" x1="2916.5" x2="2916.5" y1="1145.8906" y2="1158.8906"/><line style="stroke:#000000;stroke-width:1.0;" x1="2875.5" x2="2916.5" y1="1158.8906" y2="1158.8906"/><polygon fill="#000000" points="2885.5,1154.8906,2875.5,1158.8906,2885.5,1162.8906,2881.5,1158.8906" style="stroke:#000000;stroke-width:1.0;"/><text fill="#000000" font-family="sans-serif" font-size="20" lengthAdjust="spacing" textLength="563" x="2881.5" y="1139.1738">Intercepts the request and adds the token to the header</text><path d="M2879,1171.8906 L2879,1227.8906 L3398,1227.8906 L3398,1181.8906 L3388,1171.8906 L2879,1171.8906 " fill="#FEFFDD" style="stroke:#181818;stroke-width:0.5;"/><path d="M3388,1171.8906 L3388,1181.8906 L3398,1181.8906 L3388,1171.8906 " fill="#FEFFDD" style="stroke:#181818;stroke-width:0.5;"/><text fill="#000000" font-family="sans-serif" font-size="20" lengthAdjust="spacing" textLength="498" x="2885" y="1195.4551">The token is added to the header so that the MDR</text><text fill="#000000" font-family="sans-serif" font-size="20" lengthAdjust="spacing" textLength="442" x="2885" y="1218.7363">can authenticate and authorize the request.</text><polygon fill="#000000" points="3439.5,1258.7344,3449.5,1262.7344,3439.5,1266.7344,3443.5,1262.7344" style="stroke:#000000;stroke-width:1.0;"/><line style="stroke:#000000;stroke-width:1.0;" x1="2874.5" x2="3445.5" y1="1262.7344" y2="1262.7344"/><text fill="#000000" font-family="sans-serif" font-size="20" lengthAdjust="spacing" textLength="196" x="2881.5" y="1256.0176">getMedicalHistory()</text><line style="stroke:#000000;stroke-width:1.0;" x1="3461.5" x2="3503.5" y1="1300.0156" y2="1300.0156"/><line style="stroke:#000000;stroke-width:1.0;" x1="3503.5" x2="3503.5" y1="1300.0156" y2="1313.0156"/><line style="stroke:#000000;stroke-width:1.0;" x1="3462.5" x2="3503.5" y1="1313.0156" y2="1313.0156"/><polygon fill="#000000" points="3472.5,1309.0156,3462.5,1313.0156,3472.5,1317.0156,3468.5,1313.0156" style="stroke:#000000;stroke-width:1.0;"/><text fill="#000000" font-family="sans-serif" font-size="20" lengthAdjust="spacing" textLength="418" x="3468.5" y="1293.2988">Fetches the Medical History of the patient</text><polygon fill="#000000" points="2885.5,1346.2969,2875.5,1350.2969,2885.5,1354.2969,2881.5,1350.2969" style="stroke:#000000;stroke-width:1.0;"/><line style="stroke:#000000;stroke-width:1.0;stroke-dasharray:2.0,2.0;" x1="2879.5" x2="3455.5" y1="1350.2969" y2="1350.2969"/><text fill="#000000" font-family="sans-serif" font-size="20" lengthAdjust="spacing" textLength="305" x="2891.5" y="1343.5801">returns Operation Status Code</text><polygon fill="#000000" points="1789,1383.5781,1779,1387.5781,1789,1391.5781,1785,1387.5781" style="stroke:#000000;stroke-width:1.0;"/><line style="stroke:#000000;stroke-width:1.0;stroke-dasharray:2.0,2.0;" x1="1783" x2="2868.5" y1="1387.5781" y2="1387.5781"/><text fill="#000000" font-family="sans-serif" font-size="20" lengthAdjust="spacing" textLength="305" x="1795" y="1380.8613">returns Operation Status Code</text><polygon fill="#000000" points="1255,1420.8594,1245,1424.8594,1255,1428.8594,1251,1424.8594" style="stroke:#000000;stroke-width:1.0;"/><line style="stroke:#000000;stroke-width:1.0;stroke-dasharray:2.0,2.0;" x1="1249" x2="1772" y1="1424.8594" y2="1424.8594"/><text fill="#000000" font-family="sans-serif" font-size="20" lengthAdjust="spacing" textLength="280" x="1261" y="1418.1426">returns Operation Response</text><line style="stroke:#000000;stroke-width:1.0;" x1="1244" x2="1286" y1="1462.1406" y2="1462.1406"/><line style="stroke:#000000;stroke-width:1.0;" x1="1286" x2="1286" y1="1462.1406" y2="1475.1406"/><line style="stroke:#000000;stroke-width:1.0;" x1="1245" x2="1286" y1="1475.1406" y2="1475.1406"/><polygon fill="#000000" points="1255,1471.1406,1245,1475.1406,1255,1479.1406,1251,1475.1406" style="stroke:#000000;stroke-width:1.0;"/><text fill="#000000" font-family="sans-serif" font-size="20" lengthAdjust="spacing" textLength="237" x="1251" y="1455.4238">filterSelectedAllergies()</text><line style="stroke:#000000;stroke-width:1.0;" x1="1244" x2="1286" y1="1512.4219" y2="1512.4219"/><line style="stroke:#000000;stroke-width:1.0;" x1="1286" x2="1286" y1="1512.4219" y2="1525.4219"/><line style="stroke:#000000;stroke-width:1.0;" x1="1245" x2="1286" y1="1525.4219" y2="1525.4219"/><polygon fill="#000000" points="1255,1521.4219,1245,1525.4219,1255,1529.4219,1251,1525.4219" style="stroke:#000000;stroke-width:1.0;"/><text fill="#000000" font-family="sans-serif" font-size="20" lengthAdjust="spacing" textLength="334" x="1251" y="1505.7051">filterSelectedMedicalConditions()</text><polygon fill="#000000" points="530,1558.7031,520,1562.7031,530,1566.7031,526,1562.7031" style="stroke:#000000;stroke-width:1.0;"/><line style="stroke:#000000;stroke-width:1.0;" x1="524" x2="1238" y1="1562.7031" y2="1562.7031"/><text fill="#000000" font-family="sans-serif" font-size="20" lengthAdjust="spacing" textLength="691" x="536" y="1555.9863">returns medical history with filtered allergies and medical conditions</text><polygon fill="#000000" points="57,1595.9844,47,1599.9844,57,1603.9844,53,1599.9844" style="stroke:#000000;stroke-width:1.0;"/><line style="stroke:#000000;stroke-width:1.0;stroke-dasharray:2.0,2.0;" x1="51" x2="508" y1="1599.9844" y2="1599.9844"/><text fill="#000000" font-family="sans-serif" font-size="20" lengthAdjust="spacing" textLength="424" x="63" y="1593.2676">Displays the medical history of the patient</text><!--SRC=[tLPTRzem57tFhxXg7zOzhEewxGjLbG8X0gci4nbzTvDRuc7ip3PKtRJ_lcid8OHchAnlHG8KvvnZttEFdPW5bmNJR2bKki0CChnZAs5Z9Mt2VoASdmM1vLOWNE4Q1Ro3U0WHPtEY147ECmHS5lO1bhYyHMs2LwPMX2ikqJuK24hRN0L1SoSLp1Zu5G1z-YnTpBLQoMoWXD8N5sicLdXz-nrJUta9nz67OHX_wePgfJmcZeRzwAmROr2lUOfUwcryFkntmU1uDeu_3p_wUw7MwhuSxWl21R-trrxG29jZz-hXUDYFtyTzHs6ffO58-Jzc80n8mFAK5qnQkE5uxqPduzRmqGGpdZ8nuePe3nCcQIuzKCj2IPJso54ceybW7oafAwwmIHiQ2e5wtiA4IQVQGCcCMwvaIs-mgxUo-LXQr2aMD7afsAvf4jruQdJZJU5hPf7S2E7D9PNVWz0i35W51X5iZXGbFpzKvO2w0qQsMqu6c4Q1d9kDdORpemThClHh2OhGCYxCISKvhGIdc2gTVLcveBvkTBoTxgVHKWNAdKQeZ8cJrnjScFHWZhPqawCvsH8aFyF4WwYu2LkWWP6r1KpnnmgDTQKI5JRSBUOu2CSrS-EgyQxeYira1YpBoa6h5YYTeBl8aMMe0wb8IVDvRfrp9Ebo-cq3viRHQQktM63S5RD-Q19DFIbb4XZrbpmaAqZLpqq3IhkpOMjLfm7IBJTpLG0rUsFGhZyk22uJDIn6c-PO5jIOuX6L5HhjIai3rmLgvY89YMLsPM2WCWmoR4cx1LGTUZBF6PzuMXc0nyGf6jg2firAcjmCoa3ixfrsuRHvwFllQFWcLBkWaNBjT7UgMB-es3ZUJdJsMxadGu-TUtQOV7iFIPDlyu5nyl7Od4EjF5Mdq9DFD2TqOCwsJjkN6hBkWDNU7fYkl_ZrxAID3atQw3-IDafsddXtN5174nJqreNPzcDj7wvhYzRusPO1zHCzhpoxvpQlfAZPh9xDzx36fitkRQsS7jQpweJlqPkeAGHxCAttXhoxCy4V]--></g></svg>