<?xml version="1.0" encoding="UTF-8" standalone="no"?><svg xmlns="http://www.w3.org/2000/svg" xmlns:xlink="http://www.w3.org/1999/xlink" contentStyleType="text/css" height="881px" preserveAspectRatio="none" style="width:2144px;height:881px;background:#FFFFFF;" version="1.1" viewBox="0 0 2144 881" width="2144px" zoomAndPan="magnify"><defs/><g><text fill="#000000" font-family="sans-serif" font-size="14" font-weight="bold" lengthAdjust="spacing" textLength="225" x="961.5" y="27.9951">Level 2 Diagram for US 7.2.6</text><rect fill="#FFFFFF" height="649.5" style="stroke:#181818;stroke-width:1.0;" width="10" x="36" y="135.5781"/><rect fill="#FFFFFF" height="411.8125" style="stroke:#181818;stroke-width:1.0;" width="10" x="957" y="164.8594"/><rect fill="#FFFFFF" height="162.125" style="stroke:#181818;stroke-width:1.0;" width="10" x="957" y="613.9531"/><rect fill="#FFFFFF" height="87.5625" style="stroke:#181818;stroke-width:1.0;" width="10" x="1574" y="202.1406"/><rect fill="#FFFFFF" height="87.5625" style="stroke:#181818;stroke-width:1.0;" width="10" x="1574" y="326.9844"/><rect fill="#FFFFFF" height="87.5625" style="stroke:#181818;stroke-width:1.0;" width="10" x="1574" y="451.8281"/><rect fill="#FFFFFF" height="87.5625" style="stroke:#181818;stroke-width:1.0;" width="10" x="1574" y="651.2344"/><line style="stroke:#181818;stroke-width:0.5;stroke-dasharray:5.0,5.0;" x1="41" x2="41" y1="125.5781" y2="794.0781"/><line style="stroke:#181818;stroke-width:0.5;stroke-dasharray:5.0,5.0;" x1="961.5" x2="961.5" y1="125.5781" y2="794.0781"/><line style="stroke:#181818;stroke-width:0.5;stroke-dasharray:5.0,5.0;" x1="1579" x2="1579" y1="125.5781" y2="794.0781"/><text fill="#000000" font-family="sans-serif" font-size="20" lengthAdjust="spacing" textLength="66" x="5" y="120.8613">Doctor</text><ellipse cx="41" cy="50.7969" fill="#E2E2F0" rx="8" ry="8" style="stroke:#181818;stroke-width:0.5;"/><path d="M41,58.7969 L41,85.7969 M28,66.7969 L54,66.7969 M41,85.7969 L28,100.7969 M41,85.7969 L54,100.7969 " fill="none" style="stroke:#181818;stroke-width:0.5;"/><text fill="#000000" font-family="sans-serif" font-size="20" lengthAdjust="spacing" textLength="66" x="5" y="811.6426">Doctor</text><ellipse cx="41" cy="824.8594" fill="#E2E2F0" rx="8" ry="8" style="stroke:#181818;stroke-width:0.5;"/><path d="M41,832.8594 L41,859.8594 M28,840.8594 L54,840.8594 M41,859.8594 L28,874.8594 M41,859.8594 L54,874.8594 " fill="none" style="stroke:#181818;stroke-width:0.5;"/><rect fill="#E2E2F0" height="37.2813" rx="2.5" ry="2.5" style="stroke:#181818;stroke-width:0.5;" width="39" x="942.5" y="87.2969"/><text fill="#000000" font-family="sans-serif" font-size="20" lengthAdjust="spacing" textLength="25" x="949.5" y="112.8613">FE</text><rect fill="#E2E2F0" height="37.2813" rx="2.5" ry="2.5" style="stroke:#181818;stroke-width:0.5;" width="39" x="942.5" y="793.0781"/><text fill="#000000" font-family="sans-serif" font-size="20" lengthAdjust="spacing" textLength="25" x="949.5" y="818.6426">FE</text><rect fill="#E2E2F0" height="37.2813" rx="2.5" ry="2.5" style="stroke:#181818;stroke-width:0.5;" width="60" x="1549" y="87.2969"/><text fill="#000000" font-family="sans-serif" font-size="20" lengthAdjust="spacing" textLength="46" x="1556" y="112.8613">MDV</text><rect fill="#E2E2F0" height="37.2813" rx="2.5" ry="2.5" style="stroke:#181818;stroke-width:0.5;" width="60" x="1549" y="793.0781"/><text fill="#000000" font-family="sans-serif" font-size="20" lengthAdjust="spacing" textLength="46" x="1556" y="818.6426">MDV</text><rect fill="#FFFFFF" height="649.5" style="stroke:#181818;stroke-width:1.0;" width="10" x="36" y="135.5781"/><rect fill="#FFFFFF" height="411.8125" style="stroke:#181818;stroke-width:1.0;" width="10" x="957" y="164.8594"/><rect fill="#FFFFFF" height="162.125" style="stroke:#181818;stroke-width:1.0;" width="10" x="957" y="613.9531"/><rect fill="#FFFFFF" height="87.5625" style="stroke:#181818;stroke-width:1.0;" width="10" x="1574" y="202.1406"/><rect fill="#FFFFFF" height="87.5625" style="stroke:#181818;stroke-width:1.0;" width="10" x="1574" y="326.9844"/><rect fill="#FFFFFF" height="87.5625" style="stroke:#181818;stroke-width:1.0;" width="10" x="1574" y="451.8281"/><rect fill="#FFFFFF" height="87.5625" style="stroke:#181818;stroke-width:1.0;" width="10" x="1574" y="651.2344"/><polygon fill="#000000" points="945,160.8594,955,164.8594,945,168.8594,949,164.8594" style="stroke:#000000;stroke-width:1.0;"/><line style="stroke:#000000;stroke-width:1.0;" x1="46" x2="951" y1="164.8594" y2="164.8594"/><text fill="#000000" font-family="sans-serif" font-size="20" lengthAdjust="spacing" textLength="470" x="53" y="158.1426">Requests to update the Patient Medical History</text><polygon fill="#000000" points="1562,198.1406,1572,202.1406,1562,206.1406,1566,202.1406" style="stroke:#000000;stroke-width:1.0;"/><line style="stroke:#000000;stroke-width:1.0;" x1="967" x2="1568" y1="202.1406" y2="202.1406"/><text fill="#000000" font-family="sans-serif" font-size="20" lengthAdjust="spacing" textLength="445" x="974" y="195.4238">Makes HTTP Request to get all allergies data</text><line style="stroke:#000000;stroke-width:1.0;" x1="1584" x2="1626" y1="239.4219" y2="239.4219"/><line style="stroke:#000000;stroke-width:1.0;" x1="1626" x2="1626" y1="239.4219" y2="252.4219"/><line style="stroke:#000000;stroke-width:1.0;" x1="1585" x2="1626" y1="252.4219" y2="252.4219"/><polygon fill="#000000" points="1595,248.4219,1585,252.4219,1595,256.4219,1591,252.4219" style="stroke:#000000;stroke-width:1.0;"/><text fill="#000000" font-family="sans-serif" font-size="20" lengthAdjust="spacing" textLength="220" x="1591" y="232.7051">Fetches allergies data</text><polygon fill="#000000" points="978,285.7031,968,289.7031,978,293.7031,974,289.7031" style="stroke:#000000;stroke-width:1.0;"/><line style="stroke:#000000;stroke-width:1.0;stroke-dasharray:2.0,2.0;" x1="972" x2="1578" y1="289.7031" y2="289.7031"/><text fill="#000000" font-family="sans-serif" font-size="20" lengthAdjust="spacing" textLength="311" x="984" y="282.9863">Returns Operation Status Code</text><polygon fill="#000000" points="1562,322.9844,1572,326.9844,1562,330.9844,1566,326.9844" style="stroke:#000000;stroke-width:1.0;"/><line style="stroke:#000000;stroke-width:1.0;" x1="967" x2="1568" y1="326.9844" y2="326.9844"/><text fill="#000000" font-family="sans-serif" font-size="20" lengthAdjust="spacing" textLength="550" x="974" y="320.2676">Makes HTTP Request to get all medical conditions data</text><line style="stroke:#000000;stroke-width:1.0;" x1="1584" x2="1626" y1="364.2656" y2="364.2656"/><line style="stroke:#000000;stroke-width:1.0;" x1="1626" x2="1626" y1="364.2656" y2="377.2656"/><line style="stroke:#000000;stroke-width:1.0;" x1="1585" x2="1626" y1="377.2656" y2="377.2656"/><polygon fill="#000000" points="1595,373.2656,1585,377.2656,1595,381.2656,1591,377.2656" style="stroke:#000000;stroke-width:1.0;"/><text fill="#000000" font-family="sans-serif" font-size="20" lengthAdjust="spacing" textLength="325" x="1591" y="357.5488">Fetches medical conditions data</text><polygon fill="#000000" points="978,410.5469,968,414.5469,978,418.5469,974,414.5469" style="stroke:#000000;stroke-width:1.0;"/><line style="stroke:#000000;stroke-width:1.0;stroke-dasharray:2.0,2.0;" x1="972" x2="1578" y1="414.5469" y2="414.5469"/><text fill="#000000" font-family="sans-serif" font-size="20" lengthAdjust="spacing" textLength="311" x="984" y="407.8301">Returns Operation Status Code</text><polygon fill="#000000" points="1562,447.8281,1572,451.8281,1562,455.8281,1566,451.8281" style="stroke:#000000;stroke-width:1.0;"/><line style="stroke:#000000;stroke-width:1.0;" x1="967" x2="1568" y1="451.8281" y2="451.8281"/><text fill="#000000" font-family="sans-serif" font-size="20" lengthAdjust="spacing" textLength="588" x="974" y="445.1113">Makes HTTP Request to get current Patient Medical History</text><line style="stroke:#000000;stroke-width:1.0;" x1="1584" x2="1626" y1="489.1094" y2="489.1094"/><line style="stroke:#000000;stroke-width:1.0;" x1="1626" x2="1626" y1="489.1094" y2="502.1094"/><line style="stroke:#000000;stroke-width:1.0;" x1="1585" x2="1626" y1="502.1094" y2="502.1094"/><polygon fill="#000000" points="1595,498.1094,1585,502.1094,1595,506.1094,1591,502.1094" style="stroke:#000000;stroke-width:1.0;"/><text fill="#000000" font-family="sans-serif" font-size="20" lengthAdjust="spacing" textLength="365" x="1591" y="482.3926">Fetches Patient Medical History data</text><polygon fill="#000000" points="978,535.3906,968,539.3906,978,543.3906,974,539.3906" style="stroke:#000000;stroke-width:1.0;"/><line style="stroke:#000000;stroke-width:1.0;stroke-dasharray:2.0,2.0;" x1="972" x2="1578" y1="539.3906" y2="539.3906"/><text fill="#000000" font-family="sans-serif" font-size="20" lengthAdjust="spacing" textLength="311" x="984" y="532.6738">Returns Operation Status Code</text><polygon fill="#000000" points="57,572.6719,47,576.6719,57,580.6719,53,576.6719" style="stroke:#000000;stroke-width:1.0;"/><line style="stroke:#000000;stroke-width:1.0;stroke-dasharray:2.0,2.0;" x1="51" x2="961" y1="576.6719" y2="576.6719"/><text fill="#000000" font-family="sans-serif" font-size="20" lengthAdjust="spacing" textLength="552" x="63" y="569.9551">Displays form with current Patient Medical History data</text><polygon fill="#000000" points="945,609.9531,955,613.9531,945,617.9531,949,613.9531" style="stroke:#000000;stroke-width:1.0;"/><line style="stroke:#000000;stroke-width:1.0;" x1="46" x2="951" y1="613.9531" y2="613.9531"/><text fill="#000000" font-family="sans-serif" font-size="20" lengthAdjust="spacing" textLength="892" x="53" y="607.2363">Sends Patient Medical History data (medicalConditions, allergies, familyHistory, freeText)</text><polygon fill="#000000" points="1562,647.2344,1572,651.2344,1562,655.2344,1566,651.2344" style="stroke:#000000;stroke-width:1.0;"/><line style="stroke:#000000;stroke-width:1.0;" x1="967" x2="1568" y1="651.2344" y2="651.2344"/><text fill="#000000" font-family="sans-serif" font-size="20" lengthAdjust="spacing" textLength="547" x="974" y="644.5176">Makes HTTP Request to update Patient Medical History</text><line style="stroke:#000000;stroke-width:1.0;" x1="1584" x2="1626" y1="688.5156" y2="688.5156"/><line style="stroke:#000000;stroke-width:1.0;" x1="1626" x2="1626" y1="688.5156" y2="701.5156"/><line style="stroke:#000000;stroke-width:1.0;" x1="1585" x2="1626" y1="701.5156" y2="701.5156"/><polygon fill="#000000" points="1595,697.5156,1585,701.5156,1595,705.5156,1591,701.5156" style="stroke:#000000;stroke-width:1.0;"/><text fill="#000000" font-family="sans-serif" font-size="20" lengthAdjust="spacing" textLength="546" x="1591" y="681.7988">Validates Patient Medical History and tries to update it</text><polygon fill="#000000" points="978,734.7969,968,738.7969,978,742.7969,974,738.7969" style="stroke:#000000;stroke-width:1.0;"/><line style="stroke:#000000;stroke-width:1.0;stroke-dasharray:2.0,2.0;" x1="972" x2="1578" y1="738.7969" y2="738.7969"/><text fill="#000000" font-family="sans-serif" font-size="20" lengthAdjust="spacing" textLength="311" x="984" y="732.0801">Returns Operation Status Code</text><polygon fill="#000000" points="57,772.0781,47,776.0781,57,780.0781,53,776.0781" style="stroke:#000000;stroke-width:1.0;"/><line style="stroke:#000000;stroke-width:1.0;stroke-dasharray:2.0,2.0;" x1="51" x2="961" y1="776.0781" y2="776.0781"/><text fill="#000000" font-family="sans-serif" font-size="20" lengthAdjust="spacing" textLength="391" x="63" y="769.3613">Returns Operation In/Success message</text><!--SRC=[hLHXRzCm4FtkNt7Ile0qngZ41jLKQMaI3Obf4otxVdEkhQaJ1_lIKIR-E-UiNTVHqe8MAR9oVk_TyzqvOMgg6ZsMrkaf5L3G21lBkQjuO7uIT8wLOiEMu3FDo487KeDZmSF8UVWwWDEZpj69KXDJ451PynnAAc_91wN2KXkqnH3WNe4y2UhfsBkcAlhEEdzsDaFRqDNjDzBSwy51UfATvnysGxrpBIPFioGztem9v6T6KolrBkzaoIQOI6Jvn-oqtJlttjqzX1ChEFNhgVTQ8ZYcpUxX84loztaIAQXP0gbh5moGAX5WeqsD5KEUnLYUhGKlqviObQMbcnao2I-5Dps1Tk4BVMyeS01sqDH5tEK9mJMoeKYdmcYqS662v9ol92IDaeIY8j9TkCGf1RWO3g-NYb5mJ0neRNp9ZuqW906kHAAhQ72faXFhYQ2UuLl8erzkV1NWgYOl7bq50qPk0lHTGQgWDUsz3PQBOsfN5IQgxkjq6_6_BU_dMJVUn_RiRDCstrk8Br1luQLTkSAXjZWFyGwNS6TuiilpG-edWZ9XZrCweAhuksbujMX5_x4JXwivEeGHbiRE5mpvz4H3-i6lroPwP-qND-IVotw3raJczZDWLG3xEFAhD8PVeXL_qZvLRmUDrXJY_8OWlvvdTLU_0G00]--></g></svg>