<?xml version="1.0" encoding="UTF-8" standalone="no"?><svg xmlns="http://www.w3.org/2000/svg" xmlns:xlink="http://www.w3.org/1999/xlink" contentStyleType="text/css" height="1162px" preserveAspectRatio="none" style="width:2066px;height:1162px;background:#FFFFFF;" version="1.1" viewBox="0 0 2066 1162" width="2066px" zoomAndPan="magnify"><defs/><g><text fill="#000000" font-family="sans-serif" font-size="14" font-weight="bold" lengthAdjust="spacing" textLength="126" x="971" y="27.9951">Level 3 Diagram</text><rect fill="#FFFFFF" height="929.75" style="stroke:#181818;stroke-width:1.0;" width="10" x="36" y="135.5781"/><rect fill="#FFFFFF" height="37.2813" style="stroke:#181818;stroke-width:1.0;" width="10" x="450" y="164.8594"/><rect fill="#FFFFFF" height="816.9063" style="stroke:#181818;stroke-width:1.0;" width="10" x="450" y="239.4219"/><rect fill="#FFFFFF" height="742.3438" style="stroke:#181818;stroke-width:1.0;" width="10" x="897" y="276.7031"/><rect fill="#FFFFFF" height="660.7813" style="stroke:#181818;stroke-width:1.0;" width="10" x="1193" y="313.9844"/><rect fill="#FFFFFF" height="111.8438" style="stroke:#181818;stroke-width:1.0;" width="10" x="1393" y="351.2656"/><rect fill="#FFFFFF" height="67.2813" style="stroke:#181818;stroke-width:1.0;" width="10" x="1393" y="603.5156"/><rect fill="#FFFFFF" height="67.2813" style="stroke:#181818;stroke-width:1.0;" width="10" x="1576.5" y="795.6406"/><rect fill="#FFFFFF" height="37.2813" style="stroke:#181818;stroke-width:1.0;" width="10" x="1744.5" y="900.2031"/><rect fill="#FFFFFF" height="43.2813" style="stroke:#181818;stroke-width:1.0;" width="10" x="1859.5" y="708.0781"/><rect fill="#FFFFFF" height="37.2813" style="stroke:#181818;stroke-width:1.0;" width="10" x="1990" y="388.5469"/><rect fill="#FFFFFF" height="30" style="stroke:#181818;stroke-width:1.0;" width="10" x="1990" y="640.7969"/><rect fill="#FFFFFF" height="30" style="stroke:#181818;stroke-width:1.0;" width="10" x="1990" y="832.9219"/><rect fill="#EBF5FB" height="504.6563" style="stroke:#000000;stroke-width:1.5;" width="1259" x="800" y="478.1094"/><rect fill="#EBF5FB" height="433.8125" style="stroke:none;stroke-width:1.0;" width="1259" x="800" y="548.9531"/><line style="stroke:#181818;stroke-width:0.5;stroke-dasharray:5.0,5.0;" x1="41" x2="41" y1="125.5781" y2="1074.3281"/><line style="stroke:#181818;stroke-width:0.5;stroke-dasharray:5.0,5.0;" x1="455" x2="455" y1="125.5781" y2="1074.3281"/><line style="stroke:#181818;stroke-width:0.5;stroke-dasharray:5.0,5.0;" x1="902" x2="902" y1="125.5781" y2="1074.3281"/><line style="stroke:#181818;stroke-width:0.5;stroke-dasharray:5.0,5.0;" x1="1198" x2="1198" y1="125.5781" y2="1074.3281"/><line style="stroke:#181818;stroke-width:0.5;stroke-dasharray:5.0,5.0;" x1="1397.5" x2="1397.5" y1="125.5781" y2="1074.3281"/><line style="stroke:#181818;stroke-width:0.5;stroke-dasharray:5.0,5.0;" x1="1581.5" x2="1581.5" y1="125.5781" y2="1074.3281"/><line style="stroke:#181818;stroke-width:0.5;stroke-dasharray:5.0,5.0;" x1="1749.5" x2="1749.5" y1="125.5781" y2="1074.3281"/><line style="stroke:#181818;stroke-width:0.5;stroke-dasharray:5.0,5.0;" x1="1864.5" x2="1864.5" y1="125.5781" y2="1074.3281"/><line style="stroke:#181818;stroke-width:0.5;stroke-dasharray:5.0,5.0;" x1="1995" x2="1995" y1="125.5781" y2="1074.3281"/><text fill="#000000" font-family="sans-serif" font-size="20" lengthAdjust="spacing" textLength="66" x="5" y="120.8613">Admin</text><ellipse cx="41" cy="50.7969" fill="#E2E2F0" rx="8" ry="8" style="stroke:#181818;stroke-width:0.5;"/><path d="M41,58.7969 L41,85.7969 M28,66.7969 L54,66.7969 M41,85.7969 L28,100.7969 M41,85.7969 L54,100.7969 " fill="none" style="stroke:#181818;stroke-width:0.5;"/><text fill="#000000" font-family="sans-serif" font-size="20" lengthAdjust="spacing" textLength="66" x="5" y="1091.8926">Admin</text><ellipse cx="41" cy="1105.1094" fill="#E2E2F0" rx="8" ry="8" style="stroke:#181818;stroke-width:0.5;"/><path d="M41,1113.1094 L41,1140.1094 M28,1121.1094 L54,1121.1094 M41,1140.1094 L28,1155.1094 M41,1140.1094 L54,1155.1094 " fill="none" style="stroke:#181818;stroke-width:0.5;"/><rect fill="#E2E2F0" height="37.2813" rx="2.5" ry="2.5" style="stroke:#181818;stroke-width:0.5;" width="154" x="378" y="87.2969"/><text fill="#000000" font-family="sans-serif" font-size="20" lengthAdjust="spacing" textLength="140" x="385" y="112.8613">User Interface</text><rect fill="#E2E2F0" height="37.2813" rx="2.5" ry="2.5" style="stroke:#181818;stroke-width:0.5;" width="154" x="378" y="1073.3281"/><text fill="#000000" font-family="sans-serif" font-size="20" lengthAdjust="spacing" textLength="140" x="385" y="1098.8926">User Interface</text><rect fill="#E2E2F0" height="37.2813" rx="2.5" ry="2.5" style="stroke:#181818;stroke-width:0.5;" width="184" x="810" y="87.2969"/><text fill="#000000" font-family="sans-serif" font-size="20" lengthAdjust="spacing" textLength="170" x="817" y="112.8613">PatientController</text><rect fill="#E2E2F0" height="37.2813" rx="2.5" ry="2.5" style="stroke:#181818;stroke-width:0.5;" width="184" x="810" y="1073.3281"/><text fill="#000000" font-family="sans-serif" font-size="20" lengthAdjust="spacing" textLength="170" x="817" y="1098.8926">PatientController</text><rect fill="#E2E2F0" height="37.2813" rx="2.5" ry="2.5" style="stroke:#181818;stroke-width:0.5;" width="158" x="1119" y="87.2969"/><text fill="#000000" font-family="sans-serif" font-size="20" lengthAdjust="spacing" textLength="144" x="1126" y="112.8613">PatientService</text><rect fill="#E2E2F0" height="37.2813" rx="2.5" ry="2.5" style="stroke:#181818;stroke-width:0.5;" width="158" x="1119" y="1073.3281"/><text fill="#000000" font-family="sans-serif" font-size="20" lengthAdjust="spacing" textLength="144" x="1126" y="1098.8926">PatientService</text><rect fill="#E2E2F0" height="37.2813" rx="2.5" ry="2.5" style="stroke:#181818;stroke-width:0.5;" width="191" x="1302.5" y="87.2969"/><text fill="#000000" font-family="sans-serif" font-size="20" lengthAdjust="spacing" textLength="177" x="1309.5" y="112.8613">PatientRepository</text><rect fill="#E2E2F0" height="37.2813" rx="2.5" ry="2.5" style="stroke:#181818;stroke-width:0.5;" width="191" x="1302.5" y="1073.3281"/><text fill="#000000" font-family="sans-serif" font-size="20" lengthAdjust="spacing" textLength="177" x="1309.5" y="1098.8926">PatientRepository</text><rect fill="#E2E2F0" height="37.2813" rx="2.5" ry="2.5" style="stroke:#181818;stroke-width:0.5;" width="156" x="1503.5" y="87.2969"/><text fill="#000000" font-family="sans-serif" font-size="20" lengthAdjust="spacing" textLength="142" x="1510.5" y="112.8613">LogRepository</text><rect fill="#E2E2F0" height="37.2813" rx="2.5" ry="2.5" style="stroke:#181818;stroke-width:0.5;" width="156" x="1503.5" y="1073.3281"/><text fill="#000000" font-family="sans-serif" font-size="20" lengthAdjust="spacing" textLength="142" x="1510.5" y="1098.8926">LogRepository</text><rect fill="#E2E2F0" height="37.2813" rx="2.5" ry="2.5" style="stroke:#181818;stroke-width:0.5;" width="160" x="1669.5" y="87.2969"/><text fill="#000000" font-family="sans-serif" font-size="20" lengthAdjust="spacing" textLength="146" x="1676.5" y="112.8613">PatientMapper</text><rect fill="#E2E2F0" height="37.2813" rx="2.5" ry="2.5" style="stroke:#181818;stroke-width:0.5;" width="160" x="1669.5" y="1073.3281"/><text fill="#000000" font-family="sans-serif" font-size="20" lengthAdjust="spacing" textLength="146" x="1676.5" y="1098.8926">PatientMapper</text><rect fill="#E2E2F0" height="37.2813" rx="2.5" ry="2.5" style="stroke:#181818;stroke-width:0.5;" width="50" x="1839.5" y="87.2969"/><text fill="#000000" font-family="sans-serif" font-size="20" lengthAdjust="spacing" textLength="36" x="1846.5" y="112.8613">Log</text><rect fill="#E2E2F0" height="37.2813" rx="2.5" ry="2.5" style="stroke:#181818;stroke-width:0.5;" width="50" x="1839.5" y="1073.3281"/><text fill="#000000" font-family="sans-serif" font-size="20" lengthAdjust="spacing" textLength="36" x="1846.5" y="1098.8926">Log</text><rect fill="#E2E2F0" height="37.2813" rx="2.5" ry="2.5" style="stroke:#181818;stroke-width:0.5;" width="108" x="1941" y="87.2969"/><text fill="#000000" font-family="sans-serif" font-size="20" lengthAdjust="spacing" textLength="94" x="1948" y="112.8613">Database</text><rect fill="#E2E2F0" height="37.2813" rx="2.5" ry="2.5" style="stroke:#181818;stroke-width:0.5;" width="108" x="1941" y="1073.3281"/><text fill="#000000" font-family="sans-serif" font-size="20" lengthAdjust="spacing" textLength="94" x="1948" y="1098.8926">Database</text><rect fill="#FFFFFF" height="929.75" style="stroke:#181818;stroke-width:1.0;" width="10" x="36" y="135.5781"/><rect fill="#FFFFFF" height="37.2813" style="stroke:#181818;stroke-width:1.0;" width="10" x="450" y="164.8594"/><rect fill="#FFFFFF" height="816.9063" style="stroke:#181818;stroke-width:1.0;" width="10" x="450" y="239.4219"/><rect fill="#FFFFFF" height="742.3438" style="stroke:#181818;stroke-width:1.0;" width="10" x="897" y="276.7031"/><rect fill="#FFFFFF" height="660.7813" style="stroke:#181818;stroke-width:1.0;" width="10" x="1193" y="313.9844"/><rect fill="#FFFFFF" height="111.8438" style="stroke:#181818;stroke-width:1.0;" width="10" x="1393" y="351.2656"/><rect fill="#FFFFFF" height="67.2813" style="stroke:#181818;stroke-width:1.0;" width="10" x="1393" y="603.5156"/><rect fill="#FFFFFF" height="67.2813" style="stroke:#181818;stroke-width:1.0;" width="10" x="1576.5" y="795.6406"/><rect fill="#FFFFFF" height="37.2813" style="stroke:#181818;stroke-width:1.0;" width="10" x="1744.5" y="900.2031"/><rect fill="#FFFFFF" height="43.2813" style="stroke:#181818;stroke-width:1.0;" width="10" x="1859.5" y="708.0781"/><rect fill="#FFFFFF" height="37.2813" style="stroke:#181818;stroke-width:1.0;" width="10" x="1990" y="388.5469"/><rect fill="#FFFFFF" height="30" style="stroke:#181818;stroke-width:1.0;" width="10" x="1990" y="640.7969"/><rect fill="#FFFFFF" height="30" style="stroke:#181818;stroke-width:1.0;" width="10" x="1990" y="832.9219"/><polygon fill="#000000" points="438,160.8594,448,164.8594,438,168.8594,442,164.8594" style="stroke:#000000;stroke-width:1.0;"/><line style="stroke:#000000;stroke-width:1.0;" x1="46" x2="444" y1="164.8594" y2="164.8594"/><text fill="#000000" font-family="sans-serif" font-size="20" lengthAdjust="spacing" textLength="236" x="53" y="158.1426">Asks to delete a Patient</text><polygon fill="#000000" points="57,198.1406,47,202.1406,57,206.1406,53,202.1406" style="stroke:#000000;stroke-width:1.0;"/><line style="stroke:#000000;stroke-width:1.0;stroke-dasharray:2.0,2.0;" x1="51" x2="454" y1="202.1406" y2="202.1406"/><text fill="#000000" font-family="sans-serif" font-size="20" lengthAdjust="spacing" textLength="199" x="63" y="195.4238">Asks for Patient's ID</text><polygon fill="#000000" points="438,235.4219,448,239.4219,438,243.4219,442,239.4219" style="stroke:#000000;stroke-width:1.0;"/><line style="stroke:#000000;stroke-width:1.0;" x1="46" x2="444" y1="239.4219" y2="239.4219"/><text fill="#000000" font-family="sans-serif" font-size="20" lengthAdjust="spacing" textLength="181" x="53" y="232.7051">Sends Patient's ID</text><polygon fill="#000000" points="885,272.7031,895,276.7031,885,280.7031,889,276.7031" style="stroke:#000000;stroke-width:1.0;"/><line style="stroke:#000000;stroke-width:1.0;" x1="460" x2="891" y1="276.7031" y2="276.7031"/><text fill="#000000" font-family="sans-serif" font-size="20" lengthAdjust="spacing" textLength="267" x="467" y="269.9863">deletePatient(PatientID id)</text><polygon fill="#000000" points="1181,309.9844,1191,313.9844,1181,317.9844,1185,313.9844" style="stroke:#000000;stroke-width:1.0;"/><line style="stroke:#000000;stroke-width:1.0;stroke-dasharray:2.0,2.0;" x1="907" x2="1187" y1="313.9844" y2="313.9844"/><text fill="#000000" font-family="sans-serif" font-size="20" lengthAdjust="spacing" textLength="267" x="914" y="307.2676">deletePatient(PatientID id)</text><polygon fill="#000000" points="1381,347.2656,1391,351.2656,1381,355.2656,1385,351.2656" style="stroke:#000000;stroke-width:1.0;"/><line style="stroke:#000000;stroke-width:1.0;" x1="1203" x2="1387" y1="351.2656" y2="351.2656"/><text fill="#000000" font-family="sans-serif" font-size="20" lengthAdjust="spacing" textLength="171" x="1210" y="344.5488">getByIdAsync(id)</text><polygon fill="#000000" points="1978,384.5469,1988,388.5469,1978,392.5469,1982,388.5469" style="stroke:#000000;stroke-width:1.0;"/><line style="stroke:#000000;stroke-width:1.0;" x1="1403" x2="1984" y1="388.5469" y2="388.5469"/><text fill="#000000" font-family="sans-serif" font-size="20" lengthAdjust="spacing" textLength="568" x="1410" y="381.8301">_objs.Where(x =&gt; id.Equals(x.Id)).FirstOrDefaultAsync();</text><polygon fill="#000000" points="1414,421.8281,1404,425.8281,1414,429.8281,1410,425.8281" style="stroke:#000000;stroke-width:1.0;"/><line style="stroke:#000000;stroke-width:1.0;stroke-dasharray:2.0,2.0;" x1="1408" x2="1994" y1="425.8281" y2="425.8281"/><text fill="#000000" font-family="sans-serif" font-size="20" lengthAdjust="spacing" textLength="99" x="1420" y="419.1113">return var</text><polygon fill="#000000" points="1214,459.1094,1204,463.1094,1214,467.1094,1210,463.1094" style="stroke:#000000;stroke-width:1.0;"/><line style="stroke:#000000;stroke-width:1.0;stroke-dasharray:2.0,2.0;" x1="1208" x2="1397" y1="463.1094" y2="463.1094"/><text fill="#000000" font-family="sans-serif" font-size="20" lengthAdjust="spacing" textLength="99" x="1220" y="456.3926">return var</text><path d="M800,478.1094 L876,478.1094 L876,493.3906 L866,503.3906 L800,503.3906 L800,478.1094 " fill="#EEEEEE" style="stroke:#000000;stroke-width:1.5;"/><rect fill="none" height="504.6563" style="stroke:#000000;stroke-width:1.5;" width="1259" x="800" y="478.1094"/><text fill="#000000" font-family="sans-serif" font-size="20" font-weight="bold" lengthAdjust="spacing" textLength="31" x="815" y="497.6738">alt</text><text fill="#000000" font-family="sans-serif" font-size="20" font-weight="bold" lengthAdjust="spacing" textLength="130" x="891" y="498.6738">[var is null]</text><polygon fill="#000000" points="918,536.9531,908,540.9531,918,544.9531,914,540.9531" style="stroke:#000000;stroke-width:1.0;"/><line style="stroke:#000000;stroke-width:1.0;stroke-dasharray:2.0,2.0;" x1="912" x2="1192" y1="540.9531" y2="540.9531"/><text fill="#000000" font-family="sans-serif" font-size="20" lengthAdjust="spacing" textLength="106" x="924" y="534.2363">return null</text><line style="stroke:#000000;stroke-width:1.0;stroke-dasharray:2.0,2.0;" x1="800" x2="2059" y1="549.9531" y2="549.9531"/><text fill="#000000" font-family="sans-serif" font-size="20" font-weight="bold" lengthAdjust="spacing" textLength="175" x="805" y="568.5176">[var is not null]</text><polygon fill="#000000" points="1381,599.5156,1391,603.5156,1381,607.5156,1385,603.5156" style="stroke:#000000;stroke-width:1.0;"/><line style="stroke:#000000;stroke-width:1.0;" x1="1203" x2="1387" y1="603.5156" y2="603.5156"/><text fill="#000000" font-family="sans-serif" font-size="20" lengthAdjust="spacing" textLength="169" x="1210" y="596.7988">Remove(patient)</text><polygon fill="#000000" points="1978,636.7969,1988,640.7969,1978,644.7969,1982,640.7969" style="stroke:#000000;stroke-width:1.0;"/><line style="stroke:#000000;stroke-width:1.0;" x1="1403" x2="1984" y1="640.7969" y2="640.7969"/><text fill="#000000" font-family="sans-serif" font-size="20" lengthAdjust="spacing" textLength="226" x="1410" y="634.0801">_objs.Remove(patient)</text><polygon fill="#000000" points="1847.5,704.0781,1857.5,708.0781,1847.5,712.0781,1851.5,708.0781" style="stroke:#000000;stroke-width:1.0;"/><line style="stroke:#000000;stroke-width:1.0;stroke-dasharray:2.0,2.0;" x1="1203" x2="1853.5" y1="708.0781" y2="708.0781"/><text fill="#000000" font-family="sans-serif" font-size="20" lengthAdjust="spacing" textLength="596" x="1210" y="701.3613">new Log(TypeOfAction.Delete, patientId, "Patient Deleted")</text><line style="stroke:#000000;stroke-width:1.0;stroke-dasharray:2.0,2.0;" x1="1869.5" x2="1911.5" y1="750.3594" y2="750.3594"/><line style="stroke:#000000;stroke-width:1.0;stroke-dasharray:2.0,2.0;" x1="1911.5" x2="1911.5" y1="750.3594" y2="763.3594"/><line style="stroke:#000000;stroke-width:1.0;stroke-dasharray:2.0,2.0;" x1="1864.5" x2="1911.5" y1="763.3594" y2="763.3594"/><polygon fill="#000000" points="1874.5,759.3594,1864.5,763.3594,1874.5,767.3594,1870.5,763.3594" style="stroke:#000000;stroke-width:1.0;"/><text fill="#000000" font-family="sans-serif" font-size="20" lengthAdjust="spacing" textLength="52" x="1876.5" y="743.6426">Log()</text><polygon fill="#000000" points="1564.5,791.6406,1574.5,795.6406,1564.5,799.6406,1568.5,795.6406" style="stroke:#000000;stroke-width:1.0;"/><line style="stroke:#000000;stroke-width:1.0;stroke-dasharray:2.0,2.0;" x1="1203" x2="1570.5" y1="795.6406" y2="795.6406"/><text fill="#000000" font-family="sans-serif" font-size="20" lengthAdjust="spacing" textLength="146" x="1210" y="788.9238">AddAsync(log)</text><polygon fill="#000000" points="1978,828.9219,1988,832.9219,1978,836.9219,1982,832.9219" style="stroke:#000000;stroke-width:1.0;"/><line style="stroke:#000000;stroke-width:1.0;" x1="1586.5" x2="1984" y1="832.9219" y2="832.9219"/><text fill="#000000" font-family="sans-serif" font-size="20" lengthAdjust="spacing" textLength="203" x="1593.5" y="826.2051">_objs.AddAsync(log)</text><polygon fill="#000000" points="1732.5,896.2031,1742.5,900.2031,1732.5,904.2031,1736.5,900.2031" style="stroke:#000000;stroke-width:1.0;"/><line style="stroke:#000000;stroke-width:1.0;stroke-dasharray:2.0,2.0;" x1="1203" x2="1738.5" y1="900.2031" y2="900.2031"/><text fill="#000000" font-family="sans-serif" font-size="20" lengthAdjust="spacing" textLength="147" x="1210" y="893.4863">ToDto(patient)</text><polygon fill="#000000" points="1214,933.4844,1204,937.4844,1214,941.4844,1210,937.4844" style="stroke:#000000;stroke-width:1.0;"/><line style="stroke:#000000;stroke-width:1.0;stroke-dasharray:2.0,2.0;" x1="1208" x2="1748.5" y1="937.4844" y2="937.4844"/><text fill="#000000" font-family="sans-serif" font-size="20" lengthAdjust="spacing" textLength="101" x="1220" y="930.7676">return dto</text><polygon fill="#000000" points="918,970.7656,908,974.7656,918,978.7656,914,974.7656" style="stroke:#000000;stroke-width:1.0;"/><line style="stroke:#000000;stroke-width:1.0;stroke-dasharray:2.0,2.0;" x1="912" x2="1197" y1="974.7656" y2="974.7656"/><text fill="#000000" font-family="sans-serif" font-size="20" lengthAdjust="spacing" textLength="101" x="924" y="968.0488">return dto</text><polygon fill="#000000" points="471,1015.0469,461,1019.0469,471,1023.0469,467,1019.0469" style="stroke:#000000;stroke-width:1.0;"/><line style="stroke:#000000;stroke-width:1.0;stroke-dasharray:2.0,2.0;" x1="465" x2="901" y1="1019.0469" y2="1019.0469"/><text fill="#000000" font-family="sans-serif" font-size="20" lengthAdjust="spacing" textLength="413" x="477" y="1012.3301">Returns Operation Status Response Code</text><polygon fill="#000000" points="57,1052.3281,47,1056.3281,57,1060.3281,53,1056.3281" style="stroke:#000000;stroke-width:1.0;"/><line style="stroke:#000000;stroke-width:1.0;stroke-dasharray:2.0,2.0;" x1="51" x2="454" y1="1056.3281" y2="1056.3281"/><text fill="#000000" font-family="sans-serif" font-size="20" lengthAdjust="spacing" textLength="380" x="63" y="1049.6113">Returns Operation In/Sucess message</text><!--SRC=[ZPLRRzem5CVV_IcEseU2rBAkqswiGye5f4X1J4chFKucEL0NOsUsGykcVVSvJbf2catb0MJxT_xdudECtZ1HK4MtN6ORp2775IsvcKbXKlOBuUgI4CCCHuXnXnpUGSZeslA4tB4S0RU5sSCMjqjKcfpf9pc8cK2pBn2aCdUIaCD9ngdMy9k0_VWqswoLB4KUI2xLzVMEyX8NotlCp6G2f-67gJVxr8ygAHqp2wT-UDdFQ5Gxbg6JUZkxclfzc9MOpZvFFxepJodvK6_xt7BaJplsmkxGDVP73wTJV_P-vbScD3DsmyktJ03Lu15hRrZ62YeCdDpQk20I1jMAPdXI4RVHCVAD6eR21FOYbEGSbQE2NYYjitH4saiaM4ZDR4Xx1oN7K2pN7I1EUcNcj2YQIEOl96h3u-sG6hgakWujz8ah3DjHWxOa7bnCRDvZyFH6Wv6s-JZQ4mgDkmDigtCRmONblGPVsV8ss9c6A2GvjkbdxHH5he_9hke4Wd7Zk-46pMyK0ik71uE012w8z9LyIj9AFXd36es_Zt9FxqKsE68IabHCw8_XXrpUwz7tErGuU8Il4oiscluiATU3nr6K3uUZ6LFQB5HOJscjDlno4BCb3dqNelMfq9HAm8wgTd4iaZmbqKyaX79JRGBJ84hENREdpYXuDd87o3K-az8SqIw61BToXuEYhi_GdRKSLSjE-l-r2Ei1FawdivEqmet78F01R7SERknZj5Xvbf9Y5BhREuV6IvIVF_Sur6VvISTrx9RnasmbEUowZjkkRVPUtjmub-kkN1rctCd-FnQloJrk9pyVmuqCZVn7BUTkEU_qGcvaLtJUU_yzO4hii3KZKirUuaWD2_jeqAhka1fgIll-e2waiAqJo1pRhHUqnlobTIJUf6M6zjzZQx_iEzmPUl8N]--></g></svg>