<?xml version="1.0" encoding="UTF-8" standalone="no"?><svg xmlns="http://www.w3.org/2000/svg" xmlns:xlink="http://www.w3.org/1999/xlink" contentStyleType="text/css" height="1249px" preserveAspectRatio="none" style="width:2402px;height:1249px;background:#FFFFFF;" version="1.1" viewBox="0 0 2402 1249" width="2402px" zoomAndPan="magnify"><defs/><g><text fill="#000000" font-family="sans-serif" font-size="14" font-weight="bold" lengthAdjust="spacing" textLength="126" x="1139.25" y="27.9951">Level 3 Diagram</text><rect fill="#FFFFFF" height="1017.3125" style="stroke:#181818;stroke-width:1.0;" width="10" x="36" y="135.5781"/><rect fill="#FFFFFF" height="37.2813" style="stroke:#181818;stroke-width:1.0;" width="10" x="450" y="164.8594"/><rect fill="#FFFFFF" height="904.4688" style="stroke:#181818;stroke-width:1.0;" width="10" x="450" y="239.4219"/><rect fill="#FFFFFF" height="829.9063" style="stroke:#181818;stroke-width:1.0;" width="10" x="897" y="276.7031"/><rect fill="#FFFFFF" height="748.3438" style="stroke:#181818;stroke-width:1.0;" width="10" x="1193" y="313.9844"/><rect fill="#FFFFFF" height="111.8438" style="stroke:#181818;stroke-width:1.0;" width="10" x="1393" y="351.2656"/><rect fill="#FFFFFF" height="67.2813" style="stroke:#181818;stroke-width:1.0;" width="10" x="1393" y="603.5156"/><rect fill="#FFFFFF" height="67.2813" style="stroke:#181818;stroke-width:1.0;" width="10" x="1576.5" y="795.6406"/><rect fill="#FFFFFF" height="124.8438" style="stroke:#181818;stroke-width:1.0;" width="10" x="1744.5" y="900.2031"/><rect fill="#FFFFFF" height="43.2813" style="stroke:#181818;stroke-width:1.0;" width="10" x="2083.5" y="937.4844"/><rect fill="#FFFFFF" height="43.2813" style="stroke:#181818;stroke-width:1.0;" width="10" x="2237.5" y="708.0781"/><rect fill="#FFFFFF" height="37.2813" style="stroke:#181818;stroke-width:1.0;" width="10" x="2326.5" y="388.5469"/><rect fill="#FFFFFF" height="30" style="stroke:#181818;stroke-width:1.0;" width="10" x="2326.5" y="640.7969"/><rect fill="#FFFFFF" height="30" style="stroke:#181818;stroke-width:1.0;" width="10" x="2326.5" y="832.9219"/><rect fill="#EBF5FB" height="592.2188" style="stroke:#000000;stroke-width:1.5;" width="1595.5" x="800" y="478.1094"/><rect fill="#EBF5FB" height="521.375" style="stroke:none;stroke-width:1.0;" width="1595.5" x="800" y="548.9531"/><line style="stroke:#181818;stroke-width:0.5;stroke-dasharray:5.0,5.0;" x1="41" x2="41" y1="125.5781" y2="1161.8906"/><line style="stroke:#181818;stroke-width:0.5;stroke-dasharray:5.0,5.0;" x1="455" x2="455" y1="125.5781" y2="1161.8906"/><line style="stroke:#181818;stroke-width:0.5;stroke-dasharray:5.0,5.0;" x1="902" x2="902" y1="125.5781" y2="1161.8906"/><line style="stroke:#181818;stroke-width:0.5;stroke-dasharray:5.0,5.0;" x1="1198" x2="1198" y1="125.5781" y2="1161.8906"/><line style="stroke:#181818;stroke-width:0.5;stroke-dasharray:5.0,5.0;" x1="1397.5" x2="1397.5" y1="125.5781" y2="1161.8906"/><line style="stroke:#181818;stroke-width:0.5;stroke-dasharray:5.0,5.0;" x1="1581.5" x2="1581.5" y1="125.5781" y2="1161.8906"/><line style="stroke:#181818;stroke-width:0.5;stroke-dasharray:5.0,5.0;" x1="1749.5" x2="1749.5" y1="125.5781" y2="1161.8906"/><line style="stroke:#181818;stroke-width:0.5;stroke-dasharray:5.0,5.0;" x1="2088.5" x2="2088.5" y1="125.5781" y2="1161.8906"/><line style="stroke:#181818;stroke-width:0.5;stroke-dasharray:5.0,5.0;" x1="2242.5" x2="2242.5" y1="125.5781" y2="1161.8906"/><line style="stroke:#181818;stroke-width:0.5;stroke-dasharray:5.0,5.0;" x1="2331.5" x2="2331.5" y1="125.5781" y2="1161.8906"/><text fill="#000000" font-family="sans-serif" font-size="20" lengthAdjust="spacing" textLength="66" x="5" y="120.8613">Admin</text><ellipse cx="41" cy="50.7969" fill="#E2E2F0" rx="8" ry="8" style="stroke:#181818;stroke-width:0.5;"/><path d="M41,58.7969 L41,85.7969 M28,66.7969 L54,66.7969 M41,85.7969 L28,100.7969 M41,85.7969 L54,100.7969 " fill="none" style="stroke:#181818;stroke-width:0.5;"/><text fill="#000000" font-family="sans-serif" font-size="20" lengthAdjust="spacing" textLength="66" x="5" y="1179.4551">Admin</text><ellipse cx="41" cy="1192.6719" fill="#E2E2F0" rx="8" ry="8" style="stroke:#181818;stroke-width:0.5;"/><path d="M41,1200.6719 L41,1227.6719 M28,1208.6719 L54,1208.6719 M41,1227.6719 L28,1242.6719 M41,1227.6719 L54,1242.6719 " fill="none" style="stroke:#181818;stroke-width:0.5;"/><rect fill="#E2E2F0" height="37.2813" rx="2.5" ry="2.5" style="stroke:#181818;stroke-width:0.5;" width="154" x="378" y="87.2969"/><text fill="#000000" font-family="sans-serif" font-size="20" lengthAdjust="spacing" textLength="140" x="385" y="112.8613">User Interface</text><rect fill="#E2E2F0" height="37.2813" rx="2.5" ry="2.5" style="stroke:#181818;stroke-width:0.5;" width="154" x="378" y="1160.8906"/><text fill="#000000" font-family="sans-serif" font-size="20" lengthAdjust="spacing" textLength="140" x="385" y="1186.4551">User Interface</text><rect fill="#E2E2F0" height="37.2813" rx="2.5" ry="2.5" style="stroke:#181818;stroke-width:0.5;" width="184" x="810" y="87.2969"/><text fill="#000000" font-family="sans-serif" font-size="20" lengthAdjust="spacing" textLength="170" x="817" y="112.8613">PatientController</text><rect fill="#E2E2F0" height="37.2813" rx="2.5" ry="2.5" style="stroke:#181818;stroke-width:0.5;" width="184" x="810" y="1160.8906"/><text fill="#000000" font-family="sans-serif" font-size="20" lengthAdjust="spacing" textLength="170" x="817" y="1186.4551">PatientController</text><rect fill="#E2E2F0" height="37.2813" rx="2.5" ry="2.5" style="stroke:#181818;stroke-width:0.5;" width="158" x="1119" y="87.2969"/><text fill="#000000" font-family="sans-serif" font-size="20" lengthAdjust="spacing" textLength="144" x="1126" y="112.8613">PatientService</text><rect fill="#E2E2F0" height="37.2813" rx="2.5" ry="2.5" style="stroke:#181818;stroke-width:0.5;" width="158" x="1119" y="1160.8906"/><text fill="#000000" font-family="sans-serif" font-size="20" lengthAdjust="spacing" textLength="144" x="1126" y="1186.4551">PatientService</text><rect fill="#E2E2F0" height="37.2813" rx="2.5" ry="2.5" style="stroke:#181818;stroke-width:0.5;" width="191" x="1302.5" y="87.2969"/><text fill="#000000" font-family="sans-serif" font-size="20" lengthAdjust="spacing" textLength="177" x="1309.5" y="112.8613">PatientRepository</text><rect fill="#E2E2F0" height="37.2813" rx="2.5" ry="2.5" style="stroke:#181818;stroke-width:0.5;" width="191" x="1302.5" y="1160.8906"/><text fill="#000000" font-family="sans-serif" font-size="20" lengthAdjust="spacing" textLength="177" x="1309.5" y="1186.4551">PatientRepository</text><rect fill="#E2E2F0" height="37.2813" rx="2.5" ry="2.5" style="stroke:#181818;stroke-width:0.5;" width="156" x="1503.5" y="87.2969"/><text fill="#000000" font-family="sans-serif" font-size="20" lengthAdjust="spacing" textLength="142" x="1510.5" y="112.8613">LogRepository</text><rect fill="#E2E2F0" height="37.2813" rx="2.5" ry="2.5" style="stroke:#181818;stroke-width:0.5;" width="156" x="1503.5" y="1160.8906"/><text fill="#000000" font-family="sans-serif" font-size="20" lengthAdjust="spacing" textLength="142" x="1510.5" y="1186.4551">LogRepository</text><rect fill="#E2E2F0" height="37.2813" rx="2.5" ry="2.5" style="stroke:#181818;stroke-width:0.5;" width="160" x="1669.5" y="87.2969"/><text fill="#000000" font-family="sans-serif" font-size="20" lengthAdjust="spacing" textLength="146" x="1676.5" y="112.8613">PatientMapper</text><rect fill="#E2E2F0" height="37.2813" rx="2.5" ry="2.5" style="stroke:#181818;stroke-width:0.5;" width="160" x="1669.5" y="1160.8906"/><text fill="#000000" font-family="sans-serif" font-size="20" lengthAdjust="spacing" textLength="146" x="1676.5" y="1186.4551">PatientMapper</text><rect fill="#E2E2F0" height="37.2813" rx="2.5" ry="2.5" style="stroke:#181818;stroke-width:0.5;" width="128" x="2024.5" y="87.2969"/><text fill="#000000" font-family="sans-serif" font-size="20" lengthAdjust="spacing" textLength="114" x="2031.5" y="112.8613">PatientDTO</text><rect fill="#E2E2F0" height="37.2813" rx="2.5" ry="2.5" style="stroke:#181818;stroke-width:0.5;" width="128" x="2024.5" y="1160.8906"/><text fill="#000000" font-family="sans-serif" font-size="20" lengthAdjust="spacing" textLength="114" x="2031.5" y="1186.4551">PatientDTO</text><rect fill="#E2E2F0" height="37.2813" rx="2.5" ry="2.5" style="stroke:#181818;stroke-width:0.5;" width="50" x="2217.5" y="87.2969"/><text fill="#000000" font-family="sans-serif" font-size="20" lengthAdjust="spacing" textLength="36" x="2224.5" y="112.8613">Log</text><rect fill="#E2E2F0" height="37.2813" rx="2.5" ry="2.5" style="stroke:#181818;stroke-width:0.5;" width="50" x="2217.5" y="1160.8906"/><text fill="#000000" font-family="sans-serif" font-size="20" lengthAdjust="spacing" textLength="36" x="2224.5" y="1186.4551">Log</text><rect fill="#E2E2F0" height="37.2813" rx="2.5" ry="2.5" style="stroke:#181818;stroke-width:0.5;" width="108" x="2277.5" y="87.2969"/><text fill="#000000" font-family="sans-serif" font-size="20" lengthAdjust="spacing" textLength="94" x="2284.5" y="112.8613">Database</text><rect fill="#E2E2F0" height="37.2813" rx="2.5" ry="2.5" style="stroke:#181818;stroke-width:0.5;" width="108" x="2277.5" y="1160.8906"/><text fill="#000000" font-family="sans-serif" font-size="20" lengthAdjust="spacing" textLength="94" x="2284.5" y="1186.4551">Database</text><rect fill="#FFFFFF" height="1017.3125" style="stroke:#181818;stroke-width:1.0;" width="10" x="36" y="135.5781"/><rect fill="#FFFFFF" height="37.2813" style="stroke:#181818;stroke-width:1.0;" width="10" x="450" y="164.8594"/><rect fill="#FFFFFF" height="904.4688" style="stroke:#181818;stroke-width:1.0;" width="10" x="450" y="239.4219"/><rect fill="#FFFFFF" height="829.9063" style="stroke:#181818;stroke-width:1.0;" width="10" x="897" y="276.7031"/><rect fill="#FFFFFF" height="748.3438" style="stroke:#181818;stroke-width:1.0;" width="10" x="1193" y="313.9844"/><rect fill="#FFFFFF" height="111.8438" style="stroke:#181818;stroke-width:1.0;" width="10" x="1393" y="351.2656"/><rect fill="#FFFFFF" height="67.2813" style="stroke:#181818;stroke-width:1.0;" width="10" x="1393" y="603.5156"/><rect fill="#FFFFFF" height="67.2813" style="stroke:#181818;stroke-width:1.0;" width="10" x="1576.5" y="795.6406"/><rect fill="#FFFFFF" height="124.8438" style="stroke:#181818;stroke-width:1.0;" width="10" x="1744.5" y="900.2031"/><rect fill="#FFFFFF" height="43.2813" style="stroke:#181818;stroke-width:1.0;" width="10" x="2083.5" y="937.4844"/><rect fill="#FFFFFF" height="43.2813" style="stroke:#181818;stroke-width:1.0;" width="10" x="2237.5" y="708.0781"/><rect fill="#FFFFFF" height="37.2813" style="stroke:#181818;stroke-width:1.0;" width="10" x="2326.5" y="388.5469"/><rect fill="#FFFFFF" height="30" style="stroke:#181818;stroke-width:1.0;" width="10" x="2326.5" y="640.7969"/><rect fill="#FFFFFF" height="30" style="stroke:#181818;stroke-width:1.0;" width="10" x="2326.5" y="832.9219"/><polygon fill="#000000" points="438,160.8594,448,164.8594,438,168.8594,442,164.8594" style="stroke:#000000;stroke-width:1.0;"/><line style="stroke:#000000;stroke-width:1.0;" x1="46" x2="444" y1="164.8594" y2="164.8594"/><text fill="#000000" font-family="sans-serif" font-size="20" lengthAdjust="spacing" textLength="236" x="53" y="158.1426">Asks to delete a Patient</text><polygon fill="#000000" points="57,198.1406,47,202.1406,57,206.1406,53,202.1406" style="stroke:#000000;stroke-width:1.0;"/><line style="stroke:#000000;stroke-width:1.0;stroke-dasharray:2.0,2.0;" x1="51" x2="454" y1="202.1406" y2="202.1406"/><text fill="#000000" font-family="sans-serif" font-size="20" lengthAdjust="spacing" textLength="199" x="63" y="195.4238">Asks for Patient's ID</text><polygon fill="#000000" points="438,235.4219,448,239.4219,438,243.4219,442,239.4219" style="stroke:#000000;stroke-width:1.0;"/><line style="stroke:#000000;stroke-width:1.0;" x1="46" x2="444" y1="239.4219" y2="239.4219"/><text fill="#000000" font-family="sans-serif" font-size="20" lengthAdjust="spacing" textLength="181" x="53" y="232.7051">Sends Patient's ID</text><polygon fill="#000000" points="885,272.7031,895,276.7031,885,280.7031,889,276.7031" style="stroke:#000000;stroke-width:1.0;"/><line style="stroke:#000000;stroke-width:1.0;" x1="460" x2="891" y1="276.7031" y2="276.7031"/><text fill="#000000" font-family="sans-serif" font-size="20" lengthAdjust="spacing" textLength="267" x="467" y="269.9863">deletePatient(PatientID id)</text><polygon fill="#000000" points="1181,309.9844,1191,313.9844,1181,317.9844,1185,313.9844" style="stroke:#000000;stroke-width:1.0;"/><line style="stroke:#000000;stroke-width:1.0;stroke-dasharray:2.0,2.0;" x1="907" x2="1187" y1="313.9844" y2="313.9844"/><text fill="#000000" font-family="sans-serif" font-size="20" lengthAdjust="spacing" textLength="267" x="914" y="307.2676">deletePatient(PatientID id)</text><polygon fill="#000000" points="1381,347.2656,1391,351.2656,1381,355.2656,1385,351.2656" style="stroke:#000000;stroke-width:1.0;"/><line style="stroke:#000000;stroke-width:1.0;" x1="1203" x2="1387" y1="351.2656" y2="351.2656"/><text fill="#000000" font-family="sans-serif" font-size="20" lengthAdjust="spacing" textLength="171" x="1210" y="344.5488">getByIdAsync(id)</text><polygon fill="#000000" points="2314.5,384.5469,2324.5,388.5469,2314.5,392.5469,2318.5,388.5469" style="stroke:#000000;stroke-width:1.0;"/><line style="stroke:#000000;stroke-width:1.0;" x1="1403" x2="2320.5" y1="388.5469" y2="388.5469"/><text fill="#000000" font-family="sans-serif" font-size="20" lengthAdjust="spacing" textLength="568" x="1410" y="381.8301">_objs.Where(x =&gt; id.Equals(x.Id)).FirstOrDefaultAsync();</text><polygon fill="#000000" points="1414,421.8281,1404,425.8281,1414,429.8281,1410,425.8281" style="stroke:#000000;stroke-width:1.0;"/><line style="stroke:#000000;stroke-width:1.0;stroke-dasharray:2.0,2.0;" x1="1408" x2="2330.5" y1="425.8281" y2="425.8281"/><text fill="#000000" font-family="sans-serif" font-size="20" lengthAdjust="spacing" textLength="99" x="1420" y="419.1113">return var</text><polygon fill="#000000" points="1214,459.1094,1204,463.1094,1214,467.1094,1210,463.1094" style="stroke:#000000;stroke-width:1.0;"/><line style="stroke:#000000;stroke-width:1.0;stroke-dasharray:2.0,2.0;" x1="1208" x2="1397" y1="463.1094" y2="463.1094"/><text fill="#000000" font-family="sans-serif" font-size="20" lengthAdjust="spacing" textLength="99" x="1220" y="456.3926">return var</text><path d="M800,478.1094 L876,478.1094 L876,493.3906 L866,503.3906 L800,503.3906 L800,478.1094 " fill="#EEEEEE" style="stroke:#000000;stroke-width:1.5;"/><rect fill="none" height="592.2188" style="stroke:#000000;stroke-width:1.5;" width="1595.5" x="800" y="478.1094"/><text fill="#000000" font-family="sans-serif" font-size="20" font-weight="bold" lengthAdjust="spacing" textLength="31" x="815" y="497.6738">alt</text><text fill="#000000" font-family="sans-serif" font-size="20" font-weight="bold" lengthAdjust="spacing" textLength="130" x="891" y="498.6738">[var is null]</text><polygon fill="#000000" points="918,536.9531,908,540.9531,918,544.9531,914,540.9531" style="stroke:#000000;stroke-width:1.0;"/><line style="stroke:#000000;stroke-width:1.0;stroke-dasharray:2.0,2.0;" x1="912" x2="1192" y1="540.9531" y2="540.9531"/><text fill="#000000" font-family="sans-serif" font-size="20" lengthAdjust="spacing" textLength="106" x="924" y="534.2363">return null</text><line style="stroke:#000000;stroke-width:1.0;stroke-dasharray:2.0,2.0;" x1="800" x2="2395.5" y1="549.9531" y2="549.9531"/><text fill="#000000" font-family="sans-serif" font-size="20" font-weight="bold" lengthAdjust="spacing" textLength="175" x="805" y="568.5176">[var is not null]</text><polygon fill="#000000" points="1381,599.5156,1391,603.5156,1381,607.5156,1385,603.5156" style="stroke:#000000;stroke-width:1.0;"/><line style="stroke:#000000;stroke-width:1.0;" x1="1203" x2="1387" y1="603.5156" y2="603.5156"/><text fill="#000000" font-family="sans-serif" font-size="20" lengthAdjust="spacing" textLength="169" x="1210" y="596.7988">Remove(patient)</text><polygon fill="#000000" points="2314.5,636.7969,2324.5,640.7969,2314.5,644.7969,2318.5,640.7969" style="stroke:#000000;stroke-width:1.0;"/><line style="stroke:#000000;stroke-width:1.0;" x1="1403" x2="2320.5" y1="640.7969" y2="640.7969"/><text fill="#000000" font-family="sans-serif" font-size="20" lengthAdjust="spacing" textLength="226" x="1410" y="634.0801">_objs.Remove(patient)</text><polygon fill="#000000" points="2225.5,704.0781,2235.5,708.0781,2225.5,712.0781,2229.5,708.0781" style="stroke:#000000;stroke-width:1.0;"/><line style="stroke:#000000;stroke-width:1.0;stroke-dasharray:2.0,2.0;" x1="1203" x2="2231.5" y1="708.0781" y2="708.0781"/><text fill="#000000" font-family="sans-serif" font-size="20" lengthAdjust="spacing" textLength="596" x="1210" y="701.3613">new Log(TypeOfAction.Delete, patientId, "Patient Deleted")</text><line style="stroke:#000000;stroke-width:1.0;stroke-dasharray:2.0,2.0;" x1="2247.5" x2="2289.5" y1="750.3594" y2="750.3594"/><line style="stroke:#000000;stroke-width:1.0;stroke-dasharray:2.0,2.0;" x1="2289.5" x2="2289.5" y1="750.3594" y2="763.3594"/><line style="stroke:#000000;stroke-width:1.0;stroke-dasharray:2.0,2.0;" x1="2242.5" x2="2289.5" y1="763.3594" y2="763.3594"/><polygon fill="#000000" points="2252.5,759.3594,2242.5,763.3594,2252.5,767.3594,2248.5,763.3594" style="stroke:#000000;stroke-width:1.0;"/><text fill="#000000" font-family="sans-serif" font-size="20" lengthAdjust="spacing" textLength="52" x="2254.5" y="743.6426">Log()</text><polygon fill="#000000" points="1564.5,791.6406,1574.5,795.6406,1564.5,799.6406,1568.5,795.6406" style="stroke:#000000;stroke-width:1.0;"/><line style="stroke:#000000;stroke-width:1.0;stroke-dasharray:2.0,2.0;" x1="1203" x2="1570.5" y1="795.6406" y2="795.6406"/><text fill="#000000" font-family="sans-serif" font-size="20" lengthAdjust="spacing" textLength="146" x="1210" y="788.9238">AddAsync(log)</text><polygon fill="#000000" points="2314.5,828.9219,2324.5,832.9219,2314.5,836.9219,2318.5,832.9219" style="stroke:#000000;stroke-width:1.0;"/><line style="stroke:#000000;stroke-width:1.0;" x1="1586.5" x2="2320.5" y1="832.9219" y2="832.9219"/><text fill="#000000" font-family="sans-serif" font-size="20" lengthAdjust="spacing" textLength="203" x="1593.5" y="826.2051">_objs.AddAsync(log)</text><polygon fill="#000000" points="1732.5,896.2031,1742.5,900.2031,1732.5,904.2031,1736.5,900.2031" style="stroke:#000000;stroke-width:1.0;"/><line style="stroke:#000000;stroke-width:1.0;stroke-dasharray:2.0,2.0;" x1="1203" x2="1738.5" y1="900.2031" y2="900.2031"/><text fill="#000000" font-family="sans-serif" font-size="20" lengthAdjust="spacing" textLength="147" x="1210" y="893.4863">ToDto(patient)</text><polygon fill="#000000" points="2071.5,933.4844,2081.5,937.4844,2071.5,941.4844,2075.5,937.4844" style="stroke:#000000;stroke-width:1.0;"/><line style="stroke:#000000;stroke-width:1.0;" x1="1754.5" x2="2077.5" y1="937.4844" y2="937.4844"/><text fill="#000000" font-family="sans-serif" font-size="20" lengthAdjust="spacing" textLength="310" x="1761.5" y="930.7676">new PatientDTO(patient fields)</text><line style="stroke:#000000;stroke-width:1.0;" x1="2093.5" x2="2135.5" y1="979.7656" y2="979.7656"/><line style="stroke:#000000;stroke-width:1.0;" x1="2135.5" x2="2135.5" y1="979.7656" y2="992.7656"/><line style="stroke:#000000;stroke-width:1.0;" x1="2088.5" x2="2135.5" y1="992.7656" y2="992.7656"/><polygon fill="#000000" points="2098.5,988.7656,2088.5,992.7656,2098.5,996.7656,2094.5,992.7656" style="stroke:#000000;stroke-width:1.0;"/><text fill="#000000" font-family="sans-serif" font-size="20" lengthAdjust="spacing" textLength="130" x="2100.5" y="973.0488">PatientDTO()</text><polygon fill="#000000" points="1214,1021.0469,1204,1025.0469,1214,1029.0469,1210,1025.0469" style="stroke:#000000;stroke-width:1.0;"/><line style="stroke:#000000;stroke-width:1.0;stroke-dasharray:2.0,2.0;" x1="1208" x2="1748.5" y1="1025.0469" y2="1025.0469"/><text fill="#000000" font-family="sans-serif" font-size="20" lengthAdjust="spacing" textLength="101" x="1220" y="1018.3301">return dto</text><polygon fill="#000000" points="918,1058.3281,908,1062.3281,918,1066.3281,914,1062.3281" style="stroke:#000000;stroke-width:1.0;"/><line style="stroke:#000000;stroke-width:1.0;stroke-dasharray:2.0,2.0;" x1="912" x2="1197" y1="1062.3281" y2="1062.3281"/><text fill="#000000" font-family="sans-serif" font-size="20" lengthAdjust="spacing" textLength="101" x="924" y="1055.6113">return dto</text><polygon fill="#000000" points="471,1102.6094,461,1106.6094,471,1110.6094,467,1106.6094" style="stroke:#000000;stroke-width:1.0;"/><line style="stroke:#000000;stroke-width:1.0;stroke-dasharray:2.0,2.0;" x1="465" x2="901" y1="1106.6094" y2="1106.6094"/><text fill="#000000" font-family="sans-serif" font-size="20" lengthAdjust="spacing" textLength="413" x="477" y="1099.8926">Returns Operation Status Response Code</text><polygon fill="#000000" points="57,1139.8906,47,1143.8906,57,1147.8906,53,1143.8906" style="stroke:#000000;stroke-width:1.0;"/><line style="stroke:#000000;stroke-width:1.0;stroke-dasharray:2.0,2.0;" x1="51" x2="454" y1="1143.8906" y2="1143.8906"/><text fill="#000000" font-family="sans-serif" font-size="20" lengthAdjust="spacing" textLength="380" x="63" y="1137.1738">Returns Operation In/Sucess message</text><!--SRC=[ZPNTRzem4C3V_LUSkeU2rB6jqxxOXfGFa285CIMjzZYvoK7TcZYp3IsRzh_luWG8QJQL1wBS_UxJTuwv5qN9DLzBbTrZ3Zak-KRQcIfiAduXNBvcp0eh4MBSeeIt40g-8fwnMv4ZuBgqErZZ-WQrOUTcxmvYKQ3TbGXAsrl5s56JIMuC_6P0FvzdzokjDaKUAAdqbozRBZUukBd3p4ucy29yF_Lc7_jHhPHZPk7K3r_tCmRrLcJeNBsPNKxzFenSJ6UVfX-SpjDQFTHYNnB7_hHpBqd2LzYVFRoO-hDtCxyouPabWPUlHG7SWCV8tefCbBomS7PDUK5KMDHBdk5PHLn7fyWtRWKMDg23q4fAr8uAUg6qhj8HQI-HOAcCe9Hs3afEeLYjEa2SzBgPyx9iCfdt0k7Lmcdf-IH4xVXK77BBRxYfKmzzvXedjjmYjSo3bnFgonWySs_0AXfEYQJXq4GxmjIzwmXU4kyr-9BQts3d1gAGvTYc3xvJB79pIdQzJY0ODx4RRj0yen14FZmQ12nmIQJFv5EMLkwJCQpG-hiezyoko0OdJCAIYWdzCVnGDtTczFqMDGuUuUk4d8scFpTSci7ZACg7mz5CQ6CNEgotkFOs_7nqHYqEVPSYnTHeDxg0BTVjvX2Ix8le9nB6fQs480mK6odTCgJEA3WOEGLAWmTIsHFQvP3WMcrnKDRz6JfTAr3rsYd_lnPXlU2dvNGaIIlTU0m5FW1Dv-2ABgl5qYDA5QFGdTu5D56Y_E8mub3hyhDEwDYzndktbSjXDtJS3atLUtbpubAjkkxgDEDEzV-nU4xjSRlu-HYkL6ZLFtevTwzp5_zgKJVgkEPx8rWAbBdfvaBxNmdeUR1lsJvfp9wVToOljwgBpdkdhGTC6Qrsiv3LfYUEDB2WAunNfmofvNP3jo6QKXKqg87AiJteGUjIUMeT5Q_IJORqBLlJ7tqLEbSC-mi0]--></g></svg>