<?xml version="1.0" encoding="UTF-8" standalone="no"?><svg xmlns="http://www.w3.org/2000/svg" xmlns:xlink="http://www.w3.org/1999/xlink" contentStyleType="text/css" height="1434px" preserveAspectRatio="none" style="width:2862px;height:1434px;background:#FFFFFF;" version="1.1" viewBox="0 0 2862 1434" width="2862px" zoomAndPan="magnify"><defs><filter height="300%" id="f1sc9r440xiuee" width="300%" x="-1" y="-1"><feGaussianBlur result="blurOut" stdDeviation="2.0"/><feColorMatrix in="blurOut" result="blurOut2" type="matrix" values="0 0 0 0 0 0 0 0 0 0 0 0 0 0 0 0 0 0 .4 0"/><feOffset dx="4.0" dy="4.0" in="blurOut2" result="blurOut3"/><feBlend in="SourceGraphic" in2="blurOut3" mode="normal"/></filter></defs><g><rect fill="#FFFFFF" filter="url(#f1sc9r440xiuee)" height="1236.125" style="stroke:#181818;stroke-width:1.0;" width="10" x="40.5" y="101.2813"/><rect fill="#FFFFFF" filter="url(#f1sc9r440xiuee)" height="240.9688" style="stroke:#181818;stroke-width:1.0;" width="10" x="428.5" y="130.5625"/><rect fill="#FFFFFF" filter="url(#f1sc9r440xiuee)" height="189.6875" style="stroke:#181818;stroke-width:1.0;" width="10" x="710.5" y="167.8438"/><rect fill="#FFFFFF" filter="url(#f1sc9r440xiuee)" height="133.125" style="stroke:#181818;stroke-width:1.0;" width="10" x="710.5" y="1158"/><rect fill="#FFFFFF" filter="url(#f1sc9r440xiuee)" height="152.4063" style="stroke:#181818;stroke-width:1.0;" width="10" x="1792.5" y="205.125"/><rect fill="#FFFFFF" filter="url(#f1sc9r440xiuee)" height="37.2813" style="stroke:#181818;stroke-width:1.0;" width="10" x="2471.5" y="242.4063"/><rect fill="#FFFFFF" filter="url(#f1sc9r440xiuee)" height="37.2813" style="stroke:#181818;stroke-width:1.0;" width="10" x="2471.5" y="853.4688"/><rect fill="#FFFFFF" filter="url(#f1sc9r440xiuee)" height="74.5625" style="stroke:#181818;stroke-width:1.0;" width="10" x="2471.5" y="1005.875"/><rect fill="none" filter="url(#f1sc9r440xiuee)" height="84.8438" style="stroke:#000000;stroke-width:1.5;" width="1865" x="10" y="294.6875"/><rect fill="none" filter="url(#f1sc9r440xiuee)" height="84.8438" style="stroke:#000000;stroke-width:1.5;" width="1250" x="625" y="430.8125"/><rect fill="none" filter="url(#f1sc9r440xiuee)" height="84.8438" style="stroke:#000000;stroke-width:1.5;" width="1250" x="625" y="566.9375"/><rect fill="none" filter="url(#f1sc9r440xiuee)" height="551.7813" style="stroke:#000000;stroke-width:1.5;" width="2235" x="615" y="703.0625"/><rect fill="none" filter="url(#f1sc9r440xiuee)" height="145.4063" style="stroke:#000000;stroke-width:1.5;" width="1945.5" x="625" y="943.0313"/><line style="stroke:#181818;stroke-width:0.5;stroke-dasharray:5.0,5.0;" x1="45" x2="45" y1="91.2813" y2="1346.4063"/><line style="stroke:#181818;stroke-width:0.5;stroke-dasharray:5.0,5.0;" x1="433" x2="433" y1="91.2813" y2="1346.4063"/><line style="stroke:#181818;stroke-width:0.5;stroke-dasharray:5.0,5.0;" x1="715" x2="715" y1="91.2813" y2="1346.4063"/><line style="stroke:#181818;stroke-width:0.5;stroke-dasharray:5.0,5.0;" x1="1797" x2="1797" y1="91.2813" y2="1346.4063"/><line style="stroke:#181818;stroke-width:0.5;stroke-dasharray:5.0,5.0;" x1="2005" x2="2005" y1="91.2813" y2="1346.4063"/><line style="stroke:#181818;stroke-width:0.5;stroke-dasharray:5.0,5.0;" x1="2164.5" x2="2164.5" y1="91.2813" y2="1346.4063"/><line style="stroke:#181818;stroke-width:0.5;stroke-dasharray:5.0,5.0;" x1="2476.5" x2="2476.5" y1="91.2813" y2="1346.4063"/><line style="stroke:#181818;stroke-width:0.5;stroke-dasharray:5.0,5.0;" x1="2784" x2="2784" y1="91.2813" y2="1346.4063"/><text fill="#000000" font-family="FG Virgil" font-size="20" lengthAdjust="spacing" textLength="45" x="20" y="86.5645">User</text><ellipse cx="45.5" cy="13.5" fill="#E2E2F0" filter="url(#f1sc9r440xiuee)" rx="8" ry="8" style="stroke:#181818;stroke-width:0.5;"/><path d="M45.5,21.5 L45.5,48.5 M32.5,29.5 L58.5,29.5 M45.5,48.5 L32.5,63.5 M45.5,48.5 L58.5,63.5 " fill="none" filter="url(#f1sc9r440xiuee)" style="stroke:#181818;stroke-width:0.5;"/><text fill="#000000" font-family="FG Virgil" font-size="20" lengthAdjust="spacing" textLength="45" x="20" y="1363.9707">User</text><ellipse cx="45.5" cy="1377.1875" fill="#E2E2F0" filter="url(#f1sc9r440xiuee)" rx="8" ry="8" style="stroke:#181818;stroke-width:0.5;"/><path d="M45.5,1385.1875 L45.5,1412.1875 M32.5,1393.1875 L58.5,1393.1875 M45.5,1412.1875 L32.5,1427.1875 M45.5,1412.1875 L58.5,1427.1875 " fill="none" filter="url(#f1sc9r440xiuee)" style="stroke:#181818;stroke-width:0.5;"/><rect fill="#E2E2F0" filter="url(#f1sc9r440xiuee)" height="37.2813" rx="2.5" ry="2.5" style="stroke:#181818;stroke-width:0.5;" width="154" x="355" y="50"/><text fill="#000000" font-family="FG Virgil" font-size="20" lengthAdjust="spacing" textLength="140" x="362" y="75.5645">User Interface</text><rect fill="#E2E2F0" filter="url(#f1sc9r440xiuee)" height="37.2813" rx="2.5" ry="2.5" style="stroke:#181818;stroke-width:0.5;" width="154" x="355" y="1345.4063"/><text fill="#000000" font-family="FG Virgil" font-size="20" lengthAdjust="spacing" textLength="140" x="362" y="1370.9707">User Interface</text><rect fill="#E2E2F0" filter="url(#f1sc9r440xiuee)" height="37.2813" rx="2.5" ry="2.5" style="stroke:#181818;stroke-width:0.5;" width="158" x="635" y="50"/><text fill="#000000" font-family="FG Virgil" font-size="20" lengthAdjust="spacing" textLength="144" x="642" y="75.5645">UserController</text><rect fill="#E2E2F0" filter="url(#f1sc9r440xiuee)" height="37.2813" rx="2.5" ry="2.5" style="stroke:#181818;stroke-width:0.5;" width="158" x="635" y="1345.4063"/><text fill="#000000" font-family="FG Virgil" font-size="20" lengthAdjust="spacing" textLength="144" x="642" y="1370.9707">UserController</text><rect fill="#E2E2F0" filter="url(#f1sc9r440xiuee)" height="37.2813" rx="2.5" ry="2.5" style="stroke:#181818;stroke-width:0.5;" width="132" x="1730" y="50"/><text fill="#000000" font-family="FG Virgil" font-size="20" lengthAdjust="spacing" textLength="118" x="1737" y="75.5645">UserService</text><rect fill="#E2E2F0" filter="url(#f1sc9r440xiuee)" height="37.2813" rx="2.5" ry="2.5" style="stroke:#181818;stroke-width:0.5;" width="132" x="1730" y="1345.4063"/><text fill="#000000" font-family="FG Virgil" font-size="20" lengthAdjust="spacing" textLength="118" x="1737" y="1370.9707">UserService</text><rect fill="#E2E2F0" filter="url(#f1sc9r440xiuee)" height="37.2813" rx="2.5" ry="2.5" style="stroke:#181818;stroke-width:0.5;" width="128" x="1940" y="50"/><text fill="#000000" font-family="FG Virgil" font-size="20" lengthAdjust="spacing" textLength="114" x="1947" y="75.5645">MailService</text><rect fill="#E2E2F0" filter="url(#f1sc9r440xiuee)" height="37.2813" rx="2.5" ry="2.5" style="stroke:#181818;stroke-width:0.5;" width="128" x="1940" y="1345.4063"/><text fill="#000000" font-family="FG Virgil" font-size="20" lengthAdjust="spacing" textLength="114" x="1947" y="1370.9707">MailService</text><rect fill="#E2E2F0" filter="url(#f1sc9r440xiuee)" height="37.2813" rx="2.5" ry="2.5" style="stroke:#181818;stroke-width:0.5;" width="59" x="2133.5" y="50"/><text fill="#000000" font-family="FG Virgil" font-size="20" lengthAdjust="spacing" textLength="45" x="2140.5" y="75.5645">User</text><rect fill="#E2E2F0" filter="url(#f1sc9r440xiuee)" height="37.2813" rx="2.5" ry="2.5" style="stroke:#181818;stroke-width:0.5;" width="59" x="2133.5" y="1345.4063"/><text fill="#000000" font-family="FG Virgil" font-size="20" lengthAdjust="spacing" textLength="45" x="2140.5" y="1370.9707">User</text><rect fill="#E2E2F0" filter="url(#f1sc9r440xiuee)" height="37.2813" rx="2.5" ry="2.5" style="stroke:#181818;stroke-width:0.5;" width="165" x="2392.5" y="50"/><text fill="#000000" font-family="FG Virgil" font-size="20" lengthAdjust="spacing" textLength="151" x="2399.5" y="75.5645">UserRepository</text><rect fill="#E2E2F0" filter="url(#f1sc9r440xiuee)" height="37.2813" rx="2.5" ry="2.5" style="stroke:#181818;stroke-width:0.5;" width="165" x="2392.5" y="1345.4063"/><text fill="#000000" font-family="FG Virgil" font-size="20" lengthAdjust="spacing" textLength="151" x="2399.5" y="1370.9707">UserRepository</text><rect fill="#E2E2F0" filter="url(#f1sc9r440xiuee)" height="37.2813" rx="2.5" ry="2.5" style="stroke:#181818;stroke-width:0.5;" width="108" x="2729" y="50"/><text fill="#000000" font-family="FG Virgil" font-size="20" lengthAdjust="spacing" textLength="94" x="2736" y="75.5645">Database</text><rect fill="#E2E2F0" filter="url(#f1sc9r440xiuee)" height="37.2813" rx="2.5" ry="2.5" style="stroke:#181818;stroke-width:0.5;" width="108" x="2729" y="1345.4063"/><text fill="#000000" font-family="FG Virgil" font-size="20" lengthAdjust="spacing" textLength="94" x="2736" y="1370.9707">Database</text><rect fill="#FFFFFF" filter="url(#f1sc9r440xiuee)" height="1236.125" style="stroke:#181818;stroke-width:1.0;" width="10" x="40.5" y="101.2813"/><rect fill="#FFFFFF" filter="url(#f1sc9r440xiuee)" height="240.9688" style="stroke:#181818;stroke-width:1.0;" width="10" x="428.5" y="130.5625"/><rect fill="#FFFFFF" filter="url(#f1sc9r440xiuee)" height="189.6875" style="stroke:#181818;stroke-width:1.0;" width="10" x="710.5" y="167.8438"/><rect fill="#FFFFFF" filter="url(#f1sc9r440xiuee)" height="133.125" style="stroke:#181818;stroke-width:1.0;" width="10" x="710.5" y="1158"/><rect fill="#FFFFFF" filter="url(#f1sc9r440xiuee)" height="152.4063" style="stroke:#181818;stroke-width:1.0;" width="10" x="1792.5" y="205.125"/><rect fill="#FFFFFF" filter="url(#f1sc9r440xiuee)" height="37.2813" style="stroke:#181818;stroke-width:1.0;" width="10" x="2471.5" y="242.4063"/><rect fill="#FFFFFF" filter="url(#f1sc9r440xiuee)" height="37.2813" style="stroke:#181818;stroke-width:1.0;" width="10" x="2471.5" y="853.4688"/><rect fill="#FFFFFF" filter="url(#f1sc9r440xiuee)" height="74.5625" style="stroke:#181818;stroke-width:1.0;" width="10" x="2471.5" y="1005.875"/><polygon fill="#181818" points="416.5,126.5625,426.5,130.5625,416.5,134.5625,420.5,130.5625" style="stroke:#181818;stroke-width:1.0;"/><line style="stroke:#181818;stroke-width:1.0;" x1="50.5" x2="422.5" y1="130.5625" y2="130.5625"/><text fill="#000000" font-family="FG Virgil" font-size="20" lengthAdjust="spacing" textLength="359" x="57.5" y="123.8457">Requests to login (Email, Password)</text><polygon fill="#181818" points="698.5,163.8438,708.5,167.8438,698.5,171.8438,702.5,167.8438" style="stroke:#181818;stroke-width:1.0;"/><line style="stroke:#181818;stroke-width:1.0;" x1="438.5" x2="704.5" y1="167.8438" y2="167.8438"/><text fill="#000000" font-family="FG Virgil" font-size="20" lengthAdjust="spacing" textLength="253" x="445.5" y="161.127">Login(LoginUserDTO dto)</text><polygon fill="#181818" points="1780.5,201.125,1790.5,205.125,1780.5,209.125,1784.5,205.125" style="stroke:#181818;stroke-width:1.0;"/><line style="stroke:#181818;stroke-width:1.0;" x1="720.5" x2="1786.5" y1="205.125" y2="205.125"/><text fill="#000000" font-family="FG Virgil" font-size="20" lengthAdjust="spacing" textLength="253" x="727.5" y="198.4082">Login(LoginUserDTO dto)</text><polygon fill="#181818" points="2459.5,238.4063,2469.5,242.4063,2459.5,246.4063,2463.5,242.4063" style="stroke:#181818;stroke-width:1.0;"/><line style="stroke:#181818;stroke-width:1.0;" x1="1802.5" x2="2465.5" y1="242.4063" y2="242.4063"/><text fill="#000000" font-family="FG Virgil" font-size="20" lengthAdjust="spacing" textLength="334" x="1809.5" y="235.6895">GetUserByEmailAsync(dto.Email)</text><polygon fill="#181818" points="1813.5,275.6875,1803.5,279.6875,1813.5,283.6875,1809.5,279.6875" style="stroke:#181818;stroke-width:1.0;"/><line style="stroke:#181818;stroke-width:1.0;stroke-dasharray:2.0,2.0;" x1="1807.5" x2="2475.5" y1="279.6875" y2="279.6875"/><text fill="#000000" font-family="FG Virgil" font-size="20" lengthAdjust="spacing" textLength="464" x="1819.5" y="272.9707">return User (if found) or null (if not registered)</text><path d="M10,294.6875 L86,294.6875 L86,309.9688 L76,319.9688 L10,319.9688 L10,294.6875 " fill="#EEEEEE" style="stroke:#000000;stroke-width:1.5;"/><rect fill="none" height="84.8438" style="stroke:#000000;stroke-width:1.5;" width="1865" x="10" y="294.6875"/><text fill="#000000" font-family="FG Virgil" font-size="20" font-weight="bold" lengthAdjust="spacing" textLength="31" x="25" y="314.252">alt</text><text fill="#000000" font-family="FG Virgil" font-size="20" font-weight="bold" lengthAdjust="spacing" textLength="241" x="101" y="315.252">[User not registered]</text><polygon fill="#181818" points="726.5,353.5313,716.5,357.5313,726.5,361.5313,722.5,357.5313" style="stroke:#181818;stroke-width:1.0;"/><line style="stroke:#181818;stroke-width:1.0;stroke-dasharray:2.0,2.0;" x1="720.5" x2="1796.5" y1="357.5313" y2="357.5313"/><text fill="#000000" font-family="FG Virgil" font-size="20" lengthAdjust="spacing" textLength="403" x="732.5" y="350.8145">throw Exception("Email not registered")</text><polygon fill="#181818" points="61.5,367.5313,51.5,371.5313,61.5,375.5313,57.5,371.5313" style="stroke:#181818;stroke-width:1.0;"/><line style="stroke:#181818;stroke-width:1.0;stroke-dasharray:2.0,2.0;" x1="55.5" x2="432.5" y1="371.5313" y2="371.5313"/><polygon fill="#181818" points="2152.5,411.8125,2162.5,415.8125,2152.5,419.8125,2156.5,415.8125" style="stroke:#181818;stroke-width:1.0;"/><line style="stroke:#181818;stroke-width:1.0;" x1="1797.5" x2="2158.5" y1="415.8125" y2="415.8125"/><text fill="#000000" font-family="FG Virgil" font-size="20" lengthAdjust="spacing" textLength="220" x="1804.5" y="409.0957">Check if User is active</text><path d="M625,430.8125 L701,430.8125 L701,446.0938 L691,456.0938 L625,456.0938 L625,430.8125 " fill="#EEEEEE" style="stroke:#000000;stroke-width:1.5;"/><rect fill="none" height="84.8438" style="stroke:#000000;stroke-width:1.5;" width="1250" x="625" y="430.8125"/><text fill="#000000" font-family="FG Virgil" font-size="20" font-weight="bold" lengthAdjust="spacing" textLength="31" x="640" y="450.377">alt</text><text fill="#000000" font-family="FG Virgil" font-size="20" font-weight="bold" lengthAdjust="spacing" textLength="192" x="716" y="451.377">[User not active]</text><polygon fill="#181818" points="726.5,489.6563,716.5,493.6563,726.5,497.6563,722.5,493.6563" style="stroke:#181818;stroke-width:1.0;"/><line style="stroke:#181818;stroke-width:1.0;stroke-dasharray:2.0,2.0;" x1="720.5" x2="1796.5" y1="493.6563" y2="493.6563"/><text fill="#000000" font-family="FG Virgil" font-size="20" lengthAdjust="spacing" textLength="690" x="732.5" y="486.9395">return "User is not active. Check your Email to activate the account."</text><polygon fill="#181818" points="1785.5,503.6563,1795.5,507.6563,1785.5,511.6563,1789.5,507.6563" style="stroke:#181818;stroke-width:1.0;"/><line style="stroke:#181818;stroke-width:1.0;stroke-dasharray:2.0,2.0;" x1="715.5" x2="1791.5" y1="507.6563" y2="507.6563"/><polygon fill="#181818" points="2152.5,547.9375,2162.5,551.9375,2152.5,555.9375,2156.5,551.9375" style="stroke:#181818;stroke-width:1.0;"/><line style="stroke:#181818;stroke-width:1.0;" x1="1797.5" x2="2158.5" y1="551.9375" y2="551.9375"/><text fill="#000000" font-family="FG Virgil" font-size="20" lengthAdjust="spacing" textLength="261" x="1804.5" y="545.2207">Check if account is locked</text><path d="M625,566.9375 L701,566.9375 L701,582.2188 L691,592.2188 L625,592.2188 L625,566.9375 " fill="#EEEEEE" style="stroke:#000000;stroke-width:1.5;"/><rect fill="none" height="84.8438" style="stroke:#000000;stroke-width:1.5;" width="1250" x="625" y="566.9375"/><text fill="#000000" font-family="FG Virgil" font-size="20" font-weight="bold" lengthAdjust="spacing" textLength="31" x="640" y="586.502">alt</text><text fill="#000000" font-family="FG Virgil" font-size="20" font-weight="bold" lengthAdjust="spacing" textLength="190" x="716" y="587.502">[Account locked]</text><polygon fill="#181818" points="726.5,625.7813,716.5,629.7813,726.5,633.7813,722.5,629.7813" style="stroke:#181818;stroke-width:1.0;"/><line style="stroke:#181818;stroke-width:1.0;stroke-dasharray:2.0,2.0;" x1="720.5" x2="1796.5" y1="629.7813" y2="629.7813"/><text fill="#000000" font-family="FG Virgil" font-size="20" lengthAdjust="spacing" textLength="794" x="732.5" y="623.0645">return "Your account is locked until {user.LockedUntil}. Please try again later."</text><polygon fill="#181818" points="1785.5,639.7813,1795.5,643.7813,1785.5,647.7813,1789.5,643.7813" style="stroke:#181818;stroke-width:1.0;"/><line style="stroke:#181818;stroke-width:1.0;stroke-dasharray:2.0,2.0;" x1="715.5" x2="1791.5" y1="643.7813" y2="643.7813"/><polygon fill="#181818" points="2152.5,684.0625,2162.5,688.0625,2152.5,692.0625,2156.5,688.0625" style="stroke:#181818;stroke-width:1.0;"/><line style="stroke:#181818;stroke-width:1.0;" x1="1797.5" x2="2158.5" y1="688.0625" y2="688.0625"/><text fill="#000000" font-family="FG Virgil" font-size="20" lengthAdjust="spacing" textLength="158" x="1804.5" y="681.3457">Verify Password</text><path d="M615,703.0625 L691,703.0625 L691,718.3438 L681,728.3438 L615,728.3438 L615,703.0625 " fill="#EEEEEE" style="stroke:#000000;stroke-width:1.5;"/><rect fill="none" height="551.7813" style="stroke:#000000;stroke-width:1.5;" width="2235" x="615" y="703.0625"/><text fill="#000000" font-family="FG Virgil" font-size="20" font-weight="bold" lengthAdjust="spacing" textLength="31" x="630" y="722.627">alt</text><text fill="#000000" font-family="FG Virgil" font-size="20" font-weight="bold" lengthAdjust="spacing" textLength="207" x="706" y="723.627">[Wrong password]</text><line style="stroke:#181818;stroke-width:1.0;" x1="2164.5" x2="2206.5" y1="765.9063" y2="765.9063"/><line style="stroke:#181818;stroke-width:1.0;" x1="2206.5" x2="2206.5" y1="765.9063" y2="778.9063"/><line style="stroke:#181818;stroke-width:1.0;" x1="2165.5" x2="2206.5" y1="778.9063" y2="778.9063"/><polygon fill="#181818" points="2175.5,774.9063,2165.5,778.9063,2175.5,782.9063,2171.5,778.9063" style="stroke:#181818;stroke-width:1.0;"/><text fill="#000000" font-family="FG Virgil" font-size="20" lengthAdjust="spacing" textLength="298" x="2171.5" y="759.1895">RegisterFailedLoginAttempt()</text><polygon fill="#181818" points="2464.5,812.1875,2474.5,816.1875,2464.5,820.1875,2468.5,816.1875" style="stroke:#181818;stroke-width:1.0;"/><line style="stroke:#181818;stroke-width:1.0;" x1="1797.5" x2="2470.5" y1="816.1875" y2="816.1875"/><text fill="#000000" font-family="FG Virgil" font-size="20" lengthAdjust="spacing" textLength="191" x="1804.5" y="809.4707">UpdateAsync(user)</text><polygon fill="#181818" points="2772.5,849.4688,2782.5,853.4688,2772.5,857.4688,2776.5,853.4688" style="stroke:#181818;stroke-width:1.0;"/><line style="stroke:#181818;stroke-width:1.0;" x1="2481.5" x2="2778.5" y1="853.4688" y2="853.4688"/><text fill="#000000" font-family="FG Virgil" font-size="20" lengthAdjust="spacing" textLength="284" x="2488.5" y="846.752">Update user in the database</text><polygon fill="#181818" points="1808.5,886.75,1798.5,890.75,1808.5,894.75,1804.5,890.75" style="stroke:#181818;stroke-width:1.0;"/><line style="stroke:#181818;stroke-width:1.0;stroke-dasharray:2.0,2.0;" x1="1802.5" x2="2475.5" y1="890.75" y2="890.75"/><text fill="#000000" font-family="FG Virgil" font-size="20" lengthAdjust="spacing" textLength="62" x="1814.5" y="884.0332">return</text><polygon fill="#181818" points="2152.5,924.0313,2162.5,928.0313,2152.5,932.0313,2156.5,928.0313" style="stroke:#181818;stroke-width:1.0;"/><line style="stroke:#181818;stroke-width:1.0;" x1="1797.5" x2="2158.5" y1="928.0313" y2="928.0313"/><text fill="#000000" font-family="FG Virgil" font-size="20" lengthAdjust="spacing" textLength="343" x="1804.5" y="921.3145">Check if account should be locked</text><path d="M625,943.0313 L701,943.0313 L701,958.3125 L691,968.3125 L625,968.3125 L625,943.0313 " fill="#EEEEEE" style="stroke:#000000;stroke-width:1.5;"/><rect fill="none" height="145.4063" style="stroke:#000000;stroke-width:1.5;" width="1945.5" x="625" y="943.0313"/><text fill="#000000" font-family="FG Virgil" font-size="20" font-weight="bold" lengthAdjust="spacing" textLength="31" x="640" y="962.5957">alt</text><text fill="#000000" font-family="FG Virgil" font-size="20" font-weight="bold" lengthAdjust="spacing" textLength="247" x="716" y="963.5957">[Account gets locked]</text><polygon fill="#181818" points="726.5,1001.875,716.5,1005.875,726.5,1009.875,722.5,1005.875" style="stroke:#181818;stroke-width:1.0;"/><line style="stroke:#181818;stroke-width:1.0;stroke-dasharray:2.0,2.0;" x1="720.5" x2="1796.5" y1="1005.875" y2="1005.875"/><text fill="#000000" font-family="FG Virgil" font-size="20" lengthAdjust="spacing" textLength="1058" x="732.5" y="999.1582">return "Your account has been locked due to multiple failed login attempts. An admin has been notified."</text><polygon fill="#181818" points="1993.5,1039.1563,2003.5,1043.1563,1993.5,1047.1563,1997.5,1043.1563" style="stroke:#181818;stroke-width:1.0;"/><line style="stroke:#181818;stroke-width:1.0;" x1="1797.5" x2="1999.5" y1="1043.1563" y2="1043.1563"/><text fill="#000000" font-family="FG Virgil" font-size="20" lengthAdjust="spacing" textLength="184" x="1804.5" y="1036.4395">NotifyAdmin(user)</text><polygon fill="#181818" points="1808.5,1076.4375,1798.5,1080.4375,1808.5,1084.4375,1804.5,1080.4375" style="stroke:#181818;stroke-width:1.0;"/><line style="stroke:#181818;stroke-width:1.0;stroke-dasharray:2.0,2.0;" x1="1802.5" x2="2475.5" y1="1080.4375" y2="1080.4375"/><text fill="#000000" font-family="FG Virgil" font-size="20" lengthAdjust="spacing" textLength="62" x="1814.5" y="1073.7207">return</text><line style="stroke:#000000;stroke-width:1.0;stroke-dasharray:2.0,2.0;" x1="615" x2="2850" y1="1096.4375" y2="1096.4375"/><text fill="#000000" font-family="FG Virgil" font-size="20" font-weight="bold" lengthAdjust="spacing" textLength="218" x="620" y="1115.002">[Correct password]</text><line style="stroke:#181818;stroke-width:1.0;" x1="1797.5" x2="1844.5" y1="1145" y2="1145"/><line style="stroke:#181818;stroke-width:1.0;" x1="1844.5" x2="1844.5" y1="1145" y2="1158"/><line style="stroke:#181818;stroke-width:1.0;" x1="1803.5" x2="1844.5" y1="1158" y2="1158"/><polygon fill="#181818" points="1813.5,1154,1803.5,1158,1813.5,1162,1809.5,1158" style="stroke:#181818;stroke-width:1.0;"/><text fill="#000000" font-family="FG Virgil" font-size="20" lengthAdjust="spacing" textLength="186" x="1809.5" y="1138.2832">CreateToken(user)</text><polygon fill="#181818" points="731.5,1242.8438,721.5,1246.8438,731.5,1250.8438,727.5,1246.8438" style="stroke:#181818;stroke-width:1.0;"/><line style="stroke:#181818;stroke-width:1.0;stroke-dasharray:2.0,2.0;" x1="725.5" x2="1796.5" y1="1246.8438" y2="1246.8438"/><text fill="#000000" font-family="FG Virgil" font-size="20" lengthAdjust="spacing" textLength="349" x="737.5" y="1193.5645">return "User logged in successfully</text><text fill="#000000" font-family="FG Virgil" font-size="20" lengthAdjust="spacing" textLength="6" x="737.5" y="1216.8457"> </text><text fill="#000000" font-family="FG Virgil" font-size="20" lengthAdjust="spacing" textLength="167" x="737.5" y="1240.127">Token: {token}"</text><polygon fill="#181818" points="444.5,1287.125,434.5,1291.125,444.5,1295.125,440.5,1291.125" style="stroke:#181818;stroke-width:1.0;"/><line style="stroke:#181818;stroke-width:1.0;stroke-dasharray:2.0,2.0;" x1="438.5" x2="714.5" y1="1291.125" y2="1291.125"/><text fill="#000000" font-family="FG Virgil" font-size="20" lengthAdjust="spacing" textLength="230" x="450.5" y="1284.4082">return output message</text><polygon fill="#181818" points="61.5,1324.4063,51.5,1328.4063,61.5,1332.4063,57.5,1328.4063" style="stroke:#181818;stroke-width:1.0;"/><line style="stroke:#181818;stroke-width:1.0;stroke-dasharray:2.0,2.0;" x1="55.5" x2="432.5" y1="1328.4063" y2="1328.4063"/><text fill="#000000" font-family="FG Virgil" font-size="20" lengthAdjust="spacing" textLength="192" x="67.5" y="1321.6895">Display login result</text><!--SRC=[hLN1Rjim3BtxAuXSbW1hEkoOmu3KQOi0RLV4TOS1lQWsxGYH9K-Ictb5_tsKx6Hoac43jXnYc7oa7ibdocouh9bcbL3P1dF8iM2Di5TAseJ_GFZu8OhUhQsjpUpyl1PCsgOIqqnLvmQ_DIWpFCivAob1P7QfOCraljNSMfHGC64my5LAgcojLOL7hffb6rPYObk1e36pWI_WTSSezkeQ7hakkGWmPirojUMo1AiRZ2AMMQKXDQY16KWZGbcUyPgAW94tBwL5NR0CHnwnF8R4TA1MGg3saFWOaQ1-uNs6PEY-PLo4xjlaEBmxsHmxLbWhmwc2raDMGyI2MVRCJ9TtSU6BvI_C8jMPmjadAcO6ApSYOmrO1KALNCBuiY9Ex-6U6RDLEfy4SSieNRh8U0Ot3Zps_uxAuk4pv5O5u3YA7JJv2sWIHOd3hcPmZTPXBbhFOcvQcOq9FFMlGSWgMi5PbrwZRRJiXZZc1HIgaVa4QAwo4SARfB84AxcXMI9Lb6EGA6B2Tj53M0JqI_mfLAybGMxXydk6jULAZaUUqK78QEA3WlJ9eI7sXevpX3BlIq_D3E8rPXiWkfuCD-23SCYljmsuzHqOxU9-uQPzqbOr6Zh6DEWz6Rj6UiceONOw-Y_K-soEHRSkFFjvR-rD9yb_THIFme7UYFHhGwLDRxmfTPQtATmB97NJXzm2AnafLn19_MzrFABcHRlNlYV_HIlQ5_NEv69JimjOzRE_ejPYxZK-fwLMrNOysTNfXPtMEPtT2TeLqtbNphkusBcXyHEKVZ1v__rwOA3NFYuK_s659EhzsIV7OzQg4JayOpYIS58bMXFw_ZooDMsPPwHrlhic6dHQgsWbyrguLUuwr2yPrlN8J65EBtb5fdqygPSN7FD-aYUgtzTsInsuS_1sxd84ZVrTauuQvGnE0-uP8Tqs42ljRfRXn0_KbFIhBTP8nWUrmV3m0wMT_awf4INrWoetJPQXCGLjg_P9FacVRWQlrZtVHfr41uAEVKQtl_kKgh5rOw6YD7GzHWEnkvNjq3DOS4FtSzlFGAEXsOHOsky_0G00]--></g></svg>