<?xml version="1.0" encoding="UTF-8" standalone="no"?><svg xmlns="http://www.w3.org/2000/svg" xmlns:xlink="http://www.w3.org/1999/xlink" contentStyleType="text/css" height="682px" preserveAspectRatio="none" style="width:1576px;height:682px;background:#FFFFFF;" version="1.1" viewBox="0 0 1576 682" width="1576px" zoomAndPan="magnify"><defs/><g><text fill="#000000" font-family="sans-serif" font-size="14" font-weight="bold" lengthAdjust="spacing" textLength="126" x="727" y="27.9951">Level 2 Diagram</text><rect fill="#FFFFFF" height="450.0938" style="stroke:#181818;stroke-width:1.0;" width="10" x="36" y="135.5781"/><rect fill="#FFFFFF" height="420.8125" style="stroke:#181818;stroke-width:1.0;" width="10" x="499" y="164.8594"/><rect fill="#FFFFFF" height="87.5625" style="stroke:#181818;stroke-width:1.0;" width="10" x="1134" y="202.1406"/><rect fill="#FFFFFF" height="87.5625" style="stroke:#181818;stroke-width:1.0;" width="10" x="1134" y="326.9844"/><rect fill="#FFFFFF" height="87.5625" style="stroke:#181818;stroke-width:1.0;" width="10" x="1134" y="451.8281"/><line style="stroke:#181818;stroke-width:0.5;stroke-dasharray:5.0,5.0;" x1="41" x2="41" y1="125.5781" y2="594.6719"/><line style="stroke:#181818;stroke-width:0.5;stroke-dasharray:5.0,5.0;" x1="503.5" x2="503.5" y1="125.5781" y2="594.6719"/><line style="stroke:#181818;stroke-width:0.5;stroke-dasharray:5.0,5.0;" x1="1139" x2="1139" y1="125.5781" y2="594.6719"/><text fill="#000000" font-family="sans-serif" font-size="20" lengthAdjust="spacing" textLength="66" x="5" y="120.8613">Doctor</text><ellipse cx="41" cy="50.7969" fill="#E2E2F0" rx="8" ry="8" style="stroke:#181818;stroke-width:0.5;"/><path d="M41,58.7969 L41,85.7969 M28,66.7969 L54,66.7969 M41,85.7969 L28,100.7969 M41,85.7969 L54,100.7969 " fill="none" style="stroke:#181818;stroke-width:0.5;"/><text fill="#000000" font-family="sans-serif" font-size="20" lengthAdjust="spacing" textLength="66" x="5" y="612.2363">Doctor</text><ellipse cx="41" cy="625.4531" fill="#E2E2F0" rx="8" ry="8" style="stroke:#181818;stroke-width:0.5;"/><path d="M41,633.4531 L41,660.4531 M28,641.4531 L54,641.4531 M41,660.4531 L28,675.4531 M41,660.4531 L54,675.4531 " fill="none" style="stroke:#181818;stroke-width:0.5;"/><rect fill="#E2E2F0" height="37.2813" rx="2.5" ry="2.5" style="stroke:#181818;stroke-width:0.5;" width="39" x="484.5" y="87.2969"/><text fill="#000000" font-family="sans-serif" font-size="20" lengthAdjust="spacing" textLength="25" x="491.5" y="112.8613">FE</text><rect fill="#E2E2F0" height="37.2813" rx="2.5" ry="2.5" style="stroke:#181818;stroke-width:0.5;" width="39" x="484.5" y="593.6719"/><text fill="#000000" font-family="sans-serif" font-size="20" lengthAdjust="spacing" textLength="25" x="491.5" y="619.2363">FE</text><rect fill="#E2E2F0" height="37.2813" rx="2.5" ry="2.5" style="stroke:#181818;stroke-width:0.5;" width="60" x="1109" y="87.2969"/><text fill="#000000" font-family="sans-serif" font-size="20" lengthAdjust="spacing" textLength="46" x="1116" y="112.8613">MDV</text><rect fill="#E2E2F0" height="37.2813" rx="2.5" ry="2.5" style="stroke:#181818;stroke-width:0.5;" width="60" x="1109" y="593.6719"/><text fill="#000000" font-family="sans-serif" font-size="20" lengthAdjust="spacing" textLength="46" x="1116" y="619.2363">MDV</text><rect fill="#FFFFFF" height="450.0938" style="stroke:#181818;stroke-width:1.0;" width="10" x="36" y="135.5781"/><rect fill="#FFFFFF" height="420.8125" style="stroke:#181818;stroke-width:1.0;" width="10" x="499" y="164.8594"/><rect fill="#FFFFFF" height="87.5625" style="stroke:#181818;stroke-width:1.0;" width="10" x="1134" y="202.1406"/><rect fill="#FFFFFF" height="87.5625" style="stroke:#181818;stroke-width:1.0;" width="10" x="1134" y="326.9844"/><rect fill="#FFFFFF" height="87.5625" style="stroke:#181818;stroke-width:1.0;" width="10" x="1134" y="451.8281"/><polygon fill="#000000" points="487,160.8594,497,164.8594,487,168.8594,491,164.8594" style="stroke:#000000;stroke-width:1.0;"/><line style="stroke:#000000;stroke-width:1.0;" x1="46" x2="493" y1="164.8594" y2="164.8594"/><text fill="#000000" font-family="sans-serif" font-size="20" lengthAdjust="spacing" textLength="434" x="53" y="158.1426">Asks to see the medical History of a patient</text><polygon fill="#000000" points="1122,198.1406,1132,202.1406,1122,206.1406,1126,202.1406" style="stroke:#000000;stroke-width:1.0;"/><line style="stroke:#000000;stroke-width:1.0;" x1="509" x2="1128" y1="202.1406" y2="202.1406"/><text fill="#000000" font-family="sans-serif" font-size="20" lengthAdjust="spacing" textLength="359" x="516" y="195.4238">Makes Http Request to get Allergies</text><line style="stroke:#000000;stroke-width:1.0;" x1="1144" x2="1186" y1="239.4219" y2="239.4219"/><line style="stroke:#000000;stroke-width:1.0;" x1="1186" x2="1186" y1="239.4219" y2="252.4219"/><line style="stroke:#000000;stroke-width:1.0;" x1="1145" x2="1186" y1="252.4219" y2="252.4219"/><polygon fill="#000000" points="1155,248.4219,1145,252.4219,1155,256.4219,1151,252.4219" style="stroke:#000000;stroke-width:1.0;"/><text fill="#000000" font-family="sans-serif" font-size="20" lengthAdjust="spacing" textLength="210" x="1151" y="232.7051">Fetches the Allergies</text><polygon fill="#000000" points="520,285.7031,510,289.7031,520,293.7031,516,289.7031" style="stroke:#000000;stroke-width:1.0;"/><line style="stroke:#000000;stroke-width:1.0;stroke-dasharray:2.0,2.0;" x1="514" x2="1138" y1="289.7031" y2="289.7031"/><text fill="#000000" font-family="sans-serif" font-size="20" lengthAdjust="spacing" textLength="280" x="526" y="282.9863">returns Operation Response</text><polygon fill="#000000" points="1122,322.9844,1132,326.9844,1122,330.9844,1126,326.9844" style="stroke:#000000;stroke-width:1.0;"/><line style="stroke:#000000;stroke-width:1.0;" x1="509" x2="1128" y1="326.9844" y2="326.9844"/><text fill="#000000" font-family="sans-serif" font-size="20" lengthAdjust="spacing" textLength="462" x="516" y="320.2676">Makes Http Request to get Medical Conditions</text><line style="stroke:#000000;stroke-width:1.0;" x1="1144" x2="1186" y1="364.2656" y2="364.2656"/><line style="stroke:#000000;stroke-width:1.0;" x1="1186" x2="1186" y1="364.2656" y2="377.2656"/><line style="stroke:#000000;stroke-width:1.0;" x1="1145" x2="1186" y1="377.2656" y2="377.2656"/><polygon fill="#000000" points="1155,373.2656,1145,377.2656,1155,381.2656,1151,377.2656" style="stroke:#000000;stroke-width:1.0;"/><text fill="#000000" font-family="sans-serif" font-size="20" lengthAdjust="spacing" textLength="313" x="1151" y="357.5488">Fetches the Medical Conditions</text><polygon fill="#000000" points="520,410.5469,510,414.5469,520,418.5469,516,414.5469" style="stroke:#000000;stroke-width:1.0;"/><line style="stroke:#000000;stroke-width:1.0;stroke-dasharray:2.0,2.0;" x1="514" x2="1138" y1="414.5469" y2="414.5469"/><text fill="#000000" font-family="sans-serif" font-size="20" lengthAdjust="spacing" textLength="280" x="526" y="407.8301">returns Operation Response</text><polygon fill="#000000" points="1122,447.8281,1132,451.8281,1122,455.8281,1126,451.8281" style="stroke:#000000;stroke-width:1.0;"/><line style="stroke:#000000;stroke-width:1.0;" x1="509" x2="1128" y1="451.8281" y2="451.8281"/><text fill="#000000" font-family="sans-serif" font-size="20" lengthAdjust="spacing" textLength="606" x="516" y="445.1113">Makes Http Request to get the Medical History of the patient</text><line style="stroke:#000000;stroke-width:1.0;" x1="1144" x2="1186" y1="489.1094" y2="489.1094"/><line style="stroke:#000000;stroke-width:1.0;" x1="1186" x2="1186" y1="489.1094" y2="502.1094"/><line style="stroke:#000000;stroke-width:1.0;" x1="1145" x2="1186" y1="502.1094" y2="502.1094"/><polygon fill="#000000" points="1155,498.1094,1145,502.1094,1155,506.1094,1151,502.1094" style="stroke:#000000;stroke-width:1.0;"/><text fill="#000000" font-family="sans-serif" font-size="20" lengthAdjust="spacing" textLength="418" x="1151" y="482.3926">Fetches the Medical History of the patient</text><polygon fill="#000000" points="520,535.3906,510,539.3906,520,543.3906,516,539.3906" style="stroke:#000000;stroke-width:1.0;"/><line style="stroke:#000000;stroke-width:1.0;stroke-dasharray:2.0,2.0;" x1="514" x2="1138" y1="539.3906" y2="539.3906"/><text fill="#000000" font-family="sans-serif" font-size="20" lengthAdjust="spacing" textLength="280" x="526" y="532.6738">returns Operation Response</text><polygon fill="#000000" points="57,572.6719,47,576.6719,57,580.6719,53,576.6719" style="stroke:#000000;stroke-width:1.0;"/><line style="stroke:#000000;stroke-width:1.0;stroke-dasharray:2.0,2.0;" x1="51" x2="498" y1="576.6719" y2="576.6719"/><text fill="#000000" font-family="sans-serif" font-size="20" lengthAdjust="spacing" textLength="424" x="63" y="569.9551">Displays the medical history of the patient</text><!--SRC=[jLDBQzmm4BxhLmpaq5CWNMZJBc71ZYroo19e87T5djYgjPAg6M_PblxtZjs4tIKEB87g8lZqlVIYteLaijduQ7jieC4dCtZMCV2z-uMmk52A7Nk4MzoYXmLKphJ2Lwfp3G9k4kzWWvj7pAG-q8iTtBg0l4i8CNCNbTglM6-8uBS26QMnVPlZ49hhw6E-kjeQF-3TutUql5h1MVMvBlINUMgESUBegYwhYtaEOTuwYvFLHxseopcQMDJwQtqvhHKvnv__uD8BJ_qvx9u4CItEjuUpkjIVT3bAZ6K1gZXDXg1GOi3EkcG2Wwv7JDT7uBfw656P9hdR6aRH5N2-4keI2ke9E08X0dSeXzuuQppSE9AG7SGdC5AG7GRU6qY8f8c5-2vXRNeak65Ey0r_34WyEhR8K7YFkNL8U-dOP2pr8jR8jXFv6BwdJupdYXbvo87WBc6M8Z582gKO25M3HxudTLe_x_0wXiQDTYUMcz7znvQ7YGTtCSAlRkEKrczul7y78YgMycyfUREZexVJpMVz1G00]--></g></svg>