<?xml version="1.0" encoding="UTF-8" standalone="no"?><svg xmlns="http://www.w3.org/2000/svg" xmlns:xlink="http://www.w3.org/1999/xlink" contentStyleType="text/css" height="507px" preserveAspectRatio="none" style="width:2055px;height:507px;background:#FFFFFF;" version="1.1" viewBox="0 0 2055 507" width="2055px" zoomAndPan="magnify"><defs/><g><text fill="#000000" font-family="sans-serif" font-size="14" font-weight="bold" lengthAdjust="spacing" textLength="126" x="966.75" y="27.9951">Level 2 Diagram</text><rect fill="#FFFFFF" height="274.9688" style="stroke:#181818;stroke-width:1.0;" width="10" x="38.5" y="135.5781"/><rect fill="#FFFFFF" height="37.2813" style="stroke:#181818;stroke-width:1.0;" width="10" x="759.5" y="164.8594"/><rect fill="#FFFFFF" height="162.125" style="stroke:#181818;stroke-width:1.0;" width="10" x="759.5" y="239.4219"/><rect fill="#FFFFFF" height="87.5625" style="stroke:#181818;stroke-width:1.0;" width="10" x="1608.5" y="276.7031"/><line style="stroke:#181818;stroke-width:0.5;stroke-dasharray:5.0,5.0;" x1="43" x2="43" y1="125.5781" y2="419.5469"/><line style="stroke:#181818;stroke-width:0.5;stroke-dasharray:5.0,5.0;" x1="764" x2="764" y1="125.5781" y2="419.5469"/><line style="stroke:#181818;stroke-width:0.5;stroke-dasharray:5.0,5.0;" x1="1613.5" x2="1613.5" y1="125.5781" y2="419.5469"/><text fill="#000000" font-family="sans-serif" font-size="20" lengthAdjust="spacing" textLength="71" x="5" y="120.8613">Patient</text><ellipse cx="43.5" cy="50.7969" fill="#E2E2F0" rx="8" ry="8" style="stroke:#181818;stroke-width:0.5;"/><path d="M43.5,58.7969 L43.5,85.7969 M30.5,66.7969 L56.5,66.7969 M43.5,85.7969 L30.5,100.7969 M43.5,85.7969 L56.5,100.7969 " fill="none" style="stroke:#181818;stroke-width:0.5;"/><text fill="#000000" font-family="sans-serif" font-size="20" lengthAdjust="spacing" textLength="71" x="5" y="437.1113">Patient</text><ellipse cx="43.5" cy="450.3281" fill="#E2E2F0" rx="8" ry="8" style="stroke:#181818;stroke-width:0.5;"/><path d="M43.5,458.3281 L43.5,485.3281 M30.5,466.3281 L56.5,466.3281 M43.5,485.3281 L30.5,500.3281 M43.5,485.3281 L56.5,500.3281 " fill="none" style="stroke:#181818;stroke-width:0.5;"/><rect fill="#E2E2F0" height="37.2813" rx="2.5" ry="2.5" style="stroke:#181818;stroke-width:0.5;" width="39" x="745" y="87.2969"/><text fill="#000000" font-family="sans-serif" font-size="20" lengthAdjust="spacing" textLength="25" x="752" y="112.8613">FE</text><rect fill="#E2E2F0" height="37.2813" rx="2.5" ry="2.5" style="stroke:#181818;stroke-width:0.5;" width="39" x="745" y="418.5469"/><text fill="#000000" font-family="sans-serif" font-size="20" lengthAdjust="spacing" textLength="25" x="752" y="444.1113">FE</text><rect fill="#E2E2F0" height="37.2813" rx="2.5" ry="2.5" style="stroke:#181818;stroke-width:0.5;" width="60" x="1583.5" y="87.2969"/><text fill="#000000" font-family="sans-serif" font-size="20" lengthAdjust="spacing" textLength="46" x="1590.5" y="112.8613">MDR</text><rect fill="#E2E2F0" height="37.2813" rx="2.5" ry="2.5" style="stroke:#181818;stroke-width:0.5;" width="60" x="1583.5" y="418.5469"/><text fill="#000000" font-family="sans-serif" font-size="20" lengthAdjust="spacing" textLength="46" x="1590.5" y="444.1113">MDR</text><rect fill="#FFFFFF" height="274.9688" style="stroke:#181818;stroke-width:1.0;" width="10" x="38.5" y="135.5781"/><rect fill="#FFFFFF" height="37.2813" style="stroke:#181818;stroke-width:1.0;" width="10" x="759.5" y="164.8594"/><rect fill="#FFFFFF" height="162.125" style="stroke:#181818;stroke-width:1.0;" width="10" x="759.5" y="239.4219"/><rect fill="#FFFFFF" height="87.5625" style="stroke:#181818;stroke-width:1.0;" width="10" x="1608.5" y="276.7031"/><polygon fill="#000000" points="747.5,160.8594,757.5,164.8594,747.5,168.8594,751.5,164.8594" style="stroke:#000000;stroke-width:1.0;"/><line style="stroke:#000000;stroke-width:1.0;" x1="48.5" x2="753.5" y1="164.8594" y2="164.8594"/><text fill="#000000" font-family="sans-serif" font-size="20" lengthAdjust="spacing" textLength="240" x="55.5" y="158.1426">Asks to Register as User</text><polygon fill="#000000" points="59.5,198.1406,49.5,202.1406,59.5,206.1406,55.5,202.1406" style="stroke:#000000;stroke-width:1.0;"/><line style="stroke:#000000;stroke-width:1.0;stroke-dasharray:2.0,2.0;" x1="53.5" x2="763.5" y1="202.1406" y2="202.1406"/><text fill="#000000" font-family="sans-serif" font-size="20" lengthAdjust="spacing" textLength="318" x="65.5" y="195.4238">Asks for data to register as User</text><polygon fill="#000000" points="747.5,235.4219,757.5,239.4219,747.5,243.4219,751.5,239.4219" style="stroke:#000000;stroke-width:1.0;"/><line style="stroke:#000000;stroke-width:1.0;" x1="48.5" x2="753.5" y1="239.4219" y2="239.4219"/><text fill="#000000" font-family="sans-serif" font-size="20" lengthAdjust="spacing" textLength="692" x="55.5" y="232.7051">Sends data(email, phone number, password, password confirmation)</text><polygon fill="#000000" points="1596.5,272.7031,1606.5,276.7031,1596.5,280.7031,1600.5,276.7031" style="stroke:#000000;stroke-width:1.0;"/><line style="stroke:#000000;stroke-width:1.0;" x1="769.5" x2="1602.5" y1="276.7031" y2="276.7031"/><text fill="#000000" font-family="sans-serif" font-size="20" lengthAdjust="spacing" textLength="820" x="776.5" y="269.9863">Makes HTTP Request to Register User with data (email, phone number, password)</text><line style="stroke:#000000;stroke-width:1.0;stroke-dasharray:2.0,2.0;" x1="1618.5" x2="1660.5" y1="313.9844" y2="313.9844"/><line style="stroke:#000000;stroke-width:1.0;stroke-dasharray:2.0,2.0;" x1="1660.5" x2="1660.5" y1="313.9844" y2="326.9844"/><line style="stroke:#000000;stroke-width:1.0;stroke-dasharray:2.0,2.0;" x1="1619.5" x2="1660.5" y1="326.9844" y2="326.9844"/><polygon fill="#000000" points="1629.5,322.9844,1619.5,326.9844,1629.5,330.9844,1625.5,326.9844" style="stroke:#000000;stroke-width:1.0;"/><text fill="#000000" font-family="sans-serif" font-size="20" lengthAdjust="spacing" textLength="423" x="1625.5" y="307.2676">Validates data and tries to create the User</text><polygon fill="#000000" points="780.5,360.2656,770.5,364.2656,780.5,368.2656,776.5,364.2656" style="stroke:#000000;stroke-width:1.0;"/><line style="stroke:#000000;stroke-width:1.0;stroke-dasharray:2.0,2.0;" x1="774.5" x2="1612.5" y1="364.2656" y2="364.2656"/><text fill="#000000" font-family="sans-serif" font-size="20" lengthAdjust="spacing" textLength="311" x="786.5" y="357.5488">Returns Operation Status Code</text><polygon fill="#000000" points="59.5,397.5469,49.5,401.5469,59.5,405.5469,55.5,401.5469" style="stroke:#000000;stroke-width:1.0;"/><line style="stroke:#000000;stroke-width:1.0;stroke-dasharray:2.0,2.0;" x1="53.5" x2="763.5" y1="401.5469" y2="401.5469"/><text fill="#000000" font-family="sans-serif" font-size="20" lengthAdjust="spacing" textLength="380" x="65.5" y="394.8301">Returns Operation In/Sucess message</text><!--SRC=[VL9TQnin47pNhrYIXxQGqDJGhn0Cljo95X9os6dV5MdjKqydNQKzcxJqltTrRc8dCJsuhz7CxCvAgRM-Lr5rBkWM3HXSgi6H39uMzXV2v4m8ikGGhd2D3YPGMhLYlX2DDGZOzNGF7NPt69DubHxiuCfwfFiU8KHgWX2x5UrKIl1R05-5qkqgXi6Ro-12lBXOApVWpTqFr3ITmd7vePh9JuUfCOIH8ykgACyESnB6jTKuMhsJaweuH6EBIdwkFevhinZ3PWiNZddYptxlFIDgXOUxX-EgaEzbaILA4mEr8ekUG2Me1JkGrRPN31p9wYYZideANvVp4UVtw67NYf2rDPnEcNmEizGce01pNDb463Fv6wVSaTbILd3A_FeVVScT64Kgw-9pdS5zvMET1NgJHjLhx9Hr9z0tmIFu8Uyq__4URa8qko_GmIzjx3Xoy6zUz3FDcSxXMhMOuCljRSqHVWwOw4cQt19iB3NRXlzVUwz8dXVVO-onpdVbB5lWDWCeRu2YnN5sEcBMK8FR4Jm8S-uvqX1zWfiUuvW45gHeI70P3EuFArVSpVcbxAj_knWqyadl-C5dvjca_m80]--></g></svg>