<?xml version="1.0" encoding="UTF-8" standalone="no"?><svg xmlns="http://www.w3.org/2000/svg" xmlns:xlink="http://www.w3.org/1999/xlink" contentStyleType="text/css" height="632px" preserveAspectRatio="none" style="width:2238px;height:632px;background:#FFFFFF;" version="1.1" viewBox="0 0 2238 632" width="2238px" zoomAndPan="magnify"><defs/><g><text fill="#000000" font-family="sans-serif" font-size="14" font-weight="bold" lengthAdjust="spacing" textLength="126" x="1058" y="27.9951">Level 2 Diagram</text><rect fill="#FFFFFF" height="399.8125" style="stroke:#181818;stroke-width:1.0;" width="10" x="36" y="135.5781"/><rect fill="#FFFFFF" height="162.125" style="stroke:#181818;stroke-width:1.0;" width="10" x="746" y="164.8594"/><rect fill="#FFFFFF" height="162.125" style="stroke:#181818;stroke-width:1.0;" width="10" x="746" y="364.2656"/><rect fill="#FFFFFF" height="87.5625" style="stroke:#181818;stroke-width:1.0;" width="10" x="1611" y="202.1406"/><rect fill="#FFFFFF" height="87.5625" style="stroke:#181818;stroke-width:1.0;" width="10" x="1611" y="401.5469"/><line style="stroke:#181818;stroke-width:0.5;stroke-dasharray:5.0,5.0;" x1="41" x2="41" y1="125.5781" y2="544.3906"/><line style="stroke:#181818;stroke-width:0.5;stroke-dasharray:5.0,5.0;" x1="750.5" x2="750.5" y1="125.5781" y2="544.3906"/><line style="stroke:#181818;stroke-width:0.5;stroke-dasharray:5.0,5.0;" x1="1616" x2="1616" y1="125.5781" y2="544.3906"/><text fill="#000000" font-family="sans-serif" font-size="20" lengthAdjust="spacing" textLength="66" x="5" y="120.8613">Doctor</text><ellipse cx="41" cy="50.7969" fill="#E2E2F0" rx="8" ry="8" style="stroke:#181818;stroke-width:0.5;"/><path d="M41,58.7969 L41,85.7969 M28,66.7969 L54,66.7969 M41,85.7969 L28,100.7969 M41,85.7969 L54,100.7969 " fill="none" style="stroke:#181818;stroke-width:0.5;"/><text fill="#000000" font-family="sans-serif" font-size="20" lengthAdjust="spacing" textLength="66" x="5" y="561.9551">Doctor</text><ellipse cx="41" cy="575.1719" fill="#E2E2F0" rx="8" ry="8" style="stroke:#181818;stroke-width:0.5;"/><path d="M41,583.1719 L41,610.1719 M28,591.1719 L54,591.1719 M41,610.1719 L28,625.1719 M41,610.1719 L54,625.1719 " fill="none" style="stroke:#181818;stroke-width:0.5;"/><rect fill="#E2E2F0" height="37.2813" rx="2.5" ry="2.5" style="stroke:#181818;stroke-width:0.5;" width="39" x="731.5" y="87.2969"/><text fill="#000000" font-family="sans-serif" font-size="20" lengthAdjust="spacing" textLength="25" x="738.5" y="112.8613">FE</text><rect fill="#E2E2F0" height="37.2813" rx="2.5" ry="2.5" style="stroke:#181818;stroke-width:0.5;" width="39" x="731.5" y="543.3906"/><text fill="#000000" font-family="sans-serif" font-size="20" lengthAdjust="spacing" textLength="25" x="738.5" y="568.9551">FE</text><rect fill="#E2E2F0" height="37.2813" rx="2.5" ry="2.5" style="stroke:#181818;stroke-width:0.5;" width="60" x="1586" y="87.2969"/><text fill="#000000" font-family="sans-serif" font-size="20" lengthAdjust="spacing" textLength="46" x="1593" y="112.8613">MDV</text><rect fill="#E2E2F0" height="37.2813" rx="2.5" ry="2.5" style="stroke:#181818;stroke-width:0.5;" width="60" x="1586" y="543.3906"/><text fill="#000000" font-family="sans-serif" font-size="20" lengthAdjust="spacing" textLength="46" x="1593" y="568.9551">MDV</text><rect fill="#FFFFFF" height="399.8125" style="stroke:#181818;stroke-width:1.0;" width="10" x="36" y="135.5781"/><rect fill="#FFFFFF" height="162.125" style="stroke:#181818;stroke-width:1.0;" width="10" x="746" y="164.8594"/><rect fill="#FFFFFF" height="162.125" style="stroke:#181818;stroke-width:1.0;" width="10" x="746" y="364.2656"/><rect fill="#FFFFFF" height="87.5625" style="stroke:#181818;stroke-width:1.0;" width="10" x="1611" y="202.1406"/><rect fill="#FFFFFF" height="87.5625" style="stroke:#181818;stroke-width:1.0;" width="10" x="1611" y="401.5469"/><polygon fill="#000000" points="734,160.8594,744,164.8594,734,168.8594,738,164.8594" style="stroke:#000000;stroke-width:1.0;"/><line style="stroke:#000000;stroke-width:1.0;" x1="46" x2="740" y1="164.8594" y2="164.8594"/><text fill="#000000" font-family="sans-serif" font-size="20" lengthAdjust="spacing" textLength="681" x="53" y="158.1426">Asks to update a family history entry in the patient's medical record</text><polygon fill="#000000" points="1599,198.1406,1609,202.1406,1599,206.1406,1603,202.1406" style="stroke:#000000;stroke-width:1.0;"/><line style="stroke:#000000;stroke-width:1.0;" x1="756" x2="1605" y1="202.1406" y2="202.1406"/><text fill="#000000" font-family="sans-serif" font-size="20" lengthAdjust="spacing" textLength="555" x="763" y="195.4238">Makes Http Request to get the patient's medical record</text><line style="stroke:#000000;stroke-width:1.0;" x1="1621" x2="1663" y1="239.4219" y2="239.4219"/><line style="stroke:#000000;stroke-width:1.0;" x1="1663" x2="1663" y1="239.4219" y2="252.4219"/><line style="stroke:#000000;stroke-width:1.0;" x1="1622" x2="1663" y1="252.4219" y2="252.4219"/><polygon fill="#000000" points="1632,248.4219,1622,252.4219,1632,256.4219,1628,252.4219" style="stroke:#000000;stroke-width:1.0;"/><text fill="#000000" font-family="sans-serif" font-size="20" lengthAdjust="spacing" textLength="367" x="1628" y="232.7051">Fetches the patient's medical record</text><polygon fill="#000000" points="767,285.7031,757,289.7031,767,293.7031,763,289.7031" style="stroke:#000000;stroke-width:1.0;"/><line style="stroke:#000000;stroke-width:1.0;stroke-dasharray:2.0,2.0;" x1="761" x2="1615" y1="289.7031" y2="289.7031"/><text fill="#000000" font-family="sans-serif" font-size="20" lengthAdjust="spacing" textLength="280" x="773" y="282.9863">returns Operation Response</text><polygon fill="#000000" points="57,322.9844,47,326.9844,57,330.9844,53,326.9844" style="stroke:#000000;stroke-width:1.0;"/><line style="stroke:#000000;stroke-width:1.0;stroke-dasharray:2.0,2.0;" x1="51" x2="750" y1="326.9844" y2="326.9844"/><text fill="#000000" font-family="sans-serif" font-size="20" lengthAdjust="spacing" textLength="520" x="63" y="320.2676">Displays the fetched data and asks for the new data</text><polygon fill="#000000" points="734,360.2656,744,364.2656,734,368.2656,738,364.2656" style="stroke:#000000;stroke-width:1.0;"/><line style="stroke:#000000;stroke-width:1.0;" x1="46" x2="740" y1="364.2656" y2="364.2656"/><text fill="#000000" font-family="sans-serif" font-size="20" lengthAdjust="spacing" textLength="499" x="53" y="357.5488">Sends the new data(FamilyHistory) to be updated</text><polygon fill="#000000" points="1599,397.5469,1609,401.5469,1599,405.5469,1603,401.5469" style="stroke:#000000;stroke-width:1.0;"/><line style="stroke:#000000;stroke-width:1.0;" x1="756" x2="1605" y1="401.5469" y2="401.5469"/><text fill="#000000" font-family="sans-serif" font-size="20" lengthAdjust="spacing" textLength="836" x="763" y="394.8301">Makes Http Request to update a family history entry in the patient's medical record</text><line style="stroke:#000000;stroke-width:1.0;" x1="1621" x2="1663" y1="438.8281" y2="438.8281"/><line style="stroke:#000000;stroke-width:1.0;" x1="1663" x2="1663" y1="438.8281" y2="451.8281"/><line style="stroke:#000000;stroke-width:1.0;" x1="1622" x2="1663" y1="451.8281" y2="451.8281"/><polygon fill="#000000" points="1632,447.8281,1622,451.8281,1632,455.8281,1628,451.8281" style="stroke:#000000;stroke-width:1.0;"/><text fill="#000000" font-family="sans-serif" font-size="20" lengthAdjust="spacing" textLength="603" x="1628" y="432.1113">Validates the data and updates the patient's medical record</text><polygon fill="#000000" points="767,485.1094,757,489.1094,767,493.1094,763,489.1094" style="stroke:#000000;stroke-width:1.0;"/><line style="stroke:#000000;stroke-width:1.0;stroke-dasharray:2.0,2.0;" x1="761" x2="1615" y1="489.1094" y2="489.1094"/><text fill="#000000" font-family="sans-serif" font-size="20" lengthAdjust="spacing" textLength="286" x="773" y="482.3926">Returns Operation Response</text><polygon fill="#000000" points="57,522.3906,47,526.3906,57,530.3906,53,526.3906" style="stroke:#000000;stroke-width:1.0;"/><line style="stroke:#000000;stroke-width:1.0;stroke-dasharray:2.0,2.0;" x1="51" x2="750" y1="526.3906" y2="526.3906"/><text fill="#000000" font-family="sans-serif" font-size="20" lengthAdjust="spacing" textLength="380" x="63" y="519.6738">Returns Operation In/Sucess message</text><!--SRC=[hLDDQnin4BthLmpaaFPGcXhw4HCCkzqLAIG4OiXTrevjTRNILZFhu9R-zuxM-N9gIbEw1mbcthptzAIbreNU9DFvQ5jieC6b6Jph67ZklYDCJfHYnnxX0ZVeOGALCol1AxLs3G9sFM-Xmsw1YTGntTF1XGl8snuX9bv7fHuxrXiY-A50ljBOTfNY49hFqSTqThOnVi2hnLUqF9l1KVMXBlIdmz0KuuZHLLrM9uSnX6dZB8vKx_IaBW_1XABMf_N7iLUa56ztvT8BJlrywhsNYbdXOVTmL9VwlIxpYB4iXIgEco4eb12miwutWK7NkQRhlU9bTPEhietZRcCOPQw0DpE1Jg6Wbe0Z37sJEmQMfdD-2sj78h8532oh2y1h5AFif71CSZUDiyP3GXjJyyWiwc93k4Lm2fUcHO9pvXwkyTk0n5bgXVoNRDbrFi0zdqQsQs7yu_GuS7UwX3oaG73LOn9y3EA3-XW8LODxCjcr31LJUOhKUxFTgIn7HNd1XWsOq4YMajTIui_TWBTZvocP9F0GxXn3Gtl8LtgCztoNxkiSnmBlmdzXZF_fnfvdV6EyoyGxtm_dtgcz8FhhVuZ-zvaluUryi4XPYaX-acTH_m80]--></g></svg>