<?xml version="1.0" encoding="UTF-8" standalone="no"?><svg xmlns="http://www.w3.org/2000/svg" xmlns:xlink="http://www.w3.org/1999/xlink" contentStyleType="text/css" height="507px" preserveAspectRatio="none" style="width:1629px;height:507px;background:#FFFFFF;" version="1.1" viewBox="0 0 1629 507" width="1629px" zoomAndPan="magnify"><defs/><g><text fill="#000000" font-family="sans-serif" font-size="14" font-weight="bold" lengthAdjust="spacing" textLength="389" x="622" y="27.9951">Level 2 Diagram for Removing Operation Request</text><rect fill="#FFFFFF" height="274.9688" style="stroke:#181818;stroke-width:1.0;" width="10" x="36" y="135.5781"/><rect fill="#FFFFFF" height="37.2813" style="stroke:#181818;stroke-width:1.0;" width="10" x="525" y="164.8594"/><rect fill="#FFFFFF" height="162.125" style="stroke:#181818;stroke-width:1.0;" width="10" x="525" y="239.4219"/><rect fill="#FFFFFF" height="87.5625" style="stroke:#181818;stroke-width:1.0;" width="10" x="1082" y="276.7031"/><line style="stroke:#181818;stroke-width:0.5;stroke-dasharray:5.0,5.0;" x1="41" x2="41" y1="125.5781" y2="419.5469"/><line style="stroke:#181818;stroke-width:0.5;stroke-dasharray:5.0,5.0;" x1="529.5" x2="529.5" y1="125.5781" y2="419.5469"/><line style="stroke:#181818;stroke-width:0.5;stroke-dasharray:5.0,5.0;" x1="1087" x2="1087" y1="125.5781" y2="419.5469"/><text fill="#000000" font-family="sans-serif" font-size="20" lengthAdjust="spacing" textLength="66" x="5" y="120.8613">Doctor</text><ellipse cx="41" cy="50.7969" fill="#E2E2F0" rx="8" ry="8" style="stroke:#181818;stroke-width:0.5;"/><path d="M41,58.7969 L41,85.7969 M28,66.7969 L54,66.7969 M41,85.7969 L28,100.7969 M41,85.7969 L54,100.7969 " fill="none" style="stroke:#181818;stroke-width:0.5;"/><text fill="#000000" font-family="sans-serif" font-size="20" lengthAdjust="spacing" textLength="66" x="5" y="437.1113">Doctor</text><ellipse cx="41" cy="450.3281" fill="#E2E2F0" rx="8" ry="8" style="stroke:#181818;stroke-width:0.5;"/><path d="M41,458.3281 L41,485.3281 M28,466.3281 L54,466.3281 M41,485.3281 L28,500.3281 M41,485.3281 L54,500.3281 " fill="none" style="stroke:#181818;stroke-width:0.5;"/><text fill="#000000" font-family="sans-serif" font-size="20" lengthAdjust="spacing" textLength="25" x="514.5" y="120.8613">FE</text><ellipse cx="530" cy="50.7969" fill="#E2E2F0" rx="8" ry="8" style="stroke:#181818;stroke-width:0.5;"/><path d="M530,58.7969 L530,85.7969 M517,66.7969 L543,66.7969 M530,85.7969 L517,100.7969 M530,85.7969 L543,100.7969 " fill="none" style="stroke:#181818;stroke-width:0.5;"/><text fill="#000000" font-family="sans-serif" font-size="20" lengthAdjust="spacing" textLength="25" x="514.5" y="437.1113">FE</text><ellipse cx="530" cy="450.3281" fill="#E2E2F0" rx="8" ry="8" style="stroke:#181818;stroke-width:0.5;"/><path d="M530,458.3281 L530,485.3281 M517,466.3281 L543,466.3281 M530,485.3281 L517,500.3281 M530,485.3281 L543,500.3281 " fill="none" style="stroke:#181818;stroke-width:0.5;"/><rect fill="#E2E2F0" height="37.2813" rx="2.5" ry="2.5" style="stroke:#181818;stroke-width:0.5;" width="60" x="1057" y="87.2969"/><text fill="#000000" font-family="sans-serif" font-size="20" lengthAdjust="spacing" textLength="46" x="1064" y="112.8613">MDR</text><rect fill="#E2E2F0" height="37.2813" rx="2.5" ry="2.5" style="stroke:#181818;stroke-width:0.5;" width="60" x="1057" y="418.5469"/><text fill="#000000" font-family="sans-serif" font-size="20" lengthAdjust="spacing" textLength="46" x="1064" y="444.1113">MDR</text><rect fill="#FFFFFF" height="274.9688" style="stroke:#181818;stroke-width:1.0;" width="10" x="36" y="135.5781"/><rect fill="#FFFFFF" height="37.2813" style="stroke:#181818;stroke-width:1.0;" width="10" x="525" y="164.8594"/><rect fill="#FFFFFF" height="162.125" style="stroke:#181818;stroke-width:1.0;" width="10" x="525" y="239.4219"/><rect fill="#FFFFFF" height="87.5625" style="stroke:#181818;stroke-width:1.0;" width="10" x="1082" y="276.7031"/><polygon fill="#000000" points="513,160.8594,523,164.8594,513,168.8594,517,164.8594" style="stroke:#000000;stroke-width:1.0;"/><line style="stroke:#000000;stroke-width:1.0;" x1="46" x2="519" y1="164.8594" y2="164.8594"/><text fill="#000000" font-family="sans-serif" font-size="20" lengthAdjust="spacing" textLength="366" x="53" y="158.1426">Asks to delete an Operation Request</text><polygon fill="#000000" points="57,198.1406,47,202.1406,57,206.1406,53,202.1406" style="stroke:#000000;stroke-width:1.0;"/><line style="stroke:#000000;stroke-width:1.0;stroke-dasharray:2.0,2.0;" x1="51" x2="529" y1="202.1406" y2="202.1406"/><text fill="#000000" font-family="sans-serif" font-size="20" lengthAdjust="spacing" textLength="300" x="63" y="195.4238">Asks for Operation Request ID</text><polygon fill="#000000" points="513,235.4219,523,239.4219,513,243.4219,517,239.4219" style="stroke:#000000;stroke-width:1.0;"/><line style="stroke:#000000;stroke-width:1.0;" x1="46" x2="519" y1="239.4219" y2="239.4219"/><text fill="#000000" font-family="sans-serif" font-size="20" lengthAdjust="spacing" textLength="282" x="53" y="232.7051">Sends Operation Request ID</text><polygon fill="#000000" points="1070,272.7031,1080,276.7031,1070,280.7031,1074,276.7031" style="stroke:#000000;stroke-width:1.0;"/><line style="stroke:#000000;stroke-width:1.0;" x1="535" x2="1076" y1="276.7031" y2="276.7031"/><text fill="#000000" font-family="sans-serif" font-size="20" lengthAdjust="spacing" textLength="528" x="542" y="269.9863">Sends HTTP request to delete the Operation Request</text><line style="stroke:#000000;stroke-width:1.0;" x1="1092" x2="1134" y1="313.9844" y2="313.9844"/><line style="stroke:#000000;stroke-width:1.0;" x1="1134" x2="1134" y1="313.9844" y2="326.9844"/><line style="stroke:#000000;stroke-width:1.0;" x1="1093" x2="1134" y1="326.9844" y2="326.9844"/><polygon fill="#000000" points="1103,322.9844,1093,326.9844,1103,330.9844,1099,326.9844" style="stroke:#000000;stroke-width:1.0;"/><text fill="#000000" font-family="sans-serif" font-size="20" lengthAdjust="spacing" textLength="523" x="1099" y="307.2676">Validates Operation Request ID and tries to delete it</text><polygon fill="#000000" points="546,360.2656,536,364.2656,546,368.2656,542,364.2656" style="stroke:#000000;stroke-width:1.0;"/><line style="stroke:#000000;stroke-width:1.0;stroke-dasharray:2.0,2.0;" x1="540" x2="1086" y1="364.2656" y2="364.2656"/><text fill="#000000" font-family="sans-serif" font-size="20" lengthAdjust="spacing" textLength="311" x="552" y="357.5488">Returns Operation Status Code</text><polygon fill="#000000" points="57,397.5469,47,401.5469,57,405.5469,53,401.5469" style="stroke:#000000;stroke-width:1.0;"/><line style="stroke:#000000;stroke-width:1.0;stroke-dasharray:2.0,2.0;" x1="51" x2="529" y1="401.5469" y2="401.5469"/><text fill="#000000" font-family="sans-serif" font-size="20" lengthAdjust="spacing" textLength="455" x="63" y="394.8301">Returns Operation Deletion Success message</text><!--SRC=[VL9TQ-Cm47pNhrZIXtigj87xf0JYIg87FNeafU-gj4rqaILNMlle7VVVR-scYMbD3RRmxipixAxApiV6P5E7P7VemE63QGFf56dj_o3CpuGWJm7X6ZiCC0VfpORny90ohB1EdOyRk6am6_8fSkYnnK92RBr3mBgX9wYnliTSn8VoKWskVKHwQX1IfcqIufYnmPG2VmNmKncxs-JKHdUPGieN5vq9BTxS_q9BYmMSo4zggRzCGtDA0qPBLScpQKp1t7cBWzIvdgjg2iOIIdzLduVSCkVq-pbS1SQ9VsFl3KVC1gVTmucgz4TTzHHZYGCo3OSf8FUHcLQp_byhmOhahMzC99ZzaAiXpkT0zfqXP9Q4qmM3ly6ox0fGulq5v8o94oivy5XTApXbgjmp-sM-8S1tAHoEMOToQuokJ3DULrdqfbyOLxUtFo7lmKUxjCNt_FPTytlGkZF1EqvCE-3c7L3sE1w8fsU5lVyLKflZcBycGss1o-Hmt7HV-ZYhjpJPom_yrbhaYrlpXw_0gy7z1m00]--></g></svg>