<?xml version="1.0" encoding="UTF-8" standalone="no"?><svg xmlns="http://www.w3.org/2000/svg" xmlns:xlink="http://www.w3.org/1999/xlink" contentStyleType="text/css" height="632px" preserveAspectRatio="none" style="width:2326px;height:632px;background:#FFFFFF;" version="1.1" viewBox="0 0 2326 632" width="2326px" zoomAndPan="magnify"><defs/><g><text fill="#000000" font-family="sans-serif" font-size="14" font-weight="bold" lengthAdjust="spacing" textLength="126" x="1102" y="27.9951">Level 2 Diagram</text><rect fill="#FFFFFF" height="399.8125" style="stroke:#181818;stroke-width:1.0;" width="10" x="36" y="135.5781"/><rect fill="#FFFFFF" height="162.125" style="stroke:#181818;stroke-width:1.0;" width="10" x="790" y="164.8594"/><rect fill="#FFFFFF" height="162.125" style="stroke:#181818;stroke-width:1.0;" width="10" x="790" y="364.2656"/><rect fill="#FFFFFF" height="87.5625" style="stroke:#181818;stroke-width:1.0;" width="10" x="1699" y="202.1406"/><rect fill="#FFFFFF" height="87.5625" style="stroke:#181818;stroke-width:1.0;" width="10" x="1699" y="401.5469"/><line style="stroke:#181818;stroke-width:0.5;stroke-dasharray:5.0,5.0;" x1="41" x2="41" y1="125.5781" y2="544.3906"/><line style="stroke:#181818;stroke-width:0.5;stroke-dasharray:5.0,5.0;" x1="794.5" x2="794.5" y1="125.5781" y2="544.3906"/><line style="stroke:#181818;stroke-width:0.5;stroke-dasharray:5.0,5.0;" x1="1704" x2="1704" y1="125.5781" y2="544.3906"/><text fill="#000000" font-family="sans-serif" font-size="20" lengthAdjust="spacing" textLength="66" x="5" y="120.8613">Doctor</text><ellipse cx="41" cy="50.7969" fill="#E2E2F0" rx="8" ry="8" style="stroke:#181818;stroke-width:0.5;"/><path d="M41,58.7969 L41,85.7969 M28,66.7969 L54,66.7969 M41,85.7969 L28,100.7969 M41,85.7969 L54,100.7969 " fill="none" style="stroke:#181818;stroke-width:0.5;"/><text fill="#000000" font-family="sans-serif" font-size="20" lengthAdjust="spacing" textLength="66" x="5" y="561.9551">Doctor</text><ellipse cx="41" cy="575.1719" fill="#E2E2F0" rx="8" ry="8" style="stroke:#181818;stroke-width:0.5;"/><path d="M41,583.1719 L41,610.1719 M28,591.1719 L54,591.1719 M41,610.1719 L28,625.1719 M41,610.1719 L54,625.1719 " fill="none" style="stroke:#181818;stroke-width:0.5;"/><rect fill="#E2E2F0" height="37.2813" rx="2.5" ry="2.5" style="stroke:#181818;stroke-width:0.5;" width="39" x="775.5" y="87.2969"/><text fill="#000000" font-family="sans-serif" font-size="20" lengthAdjust="spacing" textLength="25" x="782.5" y="112.8613">FE</text><rect fill="#E2E2F0" height="37.2813" rx="2.5" ry="2.5" style="stroke:#181818;stroke-width:0.5;" width="39" x="775.5" y="543.3906"/><text fill="#000000" font-family="sans-serif" font-size="20" lengthAdjust="spacing" textLength="25" x="782.5" y="568.9551">FE</text><rect fill="#E2E2F0" height="37.2813" rx="2.5" ry="2.5" style="stroke:#181818;stroke-width:0.5;" width="60" x="1674" y="87.2969"/><text fill="#000000" font-family="sans-serif" font-size="20" lengthAdjust="spacing" textLength="46" x="1681" y="112.8613">MDV</text><rect fill="#E2E2F0" height="37.2813" rx="2.5" ry="2.5" style="stroke:#181818;stroke-width:0.5;" width="60" x="1674" y="543.3906"/><text fill="#000000" font-family="sans-serif" font-size="20" lengthAdjust="spacing" textLength="46" x="1681" y="568.9551">MDV</text><rect fill="#FFFFFF" height="399.8125" style="stroke:#181818;stroke-width:1.0;" width="10" x="36" y="135.5781"/><rect fill="#FFFFFF" height="162.125" style="stroke:#181818;stroke-width:1.0;" width="10" x="790" y="164.8594"/><rect fill="#FFFFFF" height="162.125" style="stroke:#181818;stroke-width:1.0;" width="10" x="790" y="364.2656"/><rect fill="#FFFFFF" height="87.5625" style="stroke:#181818;stroke-width:1.0;" width="10" x="1699" y="202.1406"/><rect fill="#FFFFFF" height="87.5625" style="stroke:#181818;stroke-width:1.0;" width="10" x="1699" y="401.5469"/><polygon fill="#000000" points="778,160.8594,788,164.8594,778,168.8594,782,164.8594" style="stroke:#000000;stroke-width:1.0;"/><line style="stroke:#000000;stroke-width:1.0;" x1="46" x2="784" y1="164.8594" y2="164.8594"/><text fill="#000000" font-family="sans-serif" font-size="20" lengthAdjust="spacing" textLength="725" x="53" y="158.1426">Asks to update a medical condition entry in the patient's medical record</text><polygon fill="#000000" points="1687,198.1406,1697,202.1406,1687,206.1406,1691,202.1406" style="stroke:#000000;stroke-width:1.0;"/><line style="stroke:#000000;stroke-width:1.0;" x1="800" x2="1693" y1="202.1406" y2="202.1406"/><text fill="#000000" font-family="sans-serif" font-size="20" lengthAdjust="spacing" textLength="555" x="807" y="195.4238">Makes Http Request to get the patient's medical record</text><line style="stroke:#000000;stroke-width:1.0;" x1="1709" x2="1751" y1="239.4219" y2="239.4219"/><line style="stroke:#000000;stroke-width:1.0;" x1="1751" x2="1751" y1="239.4219" y2="252.4219"/><line style="stroke:#000000;stroke-width:1.0;" x1="1710" x2="1751" y1="252.4219" y2="252.4219"/><polygon fill="#000000" points="1720,248.4219,1710,252.4219,1720,256.4219,1716,252.4219" style="stroke:#000000;stroke-width:1.0;"/><text fill="#000000" font-family="sans-serif" font-size="20" lengthAdjust="spacing" textLength="367" x="1716" y="232.7051">Fetches the patient's medical record</text><polygon fill="#000000" points="811,285.7031,801,289.7031,811,293.7031,807,289.7031" style="stroke:#000000;stroke-width:1.0;"/><line style="stroke:#000000;stroke-width:1.0;stroke-dasharray:2.0,2.0;" x1="805" x2="1703" y1="289.7031" y2="289.7031"/><text fill="#000000" font-family="sans-serif" font-size="20" lengthAdjust="spacing" textLength="280" x="817" y="282.9863">returns Operation Response</text><polygon fill="#000000" points="57,322.9844,47,326.9844,57,330.9844,53,326.9844" style="stroke:#000000;stroke-width:1.0;"/><line style="stroke:#000000;stroke-width:1.0;stroke-dasharray:2.0,2.0;" x1="51" x2="794" y1="326.9844" y2="326.9844"/><text fill="#000000" font-family="sans-serif" font-size="20" lengthAdjust="spacing" textLength="520" x="63" y="320.2676">Displays the fetched data and asks for the new data</text><polygon fill="#000000" points="778,360.2656,788,364.2656,778,368.2656,782,364.2656" style="stroke:#000000;stroke-width:1.0;"/><line style="stroke:#000000;stroke-width:1.0;" x1="46" x2="784" y1="364.2656" y2="364.2656"/><text fill="#000000" font-family="sans-serif" font-size="20" lengthAdjust="spacing" textLength="536" x="53" y="357.5488">Sends the new data(MedicalCondition) to be updated</text><polygon fill="#000000" points="1687,397.5469,1697,401.5469,1687,405.5469,1691,401.5469" style="stroke:#000000;stroke-width:1.0;"/><line style="stroke:#000000;stroke-width:1.0;" x1="800" x2="1693" y1="401.5469" y2="401.5469"/><text fill="#000000" font-family="sans-serif" font-size="20" lengthAdjust="spacing" textLength="880" x="807" y="394.8301">Makes Http Request to update a medical condition entry in the patient's medical record</text><line style="stroke:#000000;stroke-width:1.0;" x1="1709" x2="1751" y1="438.8281" y2="438.8281"/><line style="stroke:#000000;stroke-width:1.0;" x1="1751" x2="1751" y1="438.8281" y2="451.8281"/><line style="stroke:#000000;stroke-width:1.0;" x1="1710" x2="1751" y1="451.8281" y2="451.8281"/><polygon fill="#000000" points="1720,447.8281,1710,451.8281,1720,455.8281,1716,451.8281" style="stroke:#000000;stroke-width:1.0;"/><text fill="#000000" font-family="sans-serif" font-size="20" lengthAdjust="spacing" textLength="603" x="1716" y="432.1113">Validates the data and updates the patient's medical record</text><polygon fill="#000000" points="811,485.1094,801,489.1094,811,493.1094,807,489.1094" style="stroke:#000000;stroke-width:1.0;"/><line style="stroke:#000000;stroke-width:1.0;stroke-dasharray:2.0,2.0;" x1="805" x2="1703" y1="489.1094" y2="489.1094"/><text fill="#000000" font-family="sans-serif" font-size="20" lengthAdjust="spacing" textLength="286" x="817" y="482.3926">Returns Operation Response</text><polygon fill="#000000" points="57,522.3906,47,526.3906,57,530.3906,53,526.3906" style="stroke:#000000;stroke-width:1.0;"/><line style="stroke:#000000;stroke-width:1.0;stroke-dasharray:2.0,2.0;" x1="51" x2="794" y1="526.3906" y2="526.3906"/><text fill="#000000" font-family="sans-serif" font-size="20" lengthAdjust="spacing" textLength="380" x="63" y="519.6738">Returns Operation In/Sucess message</text><!--SRC=[hLDTQnin47pNhrZ8Gzg7qjJGZvXWkClTqK9Cm8QyhwMrhLgMhjAUWrlwtxiwnqwScjAKtejWTtPcDAjBA-jRZBXsGQ_8WA4vTewRu7bglnCCBfHYouxWXZRaO02LnONWbLfQGq3hbhUmflMCObBdQKy7DzOJRrk247aPb7hiQ8SfmGy5yfMeLuiOEc-kWmlnwcg3hgFRsLVIF1h1MVMXBffFfw4nX1xJL7LPNPp698eRgwcdUjSCwl8KJ2ZgvhB-sFUA6CFzhbmwmQcVJxstKi45dNOFPtNPl6_AF8AQfL25_i04XH82jjgsw1cQEjUQ-gWuhkvoLOv-t6wGIUOAU3CIw12Aj4h00RhMv0vAwiPgTA23DvPjy42UunQi1rwIU6KhXVDq04RI8Pf7SZ4WJeHUD8SmnXKb-CpSmeI-TPGugos8_v8j6yztsFCrn7efZ7-SxWSUBXY9k-WJtBOKiR_FX58RV29bw4WckvQXOYYlCRKEjpkLUQyeZnWP0RsHE2MokMmWTptTzvsdP9B08TyfUPEEaA_6ExFN-u1VvqHczB225oRv__RsFEaxT3PpxzmVRhyJVC429l-mWDzdllYtqqvJob8foT_oBF1V]--></g></svg>