<?xml version="1.0" encoding="UTF-8" standalone="no"?><svg xmlns="http://www.w3.org/2000/svg" xmlns:xlink="http://www.w3.org/1999/xlink" contentStyleType="text/css" height="553px" preserveAspectRatio="none" style="width:1494px;height:553px;background:#FFFFFF;" version="1.1" viewBox="0 0 1494 553" width="1494px" zoomAndPan="magnify"><defs/><g><text fill="#000000" font-family="sans-serif" font-size="14" font-weight="bold" lengthAdjust="spacing" textLength="126" x="686.25" y="27.9951">Level 2 Diagram</text><rect fill="#FFFFFF" height="321.5313" style="stroke:#181818;stroke-width:1.0;" width="10" x="38.5" y="135.5781"/><rect fill="#FFFFFF" height="37.2813" style="stroke:#181818;stroke-width:1.0;" width="10" x="452.5" y="164.8594"/><rect fill="#FFFFFF" height="208.6875" style="stroke:#181818;stroke-width:1.0;" width="10" x="452.5" y="239.4219"/><rect fill="#FFFFFF" height="87.5625" style="stroke:#181818;stroke-width:1.0;" width="10" x="1233.5" y="323.2656"/><line style="stroke:#181818;stroke-width:0.5;stroke-dasharray:5.0,5.0;" x1="43" x2="43" y1="125.5781" y2="466.1094"/><line style="stroke:#181818;stroke-width:0.5;stroke-dasharray:5.0,5.0;" x1="457.5" x2="457.5" y1="125.5781" y2="466.1094"/><line style="stroke:#181818;stroke-width:0.5;stroke-dasharray:5.0,5.0;" x1="1238.5" x2="1238.5" y1="125.5781" y2="466.1094"/><text fill="#000000" font-family="sans-serif" font-size="20" lengthAdjust="spacing" textLength="71" x="5" y="120.8613">Patient</text><ellipse cx="43.5" cy="50.7969" fill="#E2E2F0" rx="8" ry="8" style="stroke:#181818;stroke-width:0.5;"/><path d="M43.5,58.7969 L43.5,85.7969 M30.5,66.7969 L56.5,66.7969 M43.5,85.7969 L30.5,100.7969 M43.5,85.7969 L56.5,100.7969 " fill="none" style="stroke:#181818;stroke-width:0.5;"/><text fill="#000000" font-family="sans-serif" font-size="20" lengthAdjust="spacing" textLength="71" x="5" y="483.6738">Patient</text><ellipse cx="43.5" cy="496.8906" fill="#E2E2F0" rx="8" ry="8" style="stroke:#181818;stroke-width:0.5;"/><path d="M43.5,504.8906 L43.5,531.8906 M30.5,512.8906 L56.5,512.8906 M43.5,531.8906 L30.5,546.8906 M43.5,531.8906 L56.5,546.8906 " fill="none" style="stroke:#181818;stroke-width:0.5;"/><rect fill="#E2E2F0" height="37.2813" rx="2.5" ry="2.5" style="stroke:#181818;stroke-width:0.5;" width="154" x="380.5" y="87.2969"/><text fill="#000000" font-family="sans-serif" font-size="20" lengthAdjust="spacing" textLength="140" x="387.5" y="112.8613">User Interface</text><rect fill="#E2E2F0" height="37.2813" rx="2.5" ry="2.5" style="stroke:#181818;stroke-width:0.5;" width="154" x="380.5" y="465.1094"/><text fill="#000000" font-family="sans-serif" font-size="20" lengthAdjust="spacing" textLength="140" x="387.5" y="490.6738">User Interface</text><rect fill="#E2E2F0" height="37.2813" rx="2.5" ry="2.5" style="stroke:#181818;stroke-width:0.5;" width="184" x="1146.5" y="87.2969"/><text fill="#000000" font-family="sans-serif" font-size="20" lengthAdjust="spacing" textLength="170" x="1153.5" y="112.8613">PatientController</text><rect fill="#E2E2F0" height="37.2813" rx="2.5" ry="2.5" style="stroke:#181818;stroke-width:0.5;" width="184" x="1146.5" y="465.1094"/><text fill="#000000" font-family="sans-serif" font-size="20" lengthAdjust="spacing" textLength="170" x="1153.5" y="490.6738">PatientController</text><rect fill="#FFFFFF" height="321.5313" style="stroke:#181818;stroke-width:1.0;" width="10" x="38.5" y="135.5781"/><rect fill="#FFFFFF" height="37.2813" style="stroke:#181818;stroke-width:1.0;" width="10" x="452.5" y="164.8594"/><rect fill="#FFFFFF" height="208.6875" style="stroke:#181818;stroke-width:1.0;" width="10" x="452.5" y="239.4219"/><rect fill="#FFFFFF" height="87.5625" style="stroke:#181818;stroke-width:1.0;" width="10" x="1233.5" y="323.2656"/><polygon fill="#000000" points="440.5,160.8594,450.5,164.8594,440.5,168.8594,444.5,164.8594" style="stroke:#000000;stroke-width:1.0;"/><line style="stroke:#000000;stroke-width:1.0;" x1="48.5" x2="446.5" y1="164.8594" y2="164.8594"/><text fill="#000000" font-family="sans-serif" font-size="20" lengthAdjust="spacing" textLength="236" x="55.5" y="158.1426">Asks to create a Patient</text><polygon fill="#000000" points="59.5,198.1406,49.5,202.1406,59.5,206.1406,55.5,202.1406" style="stroke:#000000;stroke-width:1.0;"/><line style="stroke:#000000;stroke-width:1.0;stroke-dasharray:2.0,2.0;" x1="53.5" x2="456.5" y1="202.1406" y2="202.1406"/><text fill="#000000" font-family="sans-serif" font-size="20" lengthAdjust="spacing" textLength="223" x="65.5" y="195.4238">Asks for Patient's data</text><polygon fill="#000000" points="440.5,235.4219,450.5,239.4219,440.5,243.4219,444.5,239.4219" style="stroke:#000000;stroke-width:1.0;"/><line style="stroke:#000000;stroke-width:1.0;" x1="48.5" x2="446.5" y1="239.4219" y2="239.4219"/><text fill="#000000" font-family="sans-serif" font-size="20" lengthAdjust="spacing" textLength="205" x="55.5" y="232.7051">Sends Patient's data</text><polygon fill="#000000" points="1221.5,319.2656,1231.5,323.2656,1221.5,327.2656,1225.5,323.2656" style="stroke:#000000;stroke-width:1.0;"/><line style="stroke:#000000;stroke-width:1.0;" x1="462.5" x2="1227.5" y1="323.2656" y2="323.2656"/><text fill="#000000" font-family="sans-serif" font-size="20" lengthAdjust="spacing" textLength="585" x="469.5" y="269.9863">createPatient(firstName, lastName, fullName, dateOfBirth,</text><text fill="#000000" font-family="sans-serif" font-size="20" lengthAdjust="spacing" textLength="746" x="469.5" y="293.2676">gender, medicalRecordNumber, email, phoneNumber, emergencyContact,</text><text fill="#000000" font-family="sans-serif" font-size="20" lengthAdjust="spacing" textLength="402" x="469.5" y="316.5488">medicalConditions, listOfAppointments)</text><line style="stroke:#000000;stroke-width:1.0;stroke-dasharray:2.0,2.0;" x1="1243.5" x2="1285.5" y1="360.5469" y2="360.5469"/><line style="stroke:#000000;stroke-width:1.0;stroke-dasharray:2.0,2.0;" x1="1285.5" x2="1285.5" y1="360.5469" y2="373.5469"/><line style="stroke:#000000;stroke-width:1.0;stroke-dasharray:2.0,2.0;" x1="1244.5" x2="1285.5" y1="373.5469" y2="373.5469"/><polygon fill="#000000" points="1254.5,369.5469,1244.5,373.5469,1254.5,377.5469,1250.5,373.5469" style="stroke:#000000;stroke-width:1.0;"/><text fill="#000000" font-family="sans-serif" font-size="20" lengthAdjust="spacing" textLength="237" x="1250.5" y="353.8301">Validates Patient's data</text><polygon fill="#000000" points="473.5,406.8281,463.5,410.8281,473.5,414.8281,469.5,410.8281" style="stroke:#000000;stroke-width:1.0;"/><line style="stroke:#000000;stroke-width:1.0;stroke-dasharray:2.0,2.0;" x1="467.5" x2="1237.5" y1="410.8281" y2="410.8281"/><text fill="#000000" font-family="sans-serif" font-size="20" lengthAdjust="spacing" textLength="413" x="479.5" y="404.1113">Returns Operation Status Response Code</text><polygon fill="#000000" points="59.5,444.1094,49.5,448.1094,59.5,452.1094,55.5,448.1094" style="stroke:#000000;stroke-width:1.0;"/><line style="stroke:#000000;stroke-width:1.0;stroke-dasharray:2.0,2.0;" x1="53.5" x2="456.5" y1="448.1094" y2="448.1094"/><text fill="#000000" font-family="sans-serif" font-size="20" lengthAdjust="spacing" textLength="380" x="65.5" y="441.3926">Returns Operation In/Sucess message</text><!--SRC=[RPDDQzj048Rl-ok6v90M79eQ-XM2mP8bC8JOnBYdN2QhaRtrQbViZbpSql-UaQpKZcCTn3Bpp3klPaTnOroD0IlhzOOAAAZ4ndBk7I_C7uBXZL9is1BSqvOi365YS2MyKcjJ451LymuggfufH7KLN-NWtZZYNKtW0w-zKeUCjXWZ_5KWJu9wimg-SKNghGztTrkq3SsUVv7cqGWk9r-pSVxzF1gyxvXyaYMJc_DCfB0rcZgfp_amIyvX8f7bFx9lNMuSWl-z3oTMEFNls7ij4LpHUVTmcINvbpnfIr2p1ER8XXm3HfWhKM2ZJOqIk5YACvWwfb2YfekMM4xV8drnAbSHlBKKEYfLdRZP8fE8pk5w99MtC8wR2En11sep-Dhx08l-SWhNmizxl3nOl8fG8ACgw9Z_hxuWLyHJzbHv1EbjtxydFvGcH7x0YWOWjzwVoiRQ_KbaQ5OcHbPa04zk9Lqe36IT2gFHFfBseNXesjqQoAQXiGEerzxH8KP1YlIk7PBOQKNwOeaKXertKLgRoBDoNDVUEAx4L_nuC9-gj1kAUF-9rhIMtdtfdcW7yKZS11TXLbF0LXuMZDn4ISHQcecUB-XuZEdHrDzNJzsdHQD9VeXANh9Q9pUWNW00]--></g></svg>