<?xml version="1.0" encoding="UTF-8" standalone="no"?><svg xmlns="http://www.w3.org/2000/svg" xmlns:xlink="http://www.w3.org/1999/xlink" contentStyleType="text/css" height="398px" preserveAspectRatio="none" style="width:1069px;height:398px;background:#FFFFFF;" version="1.1" viewBox="0 0 1069 398" width="1069px" zoomAndPan="magnify"><defs><filter height="300%" id="fdxvrsz7vy1y8" width="300%" x="-1" y="-1"><feGaussianBlur result="blurOut" stdDeviation="2.0"/><feColorMatrix in="blurOut" result="blurOut2" type="matrix" values="0 0 0 0 0 0 0 0 0 0 0 0 0 0 0 0 0 0 .4 0"/><feOffset dx="4.0" dy="4.0" in="blurOut2" result="blurOut3"/><feBlend in="SourceGraphic" in2="blurOut3" mode="normal"/></filter></defs><g><rect fill="#FFFFFF" filter="url(#fdxvrsz7vy1y8)" height="200.4063" style="stroke:#181818;stroke-width:1.0;" width="10" x="36" y="101.2813"/><rect fill="#FFFFFF" filter="url(#fdxvrsz7vy1y8)" height="162.125" style="stroke:#181818;stroke-width:1.0;" width="10" x="441" y="130.5625"/><rect fill="#FFFFFF" filter="url(#fdxvrsz7vy1y8)" height="87.5625" style="stroke:#181818;stroke-width:1.0;" width="10" x="846" y="167.8438"/><line style="stroke:#181818;stroke-width:0.5;stroke-dasharray:5.0,5.0;" x1="41" x2="41" y1="91.2813" y2="310.6875"/><line style="stroke:#181818;stroke-width:0.5;stroke-dasharray:5.0,5.0;" x1="446" x2="446" y1="91.2813" y2="310.6875"/><line style="stroke:#181818;stroke-width:0.5;stroke-dasharray:5.0,5.0;" x1="850.5" x2="850.5" y1="91.2813" y2="310.6875"/><text fill="#000000" font-family="FG Virgil" font-size="20" lengthAdjust="spacing" textLength="66" x="5" y="86.5645">Admin</text><ellipse cx="41" cy="13.5" fill="#E2E2F0" filter="url(#fdxvrsz7vy1y8)" rx="8" ry="8" style="stroke:#181818;stroke-width:0.5;"/><path d="M41,21.5 L41,48.5 M28,29.5 L54,29.5 M41,48.5 L28,63.5 M41,48.5 L54,63.5 " fill="none" filter="url(#fdxvrsz7vy1y8)" style="stroke:#181818;stroke-width:0.5;"/><text fill="#000000" font-family="FG Virgil" font-size="20" lengthAdjust="spacing" textLength="66" x="5" y="328.252">Admin</text><ellipse cx="41" cy="341.4688" fill="#E2E2F0" filter="url(#fdxvrsz7vy1y8)" rx="8" ry="8" style="stroke:#181818;stroke-width:0.5;"/><path d="M41,349.4688 L41,376.4688 M28,357.4688 L54,357.4688 M41,376.4688 L28,391.4688 M41,376.4688 L54,391.4688 " fill="none" filter="url(#fdxvrsz7vy1y8)" style="stroke:#181818;stroke-width:0.5;"/><rect fill="#E2E2F0" filter="url(#fdxvrsz7vy1y8)" height="37.2813" rx="2.5" ry="2.5" style="stroke:#181818;stroke-width:0.5;" width="35" x="427" y="50"/><text fill="#000000" font-family="FG Virgil" font-size="20" lengthAdjust="spacing" textLength="21" x="434" y="75.5645">UI</text><rect fill="#E2E2F0" filter="url(#fdxvrsz7vy1y8)" height="37.2813" rx="2.5" ry="2.5" style="stroke:#181818;stroke-width:0.5;" width="35" x="427" y="309.6875"/><text fill="#000000" font-family="FG Virgil" font-size="20" lengthAdjust="spacing" textLength="21" x="434" y="335.252">UI</text><rect fill="#E2E2F0" filter="url(#fdxvrsz7vy1y8)" height="37.2813" rx="2.5" ry="2.5" style="stroke:#181818;stroke-width:0.5;" width="60" x="819.5" y="50"/><text fill="#000000" font-family="FG Virgil" font-size="20" lengthAdjust="spacing" textLength="46" x="826.5" y="75.5645">MDR</text><rect fill="#E2E2F0" filter="url(#fdxvrsz7vy1y8)" height="37.2813" rx="2.5" ry="2.5" style="stroke:#181818;stroke-width:0.5;" width="60" x="819.5" y="309.6875"/><text fill="#000000" font-family="FG Virgil" font-size="20" lengthAdjust="spacing" textLength="46" x="826.5" y="335.252">MDR</text><rect fill="#FFFFFF" filter="url(#fdxvrsz7vy1y8)" height="200.4063" style="stroke:#181818;stroke-width:1.0;" width="10" x="36" y="101.2813"/><rect fill="#FFFFFF" filter="url(#fdxvrsz7vy1y8)" height="162.125" style="stroke:#181818;stroke-width:1.0;" width="10" x="441" y="130.5625"/><rect fill="#FFFFFF" filter="url(#fdxvrsz7vy1y8)" height="87.5625" style="stroke:#181818;stroke-width:1.0;" width="10" x="846" y="167.8438"/><polygon fill="#181818" points="429,126.5625,439,130.5625,429,134.5625,433,130.5625" style="stroke:#181818;stroke-width:1.0;"/><line style="stroke:#181818;stroke-width:1.0;" x1="46" x2="435" y1="130.5625" y2="130.5625"/><text fill="#000000" font-family="FG Virgil" font-size="20" lengthAdjust="spacing" textLength="373" x="53" y="123.8457">Create a user (username, email, role)</text><polygon fill="#181818" points="834,163.8438,844,167.8438,834,171.8438,838,167.8438" style="stroke:#181818;stroke-width:1.0;"/><line style="stroke:#181818;stroke-width:1.0;" x1="451" x2="840" y1="167.8438" y2="167.8438"/><text fill="#000000" font-family="FG Virgil" font-size="20" lengthAdjust="spacing" textLength="342" x="458" y="161.127">createUser(username, email, role)</text><line style="stroke:#181818;stroke-width:1.0;stroke-dasharray:2.0,2.0;" x1="856" x2="898" y1="205.125" y2="205.125"/><line style="stroke:#181818;stroke-width:1.0;stroke-dasharray:2.0,2.0;" x1="898" x2="898" y1="205.125" y2="218.125"/><line style="stroke:#181818;stroke-width:1.0;stroke-dasharray:2.0,2.0;" x1="857" x2="898" y1="218.125" y2="218.125"/><polygon fill="#181818" points="867,214.125,857,218.125,867,222.125,863,218.125" style="stroke:#181818;stroke-width:1.0;"/><text fill="#000000" font-family="FG Virgil" font-size="20" lengthAdjust="spacing" textLength="199" x="863" y="198.4082">Validate user's data</text><polygon fill="#181818" points="462,251.4063,452,255.4063,462,259.4063,458,255.4063" style="stroke:#181818;stroke-width:1.0;"/><line style="stroke:#181818;stroke-width:1.0;stroke-dasharray:2.0,2.0;" x1="456" x2="850" y1="255.4063" y2="255.4063"/><text fill="#000000" font-family="FG Virgil" font-size="20" lengthAdjust="spacing" textLength="371" x="468" y="248.6895">200 (Success) OR 400 (Bad Request)</text><polygon fill="#181818" points="57,288.6875,47,292.6875,57,296.6875,53,292.6875" style="stroke:#181818;stroke-width:1.0;"/><line style="stroke:#181818;stroke-width:1.0;" x1="51" x2="445" y1="292.6875" y2="292.6875"/><text fill="#000000" font-family="FG Virgil" font-size="20" lengthAdjust="spacing" textLength="371" x="63" y="285.9707">200 (Success) OR 400 (Bad Request)</text><!--SRC=[bP1FJyCm3CNl-HI-RPKsLasSTa0gL4Cx0DAcxcubNXirVqhYCi6d9m4DYZWW3ecizzxFTX9xxGOCQ8sNFIbGTCBHyDOxFkWtWdKfPXtp43UhrM3GyMZDbVHs5Ubv92TfgJIsYHVnqWawTEeSD3CvEA69DF6iTrvsmLlwPGqeUspfmA-6893aYJTPwn4Jkxs7emwjDfDCx53vitOjS1X929Ji0rJAQWSOeQgpeb-GATTL3SiRQ7ORk0kKDOGnKe1vlbsQiG2ogCq2WZTKVBFDJZIxp3xK-mt83xX9p9zWoejqO7bXZsYqoaucPn5IZL-9lDcwB65-6AMa60jusiDr5cvHmJx_VkH2AFhH_tEpglulcnxr3W00]--></g></svg>