<?xml version="1.0" encoding="UTF-8" standalone="no"?><svg xmlns="http://www.w3.org/2000/svg" xmlns:xlink="http://www.w3.org/1999/xlink" contentStyleType="text/css" height="946px" preserveAspectRatio="none" style="width:671px;height:946px;background:#FFFFFF;" version="1.1" viewBox="0 0 671 946" width="671px" zoomAndPan="magnify"><defs/><g><text fill="#000000" font-family="sans-serif" font-size="14" font-weight="bold" lengthAdjust="spacing" textLength="381" x="146.5" y="27.9951">Doctor Operation Request Search Flow - Level 1</text><rect fill="#FFFFFF" height="685.1875" style="stroke:#181818;stroke-width:1.0;" width="10" x="333" y="164.8594"/><rect fill="#FFFFFF" height="60.5625" style="stroke:#181818;stroke-width:1.0;" width="10" x="338" y="780.4844"/><line style="stroke:#181818;stroke-width:0.5;stroke-dasharray:5.0,5.0;" x1="41" x2="41" y1="125.5781" y2="859.0469"/><line style="stroke:#181818;stroke-width:0.5;stroke-dasharray:5.0,5.0;" x1="337.5" x2="337.5" y1="125.5781" y2="859.0469"/><line style="stroke:#181818;stroke-width:0.5;stroke-dasharray:5.0,5.0;" x1="620" x2="620" y1="125.5781" y2="859.0469"/><text fill="#000000" font-family="sans-serif" font-size="20" lengthAdjust="spacing" textLength="66" x="5" y="120.8613">Doctor</text><ellipse cx="41" cy="50.7969" fill="#E2E2F0" rx="8" ry="8" style="stroke:#181818;stroke-width:0.5;"/><path d="M41,58.7969 L41,85.7969 M28,66.7969 L54,66.7969 M41,85.7969 L28,100.7969 M41,85.7969 L54,100.7969 " fill="none" style="stroke:#181818;stroke-width:0.5;"/><text fill="#000000" font-family="sans-serif" font-size="20" lengthAdjust="spacing" textLength="66" x="5" y="876.6113">Doctor</text><ellipse cx="41" cy="889.8281" fill="#E2E2F0" rx="8" ry="8" style="stroke:#181818;stroke-width:0.5;"/><path d="M41,897.8281 L41,924.8281 M28,905.8281 L54,905.8281 M41,924.8281 L28,939.8281 M41,924.8281 L54,939.8281 " fill="none" style="stroke:#181818;stroke-width:0.5;"/><rect fill="#E2E2F0" height="60.5625" rx="2.5" ry="2.5" style="stroke:#181818;stroke-width:0.5;" width="123" x="276.5" y="64.0156"/><text fill="#000000" font-family="sans-serif" font-size="20" lengthAdjust="spacing" textLength="109" x="283.5" y="89.5801">Healthcare</text><text fill="#000000" font-family="sans-serif" font-size="20" lengthAdjust="spacing" textLength="74" x="301" y="112.8613">System</text><rect fill="#E2E2F0" height="60.5625" rx="2.5" ry="2.5" style="stroke:#181818;stroke-width:0.5;" width="123" x="276.5" y="858.0469"/><text fill="#000000" font-family="sans-serif" font-size="20" lengthAdjust="spacing" textLength="109" x="283.5" y="883.6113">Healthcare</text><text fill="#000000" font-family="sans-serif" font-size="20" lengthAdjust="spacing" textLength="74" x="301" y="906.8926">System</text><text fill="#000000" font-family="sans-serif" font-size="20" lengthAdjust="spacing" textLength="94" x="570" y="120.8613">Database</text><path d="M602,66.2969 C602,56.2969 620,56.2969 620,56.2969 C620,56.2969 638,56.2969 638,66.2969 L638,92.2969 C638,102.2969 620,102.2969 620,102.2969 C620,102.2969 602,102.2969 602,92.2969 L602,66.2969 " fill="#E2E2F0" style="stroke:#181818;stroke-width:1.5;"/><path d="M602,66.2969 C602,76.2969 620,76.2969 620,76.2969 C620,76.2969 638,76.2969 638,66.2969 " fill="none" style="stroke:#181818;stroke-width:1.5;"/><text fill="#000000" font-family="sans-serif" font-size="20" lengthAdjust="spacing" textLength="94" x="570" y="876.6113">Database</text><path d="M602,891.3281 C602,881.3281 620,881.3281 620,881.3281 C620,881.3281 638,881.3281 638,891.3281 L638,917.3281 C638,927.3281 620,927.3281 620,927.3281 C620,927.3281 602,927.3281 602,917.3281 L602,891.3281 " fill="#E2E2F0" style="stroke:#181818;stroke-width:1.5;"/><path d="M602,891.3281 C602,901.3281 620,901.3281 620,901.3281 C620,901.3281 638,901.3281 638,891.3281 " fill="none" style="stroke:#181818;stroke-width:1.5;"/><rect fill="#FFFFFF" height="685.1875" style="stroke:#181818;stroke-width:1.0;" width="10" x="333" y="164.8594"/><rect fill="#FFFFFF" height="60.5625" style="stroke:#181818;stroke-width:1.0;" width="10" x="338" y="780.4844"/><polygon fill="#181818" points="321,160.8594,331,164.8594,321,168.8594,325,164.8594" style="stroke:#181818;stroke-width:1.0;"/><line style="stroke:#181818;stroke-width:1.0;" x1="41" x2="327" y1="164.8594" y2="164.8594"/><text fill="#000000" font-family="sans-serif" font-size="20" lengthAdjust="spacing" textLength="273" x="48" y="158.1426">Search Operation Requests</text><line style="stroke:#181818;stroke-width:1.0;" x1="343" x2="385" y1="202.1406" y2="202.1406"/><line style="stroke:#181818;stroke-width:1.0;" x1="385" x2="385" y1="202.1406" y2="215.1406"/><line style="stroke:#181818;stroke-width:1.0;" x1="344" x2="385" y1="215.1406" y2="215.1406"/><polygon fill="#181818" points="354,211.1406,344,215.1406,354,219.1406,350,215.1406" style="stroke:#181818;stroke-width:1.0;"/><text fill="#000000" font-family="sans-serif" font-size="20" lengthAdjust="spacing" textLength="238" x="350" y="195.4238">Validate Search Criteria</text><polygon fill="#181818" points="608,248.4219,618,252.4219,608,256.4219,612,252.4219" style="stroke:#181818;stroke-width:1.0;"/><line style="stroke:#181818;stroke-width:1.0;" x1="343" x2="614" y1="252.4219" y2="252.4219"/><text fill="#000000" font-family="sans-serif" font-size="20" lengthAdjust="spacing" textLength="253" x="350" y="245.7051">Fetch Matching Requests</text><polygon fill="#181818" points="354,285.7031,344,289.7031,354,293.7031,350,289.7031" style="stroke:#181818;stroke-width:1.0;"/><line style="stroke:#181818;stroke-width:1.0;stroke-dasharray:2.0,2.0;" x1="348" x2="619" y1="289.7031" y2="289.7031"/><text fill="#000000" font-family="sans-serif" font-size="20" lengthAdjust="spacing" textLength="198" x="360" y="282.9863">Operation Requests</text><line style="stroke:#181818;stroke-width:1.0;" x1="343" x2="385" y1="350.2656" y2="350.2656"/><line style="stroke:#181818;stroke-width:1.0;" x1="385" x2="385" y1="350.2656" y2="363.2656"/><line style="stroke:#181818;stroke-width:1.0;" x1="344" x2="385" y1="363.2656" y2="363.2656"/><polygon fill="#181818" points="354,359.2656,344,363.2656,354,367.2656,350,363.2656" style="stroke:#181818;stroke-width:1.0;"/><text fill="#000000" font-family="sans-serif" font-size="20" lengthAdjust="spacing" textLength="189" x="350" y="320.2676">Enrich with Details</text><text fill="#000000" font-family="sans-serif" font-size="20" lengthAdjust="spacing" textLength="253" x="350" y="343.5488">(Patient, Operation Type)</text><polygon fill="#181818" points="52,396.5469,42,400.5469,52,404.5469,48,400.5469" style="stroke:#181818;stroke-width:1.0;"/><line style="stroke:#181818;stroke-width:1.0;stroke-dasharray:2.0,2.0;" x1="46" x2="332" y1="400.5469" y2="400.5469"/><text fill="#000000" font-family="sans-serif" font-size="20" lengthAdjust="spacing" textLength="193" x="58" y="393.8301">Display Results List</text><path d="M348,413.5469 L348,562.5469 L536,562.5469 L536,423.5469 L526,413.5469 L348,413.5469 " fill="#FEFFDD" style="stroke:#181818;stroke-width:0.5;"/><path d="M526,413.5469 L526,423.5469 L536,423.5469 L526,413.5469 " fill="#FEFFDD" style="stroke:#181818;stroke-width:0.5;"/><text fill="#000000" font-family="sans-serif" font-size="20" lengthAdjust="spacing" textLength="156" x="354" y="437.1113">Search Criteria:</text><text fill="#000000" font-family="sans-serif" font-size="20" lengthAdjust="spacing" textLength="149" x="354" y="460.3926">- Patient Name</text><text fill="#000000" font-family="sans-serif" font-size="20" lengthAdjust="spacing" textLength="167" x="354" y="483.6738">- Operation Type</text><text fill="#000000" font-family="sans-serif" font-size="20" lengthAdjust="spacing" textLength="142" x="354" y="506.9551">- Priority Level</text><text fill="#000000" font-family="sans-serif" font-size="20" lengthAdjust="spacing" textLength="77" x="354" y="530.2363">- Status</text><text fill="#000000" font-family="sans-serif" font-size="20" lengthAdjust="spacing" textLength="130" x="354" y="553.5176">- Date Range</text><path d="M348,573.2344 L348,745.2344 L536,745.2344 L536,583.2344 L526,573.2344 L348,573.2344 " fill="#FEFFDD" style="stroke:#181818;stroke-width:0.5;"/><path d="M526,573.2344 L526,583.2344 L536,583.2344 L526,573.2344 " fill="#FEFFDD" style="stroke:#181818;stroke-width:0.5;"/><text fill="#000000" font-family="sans-serif" font-size="20" lengthAdjust="spacing" textLength="145" x="354" y="596.7988">Result Details:</text><text fill="#000000" font-family="sans-serif" font-size="20" lengthAdjust="spacing" textLength="149" x="354" y="620.0801">- Patient Name</text><text fill="#000000" font-family="sans-serif" font-size="20" lengthAdjust="spacing" textLength="167" x="354" y="643.3613">- Operation Type</text><text fill="#000000" font-family="sans-serif" font-size="20" lengthAdjust="spacing" textLength="84" x="354" y="666.6426">- Priority</text><text fill="#000000" font-family="sans-serif" font-size="20" lengthAdjust="spacing" textLength="77" x="354" y="689.9238">- Status</text><text fill="#000000" font-family="sans-serif" font-size="20" lengthAdjust="spacing" textLength="145" x="354" y="713.2051">- Created Date</text><text fill="#000000" font-family="sans-serif" font-size="20" lengthAdjust="spacing" textLength="102" x="354" y="736.4863">- Deadline</text><polygon fill="#181818" points="326,776.4844,336,780.4844,326,784.4844,330,780.4844" style="stroke:#181818;stroke-width:1.0;"/><line style="stroke:#181818;stroke-width:1.0;" x1="41" x2="332" y1="780.4844" y2="780.4844"/><text fill="#000000" font-family="sans-serif" font-size="20" lengthAdjust="spacing" textLength="150" x="48" y="773.7676">Select Request</text><polygon fill="#181818" points="52,837.0469,42,841.0469,52,845.0469,48,841.0469" style="stroke:#181818;stroke-width:1.0;"/><line style="stroke:#181818;stroke-width:1.0;stroke-dasharray:2.0,2.0;" x1="46" x2="332" y1="841.0469" y2="841.0469"/><text fill="#000000" font-family="sans-serif" font-size="20" lengthAdjust="spacing" textLength="200" x="58" y="811.0488">Show Detailed View</text><text fill="#000000" font-family="sans-serif" font-size="20" lengthAdjust="spacing" textLength="246" x="58" y="834.3301">with Edit/Delete Options</text><!--SRC=[bP8zJyD038Rt-nKM4qXKV8mTM4WhXa9HWvYwc9nfBAvtuSvj5NuzpfS8K0QMn9UyVX-VxVJ6liA8MnUADx9WwHLtJkR1IyuV1DUNHbWSGHOA2H6M5KKK3XvMzBwZ990JngA4kGi7cC22zkJWoXXivLsMKO9mmHLwWPCxGYTbWP7MFg-JqFO4C44N6ek2BvWKs0V6zEZ9JQ-P3inVnQG6otiK6knCznudFwDZsqewbzl8Gf5n91tOKvYJgEGUzSb-yyKP530PEH-fvmX_vYEhvu6bX8m4sQMrFttKHF9oFZ9vgYiw-t9ewcexCOMCK-MmLapIOILOS19ZVD1BHTwK0k5rQC2FIqxD17eKFE2MzFWTsFoF75HUTyFK3xcWx986MTEs5VeD6V8M6k0VsAwouNx_eOvvjv6KQ5jkWoUqZlqOVcmt71KoJE3lXHYrCozrTxjI5VRCT5ZxTZmpotAHgQ7cBwkcMfsefP-Udm00]--></g></svg>