<?xml version="1.0" encoding="UTF-8" standalone="no"?><svg xmlns="http://www.w3.org/2000/svg" xmlns:xlink="http://www.w3.org/1999/xlink" contentStyleType="text/css" height="978px" preserveAspectRatio="none" style="width:3413px;height:978px;background:#FFFFFF;" version="1.1" viewBox="0 0 3413 978" width="3413px" zoomAndPan="magnify"><defs/><g><text fill="#000000" font-family="sans-serif" font-size="14" font-weight="bold" lengthAdjust="spacing" textLength="287" x="1562" y="27.9951">Level 3 Diagram for Password Reset</text><rect fill="#FFFFFF" height="745.9063" style="stroke:#181818;stroke-width:1.0;" width="10" x="92.5" y="135.5781"/><rect fill="#FFFFFF" height="37.2813" style="stroke:#181818;stroke-width:1.0;" width="10" x="517.5" y="164.8594"/><rect fill="#FFFFFF" height="633.0625" style="stroke:#181818;stroke-width:1.0;" width="10" x="517.5" y="239.4219"/><rect fill="#FFFFFF" height="558.5" style="stroke:#181818;stroke-width:1.0;" width="10" x="948.5" y="276.7031"/><rect fill="#FFFFFF" height="483.9375" style="stroke:#181818;stroke-width:1.0;" width="10" x="1879.5" y="313.9844"/><rect fill="#FFFFFF" height="37.2813" style="stroke:#181818;stroke-width:1.0;" width="10" x="2561.5" y="591.2344"/><rect fill="#FFFFFF" height="111.8438" style="stroke:#181818;stroke-width:1.0;" width="10" x="2726" y="351.2656"/><rect fill="#FFFFFF" height="37.2813" style="stroke:#181818;stroke-width:1.0;" width="10" x="3348" y="388.5469"/><rect fill="#EBF5FB" height="283.5313" style="stroke:#000000;stroke-width:1.5;" width="2638.5" x="10" y="478.1094"/><rect fill="#EBF5FB" height="62.5625" style="stroke:none;stroke-width:1.0;" width="2638.5" x="10" y="636.5156"/><rect fill="#EBF5FB" height="62.5625" style="stroke:none;stroke-width:1.0;" width="2638.5" x="10" y="699.0781"/><line style="stroke:#181818;stroke-width:0.5;stroke-dasharray:5.0,5.0;" x1="97" x2="97" y1="125.5781" y2="890.4844"/><line style="stroke:#181818;stroke-width:0.5;stroke-dasharray:5.0,5.0;" x1="522.5" x2="522.5" y1="125.5781" y2="890.4844"/><line style="stroke:#181818;stroke-width:0.5;stroke-dasharray:5.0,5.0;" x1="953.5" x2="953.5" y1="125.5781" y2="890.4844"/><line style="stroke:#181818;stroke-width:0.5;stroke-dasharray:5.0,5.0;" x1="1884.5" x2="1884.5" y1="125.5781" y2="890.4844"/><line style="stroke:#181818;stroke-width:0.5;stroke-dasharray:5.0,5.0;" x1="2566.5" x2="2566.5" y1="125.5781" y2="890.4844"/><line style="stroke:#181818;stroke-width:0.5;stroke-dasharray:5.0,5.0;" x1="2730.5" x2="2730.5" y1="125.5781" y2="890.4844"/><line style="stroke:#181818;stroke-width:0.5;stroke-dasharray:5.0,5.0;" x1="2852.5" x2="2852.5" y1="125.5781" y2="890.4844"/><line style="stroke:#181818;stroke-width:0.5;stroke-dasharray:5.0,5.0;" x1="3353" x2="3353" y1="125.5781" y2="890.4844"/><text fill="#000000" font-family="sans-serif" font-size="20" lengthAdjust="spacing" textLength="149" x="20" y="120.8613">BackofficeUser</text><ellipse cx="97.5" cy="50.7969" fill="#E2E2F0" rx="8" ry="8" style="stroke:#181818;stroke-width:0.5;"/><path d="M97.5,58.7969 L97.5,85.7969 M84.5,66.7969 L110.5,66.7969 M97.5,85.7969 L84.5,100.7969 M97.5,85.7969 L110.5,100.7969 " fill="none" style="stroke:#181818;stroke-width:0.5;"/><text fill="#000000" font-family="sans-serif" font-size="20" lengthAdjust="spacing" textLength="149" x="20" y="908.0488">BackofficeUser</text><ellipse cx="97.5" cy="921.2656" fill="#E2E2F0" rx="8" ry="8" style="stroke:#181818;stroke-width:0.5;"/><path d="M97.5,929.2656 L97.5,956.2656 M84.5,937.2656 L110.5,937.2656 M97.5,956.2656 L84.5,971.2656 M97.5,956.2656 L110.5,971.2656 " fill="none" style="stroke:#181818;stroke-width:0.5;"/><rect fill="#E2E2F0" height="37.2813" rx="2.5" ry="2.5" style="stroke:#181818;stroke-width:0.5;" width="154" x="445.5" y="87.2969"/><text fill="#000000" font-family="sans-serif" font-size="20" lengthAdjust="spacing" textLength="140" x="452.5" y="112.8613">User Interface</text><rect fill="#E2E2F0" height="37.2813" rx="2.5" ry="2.5" style="stroke:#181818;stroke-width:0.5;" width="154" x="445.5" y="889.4844"/><text fill="#000000" font-family="sans-serif" font-size="20" lengthAdjust="spacing" textLength="140" x="452.5" y="915.0488">User Interface</text><rect fill="#E2E2F0" height="37.2813" rx="2.5" ry="2.5" style="stroke:#181818;stroke-width:0.5;" width="158" x="874.5" y="87.2969"/><text fill="#000000" font-family="sans-serif" font-size="20" lengthAdjust="spacing" textLength="144" x="881.5" y="112.8613">UserController</text><rect fill="#E2E2F0" height="37.2813" rx="2.5" ry="2.5" style="stroke:#181818;stroke-width:0.5;" width="158" x="874.5" y="889.4844"/><text fill="#000000" font-family="sans-serif" font-size="20" lengthAdjust="spacing" textLength="144" x="881.5" y="915.0488">UserController</text><rect fill="#E2E2F0" height="37.2813" rx="2.5" ry="2.5" style="stroke:#181818;stroke-width:0.5;" width="132" x="1818.5" y="87.2969"/><text fill="#000000" font-family="sans-serif" font-size="20" lengthAdjust="spacing" textLength="118" x="1825.5" y="112.8613">UserService</text><rect fill="#E2E2F0" height="37.2813" rx="2.5" ry="2.5" style="stroke:#181818;stroke-width:0.5;" width="132" x="1818.5" y="889.4844"/><text fill="#000000" font-family="sans-serif" font-size="20" lengthAdjust="spacing" textLength="118" x="1825.5" y="915.0488">UserService</text><rect fill="#E2E2F0" height="37.2813" rx="2.5" ry="2.5" style="stroke:#181818;stroke-width:0.5;" width="144" x="2494.5" y="87.2969"/><text fill="#000000" font-family="sans-serif" font-size="20" lengthAdjust="spacing" textLength="130" x="2501.5" y="112.8613">EmailService</text><rect fill="#E2E2F0" height="37.2813" rx="2.5" ry="2.5" style="stroke:#181818;stroke-width:0.5;" width="144" x="2494.5" y="889.4844"/><text fill="#000000" font-family="sans-serif" font-size="20" lengthAdjust="spacing" textLength="130" x="2501.5" y="915.0488">EmailService</text><rect fill="#E2E2F0" height="37.2813" rx="2.5" ry="2.5" style="stroke:#181818;stroke-width:0.5;" width="165" x="2648.5" y="87.2969"/><text fill="#000000" font-family="sans-serif" font-size="20" lengthAdjust="spacing" textLength="151" x="2655.5" y="112.8613">UserRepository</text><rect fill="#E2E2F0" height="37.2813" rx="2.5" ry="2.5" style="stroke:#181818;stroke-width:0.5;" width="165" x="2648.5" y="889.4844"/><text fill="#000000" font-family="sans-serif" font-size="20" lengthAdjust="spacing" textLength="151" x="2655.5" y="915.0488">UserRepository</text><rect fill="#E2E2F0" height="37.2813" rx="2.5" ry="2.5" style="stroke:#181818;stroke-width:0.5;" width="59" x="2823.5" y="87.2969"/><text fill="#000000" font-family="sans-serif" font-size="20" lengthAdjust="spacing" textLength="45" x="2830.5" y="112.8613">User</text><rect fill="#E2E2F0" height="37.2813" rx="2.5" ry="2.5" style="stroke:#181818;stroke-width:0.5;" width="59" x="2823.5" y="889.4844"/><text fill="#000000" font-family="sans-serif" font-size="20" lengthAdjust="spacing" textLength="45" x="2830.5" y="915.0488">User</text><rect fill="#E2E2F0" height="37.2813" rx="2.5" ry="2.5" style="stroke:#181818;stroke-width:0.5;" width="108" x="3299" y="87.2969"/><text fill="#000000" font-family="sans-serif" font-size="20" lengthAdjust="spacing" textLength="94" x="3306" y="112.8613">Database</text><rect fill="#E2E2F0" height="37.2813" rx="2.5" ry="2.5" style="stroke:#181818;stroke-width:0.5;" width="108" x="3299" y="889.4844"/><text fill="#000000" font-family="sans-serif" font-size="20" lengthAdjust="spacing" textLength="94" x="3306" y="915.0488">Database</text><rect fill="#FFFFFF" height="745.9063" style="stroke:#181818;stroke-width:1.0;" width="10" x="92.5" y="135.5781"/><rect fill="#FFFFFF" height="37.2813" style="stroke:#181818;stroke-width:1.0;" width="10" x="517.5" y="164.8594"/><rect fill="#FFFFFF" height="633.0625" style="stroke:#181818;stroke-width:1.0;" width="10" x="517.5" y="239.4219"/><rect fill="#FFFFFF" height="558.5" style="stroke:#181818;stroke-width:1.0;" width="10" x="948.5" y="276.7031"/><rect fill="#FFFFFF" height="483.9375" style="stroke:#181818;stroke-width:1.0;" width="10" x="1879.5" y="313.9844"/><rect fill="#FFFFFF" height="37.2813" style="stroke:#181818;stroke-width:1.0;" width="10" x="2561.5" y="591.2344"/><rect fill="#FFFFFF" height="111.8438" style="stroke:#181818;stroke-width:1.0;" width="10" x="2726" y="351.2656"/><rect fill="#FFFFFF" height="37.2813" style="stroke:#181818;stroke-width:1.0;" width="10" x="3348" y="388.5469"/><polygon fill="#000000" points="505.5,160.8594,515.5,164.8594,505.5,168.8594,509.5,164.8594" style="stroke:#000000;stroke-width:1.0;"/><line style="stroke:#000000;stroke-width:1.0;" x1="102.5" x2="511.5" y1="164.8594" y2="164.8594"/><text fill="#000000" font-family="sans-serif" font-size="20" lengthAdjust="spacing" textLength="249" x="109.5" y="158.1426">Requests password reset</text><polygon fill="#000000" points="113.5,198.1406,103.5,202.1406,113.5,206.1406,109.5,202.1406" style="stroke:#000000;stroke-width:1.0;"/><line style="stroke:#000000;stroke-width:1.0;stroke-dasharray:2.0,2.0;" x1="107.5" x2="521.5" y1="202.1406" y2="202.1406"/><text fill="#000000" font-family="sans-serif" font-size="20" lengthAdjust="spacing" textLength="225" x="119.5" y="195.4238">Asks for email address</text><polygon fill="#000000" points="505.5,235.4219,515.5,239.4219,505.5,243.4219,509.5,239.4219" style="stroke:#000000;stroke-width:1.0;"/><line style="stroke:#000000;stroke-width:1.0;" x1="102.5" x2="511.5" y1="239.4219" y2="239.4219"/><text fill="#000000" font-family="sans-serif" font-size="20" lengthAdjust="spacing" textLength="230" x="109.5" y="232.7051">Provides email address</text><polygon fill="#000000" points="936.5,272.7031,946.5,276.7031,936.5,280.7031,940.5,276.7031" style="stroke:#000000;stroke-width:1.0;"/><line style="stroke:#000000;stroke-width:1.0;" x1="527.5" x2="942.5" y1="276.7031" y2="276.7031"/><text fill="#000000" font-family="sans-serif" font-size="20" lengthAdjust="spacing" textLength="368" x="534.5" y="269.9863">RequestPasswordReset(string email)</text><polygon fill="#000000" points="1867.5,309.9844,1877.5,313.9844,1867.5,317.9844,1871.5,313.9844" style="stroke:#000000;stroke-width:1.0;"/><line style="stroke:#000000;stroke-width:1.0;" x1="958.5" x2="1873.5" y1="313.9844" y2="313.9844"/><text fill="#000000" font-family="sans-serif" font-size="20" lengthAdjust="spacing" textLength="368" x="965.5" y="307.2676">RequestPasswordReset(string email)</text><polygon fill="#000000" points="2714,347.2656,2724,351.2656,2714,355.2656,2718,351.2656" style="stroke:#000000;stroke-width:1.0;"/><line style="stroke:#000000;stroke-width:1.0;" x1="1889.5" x2="2720" y1="351.2656" y2="351.2656"/><text fill="#000000" font-family="sans-serif" font-size="20" lengthAdjust="spacing" textLength="291" x="1896.5" y="344.5488">getUserByEmailAsync(email)</text><polygon fill="#000000" points="3336,384.5469,3346,388.5469,3336,392.5469,3340,388.5469" style="stroke:#000000;stroke-width:1.0;"/><line style="stroke:#000000;stroke-width:1.0;" x1="2736" x2="3342" y1="388.5469" y2="388.5469"/><text fill="#000000" font-family="sans-serif" font-size="20" lengthAdjust="spacing" textLength="593" x="2743" y="381.8301">_objs.Where(x =&gt; x.Email == email).FirstOrDefaultAsync()</text><polygon fill="#000000" points="2747,421.8281,2737,425.8281,2747,429.8281,2743,425.8281" style="stroke:#000000;stroke-width:1.0;"/><line style="stroke:#000000;stroke-width:1.0;stroke-dasharray:2.0,2.0;" x1="2741" x2="3352" y1="425.8281" y2="425.8281"/><text fill="#000000" font-family="sans-serif" font-size="20" lengthAdjust="spacing" textLength="111" x="2753" y="419.1113">return user</text><polygon fill="#000000" points="1900.5,459.1094,1890.5,463.1094,1900.5,467.1094,1896.5,463.1094" style="stroke:#000000;stroke-width:1.0;"/><line style="stroke:#000000;stroke-width:1.0;stroke-dasharray:2.0,2.0;" x1="1894.5" x2="2730" y1="463.1094" y2="463.1094"/><text fill="#000000" font-family="sans-serif" font-size="20" lengthAdjust="spacing" textLength="111" x="1906.5" y="456.3926">return user</text><path d="M10,478.1094 L86,478.1094 L86,493.3906 L76,503.3906 L10,503.3906 L10,478.1094 " fill="#EEEEEE" style="stroke:#000000;stroke-width:1.5;"/><rect fill="none" height="283.5313" style="stroke:#000000;stroke-width:1.5;" width="2638.5" x="10" y="478.1094"/><text fill="#000000" font-family="sans-serif" font-size="20" font-weight="bold" lengthAdjust="spacing" textLength="31" x="25" y="497.6738">alt</text><text fill="#000000" font-family="sans-serif" font-size="20" font-weight="bold" lengthAdjust="spacing" textLength="314" x="101" y="498.6738">[user is not null and active]</text><line style="stroke:#000000;stroke-width:1.0;" x1="1889.5" x2="1931.5" y1="540.9531" y2="540.9531"/><line style="stroke:#000000;stroke-width:1.0;" x1="1931.5" x2="1931.5" y1="540.9531" y2="553.9531"/><line style="stroke:#000000;stroke-width:1.0;" x1="1890.5" x2="1931.5" y1="553.9531" y2="553.9531"/><polygon fill="#000000" points="1900.5,549.9531,1890.5,553.9531,1900.5,557.9531,1896.5,553.9531" style="stroke:#000000;stroke-width:1.0;"/><text fill="#000000" font-family="sans-serif" font-size="20" lengthAdjust="spacing" textLength="336" x="1896.5" y="534.2363">CreatePasswordResetToken(user)</text><polygon fill="#000000" points="2549.5,587.2344,2559.5,591.2344,2549.5,595.2344,2553.5,591.2344" style="stroke:#000000;stroke-width:1.0;"/><line style="stroke:#000000;stroke-width:1.0;" x1="1889.5" x2="2555.5" y1="591.2344" y2="591.2344"/><text fill="#000000" font-family="sans-serif" font-size="20" lengthAdjust="spacing" textLength="653" x="1896.5" y="584.5176">sendResetPasswordEmailAsync(email, user.Username, resetLink)</text><polygon fill="#000000" points="113.5,624.5156,103.5,628.5156,113.5,632.5156,109.5,628.5156" style="stroke:#000000;stroke-width:1.0;"/><line style="stroke:#000000;stroke-width:1.0;stroke-dasharray:2.0,2.0;" x1="107.5" x2="2565.5" y1="628.5156" y2="628.5156"/><text fill="#000000" font-family="sans-serif" font-size="20" lengthAdjust="spacing" textLength="397" x="119.5" y="621.7988">Sends by email a link to reset password</text><line style="stroke:#000000;stroke-width:1.0;stroke-dasharray:2.0,2.0;" x1="10" x2="2648.5" y1="637.5156" y2="637.5156"/><text fill="#000000" font-family="sans-serif" font-size="20" font-weight="bold" lengthAdjust="spacing" textLength="143" x="15" y="656.0801">[user is null]</text><polygon fill="#000000" points="969.5,687.0781,959.5,691.0781,969.5,695.0781,965.5,691.0781" style="stroke:#000000;stroke-width:1.0;"/><line style="stroke:#000000;stroke-width:1.0;stroke-dasharray:2.0,2.0;" x1="963.5" x2="1878.5" y1="691.0781" y2="691.0781"/><text fill="#000000" font-family="sans-serif" font-size="20" lengthAdjust="spacing" textLength="451" x="975.5" y="684.3613">throw new Exception("Email not registered")</text><line style="stroke:#000000;stroke-width:1.0;stroke-dasharray:2.0,2.0;" x1="10" x2="2648.5" y1="700.0781" y2="700.0781"/><text fill="#000000" font-family="sans-serif" font-size="20" font-weight="bold" lengthAdjust="spacing" textLength="216" x="15" y="718.6426">[user is not active]</text><polygon fill="#000000" points="969.5,749.6406,959.5,753.6406,969.5,757.6406,965.5,753.6406" style="stroke:#000000;stroke-width:1.0;"/><line style="stroke:#000000;stroke-width:1.0;stroke-dasharray:2.0,2.0;" x1="963.5" x2="1878.5" y1="753.6406" y2="753.6406"/><text fill="#000000" font-family="sans-serif" font-size="20" lengthAdjust="spacing" textLength="897" x="975.5" y="746.9238">throw new Exception("Account not active yet, check your email to activate the account.")</text><polygon fill="#000000" points="969.5,793.9219,959.5,797.9219,969.5,801.9219,965.5,797.9219" style="stroke:#000000;stroke-width:1.0;"/><line style="stroke:#000000;stroke-width:1.0;stroke-dasharray:2.0,2.0;" x1="963.5" x2="1883.5" y1="797.9219" y2="797.9219"/><text fill="#000000" font-family="sans-serif" font-size="20" lengthAdjust="spacing" textLength="397" x="975.5" y="791.2051">return Operation Status Response Code</text><polygon fill="#000000" points="538.5,831.2031,528.5,835.2031,538.5,839.2031,534.5,835.2031" style="stroke:#000000;stroke-width:1.0;"/><line style="stroke:#000000;stroke-width:1.0;stroke-dasharray:2.0,2.0;" x1="532.5" x2="952.5" y1="835.2031" y2="835.2031"/><text fill="#000000" font-family="sans-serif" font-size="20" lengthAdjust="spacing" textLength="397" x="544.5" y="828.4863">return Operation Status Response Code</text><polygon fill="#000000" points="113.5,868.4844,103.5,872.4844,113.5,876.4844,109.5,872.4844" style="stroke:#000000;stroke-width:1.0;"/><line style="stroke:#000000;stroke-width:1.0;stroke-dasharray:2.0,2.0;" x1="107.5" x2="521.5" y1="872.4844" y2="872.4844"/><text fill="#000000" font-family="sans-serif" font-size="20" lengthAdjust="spacing" textLength="391" x="119.5" y="865.7676">Returns Operation In/Success message</text><!--SRC=[bLN9Rjim4BthAmR9eGwGk6cBRaPYmDg0004II3LwB6XgR3EMIPMadAX5_xr3oekyj41y4-UzDmlVq6OXPCKqMvQABx200gUiBcsgfCt5BuJtrq5WXIqHxd659No0MB0PuM6gD3moOvwLBY13WpO8vg90m6Lb6rZYSeBQ16_C9WFS2ucsgH2KjdCL1Bi8Bqa8VWT0lv3nnKohMXQHAfM-kLcniiQ7oHDoEnp2UVmf6QLVJaErKXwJnaaONv_66DGhmT5BlKlV9-4f64aawTVaiu-Dj5RFxN5O4YxuqwszeXCsmzFLmtaIfX_Jq54Ojqw106ewfGh6L0am0-4u82KhkAYOj73cp- -aHJrb7CySP7nt38deYhGgIzGU4XqZyhPJ7yxtmycIYR8RJ_9ZVeQLCeAARZmaEqQqnUsVnyoo2JEjR1pwliMAMNIDXcEu6b8x0tBCpngDDJI_jOUqzz0MJJsFx-2AuE5u02EpCDvow2e7LXG4Dq61NVnE_L6h5NdH7C0FnOSGRIlPUDbRkMUi5dBMqYzsl2Y872j_7IiFSiVA1Z13w-OMDlu2HgQHl7U8peBCeUDm03_KvCdqlyzHO-y5ReVmqlT4kBrT9-cdGXlxeEDsRrl5ZXXTG1pwAL9sZRRM4cgge3ivmcGUalyJaWMijFuKX06fBCYwfBdA0Zm6lVdpzMmYZKJQ6yqtjK3PSm8NEsX2M8EoHMpWXvEvz6dxRcoIBV6ozGcz9OjMQLiZMTXz9_dMD3bf6vWq6nT0IIomgfNOEi_JEisI49O6T-rIgvkYMylOERq88F4PaXUEbHLAzjgTyhFHE1E6zXUBiui3AOhk3-m_WYFEwI6n7H8qQ2-1pv4le57rPXkeestnTexquObzbrqMmJRB-d8VAjJCfO3SCbiRztfNIbAPaIgmU-svi_jwfLvDZhhxctcswT3lvDkyvfpMaluhZA4dz62R_m80]--></g></svg>