<?xml version="1.0" encoding="UTF-8" standalone="no"?><svg xmlns="http://www.w3.org/2000/svg" xmlns:xlink="http://www.w3.org/1999/xlink" contentStyleType="text/css" height="557px" preserveAspectRatio="none" style="width:1352px;height:557px;background:#FFFFFF;" version="1.1" viewBox="0 0 1352 557" width="1352px" zoomAndPan="magnify"><defs/><g><text fill="#000000" font-family="sans-serif" font-size="14" font-weight="bold" lengthAdjust="spacing" textLength="187" x="584.5" y="27.9951">Level 2 Diagram- 7.2.10</text><rect fill="#FFFFFF" height="325.25" style="stroke:#181818;stroke-width:1.0;" width="10" x="36" y="135.5781"/><rect fill="#FFFFFF" height="286.9688" style="stroke:#181818;stroke-width:1.0;" width="10" x="426" y="164.8594"/><rect fill="#FFFFFF" height="87.5625" style="stroke:#181818;stroke-width:1.0;" width="10" x="889" y="326.9844"/><rect fill="#FFFFFF" height="87.5625" style="stroke:#181818;stroke-width:1.0;" width="10" x="1127" y="202.1406"/><line style="stroke:#181818;stroke-width:0.5;stroke-dasharray:5.0,5.0;" x1="41" x2="41" y1="125.5781" y2="469.8281"/><line style="stroke:#181818;stroke-width:0.5;stroke-dasharray:5.0,5.0;" x1="430.5" x2="430.5" y1="125.5781" y2="469.8281"/><line style="stroke:#181818;stroke-width:0.5;stroke-dasharray:5.0,5.0;" x1="894" x2="894" y1="125.5781" y2="469.8281"/><line style="stroke:#181818;stroke-width:0.5;stroke-dasharray:5.0,5.0;" x1="1132" x2="1132" y1="125.5781" y2="469.8281"/><text fill="#000000" font-family="sans-serif" font-size="20" lengthAdjust="spacing" textLength="66" x="5" y="120.8613">Admin</text><ellipse cx="41" cy="50.7969" fill="#E2E2F0" rx="8" ry="8" style="stroke:#181818;stroke-width:0.5;"/><path d="M41,58.7969 L41,85.7969 M28,66.7969 L54,66.7969 M41,85.7969 L28,100.7969 M41,85.7969 L54,100.7969 " fill="none" style="stroke:#181818;stroke-width:0.5;"/><text fill="#000000" font-family="sans-serif" font-size="20" lengthAdjust="spacing" textLength="66" x="5" y="487.3926">Admin</text><ellipse cx="41" cy="500.6094" fill="#E2E2F0" rx="8" ry="8" style="stroke:#181818;stroke-width:0.5;"/><path d="M41,508.6094 L41,535.6094 M28,516.6094 L54,516.6094 M41,535.6094 L28,550.6094 M41,535.6094 L54,550.6094 " fill="none" style="stroke:#181818;stroke-width:0.5;"/><rect fill="#E2E2F0" height="37.2813" rx="2.5" ry="2.5" style="stroke:#181818;stroke-width:0.5;" width="39" x="411.5" y="87.2969"/><text fill="#000000" font-family="sans-serif" font-size="20" lengthAdjust="spacing" textLength="25" x="418.5" y="112.8613">FE</text><rect fill="#E2E2F0" height="37.2813" rx="2.5" ry="2.5" style="stroke:#181818;stroke-width:0.5;" width="39" x="411.5" y="468.8281"/><text fill="#000000" font-family="sans-serif" font-size="20" lengthAdjust="spacing" textLength="25" x="418.5" y="494.3926">FE</text><rect fill="#E2E2F0" height="37.2813" rx="2.5" ry="2.5" style="stroke:#181818;stroke-width:0.5;" width="60" x="864" y="87.2969"/><text fill="#000000" font-family="sans-serif" font-size="20" lengthAdjust="spacing" textLength="46" x="871" y="112.8613">MDV</text><rect fill="#E2E2F0" height="37.2813" rx="2.5" ry="2.5" style="stroke:#181818;stroke-width:0.5;" width="60" x="864" y="468.8281"/><text fill="#000000" font-family="sans-serif" font-size="20" lengthAdjust="spacing" textLength="46" x="871" y="494.3926">MDV</text><rect fill="#E2E2F0" height="37.2813" rx="2.5" ry="2.5" style="stroke:#181818;stroke-width:0.5;" width="60" x="1102" y="87.2969"/><text fill="#000000" font-family="sans-serif" font-size="20" lengthAdjust="spacing" textLength="46" x="1109" y="112.8613">MDR</text><rect fill="#E2E2F0" height="37.2813" rx="2.5" ry="2.5" style="stroke:#181818;stroke-width:0.5;" width="60" x="1102" y="468.8281"/><text fill="#000000" font-family="sans-serif" font-size="20" lengthAdjust="spacing" textLength="46" x="1109" y="494.3926">MDR</text><rect fill="#FFFFFF" height="325.25" style="stroke:#181818;stroke-width:1.0;" width="10" x="36" y="135.5781"/><rect fill="#FFFFFF" height="286.9688" style="stroke:#181818;stroke-width:1.0;" width="10" x="426" y="164.8594"/><rect fill="#FFFFFF" height="87.5625" style="stroke:#181818;stroke-width:1.0;" width="10" x="889" y="326.9844"/><rect fill="#FFFFFF" height="87.5625" style="stroke:#181818;stroke-width:1.0;" width="10" x="1127" y="202.1406"/><polygon fill="#000000" points="414,160.8594,424,164.8594,414,168.8594,418,164.8594" style="stroke:#000000;stroke-width:1.0;"/><line style="stroke:#000000;stroke-width:1.0;" x1="46" x2="420" y1="164.8594" y2="164.8594"/><text fill="#000000" font-family="sans-serif" font-size="20" lengthAdjust="spacing" textLength="361" x="53" y="158.1426">Requests to add a new type of room</text><polygon fill="#000000" points="1115,198.1406,1125,202.1406,1115,206.1406,1119,202.1406" style="stroke:#000000;stroke-width:1.0;"/><line style="stroke:#000000;stroke-width:1.0;" x1="436" x2="1121" y1="202.1406" y2="202.1406"/><text fill="#000000" font-family="sans-serif" font-size="20" lengthAdjust="spacing" textLength="421" x="443" y="195.4238">Makes Http Request to validate room type</text><line style="stroke:#000000;stroke-width:1.0;" x1="1137" x2="1179" y1="239.4219" y2="239.4219"/><line style="stroke:#000000;stroke-width:1.0;" x1="1179" x2="1179" y1="239.4219" y2="252.4219"/><line style="stroke:#000000;stroke-width:1.0;" x1="1138" x2="1179" y1="252.4219" y2="252.4219"/><polygon fill="#000000" points="1148,248.4219,1138,252.4219,1148,256.4219,1144,252.4219" style="stroke:#000000;stroke-width:1.0;"/><text fill="#000000" font-family="sans-serif" font-size="20" lengthAdjust="spacing" textLength="201" x="1144" y="232.7051">Validates room type</text><polygon fill="#000000" points="447,285.7031,437,289.7031,447,293.7031,443,289.7031" style="stroke:#000000;stroke-width:1.0;"/><line style="stroke:#000000;stroke-width:1.0;stroke-dasharray:2.0,2.0;" x1="441" x2="1131" y1="289.7031" y2="289.7031"/><text fill="#000000" font-family="sans-serif" font-size="20" lengthAdjust="spacing" textLength="246" x="453" y="282.9863">Returns validation result</text><polygon fill="#000000" points="877,322.9844,887,326.9844,877,330.9844,881,326.9844" style="stroke:#000000;stroke-width:1.0;"/><line style="stroke:#000000;stroke-width:1.0;" x1="436" x2="883" y1="326.9844" y2="326.9844"/><text fill="#000000" font-family="sans-serif" font-size="20" lengthAdjust="spacing" textLength="434" x="443" y="320.2676">Makes Http Request to save new room type</text><line style="stroke:#000000;stroke-width:1.0;" x1="899" x2="941" y1="364.2656" y2="364.2656"/><line style="stroke:#000000;stroke-width:1.0;" x1="941" x2="941" y1="364.2656" y2="377.2656"/><line style="stroke:#000000;stroke-width:1.0;" x1="900" x2="941" y1="377.2656" y2="377.2656"/><polygon fill="#000000" points="910,373.2656,900,377.2656,910,381.2656,906,377.2656" style="stroke:#000000;stroke-width:1.0;"/><text fill="#000000" font-family="sans-serif" font-size="20" lengthAdjust="spacing" textLength="214" x="906" y="357.5488">Saves new room type</text><polygon fill="#000000" points="447,410.5469,437,414.5469,447,418.5469,443,414.5469" style="stroke:#000000;stroke-width:1.0;"/><line style="stroke:#000000;stroke-width:1.0;stroke-dasharray:2.0,2.0;" x1="441" x2="893" y1="414.5469" y2="414.5469"/><text fill="#000000" font-family="sans-serif" font-size="20" lengthAdjust="spacing" textLength="196" x="453" y="407.8301">Returns save status</text><polygon fill="#000000" points="57,447.8281,47,451.8281,57,455.8281,53,451.8281" style="stroke:#000000;stroke-width:1.0;"/><line style="stroke:#000000;stroke-width:1.0;stroke-dasharray:2.0,2.0;" x1="51" x2="430" y1="451.8281" y2="451.8281"/><text fill="#000000" font-family="sans-serif" font-size="20" lengthAdjust="spacing" textLength="327" x="63" y="445.1113">Returns success/failure message</text><!--SRC=[TP91Qzmm48Nl-XK3EIVTBBHfGrYmQuiU6WeRy7qYpMxLjIrN8pkafV-z8wLETXVN5yERzpuzZyK7rmyOi6kzEP05IpiSswXz7n_SBuBrIgdeOalmbIPgOGsLmxtuB-7cQdrrlLBVdIMWReZFq57tI86LufaAfaLc-Ar0dXBDOH_ysDlFllNXxcx2TgHlZp_8nCq6BgeFTQ4_Bbk3zzcZgxgiLiiUfZ0vGnbrhTTrkMGJHAq_rJTvLeJWdrxaiXMV-dFSVH05zxJS7YxgKh_NPOgWYI8KjdCz84EX91-TSGFs4NITD5sVYFTLarHvdSdR5tcReMx2I88hu78ZX5lOqi-HE3943sWj8FJq1F5v8F0xa1rrRp4vKOwMeD1kuHuFnF0bnc6698Ry06UJEKKpvosVIgG-Cw7vv-KZSvw_TejZw7bcEjz389Qxf2oTGETMpVzQCKwKFsonLQFIycR2WtZvp9pdPwqoaoF6aK_xDBcFk8iZysWCCR_ReMl7G7AlcUKY70Tbkty1]--></g></svg>