<?xml version="1.0" encoding="UTF-8" standalone="no"?><svg xmlns="http://www.w3.org/2000/svg" xmlns:xlink="http://www.w3.org/1999/xlink" contentStyleType="text/css" height="1002px" preserveAspectRatio="none" style="width:2768px;height:1002px;background:#FFFFFF;" version="1.1" viewBox="0 0 2768 1002" width="2768px" zoomAndPan="magnify"><defs/><g><text fill="#000000" font-family="sans-serif" font-size="14" font-weight="bold" lengthAdjust="spacing" textLength="231" x="1267.75" y="27.9951">Level 3 MDR Diagram - 7.2.10</text><rect fill="#FFFFFF" height="851.1875" style="stroke:#181818;stroke-width:1.0;" width="10" x="19.5" y="90.5781"/><rect fill="#FFFFFF" height="821.9063" style="stroke:#181818;stroke-width:1.0;" width="10" x="475.5" y="119.8594"/><rect fill="#FFFFFF" height="747.3438" style="stroke:#181818;stroke-width:1.0;" width="10" x="807.5" y="157.1406"/><rect fill="#FFFFFF" height="111.8438" style="stroke:#181818;stroke-width:1.0;" width="10" x="1027" y="356.5469"/><rect fill="#FFFFFF" height="124.8438" style="stroke:#181818;stroke-width:1.0;" width="10" x="1247.5" y="194.4219"/><rect fill="#FFFFFF" height="124.8438" style="stroke:#181818;stroke-width:1.0;" width="10" x="1247.5" y="505.6719"/><rect fill="#FFFFFF" height="43.2813" style="stroke:#181818;stroke-width:1.0;" width="10" x="1649.5" y="542.9531"/><rect fill="#FFFFFF" height="43.2813" style="stroke:#181818;stroke-width:1.0;" width="10" x="1838.5" y="231.7031"/><rect fill="#FFFFFF" height="111.8438" style="stroke:#181818;stroke-width:1.0;" width="10" x="1986.5" y="755.3594"/><rect fill="#FFFFFF" height="43.2813" style="stroke:#181818;stroke-width:1.0;" width="10" x="2099.5" y="667.7969"/><rect fill="#FFFFFF" height="37.2813" style="stroke:#181818;stroke-width:1.0;" width="10" x="2703.5" y="393.8281"/><rect fill="#FFFFFF" height="37.2813" style="stroke:#181818;stroke-width:1.0;" width="10" x="2703.5" y="792.6406"/><line style="stroke:#181818;stroke-width:0.5;stroke-dasharray:5.0,5.0;" x1="24" x2="24" y1="80.5781" y2="959.7656"/><line style="stroke:#181818;stroke-width:0.5;stroke-dasharray:5.0,5.0;" x1="84" x2="84" y1="80.5781" y2="959.7656"/><line style="stroke:#181818;stroke-width:0.5;stroke-dasharray:5.0,5.0;" x1="480" x2="480" y1="80.5781" y2="959.7656"/><line style="stroke:#181818;stroke-width:0.5;stroke-dasharray:5.0,5.0;" x1="812" x2="812" y1="80.5781" y2="959.7656"/><line style="stroke:#181818;stroke-width:0.5;stroke-dasharray:5.0,5.0;" x1="1032" x2="1032" y1="80.5781" y2="959.7656"/><line style="stroke:#181818;stroke-width:0.5;stroke-dasharray:5.0,5.0;" x1="1252" x2="1252" y1="80.5781" y2="959.7656"/><line style="stroke:#181818;stroke-width:0.5;stroke-dasharray:5.0,5.0;" x1="1654" x2="1654" y1="80.5781" y2="959.7656"/><line style="stroke:#181818;stroke-width:0.5;stroke-dasharray:5.0,5.0;" x1="1843.5" x2="1843.5" y1="80.5781" y2="959.7656"/><line style="stroke:#181818;stroke-width:0.5;stroke-dasharray:5.0,5.0;" x1="1991.5" x2="1991.5" y1="80.5781" y2="959.7656"/><line style="stroke:#181818;stroke-width:0.5;stroke-dasharray:5.0,5.0;" x1="2104.5" x2="2104.5" y1="80.5781" y2="959.7656"/><line style="stroke:#181818;stroke-width:0.5;stroke-dasharray:5.0,5.0;" x1="2708.5" x2="2708.5" y1="80.5781" y2="959.7656"/><rect fill="#E2E2F0" height="37.2813" rx="2.5" ry="2.5" style="stroke:#181818;stroke-width:0.5;" width="39" x="5" y="42.2969"/><text fill="#000000" font-family="sans-serif" font-size="20" lengthAdjust="spacing" textLength="25" x="12" y="67.8613">FE</text><rect fill="#E2E2F0" height="37.2813" rx="2.5" ry="2.5" style="stroke:#181818;stroke-width:0.5;" width="39" x="5" y="958.7656"/><text fill="#000000" font-family="sans-serif" font-size="20" lengthAdjust="spacing" textLength="25" x="12" y="984.3301">FE</text><rect fill="#E2E2F0" height="37.2813" rx="2.5" ry="2.5" style="stroke:#181818;stroke-width:0.5;" width="60" x="54" y="42.2969"/><text fill="#000000" font-family="sans-serif" font-size="20" lengthAdjust="spacing" textLength="46" x="61" y="67.8613">MDV</text><rect fill="#E2E2F0" height="37.2813" rx="2.5" ry="2.5" style="stroke:#181818;stroke-width:0.5;" width="60" x="54" y="958.7656"/><text fill="#000000" font-family="sans-serif" font-size="20" lengthAdjust="spacing" textLength="46" x="61" y="984.3301">MDV</text><rect fill="#E2E2F0" height="37.2813" rx="2.5" ry="2.5" style="stroke:#181818;stroke-width:0.5;" width="219" x="371" y="42.2969"/><text fill="#000000" font-family="sans-serif" font-size="20" lengthAdjust="spacing" textLength="205" x="378" y="67.8613">RoomTypeController</text><rect fill="#E2E2F0" height="37.2813" rx="2.5" ry="2.5" style="stroke:#181818;stroke-width:0.5;" width="219" x="371" y="958.7656"/><text fill="#000000" font-family="sans-serif" font-size="20" lengthAdjust="spacing" textLength="205" x="378" y="984.3301">RoomTypeController</text><rect fill="#E2E2F0" height="37.2813" rx="2.5" ry="2.5" style="stroke:#181818;stroke-width:0.5;" width="193" x="716" y="42.2969"/><text fill="#000000" font-family="sans-serif" font-size="20" lengthAdjust="spacing" textLength="179" x="723" y="67.8613">RoomTypeService</text><rect fill="#E2E2F0" height="37.2813" rx="2.5" ry="2.5" style="stroke:#181818;stroke-width:0.5;" width="193" x="716" y="958.7656"/><text fill="#000000" font-family="sans-serif" font-size="20" lengthAdjust="spacing" textLength="179" x="723" y="984.3301">RoomTypeService</text><rect fill="#E2E2F0" height="37.2813" rx="2.5" ry="2.5" style="stroke:#181818;stroke-width:0.5;" width="226" x="919" y="42.2969"/><text fill="#000000" font-family="sans-serif" font-size="20" lengthAdjust="spacing" textLength="212" x="926" y="67.8613">RoomTypeRepository</text><rect fill="#E2E2F0" height="37.2813" rx="2.5" ry="2.5" style="stroke:#181818;stroke-width:0.5;" width="226" x="919" y="958.7656"/><text fill="#000000" font-family="sans-serif" font-size="20" lengthAdjust="spacing" textLength="212" x="926" y="984.3301">RoomTypeRepository</text><rect fill="#E2E2F0" height="37.2813" rx="2.5" ry="2.5" style="stroke:#181818;stroke-width:0.5;" width="195" x="1155" y="42.2969"/><text fill="#000000" font-family="sans-serif" font-size="20" lengthAdjust="spacing" textLength="181" x="1162" y="67.8613">RoomTypeMapper</text><rect fill="#E2E2F0" height="37.2813" rx="2.5" ry="2.5" style="stroke:#181818;stroke-width:0.5;" width="195" x="1155" y="958.7656"/><text fill="#000000" font-family="sans-serif" font-size="20" lengthAdjust="spacing" textLength="181" x="1162" y="984.3301">RoomTypeMapper</text><rect fill="#E2E2F0" height="37.2813" rx="2.5" ry="2.5" style="stroke:#181818;stroke-width:0.5;" width="163" x="1573" y="42.2969"/><text fill="#000000" font-family="sans-serif" font-size="20" lengthAdjust="spacing" textLength="149" x="1580" y="67.8613">RoomTypeDTO</text><rect fill="#E2E2F0" height="37.2813" rx="2.5" ry="2.5" style="stroke:#181818;stroke-width:0.5;" width="163" x="1573" y="958.7656"/><text fill="#000000" font-family="sans-serif" font-size="20" lengthAdjust="spacing" textLength="149" x="1580" y="984.3301">RoomTypeDTO</text><rect fill="#E2E2F0" height="37.2813" rx="2.5" ry="2.5" style="stroke:#181818;stroke-width:0.5;" width="120" x="1783.5" y="42.2969"/><text fill="#000000" font-family="sans-serif" font-size="20" lengthAdjust="spacing" textLength="106" x="1790.5" y="67.8613">RoomType</text><rect fill="#E2E2F0" height="37.2813" rx="2.5" ry="2.5" style="stroke:#181818;stroke-width:0.5;" width="120" x="1783.5" y="958.7656"/><text fill="#000000" font-family="sans-serif" font-size="20" lengthAdjust="spacing" textLength="106" x="1790.5" y="984.3301">RoomType</text><rect fill="#E2E2F0" height="37.2813" rx="2.5" ry="2.5" style="stroke:#181818;stroke-width:0.5;" width="156" x="1913.5" y="42.2969"/><text fill="#000000" font-family="sans-serif" font-size="20" lengthAdjust="spacing" textLength="142" x="1920.5" y="67.8613">LogRepository</text><rect fill="#E2E2F0" height="37.2813" rx="2.5" ry="2.5" style="stroke:#181818;stroke-width:0.5;" width="156" x="1913.5" y="958.7656"/><text fill="#000000" font-family="sans-serif" font-size="20" lengthAdjust="spacing" textLength="142" x="1920.5" y="984.3301">LogRepository</text><rect fill="#E2E2F0" height="37.2813" rx="2.5" ry="2.5" style="stroke:#181818;stroke-width:0.5;" width="50" x="2079.5" y="42.2969"/><text fill="#000000" font-family="sans-serif" font-size="20" lengthAdjust="spacing" textLength="36" x="2086.5" y="67.8613">Log</text><rect fill="#E2E2F0" height="37.2813" rx="2.5" ry="2.5" style="stroke:#181818;stroke-width:0.5;" width="50" x="2079.5" y="958.7656"/><text fill="#000000" font-family="sans-serif" font-size="20" lengthAdjust="spacing" textLength="36" x="2086.5" y="984.3301">Log</text><rect fill="#E2E2F0" height="37.2813" rx="2.5" ry="2.5" style="stroke:#181818;stroke-width:0.5;" width="108" x="2654.5" y="42.2969"/><text fill="#000000" font-family="sans-serif" font-size="20" lengthAdjust="spacing" textLength="94" x="2661.5" y="67.8613">Database</text><rect fill="#E2E2F0" height="37.2813" rx="2.5" ry="2.5" style="stroke:#181818;stroke-width:0.5;" width="108" x="2654.5" y="958.7656"/><text fill="#000000" font-family="sans-serif" font-size="20" lengthAdjust="spacing" textLength="94" x="2661.5" y="984.3301">Database</text><rect fill="#FFFFFF" height="851.1875" style="stroke:#181818;stroke-width:1.0;" width="10" x="19.5" y="90.5781"/><rect fill="#FFFFFF" height="821.9063" style="stroke:#181818;stroke-width:1.0;" width="10" x="475.5" y="119.8594"/><rect fill="#FFFFFF" height="747.3438" style="stroke:#181818;stroke-width:1.0;" width="10" x="807.5" y="157.1406"/><rect fill="#FFFFFF" height="111.8438" style="stroke:#181818;stroke-width:1.0;" width="10" x="1027" y="356.5469"/><rect fill="#FFFFFF" height="124.8438" style="stroke:#181818;stroke-width:1.0;" width="10" x="1247.5" y="194.4219"/><rect fill="#FFFFFF" height="124.8438" style="stroke:#181818;stroke-width:1.0;" width="10" x="1247.5" y="505.6719"/><rect fill="#FFFFFF" height="43.2813" style="stroke:#181818;stroke-width:1.0;" width="10" x="1649.5" y="542.9531"/><rect fill="#FFFFFF" height="43.2813" style="stroke:#181818;stroke-width:1.0;" width="10" x="1838.5" y="231.7031"/><rect fill="#FFFFFF" height="111.8438" style="stroke:#181818;stroke-width:1.0;" width="10" x="1986.5" y="755.3594"/><rect fill="#FFFFFF" height="43.2813" style="stroke:#181818;stroke-width:1.0;" width="10" x="2099.5" y="667.7969"/><rect fill="#FFFFFF" height="37.2813" style="stroke:#181818;stroke-width:1.0;" width="10" x="2703.5" y="393.8281"/><rect fill="#FFFFFF" height="37.2813" style="stroke:#181818;stroke-width:1.0;" width="10" x="2703.5" y="792.6406"/><polygon fill="#000000" points="463.5,115.8594,473.5,119.8594,463.5,123.8594,467.5,119.8594" style="stroke:#000000;stroke-width:1.0;"/><line style="stroke:#000000;stroke-width:1.0;" x1="29.5" x2="469.5" y1="119.8594" y2="119.8594"/><text fill="#000000" font-family="sans-serif" font-size="20" lengthAdjust="spacing" textLength="427" x="36.5" y="113.1426">Makes Http Request to add new room type</text><polygon fill="#000000" points="795.5,153.1406,805.5,157.1406,795.5,161.1406,799.5,157.1406" style="stroke:#000000;stroke-width:1.0;"/><line style="stroke:#000000;stroke-width:1.0;" x1="485.5" x2="801.5" y1="157.1406" y2="157.1406"/><text fill="#000000" font-family="sans-serif" font-size="20" lengthAdjust="spacing" textLength="303" x="492.5" y="150.4238">addRoomType(roomTypeDTO)</text><polygon fill="#000000" points="1235.5,190.4219,1245.5,194.4219,1235.5,198.4219,1239.5,194.4219" style="stroke:#000000;stroke-width:1.0;"/><line style="stroke:#000000;stroke-width:1.0;" x1="817.5" x2="1241.5" y1="194.4219" y2="194.4219"/><text fill="#000000" font-family="sans-serif" font-size="20" lengthAdjust="spacing" textLength="238" x="824.5" y="187.7051">toEntity(roomTypeDTO)</text><polygon fill="#000000" points="1826.5,227.7031,1836.5,231.7031,1826.5,235.7031,1830.5,231.7031" style="stroke:#000000;stroke-width:1.0;"/><line style="stroke:#000000;stroke-width:1.0;" x1="1257.5" x2="1832.5" y1="231.7031" y2="231.7031"/><text fill="#000000" font-family="sans-serif" font-size="20" lengthAdjust="spacing" textLength="373" x="1264.5" y="224.9863">new RoomType(roomTypeDTO fields)</text><line style="stroke:#000000;stroke-width:1.0;stroke-dasharray:2.0,2.0;" x1="1848.5" x2="1890.5" y1="273.9844" y2="273.9844"/><line style="stroke:#000000;stroke-width:1.0;stroke-dasharray:2.0,2.0;" x1="1890.5" x2="1890.5" y1="273.9844" y2="286.9844"/><line style="stroke:#000000;stroke-width:1.0;stroke-dasharray:2.0,2.0;" x1="1843.5" x2="1890.5" y1="286.9844" y2="286.9844"/><polygon fill="#000000" points="1853.5,282.9844,1843.5,286.9844,1853.5,290.9844,1849.5,286.9844" style="stroke:#000000;stroke-width:1.0;"/><text fill="#000000" font-family="sans-serif" font-size="20" lengthAdjust="spacing" textLength="122" x="1855.5" y="267.2676">RoomType()</text><polygon fill="#000000" points="828.5,315.2656,818.5,319.2656,828.5,323.2656,824.5,319.2656" style="stroke:#000000;stroke-width:1.0;"/><line style="stroke:#000000;stroke-width:1.0;stroke-dasharray:2.0,2.0;" x1="822.5" x2="1251.5" y1="319.2656" y2="319.2656"/><text fill="#000000" font-family="sans-serif" font-size="20" lengthAdjust="spacing" textLength="184" x="834.5" y="312.5488">returns RoomType</text><polygon fill="#000000" points="1015,352.5469,1025,356.5469,1015,360.5469,1019,356.5469" style="stroke:#000000;stroke-width:1.0;"/><line style="stroke:#000000;stroke-width:1.0;" x1="817.5" x2="1021" y1="356.5469" y2="356.5469"/><text fill="#000000" font-family="sans-serif" font-size="20" lengthAdjust="spacing" textLength="167" x="824.5" y="349.8301">save(RoomType)</text><polygon fill="#000000" points="2691.5,389.8281,2701.5,393.8281,2691.5,397.8281,2695.5,393.8281" style="stroke:#000000;stroke-width:1.0;"/><line style="stroke:#000000;stroke-width:1.0;" x1="1037" x2="2697.5" y1="393.8281" y2="393.8281"/><text fill="#000000" font-family="sans-serif" font-size="20" lengthAdjust="spacing" textLength="442" x="1044" y="387.1113">INSERT INTO RoomType (fields) VALUES (...)</text><polygon fill="#000000" points="1048,427.1094,1038,431.1094,1048,435.1094,1044,431.1094" style="stroke:#000000;stroke-width:1.0;"/><line style="stroke:#000000;stroke-width:1.0;stroke-dasharray:2.0,2.0;" x1="1042" x2="2707.5" y1="431.1094" y2="431.1094"/><text fill="#000000" font-family="sans-serif" font-size="20" lengthAdjust="spacing" textLength="184" x="1054" y="424.3926">returns RoomType</text><polygon fill="#000000" points="828.5,464.3906,818.5,468.3906,828.5,472.3906,824.5,468.3906" style="stroke:#000000;stroke-width:1.0;"/><line style="stroke:#000000;stroke-width:1.0;stroke-dasharray:2.0,2.0;" x1="822.5" x2="1031" y1="468.3906" y2="468.3906"/><text fill="#000000" font-family="sans-serif" font-size="20" lengthAdjust="spacing" textLength="184" x="834.5" y="461.6738">returns RoomType</text><polygon fill="#000000" points="1235.5,501.6719,1245.5,505.6719,1235.5,509.6719,1239.5,505.6719" style="stroke:#000000;stroke-width:1.0;"/><line style="stroke:#000000;stroke-width:1.0;" x1="817.5" x2="1241.5" y1="505.6719" y2="505.6719"/><text fill="#000000" font-family="sans-serif" font-size="20" lengthAdjust="spacing" textLength="177" x="824.5" y="498.9551">toDto(RoomType)</text><polygon fill="#000000" points="1637.5,538.9531,1647.5,542.9531,1637.5,546.9531,1641.5,542.9531" style="stroke:#000000;stroke-width:1.0;"/><line style="stroke:#000000;stroke-width:1.0;" x1="1257.5" x2="1643.5" y1="542.9531" y2="542.9531"/><text fill="#000000" font-family="sans-serif" font-size="20" lengthAdjust="spacing" textLength="373" x="1264.5" y="536.2363">new RoomTypeDTO(roomType fields)</text><line style="stroke:#000000;stroke-width:1.0;stroke-dasharray:2.0,2.0;" x1="1659.5" x2="1701.5" y1="585.2344" y2="585.2344"/><line style="stroke:#000000;stroke-width:1.0;stroke-dasharray:2.0,2.0;" x1="1701.5" x2="1701.5" y1="585.2344" y2="598.2344"/><line style="stroke:#000000;stroke-width:1.0;stroke-dasharray:2.0,2.0;" x1="1654.5" x2="1701.5" y1="598.2344" y2="598.2344"/><polygon fill="#000000" points="1664.5,594.2344,1654.5,598.2344,1664.5,602.2344,1660.5,598.2344" style="stroke:#000000;stroke-width:1.0;"/><text fill="#000000" font-family="sans-serif" font-size="20" lengthAdjust="spacing" textLength="165" x="1666.5" y="578.5176">RoomTypeDTO()</text><polygon fill="#000000" points="828.5,626.5156,818.5,630.5156,828.5,634.5156,824.5,630.5156" style="stroke:#000000;stroke-width:1.0;"/><line style="stroke:#000000;stroke-width:1.0;stroke-dasharray:2.0,2.0;" x1="822.5" x2="1251.5" y1="630.5156" y2="630.5156"/><text fill="#000000" font-family="sans-serif" font-size="20" lengthAdjust="spacing" textLength="227" x="834.5" y="623.7988">returns RoomTypeDTO</text><polygon fill="#000000" points="2087.5,663.7969,2097.5,667.7969,2087.5,671.7969,2091.5,667.7969" style="stroke:#000000;stroke-width:1.0;"/><line style="stroke:#000000;stroke-width:1.0;" x1="817.5" x2="2093.5" y1="667.7969" y2="667.7969"/><text fill="#000000" font-family="sans-serif" font-size="20" lengthAdjust="spacing" textLength="703" x="824.5" y="661.0801">new Log(TypeOfAction.Create, roomType.Id, "New room type added.")</text><line style="stroke:#000000;stroke-width:1.0;" x1="2109.5" x2="2151.5" y1="710.0781" y2="710.0781"/><line style="stroke:#000000;stroke-width:1.0;" x1="2151.5" x2="2151.5" y1="710.0781" y2="723.0781"/><line style="stroke:#000000;stroke-width:1.0;" x1="2104.5" x2="2151.5" y1="723.0781" y2="723.0781"/><polygon fill="#000000" points="2114.5,719.0781,2104.5,723.0781,2114.5,727.0781,2110.5,723.0781" style="stroke:#000000;stroke-width:1.0;"/><text fill="#000000" font-family="sans-serif" font-size="20" lengthAdjust="spacing" textLength="52" x="2116.5" y="703.3613">Log()</text><polygon fill="#000000" points="1974.5,751.3594,1984.5,755.3594,1974.5,759.3594,1978.5,755.3594" style="stroke:#000000;stroke-width:1.0;"/><line style="stroke:#000000;stroke-width:1.0;" x1="817.5" x2="1980.5" y1="755.3594" y2="755.3594"/><text fill="#000000" font-family="sans-serif" font-size="20" lengthAdjust="spacing" textLength="144" x="824.5" y="748.6426">addAsync(log)</text><polygon fill="#000000" points="2691.5,788.6406,2701.5,792.6406,2691.5,796.6406,2695.5,792.6406" style="stroke:#000000;stroke-width:1.0;"/><line style="stroke:#000000;stroke-width:1.0;" x1="1996.5" x2="2697.5" y1="792.6406" y2="792.6406"/><text fill="#000000" font-family="sans-serif" font-size="20" lengthAdjust="spacing" textLength="688" x="2003.5" y="785.9238">INSERT INTO Log (TypeOfAction, RoomTypeId, Message) VALUES (...)</text><polygon fill="#000000" points="2007.5,825.9219,1997.5,829.9219,2007.5,833.9219,2003.5,829.9219" style="stroke:#000000;stroke-width:1.0;"/><line style="stroke:#000000;stroke-width:1.0;stroke-dasharray:2.0,2.0;" x1="2001.5" x2="2707.5" y1="829.9219" y2="829.9219"/><text fill="#000000" font-family="sans-serif" font-size="20" lengthAdjust="spacing" textLength="114" x="2013.5" y="823.2051">returns Log</text><polygon fill="#000000" points="828.5,863.2031,818.5,867.2031,828.5,871.2031,824.5,867.2031" style="stroke:#000000;stroke-width:1.0;"/><line style="stroke:#000000;stroke-width:1.0;stroke-dasharray:2.0,2.0;" x1="822.5" x2="1990.5" y1="867.2031" y2="867.2031"/><text fill="#000000" font-family="sans-serif" font-size="20" lengthAdjust="spacing" textLength="114" x="834.5" y="860.4863">returns Log</text><polygon fill="#000000" points="496.5,900.4844,486.5,904.4844,496.5,908.4844,492.5,904.4844" style="stroke:#000000;stroke-width:1.0;"/><line style="stroke:#000000;stroke-width:1.0;stroke-dasharray:2.0,2.0;" x1="490.5" x2="811.5" y1="904.4844" y2="904.4844"/><text fill="#000000" font-family="sans-serif" font-size="20" lengthAdjust="spacing" textLength="227" x="502.5" y="897.7676">returns RoomTypeDTO</text><polygon fill="#000000" points="35.5,937.7656,25.5,941.7656,35.5,945.7656,31.5,941.7656" style="stroke:#000000;stroke-width:1.0;"/><line style="stroke:#000000;stroke-width:1.0;stroke-dasharray:2.0,2.0;" x1="29.5" x2="479.5" y1="941.7656" y2="941.7656"/><text fill="#000000" font-family="sans-serif" font-size="20" lengthAdjust="spacing" textLength="305" x="41.5" y="935.0488">returns Operation Status Code</text><!--SRC=[ZPHHJzim58NVyokkoiCw2I9WsjWgXDJKYLOfeP83l9laKhAcSMQxHTsq_xxh9csJpi0gqGhxEzVd7jz4Bugg5aeiIvajC8SSdyIgD96iJ5hyGhWyzpnJc18XnZMMy0aIne4LOauQE8Ch_zA_8EQvo15mMPiDB77vY4fx7_IkDiH5XMPJ8qXbdgNd7NQoKcWDlpsWJo2onLp9LPLFP2dLzVLQb2kSFVx0pDpSm0dx4ewZhsvKIRbb8XO6xDpDQ5Jh8iDjgOleCWnS69pSJwDluTLsRwoKV6cMWv8uxq_NUqqhOevkzt0I1j7dAB0ImasH5RMe34GX24tVlSM4FTXL-kaj3xYKoplARKBNeMHPeXfOZjzDt5pQTDX2gHlYM4jT6AasBSVTN2BgUdzWucROtQm5c1jeT_kRiPmVcOZvFqIptbzcmeX7ePkgBF0yaPbYBGpQG2dPinkRpGWIiK0DtusfWUFF5Me3HeB8SwZm1MXMbc37yI2tYT9VKo0TMNJNmL0TUltOLQIaI1j5CgBwOKKFokPLF24yQV3HreRh07WgiCnrJqWwE6jrUyr7ByS-axGGkLTeLghIUxhF9WVVV0HQh76u0tldSkAuvLWmWkbj6fAFwIrvtD4mRDt2mpY-3rCO-hxVAK4Nn8BM5N_R5Q7Rm_wl0twKF3FItK8dSzOFdRBUv-uAdP6IjNxOg2SxYfwzdJqfNea_RXpHg0yjE7iQ4oGhVwAGo5FOsVEd-IaCRhk3Q-SJSt_GiHnxSLlK5knvZFSdykraZ_McoeQbd7Vbt8kTbqtLeEVlTD-QzPMWrlGEV7y4uiu4KCsZouyTTtz4nUsjxvxnTuDEcoUQ-2Wyu3DwfmdR1wH6c9M6YSoFnclI_PTUB7y1]--></g></svg>