<?xml version="1.0" encoding="UTF-8" standalone="no"?><svg xmlns="http://www.w3.org/2000/svg" xmlns:xlink="http://www.w3.org/1999/xlink" contentStyleType="text/css" height="860px" preserveAspectRatio="none" style="width:2903px;height:860px;background:#FFFFFF;" version="1.1" viewBox="0 0 2903 860" width="2903px" zoomAndPan="magnify"><defs/><g><text fill="#000000" font-family="sans-serif" font-size="14" font-weight="bold" lengthAdjust="spacing" textLength="368" x="1269.5" y="27.9951">Level 3 FE Diagram - Add New Types of Rooms</text><rect fill="#FFFFFF" height="628.5" style="stroke:#181818;stroke-width:1.0;" width="10" x="36" y="135.5781"/><rect fill="#FFFFFF" height="590.2188" style="stroke:#181818;stroke-width:1.0;" width="10" x="402" y="164.8594"/><rect fill="#FFFFFF" height="37.2813" style="stroke:#181818;stroke-width:1.0;" width="10" x="743" y="202.1406"/><rect fill="#FFFFFF" height="478.375" style="stroke:#181818;stroke-width:1.0;" width="10" x="1156" y="239.4219"/><rect fill="#FFFFFF" height="353.5313" style="stroke:#181818;stroke-width:1.0;" width="10" x="1571" y="276.7031"/><rect fill="#FFFFFF" height="278.9688" style="stroke:#181818;stroke-width:1.0;" width="10" x="1986" y="313.9844"/><rect fill="#FFFFFF" height="87.5625" style="stroke:#181818;stroke-width:1.0;" width="10" x="2573" y="468.1094"/><line style="stroke:#181818;stroke-width:0.5;stroke-dasharray:5.0,5.0;" x1="41" x2="41" y1="125.5781" y2="773.0781"/><line style="stroke:#181818;stroke-width:0.5;stroke-dasharray:5.0,5.0;" x1="406.5" x2="406.5" y1="125.5781" y2="773.0781"/><line style="stroke:#181818;stroke-width:0.5;stroke-dasharray:5.0,5.0;" x1="747.5" x2="747.5" y1="125.5781" y2="773.0781"/><line style="stroke:#181818;stroke-width:0.5;stroke-dasharray:5.0,5.0;" x1="1160.5" x2="1160.5" y1="125.5781" y2="773.0781"/><line style="stroke:#181818;stroke-width:0.5;stroke-dasharray:5.0,5.0;" x1="1575.5" x2="1575.5" y1="125.5781" y2="773.0781"/><line style="stroke:#181818;stroke-width:0.5;stroke-dasharray:5.0,5.0;" x1="1990.5" x2="1990.5" y1="125.5781" y2="773.0781"/><line style="stroke:#181818;stroke-width:0.5;stroke-dasharray:5.0,5.0;" x1="2578" x2="2578" y1="125.5781" y2="773.0781"/><text fill="#000000" font-family="sans-serif" font-size="20" lengthAdjust="spacing" textLength="66" x="5" y="120.8613">Admin</text><ellipse cx="41" cy="50.7969" fill="#E2E2F0" rx="8" ry="8" style="stroke:#181818;stroke-width:0.5;"/><path d="M41,58.7969 L41,85.7969 M28,66.7969 L54,66.7969 M41,85.7969 L28,100.7969 M41,85.7969 L54,100.7969 " fill="none" style="stroke:#181818;stroke-width:0.5;"/><text fill="#000000" font-family="sans-serif" font-size="20" lengthAdjust="spacing" textLength="66" x="5" y="790.6426">Admin</text><ellipse cx="41" cy="803.8594" fill="#E2E2F0" rx="8" ry="8" style="stroke:#181818;stroke-width:0.5;"/><path d="M41,811.8594 L41,838.8594 M28,819.8594 L54,819.8594 M41,838.8594 L28,853.8594 M41,838.8594 L54,853.8594 " fill="none" style="stroke:#181818;stroke-width:0.5;"/><rect fill="#E2E2F0" height="37.2813" rx="2.5" ry="2.5" style="stroke:#181818;stroke-width:0.5;" width="63" x="375.5" y="87.2969"/><text fill="#000000" font-family="sans-serif" font-size="20" lengthAdjust="spacing" textLength="49" x="382.5" y="112.8613">View</text><rect fill="#E2E2F0" height="37.2813" rx="2.5" ry="2.5" style="stroke:#181818;stroke-width:0.5;" width="63" x="375.5" y="772.0781"/><text fill="#000000" font-family="sans-serif" font-size="20" lengthAdjust="spacing" textLength="49" x="382.5" y="797.6426">View</text><rect fill="#E2E2F0" height="37.2813" rx="2.5" ry="2.5" style="stroke:#181818;stroke-width:0.5;" width="247" x="624.5" y="87.2969"/><text fill="#000000" font-family="sans-serif" font-size="20" lengthAdjust="spacing" textLength="233" x="631.5" y="112.8613">RoomTypesComponent</text><rect fill="#E2E2F0" height="37.2813" rx="2.5" ry="2.5" style="stroke:#181818;stroke-width:0.5;" width="247" x="624.5" y="772.0781"/><text fill="#000000" font-family="sans-serif" font-size="20" lengthAdjust="spacing" textLength="233" x="631.5" y="797.6426">RoomTypesComponent</text><rect fill="#E2E2F0" height="37.2813" rx="2.5" ry="2.5" style="stroke:#181818;stroke-width:0.5;" width="303" x="1009.5" y="87.2969"/><text fill="#000000" font-family="sans-serif" font-size="20" lengthAdjust="spacing" textLength="289" x="1016.5" y="112.8613">CreateRoomTypeComponent</text><rect fill="#E2E2F0" height="37.2813" rx="2.5" ry="2.5" style="stroke:#181818;stroke-width:0.5;" width="303" x="1009.5" y="772.0781"/><text fill="#000000" font-family="sans-serif" font-size="20" lengthAdjust="spacing" textLength="289" x="1016.5" y="797.6426">CreateRoomTypeComponent</text><rect fill="#E2E2F0" height="37.2813" rx="2.5" ry="2.5" style="stroke:#181818;stroke-width:0.5;" width="193" x="1479.5" y="87.2969"/><text fill="#000000" font-family="sans-serif" font-size="20" lengthAdjust="spacing" textLength="179" x="1486.5" y="112.8613">RoomTypeService</text><rect fill="#E2E2F0" height="37.2813" rx="2.5" ry="2.5" style="stroke:#181818;stroke-width:0.5;" width="193" x="1479.5" y="772.0781"/><text fill="#000000" font-family="sans-serif" font-size="20" lengthAdjust="spacing" textLength="179" x="1486.5" y="797.6426">RoomTypeService</text><rect fill="#E2E2F0" height="37.2813" rx="2.5" ry="2.5" style="stroke:#181818;stroke-width:0.5;" width="173" x="1904.5" y="87.2969"/><text fill="#000000" font-family="sans-serif" font-size="20" lengthAdjust="spacing" textLength="159" x="1911.5" y="112.8613">AuthInterceptor</text><rect fill="#E2E2F0" height="37.2813" rx="2.5" ry="2.5" style="stroke:#181818;stroke-width:0.5;" width="173" x="1904.5" y="772.0781"/><text fill="#000000" font-family="sans-serif" font-size="20" lengthAdjust="spacing" textLength="159" x="1911.5" y="797.6426">AuthInterceptor</text><rect fill="#E2E2F0" height="37.2813" rx="2.5" ry="2.5" style="stroke:#181818;stroke-width:0.5;" width="60" x="2548" y="87.2969"/><text fill="#000000" font-family="sans-serif" font-size="20" lengthAdjust="spacing" textLength="46" x="2555" y="112.8613">MDR</text><rect fill="#E2E2F0" height="37.2813" rx="2.5" ry="2.5" style="stroke:#181818;stroke-width:0.5;" width="60" x="2548" y="772.0781"/><text fill="#000000" font-family="sans-serif" font-size="20" lengthAdjust="spacing" textLength="46" x="2555" y="797.6426">MDR</text><rect fill="#FFFFFF" height="628.5" style="stroke:#181818;stroke-width:1.0;" width="10" x="36" y="135.5781"/><rect fill="#FFFFFF" height="590.2188" style="stroke:#181818;stroke-width:1.0;" width="10" x="402" y="164.8594"/><rect fill="#FFFFFF" height="37.2813" style="stroke:#181818;stroke-width:1.0;" width="10" x="743" y="202.1406"/><rect fill="#FFFFFF" height="478.375" style="stroke:#181818;stroke-width:1.0;" width="10" x="1156" y="239.4219"/><rect fill="#FFFFFF" height="353.5313" style="stroke:#181818;stroke-width:1.0;" width="10" x="1571" y="276.7031"/><rect fill="#FFFFFF" height="278.9688" style="stroke:#181818;stroke-width:1.0;" width="10" x="1986" y="313.9844"/><rect fill="#FFFFFF" height="87.5625" style="stroke:#181818;stroke-width:1.0;" width="10" x="2573" y="468.1094"/><polygon fill="#000000" points="390,160.8594,400,164.8594,390,168.8594,394,164.8594" style="stroke:#000000;stroke-width:1.0;"/><line style="stroke:#000000;stroke-width:1.0;" x1="46" x2="396" y1="164.8594" y2="164.8594"/><text fill="#000000" font-family="sans-serif" font-size="20" lengthAdjust="spacing" textLength="315" x="53" y="158.1426">Asks to add a new type of room</text><polygon fill="#000000" points="731,198.1406,741,202.1406,731,206.1406,735,202.1406" style="stroke:#000000;stroke-width:1.0;"/><line style="stroke:#000000;stroke-width:1.0;" x1="412" x2="737" y1="202.1406" y2="202.1406"/><text fill="#000000" font-family="sans-serif" font-size="20" lengthAdjust="spacing" textLength="312" x="419" y="195.4238">routerLink='/create-room-type'</text><polygon fill="#000000" points="1144,235.4219,1154,239.4219,1144,243.4219,1148,239.4219" style="stroke:#000000;stroke-width:1.0;"/><line style="stroke:#000000;stroke-width:1.0;" x1="748" x2="1150" y1="239.4219" y2="239.4219"/><text fill="#000000" font-family="sans-serif" font-size="20" lengthAdjust="spacing" textLength="384" x="755" y="232.7051">routes to CreateRoomTypeComponent</text><polygon fill="#000000" points="1559,272.7031,1569,276.7031,1559,280.7031,1563,276.7031" style="stroke:#000000;stroke-width:1.0;"/><line style="stroke:#000000;stroke-width:1.0;" x1="1166" x2="1565" y1="276.7031" y2="276.7031"/><text fill="#000000" font-family="sans-serif" font-size="20" lengthAdjust="spacing" textLength="314" x="1173" y="269.9863">saveRoomType(roomTypeData)</text><polygon fill="#000000" points="1974,309.9844,1984,313.9844,1974,317.9844,1978,313.9844" style="stroke:#000000;stroke-width:1.0;"/><line style="stroke:#000000;stroke-width:1.0;" x1="1581" x2="1980" y1="313.9844" y2="313.9844"/><text fill="#000000" font-family="sans-serif" font-size="20" lengthAdjust="spacing" textLength="386" x="1588" y="307.2676">Makes Http Request to save room type</text><line style="stroke:#000000;stroke-width:1.0;" x1="1996" x2="2038" y1="351.2656" y2="351.2656"/><line style="stroke:#000000;stroke-width:1.0;" x1="2038" x2="2038" y1="351.2656" y2="364.2656"/><line style="stroke:#000000;stroke-width:1.0;" x1="1997" x2="2038" y1="364.2656" y2="364.2656"/><polygon fill="#000000" points="2007,360.2656,1997,364.2656,2007,368.2656,2003,364.2656" style="stroke:#000000;stroke-width:1.0;"/><text fill="#000000" font-family="sans-serif" font-size="20" lengthAdjust="spacing" textLength="563" x="2003" y="344.5488">Intercepts the request and adds the token to the header</text><path d="M2001,377.2656 L2001,433.2656 L2520,433.2656 L2520,387.2656 L2510,377.2656 L2001,377.2656 " fill="#FEFFDD" style="stroke:#181818;stroke-width:0.5;"/><path d="M2510,377.2656 L2510,387.2656 L2520,387.2656 L2510,377.2656 " fill="#FEFFDD" style="stroke:#181818;stroke-width:0.5;"/><text fill="#000000" font-family="sans-serif" font-size="20" lengthAdjust="spacing" textLength="498" x="2007" y="400.8301">The token is added to the header so that the MDR</text><text fill="#000000" font-family="sans-serif" font-size="20" lengthAdjust="spacing" textLength="442" x="2007" y="424.1113">can authenticate and authorize the request.</text><polygon fill="#000000" points="2561,464.1094,2571,468.1094,2561,472.1094,2565,468.1094" style="stroke:#000000;stroke-width:1.0;"/><line style="stroke:#000000;stroke-width:1.0;" x1="1996" x2="2567" y1="468.1094" y2="468.1094"/><text fill="#000000" font-family="sans-serif" font-size="20" lengthAdjust="spacing" textLength="314" x="2003" y="461.3926">saveRoomType(roomTypeData)</text><line style="stroke:#000000;stroke-width:1.0;" x1="2583" x2="2625" y1="505.3906" y2="505.3906"/><line style="stroke:#000000;stroke-width:1.0;" x1="2625" x2="2625" y1="505.3906" y2="518.3906"/><line style="stroke:#000000;stroke-width:1.0;" x1="2584" x2="2625" y1="518.3906" y2="518.3906"/><polygon fill="#000000" points="2594,514.3906,2584,518.3906,2594,522.3906,2590,518.3906" style="stroke:#000000;stroke-width:1.0;"/><text fill="#000000" font-family="sans-serif" font-size="20" lengthAdjust="spacing" textLength="306" x="2590" y="498.6738">Validates and saves room type</text><polygon fill="#000000" points="2007,551.6719,1997,555.6719,2007,559.6719,2003,555.6719" style="stroke:#000000;stroke-width:1.0;"/><line style="stroke:#000000;stroke-width:1.0;stroke-dasharray:2.0,2.0;" x1="2001" x2="2577" y1="555.6719" y2="555.6719"/><text fill="#000000" font-family="sans-serif" font-size="20" lengthAdjust="spacing" textLength="305" x="2013" y="548.9551">returns Operation Status Code</text><polygon fill="#000000" points="1592,588.9531,1582,592.9531,1592,596.9531,1588,592.9531" style="stroke:#000000;stroke-width:1.0;"/><line style="stroke:#000000;stroke-width:1.0;stroke-dasharray:2.0,2.0;" x1="1586" x2="1990" y1="592.9531" y2="592.9531"/><text fill="#000000" font-family="sans-serif" font-size="20" lengthAdjust="spacing" textLength="305" x="1598" y="586.2363">returns Operation Status Code</text><polygon fill="#000000" points="1177,626.2344,1167,630.2344,1177,634.2344,1173,630.2344" style="stroke:#000000;stroke-width:1.0;"/><line style="stroke:#000000;stroke-width:1.0;" x1="1171" x2="1575" y1="630.2344" y2="630.2344"/><text fill="#000000" font-family="sans-serif" font-size="20" lengthAdjust="spacing" textLength="280" x="1183" y="623.5176">returns Operation Response</text><line style="stroke:#000000;stroke-width:1.0;" x1="1166" x2="1208" y1="667.5156" y2="667.5156"/><line style="stroke:#000000;stroke-width:1.0;" x1="1208" x2="1208" y1="667.5156" y2="680.5156"/><line style="stroke:#000000;stroke-width:1.0;" x1="1167" x2="1208" y1="680.5156" y2="680.5156"/><polygon fill="#000000" points="1177,676.5156,1167,680.5156,1177,684.5156,1173,680.5156" style="stroke:#000000;stroke-width:1.0;"/><text fill="#000000" font-family="sans-serif" font-size="20" lengthAdjust="spacing" textLength="391" x="1173" y="660.7988">initializes CreateRoomTypeComponent</text><polygon fill="#000000" points="423,713.7969,413,717.7969,423,721.7969,419,717.7969" style="stroke:#000000;stroke-width:1.0;"/><line style="stroke:#000000;stroke-width:1.0;stroke-dasharray:2.0,2.0;" x1="417" x2="1160" y1="717.7969" y2="717.7969"/><text fill="#000000" font-family="sans-serif" font-size="20" lengthAdjust="spacing" textLength="367" x="429" y="711.0801">returns CreateRoomTypeComponent</text><polygon fill="#000000" points="57,751.0781,47,755.0781,57,759.0781,53,755.0781" style="stroke:#000000;stroke-width:1.0;"/><line style="stroke:#000000;stroke-width:1.0;stroke-dasharray:2.0,2.0;" x1="51" x2="406" y1="755.0781" y2="755.0781"/><text fill="#000000" font-family="sans-serif" font-size="20" lengthAdjust="spacing" textLength="332" x="63" y="748.3613">Displays success/failure message</text><!--SRC=[ZLHTRzim37ptho3QXsuFMRiE-mgw0euJOm7Q5OYRlgisasYs9K-IKwJ3_lj8sKviD0KQ84XCtP6y8osRIrK98yf2fpbcaE5Ar8MBjNA9V4Qul0W29rs1S8DRBE0Jn3EOIh4c2emWp3BuXKzmlwlGWbx1GklI1i56PWXOLcu79PQFQ6nmPhjIS2CLEcA0DcwZW-1maXR2MlWR07qc8itNHjSgYtIXpTNLLXGrtZt-njHTNyFfzCiiZByTXngjFIQUpYRJY-COYsOhK_IfFiQNiyan69mkv_7tsLT_5XgZdvhmf21SyA_VUqKHiSRZtSFfR19_ZYTC4QcZG9YLKe6m40R4TpALbL0E7YJPIT7bV10-OMEzov4kAwrGkHE6BUwZ8IuoA1nsw24uUe7kS4dZHPio6OB2sctcog59iQBEFIWSjdSxNN2KVhmykQKUI5W8esjICeRGvXQS1a7x8a2Hn6R-Aw19bGSAgLxEcKITZkcifggqBVcFi_FK2ninViJaimEBPT6NUT61w0k-OaUGuO2zV_0MHMqoSc8CLcpt_7Uc_JCLJhplDv1G0mbpGb9xAtAg_jEv2XRufqRhk1LEvELwxJsRva4uxwXxdwdx3S5Rkb0PUzS4dSvHSKP-sA38q0HAKoOZrnl7fb9Ati7xFLXQfjFxFM21vIVXV8XdnwHKq5RInCabcN9_lZO5jE4BeTVLXm3fY2kt0YZ5s_pYMhmo7UT1538JF38knXbipocFRFqnw6gZBDnLQ8IJMa7YXAjfjtM6_Qbo2Uwg6-ERYUHTEyfsbruG5sXfYomEboZPhqt3aqewIRgUISjhMzWmsdUaA_I6bVLRkcpKXMEwZsrLY9q5MwSfMdk-4hAe3TBTQorTINqglM7_0G00]--></g></svg>