<?xml version="1.0" encoding="UTF-8" standalone="no"?><svg xmlns="http://www.w3.org/2000/svg" xmlns:xlink="http://www.w3.org/1999/xlink" contentStyleType="text/css" height="1076px" preserveAspectRatio="none" style="width:3840px;height:1076px;background:#FFFFFF;" version="1.1" viewBox="0 0 3840 1076" width="3840px" zoomAndPan="magnify"><defs/><g><text fill="#000000" font-family="sans-serif" font-size="14" font-weight="bold" lengthAdjust="spacing" textLength="385" x="1726.75" y="27.9951">Level 3 MDV Diagram - Add New Types of Rooms</text><rect fill="#FFFFFF" height="925.75" style="stroke:#181818;stroke-width:1.0;" width="10" x="19.5" y="90.5781"/><rect fill="#FFFFFF" height="896.4688" style="stroke:#181818;stroke-width:1.0;" width="10" x="475.5" y="119.8594"/><rect fill="#FFFFFF" height="821.9063" style="stroke:#181818;stroke-width:1.0;" width="10" x="898.5" y="157.1406"/><rect fill="#FFFFFF" height="747.3438" style="stroke:#181818;stroke-width:1.0;" width="10" x="1230.5" y="194.4219"/><rect fill="#FFFFFF" height="111.8438" style="stroke:#181818;stroke-width:1.0;" width="10" x="1481.5" y="393.8281"/><rect fill="#FFFFFF" height="43.2813" style="stroke:#181818;stroke-width:1.0;" width="10" x="1657" y="268.9844"/><rect fill="#FFFFFF" height="124.8438" style="stroke:#181818;stroke-width:1.0;" width="10" x="2092" y="231.7031"/><rect fill="#FFFFFF" height="124.8438" style="stroke:#181818;stroke-width:1.0;" width="10" x="2092" y="542.9531"/><rect fill="#FFFFFF" height="43.2813" style="stroke:#181818;stroke-width:1.0;" width="10" x="2479" y="580.2344"/><rect fill="#FFFFFF" height="43.2813" style="stroke:#181818;stroke-width:1.0;" width="10" x="2763" y="705.0781"/><rect fill="#FFFFFF" height="111.8438" style="stroke:#181818;stroke-width:1.0;" width="10" x="3058.5" y="792.6406"/><rect fill="#FFFFFF" height="37.2813" style="stroke:#181818;stroke-width:1.0;" width="10" x="3775.5" y="431.1094"/><rect fill="#FFFFFF" height="37.2813" style="stroke:#181818;stroke-width:1.0;" width="10" x="3775.5" y="829.9219"/><line style="stroke:#181818;stroke-width:0.5;stroke-dasharray:5.0,5.0;" x1="24" x2="24" y1="80.5781" y2="1034.3281"/><line style="stroke:#181818;stroke-width:0.5;stroke-dasharray:5.0,5.0;" x1="480" x2="480" y1="80.5781" y2="1034.3281"/><line style="stroke:#181818;stroke-width:0.5;stroke-dasharray:5.0,5.0;" x1="903" x2="903" y1="80.5781" y2="1034.3281"/><line style="stroke:#181818;stroke-width:0.5;stroke-dasharray:5.0,5.0;" x1="1235" x2="1235" y1="80.5781" y2="1034.3281"/><line style="stroke:#181818;stroke-width:0.5;stroke-dasharray:5.0,5.0;" x1="1486.5" x2="1486.5" y1="80.5781" y2="1034.3281"/><line style="stroke:#181818;stroke-width:0.5;stroke-dasharray:5.0,5.0;" x1="1661.5" x2="1661.5" y1="80.5781" y2="1034.3281"/><line style="stroke:#181818;stroke-width:0.5;stroke-dasharray:5.0,5.0;" x1="2096.5" x2="2096.5" y1="80.5781" y2="1034.3281"/><line style="stroke:#181818;stroke-width:0.5;stroke-dasharray:5.0,5.0;" x1="2483.5" x2="2483.5" y1="80.5781" y2="1034.3281"/><line style="stroke:#181818;stroke-width:0.5;stroke-dasharray:5.0,5.0;" x1="2624.5" x2="2624.5" y1="80.5781" y2="1034.3281"/><line style="stroke:#181818;stroke-width:0.5;stroke-dasharray:5.0,5.0;" x1="2767.5" x2="2767.5" y1="80.5781" y2="1034.3281"/><line style="stroke:#181818;stroke-width:0.5;stroke-dasharray:5.0,5.0;" x1="2913.5" x2="2913.5" y1="80.5781" y2="1034.3281"/><line style="stroke:#181818;stroke-width:0.5;stroke-dasharray:5.0,5.0;" x1="3063.5" x2="3063.5" y1="80.5781" y2="1034.3281"/><line style="stroke:#181818;stroke-width:0.5;stroke-dasharray:5.0,5.0;" x1="3216.5" x2="3216.5" y1="80.5781" y2="1034.3281"/><line style="stroke:#181818;stroke-width:0.5;stroke-dasharray:5.0,5.0;" x1="3354.5" x2="3354.5" y1="80.5781" y2="1034.3281"/><line style="stroke:#181818;stroke-width:0.5;stroke-dasharray:5.0,5.0;" x1="3473.5" x2="3473.5" y1="80.5781" y2="1034.3281"/><line style="stroke:#181818;stroke-width:0.5;stroke-dasharray:5.0,5.0;" x1="3560.5" x2="3560.5" y1="80.5781" y2="1034.3281"/><line style="stroke:#181818;stroke-width:0.5;stroke-dasharray:5.0,5.0;" x1="3780.5" x2="3780.5" y1="80.5781" y2="1034.3281"/><rect fill="#E2E2F0" height="37.2813" rx="2.5" ry="2.5" style="stroke:#181818;stroke-width:0.5;" width="39" x="5" y="42.2969"/><text fill="#000000" font-family="sans-serif" font-size="20" lengthAdjust="spacing" textLength="25" x="12" y="67.8613">FE</text><rect fill="#E2E2F0" height="37.2813" rx="2.5" ry="2.5" style="stroke:#181818;stroke-width:0.5;" width="39" x="5" y="1033.3281"/><text fill="#000000" font-family="sans-serif" font-size="20" lengthAdjust="spacing" textLength="25" x="12" y="1058.8926">FE</text><rect fill="#E2E2F0" height="37.2813" rx="2.5" ry="2.5" style="stroke:#181818;stroke-width:0.5;" width="139" x="411" y="42.2969"/><text fill="#000000" font-family="sans-serif" font-size="20" lengthAdjust="spacing" textLength="125" x="418" y="67.8613">RoomRouter</text><rect fill="#E2E2F0" height="37.2813" rx="2.5" ry="2.5" style="stroke:#181818;stroke-width:0.5;" width="139" x="411" y="1033.3281"/><text fill="#000000" font-family="sans-serif" font-size="20" lengthAdjust="spacing" textLength="125" x="418" y="1058.8926">RoomRouter</text><rect fill="#E2E2F0" height="37.2813" rx="2.5" ry="2.5" style="stroke:#181818;stroke-width:0.5;" width="171" x="818" y="42.2969"/><text fill="#000000" font-family="sans-serif" font-size="20" lengthAdjust="spacing" textLength="157" x="825" y="67.8613">RoomController</text><rect fill="#E2E2F0" height="37.2813" rx="2.5" ry="2.5" style="stroke:#181818;stroke-width:0.5;" width="171" x="818" y="1033.3281"/><text fill="#000000" font-family="sans-serif" font-size="20" lengthAdjust="spacing" textLength="157" x="825" y="1058.8926">RoomController</text><rect fill="#E2E2F0" height="37.2813" rx="2.5" ry="2.5" style="stroke:#181818;stroke-width:0.5;" width="145" x="1163" y="42.2969"/><text fill="#000000" font-family="sans-serif" font-size="20" lengthAdjust="spacing" textLength="131" x="1170" y="67.8613">RoomService</text><rect fill="#E2E2F0" height="37.2813" rx="2.5" ry="2.5" style="stroke:#181818;stroke-width:0.5;" width="145" x="1163" y="1033.3281"/><text fill="#000000" font-family="sans-serif" font-size="20" lengthAdjust="spacing" textLength="131" x="1170" y="1058.8926">RoomService</text><rect fill="#E2E2F0" height="37.2813" rx="2.5" ry="2.5" style="stroke:#181818;stroke-width:0.5;" width="178" x="1397.5" y="42.2969"/><text fill="#000000" font-family="sans-serif" font-size="20" lengthAdjust="spacing" textLength="164" x="1404.5" y="67.8613">RoomRepository</text><rect fill="#E2E2F0" height="37.2813" rx="2.5" ry="2.5" style="stroke:#181818;stroke-width:0.5;" width="178" x="1397.5" y="1033.3281"/><text fill="#000000" font-family="sans-serif" font-size="20" lengthAdjust="spacing" textLength="164" x="1404.5" y="1058.8926">RoomRepository</text><rect fill="#E2E2F0" height="37.2813" rx="2.5" ry="2.5" style="stroke:#181818;stroke-width:0.5;" width="153" x="1585.5" y="42.2969"/><text fill="#000000" font-family="sans-serif" font-size="20" lengthAdjust="spacing" textLength="139" x="1592.5" y="67.8613">RoomSchema</text><rect fill="#E2E2F0" height="37.2813" rx="2.5" ry="2.5" style="stroke:#181818;stroke-width:0.5;" width="153" x="1585.5" y="1033.3281"/><text fill="#000000" font-family="sans-serif" font-size="20" lengthAdjust="spacing" textLength="139" x="1592.5" y="1058.8926">RoomSchema</text><rect fill="#E2E2F0" height="37.2813" rx="2.5" ry="2.5" style="stroke:#181818;stroke-width:0.5;" width="147" x="2023.5" y="42.2969"/><text fill="#000000" font-family="sans-serif" font-size="20" lengthAdjust="spacing" textLength="133" x="2030.5" y="67.8613">RoomMapper</text><rect fill="#E2E2F0" height="37.2813" rx="2.5" ry="2.5" style="stroke:#181818;stroke-width:0.5;" width="147" x="2023.5" y="1033.3281"/><text fill="#000000" font-family="sans-serif" font-size="20" lengthAdjust="spacing" textLength="133" x="2030.5" y="1058.8926">RoomMapper</text><rect fill="#E2E2F0" height="37.2813" rx="2.5" ry="2.5" style="stroke:#181818;stroke-width:0.5;" width="115" x="2426.5" y="42.2969"/><text fill="#000000" font-family="sans-serif" font-size="20" lengthAdjust="spacing" textLength="101" x="2433.5" y="67.8613">RoomDTO</text><rect fill="#E2E2F0" height="37.2813" rx="2.5" ry="2.5" style="stroke:#181818;stroke-width:0.5;" width="115" x="2426.5" y="1033.3281"/><text fill="#000000" font-family="sans-serif" font-size="20" lengthAdjust="spacing" textLength="101" x="2433.5" y="1058.8926">RoomDTO</text><rect fill="#E2E2F0" height="37.2813" rx="2.5" ry="2.5" style="stroke:#181818;stroke-width:0.5;" width="117" x="2566.5" y="42.2969"/><text fill="#000000" font-family="sans-serif" font-size="20" lengthAdjust="spacing" textLength="103" x="2573.5" y="67.8613">LogRouter</text><rect fill="#E2E2F0" height="37.2813" rx="2.5" ry="2.5" style="stroke:#181818;stroke-width:0.5;" width="117" x="2566.5" y="1033.3281"/><text fill="#000000" font-family="sans-serif" font-size="20" lengthAdjust="spacing" textLength="103" x="2573.5" y="1058.8926">LogRouter</text><rect fill="#E2E2F0" height="37.2813" rx="2.5" ry="2.5" style="stroke:#181818;stroke-width:0.5;" width="149" x="2693.5" y="42.2969"/><text fill="#000000" font-family="sans-serif" font-size="20" lengthAdjust="spacing" textLength="135" x="2700.5" y="67.8613">LogController</text><rect fill="#E2E2F0" height="37.2813" rx="2.5" ry="2.5" style="stroke:#181818;stroke-width:0.5;" width="149" x="2693.5" y="1033.3281"/><text fill="#000000" font-family="sans-serif" font-size="20" lengthAdjust="spacing" textLength="135" x="2700.5" y="1058.8926">LogController</text><rect fill="#E2E2F0" height="37.2813" rx="2.5" ry="2.5" style="stroke:#181818;stroke-width:0.5;" width="123" x="2852.5" y="42.2969"/><text fill="#000000" font-family="sans-serif" font-size="20" lengthAdjust="spacing" textLength="109" x="2859.5" y="67.8613">LogService</text><rect fill="#E2E2F0" height="37.2813" rx="2.5" ry="2.5" style="stroke:#181818;stroke-width:0.5;" width="123" x="2852.5" y="1033.3281"/><text fill="#000000" font-family="sans-serif" font-size="20" lengthAdjust="spacing" textLength="109" x="2859.5" y="1058.8926">LogService</text><rect fill="#E2E2F0" height="37.2813" rx="2.5" ry="2.5" style="stroke:#181818;stroke-width:0.5;" width="156" x="2985.5" y="42.2969"/><text fill="#000000" font-family="sans-serif" font-size="20" lengthAdjust="spacing" textLength="142" x="2992.5" y="67.8613">LogRepository</text><rect fill="#E2E2F0" height="37.2813" rx="2.5" ry="2.5" style="stroke:#181818;stroke-width:0.5;" width="156" x="2985.5" y="1033.3281"/><text fill="#000000" font-family="sans-serif" font-size="20" lengthAdjust="spacing" textLength="142" x="2992.5" y="1058.8926">LogRepository</text><rect fill="#E2E2F0" height="37.2813" rx="2.5" ry="2.5" style="stroke:#181818;stroke-width:0.5;" width="131" x="3151.5" y="42.2969"/><text fill="#000000" font-family="sans-serif" font-size="20" lengthAdjust="spacing" textLength="117" x="3158.5" y="67.8613">LogSchema</text><rect fill="#E2E2F0" height="37.2813" rx="2.5" ry="2.5" style="stroke:#181818;stroke-width:0.5;" width="131" x="3151.5" y="1033.3281"/><text fill="#000000" font-family="sans-serif" font-size="20" lengthAdjust="spacing" textLength="117" x="3158.5" y="1058.8926">LogSchema</text><rect fill="#E2E2F0" height="37.2813" rx="2.5" ry="2.5" style="stroke:#181818;stroke-width:0.5;" width="125" x="3292.5" y="42.2969"/><text fill="#000000" font-family="sans-serif" font-size="20" lengthAdjust="spacing" textLength="111" x="3299.5" y="67.8613">LogMapper</text><rect fill="#E2E2F0" height="37.2813" rx="2.5" ry="2.5" style="stroke:#181818;stroke-width:0.5;" width="125" x="3292.5" y="1033.3281"/><text fill="#000000" font-family="sans-serif" font-size="20" lengthAdjust="spacing" textLength="111" x="3299.5" y="1058.8926">LogMapper</text><rect fill="#E2E2F0" height="37.2813" rx="2.5" ry="2.5" style="stroke:#181818;stroke-width:0.5;" width="93" x="3427.5" y="42.2969"/><text fill="#000000" font-family="sans-serif" font-size="20" lengthAdjust="spacing" textLength="79" x="3434.5" y="67.8613">LogDTO</text><rect fill="#E2E2F0" height="37.2813" rx="2.5" ry="2.5" style="stroke:#181818;stroke-width:0.5;" width="93" x="3427.5" y="1033.3281"/><text fill="#000000" font-family="sans-serif" font-size="20" lengthAdjust="spacing" textLength="79" x="3434.5" y="1058.8926">LogDTO</text><rect fill="#E2E2F0" height="37.2813" rx="2.5" ry="2.5" style="stroke:#181818;stroke-width:0.5;" width="60" x="3530.5" y="42.2969"/><text fill="#000000" font-family="sans-serif" font-size="20" lengthAdjust="spacing" textLength="46" x="3537.5" y="67.8613">MDR</text><rect fill="#E2E2F0" height="37.2813" rx="2.5" ry="2.5" style="stroke:#181818;stroke-width:0.5;" width="60" x="3530.5" y="1033.3281"/><text fill="#000000" font-family="sans-serif" font-size="20" lengthAdjust="spacing" textLength="46" x="3537.5" y="1058.8926">MDR</text><rect fill="#E2E2F0" height="37.2813" rx="2.5" ry="2.5" style="stroke:#181818;stroke-width:0.5;" width="108" x="3726.5" y="42.2969"/><text fill="#000000" font-family="sans-serif" font-size="20" lengthAdjust="spacing" textLength="94" x="3733.5" y="67.8613">Database</text><rect fill="#E2E2F0" height="37.2813" rx="2.5" ry="2.5" style="stroke:#181818;stroke-width:0.5;" width="108" x="3726.5" y="1033.3281"/><text fill="#000000" font-family="sans-serif" font-size="20" lengthAdjust="spacing" textLength="94" x="3733.5" y="1058.8926">Database</text><rect fill="#FFFFFF" height="925.75" style="stroke:#181818;stroke-width:1.0;" width="10" x="19.5" y="90.5781"/><rect fill="#FFFFFF" height="896.4688" style="stroke:#181818;stroke-width:1.0;" width="10" x="475.5" y="119.8594"/><rect fill="#FFFFFF" height="821.9063" style="stroke:#181818;stroke-width:1.0;" width="10" x="898.5" y="157.1406"/><rect fill="#FFFFFF" height="747.3438" style="stroke:#181818;stroke-width:1.0;" width="10" x="1230.5" y="194.4219"/><rect fill="#FFFFFF" height="111.8438" style="stroke:#181818;stroke-width:1.0;" width="10" x="1481.5" y="393.8281"/><rect fill="#FFFFFF" height="43.2813" style="stroke:#181818;stroke-width:1.0;" width="10" x="1657" y="268.9844"/><rect fill="#FFFFFF" height="124.8438" style="stroke:#181818;stroke-width:1.0;" width="10" x="2092" y="231.7031"/><rect fill="#FFFFFF" height="124.8438" style="stroke:#181818;stroke-width:1.0;" width="10" x="2092" y="542.9531"/><rect fill="#FFFFFF" height="43.2813" style="stroke:#181818;stroke-width:1.0;" width="10" x="2479" y="580.2344"/><rect fill="#FFFFFF" height="43.2813" style="stroke:#181818;stroke-width:1.0;" width="10" x="2763" y="705.0781"/><rect fill="#FFFFFF" height="111.8438" style="stroke:#181818;stroke-width:1.0;" width="10" x="3058.5" y="792.6406"/><rect fill="#FFFFFF" height="37.2813" style="stroke:#181818;stroke-width:1.0;" width="10" x="3775.5" y="431.1094"/><rect fill="#FFFFFF" height="37.2813" style="stroke:#181818;stroke-width:1.0;" width="10" x="3775.5" y="829.9219"/><polygon fill="#000000" points="463.5,115.8594,473.5,119.8594,463.5,123.8594,467.5,119.8594" style="stroke:#000000;stroke-width:1.0;"/><line style="stroke:#000000;stroke-width:1.0;" x1="29.5" x2="469.5" y1="119.8594" y2="119.8594"/><text fill="#000000" font-family="sans-serif" font-size="20" lengthAdjust="spacing" textLength="427" x="36.5" y="113.1426">Makes Http Request to add new room type</text><polygon fill="#000000" points="886.5,153.1406,896.5,157.1406,886.5,161.1406,890.5,157.1406" style="stroke:#000000;stroke-width:1.0;"/><line style="stroke:#000000;stroke-width:1.0;" x1="485.5" x2="892.5" y1="157.1406" y2="157.1406"/><text fill="#000000" font-family="sans-serif" font-size="20" lengthAdjust="spacing" textLength="394" x="492.5" y="150.4238">addRoomType(request, response, next)</text><polygon fill="#000000" points="1218.5,190.4219,1228.5,194.4219,1218.5,198.4219,1222.5,194.4219" style="stroke:#000000;stroke-width:1.0;"/><line style="stroke:#000000;stroke-width:1.0;" x1="908.5" x2="1224.5" y1="194.4219" y2="194.4219"/><text fill="#000000" font-family="sans-serif" font-size="20" lengthAdjust="spacing" textLength="303" x="915.5" y="187.7051">addRoomType(roomTypeDTO)</text><polygon fill="#000000" points="2080,227.7031,2090,231.7031,2080,235.7031,2084,231.7031" style="stroke:#000000;stroke-width:1.0;"/><line style="stroke:#000000;stroke-width:1.0;" x1="1240.5" x2="2086" y1="231.7031" y2="231.7031"/><text fill="#000000" font-family="sans-serif" font-size="20" lengthAdjust="spacing" textLength="238" x="1247.5" y="224.9863">toEntity(roomTypeDTO)</text><polygon fill="#000000" points="1678,264.9844,1668,268.9844,1678,272.9844,1674,268.9844" style="stroke:#000000;stroke-width:1.0;"/><line style="stroke:#000000;stroke-width:1.0;" x1="1672" x2="2091" y1="268.9844" y2="268.9844"/><text fill="#000000" font-family="sans-serif" font-size="20" lengthAdjust="spacing" textLength="406" x="1684" y="262.2676">new RoomSchema(roomTypeDTO fields)</text><line style="stroke:#000000;stroke-width:1.0;" x1="1667" x2="1709" y1="311.2656" y2="311.2656"/><line style="stroke:#000000;stroke-width:1.0;" x1="1709" x2="1709" y1="311.2656" y2="324.2656"/><line style="stroke:#000000;stroke-width:1.0;" x1="1662" x2="1709" y1="324.2656" y2="324.2656"/><polygon fill="#000000" points="1672,320.2656,1662,324.2656,1672,328.2656,1668,324.2656" style="stroke:#000000;stroke-width:1.0;"/><text fill="#000000" font-family="sans-serif" font-size="20" lengthAdjust="spacing" textLength="155" x="1674" y="304.5488">RoomSchema()</text><polygon fill="#000000" points="1251.5,352.5469,1241.5,356.5469,1251.5,360.5469,1247.5,356.5469" style="stroke:#000000;stroke-width:1.0;"/><line style="stroke:#000000;stroke-width:1.0;" x1="1245.5" x2="2096" y1="356.5469" y2="356.5469"/><text fill="#000000" font-family="sans-serif" font-size="20" lengthAdjust="spacing" textLength="217" x="1257.5" y="349.8301">returns RoomSchema</text><polygon fill="#000000" points="1469.5,389.8281,1479.5,393.8281,1469.5,397.8281,1473.5,393.8281" style="stroke:#000000;stroke-width:1.0;"/><line style="stroke:#000000;stroke-width:1.0;" x1="1240.5" x2="1475.5" y1="393.8281" y2="393.8281"/><text fill="#000000" font-family="sans-serif" font-size="20" lengthAdjust="spacing" textLength="200" x="1247.5" y="387.1113">save(RoomSchema)</text><polygon fill="#000000" points="3763.5,427.1094,3773.5,431.1094,3763.5,435.1094,3767.5,431.1094" style="stroke:#000000;stroke-width:1.0;"/><line style="stroke:#000000;stroke-width:1.0;" x1="1491.5" x2="3769.5" y1="431.1094" y2="431.1094"/><text fill="#000000" font-family="sans-serif" font-size="20" lengthAdjust="spacing" textLength="394" x="1498.5" y="424.3926">INSERT INTO Room (fields) VALUES (...)</text><polygon fill="#000000" points="1502.5,464.3906,1492.5,468.3906,1502.5,472.3906,1498.5,468.3906" style="stroke:#000000;stroke-width:1.0;"/><line style="stroke:#000000;stroke-width:1.0;stroke-dasharray:2.0,2.0;" x1="1496.5" x2="3779.5" y1="468.3906" y2="468.3906"/><text fill="#000000" font-family="sans-serif" font-size="20" lengthAdjust="spacing" textLength="217" x="1508.5" y="461.6738">returns RoomSchema</text><polygon fill="#000000" points="1251.5,501.6719,1241.5,505.6719,1251.5,509.6719,1247.5,505.6719" style="stroke:#000000;stroke-width:1.0;"/><line style="stroke:#000000;stroke-width:1.0;stroke-dasharray:2.0,2.0;" x1="1245.5" x2="1485.5" y1="505.6719" y2="505.6719"/><text fill="#000000" font-family="sans-serif" font-size="20" lengthAdjust="spacing" textLength="217" x="1257.5" y="498.9551">returns RoomSchema</text><polygon fill="#000000" points="2080,538.9531,2090,542.9531,2080,546.9531,2084,542.9531" style="stroke:#000000;stroke-width:1.0;"/><line style="stroke:#000000;stroke-width:1.0;" x1="1240.5" x2="2086" y1="542.9531" y2="542.9531"/><text fill="#000000" font-family="sans-serif" font-size="20" lengthAdjust="spacing" textLength="210" x="1247.5" y="536.2363">toDto(RoomSchema)</text><polygon fill="#000000" points="2467,576.2344,2477,580.2344,2467,584.2344,2471,580.2344" style="stroke:#000000;stroke-width:1.0;"/><line style="stroke:#000000;stroke-width:1.0;" x1="2102" x2="2473" y1="580.2344" y2="580.2344"/><text fill="#000000" font-family="sans-serif" font-size="20" lengthAdjust="spacing" textLength="358" x="2109" y="573.5176">new RoomDTO(roomSchema fields)</text><line style="stroke:#000000;stroke-width:1.0;" x1="2489" x2="2531" y1="622.5156" y2="622.5156"/><line style="stroke:#000000;stroke-width:1.0;" x1="2531" x2="2531" y1="622.5156" y2="635.5156"/><line style="stroke:#000000;stroke-width:1.0;" x1="2484" x2="2531" y1="635.5156" y2="635.5156"/><polygon fill="#000000" points="2494,631.5156,2484,635.5156,2494,639.5156,2490,635.5156" style="stroke:#000000;stroke-width:1.0;"/><text fill="#000000" font-family="sans-serif" font-size="20" lengthAdjust="spacing" textLength="117" x="2496" y="615.7988">RoomDTO()</text><polygon fill="#000000" points="1251.5,663.7969,1241.5,667.7969,1251.5,671.7969,1247.5,667.7969" style="stroke:#000000;stroke-width:1.0;"/><line style="stroke:#000000;stroke-width:1.0;stroke-dasharray:2.0,2.0;" x1="1245.5" x2="2096" y1="667.7969" y2="667.7969"/><text fill="#000000" font-family="sans-serif" font-size="20" lengthAdjust="spacing" textLength="179" x="1257.5" y="661.0801">returns RoomDTO</text><polygon fill="#000000" points="2751,701.0781,2761,705.0781,2751,709.0781,2755,705.0781" style="stroke:#000000;stroke-width:1.0;"/><line style="stroke:#000000;stroke-width:1.0;" x1="1240.5" x2="2757" y1="705.0781" y2="705.0781"/><text fill="#000000" font-family="sans-serif" font-size="20" lengthAdjust="spacing" textLength="736" x="1247.5" y="698.3613">new Log(TypeOfAction.Create, roomSchema.Id, "New room type added.")</text><line style="stroke:#000000;stroke-width:1.0;" x1="2773" x2="2815" y1="747.3594" y2="747.3594"/><line style="stroke:#000000;stroke-width:1.0;" x1="2815" x2="2815" y1="747.3594" y2="760.3594"/><line style="stroke:#000000;stroke-width:1.0;" x1="2768" x2="2815" y1="760.3594" y2="760.3594"/><polygon fill="#000000" points="2778,756.3594,2768,760.3594,2778,764.3594,2774,760.3594" style="stroke:#000000;stroke-width:1.0;"/><text fill="#000000" font-family="sans-serif" font-size="20" lengthAdjust="spacing" textLength="52" x="2780" y="740.6426">Log()</text><polygon fill="#000000" points="3046.5,788.6406,3056.5,792.6406,3046.5,796.6406,3050.5,792.6406" style="stroke:#000000;stroke-width:1.0;"/><line style="stroke:#000000;stroke-width:1.0;" x1="1240.5" x2="3052.5" y1="792.6406" y2="792.6406"/><text fill="#000000" font-family="sans-serif" font-size="20" lengthAdjust="spacing" textLength="144" x="1247.5" y="785.9238">addAsync(log)</text><polygon fill="#000000" points="3763.5,825.9219,3773.5,829.9219,3763.5,833.9219,3767.5,829.9219" style="stroke:#000000;stroke-width:1.0;"/><line style="stroke:#000000;stroke-width:1.0;" x1="3068.5" x2="3769.5" y1="829.9219" y2="829.9219"/><text fill="#000000" font-family="sans-serif" font-size="20" lengthAdjust="spacing" textLength="688" x="3075.5" y="823.2051">INSERT INTO Log (TypeOfAction, RoomTypeId, Message) VALUES (...)</text><polygon fill="#000000" points="3079.5,863.2031,3069.5,867.2031,3079.5,871.2031,3075.5,867.2031" style="stroke:#000000;stroke-width:1.0;"/><line style="stroke:#000000;stroke-width:1.0;stroke-dasharray:2.0,2.0;" x1="3073.5" x2="3779.5" y1="867.2031" y2="867.2031"/><text fill="#000000" font-family="sans-serif" font-size="20" lengthAdjust="spacing" textLength="114" x="3085.5" y="860.4863">returns Log</text><polygon fill="#000000" points="1251.5,900.4844,1241.5,904.4844,1251.5,908.4844,1247.5,904.4844" style="stroke:#000000;stroke-width:1.0;"/><line style="stroke:#000000;stroke-width:1.0;stroke-dasharray:2.0,2.0;" x1="1245.5" x2="3062.5" y1="904.4844" y2="904.4844"/><text fill="#000000" font-family="sans-serif" font-size="20" lengthAdjust="spacing" textLength="114" x="1257.5" y="897.7676">returns Log</text><polygon fill="#000000" points="919.5,937.7656,909.5,941.7656,919.5,945.7656,915.5,941.7656" style="stroke:#000000;stroke-width:1.0;"/><line style="stroke:#000000;stroke-width:1.0;stroke-dasharray:2.0,2.0;" x1="913.5" x2="1234.5" y1="941.7656" y2="941.7656"/><text fill="#000000" font-family="sans-serif" font-size="20" lengthAdjust="spacing" textLength="179" x="925.5" y="935.0488">returns RoomDTO</text><polygon fill="#000000" points="496.5,975.0469,486.5,979.0469,496.5,983.0469,492.5,979.0469" style="stroke:#000000;stroke-width:1.0;"/><line style="stroke:#000000;stroke-width:1.0;stroke-dasharray:2.0,2.0;" x1="490.5" x2="902.5" y1="979.0469" y2="979.0469"/><text fill="#000000" font-family="sans-serif" font-size="20" lengthAdjust="spacing" textLength="305" x="502.5" y="972.3301">returns Operation Status Code</text><polygon fill="#000000" points="35.5,1012.3281,25.5,1016.3281,35.5,1020.3281,31.5,1016.3281" style="stroke:#000000;stroke-width:1.0;"/><line style="stroke:#000000;stroke-width:1.0;stroke-dasharray:2.0,2.0;" x1="29.5" x2="479.5" y1="1016.3281" y2="1016.3281"/><text fill="#000000" font-family="sans-serif" font-size="20" lengthAdjust="spacing" textLength="305" x="41.5" y="1009.6113">returns Operation Status Code</text><!--SRC=[bLHjRzem4FwUNt5gFun957MTzeQgIYHEj4fEaPAstztae1aXpcn3nwRzzvq3AGwatOO42RxdkNlkpNfHLBLGObdAR84vv3WJgz94iZ9fyHFXujppJ65A18vhBE4znEmUM27cn84pcEGvtE0Jt6vgr21da4Yvr9xtMEG8kApD1fQuV42blJUwZGMygD0G0wGoZzBpzfQi55h3Bm_euujiCLToLUM1BAMwl5oBSeNJXs-OcQihE6KVmqdqkH-gf6mm4GjzTjwFqQZMHOQDgtVHHUZtmU3qxZhw4dvgR1EbvDFss2y9v_rsjTTq8kROhnvEGp_w4FcMGd1JP4KjAWDH24BJR-Vmn5OnaIk3wiIQa-JO752Bb2pB5X8SGz9jWbjxsXC1QwaB8zLc5wL7HPezubBiNFJ4Y4LTjnBYOpExdMvjh6lZSkxanvCZwq5wF3X2kDdnzDXzDpb-c9priC-DfyS1dDHuV6HjC-FTp6AMs5DwT1bC6F4Wz5OkyprFPAPO2uEszpG4PrTK_p74Oa5xzDMO6XByla9jm4WGj6KLRHbDzHBiukpPD1f9qh23iSNPejjb7AWjVGWATIqhZKDoySEyTQY1bmGDDJsWxbueHHUUUadQmECnYGehkXSsBs5ZBucthacMbRwV9PS2imBBN7UYaAeqUEOwlBTUZbrStAfNQ5QgqWwwWurRvKau1YtMEDW3tTWq8_IrIEQFuVec3PDRUf1EYuV1JYtSJ_XTcC9WD1evTEegy-6iZVEw9W8teVuj0IlCgJqpyeKCdklEzcMdEZSrtw9xIiwyXBMabj0jDclSzcWbQ6-b-Qxjj2W3s-lfR48OMOq2XGGSmbxGw3eVmicDEzvs6Z4VdJWYwGBWGUlPUkq8v44RrrQUs1EzgR91AUUk2weYxsylEOIEpY6qss3LnQWrtUn_Rpnt6qzE3phEUpf-WEAxLkys-hLQfytwxYwE5ZYbAqlO320rmgmq13B73YreBWoYHU7_q1Bt7zrPVm00]--></g></svg>