<?xml version="1.0" encoding="UTF-8" standalone="no"?><svg xmlns="http://www.w3.org/2000/svg" xmlns:xlink="http://www.w3.org/1999/xlink" contentStyleType="text/css" height="1920px" preserveAspectRatio="none" style="width:3994px;height:1920px;background:#FFFFFF;" version="1.1" viewBox="0 0 3994 1920" width="3994px" zoomAndPan="magnify"><defs/><g><text fill="#000000" font-family="sans-serif" font-size="14" font-weight="bold" lengthAdjust="spacing" textLength="126" x="1935" y="27.9951">Level 3 Diagram</text><rect fill="#FFFFFF" height="1688.2188" style="stroke:#181818;stroke-width:1.0;" width="10" x="36" y="135.5781"/><rect fill="#FFFFFF" height="37.2813" style="stroke:#181818;stroke-width:1.0;" width="10" x="786" y="164.8594"/><rect fill="#FFFFFF" height="1552.0938" style="stroke:#181818;stroke-width:1.0;" width="10" x="786" y="262.7031"/><rect fill="#FFFFFF" height="1477.5313" style="stroke:#181818;stroke-width:1.0;" width="10" x="1233" y="299.9844"/><rect fill="#FFFFFF" height="1263.8438" style="stroke:#181818;stroke-width:1.0;" width="10" x="1809" y="337.2656"/><rect fill="#FFFFFF" height="194.6875" style="stroke:#181818;stroke-width:1.0;" width="10" x="2195" y="374.5469"/><rect fill="#FFFFFF" height="124.8438" style="stroke:#181818;stroke-width:1.0;" width="10" x="2195" y="1438.9844"/><rect fill="#FFFFFF" height="111.8438" style="stroke:#181818;stroke-width:1.0;" width="10" x="2380.5" y="606.5156"/><rect fill="#FFFFFF" height="111.8438" style="stroke:#181818;stroke-width:1.0;" width="10" x="2380.5" y="796.2031"/><rect fill="#FFFFFF" height="111.8438" style="stroke:#181818;stroke-width:1.0;" width="10" x="2380.5" y="985.8906"/><rect fill="#FFFFFF" height="104.5625" style="stroke:#181818;stroke-width:1.0;" width="10" x="2380.5" y="1297.1406"/><rect fill="#FFFFFF" height="43.2813" style="stroke:#181818;stroke-width:1.0;" width="10" x="2803" y="481.6719"/><rect fill="#FFFFFF" height="43.2813" style="stroke:#181818;stroke-width:1.0;" width="10" x="2803" y="1209.5781"/><rect fill="#FFFFFF" height="43.2813" style="stroke:#181818;stroke-width:1.0;" width="10" x="3427" y="1476.2656"/><rect fill="#FFFFFF" height="37.2813" style="stroke:#181818;stroke-width:1.0;" width="10" x="3672.5" y="1135.0156"/><rect fill="#FFFFFF" height="37.2813" style="stroke:#181818;stroke-width:1.0;" width="10" x="3908" y="643.7969"/><rect fill="#FFFFFF" height="37.2813" style="stroke:#181818;stroke-width:1.0;" width="10" x="3908" y="833.4844"/><rect fill="#FFFFFF" height="37.2813" style="stroke:#181818;stroke-width:1.0;" width="10" x="3908" y="1023.1719"/><rect fill="#FFFFFF" height="30" style="stroke:#181818;stroke-width:1.0;" width="10" x="3908" y="1334.4219"/><rect fill="#EBF5FB" height="1007.875" style="stroke:#000000;stroke-width:1.5;" width="2861" x="1126" y="733.3594"/><rect fill="#EBF5FB" height="748.625" style="stroke:#000000;stroke-width:1.5;" width="2841" x="1136" y="923.0469"/><rect fill="#EBF5FB" height="62.5625" style="stroke:none;stroke-width:1.0;" width="2841" x="1136" y="1609.1094"/><rect fill="#EBF5FB" height="62.5625" style="stroke:none;stroke-width:1.0;" width="2861" x="1126" y="1678.6719"/><line style="stroke:#181818;stroke-width:0.5;stroke-dasharray:5.0,5.0;" x1="41" x2="41" y1="125.5781" y2="1832.7969"/><line style="stroke:#181818;stroke-width:0.5;stroke-dasharray:5.0,5.0;" x1="791" x2="791" y1="125.5781" y2="1832.7969"/><line style="stroke:#181818;stroke-width:0.5;stroke-dasharray:5.0,5.0;" x1="1238" x2="1238" y1="125.5781" y2="1832.7969"/><line style="stroke:#181818;stroke-width:0.5;stroke-dasharray:5.0,5.0;" x1="1814" x2="1814" y1="125.5781" y2="1832.7969"/><line style="stroke:#181818;stroke-width:0.5;stroke-dasharray:5.0,5.0;" x1="2200" x2="2200" y1="125.5781" y2="1832.7969"/><line style="stroke:#181818;stroke-width:0.5;stroke-dasharray:5.0,5.0;" x1="2385" x2="2385" y1="125.5781" y2="1832.7969"/><line style="stroke:#181818;stroke-width:0.5;stroke-dasharray:5.0,5.0;" x1="2807.5" x2="2807.5" y1="125.5781" y2="1832.7969"/><line style="stroke:#181818;stroke-width:0.5;stroke-dasharray:5.0,5.0;" x1="3432" x2="3432" y1="125.5781" y2="1832.7969"/><line style="stroke:#181818;stroke-width:0.5;stroke-dasharray:5.0,5.0;" x1="3677" x2="3677" y1="125.5781" y2="1832.7969"/><line style="stroke:#181818;stroke-width:0.5;stroke-dasharray:5.0,5.0;" x1="3913" x2="3913" y1="125.5781" y2="1832.7969"/><text fill="#000000" font-family="sans-serif" font-size="20" lengthAdjust="spacing" textLength="66" x="5" y="120.8613">Admin</text><ellipse cx="41" cy="50.7969" fill="#E2E2F0" rx="8" ry="8" style="stroke:#181818;stroke-width:0.5;"/><path d="M41,58.7969 L41,85.7969 M28,66.7969 L54,66.7969 M41,85.7969 L28,100.7969 M41,85.7969 L54,100.7969 " fill="none" style="stroke:#181818;stroke-width:0.5;"/><text fill="#000000" font-family="sans-serif" font-size="20" lengthAdjust="spacing" textLength="66" x="5" y="1850.3613">Admin</text><ellipse cx="41" cy="1863.5781" fill="#E2E2F0" rx="8" ry="8" style="stroke:#181818;stroke-width:0.5;"/><path d="M41,1871.5781 L41,1898.5781 M28,1879.5781 L54,1879.5781 M41,1898.5781 L28,1913.5781 M41,1898.5781 L54,1913.5781 " fill="none" style="stroke:#181818;stroke-width:0.5;"/><rect fill="#E2E2F0" height="37.2813" rx="2.5" ry="2.5" style="stroke:#181818;stroke-width:0.5;" width="154" x="714" y="87.2969"/><text fill="#000000" font-family="sans-serif" font-size="20" lengthAdjust="spacing" textLength="140" x="721" y="112.8613">User Interface</text><rect fill="#E2E2F0" height="37.2813" rx="2.5" ry="2.5" style="stroke:#181818;stroke-width:0.5;" width="154" x="714" y="1831.7969"/><text fill="#000000" font-family="sans-serif" font-size="20" lengthAdjust="spacing" textLength="140" x="721" y="1857.3613">User Interface</text><rect fill="#E2E2F0" height="37.2813" rx="2.5" ry="2.5" style="stroke:#181818;stroke-width:0.5;" width="184" x="1146" y="87.2969"/><text fill="#000000" font-family="sans-serif" font-size="20" lengthAdjust="spacing" textLength="170" x="1153" y="112.8613">PatientController</text><rect fill="#E2E2F0" height="37.2813" rx="2.5" ry="2.5" style="stroke:#181818;stroke-width:0.5;" width="184" x="1146" y="1831.7969"/><text fill="#000000" font-family="sans-serif" font-size="20" lengthAdjust="spacing" textLength="170" x="1153" y="1857.3613">PatientController</text><rect fill="#E2E2F0" height="37.2813" rx="2.5" ry="2.5" style="stroke:#181818;stroke-width:0.5;" width="158" x="1735" y="87.2969"/><text fill="#000000" font-family="sans-serif" font-size="20" lengthAdjust="spacing" textLength="144" x="1742" y="112.8613">PatientService</text><rect fill="#E2E2F0" height="37.2813" rx="2.5" ry="2.5" style="stroke:#181818;stroke-width:0.5;" width="158" x="1735" y="1831.7969"/><text fill="#000000" font-family="sans-serif" font-size="20" lengthAdjust="spacing" textLength="144" x="1742" y="1857.3613">PatientService</text><rect fill="#E2E2F0" height="37.2813" rx="2.5" ry="2.5" style="stroke:#181818;stroke-width:0.5;" width="160" x="2120" y="87.2969"/><text fill="#000000" font-family="sans-serif" font-size="20" lengthAdjust="spacing" textLength="146" x="2127" y="112.8613">PatientMapper</text><rect fill="#E2E2F0" height="37.2813" rx="2.5" ry="2.5" style="stroke:#181818;stroke-width:0.5;" width="160" x="2120" y="1831.7969"/><text fill="#000000" font-family="sans-serif" font-size="20" lengthAdjust="spacing" textLength="146" x="2127" y="1857.3613">PatientMapper</text><rect fill="#E2E2F0" height="37.2813" rx="2.5" ry="2.5" style="stroke:#181818;stroke-width:0.5;" width="191" x="2290" y="87.2969"/><text fill="#000000" font-family="sans-serif" font-size="20" lengthAdjust="spacing" textLength="177" x="2297" y="112.8613">PatientRepository</text><rect fill="#E2E2F0" height="37.2813" rx="2.5" ry="2.5" style="stroke:#181818;stroke-width:0.5;" width="191" x="2290" y="1831.7969"/><text fill="#000000" font-family="sans-serif" font-size="20" lengthAdjust="spacing" textLength="177" x="2297" y="1857.3613">PatientRepository</text><rect fill="#E2E2F0" height="37.2813" rx="2.5" ry="2.5" style="stroke:#181818;stroke-width:0.5;" width="85" x="2765.5" y="87.2969"/><text fill="#000000" font-family="sans-serif" font-size="20" lengthAdjust="spacing" textLength="71" x="2772.5" y="112.8613">Patient</text><rect fill="#E2E2F0" height="37.2813" rx="2.5" ry="2.5" style="stroke:#181818;stroke-width:0.5;" width="85" x="2765.5" y="1831.7969"/><text fill="#000000" font-family="sans-serif" font-size="20" lengthAdjust="spacing" textLength="71" x="2772.5" y="1857.3613">Patient</text><rect fill="#E2E2F0" height="37.2813" rx="2.5" ry="2.5" style="stroke:#181818;stroke-width:0.5;" width="128" x="3368" y="87.2969"/><text fill="#000000" font-family="sans-serif" font-size="20" lengthAdjust="spacing" textLength="114" x="3375" y="112.8613">PatientDTO</text><rect fill="#E2E2F0" height="37.2813" rx="2.5" ry="2.5" style="stroke:#181818;stroke-width:0.5;" width="128" x="3368" y="1831.7969"/><text fill="#000000" font-family="sans-serif" font-size="20" lengthAdjust="spacing" textLength="114" x="3375" y="1857.3613">PatientDTO</text><rect fill="#E2E2F0" height="37.2813" rx="2.5" ry="2.5" style="stroke:#181818;stroke-width:0.5;" width="343" x="3506" y="87.2969"/><text fill="#000000" font-family="sans-serif" font-size="20" lengthAdjust="spacing" textLength="329" x="3513" y="112.8613">MedicalRecordNumberGenerator</text><rect fill="#E2E2F0" height="37.2813" rx="2.5" ry="2.5" style="stroke:#181818;stroke-width:0.5;" width="343" x="3506" y="1831.7969"/><text fill="#000000" font-family="sans-serif" font-size="20" lengthAdjust="spacing" textLength="329" x="3513" y="1857.3613">MedicalRecordNumberGenerator</text><rect fill="#E2E2F0" height="37.2813" rx="2.5" ry="2.5" style="stroke:#181818;stroke-width:0.5;" width="108" x="3859" y="87.2969"/><text fill="#000000" font-family="sans-serif" font-size="20" lengthAdjust="spacing" textLength="94" x="3866" y="112.8613">Database</text><rect fill="#E2E2F0" height="37.2813" rx="2.5" ry="2.5" style="stroke:#181818;stroke-width:0.5;" width="108" x="3859" y="1831.7969"/><text fill="#000000" font-family="sans-serif" font-size="20" lengthAdjust="spacing" textLength="94" x="3866" y="1857.3613">Database</text><rect fill="#FFFFFF" height="1688.2188" style="stroke:#181818;stroke-width:1.0;" width="10" x="36" y="135.5781"/><rect fill="#FFFFFF" height="37.2813" style="stroke:#181818;stroke-width:1.0;" width="10" x="786" y="164.8594"/><rect fill="#FFFFFF" height="1552.0938" style="stroke:#181818;stroke-width:1.0;" width="10" x="786" y="262.7031"/><rect fill="#FFFFFF" height="1477.5313" style="stroke:#181818;stroke-width:1.0;" width="10" x="1233" y="299.9844"/><rect fill="#FFFFFF" height="1263.8438" style="stroke:#181818;stroke-width:1.0;" width="10" x="1809" y="337.2656"/><rect fill="#FFFFFF" height="194.6875" style="stroke:#181818;stroke-width:1.0;" width="10" x="2195" y="374.5469"/><rect fill="#FFFFFF" height="124.8438" style="stroke:#181818;stroke-width:1.0;" width="10" x="2195" y="1438.9844"/><rect fill="#FFFFFF" height="111.8438" style="stroke:#181818;stroke-width:1.0;" width="10" x="2380.5" y="606.5156"/><rect fill="#FFFFFF" height="111.8438" style="stroke:#181818;stroke-width:1.0;" width="10" x="2380.5" y="796.2031"/><rect fill="#FFFFFF" height="111.8438" style="stroke:#181818;stroke-width:1.0;" width="10" x="2380.5" y="985.8906"/><rect fill="#FFFFFF" height="104.5625" style="stroke:#181818;stroke-width:1.0;" width="10" x="2380.5" y="1297.1406"/><rect fill="#FFFFFF" height="43.2813" style="stroke:#181818;stroke-width:1.0;" width="10" x="2803" y="481.6719"/><rect fill="#FFFFFF" height="43.2813" style="stroke:#181818;stroke-width:1.0;" width="10" x="2803" y="1209.5781"/><rect fill="#FFFFFF" height="43.2813" style="stroke:#181818;stroke-width:1.0;" width="10" x="3427" y="1476.2656"/><rect fill="#FFFFFF" height="37.2813" style="stroke:#181818;stroke-width:1.0;" width="10" x="3672.5" y="1135.0156"/><rect fill="#FFFFFF" height="37.2813" style="stroke:#181818;stroke-width:1.0;" width="10" x="3908" y="643.7969"/><rect fill="#FFFFFF" height="37.2813" style="stroke:#181818;stroke-width:1.0;" width="10" x="3908" y="833.4844"/><rect fill="#FFFFFF" height="37.2813" style="stroke:#181818;stroke-width:1.0;" width="10" x="3908" y="1023.1719"/><rect fill="#FFFFFF" height="30" style="stroke:#181818;stroke-width:1.0;" width="10" x="3908" y="1334.4219"/><polygon fill="#000000" points="774,160.8594,784,164.8594,774,168.8594,778,164.8594" style="stroke:#000000;stroke-width:1.0;"/><line style="stroke:#000000;stroke-width:1.0;" x1="46" x2="780" y1="164.8594" y2="164.8594"/><text fill="#000000" font-family="sans-serif" font-size="20" lengthAdjust="spacing" textLength="236" x="53" y="158.1426">Asks to create a Patient</text><polygon fill="#000000" points="57,198.1406,47,202.1406,57,206.1406,53,202.1406" style="stroke:#000000;stroke-width:1.0;"/><line style="stroke:#000000;stroke-width:1.0;stroke-dasharray:2.0,2.0;" x1="51" x2="790" y1="202.1406" y2="202.1406"/><text fill="#000000" font-family="sans-serif" font-size="20" lengthAdjust="spacing" textLength="223" x="63" y="195.4238">Asks for Patient's data</text><polygon fill="#000000" points="774,258.7031,784,262.7031,774,266.7031,778,262.7031" style="stroke:#000000;stroke-width:1.0;"/><line style="stroke:#000000;stroke-width:1.0;" x1="46" x2="780" y1="262.7031" y2="262.7031"/><text fill="#000000" font-family="sans-serif" font-size="20" lengthAdjust="spacing" textLength="692" x="53" y="232.7051">Sends Patient's data (First name, Last name, Fullname, Date of birth,</text><text fill="#000000" font-family="sans-serif" font-size="20" lengthAdjust="spacing" textLength="721" x="53" y="255.9863">Gender, Email, Phone number, Emergency Contact, Medical Conditions)</text><polygon fill="#000000" points="1221,295.9844,1231,299.9844,1221,303.9844,1225,299.9844" style="stroke:#000000;stroke-width:1.0;"/><line style="stroke:#000000;stroke-width:1.0;" x1="796" x2="1227" y1="299.9844" y2="299.9844"/><text fill="#000000" font-family="sans-serif" font-size="20" lengthAdjust="spacing" textLength="389" x="803" y="293.2676">createPatient(CreatingPatientDTO dto)</text><polygon fill="#000000" points="1797,333.2656,1807,337.2656,1797,341.2656,1801,337.2656" style="stroke:#000000;stroke-width:1.0;"/><line style="stroke:#000000;stroke-width:1.0;stroke-dasharray:2.0,2.0;" x1="1243" x2="1803" y1="337.2656" y2="337.2656"/><text fill="#000000" font-family="sans-serif" font-size="20" lengthAdjust="spacing" textLength="389" x="1250" y="330.5488">createPatient(CreatingPatientDTO dto)</text><polygon fill="#000000" points="2183,370.5469,2193,374.5469,2183,378.5469,2187,374.5469" style="stroke:#000000;stroke-width:1.0;"/><line style="stroke:#000000;stroke-width:1.0;" x1="1819" x2="2189" y1="374.5469" y2="374.5469"/><text fill="#000000" font-family="sans-serif" font-size="20" lengthAdjust="spacing" textLength="357" x="1826" y="367.8301">ToDomain(CreatingPatientDTO dto)</text><polygon fill="#000000" points="2791,477.6719,2801,481.6719,2791,485.6719,2795,481.6719" style="stroke:#000000;stroke-width:1.0;"/><line style="stroke:#000000;stroke-width:1.0;" x1="2205" x2="2797" y1="481.6719" y2="481.6719"/><text fill="#000000" font-family="sans-serif" font-size="20" lengthAdjust="spacing" textLength="573" x="2212" y="405.1113">new Patient(dto.FirstName, dto.LastName, dto.FullName,</text><text fill="#000000" font-family="sans-serif" font-size="20" lengthAdjust="spacing" textLength="333" x="2212" y="428.3926">DateOnly.Parse(dto.DateOfBirth),</text><text fill="#000000" font-family="sans-serif" font-size="20" lengthAdjust="spacing" textLength="499" x="2212" y="451.6738">dto.GenderOptions, dto.Email, dto.PhoneNumber,</text><text fill="#000000" font-family="sans-serif" font-size="20" lengthAdjust="spacing" textLength="473" x="2212" y="474.9551">dto.EmergencyContact, dto.MedicalConditions)</text><line style="stroke:#000000;stroke-width:1.0;" x1="2813" x2="2855" y1="523.9531" y2="523.9531"/><line style="stroke:#000000;stroke-width:1.0;" x1="2855" x2="2855" y1="523.9531" y2="536.9531"/><line style="stroke:#000000;stroke-width:1.0;" x1="2808" x2="2855" y1="536.9531" y2="536.9531"/><polygon fill="#000000" points="2818,532.9531,2808,536.9531,2818,540.9531,2814,536.9531" style="stroke:#000000;stroke-width:1.0;"/><text fill="#000000" font-family="sans-serif" font-size="20" lengthAdjust="spacing" textLength="87" x="2820" y="517.2363">Patient()</text><polygon fill="#000000" points="1830,565.2344,1820,569.2344,1830,573.2344,1826,569.2344" style="stroke:#000000;stroke-width:1.0;"/><line style="stroke:#000000;stroke-width:1.0;stroke-dasharray:2.0,2.0;" x1="1824" x2="2199" y1="569.2344" y2="569.2344"/><text fill="#000000" font-family="sans-serif" font-size="20" lengthAdjust="spacing" textLength="139" x="1836" y="562.5176">return Patient</text><polygon fill="#000000" points="2368.5,602.5156,2378.5,606.5156,2368.5,610.5156,2372.5,606.5156" style="stroke:#000000;stroke-width:1.0;"/><line style="stroke:#000000;stroke-width:1.0;" x1="1819" x2="2374.5" y1="606.5156" y2="606.5156"/><text fill="#000000" font-family="sans-serif" font-size="20" lengthAdjust="spacing" textLength="337" x="1826" y="599.7988">getPatientByEmail(patient.Email)</text><polygon fill="#000000" points="3896,639.7969,3906,643.7969,3896,647.7969,3900,643.7969" style="stroke:#000000;stroke-width:1.0;"/><line style="stroke:#000000;stroke-width:1.0;" x1="2390.5" x2="3902" y1="643.7969" y2="643.7969"/><text fill="#000000" font-family="sans-serif" font-size="20" lengthAdjust="spacing" textLength="643" x="2397.5" y="637.0801">_objs.Where(x =&gt; email.Equals(x.Email)).FirstOrDefaultAsync();</text><polygon fill="#000000" points="2401.5,677.0781,2391.5,681.0781,2401.5,685.0781,2397.5,681.0781" style="stroke:#000000;stroke-width:1.0;"/><line style="stroke:#000000;stroke-width:1.0;stroke-dasharray:2.0,2.0;" x1="2395.5" x2="3912" y1="681.0781" y2="681.0781"/><text fill="#000000" font-family="sans-serif" font-size="20" lengthAdjust="spacing" textLength="99" x="2407.5" y="674.3613">return var</text><polygon fill="#000000" points="1830,714.3594,1820,718.3594,1830,722.3594,1826,718.3594" style="stroke:#000000;stroke-width:1.0;"/><line style="stroke:#000000;stroke-width:1.0;stroke-dasharray:2.0,2.0;" x1="1824" x2="2384.5" y1="718.3594" y2="718.3594"/><text fill="#000000" font-family="sans-serif" font-size="20" lengthAdjust="spacing" textLength="99" x="1836" y="711.6426">return var</text><path d="M1126,733.3594 L1202,733.3594 L1202,748.6406 L1192,758.6406 L1126,758.6406 L1126,733.3594 " fill="#EEEEEE" style="stroke:#000000;stroke-width:1.5;"/><rect fill="none" height="1007.875" style="stroke:#000000;stroke-width:1.5;" width="2861" x="1126" y="733.3594"/><text fill="#000000" font-family="sans-serif" font-size="20" font-weight="bold" lengthAdjust="spacing" textLength="31" x="1141" y="752.9238">alt</text><text fill="#000000" font-family="sans-serif" font-size="20" font-weight="bold" lengthAdjust="spacing" textLength="130" x="1217" y="753.9238">[var is null]</text><polygon fill="#000000" points="2368.5,792.2031,2378.5,796.2031,2368.5,800.2031,2372.5,796.2031" style="stroke:#000000;stroke-width:1.0;"/><line style="stroke:#000000;stroke-width:1.0;" x1="1819" x2="2374.5" y1="796.2031" y2="796.2031"/><text fill="#000000" font-family="sans-serif" font-size="20" lengthAdjust="spacing" textLength="509" x="1826" y="789.4863">getPatientByPhoneNumber(patient.PhoneNumber)</text><polygon fill="#000000" points="3896,829.4844,3906,833.4844,3896,837.4844,3900,833.4844" style="stroke:#000000;stroke-width:1.0;"/><line style="stroke:#000000;stroke-width:1.0;" x1="2390.5" x2="3902" y1="833.4844" y2="833.4844"/><text fill="#000000" font-family="sans-serif" font-size="20" lengthAdjust="spacing" textLength="817" x="2397.5" y="826.7676">_objs.Where(x =&gt; phoneNumber.Equals(x.PhoneNumber)).FirstOrDefaultAsync();</text><polygon fill="#000000" points="2401.5,866.7656,2391.5,870.7656,2401.5,874.7656,2397.5,870.7656" style="stroke:#000000;stroke-width:1.0;"/><line style="stroke:#000000;stroke-width:1.0;stroke-dasharray:2.0,2.0;" x1="2395.5" x2="3912" y1="870.7656" y2="870.7656"/><text fill="#000000" font-family="sans-serif" font-size="20" lengthAdjust="spacing" textLength="99" x="2407.5" y="864.0488">return var</text><polygon fill="#000000" points="1830,904.0469,1820,908.0469,1830,912.0469,1826,908.0469" style="stroke:#000000;stroke-width:1.0;"/><line style="stroke:#000000;stroke-width:1.0;stroke-dasharray:2.0,2.0;" x1="1824" x2="2384.5" y1="908.0469" y2="908.0469"/><text fill="#000000" font-family="sans-serif" font-size="20" lengthAdjust="spacing" textLength="99" x="1836" y="901.3301">return var</text><path d="M1136,923.0469 L1212,923.0469 L1212,938.3281 L1202,948.3281 L1136,948.3281 L1136,923.0469 " fill="#EEEEEE" style="stroke:#000000;stroke-width:1.5;"/><rect fill="none" height="748.625" style="stroke:#000000;stroke-width:1.5;" width="2841" x="1136" y="923.0469"/><text fill="#000000" font-family="sans-serif" font-size="20" font-weight="bold" lengthAdjust="spacing" textLength="31" x="1151" y="942.6113">alt</text><text fill="#000000" font-family="sans-serif" font-size="20" font-weight="bold" lengthAdjust="spacing" textLength="130" x="1227" y="943.6113">[var is null]</text><polygon fill="#000000" points="2368.5,981.8906,2378.5,985.8906,2368.5,989.8906,2372.5,985.8906" style="stroke:#000000;stroke-width:1.0;"/><line style="stroke:#000000;stroke-width:1.0;" x1="1819" x2="2374.5" y1="985.8906" y2="985.8906"/><text fill="#000000" font-family="sans-serif" font-size="20" lengthAdjust="spacing" textLength="134" x="1826" y="979.1738">getAllAsync()</text><polygon fill="#000000" points="3896,1019.1719,3906,1023.1719,3896,1027.1719,3900,1023.1719" style="stroke:#000000;stroke-width:1.0;"/><line style="stroke:#000000;stroke-width:1.0;" x1="2390.5" x2="3902" y1="1023.1719" y2="1023.1719"/><text fill="#000000" font-family="sans-serif" font-size="20" lengthAdjust="spacing" textLength="198" x="2397.5" y="1016.4551">_objs.ToListAsync();</text><polygon fill="#000000" points="2401.5,1056.4531,2391.5,1060.4531,2401.5,1064.4531,2397.5,1060.4531" style="stroke:#000000;stroke-width:1.0;"/><line style="stroke:#000000;stroke-width:1.0;stroke-dasharray:2.0,2.0;" x1="2395.5" x2="3912" y1="1060.4531" y2="1060.4531"/><text fill="#000000" font-family="sans-serif" font-size="20" lengthAdjust="spacing" textLength="98" x="2407.5" y="1053.7363">return list</text><polygon fill="#000000" points="1830,1093.7344,1820,1097.7344,1830,1101.7344,1826,1097.7344" style="stroke:#000000;stroke-width:1.0;"/><line style="stroke:#000000;stroke-width:1.0;stroke-dasharray:2.0,2.0;" x1="1824" x2="2384.5" y1="1097.7344" y2="1097.7344"/><text fill="#000000" font-family="sans-serif" font-size="20" lengthAdjust="spacing" textLength="98" x="1836" y="1091.0176">return list</text><polygon fill="#000000" points="3660.5,1131.0156,3670.5,1135.0156,3660.5,1139.0156,3664.5,1135.0156" style="stroke:#000000;stroke-width:1.0;"/><line style="stroke:#000000;stroke-width:1.0;" x1="1819" x2="3666.5" y1="1135.0156" y2="1135.0156"/><text fill="#000000" font-family="sans-serif" font-size="20" lengthAdjust="spacing" textLength="433" x="1826" y="1128.2988">GenerateMedicalRecordNumber(list.Count)</text><polygon fill="#000000" points="1830,1168.2969,1820,1172.2969,1830,1176.2969,1826,1172.2969" style="stroke:#000000;stroke-width:1.0;"/><line style="stroke:#000000;stroke-width:1.0;stroke-dasharray:2.0,2.0;" x1="1824" x2="3676.5" y1="1172.2969" y2="1172.2969"/><text fill="#000000" font-family="sans-serif" font-size="20" lengthAdjust="spacing" textLength="399" x="1836" y="1165.5801">return generatedMedicalRecordNumber</text><polygon fill="#000000" points="2791,1205.5781,2801,1209.5781,2791,1213.5781,2795,1209.5781" style="stroke:#000000;stroke-width:1.0;"/><line style="stroke:#000000;stroke-width:1.0;" x1="1819" x2="2797" y1="1209.5781" y2="1209.5781"/><text fill="#000000" font-family="sans-serif" font-size="20" lengthAdjust="spacing" textLength="641" x="1826" y="1202.8613">AssignMedicalRecordNumber(generatedMedicalRecordNumber)</text><line style="stroke:#000000;stroke-width:1.0;" x1="2813" x2="2855" y1="1251.8594" y2="1251.8594"/><line style="stroke:#000000;stroke-width:1.0;" x1="2855" x2="2855" y1="1251.8594" y2="1264.8594"/><line style="stroke:#000000;stroke-width:1.0;" x1="2808" x2="2855" y1="1264.8594" y2="1264.8594"/><polygon fill="#000000" points="2818,1260.8594,2808,1264.8594,2818,1268.8594,2814,1264.8594" style="stroke:#000000;stroke-width:1.0;"/><text fill="#000000" font-family="sans-serif" font-size="20" lengthAdjust="spacing" textLength="600" x="2820" y="1245.1426">MedicalRecordNumber = genereatedMedicalRecordNumber</text><polygon fill="#000000" points="2368.5,1293.1406,2378.5,1297.1406,2368.5,1301.1406,2372.5,1297.1406" style="stroke:#000000;stroke-width:1.0;"/><line style="stroke:#000000;stroke-width:1.0;" x1="1819" x2="2374.5" y1="1297.1406" y2="1297.1406"/><text fill="#000000" font-family="sans-serif" font-size="20" lengthAdjust="spacing" textLength="262" x="1826" y="1290.4238">addAsync(Patient patient)</text><polygon fill="#000000" points="3896,1330.4219,3906,1334.4219,3896,1338.4219,3900,1334.4219" style="stroke:#000000;stroke-width:1.0;"/><line style="stroke:#000000;stroke-width:1.0;" x1="2390.5" x2="3902" y1="1334.4219" y2="1334.4219"/><text fill="#000000" font-family="sans-serif" font-size="20" lengthAdjust="spacing" textLength="244" x="2397.5" y="1327.7051">_objs.AddAsync(patient)</text><polygon fill="#000000" points="1830,1397.7031,1820,1401.7031,1830,1405.7031,1826,1401.7031" style="stroke:#000000;stroke-width:1.0;"/><line style="stroke:#000000;stroke-width:1.0;stroke-dasharray:2.0,2.0;" x1="1824" x2="2384.5" y1="1401.7031" y2="1401.7031"/><text fill="#000000" font-family="sans-serif" font-size="20" lengthAdjust="spacing" textLength="139" x="1836" y="1394.9863">return Patient</text><polygon fill="#000000" points="2183,1434.9844,2193,1438.9844,2183,1442.9844,2187,1438.9844" style="stroke:#000000;stroke-width:1.0;"/><line style="stroke:#000000;stroke-width:1.0;" x1="1819" x2="2189" y1="1438.9844" y2="1438.9844"/><text fill="#000000" font-family="sans-serif" font-size="20" lengthAdjust="spacing" textLength="232" x="1826" y="1432.2676">ToDTO(Patient patient)</text><polygon fill="#000000" points="3415,1472.2656,3425,1476.2656,3415,1480.2656,3419,1476.2656" style="stroke:#000000;stroke-width:1.0;"/><line style="stroke:#000000;stroke-width:1.0;" x1="2205" x2="3421" y1="1476.2656" y2="1476.2656"/><text fill="#000000" font-family="sans-serif" font-size="20" lengthAdjust="spacing" textLength="310" x="2212" y="1469.5488">new PatientDTO(patient fields)</text><line style="stroke:#000000;stroke-width:1.0;" x1="3437" x2="3479" y1="1518.5469" y2="1518.5469"/><line style="stroke:#000000;stroke-width:1.0;" x1="3479" x2="3479" y1="1518.5469" y2="1531.5469"/><line style="stroke:#000000;stroke-width:1.0;" x1="3432" x2="3479" y1="1531.5469" y2="1531.5469"/><polygon fill="#000000" points="3442,1527.5469,3432,1531.5469,3442,1535.5469,3438,1531.5469" style="stroke:#000000;stroke-width:1.0;"/><text fill="#000000" font-family="sans-serif" font-size="20" lengthAdjust="spacing" textLength="130" x="3444" y="1511.8301">PatientDTO()</text><polygon fill="#000000" points="1830,1559.8281,1820,1563.8281,1830,1567.8281,1826,1563.8281" style="stroke:#000000;stroke-width:1.0;"/><line style="stroke:#000000;stroke-width:1.0;stroke-dasharray:2.0,2.0;" x1="1824" x2="2199" y1="1563.8281" y2="1563.8281"/><text fill="#000000" font-family="sans-serif" font-size="20" lengthAdjust="spacing" textLength="182" x="1836" y="1557.1113">return PatientDTO</text><polygon fill="#000000" points="1254,1597.1094,1244,1601.1094,1254,1605.1094,1250,1601.1094" style="stroke:#000000;stroke-width:1.0;"/><line style="stroke:#000000;stroke-width:1.0;stroke-dasharray:2.0,2.0;" x1="1248" x2="1813" y1="1601.1094" y2="1601.1094"/><text fill="#000000" font-family="sans-serif" font-size="20" lengthAdjust="spacing" textLength="182" x="1260" y="1594.3926">return PatientDTO</text><line style="stroke:#000000;stroke-width:1.0;stroke-dasharray:2.0,2.0;" x1="1136" x2="3977" y1="1610.1094" y2="1610.1094"/><text fill="#000000" font-family="sans-serif" font-size="20" font-weight="bold" lengthAdjust="spacing" textLength="175" x="1141" y="1628.6738">[var is not null]</text><polygon fill="#000000" points="1254,1659.6719,1244,1663.6719,1254,1667.6719,1250,1663.6719" style="stroke:#000000;stroke-width:1.0;"/><line style="stroke:#000000;stroke-width:1.0;stroke-dasharray:2.0,2.0;" x1="1248" x2="1813" y1="1663.6719" y2="1663.6719"/><text fill="#000000" font-family="sans-serif" font-size="20" lengthAdjust="spacing" textLength="547" x="1260" y="1656.9551">return Patient with same Phone Number already exists</text><line style="stroke:#000000;stroke-width:1.0;stroke-dasharray:2.0,2.0;" x1="1126" x2="3987" y1="1679.6719" y2="1679.6719"/><text fill="#000000" font-family="sans-serif" font-size="20" font-weight="bold" lengthAdjust="spacing" textLength="175" x="1131" y="1698.2363">[var is not null]</text><polygon fill="#000000" points="1254,1729.2344,1244,1733.2344,1254,1737.2344,1250,1733.2344" style="stroke:#000000;stroke-width:1.0;"/><line style="stroke:#000000;stroke-width:1.0;stroke-dasharray:2.0,2.0;" x1="1248" x2="1813" y1="1733.2344" y2="1733.2344"/><text fill="#000000" font-family="sans-serif" font-size="20" lengthAdjust="spacing" textLength="455" x="1260" y="1726.5176">return Patient with same Email already exists</text><polygon fill="#000000" points="807,1773.5156,797,1777.5156,807,1781.5156,803,1777.5156" style="stroke:#000000;stroke-width:1.0;"/><line style="stroke:#000000;stroke-width:1.0;stroke-dasharray:2.0,2.0;" x1="801" x2="1237" y1="1777.5156" y2="1777.5156"/><text fill="#000000" font-family="sans-serif" font-size="20" lengthAdjust="spacing" textLength="413" x="813" y="1770.7988">Returns Operation Status Response Code</text><polygon fill="#000000" points="57,1810.7969,47,1814.7969,57,1818.7969,53,1814.7969" style="stroke:#000000;stroke-width:1.0;"/><line style="stroke:#000000;stroke-width:1.0;stroke-dasharray:2.0,2.0;" x1="51" x2="790" y1="1814.7969" y2="1814.7969"/><text fill="#000000" font-family="sans-serif" font-size="20" lengthAdjust="spacing" textLength="380" x="63" y="1808.0801">Returns Operation In/Sucess message</text><!--SRC=[bLTjRzis4FwkNt5eFzG6qgphi3Ul3I1PTX4WZWqfmRuK61ZfxB2XIOsaatZ3_lluPbcowJRDXqGyFdUyv-7noAW7oXiYoPg9wW5hg759DanF1TSb_GVX_RiaqLGpX2jyH0O_GKx9ok2Jv9xM2BXkz1RMkBv3gP8tQXSEhYX7lMqGXDJt8adsCnKZIi6_2PYVZ5GFAoasl1uB9kI73u-4RN1-zmKhVN41h_DV9kdqjpXK2k4mqtoIvU_Y68NoaLReGlquVJ_9OZ0JOZBzVVAhcqkb54_Ud363I_xhvjuO2rbXF7juFSccFqypwq8gRGnflQOSY88qCVwQLhGXNCEhMvCNN7ADSaagV6KHjvTzo89eYboFpKP8mHXAXnf7GQLdwH1b534ZJHD2pAA00XkXgCbvwq155EIc5j6f_6RkPitV_lmCQreHLc0bP7sziNNo2JbAOjRo-HJNd_ekET7aZYZF9yyIfoPz91gDZYcylJ1YZI1L3mgqW4gYdI4GCjc3ZQItb_3MuDC0Nvez2R0t2cgpJb9Z5zz6Bv7NwW0BWocLIWCdQpo3Az9-JZUC-Q_SnX5BkAEcwi_WCpTSQvHdC5aJoivWSIyu0dSoM2FA5V9g2tQRJHvd4EIoXffgAhWQ7X6wWF4eq0u93iPsHFbglnjGQz5n7ITZfqJvtPvbKjebPoEu4RamDFYtVMR9pFeiHi3nQQVYm63EdOBNJYixj2BkHrP7F_hChP9pphRd2o8LEbzdMcPMsg65M9lNTzuugNoK8BNzT79V1xMzGwjvAxcr1jcZgY-IHI2p8pBiLit2SlNAIjGRoTj2x81cNiHY12lKOJxRkam7ZH_wl3lh5abXVV9i17-9ko_g_Czxb3XuXeyNfkqQxFdaxmrXQl0SN8TUtRdCVHDFrPPNW-4V-v3cCEMPoxPeitqaifkfWHG7V0uGHKAOjaQWofGoOwuNnlXrv6zPTcn3vzY9QuUdEJTxpptpRhYJ_7lBvFuEYEfW9_fQX9IEz3X0-jnZkXneap8Mqcfd3u94HBWHLrJrwSGeHManuzdE7dEByJlbKlG9sSOzWj3CCTBd1pRG-TZSZph2rlNzdTKE3h9OXS1r978ikrwyCfpOL2cwuh7SlXO-aksYDUsQGSGFFlgiyJlINXnL2QbhlzNX744uEjzJCUakncdVJW6yh2nsRUq5bU7kYflv2nZCzYNW6DpCUtU63HASOKcHrIh6nBmvsletTz4kJYV6CCgrutUYXtSXlNRUuUllunVvbSw8J67R9uG-wXMnWF14zJqeSpc6DqIeEC9CjTLRm6TprjHNrkHrSdBTRw_fBfZOOhs5x2B-cM6VK8KBfc3Us8DcBbKeDT4RyxX4rPWhrZnAH8tTcsNSUQyTUr_o7yfDXUP_XxNvPLxX1s-tv7y0]--></g></svg>