<?xml version="1.0" encoding="UTF-8" standalone="no"?><svg xmlns="http://www.w3.org/2000/svg" xmlns:xlink="http://www.w3.org/1999/xlink" contentStyleType="text/css" height="1360px" preserveAspectRatio="none" style="width:1628px;height:1360px;background:#FFFFFF;" version="1.1" viewBox="0 0 1628 1360" width="1628px" zoomAndPan="magnify"><defs/><g><text fill="#000000" font-family="sans-serif" font-size="14" font-weight="bold" lengthAdjust="spacing" textLength="287" x="672" y="27.9951">Patient Profile Update Flow - Level 2</text><rect fill="#FFFFFF" height="1066.1563" style="stroke:#181818;stroke-width:1.0;" width="10" x="367.5" y="188.1406"/><rect fill="#FFFFFF" height="186.4063" style="stroke:#181818;stroke-width:1.0;" width="10" x="755.5" y="298.9844"/><rect fill="#FFFFFF" height="348.5313" style="stroke:#181818;stroke-width:1.0;" width="10" x="755.5" y="634.5156"/><rect fill="#FFFFFF" height="37.2813" style="stroke:#181818;stroke-width:1.0;" width="10" x="955.5" y="1060.8906"/><rect fill="#FFFFFF" height="74.5625" style="stroke:#181818;stroke-width:1.0;" width="10" x="1126" y="522.6719"/><rect fill="#FFFFFF" height="74.5625" style="stroke:#181818;stroke-width:1.0;" width="10" x="1126" y="1142.4531"/><rect fill="none" height="108.125" style="stroke:#000000;stroke-width:1.5;" width="1032.5" x="10" y="998.0469"/><line style="stroke:#181818;stroke-width:0.5;stroke-dasharray:5.0,5.0;" x1="58" x2="58" y1="125.5781" y2="1272.2969"/><line style="stroke:#181818;stroke-width:0.5;stroke-dasharray:5.0,5.0;" x1="372.5" x2="372.5" y1="125.5781" y2="1272.2969"/><line style="stroke:#181818;stroke-width:0.5;stroke-dasharray:5.0,5.0;" x1="760.5" x2="760.5" y1="125.5781" y2="1272.2969"/><line style="stroke:#181818;stroke-width:0.5;stroke-dasharray:5.0,5.0;" x1="960.5" x2="960.5" y1="125.5781" y2="1272.2969"/><line style="stroke:#181818;stroke-width:0.5;stroke-dasharray:5.0,5.0;" x1="1130.5" x2="1130.5" y1="125.5781" y2="1272.2969"/><line style="stroke:#181818;stroke-width:0.5;stroke-dasharray:5.0,5.0;" x1="1324.5" x2="1324.5" y1="125.5781" y2="1272.2969"/><line style="stroke:#181818;stroke-width:0.5;stroke-dasharray:5.0,5.0;" x1="1577" x2="1577" y1="125.5781" y2="1272.2969"/><text fill="#000000" font-family="sans-serif" font-size="20" lengthAdjust="spacing" textLength="71" x="20" y="120.8613">Patient</text><ellipse cx="58.5" cy="50.7969" fill="#E2E2F0" rx="8" ry="8" style="stroke:#181818;stroke-width:0.5;"/><path d="M58.5,58.7969 L58.5,85.7969 M45.5,66.7969 L71.5,66.7969 M58.5,85.7969 L45.5,100.7969 M58.5,85.7969 L71.5,100.7969 " fill="none" style="stroke:#181818;stroke-width:0.5;"/><text fill="#000000" font-family="sans-serif" font-size="20" lengthAdjust="spacing" textLength="71" x="20" y="1289.8613">Patient</text><ellipse cx="58.5" cy="1303.0781" fill="#E2E2F0" rx="8" ry="8" style="stroke:#181818;stroke-width:0.5;"/><path d="M58.5,1311.0781 L58.5,1338.0781 M45.5,1319.0781 L71.5,1319.0781 M58.5,1338.0781 L45.5,1353.0781 M58.5,1338.0781 L71.5,1353.0781 " fill="none" style="stroke:#181818;stroke-width:0.5;"/><rect fill="#E2E2F0" height="37.2813" rx="2.5" ry="2.5" style="stroke:#181818;stroke-width:0.5;" width="184" x="280.5" y="87.2969"/><text fill="#000000" font-family="sans-serif" font-size="20" lengthAdjust="spacing" textLength="170" x="287.5" y="112.8613">PatientController</text><rect fill="#E2E2F0" height="37.2813" rx="2.5" ry="2.5" style="stroke:#181818;stroke-width:0.5;" width="184" x="280.5" y="1271.2969"/><text fill="#000000" font-family="sans-serif" font-size="20" lengthAdjust="spacing" textLength="170" x="287.5" y="1296.8613">PatientController</text><rect fill="#E2E2F0" height="37.2813" rx="2.5" ry="2.5" style="stroke:#181818;stroke-width:0.5;" width="158" x="681.5" y="87.2969"/><text fill="#000000" font-family="sans-serif" font-size="20" lengthAdjust="spacing" textLength="144" x="688.5" y="112.8613">PatientService</text><rect fill="#E2E2F0" height="37.2813" rx="2.5" ry="2.5" style="stroke:#181818;stroke-width:0.5;" width="158" x="681.5" y="1271.2969"/><text fill="#000000" font-family="sans-serif" font-size="20" lengthAdjust="spacing" textLength="144" x="688.5" y="1296.8613">PatientService</text><rect fill="#E2E2F0" height="37.2813" rx="2.5" ry="2.5" style="stroke:#181818;stroke-width:0.5;" width="144" x="888.5" y="87.2969"/><text fill="#000000" font-family="sans-serif" font-size="20" lengthAdjust="spacing" textLength="130" x="895.5" y="112.8613">EmailService</text><rect fill="#E2E2F0" height="37.2813" rx="2.5" ry="2.5" style="stroke:#181818;stroke-width:0.5;" width="144" x="888.5" y="1271.2969"/><text fill="#000000" font-family="sans-serif" font-size="20" lengthAdjust="spacing" textLength="130" x="895.5" y="1296.8613">EmailService</text><rect fill="#E2E2F0" height="37.2813" rx="2.5" ry="2.5" style="stroke:#181818;stroke-width:0.5;" width="177" x="1042.5" y="87.2969"/><text fill="#000000" font-family="sans-serif" font-size="20" lengthAdjust="spacing" textLength="163" x="1049.5" y="112.8613">AuditLogService</text><rect fill="#E2E2F0" height="37.2813" rx="2.5" ry="2.5" style="stroke:#181818;stroke-width:0.5;" width="177" x="1042.5" y="1271.2969"/><text fill="#000000" font-family="sans-serif" font-size="20" lengthAdjust="spacing" textLength="163" x="1049.5" y="1296.8613">AuditLogService</text><rect fill="#E2E2F0" height="37.2813" rx="2.5" ry="2.5" style="stroke:#181818;stroke-width:0.5;" width="191" x="1229.5" y="87.2969"/><text fill="#000000" font-family="sans-serif" font-size="20" lengthAdjust="spacing" textLength="177" x="1236.5" y="112.8613">PatientRepository</text><rect fill="#E2E2F0" height="37.2813" rx="2.5" ry="2.5" style="stroke:#181818;stroke-width:0.5;" width="191" x="1229.5" y="1271.2969"/><text fill="#000000" font-family="sans-serif" font-size="20" lengthAdjust="spacing" textLength="177" x="1236.5" y="1296.8613">PatientRepository</text><text fill="#000000" font-family="sans-serif" font-size="20" lengthAdjust="spacing" textLength="94" x="1527" y="120.8613">Database</text><path d="M1559,66.2969 C1559,56.2969 1577,56.2969 1577,56.2969 C1577,56.2969 1595,56.2969 1595,66.2969 L1595,92.2969 C1595,102.2969 1577,102.2969 1577,102.2969 C1577,102.2969 1559,102.2969 1559,92.2969 L1559,66.2969 " fill="#E2E2F0" style="stroke:#181818;stroke-width:1.5;"/><path d="M1559,66.2969 C1559,76.2969 1577,76.2969 1577,76.2969 C1577,76.2969 1595,76.2969 1595,66.2969 " fill="none" style="stroke:#181818;stroke-width:1.5;"/><text fill="#000000" font-family="sans-serif" font-size="20" lengthAdjust="spacing" textLength="94" x="1527" y="1289.8613">Database</text><path d="M1559,1304.5781 C1559,1294.5781 1577,1294.5781 1577,1294.5781 C1577,1294.5781 1595,1294.5781 1595,1304.5781 L1595,1330.5781 C1595,1340.5781 1577,1340.5781 1577,1340.5781 C1577,1340.5781 1559,1340.5781 1559,1330.5781 L1559,1304.5781 " fill="#E2E2F0" style="stroke:#181818;stroke-width:1.5;"/><path d="M1559,1304.5781 C1559,1314.5781 1577,1314.5781 1577,1314.5781 C1577,1314.5781 1595,1314.5781 1595,1304.5781 " fill="none" style="stroke:#181818;stroke-width:1.5;"/><rect fill="#FFFFFF" height="1066.1563" style="stroke:#181818;stroke-width:1.0;" width="10" x="367.5" y="188.1406"/><rect fill="#FFFFFF" height="186.4063" style="stroke:#181818;stroke-width:1.0;" width="10" x="755.5" y="298.9844"/><rect fill="#FFFFFF" height="348.5313" style="stroke:#181818;stroke-width:1.0;" width="10" x="755.5" y="634.5156"/><rect fill="#FFFFFF" height="37.2813" style="stroke:#181818;stroke-width:1.0;" width="10" x="955.5" y="1060.8906"/><rect fill="#FFFFFF" height="74.5625" style="stroke:#181818;stroke-width:1.0;" width="10" x="1126" y="522.6719"/><rect fill="#FFFFFF" height="74.5625" style="stroke:#181818;stroke-width:1.0;" width="10" x="1126" y="1142.4531"/><polygon fill="#181818" points="355.5,184.1406,365.5,188.1406,355.5,192.1406,359.5,188.1406" style="stroke:#181818;stroke-width:1.0;"/><line style="stroke:#181818;stroke-width:1.0;" x1="58.5" x2="361.5" y1="188.1406" y2="188.1406"/><text fill="#000000" font-family="sans-serif" font-size="20" lengthAdjust="spacing" textLength="233" x="65.5" y="158.1426">PUT /api/patient/profile</text><text fill="#000000" font-family="sans-serif" font-size="20" lengthAdjust="spacing" textLength="203" x="65.5" y="181.4238">(UpdatePatientDTO)</text><line style="stroke:#181818;stroke-width:1.0;" x1="377.5" x2="419.5" y1="248.7031" y2="248.7031"/><line style="stroke:#181818;stroke-width:1.0;" x1="419.5" x2="419.5" y1="248.7031" y2="261.7031"/><line style="stroke:#181818;stroke-width:1.0;" x1="378.5" x2="419.5" y1="261.7031" y2="261.7031"/><polygon fill="#181818" points="388.5,257.7031,378.5,261.7031,388.5,265.7031,384.5,261.7031" style="stroke:#181818;stroke-width:1.0;"/><text fill="#000000" font-family="sans-serif" font-size="20" lengthAdjust="spacing" textLength="175" x="384.5" y="218.7051">Extract Patient ID</text><text fill="#000000" font-family="sans-serif" font-size="20" lengthAdjust="spacing" textLength="158" x="384.5" y="241.9863">from JWT Token</text><polygon fill="#181818" points="743.5,294.9844,753.5,298.9844,743.5,302.9844,747.5,298.9844" style="stroke:#181818;stroke-width:1.0;"/><line style="stroke:#181818;stroke-width:1.0;" x1="377.5" x2="749.5" y1="298.9844" y2="298.9844"/><text fill="#000000" font-family="sans-serif" font-size="20" lengthAdjust="spacing" textLength="258" x="384.5" y="292.2676">GetPatientById(patientId)</text><polygon fill="#181818" points="1313,332.2656,1323,336.2656,1313,340.2656,1317,336.2656" style="stroke:#181818;stroke-width:1.0;"/><line style="stroke:#181818;stroke-width:1.0;" x1="765.5" x2="1319" y1="336.2656" y2="336.2656"/><text fill="#000000" font-family="sans-serif" font-size="20" lengthAdjust="spacing" textLength="246" x="772.5" y="329.5488">GetByIdAsync(patientId)</text><polygon fill="#181818" points="1565,369.5469,1575,373.5469,1565,377.5469,1569,373.5469" style="stroke:#181818;stroke-width:1.0;"/><line style="stroke:#181818;stroke-width:1.0;" x1="1325" x2="1571" y1="373.5469" y2="373.5469"/><text fill="#000000" font-family="sans-serif" font-size="20" lengthAdjust="spacing" textLength="228" x="1332" y="366.8301">SELECT FROM Patients</text><polygon fill="#181818" points="1336,406.8281,1326,410.8281,1336,414.8281,1332,410.8281" style="stroke:#181818;stroke-width:1.0;"/><line style="stroke:#181818;stroke-width:1.0;stroke-dasharray:2.0,2.0;" x1="1330" x2="1576" y1="410.8281" y2="410.8281"/><text fill="#000000" font-family="sans-serif" font-size="20" lengthAdjust="spacing" textLength="206" x="1342" y="404.1113">Current Patient Data</text><polygon fill="#181818" points="776.5,444.1094,766.5,448.1094,776.5,452.1094,772.5,448.1094" style="stroke:#181818;stroke-width:1.0;"/><line style="stroke:#181818;stroke-width:1.0;stroke-dasharray:2.0,2.0;" x1="770.5" x2="1324" y1="448.1094" y2="448.1094"/><text fill="#000000" font-family="sans-serif" font-size="20" lengthAdjust="spacing" textLength="71" x="782.5" y="441.3926">Patient</text><polygon fill="#181818" points="388.5,481.3906,378.5,485.3906,388.5,489.3906,384.5,485.3906" style="stroke:#181818;stroke-width:1.0;"/><line style="stroke:#181818;stroke-width:1.0;stroke-dasharray:2.0,2.0;" x1="382.5" x2="759.5" y1="485.3906" y2="485.3906"/><text fill="#000000" font-family="sans-serif" font-size="20" lengthAdjust="spacing" textLength="114" x="394.5" y="478.6738">PatientDTO</text><polygon fill="#181818" points="1114,518.6719,1124,522.6719,1114,526.6719,1118,522.6719" style="stroke:#181818;stroke-width:1.0;"/><line style="stroke:#181818;stroke-width:1.0;" x1="377.5" x2="1120" y1="522.6719" y2="522.6719"/><text fill="#000000" font-family="sans-serif" font-size="20" lengthAdjust="spacing" textLength="201" x="384.5" y="515.9551">LogAsync(AuditLog)</text><polygon fill="#181818" points="1565,555.9531,1575,559.9531,1565,563.9531,1569,559.9531" style="stroke:#181818;stroke-width:1.0;"/><line style="stroke:#181818;stroke-width:1.0;" x1="1136" x2="1571" y1="559.9531" y2="559.9531"/><text fill="#000000" font-family="sans-serif" font-size="20" lengthAdjust="spacing" textLength="234" x="1143" y="553.2363">INSERT INTO AuditLogs</text><polygon fill="#181818" points="1142,593.2344,1132,597.2344,1142,601.2344,1138,597.2344" style="stroke:#181818;stroke-width:1.0;"/><line style="stroke:#181818;stroke-width:1.0;stroke-dasharray:2.0,2.0;" x1="1136" x2="1576" y1="597.2344" y2="597.2344"/><text fill="#000000" font-family="sans-serif" font-size="20" lengthAdjust="spacing" textLength="63" x="1148" y="590.5176">Log ID</text><polygon fill="#181818" points="743.5,630.5156,753.5,634.5156,743.5,638.5156,747.5,634.5156" style="stroke:#181818;stroke-width:1.0;"/><line style="stroke:#181818;stroke-width:1.0;" x1="377.5" x2="749.5" y1="634.5156" y2="634.5156"/><text fill="#000000" font-family="sans-serif" font-size="20" lengthAdjust="spacing" textLength="359" x="384.5" y="627.7988">UpdatePatientProfile(patientId, dto)</text><polygon fill="#181818" points="1313,667.7969,1323,671.7969,1313,675.7969,1317,671.7969" style="stroke:#181818;stroke-width:1.0;"/><line style="stroke:#181818;stroke-width:1.0;" x1="765.5" x2="1319" y1="671.7969" y2="671.7969"/><text fill="#000000" font-family="sans-serif" font-size="20" lengthAdjust="spacing" textLength="246" x="772.5" y="665.0801">GetByIdAsync(patientId)</text><polygon fill="#181818" points="1565,705.0781,1575,709.0781,1565,713.0781,1569,709.0781" style="stroke:#181818;stroke-width:1.0;"/><line style="stroke:#181818;stroke-width:1.0;" x1="1325" x2="1571" y1="709.0781" y2="709.0781"/><text fill="#000000" font-family="sans-serif" font-size="20" lengthAdjust="spacing" textLength="228" x="1332" y="702.3613">SELECT FROM Patients</text><polygon fill="#181818" points="1336,742.3594,1326,746.3594,1336,750.3594,1332,746.3594" style="stroke:#181818;stroke-width:1.0;"/><line style="stroke:#181818;stroke-width:1.0;stroke-dasharray:2.0,2.0;" x1="1330" x2="1576" y1="746.3594" y2="746.3594"/><text fill="#000000" font-family="sans-serif" font-size="20" lengthAdjust="spacing" textLength="124" x="1342" y="739.6426">Patient Data</text><line style="stroke:#181818;stroke-width:1.0;" x1="765.5" x2="807.5" y1="783.6406" y2="783.6406"/><line style="stroke:#181818;stroke-width:1.0;" x1="807.5" x2="807.5" y1="783.6406" y2="796.6406"/><line style="stroke:#181818;stroke-width:1.0;" x1="766.5" x2="807.5" y1="796.6406" y2="796.6406"/><polygon fill="#181818" points="776.5,792.6406,766.5,796.6406,776.5,800.6406,772.5,796.6406" style="stroke:#181818;stroke-width:1.0;"/><text fill="#000000" font-family="sans-serif" font-size="20" lengthAdjust="spacing" textLength="176" x="772.5" y="776.9238">Validate Changes</text><polygon fill="#181818" points="1313,829.9219,1323,833.9219,1313,837.9219,1317,833.9219" style="stroke:#181818;stroke-width:1.0;"/><line style="stroke:#181818;stroke-width:1.0;" x1="765.5" x2="1319" y1="833.9219" y2="833.9219"/><text fill="#000000" font-family="sans-serif" font-size="20" lengthAdjust="spacing" textLength="220" x="772.5" y="827.2051">UpdateAsync(patient)</text><polygon fill="#181818" points="1565,867.2031,1575,871.2031,1565,875.2031,1569,871.2031" style="stroke:#181818;stroke-width:1.0;"/><line style="stroke:#181818;stroke-width:1.0;" x1="1325" x2="1571" y1="871.2031" y2="871.2031"/><text fill="#000000" font-family="sans-serif" font-size="20" lengthAdjust="spacing" textLength="168" x="1332" y="864.4863">UPDATE Patients</text><polygon fill="#181818" points="1336,904.4844,1326,908.4844,1336,912.4844,1332,908.4844" style="stroke:#181818;stroke-width:1.0;"/><line style="stroke:#181818;stroke-width:1.0;stroke-dasharray:2.0,2.0;" x1="1330" x2="1576" y1="908.4844" y2="908.4844"/><text fill="#000000" font-family="sans-serif" font-size="20" lengthAdjust="spacing" textLength="80" x="1342" y="901.7676">Success</text><polygon fill="#181818" points="776.5,941.7656,766.5,945.7656,776.5,949.7656,772.5,945.7656" style="stroke:#181818;stroke-width:1.0;"/><line style="stroke:#181818;stroke-width:1.0;stroke-dasharray:2.0,2.0;" x1="770.5" x2="1324" y1="945.7656" y2="945.7656"/><text fill="#000000" font-family="sans-serif" font-size="20" lengthAdjust="spacing" textLength="163" x="782.5" y="939.0488">Updated Patient</text><polygon fill="#181818" points="388.5,979.0469,378.5,983.0469,388.5,987.0469,384.5,983.0469" style="stroke:#181818;stroke-width:1.0;"/><line style="stroke:#181818;stroke-width:1.0;stroke-dasharray:2.0,2.0;" x1="382.5" x2="759.5" y1="983.0469" y2="983.0469"/><text fill="#000000" font-family="sans-serif" font-size="20" lengthAdjust="spacing" textLength="114" x="394.5" y="976.3301">PatientDTO</text><path d="M10,998.0469 L86,998.0469 L86,1013.3281 L76,1023.3281 L10,1023.3281 L10,998.0469 " fill="#EEEEEE" style="stroke:#000000;stroke-width:1.5;"/><rect fill="none" height="108.125" style="stroke:#000000;stroke-width:1.5;" width="1032.5" x="10" y="998.0469"/><text fill="#000000" font-family="sans-serif" font-size="20" font-weight="bold" lengthAdjust="spacing" textLength="31" x="25" y="1017.6113">alt</text><text fill="#000000" font-family="sans-serif" font-size="20" font-weight="bold" lengthAdjust="spacing" textLength="187" x="101" y="1018.6113">[Email Changed]</text><polygon fill="#181818" points="943.5,1056.8906,953.5,1060.8906,943.5,1064.8906,947.5,1060.8906" style="stroke:#181818;stroke-width:1.0;"/><line style="stroke:#181818;stroke-width:1.0;" x1="377.5" x2="949.5" y1="1060.8906" y2="1060.8906"/><text fill="#000000" font-family="sans-serif" font-size="20" lengthAdjust="spacing" textLength="305" x="384.5" y="1054.1738">SendEmailVerificationRequest</text><polygon fill="#181818" points="69.5,1094.1719,59.5,1098.1719,69.5,1102.1719,65.5,1098.1719" style="stroke:#181818;stroke-width:1.0;"/><line style="stroke:#181818;stroke-width:1.0;" x1="63.5" x2="959.5" y1="1098.1719" y2="1098.1719"/><text fill="#000000" font-family="sans-serif" font-size="20" lengthAdjust="spacing" textLength="235" x="75.5" y="1091.4551">Send Verification Email</text><polygon fill="#181818" points="1114,1138.4531,1124,1142.4531,1114,1146.4531,1118,1142.4531" style="stroke:#181818;stroke-width:1.0;"/><line style="stroke:#181818;stroke-width:1.0;" x1="377.5" x2="1120" y1="1142.4531" y2="1142.4531"/><text fill="#000000" font-family="sans-serif" font-size="20" lengthAdjust="spacing" textLength="283" x="384.5" y="1135.7363">LogAsync(ProfileUpdateLog)</text><polygon fill="#181818" points="1565,1175.7344,1575,1179.7344,1565,1183.7344,1569,1179.7344" style="stroke:#181818;stroke-width:1.0;"/><line style="stroke:#181818;stroke-width:1.0;" x1="1136" x2="1571" y1="1179.7344" y2="1179.7344"/><text fill="#000000" font-family="sans-serif" font-size="20" lengthAdjust="spacing" textLength="234" x="1143" y="1173.0176">INSERT INTO AuditLogs</text><polygon fill="#181818" points="1142,1213.0156,1132,1217.0156,1142,1221.0156,1138,1217.0156" style="stroke:#181818;stroke-width:1.0;"/><line style="stroke:#181818;stroke-width:1.0;stroke-dasharray:2.0,2.0;" x1="1136" x2="1576" y1="1217.0156" y2="1217.0156"/><text fill="#000000" font-family="sans-serif" font-size="20" lengthAdjust="spacing" textLength="63" x="1148" y="1210.2988">Log ID</text><polygon fill="#181818" points="69.5,1250.2969,59.5,1254.2969,69.5,1258.2969,65.5,1254.2969" style="stroke:#181818;stroke-width:1.0;"/><line style="stroke:#181818;stroke-width:1.0;stroke-dasharray:2.0,2.0;" x1="63.5" x2="371.5" y1="1254.2969" y2="1254.2969"/><text fill="#000000" font-family="sans-serif" font-size="20" lengthAdjust="spacing" textLength="285" x="75.5" y="1247.5801">200 OK with Updated Profile</text><!--SRC=[jLF1Zjem5BpxAvwuT2iLWJXog0H9g6XfYPAmUzcB6x-m5Y5E7SEMVdtjsCuw5PTARIGK7C-RDs_6xawyQQcavrgK9sJ0iAANMcr4etB-2s4n9ugh6Y6bYcEZ89MYudfzQ1bL29jQlC8KTdZ56XQ4q589wS54CojUyfRgmedx66bgAUeQvGHe1sbq5vMZlF8IBIGVGv8pvNK8IFu0h2wCgvquXfZLBh_RACDMT5oBljbU6T5pqU-qGvZ4xb-_4wy9yIPCFshTIqWF1SneosUj_JvhhJdFpOErn-7ZOl_UECElnZ8zCKaZpv7yL59l3Vvku-Ucak8CdvyAACG9cm6TB-4JAWTStxRimVNTif0-9sdUuxCURu2hxjQK8JhD329UBo5FTabKm2RRV_KQEXAlOUeOeekKVUvEd_6aBtUAVDIcfxTbc9em37MHTn19D0jg4e9Q7A7InwLyeSqHEpUdJce9EZqhscSPJ6YYr3y_mVPRdcI5VXLxyEXX14-cVGt568h0rb5QxeI_sVK1c19ZX_-fnIDhFRDMzKXhtb-ooFipDBM2Hpt3ZeSqNXN9tMRvfIonwy88BHdxkoXfhQ2_Y4uT8w0VQscYINDiMB__Y99NlDH4eidmnmKxrKC7DdrxpJgnmzc6jXx2MjkjXmPITB46ahj7nmLfn_j_HoXKlPZFOVy5NhbwURFLoXWP697V]--></g></svg>