<?xml version="1.0" encoding="UTF-8" standalone="no"?><svg xmlns="http://www.w3.org/2000/svg" xmlns:xlink="http://www.w3.org/1999/xlink" contentStyleType="text/css" height="2145px" preserveAspectRatio="none" style="width:8444px;height:2145px;background:#FFFFFF;" version="1.1" viewBox="0 0 8444 2145" width="8444px" zoomAndPan="magnify"><defs/><g><text fill="#000000" font-family="sans-serif" font-size="14" font-weight="bold" lengthAdjust="spacing" textLength="225" x="4111.5" y="27.9951">Level 3 Diagram for US 7.2.7</text><rect fill="#FFFFFF" height="2003.625" style="stroke:#181818;stroke-width:1.0;" width="10" x="19.5" y="90.5781"/><rect fill="#FFFFFF" height="645.7813" style="stroke:#181818;stroke-width:1.0;" width="10" x="557.5" y="1439.4219"/><rect fill="#FFFFFF" height="571.2188" style="stroke:#181818;stroke-width:1.0;" width="10" x="984.5" y="1476.7031"/><rect fill="#FFFFFF" height="496.6563" style="stroke:#181818;stroke-width:1.0;" width="10" x="1580.5" y="1513.9844"/><rect fill="#FFFFFF" height="259.9688" style="stroke:#181818;stroke-width:1.0;" width="10" x="2219.5" y="1551.2656"/><rect fill="#FFFFFF" height="124.8438" style="stroke:#181818;stroke-width:1.0;" width="10" x="2508" y="1848.5156"/><rect fill="#FFFFFF" height="43.2813" style="stroke:#181818;stroke-width:1.0;" width="10" x="2890" y="1885.7969"/><rect fill="#FFFFFF" height="185.4063" style="stroke:#181818;stroke-width:1.0;" width="10" x="3194" y="1588.5469"/><rect fill="#FFFFFF" height="622.5" style="stroke:#181818;stroke-width:1.0;" width="10" x="3436" y="779.6406"/><rect fill="#FFFFFF" height="547.9375" style="stroke:#181818;stroke-width:1.0;" width="10" x="3738" y="816.9219"/><rect fill="#FFFFFF" height="473.375" style="stroke:#181818;stroke-width:1.0;" width="10" x="4040" y="854.2031"/><rect fill="#FFFFFF" height="236.6875" style="stroke:#181818;stroke-width:1.0;" width="10" x="4275" y="891.4844"/><rect fill="#FFFFFF" height="124.8438" style="stroke:#181818;stroke-width:1.0;" width="10" x="4600" y="1165.4531"/><rect fill="#FFFFFF" height="43.2813" style="stroke:#181818;stroke-width:1.0;" width="10" x="4833" y="1202.7344"/><rect fill="#FFFFFF" height="162.125" style="stroke:#181818;stroke-width:1.0;" width="10" x="4989" y="928.7656"/><rect fill="#FFFFFF" height="622.5" style="stroke:#181818;stroke-width:1.0;" width="10" x="5209" y="119.8594"/><rect fill="#FFFFFF" height="547.9375" style="stroke:#181818;stroke-width:1.0;" width="10" x="5615" y="157.1406"/><rect fill="#FFFFFF" height="473.375" style="stroke:#181818;stroke-width:1.0;" width="10" x="6021" y="194.4219"/><rect fill="#FFFFFF" height="236.6875" style="stroke:#181818;stroke-width:1.0;" width="10" x="6353" y="231.7031"/><rect fill="#FFFFFF" height="124.8438" style="stroke:#181818;stroke-width:1.0;" width="10" x="7005" y="505.6719"/><rect fill="#FFFFFF" height="162.125" style="stroke:#181818;stroke-width:1.0;" width="10" x="7264.5" y="268.9844"/><rect fill="#FFFFFF" height="43.2813" style="stroke:#181818;stroke-width:1.0;" width="10" x="7524.5" y="542.9531"/><rect fill="#FFFFFF" height="87.5625" style="stroke:#181818;stroke-width:1.0;" width="10" x="7704" y="306.2656"/><rect fill="#FFFFFF" height="87.5625" style="stroke:#181818;stroke-width:1.0;" width="10" x="7704" y="966.0469"/><rect fill="#FFFFFF" height="110.8438" style="stroke:#181818;stroke-width:1.0;" width="10" x="7704" y="1625.8281"/><line style="stroke:#181818;stroke-width:0.5;stroke-dasharray:5.0,5.0;" x1="24" x2="24" y1="80.5781" y2="2103.2031"/><line style="stroke:#181818;stroke-width:0.5;stroke-dasharray:5.0,5.0;" x1="562" x2="562" y1="80.5781" y2="2103.2031"/><line style="stroke:#181818;stroke-width:0.5;stroke-dasharray:5.0,5.0;" x1="989" x2="989" y1="80.5781" y2="2103.2031"/><line style="stroke:#181818;stroke-width:0.5;stroke-dasharray:5.0,5.0;" x1="1585" x2="1585" y1="80.5781" y2="2103.2031"/><line style="stroke:#181818;stroke-width:0.5;stroke-dasharray:5.0,5.0;" x1="2224" x2="2224" y1="80.5781" y2="2103.2031"/><line style="stroke:#181818;stroke-width:0.5;stroke-dasharray:5.0,5.0;" x1="2513" x2="2513" y1="80.5781" y2="2103.2031"/><line style="stroke:#181818;stroke-width:0.5;stroke-dasharray:5.0,5.0;" x1="2894.5" x2="2894.5" y1="80.5781" y2="2103.2031"/><line style="stroke:#181818;stroke-width:0.5;stroke-dasharray:5.0,5.0;" x1="3198.5" x2="3198.5" y1="80.5781" y2="2103.2031"/><line style="stroke:#181818;stroke-width:0.5;stroke-dasharray:5.0,5.0;" x1="3440.5" x2="3440.5" y1="80.5781" y2="2103.2031"/><line style="stroke:#181818;stroke-width:0.5;stroke-dasharray:5.0,5.0;" x1="3742.5" x2="3742.5" y1="80.5781" y2="2103.2031"/><line style="stroke:#181818;stroke-width:0.5;stroke-dasharray:5.0,5.0;" x1="4044.5" x2="4044.5" y1="80.5781" y2="2103.2031"/><line style="stroke:#181818;stroke-width:0.5;stroke-dasharray:5.0,5.0;" x1="4279.5" x2="4279.5" y1="80.5781" y2="2103.2031"/><line style="stroke:#181818;stroke-width:0.5;stroke-dasharray:5.0,5.0;" x1="4605" x2="4605" y1="80.5781" y2="2103.2031"/><line style="stroke:#181818;stroke-width:0.5;stroke-dasharray:5.0,5.0;" x1="4837.5" x2="4837.5" y1="80.5781" y2="2103.2031"/><line style="stroke:#181818;stroke-width:0.5;stroke-dasharray:5.0,5.0;" x1="4993.5" x2="4993.5" y1="80.5781" y2="2103.2031"/><line style="stroke:#181818;stroke-width:0.5;stroke-dasharray:5.0,5.0;" x1="5213.5" x2="5213.5" y1="80.5781" y2="2103.2031"/><line style="stroke:#181818;stroke-width:0.5;stroke-dasharray:5.0,5.0;" x1="5619.5" x2="5619.5" y1="80.5781" y2="2103.2031"/><line style="stroke:#181818;stroke-width:0.5;stroke-dasharray:5.0,5.0;" x1="6025.5" x2="6025.5" y1="80.5781" y2="2103.2031"/><line style="stroke:#181818;stroke-width:0.5;stroke-dasharray:5.0,5.0;" x1="6357.5" x2="6357.5" y1="80.5781" y2="2103.2031"/><line style="stroke:#181818;stroke-width:0.5;stroke-dasharray:5.0,5.0;" x1="7010" x2="7010" y1="80.5781" y2="2103.2031"/><line style="stroke:#181818;stroke-width:0.5;stroke-dasharray:5.0,5.0;" x1="7269" x2="7269" y1="80.5781" y2="2103.2031"/><line style="stroke:#181818;stroke-width:0.5;stroke-dasharray:5.0,5.0;" x1="7529" x2="7529" y1="80.5781" y2="2103.2031"/><line style="stroke:#181818;stroke-width:0.5;stroke-dasharray:5.0,5.0;" x1="7709" x2="7709" y1="80.5781" y2="2103.2031"/><rect fill="#E2E2F0" height="37.2813" rx="2.5" ry="2.5" style="stroke:#181818;stroke-width:0.5;" width="39" x="5" y="42.2969"/><text fill="#000000" font-family="sans-serif" font-size="20" lengthAdjust="spacing" textLength="25" x="12" y="67.8613">FE</text><rect fill="#E2E2F0" height="37.2813" rx="2.5" ry="2.5" style="stroke:#181818;stroke-width:0.5;" width="39" x="5" y="2102.2031"/><text fill="#000000" font-family="sans-serif" font-size="20" lengthAdjust="spacing" textLength="25" x="12" y="2127.7676">FE</text><rect fill="#E2E2F0" height="37.2813" rx="2.5" ry="2.5" style="stroke:#181818;stroke-width:0.5;" width="299" x="413" y="42.2969"/><text fill="#000000" font-family="sans-serif" font-size="20" lengthAdjust="spacing" textLength="285" x="420" y="67.8613">PatientMedicalHistoryRouter</text><rect fill="#E2E2F0" height="37.2813" rx="2.5" ry="2.5" style="stroke:#181818;stroke-width:0.5;" width="299" x="413" y="2102.2031"/><text fill="#000000" font-family="sans-serif" font-size="20" lengthAdjust="spacing" textLength="285" x="420" y="2127.7676">PatientMedicalHistoryRouter</text><rect fill="#E2E2F0" height="37.2813" rx="2.5" ry="2.5" style="stroke:#181818;stroke-width:0.5;" width="331" x="824" y="42.2969"/><text fill="#000000" font-family="sans-serif" font-size="20" lengthAdjust="spacing" textLength="317" x="831" y="67.8613">PatientMedicalHistoryController</text><rect fill="#E2E2F0" height="37.2813" rx="2.5" ry="2.5" style="stroke:#181818;stroke-width:0.5;" width="331" x="824" y="2102.2031"/><text fill="#000000" font-family="sans-serif" font-size="20" lengthAdjust="spacing" textLength="317" x="831" y="2127.7676">PatientMedicalHistoryController</text><rect fill="#E2E2F0" height="37.2813" rx="2.5" ry="2.5" style="stroke:#181818;stroke-width:0.5;" width="305" x="1433" y="42.2969"/><text fill="#000000" font-family="sans-serif" font-size="20" lengthAdjust="spacing" textLength="291" x="1440" y="67.8613">PatientMedicalHistoryService</text><rect fill="#E2E2F0" height="37.2813" rx="2.5" ry="2.5" style="stroke:#181818;stroke-width:0.5;" width="305" x="1433" y="2102.2031"/><text fill="#000000" font-family="sans-serif" font-size="20" lengthAdjust="spacing" textLength="291" x="1440" y="2127.7676">PatientMedicalHistoryService</text><rect fill="#E2E2F0" height="37.2813" rx="2.5" ry="2.5" style="stroke:#181818;stroke-width:0.5;" width="283" x="2083" y="42.2969"/><text fill="#000000" font-family="sans-serif" font-size="20" lengthAdjust="spacing" textLength="269" x="2090" y="67.8613">PatientMedicalHistoryRepo</text><rect fill="#E2E2F0" height="37.2813" rx="2.5" ry="2.5" style="stroke:#181818;stroke-width:0.5;" width="283" x="2083" y="2102.2031"/><text fill="#000000" font-family="sans-serif" font-size="20" lengthAdjust="spacing" textLength="269" x="2090" y="2127.7676">PatientMedicalHistoryRepo</text><rect fill="#E2E2F0" height="37.2813" rx="2.5" ry="2.5" style="stroke:#181818;stroke-width:0.5;" width="274" x="2376" y="42.2969"/><text fill="#000000" font-family="sans-serif" font-size="20" lengthAdjust="spacing" textLength="260" x="2383" y="67.8613">PatientMedicalHistoryMap</text><rect fill="#E2E2F0" height="37.2813" rx="2.5" ry="2.5" style="stroke:#181818;stroke-width:0.5;" width="274" x="2376" y="2102.2031"/><text fill="#000000" font-family="sans-serif" font-size="20" lengthAdjust="spacing" textLength="260" x="2383" y="2127.7676">PatientMedicalHistoryMap</text><rect fill="#E2E2F0" height="37.2813" rx="2.5" ry="2.5" style="stroke:#181818;stroke-width:0.5;" width="275" x="2757.5" y="42.2969"/><text fill="#000000" font-family="sans-serif" font-size="20" lengthAdjust="spacing" textLength="261" x="2764.5" y="67.8613">PatientMedicalHistoryDTO</text><rect fill="#E2E2F0" height="37.2813" rx="2.5" ry="2.5" style="stroke:#181818;stroke-width:0.5;" width="275" x="2757.5" y="2102.2031"/><text fill="#000000" font-family="sans-serif" font-size="20" lengthAdjust="spacing" textLength="261" x="2764.5" y="2127.7676">PatientMedicalHistoryDTO</text><rect fill="#E2E2F0" height="37.2813" rx="2.5" ry="2.5" style="stroke:#181818;stroke-width:0.5;" width="313" x="3042.5" y="42.2969"/><text fill="#000000" font-family="sans-serif" font-size="20" lengthAdjust="spacing" textLength="299" x="3049.5" y="67.8613">PatientMedicalHistorySchema</text><rect fill="#E2E2F0" height="37.2813" rx="2.5" ry="2.5" style="stroke:#181818;stroke-width:0.5;" width="313" x="3042.5" y="2102.2031"/><text fill="#000000" font-family="sans-serif" font-size="20" lengthAdjust="spacing" textLength="299" x="3049.5" y="2127.7676">PatientMedicalHistorySchema</text><rect fill="#E2E2F0" height="37.2813" rx="2.5" ry="2.5" style="stroke:#181818;stroke-width:0.5;" width="151" x="3365.5" y="42.2969"/><text fill="#000000" font-family="sans-serif" font-size="20" lengthAdjust="spacing" textLength="137" x="3372.5" y="67.8613">AllergyRouter</text><rect fill="#E2E2F0" height="37.2813" rx="2.5" ry="2.5" style="stroke:#181818;stroke-width:0.5;" width="151" x="3365.5" y="2102.2031"/><text fill="#000000" font-family="sans-serif" font-size="20" lengthAdjust="spacing" textLength="137" x="3372.5" y="2127.7676">AllergyRouter</text><rect fill="#E2E2F0" height="37.2813" rx="2.5" ry="2.5" style="stroke:#181818;stroke-width:0.5;" width="183" x="3651.5" y="42.2969"/><text fill="#000000" font-family="sans-serif" font-size="20" lengthAdjust="spacing" textLength="169" x="3658.5" y="67.8613">AllergyController</text><rect fill="#E2E2F0" height="37.2813" rx="2.5" ry="2.5" style="stroke:#181818;stroke-width:0.5;" width="183" x="3651.5" y="2102.2031"/><text fill="#000000" font-family="sans-serif" font-size="20" lengthAdjust="spacing" textLength="169" x="3658.5" y="2127.7676">AllergyController</text><rect fill="#E2E2F0" height="37.2813" rx="2.5" ry="2.5" style="stroke:#181818;stroke-width:0.5;" width="157" x="3966.5" y="42.2969"/><text fill="#000000" font-family="sans-serif" font-size="20" lengthAdjust="spacing" textLength="143" x="3973.5" y="67.8613">AllergyService</text><rect fill="#E2E2F0" height="37.2813" rx="2.5" ry="2.5" style="stroke:#181818;stroke-width:0.5;" width="157" x="3966.5" y="2102.2031"/><text fill="#000000" font-family="sans-serif" font-size="20" lengthAdjust="spacing" textLength="143" x="3973.5" y="2127.7676">AllergyService</text><rect fill="#E2E2F0" height="37.2813" rx="2.5" ry="2.5" style="stroke:#181818;stroke-width:0.5;" width="135" x="4212.5" y="42.2969"/><text fill="#000000" font-family="sans-serif" font-size="20" lengthAdjust="spacing" textLength="121" x="4219.5" y="67.8613">AllergyRepo</text><rect fill="#E2E2F0" height="37.2813" rx="2.5" ry="2.5" style="stroke:#181818;stroke-width:0.5;" width="135" x="4212.5" y="2102.2031"/><text fill="#000000" font-family="sans-serif" font-size="20" lengthAdjust="spacing" textLength="121" x="4219.5" y="2127.7676">AllergyRepo</text><rect fill="#E2E2F0" height="37.2813" rx="2.5" ry="2.5" style="stroke:#181818;stroke-width:0.5;" width="126" x="4542" y="42.2969"/><text fill="#000000" font-family="sans-serif" font-size="20" lengthAdjust="spacing" textLength="112" x="4549" y="67.8613">AllergyMap</text><rect fill="#E2E2F0" height="37.2813" rx="2.5" ry="2.5" style="stroke:#181818;stroke-width:0.5;" width="126" x="4542" y="2102.2031"/><text fill="#000000" font-family="sans-serif" font-size="20" lengthAdjust="spacing" textLength="112" x="4549" y="2127.7676">AllergyMap</text><rect fill="#E2E2F0" height="37.2813" rx="2.5" ry="2.5" style="stroke:#181818;stroke-width:0.5;" width="127" x="4774.5" y="42.2969"/><text fill="#000000" font-family="sans-serif" font-size="20" lengthAdjust="spacing" textLength="113" x="4781.5" y="67.8613">AllergyDTO</text><rect fill="#E2E2F0" height="37.2813" rx="2.5" ry="2.5" style="stroke:#181818;stroke-width:0.5;" width="127" x="4774.5" y="2102.2031"/><text fill="#000000" font-family="sans-serif" font-size="20" lengthAdjust="spacing" textLength="113" x="4781.5" y="2127.7676">AllergyDTO</text><rect fill="#E2E2F0" height="37.2813" rx="2.5" ry="2.5" style="stroke:#181818;stroke-width:0.5;" width="165" x="4911.5" y="42.2969"/><text fill="#000000" font-family="sans-serif" font-size="20" lengthAdjust="spacing" textLength="151" x="4918.5" y="67.8613">AllergySchema</text><rect fill="#E2E2F0" height="37.2813" rx="2.5" ry="2.5" style="stroke:#181818;stroke-width:0.5;" width="165" x="4911.5" y="2102.2031"/><text fill="#000000" font-family="sans-serif" font-size="20" lengthAdjust="spacing" textLength="151" x="4918.5" y="2127.7676">AllergySchema</text><rect fill="#E2E2F0" height="37.2813" rx="2.5" ry="2.5" style="stroke:#181818;stroke-width:0.5;" width="255" x="5086.5" y="42.2969"/><text fill="#000000" font-family="sans-serif" font-size="20" lengthAdjust="spacing" textLength="241" x="5093.5" y="67.8613">MedicalConditionRouter</text><rect fill="#E2E2F0" height="37.2813" rx="2.5" ry="2.5" style="stroke:#181818;stroke-width:0.5;" width="255" x="5086.5" y="2102.2031"/><text fill="#000000" font-family="sans-serif" font-size="20" lengthAdjust="spacing" textLength="241" x="5093.5" y="2127.7676">MedicalConditionRouter</text><rect fill="#E2E2F0" height="37.2813" rx="2.5" ry="2.5" style="stroke:#181818;stroke-width:0.5;" width="287" x="5476.5" y="42.2969"/><text fill="#000000" font-family="sans-serif" font-size="20" lengthAdjust="spacing" textLength="273" x="5483.5" y="67.8613">MedicalConditionController</text><rect fill="#E2E2F0" height="37.2813" rx="2.5" ry="2.5" style="stroke:#181818;stroke-width:0.5;" width="287" x="5476.5" y="2102.2031"/><text fill="#000000" font-family="sans-serif" font-size="20" lengthAdjust="spacing" textLength="273" x="5483.5" y="2127.7676">MedicalConditionController</text><rect fill="#E2E2F0" height="37.2813" rx="2.5" ry="2.5" style="stroke:#181818;stroke-width:0.5;" width="261" x="5895.5" y="42.2969"/><text fill="#000000" font-family="sans-serif" font-size="20" lengthAdjust="spacing" textLength="247" x="5902.5" y="67.8613">MedicalConditionService</text><rect fill="#E2E2F0" height="37.2813" rx="2.5" ry="2.5" style="stroke:#181818;stroke-width:0.5;" width="261" x="5895.5" y="2102.2031"/><text fill="#000000" font-family="sans-serif" font-size="20" lengthAdjust="spacing" textLength="247" x="5902.5" y="2127.7676">MedicalConditionService</text><rect fill="#E2E2F0" height="37.2813" rx="2.5" ry="2.5" style="stroke:#181818;stroke-width:0.5;" width="239" x="6238.5" y="42.2969"/><text fill="#000000" font-family="sans-serif" font-size="20" lengthAdjust="spacing" textLength="225" x="6245.5" y="67.8613">MedicalConditionRepo</text><rect fill="#E2E2F0" height="37.2813" rx="2.5" ry="2.5" style="stroke:#181818;stroke-width:0.5;" width="239" x="6238.5" y="2102.2031"/><text fill="#000000" font-family="sans-serif" font-size="20" lengthAdjust="spacing" textLength="225" x="6245.5" y="2127.7676">MedicalConditionRepo</text><rect fill="#E2E2F0" height="37.2813" rx="2.5" ry="2.5" style="stroke:#181818;stroke-width:0.5;" width="230" x="6895" y="42.2969"/><text fill="#000000" font-family="sans-serif" font-size="20" lengthAdjust="spacing" textLength="216" x="6902" y="67.8613">MedicalConditionMap</text><rect fill="#E2E2F0" height="37.2813" rx="2.5" ry="2.5" style="stroke:#181818;stroke-width:0.5;" width="230" x="6895" y="2102.2031"/><text fill="#000000" font-family="sans-serif" font-size="20" lengthAdjust="spacing" textLength="216" x="6902" y="2127.7676">MedicalConditionMap</text><rect fill="#E2E2F0" height="37.2813" rx="2.5" ry="2.5" style="stroke:#181818;stroke-width:0.5;" width="269" x="7135" y="42.2969"/><text fill="#000000" font-family="sans-serif" font-size="20" lengthAdjust="spacing" textLength="255" x="7142" y="67.8613">MedicalConditionSchema</text><rect fill="#E2E2F0" height="37.2813" rx="2.5" ry="2.5" style="stroke:#181818;stroke-width:0.5;" width="269" x="7135" y="2102.2031"/><text fill="#000000" font-family="sans-serif" font-size="20" lengthAdjust="spacing" textLength="255" x="7142" y="2127.7676">MedicalConditionSchema</text><rect fill="#E2E2F0" height="37.2813" rx="2.5" ry="2.5" style="stroke:#181818;stroke-width:0.5;" width="231" x="7414" y="42.2969"/><text fill="#000000" font-family="sans-serif" font-size="20" lengthAdjust="spacing" textLength="217" x="7421" y="67.8613">MedicalConditionDTO</text><rect fill="#E2E2F0" height="37.2813" rx="2.5" ry="2.5" style="stroke:#181818;stroke-width:0.5;" width="231" x="7414" y="2102.2031"/><text fill="#000000" font-family="sans-serif" font-size="20" lengthAdjust="spacing" textLength="217" x="7421" y="2127.7676">MedicalConditionDTO</text><rect fill="#E2E2F0" height="37.2813" rx="2.5" ry="2.5" style="stroke:#181818;stroke-width:0.5;" width="108" x="7655" y="42.2969"/><text fill="#000000" font-family="sans-serif" font-size="20" lengthAdjust="spacing" textLength="94" x="7662" y="67.8613">Database</text><rect fill="#E2E2F0" height="37.2813" rx="2.5" ry="2.5" style="stroke:#181818;stroke-width:0.5;" width="108" x="7655" y="2102.2031"/><text fill="#000000" font-family="sans-serif" font-size="20" lengthAdjust="spacing" textLength="94" x="7662" y="2127.7676">Database</text><rect fill="#FFFFFF" height="2003.625" style="stroke:#181818;stroke-width:1.0;" width="10" x="19.5" y="90.5781"/><rect fill="#FFFFFF" height="645.7813" style="stroke:#181818;stroke-width:1.0;" width="10" x="557.5" y="1439.4219"/><rect fill="#FFFFFF" height="571.2188" style="stroke:#181818;stroke-width:1.0;" width="10" x="984.5" y="1476.7031"/><rect fill="#FFFFFF" height="496.6563" style="stroke:#181818;stroke-width:1.0;" width="10" x="1580.5" y="1513.9844"/><rect fill="#FFFFFF" height="259.9688" style="stroke:#181818;stroke-width:1.0;" width="10" x="2219.5" y="1551.2656"/><rect fill="#FFFFFF" height="124.8438" style="stroke:#181818;stroke-width:1.0;" width="10" x="2508" y="1848.5156"/><rect fill="#FFFFFF" height="43.2813" style="stroke:#181818;stroke-width:1.0;" width="10" x="2890" y="1885.7969"/><rect fill="#FFFFFF" height="185.4063" style="stroke:#181818;stroke-width:1.0;" width="10" x="3194" y="1588.5469"/><rect fill="#FFFFFF" height="622.5" style="stroke:#181818;stroke-width:1.0;" width="10" x="3436" y="779.6406"/><rect fill="#FFFFFF" height="547.9375" style="stroke:#181818;stroke-width:1.0;" width="10" x="3738" y="816.9219"/><rect fill="#FFFFFF" height="473.375" style="stroke:#181818;stroke-width:1.0;" width="10" x="4040" y="854.2031"/><rect fill="#FFFFFF" height="236.6875" style="stroke:#181818;stroke-width:1.0;" width="10" x="4275" y="891.4844"/><rect fill="#FFFFFF" height="124.8438" style="stroke:#181818;stroke-width:1.0;" width="10" x="4600" y="1165.4531"/><rect fill="#FFFFFF" height="43.2813" style="stroke:#181818;stroke-width:1.0;" width="10" x="4833" y="1202.7344"/><rect fill="#FFFFFF" height="162.125" style="stroke:#181818;stroke-width:1.0;" width="10" x="4989" y="928.7656"/><rect fill="#FFFFFF" height="622.5" style="stroke:#181818;stroke-width:1.0;" width="10" x="5209" y="119.8594"/><rect fill="#FFFFFF" height="547.9375" style="stroke:#181818;stroke-width:1.0;" width="10" x="5615" y="157.1406"/><rect fill="#FFFFFF" height="473.375" style="stroke:#181818;stroke-width:1.0;" width="10" x="6021" y="194.4219"/><rect fill="#FFFFFF" height="236.6875" style="stroke:#181818;stroke-width:1.0;" width="10" x="6353" y="231.7031"/><rect fill="#FFFFFF" height="124.8438" style="stroke:#181818;stroke-width:1.0;" width="10" x="7005" y="505.6719"/><rect fill="#FFFFFF" height="162.125" style="stroke:#181818;stroke-width:1.0;" width="10" x="7264.5" y="268.9844"/><rect fill="#FFFFFF" height="43.2813" style="stroke:#181818;stroke-width:1.0;" width="10" x="7524.5" y="542.9531"/><rect fill="#FFFFFF" height="87.5625" style="stroke:#181818;stroke-width:1.0;" width="10" x="7704" y="306.2656"/><rect fill="#FFFFFF" height="87.5625" style="stroke:#181818;stroke-width:1.0;" width="10" x="7704" y="966.0469"/><rect fill="#FFFFFF" height="110.8438" style="stroke:#181818;stroke-width:1.0;" width="10" x="7704" y="1625.8281"/><polygon fill="#000000" points="5197,115.8594,5207,119.8594,5197,123.8594,5201,119.8594" style="stroke:#000000;stroke-width:1.0;"/><line style="stroke:#000000;stroke-width:1.0;" x1="29.5" x2="5203" y1="119.8594" y2="119.8594"/><text fill="#000000" font-family="sans-serif" font-size="20" lengthAdjust="spacing" textLength="492" x="36.5" y="113.1426">Makes Http Request to get all Medical Conditions</text><polygon fill="#000000" points="5603,153.1406,5613,157.1406,5603,161.1406,5607,157.1406" style="stroke:#000000;stroke-width:1.0;"/><line style="stroke:#000000;stroke-width:1.0;" x1="5219" x2="5609" y1="157.1406" y2="157.1406"/><text fill="#000000" font-family="sans-serif" font-size="20" lengthAdjust="spacing" textLength="361" x="5226" y="150.4238">listMedicalConditions(req, res, next)</text><polygon fill="#000000" points="6009,190.4219,6019,194.4219,6009,198.4219,6013,194.4219" style="stroke:#000000;stroke-width:1.0;"/><line style="stroke:#000000;stroke-width:1.0;" x1="5625" x2="6015" y1="194.4219" y2="194.4219"/><text fill="#000000" font-family="sans-serif" font-size="20" lengthAdjust="spacing" textLength="230" x="5632" y="187.7051">listMedicalConditions()</text><polygon fill="#000000" points="6341,227.7031,6351,231.7031,6341,235.7031,6345,231.7031" style="stroke:#000000;stroke-width:1.0;"/><line style="stroke:#000000;stroke-width:1.0;" x1="6031" x2="6347" y1="231.7031" y2="231.7031"/><text fill="#000000" font-family="sans-serif" font-size="20" lengthAdjust="spacing" textLength="79" x="6038" y="224.9863">findall()</text><polygon fill="#000000" points="7252.5,264.9844,7262.5,268.9844,7252.5,272.9844,7256.5,268.9844" style="stroke:#000000;stroke-width:1.0;"/><line style="stroke:#000000;stroke-width:1.0;" x1="6363" x2="7258.5" y1="268.9844" y2="268.9844"/><text fill="#000000" font-family="sans-serif" font-size="20" lengthAdjust="spacing" textLength="55" x="6370" y="262.2676">find()</text><polygon fill="#000000" points="7692,302.2656,7702,306.2656,7692,310.2656,7696,306.2656" style="stroke:#000000;stroke-width:1.0;"/><line style="stroke:#000000;stroke-width:1.0;" x1="7274.5" x2="7698" y1="306.2656" y2="306.2656"/><text fill="#000000" font-family="sans-serif" font-size="20" lengthAdjust="spacing" textLength="73" x="7281.5" y="299.5488">query()</text><line style="stroke:#000000;stroke-width:1.0;" x1="7714" x2="7756" y1="343.5469" y2="343.5469"/><line style="stroke:#000000;stroke-width:1.0;" x1="7756" x2="7756" y1="343.5469" y2="356.5469"/><line style="stroke:#000000;stroke-width:1.0;" x1="7715" x2="7756" y1="356.5469" y2="356.5469"/><polygon fill="#000000" points="7725,352.5469,7715,356.5469,7725,360.5469,7721,356.5469" style="stroke:#000000;stroke-width:1.0;"/><text fill="#000000" font-family="sans-serif" font-size="20" lengthAdjust="spacing" textLength="337" x="7721" y="336.8301">SELECT * FROM MedicalCondition</text><polygon fill="#000000" points="7285.5,389.8281,7275.5,393.8281,7285.5,397.8281,7281.5,393.8281" style="stroke:#000000;stroke-width:1.0;"/><line style="stroke:#000000;stroke-width:1.0;stroke-dasharray:2.0,2.0;" x1="7279.5" x2="7708" y1="393.8281" y2="393.8281"/><text fill="#000000" font-family="sans-serif" font-size="20" lengthAdjust="spacing" textLength="298" x="7291.5" y="387.1113">Returns all MedicalConditions</text><polygon fill="#000000" points="6374,427.1094,6364,431.1094,6374,435.1094,6370,431.1094" style="stroke:#000000;stroke-width:1.0;"/><line style="stroke:#000000;stroke-width:1.0;stroke-dasharray:2.0,2.0;" x1="6368" x2="7268.5" y1="431.1094" y2="431.1094"/><text fill="#000000" font-family="sans-serif" font-size="20" lengthAdjust="spacing" textLength="298" x="6380" y="424.3926">Returns all MedicalConditions</text><polygon fill="#000000" points="6042,464.3906,6032,468.3906,6042,472.3906,6038,468.3906" style="stroke:#000000;stroke-width:1.0;"/><line style="stroke:#000000;stroke-width:1.0;stroke-dasharray:2.0,2.0;" x1="6036" x2="6357" y1="468.3906" y2="468.3906"/><text fill="#000000" font-family="sans-serif" font-size="20" lengthAdjust="spacing" textLength="298" x="6048" y="461.6738">Returns all MedicalConditions</text><polygon fill="#000000" points="6993,501.6719,7003,505.6719,6993,509.6719,6997,505.6719" style="stroke:#000000;stroke-width:1.0;"/><line style="stroke:#000000;stroke-width:1.0;" x1="6031" x2="6999" y1="505.6719" y2="505.6719"/><text fill="#000000" font-family="sans-serif" font-size="20" lengthAdjust="spacing" textLength="955" x="6038" y="498.9551">medicalConditions.map(medicalCondition =&gt; MedicalConditionMap.toDTO(medicalCondition))</text><polygon fill="#000000" points="7512.5,538.9531,7522.5,542.9531,7512.5,546.9531,7516.5,542.9531" style="stroke:#000000;stroke-width:1.0;"/><line style="stroke:#000000;stroke-width:1.0;" x1="7015" x2="7518.5" y1="542.9531" y2="542.9531"/><text fill="#000000" font-family="sans-serif" font-size="20" lengthAdjust="spacing" textLength="308" x="7022" y="536.2363">create(MedicalConditionProps)</text><line style="stroke:#000000;stroke-width:1.0;" x1="7534.5" x2="7576.5" y1="585.2344" y2="585.2344"/><line style="stroke:#000000;stroke-width:1.0;" x1="7576.5" x2="7576.5" y1="585.2344" y2="598.2344"/><line style="stroke:#000000;stroke-width:1.0;" x1="7529.5" x2="7576.5" y1="598.2344" y2="598.2344"/><polygon fill="#000000" points="7539.5,594.2344,7529.5,598.2344,7539.5,602.2344,7535.5,598.2344" style="stroke:#000000;stroke-width:1.0;"/><text fill="#000000" font-family="sans-serif" font-size="20" lengthAdjust="spacing" textLength="79" x="7541.5" y="578.5176">create()</text><polygon fill="#000000" points="6042,626.5156,6032,630.5156,6042,634.5156,6038,630.5156" style="stroke:#000000;stroke-width:1.0;"/><line style="stroke:#000000;stroke-width:1.0;stroke-dasharray:2.0,2.0;" x1="6036" x2="7009" y1="630.5156" y2="630.5156"/><text fill="#000000" font-family="sans-serif" font-size="20" lengthAdjust="spacing" textLength="375" x="6048" y="623.7988">Returns list of medicalConditionDTOs</text><polygon fill="#000000" points="5636,663.7969,5626,667.7969,5636,671.7969,5632,667.7969" style="stroke:#000000;stroke-width:1.0;"/><line style="stroke:#000000;stroke-width:1.0;stroke-dasharray:2.0,2.0;" x1="5630" x2="6025" y1="667.7969" y2="667.7969"/><text fill="#000000" font-family="sans-serif" font-size="20" lengthAdjust="spacing" textLength="372" x="5642" y="661.0801">Returns list of MedicalConditionDTOs</text><polygon fill="#000000" points="5230,701.0781,5220,705.0781,5230,709.0781,5226,705.0781" style="stroke:#000000;stroke-width:1.0;"/><line style="stroke:#000000;stroke-width:1.0;stroke-dasharray:2.0,2.0;" x1="5224" x2="5619" y1="705.0781" y2="705.0781"/><text fill="#000000" font-family="sans-serif" font-size="20" lengthAdjust="spacing" textLength="372" x="5236" y="698.3613">Returns list of MedicalConditionDTOs</text><polygon fill="#000000" points="40.5,738.3594,30.5,742.3594,40.5,746.3594,36.5,742.3594" style="stroke:#000000;stroke-width:1.0;"/><line style="stroke:#000000;stroke-width:1.0;stroke-dasharray:2.0,2.0;" x1="34.5" x2="5213" y1="742.3594" y2="742.3594"/><text fill="#000000" font-family="sans-serif" font-size="20" lengthAdjust="spacing" textLength="372" x="46.5" y="735.6426">Returns list of MedicalConditionDTOs</text><polygon fill="#000000" points="3424,775.6406,3434,779.6406,3424,783.6406,3428,779.6406" style="stroke:#000000;stroke-width:1.0;"/><line style="stroke:#000000;stroke-width:1.0;" x1="29.5" x2="3430" y1="779.6406" y2="779.6406"/><text fill="#000000" font-family="sans-serif" font-size="20" lengthAdjust="spacing" textLength="389" x="36.5" y="772.9238">Makes Http Request to get all Allergies</text><polygon fill="#000000" points="3726,812.9219,3736,816.9219,3726,820.9219,3730,816.9219" style="stroke:#000000;stroke-width:1.0;"/><line style="stroke:#000000;stroke-width:1.0;" x1="3446" x2="3732" y1="816.9219" y2="816.9219"/><text fill="#000000" font-family="sans-serif" font-size="20" lengthAdjust="spacing" textLength="264" x="3453" y="810.2051">listAllergies(req, res, next)</text><polygon fill="#000000" points="4028,850.2031,4038,854.2031,4028,858.2031,4032,854.2031" style="stroke:#000000;stroke-width:1.0;"/><line style="stroke:#000000;stroke-width:1.0;" x1="3748" x2="4034" y1="854.2031" y2="854.2031"/><text fill="#000000" font-family="sans-serif" font-size="20" lengthAdjust="spacing" textLength="126" x="3755" y="847.4863">listAllergys()</text><polygon fill="#000000" points="4263,887.4844,4273,891.4844,4263,895.4844,4267,891.4844" style="stroke:#000000;stroke-width:1.0;"/><line style="stroke:#000000;stroke-width:1.0;" x1="4050" x2="4269" y1="891.4844" y2="891.4844"/><text fill="#000000" font-family="sans-serif" font-size="20" lengthAdjust="spacing" textLength="79" x="4057" y="884.7676">findall()</text><polygon fill="#000000" points="4977,924.7656,4987,928.7656,4977,932.7656,4981,928.7656" style="stroke:#000000;stroke-width:1.0;"/><line style="stroke:#000000;stroke-width:1.0;" x1="4285" x2="4983" y1="928.7656" y2="928.7656"/><text fill="#000000" font-family="sans-serif" font-size="20" lengthAdjust="spacing" textLength="55" x="4292" y="922.0488">find()</text><polygon fill="#000000" points="7692,962.0469,7702,966.0469,7692,970.0469,7696,966.0469" style="stroke:#000000;stroke-width:1.0;"/><line style="stroke:#000000;stroke-width:1.0;" x1="4999" x2="7698" y1="966.0469" y2="966.0469"/><text fill="#000000" font-family="sans-serif" font-size="20" lengthAdjust="spacing" textLength="73" x="5006" y="959.3301">query()</text><line style="stroke:#000000;stroke-width:1.0;" x1="7714" x2="7756" y1="1003.3281" y2="1003.3281"/><line style="stroke:#000000;stroke-width:1.0;" x1="7756" x2="7756" y1="1003.3281" y2="1016.3281"/><line style="stroke:#000000;stroke-width:1.0;" x1="7715" x2="7756" y1="1016.3281" y2="1016.3281"/><polygon fill="#000000" points="7725,1012.3281,7715,1016.3281,7725,1020.3281,7721,1016.3281" style="stroke:#000000;stroke-width:1.0;"/><text fill="#000000" font-family="sans-serif" font-size="20" lengthAdjust="spacing" textLength="233" x="7721" y="996.6113">SELECT * FROM Allergy</text><polygon fill="#000000" points="5010,1049.6094,5000,1053.6094,5010,1057.6094,5006,1053.6094" style="stroke:#000000;stroke-width:1.0;"/><line style="stroke:#000000;stroke-width:1.0;stroke-dasharray:2.0,2.0;" x1="5004" x2="7708" y1="1053.6094" y2="1053.6094"/><text fill="#000000" font-family="sans-serif" font-size="20" lengthAdjust="spacing" textLength="201" x="5016" y="1046.8926">Returns all Allergies</text><polygon fill="#000000" points="4296,1086.8906,4286,1090.8906,4296,1094.8906,4292,1090.8906" style="stroke:#000000;stroke-width:1.0;"/><line style="stroke:#000000;stroke-width:1.0;stroke-dasharray:2.0,2.0;" x1="4290" x2="4993" y1="1090.8906" y2="1090.8906"/><text fill="#000000" font-family="sans-serif" font-size="20" lengthAdjust="spacing" textLength="201" x="4302" y="1084.1738">Returns all Allergies</text><polygon fill="#000000" points="4061,1124.1719,4051,1128.1719,4061,1132.1719,4057,1128.1719" style="stroke:#000000;stroke-width:1.0;"/><line style="stroke:#000000;stroke-width:1.0;stroke-dasharray:2.0,2.0;" x1="4055" x2="4279" y1="1128.1719" y2="1128.1719"/><text fill="#000000" font-family="sans-serif" font-size="20" lengthAdjust="spacing" textLength="201" x="4067" y="1121.4551">Returns all Allergies</text><polygon fill="#000000" points="4588,1161.4531,4598,1165.4531,4588,1169.4531,4592,1165.4531" style="stroke:#000000;stroke-width:1.0;"/><line style="stroke:#000000;stroke-width:1.0;" x1="4050" x2="4594" y1="1165.4531" y2="1165.4531"/><text fill="#000000" font-family="sans-serif" font-size="20" lengthAdjust="spacing" textLength="531" x="4057" y="1158.7363">allergies.map(allergy =&gt; AllergyMap.toDTO(allergy))</text><polygon fill="#000000" points="4821,1198.7344,4831,1202.7344,4821,1206.7344,4825,1202.7344" style="stroke:#000000;stroke-width:1.0;"/><line style="stroke:#000000;stroke-width:1.0;" x1="4610" x2="4827" y1="1202.7344" y2="1202.7344"/><text fill="#000000" font-family="sans-serif" font-size="20" lengthAdjust="spacing" textLength="204" x="4617" y="1196.0176">create(AllergyProps)</text><line style="stroke:#000000;stroke-width:1.0;" x1="4843" x2="4885" y1="1245.0156" y2="1245.0156"/><line style="stroke:#000000;stroke-width:1.0;" x1="4885" x2="4885" y1="1245.0156" y2="1258.0156"/><line style="stroke:#000000;stroke-width:1.0;" x1="4838" x2="4885" y1="1258.0156" y2="1258.0156"/><polygon fill="#000000" points="4848,1254.0156,4838,1258.0156,4848,1262.0156,4844,1258.0156" style="stroke:#000000;stroke-width:1.0;"/><text fill="#000000" font-family="sans-serif" font-size="20" lengthAdjust="spacing" textLength="79" x="4850" y="1238.2988">create()</text><polygon fill="#000000" points="4061,1286.2969,4051,1290.2969,4061,1294.2969,4057,1290.2969" style="stroke:#000000;stroke-width:1.0;"/><line style="stroke:#000000;stroke-width:1.0;stroke-dasharray:2.0,2.0;" x1="4055" x2="4604" y1="1290.2969" y2="1290.2969"/><text fill="#000000" font-family="sans-serif" font-size="20" lengthAdjust="spacing" textLength="266" x="4067" y="1283.5801">Returns list of allergyDTOs</text><polygon fill="#000000" points="3759,1323.5781,3749,1327.5781,3759,1331.5781,3755,1327.5781" style="stroke:#000000;stroke-width:1.0;"/><line style="stroke:#000000;stroke-width:1.0;stroke-dasharray:2.0,2.0;" x1="3753" x2="4044" y1="1327.5781" y2="1327.5781"/><text fill="#000000" font-family="sans-serif" font-size="20" lengthAdjust="spacing" textLength="268" x="3765" y="1320.8613">Returns list of AllergyDTOs</text><polygon fill="#000000" points="3457,1360.8594,3447,1364.8594,3457,1368.8594,3453,1364.8594" style="stroke:#000000;stroke-width:1.0;"/><line style="stroke:#000000;stroke-width:1.0;stroke-dasharray:2.0,2.0;" x1="3451" x2="3742" y1="1364.8594" y2="1364.8594"/><text fill="#000000" font-family="sans-serif" font-size="20" lengthAdjust="spacing" textLength="268" x="3463" y="1358.1426">Returns list of AllergyDTOs</text><polygon fill="#000000" points="40.5,1398.1406,30.5,1402.1406,40.5,1406.1406,36.5,1402.1406" style="stroke:#000000;stroke-width:1.0;"/><line style="stroke:#000000;stroke-width:1.0;stroke-dasharray:2.0,2.0;" x1="34.5" x2="3440" y1="1402.1406" y2="1402.1406"/><text fill="#000000" font-family="sans-serif" font-size="20" lengthAdjust="spacing" textLength="268" x="46.5" y="1395.4238">Returns list of AllergyDTOs</text><polygon fill="#000000" points="545.5,1435.4219,555.5,1439.4219,545.5,1443.4219,549.5,1439.4219" style="stroke:#000000;stroke-width:1.0;"/><line style="stroke:#000000;stroke-width:1.0;" x1="29.5" x2="551.5" y1="1439.4219" y2="1439.4219"/><text fill="#000000" font-family="sans-serif" font-size="20" lengthAdjust="spacing" textLength="509" x="36.5" y="1432.7051">Makes HTTP Request to get Patient Medical History</text><polygon fill="#000000" points="972.5,1472.7031,982.5,1476.7031,972.5,1480.7031,976.5,1476.7031" style="stroke:#000000;stroke-width:1.0;"/><line style="stroke:#000000;stroke-width:1.0;" x1="567.5" x2="978.5" y1="1476.7031" y2="1476.7031"/><text fill="#000000" font-family="sans-serif" font-size="20" lengthAdjust="spacing" textLength="398" x="574.5" y="1469.9863">getPatientMedicalHistory(req, res, next)</text><polygon fill="#000000" points="1568.5,1509.9844,1578.5,1513.9844,1568.5,1517.9844,1572.5,1513.9844" style="stroke:#000000;stroke-width:1.0;"/><line style="stroke:#000000;stroke-width:1.0;" x1="994.5" x2="1574.5" y1="1513.9844" y2="1513.9844"/><text fill="#000000" font-family="sans-serif" font-size="20" lengthAdjust="spacing" textLength="567" x="1001.5" y="1507.2676">getPatientMedicalHistory(patientMedicalRecordNumber)</text><polygon fill="#000000" points="2207.5,1547.2656,2217.5,1551.2656,2207.5,1555.2656,2211.5,1551.2656" style="stroke:#000000;stroke-width:1.0;"/><line style="stroke:#000000;stroke-width:1.0;" x1="1590.5" x2="2213.5" y1="1551.2656" y2="1551.2656"/><text fill="#000000" font-family="sans-serif" font-size="20" lengthAdjust="spacing" textLength="610" x="1597.5" y="1544.5488">findByPatientMedicalRecordNumber(medicalRecordNumber)</text><polygon fill="#000000" points="3182,1584.5469,3192,1588.5469,3182,1592.5469,3186,1588.5469" style="stroke:#000000;stroke-width:1.0;"/><line style="stroke:#000000;stroke-width:1.0;" x1="2229.5" x2="3188" y1="1588.5469" y2="1588.5469"/><text fill="#000000" font-family="sans-serif" font-size="20" lengthAdjust="spacing" textLength="153" x="2236.5" y="1581.8301">findOne(query)</text><polygon fill="#000000" points="7692,1621.8281,7702,1625.8281,7692,1629.8281,7696,1625.8281" style="stroke:#000000;stroke-width:1.0;"/><line style="stroke:#000000;stroke-width:1.0;" x1="3204" x2="7698" y1="1625.8281" y2="1625.8281"/><text fill="#000000" font-family="sans-serif" font-size="20" lengthAdjust="spacing" textLength="130" x="3211" y="1619.1113">query(query)</text><line style="stroke:#000000;stroke-width:1.0;" x1="7714" x2="7756" y1="1686.3906" y2="1686.3906"/><line style="stroke:#000000;stroke-width:1.0;" x1="7756" x2="7756" y1="1686.3906" y2="1699.3906"/><line style="stroke:#000000;stroke-width:1.0;" x1="7715" x2="7756" y1="1699.3906" y2="1699.3906"/><polygon fill="#000000" points="7725,1695.3906,7715,1699.3906,7725,1703.3906,7721,1699.3906" style="stroke:#000000;stroke-width:1.0;"/><text fill="#000000" font-family="sans-serif" font-size="20" lengthAdjust="spacing" textLength="381" x="7721" y="1656.3926">SELECT * FROM PatientMedicalHistory</text><text fill="#000000" font-family="sans-serif" font-size="20" lengthAdjust="spacing" textLength="710" x="7727" y="1679.6738">WHERE patientMedicalRecordNumber = patientMedicalRecordNumber</text><polygon fill="#000000" points="3215,1732.6719,3205,1736.6719,3215,1740.6719,3211,1736.6719" style="stroke:#000000;stroke-width:1.0;"/><line style="stroke:#000000;stroke-width:1.0;stroke-dasharray:2.0,2.0;" x1="3209" x2="7708" y1="1736.6719" y2="1736.6719"/><text fill="#000000" font-family="sans-serif" font-size="20" lengthAdjust="spacing" textLength="147" x="3221" y="1729.9551">Returns Result</text><polygon fill="#000000" points="2240.5,1769.9531,2230.5,1773.9531,2240.5,1777.9531,2236.5,1773.9531" style="stroke:#000000;stroke-width:1.0;"/><line style="stroke:#000000;stroke-width:1.0;stroke-dasharray:2.0,2.0;" x1="2234.5" x2="3198" y1="1773.9531" y2="1773.9531"/><text fill="#000000" font-family="sans-serif" font-size="20" lengthAdjust="spacing" textLength="431" x="2246.5" y="1767.2363">Returns PacienteMedicalHistoryPersistence</text><polygon fill="#000000" points="1601.5,1807.2344,1591.5,1811.2344,1601.5,1815.2344,1597.5,1811.2344" style="stroke:#000000;stroke-width:1.0;"/><line style="stroke:#000000;stroke-width:1.0;stroke-dasharray:2.0,2.0;" x1="1595.5" x2="2223.5" y1="1811.2344" y2="1811.2344"/><text fill="#000000" font-family="sans-serif" font-size="20" lengthAdjust="spacing" textLength="317" x="1607.5" y="1804.5176">Returns PacienteMedicalHistory</text><polygon fill="#000000" points="2496,1844.5156,2506,1848.5156,2496,1852.5156,2500,1848.5156" style="stroke:#000000;stroke-width:1.0;"/><line style="stroke:#000000;stroke-width:1.0;" x1="1590.5" x2="2502" y1="1848.5156" y2="1848.5156"/><text fill="#000000" font-family="sans-serif" font-size="20" lengthAdjust="spacing" textLength="290" x="1597.5" y="1841.7988">toDto(patientMedicalHistory)</text><polygon fill="#000000" points="2878,1881.7969,2888,1885.7969,2878,1889.7969,2882,1885.7969" style="stroke:#000000;stroke-width:1.0;"/><line style="stroke:#000000;stroke-width:1.0;" x1="2518" x2="2884" y1="1885.7969" y2="1885.7969"/><text fill="#000000" font-family="sans-serif" font-size="20" lengthAdjust="spacing" textLength="353" x="2525" y="1879.0801">create(patientMedicalHistoryProps)</text><line style="stroke:#000000;stroke-width:1.0;" x1="2900" x2="2942" y1="1928.0781" y2="1928.0781"/><line style="stroke:#000000;stroke-width:1.0;" x1="2942" x2="2942" y1="1928.0781" y2="1941.0781"/><line style="stroke:#000000;stroke-width:1.0;" x1="2895" x2="2942" y1="1941.0781" y2="1941.0781"/><polygon fill="#000000" points="2905,1937.0781,2895,1941.0781,2905,1945.0781,2901,1941.0781" style="stroke:#000000;stroke-width:1.0;"/><text fill="#000000" font-family="sans-serif" font-size="20" lengthAdjust="spacing" textLength="79" x="2907" y="1921.3613">create()</text><polygon fill="#000000" points="1601.5,1969.3594,1591.5,1973.3594,1601.5,1977.3594,1597.5,1973.3594" style="stroke:#000000;stroke-width:1.0;"/><line style="stroke:#000000;stroke-width:1.0;stroke-dasharray:2.0,2.0;" x1="1595.5" x2="2512" y1="1973.3594" y2="1973.3594"/><text fill="#000000" font-family="sans-serif" font-size="20" lengthAdjust="spacing" textLength="345" x="1607.5" y="1966.6426">Returns PatientMedicalHistoryDTO</text><polygon fill="#000000" points="1005.5,2006.6406,995.5,2010.6406,1005.5,2014.6406,1001.5,2010.6406" style="stroke:#000000;stroke-width:1.0;"/><line style="stroke:#000000;stroke-width:1.0;" x1="999.5" x2="1584.5" y1="2010.6406" y2="2010.6406"/><text fill="#000000" font-family="sans-serif" font-size="20" lengthAdjust="spacing" textLength="363" x="1011.5" y="2003.9238">Returns Patient Medical History DTO</text><polygon fill="#000000" points="578.5,2043.9219,568.5,2047.9219,578.5,2051.9219,574.5,2047.9219" style="stroke:#000000;stroke-width:1.0;"/><line style="stroke:#000000;stroke-width:1.0;" x1="572.5" x2="988.5" y1="2047.9219" y2="2047.9219"/><text fill="#000000" font-family="sans-serif" font-size="20" lengthAdjust="spacing" textLength="363" x="584.5" y="2041.2051">Returns Patient Medical History DTO</text><polygon fill="#000000" points="40.5,2081.2031,30.5,2085.2031,40.5,2089.2031,36.5,2085.2031" style="stroke:#000000;stroke-width:1.0;"/><line style="stroke:#000000;stroke-width:1.0;" x1="34.5" x2="561.5" y1="2085.2031" y2="2085.2031"/><text fill="#000000" font-family="sans-serif" font-size="20" lengthAdjust="spacing" textLength="363" x="46.5" y="2078.4863">Returns Patient Medical History DTO</text><!--SRC=[dLTDR-Cs4BtpLmoobwJO1jiKRLfZDm0joSXXsHYKYrvwuSfCLeWiQIawhLlqlvUV-g0bMuaFWYo-Dvnvd4THpNDUraomNL5bptmBM_x8zeLSLQLCytyut7n0IEQouF2Pl_02VeGuPqyA3u-LWDzJkBs-kRv5w6k-vS1tjJp0Zk- -SD4WrFZOa1MiQU1V1EgtPDdpawZsvJQgYafy_9YfkKHL55pStS6x-ES4htuPHpPSlEGPDx0VLZV9SXmcU5qrkQp4GIDNSRACFumZTwoktRGdul5IAN0cbXfBLhycjsOC2r7zPHyl2uL3__N5gDKJziJ7vO1toNBrqsgfAGekyoolMIbXbG1h81uykrWpcQla2D_c6IlkyqRNJAkzvE92mzVadiePbAXT0K-BO0OjjSlXEUaS3bLhq-OsXq1OxV5a3ZxUF7Zy7BNIx2lViRO4_G-6obzWBSnJNrTCDp2A2OJ4qJYiBnnEnp6jK9YE0xmmc8oFUo5mF954Lpcszs7XJYbLr3QNULNs523HaGGXEj22HD4PGbyL4gLdqAq-AfKpKAyKYSYv53fDL0PEb9CChpA9rDqG6ZF9lh365XGl4K8ia_aBarpvE8RlxuoA2o3icJTmBsKDb7_RyqQ2hE29Is150Mv2Q6TikZ2QZynIc63H0WhLrM6ApQNWtzw3uCrxAFdVygeV849wOGmzdQ8F22dIQsEJNy1ZNcvLbaC8rJcvc4P3YmlYc17KogpWyN81gdvnw2ELSF7IZwR9voJQm7UmeWy4mamDS30jvN8logOlP5SNe2tlJzEbugkRJ-_LGtqEh-FJJbUoKE_G07sjNbMNuLFuT0SZpNujAzMCH-YhWVu4QJkO-HHu0PdWQk0o3BSMLTqCYBhFpVMOV3KioIB9iHwwpQ1wFAfI4PfX269LyUqT1Y1d0wIslrkplJv2v1ocM_0jV6LHwtPytknsQyvvp-EAXR1rE7O6Rr7JniOHmiRMEErp3WCpunJXr6OswcHCrSmso8IDtG32RpUnIynx5uzPjvDbw5ZSCoocCpXjljHDDeT3lKhAbymZZ1_jluEsOVTITkvpOttJOOAmiHoEMyiuNcWp72CS1z21kpI071NXkvArHu1XASIKubef9E49KcfQoJVmN5PaktRSDLEarYlcvDgwPRDPXsvnXxdszUYESvs2zknhhYwWAbanHq-1qqRIF6GEn3P8UY98FNXAULQ9xMzx_J4q39WYSrfsPLfNBG_hIRRVoQSZKbEeJr7tk8twKF9BOyOW0Or0xNbtuDeGViAweoh0doNySP_G1ARbW4yd1lrEq5NYkuVoHdsQ1dj0LqMhfyUlMQRduCC4r-hRLDtnCkFzK7rPQ9l0kM111DfVMRLTgAr0La5VEEPmHGWotpUMs5b-b1dk5UPBHr-Ew5T1Uh6RPQIuyI-fW4_wvKL7zD2CS1mXxNj9E_pr8QBErF5R-6fN-1y0]--></g></svg>