<?xml version="1.0" encoding="UTF-8" standalone="no"?><svg xmlns="http://www.w3.org/2000/svg" xmlns:xlink="http://www.w3.org/1999/xlink" contentStyleType="text/css" height="2169px" preserveAspectRatio="none" style="width:3401px;height:2169px;background:#FFFFFF;" version="1.1" viewBox="0 0 3401 2169" width="3401px" zoomAndPan="magnify"><defs/><g><text fill="#000000" font-family="sans-serif" font-size="14" font-weight="bold" lengthAdjust="spacing" textLength="248" x="1578.5" y="27.9951">Level 3 FE Diagram for US 7.2.7</text><rect fill="#FFFFFF" height="1937.0625" style="stroke:#181818;stroke-width:1.0;" width="10" x="36" y="135.5781"/><rect fill="#FFFFFF" height="1284.2813" style="stroke:#181818;stroke-width:1.0;" width="10" x="524" y="164.8594"/><rect fill="#FFFFFF" height="577.2188" style="stroke:#181818;stroke-width:1.0;" width="10" x="524" y="1486.4219"/><rect fill="#FFFFFF" height="1209.7188" style="stroke:#181818;stroke-width:1.0;" width="10" x="986" y="202.1406"/><rect fill="#FFFFFF" height="428.0938" style="stroke:#181818;stroke-width:1.0;" width="10" x="986" y="1523.7031"/><rect fill="#FFFFFF" height="37.2813" style="stroke:#181818;stroke-width:1.0;" width="10" x="986" y="1989.0781"/><rect fill="#FFFFFF" height="353.5313" style="stroke:#181818;stroke-width:1.0;" width="10" x="1513" y="239.4219"/><rect fill="#FFFFFF" height="353.5313" style="stroke:#181818;stroke-width:1.0;" width="10" x="1513" y="630.2344"/><rect fill="#FFFFFF" height="353.5313" style="stroke:#181818;stroke-width:1.0;" width="10" x="1513" y="1021.0469"/><rect fill="#FFFFFF" height="353.5313" style="stroke:#181818;stroke-width:1.0;" width="10" x="1513" y="1560.9844"/><rect fill="#FFFFFF" height="278.9688" style="stroke:#181818;stroke-width:1.0;" width="10" x="2157" y="276.7031"/><rect fill="#FFFFFF" height="278.9688" style="stroke:#181818;stroke-width:1.0;" width="10" x="2157" y="667.5156"/><rect fill="#FFFFFF" height="278.9688" style="stroke:#181818;stroke-width:1.0;" width="10" x="2157" y="1058.3281"/><rect fill="#FFFFFF" height="278.9688" style="stroke:#181818;stroke-width:1.0;" width="10" x="2157" y="1598.2656"/><rect fill="#FFFFFF" height="87.5625" style="stroke:#181818;stroke-width:1.0;" width="10" x="2914" y="821.6406"/><rect fill="#FFFFFF" height="87.5625" style="stroke:#181818;stroke-width:1.0;" width="10" x="2914" y="1212.4531"/><rect fill="#FFFFFF" height="87.5625" style="stroke:#181818;stroke-width:1.0;" width="10" x="2914" y="1752.3906"/><rect fill="#FFFFFF" height="87.5625" style="stroke:#181818;stroke-width:1.0;" width="10" x="3222" y="430.8281"/><line style="stroke:#181818;stroke-width:0.5;stroke-dasharray:5.0,5.0;" x1="41" x2="41" y1="125.5781" y2="2081.6406"/><line style="stroke:#181818;stroke-width:0.5;stroke-dasharray:5.0,5.0;" x1="528.5" x2="528.5" y1="125.5781" y2="2081.6406"/><line style="stroke:#181818;stroke-width:0.5;stroke-dasharray:5.0,5.0;" x1="990.5" x2="990.5" y1="125.5781" y2="2081.6406"/><line style="stroke:#181818;stroke-width:0.5;stroke-dasharray:5.0,5.0;" x1="1518" x2="1518" y1="125.5781" y2="2081.6406"/><line style="stroke:#181818;stroke-width:0.5;stroke-dasharray:5.0,5.0;" x1="2161.5" x2="2161.5" y1="125.5781" y2="2081.6406"/><line style="stroke:#181818;stroke-width:0.5;stroke-dasharray:5.0,5.0;" x1="2919" x2="2919" y1="125.5781" y2="2081.6406"/><line style="stroke:#181818;stroke-width:0.5;stroke-dasharray:5.0,5.0;" x1="3227" x2="3227" y1="125.5781" y2="2081.6406"/><text fill="#000000" font-family="sans-serif" font-size="20" lengthAdjust="spacing" textLength="66" x="5" y="120.8613">Doctor</text><ellipse cx="41" cy="50.7969" fill="#E2E2F0" rx="8" ry="8" style="stroke:#181818;stroke-width:0.5;"/><path d="M41,58.7969 L41,85.7969 M28,66.7969 L54,66.7969 M41,85.7969 L28,100.7969 M41,85.7969 L54,100.7969 " fill="none" style="stroke:#181818;stroke-width:0.5;"/><text fill="#000000" font-family="sans-serif" font-size="20" lengthAdjust="spacing" textLength="66" x="5" y="2099.2051">Doctor</text><ellipse cx="41" cy="2112.4219" fill="#E2E2F0" rx="8" ry="8" style="stroke:#181818;stroke-width:0.5;"/><path d="M41,2120.4219 L41,2147.4219 M28,2128.4219 L54,2128.4219 M41,2147.4219 L28,2162.4219 M41,2147.4219 L54,2162.4219 " fill="none" style="stroke:#181818;stroke-width:0.5;"/><rect fill="#E2E2F0" height="37.2813" rx="2.5" ry="2.5" style="stroke:#181818;stroke-width:0.5;" width="63" x="497.5" y="87.2969"/><text fill="#000000" font-family="sans-serif" font-size="20" lengthAdjust="spacing" textLength="49" x="504.5" y="112.8613">View</text><rect fill="#E2E2F0" height="37.2813" rx="2.5" ry="2.5" style="stroke:#181818;stroke-width:0.5;" width="63" x="497.5" y="2080.6406"/><text fill="#000000" font-family="sans-serif" font-size="20" lengthAdjust="spacing" textLength="49" x="504.5" y="2106.2051">View</text><rect fill="#E2E2F0" height="37.2813" rx="2.5" ry="2.5" style="stroke:#181818;stroke-width:0.5;" width="365" x="808.5" y="87.2969"/><text fill="#000000" font-family="sans-serif" font-size="20" lengthAdjust="spacing" textLength="351" x="815.5" y="112.8613">MedicalHistoryManagerComponent</text><rect fill="#E2E2F0" height="37.2813" rx="2.5" ry="2.5" style="stroke:#181818;stroke-width:0.5;" width="365" x="808.5" y="2080.6406"/><text fill="#000000" font-family="sans-serif" font-size="20" lengthAdjust="spacing" textLength="351" x="815.5" y="2106.2051">MedicalHistoryManagerComponent</text><rect fill="#E2E2F0" height="37.2813" rx="2.5" ry="2.5" style="stroke:#181818;stroke-width:0.5;" width="234" x="1401" y="87.2969"/><text fill="#000000" font-family="sans-serif" font-size="20" lengthAdjust="spacing" textLength="220" x="1408" y="112.8613">MedicalHistoryService</text><rect fill="#E2E2F0" height="37.2813" rx="2.5" ry="2.5" style="stroke:#181818;stroke-width:0.5;" width="234" x="1401" y="2080.6406"/><text fill="#000000" font-family="sans-serif" font-size="20" lengthAdjust="spacing" textLength="220" x="1408" y="2106.2051">MedicalHistoryService</text><rect fill="#E2E2F0" height="37.2813" rx="2.5" ry="2.5" style="stroke:#181818;stroke-width:0.5;" width="173" x="2075.5" y="87.2969"/><text fill="#000000" font-family="sans-serif" font-size="20" lengthAdjust="spacing" textLength="159" x="2082.5" y="112.8613">AuthInterceptor</text><rect fill="#E2E2F0" height="37.2813" rx="2.5" ry="2.5" style="stroke:#181818;stroke-width:0.5;" width="173" x="2075.5" y="2080.6406"/><text fill="#000000" font-family="sans-serif" font-size="20" lengthAdjust="spacing" textLength="159" x="2082.5" y="2106.2051">AuthInterceptor</text><rect fill="#E2E2F0" height="37.2813" rx="2.5" ry="2.5" style="stroke:#181818;stroke-width:0.5;" width="60" x="2889" y="87.2969"/><text fill="#000000" font-family="sans-serif" font-size="20" lengthAdjust="spacing" textLength="46" x="2896" y="112.8613">MDV</text><rect fill="#E2E2F0" height="37.2813" rx="2.5" ry="2.5" style="stroke:#181818;stroke-width:0.5;" width="60" x="2889" y="2080.6406"/><text fill="#000000" font-family="sans-serif" font-size="20" lengthAdjust="spacing" textLength="46" x="2896" y="2106.2051">MDV</text><rect fill="#E2E2F0" height="37.2813" rx="2.5" ry="2.5" style="stroke:#181818;stroke-width:0.5;" width="60" x="3197" y="87.2969"/><text fill="#000000" font-family="sans-serif" font-size="20" lengthAdjust="spacing" textLength="46" x="3204" y="112.8613">MDR</text><rect fill="#E2E2F0" height="37.2813" rx="2.5" ry="2.5" style="stroke:#181818;stroke-width:0.5;" width="60" x="3197" y="2080.6406"/><text fill="#000000" font-family="sans-serif" font-size="20" lengthAdjust="spacing" textLength="46" x="3204" y="2106.2051">MDR</text><rect fill="#FFFFFF" height="1937.0625" style="stroke:#181818;stroke-width:1.0;" width="10" x="36" y="135.5781"/><rect fill="#FFFFFF" height="1284.2813" style="stroke:#181818;stroke-width:1.0;" width="10" x="524" y="164.8594"/><rect fill="#FFFFFF" height="577.2188" style="stroke:#181818;stroke-width:1.0;" width="10" x="524" y="1486.4219"/><rect fill="#FFFFFF" height="1209.7188" style="stroke:#181818;stroke-width:1.0;" width="10" x="986" y="202.1406"/><rect fill="#FFFFFF" height="428.0938" style="stroke:#181818;stroke-width:1.0;" width="10" x="986" y="1523.7031"/><rect fill="#FFFFFF" height="37.2813" style="stroke:#181818;stroke-width:1.0;" width="10" x="986" y="1989.0781"/><rect fill="#FFFFFF" height="353.5313" style="stroke:#181818;stroke-width:1.0;" width="10" x="1513" y="239.4219"/><rect fill="#FFFFFF" height="353.5313" style="stroke:#181818;stroke-width:1.0;" width="10" x="1513" y="630.2344"/><rect fill="#FFFFFF" height="353.5313" style="stroke:#181818;stroke-width:1.0;" width="10" x="1513" y="1021.0469"/><rect fill="#FFFFFF" height="353.5313" style="stroke:#181818;stroke-width:1.0;" width="10" x="1513" y="1560.9844"/><rect fill="#FFFFFF" height="278.9688" style="stroke:#181818;stroke-width:1.0;" width="10" x="2157" y="276.7031"/><rect fill="#FFFFFF" height="278.9688" style="stroke:#181818;stroke-width:1.0;" width="10" x="2157" y="667.5156"/><rect fill="#FFFFFF" height="278.9688" style="stroke:#181818;stroke-width:1.0;" width="10" x="2157" y="1058.3281"/><rect fill="#FFFFFF" height="278.9688" style="stroke:#181818;stroke-width:1.0;" width="10" x="2157" y="1598.2656"/><rect fill="#FFFFFF" height="87.5625" style="stroke:#181818;stroke-width:1.0;" width="10" x="2914" y="821.6406"/><rect fill="#FFFFFF" height="87.5625" style="stroke:#181818;stroke-width:1.0;" width="10" x="2914" y="1212.4531"/><rect fill="#FFFFFF" height="87.5625" style="stroke:#181818;stroke-width:1.0;" width="10" x="2914" y="1752.3906"/><rect fill="#FFFFFF" height="87.5625" style="stroke:#181818;stroke-width:1.0;" width="10" x="3222" y="430.8281"/><polygon fill="#000000" points="512,160.8594,522,164.8594,512,168.8594,516,164.8594" style="stroke:#000000;stroke-width:1.0;"/><line style="stroke:#000000;stroke-width:1.0;" x1="46" x2="518" y1="164.8594" y2="164.8594"/><text fill="#000000" font-family="sans-serif" font-size="20" lengthAdjust="spacing" textLength="315" x="53" y="158.1426">Ask for Patients Medical Record</text><polygon fill="#000000" points="974,198.1406,984,202.1406,974,206.1406,978,202.1406" style="stroke:#000000;stroke-width:1.0;"/><line style="stroke:#000000;stroke-width:1.0;" x1="534" x2="980" y1="202.1406" y2="202.1406"/><text fill="#000000" font-family="sans-serif" font-size="20" lengthAdjust="spacing" textLength="391" x="541" y="195.4238">routerLink='/medical-history-manager'</text><polygon fill="#000000" points="1501,235.4219,1511,239.4219,1501,243.4219,1505,239.4219" style="stroke:#000000;stroke-width:1.0;"/><line style="stroke:#000000;stroke-width:1.0;" x1="996" x2="1507" y1="239.4219" y2="239.4219"/><text fill="#000000" font-family="sans-serif" font-size="20" lengthAdjust="spacing" textLength="328" x="1003" y="232.7051">getPatientsWithAdvancedFilter()</text><polygon fill="#000000" points="2145,272.7031,2155,276.7031,2145,280.7031,2149,276.7031" style="stroke:#000000;stroke-width:1.0;"/><line style="stroke:#000000;stroke-width:1.0;" x1="1523" x2="2151" y1="276.7031" y2="276.7031"/><text fill="#000000" font-family="sans-serif" font-size="20" lengthAdjust="spacing" textLength="376" x="1530" y="269.9863">Sends HTTP Request to fetch Patients</text><line style="stroke:#000000;stroke-width:1.0;" x1="2167" x2="2209" y1="313.9844" y2="313.9844"/><line style="stroke:#000000;stroke-width:1.0;" x1="2209" x2="2209" y1="313.9844" y2="326.9844"/><line style="stroke:#000000;stroke-width:1.0;" x1="2168" x2="2209" y1="326.9844" y2="326.9844"/><polygon fill="#000000" points="2178,322.9844,2168,326.9844,2178,330.9844,2174,326.9844" style="stroke:#000000;stroke-width:1.0;"/><text fill="#000000" font-family="sans-serif" font-size="20" lengthAdjust="spacing" textLength="563" x="2174" y="307.2676">Intercepts the request and adds the token to the header</text><path d="M2172,339.9844 L2172,395.9844 L2691,395.9844 L2691,349.9844 L2681,339.9844 L2172,339.9844 " fill="#FEFFDD" style="stroke:#181818;stroke-width:0.5;"/><path d="M2681,339.9844 L2681,349.9844 L2691,349.9844 L2681,339.9844 " fill="#FEFFDD" style="stroke:#181818;stroke-width:0.5;"/><text fill="#000000" font-family="sans-serif" font-size="20" lengthAdjust="spacing" textLength="498" x="2178" y="363.5488">The token is added to the header so that the MDR</text><text fill="#000000" font-family="sans-serif" font-size="20" lengthAdjust="spacing" textLength="442" x="2178" y="386.8301">can authenticate and authorize the request.</text><polygon fill="#000000" points="3210,426.8281,3220,430.8281,3210,434.8281,3214,430.8281" style="stroke:#000000;stroke-width:1.0;"/><line style="stroke:#000000;stroke-width:1.0;" x1="2167" x2="3216" y1="430.8281" y2="430.8281"/><text fill="#000000" font-family="sans-serif" font-size="20" lengthAdjust="spacing" textLength="638" x="2174" y="424.1113">Sends HTTP Request with token to fetch Patient Medical History</text><line style="stroke:#000000;stroke-width:1.0;" x1="3232" x2="3274" y1="468.1094" y2="468.1094"/><line style="stroke:#000000;stroke-width:1.0;" x1="3274" x2="3274" y1="468.1094" y2="481.1094"/><line style="stroke:#000000;stroke-width:1.0;" x1="3233" x2="3274" y1="481.1094" y2="481.1094"/><polygon fill="#000000" points="3243,477.1094,3233,481.1094,3243,485.1094,3239,481.1094" style="stroke:#000000;stroke-width:1.0;"/><text fill="#000000" font-family="sans-serif" font-size="20" lengthAdjust="spacing" textLength="155" x="3239" y="461.3926">Fetches Patient</text><polygon fill="#000000" points="2178,514.3906,2168,518.3906,2178,522.3906,2174,518.3906" style="stroke:#000000;stroke-width:1.0;"/><line style="stroke:#000000;stroke-width:1.0;stroke-dasharray:2.0,2.0;" x1="2172" x2="3226" y1="518.3906" y2="518.3906"/><text fill="#000000" font-family="sans-serif" font-size="20" lengthAdjust="spacing" textLength="165" x="2184" y="511.6738">Returns Patients</text><polygon fill="#000000" points="1534,551.6719,1524,555.6719,1534,559.6719,1530,555.6719" style="stroke:#000000;stroke-width:1.0;"/><line style="stroke:#000000;stroke-width:1.0;stroke-dasharray:2.0,2.0;" x1="1528" x2="2161" y1="555.6719" y2="555.6719"/><text fill="#000000" font-family="sans-serif" font-size="20" lengthAdjust="spacing" textLength="165" x="1540" y="548.9551">Returns Patients</text><polygon fill="#000000" points="1007,588.9531,997,592.9531,1007,596.9531,1003,592.9531" style="stroke:#000000;stroke-width:1.0;"/><line style="stroke:#000000;stroke-width:1.0;stroke-dasharray:2.0,2.0;" x1="1001" x2="1517" y1="592.9531" y2="592.9531"/><text fill="#000000" font-family="sans-serif" font-size="20" lengthAdjust="spacing" textLength="165" x="1013" y="586.2363">Returns Patients</text><polygon fill="#000000" points="1501,626.2344,1511,630.2344,1501,634.2344,1505,630.2344" style="stroke:#000000;stroke-width:1.0;"/><line style="stroke:#000000;stroke-width:1.0;" x1="996" x2="1507" y1="630.2344" y2="630.2344"/><text fill="#000000" font-family="sans-serif" font-size="20" lengthAdjust="spacing" textLength="136" x="1003" y="623.5176">getAllergies()</text><polygon fill="#000000" points="2145,663.5156,2155,667.5156,2145,671.5156,2149,667.5156" style="stroke:#000000;stroke-width:1.0;"/><line style="stroke:#000000;stroke-width:1.0;" x1="1523" x2="2151" y1="667.5156" y2="667.5156"/><text fill="#000000" font-family="sans-serif" font-size="20" lengthAdjust="spacing" textLength="382" x="1530" y="660.7988">Sends HTTP Request to fetch Allergies</text><line style="stroke:#000000;stroke-width:1.0;" x1="2167" x2="2209" y1="704.7969" y2="704.7969"/><line style="stroke:#000000;stroke-width:1.0;" x1="2209" x2="2209" y1="704.7969" y2="717.7969"/><line style="stroke:#000000;stroke-width:1.0;" x1="2168" x2="2209" y1="717.7969" y2="717.7969"/><polygon fill="#000000" points="2178,713.7969,2168,717.7969,2178,721.7969,2174,717.7969" style="stroke:#000000;stroke-width:1.0;"/><text fill="#000000" font-family="sans-serif" font-size="20" lengthAdjust="spacing" textLength="563" x="2174" y="698.0801">Intercepts the request and adds the token to the header</text><path d="M2172,730.7969 L2172,786.7969 L2691,786.7969 L2691,740.7969 L2681,730.7969 L2172,730.7969 " fill="#FEFFDD" style="stroke:#181818;stroke-width:0.5;"/><path d="M2681,730.7969 L2681,740.7969 L2691,740.7969 L2681,730.7969 " fill="#FEFFDD" style="stroke:#181818;stroke-width:0.5;"/><text fill="#000000" font-family="sans-serif" font-size="20" lengthAdjust="spacing" textLength="498" x="2178" y="754.3613">The token is added to the header so that the MDR</text><text fill="#000000" font-family="sans-serif" font-size="20" lengthAdjust="spacing" textLength="442" x="2178" y="777.6426">can authenticate and authorize the request.</text><polygon fill="#000000" points="2902,817.6406,2912,821.6406,2902,825.6406,2906,821.6406" style="stroke:#000000;stroke-width:1.0;"/><line style="stroke:#000000;stroke-width:1.0;" x1="2167" x2="2908" y1="821.6406" y2="821.6406"/><text fill="#000000" font-family="sans-serif" font-size="20" lengthAdjust="spacing" textLength="495" x="2174" y="814.9238">Sends HTTP Request with token to fetch Allergies</text><line style="stroke:#000000;stroke-width:1.0;" x1="2924" x2="2966" y1="858.9219" y2="858.9219"/><line style="stroke:#000000;stroke-width:1.0;" x1="2966" x2="2966" y1="858.9219" y2="871.9219"/><line style="stroke:#000000;stroke-width:1.0;" x1="2925" x2="2966" y1="871.9219" y2="871.9219"/><polygon fill="#000000" points="2935,867.9219,2925,871.9219,2935,875.9219,2931,871.9219" style="stroke:#000000;stroke-width:1.0;"/><text fill="#000000" font-family="sans-serif" font-size="20" lengthAdjust="spacing" textLength="171" x="2931" y="852.2051">Fetches Allergies</text><polygon fill="#000000" points="2178,905.2031,2168,909.2031,2178,913.2031,2174,909.2031" style="stroke:#000000;stroke-width:1.0;"/><line style="stroke:#000000;stroke-width:1.0;stroke-dasharray:2.0,2.0;" x1="2172" x2="2918" y1="909.2031" y2="909.2031"/><text fill="#000000" font-family="sans-serif" font-size="20" lengthAdjust="spacing" textLength="171" x="2184" y="902.4863">Returns Allergies</text><polygon fill="#000000" points="1534,942.4844,1524,946.4844,1534,950.4844,1530,946.4844" style="stroke:#000000;stroke-width:1.0;"/><line style="stroke:#000000;stroke-width:1.0;stroke-dasharray:2.0,2.0;" x1="1528" x2="2161" y1="946.4844" y2="946.4844"/><text fill="#000000" font-family="sans-serif" font-size="20" lengthAdjust="spacing" textLength="165" x="1540" y="939.7676">Returns Alergies</text><polygon fill="#000000" points="1007,979.7656,997,983.7656,1007,987.7656,1003,983.7656" style="stroke:#000000;stroke-width:1.0;"/><line style="stroke:#000000;stroke-width:1.0;stroke-dasharray:2.0,2.0;" x1="1001" x2="1517" y1="983.7656" y2="983.7656"/><text fill="#000000" font-family="sans-serif" font-size="20" lengthAdjust="spacing" textLength="171" x="1013" y="977.0488">Returns Allergies</text><polygon fill="#000000" points="1501,1017.0469,1511,1021.0469,1501,1025.0469,1505,1021.0469" style="stroke:#000000;stroke-width:1.0;"/><line style="stroke:#000000;stroke-width:1.0;" x1="996" x2="1507" y1="1021.0469" y2="1021.0469"/><text fill="#000000" font-family="sans-serif" font-size="20" lengthAdjust="spacing" textLength="233" x="1003" y="1014.3301">getMedicalConditions()</text><polygon fill="#000000" points="2145,1054.3281,2155,1058.3281,2145,1062.3281,2149,1058.3281" style="stroke:#000000;stroke-width:1.0;"/><line style="stroke:#000000;stroke-width:1.0;" x1="1523" x2="2151" y1="1058.3281" y2="1058.3281"/><text fill="#000000" font-family="sans-serif" font-size="20" lengthAdjust="spacing" textLength="485" x="1530" y="1051.6113">Sends HTTP Request to fetch Medical Conditions</text><line style="stroke:#000000;stroke-width:1.0;" x1="2167" x2="2209" y1="1095.6094" y2="1095.6094"/><line style="stroke:#000000;stroke-width:1.0;" x1="2209" x2="2209" y1="1095.6094" y2="1108.6094"/><line style="stroke:#000000;stroke-width:1.0;" x1="2168" x2="2209" y1="1108.6094" y2="1108.6094"/><polygon fill="#000000" points="2178,1104.6094,2168,1108.6094,2178,1112.6094,2174,1108.6094" style="stroke:#000000;stroke-width:1.0;"/><text fill="#000000" font-family="sans-serif" font-size="20" lengthAdjust="spacing" textLength="563" x="2174" y="1088.8926">Intercepts the request and adds the token to the header</text><path d="M2172,1121.6094 L2172,1177.6094 L2691,1177.6094 L2691,1131.6094 L2681,1121.6094 L2172,1121.6094 " fill="#FEFFDD" style="stroke:#181818;stroke-width:0.5;"/><path d="M2681,1121.6094 L2681,1131.6094 L2691,1131.6094 L2681,1121.6094 " fill="#FEFFDD" style="stroke:#181818;stroke-width:0.5;"/><text fill="#000000" font-family="sans-serif" font-size="20" lengthAdjust="spacing" textLength="498" x="2178" y="1145.1738">The token is added to the header so that the MDR</text><text fill="#000000" font-family="sans-serif" font-size="20" lengthAdjust="spacing" textLength="442" x="2178" y="1168.4551">can authenticate and authorize the request.</text><polygon fill="#000000" points="2902,1208.4531,2912,1212.4531,2902,1216.4531,2906,1212.4531" style="stroke:#000000;stroke-width:1.0;"/><line style="stroke:#000000;stroke-width:1.0;" x1="2167" x2="2908" y1="1212.4531" y2="1212.4531"/><text fill="#000000" font-family="sans-serif" font-size="20" lengthAdjust="spacing" textLength="598" x="2174" y="1205.7363">Sends HTTP Request with token to fetch Medical Conditions</text><line style="stroke:#000000;stroke-width:1.0;" x1="2924" x2="2966" y1="1249.7344" y2="1249.7344"/><line style="stroke:#000000;stroke-width:1.0;" x1="2966" x2="2966" y1="1249.7344" y2="1262.7344"/><line style="stroke:#000000;stroke-width:1.0;" x1="2925" x2="2966" y1="1262.7344" y2="1262.7344"/><polygon fill="#000000" points="2935,1258.7344,2925,1262.7344,2935,1266.7344,2931,1262.7344" style="stroke:#000000;stroke-width:1.0;"/><text fill="#000000" font-family="sans-serif" font-size="20" lengthAdjust="spacing" textLength="274" x="2931" y="1243.0176">Fetches Medical Conditions</text><polygon fill="#000000" points="2178,1296.0156,2168,1300.0156,2178,1304.0156,2174,1300.0156" style="stroke:#000000;stroke-width:1.0;"/><line style="stroke:#000000;stroke-width:1.0;stroke-dasharray:2.0,2.0;" x1="2172" x2="2918" y1="1300.0156" y2="1300.0156"/><text fill="#000000" font-family="sans-serif" font-size="20" lengthAdjust="spacing" textLength="274" x="2184" y="1293.2988">Returns Medical Conditions</text><polygon fill="#000000" points="1534,1333.2969,1524,1337.2969,1534,1341.2969,1530,1337.2969" style="stroke:#000000;stroke-width:1.0;"/><line style="stroke:#000000;stroke-width:1.0;stroke-dasharray:2.0,2.0;" x1="1528" x2="2161" y1="1337.2969" y2="1337.2969"/><text fill="#000000" font-family="sans-serif" font-size="20" lengthAdjust="spacing" textLength="274" x="1540" y="1330.5801">Returns Medical Conditions</text><polygon fill="#000000" points="1007,1370.5781,997,1374.5781,1007,1378.5781,1003,1374.5781" style="stroke:#000000;stroke-width:1.0;"/><line style="stroke:#000000;stroke-width:1.0;stroke-dasharray:2.0,2.0;" x1="1001" x2="1517" y1="1374.5781" y2="1374.5781"/><text fill="#000000" font-family="sans-serif" font-size="20" lengthAdjust="spacing" textLength="274" x="1013" y="1367.8613">Returns Medical Conditions</text><polygon fill="#000000" points="545,1407.8594,535,1411.8594,545,1415.8594,541,1411.8594" style="stroke:#000000;stroke-width:1.0;"/><line style="stroke:#000000;stroke-width:1.0;stroke-dasharray:2.0,2.0;" x1="539" x2="990" y1="1411.8594" y2="1411.8594"/><text fill="#000000" font-family="sans-serif" font-size="20" lengthAdjust="spacing" textLength="365" x="551" y="1405.1426">Returns MedicalManagerComponent</text><polygon fill="#000000" points="57,1445.1406,47,1449.1406,57,1453.1406,53,1449.1406" style="stroke:#000000;stroke-width:1.0;"/><line style="stroke:#000000;stroke-width:1.0;stroke-dasharray:2.0,2.0;" x1="51" x2="528" y1="1449.1406" y2="1449.1406"/><text fill="#000000" font-family="sans-serif" font-size="20" lengthAdjust="spacing" textLength="170" x="63" y="1442.4238">Displays Patients</text><polygon fill="#000000" points="512,1482.4219,522,1486.4219,512,1490.4219,516,1486.4219" style="stroke:#000000;stroke-width:1.0;"/><line style="stroke:#000000;stroke-width:1.0;" x1="46" x2="518" y1="1486.4219" y2="1486.4219"/><text fill="#000000" font-family="sans-serif" font-size="20" lengthAdjust="spacing" textLength="459" x="53" y="1479.7051">Selects Patient Medical Record to view details</text><polygon fill="#000000" points="974,1519.7031,984,1523.7031,974,1527.7031,978,1523.7031" style="stroke:#000000;stroke-width:1.0;"/><line style="stroke:#000000;stroke-width:1.0;" x1="534" x2="980" y1="1523.7031" y2="1523.7031"/><text fill="#000000" font-family="sans-serif" font-size="20" lengthAdjust="spacing" textLength="433" x="541" y="1516.9863">viewPatientDetails(medicalRecordNumber)</text><polygon fill="#000000" points="1501,1556.9844,1511,1560.9844,1501,1564.9844,1505,1560.9844" style="stroke:#000000;stroke-width:1.0;"/><line style="stroke:#000000;stroke-width:1.0;" x1="996" x2="1507" y1="1560.9844" y2="1560.9844"/><text fill="#000000" font-family="sans-serif" font-size="20" lengthAdjust="spacing" textLength="498" x="1003" y="1554.2676">getPatientMedicalHistory(medicalRecordNumber)</text><polygon fill="#000000" points="2145,1594.2656,2155,1598.2656,2145,1602.2656,2149,1598.2656" style="stroke:#000000;stroke-width:1.0;"/><line style="stroke:#000000;stroke-width:1.0;" x1="1523" x2="2151" y1="1598.2656" y2="1598.2656"/><text fill="#000000" font-family="sans-serif" font-size="20" lengthAdjust="spacing" textLength="615" x="1530" y="1591.5488">Sends HTTP Request to fetch selected Patient Medical History</text><line style="stroke:#000000;stroke-width:1.0;" x1="2167" x2="2209" y1="1635.5469" y2="1635.5469"/><line style="stroke:#000000;stroke-width:1.0;" x1="2209" x2="2209" y1="1635.5469" y2="1648.5469"/><line style="stroke:#000000;stroke-width:1.0;" x1="2168" x2="2209" y1="1648.5469" y2="1648.5469"/><polygon fill="#000000" points="2178,1644.5469,2168,1648.5469,2178,1652.5469,2174,1648.5469" style="stroke:#000000;stroke-width:1.0;"/><text fill="#000000" font-family="sans-serif" font-size="20" lengthAdjust="spacing" textLength="563" x="2174" y="1628.8301">Intercepts the request and adds the token to the header</text><path d="M2172,1661.5469 L2172,1717.5469 L2691,1717.5469 L2691,1671.5469 L2681,1661.5469 L2172,1661.5469 " fill="#FEFFDD" style="stroke:#181818;stroke-width:0.5;"/><path d="M2681,1661.5469 L2681,1671.5469 L2691,1671.5469 L2681,1661.5469 " fill="#FEFFDD" style="stroke:#181818;stroke-width:0.5;"/><text fill="#000000" font-family="sans-serif" font-size="20" lengthAdjust="spacing" textLength="498" x="2178" y="1685.1113">The token is added to the header so that the MDR</text><text fill="#000000" font-family="sans-serif" font-size="20" lengthAdjust="spacing" textLength="442" x="2178" y="1708.3926">can authenticate and authorize the request.</text><polygon fill="#000000" points="2902,1748.3906,2912,1752.3906,2902,1756.3906,2906,1752.3906" style="stroke:#000000;stroke-width:1.0;"/><line style="stroke:#000000;stroke-width:1.0;" x1="2167" x2="2908" y1="1752.3906" y2="1752.3906"/><text fill="#000000" font-family="sans-serif" font-size="20" lengthAdjust="spacing" textLength="728" x="2174" y="1745.6738">Sends HTTP Request with token to fetch selected Patient Medical History</text><line style="stroke:#000000;stroke-width:1.0;" x1="2924" x2="2966" y1="1789.6719" y2="1789.6719"/><line style="stroke:#000000;stroke-width:1.0;" x1="2966" x2="2966" y1="1789.6719" y2="1802.6719"/><line style="stroke:#000000;stroke-width:1.0;" x1="2925" x2="2966" y1="1802.6719" y2="1802.6719"/><polygon fill="#000000" points="2935,1798.6719,2925,1802.6719,2935,1806.6719,2931,1802.6719" style="stroke:#000000;stroke-width:1.0;"/><text fill="#000000" font-family="sans-serif" font-size="20" lengthAdjust="spacing" textLength="284" x="2931" y="1782.9551">Fech Patient Medical History</text><polygon fill="#000000" points="2178,1835.9531,2168,1839.9531,2178,1843.9531,2174,1839.9531" style="stroke:#000000;stroke-width:1.0;"/><line style="stroke:#000000;stroke-width:1.0;stroke-dasharray:2.0,2.0;" x1="2172" x2="2918" y1="1839.9531" y2="1839.9531"/><text fill="#000000" font-family="sans-serif" font-size="20" lengthAdjust="spacing" textLength="404" x="2184" y="1833.2363">Returns selected Patient Medical History</text><polygon fill="#000000" points="1534,1873.2344,1524,1877.2344,1534,1881.2344,1530,1877.2344" style="stroke:#000000;stroke-width:1.0;"/><line style="stroke:#000000;stroke-width:1.0;stroke-dasharray:2.0,2.0;" x1="1528" x2="2161" y1="1877.2344" y2="1877.2344"/><text fill="#000000" font-family="sans-serif" font-size="20" lengthAdjust="spacing" textLength="404" x="1540" y="1870.5176">Returns selected Patient Medical History</text><polygon fill="#000000" points="1007,1910.5156,997,1914.5156,1007,1918.5156,1003,1914.5156" style="stroke:#000000;stroke-width:1.0;"/><line style="stroke:#000000;stroke-width:1.0;stroke-dasharray:2.0,2.0;" x1="1001" x2="1517" y1="1914.5156" y2="1914.5156"/><text fill="#000000" font-family="sans-serif" font-size="20" lengthAdjust="spacing" textLength="404" x="1013" y="1907.7988">Returns selected Patient Medical History</text><polygon fill="#000000" points="545,1947.7969,535,1951.7969,545,1955.7969,541,1951.7969" style="stroke:#000000;stroke-width:1.0;"/><line style="stroke:#000000;stroke-width:1.0;stroke-dasharray:2.0,2.0;" x1="539" x2="990" y1="1951.7969" y2="1951.7969"/><text fill="#000000" font-family="sans-serif" font-size="20" lengthAdjust="spacing" textLength="394" x="551" y="1945.0801">Return selected Patient Medical History</text><polygon fill="#000000" points="974,1985.0781,984,1989.0781,974,1993.0781,978,1989.0781" style="stroke:#000000;stroke-width:1.0;"/><line style="stroke:#000000;stroke-width:1.0;" x1="534" x2="980" y1="1989.0781" y2="1989.0781"/><text fill="#000000" font-family="sans-serif" font-size="20" lengthAdjust="spacing" textLength="273" x="541" y="1982.3613">openMedicalHistoryModal()</text><polygon fill="#000000" points="545,2022.3594,535,2026.3594,545,2030.3594,541,2026.3594" style="stroke:#000000;stroke-width:1.0;"/><line style="stroke:#000000;stroke-width:1.0;stroke-dasharray:2.0,2.0;" x1="539" x2="990" y1="2026.3594" y2="2026.3594"/><text fill="#000000" font-family="sans-serif" font-size="20" lengthAdjust="spacing" textLength="293" x="551" y="2019.6426">Return Medical History Modal</text><polygon fill="#000000" points="57,2059.6406,47,2063.6406,57,2067.6406,53,2063.6406" style="stroke:#000000;stroke-width:1.0;"/><line style="stroke:#000000;stroke-width:1.0;stroke-dasharray:2.0,2.0;" x1="51" x2="528" y1="2063.6406" y2="2063.6406"/><text fill="#000000" font-family="sans-serif" font-size="20" lengthAdjust="spacing" textLength="308" x="63" y="2056.9238">Displays Medical History Modal</text><!--SRC=[vLR1Jjj04BtxAqPm00vGIjNIHXJ9Zcs1H2eKK_UyjIVnAiwkkxi9ebN_lRDsdCIEam37aaEYhDzxEpD-ixDwmaN159lcCfbW2YcEs2mteHGcuhyHBiuTnt2J8zpX77Fu0640FcTZei18AlWUmUNPnTcbusGyHS1fOPvWYjEVgBJZw5eUafnf3NySe8_7aibOoPb8-pANwkegeUsKp7DKrzTmw7yAtF1pDrAZclC4IzZxy2BmjWbE2obG60iC_S3ppxk0z2m8lmINvJDNAVbOBNivuPo_w_4NjCB6s9q170PU-37qB8KbXXPyMVum3Rv30eOdl632m47CyV70hiVDzG6cF67v3TV4UnemGPkfVfr6oHZS3FgxI55LcmKsQaBTcSbkXK6LO47W4kJUDZ03FxQhNj1Q7PQ2_h3CZS-PGKhAXzDhY7lWwadfWtjcE0LAm2ec668YLRgYn4viAJQ97b3fA9GxBYPVZzvDAyPfLgLnEgsIFrfnoymT-rr9H3qOewct_C5DvgPp9X9CGvwJyF79EZSYPcI9xcqF8XIfXfk7XtkAyDSCjG4ZOOGcoLOvhDXK8lUsvYxhfy5a26h1Po85bgRLef4J55RI_icGfQWS8Kb9yN5cG8wifBNGmnBCjQLJypLOeEq_PiebMtrBIfW0Hc-IegIIaMgvDor8PRjrBQepXn85k_CY0PBepFwHghUAkb68vRjS66ojg1IFDKQj6reQwffOFLjKROXcfeHUgswA3I4RN_rQs-1rB1MkV95B5-q2M-IcPLnxnemvwbSwPCd_7ntY1SysI4STwDZmWbgcziCAPv-r3B5ys704wNGPmkt2RdL4jxHzqHkMM7YyBqNA3PVYjTQeUsKbzCOzigiWdMRf87IufWErtpsxILjjj9ksPgTg5hPexI7UvD94YqkYtwCBbIvozjHzaiNESjX6c6DYzCRvNCrQM_evNI_e4cSOpzV7M6FuMin2mQ-GnuiHNEbyczdRsqbh_6wPliqho5wXPxUJBbCbE- -THM-okPvVdbQhxPZk7SssTvlzhVSIYQsD-1AHocJjhdoXHDMTTHYoGD6weCkKvSVTFTBOjhKBbCIDlJgEWht4sFa7]--></g></svg>