<?xml version="1.0" encoding="UTF-8" standalone="no"?><svg xmlns="http://www.w3.org/2000/svg" xmlns:xlink="http://www.w3.org/1999/xlink" contentStyleType="text/css" height="1835px" preserveAspectRatio="none" style="width:4116px;height:1835px;background:#FFFFFF;" version="1.1" viewBox="0 0 4116 1835" width="4116px" zoomAndPan="magnify"><defs/><g><text fill="#000000" font-family="sans-serif" font-size="14" font-weight="bold" lengthAdjust="spacing" textLength="165" x="1974.75" y="27.9951">Level 3 MDR Diagram</text><rect fill="#FFFFFF" height="912.75" style="stroke:#181818;stroke-width:1.0;" width="10" x="19.5" y="90.5781"/><rect fill="#FFFFFF" height="734.3438" style="stroke:#181818;stroke-width:1.0;" width="10" x="79" y="1040.6094"/><rect fill="#FFFFFF" height="423.0938" style="stroke:#181818;stroke-width:1.0;" width="10" x="833" y="119.8594"/><rect fill="#FFFFFF" height="734.3438" style="stroke:#181818;stroke-width:1.0;" width="10" x="833" y="1040.6094"/><rect fill="#FFFFFF" height="348.5313" style="stroke:#181818;stroke-width:1.0;" width="10" x="1170" y="157.1406"/><rect fill="#FFFFFF" height="659.7813" style="stroke:#181818;stroke-width:1.0;" width="10" x="1170" y="1077.8906"/><rect fill="#FFFFFF" height="111.8438" style="stroke:#181818;stroke-width:1.0;" width="10" x="1465.5" y="194.4219"/><rect fill="#FFFFFF" height="111.8438" style="stroke:#181818;stroke-width:1.0;" width="10" x="1465.5" y="1115.1719"/><rect fill="#FFFFFF" height="111.8438" style="stroke:#181818;stroke-width:1.0;" width="10" x="1465.5" y="1351.8594"/><rect fill="#FFFFFF" height="124.8438" style="stroke:#181818;stroke-width:1.0;" width="10" x="1762" y="343.5469"/><rect fill="#FFFFFF" height="43.2813" style="stroke:#181818;stroke-width:1.0;" width="10" x="2318" y="380.8281"/><rect fill="#FFFFFF" height="43.2813" style="stroke:#181818;stroke-width:1.0;" width="10" x="2579" y="1264.2969"/><rect fill="#FFFFFF" height="111.8438" style="stroke:#181818;stroke-width:1.0;" width="10" x="2871" y="1588.5469"/><rect fill="#FFFFFF" height="43.2813" style="stroke:#181818;stroke-width:1.0;" width="10" x="2984" y="1500.9844"/><rect fill="#FFFFFF" height="423.0938" style="stroke:#181818;stroke-width:1.0;" width="10" x="3099" y="580.2344"/><rect fill="#FFFFFF" height="348.5313" style="stroke:#181818;stroke-width:1.0;" width="10" x="3301" y="617.5156"/><rect fill="#FFFFFF" height="111.8438" style="stroke:#181818;stroke-width:1.0;" width="10" x="3470" y="654.7969"/><rect fill="#FFFFFF" height="124.8438" style="stroke:#181818;stroke-width:1.0;" width="10" x="3631.5" y="803.9219"/><rect fill="#FFFFFF" height="43.2813" style="stroke:#181818;stroke-width:1.0;" width="10" x="3921.5" y="841.2031"/><rect fill="#FFFFFF" height="37.2813" style="stroke:#181818;stroke-width:1.0;" width="10" x="4051.5" y="231.7031"/><rect fill="#FFFFFF" height="37.2813" style="stroke:#181818;stroke-width:1.0;" width="10" x="4051.5" y="692.0781"/><rect fill="#FFFFFF" height="37.2813" style="stroke:#181818;stroke-width:1.0;" width="10" x="4051.5" y="1152.4531"/><rect fill="#FFFFFF" height="37.2813" style="stroke:#181818;stroke-width:1.0;" width="10" x="4051.5" y="1389.1406"/><rect fill="#FFFFFF" height="37.2813" style="stroke:#181818;stroke-width:1.0;" width="10" x="4051.5" y="1625.8281"/><line style="stroke:#181818;stroke-width:0.5;stroke-dasharray:5.0,5.0;" x1="24" x2="24" y1="80.5781" y2="1792.9531"/><line style="stroke:#181818;stroke-width:0.5;stroke-dasharray:5.0,5.0;" x1="84" x2="84" y1="80.5781" y2="1792.9531"/><line style="stroke:#181818;stroke-width:0.5;stroke-dasharray:5.0,5.0;" x1="837.5" x2="837.5" y1="80.5781" y2="1792.9531"/><line style="stroke:#181818;stroke-width:0.5;stroke-dasharray:5.0,5.0;" x1="1174.5" x2="1174.5" y1="80.5781" y2="1792.9531"/><line style="stroke:#181818;stroke-width:0.5;stroke-dasharray:5.0,5.0;" x1="1470.5" x2="1470.5" y1="80.5781" y2="1792.9531"/><line style="stroke:#181818;stroke-width:0.5;stroke-dasharray:5.0,5.0;" x1="1766.5" x2="1766.5" y1="80.5781" y2="1792.9531"/><line style="stroke:#181818;stroke-width:0.5;stroke-dasharray:5.0,5.0;" x1="2322.5" x2="2322.5" y1="80.5781" y2="1792.9531"/><line style="stroke:#181818;stroke-width:0.5;stroke-dasharray:5.0,5.0;" x1="2584" x2="2584" y1="80.5781" y2="1792.9531"/><line style="stroke:#181818;stroke-width:0.5;stroke-dasharray:5.0,5.0;" x1="2876" x2="2876" y1="80.5781" y2="1792.9531"/><line style="stroke:#181818;stroke-width:0.5;stroke-dasharray:5.0,5.0;" x1="2989" x2="2989" y1="80.5781" y2="1792.9531"/><line style="stroke:#181818;stroke-width:0.5;stroke-dasharray:5.0,5.0;" x1="3104" x2="3104" y1="80.5781" y2="1792.9531"/><line style="stroke:#181818;stroke-width:0.5;stroke-dasharray:5.0,5.0;" x1="3306" x2="3306" y1="80.5781" y2="1792.9531"/><line style="stroke:#181818;stroke-width:0.5;stroke-dasharray:5.0,5.0;" x1="3474.5" x2="3474.5" y1="80.5781" y2="1792.9531"/><line style="stroke:#181818;stroke-width:0.5;stroke-dasharray:5.0,5.0;" x1="3636.5" x2="3636.5" y1="80.5781" y2="1792.9531"/><line style="stroke:#181818;stroke-width:0.5;stroke-dasharray:5.0,5.0;" x1="3926.5" x2="3926.5" y1="80.5781" y2="1792.9531"/><line style="stroke:#181818;stroke-width:0.5;stroke-dasharray:5.0,5.0;" x1="4056.5" x2="4056.5" y1="80.5781" y2="1792.9531"/><rect fill="#E2E2F0" height="37.2813" rx="2.5" ry="2.5" style="stroke:#181818;stroke-width:0.5;" width="39" x="5" y="42.2969"/><text fill="#000000" font-family="sans-serif" font-size="20" lengthAdjust="spacing" textLength="25" x="12" y="67.8613">FE</text><rect fill="#E2E2F0" height="37.2813" rx="2.5" ry="2.5" style="stroke:#181818;stroke-width:0.5;" width="39" x="5" y="1791.9531"/><text fill="#000000" font-family="sans-serif" font-size="20" lengthAdjust="spacing" textLength="25" x="12" y="1817.5176">FE</text><rect fill="#E2E2F0" height="37.2813" rx="2.5" ry="2.5" style="stroke:#181818;stroke-width:0.5;" width="60" x="54" y="42.2969"/><text fill="#000000" font-family="sans-serif" font-size="20" lengthAdjust="spacing" textLength="46" x="61" y="67.8613">MDV</text><rect fill="#E2E2F0" height="37.2813" rx="2.5" ry="2.5" style="stroke:#181818;stroke-width:0.5;" width="60" x="54" y="1791.9531"/><text fill="#000000" font-family="sans-serif" font-size="20" lengthAdjust="spacing" textLength="46" x="61" y="1817.5176">MDV</text><rect fill="#E2E2F0" height="37.2813" rx="2.5" ry="2.5" style="stroke:#181818;stroke-width:0.5;" width="295" x="690.5" y="42.2969"/><text fill="#000000" font-family="sans-serif" font-size="20" lengthAdjust="spacing" textLength="281" x="697.5" y="67.8613">OperationRequestController</text><rect fill="#E2E2F0" height="37.2813" rx="2.5" ry="2.5" style="stroke:#181818;stroke-width:0.5;" width="295" x="690.5" y="1791.9531"/><text fill="#000000" font-family="sans-serif" font-size="20" lengthAdjust="spacing" textLength="281" x="697.5" y="1817.5176">OperationRequestController</text><rect fill="#E2E2F0" height="37.2813" rx="2.5" ry="2.5" style="stroke:#181818;stroke-width:0.5;" width="269" x="1040.5" y="42.2969"/><text fill="#000000" font-family="sans-serif" font-size="20" lengthAdjust="spacing" textLength="255" x="1047.5" y="67.8613">OperationRequestService</text><rect fill="#E2E2F0" height="37.2813" rx="2.5" ry="2.5" style="stroke:#181818;stroke-width:0.5;" width="269" x="1040.5" y="1791.9531"/><text fill="#000000" font-family="sans-serif" font-size="20" lengthAdjust="spacing" textLength="255" x="1047.5" y="1817.5176">OperationRequestService</text><rect fill="#E2E2F0" height="37.2813" rx="2.5" ry="2.5" style="stroke:#181818;stroke-width:0.5;" width="302" x="1319.5" y="42.2969"/><text fill="#000000" font-family="sans-serif" font-size="20" lengthAdjust="spacing" textLength="288" x="1326.5" y="67.8613">OperationRequestRepository</text><rect fill="#E2E2F0" height="37.2813" rx="2.5" ry="2.5" style="stroke:#181818;stroke-width:0.5;" width="302" x="1319.5" y="1791.9531"/><text fill="#000000" font-family="sans-serif" font-size="20" lengthAdjust="spacing" textLength="288" x="1326.5" y="1817.5176">OperationRequestRepository</text><rect fill="#E2E2F0" height="37.2813" rx="2.5" ry="2.5" style="stroke:#181818;stroke-width:0.5;" width="271" x="1631.5" y="42.2969"/><text fill="#000000" font-family="sans-serif" font-size="20" lengthAdjust="spacing" textLength="257" x="1638.5" y="67.8613">OperationRequestMapper</text><rect fill="#E2E2F0" height="37.2813" rx="2.5" ry="2.5" style="stroke:#181818;stroke-width:0.5;" width="271" x="1631.5" y="1791.9531"/><text fill="#000000" font-family="sans-serif" font-size="20" lengthAdjust="spacing" textLength="257" x="1638.5" y="1817.5176">OperationRequestMapper</text><rect fill="#E2E2F0" height="37.2813" rx="2.5" ry="2.5" style="stroke:#181818;stroke-width:0.5;" width="239" x="2203.5" y="42.2969"/><text fill="#000000" font-family="sans-serif" font-size="20" lengthAdjust="spacing" textLength="225" x="2210.5" y="67.8613">OperationRequestDTO</text><rect fill="#E2E2F0" height="37.2813" rx="2.5" ry="2.5" style="stroke:#181818;stroke-width:0.5;" width="239" x="2203.5" y="1791.9531"/><text fill="#000000" font-family="sans-serif" font-size="20" lengthAdjust="spacing" textLength="225" x="2210.5" y="1817.5176">OperationRequestDTO</text><rect fill="#E2E2F0" height="37.2813" rx="2.5" ry="2.5" style="stroke:#181818;stroke-width:0.5;" width="196" x="2486" y="42.2969"/><text fill="#000000" font-family="sans-serif" font-size="20" lengthAdjust="spacing" textLength="182" x="2493" y="67.8613">OperationRequest</text><rect fill="#E2E2F0" height="37.2813" rx="2.5" ry="2.5" style="stroke:#181818;stroke-width:0.5;" width="196" x="2486" y="1791.9531"/><text fill="#000000" font-family="sans-serif" font-size="20" lengthAdjust="spacing" textLength="182" x="2493" y="1817.5176">OperationRequest</text><rect fill="#E2E2F0" height="37.2813" rx="2.5" ry="2.5" style="stroke:#181818;stroke-width:0.5;" width="156" x="2798" y="42.2969"/><text fill="#000000" font-family="sans-serif" font-size="20" lengthAdjust="spacing" textLength="142" x="2805" y="67.8613">LogRepository</text><rect fill="#E2E2F0" height="37.2813" rx="2.5" ry="2.5" style="stroke:#181818;stroke-width:0.5;" width="156" x="2798" y="1791.9531"/><text fill="#000000" font-family="sans-serif" font-size="20" lengthAdjust="spacing" textLength="142" x="2805" y="1817.5176">LogRepository</text><rect fill="#E2E2F0" height="37.2813" rx="2.5" ry="2.5" style="stroke:#181818;stroke-width:0.5;" width="50" x="2964" y="42.2969"/><text fill="#000000" font-family="sans-serif" font-size="20" lengthAdjust="spacing" textLength="36" x="2971" y="67.8613">Log</text><rect fill="#E2E2F0" height="37.2813" rx="2.5" ry="2.5" style="stroke:#181818;stroke-width:0.5;" width="50" x="2964" y="1791.9531"/><text fill="#000000" font-family="sans-serif" font-size="20" lengthAdjust="spacing" textLength="36" x="2971" y="1817.5176">Log</text><rect fill="#E2E2F0" height="37.2813" rx="2.5" ry="2.5" style="stroke:#181818;stroke-width:0.5;" width="160" x="3024" y="42.2969"/><text fill="#000000" font-family="sans-serif" font-size="20" lengthAdjust="spacing" textLength="146" x="3031" y="67.8613">StaffController</text><rect fill="#E2E2F0" height="37.2813" rx="2.5" ry="2.5" style="stroke:#181818;stroke-width:0.5;" width="160" x="3024" y="1791.9531"/><text fill="#000000" font-family="sans-serif" font-size="20" lengthAdjust="spacing" textLength="146" x="3031" y="1817.5176">StaffController</text><rect fill="#E2E2F0" height="37.2813" rx="2.5" ry="2.5" style="stroke:#181818;stroke-width:0.5;" width="134" x="3239" y="42.2969"/><text fill="#000000" font-family="sans-serif" font-size="20" lengthAdjust="spacing" textLength="120" x="3246" y="67.8613">StaffService</text><rect fill="#E2E2F0" height="37.2813" rx="2.5" ry="2.5" style="stroke:#181818;stroke-width:0.5;" width="134" x="3239" y="1791.9531"/><text fill="#000000" font-family="sans-serif" font-size="20" lengthAdjust="spacing" textLength="120" x="3246" y="1817.5176">StaffService</text><rect fill="#E2E2F0" height="37.2813" rx="2.5" ry="2.5" style="stroke:#181818;stroke-width:0.5;" width="167" x="3391.5" y="42.2969"/><text fill="#000000" font-family="sans-serif" font-size="20" lengthAdjust="spacing" textLength="153" x="3398.5" y="67.8613">StaffRepository</text><rect fill="#E2E2F0" height="37.2813" rx="2.5" ry="2.5" style="stroke:#181818;stroke-width:0.5;" width="167" x="3391.5" y="1791.9531"/><text fill="#000000" font-family="sans-serif" font-size="20" lengthAdjust="spacing" textLength="153" x="3398.5" y="1817.5176">StaffRepository</text><rect fill="#E2E2F0" height="37.2813" rx="2.5" ry="2.5" style="stroke:#181818;stroke-width:0.5;" width="136" x="3568.5" y="42.2969"/><text fill="#000000" font-family="sans-serif" font-size="20" lengthAdjust="spacing" textLength="122" x="3575.5" y="67.8613">StaffMapper</text><rect fill="#E2E2F0" height="37.2813" rx="2.5" ry="2.5" style="stroke:#181818;stroke-width:0.5;" width="136" x="3568.5" y="1791.9531"/><text fill="#000000" font-family="sans-serif" font-size="20" lengthAdjust="spacing" textLength="122" x="3575.5" y="1817.5176">StaffMapper</text><rect fill="#E2E2F0" height="37.2813" rx="2.5" ry="2.5" style="stroke:#181818;stroke-width:0.5;" width="104" x="3874.5" y="42.2969"/><text fill="#000000" font-family="sans-serif" font-size="20" lengthAdjust="spacing" textLength="90" x="3881.5" y="67.8613">StaffDTO</text><rect fill="#E2E2F0" height="37.2813" rx="2.5" ry="2.5" style="stroke:#181818;stroke-width:0.5;" width="104" x="3874.5" y="1791.9531"/><text fill="#000000" font-family="sans-serif" font-size="20" lengthAdjust="spacing" textLength="90" x="3881.5" y="1817.5176">StaffDTO</text><rect fill="#E2E2F0" height="37.2813" rx="2.5" ry="2.5" style="stroke:#181818;stroke-width:0.5;" width="108" x="4002.5" y="42.2969"/><text fill="#000000" font-family="sans-serif" font-size="20" lengthAdjust="spacing" textLength="94" x="4009.5" y="67.8613">Database</text><rect fill="#E2E2F0" height="37.2813" rx="2.5" ry="2.5" style="stroke:#181818;stroke-width:0.5;" width="108" x="4002.5" y="1791.9531"/><text fill="#000000" font-family="sans-serif" font-size="20" lengthAdjust="spacing" textLength="94" x="4009.5" y="1817.5176">Database</text><rect fill="#FFFFFF" height="912.75" style="stroke:#181818;stroke-width:1.0;" width="10" x="19.5" y="90.5781"/><rect fill="#FFFFFF" height="734.3438" style="stroke:#181818;stroke-width:1.0;" width="10" x="79" y="1040.6094"/><rect fill="#FFFFFF" height="423.0938" style="stroke:#181818;stroke-width:1.0;" width="10" x="833" y="119.8594"/><rect fill="#FFFFFF" height="734.3438" style="stroke:#181818;stroke-width:1.0;" width="10" x="833" y="1040.6094"/><rect fill="#FFFFFF" height="348.5313" style="stroke:#181818;stroke-width:1.0;" width="10" x="1170" y="157.1406"/><rect fill="#FFFFFF" height="659.7813" style="stroke:#181818;stroke-width:1.0;" width="10" x="1170" y="1077.8906"/><rect fill="#FFFFFF" height="111.8438" style="stroke:#181818;stroke-width:1.0;" width="10" x="1465.5" y="194.4219"/><rect fill="#FFFFFF" height="111.8438" style="stroke:#181818;stroke-width:1.0;" width="10" x="1465.5" y="1115.1719"/><rect fill="#FFFFFF" height="111.8438" style="stroke:#181818;stroke-width:1.0;" width="10" x="1465.5" y="1351.8594"/><rect fill="#FFFFFF" height="124.8438" style="stroke:#181818;stroke-width:1.0;" width="10" x="1762" y="343.5469"/><rect fill="#FFFFFF" height="43.2813" style="stroke:#181818;stroke-width:1.0;" width="10" x="2318" y="380.8281"/><rect fill="#FFFFFF" height="43.2813" style="stroke:#181818;stroke-width:1.0;" width="10" x="2579" y="1264.2969"/><rect fill="#FFFFFF" height="111.8438" style="stroke:#181818;stroke-width:1.0;" width="10" x="2871" y="1588.5469"/><rect fill="#FFFFFF" height="43.2813" style="stroke:#181818;stroke-width:1.0;" width="10" x="2984" y="1500.9844"/><rect fill="#FFFFFF" height="423.0938" style="stroke:#181818;stroke-width:1.0;" width="10" x="3099" y="580.2344"/><rect fill="#FFFFFF" height="348.5313" style="stroke:#181818;stroke-width:1.0;" width="10" x="3301" y="617.5156"/><rect fill="#FFFFFF" height="111.8438" style="stroke:#181818;stroke-width:1.0;" width="10" x="3470" y="654.7969"/><rect fill="#FFFFFF" height="124.8438" style="stroke:#181818;stroke-width:1.0;" width="10" x="3631.5" y="803.9219"/><rect fill="#FFFFFF" height="43.2813" style="stroke:#181818;stroke-width:1.0;" width="10" x="3921.5" y="841.2031"/><rect fill="#FFFFFF" height="37.2813" style="stroke:#181818;stroke-width:1.0;" width="10" x="4051.5" y="231.7031"/><rect fill="#FFFFFF" height="37.2813" style="stroke:#181818;stroke-width:1.0;" width="10" x="4051.5" y="692.0781"/><rect fill="#FFFFFF" height="37.2813" style="stroke:#181818;stroke-width:1.0;" width="10" x="4051.5" y="1152.4531"/><rect fill="#FFFFFF" height="37.2813" style="stroke:#181818;stroke-width:1.0;" width="10" x="4051.5" y="1389.1406"/><rect fill="#FFFFFF" height="37.2813" style="stroke:#181818;stroke-width:1.0;" width="10" x="4051.5" y="1625.8281"/><polygon fill="#000000" points="821,115.8594,831,119.8594,821,123.8594,825,119.8594" style="stroke:#000000;stroke-width:1.0;"/><line style="stroke:#000000;stroke-width:1.0;" x1="29.5" x2="827" y1="119.8594" y2="119.8594"/><text fill="#000000" font-family="sans-serif" font-size="20" lengthAdjust="spacing" textLength="460" x="36.5" y="113.1426">Makes Http Request to get Operation Request</text><polygon fill="#000000" points="1158,153.1406,1168,157.1406,1158,161.1406,1162,157.1406" style="stroke:#000000;stroke-width:1.0;"/><line style="stroke:#000000;stroke-width:1.0;" x1="843" x2="1164" y1="157.1406" y2="157.1406"/><text fill="#000000" font-family="sans-serif" font-size="20" lengthAdjust="spacing" textLength="250" x="850" y="150.4238">getOperationRequest(id)</text><polygon fill="#000000" points="1453.5,190.4219,1463.5,194.4219,1453.5,198.4219,1457.5,194.4219" style="stroke:#000000;stroke-width:1.0;"/><line style="stroke:#000000;stroke-width:1.0;" x1="1180" x2="1459.5" y1="194.4219" y2="194.4219"/><text fill="#000000" font-family="sans-serif" font-size="20" lengthAdjust="spacing" textLength="118" x="1187" y="187.7051">findById(id)</text><polygon fill="#000000" points="4039.5,227.7031,4049.5,231.7031,4039.5,235.7031,4043.5,231.7031" style="stroke:#000000;stroke-width:1.0;"/><line style="stroke:#000000;stroke-width:1.0;" x1="1475.5" x2="4045.5" y1="231.7031" y2="231.7031"/><text fill="#000000" font-family="sans-serif" font-size="20" lengthAdjust="spacing" textLength="499" x="1482.5" y="224.9863">SELECT * FROM OperationRequest WHERE id = id</text><polygon fill="#000000" points="1486.5,264.9844,1476.5,268.9844,1486.5,272.9844,1482.5,268.9844" style="stroke:#000000;stroke-width:1.0;"/><line style="stroke:#000000;stroke-width:1.0;stroke-dasharray:2.0,2.0;" x1="1480.5" x2="4055.5" y1="268.9844" y2="268.9844"/><text fill="#000000" font-family="sans-serif" font-size="20" lengthAdjust="spacing" textLength="260" x="1492.5" y="262.2676">returns OperationRequest</text><polygon fill="#000000" points="1191,302.2656,1181,306.2656,1191,310.2656,1187,306.2656" style="stroke:#000000;stroke-width:1.0;"/><line style="stroke:#000000;stroke-width:1.0;stroke-dasharray:2.0,2.0;" x1="1185" x2="1469.5" y1="306.2656" y2="306.2656"/><text fill="#000000" font-family="sans-serif" font-size="20" lengthAdjust="spacing" textLength="260" x="1197" y="299.5488">returns OperationRequest</text><polygon fill="#000000" points="1750,339.5469,1760,343.5469,1750,347.5469,1754,343.5469" style="stroke:#000000;stroke-width:1.0;"/><line style="stroke:#000000;stroke-width:1.0;" x1="1180" x2="1756" y1="343.5469" y2="343.5469"/><text fill="#000000" font-family="sans-serif" font-size="20" lengthAdjust="spacing" textLength="253" x="1187" y="336.8301">toDto(OperationRequest)</text><polygon fill="#000000" points="2306,376.8281,2316,380.8281,2306,384.8281,2310,380.8281" style="stroke:#000000;stroke-width:1.0;"/><line style="stroke:#000000;stroke-width:1.0;" x1="1772" x2="2312" y1="380.8281" y2="380.8281"/><text fill="#000000" font-family="sans-serif" font-size="20" lengthAdjust="spacing" textLength="527" x="1779" y="374.1113">new OperationRequestDTO(operationRequest fields)</text><line style="stroke:#000000;stroke-width:1.0;stroke-dasharray:2.0,2.0;" x1="2328" x2="2370" y1="423.1094" y2="423.1094"/><line style="stroke:#000000;stroke-width:1.0;stroke-dasharray:2.0,2.0;" x1="2370" x2="2370" y1="423.1094" y2="436.1094"/><line style="stroke:#000000;stroke-width:1.0;stroke-dasharray:2.0,2.0;" x1="2323" x2="2370" y1="436.1094" y2="436.1094"/><polygon fill="#000000" points="2333,432.1094,2323,436.1094,2333,440.1094,2329,436.1094" style="stroke:#000000;stroke-width:1.0;"/><text fill="#000000" font-family="sans-serif" font-size="20" lengthAdjust="spacing" textLength="237" x="2335" y="416.3926">operationRequestDTO()</text><polygon fill="#000000" points="1191,464.3906,1181,468.3906,1191,472.3906,1187,468.3906" style="stroke:#000000;stroke-width:1.0;"/><line style="stroke:#000000;stroke-width:1.0;stroke-dasharray:2.0,2.0;" x1="1185" x2="1766" y1="468.3906" y2="468.3906"/><text fill="#000000" font-family="sans-serif" font-size="20" lengthAdjust="spacing" textLength="303" x="1197" y="461.6738">returns OperationRequestDTO</text><polygon fill="#000000" points="854,501.6719,844,505.6719,854,509.6719,850,505.6719" style="stroke:#000000;stroke-width:1.0;"/><line style="stroke:#000000;stroke-width:1.0;stroke-dasharray:2.0,2.0;" x1="848" x2="1174" y1="505.6719" y2="505.6719"/><text fill="#000000" font-family="sans-serif" font-size="20" lengthAdjust="spacing" textLength="303" x="860" y="498.9551">returns OperationRequestDTO</text><polygon fill="#000000" points="40.5,538.9531,30.5,542.9531,40.5,546.9531,36.5,542.9531" style="stroke:#000000;stroke-width:1.0;"/><line style="stroke:#000000;stroke-width:1.0;stroke-dasharray:2.0,2.0;" x1="34.5" x2="837" y1="542.9531" y2="542.9531"/><text fill="#000000" font-family="sans-serif" font-size="20" lengthAdjust="spacing" textLength="305" x="46.5" y="536.2363">returns Operation Status Code</text><polygon fill="#000000" points="3087,576.2344,3097,580.2344,3087,584.2344,3091,580.2344" style="stroke:#000000;stroke-width:1.0;"/><line style="stroke:#000000;stroke-width:1.0;" x1="29.5" x2="3093" y1="580.2344" y2="580.2344"/><text fill="#000000" font-family="sans-serif" font-size="20" lengthAdjust="spacing" textLength="386" x="36.5" y="573.5176">Makes Http Request to get Staff's data</text><polygon fill="#000000" points="3289,613.5156,3299,617.5156,3289,621.5156,3293,617.5156" style="stroke:#000000;stroke-width:1.0;"/><line style="stroke:#000000;stroke-width:1.0;" x1="3109" x2="3295" y1="617.5156" y2="617.5156"/><text fill="#000000" font-family="sans-serif" font-size="20" lengthAdjust="spacing" textLength="96" x="3116" y="610.7988">getStaff()</text><polygon fill="#000000" points="3458,650.7969,3468,654.7969,3458,658.7969,3462,654.7969" style="stroke:#000000;stroke-width:1.0;"/><line style="stroke:#000000;stroke-width:1.0;" x1="3311" x2="3464" y1="654.7969" y2="654.7969"/><text fill="#000000" font-family="sans-serif" font-size="20" lengthAdjust="spacing" textLength="81" x="3318" y="648.0801">findAll()</text><polygon fill="#000000" points="4039.5,688.0781,4049.5,692.0781,4039.5,696.0781,4043.5,692.0781" style="stroke:#000000;stroke-width:1.0;"/><line style="stroke:#000000;stroke-width:1.0;" x1="3480" x2="4045.5" y1="692.0781" y2="692.0781"/><text fill="#000000" font-family="sans-serif" font-size="20" lengthAdjust="spacing" textLength="210" x="3487" y="685.3613">SELECT * FROM Staff</text><polygon fill="#000000" points="3491,725.3594,3481,729.3594,3491,733.3594,3487,729.3594" style="stroke:#000000;stroke-width:1.0;"/><line style="stroke:#000000;stroke-width:1.0;stroke-dasharray:2.0,2.0;" x1="3485" x2="4055.5" y1="729.3594" y2="729.3594"/><text fill="#000000" font-family="sans-serif" font-size="20" lengthAdjust="spacing" textLength="135" x="3497" y="722.6426">returns Staffs</text><polygon fill="#000000" points="3322,762.6406,3312,766.6406,3322,770.6406,3318,766.6406" style="stroke:#000000;stroke-width:1.0;"/><line style="stroke:#000000;stroke-width:1.0;stroke-dasharray:2.0,2.0;" x1="3316" x2="3474" y1="766.6406" y2="766.6406"/><text fill="#000000" font-family="sans-serif" font-size="20" lengthAdjust="spacing" textLength="135" x="3328" y="759.9238">returns Staffs</text><polygon fill="#000000" points="3619.5,799.9219,3629.5,803.9219,3619.5,807.9219,3623.5,803.9219" style="stroke:#000000;stroke-width:1.0;"/><line style="stroke:#000000;stroke-width:1.0;" x1="3311" x2="3625.5" y1="803.9219" y2="803.9219"/><text fill="#000000" font-family="sans-serif" font-size="20" lengthAdjust="spacing" textLength="118" x="3318" y="797.2051">toDto(Staff)</text><polygon fill="#000000" points="3909.5,837.2031,3919.5,841.2031,3909.5,845.2031,3913.5,841.2031" style="stroke:#000000;stroke-width:1.0;"/><line style="stroke:#000000;stroke-width:1.0;" x1="3641.5" x2="3915.5" y1="841.2031" y2="841.2031"/><text fill="#000000" font-family="sans-serif" font-size="20" lengthAdjust="spacing" textLength="261" x="3648.5" y="834.4863">new StaffDTO(Staff fields)</text><line style="stroke:#000000;stroke-width:1.0;stroke-dasharray:2.0,2.0;" x1="3931.5" x2="3973.5" y1="883.4844" y2="883.4844"/><line style="stroke:#000000;stroke-width:1.0;stroke-dasharray:2.0,2.0;" x1="3973.5" x2="3973.5" y1="883.4844" y2="896.4844"/><line style="stroke:#000000;stroke-width:1.0;stroke-dasharray:2.0,2.0;" x1="3926.5" x2="3973.5" y1="896.4844" y2="896.4844"/><polygon fill="#000000" points="3936.5,892.4844,3926.5,896.4844,3936.5,900.4844,3932.5,896.4844" style="stroke:#000000;stroke-width:1.0;"/><text fill="#000000" font-family="sans-serif" font-size="20" lengthAdjust="spacing" textLength="106" x="3938.5" y="876.7676">StaffDTO()</text><polygon fill="#000000" points="3322,924.7656,3312,928.7656,3322,932.7656,3318,928.7656" style="stroke:#000000;stroke-width:1.0;"/><line style="stroke:#000000;stroke-width:1.0;stroke-dasharray:2.0,2.0;" x1="3316" x2="3635.5" y1="928.7656" y2="928.7656"/><text fill="#000000" font-family="sans-serif" font-size="20" lengthAdjust="spacing" textLength="168" x="3328" y="922.0488">returns StaffDTO</text><polygon fill="#000000" points="3120,962.0469,3110,966.0469,3120,970.0469,3116,966.0469" style="stroke:#000000;stroke-width:1.0;"/><line style="stroke:#000000;stroke-width:1.0;stroke-dasharray:2.0,2.0;" x1="3114" x2="3305" y1="966.0469" y2="966.0469"/><text fill="#000000" font-family="sans-serif" font-size="20" lengthAdjust="spacing" textLength="168" x="3126" y="959.3301">returns StaffDTO</text><polygon fill="#000000" points="35.5,999.3281,25.5,1003.3281,35.5,1007.3281,31.5,1003.3281" style="stroke:#000000;stroke-width:1.0;"/><line style="stroke:#000000;stroke-width:1.0;stroke-dasharray:2.0,2.0;" x1="29.5" x2="3103" y1="1003.3281" y2="1003.3281"/><text fill="#000000" font-family="sans-serif" font-size="20" lengthAdjust="spacing" textLength="305" x="41.5" y="996.6113">returns Operation Status Code</text><polygon fill="#000000" points="821,1036.6094,831,1040.6094,821,1044.6094,825,1040.6094" style="stroke:#000000;stroke-width:1.0;"/><line style="stroke:#000000;stroke-width:1.0;" x1="89" x2="827" y1="1040.6094" y2="1040.6094"/><text fill="#000000" font-family="sans-serif" font-size="20" lengthAdjust="spacing" textLength="730" x="96" y="1033.8926">Makes Http Request to change Operation Request's status to "Accepted"</text><polygon fill="#000000" points="1158,1073.8906,1168,1077.8906,1158,1081.8906,1162,1077.8906" style="stroke:#000000;stroke-width:1.0;"/><line style="stroke:#000000;stroke-width:1.0;" x1="843" x2="1164" y1="1077.8906" y2="1077.8906"/><text fill="#000000" font-family="sans-serif" font-size="20" lengthAdjust="spacing" textLength="307" x="850" y="1071.1738">scheduleOperationRequest(id)</text><polygon fill="#000000" points="1453.5,1111.1719,1463.5,1115.1719,1453.5,1119.1719,1457.5,1115.1719" style="stroke:#000000;stroke-width:1.0;"/><line style="stroke:#000000;stroke-width:1.0;" x1="1180" x2="1459.5" y1="1115.1719" y2="1115.1719"/><text fill="#000000" font-family="sans-serif" font-size="20" lengthAdjust="spacing" textLength="118" x="1187" y="1108.4551">findById(id)</text><polygon fill="#000000" points="4039.5,1148.4531,4049.5,1152.4531,4039.5,1156.4531,4043.5,1152.4531" style="stroke:#000000;stroke-width:1.0;"/><line style="stroke:#000000;stroke-width:1.0;" x1="1475.5" x2="4045.5" y1="1152.4531" y2="1152.4531"/><text fill="#000000" font-family="sans-serif" font-size="20" lengthAdjust="spacing" textLength="499" x="1482.5" y="1145.7363">SELECT * FROM OperationRequest WHERE id = id</text><polygon fill="#000000" points="1486.5,1185.7344,1476.5,1189.7344,1486.5,1193.7344,1482.5,1189.7344" style="stroke:#000000;stroke-width:1.0;"/><line style="stroke:#000000;stroke-width:1.0;stroke-dasharray:2.0,2.0;" x1="1480.5" x2="4055.5" y1="1189.7344" y2="1189.7344"/><text fill="#000000" font-family="sans-serif" font-size="20" lengthAdjust="spacing" textLength="260" x="1492.5" y="1183.0176">returns OperationRequest</text><polygon fill="#000000" points="1191,1223.0156,1181,1227.0156,1191,1231.0156,1187,1227.0156" style="stroke:#000000;stroke-width:1.0;"/><line style="stroke:#000000;stroke-width:1.0;stroke-dasharray:2.0,2.0;" x1="1185" x2="1469.5" y1="1227.0156" y2="1227.0156"/><text fill="#000000" font-family="sans-serif" font-size="20" lengthAdjust="spacing" textLength="260" x="1197" y="1220.2988">returns OperationRequest</text><polygon fill="#000000" points="2567,1260.2969,2577,1264.2969,2567,1268.2969,2571,1264.2969" style="stroke:#000000;stroke-width:1.0;"/><line style="stroke:#000000;stroke-width:1.0;" x1="1180" x2="2573" y1="1264.2969" y2="1264.2969"/><text fill="#000000" font-family="sans-serif" font-size="20" lengthAdjust="spacing" textLength="268" x="1187" y="1257.5801">changeStatus("Accepted")</text><line style="stroke:#000000;stroke-width:1.0;" x1="2589" x2="2631" y1="1306.5781" y2="1306.5781"/><line style="stroke:#000000;stroke-width:1.0;" x1="2631" x2="2631" y1="1306.5781" y2="1319.5781"/><line style="stroke:#000000;stroke-width:1.0;" x1="2584" x2="2631" y1="1319.5781" y2="1319.5781"/><polygon fill="#000000" points="2594,1315.5781,2584,1319.5781,2594,1323.5781,2590,1319.5781" style="stroke:#000000;stroke-width:1.0;"/><text fill="#000000" font-family="sans-serif" font-size="20" lengthAdjust="spacing" textLength="268" x="2596" y="1299.8613">changeStatus("Accepted")</text><polygon fill="#000000" points="1453.5,1347.8594,1463.5,1351.8594,1453.5,1355.8594,1457.5,1351.8594" style="stroke:#000000;stroke-width:1.0;"/><line style="stroke:#000000;stroke-width:1.0;stroke-dasharray:2.0,2.0;" x1="1180" x2="1459.5" y1="1351.8594" y2="1351.8594"/><text fill="#000000" font-family="sans-serif" font-size="20" lengthAdjust="spacing" textLength="243" x="1187" y="1345.1426">save(OperationRequest)</text><polygon fill="#000000" points="4039.5,1385.1406,4049.5,1389.1406,4039.5,1393.1406,4043.5,1389.1406" style="stroke:#000000;stroke-width:1.0;"/><line style="stroke:#000000;stroke-width:1.0;" x1="1475.5" x2="4045.5" y1="1389.1406" y2="1389.1406"/><text fill="#000000" font-family="sans-serif" font-size="20" lengthAdjust="spacing" textLength="677" x="1482.5" y="1382.4238">UPDATE OperationRequest SET status = "Accepted" WHERE id = id</text><polygon fill="#000000" points="1486.5,1422.4219,1476.5,1426.4219,1486.5,1430.4219,1482.5,1426.4219" style="stroke:#000000;stroke-width:1.0;"/><line style="stroke:#000000;stroke-width:1.0;stroke-dasharray:2.0,2.0;" x1="1480.5" x2="4055.5" y1="1426.4219" y2="1426.4219"/><text fill="#000000" font-family="sans-serif" font-size="20" lengthAdjust="spacing" textLength="260" x="1492.5" y="1419.7051">returns OperationRequest</text><polygon fill="#000000" points="1191,1459.7031,1181,1463.7031,1191,1467.7031,1187,1463.7031" style="stroke:#000000;stroke-width:1.0;"/><line style="stroke:#000000;stroke-width:1.0;stroke-dasharray:2.0,2.0;" x1="1185" x2="1469.5" y1="1463.7031" y2="1463.7031"/><text fill="#000000" font-family="sans-serif" font-size="20" lengthAdjust="spacing" textLength="260" x="1197" y="1456.9863">returns OperationRequest</text><polygon fill="#000000" points="2972,1496.9844,2982,1500.9844,2972,1504.9844,2976,1500.9844" style="stroke:#000000;stroke-width:1.0;"/><line style="stroke:#000000;stroke-width:1.0;" x1="1180" x2="2978" y1="1500.9844" y2="1500.9844"/><text fill="#000000" font-family="sans-serif" font-size="20" lengthAdjust="spacing" textLength="864" x="1187" y="1494.2676">new Log(TypeOfAction.Update, operationRequest.Id, "Operation Request scheduled.")</text><line style="stroke:#000000;stroke-width:1.0;" x1="2994" x2="3036" y1="1543.2656" y2="1543.2656"/><line style="stroke:#000000;stroke-width:1.0;" x1="3036" x2="3036" y1="1543.2656" y2="1556.2656"/><line style="stroke:#000000;stroke-width:1.0;" x1="2989" x2="3036" y1="1556.2656" y2="1556.2656"/><polygon fill="#000000" points="2999,1552.2656,2989,1556.2656,2999,1560.2656,2995,1556.2656" style="stroke:#000000;stroke-width:1.0;"/><text fill="#000000" font-family="sans-serif" font-size="20" lengthAdjust="spacing" textLength="52" x="3001" y="1536.5488">Log()</text><polygon fill="#000000" points="2859,1584.5469,2869,1588.5469,2859,1592.5469,2863,1588.5469" style="stroke:#000000;stroke-width:1.0;"/><line style="stroke:#000000;stroke-width:1.0;" x1="1180" x2="2865" y1="1588.5469" y2="1588.5469"/><text fill="#000000" font-family="sans-serif" font-size="20" lengthAdjust="spacing" textLength="144" x="1187" y="1581.8301">addAsync(log)</text><polygon fill="#000000" points="4039.5,1621.8281,4049.5,1625.8281,4039.5,1629.8281,4043.5,1625.8281" style="stroke:#000000;stroke-width:1.0;"/><line style="stroke:#000000;stroke-width:1.0;" x1="2881" x2="4045.5" y1="1625.8281" y2="1625.8281"/><text fill="#000000" font-family="sans-serif" font-size="20" lengthAdjust="spacing" textLength="764" x="2888" y="1619.1113">INSERT INTO Log (TypeOfAction, OperationRequestId, Message) VALUES (...)</text><polygon fill="#000000" points="2892,1659.1094,2882,1663.1094,2892,1667.1094,2888,1663.1094" style="stroke:#000000;stroke-width:1.0;"/><line style="stroke:#000000;stroke-width:1.0;stroke-dasharray:2.0,2.0;" x1="2886" x2="4055.5" y1="1663.1094" y2="1663.1094"/><text fill="#000000" font-family="sans-serif" font-size="20" lengthAdjust="spacing" textLength="114" x="2898" y="1656.3926">returns Log</text><polygon fill="#000000" points="1191,1696.3906,1181,1700.3906,1191,1704.3906,1187,1700.3906" style="stroke:#000000;stroke-width:1.0;"/><line style="stroke:#000000;stroke-width:1.0;stroke-dasharray:2.0,2.0;" x1="1185" x2="2875" y1="1700.3906" y2="1700.3906"/><text fill="#000000" font-family="sans-serif" font-size="20" lengthAdjust="spacing" textLength="114" x="1197" y="1693.6738">returns Log</text><polygon fill="#000000" points="854,1733.6719,844,1737.6719,854,1741.6719,850,1737.6719" style="stroke:#000000;stroke-width:1.0;"/><line style="stroke:#000000;stroke-width:1.0;stroke-dasharray:2.0,2.0;" x1="848" x2="1174" y1="1737.6719" y2="1737.6719"/><text fill="#000000" font-family="sans-serif" font-size="20" lengthAdjust="spacing" textLength="158" x="860" y="1730.9551">returns boolean</text><polygon fill="#000000" points="95,1770.9531,85,1774.9531,95,1778.9531,91,1774.9531" style="stroke:#000000;stroke-width:1.0;"/><line style="stroke:#000000;stroke-width:1.0;stroke-dasharray:2.0,2.0;" x1="89" x2="837" y1="1774.9531" y2="1774.9531"/><text fill="#000000" font-family="sans-serif" font-size="20" lengthAdjust="spacing" textLength="305" x="101" y="1768.2363">returns Operation Status Code</text><!--SRC=[vLPTRzis57tdhxX87keCgT5rw3wCDe1bIMW0QHf4ftjcf6j7Yo9g8kt26_hVUoLADYKhIlisO0PimUIvN-SUNaezPaKfAl6Ko-GHKqXn8tQvzcMXUVOFmjitZEbCvmW1xZ67do1qOt0piIKRnXwo506VIds09townqgnLwfp2K5Me3wK2BBI3vAnqqwI2wNWNmRqSKJokAtahaXNCfVL-_TxaUymklyB4trp0vVkpzxI_tKSMadPO7pNSzmtunY5rJvBi77re__MSyPWS7btw__c_TBiBQjAVZRBJauuziNElQGLiSNnxE7IS_ntlbER45ndILQAGeFlWL3qsriCtK_rAZrwonTHYPNGcInY_7k7Ig-e6vNCSwmkQdmKhwRnt5JSWlaqECPIgapBwj3YusbyACgoJIISHhhhg7NfJWCDgey9v7QGMH2V8SnwVvbhiTaC6EEh4OpD4kSZW45y7ezWB3PuEBBVSS075BX2YtkXJ7JNOKmaEjiBZRL6I2olR-esBo0KZwZWezObj6I1bh153KSIkusJYreWz3LE-AA63ocVPUcLRS39W1k3U06Rh4YTmsqwHCM4YckKwoo0Uu6tMiCFuCTH2CC0yET7B_OWI-43_PoSKAsk0w-xI1NgNLMeCtEMectIXEtA-HORasjJKRWWobmjPqEyLLh8GbEyku02FyE8b6ToME4cmpnLFO9S2kgscP8hEUBcgf-cMqT-gJAoiwr2KrgdaM-qCarUDNQ-Ds86f5YzKx2IAVODLwqa-QGY6y6_Kf2Ija-aqDdZZHIvKMA3cbciqTdZJQDugxnbdlVsOyQV4LtZQqnRt99M0r83GN6Z9ywdS7LaazbHGmt8JYval94ERvNJdNg3FDS83G9k559R7D4zLTIOS3o_GK_hy4O9VFK2aZTj-DxUK_UiVpIR6AjlhUdnb3o8WYx8imb5sb0c384kbac2fSRqmZg6T1C-EyLKye3fBiV_yIYB5Ystfbkp4uTsRInw2MjxjsO95Q747gS6vO2ukp_SvTexPunxwwxL7wnE_tUO3CnffNU8sPhUKAFDCgcDvdSbJI-yFflSyzlqsdfnEQgz4sKwjriGiA0DKWVeyHqSCw12HPekrQ58PhdSskOn2uuKt_xElNXDZtLKUuDUljTdzTPvXgWKlQ5UmQTbSETncCtdywinjWEBRF8zu3SOeNU02kBng-XUoXn5yTprG-VyE-yV-_QZ8V4L]--></g></svg>