<?xml version="1.0" encoding="UTF-8" standalone="no"?><svg xmlns="http://www.w3.org/2000/svg" xmlns:xlink="http://www.w3.org/1999/xlink" contentStyleType="text/css" height="632px" preserveAspectRatio="none" style="width:2547px;height:632px;background:#FFFFFF;" version="1.1" viewBox="0 0 2547 632" width="2547px" zoomAndPan="magnify"><defs/><g><text fill="#000000" font-family="sans-serif" font-size="14" font-weight="bold" lengthAdjust="spacing" textLength="126" x="1212.5" y="27.9951">Level 2 Diagram</text><rect fill="#FFFFFF" height="399.8125" style="stroke:#181818;stroke-width:1.0;" width="10" x="36" y="135.5781"/><rect fill="#FFFFFF" height="162.125" style="stroke:#181818;stroke-width:1.0;" width="10" x="1476" y="164.8594"/><rect fill="#FFFFFF" height="162.125" style="stroke:#181818;stroke-width:1.0;" width="10" x="1476" y="364.2656"/><rect fill="#FFFFFF" height="87.5625" style="stroke:#181818;stroke-width:1.0;" width="10" x="2026" y="202.1406"/><rect fill="#FFFFFF" height="87.5625" style="stroke:#181818;stroke-width:1.0;" width="10" x="2026" y="401.5469"/><line style="stroke:#181818;stroke-width:0.5;stroke-dasharray:5.0,5.0;" x1="41" x2="41" y1="125.5781" y2="544.3906"/><line style="stroke:#181818;stroke-width:0.5;stroke-dasharray:5.0,5.0;" x1="1480.5" x2="1480.5" y1="125.5781" y2="544.3906"/><line style="stroke:#181818;stroke-width:0.5;stroke-dasharray:5.0,5.0;" x1="2031" x2="2031" y1="125.5781" y2="544.3906"/><text fill="#000000" font-family="sans-serif" font-size="20" lengthAdjust="spacing" textLength="66" x="5" y="120.8613">Doctor</text><ellipse cx="41" cy="50.7969" fill="#E2E2F0" rx="8" ry="8" style="stroke:#181818;stroke-width:0.5;"/><path d="M41,58.7969 L41,85.7969 M28,66.7969 L54,66.7969 M41,85.7969 L28,100.7969 M41,85.7969 L54,100.7969 " fill="none" style="stroke:#181818;stroke-width:0.5;"/><text fill="#000000" font-family="sans-serif" font-size="20" lengthAdjust="spacing" textLength="66" x="5" y="561.9551">Doctor</text><ellipse cx="41" cy="575.1719" fill="#E2E2F0" rx="8" ry="8" style="stroke:#181818;stroke-width:0.5;"/><path d="M41,583.1719 L41,610.1719 M28,591.1719 L54,591.1719 M41,610.1719 L28,625.1719 M41,610.1719 L54,625.1719 " fill="none" style="stroke:#181818;stroke-width:0.5;"/><rect fill="#E2E2F0" height="37.2813" rx="2.5" ry="2.5" style="stroke:#181818;stroke-width:0.5;" width="39" x="1461.5" y="87.2969"/><text fill="#000000" font-family="sans-serif" font-size="20" lengthAdjust="spacing" textLength="25" x="1468.5" y="112.8613">FE</text><rect fill="#E2E2F0" height="37.2813" rx="2.5" ry="2.5" style="stroke:#181818;stroke-width:0.5;" width="39" x="1461.5" y="543.3906"/><text fill="#000000" font-family="sans-serif" font-size="20" lengthAdjust="spacing" textLength="25" x="1468.5" y="568.9551">FE</text><rect fill="#E2E2F0" height="37.2813" rx="2.5" ry="2.5" style="stroke:#181818;stroke-width:0.5;" width="60" x="2001" y="87.2969"/><text fill="#000000" font-family="sans-serif" font-size="20" lengthAdjust="spacing" textLength="46" x="2008" y="112.8613">MDV</text><rect fill="#E2E2F0" height="37.2813" rx="2.5" ry="2.5" style="stroke:#181818;stroke-width:0.5;" width="60" x="2001" y="543.3906"/><text fill="#000000" font-family="sans-serif" font-size="20" lengthAdjust="spacing" textLength="46" x="2008" y="568.9551">MDV</text><rect fill="#FFFFFF" height="399.8125" style="stroke:#181818;stroke-width:1.0;" width="10" x="36" y="135.5781"/><rect fill="#FFFFFF" height="162.125" style="stroke:#181818;stroke-width:1.0;" width="10" x="1476" y="164.8594"/><rect fill="#FFFFFF" height="162.125" style="stroke:#181818;stroke-width:1.0;" width="10" x="1476" y="364.2656"/><rect fill="#FFFFFF" height="87.5625" style="stroke:#181818;stroke-width:1.0;" width="10" x="2026" y="202.1406"/><rect fill="#FFFFFF" height="87.5625" style="stroke:#181818;stroke-width:1.0;" width="10" x="2026" y="401.5469"/><polygon fill="#000000" points="1464,160.8594,1474,164.8594,1464,168.8594,1468,164.8594" style="stroke:#000000;stroke-width:1.0;"/><line style="stroke:#000000;stroke-width:1.0;" x1="46" x2="1470" y1="164.8594" y2="164.8594"/><text fill="#000000" font-family="sans-serif" font-size="20" lengthAdjust="spacing" textLength="353" x="53" y="158.1426">Asks to update a medical condition</text><polygon fill="#000000" points="2014,198.1406,2024,202.1406,2014,206.1406,2018,202.1406" style="stroke:#000000;stroke-width:1.0;"/><line style="stroke:#000000;stroke-width:1.0;" x1="1486" x2="2020" y1="202.1406" y2="202.1406"/><text fill="#000000" font-family="sans-serif" font-size="20" lengthAdjust="spacing" textLength="519" x="1493" y="195.4238">Makes Http Request to get medical condition's data</text><line style="stroke:#000000;stroke-width:1.0;" x1="2036" x2="2078" y1="239.4219" y2="239.4219"/><line style="stroke:#000000;stroke-width:1.0;" x1="2078" x2="2078" y1="239.4219" y2="252.4219"/><line style="stroke:#000000;stroke-width:1.0;" x1="2037" x2="2078" y1="252.4219" y2="252.4219"/><polygon fill="#000000" points="2047,248.4219,2037,252.4219,2047,256.4219,2043,252.4219" style="stroke:#000000;stroke-width:1.0;"/><text fill="#000000" font-family="sans-serif" font-size="20" lengthAdjust="spacing" textLength="331" x="2043" y="232.7051">Fetches medical condition's data</text><polygon fill="#000000" points="1497,285.7031,1487,289.7031,1497,293.7031,1493,289.7031" style="stroke:#000000;stroke-width:1.0;"/><line style="stroke:#000000;stroke-width:1.0;stroke-dasharray:2.0,2.0;" x1="1491" x2="2030" y1="289.7031" y2="289.7031"/><text fill="#000000" font-family="sans-serif" font-size="20" lengthAdjust="spacing" textLength="280" x="1503" y="282.9863">returns Operation Response</text><polygon fill="#000000" points="57,322.9844,47,326.9844,57,330.9844,53,326.9844" style="stroke:#000000;stroke-width:1.0;"/><line style="stroke:#000000;stroke-width:1.0;stroke-dasharray:2.0,2.0;" x1="51" x2="1480" y1="326.9844" y2="326.9844"/><text fill="#000000" font-family="sans-serif" font-size="20" lengthAdjust="spacing" textLength="722" x="63" y="320.2676">Displays the fetched data and asks for the new medical condition's data</text><polygon fill="#000000" points="1464,360.2656,1474,364.2656,1464,368.2656,1468,364.2656" style="stroke:#000000;stroke-width:1.0;"/><line style="stroke:#000000;stroke-width:1.0;" x1="46" x2="1470" y1="364.2656" y2="364.2656"/><text fill="#000000" font-family="sans-serif" font-size="20" lengthAdjust="spacing" textLength="1411" x="53" y="357.5488">Sends medical condition's data (medicalConditionCode, medicalConditionName, medicalConditionDescription, medicalConditionSymptoms)</text><polygon fill="#000000" points="2014,397.5469,2024,401.5469,2014,405.5469,2018,401.5469" style="stroke:#000000;stroke-width:1.0;"/><line style="stroke:#000000;stroke-width:1.0;" x1="1486" x2="2020" y1="401.5469" y2="401.5469"/><text fill="#000000" font-family="sans-serif" font-size="20" lengthAdjust="spacing" textLength="521" x="1493" y="394.8301">Makes Http Request to update an medical condition</text><line style="stroke:#000000;stroke-width:1.0;" x1="2036" x2="2078" y1="438.8281" y2="438.8281"/><line style="stroke:#000000;stroke-width:1.0;" x1="2078" x2="2078" y1="438.8281" y2="451.8281"/><line style="stroke:#000000;stroke-width:1.0;" x1="2037" x2="2078" y1="451.8281" y2="451.8281"/><polygon fill="#000000" points="2047,447.8281,2037,451.8281,2047,455.8281,2043,451.8281" style="stroke:#000000;stroke-width:1.0;"/><text fill="#000000" font-family="sans-serif" font-size="20" lengthAdjust="spacing" textLength="497" x="2043" y="432.1113">Validates medical condition's data and updates it</text><polygon fill="#000000" points="1497,485.1094,1487,489.1094,1497,493.1094,1493,489.1094" style="stroke:#000000;stroke-width:1.0;"/><line style="stroke:#000000;stroke-width:1.0;stroke-dasharray:2.0,2.0;" x1="1491" x2="2030" y1="489.1094" y2="489.1094"/><text fill="#000000" font-family="sans-serif" font-size="20" lengthAdjust="spacing" textLength="286" x="1503" y="482.3926">Returns Operation Response</text><polygon fill="#000000" points="57,522.3906,47,526.3906,57,530.3906,53,526.3906" style="stroke:#000000;stroke-width:1.0;"/><line style="stroke:#000000;stroke-width:1.0;stroke-dasharray:2.0,2.0;" x1="51" x2="1480" y1="526.3906" y2="526.3906"/><text fill="#000000" font-family="sans-serif" font-size="20" lengthAdjust="spacing" textLength="380" x="63" y="519.6738">Returns Operation In/Sucess message</text><!--SRC=[dLDTQnin47pNhrZ8GrfeQ6fecvfWkFFTqKBIG0nvLwIrhLedgLgTWrlwtxkwn7Ny5KZlHSVipEnezuuMnWKPPMkzMg06ZLFPsTHuboRc5yBWN8XaaaMumYLQ641bv8pvGioDHi0sf1MqsDvZ975AQpkuCWxJAY3ucEPUY4r5MKa4lmNmKqgrc4NVEJtsriVBowMq7TxS_q2LHYCugJxLHNDnc1gzxpbDLPVL-M4EOLmQXRtLXsPGbuTeR54tN-hFVQs8qJyymgLbdlZpF7jWHCxmS7eugSlcOrDcYLI9WShtXoGe11iaeqoGBa5JPwofjy3hwYwZVFHoivG9MLV0sOYfGoXeGP0yT47dYkIfQwEa1UMTDibujv6nDVTW8RiDuLekaE1hIW5kyMU7bBBF3DE-nIa1kykDKuwJawsz6angpcv7bJtvANB4r4L7S1CmoapY_XIy8nGQjrhaj2mgXlnzKR1onLUT8qpxRhft1kaq3uY7CEMPvgh3X-CvdZNWQVoRuWITFfuUtZnLnkl2s6jy1xleTzaUG2ia5Kt8h_l5oOf_5T_IszTjQRrjzzAwTvTq9wt9iXSkceVvw4rWqjRMRlzZQ_kQR-xzf5D8EGCH_pGx6_aB]--></g></svg>