<?xml version="1.0" encoding="UTF-8" standalone="no"?><svg xmlns="http://www.w3.org/2000/svg" xmlns:xlink="http://www.w3.org/1999/xlink" contentStyleType="text/css" height="550px" preserveAspectRatio="none" style="width:1948px;height:550px;background:#FFFFFF;" version="1.1" viewBox="0 0 1948 550" width="1948px" zoomAndPan="magnify"><defs/><g><text fill="#000000" font-family="sans-serif" font-size="14" font-weight="bold" lengthAdjust="spacing" textLength="126" x="913" y="27.9951">Level 2 Diagram</text><rect fill="#FFFFFF" height="318.25" style="stroke:#181818;stroke-width:1.0;" width="10" x="36" y="135.5781"/><rect fill="#FFFFFF" height="37.2813" style="stroke:#181818;stroke-width:1.0;" width="10" x="451" y="164.8594"/><rect fill="#FFFFFF" height="205.4063" style="stroke:#181818;stroke-width:1.0;" width="10" x="451" y="239.4219"/><rect fill="#FFFFFF" height="87.5625" style="stroke:#181818;stroke-width:1.0;" width="10" x="1196" y="319.9844"/><line style="stroke:#181818;stroke-width:0.5;stroke-dasharray:5.0,5.0;" x1="41" x2="41" y1="125.5781" y2="462.8281"/><line style="stroke:#181818;stroke-width:0.5;stroke-dasharray:5.0,5.0;" x1="455.5" x2="455.5" y1="125.5781" y2="462.8281"/><line style="stroke:#181818;stroke-width:0.5;stroke-dasharray:5.0,5.0;" x1="1201" x2="1201" y1="125.5781" y2="462.8281"/><text fill="#000000" font-family="sans-serif" font-size="20" lengthAdjust="spacing" textLength="66" x="5" y="120.8613">Admin</text><ellipse cx="41" cy="50.7969" fill="#E2E2F0" rx="8" ry="8" style="stroke:#181818;stroke-width:0.5;"/><path d="M41,58.7969 L41,85.7969 M28,66.7969 L54,66.7969 M41,85.7969 L28,100.7969 M41,85.7969 L54,100.7969 " fill="none" style="stroke:#181818;stroke-width:0.5;"/><text fill="#000000" font-family="sans-serif" font-size="20" lengthAdjust="spacing" textLength="66" x="5" y="480.3926">Admin</text><ellipse cx="41" cy="493.6094" fill="#E2E2F0" rx="8" ry="8" style="stroke:#181818;stroke-width:0.5;"/><path d="M41,501.6094 L41,528.6094 M28,509.6094 L54,509.6094 M41,528.6094 L28,543.6094 M41,528.6094 L54,543.6094 " fill="none" style="stroke:#181818;stroke-width:0.5;"/><rect fill="#E2E2F0" height="37.2813" rx="2.5" ry="2.5" style="stroke:#181818;stroke-width:0.5;" width="39" x="436.5" y="87.2969"/><text fill="#000000" font-family="sans-serif" font-size="20" lengthAdjust="spacing" textLength="25" x="443.5" y="112.8613">FE</text><rect fill="#E2E2F0" height="37.2813" rx="2.5" ry="2.5" style="stroke:#181818;stroke-width:0.5;" width="39" x="436.5" y="461.8281"/><text fill="#000000" font-family="sans-serif" font-size="20" lengthAdjust="spacing" textLength="25" x="443.5" y="487.3926">FE</text><rect fill="#E2E2F0" height="37.2813" rx="2.5" ry="2.5" style="stroke:#181818;stroke-width:0.5;" width="60" x="1171" y="87.2969"/><text fill="#000000" font-family="sans-serif" font-size="20" lengthAdjust="spacing" textLength="46" x="1178" y="112.8613">MDR</text><rect fill="#E2E2F0" height="37.2813" rx="2.5" ry="2.5" style="stroke:#181818;stroke-width:0.5;" width="60" x="1171" y="461.8281"/><text fill="#000000" font-family="sans-serif" font-size="20" lengthAdjust="spacing" textLength="46" x="1178" y="487.3926">MDR</text><rect fill="#FFFFFF" height="318.25" style="stroke:#181818;stroke-width:1.0;" width="10" x="36" y="135.5781"/><rect fill="#FFFFFF" height="37.2813" style="stroke:#181818;stroke-width:1.0;" width="10" x="451" y="164.8594"/><rect fill="#FFFFFF" height="205.4063" style="stroke:#181818;stroke-width:1.0;" width="10" x="451" y="239.4219"/><rect fill="#FFFFFF" height="87.5625" style="stroke:#181818;stroke-width:1.0;" width="10" x="1196" y="319.9844"/><polygon fill="#000000" points="439,160.8594,449,164.8594,439,168.8594,443,164.8594" style="stroke:#000000;stroke-width:1.0;"/><line style="stroke:#000000;stroke-width:1.0;" x1="46" x2="445" y1="164.8594" y2="164.8594"/><text fill="#000000" font-family="sans-serif" font-size="20" lengthAdjust="spacing" textLength="372" x="53" y="158.1426">Asks to edit a operation type's Profile</text><polygon fill="#000000" points="57,198.1406,47,202.1406,57,206.1406,53,202.1406" style="stroke:#000000;stroke-width:1.0;"/><line style="stroke:#000000;stroke-width:1.0;stroke-dasharray:2.0,2.0;" x1="51" x2="455" y1="202.1406" y2="202.1406"/><text fill="#000000" font-family="sans-serif" font-size="20" lengthAdjust="spacing" textLength="381" x="63" y="195.4238">Asks for operation type's name to edit</text><polygon fill="#000000" points="439,235.4219,449,239.4219,439,243.4219,443,239.4219" style="stroke:#000000;stroke-width:1.0;"/><line style="stroke:#000000;stroke-width:1.0;" x1="46" x2="445" y1="239.4219" y2="239.4219"/><text fill="#000000" font-family="sans-serif" font-size="20" lengthAdjust="spacing" textLength="280" x="53" y="232.7051">Sends operation type's data</text><path d="M466,252.4219 L466,285.4219 L1071,285.4219 L1071,262.4219 L1061,252.4219 L466,252.4219 " fill="#FEFFDD" style="stroke:#181818;stroke-width:0.5;"/><path d="M1061,252.4219 L1061,262.4219 L1071,262.4219 L1061,252.4219 " fill="#FEFFDD" style="stroke:#181818;stroke-width:0.5;"/><text fill="#000000" font-family="sans-serif" font-size="20" lengthAdjust="spacing" textLength="584" x="472" y="275.9863">The data can be name, estimatedDuration, specializations</text><polygon fill="#000000" points="1184,315.9844,1194,319.9844,1184,323.9844,1188,319.9844" style="stroke:#000000;stroke-width:1.0;"/><line style="stroke:#000000;stroke-width:1.0;" x1="461" x2="1190" y1="319.9844" y2="319.9844"/><text fill="#000000" font-family="sans-serif" font-size="20" lengthAdjust="spacing" textLength="716" x="468" y="313.2676">Sends HTTP Request to update operation type's data with the new data</text><line style="stroke:#000000;stroke-width:1.0;" x1="1206" x2="1248" y1="357.2656" y2="357.2656"/><line style="stroke:#000000;stroke-width:1.0;" x1="1248" x2="1248" y1="357.2656" y2="370.2656"/><line style="stroke:#000000;stroke-width:1.0;" x1="1207" x2="1248" y1="370.2656" y2="370.2656"/><polygon fill="#000000" points="1217,366.2656,1207,370.2656,1217,374.2656,1213,370.2656" style="stroke:#000000;stroke-width:1.0;"/><text fill="#000000" font-family="sans-serif" font-size="20" lengthAdjust="spacing" textLength="728" x="1213" y="350.5488">Validates operation type's data and tries to update operation type's data</text><polygon fill="#000000" points="472,403.5469,462,407.5469,472,411.5469,468,407.5469" style="stroke:#000000;stroke-width:1.0;"/><line style="stroke:#000000;stroke-width:1.0;stroke-dasharray:2.0,2.0;" x1="466" x2="1200" y1="407.5469" y2="407.5469"/><text fill="#000000" font-family="sans-serif" font-size="20" lengthAdjust="spacing" textLength="311" x="478" y="400.8301">Returns Operation Status Code</text><polygon fill="#000000" points="57,440.8281,47,444.8281,57,448.8281,53,444.8281" style="stroke:#000000;stroke-width:1.0;"/><line style="stroke:#000000;stroke-width:1.0;stroke-dasharray:2.0,2.0;" x1="51" x2="455" y1="444.8281" y2="444.8281"/><text fill="#000000" font-family="sans-serif" font-size="20" lengthAdjust="spacing" textLength="380" x="63" y="438.1113">Returns Operation In/Sucess message</text><!--SRC=[XPDRQzj048NVzrSCoKDU4feQUaa81YdIqa9AGcpwFjQEhQsbNNLtP9EK_lUErlMbjKi5aj3iETySpKfnQLs70Tl6LqioO6YEVSFQEvxOLuBHjL9ikI5ue1KrC8B2uaBqIjNM453RyGkqrCueH7KHjpXui8xufIFmWMklr7wbQZ16-A50ZXohvIButfbxt_XmTxV2fgV7sJUgU3o6y-9zcUcFfwN1-wJHHPaNrwSraSBALfHGR_Mep4_9157gc_93Mij2yEjDEMz4ftuUPk-aWWiwdHxEoro_q_bWmOgba9dMEi08cH8_syfsw1ZET7asL7NvP_bByPpgSay4kq8cyMPmDHRnBMHn6O4zaB4C2BwZW6ozWs7I5n6UWf_RXlPUwQ1Bk19xzjizbrX7FeSjRRdAqA5zrtj2piHZgq56vRo8WrtK37wUrDEQqX9Kw616gSCbK6JR2jWK_OPo2R6Zoc9ZNzDpF8e-7gQnxVvfEds2P_hU2sZ8stTca9uC1MlBDR3aSBJUnDonXm7BkQD_bG03wH_l1-WCSB0K_zTqGqqJWrj9odrm4HvtqWaZzn7klQ73EGzvzljqRFlitapwYkItQUKY7-1Vc_GB]--></g></svg>