<?xml version="1.0" encoding="UTF-8" standalone="no"?><svg xmlns="http://www.w3.org/2000/svg" xmlns:xlink="http://www.w3.org/1999/xlink" contentStyleType="text/css" height="550px" preserveAspectRatio="none" style="width:1923px;height:550px;background:#FFFFFF;" version="1.1" viewBox="0 0 1923 550" width="1923px" zoomAndPan="magnify"><defs/><g><text fill="#000000" font-family="sans-serif" font-size="14" font-weight="bold" lengthAdjust="spacing" textLength="126" x="900.5" y="27.9951">Level 2 Diagram</text><rect fill="#FFFFFF" height="318.25" style="stroke:#181818;stroke-width:1.0;" width="10" x="36" y="135.5781"/><rect fill="#FFFFFF" height="37.2813" style="stroke:#181818;stroke-width:1.0;" width="10" x="450" y="164.8594"/><rect fill="#FFFFFF" height="205.4063" style="stroke:#181818;stroke-width:1.0;" width="10" x="450" y="239.4219"/><rect fill="#FFFFFF" height="87.5625" style="stroke:#181818;stroke-width:1.0;" width="10" x="1187" y="319.9844"/><line style="stroke:#181818;stroke-width:0.5;stroke-dasharray:5.0,5.0;" x1="41" x2="41" y1="125.5781" y2="462.8281"/><line style="stroke:#181818;stroke-width:0.5;stroke-dasharray:5.0,5.0;" x1="454.5" x2="454.5" y1="125.5781" y2="462.8281"/><line style="stroke:#181818;stroke-width:0.5;stroke-dasharray:5.0,5.0;" x1="1192" x2="1192" y1="125.5781" y2="462.8281"/><text fill="#000000" font-family="sans-serif" font-size="20" lengthAdjust="spacing" textLength="66" x="5" y="120.8613">Admin</text><ellipse cx="41" cy="50.7969" fill="#E2E2F0" rx="8" ry="8" style="stroke:#181818;stroke-width:0.5;"/><path d="M41,58.7969 L41,85.7969 M28,66.7969 L54,66.7969 M41,85.7969 L28,100.7969 M41,85.7969 L54,100.7969 " fill="none" style="stroke:#181818;stroke-width:0.5;"/><text fill="#000000" font-family="sans-serif" font-size="20" lengthAdjust="spacing" textLength="66" x="5" y="480.3926">Admin</text><ellipse cx="41" cy="493.6094" fill="#E2E2F0" rx="8" ry="8" style="stroke:#181818;stroke-width:0.5;"/><path d="M41,501.6094 L41,528.6094 M28,509.6094 L54,509.6094 M41,528.6094 L28,543.6094 M41,528.6094 L54,543.6094 " fill="none" style="stroke:#181818;stroke-width:0.5;"/><rect fill="#E2E2F0" height="37.2813" rx="2.5" ry="2.5" style="stroke:#181818;stroke-width:0.5;" width="39" x="435.5" y="87.2969"/><text fill="#000000" font-family="sans-serif" font-size="20" lengthAdjust="spacing" textLength="25" x="442.5" y="112.8613">FE</text><rect fill="#E2E2F0" height="37.2813" rx="2.5" ry="2.5" style="stroke:#181818;stroke-width:0.5;" width="39" x="435.5" y="461.8281"/><text fill="#000000" font-family="sans-serif" font-size="20" lengthAdjust="spacing" textLength="25" x="442.5" y="487.3926">FE</text><rect fill="#E2E2F0" height="37.2813" rx="2.5" ry="2.5" style="stroke:#181818;stroke-width:0.5;" width="60" x="1162" y="87.2969"/><text fill="#000000" font-family="sans-serif" font-size="20" lengthAdjust="spacing" textLength="46" x="1169" y="112.8613">MDR</text><rect fill="#E2E2F0" height="37.2813" rx="2.5" ry="2.5" style="stroke:#181818;stroke-width:0.5;" width="60" x="1162" y="461.8281"/><text fill="#000000" font-family="sans-serif" font-size="20" lengthAdjust="spacing" textLength="46" x="1169" y="487.3926">MDR</text><rect fill="#FFFFFF" height="318.25" style="stroke:#181818;stroke-width:1.0;" width="10" x="36" y="135.5781"/><rect fill="#FFFFFF" height="37.2813" style="stroke:#181818;stroke-width:1.0;" width="10" x="450" y="164.8594"/><rect fill="#FFFFFF" height="205.4063" style="stroke:#181818;stroke-width:1.0;" width="10" x="450" y="239.4219"/><rect fill="#FFFFFF" height="87.5625" style="stroke:#181818;stroke-width:1.0;" width="10" x="1187" y="319.9844"/><polygon fill="#000000" points="438,160.8594,448,164.8594,438,168.8594,442,164.8594" style="stroke:#000000;stroke-width:1.0;"/><line style="stroke:#000000;stroke-width:1.0;" x1="46" x2="444" y1="164.8594" y2="164.8594"/><text fill="#000000" font-family="sans-serif" font-size="20" lengthAdjust="spacing" textLength="364" x="53" y="158.1426">Asks to edit a specialization's Profile</text><polygon fill="#000000" points="57,198.1406,47,202.1406,57,206.1406,53,202.1406" style="stroke:#000000;stroke-width:1.0;"/><line style="stroke:#000000;stroke-width:1.0;stroke-dasharray:2.0,2.0;" x1="51" x2="454" y1="202.1406" y2="202.1406"/><text fill="#000000" font-family="sans-serif" font-size="20" lengthAdjust="spacing" textLength="373" x="63" y="195.4238">Asks for specialization's name to edit</text><polygon fill="#000000" points="438,235.4219,448,239.4219,438,243.4219,442,239.4219" style="stroke:#000000;stroke-width:1.0;"/><line style="stroke:#000000;stroke-width:1.0;" x1="46" x2="444" y1="239.4219" y2="239.4219"/><text fill="#000000" font-family="sans-serif" font-size="20" lengthAdjust="spacing" textLength="272" x="53" y="232.7051">Sends specialization's data</text><path d="M465,252.4219 L465,285.4219 L839,285.4219 L839,262.4219 L829,252.4219 L465,252.4219 " fill="#FEFFDD" style="stroke:#181818;stroke-width:0.5;"/><path d="M829,252.4219 L829,262.4219 L839,262.4219 L829,252.4219 " fill="#FEFFDD" style="stroke:#181818;stroke-width:0.5;"/><text fill="#000000" font-family="sans-serif" font-size="20" lengthAdjust="spacing" textLength="353" x="471" y="275.9863">The data can be specializationType</text><polygon fill="#000000" points="1175,315.9844,1185,319.9844,1175,323.9844,1179,319.9844" style="stroke:#000000;stroke-width:1.0;"/><line style="stroke:#000000;stroke-width:1.0;" x1="460" x2="1181" y1="319.9844" y2="319.9844"/><text fill="#000000" font-family="sans-serif" font-size="20" lengthAdjust="spacing" textLength="708" x="467" y="313.2676">Sends HTTP Request to update specialization's data with the new data</text><line style="stroke:#000000;stroke-width:1.0;" x1="1197" x2="1239" y1="357.2656" y2="357.2656"/><line style="stroke:#000000;stroke-width:1.0;" x1="1239" x2="1239" y1="357.2656" y2="370.2656"/><line style="stroke:#000000;stroke-width:1.0;" x1="1198" x2="1239" y1="370.2656" y2="370.2656"/><polygon fill="#000000" points="1208,366.2656,1198,370.2656,1208,374.2656,1204,370.2656" style="stroke:#000000;stroke-width:1.0;"/><text fill="#000000" font-family="sans-serif" font-size="20" lengthAdjust="spacing" textLength="712" x="1204" y="350.5488">Validates specialization's data and tries to update specialization's data</text><polygon fill="#000000" points="471,403.5469,461,407.5469,471,411.5469,467,407.5469" style="stroke:#000000;stroke-width:1.0;"/><line style="stroke:#000000;stroke-width:1.0;stroke-dasharray:2.0,2.0;" x1="465" x2="1191" y1="407.5469" y2="407.5469"/><text fill="#000000" font-family="sans-serif" font-size="20" lengthAdjust="spacing" textLength="311" x="477" y="400.8301">Returns Operation Status Code</text><polygon fill="#000000" points="57,440.8281,47,444.8281,57,448.8281,53,444.8281" style="stroke:#000000;stroke-width:1.0;"/><line style="stroke:#000000;stroke-width:1.0;stroke-dasharray:2.0,2.0;" x1="51" x2="454" y1="444.8281" y2="444.8281"/><text fill="#000000" font-family="sans-serif" font-size="20" lengthAdjust="spacing" textLength="380" x="63" y="438.1113">Returns Operation In/Sucess message</text><!--SRC=[XLFBRjim4BppAnR98QUWYO6-Wi2058jeWHG9OgFtjRYsM5EaIgvi94N_lIkvVZHM4G6IWDcPsU6IJ2lh6unOkr2ko82X1RQETV0yjIy4eokbsB8ZkASrEHZ1nE9I-4fLrX1GtV0pr5JFAIPraNPsS6yzyND3429NGQb3fNIO4lnI84-EvMePG-lDNN0XtjwkqRNqCFz19O_7S3xvK6Jwqp0rXj1pzAJ89rV3d4HnRKlghQxrgCY7Q69HwC_5nxwMnHWsMpXtmbE_ZxCtWk2IXjF3UP7hzphl95Yo09cfhGTCa2dHiorjWvxXJ1Td7QgBV-5lawSUbt_lODV89DeCBiT2le4ihH9m03AM0I4rL5fqzWNP1d-Hu366XNLqq4e7NS2boBE_weN4Ej5vh6ddgmmTo_Uzf-HDEfKQP5G-23dQPSKG5ZrxLb5VWX8zpEcLRYO7uoJak5lthi-NsUmHdkXdIucxP6rZEkfWUzXOhe2bewVDDj3Uknkbl7ltxoBkdFwp4a1lWAEbz5RJhMi_6xYHfDn6d-2XeTYpOCh8ROAxOEXuebsUmuwSohxwTzEs9BaWjNpagBtQZZy0]--></g></svg>