<?xml version="1.0" encoding="UTF-8" standalone="no"?><svg xmlns="http://www.w3.org/2000/svg" xmlns:xlink="http://www.w3.org/1999/xlink" contentStyleType="text/css" height="1388px" preserveAspectRatio="none" style="width:3286px;height:1388px;background:#FFFFFF;" version="1.1" viewBox="0 0 3286 1388" width="3286px" zoomAndPan="magnify"><defs><filter height="300%" id="f9c7oq75uvxqw" width="300%" x="-1" y="-1"><feGaussianBlur result="blurOut" stdDeviation="2.0"/><feColorMatrix in="blurOut" result="blurOut2" type="matrix" values="0 0 0 0 0 0 0 0 0 0 0 0 0 0 0 0 0 0 .4 0"/><feOffset dx="4.0" dy="4.0" in="blurOut2" result="blurOut3"/><feBlend in="SourceGraphic" in2="blurOut3" mode="normal"/></filter></defs><g><text fill="#000000" font-family="sans-serif" font-size="14" font-weight="bold" lengthAdjust="spacing" textLength="443" x="1420.25" y="27.9951">5.1.23 Level 3 Diagram - List or Search Operation Types</text><rect fill="#FFFFFF" filter="url(#f9c7oq75uvxqw)" height="1152.2813" style="stroke:#181818;stroke-width:1.0;" width="10" x="61" y="138.5781"/><rect fill="#FFFFFF" filter="url(#f9c7oq75uvxqw)" height="1101" style="stroke:#181818;stroke-width:1.0;" width="10" x="551" y="167.8594"/><rect fill="#FFFFFF" filter="url(#f9c7oq75uvxqw)" height="413.375" style="stroke:#181818;stroke-width:1.0;" width="10" x="556" y="606.5156"/><rect fill="#FFFFFF" filter="url(#f9c7oq75uvxqw)" height="260.9688" style="stroke:#181818;stroke-width:1.0;" width="10" x="1182" y="245.7031"/><rect fill="#FFFFFF" filter="url(#f9c7oq75uvxqw)" height="338.8125" style="stroke:#181818;stroke-width:1.0;" width="10" x="1182" y="643.7969"/><rect fill="#FFFFFF" filter="url(#f9c7oq75uvxqw)" height="186.4063" style="stroke:#181818;stroke-width:1.0;" width="10" x="1808" y="282.9844"/><rect fill="#FFFFFF" filter="url(#f9c7oq75uvxqw)" height="264.25" style="stroke:#181818;stroke-width:1.0;" width="10" x="1808" y="681.0781"/><rect fill="#FFFFFF" filter="url(#f9c7oq75uvxqw)" height="111.8438" style="stroke:#181818;stroke-width:1.0;" width="10" x="2664" y="320.2656"/><rect fill="#FFFFFF" filter="url(#f9c7oq75uvxqw)" height="189.6875" style="stroke:#181818;stroke-width:1.0;" width="10" x="2664" y="718.3594"/><rect fill="#FFFFFF" filter="url(#f9c7oq75uvxqw)" height="37.2813" style="stroke:#181818;stroke-width:1.0;" width="10" x="3188" y="357.5469"/><rect fill="#FFFFFF" filter="url(#f9c7oq75uvxqw)" height="152.4063" style="stroke:#181818;stroke-width:1.0;" width="10" x="3188" y="718.3594"/><rect fill="#FFFFFF" filter="url(#f9c7oq75uvxqw)" height="37.2813" style="stroke:#181818;stroke-width:1.0;" width="10" x="3188" y="1082.4531"/><rect fill="none" filter="url(#f9c7oq75uvxqw)" height="1101" style="stroke:#000000;stroke-width:1.5;" width="3264.5" x="10" y="182.8594"/><rect fill="none" filter="url(#f9c7oq75uvxqw)" height="543.5" style="stroke:#000000;stroke-width:1.5;" width="3244.5" x="20" y="733.3594"/><line style="stroke:#181818;stroke-width:0.5;stroke-dasharray:5.0,5.0;" x1="66" x2="66" y1="128.5781" y2="1300.8594"/><line style="stroke:#181818;stroke-width:0.5;stroke-dasharray:5.0,5.0;" x1="556" x2="556" y1="128.5781" y2="1300.8594"/><line style="stroke:#181818;stroke-width:0.5;stroke-dasharray:5.0,5.0;" x1="1186.5" x2="1186.5" y1="128.5781" y2="1300.8594"/><line style="stroke:#181818;stroke-width:0.5;stroke-dasharray:5.0,5.0;" x1="1813" x2="1813" y1="128.5781" y2="1300.8594"/><line style="stroke:#181818;stroke-width:0.5;stroke-dasharray:5.0,5.0;" x1="2669" x2="2669" y1="128.5781" y2="1300.8594"/><line style="stroke:#181818;stroke-width:0.5;stroke-dasharray:5.0,5.0;" x1="3192.5" x2="3192.5" y1="128.5781" y2="1300.8594"/><text fill="#000000" font-family="sans-serif" font-size="20" lengthAdjust="spacing" textLength="66" x="30" y="123.8613">Admin</text><ellipse cx="66" cy="50.7969" fill="#E2E2F0" filter="url(#f9c7oq75uvxqw)" rx="8" ry="8" style="stroke:#181818;stroke-width:0.5;"/><path d="M66,58.7969 L66,85.7969 M53,66.7969 L79,66.7969 M66,85.7969 L53,100.7969 M66,85.7969 L79,100.7969 " fill="none" filter="url(#f9c7oq75uvxqw)" style="stroke:#181818;stroke-width:0.5;"/><text fill="#000000" font-family="sans-serif" font-size="20" lengthAdjust="spacing" textLength="66" x="30" y="1318.4238">Admin</text><ellipse cx="66" cy="1331.6406" fill="#E2E2F0" filter="url(#f9c7oq75uvxqw)" rx="8" ry="8" style="stroke:#181818;stroke-width:0.5;"/><path d="M66,1339.6406 L66,1366.6406 M53,1347.6406 L79,1347.6406 M66,1366.6406 L53,1381.6406 M66,1366.6406 L79,1381.6406 " fill="none" filter="url(#f9c7oq75uvxqw)" style="stroke:#181818;stroke-width:0.5;"/><rect fill="#E2E2F0" filter="url(#f9c7oq75uvxqw)" height="37.2813" rx="2.5" ry="2.5" style="stroke:#181818;stroke-width:0.5;" width="83" x="513" y="87.2969"/><text fill="#000000" font-family="sans-serif" font-size="20" lengthAdjust="spacing" textLength="69" x="520" y="112.8613">Routes</text><rect fill="#E2E2F0" filter="url(#f9c7oq75uvxqw)" height="37.2813" rx="2.5" ry="2.5" style="stroke:#181818;stroke-width:0.5;" width="83" x="513" y="1299.8594"/><text fill="#000000" font-family="sans-serif" font-size="20" lengthAdjust="spacing" textLength="69" x="520" y="1325.4238">Routes</text><rect fill="#E2E2F0" filter="url(#f9c7oq75uvxqw)" height="37.2813" rx="2.5" ry="2.5" style="stroke:#181818;stroke-width:0.5;" width="60" x="1155.5" y="87.2969"/><text fill="#000000" font-family="sans-serif" font-size="20" lengthAdjust="spacing" textLength="46" x="1162.5" y="112.8613">MDR</text><rect fill="#E2E2F0" filter="url(#f9c7oq75uvxqw)" height="37.2813" rx="2.5" ry="2.5" style="stroke:#181818;stroke-width:0.5;" width="60" x="1155.5" y="1299.8594"/><text fill="#000000" font-family="sans-serif" font-size="20" lengthAdjust="spacing" textLength="46" x="1162.5" y="1325.4238">MDR</text><rect fill="#E2E2F0" filter="url(#f9c7oq75uvxqw)" height="37.2813" rx="2.5" ry="2.5" style="stroke:#181818;stroke-width:0.5;" width="113" x="1755" y="87.2969"/><text fill="#000000" font-family="sans-serif" font-size="20" lengthAdjust="spacing" textLength="99" x="1762" y="112.8613">Controller</text><rect fill="#E2E2F0" filter="url(#f9c7oq75uvxqw)" height="37.2813" rx="2.5" ry="2.5" style="stroke:#181818;stroke-width:0.5;" width="113" x="1755" y="1299.8594"/><text fill="#000000" font-family="sans-serif" font-size="20" lengthAdjust="spacing" textLength="99" x="1762" y="1325.4238">Controller</text><rect fill="#E2E2F0" filter="url(#f9c7oq75uvxqw)" height="37.2813" rx="2.5" ry="2.5" style="stroke:#181818;stroke-width:0.5;" width="87" x="2624" y="87.2969"/><text fill="#000000" font-family="sans-serif" font-size="20" lengthAdjust="spacing" textLength="73" x="2631" y="112.8613">Service</text><rect fill="#E2E2F0" filter="url(#f9c7oq75uvxqw)" height="37.2813" rx="2.5" ry="2.5" style="stroke:#181818;stroke-width:0.5;" width="87" x="2624" y="1299.8594"/><text fill="#000000" font-family="sans-serif" font-size="20" lengthAdjust="spacing" textLength="73" x="2631" y="1325.4238">Service</text><rect fill="#E2E2F0" filter="url(#f9c7oq75uvxqw)" height="37.2813" rx="2.5" ry="2.5" style="stroke:#181818;stroke-width:0.5;" width="120" x="3131.5" y="87.2969"/><text fill="#000000" font-family="sans-serif" font-size="20" lengthAdjust="spacing" textLength="106" x="3138.5" y="112.8613">Repository</text><rect fill="#E2E2F0" filter="url(#f9c7oq75uvxqw)" height="37.2813" rx="2.5" ry="2.5" style="stroke:#181818;stroke-width:0.5;" width="120" x="3131.5" y="1299.8594"/><text fill="#000000" font-family="sans-serif" font-size="20" lengthAdjust="spacing" textLength="106" x="3138.5" y="1325.4238">Repository</text><rect fill="#FFFFFF" filter="url(#f9c7oq75uvxqw)" height="1152.2813" style="stroke:#181818;stroke-width:1.0;" width="10" x="61" y="138.5781"/><rect fill="#FFFFFF" filter="url(#f9c7oq75uvxqw)" height="1101" style="stroke:#181818;stroke-width:1.0;" width="10" x="551" y="167.8594"/><rect fill="#FFFFFF" filter="url(#f9c7oq75uvxqw)" height="413.375" style="stroke:#181818;stroke-width:1.0;" width="10" x="556" y="606.5156"/><rect fill="#FFFFFF" filter="url(#f9c7oq75uvxqw)" height="260.9688" style="stroke:#181818;stroke-width:1.0;" width="10" x="1182" y="245.7031"/><rect fill="#FFFFFF" filter="url(#f9c7oq75uvxqw)" height="338.8125" style="stroke:#181818;stroke-width:1.0;" width="10" x="1182" y="643.7969"/><rect fill="#FFFFFF" filter="url(#f9c7oq75uvxqw)" height="186.4063" style="stroke:#181818;stroke-width:1.0;" width="10" x="1808" y="282.9844"/><rect fill="#FFFFFF" filter="url(#f9c7oq75uvxqw)" height="264.25" style="stroke:#181818;stroke-width:1.0;" width="10" x="1808" y="681.0781"/><rect fill="#FFFFFF" filter="url(#f9c7oq75uvxqw)" height="111.8438" style="stroke:#181818;stroke-width:1.0;" width="10" x="2664" y="320.2656"/><rect fill="#FFFFFF" filter="url(#f9c7oq75uvxqw)" height="189.6875" style="stroke:#181818;stroke-width:1.0;" width="10" x="2664" y="718.3594"/><rect fill="#FFFFFF" filter="url(#f9c7oq75uvxqw)" height="37.2813" style="stroke:#181818;stroke-width:1.0;" width="10" x="3188" y="357.5469"/><rect fill="#FFFFFF" filter="url(#f9c7oq75uvxqw)" height="152.4063" style="stroke:#181818;stroke-width:1.0;" width="10" x="3188" y="718.3594"/><rect fill="#FFFFFF" filter="url(#f9c7oq75uvxqw)" height="37.2813" style="stroke:#181818;stroke-width:1.0;" width="10" x="3188" y="1082.4531"/><polygon fill="#181818" points="539,163.8594,549,167.8594,539,171.8594,543,167.8594" style="stroke:#181818;stroke-width:1.0;"/><line style="stroke:#181818;stroke-width:1.0;" x1="71" x2="545" y1="167.8594" y2="167.8594"/><text fill="#000000" font-family="sans-serif" font-size="20" lengthAdjust="spacing" textLength="210" x="78" y="161.1426">get(\operationTypes)</text><path d="M10,182.8594 L86,182.8594 L86,198.1406 L76,208.1406 L10,208.1406 L10,182.8594 " fill="#EEEEEE" style="stroke:#000000;stroke-width:1.5;"/><rect fill="none" height="1101" style="stroke:#000000;stroke-width:1.5;" width="3264.5" x="10" y="182.8594"/><text fill="#000000" font-family="sans-serif" font-size="20" font-weight="bold" lengthAdjust="spacing" textLength="31" x="25" y="202.4238">alt</text><text fill="#000000" font-family="sans-serif" font-size="20" font-weight="bold" lengthAdjust="spacing" textLength="283" x="101" y="203.4238">[List all operation types]</text><polygon fill="#181818" points="1170,241.7031,1180,245.7031,1170,249.7031,1174,245.7031" style="stroke:#181818;stroke-width:1.0;"/><line style="stroke:#181818;stroke-width:1.0;" x1="561" x2="1176" y1="245.7031" y2="245.7031"/><text fill="#000000" font-family="sans-serif" font-size="20" lengthAdjust="spacing" textLength="233" x="568" y="238.9863">getAllOperationTypes()</text><polygon fill="#181818" points="1796,278.9844,1806,282.9844,1796,286.9844,1800,282.9844" style="stroke:#181818;stroke-width:1.0;"/><line style="stroke:#181818;stroke-width:1.0;" x1="1192" x2="1802" y1="282.9844" y2="282.9844"/><text fill="#000000" font-family="sans-serif" font-size="20" lengthAdjust="spacing" textLength="233" x="1199" y="276.2676">getAllOperationTypes()</text><polygon fill="#181818" points="2652,316.2656,2662,320.2656,2652,324.2656,2656,320.2656" style="stroke:#181818;stroke-width:1.0;"/><line style="stroke:#181818;stroke-width:1.0;" x1="1818" x2="2658" y1="320.2656" y2="320.2656"/><text fill="#000000" font-family="sans-serif" font-size="20" lengthAdjust="spacing" textLength="340" x="1825" y="313.5488">instance().getAllOperationTypes()</text><polygon fill="#181818" points="3176,353.5469,3186,357.5469,3176,361.5469,3180,357.5469" style="stroke:#181818;stroke-width:1.0;"/><line style="stroke:#181818;stroke-width:1.0;" x1="2674" x2="3182" y1="357.5469" y2="357.5469"/><text fill="#000000" font-family="sans-serif" font-size="20" lengthAdjust="spacing" textLength="239" x="2681" y="350.8301">findAllOperationTypes()</text><polygon fill="#181818" points="2685,390.8281,2675,394.8281,2685,398.8281,2681,394.8281" style="stroke:#181818;stroke-width:1.0;"/><line style="stroke:#181818;stroke-width:1.0;stroke-dasharray:2.0,2.0;" x1="2679" x2="3192" y1="394.8281" y2="394.8281"/><text fill="#000000" font-family="sans-serif" font-size="20" lengthAdjust="spacing" textLength="409" x="2691" y="388.1113">operationTypeList OR 400 (Bad Request)</text><polygon fill="#181818" points="1829,428.1094,1819,432.1094,1829,436.1094,1825,432.1094" style="stroke:#181818;stroke-width:1.0;"/><line style="stroke:#181818;stroke-width:1.0;stroke-dasharray:2.0,2.0;" x1="1823" x2="2668" y1="432.1094" y2="432.1094"/><text fill="#000000" font-family="sans-serif" font-size="20" lengthAdjust="spacing" textLength="409" x="1835" y="425.3926">operationTypeList OR 400 (Bad Request)</text><polygon fill="#181818" points="1203,465.3906,1193,469.3906,1203,473.3906,1199,469.3906" style="stroke:#181818;stroke-width:1.0;"/><line style="stroke:#181818;stroke-width:1.0;stroke-dasharray:2.0,2.0;" x1="1197" x2="1812" y1="469.3906" y2="469.3906"/><text fill="#000000" font-family="sans-serif" font-size="20" lengthAdjust="spacing" textLength="409" x="1209" y="462.6738">operationTypeList OR 400 (Bad Request)</text><polygon fill="#181818" points="572,502.6719,562,506.6719,572,510.6719,568,506.6719" style="stroke:#181818;stroke-width:1.0;"/><line style="stroke:#181818;stroke-width:1.0;stroke-dasharray:2.0,2.0;" x1="566" x2="1186" y1="506.6719" y2="506.6719"/><text fill="#000000" font-family="sans-serif" font-size="20" lengthAdjust="spacing" textLength="409" x="578" y="499.9551">operationTypeList OR 400 (Bad Request)</text><polygon fill="#181818" points="82,539.9531,72,543.9531,82,547.9531,78,543.9531" style="stroke:#181818;stroke-width:1.0;"/><line style="stroke:#181818;stroke-width:1.0;stroke-dasharray:2.0,2.0;" x1="76" x2="550" y1="543.9531" y2="543.9531"/><text fill="#000000" font-family="sans-serif" font-size="20" lengthAdjust="spacing" textLength="409" x="88" y="537.2363">operationTypeList OR 400 (Bad Request)</text><line style="stroke:#000000;stroke-width:1.0;stroke-dasharray:2.0,2.0;" x1="10" x2="3274.5" y1="552.9531" y2="552.9531"/><text fill="#000000" font-family="sans-serif" font-size="20" font-weight="bold" lengthAdjust="spacing" textLength="312" x="15" y="571.5176">[Search for operation type]</text><polygon fill="#181818" points="544,602.5156,554,606.5156,544,610.5156,548,606.5156" style="stroke:#181818;stroke-width:1.0;"/><line style="stroke:#181818;stroke-width:1.0;" x1="71" x2="550" y1="606.5156" y2="606.5156"/><text fill="#000000" font-family="sans-serif" font-size="20" lengthAdjust="spacing" textLength="456" x="78" y="599.7988">get(\operationTypeID or operationTypeName)</text><polygon fill="#181818" points="1170,639.7969,1180,643.7969,1170,647.7969,1174,643.7969" style="stroke:#181818;stroke-width:1.0;"/><line style="stroke:#181818;stroke-width:1.0;" x1="566" x2="1176" y1="643.7969" y2="643.7969"/><text fill="#000000" font-family="sans-serif" font-size="20" lengthAdjust="spacing" textLength="597" x="573" y="637.0801">getOperationType(operationTypeID or operationTypeName)</text><polygon fill="#181818" points="1796,677.0781,1806,681.0781,1796,685.0781,1800,681.0781" style="stroke:#181818;stroke-width:1.0;"/><line style="stroke:#181818;stroke-width:1.0;" x1="1192" x2="1802" y1="681.0781" y2="681.0781"/><text fill="#000000" font-family="sans-serif" font-size="20" lengthAdjust="spacing" textLength="597" x="1199" y="674.3613">getOperationType(operationTypeID or operationTypeName)</text><polygon fill="#181818" points="2652,714.3594,2662,718.3594,2652,722.3594,2656,718.3594" style="stroke:#181818;stroke-width:1.0;"/><line style="stroke:#181818;stroke-width:1.0;" x1="1818" x2="2658" y1="718.3594" y2="718.3594"/><text fill="#000000" font-family="sans-serif" font-size="20" lengthAdjust="spacing" textLength="827" x="1825" y="711.6426">instance().validateAndGetOperationType(operationTypeID or operationTypeName)</text><path d="M20,733.3594 L96,733.3594 L96,748.6406 L86,758.6406 L20,758.6406 L20,733.3594 " fill="#EEEEEE" style="stroke:#000000;stroke-width:1.5;"/><rect fill="none" height="543.5" style="stroke:#000000;stroke-width:1.5;" width="3244.5" x="20" y="733.3594"/><text fill="#000000" font-family="sans-serif" font-size="20" font-weight="bold" lengthAdjust="spacing" textLength="31" x="35" y="752.9238">alt</text><text fill="#000000" font-family="sans-serif" font-size="20" font-weight="bold" lengthAdjust="spacing" textLength="262" x="111" y="753.9238">[Operation type found]</text><polygon fill="#181818" points="3176,792.2031,3186,796.2031,3176,800.2031,3180,796.2031" style="stroke:#181818;stroke-width:1.0;"/><line style="stroke:#181818;stroke-width:1.0;" x1="2674" x2="3182" y1="796.2031" y2="796.2031"/><text fill="#000000" font-family="sans-serif" font-size="20" lengthAdjust="spacing" textLength="414" x="2681" y="789.4863">findOperationTypeByID(operationTypeID)</text><polygon fill="#181818" points="3176,829.4844,3186,833.4844,3176,837.4844,3180,833.4844" style="stroke:#181818;stroke-width:1.0;"/><line style="stroke:#181818;stroke-width:1.0;" x1="2674" x2="3182" y1="833.4844" y2="833.4844"/><text fill="#000000" font-family="sans-serif" font-size="20" lengthAdjust="spacing" textLength="490" x="2681" y="826.7676">findOperationTypeByName(operationTypeName)</text><polygon fill="#181818" points="2685,866.7656,2675,870.7656,2685,874.7656,2681,870.7656" style="stroke:#181818;stroke-width:1.0;"/><line style="stroke:#181818;stroke-width:1.0;stroke-dasharray:2.0,2.0;" x1="2679" x2="3192" y1="870.7656" y2="870.7656"/><text fill="#000000" font-family="sans-serif" font-size="20" lengthAdjust="spacing" textLength="191" x="2691" y="864.0488">operationTypeData</text><polygon fill="#181818" points="1829,904.0469,1819,908.0469,1829,912.0469,1825,908.0469" style="stroke:#181818;stroke-width:1.0;"/><line style="stroke:#181818;stroke-width:1.0;stroke-dasharray:2.0,2.0;" x1="1823" x2="2668" y1="908.0469" y2="908.0469"/><text fill="#000000" font-family="sans-serif" font-size="20" lengthAdjust="spacing" textLength="191" x="1835" y="901.3301">operationTypeData</text><polygon fill="#181818" points="1203,941.3281,1193,945.3281,1203,949.3281,1199,945.3281" style="stroke:#181818;stroke-width:1.0;"/><line style="stroke:#181818;stroke-width:1.0;stroke-dasharray:2.0,2.0;" x1="1197" x2="1812" y1="945.3281" y2="945.3281"/><text fill="#000000" font-family="sans-serif" font-size="20" lengthAdjust="spacing" textLength="191" x="1209" y="938.6113">operationTypeData</text><polygon fill="#181818" points="577,978.6094,567,982.6094,577,986.6094,573,982.6094" style="stroke:#181818;stroke-width:1.0;"/><line style="stroke:#181818;stroke-width:1.0;stroke-dasharray:2.0,2.0;" x1="571" x2="1186" y1="982.6094" y2="982.6094"/><text fill="#000000" font-family="sans-serif" font-size="20" lengthAdjust="spacing" textLength="191" x="583" y="975.8926">operationTypeData</text><polygon fill="#181818" points="82,1015.8906,72,1019.8906,82,1023.8906,78,1019.8906" style="stroke:#181818;stroke-width:1.0;"/><line style="stroke:#181818;stroke-width:1.0;stroke-dasharray:2.0,2.0;" x1="76" x2="550" y1="1019.8906" y2="1019.8906"/><text fill="#000000" font-family="sans-serif" font-size="20" lengthAdjust="spacing" textLength="227" x="88" y="1013.1738">Operation Type details</text><line style="stroke:#000000;stroke-width:1.0;stroke-dasharray:2.0,2.0;" x1="20" x2="3264.5" y1="1028.8906" y2="1028.8906"/><text fill="#000000" font-family="sans-serif" font-size="20" font-weight="bold" lengthAdjust="spacing" textLength="307" x="25" y="1047.4551">[Operation type not found]</text><polygon fill="#181818" points="3176,1078.4531,3186,1082.4531,3176,1086.4531,3180,1082.4531" style="stroke:#181818;stroke-width:1.0;"/><line style="stroke:#181818;stroke-width:1.0;" x1="2669" x2="3182" y1="1082.4531" y2="1082.4531"/><text fill="#000000" font-family="sans-serif" font-size="20" lengthAdjust="spacing" textLength="165" x="2676" y="1075.7363">404 (Not Found)</text><polygon fill="#181818" points="2680,1115.7344,2670,1119.7344,2680,1123.7344,2676,1119.7344" style="stroke:#181818;stroke-width:1.0;"/><line style="stroke:#181818;stroke-width:1.0;stroke-dasharray:2.0,2.0;" x1="2674" x2="3192" y1="1119.7344" y2="1119.7344"/><text fill="#000000" font-family="sans-serif" font-size="20" lengthAdjust="spacing" textLength="165" x="2686" y="1113.0176">404 (Not Found)</text><polygon fill="#181818" points="1824,1153.0156,1814,1157.0156,1824,1161.0156,1820,1157.0156" style="stroke:#181818;stroke-width:1.0;"/><line style="stroke:#181818;stroke-width:1.0;stroke-dasharray:2.0,2.0;" x1="1818" x2="2668" y1="1157.0156" y2="1157.0156"/><text fill="#000000" font-family="sans-serif" font-size="20" lengthAdjust="spacing" textLength="165" x="1830" y="1150.2988">404 (Not Found)</text><polygon fill="#181818" points="1198,1190.2969,1188,1194.2969,1198,1198.2969,1194,1194.2969" style="stroke:#181818;stroke-width:1.0;"/><line style="stroke:#181818;stroke-width:1.0;stroke-dasharray:2.0,2.0;" x1="1192" x2="1812" y1="1194.2969" y2="1194.2969"/><text fill="#000000" font-family="sans-serif" font-size="20" lengthAdjust="spacing" textLength="165" x="1204" y="1187.5801">404 (Not Found)</text><polygon fill="#181818" points="572,1227.5781,562,1231.5781,572,1235.5781,568,1231.5781" style="stroke:#181818;stroke-width:1.0;"/><line style="stroke:#181818;stroke-width:1.0;stroke-dasharray:2.0,2.0;" x1="566" x2="1186" y1="1231.5781" y2="1231.5781"/><text fill="#000000" font-family="sans-serif" font-size="20" lengthAdjust="spacing" textLength="165" x="578" y="1224.8613">404 (Not Found)</text><polygon fill="#181818" points="82,1264.8594,72,1268.8594,82,1272.8594,78,1268.8594" style="stroke:#181818;stroke-width:1.0;"/><line style="stroke:#181818;stroke-width:1.0;stroke-dasharray:2.0,2.0;" x1="76" x2="555" y1="1268.8594" y2="1268.8594"/><text fill="#000000" font-family="sans-serif" font-size="20" lengthAdjust="spacing" textLength="257" x="88" y="1262.1426">Operation Type not found</text><!--SRC=[hPR1Zjem48RlUOevXWE8xj8BXqhPHbkjj5qawB6NKJo0XR6fRLZHfw_jR2091DoqI0ZPdldip3-_WzbmkKEDMw6A3J5WjCIziCzAsWN_JV0mJamL0ckKx5rpQqd24eMXsjfMILMijThInT8EYmskQ66FWa1JOMjhPerClNEv0gltb5XkNSpdqQVHmoEyqe44F4BESULZX_3AZGMbOK6eYpNCTgJHSYNXnt579acmi6urOrik0GraUPZY1xJa1raEmoymLtjBPWehikbFLI42OG1mJYZZ747OScCK0axnOCEMu3vbe4T_p-U1cmanQu3JGOWyiLrWc72_Fk-hAxTMGf2EIp_7X_dpqCCMf0-ye2bmQIpAWjB1A0RwaPU4sOz1g1VjbE6kiCSfBBbaTq7dXB8yfo4CwyThb3uKU3Q7oNWCwHCob_LhJyQMQ4PTyDCvMrNi1wzAq2vg9Mq_Qakje7cj3_j1gmwgciy1ipmQbf2pQ6MZfVDCiwy3-PvRNdAe9_gfDznIknbA5rttIQEFqXxqspxwP_nV- -o0WZENcKdsxJ_itx2aluTc3PcSSdl9RfhlZfSR9tmwlkJjKmvwKFo3f1sF5dqXv6ZnbD7j_-Wxe8jNjtoKxRj0hLwvw_GkJjNILypTVD-v98jScAjL-dXt-UbWzLRZI6LhpND3tibu0kcRYtxsqMSDR-dHfMyNgv-w4RGORICm4Sf6KE9rlHJdKjaWh8lmtwIsxFxb_040]--></g></svg>