<?xml version="1.0" encoding="UTF-8" standalone="no"?><svg xmlns="http://www.w3.org/2000/svg" xmlns:xlink="http://www.w3.org/1999/xlink" contentStyleType="text/css" height="1623px" preserveAspectRatio="none" style="width:2131px;height:1623px;background:#FFFFFF;" version="1.1" viewBox="0 0 2131 1623" width="2131px" zoomAndPan="magnify"><defs/><g><text fill="#000000" font-family="sans-serif" font-size="14" font-weight="bold" lengthAdjust="spacing" textLength="391" x="871.5" y="27.9951">Doctor Operation Request Deletion Flow - Level 2</text><rect fill="#FFFFFF" height="1352.9688" style="stroke:#181818;stroke-width:1.0;" width="10" x="427" y="164.8594"/><rect fill="#FFFFFF" height="1274.4063" style="stroke:#181818;stroke-width:1.0;" width="10" x="897" y="252.4219"/><rect fill="#FFFFFF" height="738.9063" style="stroke:#181818;stroke-width:1.0;" width="10" x="902" y="741.6406"/><rect fill="#FFFFFF" height="110.8438" style="stroke:#181818;stroke-width:1.0;" width="10" x="1285" y="1122.7344"/><rect fill="none" height="131.4063" style="stroke:#000000;stroke-width:1.5;" width="530" x="10" y="573.9531"/><line style="stroke:#181818;stroke-width:0.5;stroke-dasharray:5.0,5.0;" x1="56" x2="56" y1="125.5781" y2="1535.8281"/><line style="stroke:#181818;stroke-width:0.5;stroke-dasharray:5.0,5.0;" x1="432" x2="432" y1="125.5781" y2="1535.8281"/><line style="stroke:#181818;stroke-width:0.5;stroke-dasharray:5.0,5.0;" x1="902" x2="902" y1="125.5781" y2="1535.8281"/><line style="stroke:#181818;stroke-width:0.5;stroke-dasharray:5.0,5.0;" x1="1289.5" x2="1289.5" y1="125.5781" y2="1535.8281"/><line style="stroke:#181818;stroke-width:0.5;stroke-dasharray:5.0,5.0;" x1="1531" x2="1531" y1="125.5781" y2="1535.8281"/><line style="stroke:#181818;stroke-width:0.5;stroke-dasharray:5.0,5.0;" x1="1717" x2="1717" y1="125.5781" y2="1535.8281"/><line style="stroke:#181818;stroke-width:0.5;stroke-dasharray:5.0,5.0;" x1="2080" x2="2080" y1="125.5781" y2="1535.8281"/><text fill="#000000" font-family="sans-serif" font-size="20" lengthAdjust="spacing" textLength="66" x="20" y="120.8613">Doctor</text><ellipse cx="56" cy="50.7969" fill="#E2E2F0" rx="8" ry="8" style="stroke:#181818;stroke-width:0.5;"/><path d="M56,58.7969 L56,85.7969 M43,66.7969 L69,66.7969 M56,85.7969 L43,100.7969 M56,85.7969 L69,100.7969 " fill="none" style="stroke:#181818;stroke-width:0.5;"/><text fill="#000000" font-family="sans-serif" font-size="20" lengthAdjust="spacing" textLength="66" x="20" y="1553.3926">Doctor</text><ellipse cx="56" cy="1566.6094" fill="#E2E2F0" rx="8" ry="8" style="stroke:#181818;stroke-width:0.5;"/><path d="M56,1574.6094 L56,1601.6094 M43,1582.6094 L69,1582.6094 M56,1601.6094 L43,1616.6094 M56,1601.6094 L69,1616.6094 " fill="none" style="stroke:#181818;stroke-width:0.5;"/><rect fill="#E2E2F0" height="60.5625" rx="2.5" ry="2.5" style="stroke:#181818;stroke-width:0.5;" width="196" x="334" y="64.0156"/><text fill="#000000" font-family="sans-serif" font-size="20" lengthAdjust="spacing" textLength="182" x="341" y="89.5801">OperationRequest</text><text fill="#000000" font-family="sans-serif" font-size="20" lengthAdjust="spacing" textLength="99" x="382.5" y="112.8613">Controller</text><rect fill="#E2E2F0" height="60.5625" rx="2.5" ry="2.5" style="stroke:#181818;stroke-width:0.5;" width="196" x="334" y="1534.8281"/><text fill="#000000" font-family="sans-serif" font-size="20" lengthAdjust="spacing" textLength="182" x="341" y="1560.3926">OperationRequest</text><text fill="#000000" font-family="sans-serif" font-size="20" lengthAdjust="spacing" textLength="99" x="382.5" y="1583.6738">Controller</text><rect fill="#E2E2F0" height="60.5625" rx="2.5" ry="2.5" style="stroke:#181818;stroke-width:0.5;" width="196" x="804" y="64.0156"/><text fill="#000000" font-family="sans-serif" font-size="20" lengthAdjust="spacing" textLength="182" x="811" y="89.5801">OperationRequest</text><text fill="#000000" font-family="sans-serif" font-size="20" lengthAdjust="spacing" textLength="73" x="865.5" y="112.8613">Service</text><rect fill="#E2E2F0" height="60.5625" rx="2.5" ry="2.5" style="stroke:#181818;stroke-width:0.5;" width="196" x="804" y="1534.8281"/><text fill="#000000" font-family="sans-serif" font-size="20" lengthAdjust="spacing" textLength="182" x="811" y="1560.3926">OperationRequest</text><text fill="#000000" font-family="sans-serif" font-size="20" lengthAdjust="spacing" textLength="73" x="865.5" y="1583.6738">Service</text><rect fill="#E2E2F0" height="60.5625" rx="2.5" ry="2.5" style="stroke:#181818;stroke-width:0.5;" width="175" x="1202.5" y="64.0156"/><text fill="#000000" font-family="sans-serif" font-size="20" lengthAdjust="spacing" textLength="161" x="1209.5" y="89.5801">PlanningModule</text><text fill="#000000" font-family="sans-serif" font-size="20" lengthAdjust="spacing" textLength="74" x="1253" y="112.8613">Notifier</text><rect fill="#E2E2F0" height="60.5625" rx="2.5" ry="2.5" style="stroke:#181818;stroke-width:0.5;" width="175" x="1202.5" y="1534.8281"/><text fill="#000000" font-family="sans-serif" font-size="20" lengthAdjust="spacing" textLength="161" x="1209.5" y="1560.3926">PlanningModule</text><text fill="#000000" font-family="sans-serif" font-size="20" lengthAdjust="spacing" textLength="74" x="1253" y="1583.6738">Notifier</text><rect fill="#E2E2F0" height="37.2813" rx="2.5" ry="2.5" style="stroke:#181818;stroke-width:0.5;" width="156" x="1453" y="87.2969"/><text fill="#000000" font-family="sans-serif" font-size="20" lengthAdjust="spacing" textLength="142" x="1460" y="112.8613">LogRepository</text><rect fill="#E2E2F0" height="37.2813" rx="2.5" ry="2.5" style="stroke:#181818;stroke-width:0.5;" width="156" x="1453" y="1534.8281"/><text fill="#000000" font-family="sans-serif" font-size="20" lengthAdjust="spacing" textLength="142" x="1460" y="1560.3926">LogRepository</text><rect fill="#E2E2F0" height="60.5625" rx="2.5" ry="2.5" style="stroke:#181818;stroke-width:0.5;" width="196" x="1619" y="64.0156"/><text fill="#000000" font-family="sans-serif" font-size="20" lengthAdjust="spacing" textLength="182" x="1626" y="89.5801">OperationRequest</text><text fill="#000000" font-family="sans-serif" font-size="20" lengthAdjust="spacing" textLength="106" x="1664" y="112.8613">Repository</text><rect fill="#E2E2F0" height="60.5625" rx="2.5" ry="2.5" style="stroke:#181818;stroke-width:0.5;" width="196" x="1619" y="1534.8281"/><text fill="#000000" font-family="sans-serif" font-size="20" lengthAdjust="spacing" textLength="182" x="1626" y="1560.3926">OperationRequest</text><text fill="#000000" font-family="sans-serif" font-size="20" lengthAdjust="spacing" textLength="106" x="1664" y="1583.6738">Repository</text><text fill="#000000" font-family="sans-serif" font-size="20" lengthAdjust="spacing" textLength="94" x="2030" y="120.8613">Database</text><path d="M2062,66.2969 C2062,56.2969 2080,56.2969 2080,56.2969 C2080,56.2969 2098,56.2969 2098,66.2969 L2098,92.2969 C2098,102.2969 2080,102.2969 2080,102.2969 C2080,102.2969 2062,102.2969 2062,92.2969 L2062,66.2969 " fill="#E2E2F0" style="stroke:#181818;stroke-width:1.5;"/><path d="M2062,66.2969 C2062,76.2969 2080,76.2969 2080,76.2969 C2080,76.2969 2098,76.2969 2098,66.2969 " fill="none" style="stroke:#181818;stroke-width:1.5;"/><text fill="#000000" font-family="sans-serif" font-size="20" lengthAdjust="spacing" textLength="94" x="2030" y="1553.3926">Database</text><path d="M2062,1568.1094 C2062,1558.1094 2080,1558.1094 2080,1558.1094 C2080,1558.1094 2098,1558.1094 2098,1568.1094 L2098,1594.1094 C2098,1604.1094 2080,1604.1094 2080,1604.1094 C2080,1604.1094 2062,1604.1094 2062,1594.1094 L2062,1568.1094 " fill="#E2E2F0" style="stroke:#181818;stroke-width:1.5;"/><path d="M2062,1568.1094 C2062,1578.1094 2080,1578.1094 2080,1578.1094 C2080,1578.1094 2098,1578.1094 2098,1568.1094 " fill="none" style="stroke:#181818;stroke-width:1.5;"/><rect fill="#FFFFFF" height="1352.9688" style="stroke:#181818;stroke-width:1.0;" width="10" x="427" y="164.8594"/><rect fill="#FFFFFF" height="1274.4063" style="stroke:#181818;stroke-width:1.0;" width="10" x="897" y="252.4219"/><rect fill="#FFFFFF" height="738.9063" style="stroke:#181818;stroke-width:1.0;" width="10" x="902" y="741.6406"/><rect fill="#FFFFFF" height="110.8438" style="stroke:#181818;stroke-width:1.0;" width="10" x="1285" y="1122.7344"/><polygon fill="#181818" points="415,160.8594,425,164.8594,415,168.8594,419,164.8594" style="stroke:#181818;stroke-width:1.0;"/><line style="stroke:#181818;stroke-width:1.0;" x1="56" x2="421" y1="164.8594" y2="164.8594"/><text fill="#000000" font-family="sans-serif" font-size="20" lengthAdjust="spacing" textLength="352" x="63" y="158.1426">DELETE /api/operationrequest/{id}</text><line style="stroke:#181818;stroke-width:1.0;" x1="437" x2="479" y1="202.1406" y2="202.1406"/><line style="stroke:#181818;stroke-width:1.0;" x1="479" x2="479" y1="202.1406" y2="215.1406"/><line style="stroke:#181818;stroke-width:1.0;" x1="438" x2="479" y1="215.1406" y2="215.1406"/><polygon fill="#181818" points="448,211.1406,438,215.1406,448,219.1406,444,215.1406" style="stroke:#181818;stroke-width:1.0;"/><text fill="#000000" font-family="sans-serif" font-size="20" lengthAdjust="spacing" textLength="267" x="444" y="195.4238">Extract Doctor ID from JWT</text><polygon fill="#181818" points="885,248.4219,895,252.4219,885,256.4219,889,252.4219" style="stroke:#181818;stroke-width:1.0;"/><line style="stroke:#181818;stroke-width:1.0;" x1="437" x2="891" y1="252.4219" y2="252.4219"/><text fill="#000000" font-family="sans-serif" font-size="20" lengthAdjust="spacing" textLength="174" x="444" y="245.7051">GetByIdAsync(id)</text><polygon fill="#181818" points="1705,285.7031,1715,289.7031,1705,293.7031,1709,289.7031" style="stroke:#181818;stroke-width:1.0;"/><line style="stroke:#181818;stroke-width:1.0;" x1="907" x2="1711" y1="289.7031" y2="289.7031"/><text fill="#000000" font-family="sans-serif" font-size="20" lengthAdjust="spacing" textLength="174" x="914" y="282.9863">GetByIdAsync(id)</text><polygon fill="#181818" points="2068,322.9844,2078,326.9844,2068,330.9844,2072,326.9844" style="stroke:#181818;stroke-width:1.0;"/><line style="stroke:#181818;stroke-width:1.0;" x1="1717" x2="2074" y1="326.9844" y2="326.9844"/><text fill="#000000" font-family="sans-serif" font-size="20" lengthAdjust="spacing" textLength="339" x="1724" y="320.2676">SELECT FROM OperationRequests</text><polygon fill="#181818" points="1728,360.2656,1718,364.2656,1728,368.2656,1724,364.2656" style="stroke:#181818;stroke-width:1.0;"/><line style="stroke:#181818;stroke-width:1.0;stroke-dasharray:2.0,2.0;" x1="1722" x2="2079" y1="364.2656" y2="364.2656"/><text fill="#000000" font-family="sans-serif" font-size="20" lengthAdjust="spacing" textLength="182" x="1734" y="357.5488">OperationRequest</text><polygon fill="#181818" points="918,397.5469,908,401.5469,918,405.5469,914,401.5469" style="stroke:#181818;stroke-width:1.0;"/><line style="stroke:#181818;stroke-width:1.0;stroke-dasharray:2.0,2.0;" x1="912" x2="1716" y1="401.5469" y2="401.5469"/><text fill="#000000" font-family="sans-serif" font-size="20" lengthAdjust="spacing" textLength="182" x="924" y="394.8301">OperationRequest</text><polygon fill="#181818" points="448,434.8281,438,438.8281,448,442.8281,444,438.8281" style="stroke:#181818;stroke-width:1.0;"/><line style="stroke:#181818;stroke-width:1.0;stroke-dasharray:2.0,2.0;" x1="442" x2="896" y1="438.8281" y2="438.8281"/><text fill="#000000" font-family="sans-serif" font-size="20" lengthAdjust="spacing" textLength="182" x="454" y="432.1113">OperationRequest</text><line style="stroke:#181818;stroke-width:1.0;" x1="437" x2="479" y1="545.9531" y2="545.9531"/><line style="stroke:#181818;stroke-width:1.0;" x1="479" x2="479" y1="545.9531" y2="558.9531"/><line style="stroke:#181818;stroke-width:1.0;" x1="438" x2="479" y1="558.9531" y2="558.9531"/><polygon fill="#181818" points="448,554.9531,438,558.9531,448,562.9531,444,558.9531" style="stroke:#181818;stroke-width:1.0;"/><text fill="#000000" font-family="sans-serif" font-size="20" lengthAdjust="spacing" textLength="90" x="444" y="469.3926">Validate:</text><text fill="#000000" font-family="sans-serif" font-size="20" lengthAdjust="spacing" textLength="158" x="444" y="492.6738">- Request exists</text><text fill="#000000" font-family="sans-serif" font-size="20" lengthAdjust="spacing" textLength="178" x="444" y="515.9551">- Doctor is creator</text><text fill="#000000" font-family="sans-serif" font-size="20" lengthAdjust="spacing" textLength="157" x="444" y="539.2363">- Not scheduled</text><path d="M10,573.9531 L86,573.9531 L86,589.2344 L76,599.2344 L10,599.2344 L10,573.9531 " fill="#EEEEEE" style="stroke:#000000;stroke-width:1.5;"/><rect fill="none" height="131.4063" style="stroke:#000000;stroke-width:1.5;" width="530" x="10" y="573.9531"/><text fill="#000000" font-family="sans-serif" font-size="20" font-weight="bold" lengthAdjust="spacing" textLength="31" x="25" y="593.5176">alt</text><text fill="#000000" font-family="sans-serif" font-size="20" font-weight="bold" lengthAdjust="spacing" textLength="276" x="101" y="594.5176">[Confirmation Required]</text><polygon fill="#181818" points="67,656.0781,57,660.0781,67,664.0781,63,660.0781" style="stroke:#181818;stroke-width:1.0;"/><line style="stroke:#181818;stroke-width:1.0;stroke-dasharray:2.0,2.0;" x1="61" x2="426" y1="660.0781" y2="660.0781"/><text fill="#000000" font-family="sans-serif" font-size="20" lengthAdjust="spacing" textLength="139" x="73" y="630.0801">202 Accepted</text><text fill="#000000" font-family="sans-serif" font-size="20" lengthAdjust="spacing" textLength="228" x="73" y="653.3613">Confirmation Required</text><polygon fill="#181818" points="415,693.3594,425,697.3594,415,701.3594,419,697.3594" style="stroke:#181818;stroke-width:1.0;"/><line style="stroke:#181818;stroke-width:1.0;" x1="56" x2="421" y1="697.3594" y2="697.3594"/><text fill="#000000" font-family="sans-serif" font-size="20" lengthAdjust="spacing" textLength="293" x="63" y="690.6426">DELETE with confirmed=true</text><polygon fill="#181818" points="890,737.6406,900,741.6406,890,745.6406,894,741.6406" style="stroke:#181818;stroke-width:1.0;"/><line style="stroke:#181818;stroke-width:1.0;" x1="437" x2="896" y1="741.6406" y2="741.6406"/><text fill="#000000" font-family="sans-serif" font-size="20" lengthAdjust="spacing" textLength="436" x="444" y="734.9238">DeleteOperationRequestAsync(id, doctorId)</text><polygon fill="#181818" points="1705,774.9219,1715,778.9219,1705,782.9219,1709,778.9219" style="stroke:#181818;stroke-width:1.0;"/><line style="stroke:#181818;stroke-width:1.0;" x1="912" x2="1711" y1="778.9219" y2="778.9219"/><text fill="#000000" font-family="sans-serif" font-size="20" lengthAdjust="spacing" textLength="174" x="919" y="772.2051">GetByIdAsync(id)</text><polygon fill="#181818" points="2068,812.2031,2078,816.2031,2068,820.2031,2072,816.2031" style="stroke:#181818;stroke-width:1.0;"/><line style="stroke:#181818;stroke-width:1.0;" x1="1717" x2="2074" y1="816.2031" y2="816.2031"/><text fill="#000000" font-family="sans-serif" font-size="20" lengthAdjust="spacing" textLength="339" x="1724" y="809.4863">SELECT FROM OperationRequests</text><polygon fill="#181818" points="1728,849.4844,1718,853.4844,1728,857.4844,1724,853.4844" style="stroke:#181818;stroke-width:1.0;"/><line style="stroke:#181818;stroke-width:1.0;stroke-dasharray:2.0,2.0;" x1="1722" x2="2079" y1="853.4844" y2="853.4844"/><text fill="#000000" font-family="sans-serif" font-size="20" lengthAdjust="spacing" textLength="182" x="1734" y="846.7676">OperationRequest</text><line style="stroke:#181818;stroke-width:1.0;" x1="912" x2="954" y1="890.7656" y2="890.7656"/><line style="stroke:#181818;stroke-width:1.0;" x1="954" x2="954" y1="890.7656" y2="903.7656"/><line style="stroke:#181818;stroke-width:1.0;" x1="913" x2="954" y1="903.7656" y2="903.7656"/><polygon fill="#181818" points="923,899.7656,913,903.7656,923,907.7656,919,903.7656" style="stroke:#181818;stroke-width:1.0;"/><text fill="#000000" font-family="sans-serif" font-size="20" lengthAdjust="spacing" textLength="332" x="919" y="884.0488">request.MarkAsDeleted(doctorId)</text><polygon fill="#181818" points="1519,1006.8906,1529,1010.8906,1519,1014.8906,1523,1010.8906" style="stroke:#181818;stroke-width:1.0;"/><line style="stroke:#181818;stroke-width:1.0;" x1="912" x2="1525" y1="1010.8906" y2="1010.8906"/><text fill="#000000" font-family="sans-serif" font-size="20" lengthAdjust="spacing" textLength="199" x="919" y="934.3301">AddAsync(new Log(</text><text fill="#000000" font-family="sans-serif" font-size="20" lengthAdjust="spacing" textLength="212" x="919" y="957.6113">TypeOfAction.Delete,</text><text fill="#000000" font-family="sans-serif" font-size="20" lengthAdjust="spacing" textLength="101" x="919" y="980.8926">requestId,</text><text fill="#000000" font-family="sans-serif" font-size="20" lengthAdjust="spacing" textLength="199" x="919" y="1004.1738">"Deleted by Dr. X"))</text><polygon fill="#181818" points="2068,1044.1719,2078,1048.1719,2068,1052.1719,2072,1048.1719" style="stroke:#181818;stroke-width:1.0;"/><line style="stroke:#181818;stroke-width:1.0;" x1="1531" x2="2074" y1="1048.1719" y2="1048.1719"/><text fill="#000000" font-family="sans-serif" font-size="20" lengthAdjust="spacing" textLength="180" x="1538" y="1041.4551">INSERT INTO Logs</text><polygon fill="#181818" points="1542,1081.4531,1532,1085.4531,1542,1089.4531,1538,1085.4531" style="stroke:#181818;stroke-width:1.0;"/><line style="stroke:#181818;stroke-width:1.0;stroke-dasharray:2.0,2.0;" x1="1536" x2="2079" y1="1085.4531" y2="1085.4531"/><text fill="#000000" font-family="sans-serif" font-size="20" lengthAdjust="spacing" textLength="63" x="1548" y="1078.7363">Log ID</text><polygon fill="#181818" points="1273,1118.7344,1283,1122.7344,1273,1126.7344,1277,1122.7344" style="stroke:#181818;stroke-width:1.0;"/><line style="stroke:#181818;stroke-width:1.0;" x1="912" x2="1279" y1="1122.7344" y2="1122.7344"/><text fill="#000000" font-family="sans-serif" font-size="20" lengthAdjust="spacing" textLength="354" x="919" y="1116.0176">NotifyOperationRequestDeleted(id)</text><line style="stroke:#181818;stroke-width:1.0;" x1="1295" x2="1337" y1="1183.2969" y2="1183.2969"/><line style="stroke:#181818;stroke-width:1.0;" x1="1337" x2="1337" y1="1183.2969" y2="1196.2969"/><line style="stroke:#181818;stroke-width:1.0;" x1="1296" x2="1337" y1="1196.2969" y2="1196.2969"/><polygon fill="#181818" points="1306,1192.2969,1296,1196.2969,1306,1200.2969,1302,1196.2969" style="stroke:#181818;stroke-width:1.0;"/><text fill="#000000" font-family="sans-serif" font-size="20" lengthAdjust="spacing" textLength="217" x="1302" y="1153.2988">Send HTTP DELETE to</text><text fill="#000000" font-family="sans-serif" font-size="20" lengthAdjust="spacing" textLength="171" x="1302" y="1176.5801">planning module</text><polygon fill="#181818" points="923,1229.5781,913,1233.5781,923,1237.5781,919,1233.5781" style="stroke:#181818;stroke-width:1.0;"/><line style="stroke:#181818;stroke-width:1.0;stroke-dasharray:2.0,2.0;" x1="917" x2="1289" y1="1233.5781" y2="1233.5781"/><text fill="#000000" font-family="sans-serif" font-size="20" lengthAdjust="spacing" textLength="42" x="929" y="1226.8613">void</text><polygon fill="#181818" points="1705,1266.8594,1715,1270.8594,1705,1274.8594,1709,1270.8594" style="stroke:#181818;stroke-width:1.0;"/><line style="stroke:#181818;stroke-width:1.0;" x1="912" x2="1711" y1="1270.8594" y2="1270.8594"/><text fill="#000000" font-family="sans-serif" font-size="20" lengthAdjust="spacing" textLength="232" x="919" y="1264.1426">RemoveAsync(request)</text><polygon fill="#181818" points="2068,1327.4219,2078,1331.4219,2068,1335.4219,2072,1331.4219" style="stroke:#181818;stroke-width:1.0;"/><line style="stroke:#181818;stroke-width:1.0;" x1="1717" x2="2074" y1="1331.4219" y2="1331.4219"/><text fill="#000000" font-family="sans-serif" font-size="20" lengthAdjust="spacing" textLength="279" x="1724" y="1301.4238">UPDATE OperationRequests</text><text fill="#000000" font-family="sans-serif" font-size="20" lengthAdjust="spacing" textLength="208" x="1724" y="1324.7051">SET IsDeleted = true</text><polygon fill="#181818" points="1728,1364.7031,1718,1368.7031,1728,1372.7031,1724,1368.7031" style="stroke:#181818;stroke-width:1.0;"/><line style="stroke:#181818;stroke-width:1.0;stroke-dasharray:2.0,2.0;" x1="1722" x2="2079" y1="1368.7031" y2="1368.7031"/><text fill="#000000" font-family="sans-serif" font-size="20" lengthAdjust="spacing" textLength="80" x="1734" y="1361.9863">Success</text><polygon fill="#181818" points="2068,1401.9844,2078,1405.9844,2068,1409.9844,2072,1405.9844" style="stroke:#181818;stroke-width:1.0;"/><line style="stroke:#181818;stroke-width:1.0;" x1="912" x2="2074" y1="1405.9844" y2="1405.9844"/><text fill="#000000" font-family="sans-serif" font-size="20" lengthAdjust="spacing" textLength="205" x="919" y="1399.2676">COMMIT Transaction</text><polygon fill="#181818" points="923,1439.2656,913,1443.2656,923,1447.2656,919,1443.2656" style="stroke:#181818;stroke-width:1.0;"/><line style="stroke:#181818;stroke-width:1.0;stroke-dasharray:2.0,2.0;" x1="917" x2="2079" y1="1443.2656" y2="1443.2656"/><text fill="#000000" font-family="sans-serif" font-size="20" lengthAdjust="spacing" textLength="80" x="929" y="1436.5488">Success</text><polygon fill="#181818" points="448,1476.5469,438,1480.5469,448,1484.5469,444,1480.5469" style="stroke:#181818;stroke-width:1.0;"/><line style="stroke:#181818;stroke-width:1.0;stroke-dasharray:2.0,2.0;" x1="442" x2="896" y1="1480.5469" y2="1480.5469"/><text fill="#000000" font-family="sans-serif" font-size="20" lengthAdjust="spacing" textLength="41" x="454" y="1473.8301">true</text><polygon fill="#181818" points="67,1513.8281,57,1517.8281,67,1521.8281,63,1517.8281" style="stroke:#181818;stroke-width:1.0;"/><line style="stroke:#181818;stroke-width:1.0;stroke-dasharray:2.0,2.0;" x1="61" x2="431" y1="1517.8281" y2="1517.8281"/><text fill="#000000" font-family="sans-serif" font-size="20" lengthAdjust="spacing" textLength="158" x="73" y="1511.1113">204 No Content</text><!--SRC=[jLHDRzf04BtxLuouD942gQAUa589C6cf84Qs-t7Wil4EP1Mpw-uk9BJgV-_isWRReSgfI62pC_DcvhsPDKz25aopRQwo9-J0SSrskRrJqYRY5yBD-y0AcoE4AhDAGrIWPbOe2J7-tA6n46AE_k0kLy_GXpdkCOUR860-e8mBA8SLcIYOjD0xWbGOApcXV5hbEUeUC0DHF7ah8a6z5nbMxadRVPapAONSB1JVvRYIzygAjQZ0bulxjlTSRM8ib15KwC6xpEEtqdS2eZZWpB87PX1wOVNcBU4u22hk-XzTOqC8f_DfEeLhLeXhLIFh4ldwj-1_77LYponw8WBwESPENwmcQot7B8IrLbluyZrj-2L3-8HsV9ZnaJd8x4BmooPaGfv9wNd6COgTAHmF8Q4w9odSnT42kWoO81n3lyBe6Zr6NSaPOr9P9sUimJkOIM45os7FSi6ziKN1j_8OXolPFquXlWWgofrKp0W3cKP6h-wG1W1CzeXk73YDPcw1HcujzFOqp4AJ2UZZapaEFDAGTk06Hbc6XKNkH_KVSUTbVXRs4R8o2FcjrJiCKFAsN7w9i4j6BSeLS0yzw-f8P8LgouHiS0LCSZ1gRMcN7UX_5_kKW1gfndYmOFffPCgs-CMfVAfuucH1O3ikBEHgKyVF2Np4g-8aFWFjvSLAfeS2e_KeSoa79U3LgbwN6QVtNfK67WuGwW7yw5rU1lDZPxFxP1gdz4WZ1tbinkMZ_xH3hYf_HHoWg6uEsFghewwDxenXvTBjl-wnjMJkZg7lCJGXnU5pcYxhgR1g9RkvV41Dv5u97d1i8LAP2TiZP8zCRj0qbOrng_POSbTnqrJtwp8SKTPNmj8zEYLgQg7W5lnyDkHETZJvnXnLTcYJQB6OfP1g9WtpmfmYacv8lGuUkD6Gdz_Ng_Q1Q7QxQL7Qjlia-0i0]--></g></svg>