<?xml version="1.0" encoding="UTF-8" standalone="no"?><svg xmlns="http://www.w3.org/2000/svg" xmlns:xlink="http://www.w3.org/1999/xlink" contentStyleType="text/css" height="848px" preserveAspectRatio="none" style="width:837px;height:848px;background:#FFFFFF;" version="1.1" viewBox="0 0 837 848" width="837px" zoomAndPan="magnify"><defs/><g><text fill="#000000" font-family="sans-serif" font-size="14" font-weight="bold" lengthAdjust="spacing" textLength="170" x="326.75" y="22.9951">DOMAIN MODEL - DDD</text><!--class User--><g id="elem_User"><rect codeLine="19" fill="#FEF9E7" height="56.5625" id="User" rx="2.5" ry="2.5" style="stroke:#181818;stroke-width:0.5;" width="113" x="295" y="415.2969"/><ellipse cx="311" cy="443.5781" fill="#ADD1B2" rx="12" ry="12" style="stroke:#181818;stroke-width:1.0;"/><path d="M315.7188,451.0781 L306.6406,451.0781 L306.6406,436.5 L315.7188,436.5 L315.7188,439.0313 L309.5156,439.0313 L309.5156,442.1875 L315.1406,442.1875 L315.1406,444.7188 L309.5156,444.7188 L309.5156,448.5313 L315.7188,448.5313 L315.7188,451.0781 Z " fill="#000000"/><text fill="#000000" font-family="sans-serif" font-size="20" font-style="italic" lengthAdjust="spacing" textLength="83" x="324" y="438.8613">«entity»</text><text fill="#000000" font-family="sans-serif" font-size="20" lengthAdjust="spacing" textLength="45" x="343" y="462.1426">User</text></g><!--class Patient--><g id="elem_Patient"><rect codeLine="21" fill="#FEF9E7" height="56.5625" id="Patient" rx="2.5" ry="2.5" style="stroke:#181818;stroke-width:0.5;" width="113" x="343" y="328.2969"/><ellipse cx="359" cy="356.5781" fill="#ADD1B2" rx="12" ry="12" style="stroke:#181818;stroke-width:1.0;"/><path d="M363.7188,364.0781 L354.6406,364.0781 L354.6406,349.5 L363.7188,349.5 L363.7188,352.0313 L357.5156,352.0313 L357.5156,355.1875 L363.1406,355.1875 L363.1406,357.7188 L357.5156,357.7188 L357.5156,361.5313 L363.7188,361.5313 L363.7188,364.0781 Z " fill="#000000"/><text fill="#000000" font-family="sans-serif" font-size="20" font-style="italic" lengthAdjust="spacing" textLength="83" x="372" y="351.8613">«entity»</text><text fill="#000000" font-family="sans-serif" font-size="20" lengthAdjust="spacing" textLength="71" x="378" y="375.1426">Patient</text></g><!--class Staff--><g id="elem_Staff"><rect codeLine="23" fill="#FEF9E7" height="56.5625" id="Staff" rx="2.5" ry="2.5" style="stroke:#181818;stroke-width:0.5;" width="113" x="7" y="502.2969"/><ellipse cx="23" cy="530.5781" fill="#ADD1B2" rx="12" ry="12" style="stroke:#181818;stroke-width:1.0;"/><path d="M27.7188,538.0781 L18.6406,538.0781 L18.6406,523.5 L27.7188,523.5 L27.7188,526.0313 L21.5156,526.0313 L21.5156,529.1875 L27.1406,529.1875 L27.1406,531.7188 L21.5156,531.7188 L21.5156,535.5313 L27.7188,535.5313 L27.7188,538.0781 Z " fill="#000000"/><text fill="#000000" font-family="sans-serif" font-size="20" font-style="italic" lengthAdjust="spacing" textLength="83" x="36" y="525.8613">«entity»</text><text fill="#000000" font-family="sans-serif" font-size="20" lengthAdjust="spacing" textLength="47" x="54" y="549.1426">Staff</text></g><!--class Specialization--><g id="elem_Specialization"><rect codeLine="25" fill="#FEF9E7" height="56.5625" id="Specialization" rx="2.5" ry="2.5" style="stroke:#181818;stroke-width:0.5;" width="175" x="150" y="786.2969"/><ellipse cx="166" cy="814.5781" fill="#ADD1B2" rx="12" ry="12" style="stroke:#181818;stroke-width:1.0;"/><path d="M170.7188,822.0781 L161.6406,822.0781 L161.6406,807.5 L170.7188,807.5 L170.7188,810.0313 L164.5156,810.0313 L164.5156,813.1875 L170.1406,813.1875 L170.1406,815.7188 L164.5156,815.7188 L164.5156,819.5313 L170.7188,819.5313 L170.7188,822.0781 Z " fill="#000000"/><text fill="#000000" font-family="sans-serif" font-size="20" font-style="italic" lengthAdjust="spacing" textLength="83" x="210" y="809.8613">«entity»</text><text fill="#000000" font-family="sans-serif" font-size="20" lengthAdjust="spacing" textLength="141" x="181" y="833.1426">Specialization</text></g><!--class OperationRequest--><g id="elem_OperationRequest"><rect codeLine="27" fill="#FEF9E7" height="56.5625" id="OperationRequest" rx="2.5" ry="2.5" style="stroke:#181818;stroke-width:0.5;" width="216" x="409.5" y="502.2969"/><ellipse cx="425.5" cy="530.5781" fill="#ADD1B2" rx="12" ry="12" style="stroke:#181818;stroke-width:1.0;"/><path d="M430.2188,538.0781 L421.1406,538.0781 L421.1406,523.5 L430.2188,523.5 L430.2188,526.0313 L424.0156,526.0313 L424.0156,529.1875 L429.6406,529.1875 L429.6406,531.7188 L424.0156,531.7188 L424.0156,535.5313 L430.2188,535.5313 L430.2188,538.0781 Z " fill="#000000"/><text fill="#000000" font-family="sans-serif" font-size="20" font-style="italic" lengthAdjust="spacing" textLength="83" x="490" y="525.8613">«entity»</text><text fill="#000000" font-family="sans-serif" font-size="20" lengthAdjust="spacing" textLength="182" x="440.5" y="549.1426">OperationRequest</text></g><!--class OperationType--><g id="elem_OperationType"><rect codeLine="29" fill="#FEF9E7" height="56.5625" id="OperationType" rx="2.5" ry="2.5" style="stroke:#181818;stroke-width:0.5;" width="182" x="353.5" y="644.2969"/><ellipse cx="369.5" cy="672.5781" fill="#ADD1B2" rx="12" ry="12" style="stroke:#181818;stroke-width:1.0;"/><path d="M374.2188,680.0781 L365.1406,680.0781 L365.1406,665.5 L374.2188,665.5 L374.2188,668.0313 L368.0156,668.0313 L368.0156,671.1875 L373.6406,671.1875 L373.6406,673.7188 L368.0156,673.7188 L368.0156,677.5313 L374.2188,677.5313 L374.2188,680.0781 Z " fill="#000000"/><text fill="#000000" font-family="sans-serif" font-size="20" font-style="italic" lengthAdjust="spacing" textLength="83" x="417" y="667.8613">«entity»</text><text fill="#000000" font-family="sans-serif" font-size="20" lengthAdjust="spacing" textLength="148" x="384.5" y="691.1426">OperationType</text></g><!--class Appointment--><g id="elem_Appointment"><rect codeLine="31" fill="#FEF9E7" height="56.5625" id="Appointment" rx="2.5" ry="2.5" style="stroke:#181818;stroke-width:0.5;" width="166" x="598.5" y="328.2969"/><ellipse cx="614.5" cy="356.5781" fill="#ADD1B2" rx="12" ry="12" style="stroke:#181818;stroke-width:1.0;"/><path d="M619.2188,364.0781 L610.1406,364.0781 L610.1406,349.5 L619.2188,349.5 L619.2188,352.0313 L613.0156,352.0313 L613.0156,355.1875 L618.6406,355.1875 L618.6406,357.7188 L613.0156,357.7188 L613.0156,361.5313 L619.2188,361.5313 L619.2188,364.0781 Z " fill="#000000"/><text fill="#000000" font-family="sans-serif" font-size="20" font-style="italic" lengthAdjust="spacing" textLength="84" x="653.5" y="351.8613">«Entity»</text><text fill="#000000" font-family="sans-serif" font-size="20" lengthAdjust="spacing" textLength="132" x="629.5" y="375.1426">Appointment</text></g><!--class SurgeryRoom--><g id="elem_SurgeryRoom"><rect codeLine="33" fill="#FEF9E7" height="56.5625" id="SurgeryRoom" rx="2.5" ry="2.5" style="stroke:#181818;stroke-width:0.5;" width="170" x="660.5" y="502.2969"/><ellipse cx="676.5" cy="530.5781" fill="#ADD1B2" rx="12" ry="12" style="stroke:#181818;stroke-width:1.0;"/><path d="M681.2188,538.0781 L672.1406,538.0781 L672.1406,523.5 L681.2188,523.5 L681.2188,526.0313 L675.0156,526.0313 L675.0156,529.1875 L680.6406,529.1875 L680.6406,531.7188 L675.0156,531.7188 L675.0156,535.5313 L681.2188,535.5313 L681.2188,538.0781 Z " fill="#000000"/><text fill="#000000" font-family="sans-serif" font-size="20" font-style="italic" lengthAdjust="spacing" textLength="84" x="717.5" y="525.8613">«Entity»</text><text fill="#000000" font-family="sans-serif" font-size="20" lengthAdjust="spacing" textLength="136" x="691.5" y="549.1426">SurgeryRoom</text></g><!--class Allergies--><g id="elem_Allergies"><rect codeLine="35" fill="#FEF9E7" height="56.5625" id="Allergies" rx="2.5" ry="2.5" style="stroke:#181818;stroke-width:0.5;" width="121" x="442" y="44.2969"/><ellipse cx="458" cy="72.5781" fill="#ADD1B2" rx="12" ry="12" style="stroke:#181818;stroke-width:1.0;"/><path d="M462.7188,80.0781 L453.6406,80.0781 L453.6406,65.5 L462.7188,65.5 L462.7188,68.0313 L456.5156,68.0313 L456.5156,71.1875 L462.1406,71.1875 L462.1406,73.7188 L456.5156,73.7188 L456.5156,77.5313 L462.7188,77.5313 L462.7188,80.0781 Z " fill="#000000"/><text fill="#000000" font-family="sans-serif" font-size="20" font-style="italic" lengthAdjust="spacing" textLength="84" x="474.5" y="67.8613">«Entity»</text><text fill="#000000" font-family="sans-serif" font-size="20" lengthAdjust="spacing" textLength="87" x="473" y="91.1426">Allergies</text></g><!--class MedicalConditions--><g id="elem_MedicalConditions"><rect codeLine="37" fill="#FEF9E7" height="56.5625" id="MedicalConditions" rx="2.5" ry="2.5" style="stroke:#181818;stroke-width:0.5;" width="218" x="188.5" y="44.2969"/><ellipse cx="204.5" cy="72.5781" fill="#ADD1B2" rx="12" ry="12" style="stroke:#181818;stroke-width:1.0;"/><path d="M209.2188,80.0781 L200.1406,80.0781 L200.1406,65.5 L209.2188,65.5 L209.2188,68.0313 L203.0156,68.0313 L203.0156,71.1875 L208.6406,71.1875 L208.6406,73.7188 L203.0156,73.7188 L203.0156,77.5313 L209.2188,77.5313 L209.2188,80.0781 Z " fill="#000000"/><text fill="#000000" font-family="sans-serif" font-size="20" font-style="italic" lengthAdjust="spacing" textLength="84" x="269.5" y="67.8613">«Entity»</text><text fill="#000000" font-family="sans-serif" font-size="20" lengthAdjust="spacing" textLength="184" x="219.5" y="91.1426">MedicalConditions</text></g><!--class MedicalHistory--><g id="elem_MedicalHistory"><rect codeLine="39" fill="#FEF9E7" height="56.5625" id="MedicalHistory" rx="2.5" ry="2.5" style="stroke:#181818;stroke-width:0.5;" width="181" x="309" y="186.2969"/><ellipse cx="325" cy="214.5781" fill="#ADD1B2" rx="12" ry="12" style="stroke:#181818;stroke-width:1.0;"/><path d="M329.7188,222.0781 L320.6406,222.0781 L320.6406,207.5 L329.7188,207.5 L329.7188,210.0313 L323.5156,210.0313 L323.5156,213.1875 L329.1406,213.1875 L329.1406,215.7188 L323.5156,215.7188 L323.5156,219.5313 L329.7188,219.5313 L329.7188,222.0781 Z " fill="#000000"/><text fill="#000000" font-family="sans-serif" font-size="20" font-style="italic" lengthAdjust="spacing" textLength="84" x="371.5" y="209.8613">«Entity»</text><text fill="#000000" font-family="sans-serif" font-size="20" lengthAdjust="spacing" textLength="147" x="340" y="233.1426">MedicalHistory</text></g><!--reverse link Patient to User--><g id="link_Patient_User"><path codeLine="41" d="M381.23,390.1469 C376.57,398.4069 371.6,407.1969 367.09,415.1969 " fill="none" id="Patient-backto-User" style="stroke:#000000;stroke-width:1.0;"/><polygon fill="#000000" points="383.78,385.6269,375.8749,391.5014,381.3239,389.9821,382.8433,395.4311,383.78,385.6269" style="stroke:#000000;stroke-width:1.0;"/><text fill="#000000" font-family="sans-serif" font-size="20" lengthAdjust="spacing" textLength="67" x="307.45" y="394.9513">can be</text><text fill="#000000" font-family="sans-serif" font-size="20" lengthAdjust="spacing" textLength="13" x="383.3638" y="411.5516">1</text><text fill="#000000" font-family="sans-serif" font-size="20" lengthAdjust="spacing" textLength="13" x="366.708" y="411.5981">1</text></g><!--link User to Staff--><g id="link_User_Staff"><path codeLine="42" d="M294.94,461.4869 C246.07,475.9169 175.55,496.7269 125.22,511.5769 " fill="none" id="User-to-Staff" style="stroke:#000000;stroke-width:1.0;"/><polygon fill="#000000" points="120.42,512.9969,130.1846,514.2822,125.215,511.5798,127.9174,506.6102,120.42,512.9969" style="stroke:#000000;stroke-width:1.0;"/><text fill="#000000" font-family="sans-serif" font-size="20" lengthAdjust="spacing" textLength="67" x="139.46" y="481.8713">can be</text><text fill="#000000" font-family="sans-serif" font-size="20" lengthAdjust="spacing" textLength="13" x="273.8604" y="457.8905">1</text><text fill="#000000" font-family="sans-serif" font-size="20" lengthAdjust="spacing" textLength="13" x="128.1493" y="505.0342">1</text></g><!--link Staff to Specialization--><g id="link_Staff_Specialization"><path codeLine="44" d="M80.5,559.3469 C112.86,611.7869 183.13,725.6769 217.61,781.5569 " fill="none" id="Staff-to-Specialization" style="stroke:#000000;stroke-width:1.0;"/><polygon fill="#000000" points="220.43,786.1369,219.0905,776.3795,217.7967,781.8865,212.2898,780.5927,220.43,786.1369" style="stroke:#000000;stroke-width:1.0;"/><text fill="#000000" font-family="sans-serif" font-size="20" lengthAdjust="spacing" textLength="35" x="169.5" y="679.8613">has</text><text fill="#000000" font-family="sans-serif" font-size="20" lengthAdjust="spacing" textLength="13" x="69.4359" y="585.3618">1</text><text fill="#000000" font-family="sans-serif" font-size="20" lengthAdjust="spacing" textLength="13" x="202.5687" y="773.4924">1</text></g><!--link Staff to OperationRequest--><g id="link_Staff_OperationRequest"><path codeLine="45" d="M120.08,530.7969 C190.89,530.7969 313.82,530.7969 404.26,530.7969 " fill="none" id="Staff-to-OperationRequest" style="stroke:#000000;stroke-width:1.0;"/><polygon fill="#000000" points="409.35,530.7969,400.35,526.7969,404.35,530.7969,400.35,534.7969,409.35,530.7969" style="stroke:#000000;stroke-width:1.0;"/><text fill="#000000" font-family="sans-serif" font-size="20" lengthAdjust="spacing" textLength="253" x="138.25" y="522.3613">if doctor then it manages</text><text fill="#000000" font-family="sans-serif" font-size="20" lengthAdjust="spacing" textLength="13" x="128.1621" y="550.8808">1</text><text fill="#000000" font-family="sans-serif" font-size="20" lengthAdjust="spacing" textLength="10" x="391.3941" y="525.578">*</text></g><!--link OperationRequest to OperationType--><g id="link_OperationRequest_OperationType"><path codeLine="48" d="M503.08,559.4569 C491.08,582.4669 473.98,615.2569 461.36,639.4669 " fill="none" id="OperationRequest-to-OperationType" style="stroke:#000000;stroke-width:1.0;"/><polygon fill="#000000" points="458.89,644.1969,466.5798,638.0433,461.1887,639.7566,459.4754,634.3654,458.89,644.1969" style="stroke:#000000;stroke-width:1.0;"/><text fill="#000000" font-family="sans-serif" font-size="20" lengthAdjust="spacing" textLength="35" x="485.5" y="608.8613">has</text><text fill="#000000" font-family="sans-serif" font-size="20" lengthAdjust="spacing" textLength="13" x="486.2229" y="585.4921">1</text><text fill="#000000" font-family="sans-serif" font-size="20" lengthAdjust="spacing" textLength="13" x="447.5173" y="631.5648">1</text></g><!--link OperationRequest to Patient--><g id="link_OperationRequest_Patient"><path codeLine="49" d="M498.59,502.2269 C477.53,471.5369 443.56,422.0169 421.37,389.6769 " fill="none" id="OperationRequest-to-Patient" style="stroke:#000000;stroke-width:1.0;"/><polygon fill="#000000" points="418.46,385.4269,420.2469,395.1123,421.286,389.5517,426.8466,390.5907,418.46,385.4269" style="stroke:#000000;stroke-width:1.0;"/><text fill="#000000" font-family="sans-serif" font-size="20" lengthAdjust="spacing" textLength="35" x="476.5" y="450.8613">has</text><text fill="#000000" font-family="sans-serif" font-size="20" lengthAdjust="spacing" textLength="13" x="480.3492" y="489.601">1</text><text fill="#000000" font-family="sans-serif" font-size="20" lengthAdjust="spacing" textLength="13" x="410.5514" y="411.6544">1</text></g><!--link OperationType to Specialization--><g id="link_OperationType_Specialization"><path codeLine="51" d="M403.6,701.4569 C368.73,725.0369 318.67,758.8969 282.63,783.2669 " fill="none" id="OperationType-to-Specialization" style="stroke:#000000;stroke-width:1.0;"/><polygon fill="#000000" points="278.31,786.1969,288.0065,784.4713,282.4526,783.3971,283.5268,777.8431,278.31,786.1969" style="stroke:#000000;stroke-width:1.0;"/><text fill="#000000" font-family="sans-serif" font-size="20" lengthAdjust="spacing" textLength="35" x="354.5" y="750.8613">has</text><text fill="#000000" font-family="sans-serif" font-size="20" lengthAdjust="spacing" textLength="13" x="381.8606" y="727.4921">1</text><text fill="#000000" font-family="sans-serif" font-size="20" lengthAdjust="spacing" textLength="10" x="275.6958" y="773.5648">*</text></g><!--link Appointment to OperationRequest--><g id="link_Appointment_OperationRequest"><path codeLine="53" d="M655.15,385.4269 C625.74,416.2769 578.25,466.0869 547.45,498.3769 " fill="none" id="Appointment-to-OperationRequest" style="stroke:#000000;stroke-width:1.0;"/><polygon fill="#000000" points="543.78,502.2269,552.8838,498.4692,547.2286,498.6065,547.0913,492.9513,543.78,502.2269" style="stroke:#000000;stroke-width:1.0;"/><text fill="#000000" font-family="sans-serif" font-size="20" lengthAdjust="spacing" textLength="35" x="624.5" y="450.8613">has</text><text fill="#000000" font-family="sans-serif" font-size="20" lengthAdjust="spacing" textLength="13" x="636.0933" y="411.4566">1</text><text fill="#000000" font-family="sans-serif" font-size="20" lengthAdjust="spacing" textLength="13" x="534.8596" y="489.601">1</text></g><!--link Appointment to SurgeryRoom--><g id="link_Appointment_SurgeryRoom"><path codeLine="54" d="M691.78,385.4269 C703.12,415.8969 721.34,464.8669 733.37,497.1869 " fill="none" id="Appointment-to-SurgeryRoom" style="stroke:#000000;stroke-width:1.0;"/><polygon fill="#000000" points="735.24,502.2269,735.8515,492.397,733.4969,497.5405,728.3534,495.186,735.24,502.2269" style="stroke:#000000;stroke-width:1.0;"/><text fill="#000000" font-family="sans-serif" font-size="20" lengthAdjust="spacing" textLength="35" x="723.5" y="450.8613">has</text><text fill="#000000" font-family="sans-serif" font-size="20" lengthAdjust="spacing" textLength="13" x="679.4769" y="411.4566">1</text><text fill="#000000" font-family="sans-serif" font-size="20" lengthAdjust="spacing" textLength="13" x="718.7833" y="489.601">1</text></g><!--reverse link MedicalHistory to Patient--><g id="link_MedicalHistory_Patient"><path codeLine="56" d="M399.5,248.4869 C399.5,272.6869 399.5,305.2969 399.5,328.1969 " fill="none" id="MedicalHistory-backto-Patient" style="stroke:#000000;stroke-width:1.0;"/><polygon fill="#000000" points="399.5,243.4569,395.5,252.4569,399.5,248.4569,403.5,252.4569,399.5,243.4569" style="stroke:#000000;stroke-width:1.0;"/><text fill="#000000" font-family="sans-serif" font-size="20" lengthAdjust="spacing" textLength="35" x="400.5" y="292.8613">has</text><text fill="#000000" font-family="sans-serif" font-size="20" lengthAdjust="spacing" textLength="13" x="385.3016" y="269.4921">1</text><text fill="#000000" font-family="sans-serif" font-size="20" lengthAdjust="spacing" textLength="13" x="385.1594" y="315.5648">1</text></g><!--reverse link Allergies to MedicalHistory--><g id="link_Allergies_MedicalHistory"><path codeLine="58" d="M479.12,105.5769 C461.25,129.8669 436.86,163.0069 419.81,186.1969 " fill="none" id="Allergies-backto-MedicalHistory" style="stroke:#000000;stroke-width:1.0;"/><polygon fill="#000000" points="482.15,101.4569,473.5999,106.3451,479.1913,105.4875,480.0489,111.079,482.15,101.4569" style="stroke:#000000;stroke-width:1.0;"/><text fill="#000000" font-family="sans-serif" font-size="20" lengthAdjust="spacing" textLength="35" x="457.5" y="150.8613">has</text><text fill="#000000" font-family="sans-serif" font-size="20" lengthAdjust="spacing" textLength="10" x="467.4761" y="127.4921">*</text><text fill="#000000" font-family="sans-serif" font-size="20" lengthAdjust="spacing" textLength="13" x="409.6583" y="173.5648">1</text></g><!--reverse link MedicalConditions to MedicalHistory--><g id="link_MedicalConditions_MedicalHistory"><path codeLine="59" d="M320.66,105.5769 C338.35,129.8669 362.5,163.0069 379.39,186.1969 " fill="none" id="MedicalConditions-backto-MedicalHistory" style="stroke:#000000;stroke-width:1.0;"/><polygon fill="#000000" points="317.65,101.4569,319.7126,111.0873,320.5926,105.4993,326.1806,106.3792,317.65,101.4569" style="stroke:#000000;stroke-width:1.0;"/><text fill="#000000" font-family="sans-serif" font-size="20" lengthAdjust="spacing" textLength="35" x="356.5" y="150.8613">has</text><text fill="#000000" font-family="sans-serif" font-size="20" lengthAdjust="spacing" textLength="10" x="310.4433" y="127.4921">*</text><text fill="#000000" font-family="sans-serif" font-size="20" lengthAdjust="spacing" textLength="13" x="360.9017" y="173.5648">1</text></g><!--SRC=[XP9lRvim4CRV-rESqXULAaLgAtL_eYWI5D0cDSlKTX_0CGTuCJQpJITQxRlFG0WaWTQlR3-_Ep- -ExFZig2QvaAn7SOGOq9BOICbxHD_HRYz9iHoAn22pThx_WFMco1yW3a4GK18ncC4p0jRGOxv5hKXbwRB20zSegqA1ALjfWZf5IQeCV16m2sVibsgLIdZUoMKNYvVg2Xni_sDpAvMS15y2hteopYgbMgOA0Zzu7gSCQXVECCcrKrq6_fZc4iHHb_3putcQQt-jjU-S1pvD_HUk1kQuhXxk0Zzw2xown2Khd0L_786OBbiJyx5Mo_zf9QxxOJwP6cIJ6a5Cau5VtKPb9o0DWNgHd_4FoKQ-n7sNFTgdF6AGd5fyzPjEEQer2dgwb6fV8BmX42TSZGJ-XfZpgYuLpBcjPqFk6_SMAMhKwWfz-nc1dE1YPslcdrNw0KmAc6B0qhpDEkmjk87YBJd1kk8uxel8ADcY1soNStEoxy0da2icBCDDaC9t49EfHicGmWvmuVl7lUeVVRTWFx7DKgEum_WrSIFoB3VepxwFzNy53uSYdtcpbY3bSKUFEdfdZsv7OGuu_qujVIxyFbijK7_0G00]--></g></svg>