<?xml version="1.0" encoding="UTF-8" standalone="no"?><svg xmlns="http://www.w3.org/2000/svg" xmlns:xlink="http://www.w3.org/1999/xlink" contentStyleType="text/css" height="564px" preserveAspectRatio="none" style="width:837px;height:564px;background:#FFFFFF;" version="1.1" viewBox="0 0 837 564" width="837px" zoomAndPan="magnify"><defs/><g><text fill="#000000" font-family="sans-serif" font-size="14" font-weight="bold" lengthAdjust="spacing" textLength="170" x="326.75" y="22.9951">DOMAIN MODEL - DDD</text><!--class User--><g id="elem_User"><rect codeLine="19" fill="#FEF9E7" height="56.5625" id="User" rx="2.5" ry="2.5" style="stroke:#181818;stroke-width:0.5;" width="113" x="239" y="131.2969"/><ellipse cx="255" cy="159.5781" fill="#ADD1B2" rx="12" ry="12" style="stroke:#181818;stroke-width:1.0;"/><path d="M259.7188,167.0781 L250.6406,167.0781 L250.6406,152.5 L259.7188,152.5 L259.7188,155.0313 L253.5156,155.0313 L253.5156,158.1875 L259.1406,158.1875 L259.1406,160.7188 L253.5156,160.7188 L253.5156,164.5313 L259.7188,164.5313 L259.7188,167.0781 Z " fill="#000000"/><text fill="#000000" font-family="sans-serif" font-size="20" font-style="italic" lengthAdjust="spacing" textLength="83" x="268" y="154.8613">«entity»</text><text fill="#000000" font-family="sans-serif" font-size="20" lengthAdjust="spacing" textLength="45" x="287" y="178.1426">User</text></g><!--class Patient--><g id="elem_Patient"><rect codeLine="21" fill="#FEF9E7" height="56.5625" id="Patient" rx="2.5" ry="2.5" style="stroke:#181818;stroke-width:0.5;" width="113" x="287" y="44.2969"/><ellipse cx="303" cy="72.5781" fill="#ADD1B2" rx="12" ry="12" style="stroke:#181818;stroke-width:1.0;"/><path d="M307.7188,80.0781 L298.6406,80.0781 L298.6406,65.5 L307.7188,65.5 L307.7188,68.0313 L301.5156,68.0313 L301.5156,71.1875 L307.1406,71.1875 L307.1406,73.7188 L301.5156,73.7188 L301.5156,77.5313 L307.7188,77.5313 L307.7188,80.0781 Z " fill="#000000"/><text fill="#000000" font-family="sans-serif" font-size="20" font-style="italic" lengthAdjust="spacing" textLength="83" x="316" y="67.8613">«entity»</text><text fill="#000000" font-family="sans-serif" font-size="20" lengthAdjust="spacing" textLength="71" x="322" y="91.1426">Patient</text></g><!--class Staff--><g id="elem_Staff"><rect codeLine="23" fill="#FEF9E7" height="56.5625" id="Staff" rx="2.5" ry="2.5" style="stroke:#181818;stroke-width:0.5;" width="113" x="7" y="218.2969"/><ellipse cx="23" cy="246.5781" fill="#ADD1B2" rx="12" ry="12" style="stroke:#181818;stroke-width:1.0;"/><path d="M27.7188,254.0781 L18.6406,254.0781 L18.6406,239.5 L27.7188,239.5 L27.7188,242.0313 L21.5156,242.0313 L21.5156,245.1875 L27.1406,245.1875 L27.1406,247.7188 L21.5156,247.7188 L21.5156,251.5313 L27.7188,251.5313 L27.7188,254.0781 Z " fill="#000000"/><text fill="#000000" font-family="sans-serif" font-size="20" font-style="italic" lengthAdjust="spacing" textLength="83" x="36" y="241.8613">«entity»</text><text fill="#000000" font-family="sans-serif" font-size="20" lengthAdjust="spacing" textLength="47" x="54" y="265.1426">Staff</text></g><!--class Specialization--><g id="elem_Specialization"><rect codeLine="25" fill="#FEF9E7" height="56.5625" id="Specialization" rx="2.5" ry="2.5" style="stroke:#181818;stroke-width:0.5;" width="175" x="150" y="502.2969"/><ellipse cx="166" cy="530.5781" fill="#ADD1B2" rx="12" ry="12" style="stroke:#181818;stroke-width:1.0;"/><path d="M170.7188,538.0781 L161.6406,538.0781 L161.6406,523.5 L170.7188,523.5 L170.7188,526.0313 L164.5156,526.0313 L164.5156,529.1875 L170.1406,529.1875 L170.1406,531.7188 L164.5156,531.7188 L164.5156,535.5313 L170.7188,535.5313 L170.7188,538.0781 Z " fill="#000000"/><text fill="#000000" font-family="sans-serif" font-size="20" font-style="italic" lengthAdjust="spacing" textLength="83" x="210" y="525.8613">«entity»</text><text fill="#000000" font-family="sans-serif" font-size="20" lengthAdjust="spacing" textLength="141" x="181" y="549.1426">Specialization</text></g><!--class OperationRequest--><g id="elem_OperationRequest"><rect codeLine="27" fill="#FEF9E7" height="56.5625" id="OperationRequest" rx="2.5" ry="2.5" style="stroke:#181818;stroke-width:0.5;" width="216" x="409.5" y="218.2969"/><ellipse cx="425.5" cy="246.5781" fill="#ADD1B2" rx="12" ry="12" style="stroke:#181818;stroke-width:1.0;"/><path d="M430.2188,254.0781 L421.1406,254.0781 L421.1406,239.5 L430.2188,239.5 L430.2188,242.0313 L424.0156,242.0313 L424.0156,245.1875 L429.6406,245.1875 L429.6406,247.7188 L424.0156,247.7188 L424.0156,251.5313 L430.2188,251.5313 L430.2188,254.0781 Z " fill="#000000"/><text fill="#000000" font-family="sans-serif" font-size="20" font-style="italic" lengthAdjust="spacing" textLength="83" x="490" y="241.8613">«entity»</text><text fill="#000000" font-family="sans-serif" font-size="20" lengthAdjust="spacing" textLength="182" x="440.5" y="265.1426">OperationRequest</text></g><!--class OperationType--><g id="elem_OperationType"><rect codeLine="29" fill="#FEF9E7" height="56.5625" id="OperationType" rx="2.5" ry="2.5" style="stroke:#181818;stroke-width:0.5;" width="182" x="353.5" y="360.2969"/><ellipse cx="369.5" cy="388.5781" fill="#ADD1B2" rx="12" ry="12" style="stroke:#181818;stroke-width:1.0;"/><path d="M374.2188,396.0781 L365.1406,396.0781 L365.1406,381.5 L374.2188,381.5 L374.2188,384.0313 L368.0156,384.0313 L368.0156,387.1875 L373.6406,387.1875 L373.6406,389.7188 L368.0156,389.7188 L368.0156,393.5313 L374.2188,393.5313 L374.2188,396.0781 Z " fill="#000000"/><text fill="#000000" font-family="sans-serif" font-size="20" font-style="italic" lengthAdjust="spacing" textLength="83" x="417" y="383.8613">«entity»</text><text fill="#000000" font-family="sans-serif" font-size="20" lengthAdjust="spacing" textLength="148" x="384.5" y="407.1426">OperationType</text></g><!--class Appointment--><g id="elem_Appointment"><rect codeLine="31" fill="#FEF9E7" height="56.5625" id="Appointment" rx="2.5" ry="2.5" style="stroke:#181818;stroke-width:0.5;" width="166" x="524.5" y="44.2969"/><ellipse cx="540.5" cy="72.5781" fill="#ADD1B2" rx="12" ry="12" style="stroke:#181818;stroke-width:1.0;"/><path d="M545.2188,80.0781 L536.1406,80.0781 L536.1406,65.5 L545.2188,65.5 L545.2188,68.0313 L539.0156,68.0313 L539.0156,71.1875 L544.6406,71.1875 L544.6406,73.7188 L539.0156,73.7188 L539.0156,77.5313 L545.2188,77.5313 L545.2188,80.0781 Z " fill="#000000"/><text fill="#000000" font-family="sans-serif" font-size="20" font-style="italic" lengthAdjust="spacing" textLength="84" x="579.5" y="67.8613">«Entity»</text><text fill="#000000" font-family="sans-serif" font-size="20" lengthAdjust="spacing" textLength="132" x="555.5" y="91.1426">Appointment</text></g><!--class SurgeryRoom--><g id="elem_SurgeryRoom"><rect codeLine="33" fill="#FEF9E7" height="56.5625" id="SurgeryRoom" rx="2.5" ry="2.5" style="stroke:#181818;stroke-width:0.5;" width="170" x="660.5" y="218.2969"/><ellipse cx="676.5" cy="246.5781" fill="#ADD1B2" rx="12" ry="12" style="stroke:#181818;stroke-width:1.0;"/><path d="M681.2188,254.0781 L672.1406,254.0781 L672.1406,239.5 L681.2188,239.5 L681.2188,242.0313 L675.0156,242.0313 L675.0156,245.1875 L680.6406,245.1875 L680.6406,247.7188 L675.0156,247.7188 L675.0156,251.5313 L681.2188,251.5313 L681.2188,254.0781 Z " fill="#000000"/><text fill="#000000" font-family="sans-serif" font-size="20" font-style="italic" lengthAdjust="spacing" textLength="84" x="717.5" y="241.8613">«Entity»</text><text fill="#000000" font-family="sans-serif" font-size="20" lengthAdjust="spacing" textLength="136" x="691.5" y="265.1426">SurgeryRoom</text></g><!--reverse link Patient to User--><g id="link_Patient_User"><path codeLine="35" d="M325.23,106.1469 C320.57,114.4069 315.6,123.1969 311.09,131.1969 " fill="none" id="Patient-backto-User" style="stroke:#000000;stroke-width:1.0;"/><polygon fill="#000000" points="327.78,101.6269,319.8749,107.5014,325.3239,105.9821,326.8433,111.4311,327.78,101.6269" style="stroke:#000000;stroke-width:1.0;"/><text fill="#000000" font-family="sans-serif" font-size="20" lengthAdjust="spacing" textLength="67" x="251.45" y="110.9513">can be</text><text fill="#000000" font-family="sans-serif" font-size="20" lengthAdjust="spacing" textLength="13" x="327.3638" y="127.5516">1</text><text fill="#000000" font-family="sans-serif" font-size="20" lengthAdjust="spacing" textLength="13" x="310.708" y="127.5981">1</text></g><!--link User to Staff--><g id="link_User_Staff"><path codeLine="36" d="M238.75,181.5869 C204.21,194.2469 160.1,210.4069 124.77,223.3469 " fill="none" id="User-to-Staff" style="stroke:#000000;stroke-width:1.0;"/><polygon fill="#000000" points="120.07,225.0669,129.8975,225.7144,124.7627,223.341,127.1361,218.2061,120.07,225.0669" style="stroke:#000000;stroke-width:1.0;"/><text fill="#000000" font-family="sans-serif" font-size="20" lengthAdjust="spacing" textLength="67" x="111.28" y="197.9413">can be</text><text fill="#000000" font-family="sans-serif" font-size="20" lengthAdjust="spacing" textLength="13" x="218.0414" y="178.4492">1</text><text fill="#000000" font-family="sans-serif" font-size="20" lengthAdjust="spacing" textLength="13" x="128.1508" y="242.3667">1</text></g><!--link Staff to Specialization--><g id="link_Staff_Specialization"><path codeLine="38" d="M80.5,275.3469 C112.86,327.7869 183.13,441.6769 217.61,497.5569 " fill="none" id="Staff-to-Specialization" style="stroke:#000000;stroke-width:1.0;"/><polygon fill="#000000" points="220.43,502.1369,219.0905,492.3795,217.7967,497.8865,212.2898,496.5927,220.43,502.1369" style="stroke:#000000;stroke-width:1.0;"/><text fill="#000000" font-family="sans-serif" font-size="20" lengthAdjust="spacing" textLength="35" x="169.5" y="395.8613">has</text><text fill="#000000" font-family="sans-serif" font-size="20" lengthAdjust="spacing" textLength="13" x="69.4359" y="301.3618">1</text><text fill="#000000" font-family="sans-serif" font-size="20" lengthAdjust="spacing" textLength="13" x="202.5687" y="489.4924">1</text></g><!--link Staff to OperationRequest--><g id="link_Staff_OperationRequest"><path codeLine="39" d="M120.08,246.7969 C190.89,246.7969 313.82,246.7969 404.26,246.7969 " fill="none" id="Staff-to-OperationRequest" style="stroke:#000000;stroke-width:1.0;"/><polygon fill="#000000" points="409.35,246.7969,400.35,242.7969,404.35,246.7969,400.35,250.7969,409.35,246.7969" style="stroke:#000000;stroke-width:1.0;"/><text fill="#000000" font-family="sans-serif" font-size="20" lengthAdjust="spacing" textLength="253" x="138.25" y="238.3613">if doctor then it manages</text><text fill="#000000" font-family="sans-serif" font-size="20" lengthAdjust="spacing" textLength="13" x="128.1621" y="266.8808">1</text><text fill="#000000" font-family="sans-serif" font-size="20" lengthAdjust="spacing" textLength="10" x="391.3941" y="241.578">*</text></g><!--link OperationRequest to OperationType--><g id="link_OperationRequest_OperationType"><path codeLine="42" d="M503.08,275.4569 C491.08,298.4669 473.98,331.2569 461.36,355.4669 " fill="none" id="OperationRequest-to-OperationType" style="stroke:#000000;stroke-width:1.0;"/><polygon fill="#000000" points="458.89,360.1969,466.5798,354.0433,461.1887,355.7566,459.4754,350.3654,458.89,360.1969" style="stroke:#000000;stroke-width:1.0;"/><text fill="#000000" font-family="sans-serif" font-size="20" lengthAdjust="spacing" textLength="35" x="486.5" y="324.8613">has</text><text fill="#000000" font-family="sans-serif" font-size="20" lengthAdjust="spacing" textLength="13" x="486.2229" y="301.4921">1</text><text fill="#000000" font-family="sans-serif" font-size="20" lengthAdjust="spacing" textLength="13" x="447.5173" y="347.5648">1</text></g><!--link OperationRequest to Patient--><g id="link_OperationRequest_Patient"><path codeLine="43" d="M489.61,218.2269 C458.44,187.4169 408.05,137.6069 375.35,105.2869 " fill="none" id="OperationRequest-to-Patient" style="stroke:#000000;stroke-width:1.0;"/><polygon fill="#000000" points="371.46,101.4269,375.0327,110.6049,375.0098,104.9481,380.6666,104.9252,371.46,101.4269" style="stroke:#000000;stroke-width:1.0;"/><text fill="#000000" font-family="sans-serif" font-size="20" lengthAdjust="spacing" textLength="35" x="457.5" y="166.8613">has</text><text fill="#000000" font-family="sans-serif" font-size="20" lengthAdjust="spacing" textLength="13" x="469.5171" y="205.601">1</text><text fill="#000000" font-family="sans-serif" font-size="20" lengthAdjust="spacing" textLength="13" x="365.1385" y="127.5198">1</text></g><!--link OperationType to Specialization--><g id="link_OperationType_Specialization"><path codeLine="45" d="M403.6,417.4569 C368.73,441.0369 318.67,474.8969 282.63,499.2669 " fill="none" id="OperationType-to-Specialization" style="stroke:#000000;stroke-width:1.0;"/><polygon fill="#000000" points="278.31,502.1969,288.0065,500.4713,282.4526,499.3971,283.5268,493.8431,278.31,502.1969" style="stroke:#000000;stroke-width:1.0;"/><text fill="#000000" font-family="sans-serif" font-size="20" lengthAdjust="spacing" textLength="35" x="354.5" y="466.8613">has</text><text fill="#000000" font-family="sans-serif" font-size="20" lengthAdjust="spacing" textLength="13" x="381.8606" y="443.4921">1</text><text fill="#000000" font-family="sans-serif" font-size="20" lengthAdjust="spacing" textLength="10" x="275.6958" y="489.5648">*</text></g><!--link Appointment to OperationRequest--><g id="link_Appointment_OperationRequest"><path codeLine="47" d="M593.04,101.4269 C577.03,132.0269 551.26,181.2769 534.35,213.5869 " fill="none" id="Appointment-to-OperationRequest" style="stroke:#000000;stroke-width:1.0;"/><polygon fill="#000000" points="531.92,218.2269,539.6335,212.103,534.2358,213.7955,532.5433,208.3978,531.92,218.2269" style="stroke:#000000;stroke-width:1.0;"/><text fill="#000000" font-family="sans-serif" font-size="20" lengthAdjust="spacing" textLength="35" x="577.5" y="166.8613">has</text><text fill="#000000" font-family="sans-serif" font-size="20" lengthAdjust="spacing" textLength="13" x="576.1755" y="127.4566">1</text><text fill="#000000" font-family="sans-serif" font-size="20" lengthAdjust="spacing" textLength="13" x="520.5535" y="205.601">1</text></g><!--link Appointment to SurgeryRoom--><g id="link_Appointment_SurgeryRoom"><path codeLine="48" d="M629.67,101.4269 C654.32,132.1469 694.06,181.6769 719.98,213.9869 " fill="none" id="Appointment-to-SurgeryRoom" style="stroke:#000000;stroke-width:1.0;"/><polygon fill="#000000" points="723.38,218.2269,720.8685,208.7036,720.2513,214.3267,714.6282,213.7095,723.38,218.2269" style="stroke:#000000;stroke-width:1.0;"/><text fill="#000000" font-family="sans-serif" font-size="20" lengthAdjust="spacing" textLength="35" x="697.5" y="166.8613">has</text><text fill="#000000" font-family="sans-serif" font-size="20" lengthAdjust="spacing" textLength="13" x="619.5592" y="127.4566">1</text><text fill="#000000" font-family="sans-serif" font-size="20" lengthAdjust="spacing" textLength="13" x="704.4771" y="205.601">1</text></g><!--SRC=[XP7VQi8m5CRlynG7lHW8WWhx9oBOjOM1pg7R0yJsr6QcIPUa3fMz-sABjivsorMIxvUJxtn7RvX8gQ89by46GmWneXatlXHcoVO8WnuXXXcEuCvda-SNcCrTRmfTS5sNa9Y529YaPWS99YjKcjpeKqMOCe5cbo98PM99IAa4d6eD1m9sEJJOh9NCHFWakLIZqPRo3EUh3mpCU0njzywR-0_rg98oPtpNSznUFQDHRLc0UQc-F_2SEioMyFn7xpxN9ah9h-BQuPOZtrNlgRsXQwnt3stFyMzzv_W4XGrk1-_M08n6nScwE9JIApNCRXlKfQ5HrAIb633AsTvMaA81cgUeSds1dnbgyn_sTfnLFJD9Kyc4IGgtNfsZJArHxHPI9h-9F85MlmLTZf7fZlFzgVSX15J02YkKOkluX1KXd25Id7FiH5n6COIOwYfshjPfNISo11P1A0DZHsTY5C0C95JO-Mf2o1LU_VSojkBRFn-K7HzHSld-37OQEYBL4TJwA7iwyaruTKu5-GC0]--></g></svg>