<?xml version="1.0" encoding="UTF-8" standalone="no"?><svg xmlns="http://www.w3.org/2000/svg" xmlns:xlink="http://www.w3.org/1999/xlink" contentStyleType="text/css" height="2174px" preserveAspectRatio="none" style="width:4609px;height:2174px;background:#FFFFFF;" version="1.1" viewBox="0 0 4609 2174" width="4609px" zoomAndPan="magnify"><defs/><g><text fill="#000000" font-family="sans-serif" font-size="14" font-weight="bold" lengthAdjust="spacing" textLength="268" x="2171.5" y="27.9951">Level 3 Diagram for Creating Staff</text><rect fill="#FFFFFF" height="1941.9063" style="stroke:#181818;stroke-width:1.0;" width="10" x="36" y="135.5781"/><rect fill="#FFFFFF" height="37.2813" style="stroke:#181818;stroke-width:1.0;" width="10" x="978" y="164.8594"/><rect fill="#FFFFFF" height="1829.0625" style="stroke:#181818;stroke-width:1.0;" width="10" x="978" y="239.4219"/><rect fill="#FFFFFF" height="1754.5" style="stroke:#181818;stroke-width:1.0;" width="10" x="1425" y="276.7031"/><rect fill="#FFFFFF" height="1672.9375" style="stroke:#181818;stroke-width:1.0;" width="10" x="1982" y="313.9844"/><rect fill="#FFFFFF" height="124.8438" style="stroke:#181818;stroke-width:1.0;" width="10" x="2344" y="628.5156"/><rect fill="#FFFFFF" height="124.8438" style="stroke:#181818;stroke-width:1.0;" width="10" x="2344" y="1623.1094"/><rect fill="#FFFFFF" height="111.8438" style="stroke:#181818;stroke-width:1.0;" width="10" x="2505.5" y="790.6406"/><rect fill="#FFFFFF" height="111.8438" style="stroke:#181818;stroke-width:1.0;" width="10" x="2505.5" y="1170.0156"/><rect fill="#FFFFFF" height="104.5625" style="stroke:#181818;stroke-width:1.0;" width="10" x="2505.5" y="1481.2656"/><rect fill="#FFFFFF" height="111.8438" style="stroke:#181818;stroke-width:1.0;" width="10" x="2729.5" y="351.2656"/><rect fill="#FFFFFF" height="111.8438" style="stroke:#181818;stroke-width:1.0;" width="10" x="2729.5" y="980.3281"/><rect fill="#FFFFFF" height="43.2813" style="stroke:#181818;stroke-width:1.0;" width="10" x="2965" y="540.9531"/><rect fill="#FFFFFF" height="43.2813" style="stroke:#181818;stroke-width:1.0;" width="10" x="3661" y="665.7969"/><rect fill="#FFFFFF" height="43.2813" style="stroke:#181818;stroke-width:1.0;" width="10" x="3661" y="1393.7031"/><rect fill="#FFFFFF" height="43.2813" style="stroke:#181818;stroke-width:1.0;" width="10" x="4116" y="1660.3906"/><rect fill="#FFFFFF" height="37.2813" style="stroke:#181818;stroke-width:1.0;" width="10" x="4313.5" y="1319.1406"/><rect fill="#FFFFFF" height="37.2813" style="stroke:#181818;stroke-width:1.0;" width="10" x="4513" y="388.5469"/><rect fill="#FFFFFF" height="37.2813" style="stroke:#181818;stroke-width:1.0;" width="10" x="4513" y="827.9219"/><rect fill="#FFFFFF" height="37.2813" style="stroke:#181818;stroke-width:1.0;" width="10" x="4513" y="1017.6094"/><rect fill="#FFFFFF" height="37.2813" style="stroke:#181818;stroke-width:1.0;" width="10" x="4513" y="1207.2969"/><rect fill="#FFFFFF" height="30" style="stroke:#181818;stroke-width:1.0;" width="10" x="4513" y="1518.5469"/><rect fill="#EBF5FB" height="1516.8125" style="stroke:#000000;stroke-width:1.5;" width="3282" x="1320" y="478.1094"/><rect fill="#EBF5FB" height="1007.875" style="stroke:#000000;stroke-width:1.5;" width="3262" x="1330" y="917.4844"/><rect fill="#EBF5FB" height="748.625" style="stroke:#000000;stroke-width:1.5;" width="3242" x="1340" y="1107.1719"/><rect fill="#EBF5FB" height="62.5625" style="stroke:none;stroke-width:1.0;" width="3242" x="1340" y="1793.2344"/><rect fill="#EBF5FB" height="62.5625" style="stroke:none;stroke-width:1.0;" width="3262" x="1330" y="1862.7969"/><rect fill="#EBF5FB" height="62.5625" style="stroke:none;stroke-width:1.0;" width="3282" x="1320" y="1932.3594"/><line style="stroke:#181818;stroke-width:0.5;stroke-dasharray:5.0,5.0;" x1="41" x2="41" y1="125.5781" y2="2086.4844"/><line style="stroke:#181818;stroke-width:0.5;stroke-dasharray:5.0,5.0;" x1="983" x2="983" y1="125.5781" y2="2086.4844"/><line style="stroke:#181818;stroke-width:0.5;stroke-dasharray:5.0,5.0;" x1="1430" x2="1430" y1="125.5781" y2="2086.4844"/><line style="stroke:#181818;stroke-width:0.5;stroke-dasharray:5.0,5.0;" x1="1987" x2="1987" y1="125.5781" y2="2086.4844"/><line style="stroke:#181818;stroke-width:0.5;stroke-dasharray:5.0,5.0;" x1="2349" x2="2349" y1="125.5781" y2="2086.4844"/><line style="stroke:#181818;stroke-width:0.5;stroke-dasharray:5.0,5.0;" x1="2510" x2="2510" y1="125.5781" y2="2086.4844"/><line style="stroke:#181818;stroke-width:0.5;stroke-dasharray:5.0,5.0;" x1="2734" x2="2734" y1="125.5781" y2="2086.4844"/><line style="stroke:#181818;stroke-width:0.5;stroke-dasharray:5.0,5.0;" x1="2970" x2="2970" y1="125.5781" y2="2086.4844"/><line style="stroke:#181818;stroke-width:0.5;stroke-dasharray:5.0,5.0;" x1="3665.5" x2="3665.5" y1="125.5781" y2="2086.4844"/><line style="stroke:#181818;stroke-width:0.5;stroke-dasharray:5.0,5.0;" x1="4121" x2="4121" y1="125.5781" y2="2086.4844"/><line style="stroke:#181818;stroke-width:0.5;stroke-dasharray:5.0,5.0;" x1="4318" x2="4318" y1="125.5781" y2="2086.4844"/><line style="stroke:#181818;stroke-width:0.5;stroke-dasharray:5.0,5.0;" x1="4518" x2="4518" y1="125.5781" y2="2086.4844"/><text fill="#000000" font-family="sans-serif" font-size="20" lengthAdjust="spacing" textLength="66" x="5" y="120.8613">Admin</text><ellipse cx="41" cy="50.7969" fill="#E2E2F0" rx="8" ry="8" style="stroke:#181818;stroke-width:0.5;"/><path d="M41,58.7969 L41,85.7969 M28,66.7969 L54,66.7969 M41,85.7969 L28,100.7969 M41,85.7969 L54,100.7969 " fill="none" style="stroke:#181818;stroke-width:0.5;"/><text fill="#000000" font-family="sans-serif" font-size="20" lengthAdjust="spacing" textLength="66" x="5" y="2104.0488">Admin</text><ellipse cx="41" cy="2117.2656" fill="#E2E2F0" rx="8" ry="8" style="stroke:#181818;stroke-width:0.5;"/><path d="M41,2125.2656 L41,2152.2656 M28,2133.2656 L54,2133.2656 M41,2152.2656 L28,2167.2656 M41,2152.2656 L54,2167.2656 " fill="none" style="stroke:#181818;stroke-width:0.5;"/><rect fill="#E2E2F0" height="37.2813" rx="2.5" ry="2.5" style="stroke:#181818;stroke-width:0.5;" width="154" x="906" y="87.2969"/><text fill="#000000" font-family="sans-serif" font-size="20" lengthAdjust="spacing" textLength="140" x="913" y="112.8613">User Interface</text><rect fill="#E2E2F0" height="37.2813" rx="2.5" ry="2.5" style="stroke:#181818;stroke-width:0.5;" width="154" x="906" y="2085.4844"/><text fill="#000000" font-family="sans-serif" font-size="20" lengthAdjust="spacing" textLength="140" x="913" y="2111.0488">User Interface</text><rect fill="#E2E2F0" height="37.2813" rx="2.5" ry="2.5" style="stroke:#181818;stroke-width:0.5;" width="160" x="1350" y="87.2969"/><text fill="#000000" font-family="sans-serif" font-size="20" lengthAdjust="spacing" textLength="146" x="1357" y="112.8613">StaffController</text><rect fill="#E2E2F0" height="37.2813" rx="2.5" ry="2.5" style="stroke:#181818;stroke-width:0.5;" width="160" x="1350" y="2085.4844"/><text fill="#000000" font-family="sans-serif" font-size="20" lengthAdjust="spacing" textLength="146" x="1357" y="2111.0488">StaffController</text><rect fill="#E2E2F0" height="37.2813" rx="2.5" ry="2.5" style="stroke:#181818;stroke-width:0.5;" width="134" x="1920" y="87.2969"/><text fill="#000000" font-family="sans-serif" font-size="20" lengthAdjust="spacing" textLength="120" x="1927" y="112.8613">StaffService</text><rect fill="#E2E2F0" height="37.2813" rx="2.5" ry="2.5" style="stroke:#181818;stroke-width:0.5;" width="134" x="1920" y="2085.4844"/><text fill="#000000" font-family="sans-serif" font-size="20" lengthAdjust="spacing" textLength="120" x="1927" y="2111.0488">StaffService</text><rect fill="#E2E2F0" height="37.2813" rx="2.5" ry="2.5" style="stroke:#181818;stroke-width:0.5;" width="136" x="2281" y="87.2969"/><text fill="#000000" font-family="sans-serif" font-size="20" lengthAdjust="spacing" textLength="122" x="2288" y="112.8613">StaffMapper</text><rect fill="#E2E2F0" height="37.2813" rx="2.5" ry="2.5" style="stroke:#181818;stroke-width:0.5;" width="136" x="2281" y="2085.4844"/><text fill="#000000" font-family="sans-serif" font-size="20" lengthAdjust="spacing" textLength="122" x="2288" y="2111.0488">StaffMapper</text><rect fill="#E2E2F0" height="37.2813" rx="2.5" ry="2.5" style="stroke:#181818;stroke-width:0.5;" width="167" x="2427" y="87.2969"/><text fill="#000000" font-family="sans-serif" font-size="20" lengthAdjust="spacing" textLength="153" x="2434" y="112.8613">StaffRepository</text><rect fill="#E2E2F0" height="37.2813" rx="2.5" ry="2.5" style="stroke:#181818;stroke-width:0.5;" width="167" x="2427" y="2085.4844"/><text fill="#000000" font-family="sans-serif" font-size="20" lengthAdjust="spacing" textLength="153" x="2434" y="2111.0488">StaffRepository</text><rect fill="#E2E2F0" height="37.2813" rx="2.5" ry="2.5" style="stroke:#181818;stroke-width:0.5;" width="261" x="2604" y="87.2969"/><text fill="#000000" font-family="sans-serif" font-size="20" lengthAdjust="spacing" textLength="247" x="2611" y="112.8613">SpecializationRepository</text><rect fill="#E2E2F0" height="37.2813" rx="2.5" ry="2.5" style="stroke:#181818;stroke-width:0.5;" width="261" x="2604" y="2085.4844"/><text fill="#000000" font-family="sans-serif" font-size="20" lengthAdjust="spacing" textLength="247" x="2611" y="2111.0488">SpecializationRepository</text><rect fill="#E2E2F0" height="37.2813" rx="2.5" ry="2.5" style="stroke:#181818;stroke-width:0.5;" width="190" x="2875" y="87.2969"/><text fill="#000000" font-family="sans-serif" font-size="20" lengthAdjust="spacing" textLength="176" x="2882" y="112.8613">CreatingStaffDTO</text><rect fill="#E2E2F0" height="37.2813" rx="2.5" ry="2.5" style="stroke:#181818;stroke-width:0.5;" width="190" x="2875" y="2085.4844"/><text fill="#000000" font-family="sans-serif" font-size="20" lengthAdjust="spacing" textLength="176" x="2882" y="2111.0488">CreatingStaffDTO</text><rect fill="#E2E2F0" height="37.2813" rx="2.5" ry="2.5" style="stroke:#181818;stroke-width:0.5;" width="61" x="3635.5" y="87.2969"/><text fill="#000000" font-family="sans-serif" font-size="20" lengthAdjust="spacing" textLength="47" x="3642.5" y="112.8613">Staff</text><rect fill="#E2E2F0" height="37.2813" rx="2.5" ry="2.5" style="stroke:#181818;stroke-width:0.5;" width="61" x="3635.5" y="2085.4844"/><text fill="#000000" font-family="sans-serif" font-size="20" lengthAdjust="spacing" textLength="47" x="3642.5" y="2111.0488">Staff</text><rect fill="#E2E2F0" height="37.2813" rx="2.5" ry="2.5" style="stroke:#181818;stroke-width:0.5;" width="104" x="4069" y="87.2969"/><text fill="#000000" font-family="sans-serif" font-size="20" lengthAdjust="spacing" textLength="90" x="4076" y="112.8613">StaffDTO</text><rect fill="#E2E2F0" height="37.2813" rx="2.5" ry="2.5" style="stroke:#181818;stroke-width:0.5;" width="104" x="4069" y="2085.4844"/><text fill="#000000" font-family="sans-serif" font-size="20" lengthAdjust="spacing" textLength="90" x="4076" y="2111.0488">StaffDTO</text><rect fill="#E2E2F0" height="37.2813" rx="2.5" ry="2.5" style="stroke:#181818;stroke-width:0.5;" width="271" x="4183" y="87.2969"/><text fill="#000000" font-family="sans-serif" font-size="20" lengthAdjust="spacing" textLength="257" x="4190" y="112.8613">LicenseNumberGenerator</text><rect fill="#E2E2F0" height="37.2813" rx="2.5" ry="2.5" style="stroke:#181818;stroke-width:0.5;" width="271" x="4183" y="2085.4844"/><text fill="#000000" font-family="sans-serif" font-size="20" lengthAdjust="spacing" textLength="257" x="4190" y="2111.0488">LicenseNumberGenerator</text><rect fill="#E2E2F0" height="37.2813" rx="2.5" ry="2.5" style="stroke:#181818;stroke-width:0.5;" width="108" x="4464" y="87.2969"/><text fill="#000000" font-family="sans-serif" font-size="20" lengthAdjust="spacing" textLength="94" x="4471" y="112.8613">Database</text><rect fill="#E2E2F0" height="37.2813" rx="2.5" ry="2.5" style="stroke:#181818;stroke-width:0.5;" width="108" x="4464" y="2085.4844"/><text fill="#000000" font-family="sans-serif" font-size="20" lengthAdjust="spacing" textLength="94" x="4471" y="2111.0488">Database</text><rect fill="#FFFFFF" height="1941.9063" style="stroke:#181818;stroke-width:1.0;" width="10" x="36" y="135.5781"/><rect fill="#FFFFFF" height="37.2813" style="stroke:#181818;stroke-width:1.0;" width="10" x="978" y="164.8594"/><rect fill="#FFFFFF" height="1829.0625" style="stroke:#181818;stroke-width:1.0;" width="10" x="978" y="239.4219"/><rect fill="#FFFFFF" height="1754.5" style="stroke:#181818;stroke-width:1.0;" width="10" x="1425" y="276.7031"/><rect fill="#FFFFFF" height="1672.9375" style="stroke:#181818;stroke-width:1.0;" width="10" x="1982" y="313.9844"/><rect fill="#FFFFFF" height="124.8438" style="stroke:#181818;stroke-width:1.0;" width="10" x="2344" y="628.5156"/><rect fill="#FFFFFF" height="124.8438" style="stroke:#181818;stroke-width:1.0;" width="10" x="2344" y="1623.1094"/><rect fill="#FFFFFF" height="111.8438" style="stroke:#181818;stroke-width:1.0;" width="10" x="2505.5" y="790.6406"/><rect fill="#FFFFFF" height="111.8438" style="stroke:#181818;stroke-width:1.0;" width="10" x="2505.5" y="1170.0156"/><rect fill="#FFFFFF" height="104.5625" style="stroke:#181818;stroke-width:1.0;" width="10" x="2505.5" y="1481.2656"/><rect fill="#FFFFFF" height="111.8438" style="stroke:#181818;stroke-width:1.0;" width="10" x="2729.5" y="351.2656"/><rect fill="#FFFFFF" height="111.8438" style="stroke:#181818;stroke-width:1.0;" width="10" x="2729.5" y="980.3281"/><rect fill="#FFFFFF" height="43.2813" style="stroke:#181818;stroke-width:1.0;" width="10" x="2965" y="540.9531"/><rect fill="#FFFFFF" height="43.2813" style="stroke:#181818;stroke-width:1.0;" width="10" x="3661" y="665.7969"/><rect fill="#FFFFFF" height="43.2813" style="stroke:#181818;stroke-width:1.0;" width="10" x="3661" y="1393.7031"/><rect fill="#FFFFFF" height="43.2813" style="stroke:#181818;stroke-width:1.0;" width="10" x="4116" y="1660.3906"/><rect fill="#FFFFFF" height="37.2813" style="stroke:#181818;stroke-width:1.0;" width="10" x="4313.5" y="1319.1406"/><rect fill="#FFFFFF" height="37.2813" style="stroke:#181818;stroke-width:1.0;" width="10" x="4513" y="388.5469"/><rect fill="#FFFFFF" height="37.2813" style="stroke:#181818;stroke-width:1.0;" width="10" x="4513" y="827.9219"/><rect fill="#FFFFFF" height="37.2813" style="stroke:#181818;stroke-width:1.0;" width="10" x="4513" y="1017.6094"/><rect fill="#FFFFFF" height="37.2813" style="stroke:#181818;stroke-width:1.0;" width="10" x="4513" y="1207.2969"/><rect fill="#FFFFFF" height="30" style="stroke:#181818;stroke-width:1.0;" width="10" x="4513" y="1518.5469"/><polygon fill="#000000" points="966,160.8594,976,164.8594,966,168.8594,970,164.8594" style="stroke:#000000;stroke-width:1.0;"/><line style="stroke:#000000;stroke-width:1.0;" x1="46" x2="972" y1="164.8594" y2="164.8594"/><text fill="#000000" font-family="sans-serif" font-size="20" lengthAdjust="spacing" textLength="212" x="53" y="158.1426">Asks to create a Staff</text><polygon fill="#000000" points="57,198.1406,47,202.1406,57,206.1406,53,202.1406" style="stroke:#000000;stroke-width:1.0;"/><line style="stroke:#000000;stroke-width:1.0;stroke-dasharray:2.0,2.0;" x1="51" x2="982" y1="202.1406" y2="202.1406"/><text fill="#000000" font-family="sans-serif" font-size="20" lengthAdjust="spacing" textLength="199" x="63" y="195.4238">Asks for Staff's data</text><polygon fill="#000000" points="966,235.4219,976,239.4219,966,243.4219,970,239.4219" style="stroke:#000000;stroke-width:1.0;"/><line style="stroke:#000000;stroke-width:1.0;" x1="46" x2="972" y1="239.4219" y2="239.4219"/><text fill="#000000" font-family="sans-serif" font-size="20" lengthAdjust="spacing" textLength="913" x="53" y="232.7051">Sends Staff's data (First name, Last name, Fullname, Email, Phone number, Specialization)</text><polygon fill="#000000" points="1413,272.7031,1423,276.7031,1413,280.7031,1417,276.7031" style="stroke:#000000;stroke-width:1.0;"/><line style="stroke:#000000;stroke-width:1.0;" x1="988" x2="1419" y1="276.7031" y2="276.7031"/><text fill="#000000" font-family="sans-serif" font-size="20" lengthAdjust="spacing" textLength="341" x="995" y="269.9863">createStaff(CreatingStaffDTO dto)</text><polygon fill="#000000" points="1970,309.9844,1980,313.9844,1970,317.9844,1974,313.9844" style="stroke:#000000;stroke-width:1.0;"/><line style="stroke:#000000;stroke-width:1.0;stroke-dasharray:2.0,2.0;" x1="1435" x2="1976" y1="313.9844" y2="313.9844"/><text fill="#000000" font-family="sans-serif" font-size="20" lengthAdjust="spacing" textLength="341" x="1442" y="307.2676">createStaff(CreatingStaffDTO dto)</text><polygon fill="#000000" points="2717.5,347.2656,2727.5,351.2656,2717.5,355.2656,2721.5,351.2656" style="stroke:#000000;stroke-width:1.0;"/><line style="stroke:#000000;stroke-width:1.0;" x1="1992" x2="2723.5" y1="351.2656" y2="351.2656"/><text fill="#000000" font-family="sans-serif" font-size="20" lengthAdjust="spacing" textLength="580" x="1999" y="344.5488">GetSpecIdByOptionAsync(dto.SpecializationName).Result</text><polygon fill="#000000" points="4501,384.5469,4511,388.5469,4501,392.5469,4505,388.5469" style="stroke:#000000;stroke-width:1.0;"/><line style="stroke:#000000;stroke-width:1.0;" x1="2739.5" x2="4507" y1="388.5469" y2="388.5469"/><text fill="#000000" font-family="sans-serif" font-size="20" lengthAdjust="spacing" textLength="880" x="2746.5" y="381.8301">_objs.Where(x =&gt; x.SpecOption.ToLower() == option.ToLower()).FirstOrDefaultAsync();</text><polygon fill="#000000" points="2750.5,421.8281,2740.5,425.8281,2750.5,429.8281,2746.5,425.8281" style="stroke:#000000;stroke-width:1.0;"/><line style="stroke:#000000;stroke-width:1.0;stroke-dasharray:2.0,2.0;" x1="2744.5" x2="4517" y1="425.8281" y2="425.8281"/><text fill="#000000" font-family="sans-serif" font-size="20" lengthAdjust="spacing" textLength="206" x="2756.5" y="419.1113">return specialization</text><polygon fill="#000000" points="2003,459.1094,1993,463.1094,2003,467.1094,1999,463.1094" style="stroke:#000000;stroke-width:1.0;"/><line style="stroke:#000000;stroke-width:1.0;stroke-dasharray:2.0,2.0;" x1="1997" x2="2733.5" y1="463.1094" y2="463.1094"/><text fill="#000000" font-family="sans-serif" font-size="20" lengthAdjust="spacing" textLength="206" x="2009" y="456.3926">return specialization</text><path d="M1320,478.1094 L1396,478.1094 L1396,493.3906 L1386,503.3906 L1320,503.3906 L1320,478.1094 " fill="#EEEEEE" style="stroke:#000000;stroke-width:1.5;"/><rect fill="none" height="1516.8125" style="stroke:#000000;stroke-width:1.5;" width="3282" x="1320" y="478.1094"/><text fill="#000000" font-family="sans-serif" font-size="20" font-weight="bold" lengthAdjust="spacing" textLength="31" x="1335" y="497.6738">alt</text><text fill="#000000" font-family="sans-serif" font-size="20" font-weight="bold" lengthAdjust="spacing" textLength="296" x="1411" y="498.6738">[specialization is not null]</text><polygon fill="#000000" points="2953,536.9531,2963,540.9531,2953,544.9531,2957,540.9531" style="stroke:#000000;stroke-width:1.0;"/><line style="stroke:#000000;stroke-width:1.0;" x1="1992" x2="2959" y1="540.9531" y2="540.9531"/><text fill="#000000" font-family="sans-serif" font-size="20" lengthAdjust="spacing" textLength="512" x="1999" y="534.2363">dto.SetSpecializationId(specialization.Id.AsGuid());</text><line style="stroke:#000000;stroke-width:1.0;" x1="2975" x2="3017" y1="583.2344" y2="583.2344"/><line style="stroke:#000000;stroke-width:1.0;" x1="3017" x2="3017" y1="583.2344" y2="596.2344"/><line style="stroke:#000000;stroke-width:1.0;" x1="2970" x2="3017" y1="596.2344" y2="596.2344"/><polygon fill="#000000" points="2980,592.2344,2970,596.2344,2980,600.2344,2976,596.2344" style="stroke:#000000;stroke-width:1.0;"/><text fill="#000000" font-family="sans-serif" font-size="20" lengthAdjust="spacing" textLength="446" x="2982" y="576.5176">SpecializationId = specialization.Id.AsGuid()</text><polygon fill="#000000" points="2332,624.5156,2342,628.5156,2332,632.5156,2336,628.5156" style="stroke:#000000;stroke-width:1.0;"/><line style="stroke:#000000;stroke-width:1.0;" x1="1992" x2="2338" y1="628.5156" y2="628.5156"/><text fill="#000000" font-family="sans-serif" font-size="20" lengthAdjust="spacing" textLength="333" x="1999" y="621.7988">ToDomain(CreatingStaffDTO dto)</text><polygon fill="#000000" points="3649,661.7969,3659,665.7969,3649,669.7969,3653,665.7969" style="stroke:#000000;stroke-width:1.0;"/><line style="stroke:#000000;stroke-width:1.0;" x1="2354" x2="3655" y1="665.7969" y2="665.7969"/><text fill="#000000" font-family="sans-serif" font-size="20" lengthAdjust="spacing" textLength="1288" x="2361" y="659.0801">new Staff(dto.FirstName, dto.LastName, dto.FullName, dto.Email, dto.PhoneNumber, new SpecializationId(dto.SpecializationId))</text><line style="stroke:#000000;stroke-width:1.0;" x1="3671" x2="3713" y1="708.0781" y2="708.0781"/><line style="stroke:#000000;stroke-width:1.0;" x1="3713" x2="3713" y1="708.0781" y2="721.0781"/><line style="stroke:#000000;stroke-width:1.0;" x1="3666" x2="3713" y1="721.0781" y2="721.0781"/><polygon fill="#000000" points="3676,717.0781,3666,721.0781,3676,725.0781,3672,721.0781" style="stroke:#000000;stroke-width:1.0;"/><text fill="#000000" font-family="sans-serif" font-size="20" lengthAdjust="spacing" textLength="63" x="3678" y="701.3613">Staff()</text><polygon fill="#000000" points="2003,749.3594,1993,753.3594,2003,757.3594,1999,753.3594" style="stroke:#000000;stroke-width:1.0;"/><line style="stroke:#000000;stroke-width:1.0;stroke-dasharray:2.0,2.0;" x1="1997" x2="2348" y1="753.3594" y2="753.3594"/><text fill="#000000" font-family="sans-serif" font-size="20" lengthAdjust="spacing" textLength="115" x="2009" y="746.6426">return Staff</text><polygon fill="#000000" points="2493.5,786.6406,2503.5,790.6406,2493.5,794.6406,2497.5,790.6406" style="stroke:#000000;stroke-width:1.0;"/><line style="stroke:#000000;stroke-width:1.0;" x1="1992" x2="2499.5" y1="790.6406" y2="790.6406"/><text fill="#000000" font-family="sans-serif" font-size="20" lengthAdjust="spacing" textLength="285" x="1999" y="783.9238">getStaffByEmail(staff.Email)</text><polygon fill="#000000" points="4501,823.9219,4511,827.9219,4501,831.9219,4505,827.9219" style="stroke:#000000;stroke-width:1.0;"/><line style="stroke:#000000;stroke-width:1.0;" x1="2515.5" x2="4507" y1="827.9219" y2="827.9219"/><text fill="#000000" font-family="sans-serif" font-size="20" lengthAdjust="spacing" textLength="636" x="2522.5" y="821.2051">_objs.Where(x =&gt; email.Equals(x.Email)).FirstOrDefaultAsync()</text><polygon fill="#000000" points="2526.5,861.2031,2516.5,865.2031,2526.5,869.2031,2522.5,865.2031" style="stroke:#000000;stroke-width:1.0;"/><line style="stroke:#000000;stroke-width:1.0;stroke-dasharray:2.0,2.0;" x1="2520.5" x2="4517" y1="865.2031" y2="865.2031"/><text fill="#000000" font-family="sans-serif" font-size="20" lengthAdjust="spacing" textLength="99" x="2532.5" y="858.4863">return var</text><polygon fill="#000000" points="2003,898.4844,1993,902.4844,2003,906.4844,1999,902.4844" style="stroke:#000000;stroke-width:1.0;"/><line style="stroke:#000000;stroke-width:1.0;stroke-dasharray:2.0,2.0;" x1="1997" x2="2509.5" y1="902.4844" y2="902.4844"/><text fill="#000000" font-family="sans-serif" font-size="20" lengthAdjust="spacing" textLength="99" x="2009" y="895.7676">return var</text><path d="M1330,917.4844 L1406,917.4844 L1406,932.7656 L1396,942.7656 L1330,942.7656 L1330,917.4844 " fill="#EEEEEE" style="stroke:#000000;stroke-width:1.5;"/><rect fill="none" height="1007.875" style="stroke:#000000;stroke-width:1.5;" width="3262" x="1330" y="917.4844"/><text fill="#000000" font-family="sans-serif" font-size="20" font-weight="bold" lengthAdjust="spacing" textLength="31" x="1345" y="937.0488">alt</text><text fill="#000000" font-family="sans-serif" font-size="20" font-weight="bold" lengthAdjust="spacing" textLength="130" x="1421" y="938.0488">[var is null]</text><polygon fill="#000000" points="2717.5,976.3281,2727.5,980.3281,2717.5,984.3281,2721.5,980.3281" style="stroke:#000000;stroke-width:1.0;"/><line style="stroke:#000000;stroke-width:1.0;" x1="1992" x2="2723.5" y1="980.3281" y2="980.3281"/><text fill="#000000" font-family="sans-serif" font-size="20" lengthAdjust="spacing" textLength="472" x="1999" y="973.6113">GetByPhoneNumberAsync(staff.PhoneNumber)</text><polygon fill="#000000" points="4501,1013.6094,4511,1017.6094,4501,1021.6094,4505,1017.6094" style="stroke:#000000;stroke-width:1.0;"/><line style="stroke:#000000;stroke-width:1.0;" x1="2739.5" x2="4507" y1="1017.6094" y2="1017.6094"/><text fill="#000000" font-family="sans-serif" font-size="20" lengthAdjust="spacing" textLength="817" x="2746.5" y="1010.8926">_objs.Where(x =&gt; phoneNumber.Equals(x.PhoneNumber)).FirstOrDefaultAsync();</text><polygon fill="#000000" points="2750.5,1050.8906,2740.5,1054.8906,2750.5,1058.8906,2746.5,1054.8906" style="stroke:#000000;stroke-width:1.0;"/><line style="stroke:#000000;stroke-width:1.0;stroke-dasharray:2.0,2.0;" x1="2744.5" x2="4517" y1="1054.8906" y2="1054.8906"/><text fill="#000000" font-family="sans-serif" font-size="20" lengthAdjust="spacing" textLength="99" x="2756.5" y="1048.1738">return var</text><polygon fill="#000000" points="2003,1088.1719,1993,1092.1719,2003,1096.1719,1999,1092.1719" style="stroke:#000000;stroke-width:1.0;"/><line style="stroke:#000000;stroke-width:1.0;stroke-dasharray:2.0,2.0;" x1="1997" x2="2733.5" y1="1092.1719" y2="1092.1719"/><text fill="#000000" font-family="sans-serif" font-size="20" lengthAdjust="spacing" textLength="99" x="2009" y="1085.4551">return var</text><path d="M1340,1107.1719 L1416,1107.1719 L1416,1122.4531 L1406,1132.4531 L1340,1132.4531 L1340,1107.1719 " fill="#EEEEEE" style="stroke:#000000;stroke-width:1.5;"/><rect fill="none" height="748.625" style="stroke:#000000;stroke-width:1.5;" width="3242" x="1340" y="1107.1719"/><text fill="#000000" font-family="sans-serif" font-size="20" font-weight="bold" lengthAdjust="spacing" textLength="31" x="1355" y="1126.7363">alt</text><text fill="#000000" font-family="sans-serif" font-size="20" font-weight="bold" lengthAdjust="spacing" textLength="130" x="1431" y="1127.7363">[var is null]</text><polygon fill="#000000" points="2493.5,1166.0156,2503.5,1170.0156,2493.5,1174.0156,2497.5,1170.0156" style="stroke:#000000;stroke-width:1.0;"/><line style="stroke:#000000;stroke-width:1.0;" x1="1992" x2="2499.5" y1="1170.0156" y2="1170.0156"/><text fill="#000000" font-family="sans-serif" font-size="20" lengthAdjust="spacing" textLength="134" x="1999" y="1163.2988">getAllAsync()</text><polygon fill="#000000" points="4501,1203.2969,4511,1207.2969,4501,1211.2969,4505,1207.2969" style="stroke:#000000;stroke-width:1.0;"/><line style="stroke:#000000;stroke-width:1.0;" x1="2515.5" x2="4507" y1="1207.2969" y2="1207.2969"/><text fill="#000000" font-family="sans-serif" font-size="20" lengthAdjust="spacing" textLength="191" x="2522.5" y="1200.5801">_objs.ToListAsync()</text><polygon fill="#000000" points="2526.5,1240.5781,2516.5,1244.5781,2526.5,1248.5781,2522.5,1244.5781" style="stroke:#000000;stroke-width:1.0;"/><line style="stroke:#000000;stroke-width:1.0;stroke-dasharray:2.0,2.0;" x1="2520.5" x2="4517" y1="1244.5781" y2="1244.5781"/><text fill="#000000" font-family="sans-serif" font-size="20" lengthAdjust="spacing" textLength="98" x="2532.5" y="1237.8613">return list</text><polygon fill="#000000" points="2003,1277.8594,1993,1281.8594,2003,1285.8594,1999,1281.8594" style="stroke:#000000;stroke-width:1.0;"/><line style="stroke:#000000;stroke-width:1.0;stroke-dasharray:2.0,2.0;" x1="1997" x2="2509.5" y1="1281.8594" y2="1281.8594"/><text fill="#000000" font-family="sans-serif" font-size="20" lengthAdjust="spacing" textLength="98" x="2009" y="1275.1426">return list</text><polygon fill="#000000" points="4301.5,1315.1406,4311.5,1319.1406,4301.5,1323.1406,4305.5,1319.1406" style="stroke:#000000;stroke-width:1.0;"/><line style="stroke:#000000;stroke-width:1.0;" x1="1992" x2="4307.5" y1="1319.1406" y2="1319.1406"/><text fill="#000000" font-family="sans-serif" font-size="20" lengthAdjust="spacing" textLength="361" x="1999" y="1312.4238">GenerateLicenseNumber(list.Count)</text><polygon fill="#000000" points="2003,1352.4219,1993,1356.4219,2003,1360.4219,1999,1356.4219" style="stroke:#000000;stroke-width:1.0;"/><line style="stroke:#000000;stroke-width:1.0;stroke-dasharray:2.0,2.0;" x1="1997" x2="4317.5" y1="1356.4219" y2="1356.4219"/><text fill="#000000" font-family="sans-serif" font-size="20" lengthAdjust="spacing" textLength="314" x="2009" y="1349.7051">return generateLicenseNumber</text><polygon fill="#000000" points="3649,1389.7031,3659,1393.7031,3649,1397.7031,3653,1393.7031" style="stroke:#000000;stroke-width:1.0;"/><line style="stroke:#000000;stroke-width:1.0;" x1="1992" x2="3655" y1="1393.7031" y2="1393.7031"/><text fill="#000000" font-family="sans-serif" font-size="20" lengthAdjust="spacing" textLength="451" x="1999" y="1386.9863">SetLicenseNumber(generateLicenseNumber)</text><line style="stroke:#000000;stroke-width:1.0;" x1="3671" x2="3713" y1="1435.9844" y2="1435.9844"/><line style="stroke:#000000;stroke-width:1.0;" x1="3713" x2="3713" y1="1435.9844" y2="1448.9844"/><line style="stroke:#000000;stroke-width:1.0;" x1="3666" x2="3713" y1="1448.9844" y2="1448.9844"/><polygon fill="#000000" points="3676,1444.9844,3666,1448.9844,3676,1452.9844,3672,1448.9844" style="stroke:#000000;stroke-width:1.0;"/><text fill="#000000" font-family="sans-serif" font-size="20" lengthAdjust="spacing" textLength="431" x="3678" y="1429.2676">LicenseNumber = generateLicenseNumber</text><polygon fill="#000000" points="2493.5,1477.2656,2503.5,1481.2656,2493.5,1485.2656,2497.5,1481.2656" style="stroke:#000000;stroke-width:1.0;"/><line style="stroke:#000000;stroke-width:1.0;" x1="1992" x2="2499.5" y1="1481.2656" y2="1481.2656"/><text fill="#000000" font-family="sans-serif" font-size="20" lengthAdjust="spacing" textLength="157" x="1999" y="1474.5488">addAsync(staff)</text><polygon fill="#000000" points="4501,1514.5469,4511,1518.5469,4501,1522.5469,4505,1518.5469" style="stroke:#000000;stroke-width:1.0;"/><line style="stroke:#000000;stroke-width:1.0;" x1="2515.5" x2="4507" y1="1518.5469" y2="1518.5469"/><text fill="#000000" font-family="sans-serif" font-size="20" lengthAdjust="spacing" textLength="216" x="2522.5" y="1511.8301">_objs.AddAsync(staff)</text><polygon fill="#000000" points="2003,1581.8281,1993,1585.8281,2003,1589.8281,1999,1585.8281" style="stroke:#000000;stroke-width:1.0;"/><line style="stroke:#000000;stroke-width:1.0;stroke-dasharray:2.0,2.0;" x1="1997" x2="2509.5" y1="1585.8281" y2="1585.8281"/><text fill="#000000" font-family="sans-serif" font-size="20" lengthAdjust="spacing" textLength="115" x="2009" y="1579.1113">return Staff</text><polygon fill="#000000" points="2332,1619.1094,2342,1623.1094,2332,1627.1094,2336,1623.1094" style="stroke:#000000;stroke-width:1.0;"/><line style="stroke:#000000;stroke-width:1.0;" x1="1992" x2="2338" y1="1623.1094" y2="1623.1094"/><text fill="#000000" font-family="sans-serif" font-size="20" lengthAdjust="spacing" textLength="119" x="1999" y="1616.3926">ToDto(staff)</text><polygon fill="#000000" points="4104,1656.3906,4114,1660.3906,4104,1664.3906,4108,1660.3906" style="stroke:#000000;stroke-width:1.0;"/><line style="stroke:#000000;stroke-width:1.0;" x1="2354" x2="4110" y1="1660.3906" y2="1660.3906"/><text fill="#000000" font-family="sans-serif" font-size="20" lengthAdjust="spacing" textLength="258" x="2361" y="1653.6738">new StaffDTO(staff fields)</text><line style="stroke:#000000;stroke-width:1.0;" x1="4126" x2="4168" y1="1702.6719" y2="1702.6719"/><line style="stroke:#000000;stroke-width:1.0;" x1="4168" x2="4168" y1="1702.6719" y2="1715.6719"/><line style="stroke:#000000;stroke-width:1.0;" x1="4121" x2="4168" y1="1715.6719" y2="1715.6719"/><polygon fill="#000000" points="4131,1711.6719,4121,1715.6719,4131,1719.6719,4127,1715.6719" style="stroke:#000000;stroke-width:1.0;"/><text fill="#000000" font-family="sans-serif" font-size="20" lengthAdjust="spacing" textLength="106" x="4133" y="1695.9551">StaffDTO()</text><polygon fill="#000000" points="2003,1743.9531,1993,1747.9531,2003,1751.9531,1999,1747.9531" style="stroke:#000000;stroke-width:1.0;"/><line style="stroke:#000000;stroke-width:1.0;stroke-dasharray:2.0,2.0;" x1="1997" x2="2348" y1="1747.9531" y2="1747.9531"/><text fill="#000000" font-family="sans-serif" font-size="20" lengthAdjust="spacing" textLength="158" x="2009" y="1741.2363">return StaffDTO</text><polygon fill="#000000" points="1446,1781.2344,1436,1785.2344,1446,1789.2344,1442,1785.2344" style="stroke:#000000;stroke-width:1.0;"/><line style="stroke:#000000;stroke-width:1.0;stroke-dasharray:2.0,2.0;" x1="1440" x2="1981" y1="1785.2344" y2="1785.2344"/><text fill="#000000" font-family="sans-serif" font-size="20" lengthAdjust="spacing" textLength="158" x="1452" y="1778.5176">return StaffDTO</text><line style="stroke:#000000;stroke-width:1.0;stroke-dasharray:2.0,2.0;" x1="1340" x2="4582" y1="1794.2344" y2="1794.2344"/><text fill="#000000" font-family="sans-serif" font-size="20" font-weight="bold" lengthAdjust="spacing" textLength="175" x="1345" y="1812.7988">[var is not null]</text><polygon fill="#000000" points="1446,1843.7969,1436,1847.7969,1446,1851.7969,1442,1847.7969" style="stroke:#000000;stroke-width:1.0;"/><line style="stroke:#000000;stroke-width:1.0;stroke-dasharray:2.0,2.0;" x1="1440" x2="1981" y1="1847.7969" y2="1847.7969"/><text fill="#000000" font-family="sans-serif" font-size="20" lengthAdjust="spacing" textLength="523" x="1452" y="1841.0801">return Staff with same Phone Number already exists</text><line style="stroke:#000000;stroke-width:1.0;stroke-dasharray:2.0,2.0;" x1="1330" x2="4592" y1="1863.7969" y2="1863.7969"/><text fill="#000000" font-family="sans-serif" font-size="20" font-weight="bold" lengthAdjust="spacing" textLength="175" x="1335" y="1882.3613">[var is not null]</text><polygon fill="#000000" points="1446,1913.3594,1436,1917.3594,1446,1921.3594,1442,1917.3594" style="stroke:#000000;stroke-width:1.0;"/><line style="stroke:#000000;stroke-width:1.0;stroke-dasharray:2.0,2.0;" x1="1440" x2="1981" y1="1917.3594" y2="1917.3594"/><text fill="#000000" font-family="sans-serif" font-size="20" lengthAdjust="spacing" textLength="431" x="1452" y="1910.6426">return Staff with same Email already exists</text><line style="stroke:#000000;stroke-width:1.0;stroke-dasharray:2.0,2.0;" x1="1320" x2="4602" y1="1933.3594" y2="1933.3594"/><text fill="#000000" font-family="sans-serif" font-size="20" font-weight="bold" lengthAdjust="spacing" textLength="251" x="1325" y="1951.9238">[specialization is null]</text><polygon fill="#000000" points="1446,1982.9219,1436,1986.9219,1446,1990.9219,1442,1986.9219" style="stroke:#000000;stroke-width:1.0;"/><line style="stroke:#000000;stroke-width:1.0;stroke-dasharray:2.0,2.0;" x1="1440" x2="1986" y1="1986.9219" y2="1986.9219"/><text fill="#000000" font-family="sans-serif" font-size="20" lengthAdjust="spacing" textLength="474" x="1452" y="1980.2051">return Specialization with this name not found.</text><polygon fill="#000000" points="999,2027.2031,989,2031.2031,999,2035.2031,995,2031.2031" style="stroke:#000000;stroke-width:1.0;"/><line style="stroke:#000000;stroke-width:1.0;stroke-dasharray:2.0,2.0;" x1="993" x2="1429" y1="2031.2031" y2="2031.2031"/><text fill="#000000" font-family="sans-serif" font-size="20" lengthAdjust="spacing" textLength="413" x="1005" y="2024.4863">Returns Operation Status Response Code</text><polygon fill="#000000" points="57,2064.4844,47,2068.4844,57,2072.4844,53,2068.4844" style="stroke:#000000;stroke-width:1.0;"/><line style="stroke:#000000;stroke-width:1.0;stroke-dasharray:2.0,2.0;" x1="51" x2="982" y1="2068.4844" y2="2068.4844"/><text fill="#000000" font-family="sans-serif" font-size="20" lengthAdjust="spacing" textLength="391" x="63" y="2061.7676">Returns Operation In/Success message</text><!--SRC=[dLTTRzis57tNhxXe7se3gTTrwDgvJG1BiWC3Tc982VOuCDArhKOMDP5EuWxxxxia9KkYfIHT7rAJFFVmt0_oKk8-oN9Mi5tAetkC8SOrswTonZCP9ZyGFdvm79d856613vZ2R-0dR4DuMFC2l0APJB8DX9AjruwpJM84tENo03lStM4Xd7UYsW4MIORoa2FmGcwvuzGhKSg4W7ySe7ykY-ut1TzdiSTJNdpxzi3IFLxVVST8Nbp0M__twMJsfHjQSAunCt_g-X-wCGABXoH2JVNhxEFKxO8HnNJsn_IpNfiK1NyqqsvAEEVVflQSPjW6kzN3swax-pHpbGcB94rCubsI0HCmSSXU9b6Iiqp2crlI1VDCOh5c4RvHYDjv6wA3x55c2fwcM6YCrm49ZOTwFUnONx8yBysN7Si1vbmafFMW8O45oJ5AM9hyeCJppCPQsrNreNdzcsiZkKkJNbbrB5HMz7zxTK4kPWAlzghEBZ73Wf4EZRrSNBMnFfFiZWaJ4j_LkKWUc4JAmWJUNr2enp0Hzm8aXqY9Hc1bKH-Xb8xRERmdzAG4goEWGUy4nBI54sCJVMGECOj52mc3ML882HdRuHaisF7dR9-cvjTqnvBq35PRdY5asiipQ4T_U2Bk0hnnwO3URc1d06B96sQUuscFmf-o2frGRHMGrILAfMaUkuVhN6cQY4CM3GW_Qckz8gU6em05tIur4nLCeBbyTmn_yRllOlJd5WiSFC7v1Jnf3iCxkk4B_eZ5O0Zdvy2jkU58n_EwyCtzPLGClzOxKTPzL_kgP1SezqK6eYMncJw2As4cD2-YoGsMIWi0YO2CKs8ffVfkq8vwnAUZOm9Nm-Vne6q_ciUZYRZS9p7vzrKpr7aBzTWBIqQR2iwXdqoRDjINP5hUSWmttETKUrbF5RHqBFLmgInNOyZmqLIvph_Eo9MkPJLKHLwFL9tNexBMrKzTxrTbkMj2EqgdjJMFXvQkbHwkIbr6qudVgqfyAylcr5lGPHsXO0mRofr2kGSjV23Km3XXwGZqCEYjS5Gse-dVUvQAmLD9qLFCRMRVzAsgfe_o7rXXYo-XWULe1zB8LQLCYxf-gzgjtJU7tZqq4cK4cYWqfeT7o-P1gUQUEVTvpL77fadSUznFDYnzRuRgD0BTyQf4TWRD3bpjLr_qh0AQf6aphwUHQarR5KJtNYBai_OD9phh92M25g8x05s5yvnfSEelTMDLChf1Owjh3nJJoAFNakpnGdNovWADBJ6RBk8-TJPTM5qGADl2EbbxDAvQqzMTqxAaw_YdTAuwguR5SUEa_P-wcRo6mSh-w-kYlZbVLnYcrqZ-h9fbQrft6cf5ZLv38qC0wmJJMFHvHU_7re6WVbPn7Nc6lPvRrfrDmmQTz8-6z-QbrcUDgS3Z9T9yGZpB08-9t8AWhbg-6ilYOoarylW0-4J7JTIRPB7pucOlRQGxLjSEYbqpTpoA6W-YDdaRgdUHMsMXjbBQrkhBQcIthT1HkvcNh7fl1vfEm7MkZfoY8jboJzydA79Efmyy7cFp0USrdlQdrlFibt0VHKZVg3lwGrzxral_Fm00]--></g></svg>