<?xml version="1.0" encoding="UTF-8" standalone="no"?><svg xmlns="http://www.w3.org/2000/svg" xmlns:xlink="http://www.w3.org/1999/xlink" contentStyleType="text/css" height="2086px" preserveAspectRatio="none" style="width:4609px;height:2086px;background:#FFFFFF;" version="1.1" viewBox="0 0 4609 2086" width="4609px" zoomAndPan="magnify"><defs/><g><text fill="#000000" font-family="sans-serif" font-size="14" font-weight="bold" lengthAdjust="spacing" textLength="268" x="2171.5" y="27.9951">Level 3 Diagram for Creating Staff</text><rect fill="#FFFFFF" height="1854.3438" style="stroke:#181818;stroke-width:1.0;" width="10" x="36" y="135.5781"/><rect fill="#FFFFFF" height="37.2813" style="stroke:#181818;stroke-width:1.0;" width="10" x="978" y="164.8594"/><rect fill="#FFFFFF" height="1741.5" style="stroke:#181818;stroke-width:1.0;" width="10" x="978" y="239.4219"/><rect fill="#FFFFFF" height="1666.9375" style="stroke:#181818;stroke-width:1.0;" width="10" x="1425" y="276.7031"/><rect fill="#FFFFFF" height="1585.375" style="stroke:#181818;stroke-width:1.0;" width="10" x="1982" y="313.9844"/><rect fill="#FFFFFF" height="124.8438" style="stroke:#181818;stroke-width:1.0;" width="10" x="2344" y="351.2656"/><rect fill="#FFFFFF" height="124.8438" style="stroke:#181818;stroke-width:1.0;" width="10" x="2344" y="1535.5469"/><rect fill="#FFFFFF" height="111.8438" style="stroke:#181818;stroke-width:1.0;" width="10" x="2505.5" y="513.3906"/><rect fill="#FFFFFF" height="111.8438" style="stroke:#181818;stroke-width:1.0;" width="10" x="2505.5" y="703.0781"/><rect fill="#FFFFFF" height="111.8438" style="stroke:#181818;stroke-width:1.0;" width="10" x="2505.5" y="1082.4531"/><rect fill="#FFFFFF" height="104.5625" style="stroke:#181818;stroke-width:1.0;" width="10" x="2505.5" y="1393.7031"/><rect fill="#FFFFFF" height="111.8438" style="stroke:#181818;stroke-width:1.0;" width="10" x="2729.5" y="892.7656"/><rect fill="#FFFFFF" height="43.2813" style="stroke:#181818;stroke-width:1.0;" width="10" x="3661" y="388.5469"/><rect fill="#FFFFFF" height="43.2813" style="stroke:#181818;stroke-width:1.0;" width="10" x="3661" y="1306.1406"/><rect fill="#FFFFFF" height="43.2813" style="stroke:#181818;stroke-width:1.0;" width="10" x="4116" y="1572.8281"/><rect fill="#FFFFFF" height="37.2813" style="stroke:#181818;stroke-width:1.0;" width="10" x="4313.5" y="1231.5781"/><rect fill="#FFFFFF" height="37.2813" style="stroke:#181818;stroke-width:1.0;" width="10" x="4513" y="550.6719"/><rect fill="#FFFFFF" height="37.2813" style="stroke:#181818;stroke-width:1.0;" width="10" x="4513" y="740.3594"/><rect fill="#FFFFFF" height="37.2813" style="stroke:#181818;stroke-width:1.0;" width="10" x="4513" y="930.0469"/><rect fill="#FFFFFF" height="37.2813" style="stroke:#181818;stroke-width:1.0;" width="10" x="4513" y="1119.7344"/><rect fill="#FFFFFF" height="30" style="stroke:#181818;stroke-width:1.0;" width="10" x="4513" y="1430.9844"/><rect fill="#EBF5FB" height="1267.125" style="stroke:#000000;stroke-width:1.5;" width="3282" x="1320" y="640.2344"/><rect fill="#EBF5FB" height="1007.875" style="stroke:#000000;stroke-width:1.5;" width="3262" x="1330" y="829.9219"/><rect fill="#EBF5FB" height="748.625" style="stroke:#000000;stroke-width:1.5;" width="3242" x="1340" y="1019.6094"/><rect fill="#EBF5FB" height="62.5625" style="stroke:none;stroke-width:1.0;" width="3242" x="1340" y="1705.6719"/><rect fill="#EBF5FB" height="62.5625" style="stroke:none;stroke-width:1.0;" width="3262" x="1330" y="1775.2344"/><rect fill="#EBF5FB" height="62.5625" style="stroke:none;stroke-width:1.0;" width="3282" x="1320" y="1844.7969"/><line style="stroke:#181818;stroke-width:0.5;stroke-dasharray:5.0,5.0;" x1="41" x2="41" y1="125.5781" y2="1998.9219"/><line style="stroke:#181818;stroke-width:0.5;stroke-dasharray:5.0,5.0;" x1="983" x2="983" y1="125.5781" y2="1998.9219"/><line style="stroke:#181818;stroke-width:0.5;stroke-dasharray:5.0,5.0;" x1="1430" x2="1430" y1="125.5781" y2="1998.9219"/><line style="stroke:#181818;stroke-width:0.5;stroke-dasharray:5.0,5.0;" x1="1987" x2="1987" y1="125.5781" y2="1998.9219"/><line style="stroke:#181818;stroke-width:0.5;stroke-dasharray:5.0,5.0;" x1="2349" x2="2349" y1="125.5781" y2="1998.9219"/><line style="stroke:#181818;stroke-width:0.5;stroke-dasharray:5.0,5.0;" x1="2510" x2="2510" y1="125.5781" y2="1998.9219"/><line style="stroke:#181818;stroke-width:0.5;stroke-dasharray:5.0,5.0;" x1="2734" x2="2734" y1="125.5781" y2="1998.9219"/><line style="stroke:#181818;stroke-width:0.5;stroke-dasharray:5.0,5.0;" x1="3665.5" x2="3665.5" y1="125.5781" y2="1998.9219"/><line style="stroke:#181818;stroke-width:0.5;stroke-dasharray:5.0,5.0;" x1="4121" x2="4121" y1="125.5781" y2="1998.9219"/><line style="stroke:#181818;stroke-width:0.5;stroke-dasharray:5.0,5.0;" x1="4318" x2="4318" y1="125.5781" y2="1998.9219"/><line style="stroke:#181818;stroke-width:0.5;stroke-dasharray:5.0,5.0;" x1="4518" x2="4518" y1="125.5781" y2="1998.9219"/><text fill="#000000" font-family="sans-serif" font-size="20" lengthAdjust="spacing" textLength="66" x="5" y="120.8613">Admin</text><ellipse cx="41" cy="50.7969" fill="#E2E2F0" rx="8" ry="8" style="stroke:#181818;stroke-width:0.5;"/><path d="M41,58.7969 L41,85.7969 M28,66.7969 L54,66.7969 M41,85.7969 L28,100.7969 M41,85.7969 L54,100.7969 " fill="none" style="stroke:#181818;stroke-width:0.5;"/><text fill="#000000" font-family="sans-serif" font-size="20" lengthAdjust="spacing" textLength="66" x="5" y="2016.4863">Admin</text><ellipse cx="41" cy="2029.7031" fill="#E2E2F0" rx="8" ry="8" style="stroke:#181818;stroke-width:0.5;"/><path d="M41,2037.7031 L41,2064.7031 M28,2045.7031 L54,2045.7031 M41,2064.7031 L28,2079.7031 M41,2064.7031 L54,2079.7031 " fill="none" style="stroke:#181818;stroke-width:0.5;"/><rect fill="#E2E2F0" height="37.2813" rx="2.5" ry="2.5" style="stroke:#181818;stroke-width:0.5;" width="154" x="906" y="87.2969"/><text fill="#000000" font-family="sans-serif" font-size="20" lengthAdjust="spacing" textLength="140" x="913" y="112.8613">User Interface</text><rect fill="#E2E2F0" height="37.2813" rx="2.5" ry="2.5" style="stroke:#181818;stroke-width:0.5;" width="154" x="906" y="1997.9219"/><text fill="#000000" font-family="sans-serif" font-size="20" lengthAdjust="spacing" textLength="140" x="913" y="2023.4863">User Interface</text><rect fill="#E2E2F0" height="37.2813" rx="2.5" ry="2.5" style="stroke:#181818;stroke-width:0.5;" width="160" x="1350" y="87.2969"/><text fill="#000000" font-family="sans-serif" font-size="20" lengthAdjust="spacing" textLength="146" x="1357" y="112.8613">StaffController</text><rect fill="#E2E2F0" height="37.2813" rx="2.5" ry="2.5" style="stroke:#181818;stroke-width:0.5;" width="160" x="1350" y="1997.9219"/><text fill="#000000" font-family="sans-serif" font-size="20" lengthAdjust="spacing" textLength="146" x="1357" y="2023.4863">StaffController</text><rect fill="#E2E2F0" height="37.2813" rx="2.5" ry="2.5" style="stroke:#181818;stroke-width:0.5;" width="134" x="1920" y="87.2969"/><text fill="#000000" font-family="sans-serif" font-size="20" lengthAdjust="spacing" textLength="120" x="1927" y="112.8613">StaffService</text><rect fill="#E2E2F0" height="37.2813" rx="2.5" ry="2.5" style="stroke:#181818;stroke-width:0.5;" width="134" x="1920" y="1997.9219"/><text fill="#000000" font-family="sans-serif" font-size="20" lengthAdjust="spacing" textLength="120" x="1927" y="2023.4863">StaffService</text><rect fill="#E2E2F0" height="37.2813" rx="2.5" ry="2.5" style="stroke:#181818;stroke-width:0.5;" width="136" x="2281" y="87.2969"/><text fill="#000000" font-family="sans-serif" font-size="20" lengthAdjust="spacing" textLength="122" x="2288" y="112.8613">StaffMapper</text><rect fill="#E2E2F0" height="37.2813" rx="2.5" ry="2.5" style="stroke:#181818;stroke-width:0.5;" width="136" x="2281" y="1997.9219"/><text fill="#000000" font-family="sans-serif" font-size="20" lengthAdjust="spacing" textLength="122" x="2288" y="2023.4863">StaffMapper</text><rect fill="#E2E2F0" height="37.2813" rx="2.5" ry="2.5" style="stroke:#181818;stroke-width:0.5;" width="167" x="2427" y="87.2969"/><text fill="#000000" font-family="sans-serif" font-size="20" lengthAdjust="spacing" textLength="153" x="2434" y="112.8613">StaffRepository</text><rect fill="#E2E2F0" height="37.2813" rx="2.5" ry="2.5" style="stroke:#181818;stroke-width:0.5;" width="167" x="2427" y="1997.9219"/><text fill="#000000" font-family="sans-serif" font-size="20" lengthAdjust="spacing" textLength="153" x="2434" y="2023.4863">StaffRepository</text><rect fill="#E2E2F0" height="37.2813" rx="2.5" ry="2.5" style="stroke:#181818;stroke-width:0.5;" width="261" x="2604" y="87.2969"/><text fill="#000000" font-family="sans-serif" font-size="20" lengthAdjust="spacing" textLength="247" x="2611" y="112.8613">SpecializationRepository</text><rect fill="#E2E2F0" height="37.2813" rx="2.5" ry="2.5" style="stroke:#181818;stroke-width:0.5;" width="261" x="2604" y="1997.9219"/><text fill="#000000" font-family="sans-serif" font-size="20" lengthAdjust="spacing" textLength="247" x="2611" y="2023.4863">SpecializationRepository</text><rect fill="#E2E2F0" height="37.2813" rx="2.5" ry="2.5" style="stroke:#181818;stroke-width:0.5;" width="61" x="3635.5" y="87.2969"/><text fill="#000000" font-family="sans-serif" font-size="20" lengthAdjust="spacing" textLength="47" x="3642.5" y="112.8613">Staff</text><rect fill="#E2E2F0" height="37.2813" rx="2.5" ry="2.5" style="stroke:#181818;stroke-width:0.5;" width="61" x="3635.5" y="1997.9219"/><text fill="#000000" font-family="sans-serif" font-size="20" lengthAdjust="spacing" textLength="47" x="3642.5" y="2023.4863">Staff</text><rect fill="#E2E2F0" height="37.2813" rx="2.5" ry="2.5" style="stroke:#181818;stroke-width:0.5;" width="104" x="4069" y="87.2969"/><text fill="#000000" font-family="sans-serif" font-size="20" lengthAdjust="spacing" textLength="90" x="4076" y="112.8613">StaffDTO</text><rect fill="#E2E2F0" height="37.2813" rx="2.5" ry="2.5" style="stroke:#181818;stroke-width:0.5;" width="104" x="4069" y="1997.9219"/><text fill="#000000" font-family="sans-serif" font-size="20" lengthAdjust="spacing" textLength="90" x="4076" y="2023.4863">StaffDTO</text><rect fill="#E2E2F0" height="37.2813" rx="2.5" ry="2.5" style="stroke:#181818;stroke-width:0.5;" width="271" x="4183" y="87.2969"/><text fill="#000000" font-family="sans-serif" font-size="20" lengthAdjust="spacing" textLength="257" x="4190" y="112.8613">LicenseNumberGenerator</text><rect fill="#E2E2F0" height="37.2813" rx="2.5" ry="2.5" style="stroke:#181818;stroke-width:0.5;" width="271" x="4183" y="1997.9219"/><text fill="#000000" font-family="sans-serif" font-size="20" lengthAdjust="spacing" textLength="257" x="4190" y="2023.4863">LicenseNumberGenerator</text><rect fill="#E2E2F0" height="37.2813" rx="2.5" ry="2.5" style="stroke:#181818;stroke-width:0.5;" width="108" x="4464" y="87.2969"/><text fill="#000000" font-family="sans-serif" font-size="20" lengthAdjust="spacing" textLength="94" x="4471" y="112.8613">Database</text><rect fill="#E2E2F0" height="37.2813" rx="2.5" ry="2.5" style="stroke:#181818;stroke-width:0.5;" width="108" x="4464" y="1997.9219"/><text fill="#000000" font-family="sans-serif" font-size="20" lengthAdjust="spacing" textLength="94" x="4471" y="2023.4863">Database</text><rect fill="#FFFFFF" height="1854.3438" style="stroke:#181818;stroke-width:1.0;" width="10" x="36" y="135.5781"/><rect fill="#FFFFFF" height="37.2813" style="stroke:#181818;stroke-width:1.0;" width="10" x="978" y="164.8594"/><rect fill="#FFFFFF" height="1741.5" style="stroke:#181818;stroke-width:1.0;" width="10" x="978" y="239.4219"/><rect fill="#FFFFFF" height="1666.9375" style="stroke:#181818;stroke-width:1.0;" width="10" x="1425" y="276.7031"/><rect fill="#FFFFFF" height="1585.375" style="stroke:#181818;stroke-width:1.0;" width="10" x="1982" y="313.9844"/><rect fill="#FFFFFF" height="124.8438" style="stroke:#181818;stroke-width:1.0;" width="10" x="2344" y="351.2656"/><rect fill="#FFFFFF" height="124.8438" style="stroke:#181818;stroke-width:1.0;" width="10" x="2344" y="1535.5469"/><rect fill="#FFFFFF" height="111.8438" style="stroke:#181818;stroke-width:1.0;" width="10" x="2505.5" y="513.3906"/><rect fill="#FFFFFF" height="111.8438" style="stroke:#181818;stroke-width:1.0;" width="10" x="2505.5" y="703.0781"/><rect fill="#FFFFFF" height="111.8438" style="stroke:#181818;stroke-width:1.0;" width="10" x="2505.5" y="1082.4531"/><rect fill="#FFFFFF" height="104.5625" style="stroke:#181818;stroke-width:1.0;" width="10" x="2505.5" y="1393.7031"/><rect fill="#FFFFFF" height="111.8438" style="stroke:#181818;stroke-width:1.0;" width="10" x="2729.5" y="892.7656"/><rect fill="#FFFFFF" height="43.2813" style="stroke:#181818;stroke-width:1.0;" width="10" x="3661" y="388.5469"/><rect fill="#FFFFFF" height="43.2813" style="stroke:#181818;stroke-width:1.0;" width="10" x="3661" y="1306.1406"/><rect fill="#FFFFFF" height="43.2813" style="stroke:#181818;stroke-width:1.0;" width="10" x="4116" y="1572.8281"/><rect fill="#FFFFFF" height="37.2813" style="stroke:#181818;stroke-width:1.0;" width="10" x="4313.5" y="1231.5781"/><rect fill="#FFFFFF" height="37.2813" style="stroke:#181818;stroke-width:1.0;" width="10" x="4513" y="550.6719"/><rect fill="#FFFFFF" height="37.2813" style="stroke:#181818;stroke-width:1.0;" width="10" x="4513" y="740.3594"/><rect fill="#FFFFFF" height="37.2813" style="stroke:#181818;stroke-width:1.0;" width="10" x="4513" y="930.0469"/><rect fill="#FFFFFF" height="37.2813" style="stroke:#181818;stroke-width:1.0;" width="10" x="4513" y="1119.7344"/><rect fill="#FFFFFF" height="30" style="stroke:#181818;stroke-width:1.0;" width="10" x="4513" y="1430.9844"/><polygon fill="#000000" points="966,160.8594,976,164.8594,966,168.8594,970,164.8594" style="stroke:#000000;stroke-width:1.0;"/><line style="stroke:#000000;stroke-width:1.0;" x1="46" x2="972" y1="164.8594" y2="164.8594"/><text fill="#000000" font-family="sans-serif" font-size="20" lengthAdjust="spacing" textLength="212" x="53" y="158.1426">Asks to create a Staff</text><polygon fill="#000000" points="57,198.1406,47,202.1406,57,206.1406,53,202.1406" style="stroke:#000000;stroke-width:1.0;"/><line style="stroke:#000000;stroke-width:1.0;stroke-dasharray:2.0,2.0;" x1="51" x2="982" y1="202.1406" y2="202.1406"/><text fill="#000000" font-family="sans-serif" font-size="20" lengthAdjust="spacing" textLength="199" x="63" y="195.4238">Asks for Staff's data</text><polygon fill="#000000" points="966,235.4219,976,239.4219,966,243.4219,970,239.4219" style="stroke:#000000;stroke-width:1.0;"/><line style="stroke:#000000;stroke-width:1.0;" x1="46" x2="972" y1="239.4219" y2="239.4219"/><text fill="#000000" font-family="sans-serif" font-size="20" lengthAdjust="spacing" textLength="913" x="53" y="232.7051">Sends Staff's data (First name, Last name, Fullname, Email, Phone number, Specialization)</text><polygon fill="#000000" points="1413,272.7031,1423,276.7031,1413,280.7031,1417,276.7031" style="stroke:#000000;stroke-width:1.0;"/><line style="stroke:#000000;stroke-width:1.0;" x1="988" x2="1419" y1="276.7031" y2="276.7031"/><text fill="#000000" font-family="sans-serif" font-size="20" lengthAdjust="spacing" textLength="341" x="995" y="269.9863">createStaff(CreatingStaffDTO dto)</text><polygon fill="#000000" points="1970,309.9844,1980,313.9844,1970,317.9844,1974,313.9844" style="stroke:#000000;stroke-width:1.0;"/><line style="stroke:#000000;stroke-width:1.0;stroke-dasharray:2.0,2.0;" x1="1435" x2="1976" y1="313.9844" y2="313.9844"/><text fill="#000000" font-family="sans-serif" font-size="20" lengthAdjust="spacing" textLength="341" x="1442" y="307.2676">createStaff(CreatingStaffDTO dto)</text><polygon fill="#000000" points="2332,347.2656,2342,351.2656,2332,355.2656,2336,351.2656" style="stroke:#000000;stroke-width:1.0;"/><line style="stroke:#000000;stroke-width:1.0;" x1="1992" x2="2338" y1="351.2656" y2="351.2656"/><text fill="#000000" font-family="sans-serif" font-size="20" lengthAdjust="spacing" textLength="333" x="1999" y="344.5488">ToDomain(CreatingStaffDTO dto)</text><polygon fill="#000000" points="3649,384.5469,3659,388.5469,3649,392.5469,3653,388.5469" style="stroke:#000000;stroke-width:1.0;"/><line style="stroke:#000000;stroke-width:1.0;" x1="2354" x2="3655" y1="388.5469" y2="388.5469"/><text fill="#000000" font-family="sans-serif" font-size="20" lengthAdjust="spacing" textLength="1288" x="2361" y="381.8301">new Staff(dto.FirstName, dto.LastName, dto.FullName, dto.Email, dto.PhoneNumber, new SpecializationId(dto.SpecializationId))</text><line style="stroke:#000000;stroke-width:1.0;" x1="3671" x2="3713" y1="430.8281" y2="430.8281"/><line style="stroke:#000000;stroke-width:1.0;" x1="3713" x2="3713" y1="430.8281" y2="443.8281"/><line style="stroke:#000000;stroke-width:1.0;" x1="3666" x2="3713" y1="443.8281" y2="443.8281"/><polygon fill="#000000" points="3676,439.8281,3666,443.8281,3676,447.8281,3672,443.8281" style="stroke:#000000;stroke-width:1.0;"/><text fill="#000000" font-family="sans-serif" font-size="20" lengthAdjust="spacing" textLength="63" x="3678" y="424.1113">Staff()</text><polygon fill="#000000" points="2003,472.1094,1993,476.1094,2003,480.1094,1999,476.1094" style="stroke:#000000;stroke-width:1.0;"/><line style="stroke:#000000;stroke-width:1.0;stroke-dasharray:2.0,2.0;" x1="1997" x2="2348" y1="476.1094" y2="476.1094"/><text fill="#000000" font-family="sans-serif" font-size="20" lengthAdjust="spacing" textLength="115" x="2009" y="469.3926">return Staff</text><polygon fill="#000000" points="2493.5,509.3906,2503.5,513.3906,2493.5,517.3906,2497.5,513.3906" style="stroke:#000000;stroke-width:1.0;"/><line style="stroke:#000000;stroke-width:1.0;" x1="1992" x2="2499.5" y1="513.3906" y2="513.3906"/><text fill="#000000" font-family="sans-serif" font-size="20" lengthAdjust="spacing" textLength="285" x="1999" y="506.6738">getStaffByEmail(staff.Email)</text><polygon fill="#000000" points="4501,546.6719,4511,550.6719,4501,554.6719,4505,550.6719" style="stroke:#000000;stroke-width:1.0;"/><line style="stroke:#000000;stroke-width:1.0;" x1="2515.5" x2="4507" y1="550.6719" y2="550.6719"/><text fill="#000000" font-family="sans-serif" font-size="20" lengthAdjust="spacing" textLength="636" x="2522.5" y="543.9551">_objs.Where(x =&gt; email.Equals(x.Email)).FirstOrDefaultAsync()</text><polygon fill="#000000" points="2526.5,583.9531,2516.5,587.9531,2526.5,591.9531,2522.5,587.9531" style="stroke:#000000;stroke-width:1.0;"/><line style="stroke:#000000;stroke-width:1.0;stroke-dasharray:2.0,2.0;" x1="2520.5" x2="4517" y1="587.9531" y2="587.9531"/><text fill="#000000" font-family="sans-serif" font-size="20" lengthAdjust="spacing" textLength="99" x="2532.5" y="581.2363">return var</text><polygon fill="#000000" points="2003,621.2344,1993,625.2344,2003,629.2344,1999,625.2344" style="stroke:#000000;stroke-width:1.0;"/><line style="stroke:#000000;stroke-width:1.0;stroke-dasharray:2.0,2.0;" x1="1997" x2="2509.5" y1="625.2344" y2="625.2344"/><text fill="#000000" font-family="sans-serif" font-size="20" lengthAdjust="spacing" textLength="99" x="2009" y="618.5176">return var</text><path d="M1320,640.2344 L1396,640.2344 L1396,655.5156 L1386,665.5156 L1320,665.5156 L1320,640.2344 " fill="#EEEEEE" style="stroke:#000000;stroke-width:1.5;"/><rect fill="none" height="1267.125" style="stroke:#000000;stroke-width:1.5;" width="3282" x="1320" y="640.2344"/><text fill="#000000" font-family="sans-serif" font-size="20" font-weight="bold" lengthAdjust="spacing" textLength="31" x="1335" y="659.7988">alt</text><text fill="#000000" font-family="sans-serif" font-size="20" font-weight="bold" lengthAdjust="spacing" textLength="130" x="1411" y="660.7988">[var is null]</text><polygon fill="#000000" points="2493.5,699.0781,2503.5,703.0781,2493.5,707.0781,2497.5,703.0781" style="stroke:#000000;stroke-width:1.0;"/><line style="stroke:#000000;stroke-width:1.0;" x1="1992" x2="2499.5" y1="703.0781" y2="703.0781"/><text fill="#000000" font-family="sans-serif" font-size="20" lengthAdjust="spacing" textLength="457" x="1999" y="696.3613">getStaffByPhoneNumber(staff.PhoneNumber)</text><polygon fill="#000000" points="4501,736.3594,4511,740.3594,4501,744.3594,4505,740.3594" style="stroke:#000000;stroke-width:1.0;"/><line style="stroke:#000000;stroke-width:1.0;" x1="2515.5" x2="4507" y1="740.3594" y2="740.3594"/><text fill="#000000" font-family="sans-serif" font-size="20" lengthAdjust="spacing" textLength="810" x="2522.5" y="733.6426">_objs.Where(x =&gt; phoneNumber.Equals(x.PhoneNumber)).FirstOrDefaultAsync()</text><polygon fill="#000000" points="2526.5,773.6406,2516.5,777.6406,2526.5,781.6406,2522.5,777.6406" style="stroke:#000000;stroke-width:1.0;"/><line style="stroke:#000000;stroke-width:1.0;stroke-dasharray:2.0,2.0;" x1="2520.5" x2="4517" y1="777.6406" y2="777.6406"/><text fill="#000000" font-family="sans-serif" font-size="20" lengthAdjust="spacing" textLength="99" x="2532.5" y="770.9238">return var</text><polygon fill="#000000" points="2003,810.9219,1993,814.9219,2003,818.9219,1999,814.9219" style="stroke:#000000;stroke-width:1.0;"/><line style="stroke:#000000;stroke-width:1.0;stroke-dasharray:2.0,2.0;" x1="1997" x2="2509.5" y1="814.9219" y2="814.9219"/><text fill="#000000" font-family="sans-serif" font-size="20" lengthAdjust="spacing" textLength="99" x="2009" y="808.2051">return var</text><path d="M1330,829.9219 L1406,829.9219 L1406,845.2031 L1396,855.2031 L1330,855.2031 L1330,829.9219 " fill="#EEEEEE" style="stroke:#000000;stroke-width:1.5;"/><rect fill="none" height="1007.875" style="stroke:#000000;stroke-width:1.5;" width="3262" x="1330" y="829.9219"/><text fill="#000000" font-family="sans-serif" font-size="20" font-weight="bold" lengthAdjust="spacing" textLength="31" x="1345" y="849.4863">alt</text><text fill="#000000" font-family="sans-serif" font-size="20" font-weight="bold" lengthAdjust="spacing" textLength="130" x="1421" y="850.4863">[var is null]</text><polygon fill="#000000" points="2717.5,888.7656,2727.5,892.7656,2717.5,896.7656,2721.5,892.7656" style="stroke:#000000;stroke-width:1.0;"/><line style="stroke:#000000;stroke-width:1.0;" x1="1992" x2="2723.5" y1="892.7656" y2="892.7656"/><text fill="#000000" font-family="sans-serif" font-size="20" lengthAdjust="spacing" textLength="362" x="1999" y="886.0488">getByIdAsync(staff.SpecializationId)</text><polygon fill="#000000" points="4501,926.0469,4511,930.0469,4501,934.0469,4505,930.0469" style="stroke:#000000;stroke-width:1.0;"/><line style="stroke:#000000;stroke-width:1.0;" x1="2739.5" x2="4507" y1="930.0469" y2="930.0469"/><text fill="#000000" font-family="sans-serif" font-size="20" lengthAdjust="spacing" textLength="561" x="2746.5" y="923.3301">_objs.Where(x =&gt; id.Equals(x.Id)).FirstOrDefaultAsync()</text><polygon fill="#000000" points="2750.5,963.3281,2740.5,967.3281,2750.5,971.3281,2746.5,967.3281" style="stroke:#000000;stroke-width:1.0;"/><line style="stroke:#000000;stroke-width:1.0;stroke-dasharray:2.0,2.0;" x1="2744.5" x2="4517" y1="967.3281" y2="967.3281"/><text fill="#000000" font-family="sans-serif" font-size="20" lengthAdjust="spacing" textLength="99" x="2756.5" y="960.6113">return var</text><polygon fill="#000000" points="2003,1000.6094,1993,1004.6094,2003,1008.6094,1999,1004.6094" style="stroke:#000000;stroke-width:1.0;"/><line style="stroke:#000000;stroke-width:1.0;stroke-dasharray:2.0,2.0;" x1="1997" x2="2733.5" y1="1004.6094" y2="1004.6094"/><text fill="#000000" font-family="sans-serif" font-size="20" lengthAdjust="spacing" textLength="99" x="2009" y="997.8926">return var</text><path d="M1340,1019.6094 L1416,1019.6094 L1416,1034.8906 L1406,1044.8906 L1340,1044.8906 L1340,1019.6094 " fill="#EEEEEE" style="stroke:#000000;stroke-width:1.5;"/><rect fill="none" height="748.625" style="stroke:#000000;stroke-width:1.5;" width="3242" x="1340" y="1019.6094"/><text fill="#000000" font-family="sans-serif" font-size="20" font-weight="bold" lengthAdjust="spacing" textLength="31" x="1355" y="1039.1738">alt</text><text fill="#000000" font-family="sans-serif" font-size="20" font-weight="bold" lengthAdjust="spacing" textLength="175" x="1431" y="1040.1738">[var is not null]</text><polygon fill="#000000" points="2493.5,1078.4531,2503.5,1082.4531,2493.5,1086.4531,2497.5,1082.4531" style="stroke:#000000;stroke-width:1.0;"/><line style="stroke:#000000;stroke-width:1.0;" x1="1992" x2="2499.5" y1="1082.4531" y2="1082.4531"/><text fill="#000000" font-family="sans-serif" font-size="20" lengthAdjust="spacing" textLength="134" x="1999" y="1075.7363">getAllAsync()</text><polygon fill="#000000" points="4501,1115.7344,4511,1119.7344,4501,1123.7344,4505,1119.7344" style="stroke:#000000;stroke-width:1.0;"/><line style="stroke:#000000;stroke-width:1.0;" x1="2515.5" x2="4507" y1="1119.7344" y2="1119.7344"/><text fill="#000000" font-family="sans-serif" font-size="20" lengthAdjust="spacing" textLength="191" x="2522.5" y="1113.0176">_objs.ToListAsync()</text><polygon fill="#000000" points="2526.5,1153.0156,2516.5,1157.0156,2526.5,1161.0156,2522.5,1157.0156" style="stroke:#000000;stroke-width:1.0;"/><line style="stroke:#000000;stroke-width:1.0;stroke-dasharray:2.0,2.0;" x1="2520.5" x2="4517" y1="1157.0156" y2="1157.0156"/><text fill="#000000" font-family="sans-serif" font-size="20" lengthAdjust="spacing" textLength="98" x="2532.5" y="1150.2988">return list</text><polygon fill="#000000" points="2003,1190.2969,1993,1194.2969,2003,1198.2969,1999,1194.2969" style="stroke:#000000;stroke-width:1.0;"/><line style="stroke:#000000;stroke-width:1.0;stroke-dasharray:2.0,2.0;" x1="1997" x2="2509.5" y1="1194.2969" y2="1194.2969"/><text fill="#000000" font-family="sans-serif" font-size="20" lengthAdjust="spacing" textLength="98" x="2009" y="1187.5801">return list</text><polygon fill="#000000" points="4301.5,1227.5781,4311.5,1231.5781,4301.5,1235.5781,4305.5,1231.5781" style="stroke:#000000;stroke-width:1.0;"/><line style="stroke:#000000;stroke-width:1.0;" x1="1992" x2="4307.5" y1="1231.5781" y2="1231.5781"/><text fill="#000000" font-family="sans-serif" font-size="20" lengthAdjust="spacing" textLength="361" x="1999" y="1224.8613">GenerateLicenseNumber(list.Count)</text><polygon fill="#000000" points="2003,1264.8594,1993,1268.8594,2003,1272.8594,1999,1268.8594" style="stroke:#000000;stroke-width:1.0;"/><line style="stroke:#000000;stroke-width:1.0;stroke-dasharray:2.0,2.0;" x1="1997" x2="4317.5" y1="1268.8594" y2="1268.8594"/><text fill="#000000" font-family="sans-serif" font-size="20" lengthAdjust="spacing" textLength="314" x="2009" y="1262.1426">return generateLicenseNumber</text><polygon fill="#000000" points="3649,1302.1406,3659,1306.1406,3649,1310.1406,3653,1306.1406" style="stroke:#000000;stroke-width:1.0;"/><line style="stroke:#000000;stroke-width:1.0;" x1="1992" x2="3655" y1="1306.1406" y2="1306.1406"/><text fill="#000000" font-family="sans-serif" font-size="20" lengthAdjust="spacing" textLength="451" x="1999" y="1299.4238">SetLicenseNumber(generateLicenseNumber)</text><line style="stroke:#000000;stroke-width:1.0;" x1="3671" x2="3713" y1="1348.4219" y2="1348.4219"/><line style="stroke:#000000;stroke-width:1.0;" x1="3713" x2="3713" y1="1348.4219" y2="1361.4219"/><line style="stroke:#000000;stroke-width:1.0;" x1="3666" x2="3713" y1="1361.4219" y2="1361.4219"/><polygon fill="#000000" points="3676,1357.4219,3666,1361.4219,3676,1365.4219,3672,1361.4219" style="stroke:#000000;stroke-width:1.0;"/><text fill="#000000" font-family="sans-serif" font-size="20" lengthAdjust="spacing" textLength="431" x="3678" y="1341.7051">LicenseNumber = generateLicenseNumber</text><polygon fill="#000000" points="2493.5,1389.7031,2503.5,1393.7031,2493.5,1397.7031,2497.5,1393.7031" style="stroke:#000000;stroke-width:1.0;"/><line style="stroke:#000000;stroke-width:1.0;" x1="1992" x2="2499.5" y1="1393.7031" y2="1393.7031"/><text fill="#000000" font-family="sans-serif" font-size="20" lengthAdjust="spacing" textLength="157" x="1999" y="1386.9863">addAsync(staff)</text><polygon fill="#000000" points="4501,1426.9844,4511,1430.9844,4501,1434.9844,4505,1430.9844" style="stroke:#000000;stroke-width:1.0;"/><line style="stroke:#000000;stroke-width:1.0;" x1="2515.5" x2="4507" y1="1430.9844" y2="1430.9844"/><text fill="#000000" font-family="sans-serif" font-size="20" lengthAdjust="spacing" textLength="216" x="2522.5" y="1424.2676">_objs.AddAsync(staff)</text><polygon fill="#000000" points="2003,1494.2656,1993,1498.2656,2003,1502.2656,1999,1498.2656" style="stroke:#000000;stroke-width:1.0;"/><line style="stroke:#000000;stroke-width:1.0;stroke-dasharray:2.0,2.0;" x1="1997" x2="2509.5" y1="1498.2656" y2="1498.2656"/><text fill="#000000" font-family="sans-serif" font-size="20" lengthAdjust="spacing" textLength="115" x="2009" y="1491.5488">return Staff</text><polygon fill="#000000" points="2332,1531.5469,2342,1535.5469,2332,1539.5469,2336,1535.5469" style="stroke:#000000;stroke-width:1.0;"/><line style="stroke:#000000;stroke-width:1.0;" x1="1992" x2="2338" y1="1535.5469" y2="1535.5469"/><text fill="#000000" font-family="sans-serif" font-size="20" lengthAdjust="spacing" textLength="119" x="1999" y="1528.8301">ToDto(staff)</text><polygon fill="#000000" points="4104,1568.8281,4114,1572.8281,4104,1576.8281,4108,1572.8281" style="stroke:#000000;stroke-width:1.0;"/><line style="stroke:#000000;stroke-width:1.0;" x1="2354" x2="4110" y1="1572.8281" y2="1572.8281"/><text fill="#000000" font-family="sans-serif" font-size="20" lengthAdjust="spacing" textLength="258" x="2361" y="1566.1113">new StaffDTO(staff fields)</text><line style="stroke:#000000;stroke-width:1.0;" x1="4126" x2="4168" y1="1615.1094" y2="1615.1094"/><line style="stroke:#000000;stroke-width:1.0;" x1="4168" x2="4168" y1="1615.1094" y2="1628.1094"/><line style="stroke:#000000;stroke-width:1.0;" x1="4121" x2="4168" y1="1628.1094" y2="1628.1094"/><polygon fill="#000000" points="4131,1624.1094,4121,1628.1094,4131,1632.1094,4127,1628.1094" style="stroke:#000000;stroke-width:1.0;"/><text fill="#000000" font-family="sans-serif" font-size="20" lengthAdjust="spacing" textLength="106" x="4133" y="1608.3926">StaffDTO()</text><polygon fill="#000000" points="2003,1656.3906,1993,1660.3906,2003,1664.3906,1999,1660.3906" style="stroke:#000000;stroke-width:1.0;"/><line style="stroke:#000000;stroke-width:1.0;stroke-dasharray:2.0,2.0;" x1="1997" x2="2348" y1="1660.3906" y2="1660.3906"/><text fill="#000000" font-family="sans-serif" font-size="20" lengthAdjust="spacing" textLength="158" x="2009" y="1653.6738">return StaffDTO</text><polygon fill="#000000" points="1446,1693.6719,1436,1697.6719,1446,1701.6719,1442,1697.6719" style="stroke:#000000;stroke-width:1.0;"/><line style="stroke:#000000;stroke-width:1.0;stroke-dasharray:2.0,2.0;" x1="1440" x2="1981" y1="1697.6719" y2="1697.6719"/><text fill="#000000" font-family="sans-serif" font-size="20" lengthAdjust="spacing" textLength="158" x="1452" y="1690.9551">return StaffDTO</text><line style="stroke:#000000;stroke-width:1.0;stroke-dasharray:2.0,2.0;" x1="1340" x2="4582" y1="1706.6719" y2="1706.6719"/><text fill="#000000" font-family="sans-serif" font-size="20" font-weight="bold" lengthAdjust="spacing" textLength="104" x="1345" y="1725.2363">[var null]</text><polygon fill="#000000" points="1446,1756.2344,1436,1760.2344,1446,1764.2344,1442,1760.2344" style="stroke:#000000;stroke-width:1.0;"/><line style="stroke:#000000;stroke-width:1.0;stroke-dasharray:2.0,2.0;" x1="1440" x2="1981" y1="1760.2344" y2="1760.2344"/><text fill="#000000" font-family="sans-serif" font-size="20" lengthAdjust="spacing" textLength="354" x="1452" y="1753.5176">return Specialization does not exist</text><line style="stroke:#000000;stroke-width:1.0;stroke-dasharray:2.0,2.0;" x1="1330" x2="4592" y1="1776.2344" y2="1776.2344"/><text fill="#000000" font-family="sans-serif" font-size="20" font-weight="bold" lengthAdjust="spacing" textLength="175" x="1335" y="1794.7988">[var is not null]</text><polygon fill="#000000" points="1446,1825.7969,1436,1829.7969,1446,1833.7969,1442,1829.7969" style="stroke:#000000;stroke-width:1.0;"/><line style="stroke:#000000;stroke-width:1.0;stroke-dasharray:2.0,2.0;" x1="1440" x2="1981" y1="1829.7969" y2="1829.7969"/><text fill="#000000" font-family="sans-serif" font-size="20" lengthAdjust="spacing" textLength="523" x="1452" y="1823.0801">return Staff with same Phone Number already exists</text><line style="stroke:#000000;stroke-width:1.0;stroke-dasharray:2.0,2.0;" x1="1320" x2="4602" y1="1845.7969" y2="1845.7969"/><text fill="#000000" font-family="sans-serif" font-size="20" font-weight="bold" lengthAdjust="spacing" textLength="175" x="1325" y="1864.3613">[var is not null]</text><polygon fill="#000000" points="1446,1895.3594,1436,1899.3594,1446,1903.3594,1442,1899.3594" style="stroke:#000000;stroke-width:1.0;"/><line style="stroke:#000000;stroke-width:1.0;stroke-dasharray:2.0,2.0;" x1="1440" x2="1986" y1="1899.3594" y2="1899.3594"/><text fill="#000000" font-family="sans-serif" font-size="20" lengthAdjust="spacing" textLength="431" x="1452" y="1892.6426">return Staff with same Email already exists</text><polygon fill="#000000" points="999,1939.6406,989,1943.6406,999,1947.6406,995,1943.6406" style="stroke:#000000;stroke-width:1.0;"/><line style="stroke:#000000;stroke-width:1.0;stroke-dasharray:2.0,2.0;" x1="993" x2="1429" y1="1943.6406" y2="1943.6406"/><text fill="#000000" font-family="sans-serif" font-size="20" lengthAdjust="spacing" textLength="413" x="1005" y="1936.9238">Returns Operation Status Response Code</text><polygon fill="#000000" points="57,1976.9219,47,1980.9219,57,1984.9219,53,1980.9219" style="stroke:#000000;stroke-width:1.0;"/><line style="stroke:#000000;stroke-width:1.0;stroke-dasharray:2.0,2.0;" x1="51" x2="982" y1="1980.9219" y2="1980.9219"/><text fill="#000000" font-family="sans-serif" font-size="20" lengthAdjust="spacing" textLength="391" x="63" y="1974.2051">Returns Operation In/Success message</text><!--SRC=[dLTHRzis47xNhpYq3xM1DEiwTEsCDe1bsOK1Ep6a17iS6EdiiA55JQIJkCF- -uwaR5CodQRBWsFolhlxxjE9HwjxNbQiPciXytiieC0bsmWzaQNE-7U4z- -YI7Cj46RuW09-WuIp5U5XAMiOrSWqBrUGQRPSHj4TBn1mNUajh75zYxMAtgXT1fZn4lMsGf2rlfDHTB3aWYa5_qH0Vp7BxrUrt9J5I0fPV_xymCG6hsw_OQulBk1ryljuEFaKXjPIMima6SV9kp16OVt0SxIXVfsy7ySX68KOJ_uOVxIsOLtBHxST2y95__hSAzfXAmopXzVZUF9X4XiNbclQ61PhNW9JC8p8N_ESLwpKyEg6UC6qr5WlMOwl3E9csePOaKVqP6ef1DOMCmf0CbUXjMS1-vnLLUC-3vXJhAJYn7Lh8Ma7Kc7EcU3VwS7BieiDfREMHS2GN5zP6_rlMsV4lbHukJ4jz1LBh1cbiDYliyisDc6QtJBbgarYApD_O1f9u26ylI0L1p1KzmgqXDpqAm9h-dKF9QLlfl2MqCC6RBhRWjueA2X5LA2FtaVEi2nK2mcz2Q-LXfAjyGncRFzriX72VHkl6HTdiBYJ9K9fgpo3jh3z8t8NC1eq1TXqlTtBjzCI2Yqzjr4qiXLbF-MLHPb9DH_0jKmayIn_v36FviPZCO0I7vqIFKASMnKkRRrcQOGuh8mMXrMZX_bgDRbi9B41Mx9C2nkxkzdt-2oYHSF7SUdxZsvXo3fHQjIRkcmwmOFCdGBf05QehJNUMe8zPHQEh9SlZLA3J-81_2LllwdpF- -mnjuJVBcWev2mv-E_DqoetbFZsdVINDM9Esk7QblcFIyYTN4IMvhfdkO3gtsI14axXNGGQSI4Dfl05VMO4FPuEYxD4xmfqDlfMoSlfbcUBhSwU1wAziETAhsL9N4dSb02OsZBq30wagA3TDH3aXnaoQmkyNPQE5vEZgDUstiTWcVxlJGxgGul3gAObdr6Yv0UlYR7fOQ5sJ4AgjDLw524BvFKRQawNJGKeaiyq39xBcrnhkMCA_silrT8i2a41MWXmYA4kkGvr_IuNfey0sY64ROcLCz4EX_HqDSdgZ1JopVGkaDc5GfyYbqtNBOxy52tYGMZdk2uQ6tlpj2M9tpvEPwBODUmmd-__a_V35yIeVFqNzuNRYAyl37ShDJoMJRprhQTc3HAlPb9AnS0bXn5eKvLHNUbrWj1ytWNQn-dVxBoZdTm67P1hTdOgTxTIavver1e3vBG2T9sRHsoK4XqHmy- -IyftRMYLjpG0HLa1OzStu6Y6qTpwseQcWcwt1HRbqT5koGd4_mek9tmeQYUY5baKhZBcRb2fZQKWglAl5ccV8ggDtIRHbL9UibW90lqP_l8kwqUUq_BNx9DdYFzebhJ1_qswLnU_mC0]--></g></svg>