<?xml version="1.0" encoding="UTF-8" standalone="no"?><svg xmlns="http://www.w3.org/2000/svg" xmlns:xlink="http://www.w3.org/1999/xlink" contentStyleType="text/css" height="935px" preserveAspectRatio="none" style="width:2573px;height:935px;background:#FFFFFF;" version="1.1" viewBox="0 0 2573 935" width="2573px" zoomAndPan="magnify"><defs/><g><text fill="#000000" font-family="sans-serif" font-size="14" font-weight="bold" lengthAdjust="spacing" textLength="141" x="1217.25" y="27.9951">Level 3 P Diagram</text><rect fill="#FFFFFF" height="703.0625" style="stroke:#181818;stroke-width:1.0;" width="10" x="84.5" y="135.5781"/><rect fill="#FFFFFF" height="229.4063" style="stroke:#181818;stroke-width:1.0;" width="10" x="516.5" y="164.8594"/><rect fill="#FFFFFF" height="398.0938" style="stroke:#181818;stroke-width:1.0;" width="10" x="516.5" y="431.5469"/><rect fill="#FFFFFF" height="67.2813" style="stroke:#181818;stroke-width:1.0;" width="10" x="742.5" y="202.1406"/><rect fill="#FFFFFF" height="117.5625" style="stroke:#181818;stroke-width:1.0;" width="10" x="1044.5" y="239.4219"/><rect fill="#FFFFFF" height="316.5313" style="stroke:#181818;stroke-width:1.0;" width="10" x="1044.5" y="468.8281"/><rect fill="#FFFFFF" height="162.125" style="stroke:#181818;stroke-width:1.0;" width="10" x="1364.5" y="546.6719"/><rect fill="#FFFFFF" height="87.5625" style="stroke:#181818;stroke-width:1.0;" width="10" x="2127.5" y="583.9531"/><rect fill="#EBF5FB" height="309.5313" style="stroke:#000000;stroke-width:1.5;" width="2086.5" x="480" y="483.8281"/><rect fill="#EBF5FB" height="39.2813" style="stroke:none;stroke-width:1.0;" width="2086.5" x="480" y="754.0781"/><line style="stroke:#181818;stroke-width:0.5;stroke-dasharray:5.0,5.0;" x1="89" x2="89" y1="125.5781" y2="847.6406"/><line style="stroke:#181818;stroke-width:0.5;stroke-dasharray:5.0,5.0;" x1="521" x2="521" y1="125.5781" y2="847.6406"/><line style="stroke:#181818;stroke-width:0.5;stroke-dasharray:5.0,5.0;" x1="747.5" x2="747.5" y1="125.5781" y2="847.6406"/><line style="stroke:#181818;stroke-width:0.5;stroke-dasharray:5.0,5.0;" x1="1049.5" x2="1049.5" y1="125.5781" y2="847.6406"/><line style="stroke:#181818;stroke-width:0.5;stroke-dasharray:5.0,5.0;" x1="1369.5" x2="1369.5" y1="125.5781" y2="847.6406"/><line style="stroke:#181818;stroke-width:0.5;stroke-dasharray:5.0,5.0;" x1="2132.5" x2="2132.5" y1="125.5781" y2="847.6406"/><text fill="#000000" font-family="sans-serif" font-size="20" lengthAdjust="spacing" textLength="163" x="5" y="120.8613">BackOffice_User</text><ellipse cx="89.5" cy="50.7969" fill="#E2E2F0" rx="8" ry="8" style="stroke:#181818;stroke-width:0.5;"/><path d="M89.5,58.7969 L89.5,85.7969 M76.5,66.7969 L102.5,66.7969 M89.5,85.7969 L76.5,100.7969 M89.5,85.7969 L102.5,100.7969 " fill="none" style="stroke:#181818;stroke-width:0.5;"/><text fill="#000000" font-family="sans-serif" font-size="20" lengthAdjust="spacing" textLength="163" x="5" y="865.2051">BackOffice_User</text><ellipse cx="89.5" cy="878.4219" fill="#E2E2F0" rx="8" ry="8" style="stroke:#181818;stroke-width:0.5;"/><path d="M89.5,886.4219 L89.5,913.4219 M76.5,894.4219 L102.5,894.4219 M89.5,913.4219 L76.5,928.4219 M89.5,913.4219 L102.5,928.4219 " fill="none" style="stroke:#181818;stroke-width:0.5;"/><rect fill="#E2E2F0" height="37.2813" rx="2.5" ry="2.5" style="stroke:#181818;stroke-width:0.5;" width="63" x="490" y="87.2969"/><text fill="#000000" font-family="sans-serif" font-size="20" lengthAdjust="spacing" textLength="49" x="497" y="112.8613">View</text><rect fill="#E2E2F0" height="37.2813" rx="2.5" ry="2.5" style="stroke:#181818;stroke-width:0.5;" width="63" x="490" y="846.6406"/><text fill="#000000" font-family="sans-serif" font-size="20" lengthAdjust="spacing" textLength="49" x="497" y="872.2051">View</text><rect fill="#E2E2F0" height="37.2813" rx="2.5" ry="2.5" style="stroke:#181818;stroke-width:0.5;" width="190" x="652.5" y="87.2969"/><text fill="#000000" font-family="sans-serif" font-size="20" lengthAdjust="spacing" textLength="176" x="659.5" y="112.8613">HomeComponent</text><rect fill="#E2E2F0" height="37.2813" rx="2.5" ry="2.5" style="stroke:#181818;stroke-width:0.5;" width="190" x="652.5" y="846.6406"/><text fill="#000000" font-family="sans-serif" font-size="20" lengthAdjust="spacing" textLength="176" x="659.5" y="872.2051">HomeComponent</text><rect fill="#E2E2F0" height="37.2813" rx="2.5" ry="2.5" style="stroke:#181818;stroke-width:0.5;" width="186" x="956.5" y="87.2969"/><text fill="#000000" font-family="sans-serif" font-size="20" lengthAdjust="spacing" textLength="172" x="963.5" y="112.8613">LoginComponent</text><rect fill="#E2E2F0" height="37.2813" rx="2.5" ry="2.5" style="stroke:#181818;stroke-width:0.5;" width="186" x="956.5" y="846.6406"/><text fill="#000000" font-family="sans-serif" font-size="20" lengthAdjust="spacing" textLength="172" x="963.5" y="872.2051">LoginComponent</text><rect fill="#E2E2F0" height="37.2813" rx="2.5" ry="2.5" style="stroke:#181818;stroke-width:0.5;" width="142" x="1298.5" y="87.2969"/><text fill="#000000" font-family="sans-serif" font-size="20" lengthAdjust="spacing" textLength="128" x="1305.5" y="112.8613">LoginService</text><rect fill="#E2E2F0" height="37.2813" rx="2.5" ry="2.5" style="stroke:#181818;stroke-width:0.5;" width="142" x="1298.5" y="846.6406"/><text fill="#000000" font-family="sans-serif" font-size="20" lengthAdjust="spacing" textLength="128" x="1305.5" y="872.2051">LoginService</text><rect fill="#E2E2F0" height="37.2813" rx="2.5" ry="2.5" style="stroke:#181818;stroke-width:0.5;" width="60" x="2102.5" y="87.2969"/><text fill="#000000" font-family="sans-serif" font-size="20" lengthAdjust="spacing" textLength="46" x="2109.5" y="112.8613">MDR</text><rect fill="#E2E2F0" height="37.2813" rx="2.5" ry="2.5" style="stroke:#181818;stroke-width:0.5;" width="60" x="2102.5" y="846.6406"/><text fill="#000000" font-family="sans-serif" font-size="20" lengthAdjust="spacing" textLength="46" x="2109.5" y="872.2051">MDR</text><rect fill="#FFFFFF" height="703.0625" style="stroke:#181818;stroke-width:1.0;" width="10" x="84.5" y="135.5781"/><rect fill="#FFFFFF" height="229.4063" style="stroke:#181818;stroke-width:1.0;" width="10" x="516.5" y="164.8594"/><rect fill="#FFFFFF" height="398.0938" style="stroke:#181818;stroke-width:1.0;" width="10" x="516.5" y="431.5469"/><rect fill="#FFFFFF" height="67.2813" style="stroke:#181818;stroke-width:1.0;" width="10" x="742.5" y="202.1406"/><rect fill="#FFFFFF" height="117.5625" style="stroke:#181818;stroke-width:1.0;" width="10" x="1044.5" y="239.4219"/><rect fill="#FFFFFF" height="316.5313" style="stroke:#181818;stroke-width:1.0;" width="10" x="1044.5" y="468.8281"/><rect fill="#FFFFFF" height="162.125" style="stroke:#181818;stroke-width:1.0;" width="10" x="1364.5" y="546.6719"/><rect fill="#FFFFFF" height="87.5625" style="stroke:#181818;stroke-width:1.0;" width="10" x="2127.5" y="583.9531"/><polygon fill="#000000" points="504.5,160.8594,514.5,164.8594,504.5,168.8594,508.5,164.8594" style="stroke:#000000;stroke-width:1.0;"/><line style="stroke:#000000;stroke-width:1.0;" x1="94.5" x2="510.5" y1="164.8594" y2="164.8594"/><text fill="#000000" font-family="sans-serif" font-size="20" lengthAdjust="spacing" textLength="319" x="101.5" y="158.1426">Asks to Login as backoffice user</text><polygon fill="#000000" points="730.5,198.1406,740.5,202.1406,730.5,206.1406,734.5,202.1406" style="stroke:#000000;stroke-width:1.0;"/><line style="stroke:#000000;stroke-width:1.0;" x1="526.5" x2="736.5" y1="202.1406" y2="202.1406"/><text fill="#000000" font-family="sans-serif" font-size="20" lengthAdjust="spacing" textLength="197" x="533.5" y="195.4238">routerLink="/login"</text><polygon fill="#000000" points="1032.5,235.4219,1042.5,239.4219,1032.5,243.4219,1036.5,239.4219" style="stroke:#000000;stroke-width:1.0;"/><line style="stroke:#000000;stroke-width:1.0;" x1="752.5" x2="1038.5" y1="239.4219" y2="239.4219"/><text fill="#000000" font-family="sans-serif" font-size="20" lengthAdjust="spacing" textLength="273" x="759.5" y="232.7051">Routes to LoginComponent</text><line style="stroke:#000000;stroke-width:1.0;" x1="1054.5" x2="1096.5" y1="306.7031" y2="306.7031"/><line style="stroke:#000000;stroke-width:1.0;" x1="1096.5" x2="1096.5" y1="306.7031" y2="319.7031"/><line style="stroke:#000000;stroke-width:1.0;" x1="1055.5" x2="1096.5" y1="319.7031" y2="319.7031"/><polygon fill="#000000" points="1065.5,315.7031,1055.5,319.7031,1065.5,323.7031,1061.5,319.7031" style="stroke:#000000;stroke-width:1.0;"/><text fill="#000000" font-family="sans-serif" font-size="20" lengthAdjust="spacing" textLength="268" x="1061.5" y="299.9863">Intializes LoginComponent</text><polygon fill="#000000" points="537.5,352.9844,527.5,356.9844,537.5,360.9844,533.5,356.9844" style="stroke:#000000;stroke-width:1.0;"/><line style="stroke:#000000;stroke-width:1.0;stroke-dasharray:2.0,2.0;" x1="531.5" x2="1048.5" y1="356.9844" y2="356.9844"/><text fill="#000000" font-family="sans-serif" font-size="20" lengthAdjust="spacing" textLength="256" x="543.5" y="350.2676">Returns LoginComponent</text><polygon fill="#000000" points="105.5,390.2656,95.5,394.2656,105.5,398.2656,101.5,394.2656" style="stroke:#000000;stroke-width:1.0;"/><line style="stroke:#000000;stroke-width:1.0;stroke-dasharray:2.0,2.0;" x1="99.5" x2="520.5" y1="394.2656" y2="394.2656"/><text fill="#000000" font-family="sans-serif" font-size="20" lengthAdjust="spacing" textLength="398" x="111.5" y="387.5488">Asks for data to login as backoffice user</text><polygon fill="#000000" points="504.5,427.5469,514.5,431.5469,504.5,435.5469,508.5,431.5469" style="stroke:#000000;stroke-width:1.0;"/><line style="stroke:#000000;stroke-width:1.0;" x1="94.5" x2="510.5" y1="431.5469" y2="431.5469"/><text fill="#000000" font-family="sans-serif" font-size="20" lengthAdjust="spacing" textLength="291" x="101.5" y="424.8301">Sends data(email, password)</text><polygon fill="#000000" points="1032.5,464.8281,1042.5,468.8281,1032.5,472.8281,1036.5,468.8281" style="stroke:#000000;stroke-width:1.0;"/><line style="stroke:#000000;stroke-width:1.0;" x1="526.5" x2="1038.5" y1="468.8281" y2="468.8281"/><text fill="#000000" font-family="sans-serif" font-size="20" lengthAdjust="spacing" textLength="114" x="533.5" y="462.1113">onSubmit()</text><path d="M480,483.8281 L556,483.8281 L556,499.1094 L546,509.1094 L480,509.1094 L480,483.8281 " fill="#EEEEEE" style="stroke:#000000;stroke-width:1.5;"/><rect fill="none" height="309.5313" style="stroke:#000000;stroke-width:1.5;" width="2086.5" x="480" y="483.8281"/><text fill="#000000" font-family="sans-serif" font-size="20" font-weight="bold" lengthAdjust="spacing" textLength="31" x="495" y="503.3926">alt</text><text fill="#000000" font-family="sans-serif" font-size="20" font-weight="bold" lengthAdjust="spacing" textLength="237" x="571" y="504.3926">[if all field are filled]</text><polygon fill="#000000" points="1352.5,542.6719,1362.5,546.6719,1352.5,550.6719,1356.5,546.6719" style="stroke:#000000;stroke-width:1.0;"/><line style="stroke:#000000;stroke-width:1.0;" x1="1054.5" x2="1358.5" y1="546.6719" y2="546.6719"/><text fill="#000000" font-family="sans-serif" font-size="20" lengthAdjust="spacing" textLength="235" x="1061.5" y="539.9551">login(email,  password)</text><polygon fill="#000000" points="2115.5,579.9531,2125.5,583.9531,2115.5,587.9531,2119.5,583.9531" style="stroke:#000000;stroke-width:1.0;"/><line style="stroke:#000000;stroke-width:1.0;" x1="1374.5" x2="2121.5" y1="583.9531" y2="583.9531"/><text fill="#000000" font-family="sans-serif" font-size="20" lengthAdjust="spacing" textLength="734" x="1381.5" y="577.2363">Makes HTTP Request to login backoffice user with data (email, password)</text><line style="stroke:#000000;stroke-width:1.0;" x1="2137.5" x2="2179.5" y1="621.2344" y2="621.2344"/><line style="stroke:#000000;stroke-width:1.0;" x1="2179.5" x2="2179.5" y1="621.2344" y2="634.2344"/><line style="stroke:#000000;stroke-width:1.0;" x1="2138.5" x2="2179.5" y1="634.2344" y2="634.2344"/><polygon fill="#000000" points="2148.5,630.2344,2138.5,634.2344,2148.5,638.2344,2144.5,634.2344" style="stroke:#000000;stroke-width:1.0;"/><text fill="#000000" font-family="sans-serif" font-size="20" lengthAdjust="spacing" textLength="410" x="2144.5" y="614.5176">Validates data and tries to login the User</text><polygon fill="#000000" points="1385.5,667.5156,1375.5,671.5156,1385.5,675.5156,1381.5,671.5156" style="stroke:#000000;stroke-width:1.0;"/><line style="stroke:#000000;stroke-width:1.0;stroke-dasharray:2.0,2.0;" x1="1379.5" x2="2131.5" y1="671.5156" y2="671.5156"/><text fill="#000000" font-family="sans-serif" font-size="20" lengthAdjust="spacing" textLength="311" x="1391.5" y="664.7988">Returns Operation Status Code</text><polygon fill="#000000" points="1065.5,704.7969,1055.5,708.7969,1065.5,712.7969,1061.5,708.7969" style="stroke:#000000;stroke-width:1.0;"/><line style="stroke:#000000;stroke-width:1.0;stroke-dasharray:2.0,2.0;" x1="1059.5" x2="1368.5" y1="708.7969" y2="708.7969"/><text fill="#000000" font-family="sans-serif" font-size="20" lengthAdjust="spacing" textLength="286" x="1071.5" y="702.0801">Returns Operation Response</text><polygon fill="#000000" points="537.5,742.0781,527.5,746.0781,537.5,750.0781,533.5,746.0781" style="stroke:#000000;stroke-width:1.0;"/><line style="stroke:#000000;stroke-width:1.0;stroke-dasharray:2.0,2.0;" x1="531.5" x2="1043.5" y1="746.0781" y2="746.0781"/><text fill="#000000" font-family="sans-serif" font-size="20" lengthAdjust="spacing" textLength="335" x="543.5" y="739.3613">Returns Login In/Sucess message</text><line style="stroke:#000000;stroke-width:1.0;stroke-dasharray:2.0,2.0;" x1="480" x2="2566.5" y1="755.0781" y2="755.0781"/><polygon fill="#000000" points="537.5,781.3594,527.5,785.3594,537.5,789.3594,533.5,785.3594" style="stroke:#000000;stroke-width:1.0;"/><line style="stroke:#000000;stroke-width:1.0;stroke-dasharray:2.0,2.0;" x1="531.5" x2="1048.5" y1="785.3594" y2="785.3594"/><text fill="#000000" font-family="sans-serif" font-size="20" lengthAdjust="spacing" textLength="479" x="543.5" y="778.6426">Returns Email or Password is incorrect message</text><polygon fill="#000000" points="105.5,825.6406,95.5,829.6406,105.5,833.6406,101.5,829.6406" style="stroke:#000000;stroke-width:1.0;"/><line style="stroke:#000000;stroke-width:1.0;stroke-dasharray:2.0,2.0;" x1="99.5" x2="520.5" y1="829.6406" y2="829.6406"/><text fill="#000000" font-family="sans-serif" font-size="20" lengthAdjust="spacing" textLength="380" x="111.5" y="822.9238">Returns Operation In/Sucess message</text><!--SRC=[TLJlRzem4FsUl-94FwoLDhNhj5-eGseW4PEeg4YNhvD93l1mxCnsGEsq_trdfv24C3uGEBztT-_TnMRBPSaqAuJAjfX3ZYjM2HihQHF-Wd1x4mIMMu4mmnqA-02FCE5iJOmWsF0S0OlIFaE1nHAr2TwOGqAOSOdskKHGscvK43GdcM36m9y0w1EoRBlMgfBvM0cbx-vsJ5GuN_x2p8v6S37v5Dt7Nyv3jL8U4q-YS79p7cDGxtY6FjNx-3OApy4eHHH_ZJxxitkjrRuEXu9mmTzsxoL5s1hFTmyNKHX_Z4D7OPbr6GWmNwseWvy_g1LW1i9vGAaiptZ9f8L1od4_S0TfDpvL1OvLKIg9qdh0TDn5pDIQoovaTWwIr1vuGD8zVvWiV9YUlcM-OnPTY-4SteqW7SAzsHgm2dmc1rsI9EKbGKMI6bOQf8up7G-1BB6eQGEstmRNmZ473OvaJCSEEIFamY6R0aSr3PmavTWcpuxaxz9o9cXFpIdROUh-5sWhBNk0Laega7fqE7-LkwB9vSmorvRud-vMXhInAq6P6q- -n89nyPOsnfYzqlbLpoadGScaMXRSNbvr53DXWQ-02G4hZY87ff5-2O6vNxpQWsHOjtSerQhbGCU4YV-RE0eDUWWFR4kMJP-U7icUtnKQsoWzaGbxRZUr6Nr1dI9kXLo0diT2AKs7k5Wx0apcO3MlvrsNini4zsOqr5hNOMpp4ZMpN4b8BBELWR7AqODR_XzA9vxjrwf7Nw2XqPiUDpdwUMPVQCEkaof3kguA-g8NFq3ncgDFYPm_TDt1uwj3m0rmcIcjwJOxPZXfWAPDEzDQmNxl_Iuwo_SF]--></g></svg>