<?xml version="1.0" encoding="UTF-8" standalone="no"?><svg xmlns="http://www.w3.org/2000/svg" xmlns:xlink="http://www.w3.org/1999/xlink" contentStyleType="text/css" height="1009px" preserveAspectRatio="none" style="width:3802px;height:1009px;background:#FFFFFF;" version="1.1" viewBox="0 0 3802 1009" width="3802px" zoomAndPan="magnify"><defs/><g><text fill="#000000" font-family="sans-serif" font-size="14" font-weight="bold" lengthAdjust="spacing" textLength="277" x="1764.5" y="27.9951">Level 3 FE Diagram for Create Staff</text><rect fill="#FFFFFF" height="777.625" style="stroke:#181818;stroke-width:1.0;" width="10" x="36" y="135.5781"/><rect fill="#FFFFFF" height="199.4063" style="stroke:#181818;stroke-width:1.0;" width="10" x="1134" y="164.8594"/><rect fill="#FFFFFF" height="502.6563" style="stroke:#181818;stroke-width:1.0;" width="10" x="1134" y="401.5469"/><rect fill="#FFFFFF" height="37.2813" style="stroke:#181818;stroke-width:1.0;" width="10" x="1416" y="202.1406"/><rect fill="#FFFFFF" height="87.5625" style="stroke:#181818;stroke-width:1.0;" width="10" x="1770" y="239.4219"/><rect fill="#FFFFFF" height="428.0938" style="stroke:#181818;stroke-width:1.0;" width="10" x="1770" y="438.8281"/><rect fill="#FFFFFF" height="353.5313" style="stroke:#181818;stroke-width:1.0;" width="10" x="2126" y="476.1094"/><rect fill="#FFFFFF" height="278.9688" style="stroke:#181818;stroke-width:1.0;" width="10" x="2697" y="513.3906"/><rect fill="#FFFFFF" height="87.5625" style="stroke:#181818;stroke-width:1.0;" width="10" x="3284" y="667.5156"/><line style="stroke:#181818;stroke-width:0.5;stroke-dasharray:5.0,5.0;" x1="41" x2="41" y1="125.5781" y2="922.2031"/><line style="stroke:#181818;stroke-width:0.5;stroke-dasharray:5.0,5.0;" x1="1138.5" x2="1138.5" y1="125.5781" y2="922.2031"/><line style="stroke:#181818;stroke-width:0.5;stroke-dasharray:5.0,5.0;" x1="1420.5" x2="1420.5" y1="125.5781" y2="922.2031"/><line style="stroke:#181818;stroke-width:0.5;stroke-dasharray:5.0,5.0;" x1="1775" x2="1775" y1="125.5781" y2="922.2031"/><line style="stroke:#181818;stroke-width:0.5;stroke-dasharray:5.0,5.0;" x1="2131" x2="2131" y1="125.5781" y2="922.2031"/><line style="stroke:#181818;stroke-width:0.5;stroke-dasharray:5.0,5.0;" x1="2701.5" x2="2701.5" y1="125.5781" y2="922.2031"/><line style="stroke:#181818;stroke-width:0.5;stroke-dasharray:5.0,5.0;" x1="3289" x2="3289" y1="125.5781" y2="922.2031"/><text fill="#000000" font-family="sans-serif" font-size="20" lengthAdjust="spacing" textLength="66" x="5" y="120.8613">Admin</text><ellipse cx="41" cy="50.7969" fill="#E2E2F0" rx="8" ry="8" style="stroke:#181818;stroke-width:0.5;"/><path d="M41,58.7969 L41,85.7969 M28,66.7969 L54,66.7969 M41,85.7969 L28,100.7969 M41,85.7969 L54,100.7969 " fill="none" style="stroke:#181818;stroke-width:0.5;"/><text fill="#000000" font-family="sans-serif" font-size="20" lengthAdjust="spacing" textLength="66" x="5" y="939.7676">Admin</text><ellipse cx="41" cy="952.9844" fill="#E2E2F0" rx="8" ry="8" style="stroke:#181818;stroke-width:0.5;"/><path d="M41,960.9844 L41,987.9844 M28,968.9844 L54,968.9844 M41,987.9844 L28,1002.9844 M41,987.9844 L54,1002.9844 " fill="none" style="stroke:#181818;stroke-width:0.5;"/><rect fill="#E2E2F0" height="37.2813" rx="2.5" ry="2.5" style="stroke:#181818;stroke-width:0.5;" width="63" x="1107.5" y="87.2969"/><text fill="#000000" font-family="sans-serif" font-size="20" lengthAdjust="spacing" textLength="49" x="1114.5" y="112.8613">View</text><rect fill="#E2E2F0" height="37.2813" rx="2.5" ry="2.5" style="stroke:#181818;stroke-width:0.5;" width="63" x="1107.5" y="921.2031"/><text fill="#000000" font-family="sans-serif" font-size="20" lengthAdjust="spacing" textLength="49" x="1114.5" y="946.7676">View</text><rect fill="#E2E2F0" height="37.2813" rx="2.5" ry="2.5" style="stroke:#181818;stroke-width:0.5;" width="257" x="1292.5" y="87.2969"/><text fill="#000000" font-family="sans-serif" font-size="20" lengthAdjust="spacing" textLength="243" x="1299.5" y="112.8613">SearchStaffsComponent</text><rect fill="#E2E2F0" height="37.2813" rx="2.5" ry="2.5" style="stroke:#181818;stroke-width:0.5;" width="257" x="1292.5" y="921.2031"/><text fill="#000000" font-family="sans-serif" font-size="20" lengthAdjust="spacing" textLength="243" x="1299.5" y="946.7676">SearchStaffsComponent</text><rect fill="#E2E2F0" height="37.2813" rx="2.5" ry="2.5" style="stroke:#181818;stroke-width:0.5;" width="244" x="1653" y="87.2969"/><text fill="#000000" font-family="sans-serif" font-size="20" lengthAdjust="spacing" textLength="230" x="1660" y="112.8613">CreateStaffComponent</text><rect fill="#E2E2F0" height="37.2813" rx="2.5" ry="2.5" style="stroke:#181818;stroke-width:0.5;" width="244" x="1653" y="921.2031"/><text fill="#000000" font-family="sans-serif" font-size="20" lengthAdjust="spacing" textLength="230" x="1660" y="946.7676">CreateStaffComponent</text><rect fill="#E2E2F0" height="37.2813" rx="2.5" ry="2.5" style="stroke:#181818;stroke-width:0.5;" width="134" x="2064" y="87.2969"/><text fill="#000000" font-family="sans-serif" font-size="20" lengthAdjust="spacing" textLength="120" x="2071" y="112.8613">StaffService</text><rect fill="#E2E2F0" height="37.2813" rx="2.5" ry="2.5" style="stroke:#181818;stroke-width:0.5;" width="134" x="2064" y="921.2031"/><text fill="#000000" font-family="sans-serif" font-size="20" lengthAdjust="spacing" textLength="120" x="2071" y="946.7676">StaffService</text><rect fill="#E2E2F0" height="37.2813" rx="2.5" ry="2.5" style="stroke:#181818;stroke-width:0.5;" width="173" x="2615.5" y="87.2969"/><text fill="#000000" font-family="sans-serif" font-size="20" lengthAdjust="spacing" textLength="159" x="2622.5" y="112.8613">AuthInterceptor</text><rect fill="#E2E2F0" height="37.2813" rx="2.5" ry="2.5" style="stroke:#181818;stroke-width:0.5;" width="173" x="2615.5" y="921.2031"/><text fill="#000000" font-family="sans-serif" font-size="20" lengthAdjust="spacing" textLength="159" x="2622.5" y="946.7676">AuthInterceptor</text><rect fill="#E2E2F0" height="37.2813" rx="2.5" ry="2.5" style="stroke:#181818;stroke-width:0.5;" width="60" x="3259" y="87.2969"/><text fill="#000000" font-family="sans-serif" font-size="20" lengthAdjust="spacing" textLength="46" x="3266" y="112.8613">MDR</text><rect fill="#E2E2F0" height="37.2813" rx="2.5" ry="2.5" style="stroke:#181818;stroke-width:0.5;" width="60" x="3259" y="921.2031"/><text fill="#000000" font-family="sans-serif" font-size="20" lengthAdjust="spacing" textLength="46" x="3266" y="946.7676">MDR</text><rect fill="#FFFFFF" height="777.625" style="stroke:#181818;stroke-width:1.0;" width="10" x="36" y="135.5781"/><rect fill="#FFFFFF" height="199.4063" style="stroke:#181818;stroke-width:1.0;" width="10" x="1134" y="164.8594"/><rect fill="#FFFFFF" height="502.6563" style="stroke:#181818;stroke-width:1.0;" width="10" x="1134" y="401.5469"/><rect fill="#FFFFFF" height="37.2813" style="stroke:#181818;stroke-width:1.0;" width="10" x="1416" y="202.1406"/><rect fill="#FFFFFF" height="87.5625" style="stroke:#181818;stroke-width:1.0;" width="10" x="1770" y="239.4219"/><rect fill="#FFFFFF" height="428.0938" style="stroke:#181818;stroke-width:1.0;" width="10" x="1770" y="438.8281"/><rect fill="#FFFFFF" height="353.5313" style="stroke:#181818;stroke-width:1.0;" width="10" x="2126" y="476.1094"/><rect fill="#FFFFFF" height="278.9688" style="stroke:#181818;stroke-width:1.0;" width="10" x="2697" y="513.3906"/><rect fill="#FFFFFF" height="87.5625" style="stroke:#181818;stroke-width:1.0;" width="10" x="3284" y="667.5156"/><polygon fill="#000000" points="1122,160.8594,1132,164.8594,1122,168.8594,1126,164.8594" style="stroke:#000000;stroke-width:1.0;"/><line style="stroke:#000000;stroke-width:1.0;" x1="46" x2="1128" y1="164.8594" y2="164.8594"/><text fill="#000000" font-family="sans-serif" font-size="20" lengthAdjust="spacing" textLength="212" x="53" y="158.1426">Asks to create a Staff</text><polygon fill="#000000" points="1404,198.1406,1414,202.1406,1404,206.1406,1408,202.1406" style="stroke:#000000;stroke-width:1.0;"/><line style="stroke:#000000;stroke-width:1.0;" x1="1144" x2="1410" y1="202.1406" y2="202.1406"/><text fill="#000000" font-family="sans-serif" font-size="20" lengthAdjust="spacing" textLength="253" x="1151" y="195.4238">routerLink='/create-staff'</text><polygon fill="#000000" points="1758,235.4219,1768,239.4219,1758,243.4219,1762,239.4219" style="stroke:#000000;stroke-width:1.0;"/><line style="stroke:#000000;stroke-width:1.0;" x1="1421" x2="1764" y1="239.4219" y2="239.4219"/><text fill="#000000" font-family="sans-serif" font-size="20" lengthAdjust="spacing" textLength="325" x="1428" y="232.7051">routes to CreateStaffComponent</text><line style="stroke:#000000;stroke-width:1.0;" x1="1780" x2="1822" y1="276.7031" y2="276.7031"/><line style="stroke:#000000;stroke-width:1.0;" x1="1822" x2="1822" y1="276.7031" y2="289.7031"/><line style="stroke:#000000;stroke-width:1.0;" x1="1781" x2="1822" y1="289.7031" y2="289.7031"/><polygon fill="#000000" points="1791,285.7031,1781,289.7031,1791,293.7031,1787,289.7031" style="stroke:#000000;stroke-width:1.0;"/><text fill="#000000" font-family="sans-serif" font-size="20" lengthAdjust="spacing" textLength="332" x="1787" y="269.9863">initializes CreateStaffComponent</text><polygon fill="#000000" points="1155,322.9844,1145,326.9844,1155,330.9844,1151,326.9844" style="stroke:#000000;stroke-width:1.0;"/><line style="stroke:#000000;stroke-width:1.0;stroke-dasharray:2.0,2.0;" x1="1149" x2="1774" y1="326.9844" y2="326.9844"/><text fill="#000000" font-family="sans-serif" font-size="20" lengthAdjust="spacing" textLength="308" x="1161" y="320.2676">returns CreateStaffComponent</text><polygon fill="#000000" points="57,360.2656,47,364.2656,57,368.2656,53,364.2656" style="stroke:#000000;stroke-width:1.0;"/><line style="stroke:#000000;stroke-width:1.0;stroke-dasharray:2.0,2.0;" x1="51" x2="1138" y1="364.2656" y2="364.2656"/><text fill="#000000" font-family="sans-serif" font-size="20" lengthAdjust="spacing" textLength="199" x="63" y="357.5488">Asks for Staff's data</text><polygon fill="#000000" points="1122,397.5469,1132,401.5469,1122,405.5469,1126,401.5469" style="stroke:#000000;stroke-width:1.0;"/><line style="stroke:#000000;stroke-width:1.0;" x1="46" x2="1128" y1="401.5469" y2="401.5469"/><text fill="#000000" font-family="sans-serif" font-size="20" lengthAdjust="spacing" textLength="1069" x="53" y="394.8301">Sends Staff's data (FirstName, LastName, FullName, Email, PhoneNumber, StaffType, SpecializationName)</text><polygon fill="#000000" points="1758,434.8281,1768,438.8281,1758,442.8281,1762,438.8281" style="stroke:#000000;stroke-width:1.0;"/><line style="stroke:#000000;stroke-width:1.0;" x1="1144" x2="1764" y1="438.8281" y2="438.8281"/><text fill="#000000" font-family="sans-serif" font-size="20" lengthAdjust="spacing" textLength="114" x="1151" y="432.1113">onSubmit()</text><polygon fill="#000000" points="2114,472.1094,2124,476.1094,2114,480.1094,2118,476.1094" style="stroke:#000000;stroke-width:1.0;"/><line style="stroke:#000000;stroke-width:1.0;" x1="1780" x2="2120" y1="476.1094" y2="476.1094"/><text fill="#000000" font-family="sans-serif" font-size="20" lengthAdjust="spacing" textLength="258" x="1787" y="469.3926">createStaff(this.newStaff)</text><polygon fill="#000000" points="2685,509.3906,2695,513.3906,2685,517.3906,2689,513.3906" style="stroke:#000000;stroke-width:1.0;"/><line style="stroke:#000000;stroke-width:1.0;" x1="2136" x2="2691" y1="513.3906" y2="513.3906"/><text fill="#000000" font-family="sans-serif" font-size="20" lengthAdjust="spacing" textLength="542" x="2143" y="506.6738">Sends HTTP Request to create a Staff with Staff's data</text><line style="stroke:#000000;stroke-width:1.0;" x1="2707" x2="2749" y1="550.6719" y2="550.6719"/><line style="stroke:#000000;stroke-width:1.0;" x1="2749" x2="2749" y1="550.6719" y2="563.6719"/><line style="stroke:#000000;stroke-width:1.0;" x1="2708" x2="2749" y1="563.6719" y2="563.6719"/><polygon fill="#000000" points="2718,559.6719,2708,563.6719,2718,567.6719,2714,563.6719" style="stroke:#000000;stroke-width:1.0;"/><text fill="#000000" font-family="sans-serif" font-size="20" lengthAdjust="spacing" textLength="563" x="2714" y="543.9551">Intercepts the request and adds the token to the header</text><path d="M2712,576.6719 L2712,632.6719 L3231,632.6719 L3231,586.6719 L3221,576.6719 L2712,576.6719 " fill="#FEFFDD" style="stroke:#181818;stroke-width:0.5;"/><path d="M3221,576.6719 L3221,586.6719 L3231,586.6719 L3221,576.6719 " fill="#FEFFDD" style="stroke:#181818;stroke-width:0.5;"/><text fill="#000000" font-family="sans-serif" font-size="20" lengthAdjust="spacing" textLength="498" x="2718" y="600.2363">The token is added to the header so that the MDR</text><text fill="#000000" font-family="sans-serif" font-size="20" lengthAdjust="spacing" textLength="442" x="2718" y="623.5176">can authenticate and authorize the request.</text><polygon fill="#000000" points="3272,663.5156,3282,667.5156,3272,671.5156,3276,667.5156" style="stroke:#000000;stroke-width:1.0;"/><line style="stroke:#000000;stroke-width:1.0;" x1="2707" x2="3278" y1="667.5156" y2="667.5156"/><text fill="#000000" font-family="sans-serif" font-size="20" lengthAdjust="spacing" textLength="485" x="2714" y="660.7988">Sends HTTP Request with token to create a Staff</text><line style="stroke:#000000;stroke-width:1.0;" x1="3294" x2="3336" y1="704.7969" y2="704.7969"/><line style="stroke:#000000;stroke-width:1.0;" x1="3336" x2="3336" y1="704.7969" y2="717.7969"/><line style="stroke:#000000;stroke-width:1.0;" x1="3295" x2="3336" y1="717.7969" y2="717.7969"/><polygon fill="#000000" points="3305,713.7969,3295,717.7969,3305,721.7969,3301,717.7969" style="stroke:#000000;stroke-width:1.0;"/><text fill="#000000" font-family="sans-serif" font-size="20" lengthAdjust="spacing" textLength="494" x="3301" y="698.0801">Validates Staff's data and tries to create the Staff</text><polygon fill="#000000" points="2718,751.0781,2708,755.0781,2718,759.0781,2714,755.0781" style="stroke:#000000;stroke-width:1.0;"/><line style="stroke:#000000;stroke-width:1.0;stroke-dasharray:2.0,2.0;" x1="2712" x2="3288" y1="755.0781" y2="755.0781"/><text fill="#000000" font-family="sans-serif" font-size="20" lengthAdjust="spacing" textLength="311" x="2724" y="748.3613">Returns Operation Status Code</text><polygon fill="#000000" points="2147,788.3594,2137,792.3594,2147,796.3594,2143,792.3594" style="stroke:#000000;stroke-width:1.0;"/><line style="stroke:#000000;stroke-width:1.0;stroke-dasharray:2.0,2.0;" x1="2141" x2="2701" y1="792.3594" y2="792.3594"/><text fill="#000000" font-family="sans-serif" font-size="20" lengthAdjust="spacing" textLength="311" x="2153" y="785.6426">Returns Operation Status Code</text><polygon fill="#000000" points="1791,825.6406,1781,829.6406,1791,833.6406,1787,829.6406" style="stroke:#000000;stroke-width:1.0;"/><line style="stroke:#000000;stroke-width:1.0;stroke-dasharray:2.0,2.0;" x1="1785" x2="2130" y1="829.6406" y2="829.6406"/><text fill="#000000" font-family="sans-serif" font-size="20" lengthAdjust="spacing" textLength="286" x="1797" y="822.9238">Returns Operation Response</text><polygon fill="#000000" points="1155,862.9219,1145,866.9219,1155,870.9219,1151,866.9219" style="stroke:#000000;stroke-width:1.0;"/><line style="stroke:#000000;stroke-width:1.0;stroke-dasharray:2.0,2.0;" x1="1149" x2="1774" y1="866.9219" y2="866.9219"/><text fill="#000000" font-family="sans-serif" font-size="20" lengthAdjust="spacing" textLength="380" x="1161" y="860.2051">Returns Operation In/Sucess message</text><polygon fill="#000000" points="57,900.2031,47,904.2031,57,908.2031,53,904.2031" style="stroke:#000000;stroke-width:1.0;"/><line style="stroke:#000000;stroke-width:1.0;stroke-dasharray:2.0,2.0;" x1="51" x2="1138" y1="904.2031" y2="904.2031"/><text fill="#000000" font-family="sans-serif" font-size="20" lengthAdjust="spacing" textLength="380" x="63" y="897.4863">Returns Operation In/Sucess message</text><!--SRC=[bLNRRjim37tNLn3jGrkWjtNOhUWAE1TZ0PgsY0A_gpOJQx4bJv8RTCF-VPISk77hObk013PzpY5vH3fs9LKbZ2WBdQumWmmNeYvSh9NZyYV2nJbZJhe2uGOViO3t48zX9CMIAB3G1eO6XKFWJYmMZEKoGy2oSazGOlc0nZ9cjoaWBOIry8i1VGOYNIsDhbKsr8KsLrUFegZnxk4xfkxw6lP77yTH_BaVQhGEc7Wq7epE-p4MpQDCCKYzYo_6WpuOIOpZB-DFuLbaZ5utuK51EFPxj_QA8cA9_TN3_dWGVuW7dY9IHu4eAwK2OI5Yn7SobPLG3lOIYUiz7q-wSOx2f7bmqGvrMMc5oWNWb7UHZU41sGKENm03X3Ss101_0OXgbq-KGvDYHJK7J3JfOgQZMLF5Q1PQau_-j2CMmSar99SGsPK5fo5jna1i1g559Ypno2c_1BABSjr8jVfwSDRWJwn77pp3gTafzuJXbX3K-tfc6UxIsckoOTXAI2MT50LDikqNyT2c4uEkDih-DHVf9u4JRRhtMn3W1nOouSGkE6cDugWosy71OIoDTRUYn6Eu4Tkhk2wAvcfS2baSmtrEDTpMVfkE6u7vKqMFUOLfw4qugPMd7BtotNkW5QyVIkaEZtfCuWH8dpi-TBcqfmhNuMw7GBF30o6QR7lvDf_Vmmn_r6ZTwn60jNHvrvVdyPcmQB8LQoUGJZf7EeP6KAWCH9OrGQTNg7mEVvEZoD0mfKd9o6NkG2-yfD_BUGkMrjFfZTPXWVLtmeMGdsbFIWLjAkq27RHCGmi-DmMqyQ_0dQfE6NKEFlEc0PBejICqtrRzrdBu0kZR2YLqckGKlfWJNuup4dSNpHVLg0M1ZPUppGpVLMZ2L7YCgsceTOQTXQ7CleFD1FmpZspcpSOCUsapjBGnjiFXV6VBNbCcwepNAT8VGqa_z8fzQzd-avgmFm00]--></g></svg>