<?xml version="1.0" encoding="UTF-8" standalone="no"?><svg xmlns="http://www.w3.org/2000/svg" xmlns:xlink="http://www.w3.org/1999/xlink" contentStyleType="text/css" height="1949px" preserveAspectRatio="none" style="width:3583px;height:1949px;background:#FFFFFF;" version="1.1" viewBox="0 0 3583 1949" width="3583px" zoomAndPan="magnify"><defs/><g><text fill="#000000" font-family="sans-serif" font-size="14" font-weight="bold" lengthAdjust="spacing" textLength="293" x="1646" y="27.9951">Level 3 MDR Diagram for Create Staff</text><rect fill="#FFFFFF" height="1717.5" style="stroke:#181818;stroke-width:1.0;" width="10" x="15.5" y="135.5781"/><rect fill="#FFFFFF" height="1679.2188" style="stroke:#181818;stroke-width:1.0;" width="10" x="586.5" y="164.8594"/><rect fill="#FFFFFF" height="1597.6563" style="stroke:#181818;stroke-width:1.0;" width="10" x="1143.5" y="202.1406"/><rect fill="#FFFFFF" height="124.8438" style="stroke:#181818;stroke-width:1.0;" width="10" x="1505.5" y="596.5156"/><rect fill="#FFFFFF" height="111.8438" style="stroke:#181818;stroke-width:1.0;" width="10" x="1667" y="758.6406"/><rect fill="#FFFFFF" height="111.8438" style="stroke:#181818;stroke-width:1.0;" width="10" x="1667" y="948.3281"/><rect fill="#FFFFFF" height="111.8438" style="stroke:#181818;stroke-width:1.0;" width="10" x="1667" y="1138.0156"/><rect fill="#FFFFFF" height="104.5625" style="stroke:#181818;stroke-width:1.0;" width="10" x="1667" y="1449.2656"/><rect fill="#FFFFFF" height="111.8438" style="stroke:#181818;stroke-width:1.0;" width="10" x="1891" y="239.4219"/><rect fill="#FFFFFF" height="43.2813" style="stroke:#181818;stroke-width:1.0;" width="10" x="2126.5" y="429.1094"/><rect fill="#FFFFFF" height="43.2813" style="stroke:#181818;stroke-width:1.0;" width="10" x="2822.5" y="633.7969"/><rect fill="#FFFFFF" height="43.2813" style="stroke:#181818;stroke-width:1.0;" width="10" x="2822.5" y="1361.7031"/><rect fill="#FFFFFF" height="37.2813" style="stroke:#181818;stroke-width:1.0;" width="10" x="3277.5" y="1287.1406"/><rect fill="#FFFFFF" height="37.2813" style="stroke:#181818;stroke-width:1.0;" width="10" x="3477" y="276.7031"/><rect fill="#FFFFFF" height="37.2813" style="stroke:#181818;stroke-width:1.0;" width="10" x="3477" y="795.9219"/><rect fill="#FFFFFF" height="37.2813" style="stroke:#181818;stroke-width:1.0;" width="10" x="3477" y="985.6094"/><rect fill="#FFFFFF" height="37.2813" style="stroke:#181818;stroke-width:1.0;" width="10" x="3477" y="1175.2969"/><rect fill="#FFFFFF" height="30" style="stroke:#181818;stroke-width:1.0;" width="10" x="3477" y="1486.5469"/><rect fill="none" height="1441.5313" style="stroke:#000000;stroke-width:1.5;" width="3104.5" x="471.5" y="366.2656"/><rect fill="none" height="1243.8438" style="stroke:#000000;stroke-width:1.5;" width="3084.5" x="481.5" y="494.3906"/><rect fill="none" height="845.75" style="stroke:#000000;stroke-width:1.5;" width="3064.5" x="491.5" y="885.4844"/><rect fill="none" height="586.5" style="stroke:#000000;stroke-width:1.5;" width="3044.5" x="501.5" y="1075.1719"/><line style="stroke:#181818;stroke-width:0.5;stroke-dasharray:5.0,5.0;" x1="20" x2="20" y1="125.5781" y2="1862.0781"/><line style="stroke:#181818;stroke-width:0.5;stroke-dasharray:5.0,5.0;" x1="591.5" x2="591.5" y1="125.5781" y2="1862.0781"/><line style="stroke:#181818;stroke-width:0.5;stroke-dasharray:5.0,5.0;" x1="1148.5" x2="1148.5" y1="125.5781" y2="1862.0781"/><line style="stroke:#181818;stroke-width:0.5;stroke-dasharray:5.0,5.0;" x1="1510.5" x2="1510.5" y1="125.5781" y2="1862.0781"/><line style="stroke:#181818;stroke-width:0.5;stroke-dasharray:5.0,5.0;" x1="1671.5" x2="1671.5" y1="125.5781" y2="1862.0781"/><line style="stroke:#181818;stroke-width:0.5;stroke-dasharray:5.0,5.0;" x1="1895.5" x2="1895.5" y1="125.5781" y2="1862.0781"/><line style="stroke:#181818;stroke-width:0.5;stroke-dasharray:5.0,5.0;" x1="2131.5" x2="2131.5" y1="125.5781" y2="1862.0781"/><line style="stroke:#181818;stroke-width:0.5;stroke-dasharray:5.0,5.0;" x1="2827" x2="2827" y1="125.5781" y2="1862.0781"/><line style="stroke:#181818;stroke-width:0.5;stroke-dasharray:5.0,5.0;" x1="3282" x2="3282" y1="125.5781" y2="1862.0781"/><line style="stroke:#181818;stroke-width:0.5;stroke-dasharray:5.0,5.0;" x1="3482" x2="3482" y1="125.5781" y2="1862.0781"/><text fill="#000000" font-family="sans-serif" font-size="20" lengthAdjust="spacing" textLength="25" x="5" y="120.8613">FE</text><ellipse cx="20.5" cy="50.7969" fill="#E2E2F0" rx="8" ry="8" style="stroke:#181818;stroke-width:0.5;"/><path d="M20.5,58.7969 L20.5,85.7969 M7.5,66.7969 L33.5,66.7969 M20.5,85.7969 L7.5,100.7969 M20.5,85.7969 L33.5,100.7969 " fill="none" style="stroke:#181818;stroke-width:0.5;"/><text fill="#000000" font-family="sans-serif" font-size="20" lengthAdjust="spacing" textLength="25" x="5" y="1879.6426">FE</text><ellipse cx="20.5" cy="1892.8594" fill="#E2E2F0" rx="8" ry="8" style="stroke:#181818;stroke-width:0.5;"/><path d="M20.5,1900.8594 L20.5,1927.8594 M7.5,1908.8594 L33.5,1908.8594 M20.5,1927.8594 L7.5,1942.8594 M20.5,1927.8594 L33.5,1942.8594 " fill="none" style="stroke:#181818;stroke-width:0.5;"/><rect fill="#E2E2F0" height="37.2813" rx="2.5" ry="2.5" style="stroke:#181818;stroke-width:0.5;" width="160" x="511.5" y="87.2969"/><text fill="#000000" font-family="sans-serif" font-size="20" lengthAdjust="spacing" textLength="146" x="518.5" y="112.8613">StaffController</text><rect fill="#E2E2F0" height="37.2813" rx="2.5" ry="2.5" style="stroke:#181818;stroke-width:0.5;" width="160" x="511.5" y="1861.0781"/><text fill="#000000" font-family="sans-serif" font-size="20" lengthAdjust="spacing" textLength="146" x="518.5" y="1886.6426">StaffController</text><rect fill="#E2E2F0" height="37.2813" rx="2.5" ry="2.5" style="stroke:#181818;stroke-width:0.5;" width="134" x="1081.5" y="87.2969"/><text fill="#000000" font-family="sans-serif" font-size="20" lengthAdjust="spacing" textLength="120" x="1088.5" y="112.8613">StaffService</text><rect fill="#E2E2F0" height="37.2813" rx="2.5" ry="2.5" style="stroke:#181818;stroke-width:0.5;" width="134" x="1081.5" y="1861.0781"/><text fill="#000000" font-family="sans-serif" font-size="20" lengthAdjust="spacing" textLength="120" x="1088.5" y="1886.6426">StaffService</text><rect fill="#E2E2F0" height="37.2813" rx="2.5" ry="2.5" style="stroke:#181818;stroke-width:0.5;" width="136" x="1442.5" y="87.2969"/><text fill="#000000" font-family="sans-serif" font-size="20" lengthAdjust="spacing" textLength="122" x="1449.5" y="112.8613">StaffMapper</text><rect fill="#E2E2F0" height="37.2813" rx="2.5" ry="2.5" style="stroke:#181818;stroke-width:0.5;" width="136" x="1442.5" y="1861.0781"/><text fill="#000000" font-family="sans-serif" font-size="20" lengthAdjust="spacing" textLength="122" x="1449.5" y="1886.6426">StaffMapper</text><rect fill="#E2E2F0" height="37.2813" rx="2.5" ry="2.5" style="stroke:#181818;stroke-width:0.5;" width="167" x="1588.5" y="87.2969"/><text fill="#000000" font-family="sans-serif" font-size="20" lengthAdjust="spacing" textLength="153" x="1595.5" y="112.8613">StaffRepository</text><rect fill="#E2E2F0" height="37.2813" rx="2.5" ry="2.5" style="stroke:#181818;stroke-width:0.5;" width="167" x="1588.5" y="1861.0781"/><text fill="#000000" font-family="sans-serif" font-size="20" lengthAdjust="spacing" textLength="153" x="1595.5" y="1886.6426">StaffRepository</text><rect fill="#E2E2F0" height="37.2813" rx="2.5" ry="2.5" style="stroke:#181818;stroke-width:0.5;" width="261" x="1765.5" y="87.2969"/><text fill="#000000" font-family="sans-serif" font-size="20" lengthAdjust="spacing" textLength="247" x="1772.5" y="112.8613">SpecializationRepository</text><rect fill="#E2E2F0" height="37.2813" rx="2.5" ry="2.5" style="stroke:#181818;stroke-width:0.5;" width="261" x="1765.5" y="1861.0781"/><text fill="#000000" font-family="sans-serif" font-size="20" lengthAdjust="spacing" textLength="247" x="1772.5" y="1886.6426">SpecializationRepository</text><rect fill="#E2E2F0" height="37.2813" rx="2.5" ry="2.5" style="stroke:#181818;stroke-width:0.5;" width="190" x="2036.5" y="87.2969"/><text fill="#000000" font-family="sans-serif" font-size="20" lengthAdjust="spacing" textLength="176" x="2043.5" y="112.8613">CreatingStaffDTO</text><rect fill="#E2E2F0" height="37.2813" rx="2.5" ry="2.5" style="stroke:#181818;stroke-width:0.5;" width="190" x="2036.5" y="1861.0781"/><text fill="#000000" font-family="sans-serif" font-size="20" lengthAdjust="spacing" textLength="176" x="2043.5" y="1886.6426">CreatingStaffDTO</text><rect fill="#E2E2F0" height="37.2813" rx="2.5" ry="2.5" style="stroke:#181818;stroke-width:0.5;" width="61" x="2797" y="87.2969"/><text fill="#000000" font-family="sans-serif" font-size="20" lengthAdjust="spacing" textLength="47" x="2804" y="112.8613">Staff</text><rect fill="#E2E2F0" height="37.2813" rx="2.5" ry="2.5" style="stroke:#181818;stroke-width:0.5;" width="61" x="2797" y="1861.0781"/><text fill="#000000" font-family="sans-serif" font-size="20" lengthAdjust="spacing" textLength="47" x="2804" y="1886.6426">Staff</text><rect fill="#E2E2F0" height="37.2813" rx="2.5" ry="2.5" style="stroke:#181818;stroke-width:0.5;" width="271" x="3147" y="87.2969"/><text fill="#000000" font-family="sans-serif" font-size="20" lengthAdjust="spacing" textLength="257" x="3154" y="112.8613">LicenseNumberGenerator</text><rect fill="#E2E2F0" height="37.2813" rx="2.5" ry="2.5" style="stroke:#181818;stroke-width:0.5;" width="271" x="3147" y="1861.0781"/><text fill="#000000" font-family="sans-serif" font-size="20" lengthAdjust="spacing" textLength="257" x="3154" y="1886.6426">LicenseNumberGenerator</text><rect fill="#E2E2F0" height="37.2813" rx="2.5" ry="2.5" style="stroke:#181818;stroke-width:0.5;" width="108" x="3428" y="87.2969"/><text fill="#000000" font-family="sans-serif" font-size="20" lengthAdjust="spacing" textLength="94" x="3435" y="112.8613">Database</text><rect fill="#E2E2F0" height="37.2813" rx="2.5" ry="2.5" style="stroke:#181818;stroke-width:0.5;" width="108" x="3428" y="1861.0781"/><text fill="#000000" font-family="sans-serif" font-size="20" lengthAdjust="spacing" textLength="94" x="3435" y="1886.6426">Database</text><rect fill="#FFFFFF" height="1717.5" style="stroke:#181818;stroke-width:1.0;" width="10" x="15.5" y="135.5781"/><rect fill="#FFFFFF" height="1679.2188" style="stroke:#181818;stroke-width:1.0;" width="10" x="586.5" y="164.8594"/><rect fill="#FFFFFF" height="1597.6563" style="stroke:#181818;stroke-width:1.0;" width="10" x="1143.5" y="202.1406"/><rect fill="#FFFFFF" height="124.8438" style="stroke:#181818;stroke-width:1.0;" width="10" x="1505.5" y="596.5156"/><rect fill="#FFFFFF" height="111.8438" style="stroke:#181818;stroke-width:1.0;" width="10" x="1667" y="758.6406"/><rect fill="#FFFFFF" height="111.8438" style="stroke:#181818;stroke-width:1.0;" width="10" x="1667" y="948.3281"/><rect fill="#FFFFFF" height="111.8438" style="stroke:#181818;stroke-width:1.0;" width="10" x="1667" y="1138.0156"/><rect fill="#FFFFFF" height="104.5625" style="stroke:#181818;stroke-width:1.0;" width="10" x="1667" y="1449.2656"/><rect fill="#FFFFFF" height="111.8438" style="stroke:#181818;stroke-width:1.0;" width="10" x="1891" y="239.4219"/><rect fill="#FFFFFF" height="43.2813" style="stroke:#181818;stroke-width:1.0;" width="10" x="2126.5" y="429.1094"/><rect fill="#FFFFFF" height="43.2813" style="stroke:#181818;stroke-width:1.0;" width="10" x="2822.5" y="633.7969"/><rect fill="#FFFFFF" height="43.2813" style="stroke:#181818;stroke-width:1.0;" width="10" x="2822.5" y="1361.7031"/><rect fill="#FFFFFF" height="37.2813" style="stroke:#181818;stroke-width:1.0;" width="10" x="3277.5" y="1287.1406"/><rect fill="#FFFFFF" height="37.2813" style="stroke:#181818;stroke-width:1.0;" width="10" x="3477" y="276.7031"/><rect fill="#FFFFFF" height="37.2813" style="stroke:#181818;stroke-width:1.0;" width="10" x="3477" y="795.9219"/><rect fill="#FFFFFF" height="37.2813" style="stroke:#181818;stroke-width:1.0;" width="10" x="3477" y="985.6094"/><rect fill="#FFFFFF" height="37.2813" style="stroke:#181818;stroke-width:1.0;" width="10" x="3477" y="1175.2969"/><rect fill="#FFFFFF" height="30" style="stroke:#181818;stroke-width:1.0;" width="10" x="3477" y="1486.5469"/><polygon fill="#000000" points="574.5,160.8594,584.5,164.8594,574.5,168.8594,578.5,164.8594" style="stroke:#000000;stroke-width:1.0;"/><line style="stroke:#000000;stroke-width:1.0;" x1="25.5" x2="580.5" y1="164.8594" y2="164.8594"/><text fill="#000000" font-family="sans-serif" font-size="20" lengthAdjust="spacing" textLength="542" x="32.5" y="158.1426">Sends HTTP Request to create a Staff with Staff's data</text><polygon fill="#000000" points="1131.5,198.1406,1141.5,202.1406,1131.5,206.1406,1135.5,202.1406" style="stroke:#000000;stroke-width:1.0;"/><line style="stroke:#000000;stroke-width:1.0;stroke-dasharray:2.0,2.0;" x1="596.5" x2="1137.5" y1="202.1406" y2="202.1406"/><text fill="#000000" font-family="sans-serif" font-size="20" lengthAdjust="spacing" textLength="341" x="603.5" y="195.4238">createStaff(CreatingStaffDTO dto)</text><polygon fill="#000000" points="1879,235.4219,1889,239.4219,1879,243.4219,1883,239.4219" style="stroke:#000000;stroke-width:1.0;"/><line style="stroke:#000000;stroke-width:1.0;" x1="1153.5" x2="1885" y1="239.4219" y2="239.4219"/><text fill="#000000" font-family="sans-serif" font-size="20" lengthAdjust="spacing" textLength="580" x="1160.5" y="232.7051">GetSpecIdByOptionAsync(dto.SpecializationName).Result</text><polygon fill="#000000" points="3465,272.7031,3475,276.7031,3465,280.7031,3469,276.7031" style="stroke:#000000;stroke-width:1.0;"/><line style="stroke:#000000;stroke-width:1.0;" x1="1901" x2="3471" y1="276.7031" y2="276.7031"/><text fill="#000000" font-family="sans-serif" font-size="20" lengthAdjust="spacing" textLength="873" x="1908" y="269.9863">_objs.Where(x =&gt; x.SpecOption.ToLower() == option.ToLower()).FirstOrDefaultAsync()</text><polygon fill="#000000" points="1912,309.9844,1902,313.9844,1912,317.9844,1908,313.9844" style="stroke:#000000;stroke-width:1.0;"/><line style="stroke:#000000;stroke-width:1.0;stroke-dasharray:2.0,2.0;" x1="1906" x2="3481" y1="313.9844" y2="313.9844"/><text fill="#000000" font-family="sans-serif" font-size="20" lengthAdjust="spacing" textLength="206" x="1918" y="307.2676">return specialization</text><polygon fill="#000000" points="1164.5,347.2656,1154.5,351.2656,1164.5,355.2656,1160.5,351.2656" style="stroke:#000000;stroke-width:1.0;"/><line style="stroke:#000000;stroke-width:1.0;stroke-dasharray:2.0,2.0;" x1="1158.5" x2="1895" y1="351.2656" y2="351.2656"/><text fill="#000000" font-family="sans-serif" font-size="20" lengthAdjust="spacing" textLength="206" x="1170.5" y="344.5488">return specialization</text><path d="M471.5,366.2656 L547.5,366.2656 L547.5,381.5469 L537.5,391.5469 L471.5,391.5469 L471.5,366.2656 " fill="#EEEEEE" style="stroke:#000000;stroke-width:1.5;"/><rect fill="none" height="1441.5313" style="stroke:#000000;stroke-width:1.5;" width="3104.5" x="471.5" y="366.2656"/><text fill="#000000" font-family="sans-serif" font-size="20" font-weight="bold" lengthAdjust="spacing" textLength="31" x="486.5" y="385.8301">alt</text><text fill="#000000" font-family="sans-serif" font-size="20" font-weight="bold" lengthAdjust="spacing" textLength="296" x="562.5" y="386.8301">[specialization is not null]</text><polygon fill="#000000" points="2114.5,425.1094,2124.5,429.1094,2114.5,433.1094,2118.5,429.1094" style="stroke:#000000;stroke-width:1.0;"/><line style="stroke:#000000;stroke-width:1.0;" x1="1153.5" x2="2120.5" y1="429.1094" y2="429.1094"/><text fill="#000000" font-family="sans-serif" font-size="20" lengthAdjust="spacing" textLength="505" x="1160.5" y="422.3926">dto.SetSpecializationId(specialization.Id.AsGuid())</text><line style="stroke:#000000;stroke-width:1.0;" x1="2136.5" x2="2178.5" y1="471.3906" y2="471.3906"/><line style="stroke:#000000;stroke-width:1.0;" x1="2178.5" x2="2178.5" y1="471.3906" y2="484.3906"/><line style="stroke:#000000;stroke-width:1.0;" x1="2131.5" x2="2178.5" y1="484.3906" y2="484.3906"/><polygon fill="#000000" points="2141.5,480.3906,2131.5,484.3906,2141.5,488.3906,2137.5,484.3906" style="stroke:#000000;stroke-width:1.0;"/><text fill="#000000" font-family="sans-serif" font-size="20" lengthAdjust="spacing" textLength="446" x="2143.5" y="464.6738">SpecializationId = specialization.Id.AsGuid()</text><path d="M481.5,494.3906 L557.5,494.3906 L557.5,509.6719 L547.5,519.6719 L481.5,519.6719 L481.5,494.3906 " fill="#EEEEEE" style="stroke:#000000;stroke-width:1.5;"/><rect fill="none" height="1243.8438" style="stroke:#000000;stroke-width:1.5;" width="3084.5" x="481.5" y="494.3906"/><text fill="#000000" font-family="sans-serif" font-size="20" font-weight="bold" lengthAdjust="spacing" textLength="31" x="496.5" y="513.9551">alt</text><text fill="#000000" font-family="sans-serif" font-size="20" font-weight="bold" lengthAdjust="spacing" textLength="806" x="572.5" y="514.9551">[!Enum.TryParse(typeof(StaffType), dto.StaffType, out var staffType)]</text><polygon fill="#000000" points="607.5,553.2344,597.5,557.2344,607.5,561.2344,603.5,557.2344" style="stroke:#000000;stroke-width:1.0;"/><line style="stroke:#000000;stroke-width:1.0;" x1="601.5" x2="1142.5" y1="557.2344" y2="557.2344"/><text fill="#000000" font-family="sans-serif" font-size="20" lengthAdjust="spacing" textLength="382" x="613.5" y="550.5176">return Invalid staff type: dto.StaffType</text><line style="stroke:#000000;stroke-width:1.0;stroke-dasharray:2.0,2.0;" x1="481.5" x2="3566" y1="566.2344" y2="566.2344"/><polygon fill="#000000" points="1493.5,592.5156,1503.5,596.5156,1493.5,600.5156,1497.5,596.5156" style="stroke:#000000;stroke-width:1.0;"/><line style="stroke:#000000;stroke-width:1.0;" x1="1153.5" x2="1499.5" y1="596.5156" y2="596.5156"/><text fill="#000000" font-family="sans-serif" font-size="20" lengthAdjust="spacing" textLength="333" x="1160.5" y="589.7988">ToDomain(CreatingStaffDTO dto)</text><polygon fill="#000000" points="2810.5,629.7969,2820.5,633.7969,2810.5,637.7969,2814.5,633.7969" style="stroke:#000000;stroke-width:1.0;"/><line style="stroke:#000000;stroke-width:1.0;" x1="1515.5" x2="2816.5" y1="633.7969" y2="633.7969"/><text fill="#000000" font-family="sans-serif" font-size="20" lengthAdjust="spacing" textLength="1288" x="1522.5" y="627.0801">new Staff(dto.FirstName, dto.LastName, dto.FullName, dto.Email, dto.PhoneNumber, new SpecializationId(dto.SpecializationId))</text><line style="stroke:#000000;stroke-width:1.0;" x1="2832.5" x2="2874.5" y1="676.0781" y2="676.0781"/><line style="stroke:#000000;stroke-width:1.0;" x1="2874.5" x2="2874.5" y1="676.0781" y2="689.0781"/><line style="stroke:#000000;stroke-width:1.0;" x1="2827.5" x2="2874.5" y1="689.0781" y2="689.0781"/><polygon fill="#000000" points="2837.5,685.0781,2827.5,689.0781,2837.5,693.0781,2833.5,689.0781" style="stroke:#000000;stroke-width:1.0;"/><text fill="#000000" font-family="sans-serif" font-size="20" lengthAdjust="spacing" textLength="63" x="2839.5" y="669.3613">Staff()</text><polygon fill="#000000" points="1164.5,717.3594,1154.5,721.3594,1164.5,725.3594,1160.5,721.3594" style="stroke:#000000;stroke-width:1.0;"/><line style="stroke:#000000;stroke-width:1.0;stroke-dasharray:2.0,2.0;" x1="1158.5" x2="1509.5" y1="721.3594" y2="721.3594"/><text fill="#000000" font-family="sans-serif" font-size="20" lengthAdjust="spacing" textLength="115" x="1170.5" y="714.6426">return Staff</text><polygon fill="#000000" points="1655,754.6406,1665,758.6406,1655,762.6406,1659,758.6406" style="stroke:#000000;stroke-width:1.0;"/><line style="stroke:#000000;stroke-width:1.0;" x1="1153.5" x2="1661" y1="758.6406" y2="758.6406"/><text fill="#000000" font-family="sans-serif" font-size="20" lengthAdjust="spacing" textLength="285" x="1160.5" y="751.9238">getStaffByEmail(staff.Email)</text><polygon fill="#000000" points="3465,791.9219,3475,795.9219,3465,799.9219,3469,795.9219" style="stroke:#000000;stroke-width:1.0;"/><line style="stroke:#000000;stroke-width:1.0;" x1="1677" x2="3471" y1="795.9219" y2="795.9219"/><text fill="#000000" font-family="sans-serif" font-size="20" lengthAdjust="spacing" textLength="636" x="1684" y="789.2051">_objs.Where(x =&gt; email.Equals(x.Email)).FirstOrDefaultAsync()</text><polygon fill="#000000" points="1688,829.2031,1678,833.2031,1688,837.2031,1684,833.2031" style="stroke:#000000;stroke-width:1.0;"/><line style="stroke:#000000;stroke-width:1.0;stroke-dasharray:2.0,2.0;" x1="1682" x2="3481" y1="833.2031" y2="833.2031"/><text fill="#000000" font-family="sans-serif" font-size="20" lengthAdjust="spacing" textLength="99" x="1694" y="826.4863">return var</text><polygon fill="#000000" points="1164.5,866.4844,1154.5,870.4844,1164.5,874.4844,1160.5,870.4844" style="stroke:#000000;stroke-width:1.0;"/><line style="stroke:#000000;stroke-width:1.0;stroke-dasharray:2.0,2.0;" x1="1158.5" x2="1671" y1="870.4844" y2="870.4844"/><text fill="#000000" font-family="sans-serif" font-size="20" lengthAdjust="spacing" textLength="99" x="1170.5" y="863.7676">return var</text><path d="M491.5,885.4844 L567.5,885.4844 L567.5,900.7656 L557.5,910.7656 L491.5,910.7656 L491.5,885.4844 " fill="#EEEEEE" style="stroke:#000000;stroke-width:1.5;"/><rect fill="none" height="845.75" style="stroke:#000000;stroke-width:1.5;" width="3064.5" x="491.5" y="885.4844"/><text fill="#000000" font-family="sans-serif" font-size="20" font-weight="bold" lengthAdjust="spacing" textLength="31" x="506.5" y="905.0488">alt</text><text fill="#000000" font-family="sans-serif" font-size="20" font-weight="bold" lengthAdjust="spacing" textLength="130" x="582.5" y="906.0488">[var is null]</text><polygon fill="#000000" points="1655,944.3281,1665,948.3281,1655,952.3281,1659,948.3281" style="stroke:#000000;stroke-width:1.0;"/><line style="stroke:#000000;stroke-width:1.0;" x1="1153.5" x2="1661" y1="948.3281" y2="948.3281"/><text fill="#000000" font-family="sans-serif" font-size="20" lengthAdjust="spacing" textLength="457" x="1160.5" y="941.6113">getStaffByPhoneNumber(staff.PhoneNumber)</text><polygon fill="#000000" points="3465,981.6094,3475,985.6094,3465,989.6094,3469,985.6094" style="stroke:#000000;stroke-width:1.0;"/><line style="stroke:#000000;stroke-width:1.0;" x1="1677" x2="3471" y1="985.6094" y2="985.6094"/><text fill="#000000" font-family="sans-serif" font-size="20" lengthAdjust="spacing" textLength="810" x="1684" y="978.8926">_objs.Where(x =&gt; phoneNumber.Equals(x.PhoneNumber)).FirstOrDefaultAsync()</text><polygon fill="#000000" points="1688,1018.8906,1678,1022.8906,1688,1026.8906,1684,1022.8906" style="stroke:#000000;stroke-width:1.0;"/><line style="stroke:#000000;stroke-width:1.0;stroke-dasharray:2.0,2.0;" x1="1682" x2="3481" y1="1022.8906" y2="1022.8906"/><text fill="#000000" font-family="sans-serif" font-size="20" lengthAdjust="spacing" textLength="99" x="1694" y="1016.1738">return var</text><polygon fill="#000000" points="1164.5,1056.1719,1154.5,1060.1719,1164.5,1064.1719,1160.5,1060.1719" style="stroke:#000000;stroke-width:1.0;"/><line style="stroke:#000000;stroke-width:1.0;stroke-dasharray:2.0,2.0;" x1="1158.5" x2="1671" y1="1060.1719" y2="1060.1719"/><text fill="#000000" font-family="sans-serif" font-size="20" lengthAdjust="spacing" textLength="99" x="1170.5" y="1053.4551">return var</text><path d="M501.5,1075.1719 L577.5,1075.1719 L577.5,1090.4531 L567.5,1100.4531 L501.5,1100.4531 L501.5,1075.1719 " fill="#EEEEEE" style="stroke:#000000;stroke-width:1.5;"/><rect fill="none" height="586.5" style="stroke:#000000;stroke-width:1.5;" width="3044.5" x="501.5" y="1075.1719"/><text fill="#000000" font-family="sans-serif" font-size="20" font-weight="bold" lengthAdjust="spacing" textLength="31" x="516.5" y="1094.7363">alt</text><text fill="#000000" font-family="sans-serif" font-size="20" font-weight="bold" lengthAdjust="spacing" textLength="130" x="592.5" y="1095.7363">[var is null]</text><polygon fill="#000000" points="1655,1134.0156,1665,1138.0156,1655,1142.0156,1659,1138.0156" style="stroke:#000000;stroke-width:1.0;"/><line style="stroke:#000000;stroke-width:1.0;" x1="1153.5" x2="1661" y1="1138.0156" y2="1138.0156"/><text fill="#000000" font-family="sans-serif" font-size="20" lengthAdjust="spacing" textLength="134" x="1160.5" y="1131.2988">getAllAsync()</text><polygon fill="#000000" points="3465,1171.2969,3475,1175.2969,3465,1179.2969,3469,1175.2969" style="stroke:#000000;stroke-width:1.0;"/><line style="stroke:#000000;stroke-width:1.0;" x1="1677" x2="3471" y1="1175.2969" y2="1175.2969"/><text fill="#000000" font-family="sans-serif" font-size="20" lengthAdjust="spacing" textLength="191" x="1684" y="1168.5801">_objs.ToListAsync()</text><polygon fill="#000000" points="1688,1208.5781,1678,1212.5781,1688,1216.5781,1684,1212.5781" style="stroke:#000000;stroke-width:1.0;"/><line style="stroke:#000000;stroke-width:1.0;stroke-dasharray:2.0,2.0;" x1="1682" x2="3481" y1="1212.5781" y2="1212.5781"/><text fill="#000000" font-family="sans-serif" font-size="20" lengthAdjust="spacing" textLength="98" x="1694" y="1205.8613">return list</text><polygon fill="#000000" points="1164.5,1245.8594,1154.5,1249.8594,1164.5,1253.8594,1160.5,1249.8594" style="stroke:#000000;stroke-width:1.0;"/><line style="stroke:#000000;stroke-width:1.0;stroke-dasharray:2.0,2.0;" x1="1158.5" x2="1671" y1="1249.8594" y2="1249.8594"/><text fill="#000000" font-family="sans-serif" font-size="20" lengthAdjust="spacing" textLength="98" x="1170.5" y="1243.1426">return list</text><polygon fill="#000000" points="3265.5,1283.1406,3275.5,1287.1406,3265.5,1291.1406,3269.5,1287.1406" style="stroke:#000000;stroke-width:1.0;"/><line style="stroke:#000000;stroke-width:1.0;" x1="1153.5" x2="3271.5" y1="1287.1406" y2="1287.1406"/><text fill="#000000" font-family="sans-serif" font-size="20" lengthAdjust="spacing" textLength="361" x="1160.5" y="1280.4238">GenerateLicenseNumber(list.Count)</text><polygon fill="#000000" points="1164.5,1320.4219,1154.5,1324.4219,1164.5,1328.4219,1160.5,1324.4219" style="stroke:#000000;stroke-width:1.0;"/><line style="stroke:#000000;stroke-width:1.0;stroke-dasharray:2.0,2.0;" x1="1158.5" x2="3281.5" y1="1324.4219" y2="1324.4219"/><text fill="#000000" font-family="sans-serif" font-size="20" lengthAdjust="spacing" textLength="314" x="1170.5" y="1317.7051">return generateLicenseNumber</text><polygon fill="#000000" points="2810.5,1357.7031,2820.5,1361.7031,2810.5,1365.7031,2814.5,1361.7031" style="stroke:#000000;stroke-width:1.0;"/><line style="stroke:#000000;stroke-width:1.0;" x1="1153.5" x2="2816.5" y1="1361.7031" y2="1361.7031"/><text fill="#000000" font-family="sans-serif" font-size="20" lengthAdjust="spacing" textLength="451" x="1160.5" y="1354.9863">SetLicenseNumber(generateLicenseNumber)</text><line style="stroke:#000000;stroke-width:1.0;" x1="2832.5" x2="2874.5" y1="1403.9844" y2="1403.9844"/><line style="stroke:#000000;stroke-width:1.0;" x1="2874.5" x2="2874.5" y1="1403.9844" y2="1416.9844"/><line style="stroke:#000000;stroke-width:1.0;" x1="2827.5" x2="2874.5" y1="1416.9844" y2="1416.9844"/><polygon fill="#000000" points="2837.5,1412.9844,2827.5,1416.9844,2837.5,1420.9844,2833.5,1416.9844" style="stroke:#000000;stroke-width:1.0;"/><text fill="#000000" font-family="sans-serif" font-size="20" lengthAdjust="spacing" textLength="431" x="2839.5" y="1397.2676">LicenseNumber = generateLicenseNumber</text><polygon fill="#000000" points="1655,1445.2656,1665,1449.2656,1655,1453.2656,1659,1449.2656" style="stroke:#000000;stroke-width:1.0;"/><line style="stroke:#000000;stroke-width:1.0;" x1="1153.5" x2="1661" y1="1449.2656" y2="1449.2656"/><text fill="#000000" font-family="sans-serif" font-size="20" lengthAdjust="spacing" textLength="157" x="1160.5" y="1442.5488">addAsync(staff)</text><polygon fill="#000000" points="3465,1482.5469,3475,1486.5469,3465,1490.5469,3469,1486.5469" style="stroke:#000000;stroke-width:1.0;"/><line style="stroke:#000000;stroke-width:1.0;" x1="1677" x2="3471" y1="1486.5469" y2="1486.5469"/><text fill="#000000" font-family="sans-serif" font-size="20" lengthAdjust="spacing" textLength="216" x="1684" y="1479.8301">_objs.AddAsync(staff)</text><polygon fill="#000000" points="1164.5,1549.8281,1154.5,1553.8281,1164.5,1557.8281,1160.5,1553.8281" style="stroke:#000000;stroke-width:1.0;"/><line style="stroke:#000000;stroke-width:1.0;stroke-dasharray:2.0,2.0;" x1="1158.5" x2="1671" y1="1553.8281" y2="1553.8281"/><text fill="#000000" font-family="sans-serif" font-size="20" lengthAdjust="spacing" textLength="115" x="1170.5" y="1547.1113">return Staff</text><polygon fill="#000000" points="607.5,1587.1094,597.5,1591.1094,607.5,1595.1094,603.5,1591.1094" style="stroke:#000000;stroke-width:1.0;"/><line style="stroke:#000000;stroke-width:1.0;stroke-dasharray:2.0,2.0;" x1="601.5" x2="1142.5" y1="1591.1094" y2="1591.1094"/><text fill="#000000" font-family="sans-serif" font-size="20" lengthAdjust="spacing" textLength="115" x="613.5" y="1584.3926">return Staff</text><line style="stroke:#000000;stroke-width:1.0;stroke-dasharray:2.0,2.0;" x1="501.5" x2="3546" y1="1600.1094" y2="1600.1094"/><text fill="#000000" font-family="sans-serif" font-size="20" font-weight="bold" lengthAdjust="spacing" textLength="175" x="506.5" y="1618.6738">[var is not null]</text><polygon fill="#000000" points="607.5,1649.6719,597.5,1653.6719,607.5,1657.6719,603.5,1653.6719" style="stroke:#000000;stroke-width:1.0;"/><line style="stroke:#000000;stroke-width:1.0;stroke-dasharray:2.0,2.0;" x1="601.5" x2="1142.5" y1="1653.6719" y2="1653.6719"/><text fill="#000000" font-family="sans-serif" font-size="20" lengthAdjust="spacing" textLength="523" x="613.5" y="1646.9551">return Staff with same Phone Number already exists</text><line style="stroke:#000000;stroke-width:1.0;stroke-dasharray:2.0,2.0;" x1="491.5" x2="3556" y1="1669.6719" y2="1669.6719"/><text fill="#000000" font-family="sans-serif" font-size="20" font-weight="bold" lengthAdjust="spacing" textLength="175" x="496.5" y="1688.2363">[var is not null]</text><polygon fill="#000000" points="607.5,1719.2344,597.5,1723.2344,607.5,1727.2344,603.5,1723.2344" style="stroke:#000000;stroke-width:1.0;"/><line style="stroke:#000000;stroke-width:1.0;stroke-dasharray:2.0,2.0;" x1="601.5" x2="1142.5" y1="1723.2344" y2="1723.2344"/><text fill="#000000" font-family="sans-serif" font-size="20" lengthAdjust="spacing" textLength="431" x="613.5" y="1716.5176">return Staff with same Email already exists</text><line style="stroke:#000000;stroke-width:1.0;stroke-dasharray:2.0,2.0;" x1="471.5" x2="3576" y1="1746.2344" y2="1746.2344"/><text fill="#000000" font-family="sans-serif" font-size="20" font-weight="bold" lengthAdjust="spacing" textLength="251" x="476.5" y="1764.7988">[specialization is null]</text><polygon fill="#000000" points="607.5,1795.7969,597.5,1799.7969,607.5,1803.7969,603.5,1799.7969" style="stroke:#000000;stroke-width:1.0;"/><line style="stroke:#000000;stroke-width:1.0;stroke-dasharray:2.0,2.0;" x1="601.5" x2="1147.5" y1="1799.7969" y2="1799.7969"/><text fill="#000000" font-family="sans-serif" font-size="20" lengthAdjust="spacing" textLength="474" x="613.5" y="1793.0801">return Specialization with this name not found.</text><polygon fill="#000000" points="36.5,1840.0781,26.5,1844.0781,36.5,1848.0781,32.5,1844.0781" style="stroke:#000000;stroke-width:1.0;"/><line style="stroke:#000000;stroke-width:1.0;stroke-dasharray:2.0,2.0;" x1="30.5" x2="590.5" y1="1844.0781" y2="1844.0781"/><text fill="#000000" font-family="sans-serif" font-size="20" lengthAdjust="spacing" textLength="413" x="42.5" y="1837.3613">Returns Operation Status Response Code</text><!--SRC=[fLVVRzis47xNNt7h7cO3gT1rmDePJG1RihC0SM981lOuCDOvOIEBAaavSOVzxpkIjlKZL9nYVh0byhllxZxUaRHwv4N99DlaOlM86MIuPbMkPwBGAV-EyF5346YkSuHht68Ely4yJY3cx9viO2qaH1APHaWrMw-3u85d2BWfzGuskBb3gO907Np0AcTAmJy1q6V2Le_tKbH55ebSo2zVjYolyFRkAwxqnGNy7Fy-7Sy- -w5I28kPnTD9_C6FKIYtV8MMwjVPn-d41oEAwUoFwISxDvPIFBdXIKwuuDyWO2jDhxCfC4NV0QMX-OgNhD3mpgOSaL9Iv3dATmOJUI2fYyJEfvxvEIlBlVdSCvrWAHIdC7OMadGW9Quuo_btfhaekjYEExjMlBYtlF7oreNiYydEBDeJrvH4eV2cCkjwYGLAHfuiylBwfesDcMPtJBcauuaLaczDeP2A9EVx2uX6a6AHAVXpkLn0WjygL1gqW9MhAEPg2fwuVd2FloZ8YBVcYe88tXDLEjeRMTYWcoPaMWnhgpH8ZV-4h2vH6m6liidkjZG2ZjMkM0q87xQ5lM4R78O9AcgEcedqJInNF1d1t-Bkgmh_Ua29WsSulu1do-5umwMu5aye1qCuFmVH6Hk6CowLlfMnQpyNHIDaKZ2Us5HDr19r9GjGhGY339jm4vTJvYIQic2vxW20AoY4XgBASziTDi-8-AmuJhSQVfKDslRXLHQErMN5CqhF4jIhbjhtwCZOfO9pw2UpjetezsmcWv-cHRK9btAtO5BXGEzA5Ek1hO8bFG_FNEo7zpCGbOOjaw2E4CjLftjKxwgWxObd3Wc6UTGciuQOAsmpp4Um5B7OC5xqbEK1VaneVXoQ6uR520fySWrW2zEMYgb7byurQxxDQBdgjodvpTtZua4K-zOzSuJTzNjPz5VPq1FVuZYqsCVdOgkXZTLPD9DfrQCxC3mcyxQ2oGZkgTeCUhAp2Gti8hZaFF4bnw6ajpNHs8RJRnNBrU1vJzNNXIyyn9FZsA4hZsbHEVcIQfWa7I5wBEeqJ6cRAZKTUUZ6VeaQ2xqNgZ4oR1bxVBqkMraprU8rwKz9s2VZIIdxvJmbQQ-ifwJjo3lESrysh-ZeqP9sVAxqIPvEUbvrSY9wWUgNo2VJAOh4hmSTzkRajES_jYu50yCOHdIzqgzaPouBtKaQwmHtxtFmMhG-slImGw5k1-fbVoNcnOkfm-RNOg2JwuVZNlHM7SioLogsZ_zFtOtVokIfcX-hgVQs_jQYQfsrBodCkNhiq-Qbv2IDkpqgEX71xbEmNoUMqs6SxG2VgM9LsrcH1MzsVCgfFLdwl1qycL_hoNC5Qro_sexQKEjHFnWBuzR4kZR_SiBkTIaDZ3TtRPvDHtJlDdGARajJjOQAKj0L_NT0LGegO8X4XithOXJy1m00]--></g></svg>