<?xml version="1.0" encoding="UTF-8" standalone="no"?><svg xmlns="http://www.w3.org/2000/svg" xmlns:xlink="http://www.w3.org/1999/xlink" contentStyleType="text/css" height="1741px" preserveAspectRatio="none" style="width:3766px;height:1741px;background:#FFFFFF;" version="1.1" viewBox="0 0 3766 1741" width="3766px" zoomAndPan="magnify"><defs/><g><text fill="#000000" font-family="sans-serif" font-size="14" font-weight="bold" lengthAdjust="spacing" textLength="277" x="1746.5" y="27.9951">Level 3 FE Diagram for Create Staff</text><rect fill="#FFFFFF" height="1508.9688" style="stroke:#181818;stroke-width:1.0;" width="10" x="36" y="135.5781"/><rect fill="#FFFFFF" height="930.75" style="stroke:#181818;stroke-width:1.0;" width="10" x="1134" y="164.8594"/><rect fill="#FFFFFF" height="502.6563" style="stroke:#181818;stroke-width:1.0;" width="10" x="1134" y="1132.8906"/><rect fill="#FFFFFF" height="37.2813" style="stroke:#181818;stroke-width:1.0;" width="10" x="1416" y="202.1406"/><rect fill="#FFFFFF" height="818.9063" style="stroke:#181818;stroke-width:1.0;" width="10" x="1770" y="239.4219"/><rect fill="#FFFFFF" height="428.0938" style="stroke:#181818;stroke-width:1.0;" width="10" x="1770" y="1170.1719"/><rect fill="#FFFFFF" height="353.5313" style="stroke:#181818;stroke-width:1.0;" width="10" x="2090" y="276.7031"/><rect fill="#FFFFFF" height="353.5313" style="stroke:#181818;stroke-width:1.0;" width="10" x="2090" y="667.5156"/><rect fill="#FFFFFF" height="353.5313" style="stroke:#181818;stroke-width:1.0;" width="10" x="2090" y="1207.4531"/><rect fill="#FFFFFF" height="278.9688" style="stroke:#181818;stroke-width:1.0;" width="10" x="2661" y="313.9844"/><rect fill="#FFFFFF" height="278.9688" style="stroke:#181818;stroke-width:1.0;" width="10" x="2661" y="704.7969"/><rect fill="#FFFFFF" height="278.9688" style="stroke:#181818;stroke-width:1.0;" width="10" x="2661" y="1244.7344"/><rect fill="#FFFFFF" height="87.5625" style="stroke:#181818;stroke-width:1.0;" width="10" x="3248" y="468.1094"/><rect fill="#FFFFFF" height="87.5625" style="stroke:#181818;stroke-width:1.0;" width="10" x="3248" y="858.9219"/><rect fill="#FFFFFF" height="87.5625" style="stroke:#181818;stroke-width:1.0;" width="10" x="3248" y="1398.8594"/><line style="stroke:#181818;stroke-width:0.5;stroke-dasharray:5.0,5.0;" x1="41" x2="41" y1="125.5781" y2="1653.5469"/><line style="stroke:#181818;stroke-width:0.5;stroke-dasharray:5.0,5.0;" x1="1138.5" x2="1138.5" y1="125.5781" y2="1653.5469"/><line style="stroke:#181818;stroke-width:0.5;stroke-dasharray:5.0,5.0;" x1="1420.5" x2="1420.5" y1="125.5781" y2="1653.5469"/><line style="stroke:#181818;stroke-width:0.5;stroke-dasharray:5.0,5.0;" x1="1775" x2="1775" y1="125.5781" y2="1653.5469"/><line style="stroke:#181818;stroke-width:0.5;stroke-dasharray:5.0,5.0;" x1="2095" x2="2095" y1="125.5781" y2="1653.5469"/><line style="stroke:#181818;stroke-width:0.5;stroke-dasharray:5.0,5.0;" x1="2665.5" x2="2665.5" y1="125.5781" y2="1653.5469"/><line style="stroke:#181818;stroke-width:0.5;stroke-dasharray:5.0,5.0;" x1="3253" x2="3253" y1="125.5781" y2="1653.5469"/><text fill="#000000" font-family="sans-serif" font-size="20" lengthAdjust="spacing" textLength="66" x="5" y="120.8613">Admin</text><ellipse cx="41" cy="50.7969" fill="#E2E2F0" rx="8" ry="8" style="stroke:#181818;stroke-width:0.5;"/><path d="M41,58.7969 L41,85.7969 M28,66.7969 L54,66.7969 M41,85.7969 L28,100.7969 M41,85.7969 L54,100.7969 " fill="none" style="stroke:#181818;stroke-width:0.5;"/><text fill="#000000" font-family="sans-serif" font-size="20" lengthAdjust="spacing" textLength="66" x="5" y="1671.1113">Admin</text><ellipse cx="41" cy="1684.3281" fill="#E2E2F0" rx="8" ry="8" style="stroke:#181818;stroke-width:0.5;"/><path d="M41,1692.3281 L41,1719.3281 M28,1700.3281 L54,1700.3281 M41,1719.3281 L28,1734.3281 M41,1719.3281 L54,1734.3281 " fill="none" style="stroke:#181818;stroke-width:0.5;"/><rect fill="#E2E2F0" height="37.2813" rx="2.5" ry="2.5" style="stroke:#181818;stroke-width:0.5;" width="63" x="1107.5" y="87.2969"/><text fill="#000000" font-family="sans-serif" font-size="20" lengthAdjust="spacing" textLength="49" x="1114.5" y="112.8613">View</text><rect fill="#E2E2F0" height="37.2813" rx="2.5" ry="2.5" style="stroke:#181818;stroke-width:0.5;" width="63" x="1107.5" y="1652.5469"/><text fill="#000000" font-family="sans-serif" font-size="20" lengthAdjust="spacing" textLength="49" x="1114.5" y="1678.1113">View</text><rect fill="#E2E2F0" height="37.2813" rx="2.5" ry="2.5" style="stroke:#181818;stroke-width:0.5;" width="257" x="1292.5" y="87.2969"/><text fill="#000000" font-family="sans-serif" font-size="20" lengthAdjust="spacing" textLength="243" x="1299.5" y="112.8613">SearchStaffsComponent</text><rect fill="#E2E2F0" height="37.2813" rx="2.5" ry="2.5" style="stroke:#181818;stroke-width:0.5;" width="257" x="1292.5" y="1652.5469"/><text fill="#000000" font-family="sans-serif" font-size="20" lengthAdjust="spacing" textLength="243" x="1299.5" y="1678.1113">SearchStaffsComponent</text><rect fill="#E2E2F0" height="37.2813" rx="2.5" ry="2.5" style="stroke:#181818;stroke-width:0.5;" width="244" x="1653" y="87.2969"/><text fill="#000000" font-family="sans-serif" font-size="20" lengthAdjust="spacing" textLength="230" x="1660" y="112.8613">CreateStaffComponent</text><rect fill="#E2E2F0" height="37.2813" rx="2.5" ry="2.5" style="stroke:#181818;stroke-width:0.5;" width="244" x="1653" y="1652.5469"/><text fill="#000000" font-family="sans-serif" font-size="20" lengthAdjust="spacing" textLength="230" x="1660" y="1678.1113">CreateStaffComponent</text><rect fill="#E2E2F0" height="37.2813" rx="2.5" ry="2.5" style="stroke:#181818;stroke-width:0.5;" width="134" x="2028" y="87.2969"/><text fill="#000000" font-family="sans-serif" font-size="20" lengthAdjust="spacing" textLength="120" x="2035" y="112.8613">StaffService</text><rect fill="#E2E2F0" height="37.2813" rx="2.5" ry="2.5" style="stroke:#181818;stroke-width:0.5;" width="134" x="2028" y="1652.5469"/><text fill="#000000" font-family="sans-serif" font-size="20" lengthAdjust="spacing" textLength="120" x="2035" y="1678.1113">StaffService</text><rect fill="#E2E2F0" height="37.2813" rx="2.5" ry="2.5" style="stroke:#181818;stroke-width:0.5;" width="173" x="2579.5" y="87.2969"/><text fill="#000000" font-family="sans-serif" font-size="20" lengthAdjust="spacing" textLength="159" x="2586.5" y="112.8613">AuthInterceptor</text><rect fill="#E2E2F0" height="37.2813" rx="2.5" ry="2.5" style="stroke:#181818;stroke-width:0.5;" width="173" x="2579.5" y="1652.5469"/><text fill="#000000" font-family="sans-serif" font-size="20" lengthAdjust="spacing" textLength="159" x="2586.5" y="1678.1113">AuthInterceptor</text><rect fill="#E2E2F0" height="37.2813" rx="2.5" ry="2.5" style="stroke:#181818;stroke-width:0.5;" width="60" x="3223" y="87.2969"/><text fill="#000000" font-family="sans-serif" font-size="20" lengthAdjust="spacing" textLength="46" x="3230" y="112.8613">MDR</text><rect fill="#E2E2F0" height="37.2813" rx="2.5" ry="2.5" style="stroke:#181818;stroke-width:0.5;" width="60" x="3223" y="1652.5469"/><text fill="#000000" font-family="sans-serif" font-size="20" lengthAdjust="spacing" textLength="46" x="3230" y="1678.1113">MDR</text><rect fill="#FFFFFF" height="1508.9688" style="stroke:#181818;stroke-width:1.0;" width="10" x="36" y="135.5781"/><rect fill="#FFFFFF" height="930.75" style="stroke:#181818;stroke-width:1.0;" width="10" x="1134" y="164.8594"/><rect fill="#FFFFFF" height="502.6563" style="stroke:#181818;stroke-width:1.0;" width="10" x="1134" y="1132.8906"/><rect fill="#FFFFFF" height="37.2813" style="stroke:#181818;stroke-width:1.0;" width="10" x="1416" y="202.1406"/><rect fill="#FFFFFF" height="818.9063" style="stroke:#181818;stroke-width:1.0;" width="10" x="1770" y="239.4219"/><rect fill="#FFFFFF" height="428.0938" style="stroke:#181818;stroke-width:1.0;" width="10" x="1770" y="1170.1719"/><rect fill="#FFFFFF" height="353.5313" style="stroke:#181818;stroke-width:1.0;" width="10" x="2090" y="276.7031"/><rect fill="#FFFFFF" height="353.5313" style="stroke:#181818;stroke-width:1.0;" width="10" x="2090" y="667.5156"/><rect fill="#FFFFFF" height="353.5313" style="stroke:#181818;stroke-width:1.0;" width="10" x="2090" y="1207.4531"/><rect fill="#FFFFFF" height="278.9688" style="stroke:#181818;stroke-width:1.0;" width="10" x="2661" y="313.9844"/><rect fill="#FFFFFF" height="278.9688" style="stroke:#181818;stroke-width:1.0;" width="10" x="2661" y="704.7969"/><rect fill="#FFFFFF" height="278.9688" style="stroke:#181818;stroke-width:1.0;" width="10" x="2661" y="1244.7344"/><rect fill="#FFFFFF" height="87.5625" style="stroke:#181818;stroke-width:1.0;" width="10" x="3248" y="468.1094"/><rect fill="#FFFFFF" height="87.5625" style="stroke:#181818;stroke-width:1.0;" width="10" x="3248" y="858.9219"/><rect fill="#FFFFFF" height="87.5625" style="stroke:#181818;stroke-width:1.0;" width="10" x="3248" y="1398.8594"/><polygon fill="#000000" points="1122,160.8594,1132,164.8594,1122,168.8594,1126,164.8594" style="stroke:#000000;stroke-width:1.0;"/><line style="stroke:#000000;stroke-width:1.0;" x1="46" x2="1128" y1="164.8594" y2="164.8594"/><text fill="#000000" font-family="sans-serif" font-size="20" lengthAdjust="spacing" textLength="212" x="53" y="158.1426">Asks to create a Staff</text><polygon fill="#000000" points="1404,198.1406,1414,202.1406,1404,206.1406,1408,202.1406" style="stroke:#000000;stroke-width:1.0;"/><line style="stroke:#000000;stroke-width:1.0;" x1="1144" x2="1410" y1="202.1406" y2="202.1406"/><text fill="#000000" font-family="sans-serif" font-size="20" lengthAdjust="spacing" textLength="253" x="1151" y="195.4238">routerLink='/create-staff'</text><polygon fill="#000000" points="1758,235.4219,1768,239.4219,1758,243.4219,1762,239.4219" style="stroke:#000000;stroke-width:1.0;"/><line style="stroke:#000000;stroke-width:1.0;" x1="1421" x2="1764" y1="239.4219" y2="239.4219"/><text fill="#000000" font-family="sans-serif" font-size="20" lengthAdjust="spacing" textLength="325" x="1428" y="232.7051">routes to CreateStaffComponent</text><polygon fill="#000000" points="2078,272.7031,2088,276.7031,2078,280.7031,2082,276.7031" style="stroke:#000000;stroke-width:1.0;"/><line style="stroke:#000000;stroke-width:1.0;" x1="1780" x2="2084" y1="276.7031" y2="276.7031"/><text fill="#000000" font-family="sans-serif" font-size="20" lengthAdjust="spacing" textLength="210" x="1787" y="269.9863">loadSpecializations()</text><polygon fill="#000000" points="2649,309.9844,2659,313.9844,2649,317.9844,2653,313.9844" style="stroke:#000000;stroke-width:1.0;"/><line style="stroke:#000000;stroke-width:1.0;" x1="2100" x2="2655" y1="313.9844" y2="313.9844"/><text fill="#000000" font-family="sans-serif" font-size="20" lengthAdjust="spacing" textLength="458" x="2107" y="307.2676">Sends HTTP Request to get all Specializations</text><line style="stroke:#000000;stroke-width:1.0;" x1="2671" x2="2713" y1="351.2656" y2="351.2656"/><line style="stroke:#000000;stroke-width:1.0;" x1="2713" x2="2713" y1="351.2656" y2="364.2656"/><line style="stroke:#000000;stroke-width:1.0;" x1="2672" x2="2713" y1="364.2656" y2="364.2656"/><polygon fill="#000000" points="2682,360.2656,2672,364.2656,2682,368.2656,2678,364.2656" style="stroke:#000000;stroke-width:1.0;"/><text fill="#000000" font-family="sans-serif" font-size="20" lengthAdjust="spacing" textLength="563" x="2678" y="344.5488">Intercepts the request and adds the token to the header</text><path d="M2676,377.2656 L2676,433.2656 L3195,433.2656 L3195,387.2656 L3185,377.2656 L2676,377.2656 " fill="#FEFFDD" style="stroke:#181818;stroke-width:0.5;"/><path d="M3185,377.2656 L3185,387.2656 L3195,387.2656 L3185,377.2656 " fill="#FEFFDD" style="stroke:#181818;stroke-width:0.5;"/><text fill="#000000" font-family="sans-serif" font-size="20" lengthAdjust="spacing" textLength="498" x="2682" y="400.8301">The token is added to the header so that the MDR</text><text fill="#000000" font-family="sans-serif" font-size="20" lengthAdjust="spacing" textLength="442" x="2682" y="424.1113">can authenticate and authorize the request.</text><polygon fill="#000000" points="3236,464.1094,3246,468.1094,3236,472.1094,3240,468.1094" style="stroke:#000000;stroke-width:1.0;"/><line style="stroke:#000000;stroke-width:1.0;" x1="2671" x2="3242" y1="468.1094" y2="468.1094"/><text fill="#000000" font-family="sans-serif" font-size="20" lengthAdjust="spacing" textLength="190" x="2678" y="461.3926">getSpecialization()</text><line style="stroke:#000000;stroke-width:1.0;" x1="3258" x2="3300" y1="505.3906" y2="505.3906"/><line style="stroke:#000000;stroke-width:1.0;" x1="3300" x2="3300" y1="505.3906" y2="518.3906"/><line style="stroke:#000000;stroke-width:1.0;" x1="3259" x2="3300" y1="518.3906" y2="518.3906"/><polygon fill="#000000" points="3269,514.3906,3259,518.3906,3269,522.3906,3265,518.3906" style="stroke:#000000;stroke-width:1.0;"/><text fill="#000000" font-family="sans-serif" font-size="20" lengthAdjust="spacing" textLength="321" x="3265" y="498.6738">Tries to get Specializations data</text><polygon fill="#000000" points="2682,551.6719,2672,555.6719,2682,559.6719,2678,555.6719" style="stroke:#000000;stroke-width:1.0;"/><line style="stroke:#000000;stroke-width:1.0;stroke-dasharray:2.0,2.0;" x1="2676" x2="3252" y1="555.6719" y2="555.6719"/><text fill="#000000" font-family="sans-serif" font-size="20" lengthAdjust="spacing" textLength="286" x="2688" y="548.9551">Returns Specializations data</text><polygon fill="#000000" points="2111,588.9531,2101,592.9531,2111,596.9531,2107,592.9531" style="stroke:#000000;stroke-width:1.0;"/><line style="stroke:#000000;stroke-width:1.0;stroke-dasharray:2.0,2.0;" x1="2105" x2="2665" y1="592.9531" y2="592.9531"/><text fill="#000000" font-family="sans-serif" font-size="20" lengthAdjust="spacing" textLength="286" x="2117" y="586.2363">Returns Specializations data</text><polygon fill="#000000" points="1791,626.2344,1781,630.2344,1791,634.2344,1787,630.2344" style="stroke:#000000;stroke-width:1.0;"/><line style="stroke:#000000;stroke-width:1.0;stroke-dasharray:2.0,2.0;" x1="1785" x2="2094" y1="630.2344" y2="630.2344"/><text fill="#000000" font-family="sans-serif" font-size="20" lengthAdjust="spacing" textLength="286" x="1797" y="623.5176">Returns Specializations data</text><polygon fill="#000000" points="2078,663.5156,2088,667.5156,2078,671.5156,2082,667.5156" style="stroke:#000000;stroke-width:1.0;"/><line style="stroke:#000000;stroke-width:1.0;" x1="1780" x2="2084" y1="667.5156" y2="667.5156"/><text fill="#000000" font-family="sans-serif" font-size="20" lengthAdjust="spacing" textLength="164" x="1787" y="660.7988">loadStaffTypes()</text><polygon fill="#000000" points="2649,700.7969,2659,704.7969,2649,708.7969,2653,704.7969" style="stroke:#000000;stroke-width:1.0;"/><line style="stroke:#000000;stroke-width:1.0;" x1="2100" x2="2655" y1="704.7969" y2="704.7969"/><text fill="#000000" font-family="sans-serif" font-size="20" lengthAdjust="spacing" textLength="381" x="2107" y="698.0801">Sends HTTP Request to get staff types</text><line style="stroke:#000000;stroke-width:1.0;" x1="2671" x2="2713" y1="742.0781" y2="742.0781"/><line style="stroke:#000000;stroke-width:1.0;" x1="2713" x2="2713" y1="742.0781" y2="755.0781"/><line style="stroke:#000000;stroke-width:1.0;" x1="2672" x2="2713" y1="755.0781" y2="755.0781"/><polygon fill="#000000" points="2682,751.0781,2672,755.0781,2682,759.0781,2678,755.0781" style="stroke:#000000;stroke-width:1.0;"/><text fill="#000000" font-family="sans-serif" font-size="20" lengthAdjust="spacing" textLength="563" x="2678" y="735.3613">Intercepts the request and adds the token to the header</text><path d="M2676,768.0781 L2676,824.0781 L3195,824.0781 L3195,778.0781 L3185,768.0781 L2676,768.0781 " fill="#FEFFDD" style="stroke:#181818;stroke-width:0.5;"/><path d="M3185,768.0781 L3185,778.0781 L3195,778.0781 L3185,768.0781 " fill="#FEFFDD" style="stroke:#181818;stroke-width:0.5;"/><text fill="#000000" font-family="sans-serif" font-size="20" lengthAdjust="spacing" textLength="498" x="2682" y="791.6426">The token is added to the header so that the MDR</text><text fill="#000000" font-family="sans-serif" font-size="20" lengthAdjust="spacing" textLength="442" x="2682" y="814.9238">can authenticate and authorize the request.</text><polygon fill="#000000" points="3236,854.9219,3246,858.9219,3236,862.9219,3240,858.9219" style="stroke:#000000;stroke-width:1.0;"/><line style="stroke:#000000;stroke-width:1.0;" x1="2671" x2="3242" y1="858.9219" y2="858.9219"/><text fill="#000000" font-family="sans-serif" font-size="20" lengthAdjust="spacing" textLength="154" x="2678" y="852.2051">getStaffTypes()</text><line style="stroke:#000000;stroke-width:1.0;" x1="3258" x2="3300" y1="896.2031" y2="896.2031"/><line style="stroke:#000000;stroke-width:1.0;" x1="3300" x2="3300" y1="896.2031" y2="909.2031"/><line style="stroke:#000000;stroke-width:1.0;" x1="3259" x2="3300" y1="909.2031" y2="909.2031"/><polygon fill="#000000" points="3269,905.2031,3259,909.2031,3269,913.2031,3265,909.2031" style="stroke:#000000;stroke-width:1.0;"/><text fill="#000000" font-family="sans-serif" font-size="20" lengthAdjust="spacing" textLength="291" x="3265" y="889.4863">Tries to get Staffs Types data</text><polygon fill="#000000" points="2682,942.4844,2672,946.4844,2682,950.4844,2678,946.4844" style="stroke:#000000;stroke-width:1.0;"/><line style="stroke:#000000;stroke-width:1.0;stroke-dasharray:2.0,2.0;" x1="2676" x2="3252" y1="946.4844" y2="946.4844"/><text fill="#000000" font-family="sans-serif" font-size="20" lengthAdjust="spacing" textLength="256" x="2688" y="939.7676">Returns Staffs Types data</text><polygon fill="#000000" points="2111,979.7656,2101,983.7656,2111,987.7656,2107,983.7656" style="stroke:#000000;stroke-width:1.0;"/><line style="stroke:#000000;stroke-width:1.0;stroke-dasharray:2.0,2.0;" x1="2105" x2="2665" y1="983.7656" y2="983.7656"/><text fill="#000000" font-family="sans-serif" font-size="20" lengthAdjust="spacing" textLength="256" x="2117" y="977.0488">Returns Staffs Types data</text><polygon fill="#000000" points="1791,1017.0469,1781,1021.0469,1791,1025.0469,1787,1021.0469" style="stroke:#000000;stroke-width:1.0;"/><line style="stroke:#000000;stroke-width:1.0;stroke-dasharray:2.0,2.0;" x1="1785" x2="2094" y1="1021.0469" y2="1021.0469"/><text fill="#000000" font-family="sans-serif" font-size="20" lengthAdjust="spacing" textLength="256" x="1797" y="1014.3301">Returns Staffs Types data</text><polygon fill="#000000" points="1155,1054.3281,1145,1058.3281,1155,1062.3281,1151,1058.3281" style="stroke:#000000;stroke-width:1.0;"/><line style="stroke:#000000;stroke-width:1.0;stroke-dasharray:2.0,2.0;" x1="1149" x2="1774" y1="1058.3281" y2="1058.3281"/><text fill="#000000" font-family="sans-serif" font-size="20" lengthAdjust="spacing" textLength="308" x="1161" y="1051.6113">returns CreateStaffComponent</text><polygon fill="#000000" points="57,1091.6094,47,1095.6094,57,1099.6094,53,1095.6094" style="stroke:#000000;stroke-width:1.0;"/><line style="stroke:#000000;stroke-width:1.0;stroke-dasharray:2.0,2.0;" x1="51" x2="1138" y1="1095.6094" y2="1095.6094"/><text fill="#000000" font-family="sans-serif" font-size="20" lengthAdjust="spacing" textLength="199" x="63" y="1088.8926">Asks for Staff's data</text><polygon fill="#000000" points="1122,1128.8906,1132,1132.8906,1122,1136.8906,1126,1132.8906" style="stroke:#000000;stroke-width:1.0;"/><line style="stroke:#000000;stroke-width:1.0;" x1="46" x2="1128" y1="1132.8906" y2="1132.8906"/><text fill="#000000" font-family="sans-serif" font-size="20" lengthAdjust="spacing" textLength="1069" x="53" y="1126.1738">Sends Staff's data (FirstName, LastName, FullName, Email, PhoneNumber, StaffType, SpecializationName)</text><polygon fill="#000000" points="1758,1166.1719,1768,1170.1719,1758,1174.1719,1762,1170.1719" style="stroke:#000000;stroke-width:1.0;"/><line style="stroke:#000000;stroke-width:1.0;" x1="1144" x2="1764" y1="1170.1719" y2="1170.1719"/><text fill="#000000" font-family="sans-serif" font-size="20" lengthAdjust="spacing" textLength="114" x="1151" y="1163.4551">onSubmit()</text><polygon fill="#000000" points="2078,1203.4531,2088,1207.4531,2078,1211.4531,2082,1207.4531" style="stroke:#000000;stroke-width:1.0;"/><line style="stroke:#000000;stroke-width:1.0;" x1="1780" x2="2084" y1="1207.4531" y2="1207.4531"/><text fill="#000000" font-family="sans-serif" font-size="20" lengthAdjust="spacing" textLength="258" x="1787" y="1200.7363">createStaff(this.newStaff)</text><polygon fill="#000000" points="2649,1240.7344,2659,1244.7344,2649,1248.7344,2653,1244.7344" style="stroke:#000000;stroke-width:1.0;"/><line style="stroke:#000000;stroke-width:1.0;" x1="2100" x2="2655" y1="1244.7344" y2="1244.7344"/><text fill="#000000" font-family="sans-serif" font-size="20" lengthAdjust="spacing" textLength="542" x="2107" y="1238.0176">Sends HTTP Request to create a Staff with Staff's data</text><line style="stroke:#000000;stroke-width:1.0;" x1="2671" x2="2713" y1="1282.0156" y2="1282.0156"/><line style="stroke:#000000;stroke-width:1.0;" x1="2713" x2="2713" y1="1282.0156" y2="1295.0156"/><line style="stroke:#000000;stroke-width:1.0;" x1="2672" x2="2713" y1="1295.0156" y2="1295.0156"/><polygon fill="#000000" points="2682,1291.0156,2672,1295.0156,2682,1299.0156,2678,1295.0156" style="stroke:#000000;stroke-width:1.0;"/><text fill="#000000" font-family="sans-serif" font-size="20" lengthAdjust="spacing" textLength="563" x="2678" y="1275.2988">Intercepts the request and adds the token to the header</text><path d="M2676,1308.0156 L2676,1364.0156 L3195,1364.0156 L3195,1318.0156 L3185,1308.0156 L2676,1308.0156 " fill="#FEFFDD" style="stroke:#181818;stroke-width:0.5;"/><path d="M3185,1308.0156 L3185,1318.0156 L3195,1318.0156 L3185,1308.0156 " fill="#FEFFDD" style="stroke:#181818;stroke-width:0.5;"/><text fill="#000000" font-family="sans-serif" font-size="20" lengthAdjust="spacing" textLength="498" x="2682" y="1331.5801">The token is added to the header so that the MDR</text><text fill="#000000" font-family="sans-serif" font-size="20" lengthAdjust="spacing" textLength="442" x="2682" y="1354.8613">can authenticate and authorize the request.</text><polygon fill="#000000" points="3236,1394.8594,3246,1398.8594,3236,1402.8594,3240,1398.8594" style="stroke:#000000;stroke-width:1.0;"/><line style="stroke:#000000;stroke-width:1.0;" x1="2671" x2="3242" y1="1398.8594" y2="1398.8594"/><text fill="#000000" font-family="sans-serif" font-size="20" lengthAdjust="spacing" textLength="485" x="2678" y="1392.1426">Sends HTTP Request with token to create a Staff</text><line style="stroke:#000000;stroke-width:1.0;" x1="3258" x2="3300" y1="1436.1406" y2="1436.1406"/><line style="stroke:#000000;stroke-width:1.0;" x1="3300" x2="3300" y1="1436.1406" y2="1449.1406"/><line style="stroke:#000000;stroke-width:1.0;" x1="3259" x2="3300" y1="1449.1406" y2="1449.1406"/><polygon fill="#000000" points="3269,1445.1406,3259,1449.1406,3269,1453.1406,3265,1449.1406" style="stroke:#000000;stroke-width:1.0;"/><text fill="#000000" font-family="sans-serif" font-size="20" lengthAdjust="spacing" textLength="494" x="3265" y="1429.4238">Validates Staff's data and tries to create the Staff</text><polygon fill="#000000" points="2682,1482.4219,2672,1486.4219,2682,1490.4219,2678,1486.4219" style="stroke:#000000;stroke-width:1.0;"/><line style="stroke:#000000;stroke-width:1.0;stroke-dasharray:2.0,2.0;" x1="2676" x2="3252" y1="1486.4219" y2="1486.4219"/><text fill="#000000" font-family="sans-serif" font-size="20" lengthAdjust="spacing" textLength="311" x="2688" y="1479.7051">Returns Operation Status Code</text><polygon fill="#000000" points="2111,1519.7031,2101,1523.7031,2111,1527.7031,2107,1523.7031" style="stroke:#000000;stroke-width:1.0;"/><line style="stroke:#000000;stroke-width:1.0;stroke-dasharray:2.0,2.0;" x1="2105" x2="2665" y1="1523.7031" y2="1523.7031"/><text fill="#000000" font-family="sans-serif" font-size="20" lengthAdjust="spacing" textLength="311" x="2117" y="1516.9863">Returns Operation Status Code</text><polygon fill="#000000" points="1791,1556.9844,1781,1560.9844,1791,1564.9844,1787,1560.9844" style="stroke:#000000;stroke-width:1.0;"/><line style="stroke:#000000;stroke-width:1.0;stroke-dasharray:2.0,2.0;" x1="1785" x2="2094" y1="1560.9844" y2="1560.9844"/><text fill="#000000" font-family="sans-serif" font-size="20" lengthAdjust="spacing" textLength="286" x="1797" y="1554.2676">Returns Operation Response</text><polygon fill="#000000" points="1155,1594.2656,1145,1598.2656,1155,1602.2656,1151,1598.2656" style="stroke:#000000;stroke-width:1.0;"/><line style="stroke:#000000;stroke-width:1.0;stroke-dasharray:2.0,2.0;" x1="1149" x2="1774" y1="1598.2656" y2="1598.2656"/><text fill="#000000" font-family="sans-serif" font-size="20" lengthAdjust="spacing" textLength="380" x="1161" y="1591.5488">Returns Operation In/Sucess message</text><polygon fill="#000000" points="57,1631.5469,47,1635.5469,57,1639.5469,53,1635.5469" style="stroke:#000000;stroke-width:1.0;"/><line style="stroke:#000000;stroke-width:1.0;stroke-dasharray:2.0,2.0;" x1="51" x2="1138" y1="1635.5469" y2="1635.5469"/><text fill="#000000" font-family="sans-serif" font-size="20" lengthAdjust="spacing" textLength="380" x="63" y="1628.8301">Returns Operation In/Sucess message</text><!--SRC=[tLRBRjim4BppAnRD8GcGf6sAle8qWFmGQY1k0ylGdP7M5ck9L4agHblqtxkaPFcbf6wFCM13ecUMkxEpbCn2o99hNkGgMM0AASvubTjGIHk9dmYNhnYpmkO8j_Y0ERo1S0W3mUT4WPdIqDV8BK9a-Mp6M2PI12nA-mCABEvH6yRCQWj8ScuC_690dnvF5dEjAfdsLQxqzVK3polyUlyD4tjp0qU3TyCW_D0DrKfvJ3WOzWQlkZ46zOD8q8Tw7LuEUrqm2Z4CFmxV-_y2hTMoNkxbX6E_DtClQONFiJjxE1hsmhTXpr5uOcaXI0iXWHi86F6jI4J9fOKNiS3b2xSURwz7o7MIUHLDNnMbaYYj1uwZRMGjk4Tk0_ixG0-9QXay8De119NDHjAYJh2ad3qc66rZneD9dSLWuaiJ3wxR0GlW_0RYAmZCme1LaDGsu8qHMcJCOeSSHrT0Sj5Ujq8kFXs_hF7dng6Frt0gTXmvGdz5yD6xQcOfRjBQQvA1zNsCY6BaYgTHYOdWkVZ9hL3Id9okmIH9vB71w0eYbAc1pzFf7KpmUuN6khtdQ87dEUn4sH1Zn8BHAaQh9-MT8UWc3fSfy3Ij5wrQe7IXtKs6F4NDfA98Mimp2shcGZgNJLkmC8vEyxd50kFkkFLBhaEEb73o7NMM91A9xudRcnQKTWEzaTK5euB1xTmKG26kNBtRfMxgvJQXRmkUQb5toAcqen2atF8QtOWpGLjf-gCJkDbEsiLbrFJmK1gfvfhPkETGLhJl5-UpwOyI_ySgtj5W7VjPMwHJewVjuGytyAGzRxJTsWCTu8kdE8-OuYdAoX7r2QSRoj_E83ftuhgQvbHqJqSFFzxV8cuFqDf9cpWu2OKszWily0nk-UeghFAylXeMNEHdS9TH3bygzvGzWxOVPpk6TvJJlVFOQQ5aLDqNmcusa8fOpqAohlZ4Pi9SI5pwkt-RYkr70oo5pRPrUQvZqY67BxxD-h67vkuOnTHDKWftVEBIiQi9QsAvfEfeNGVlrnArTuN3s8fChL8yOCB-okkUiZLjWeOcnk3EcAsdR9yoaY-ZAa5wOIpeXrwz7XksVwJ6x0y0]--></g></svg>