<?xml version="1.0" encoding="UTF-8" standalone="no"?><svg xmlns="http://www.w3.org/2000/svg" xmlns:xlink="http://www.w3.org/1999/xlink" contentStyleType="text/css" height="1257px" preserveAspectRatio="none" style="width:3145px;height:1257px;background:#FFFFFF;" version="1.1" viewBox="0 0 3145 1257" width="3145px" zoomAndPan="magnify"><defs><filter height="300%" id="f1570ddmsl2pxk" width="300%" x="-1" y="-1"><feGaussianBlur result="blurOut" stdDeviation="2.0"/><feColorMatrix in="blurOut" result="blurOut2" type="matrix" values="0 0 0 0 0 0 0 0 0 0 0 0 0 0 0 0 0 0 .4 0"/><feOffset dx="4.0" dy="4.0" in="blurOut2" result="blurOut3"/><feBlend in="SourceGraphic" in2="blurOut3" mode="normal"/></filter></defs><g><rect fill="#FFFFFF" filter="url(#f1570ddmsl2pxk)" height="1059.875" style="stroke:#181818;stroke-width:1.0;" width="10" x="51" y="101.2813"/><rect fill="#FFFFFF" filter="url(#f1570ddmsl2pxk)" height="37.2813" style="stroke:#181818;stroke-width:1.0;" width="10" x="508" y="130.5625"/><rect fill="#FFFFFF" filter="url(#f1570ddmsl2pxk)" height="216.6875" style="stroke:#181818;stroke-width:1.0;" width="10" x="508" y="205.125"/><rect fill="#FFFFFF" filter="url(#f1570ddmsl2pxk)" height="165.4063" style="stroke:#181818;stroke-width:1.0;" width="10" x="874" y="242.4063"/><rect fill="#FFFFFF" filter="url(#f1570ddmsl2pxk)" height="128.125" style="stroke:#181818;stroke-width:1.0;" width="10" x="1525" y="279.6875"/><rect fill="#FFFFFF" filter="url(#f1570ddmsl2pxk)" height="37.2813" style="stroke:#181818;stroke-width:1.0;" width="10" x="2353" y="853.9063"/><rect fill="#FFFFFF" filter="url(#f1570ddmsl2pxk)" height="124.8438" style="stroke:#181818;stroke-width:1.0;" width="10" x="2497" y="691.7813"/><rect fill="#FFFFFF" filter="url(#f1570ddmsl2pxk)" height="37.2813" style="stroke:#181818;stroke-width:1.0;" width="10" x="2659.5" y="542.6563"/><rect fill="#FFFFFF" filter="url(#f1570ddmsl2pxk)" height="37.2813" style="stroke:#181818;stroke-width:1.0;" width="10" x="2659.5" y="617.2188"/><rect fill="#FFFFFF" filter="url(#f1570ddmsl2pxk)" height="37.2813" style="stroke:#181818;stroke-width:1.0;" width="10" x="2659.5" y="928.4688"/><rect fill="#FFFFFF" filter="url(#f1570ddmsl2pxk)" height="43.2813" style="stroke:#181818;stroke-width:1.0;" width="10" x="2979" y="729.0625"/><rect fill="#FFFFFF" filter="url(#f1570ddmsl2pxk)" height="37.2813" style="stroke:#181818;stroke-width:1.0;" width="10" x="3075.5" y="1003.0313"/><rect fill="none" filter="url(#f1570ddmsl2pxk)" height="161.4063" style="stroke:#000000;stroke-width:1.5;" width="1597.5" x="10" y="344.9688"/><line style="stroke:#181818;stroke-width:0.5;stroke-dasharray:5.0,5.0;" x1="56" x2="56" y1="91.2813" y2="1170.1563"/><line style="stroke:#181818;stroke-width:0.5;stroke-dasharray:5.0,5.0;" x1="512.5" x2="512.5" y1="91.2813" y2="1170.1563"/><line style="stroke:#181818;stroke-width:0.5;stroke-dasharray:5.0,5.0;" x1="878.5" x2="878.5" y1="91.2813" y2="1170.1563"/><line style="stroke:#181818;stroke-width:0.5;stroke-dasharray:5.0,5.0;" x1="1529.5" x2="1529.5" y1="91.2813" y2="1170.1563"/><line style="stroke:#181818;stroke-width:0.5;stroke-dasharray:5.0,5.0;" x1="2357.5" x2="2357.5" y1="91.2813" y2="1170.1563"/><line style="stroke:#181818;stroke-width:0.5;stroke-dasharray:5.0,5.0;" x1="2501.5" x2="2501.5" y1="91.2813" y2="1170.1563"/><line style="stroke:#181818;stroke-width:0.5;stroke-dasharray:5.0,5.0;" x1="2664.5" x2="2664.5" y1="91.2813" y2="1170.1563"/><line style="stroke:#181818;stroke-width:0.5;stroke-dasharray:5.0,5.0;" x1="2984" x2="2984" y1="91.2813" y2="1170.1563"/><line style="stroke:#181818;stroke-width:0.5;stroke-dasharray:5.0,5.0;" x1="3080" x2="3080" y1="91.2813" y2="1170.1563"/><text fill="#000000" font-family="FG Virgil" font-size="20" lengthAdjust="spacing" textLength="66" x="20" y="86.5645">Admin</text><ellipse cx="56" cy="13.5" fill="#E2E2F0" filter="url(#f1570ddmsl2pxk)" rx="8" ry="8" style="stroke:#181818;stroke-width:0.5;"/><path d="M56,21.5 L56,48.5 M43,29.5 L69,29.5 M56,48.5 L43,63.5 M56,48.5 L69,63.5 " fill="none" filter="url(#f1570ddmsl2pxk)" style="stroke:#181818;stroke-width:0.5;"/><text fill="#000000" font-family="FG Virgil" font-size="20" lengthAdjust="spacing" textLength="66" x="20" y="1187.7207">Admin</text><ellipse cx="56" cy="1200.9375" fill="#E2E2F0" filter="url(#f1570ddmsl2pxk)" rx="8" ry="8" style="stroke:#181818;stroke-width:0.5;"/><path d="M56,1208.9375 L56,1235.9375 M43,1216.9375 L69,1216.9375 M56,1235.9375 L43,1250.9375 M56,1235.9375 L69,1250.9375 " fill="none" filter="url(#f1570ddmsl2pxk)" style="stroke:#181818;stroke-width:0.5;"/><rect fill="#E2E2F0" filter="url(#f1570ddmsl2pxk)" height="37.2813" rx="2.5" ry="2.5" style="stroke:#181818;stroke-width:0.5;" width="154" x="434.5" y="50"/><text fill="#000000" font-family="FG Virgil" font-size="20" lengthAdjust="spacing" textLength="140" x="441.5" y="75.5645">User Interface</text><rect fill="#E2E2F0" filter="url(#f1570ddmsl2pxk)" height="37.2813" rx="2.5" ry="2.5" style="stroke:#181818;stroke-width:0.5;" width="154" x="434.5" y="1169.1563"/><text fill="#000000" font-family="FG Virgil" font-size="20" lengthAdjust="spacing" textLength="140" x="441.5" y="1194.7207">User Interface</text><rect fill="#E2E2F0" filter="url(#f1570ddmsl2pxk)" height="37.2813" rx="2.5" ry="2.5" style="stroke:#181818;stroke-width:0.5;" width="158" x="798.5" y="50"/><text fill="#000000" font-family="FG Virgil" font-size="20" lengthAdjust="spacing" textLength="144" x="805.5" y="75.5645">UserController</text><rect fill="#E2E2F0" filter="url(#f1570ddmsl2pxk)" height="37.2813" rx="2.5" ry="2.5" style="stroke:#181818;stroke-width:0.5;" width="158" x="798.5" y="1169.1563"/><text fill="#000000" font-family="FG Virgil" font-size="20" lengthAdjust="spacing" textLength="144" x="805.5" y="1194.7207">UserController</text><rect fill="#E2E2F0" filter="url(#f1570ddmsl2pxk)" height="37.2813" rx="2.5" ry="2.5" style="stroke:#181818;stroke-width:0.5;" width="132" x="1462.5" y="50"/><text fill="#000000" font-family="FG Virgil" font-size="20" lengthAdjust="spacing" textLength="118" x="1469.5" y="75.5645">UserService</text><rect fill="#E2E2F0" filter="url(#f1570ddmsl2pxk)" height="37.2813" rx="2.5" ry="2.5" style="stroke:#181818;stroke-width:0.5;" width="132" x="1462.5" y="1169.1563"/><text fill="#000000" font-family="FG Virgil" font-size="20" lengthAdjust="spacing" textLength="118" x="1469.5" y="1194.7207">UserService</text><rect fill="#E2E2F0" filter="url(#f1570ddmsl2pxk)" height="37.2813" rx="2.5" ry="2.5" style="stroke:#181818;stroke-width:0.5;" width="128" x="2292.5" y="50"/><text fill="#000000" font-family="FG Virgil" font-size="20" lengthAdjust="spacing" textLength="114" x="2299.5" y="75.5645">MailService</text><rect fill="#E2E2F0" filter="url(#f1570ddmsl2pxk)" height="37.2813" rx="2.5" ry="2.5" style="stroke:#181818;stroke-width:0.5;" width="128" x="2292.5" y="1169.1563"/><text fill="#000000" font-family="FG Virgil" font-size="20" lengthAdjust="spacing" textLength="114" x="2299.5" y="1194.7207">MailService</text><rect fill="#E2E2F0" filter="url(#f1570ddmsl2pxk)" height="37.2813" rx="2.5" ry="2.5" style="stroke:#181818;stroke-width:0.5;" width="134" x="2433.5" y="50"/><text fill="#000000" font-family="FG Virgil" font-size="20" lengthAdjust="spacing" textLength="120" x="2440.5" y="75.5645">UserMapper</text><rect fill="#E2E2F0" filter="url(#f1570ddmsl2pxk)" height="37.2813" rx="2.5" ry="2.5" style="stroke:#181818;stroke-width:0.5;" width="134" x="2433.5" y="1169.1563"/><text fill="#000000" font-family="FG Virgil" font-size="20" lengthAdjust="spacing" textLength="120" x="2440.5" y="1194.7207">UserMapper</text><rect fill="#E2E2F0" filter="url(#f1570ddmsl2pxk)" height="37.2813" rx="2.5" ry="2.5" style="stroke:#181818;stroke-width:0.5;" width="165" x="2580.5" y="50"/><text fill="#000000" font-family="FG Virgil" font-size="20" lengthAdjust="spacing" textLength="151" x="2587.5" y="75.5645">UserRepository</text><rect fill="#E2E2F0" filter="url(#f1570ddmsl2pxk)" height="37.2813" rx="2.5" ry="2.5" style="stroke:#181818;stroke-width:0.5;" width="165" x="2580.5" y="1169.1563"/><text fill="#000000" font-family="FG Virgil" font-size="20" lengthAdjust="spacing" textLength="151" x="2587.5" y="1194.7207">UserRepository</text><rect fill="#E2E2F0" filter="url(#f1570ddmsl2pxk)" height="37.2813" rx="2.5" ry="2.5" style="stroke:#181818;stroke-width:0.5;" width="59" x="2953" y="50"/><text fill="#000000" font-family="FG Virgil" font-size="20" lengthAdjust="spacing" textLength="45" x="2960" y="75.5645">User</text><rect fill="#E2E2F0" filter="url(#f1570ddmsl2pxk)" height="37.2813" rx="2.5" ry="2.5" style="stroke:#181818;stroke-width:0.5;" width="59" x="2953" y="1169.1563"/><text fill="#000000" font-family="FG Virgil" font-size="20" lengthAdjust="spacing" textLength="45" x="2960" y="1194.7207">User</text><rect fill="#E2E2F0" filter="url(#f1570ddmsl2pxk)" height="37.2813" rx="2.5" ry="2.5" style="stroke:#181818;stroke-width:0.5;" width="108" x="3025" y="50"/><text fill="#000000" font-family="FG Virgil" font-size="20" lengthAdjust="spacing" textLength="94" x="3032" y="75.5645">Database</text><rect fill="#E2E2F0" filter="url(#f1570ddmsl2pxk)" height="37.2813" rx="2.5" ry="2.5" style="stroke:#181818;stroke-width:0.5;" width="108" x="3025" y="1169.1563"/><text fill="#000000" font-family="FG Virgil" font-size="20" lengthAdjust="spacing" textLength="94" x="3032" y="1194.7207">Database</text><rect fill="#FFFFFF" filter="url(#f1570ddmsl2pxk)" height="1059.875" style="stroke:#181818;stroke-width:1.0;" width="10" x="51" y="101.2813"/><rect fill="#FFFFFF" filter="url(#f1570ddmsl2pxk)" height="37.2813" style="stroke:#181818;stroke-width:1.0;" width="10" x="508" y="130.5625"/><rect fill="#FFFFFF" filter="url(#f1570ddmsl2pxk)" height="216.6875" style="stroke:#181818;stroke-width:1.0;" width="10" x="508" y="205.125"/><rect fill="#FFFFFF" filter="url(#f1570ddmsl2pxk)" height="165.4063" style="stroke:#181818;stroke-width:1.0;" width="10" x="874" y="242.4063"/><rect fill="#FFFFFF" filter="url(#f1570ddmsl2pxk)" height="128.125" style="stroke:#181818;stroke-width:1.0;" width="10" x="1525" y="279.6875"/><rect fill="#FFFFFF" filter="url(#f1570ddmsl2pxk)" height="37.2813" style="stroke:#181818;stroke-width:1.0;" width="10" x="2353" y="853.9063"/><rect fill="#FFFFFF" filter="url(#f1570ddmsl2pxk)" height="124.8438" style="stroke:#181818;stroke-width:1.0;" width="10" x="2497" y="691.7813"/><rect fill="#FFFFFF" filter="url(#f1570ddmsl2pxk)" height="37.2813" style="stroke:#181818;stroke-width:1.0;" width="10" x="2659.5" y="542.6563"/><rect fill="#FFFFFF" filter="url(#f1570ddmsl2pxk)" height="37.2813" style="stroke:#181818;stroke-width:1.0;" width="10" x="2659.5" y="617.2188"/><rect fill="#FFFFFF" filter="url(#f1570ddmsl2pxk)" height="37.2813" style="stroke:#181818;stroke-width:1.0;" width="10" x="2659.5" y="928.4688"/><rect fill="#FFFFFF" filter="url(#f1570ddmsl2pxk)" height="43.2813" style="stroke:#181818;stroke-width:1.0;" width="10" x="2979" y="729.0625"/><rect fill="#FFFFFF" filter="url(#f1570ddmsl2pxk)" height="37.2813" style="stroke:#181818;stroke-width:1.0;" width="10" x="3075.5" y="1003.0313"/><polygon fill="#181818" points="496,126.5625,506,130.5625,496,134.5625,500,130.5625" style="stroke:#181818;stroke-width:1.0;"/><line style="stroke:#181818;stroke-width:1.0;" x1="61" x2="502" y1="130.5625" y2="130.5625"/><text fill="#000000" font-family="FG Virgil" font-size="20" lengthAdjust="spacing" textLength="210" x="68" y="123.8457">Asks to create a User</text><polygon fill="#181818" points="72,163.8438,62,167.8438,72,171.8438,68,167.8438" style="stroke:#181818;stroke-width:1.0;"/><line style="stroke:#181818;stroke-width:1.0;stroke-dasharray:2.0,2.0;" x1="66" x2="512" y1="167.8438" y2="167.8438"/><text fill="#000000" font-family="FG Virgil" font-size="20" lengthAdjust="spacing" textLength="197" x="78" y="161.127">Asks for User's data</text><polygon fill="#181818" points="496,201.125,506,205.125,496,209.125,500,205.125" style="stroke:#181818;stroke-width:1.0;"/><line style="stroke:#181818;stroke-width:1.0;" x1="61" x2="502" y1="205.125" y2="205.125"/><text fill="#000000" font-family="FG Virgil" font-size="20" lengthAdjust="spacing" textLength="428" x="68" y="198.4082">Sends User's data (Email, Username, Role)</text><polygon fill="#181818" points="862,238.4063,872,242.4063,862,246.4063,866,242.4063" style="stroke:#181818;stroke-width:1.0;"/><line style="stroke:#181818;stroke-width:1.0;" x1="518" x2="868" y1="242.4063" y2="242.4063"/><text fill="#000000" font-family="FG Virgil" font-size="20" lengthAdjust="spacing" textLength="337" x="525" y="235.6895">createUser(CreatingUserDTO dto)</text><polygon fill="#181818" points="1513,275.6875,1523,279.6875,1513,283.6875,1517,279.6875" style="stroke:#181818;stroke-width:1.0;"/><line style="stroke:#181818;stroke-width:1.0;stroke-dasharray:2.0,2.0;" x1="884" x2="1519" y1="279.6875" y2="279.6875"/><text fill="#000000" font-family="FG Virgil" font-size="20" lengthAdjust="spacing" textLength="337" x="891" y="272.9707">createUser(CreatingUserDTO dto)</text><line style="stroke:#181818;stroke-width:1.0;" x1="1535" x2="1577" y1="316.9688" y2="316.9688"/><line style="stroke:#181818;stroke-width:1.0;" x1="1577" x2="1577" y1="316.9688" y2="329.9688"/><line style="stroke:#181818;stroke-width:1.0;" x1="1536" x2="1577" y1="329.9688" y2="329.9688"/><polygon fill="#181818" points="1546,325.9688,1536,329.9688,1546,333.9688,1542,329.9688" style="stroke:#181818;stroke-width:1.0;"/><text fill="#000000" font-family="FG Virgil" font-size="20" lengthAdjust="spacing" textLength="133" x="1542" y="310.252">Validate Role</text><path d="M10,344.9688 L86,344.9688 L86,360.25 L76,370.25 L10,370.25 L10,344.9688 " fill="#EEEEEE" style="stroke:#000000;stroke-width:1.5;"/><rect fill="none" height="161.4063" style="stroke:#000000;stroke-width:1.5;" width="1597.5" x="10" y="344.9688"/><text fill="#000000" font-family="FG Virgil" font-size="20" font-weight="bold" lengthAdjust="spacing" textLength="31" x="25" y="364.5332">alt</text><text fill="#000000" font-family="FG Virgil" font-size="20" font-weight="bold" lengthAdjust="spacing" textLength="253" x="101" y="365.5332">[Role is null or empty]</text><polygon fill="#181818" points="890,403.8125,880,407.8125,890,411.8125,886,407.8125" style="stroke:#181818;stroke-width:1.0;"/><line style="stroke:#181818;stroke-width:1.0;stroke-dasharray:2.0,2.0;" x1="884" x2="1529" y1="407.8125" y2="407.8125"/><text fill="#000000" font-family="FG Virgil" font-size="20" lengthAdjust="spacing" textLength="617" x="896" y="401.0957">throw ArgumentException("Role must not be null or empty.")</text><polygon fill="#181818" points="72,417.8125,62,421.8125,72,425.8125,68,421.8125" style="stroke:#181818;stroke-width:1.0;"/><line style="stroke:#181818;stroke-width:1.0;stroke-dasharray:2.0,2.0;" x1="66" x2="512" y1="421.8125" y2="421.8125"/><line style="stroke:#000000;stroke-width:1.0;stroke-dasharray:2.0,2.0;" x1="10" x2="1607.5" y1="430.8125" y2="430.8125"/><text fill="#000000" font-family="FG Virgil" font-size="20" font-weight="bold" lengthAdjust="spacing" textLength="177" x="15" y="449.377">[Role is invalid]</text><polygon fill="#181818" points="890,480.375,880,484.375,890,488.375,886,484.375" style="stroke:#181818;stroke-width:1.0;"/><line style="stroke:#181818;stroke-width:1.0;stroke-dasharray:2.0,2.0;" x1="884" x2="1529" y1="484.375" y2="484.375"/><text fill="#000000" font-family="FG Virgil" font-size="20" lengthAdjust="spacing" textLength="546" x="896" y="477.6582">throw ArgumentException($"Invalid role: {dto.Role}")</text><polygon fill="#181818" points="1518,494.375,1528,498.375,1518,502.375,1522,498.375" style="stroke:#181818;stroke-width:1.0;"/><line style="stroke:#181818;stroke-width:1.0;stroke-dasharray:2.0,2.0;" x1="879" x2="1524" y1="498.375" y2="498.375"/><polygon fill="#181818" points="2647.5,538.6563,2657.5,542.6563,2647.5,546.6563,2651.5,542.6563" style="stroke:#181818;stroke-width:1.0;"/><line style="stroke:#181818;stroke-width:1.0;" x1="1530" x2="2653.5" y1="542.6563" y2="542.6563"/><text fill="#000000" font-family="FG Virgil" font-size="20" lengthAdjust="spacing" textLength="334" x="1537" y="535.9395">GetUserByEmailAsync(dto.Email)</text><polygon fill="#181818" points="1541,575.9375,1531,579.9375,1541,583.9375,1537,579.9375" style="stroke:#181818;stroke-width:1.0;"/><line style="stroke:#181818;stroke-width:1.0;stroke-dasharray:2.0,2.0;" x1="1535" x2="2663.5" y1="579.9375" y2="579.9375"/><text fill="#000000" font-family="FG Virgil" font-size="20" lengthAdjust="spacing" textLength="285" x="1547" y="573.2207">return null (if no user found)</text><polygon fill="#181818" points="2647.5,613.2188,2657.5,617.2188,2647.5,621.2188,2651.5,617.2188" style="stroke:#181818;stroke-width:1.0;"/><line style="stroke:#181818;stroke-width:1.0;" x1="1530" x2="2653.5" y1="617.2188" y2="617.2188"/><text fill="#000000" font-family="FG Virgil" font-size="20" lengthAdjust="spacing" textLength="424" x="1537" y="610.502">GetUserByUsernameAsync(dto.Username)</text><polygon fill="#181818" points="1541,650.5,1531,654.5,1541,658.5,1537,654.5" style="stroke:#181818;stroke-width:1.0;"/><line style="stroke:#181818;stroke-width:1.0;stroke-dasharray:2.0,2.0;" x1="1535" x2="2663.5" y1="654.5" y2="654.5"/><text fill="#000000" font-family="FG Virgil" font-size="20" lengthAdjust="spacing" textLength="285" x="1547" y="647.7832">return null (if no user found)</text><polygon fill="#181818" points="2485,687.7813,2495,691.7813,2485,695.7813,2489,691.7813" style="stroke:#181818;stroke-width:1.0;"/><line style="stroke:#181818;stroke-width:1.0;" x1="1530" x2="2491" y1="691.7813" y2="691.7813"/><text fill="#000000" font-family="FG Virgil" font-size="20" lengthAdjust="spacing" textLength="331" x="1537" y="685.0645">ToDomain(CreatingUserDTO dto)</text><polygon fill="#181818" points="2967,725.0625,2977,729.0625,2967,733.0625,2971,729.0625" style="stroke:#181818;stroke-width:1.0;"/><line style="stroke:#181818;stroke-width:1.0;" x1="2507" x2="2973" y1="729.0625" y2="729.0625"/><text fill="#000000" font-family="FG Virgil" font-size="20" lengthAdjust="spacing" textLength="453" x="2514" y="722.3457">new User(dto.Email, dto.Username, dto.Role)</text><line style="stroke:#181818;stroke-width:1.0;" x1="2989" x2="3031" y1="771.3438" y2="771.3438"/><line style="stroke:#181818;stroke-width:1.0;" x1="3031" x2="3031" y1="771.3438" y2="784.3438"/><line style="stroke:#181818;stroke-width:1.0;" x1="2984" x2="3031" y1="784.3438" y2="784.3438"/><polygon fill="#181818" points="2994,780.3438,2984,784.3438,2994,788.3438,2990,784.3438" style="stroke:#181818;stroke-width:1.0;"/><text fill="#000000" font-family="FG Virgil" font-size="20" lengthAdjust="spacing" textLength="61" x="2996" y="764.627">User()</text><polygon fill="#181818" points="1541,812.625,1531,816.625,1541,820.625,1537,816.625" style="stroke:#181818;stroke-width:1.0;"/><line style="stroke:#181818;stroke-width:1.0;stroke-dasharray:2.0,2.0;" x1="1535" x2="2501" y1="816.625" y2="816.625"/><text fill="#000000" font-family="FG Virgil" font-size="20" lengthAdjust="spacing" textLength="113" x="1547" y="809.9082">return User</text><polygon fill="#181818" points="2341,849.9063,2351,853.9063,2341,857.9063,2345,853.9063" style="stroke:#181818;stroke-width:1.0;"/><line style="stroke:#181818;stroke-width:1.0;" x1="1530" x2="2347" y1="853.9063" y2="853.9063"/><text fill="#000000" font-family="FG Virgil" font-size="20" lengthAdjust="spacing" textLength="804" x="1537" y="847.1895">SendEmail(dto.Email, "Activate your account", GenerateLink(token, "Activate"))</text><polygon fill="#181818" points="1541,887.1875,1531,891.1875,1541,895.1875,1537,891.1875" style="stroke:#181818;stroke-width:1.0;"/><line style="stroke:#181818;stroke-width:1.0;stroke-dasharray:2.0,2.0;" x1="1535" x2="2357" y1="891.1875" y2="891.1875"/><text fill="#000000" font-family="FG Virgil" font-size="20" lengthAdjust="spacing" textLength="62" x="1547" y="884.4707">return</text><polygon fill="#181818" points="2647.5,924.4688,2657.5,928.4688,2647.5,932.4688,2651.5,928.4688" style="stroke:#181818;stroke-width:1.0;"/><line style="stroke:#181818;stroke-width:1.0;" x1="1530" x2="2653.5" y1="928.4688" y2="928.4688"/><text fill="#000000" font-family="FG Virgil" font-size="20" lengthAdjust="spacing" textLength="158" x="1537" y="921.752">AddAsync(user)</text><polygon fill="#181818" points="1541,961.75,1531,965.75,1541,969.75,1537,965.75" style="stroke:#181818;stroke-width:1.0;"/><line style="stroke:#181818;stroke-width:1.0;stroke-dasharray:2.0,2.0;" x1="1535" x2="2663.5" y1="965.75" y2="965.75"/><text fill="#000000" font-family="FG Virgil" font-size="20" lengthAdjust="spacing" textLength="62" x="1547" y="959.0332">return</text><polygon fill="#181818" points="3063.5,999.0313,3073.5,1003.0313,3063.5,1007.0313,3067.5,1003.0313" style="stroke:#181818;stroke-width:1.0;"/><line style="stroke:#181818;stroke-width:1.0;" x1="1530" x2="3069.5" y1="1003.0313" y2="1003.0313"/><text fill="#000000" font-family="FG Virgil" font-size="20" lengthAdjust="spacing" textLength="155" x="1537" y="996.3145">CommitAsync()</text><polygon fill="#181818" points="1541,1036.3125,1531,1040.3125,1541,1044.3125,1537,1040.3125" style="stroke:#181818;stroke-width:1.0;"/><line style="stroke:#181818;stroke-width:1.0;stroke-dasharray:2.0,2.0;" x1="1535" x2="3079.5" y1="1040.3125" y2="1040.3125"/><text fill="#000000" font-family="FG Virgil" font-size="20" lengthAdjust="spacing" textLength="62" x="1547" y="1033.5957">return</text><polygon fill="#181818" points="890,1073.5938,880,1077.5938,890,1081.5938,886,1077.5938" style="stroke:#181818;stroke-width:1.0;"/><line style="stroke:#181818;stroke-width:1.0;stroke-dasharray:2.0,2.0;" x1="884" x2="1529" y1="1077.5938" y2="1077.5938"/><text fill="#000000" font-family="FG Virgil" font-size="20" lengthAdjust="spacing" textLength="113" x="896" y="1070.877">return User</text><polygon fill="#181818" points="524,1110.875,514,1114.875,524,1118.875,520,1114.875" style="stroke:#181818;stroke-width:1.0;"/><line style="stroke:#181818;stroke-width:1.0;stroke-dasharray:2.0,2.0;" x1="518" x2="878" y1="1114.875" y2="1114.875"/><text fill="#000000" font-family="FG Virgil" font-size="20" lengthAdjust="spacing" textLength="113" x="530" y="1108.1582">return User</text><polygon fill="#181818" points="72,1148.1563,62,1152.1563,72,1156.1563,68,1152.1563" style="stroke:#181818;stroke-width:1.0;"/><line style="stroke:#181818;stroke-width:1.0;stroke-dasharray:2.0,2.0;" x1="66" x2="512" y1="1152.1563" y2="1152.1563"/><text fill="#000000" font-family="FG Virgil" font-size="20" lengthAdjust="spacing" textLength="253" x="78" y="1145.4395">User created successfully</text><!--SRC=[hLN1Rjim3BthAuXWG5CWROSTVIZWs6qHODw0gEbTbPX4Y2rvajmi6_Rla-IaaPjsMu7bP96FvECJnTYDL2qphAartw00WKlMrUvMAqVb3uHF7ydPshdMPbTNRSsKwvhwaklcokAt3XN72o7PoiSJUyW4QwR4raZdKC6IrHOJNwELvckZ6pnnjOnls0gfszK81hbBV0cjByp7tjx1WpGhMISOksP2RwLQWJCT4iAuqmPoqKW5p49U4ezpailMjm6ZXKK3C-NGB1d7KO0iPgUGmfSqkgxHH4XnYg1edkG-0nswAoRhr5tHq_2AjUq-UNNgdMEhhVIDx29YVehecG_j9NFiaTc-Q3cDMiWdvZ2ea9TmSUrxpI2t6mjE0pSOV0n2lYFMox6OmOK7v-KUlFIA1j2P1U5h484f-fYPeX8sHSBufl5YJA9D-IkSm5pNU7vIxHgAR4yeGCT5-FIN6Wxb_LSGJYT11IaYGVgE64eez24Fh9OYc08LmceNFq1QK5rTW-yLczRj2FWVZNKyD-UdTmkvMNKDAdVpdMFhf5RZKOnjEkj0QGUFE4noEJgFUHB5w4j34Gq6NMSKGVywdlb8zHIu_XkJ3wDP3mS_k9Z1Jz__PSZqwzqSb22zMlCCxj05GQUxU9EvtIa-3fdZCT5tJkQ7E-dJz4ACvT8B0rruTalTAN6UJi_ybJg7KJcMEbZ-LxKgWtjTQj-0-ilGLAIAivs1mcqSucFl4qYvzQUNmqqM-_0OEY2p2Aa77SHdc22g0rtQlwnODQq_oW_GdUuCCCvzosuqyLegDDx-MQhDsEaDgWGyEayRfAIYGnu32lHuGRaG_PK4TVzq5Qz9NaupA7JJIDVdIEBzeYgdRsS8U-nvzjzGYkxtGTX1Rq2ATAd5Fu5-SmYm7UTexTBFpswusNu3]--></g></svg>