<?xml version="1.0" encoding="UTF-8" standalone="no"?><svg xmlns="http://www.w3.org/2000/svg" xmlns:xlink="http://www.w3.org/1999/xlink" contentStyleType="text/css" height="507px" preserveAspectRatio="none" style="width:1542px;height:507px;background:#FFFFFF;" version="1.1" viewBox="0 0 1542 507" width="1542px" zoomAndPan="magnify"><defs/><g><text fill="#000000" font-family="sans-serif" font-size="14" font-weight="bold" lengthAdjust="spacing" textLength="126" x="710.25" y="27.9951">Level 2 Diagram</text><rect fill="#FFFFFF" height="274.9688" style="stroke:#181818;stroke-width:1.0;" width="10" x="38.5" y="135.5781"/><rect fill="#FFFFFF" height="37.2813" style="stroke:#181818;stroke-width:1.0;" width="10" x="587.5" y="164.8594"/><rect fill="#FFFFFF" height="162.125" style="stroke:#181818;stroke-width:1.0;" width="10" x="587.5" y="239.4219"/><rect fill="#FFFFFF" height="87.5625" style="stroke:#181818;stroke-width:1.0;" width="10" x="1095.5" y="276.7031"/><line style="stroke:#181818;stroke-width:0.5;stroke-dasharray:5.0,5.0;" x1="43" x2="43" y1="125.5781" y2="419.5469"/><line style="stroke:#181818;stroke-width:0.5;stroke-dasharray:5.0,5.0;" x1="592.5" x2="592.5" y1="125.5781" y2="419.5469"/><line style="stroke:#181818;stroke-width:0.5;stroke-dasharray:5.0,5.0;" x1="1100.5" x2="1100.5" y1="125.5781" y2="419.5469"/><text fill="#000000" font-family="sans-serif" font-size="20" lengthAdjust="spacing" textLength="71" x="5" y="120.8613">Patient</text><ellipse cx="43.5" cy="50.7969" fill="#E2E2F0" rx="8" ry="8" style="stroke:#181818;stroke-width:0.5;"/><path d="M43.5,58.7969 L43.5,85.7969 M30.5,66.7969 L56.5,66.7969 M43.5,85.7969 L30.5,100.7969 M43.5,85.7969 L56.5,100.7969 " fill="none" style="stroke:#181818;stroke-width:0.5;"/><text fill="#000000" font-family="sans-serif" font-size="20" lengthAdjust="spacing" textLength="71" x="5" y="437.1113">Patient</text><ellipse cx="43.5" cy="450.3281" fill="#E2E2F0" rx="8" ry="8" style="stroke:#181818;stroke-width:0.5;"/><path d="M43.5,458.3281 L43.5,485.3281 M30.5,466.3281 L56.5,466.3281 M43.5,485.3281 L30.5,500.3281 M43.5,485.3281 L56.5,500.3281 " fill="none" style="stroke:#181818;stroke-width:0.5;"/><rect fill="#E2E2F0" height="37.2813" rx="2.5" ry="2.5" style="stroke:#181818;stroke-width:0.5;" width="154" x="515.5" y="87.2969"/><text fill="#000000" font-family="sans-serif" font-size="20" lengthAdjust="spacing" textLength="140" x="522.5" y="112.8613">User Interface</text><rect fill="#E2E2F0" height="37.2813" rx="2.5" ry="2.5" style="stroke:#181818;stroke-width:0.5;" width="154" x="515.5" y="418.5469"/><text fill="#000000" font-family="sans-serif" font-size="20" lengthAdjust="spacing" textLength="140" x="522.5" y="444.1113">User Interface</text><rect fill="#E2E2F0" height="37.2813" rx="2.5" ry="2.5" style="stroke:#181818;stroke-width:0.5;" width="158" x="1021.5" y="87.2969"/><text fill="#000000" font-family="sans-serif" font-size="20" lengthAdjust="spacing" textLength="144" x="1028.5" y="112.8613">UserController</text><rect fill="#E2E2F0" height="37.2813" rx="2.5" ry="2.5" style="stroke:#181818;stroke-width:0.5;" width="158" x="1021.5" y="418.5469"/><text fill="#000000" font-family="sans-serif" font-size="20" lengthAdjust="spacing" textLength="144" x="1028.5" y="444.1113">UserController</text><rect fill="#FFFFFF" height="274.9688" style="stroke:#181818;stroke-width:1.0;" width="10" x="38.5" y="135.5781"/><rect fill="#FFFFFF" height="37.2813" style="stroke:#181818;stroke-width:1.0;" width="10" x="587.5" y="164.8594"/><rect fill="#FFFFFF" height="162.125" style="stroke:#181818;stroke-width:1.0;" width="10" x="587.5" y="239.4219"/><rect fill="#FFFFFF" height="87.5625" style="stroke:#181818;stroke-width:1.0;" width="10" x="1095.5" y="276.7031"/><polygon fill="#000000" points="575.5,160.8594,585.5,164.8594,575.5,168.8594,579.5,164.8594" style="stroke:#000000;stroke-width:1.0;"/><line style="stroke:#000000;stroke-width:1.0;" x1="48.5" x2="581.5" y1="164.8594" y2="164.8594"/><text fill="#000000" font-family="sans-serif" font-size="20" lengthAdjust="spacing" textLength="240" x="55.5" y="158.1426">Asks to Register as User</text><polygon fill="#000000" points="59.5,198.1406,49.5,202.1406,59.5,206.1406,55.5,202.1406" style="stroke:#000000;stroke-width:1.0;"/><line style="stroke:#000000;stroke-width:1.0;stroke-dasharray:2.0,2.0;" x1="53.5" x2="591.5" y1="202.1406" y2="202.1406"/><text fill="#000000" font-family="sans-serif" font-size="20" lengthAdjust="spacing" textLength="318" x="65.5" y="195.4238">Asks for data to register as User</text><polygon fill="#000000" points="575.5,235.4219,585.5,239.4219,575.5,243.4219,579.5,239.4219" style="stroke:#000000;stroke-width:1.0;"/><line style="stroke:#000000;stroke-width:1.0;" x1="48.5" x2="581.5" y1="239.4219" y2="239.4219"/><text fill="#000000" font-family="sans-serif" font-size="20" lengthAdjust="spacing" textLength="520" x="55.5" y="232.7051">Sends data(email, password, phone number, name)</text><polygon fill="#000000" points="1083.5,272.7031,1093.5,276.7031,1083.5,280.7031,1087.5,276.7031" style="stroke:#000000;stroke-width:1.0;"/><line style="stroke:#000000;stroke-width:1.0;" x1="597.5" x2="1089.5" y1="276.7031" y2="276.7031"/><text fill="#000000" font-family="sans-serif" font-size="20" lengthAdjust="spacing" textLength="479" x="604.5" y="269.9863">createPatientUser(CreatingPatientUserDTO dto)</text><line style="stroke:#000000;stroke-width:1.0;stroke-dasharray:2.0,2.0;" x1="1105.5" x2="1147.5" y1="313.9844" y2="313.9844"/><line style="stroke:#000000;stroke-width:1.0;stroke-dasharray:2.0,2.0;" x1="1147.5" x2="1147.5" y1="313.9844" y2="326.9844"/><line style="stroke:#000000;stroke-width:1.0;stroke-dasharray:2.0,2.0;" x1="1106.5" x2="1147.5" y1="326.9844" y2="326.9844"/><polygon fill="#000000" points="1116.5,322.9844,1106.5,326.9844,1116.5,330.9844,1112.5,326.9844" style="stroke:#000000;stroke-width:1.0;"/><text fill="#000000" font-family="sans-serif" font-size="20" lengthAdjust="spacing" textLength="423" x="1112.5" y="307.2676">Validates data and tries to create the User</text><polygon fill="#000000" points="608.5,360.2656,598.5,364.2656,608.5,368.2656,604.5,364.2656" style="stroke:#000000;stroke-width:1.0;"/><line style="stroke:#000000;stroke-width:1.0;stroke-dasharray:2.0,2.0;" x1="602.5" x2="1099.5" y1="364.2656" y2="364.2656"/><text fill="#000000" font-family="sans-serif" font-size="20" lengthAdjust="spacing" textLength="413" x="614.5" y="357.5488">Returns Operation Status Response Code</text><polygon fill="#000000" points="59.5,397.5469,49.5,401.5469,59.5,405.5469,55.5,401.5469" style="stroke:#000000;stroke-width:1.0;"/><line style="stroke:#000000;stroke-width:1.0;stroke-dasharray:2.0,2.0;" x1="53.5" x2="591.5" y1="401.5469" y2="401.5469"/><text fill="#000000" font-family="sans-serif" font-size="20" lengthAdjust="spacing" textLength="380" x="65.5" y="394.8301">Returns Operation In/Sucess message</text><!--SRC=[RL9XQzim4FskNt6q7zP1oxh0jgwKGEpO42WaD4k_NwMBeqMMZ7HEwSR- -yvsjvec_Y3Ck_VUFPqkxQrlC6BjWjwJ0KDRR1sNmVFQ_YAON2l5bXt1FHt8mGJc5YlXAxMpXe3gXb-Wflg9Ob8VqZyxkBUU-AKX295tGQctYdQO4lnM85-6Ub_5q7gJ1nVYtTq1NKlBfv-aUJg5y_dNObRUdAR647fEEI-o-VLfJg9ui9fwgy_bfCXEqSIYAByNt_hQBCRmFC2P4vxwCyxU288LdKuFvqLMVYcpJeAQ1LWXM_8Cc62bn86jjWqASBQHPB3mJ76BciuwncPnJCdb7M9mZc9FoNjZUq0cCLp1rLHKjp1B-mGSu84gcyIoTnFr6rcyDmku4lxgbRwLU0OPErryhpCqLlxlioPlKg-we1gjkvHvfFGSef6_NV04lkqMuH8yrlJngFqKyblGaGHwdKpNxIBl4Ekh4JR_iGJ3OMIHgxpFBmwFwAo4e24Ae3V0qL8_Wi4TU4V3JGPH5_w1k8q-mRAXA8s2XpKZjqaAgGa-IOjWQ7prV3IpO_N2VrgtccILQpbaATvDxIy0]--></g></svg>