<?xml version="1.0" encoding="UTF-8" standalone="no"?><svg xmlns="http://www.w3.org/2000/svg" xmlns:xlink="http://www.w3.org/1999/xlink" contentStyleType="text/css" height="1009px" preserveAspectRatio="none" style="width:3597px;height:1009px;background:#FFFFFF;" version="1.1" viewBox="0 0 3597 1009" width="3597px" zoomAndPan="magnify"><defs/><g><text fill="#000000" font-family="sans-serif" font-size="14" font-weight="bold" lengthAdjust="spacing" textLength="149" x="1726" y="27.9951">Level 3 FE Diagram</text><rect fill="#FFFFFF" height="777.625" style="stroke:#181818;stroke-width:1.0;" width="10" x="36" y="135.5781"/><rect fill="#FFFFFF" height="199.4063" style="stroke:#181818;stroke-width:1.0;" width="10" x="757" y="164.8594"/><rect fill="#FFFFFF" height="502.6563" style="stroke:#181818;stroke-width:1.0;" width="10" x="757" y="401.5469"/><rect fill="#FFFFFF" height="37.2813" style="stroke:#181818;stroke-width:1.0;" width="10" x="1067" y="202.1406"/><rect fill="#FFFFFF" height="87.5625" style="stroke:#181818;stroke-width:1.0;" width="10" x="1445" y="239.4219"/><rect fill="#FFFFFF" height="428.0938" style="stroke:#181818;stroke-width:1.0;" width="10" x="1445" y="438.8281"/><rect fill="#FFFFFF" height="353.5313" style="stroke:#181818;stroke-width:1.0;" width="10" x="1825" y="476.1094"/><rect fill="#FFFFFF" height="278.9688" style="stroke:#181818;stroke-width:1.0;" width="10" x="2444" y="513.3906"/><rect fill="#FFFFFF" height="87.5625" style="stroke:#181818;stroke-width:1.0;" width="10" x="3031" y="667.5156"/><line style="stroke:#181818;stroke-width:0.5;stroke-dasharray:5.0,5.0;" x1="41" x2="41" y1="125.5781" y2="922.2031"/><line style="stroke:#181818;stroke-width:0.5;stroke-dasharray:5.0,5.0;" x1="761.5" x2="761.5" y1="125.5781" y2="922.2031"/><line style="stroke:#181818;stroke-width:0.5;stroke-dasharray:5.0,5.0;" x1="1071.5" x2="1071.5" y1="125.5781" y2="922.2031"/><line style="stroke:#181818;stroke-width:0.5;stroke-dasharray:5.0,5.0;" x1="1450" x2="1450" y1="125.5781" y2="922.2031"/><line style="stroke:#181818;stroke-width:0.5;stroke-dasharray:5.0,5.0;" x1="1830" x2="1830" y1="125.5781" y2="922.2031"/><line style="stroke:#181818;stroke-width:0.5;stroke-dasharray:5.0,5.0;" x1="2448.5" x2="2448.5" y1="125.5781" y2="922.2031"/><line style="stroke:#181818;stroke-width:0.5;stroke-dasharray:5.0,5.0;" x1="3036" x2="3036" y1="125.5781" y2="922.2031"/><text fill="#000000" font-family="sans-serif" font-size="20" lengthAdjust="spacing" textLength="66" x="5" y="120.8613">Admin</text><ellipse cx="41" cy="50.7969" fill="#E2E2F0" rx="8" ry="8" style="stroke:#181818;stroke-width:0.5;"/><path d="M41,58.7969 L41,85.7969 M28,66.7969 L54,66.7969 M41,85.7969 L28,100.7969 M41,85.7969 L54,100.7969 " fill="none" style="stroke:#181818;stroke-width:0.5;"/><text fill="#000000" font-family="sans-serif" font-size="20" lengthAdjust="spacing" textLength="66" x="5" y="939.7676">Admin</text><ellipse cx="41" cy="952.9844" fill="#E2E2F0" rx="8" ry="8" style="stroke:#181818;stroke-width:0.5;"/><path d="M41,960.9844 L41,987.9844 M28,968.9844 L54,968.9844 M41,987.9844 L28,1002.9844 M41,987.9844 L54,1002.9844 " fill="none" style="stroke:#181818;stroke-width:0.5;"/><rect fill="#E2E2F0" height="37.2813" rx="2.5" ry="2.5" style="stroke:#181818;stroke-width:0.5;" width="63" x="730.5" y="87.2969"/><text fill="#000000" font-family="sans-serif" font-size="20" lengthAdjust="spacing" textLength="49" x="737.5" y="112.8613">View</text><rect fill="#E2E2F0" height="37.2813" rx="2.5" ry="2.5" style="stroke:#181818;stroke-width:0.5;" width="63" x="730.5" y="921.2031"/><text fill="#000000" font-family="sans-serif" font-size="20" lengthAdjust="spacing" textLength="49" x="737.5" y="946.7676">View</text><rect fill="#E2E2F0" height="37.2813" rx="2.5" ry="2.5" style="stroke:#181818;stroke-width:0.5;" width="291" x="926.5" y="87.2969"/><text fill="#000000" font-family="sans-serif" font-size="20" lengthAdjust="spacing" textLength="277" x="933.5" y="112.8613">ManagePatientsComponent</text><rect fill="#E2E2F0" height="37.2813" rx="2.5" ry="2.5" style="stroke:#181818;stroke-width:0.5;" width="291" x="926.5" y="921.2031"/><text fill="#000000" font-family="sans-serif" font-size="20" lengthAdjust="spacing" textLength="277" x="933.5" y="946.7676">ManagePatientsComponent</text><rect fill="#E2E2F0" height="37.2813" rx="2.5" ry="2.5" style="stroke:#181818;stroke-width:0.5;" width="268" x="1316" y="87.2969"/><text fill="#000000" font-family="sans-serif" font-size="20" lengthAdjust="spacing" textLength="254" x="1323" y="112.8613">CreatePatientComponent</text><rect fill="#E2E2F0" height="37.2813" rx="2.5" ry="2.5" style="stroke:#181818;stroke-width:0.5;" width="268" x="1316" y="921.2031"/><text fill="#000000" font-family="sans-serif" font-size="20" lengthAdjust="spacing" textLength="254" x="1323" y="946.7676">CreatePatientComponent</text><rect fill="#E2E2F0" height="37.2813" rx="2.5" ry="2.5" style="stroke:#181818;stroke-width:0.5;" width="158" x="1751" y="87.2969"/><text fill="#000000" font-family="sans-serif" font-size="20" lengthAdjust="spacing" textLength="144" x="1758" y="112.8613">PatientService</text><rect fill="#E2E2F0" height="37.2813" rx="2.5" ry="2.5" style="stroke:#181818;stroke-width:0.5;" width="158" x="1751" y="921.2031"/><text fill="#000000" font-family="sans-serif" font-size="20" lengthAdjust="spacing" textLength="144" x="1758" y="946.7676">PatientService</text><rect fill="#E2E2F0" height="37.2813" rx="2.5" ry="2.5" style="stroke:#181818;stroke-width:0.5;" width="173" x="2362.5" y="87.2969"/><text fill="#000000" font-family="sans-serif" font-size="20" lengthAdjust="spacing" textLength="159" x="2369.5" y="112.8613">AuthInterceptor</text><rect fill="#E2E2F0" height="37.2813" rx="2.5" ry="2.5" style="stroke:#181818;stroke-width:0.5;" width="173" x="2362.5" y="921.2031"/><text fill="#000000" font-family="sans-serif" font-size="20" lengthAdjust="spacing" textLength="159" x="2369.5" y="946.7676">AuthInterceptor</text><rect fill="#E2E2F0" height="37.2813" rx="2.5" ry="2.5" style="stroke:#181818;stroke-width:0.5;" width="60" x="3006" y="87.2969"/><text fill="#000000" font-family="sans-serif" font-size="20" lengthAdjust="spacing" textLength="46" x="3013" y="112.8613">MDR</text><rect fill="#E2E2F0" height="37.2813" rx="2.5" ry="2.5" style="stroke:#181818;stroke-width:0.5;" width="60" x="3006" y="921.2031"/><text fill="#000000" font-family="sans-serif" font-size="20" lengthAdjust="spacing" textLength="46" x="3013" y="946.7676">MDR</text><rect fill="#FFFFFF" height="777.625" style="stroke:#181818;stroke-width:1.0;" width="10" x="36" y="135.5781"/><rect fill="#FFFFFF" height="199.4063" style="stroke:#181818;stroke-width:1.0;" width="10" x="757" y="164.8594"/><rect fill="#FFFFFF" height="502.6563" style="stroke:#181818;stroke-width:1.0;" width="10" x="757" y="401.5469"/><rect fill="#FFFFFF" height="37.2813" style="stroke:#181818;stroke-width:1.0;" width="10" x="1067" y="202.1406"/><rect fill="#FFFFFF" height="87.5625" style="stroke:#181818;stroke-width:1.0;" width="10" x="1445" y="239.4219"/><rect fill="#FFFFFF" height="428.0938" style="stroke:#181818;stroke-width:1.0;" width="10" x="1445" y="438.8281"/><rect fill="#FFFFFF" height="353.5313" style="stroke:#181818;stroke-width:1.0;" width="10" x="1825" y="476.1094"/><rect fill="#FFFFFF" height="278.9688" style="stroke:#181818;stroke-width:1.0;" width="10" x="2444" y="513.3906"/><rect fill="#FFFFFF" height="87.5625" style="stroke:#181818;stroke-width:1.0;" width="10" x="3031" y="667.5156"/><polygon fill="#000000" points="745,160.8594,755,164.8594,745,168.8594,749,164.8594" style="stroke:#000000;stroke-width:1.0;"/><line style="stroke:#000000;stroke-width:1.0;" x1="46" x2="751" y1="164.8594" y2="164.8594"/><text fill="#000000" font-family="sans-serif" font-size="20" lengthAdjust="spacing" textLength="236" x="53" y="158.1426">Asks to create a Patient</text><polygon fill="#000000" points="1055,198.1406,1065,202.1406,1055,206.1406,1059,202.1406" style="stroke:#000000;stroke-width:1.0;"/><line style="stroke:#000000;stroke-width:1.0;" x1="767" x2="1061" y1="202.1406" y2="202.1406"/><text fill="#000000" font-family="sans-serif" font-size="20" lengthAdjust="spacing" textLength="281" x="774" y="195.4238">routerLink='/create-patient'</text><polygon fill="#000000" points="1433,235.4219,1443,239.4219,1433,243.4219,1437,239.4219" style="stroke:#000000;stroke-width:1.0;"/><line style="stroke:#000000;stroke-width:1.0;" x1="1072" x2="1439" y1="239.4219" y2="239.4219"/><text fill="#000000" font-family="sans-serif" font-size="20" lengthAdjust="spacing" textLength="349" x="1079" y="232.7051">routes to CreatePatientComponent</text><line style="stroke:#000000;stroke-width:1.0;" x1="1455" x2="1497" y1="276.7031" y2="276.7031"/><line style="stroke:#000000;stroke-width:1.0;" x1="1497" x2="1497" y1="276.7031" y2="289.7031"/><line style="stroke:#000000;stroke-width:1.0;" x1="1456" x2="1497" y1="289.7031" y2="289.7031"/><polygon fill="#000000" points="1466,285.7031,1456,289.7031,1466,293.7031,1462,289.7031" style="stroke:#000000;stroke-width:1.0;"/><text fill="#000000" font-family="sans-serif" font-size="20" lengthAdjust="spacing" textLength="356" x="1462" y="269.9863">initializes CreatePatientComponent</text><polygon fill="#000000" points="778,322.9844,768,326.9844,778,330.9844,774,326.9844" style="stroke:#000000;stroke-width:1.0;"/><line style="stroke:#000000;stroke-width:1.0;stroke-dasharray:2.0,2.0;" x1="772" x2="1449" y1="326.9844" y2="326.9844"/><text fill="#000000" font-family="sans-serif" font-size="20" lengthAdjust="spacing" textLength="332" x="784" y="320.2676">returns CreatePatientComponent</text><polygon fill="#000000" points="57,360.2656,47,364.2656,57,368.2656,53,364.2656" style="stroke:#000000;stroke-width:1.0;"/><line style="stroke:#000000;stroke-width:1.0;stroke-dasharray:2.0,2.0;" x1="51" x2="761" y1="364.2656" y2="364.2656"/><text fill="#000000" font-family="sans-serif" font-size="20" lengthAdjust="spacing" textLength="223" x="63" y="357.5488">Asks for Patient's data</text><polygon fill="#000000" points="745,397.5469,755,401.5469,745,405.5469,749,401.5469" style="stroke:#000000;stroke-width:1.0;"/><line style="stroke:#000000;stroke-width:1.0;" x1="46" x2="751" y1="401.5469" y2="401.5469"/><text fill="#000000" font-family="sans-serif" font-size="20" lengthAdjust="spacing" textLength="692" x="53" y="394.8301">Sends Patient's data (First name, Last name, Fullname, Date of birth,</text><polygon fill="#000000" points="1433,434.8281,1443,438.8281,1433,442.8281,1437,438.8281" style="stroke:#000000;stroke-width:1.0;"/><line style="stroke:#000000;stroke-width:1.0;" x1="767" x2="1439" y1="438.8281" y2="438.8281"/><text fill="#000000" font-family="sans-serif" font-size="20" lengthAdjust="spacing" textLength="219" x="774" y="432.1113">createPatient($event)</text><polygon fill="#000000" points="1813,472.1094,1823,476.1094,1813,480.1094,1817,476.1094" style="stroke:#000000;stroke-width:1.0;"/><line style="stroke:#000000;stroke-width:1.0;" x1="1455" x2="1819" y1="476.1094" y2="476.1094"/><text fill="#000000" font-family="sans-serif" font-size="20" lengthAdjust="spacing" textLength="265" x="1462" y="469.3926">createPatient(this.patient)</text><polygon fill="#000000" points="2432,509.3906,2442,513.3906,2432,517.3906,2436,513.3906" style="stroke:#000000;stroke-width:1.0;"/><line style="stroke:#000000;stroke-width:1.0;" x1="1835" x2="2438" y1="513.3906" y2="513.3906"/><text fill="#000000" font-family="sans-serif" font-size="20" lengthAdjust="spacing" textLength="590" x="1842" y="506.6738">Sends HTTP Request to create a Patient with Patient's data</text><line style="stroke:#000000;stroke-width:1.0;" x1="2454" x2="2496" y1="550.6719" y2="550.6719"/><line style="stroke:#000000;stroke-width:1.0;" x1="2496" x2="2496" y1="550.6719" y2="563.6719"/><line style="stroke:#000000;stroke-width:1.0;" x1="2455" x2="2496" y1="563.6719" y2="563.6719"/><polygon fill="#000000" points="2465,559.6719,2455,563.6719,2465,567.6719,2461,563.6719" style="stroke:#000000;stroke-width:1.0;"/><text fill="#000000" font-family="sans-serif" font-size="20" lengthAdjust="spacing" textLength="563" x="2461" y="543.9551">Intercepts the request and adds the token to the header</text><path d="M2459,576.6719 L2459,632.6719 L2978,632.6719 L2978,586.6719 L2968,576.6719 L2459,576.6719 " fill="#FEFFDD" style="stroke:#181818;stroke-width:0.5;"/><path d="M2968,576.6719 L2968,586.6719 L2978,586.6719 L2968,576.6719 " fill="#FEFFDD" style="stroke:#181818;stroke-width:0.5;"/><text fill="#000000" font-family="sans-serif" font-size="20" lengthAdjust="spacing" textLength="498" x="2465" y="600.2363">The token is added to the header so that the MDR</text><text fill="#000000" font-family="sans-serif" font-size="20" lengthAdjust="spacing" textLength="442" x="2465" y="623.5176">can authenticate and authorize the request.</text><polygon fill="#000000" points="3019,663.5156,3029,667.5156,3019,671.5156,3023,667.5156" style="stroke:#000000;stroke-width:1.0;"/><line style="stroke:#000000;stroke-width:1.0;" x1="2454" x2="3025" y1="667.5156" y2="667.5156"/><text fill="#000000" font-family="sans-serif" font-size="20" lengthAdjust="spacing" textLength="509" x="2461" y="660.7988">Sends HTTP Request with token to create a Patient</text><line style="stroke:#000000;stroke-width:1.0;" x1="3041" x2="3083" y1="704.7969" y2="704.7969"/><line style="stroke:#000000;stroke-width:1.0;" x1="3083" x2="3083" y1="704.7969" y2="717.7969"/><line style="stroke:#000000;stroke-width:1.0;" x1="3042" x2="3083" y1="717.7969" y2="717.7969"/><polygon fill="#000000" points="3052,713.7969,3042,717.7969,3052,721.7969,3048,717.7969" style="stroke:#000000;stroke-width:1.0;"/><text fill="#000000" font-family="sans-serif" font-size="20" lengthAdjust="spacing" textLength="542" x="3048" y="698.0801">Validates Patient's data and tries to create the Patient</text><polygon fill="#000000" points="2465,751.0781,2455,755.0781,2465,759.0781,2461,755.0781" style="stroke:#000000;stroke-width:1.0;"/><line style="stroke:#000000;stroke-width:1.0;stroke-dasharray:2.0,2.0;" x1="2459" x2="3035" y1="755.0781" y2="755.0781"/><text fill="#000000" font-family="sans-serif" font-size="20" lengthAdjust="spacing" textLength="311" x="2471" y="748.3613">Returns Operation Status Code</text><polygon fill="#000000" points="1846,788.3594,1836,792.3594,1846,796.3594,1842,792.3594" style="stroke:#000000;stroke-width:1.0;"/><line style="stroke:#000000;stroke-width:1.0;stroke-dasharray:2.0,2.0;" x1="1840" x2="2448" y1="792.3594" y2="792.3594"/><text fill="#000000" font-family="sans-serif" font-size="20" lengthAdjust="spacing" textLength="311" x="1852" y="785.6426">Returns Operation Status Code</text><polygon fill="#000000" points="1466,825.6406,1456,829.6406,1466,833.6406,1462,829.6406" style="stroke:#000000;stroke-width:1.0;"/><line style="stroke:#000000;stroke-width:1.0;stroke-dasharray:2.0,2.0;" x1="1460" x2="1829" y1="829.6406" y2="829.6406"/><text fill="#000000" font-family="sans-serif" font-size="20" lengthAdjust="spacing" textLength="286" x="1472" y="822.9238">Returns Operation Response</text><polygon fill="#000000" points="778,862.9219,768,866.9219,778,870.9219,774,866.9219" style="stroke:#000000;stroke-width:1.0;"/><line style="stroke:#000000;stroke-width:1.0;stroke-dasharray:2.0,2.0;" x1="772" x2="1449" y1="866.9219" y2="866.9219"/><text fill="#000000" font-family="sans-serif" font-size="20" lengthAdjust="spacing" textLength="380" x="784" y="860.2051">Returns Operation In/Sucess message</text><polygon fill="#000000" points="57,900.2031,47,904.2031,57,908.2031,53,904.2031" style="stroke:#000000;stroke-width:1.0;"/><line style="stroke:#000000;stroke-width:1.0;stroke-dasharray:2.0,2.0;" x1="51" x2="761" y1="904.2031" y2="904.2031"/><text fill="#000000" font-family="sans-serif" font-size="20" lengthAdjust="spacing" textLength="380" x="63" y="897.4863">Returns Operation In/Sucess message</text><!--SRC=[bLNRRfj047tVhnWbbPnAkJLLRr4Q2HjGBSKACX7l6vYOhM6NxYwEqgh_tbd0-4Qar9AjPJZdp9bX1fkba1NNl2nKkiGCCdpYTM539MqiVYDSNJ9cXIqGxd251No4C01Vy0LH6Cj5Xe1bPL-WnF8HjM4ZirQ4Eo7HlbG8IjjSCRQvanRS6FZ3W3vZdYuNMjKocwX2wPkR5Izgl7_yYQczlOLZ_tFWXL-7eLgf1XFwmTY_7COOr2kHOYFr8RmAnaCmaWZ2Ry6NvfwdjNfkm-E2SEpljlUA8do1m-xXE1Y7dyAne_3KKi3BIY616_0OyQr8HSMbXQD4uFEHYoUxyHcNf1vnAr1QCr5bfIIT6kWisiLED7Axnkv29tlG3XItpMWWKRmByMgRJwL5dM95pXkCDzrpvyzR9_wyAL2io02Lvi7PBIJNu9cb0QiWRPm1Xoxl1fkmn65dqJLGsoWRJSdo- -YYPPnLBNwq8L3HiyXH9cjAas6uTfRXDh4_KpiclOYGmWfUq7YRrsGSkAr8ewsrD6_8HpcIXkLrVNYYnzyHHWOoRlasFEcR5gFCp1uIJaAXZGN9Ipo5EzuVmxeesfFlLDGJF0fQhzE33hjAqstJ9-zeWwLzFz2LADx7sboOy-vXR35ePgBOCRpfslUFXuS8vlYhHl8uyEZXMTXylm-RqPaoRxeMxAUFdd2ErFfMbCiCU9QrGQkMA5qUTv4Zpr0pgKX9YqLkNJz8qctcGmyMnj7fvRR30kEkk6r2RfuTAUMqgxG7P5MaJHakDmMKTc_3BLVdZAe7bxahW2G6MzAKtxj-VJ6S1VhsKWbDAFKA3oR3MR9QuFQYEMDhnKQaw-Yyczxx2ZNTLX9YosrDuwmot5aMokxgw8RXpJngjXk8RjuEQNCqj2bcXqD3jDclGyfKNiHrYlG7KT8FlGnVMxB_f2QC_GC0]--></g></svg>