<?xml version="1.0" encoding="UTF-8" standalone="no"?><svg xmlns="http://www.w3.org/2000/svg" xmlns:xlink="http://www.w3.org/1999/xlink" contentStyleType="text/css" height="1748px" preserveAspectRatio="none" style="width:3395px;height:1748px;background:#FFFFFF;" version="1.1" viewBox="0 0 3395 1748" width="3395px" zoomAndPan="magnify"><defs/><g><text fill="#000000" font-family="sans-serif" font-size="14" font-weight="bold" lengthAdjust="spacing" textLength="165" x="1616.25" y="27.9951">Level 3 MDR Diagram</text><rect fill="#FFFFFF" height="1515.8125" style="stroke:#181818;stroke-width:1.0;" width="10" x="15.5" y="135.5781"/><rect fill="#FFFFFF" height="1477.5313" style="stroke:#181818;stroke-width:1.0;" width="10" x="634.5" y="164.8594"/><rect fill="#FFFFFF" height="1263.8438" style="stroke:#181818;stroke-width:1.0;" width="10" x="1210.5" y="202.1406"/><rect fill="#FFFFFF" height="194.6875" style="stroke:#181818;stroke-width:1.0;" width="10" x="1596.5" y="239.4219"/><rect fill="#FFFFFF" height="124.8438" style="stroke:#181818;stroke-width:1.0;" width="10" x="1596.5" y="1303.8594"/><rect fill="#FFFFFF" height="111.8438" style="stroke:#181818;stroke-width:1.0;" width="10" x="1782" y="471.3906"/><rect fill="#FFFFFF" height="111.8438" style="stroke:#181818;stroke-width:1.0;" width="10" x="1782" y="661.0781"/><rect fill="#FFFFFF" height="111.8438" style="stroke:#181818;stroke-width:1.0;" width="10" x="1782" y="850.7656"/><rect fill="#FFFFFF" height="104.5625" style="stroke:#181818;stroke-width:1.0;" width="10" x="1782" y="1162.0156"/><rect fill="#FFFFFF" height="43.2813" style="stroke:#181818;stroke-width:1.0;" width="10" x="2204.5" y="346.5469"/><rect fill="#FFFFFF" height="43.2813" style="stroke:#181818;stroke-width:1.0;" width="10" x="2204.5" y="1074.4531"/><rect fill="#FFFFFF" height="43.2813" style="stroke:#181818;stroke-width:1.0;" width="10" x="2828.5" y="1341.1406"/><rect fill="#FFFFFF" height="37.2813" style="stroke:#181818;stroke-width:1.0;" width="10" x="3074" y="999.8906"/><rect fill="#FFFFFF" height="37.2813" style="stroke:#181818;stroke-width:1.0;" width="10" x="3309.5" y="508.6719"/><rect fill="#FFFFFF" height="37.2813" style="stroke:#181818;stroke-width:1.0;" width="10" x="3309.5" y="698.3594"/><rect fill="#FFFFFF" height="37.2813" style="stroke:#181818;stroke-width:1.0;" width="10" x="3309.5" y="888.0469"/><rect fill="#FFFFFF" height="30" style="stroke:#181818;stroke-width:1.0;" width="10" x="3309.5" y="1199.2969"/><rect fill="#EBF5FB" height="1007.875" style="stroke:#000000;stroke-width:1.5;" width="2861" x="527.5" y="598.2344"/><rect fill="#EBF5FB" height="748.625" style="stroke:#000000;stroke-width:1.5;" width="2841" x="537.5" y="787.9219"/><rect fill="#EBF5FB" height="62.5625" style="stroke:none;stroke-width:1.0;" width="2841" x="537.5" y="1473.9844"/><rect fill="#EBF5FB" height="62.5625" style="stroke:none;stroke-width:1.0;" width="2861" x="527.5" y="1543.5469"/><line style="stroke:#181818;stroke-width:0.5;stroke-dasharray:5.0,5.0;" x1="20" x2="20" y1="125.5781" y2="1660.3906"/><line style="stroke:#181818;stroke-width:0.5;stroke-dasharray:5.0,5.0;" x1="639.5" x2="639.5" y1="125.5781" y2="1660.3906"/><line style="stroke:#181818;stroke-width:0.5;stroke-dasharray:5.0,5.0;" x1="1215.5" x2="1215.5" y1="125.5781" y2="1660.3906"/><line style="stroke:#181818;stroke-width:0.5;stroke-dasharray:5.0,5.0;" x1="1601.5" x2="1601.5" y1="125.5781" y2="1660.3906"/><line style="stroke:#181818;stroke-width:0.5;stroke-dasharray:5.0,5.0;" x1="1786.5" x2="1786.5" y1="125.5781" y2="1660.3906"/><line style="stroke:#181818;stroke-width:0.5;stroke-dasharray:5.0,5.0;" x1="2209" x2="2209" y1="125.5781" y2="1660.3906"/><line style="stroke:#181818;stroke-width:0.5;stroke-dasharray:5.0,5.0;" x1="2833.5" x2="2833.5" y1="125.5781" y2="1660.3906"/><line style="stroke:#181818;stroke-width:0.5;stroke-dasharray:5.0,5.0;" x1="3078.5" x2="3078.5" y1="125.5781" y2="1660.3906"/><line style="stroke:#181818;stroke-width:0.5;stroke-dasharray:5.0,5.0;" x1="3314.5" x2="3314.5" y1="125.5781" y2="1660.3906"/><text fill="#000000" font-family="sans-serif" font-size="20" lengthAdjust="spacing" textLength="25" x="5" y="120.8613">FE</text><ellipse cx="20.5" cy="50.7969" fill="#E2E2F0" rx="8" ry="8" style="stroke:#181818;stroke-width:0.5;"/><path d="M20.5,58.7969 L20.5,85.7969 M7.5,66.7969 L33.5,66.7969 M20.5,85.7969 L7.5,100.7969 M20.5,85.7969 L33.5,100.7969 " fill="none" style="stroke:#181818;stroke-width:0.5;"/><text fill="#000000" font-family="sans-serif" font-size="20" lengthAdjust="spacing" textLength="25" x="5" y="1677.9551">FE</text><ellipse cx="20.5" cy="1691.1719" fill="#E2E2F0" rx="8" ry="8" style="stroke:#181818;stroke-width:0.5;"/><path d="M20.5,1699.1719 L20.5,1726.1719 M7.5,1707.1719 L33.5,1707.1719 M20.5,1726.1719 L7.5,1741.1719 M20.5,1726.1719 L33.5,1741.1719 " fill="none" style="stroke:#181818;stroke-width:0.5;"/><rect fill="#E2E2F0" height="37.2813" rx="2.5" ry="2.5" style="stroke:#181818;stroke-width:0.5;" width="184" x="547.5" y="87.2969"/><text fill="#000000" font-family="sans-serif" font-size="20" lengthAdjust="spacing" textLength="170" x="554.5" y="112.8613">PatientController</text><rect fill="#E2E2F0" height="37.2813" rx="2.5" ry="2.5" style="stroke:#181818;stroke-width:0.5;" width="184" x="547.5" y="1659.3906"/><text fill="#000000" font-family="sans-serif" font-size="20" lengthAdjust="spacing" textLength="170" x="554.5" y="1684.9551">PatientController</text><rect fill="#E2E2F0" height="37.2813" rx="2.5" ry="2.5" style="stroke:#181818;stroke-width:0.5;" width="158" x="1136.5" y="87.2969"/><text fill="#000000" font-family="sans-serif" font-size="20" lengthAdjust="spacing" textLength="144" x="1143.5" y="112.8613">PatientService</text><rect fill="#E2E2F0" height="37.2813" rx="2.5" ry="2.5" style="stroke:#181818;stroke-width:0.5;" width="158" x="1136.5" y="1659.3906"/><text fill="#000000" font-family="sans-serif" font-size="20" lengthAdjust="spacing" textLength="144" x="1143.5" y="1684.9551">PatientService</text><rect fill="#E2E2F0" height="37.2813" rx="2.5" ry="2.5" style="stroke:#181818;stroke-width:0.5;" width="160" x="1521.5" y="87.2969"/><text fill="#000000" font-family="sans-serif" font-size="20" lengthAdjust="spacing" textLength="146" x="1528.5" y="112.8613">PatientMapper</text><rect fill="#E2E2F0" height="37.2813" rx="2.5" ry="2.5" style="stroke:#181818;stroke-width:0.5;" width="160" x="1521.5" y="1659.3906"/><text fill="#000000" font-family="sans-serif" font-size="20" lengthAdjust="spacing" textLength="146" x="1528.5" y="1684.9551">PatientMapper</text><rect fill="#E2E2F0" height="37.2813" rx="2.5" ry="2.5" style="stroke:#181818;stroke-width:0.5;" width="191" x="1691.5" y="87.2969"/><text fill="#000000" font-family="sans-serif" font-size="20" lengthAdjust="spacing" textLength="177" x="1698.5" y="112.8613">PatientRepository</text><rect fill="#E2E2F0" height="37.2813" rx="2.5" ry="2.5" style="stroke:#181818;stroke-width:0.5;" width="191" x="1691.5" y="1659.3906"/><text fill="#000000" font-family="sans-serif" font-size="20" lengthAdjust="spacing" textLength="177" x="1698.5" y="1684.9551">PatientRepository</text><rect fill="#E2E2F0" height="37.2813" rx="2.5" ry="2.5" style="stroke:#181818;stroke-width:0.5;" width="85" x="2167" y="87.2969"/><text fill="#000000" font-family="sans-serif" font-size="20" lengthAdjust="spacing" textLength="71" x="2174" y="112.8613">Patient</text><rect fill="#E2E2F0" height="37.2813" rx="2.5" ry="2.5" style="stroke:#181818;stroke-width:0.5;" width="85" x="2167" y="1659.3906"/><text fill="#000000" font-family="sans-serif" font-size="20" lengthAdjust="spacing" textLength="71" x="2174" y="1684.9551">Patient</text><rect fill="#E2E2F0" height="37.2813" rx="2.5" ry="2.5" style="stroke:#181818;stroke-width:0.5;" width="128" x="2769.5" y="87.2969"/><text fill="#000000" font-family="sans-serif" font-size="20" lengthAdjust="spacing" textLength="114" x="2776.5" y="112.8613">PatientDTO</text><rect fill="#E2E2F0" height="37.2813" rx="2.5" ry="2.5" style="stroke:#181818;stroke-width:0.5;" width="128" x="2769.5" y="1659.3906"/><text fill="#000000" font-family="sans-serif" font-size="20" lengthAdjust="spacing" textLength="114" x="2776.5" y="1684.9551">PatientDTO</text><rect fill="#E2E2F0" height="37.2813" rx="2.5" ry="2.5" style="stroke:#181818;stroke-width:0.5;" width="343" x="2907.5" y="87.2969"/><text fill="#000000" font-family="sans-serif" font-size="20" lengthAdjust="spacing" textLength="329" x="2914.5" y="112.8613">MedicalRecordNumberGenerator</text><rect fill="#E2E2F0" height="37.2813" rx="2.5" ry="2.5" style="stroke:#181818;stroke-width:0.5;" width="343" x="2907.5" y="1659.3906"/><text fill="#000000" font-family="sans-serif" font-size="20" lengthAdjust="spacing" textLength="329" x="2914.5" y="1684.9551">MedicalRecordNumberGenerator</text><rect fill="#E2E2F0" height="37.2813" rx="2.5" ry="2.5" style="stroke:#181818;stroke-width:0.5;" width="108" x="3260.5" y="87.2969"/><text fill="#000000" font-family="sans-serif" font-size="20" lengthAdjust="spacing" textLength="94" x="3267.5" y="112.8613">Database</text><rect fill="#E2E2F0" height="37.2813" rx="2.5" ry="2.5" style="stroke:#181818;stroke-width:0.5;" width="108" x="3260.5" y="1659.3906"/><text fill="#000000" font-family="sans-serif" font-size="20" lengthAdjust="spacing" textLength="94" x="3267.5" y="1684.9551">Database</text><rect fill="#FFFFFF" height="1515.8125" style="stroke:#181818;stroke-width:1.0;" width="10" x="15.5" y="135.5781"/><rect fill="#FFFFFF" height="1477.5313" style="stroke:#181818;stroke-width:1.0;" width="10" x="634.5" y="164.8594"/><rect fill="#FFFFFF" height="1263.8438" style="stroke:#181818;stroke-width:1.0;" width="10" x="1210.5" y="202.1406"/><rect fill="#FFFFFF" height="194.6875" style="stroke:#181818;stroke-width:1.0;" width="10" x="1596.5" y="239.4219"/><rect fill="#FFFFFF" height="124.8438" style="stroke:#181818;stroke-width:1.0;" width="10" x="1596.5" y="1303.8594"/><rect fill="#FFFFFF" height="111.8438" style="stroke:#181818;stroke-width:1.0;" width="10" x="1782" y="471.3906"/><rect fill="#FFFFFF" height="111.8438" style="stroke:#181818;stroke-width:1.0;" width="10" x="1782" y="661.0781"/><rect fill="#FFFFFF" height="111.8438" style="stroke:#181818;stroke-width:1.0;" width="10" x="1782" y="850.7656"/><rect fill="#FFFFFF" height="104.5625" style="stroke:#181818;stroke-width:1.0;" width="10" x="1782" y="1162.0156"/><rect fill="#FFFFFF" height="43.2813" style="stroke:#181818;stroke-width:1.0;" width="10" x="2204.5" y="346.5469"/><rect fill="#FFFFFF" height="43.2813" style="stroke:#181818;stroke-width:1.0;" width="10" x="2204.5" y="1074.4531"/><rect fill="#FFFFFF" height="43.2813" style="stroke:#181818;stroke-width:1.0;" width="10" x="2828.5" y="1341.1406"/><rect fill="#FFFFFF" height="37.2813" style="stroke:#181818;stroke-width:1.0;" width="10" x="3074" y="999.8906"/><rect fill="#FFFFFF" height="37.2813" style="stroke:#181818;stroke-width:1.0;" width="10" x="3309.5" y="508.6719"/><rect fill="#FFFFFF" height="37.2813" style="stroke:#181818;stroke-width:1.0;" width="10" x="3309.5" y="698.3594"/><rect fill="#FFFFFF" height="37.2813" style="stroke:#181818;stroke-width:1.0;" width="10" x="3309.5" y="888.0469"/><rect fill="#FFFFFF" height="30" style="stroke:#181818;stroke-width:1.0;" width="10" x="3309.5" y="1199.2969"/><polygon fill="#000000" points="622.5,160.8594,632.5,164.8594,622.5,168.8594,626.5,164.8594" style="stroke:#000000;stroke-width:1.0;"/><line style="stroke:#000000;stroke-width:1.0;" x1="25.5" x2="628.5" y1="164.8594" y2="164.8594"/><text fill="#000000" font-family="sans-serif" font-size="20" lengthAdjust="spacing" textLength="590" x="32.5" y="158.1426">Sends HTTP Request to create a Patient with Patient's data</text><polygon fill="#000000" points="1198.5,198.1406,1208.5,202.1406,1198.5,206.1406,1202.5,202.1406" style="stroke:#000000;stroke-width:1.0;"/><line style="stroke:#000000;stroke-width:1.0;stroke-dasharray:2.0,2.0;" x1="644.5" x2="1204.5" y1="202.1406" y2="202.1406"/><text fill="#000000" font-family="sans-serif" font-size="20" lengthAdjust="spacing" textLength="389" x="651.5" y="195.4238">createPatient(CreatingPatientDTO dto)</text><polygon fill="#000000" points="1584.5,235.4219,1594.5,239.4219,1584.5,243.4219,1588.5,239.4219" style="stroke:#000000;stroke-width:1.0;"/><line style="stroke:#000000;stroke-width:1.0;" x1="1220.5" x2="1590.5" y1="239.4219" y2="239.4219"/><text fill="#000000" font-family="sans-serif" font-size="20" lengthAdjust="spacing" textLength="357" x="1227.5" y="232.7051">ToDomain(CreatingPatientDTO dto)</text><polygon fill="#000000" points="2192.5,342.5469,2202.5,346.5469,2192.5,350.5469,2196.5,346.5469" style="stroke:#000000;stroke-width:1.0;"/><line style="stroke:#000000;stroke-width:1.0;" x1="1606.5" x2="2198.5" y1="346.5469" y2="346.5469"/><text fill="#000000" font-family="sans-serif" font-size="20" lengthAdjust="spacing" textLength="573" x="1613.5" y="269.9863">new Patient(dto.FirstName, dto.LastName, dto.FullName,</text><text fill="#000000" font-family="sans-serif" font-size="20" lengthAdjust="spacing" textLength="333" x="1613.5" y="293.2676">DateOnly.Parse(dto.DateOfBirth),</text><text fill="#000000" font-family="sans-serif" font-size="20" lengthAdjust="spacing" textLength="499" x="1613.5" y="316.5488">dto.GenderOptions, dto.Email, dto.PhoneNumber,</text><text fill="#000000" font-family="sans-serif" font-size="20" lengthAdjust="spacing" textLength="473" x="1613.5" y="339.8301">dto.EmergencyContact, dto.MedicalConditions)</text><line style="stroke:#000000;stroke-width:1.0;" x1="2214.5" x2="2256.5" y1="388.8281" y2="388.8281"/><line style="stroke:#000000;stroke-width:1.0;" x1="2256.5" x2="2256.5" y1="388.8281" y2="401.8281"/><line style="stroke:#000000;stroke-width:1.0;" x1="2209.5" x2="2256.5" y1="401.8281" y2="401.8281"/><polygon fill="#000000" points="2219.5,397.8281,2209.5,401.8281,2219.5,405.8281,2215.5,401.8281" style="stroke:#000000;stroke-width:1.0;"/><text fill="#000000" font-family="sans-serif" font-size="20" lengthAdjust="spacing" textLength="87" x="2221.5" y="382.1113">Patient()</text><polygon fill="#000000" points="1231.5,430.1094,1221.5,434.1094,1231.5,438.1094,1227.5,434.1094" style="stroke:#000000;stroke-width:1.0;"/><line style="stroke:#000000;stroke-width:1.0;stroke-dasharray:2.0,2.0;" x1="1225.5" x2="1600.5" y1="434.1094" y2="434.1094"/><text fill="#000000" font-family="sans-serif" font-size="20" lengthAdjust="spacing" textLength="139" x="1237.5" y="427.3926">return Patient</text><polygon fill="#000000" points="1770,467.3906,1780,471.3906,1770,475.3906,1774,471.3906" style="stroke:#000000;stroke-width:1.0;"/><line style="stroke:#000000;stroke-width:1.0;" x1="1220.5" x2="1776" y1="471.3906" y2="471.3906"/><text fill="#000000" font-family="sans-serif" font-size="20" lengthAdjust="spacing" textLength="337" x="1227.5" y="464.6738">getPatientByEmail(patient.Email)</text><polygon fill="#000000" points="3297.5,504.6719,3307.5,508.6719,3297.5,512.6719,3301.5,508.6719" style="stroke:#000000;stroke-width:1.0;"/><line style="stroke:#000000;stroke-width:1.0;" x1="1792" x2="3303.5" y1="508.6719" y2="508.6719"/><text fill="#000000" font-family="sans-serif" font-size="20" lengthAdjust="spacing" textLength="643" x="1799" y="501.9551">_objs.Where(x =&gt; email.Equals(x.Email)).FirstOrDefaultAsync();</text><polygon fill="#000000" points="1803,541.9531,1793,545.9531,1803,549.9531,1799,545.9531" style="stroke:#000000;stroke-width:1.0;"/><line style="stroke:#000000;stroke-width:1.0;stroke-dasharray:2.0,2.0;" x1="1797" x2="3313.5" y1="545.9531" y2="545.9531"/><text fill="#000000" font-family="sans-serif" font-size="20" lengthAdjust="spacing" textLength="99" x="1809" y="539.2363">return var</text><polygon fill="#000000" points="1231.5,579.2344,1221.5,583.2344,1231.5,587.2344,1227.5,583.2344" style="stroke:#000000;stroke-width:1.0;"/><line style="stroke:#000000;stroke-width:1.0;stroke-dasharray:2.0,2.0;" x1="1225.5" x2="1786" y1="583.2344" y2="583.2344"/><text fill="#000000" font-family="sans-serif" font-size="20" lengthAdjust="spacing" textLength="99" x="1237.5" y="576.5176">return var</text><path d="M527.5,598.2344 L603.5,598.2344 L603.5,613.5156 L593.5,623.5156 L527.5,623.5156 L527.5,598.2344 " fill="#EEEEEE" style="stroke:#000000;stroke-width:1.5;"/><rect fill="none" height="1007.875" style="stroke:#000000;stroke-width:1.5;" width="2861" x="527.5" y="598.2344"/><text fill="#000000" font-family="sans-serif" font-size="20" font-weight="bold" lengthAdjust="spacing" textLength="31" x="542.5" y="617.7988">alt</text><text fill="#000000" font-family="sans-serif" font-size="20" font-weight="bold" lengthAdjust="spacing" textLength="130" x="618.5" y="618.7988">[var is null]</text><polygon fill="#000000" points="1770,657.0781,1780,661.0781,1770,665.0781,1774,661.0781" style="stroke:#000000;stroke-width:1.0;"/><line style="stroke:#000000;stroke-width:1.0;" x1="1220.5" x2="1776" y1="661.0781" y2="661.0781"/><text fill="#000000" font-family="sans-serif" font-size="20" lengthAdjust="spacing" textLength="509" x="1227.5" y="654.3613">getPatientByPhoneNumber(patient.PhoneNumber)</text><polygon fill="#000000" points="3297.5,694.3594,3307.5,698.3594,3297.5,702.3594,3301.5,698.3594" style="stroke:#000000;stroke-width:1.0;"/><line style="stroke:#000000;stroke-width:1.0;" x1="1792" x2="3303.5" y1="698.3594" y2="698.3594"/><text fill="#000000" font-family="sans-serif" font-size="20" lengthAdjust="spacing" textLength="817" x="1799" y="691.6426">_objs.Where(x =&gt; phoneNumber.Equals(x.PhoneNumber)).FirstOrDefaultAsync();</text><polygon fill="#000000" points="1803,731.6406,1793,735.6406,1803,739.6406,1799,735.6406" style="stroke:#000000;stroke-width:1.0;"/><line style="stroke:#000000;stroke-width:1.0;stroke-dasharray:2.0,2.0;" x1="1797" x2="3313.5" y1="735.6406" y2="735.6406"/><text fill="#000000" font-family="sans-serif" font-size="20" lengthAdjust="spacing" textLength="99" x="1809" y="728.9238">return var</text><polygon fill="#000000" points="1231.5,768.9219,1221.5,772.9219,1231.5,776.9219,1227.5,772.9219" style="stroke:#000000;stroke-width:1.0;"/><line style="stroke:#000000;stroke-width:1.0;stroke-dasharray:2.0,2.0;" x1="1225.5" x2="1786" y1="772.9219" y2="772.9219"/><text fill="#000000" font-family="sans-serif" font-size="20" lengthAdjust="spacing" textLength="99" x="1237.5" y="766.2051">return var</text><path d="M537.5,787.9219 L613.5,787.9219 L613.5,803.2031 L603.5,813.2031 L537.5,813.2031 L537.5,787.9219 " fill="#EEEEEE" style="stroke:#000000;stroke-width:1.5;"/><rect fill="none" height="748.625" style="stroke:#000000;stroke-width:1.5;" width="2841" x="537.5" y="787.9219"/><text fill="#000000" font-family="sans-serif" font-size="20" font-weight="bold" lengthAdjust="spacing" textLength="31" x="552.5" y="807.4863">alt</text><text fill="#000000" font-family="sans-serif" font-size="20" font-weight="bold" lengthAdjust="spacing" textLength="130" x="628.5" y="808.4863">[var is null]</text><polygon fill="#000000" points="1770,846.7656,1780,850.7656,1770,854.7656,1774,850.7656" style="stroke:#000000;stroke-width:1.0;"/><line style="stroke:#000000;stroke-width:1.0;" x1="1220.5" x2="1776" y1="850.7656" y2="850.7656"/><text fill="#000000" font-family="sans-serif" font-size="20" lengthAdjust="spacing" textLength="134" x="1227.5" y="844.0488">getAllAsync()</text><polygon fill="#000000" points="3297.5,884.0469,3307.5,888.0469,3297.5,892.0469,3301.5,888.0469" style="stroke:#000000;stroke-width:1.0;"/><line style="stroke:#000000;stroke-width:1.0;" x1="1792" x2="3303.5" y1="888.0469" y2="888.0469"/><text fill="#000000" font-family="sans-serif" font-size="20" lengthAdjust="spacing" textLength="198" x="1799" y="881.3301">_objs.ToListAsync();</text><polygon fill="#000000" points="1803,921.3281,1793,925.3281,1803,929.3281,1799,925.3281" style="stroke:#000000;stroke-width:1.0;"/><line style="stroke:#000000;stroke-width:1.0;stroke-dasharray:2.0,2.0;" x1="1797" x2="3313.5" y1="925.3281" y2="925.3281"/><text fill="#000000" font-family="sans-serif" font-size="20" lengthAdjust="spacing" textLength="98" x="1809" y="918.6113">return list</text><polygon fill="#000000" points="1231.5,958.6094,1221.5,962.6094,1231.5,966.6094,1227.5,962.6094" style="stroke:#000000;stroke-width:1.0;"/><line style="stroke:#000000;stroke-width:1.0;stroke-dasharray:2.0,2.0;" x1="1225.5" x2="1786" y1="962.6094" y2="962.6094"/><text fill="#000000" font-family="sans-serif" font-size="20" lengthAdjust="spacing" textLength="98" x="1237.5" y="955.8926">return list</text><polygon fill="#000000" points="3062,995.8906,3072,999.8906,3062,1003.8906,3066,999.8906" style="stroke:#000000;stroke-width:1.0;"/><line style="stroke:#000000;stroke-width:1.0;" x1="1220.5" x2="3068" y1="999.8906" y2="999.8906"/><text fill="#000000" font-family="sans-serif" font-size="20" lengthAdjust="spacing" textLength="433" x="1227.5" y="993.1738">GenerateMedicalRecordNumber(list.Count)</text><polygon fill="#000000" points="1231.5,1033.1719,1221.5,1037.1719,1231.5,1041.1719,1227.5,1037.1719" style="stroke:#000000;stroke-width:1.0;"/><line style="stroke:#000000;stroke-width:1.0;stroke-dasharray:2.0,2.0;" x1="1225.5" x2="3078" y1="1037.1719" y2="1037.1719"/><text fill="#000000" font-family="sans-serif" font-size="20" lengthAdjust="spacing" textLength="399" x="1237.5" y="1030.4551">return generatedMedicalRecordNumber</text><polygon fill="#000000" points="2192.5,1070.4531,2202.5,1074.4531,2192.5,1078.4531,2196.5,1074.4531" style="stroke:#000000;stroke-width:1.0;"/><line style="stroke:#000000;stroke-width:1.0;" x1="1220.5" x2="2198.5" y1="1074.4531" y2="1074.4531"/><text fill="#000000" font-family="sans-serif" font-size="20" lengthAdjust="spacing" textLength="641" x="1227.5" y="1067.7363">AssignMedicalRecordNumber(generatedMedicalRecordNumber)</text><line style="stroke:#000000;stroke-width:1.0;" x1="2214.5" x2="2256.5" y1="1116.7344" y2="1116.7344"/><line style="stroke:#000000;stroke-width:1.0;" x1="2256.5" x2="2256.5" y1="1116.7344" y2="1129.7344"/><line style="stroke:#000000;stroke-width:1.0;" x1="2209.5" x2="2256.5" y1="1129.7344" y2="1129.7344"/><polygon fill="#000000" points="2219.5,1125.7344,2209.5,1129.7344,2219.5,1133.7344,2215.5,1129.7344" style="stroke:#000000;stroke-width:1.0;"/><text fill="#000000" font-family="sans-serif" font-size="20" lengthAdjust="spacing" textLength="600" x="2221.5" y="1110.0176">MedicalRecordNumber = genereatedMedicalRecordNumber</text><polygon fill="#000000" points="1770,1158.0156,1780,1162.0156,1770,1166.0156,1774,1162.0156" style="stroke:#000000;stroke-width:1.0;"/><line style="stroke:#000000;stroke-width:1.0;" x1="1220.5" x2="1776" y1="1162.0156" y2="1162.0156"/><text fill="#000000" font-family="sans-serif" font-size="20" lengthAdjust="spacing" textLength="262" x="1227.5" y="1155.2988">addAsync(Patient patient)</text><polygon fill="#000000" points="3297.5,1195.2969,3307.5,1199.2969,3297.5,1203.2969,3301.5,1199.2969" style="stroke:#000000;stroke-width:1.0;"/><line style="stroke:#000000;stroke-width:1.0;" x1="1792" x2="3303.5" y1="1199.2969" y2="1199.2969"/><text fill="#000000" font-family="sans-serif" font-size="20" lengthAdjust="spacing" textLength="244" x="1799" y="1192.5801">_objs.AddAsync(patient)</text><polygon fill="#000000" points="1231.5,1262.5781,1221.5,1266.5781,1231.5,1270.5781,1227.5,1266.5781" style="stroke:#000000;stroke-width:1.0;"/><line style="stroke:#000000;stroke-width:1.0;stroke-dasharray:2.0,2.0;" x1="1225.5" x2="1786" y1="1266.5781" y2="1266.5781"/><text fill="#000000" font-family="sans-serif" font-size="20" lengthAdjust="spacing" textLength="139" x="1237.5" y="1259.8613">return Patient</text><polygon fill="#000000" points="1584.5,1299.8594,1594.5,1303.8594,1584.5,1307.8594,1588.5,1303.8594" style="stroke:#000000;stroke-width:1.0;"/><line style="stroke:#000000;stroke-width:1.0;" x1="1220.5" x2="1590.5" y1="1303.8594" y2="1303.8594"/><text fill="#000000" font-family="sans-serif" font-size="20" lengthAdjust="spacing" textLength="232" x="1227.5" y="1297.1426">ToDTO(Patient patient)</text><polygon fill="#000000" points="2816.5,1337.1406,2826.5,1341.1406,2816.5,1345.1406,2820.5,1341.1406" style="stroke:#000000;stroke-width:1.0;"/><line style="stroke:#000000;stroke-width:1.0;" x1="1606.5" x2="2822.5" y1="1341.1406" y2="1341.1406"/><text fill="#000000" font-family="sans-serif" font-size="20" lengthAdjust="spacing" textLength="310" x="1613.5" y="1334.4238">new PatientDTO(patient fields)</text><line style="stroke:#000000;stroke-width:1.0;" x1="2838.5" x2="2880.5" y1="1383.4219" y2="1383.4219"/><line style="stroke:#000000;stroke-width:1.0;" x1="2880.5" x2="2880.5" y1="1383.4219" y2="1396.4219"/><line style="stroke:#000000;stroke-width:1.0;" x1="2833.5" x2="2880.5" y1="1396.4219" y2="1396.4219"/><polygon fill="#000000" points="2843.5,1392.4219,2833.5,1396.4219,2843.5,1400.4219,2839.5,1396.4219" style="stroke:#000000;stroke-width:1.0;"/><text fill="#000000" font-family="sans-serif" font-size="20" lengthAdjust="spacing" textLength="130" x="2845.5" y="1376.7051">PatientDTO()</text><polygon fill="#000000" points="1231.5,1424.7031,1221.5,1428.7031,1231.5,1432.7031,1227.5,1428.7031" style="stroke:#000000;stroke-width:1.0;"/><line style="stroke:#000000;stroke-width:1.0;stroke-dasharray:2.0,2.0;" x1="1225.5" x2="1600.5" y1="1428.7031" y2="1428.7031"/><text fill="#000000" font-family="sans-serif" font-size="20" lengthAdjust="spacing" textLength="182" x="1237.5" y="1421.9863">return PatientDTO</text><polygon fill="#000000" points="655.5,1461.9844,645.5,1465.9844,655.5,1469.9844,651.5,1465.9844" style="stroke:#000000;stroke-width:1.0;"/><line style="stroke:#000000;stroke-width:1.0;stroke-dasharray:2.0,2.0;" x1="649.5" x2="1214.5" y1="1465.9844" y2="1465.9844"/><text fill="#000000" font-family="sans-serif" font-size="20" lengthAdjust="spacing" textLength="182" x="661.5" y="1459.2676">return PatientDTO</text><line style="stroke:#000000;stroke-width:1.0;stroke-dasharray:2.0,2.0;" x1="537.5" x2="3378.5" y1="1474.9844" y2="1474.9844"/><text fill="#000000" font-family="sans-serif" font-size="20" font-weight="bold" lengthAdjust="spacing" textLength="175" x="542.5" y="1493.5488">[var is not null]</text><polygon fill="#000000" points="655.5,1524.5469,645.5,1528.5469,655.5,1532.5469,651.5,1528.5469" style="stroke:#000000;stroke-width:1.0;"/><line style="stroke:#000000;stroke-width:1.0;stroke-dasharray:2.0,2.0;" x1="649.5" x2="1214.5" y1="1528.5469" y2="1528.5469"/><text fill="#000000" font-family="sans-serif" font-size="20" lengthAdjust="spacing" textLength="547" x="661.5" y="1521.8301">return Patient with same Phone Number already exists</text><line style="stroke:#000000;stroke-width:1.0;stroke-dasharray:2.0,2.0;" x1="527.5" x2="3388.5" y1="1544.5469" y2="1544.5469"/><text fill="#000000" font-family="sans-serif" font-size="20" font-weight="bold" lengthAdjust="spacing" textLength="175" x="532.5" y="1563.1113">[var is not null]</text><polygon fill="#000000" points="655.5,1594.1094,645.5,1598.1094,655.5,1602.1094,651.5,1598.1094" style="stroke:#000000;stroke-width:1.0;"/><line style="stroke:#000000;stroke-width:1.0;stroke-dasharray:2.0,2.0;" x1="649.5" x2="1214.5" y1="1598.1094" y2="1598.1094"/><text fill="#000000" font-family="sans-serif" font-size="20" lengthAdjust="spacing" textLength="455" x="661.5" y="1591.3926">return Patient with same Email already exists</text><polygon fill="#000000" points="36.5,1638.3906,26.5,1642.3906,36.5,1646.3906,32.5,1642.3906" style="stroke:#000000;stroke-width:1.0;"/><line style="stroke:#000000;stroke-width:1.0;stroke-dasharray:2.0,2.0;" x1="30.5" x2="638.5" y1="1642.3906" y2="1642.3906"/><text fill="#000000" font-family="sans-serif" font-size="20" lengthAdjust="spacing" textLength="413" x="42.5" y="1635.6738">Returns Operation Status Response Code</text><!--SRC=[bLPTRzis57tNhxXe7se3hT5rsBfvRG3Bajg7A1Oa0tiPC33IZSs69bMITk8D- -_ZXsJB3jscUKX2yjp3SwwkxfMwfxmbacoOgE-nWGRlo9RfJ71TqNyGthsD8aqrGxZ67JBu6VAaX8IIbOc9eZLj473JwZriS7EBKaMlL4y9rvIZthS8GkgrYABZISs8Kl1l1EOd9lNzIeejR-Q22VdXmuwmBIvkls2jhwxWPV9hEij-2qEb40wJ9McSl0rZ5CeThT5H_PIzI-CGp52asU_fUtSsar8y-EsO6Lpqtr1xQtR82iFguMKQPxzaiGqXjJORMGf4cT-HYTQqfYtX6buKH5FaUcxoB0LZA5zOr3m8ghm1XwY2Y9oqRKUH1m4bja9H8sVlG6KGv8wAu56oNBXJy_VqFCU6reILM0lPt6nj2Nn2ZfAOkxoUykRJQKX2DBabolj9OfSdkYCQRP9CjjvSmNmA5V96mUVbie0IlsvHQT02QeaMIA3J1GzKh_l5AmMDuJxopQCvl35qrRGBx82ZkLrHlZgwWqQByJ6oYYgh8v_2KYHYGoZ_VamUvJQcc0B7XrxJo60c6PLAtv0DlhOXasioN6LRnlpgBsvIWmlEzfE2I8KkrctTnTIyGMCBiNicmmtAHQkfuCgpf4OZy_yMQy7HFue-8DsWN26lzxRUZ60Fx9wTsMkeengOAQAYCzCR6KSD3expFhCIzLRo7ZO4vJw9vHHMgBlpUE-KZbg_zBe7zvPHQMEIU0f_YzilQlBd6YME7k7ZbUap1Zj9lsu9KwF7BdJiixkGYUzSCxNdzMZynv7Ib5WIExNbGUsEoA5I0odF_9mXoeWmRJU1Ak3caRcNF-HlaFw3oy7Us0KEUEtoikVs67bqFgIxwF_aciGtlM0UxC5fBZf9J_9nXlJQGtavoysCiKxMuVIC9924fRYcwjHEo5BG5ZEHXzEdtaB-BeMKfuPiEvj2r-8mqFr6bcWoDmD11zowRjZlsiMPYbL7t0IOG-fE-AhkZPqfHLSyfErRz06rnM6hRmQ1EFZeLUCFo2wUL0bf6l-e-yRUlJe_KZ6pdkDoxA00dbSMVLjxHcMuMR5SFCD1VYm1vs2vE9aPbgGBXZkAh54X9sOI7-hVpAAUPy0n3deTn5teuKF8IJiV-FL3-bbnbTj4fl3G9uH-qYj2X7wwApCSmRKyw2gEC5DjpHxmqRnhwXjtyYQwUE_txtG39dJPoKNs4l-PaQLJywrYoHGiMlkYcQ4AbIPwQpwvKBLcn9gF4j7WSBBCe-X_]--></g></svg>