<?xml version="1.0" encoding="UTF-8" standalone="no"?><svg xmlns="http://www.w3.org/2000/svg" xmlns:xlink="http://www.w3.org/1999/xlink" contentStyleType="text/css" height="594px" preserveAspectRatio="none" style="width:1913px;height:594px;background:#FFFFFF;" version="1.1" viewBox="0 0 1913 594" width="1913px" zoomAndPan="magnify"><defs/><g><text fill="#000000" font-family="sans-serif" font-size="14" font-weight="bold" lengthAdjust="spacing" textLength="126" x="892.75" y="27.9951">Level 2 Diagram</text><rect fill="#FFFFFF" height="362.5313" style="stroke:#181818;stroke-width:1.0;" width="10" x="36" y="135.5781"/><rect fill="#FFFFFF" height="37.2813" style="stroke:#181818;stroke-width:1.0;" width="10" x="862" y="164.8594"/><rect fill="#FFFFFF" height="249.6875" style="stroke:#181818;stroke-width:1.0;" width="10" x="862" y="239.4219"/><rect fill="#FFFFFF" height="137.8438" style="stroke:#181818;stroke-width:1.0;" width="10" x="1508" y="276.7031"/><line style="stroke:#181818;stroke-width:0.5;stroke-dasharray:5.0,5.0;" x1="41" x2="41" y1="125.5781" y2="507.1094"/><line style="stroke:#181818;stroke-width:0.5;stroke-dasharray:5.0,5.0;" x1="866.5" x2="866.5" y1="125.5781" y2="507.1094"/><line style="stroke:#181818;stroke-width:0.5;stroke-dasharray:5.0,5.0;" x1="1513" x2="1513" y1="125.5781" y2="507.1094"/><line style="stroke:#181818;stroke-width:0.5;stroke-dasharray:5.0,5.0;" x1="1864.5" x2="1864.5" y1="125.5781" y2="507.1094"/><text fill="#000000" font-family="sans-serif" font-size="20" lengthAdjust="spacing" textLength="66" x="5" y="120.8613">Doctor</text><ellipse cx="41" cy="50.7969" fill="#E2E2F0" rx="8" ry="8" style="stroke:#181818;stroke-width:0.5;"/><path d="M41,58.7969 L41,85.7969 M28,66.7969 L54,66.7969 M41,85.7969 L28,100.7969 M41,85.7969 L54,100.7969 " fill="none" style="stroke:#181818;stroke-width:0.5;"/><text fill="#000000" font-family="sans-serif" font-size="20" lengthAdjust="spacing" textLength="66" x="5" y="524.6738">Doctor</text><ellipse cx="41" cy="537.8906" fill="#E2E2F0" rx="8" ry="8" style="stroke:#181818;stroke-width:0.5;"/><path d="M41,545.8906 L41,572.8906 M28,553.8906 L54,553.8906 M41,572.8906 L28,587.8906 M41,572.8906 L54,587.8906 " fill="none" style="stroke:#181818;stroke-width:0.5;"/><rect fill="#E2E2F0" height="37.2813" rx="2.5" ry="2.5" style="stroke:#181818;stroke-width:0.5;" width="233" x="750.5" y="87.2969"/><text fill="#000000" font-family="sans-serif" font-size="20" lengthAdjust="spacing" textLength="219" x="757.5" y="112.8613">Operation Request FE</text><rect fill="#E2E2F0" height="37.2813" rx="2.5" ry="2.5" style="stroke:#181818;stroke-width:0.5;" width="233" x="750.5" y="506.1094"/><text fill="#000000" font-family="sans-serif" font-size="20" lengthAdjust="spacing" textLength="219" x="757.5" y="531.6738">Operation Request FE</text><rect fill="#E2E2F0" height="37.2813" rx="2.5" ry="2.5" style="stroke:#181818;stroke-width:0.5;" width="254" x="1386" y="87.2969"/><text fill="#000000" font-family="sans-serif" font-size="20" lengthAdjust="spacing" textLength="240" x="1393" y="112.8613">Operation Request MDR</text><rect fill="#E2E2F0" height="37.2813" rx="2.5" ry="2.5" style="stroke:#181818;stroke-width:0.5;" width="254" x="1386" y="506.1094"/><text fill="#000000" font-family="sans-serif" font-size="20" lengthAdjust="spacing" textLength="240" x="1393" y="531.6738">Operation Request MDR</text><rect fill="#E2E2F0" height="37.2813" rx="2.5" ry="2.5" style="stroke:#181818;stroke-width:0.5;" width="85" x="1822.5" y="87.2969"/><text fill="#000000" font-family="sans-serif" font-size="20" lengthAdjust="spacing" textLength="71" x="1829.5" y="112.8613">Patient</text><rect fill="#E2E2F0" height="37.2813" rx="2.5" ry="2.5" style="stroke:#181818;stroke-width:0.5;" width="85" x="1822.5" y="506.1094"/><text fill="#000000" font-family="sans-serif" font-size="20" lengthAdjust="spacing" textLength="71" x="1829.5" y="531.6738">Patient</text><rect fill="#FFFFFF" height="362.5313" style="stroke:#181818;stroke-width:1.0;" width="10" x="36" y="135.5781"/><rect fill="#FFFFFF" height="37.2813" style="stroke:#181818;stroke-width:1.0;" width="10" x="862" y="164.8594"/><rect fill="#FFFFFF" height="249.6875" style="stroke:#181818;stroke-width:1.0;" width="10" x="862" y="239.4219"/><rect fill="#FFFFFF" height="137.8438" style="stroke:#181818;stroke-width:1.0;" width="10" x="1508" y="276.7031"/><polygon fill="#000000" points="850,160.8594,860,164.8594,850,168.8594,854,164.8594" style="stroke:#000000;stroke-width:1.0;"/><line style="stroke:#000000;stroke-width:1.0;" x1="46" x2="856" y1="164.8594" y2="164.8594"/><text fill="#000000" font-family="sans-serif" font-size="20" lengthAdjust="spacing" textLength="402" x="53" y="158.1426">Requests to create an operation request</text><polygon fill="#000000" points="57,198.1406,47,202.1406,57,206.1406,53,202.1406" style="stroke:#000000;stroke-width:1.0;"/><line style="stroke:#000000;stroke-width:1.0;stroke-dasharray:2.0,2.0;" x1="51" x2="866" y1="202.1406" y2="202.1406"/><text fill="#000000" font-family="sans-serif" font-size="20" lengthAdjust="spacing" textLength="336" x="63" y="195.4238">Asks for operation request details</text><polygon fill="#000000" points="850,235.4219,860,239.4219,850,243.4219,854,239.4219" style="stroke:#000000;stroke-width:1.0;"/><line style="stroke:#000000;stroke-width:1.0;" x1="46" x2="856" y1="239.4219" y2="239.4219"/><text fill="#000000" font-family="sans-serif" font-size="20" lengthAdjust="spacing" textLength="797" x="53" y="232.7051">Sends operation request data (patientID, operationType, deadlineDate, priority)</text><polygon fill="#000000" points="1496,272.7031,1506,276.7031,1496,280.7031,1500,276.7031" style="stroke:#000000;stroke-width:1.0;"/><line style="stroke:#000000;stroke-width:1.0;" x1="872" x2="1502" y1="276.7031" y2="276.7031"/><text fill="#000000" font-family="sans-serif" font-size="20" lengthAdjust="spacing" textLength="617" x="879" y="269.9863">Sends HTTP Request to create an operation request with data</text><line style="stroke:#000000;stroke-width:1.0;" x1="1518" x2="1560" y1="313.9844" y2="313.9844"/><line style="stroke:#000000;stroke-width:1.0;" x1="1560" x2="1560" y1="313.9844" y2="326.9844"/><line style="stroke:#000000;stroke-width:1.0;" x1="1519" x2="1560" y1="326.9844" y2="326.9844"/><polygon fill="#000000" points="1529,322.9844,1519,326.9844,1529,330.9844,1525,326.9844" style="stroke:#000000;stroke-width:1.0;"/><text fill="#000000" font-family="sans-serif" font-size="20" lengthAdjust="spacing" textLength="328" x="1525" y="307.2676">Validates operation request data</text><line style="stroke:#000000;stroke-width:1.0;" x1="1518" x2="1560" y1="364.2656" y2="364.2656"/><line style="stroke:#000000;stroke-width:1.0;" x1="1560" x2="1560" y1="364.2656" y2="377.2656"/><line style="stroke:#000000;stroke-width:1.0;" x1="1519" x2="1560" y1="377.2656" y2="377.2656"/><polygon fill="#000000" points="1529,373.2656,1519,377.2656,1529,381.2656,1525,377.2656" style="stroke:#000000;stroke-width:1.0;"/><text fill="#000000" font-family="sans-serif" font-size="20" lengthAdjust="spacing" textLength="260" x="1525" y="357.5488">Creates operation request</text><polygon fill="#000000" points="883,410.5469,873,414.5469,883,418.5469,879,414.5469" style="stroke:#000000;stroke-width:1.0;"/><line style="stroke:#000000;stroke-width:1.0;stroke-dasharray:2.0,2.0;" x1="877" x2="1512" y1="414.5469" y2="414.5469"/><text fill="#000000" font-family="sans-serif" font-size="20" lengthAdjust="spacing" textLength="311" x="889" y="407.8301">Returns Operation Status Code</text><polygon fill="#000000" points="57,447.8281,47,451.8281,57,455.8281,53,451.8281" style="stroke:#000000;stroke-width:1.0;"/><line style="stroke:#000000;stroke-width:1.0;stroke-dasharray:2.0,2.0;" x1="51" x2="861" y1="451.8281" y2="451.8281"/><text fill="#000000" font-family="sans-serif" font-size="20" lengthAdjust="spacing" textLength="453" x="63" y="445.1113">Returns Operation Request Success message</text><polygon fill="#000000" points="1853,485.1094,1863,489.1094,1853,493.1094,1857,489.1094" style="stroke:#000000;stroke-width:1.0;"/><line style="stroke:#000000;stroke-width:1.0;stroke-dasharray:2.0,2.0;" x1="867" x2="1859" y1="489.1094" y2="489.1094"/><text fill="#000000" font-family="sans-serif" font-size="20" lengthAdjust="spacing" textLength="441" x="874" y="482.3926">Notifies patient about the operation request</text><!--SRC=[XPFTYjim48NlzHJ3xaqBMTW6-XUMG1pPjD1sbqte_KIU96eKovN6MTBIT-_OgUqiSLk3BP2-S-Pe9CUTBKeCk7VUx2Y7dDPOESvymGlxWs1ygnHRTWIVw40Eng0jReHNQcjp0jgNV8GzxLSKebAnjGFZC4RugK2U1Crk4tnLv7FlVBYxEw2hw7xrZGnFft2jtwIpxDqm6hnlc4odYRuTPYA5WpNKMBtAncaoX8b5chrFtpPhin3yqsawSSAfN-VPIvd13GsdX-iqoLvdIIr1mpAXVJDW1At4WAsn9HOCL_Sb1MJh2tYaxnL5XYozghai_H_uMJysf8nD6Nj09l7NS3CL-QG58x074wXUnG9yPnHEwxrMQcOft8XSJs0MTn7M4lf283U0qRgeSZgNTdKNLEHnI8QCyAAKIIhuenxroF9OqaXiCNUs82s68oY3zS7oyUL5lcczvRRCX-NoeMl9lpSAJvQtJOhUicwUl9tfLtHM2FfR_cVmlAarW9wexXYu2aM4_WGNZ5n5cFkSpdjOP-dxVobhTxceZ27vS_RoaJlOQXvEZPt05yzsRINNdrO3hdmbpTdIGDBdP_WR]--></g></svg>