<?xml version="1.0" encoding="UTF-8" standalone="no"?><svg xmlns="http://www.w3.org/2000/svg" xmlns:xlink="http://www.w3.org/1999/xlink" contentStyleType="text/css" height="560px" preserveAspectRatio="none" style="width:1216px;height:560px;background:#FFFFFF;" version="1.1" viewBox="0 0 1216 560" width="1216px" zoomAndPan="magnify"><defs><filter height="300%" id="fq1citsub4htj" width="300%" x="-1" y="-1"><feGaussianBlur result="blurOut" stdDeviation="2.0"/><feColorMatrix in="blurOut" result="blurOut2" type="matrix" values="0 0 0 0 0 0 0 0 0 0 0 0 0 0 0 0 0 0 .4 0"/><feOffset dx="4.0" dy="4.0" in="blurOut2" result="blurOut3"/><feBlend in="SourceGraphic" in2="blurOut3" mode="normal"/></filter></defs><g><text fill="#000000" font-family="sans-serif" font-size="14" font-weight="bold" lengthAdjust="spacing" textLength="181" x="519.5" y="27.9951">5.1.21 Level 1 Diagram</text><rect fill="#FFFFFF" filter="url(#fq1citsub4htj)" height="325.25" style="stroke:#181818;stroke-width:1.0;" width="10" x="36" y="138.5781"/><rect fill="#FFFFFF" filter="url(#fq1citsub4htj)" height="286.9688" style="stroke:#181818;stroke-width:1.0;" width="10" x="991" y="167.8594"/><line style="stroke:#181818;stroke-width:0.5;stroke-dasharray:5.0,5.0;" x1="41" x2="41" y1="128.5781" y2="472.8281"/><line style="stroke:#181818;stroke-width:0.5;stroke-dasharray:5.0,5.0;" x1="995.5" x2="995.5" y1="128.5781" y2="472.8281"/><text fill="#000000" font-family="sans-serif" font-size="20" lengthAdjust="spacing" textLength="66" x="5" y="123.8613">Admin</text><ellipse cx="41" cy="50.7969" fill="#E2E2F0" filter="url(#fq1citsub4htj)" rx="8" ry="8" style="stroke:#181818;stroke-width:0.5;"/><path d="M41,58.7969 L41,85.7969 M28,66.7969 L54,66.7969 M41,85.7969 L28,100.7969 M41,85.7969 L54,100.7969 " fill="none" filter="url(#fq1citsub4htj)" style="stroke:#181818;stroke-width:0.5;"/><text fill="#000000" font-family="sans-serif" font-size="20" lengthAdjust="spacing" textLength="66" x="5" y="490.3926">Admin</text><ellipse cx="41" cy="503.6094" fill="#E2E2F0" filter="url(#fq1citsub4htj)" rx="8" ry="8" style="stroke:#181818;stroke-width:0.5;"/><path d="M41,511.6094 L41,538.6094 M28,519.6094 L54,519.6094 M41,538.6094 L28,553.6094 M41,538.6094 L54,553.6094 " fill="none" filter="url(#fq1citsub4htj)" style="stroke:#181818;stroke-width:0.5;"/><rect fill="#E2E2F0" filter="url(#fq1citsub4htj)" height="37.2813" rx="2.5" ry="2.5" style="stroke:#181818;stroke-width:0.5;" width="88" x="950.5" y="87.2969"/><text fill="#000000" font-family="sans-serif" font-size="20" lengthAdjust="spacing" textLength="74" x="957.5" y="112.8613">System</text><rect fill="#E2E2F0" filter="url(#fq1citsub4htj)" height="37.2813" rx="2.5" ry="2.5" style="stroke:#181818;stroke-width:0.5;" width="88" x="950.5" y="471.8281"/><text fill="#000000" font-family="sans-serif" font-size="20" lengthAdjust="spacing" textLength="74" x="957.5" y="497.3926">System</text><rect fill="#FFFFFF" filter="url(#fq1citsub4htj)" height="325.25" style="stroke:#181818;stroke-width:1.0;" width="10" x="36" y="138.5781"/><rect fill="#FFFFFF" filter="url(#fq1citsub4htj)" height="286.9688" style="stroke:#181818;stroke-width:1.0;" width="10" x="991" y="167.8594"/><polygon fill="#181818" points="979,163.8594,989,167.8594,979,171.8594,983,167.8594" style="stroke:#181818;stroke-width:1.0;"/><line style="stroke:#181818;stroke-width:1.0;" x1="46" x2="985" y1="167.8594" y2="167.8594"/><text fill="#000000" font-family="sans-serif" font-size="20" lengthAdjust="spacing" textLength="304" x="53" y="161.1426">Ask to edit types of operations</text><polygon fill="#181818" points="57,201.1406,47,205.1406,57,209.1406,53,205.1406" style="stroke:#181818;stroke-width:1.0;"/><line style="stroke:#181818;stroke-width:1.0;" x1="51" x2="990" y1="205.1406" y2="205.1406"/><text fill="#000000" font-family="sans-serif" font-size="20" lengthAdjust="spacing" textLength="494" x="63" y="198.4238">Ask for type of operation data to edit(ID or name)</text><polygon fill="#181818" points="979,238.4219,989,242.4219,979,246.4219,983,242.4219" style="stroke:#181818;stroke-width:1.0;"/><line style="stroke:#181818;stroke-width:1.0;" x1="46" x2="985" y1="242.4219" y2="242.4219"/><text fill="#000000" font-family="sans-serif" font-size="20" lengthAdjust="spacing" textLength="442" x="53" y="235.7051">Send ID or Name of type of operation to edit</text><line style="stroke:#181818;stroke-width:1.0;" x1="1001" x2="1043" y1="279.7031" y2="279.7031"/><line style="stroke:#181818;stroke-width:1.0;" x1="1043" x2="1043" y1="279.7031" y2="292.7031"/><line style="stroke:#181818;stroke-width:1.0;" x1="1002" x2="1043" y1="292.7031" y2="292.7031"/><polygon fill="#181818" points="1012,288.7031,1002,292.7031,1012,296.7031,1008,292.7031" style="stroke:#181818;stroke-width:1.0;"/><text fill="#000000" font-family="sans-serif" font-size="20" lengthAdjust="spacing" textLength="201" x="1008" y="272.9863">Validate ID or Name</text><polygon fill="#181818" points="57,325.9844,47,329.9844,57,333.9844,53,329.9844" style="stroke:#181818;stroke-width:1.0;"/><line style="stroke:#181818;stroke-width:1.0;" x1="51" x2="990" y1="329.9844" y2="329.9844"/><text fill="#000000" font-family="sans-serif" font-size="20" lengthAdjust="spacing" textLength="403" x="63" y="323.2676">Shows the type of operation data to edit</text><polygon fill="#181818" points="979,363.2656,989,367.2656,979,371.2656,983,367.2656" style="stroke:#181818;stroke-width:1.0;"/><line style="stroke:#181818;stroke-width:1.0;" x1="46" x2="985" y1="367.2656" y2="367.2656"/><text fill="#000000" font-family="sans-serif" font-size="20" lengthAdjust="spacing" textLength="921" x="53" y="360.5488">Change the type of operation data (name,requiredStaffBySpecialization,estimatedDuration)</text><line style="stroke:#181818;stroke-width:1.0;" x1="1001" x2="1043" y1="404.5469" y2="404.5469"/><line style="stroke:#181818;stroke-width:1.0;" x1="1043" x2="1043" y1="404.5469" y2="417.5469"/><line style="stroke:#181818;stroke-width:1.0;" x1="1002" x2="1043" y1="417.5469" y2="417.5469"/><polygon fill="#181818" points="1012,413.5469,1002,417.5469,1012,421.5469,1008,417.5469" style="stroke:#181818;stroke-width:1.0;"/><text fill="#000000" font-family="sans-serif" font-size="20" lengthAdjust="spacing" textLength="134" x="1008" y="397.8301">Validate data</text><polygon fill="#181818" points="57,450.8281,47,454.8281,57,458.8281,53,454.8281" style="stroke:#181818;stroke-width:1.0;"/><line style="stroke:#181818;stroke-width:1.0;" x1="51" x2="995" y1="454.8281" y2="454.8281"/><text fill="#000000" font-family="sans-serif" font-size="20" lengthAdjust="spacing" textLength="477" x="63" y="448.1113">Send confirmation message(Success or Failure)</text><!--SRC=[XL9BQyCm3BxdL-ZOGbVMmYux3BA5mc3i4jXTs4eY4jkPhRIaltvsiz8kXUxan_VG9zcXPTkZHzCvrP86JHKEdUoSbPAF1Dl7B9mfqA3L1yyYPA72Bj0LPfnrgl7Eq0tKesgnfbB6Zi2JaYiiDAZTWMqDuWVAX2LodjQRzNO37xId3ZPGCDQHcsMen7d8jM4B620lJbUyHw5qo0juU85o34Bc6VBGWZWWpG8ozXJ0LU1wyYZiRBWe9q4sBSaXBoPr5OibvHyXQ1Gy6o_U2uWaYuQMi_8bMGqJ_1dXv77hzMjpLVii_yAETKftiPWbB1jt220D_PDnbkijFc9DztIBrCxAq_V0ddGfM5MlOzcJufZfU2AkA0YR64yNmoHTmhqcakyyVfgFShPYRwRYXaA8tsHH3ah5RMfxXzmDFivMq_ovVW00]--></g></svg>