<?xml version="1.0" encoding="UTF-8" standalone="no"?><svg xmlns="http://www.w3.org/2000/svg" xmlns:xlink="http://www.w3.org/1999/xlink" contentStyleType="text/css" height="1439px" preserveAspectRatio="none" style="width:2026px;height:1439px;background:#FFFFFF;" version="1.1" viewBox="0 0 2026 1439" width="2026px" zoomAndPan="magnify"><defs/><g><text fill="#000000" font-family="sans-serif" font-size="14" font-weight="bold" lengthAdjust="spacing" textLength="381" x="824" y="27.9951">Doctor Operation Request Search Flow - Level 2</text><rect fill="#FFFFFF" height="823.75" style="stroke:#181818;stroke-width:1.0;" width="10" x="397" y="188.1406"/><rect fill="#FFFFFF" height="284.25" style="stroke:#181818;stroke-width:1.0;" width="10" x="397" y="1049.1719"/><rect fill="#FFFFFF" height="532.2188" style="stroke:#181818;stroke-width:1.0;" width="10" x="837" y="442.3906"/><rect fill="none" height="257.25" style="stroke:#000000;stroke-width:1.5;" width="1286" x="734" y="569.2344"/><line style="stroke:#181818;stroke-width:0.5;stroke-dasharray:5.0,5.0;" x1="41" x2="41" y1="125.5781" y2="1351.4219"/><line style="stroke:#181818;stroke-width:0.5;stroke-dasharray:5.0,5.0;" x1="402" x2="402" y1="125.5781" y2="1351.4219"/><line style="stroke:#181818;stroke-width:0.5;stroke-dasharray:5.0,5.0;" x1="842" x2="842" y1="125.5781" y2="1351.4219"/><line style="stroke:#181818;stroke-width:0.5;stroke-dasharray:5.0,5.0;" x1="1106" x2="1106" y1="125.5781" y2="1351.4219"/><line style="stroke:#181818;stroke-width:0.5;stroke-dasharray:5.0,5.0;" x1="1312" x2="1312" y1="125.5781" y2="1351.4219"/><line style="stroke:#181818;stroke-width:0.5;stroke-dasharray:5.0,5.0;" x1="1480" x2="1480" y1="125.5781" y2="1351.4219"/><line style="stroke:#181818;stroke-width:0.5;stroke-dasharray:5.0,5.0;" x1="1631" x2="1631" y1="125.5781" y2="1351.4219"/><line style="stroke:#181818;stroke-width:0.5;stroke-dasharray:5.0,5.0;" x1="1960" x2="1960" y1="125.5781" y2="1351.4219"/><text fill="#000000" font-family="sans-serif" font-size="20" lengthAdjust="spacing" textLength="66" x="5" y="120.8613">Doctor</text><ellipse cx="41" cy="50.7969" fill="#E2E2F0" rx="8" ry="8" style="stroke:#181818;stroke-width:0.5;"/><path d="M41,58.7969 L41,85.7969 M28,66.7969 L54,66.7969 M41,85.7969 L28,100.7969 M41,85.7969 L54,100.7969 " fill="none" style="stroke:#181818;stroke-width:0.5;"/><text fill="#000000" font-family="sans-serif" font-size="20" lengthAdjust="spacing" textLength="66" x="5" y="1368.9863">Doctor</text><ellipse cx="41" cy="1382.2031" fill="#E2E2F0" rx="8" ry="8" style="stroke:#181818;stroke-width:0.5;"/><path d="M41,1390.2031 L41,1417.2031 M28,1398.2031 L54,1398.2031 M41,1417.2031 L28,1432.2031 M41,1417.2031 L54,1432.2031 " fill="none" style="stroke:#181818;stroke-width:0.5;"/><rect fill="#E2E2F0" height="60.5625" rx="2.5" ry="2.5" style="stroke:#181818;stroke-width:0.5;" width="196" x="304" y="64.0156"/><text fill="#000000" font-family="sans-serif" font-size="20" lengthAdjust="spacing" textLength="182" x="311" y="89.5801">OperationRequest</text><text fill="#000000" font-family="sans-serif" font-size="20" lengthAdjust="spacing" textLength="99" x="352.5" y="112.8613">Controller</text><rect fill="#E2E2F0" height="60.5625" rx="2.5" ry="2.5" style="stroke:#181818;stroke-width:0.5;" width="196" x="304" y="1350.4219"/><text fill="#000000" font-family="sans-serif" font-size="20" lengthAdjust="spacing" textLength="182" x="311" y="1375.9863">OperationRequest</text><text fill="#000000" font-family="sans-serif" font-size="20" lengthAdjust="spacing" textLength="99" x="352.5" y="1399.2676">Controller</text><rect fill="#E2E2F0" height="60.5625" rx="2.5" ry="2.5" style="stroke:#181818;stroke-width:0.5;" width="196" x="744" y="64.0156"/><text fill="#000000" font-family="sans-serif" font-size="20" lengthAdjust="spacing" textLength="182" x="751" y="89.5801">OperationRequest</text><text fill="#000000" font-family="sans-serif" font-size="20" lengthAdjust="spacing" textLength="73" x="805.5" y="112.8613">Service</text><rect fill="#E2E2F0" height="60.5625" rx="2.5" ry="2.5" style="stroke:#181818;stroke-width:0.5;" width="196" x="744" y="1350.4219"/><text fill="#000000" font-family="sans-serif" font-size="20" lengthAdjust="spacing" textLength="182" x="751" y="1375.9863">OperationRequest</text><text fill="#000000" font-family="sans-serif" font-size="20" lengthAdjust="spacing" textLength="73" x="805.5" y="1399.2676">Service</text><rect fill="#E2E2F0" height="60.5625" rx="2.5" ry="2.5" style="stroke:#181818;stroke-width:0.5;" width="196" x="1008" y="64.0156"/><text fill="#000000" font-family="sans-serif" font-size="20" lengthAdjust="spacing" textLength="182" x="1015" y="89.5801">OperationRequest</text><text fill="#000000" font-family="sans-serif" font-size="20" lengthAdjust="spacing" textLength="75" x="1068.5" y="112.8613">Mapper</text><rect fill="#E2E2F0" height="60.5625" rx="2.5" ry="2.5" style="stroke:#181818;stroke-width:0.5;" width="196" x="1008" y="1350.4219"/><text fill="#000000" font-family="sans-serif" font-size="20" lengthAdjust="spacing" textLength="182" x="1015" y="1375.9863">OperationRequest</text><text fill="#000000" font-family="sans-serif" font-size="20" lengthAdjust="spacing" textLength="75" x="1068.5" y="1399.2676">Mapper</text><rect fill="#E2E2F0" height="60.5625" rx="2.5" ry="2.5" style="stroke:#181818;stroke-width:0.5;" width="196" x="1214" y="64.0156"/><text fill="#000000" font-family="sans-serif" font-size="20" lengthAdjust="spacing" textLength="182" x="1221" y="89.5801">OperationRequest</text><text fill="#000000" font-family="sans-serif" font-size="20" lengthAdjust="spacing" textLength="106" x="1259" y="112.8613">Repository</text><rect fill="#E2E2F0" height="60.5625" rx="2.5" ry="2.5" style="stroke:#181818;stroke-width:0.5;" width="196" x="1214" y="1350.4219"/><text fill="#000000" font-family="sans-serif" font-size="20" lengthAdjust="spacing" textLength="182" x="1221" y="1375.9863">OperationRequest</text><text fill="#000000" font-family="sans-serif" font-size="20" lengthAdjust="spacing" textLength="106" x="1259" y="1399.2676">Repository</text><rect fill="#E2E2F0" height="60.5625" rx="2.5" ry="2.5" style="stroke:#181818;stroke-width:0.5;" width="120" x="1420" y="64.0156"/><text fill="#000000" font-family="sans-serif" font-size="20" lengthAdjust="spacing" textLength="71" x="1444.5" y="89.5801">Patient</text><text fill="#000000" font-family="sans-serif" font-size="20" lengthAdjust="spacing" textLength="106" x="1427" y="112.8613">Repository</text><rect fill="#E2E2F0" height="60.5625" rx="2.5" ry="2.5" style="stroke:#181818;stroke-width:0.5;" width="120" x="1420" y="1350.4219"/><text fill="#000000" font-family="sans-serif" font-size="20" lengthAdjust="spacing" textLength="71" x="1444.5" y="1375.9863">Patient</text><text fill="#000000" font-family="sans-serif" font-size="20" lengthAdjust="spacing" textLength="106" x="1427" y="1399.2676">Repository</text><rect fill="#E2E2F0" height="60.5625" rx="2.5" ry="2.5" style="stroke:#181818;stroke-width:0.5;" width="162" x="1550" y="64.0156"/><text fill="#000000" font-family="sans-serif" font-size="20" lengthAdjust="spacing" textLength="148" x="1557" y="89.5801">OperationType</text><text fill="#000000" font-family="sans-serif" font-size="20" lengthAdjust="spacing" textLength="106" x="1578" y="112.8613">Repository</text><rect fill="#E2E2F0" height="60.5625" rx="2.5" ry="2.5" style="stroke:#181818;stroke-width:0.5;" width="162" x="1550" y="1350.4219"/><text fill="#000000" font-family="sans-serif" font-size="20" lengthAdjust="spacing" textLength="148" x="1557" y="1375.9863">OperationType</text><text fill="#000000" font-family="sans-serif" font-size="20" lengthAdjust="spacing" textLength="106" x="1578" y="1399.2676">Repository</text><text fill="#000000" font-family="sans-serif" font-size="20" lengthAdjust="spacing" textLength="94" x="1910" y="120.8613">Database</text><path d="M1942,66.2969 C1942,56.2969 1960,56.2969 1960,56.2969 C1960,56.2969 1978,56.2969 1978,66.2969 L1978,92.2969 C1978,102.2969 1960,102.2969 1960,102.2969 C1960,102.2969 1942,102.2969 1942,92.2969 L1942,66.2969 " fill="#E2E2F0" style="stroke:#181818;stroke-width:1.5;"/><path d="M1942,66.2969 C1942,76.2969 1960,76.2969 1960,76.2969 C1960,76.2969 1978,76.2969 1978,66.2969 " fill="none" style="stroke:#181818;stroke-width:1.5;"/><text fill="#000000" font-family="sans-serif" font-size="20" lengthAdjust="spacing" textLength="94" x="1910" y="1368.9863">Database</text><path d="M1942,1383.7031 C1942,1373.7031 1960,1373.7031 1960,1373.7031 C1960,1373.7031 1978,1373.7031 1978,1383.7031 L1978,1409.7031 C1978,1419.7031 1960,1419.7031 1960,1419.7031 C1960,1419.7031 1942,1419.7031 1942,1409.7031 L1942,1383.7031 " fill="#E2E2F0" style="stroke:#181818;stroke-width:1.5;"/><path d="M1942,1383.7031 C1942,1393.7031 1960,1393.7031 1960,1393.7031 C1960,1393.7031 1978,1393.7031 1978,1383.7031 " fill="none" style="stroke:#181818;stroke-width:1.5;"/><rect fill="#FFFFFF" height="823.75" style="stroke:#181818;stroke-width:1.0;" width="10" x="397" y="188.1406"/><rect fill="#FFFFFF" height="284.25" style="stroke:#181818;stroke-width:1.0;" width="10" x="397" y="1049.1719"/><rect fill="#FFFFFF" height="532.2188" style="stroke:#181818;stroke-width:1.0;" width="10" x="837" y="442.3906"/><polygon fill="#181818" points="385,184.1406,395,188.1406,385,192.1406,389,188.1406" style="stroke:#181818;stroke-width:1.0;"/><line style="stroke:#181818;stroke-width:1.0;" x1="41" x2="391" y1="188.1406" y2="188.1406"/><text fill="#000000" font-family="sans-serif" font-size="20" lengthAdjust="spacing" textLength="337" x="48" y="158.1426">GET /api/operationrequest/search</text><text fill="#000000" font-family="sans-serif" font-size="20" lengthAdjust="spacing" textLength="237" x="48" y="181.4238">with search parameters</text><line style="stroke:#181818;stroke-width:1.0;" x1="407" x2="449" y1="225.4219" y2="225.4219"/><line style="stroke:#181818;stroke-width:1.0;" x1="449" x2="449" y1="225.4219" y2="238.4219"/><line style="stroke:#181818;stroke-width:1.0;" x1="408" x2="449" y1="238.4219" y2="238.4219"/><polygon fill="#181818" points="418,234.4219,408,238.4219,418,242.4219,414,238.4219" style="stroke:#181818;stroke-width:1.0;"/><text fill="#000000" font-family="sans-serif" font-size="20" lengthAdjust="spacing" textLength="270" x="414" y="218.7051">Validate JWT &amp; Doctor Role</text><line style="stroke:#181818;stroke-width:1.0;" x1="407" x2="449" y1="392.1094" y2="392.1094"/><line style="stroke:#181818;stroke-width:1.0;" x1="449" x2="449" y1="392.1094" y2="405.1094"/><line style="stroke:#181818;stroke-width:1.0;" x1="408" x2="449" y1="405.1094" y2="405.1094"/><polygon fill="#181818" points="418,401.1094,408,405.1094,418,409.1094,414,405.1094" style="stroke:#181818;stroke-width:1.0;"/><text fill="#000000" font-family="sans-serif" font-size="20" lengthAdjust="spacing" textLength="324" x="414" y="268.9863">Create SearchParams from DTO:</text><text fill="#000000" font-family="sans-serif" font-size="20" lengthAdjust="spacing" textLength="143" x="414" y="292.2676">- PatientName</text><text fill="#000000" font-family="sans-serif" font-size="20" lengthAdjust="spacing" textLength="161" x="414" y="315.5488">- OperationType</text><text fill="#000000" font-family="sans-serif" font-size="20" lengthAdjust="spacing" textLength="84" x="414" y="338.8301">- Priority</text><text fill="#000000" font-family="sans-serif" font-size="20" lengthAdjust="spacing" textLength="77" x="414" y="362.1113">- Status</text><text fill="#000000" font-family="sans-serif" font-size="20" lengthAdjust="spacing" textLength="124" x="414" y="385.3926">- DateRange</text><polygon fill="#181818" points="825,438.3906,835,442.3906,825,446.3906,829,442.3906" style="stroke:#181818;stroke-width:1.0;"/><line style="stroke:#181818;stroke-width:1.0;" x1="407" x2="831" y1="442.3906" y2="442.3906"/><text fill="#000000" font-family="sans-serif" font-size="20" lengthAdjust="spacing" textLength="411" x="414" y="435.6738">SearchOperationRequestsAsync(params)</text><polygon fill="#181818" points="1300,475.6719,1310,479.6719,1300,483.6719,1304,479.6719" style="stroke:#181818;stroke-width:1.0;"/><line style="stroke:#181818;stroke-width:1.0;" x1="847" x2="1306" y1="479.6719" y2="479.6719"/><text fill="#000000" font-family="sans-serif" font-size="20" lengthAdjust="spacing" textLength="411" x="854" y="472.9551">SearchOperationRequestsAsync(params)</text><polygon fill="#181818" points="1948,512.9531,1958,516.9531,1948,520.9531,1952,516.9531" style="stroke:#181818;stroke-width:1.0;"/><line style="stroke:#181818;stroke-width:1.0;" x1="1312" x2="1954" y1="516.9531" y2="516.9531"/><text fill="#000000" font-family="sans-serif" font-size="20" lengthAdjust="spacing" textLength="178" x="1319" y="510.2363">Query with Filters</text><polygon fill="#181818" points="1323,550.2344,1313,554.2344,1323,558.2344,1319,554.2344" style="stroke:#181818;stroke-width:1.0;"/><line style="stroke:#181818;stroke-width:1.0;stroke-dasharray:2.0,2.0;" x1="1317" x2="1959" y1="554.2344" y2="554.2344"/><text fill="#000000" font-family="sans-serif" font-size="20" lengthAdjust="spacing" textLength="175" x="1329" y="547.5176">Filtered Requests</text><path d="M734,569.2344 L828,569.2344 L828,584.5156 L818,594.5156 L734,594.5156 L734,569.2344 " fill="#EEEEEE" style="stroke:#000000;stroke-width:1.5;"/><rect fill="none" height="257.25" style="stroke:#000000;stroke-width:1.5;" width="1286" x="734" y="569.2344"/><text fill="#000000" font-family="sans-serif" font-size="20" font-weight="bold" lengthAdjust="spacing" textLength="49" x="749" y="588.7988">loop</text><text fill="#000000" font-family="sans-serif" font-size="20" font-weight="bold" lengthAdjust="spacing" textLength="212" x="843" y="589.7988">[For each request]</text><polygon fill="#181818" points="1468,628.0781,1478,632.0781,1468,636.0781,1472,632.0781" style="stroke:#181818;stroke-width:1.0;"/><line style="stroke:#181818;stroke-width:1.0;" x1="847" x2="1474" y1="632.0781" y2="632.0781"/><text fill="#000000" font-family="sans-serif" font-size="20" lengthAdjust="spacing" textLength="246" x="854" y="625.3613">GetByIdAsync(patientId)</text><polygon fill="#181818" points="1948,665.3594,1958,669.3594,1948,673.3594,1952,669.3594" style="stroke:#181818;stroke-width:1.0;"/><line style="stroke:#181818;stroke-width:1.0;" x1="1480" x2="1954" y1="669.3594" y2="669.3594"/><text fill="#000000" font-family="sans-serif" font-size="20" lengthAdjust="spacing" textLength="228" x="1487" y="662.6426">SELECT FROM Patients</text><polygon fill="#181818" points="1491,702.6406,1481,706.6406,1491,710.6406,1487,706.6406" style="stroke:#181818;stroke-width:1.0;"/><line style="stroke:#181818;stroke-width:1.0;stroke-dasharray:2.0,2.0;" x1="1485" x2="1959" y1="706.6406" y2="706.6406"/><text fill="#000000" font-family="sans-serif" font-size="20" lengthAdjust="spacing" textLength="124" x="1497" y="699.9238">Patient Data</text><polygon fill="#181818" points="1619,739.9219,1629,743.9219,1619,747.9219,1623,743.9219" style="stroke:#181818;stroke-width:1.0;"/><line style="stroke:#181818;stroke-width:1.0;" x1="847" x2="1625" y1="743.9219" y2="743.9219"/><text fill="#000000" font-family="sans-serif" font-size="20" lengthAdjust="spacing" textLength="318" x="854" y="737.2051">GetByIdAsync(operationTypeId)</text><polygon fill="#181818" points="1948,777.2031,1958,781.2031,1948,785.2031,1952,781.2031" style="stroke:#181818;stroke-width:1.0;"/><line style="stroke:#181818;stroke-width:1.0;" x1="1631" x2="1954" y1="781.2031" y2="781.2031"/><text fill="#000000" font-family="sans-serif" font-size="20" lengthAdjust="spacing" textLength="305" x="1638" y="774.4863">SELECT FROM OperationTypes</text><polygon fill="#181818" points="1642,814.4844,1632,818.4844,1642,822.4844,1638,818.4844" style="stroke:#181818;stroke-width:1.0;"/><line style="stroke:#181818;stroke-width:1.0;stroke-dasharray:2.0,2.0;" x1="1636" x2="1959" y1="818.4844" y2="818.4844"/><text fill="#000000" font-family="sans-serif" font-size="20" lengthAdjust="spacing" textLength="201" x="1648" y="811.7676">OperationType Data</text><polygon fill="#181818" points="858,858.7656,848,862.7656,858,866.7656,854,862.7656" style="stroke:#181818;stroke-width:1.0;"/><line style="stroke:#181818;stroke-width:1.0;stroke-dasharray:2.0,2.0;" x1="852" x2="1311" y1="862.7656" y2="862.7656"/><text fill="#000000" font-family="sans-serif" font-size="20" lengthAdjust="spacing" textLength="187" x="864" y="856.0488">Enriched Requests</text><polygon fill="#181818" points="1094,896.0469,1104,900.0469,1094,904.0469,1098,900.0469" style="stroke:#181818;stroke-width:1.0;"/><line style="stroke:#181818;stroke-width:1.0;" x1="847" x2="1100" y1="900.0469" y2="900.0469"/><text fill="#000000" font-family="sans-serif" font-size="20" lengthAdjust="spacing" textLength="169" x="854" y="893.3301">ToDTO(requests)</text><polygon fill="#181818" points="858,933.3281,848,937.3281,858,941.3281,854,937.3281" style="stroke:#181818;stroke-width:1.0;"/><line style="stroke:#181818;stroke-width:1.0;stroke-dasharray:2.0,2.0;" x1="852" x2="1105" y1="937.3281" y2="937.3281"/><text fill="#000000" font-family="sans-serif" font-size="20" lengthAdjust="spacing" textLength="235" x="864" y="930.6113">OperationRequestDTOs</text><polygon fill="#181818" points="418,970.6094,408,974.6094,418,978.6094,414,974.6094" style="stroke:#181818;stroke-width:1.0;"/><line style="stroke:#181818;stroke-width:1.0;stroke-dasharray:2.0,2.0;" x1="412" x2="841" y1="974.6094" y2="974.6094"/><text fill="#000000" font-family="sans-serif" font-size="20" lengthAdjust="spacing" textLength="294" x="424" y="967.8926">List&lt;OperationRequestDTO&gt;</text><polygon fill="#181818" points="52,1007.8906,42,1011.8906,52,1015.8906,48,1011.8906" style="stroke:#181818;stroke-width:1.0;"/><line style="stroke:#181818;stroke-width:1.0;stroke-dasharray:2.0,2.0;" x1="46" x2="401" y1="1011.8906" y2="1011.8906"/><text fill="#000000" font-family="sans-serif" font-size="20" lengthAdjust="spacing" textLength="203" x="58" y="1005.1738">200 OK with Results</text><polygon fill="#181818" points="385,1045.1719,395,1049.1719,385,1053.1719,389,1049.1719" style="stroke:#181818;stroke-width:1.0;"/><line style="stroke:#181818;stroke-width:1.0;" x1="41" x2="391" y1="1049.1719" y2="1049.1719"/><text fill="#000000" font-family="sans-serif" font-size="20" lengthAdjust="spacing" textLength="316" x="48" y="1042.4551">GET /api/operationrequest/{id}</text><polygon fill="#181818" points="830,1082.4531,840,1086.4531,830,1090.4531,834,1086.4531" style="stroke:#181818;stroke-width:1.0;"/><line style="stroke:#181818;stroke-width:1.0;" x1="407" x2="836" y1="1086.4531" y2="1086.4531"/><text fill="#000000" font-family="sans-serif" font-size="20" lengthAdjust="spacing" textLength="174" x="414" y="1079.7363">GetByIdAsync(id)</text><polygon fill="#181818" points="1300,1119.7344,1310,1123.7344,1300,1127.7344,1304,1123.7344" style="stroke:#181818;stroke-width:1.0;"/><line style="stroke:#181818;stroke-width:1.0;" x1="842" x2="1306" y1="1123.7344" y2="1123.7344"/><text fill="#000000" font-family="sans-serif" font-size="20" lengthAdjust="spacing" textLength="174" x="849" y="1117.0176">GetByIdAsync(id)</text><polygon fill="#181818" points="1948,1157.0156,1958,1161.0156,1948,1165.0156,1952,1161.0156" style="stroke:#181818;stroke-width:1.0;"/><line style="stroke:#181818;stroke-width:1.0;" x1="1312" x2="1954" y1="1161.0156" y2="1161.0156"/><text fill="#000000" font-family="sans-serif" font-size="20" lengthAdjust="spacing" textLength="201" x="1319" y="1154.2988">SELECT with Details</text><polygon fill="#181818" points="1323,1194.2969,1313,1198.2969,1323,1202.2969,1319,1198.2969" style="stroke:#181818;stroke-width:1.0;"/><line style="stroke:#181818;stroke-width:1.0;stroke-dasharray:2.0,2.0;" x1="1317" x2="1959" y1="1198.2969" y2="1198.2969"/><text fill="#000000" font-family="sans-serif" font-size="20" lengthAdjust="spacing" textLength="178" x="1329" y="1191.5801">Full Request Data</text><polygon fill="#181818" points="853,1231.5781,843,1235.5781,853,1239.5781,849,1235.5781" style="stroke:#181818;stroke-width:1.0;"/><line style="stroke:#181818;stroke-width:1.0;stroke-dasharray:2.0,2.0;" x1="847" x2="1311" y1="1235.5781" y2="1235.5781"/><text fill="#000000" font-family="sans-serif" font-size="20" lengthAdjust="spacing" textLength="182" x="859" y="1228.8613">OperationRequest</text><polygon fill="#181818" points="418,1268.8594,408,1272.8594,418,1276.8594,414,1272.8594" style="stroke:#181818;stroke-width:1.0;"/><line style="stroke:#181818;stroke-width:1.0;stroke-dasharray:2.0,2.0;" x1="412" x2="841" y1="1272.8594" y2="1272.8594"/><text fill="#000000" font-family="sans-serif" font-size="20" lengthAdjust="spacing" textLength="225" x="424" y="1266.1426">OperationRequestDTO</text><polygon fill="#181818" points="52,1329.4219,42,1333.4219,52,1337.4219,48,1333.4219" style="stroke:#181818;stroke-width:1.0;"/><line style="stroke:#181818;stroke-width:1.0;stroke-dasharray:2.0,2.0;" x1="46" x2="401" y1="1333.4219" y2="1333.4219"/><text fill="#000000" font-family="sans-serif" font-size="20" lengthAdjust="spacing" textLength="124" x="58" y="1303.4238">200 OK with</text><text fill="#000000" font-family="sans-serif" font-size="20" lengthAdjust="spacing" textLength="139" x="58" y="1326.7051">Detailed View</text><!--SRC=[ZLJBRjim4BppAnOvjF71S92ZK0IeBJj8QzUk9AGNNrXfqn1XI9MaRQX5_xryoPKKfuuF1iNTdHtEBAcVcAYfeizSbazOGOKFTCVDGWgJiry8rrV4CCCHKbaQgM1TewA6IG4P_joXDf0ZLUKZBBWym1YMk4SEruHGdnwgYErWMCbgAWnS724YmbRCR3SbEKTr0LJ3EfkTgyXHxLc9CJq_bxwYTNq4NvtBph2McbdUJQpe5sniDegNUPli5U2YgV4bQf6HYXhwdMg4YpIkV2YT4XBb7jyuDHAudHSmeJMRo1PK1ROJxUNVYWCpZn0-m1kA1fLsDh0zDUX59VRl27bFEQjSvDEt0jwr_cQI8o7lmLgoHsLE87OnPWeTGXY1ZSlHyA3aCwJ5EjcACKIjljXYzpcGnCOLaugPngrpGyrEkvLL0pCgVc27SPx4DaE_z4VTYFBICzIZxe5pTv1RDE0rZeAv0-G1yes8wyobfzC4lkvGDU2LNZ3krKYdC8vWOSlUeHR6jPyBnQn-lgOEOe2pdN0fQrXOnP7QU2H7mFuYlus5jEIdpLtLyl7bTzN8fssEjFBvSZuhO96jLwtWsgT4SWufxZjfgOzrMzbP7FIINQFQZZRjLCkUgRt67hSN3lrHLCJBsZeRL1f8Poyj6Eb6gUFPAe52sgtBraxdp-eVqj1BNntAsw5TCcq-dCYx8HNsfySFdpknlnk9VGolOFqvc9cXjk-axjVC7EyK3MKSxXaUtdwDVxFgpskNDH-OmwfHTuXFn0OsUSA1LdzYTvmVtt7lJDUKeKHz5Ky8-5_1jY8Gi2PxPGQw_GK0]--></g></svg>