<?xml version="1.0" encoding="UTF-8" standalone="no"?><svg xmlns="http://www.w3.org/2000/svg" xmlns:xlink="http://www.w3.org/1999/xlink" contentStyleType="text/css" height="1342px" preserveAspectRatio="none" style="width:3839px;height:1342px;background:#FFFFFF;" version="1.1" viewBox="0 0 3839 1342" width="3839px" zoomAndPan="magnify"><defs/><g><text fill="#000000" font-family="sans-serif" font-size="14" font-weight="bold" lengthAdjust="spacing" textLength="126" x="1857.75" y="27.9951">Level 3 Diagram</text><rect fill="#FFFFFF" height="1110.4375" style="stroke:#181818;stroke-width:1.0;" width="10" x="38.5" y="135.5781"/><rect fill="#FFFFFF" height="37.2813" style="stroke:#181818;stroke-width:1.0;" width="10" x="587.5" y="164.8594"/><rect fill="#FFFFFF" height="997.5938" style="stroke:#181818;stroke-width:1.0;" width="10" x="587.5" y="239.4219"/><rect fill="#FFFFFF" height="923.0313" style="stroke:#181818;stroke-width:1.0;" width="10" x="1095.5" y="276.7031"/><rect fill="#FFFFFF" height="841.4688" style="stroke:#181818;stroke-width:1.0;" width="10" x="1603.5" y="313.9844"/><rect fill="#FFFFFF" height="43.2813" style="stroke:#181818;stroke-width:1.0;" width="10" x="2657.5" y="793.9219"/><rect fill="#FFFFFF" height="124.8438" style="stroke:#181818;stroke-width:1.0;" width="10" x="3065.5" y="581.5156"/><rect fill="#FFFFFF" height="37.2813" style="stroke:#181818;stroke-width:1.0;" width="10" x="3225" y="351.2656"/><rect fill="#FFFFFF" height="104.5625" style="stroke:#181818;stroke-width:1.0;" width="10" x="3225" y="881.4844"/><rect fill="#FFFFFF" height="37.2813" style="stroke:#181818;stroke-width:1.0;" width="10" x="3413" y="466.3906"/><rect fill="#FFFFFF" height="43.2813" style="stroke:#181818;stroke-width:1.0;" width="10" x="3548" y="618.7969"/><rect fill="#FFFFFF" height="30" style="stroke:#181818;stroke-width:1.0;" width="10" x="3753.5" y="918.7656"/><rect fill="#EBF5FB" height="759.9063" style="stroke:#000000;stroke-width:1.5;" width="2831" x="1001.5" y="403.5469"/><rect fill="#EBF5FB" height="575.2188" style="stroke:#000000;stroke-width:1.5;" width="2811" x="1011.5" y="518.6719"/><rect fill="#EBF5FB" height="62.5625" style="stroke:none;stroke-width:1.0;" width="2811" x="1011.5" y="1031.3281"/><rect fill="#EBF5FB" height="62.5625" style="stroke:none;stroke-width:1.0;" width="2831" x="1001.5" y="1100.8906"/><line style="stroke:#181818;stroke-width:0.5;stroke-dasharray:5.0,5.0;" x1="43" x2="43" y1="125.5781" y2="1255.0156"/><line style="stroke:#181818;stroke-width:0.5;stroke-dasharray:5.0,5.0;" x1="592.5" x2="592.5" y1="125.5781" y2="1255.0156"/><line style="stroke:#181818;stroke-width:0.5;stroke-dasharray:5.0,5.0;" x1="1100.5" x2="1100.5" y1="125.5781" y2="1255.0156"/><line style="stroke:#181818;stroke-width:0.5;stroke-dasharray:5.0,5.0;" x1="1608.5" x2="1608.5" y1="125.5781" y2="1255.0156"/><line style="stroke:#181818;stroke-width:0.5;stroke-dasharray:5.0,5.0;" x1="2662.5" x2="2662.5" y1="125.5781" y2="1255.0156"/><line style="stroke:#181818;stroke-width:0.5;stroke-dasharray:5.0,5.0;" x1="3070.5" x2="3070.5" y1="125.5781" y2="1255.0156"/><line style="stroke:#181818;stroke-width:0.5;stroke-dasharray:5.0,5.0;" x1="3229.5" x2="3229.5" y1="125.5781" y2="1255.0156"/><line style="stroke:#181818;stroke-width:0.5;stroke-dasharray:5.0,5.0;" x1="3417.5" x2="3417.5" y1="125.5781" y2="1255.0156"/><line style="stroke:#181818;stroke-width:0.5;stroke-dasharray:5.0,5.0;" x1="3552.5" x2="3552.5" y1="125.5781" y2="1255.0156"/><line style="stroke:#181818;stroke-width:0.5;stroke-dasharray:5.0,5.0;" x1="3643.5" x2="3643.5" y1="125.5781" y2="1255.0156"/><line style="stroke:#181818;stroke-width:0.5;stroke-dasharray:5.0,5.0;" x1="3758.5" x2="3758.5" y1="125.5781" y2="1255.0156"/><text fill="#000000" font-family="sans-serif" font-size="20" lengthAdjust="spacing" textLength="71" x="5" y="120.8613">Patient</text><ellipse cx="43.5" cy="50.7969" fill="#E2E2F0" rx="8" ry="8" style="stroke:#181818;stroke-width:0.5;"/><path d="M43.5,58.7969 L43.5,85.7969 M30.5,66.7969 L56.5,66.7969 M43.5,85.7969 L30.5,100.7969 M43.5,85.7969 L56.5,100.7969 " fill="none" style="stroke:#181818;stroke-width:0.5;"/><text fill="#000000" font-family="sans-serif" font-size="20" lengthAdjust="spacing" textLength="71" x="5" y="1272.5801">Patient</text><ellipse cx="43.5" cy="1285.7969" fill="#E2E2F0" rx="8" ry="8" style="stroke:#181818;stroke-width:0.5;"/><path d="M43.5,1293.7969 L43.5,1320.7969 M30.5,1301.7969 L56.5,1301.7969 M43.5,1320.7969 L30.5,1335.7969 M43.5,1320.7969 L56.5,1335.7969 " fill="none" style="stroke:#181818;stroke-width:0.5;"/><rect fill="#E2E2F0" height="37.2813" rx="2.5" ry="2.5" style="stroke:#181818;stroke-width:0.5;" width="154" x="515.5" y="87.2969"/><text fill="#000000" font-family="sans-serif" font-size="20" lengthAdjust="spacing" textLength="140" x="522.5" y="112.8613">User Interface</text><rect fill="#E2E2F0" height="37.2813" rx="2.5" ry="2.5" style="stroke:#181818;stroke-width:0.5;" width="154" x="515.5" y="1254.0156"/><text fill="#000000" font-family="sans-serif" font-size="20" lengthAdjust="spacing" textLength="140" x="522.5" y="1279.5801">User Interface</text><rect fill="#E2E2F0" height="37.2813" rx="2.5" ry="2.5" style="stroke:#181818;stroke-width:0.5;" width="158" x="1021.5" y="87.2969"/><text fill="#000000" font-family="sans-serif" font-size="20" lengthAdjust="spacing" textLength="144" x="1028.5" y="112.8613">UserController</text><rect fill="#E2E2F0" height="37.2813" rx="2.5" ry="2.5" style="stroke:#181818;stroke-width:0.5;" width="158" x="1021.5" y="1254.0156"/><text fill="#000000" font-family="sans-serif" font-size="20" lengthAdjust="spacing" textLength="144" x="1028.5" y="1279.5801">UserController</text><rect fill="#E2E2F0" height="37.2813" rx="2.5" ry="2.5" style="stroke:#181818;stroke-width:0.5;" width="132" x="1542.5" y="87.2969"/><text fill="#000000" font-family="sans-serif" font-size="20" lengthAdjust="spacing" textLength="118" x="1549.5" y="112.8613">UserService</text><rect fill="#E2E2F0" height="37.2813" rx="2.5" ry="2.5" style="stroke:#181818;stroke-width:0.5;" width="132" x="1542.5" y="1254.0156"/><text fill="#000000" font-family="sans-serif" font-size="20" lengthAdjust="spacing" textLength="118" x="1549.5" y="1279.5801">UserService</text><rect fill="#E2E2F0" height="37.2813" rx="2.5" ry="2.5" style="stroke:#181818;stroke-width:0.5;" width="144" x="2590.5" y="87.2969"/><text fill="#000000" font-family="sans-serif" font-size="20" lengthAdjust="spacing" textLength="130" x="2597.5" y="112.8613">EmailService</text><rect fill="#E2E2F0" height="37.2813" rx="2.5" ry="2.5" style="stroke:#181818;stroke-width:0.5;" width="144" x="2590.5" y="1254.0156"/><text fill="#000000" font-family="sans-serif" font-size="20" lengthAdjust="spacing" textLength="130" x="2597.5" y="1279.5801">EmailService</text><rect fill="#E2E2F0" height="37.2813" rx="2.5" ry="2.5" style="stroke:#181818;stroke-width:0.5;" width="134" x="3003.5" y="87.2969"/><text fill="#000000" font-family="sans-serif" font-size="20" lengthAdjust="spacing" textLength="120" x="3010.5" y="112.8613">UserMapper</text><rect fill="#E2E2F0" height="37.2813" rx="2.5" ry="2.5" style="stroke:#181818;stroke-width:0.5;" width="134" x="3003.5" y="1254.0156"/><text fill="#000000" font-family="sans-serif" font-size="20" lengthAdjust="spacing" textLength="120" x="3010.5" y="1279.5801">UserMapper</text><rect fill="#E2E2F0" height="37.2813" rx="2.5" ry="2.5" style="stroke:#181818;stroke-width:0.5;" width="165" x="3147.5" y="87.2969"/><text fill="#000000" font-family="sans-serif" font-size="20" lengthAdjust="spacing" textLength="151" x="3154.5" y="112.8613">UserRepository</text><rect fill="#E2E2F0" height="37.2813" rx="2.5" ry="2.5" style="stroke:#181818;stroke-width:0.5;" width="165" x="3147.5" y="1254.0156"/><text fill="#000000" font-family="sans-serif" font-size="20" lengthAdjust="spacing" textLength="151" x="3154.5" y="1279.5801">UserRepository</text><rect fill="#E2E2F0" height="37.2813" rx="2.5" ry="2.5" style="stroke:#181818;stroke-width:0.5;" width="191" x="3322.5" y="87.2969"/><text fill="#000000" font-family="sans-serif" font-size="20" lengthAdjust="spacing" textLength="177" x="3329.5" y="112.8613">PatientRepository</text><rect fill="#E2E2F0" height="37.2813" rx="2.5" ry="2.5" style="stroke:#181818;stroke-width:0.5;" width="191" x="3322.5" y="1254.0156"/><text fill="#000000" font-family="sans-serif" font-size="20" lengthAdjust="spacing" textLength="177" x="3329.5" y="1279.5801">PatientRepository</text><rect fill="#E2E2F0" height="37.2813" rx="2.5" ry="2.5" style="stroke:#181818;stroke-width:0.5;" width="59" x="3523.5" y="87.2969"/><text fill="#000000" font-family="sans-serif" font-size="20" lengthAdjust="spacing" textLength="45" x="3530.5" y="112.8613">User</text><rect fill="#E2E2F0" height="37.2813" rx="2.5" ry="2.5" style="stroke:#181818;stroke-width:0.5;" width="59" x="3523.5" y="1254.0156"/><text fill="#000000" font-family="sans-serif" font-size="20" lengthAdjust="spacing" textLength="45" x="3530.5" y="1279.5801">User</text><rect fill="#E2E2F0" height="37.2813" rx="2.5" ry="2.5" style="stroke:#181818;stroke-width:0.5;" width="102" x="3592.5" y="87.2969"/><text fill="#000000" font-family="sans-serif" font-size="20" lengthAdjust="spacing" textLength="88" x="3599.5" y="112.8613">UserDTO</text><rect fill="#E2E2F0" height="37.2813" rx="2.5" ry="2.5" style="stroke:#181818;stroke-width:0.5;" width="102" x="3592.5" y="1254.0156"/><text fill="#000000" font-family="sans-serif" font-size="20" lengthAdjust="spacing" textLength="88" x="3599.5" y="1279.5801">UserDTO</text><rect fill="#E2E2F0" height="37.2813" rx="2.5" ry="2.5" style="stroke:#181818;stroke-width:0.5;" width="108" x="3704.5" y="87.2969"/><text fill="#000000" font-family="sans-serif" font-size="20" lengthAdjust="spacing" textLength="94" x="3711.5" y="112.8613">Database</text><rect fill="#E2E2F0" height="37.2813" rx="2.5" ry="2.5" style="stroke:#181818;stroke-width:0.5;" width="108" x="3704.5" y="1254.0156"/><text fill="#000000" font-family="sans-serif" font-size="20" lengthAdjust="spacing" textLength="94" x="3711.5" y="1279.5801">Database</text><rect fill="#FFFFFF" height="1110.4375" style="stroke:#181818;stroke-width:1.0;" width="10" x="38.5" y="135.5781"/><rect fill="#FFFFFF" height="37.2813" style="stroke:#181818;stroke-width:1.0;" width="10" x="587.5" y="164.8594"/><rect fill="#FFFFFF" height="997.5938" style="stroke:#181818;stroke-width:1.0;" width="10" x="587.5" y="239.4219"/><rect fill="#FFFFFF" height="923.0313" style="stroke:#181818;stroke-width:1.0;" width="10" x="1095.5" y="276.7031"/><rect fill="#FFFFFF" height="841.4688" style="stroke:#181818;stroke-width:1.0;" width="10" x="1603.5" y="313.9844"/><rect fill="#FFFFFF" height="43.2813" style="stroke:#181818;stroke-width:1.0;" width="10" x="2657.5" y="793.9219"/><rect fill="#FFFFFF" height="124.8438" style="stroke:#181818;stroke-width:1.0;" width="10" x="3065.5" y="581.5156"/><rect fill="#FFFFFF" height="37.2813" style="stroke:#181818;stroke-width:1.0;" width="10" x="3225" y="351.2656"/><rect fill="#FFFFFF" height="104.5625" style="stroke:#181818;stroke-width:1.0;" width="10" x="3225" y="881.4844"/><rect fill="#FFFFFF" height="37.2813" style="stroke:#181818;stroke-width:1.0;" width="10" x="3413" y="466.3906"/><rect fill="#FFFFFF" height="43.2813" style="stroke:#181818;stroke-width:1.0;" width="10" x="3548" y="618.7969"/><rect fill="#FFFFFF" height="30" style="stroke:#181818;stroke-width:1.0;" width="10" x="3753.5" y="918.7656"/><polygon fill="#000000" points="575.5,160.8594,585.5,164.8594,575.5,168.8594,579.5,164.8594" style="stroke:#000000;stroke-width:1.0;"/><line style="stroke:#000000;stroke-width:1.0;" x1="48.5" x2="581.5" y1="164.8594" y2="164.8594"/><text fill="#000000" font-family="sans-serif" font-size="20" lengthAdjust="spacing" textLength="240" x="55.5" y="158.1426">Asks to Register as User</text><polygon fill="#000000" points="59.5,198.1406,49.5,202.1406,59.5,206.1406,55.5,202.1406" style="stroke:#000000;stroke-width:1.0;"/><line style="stroke:#000000;stroke-width:1.0;stroke-dasharray:2.0,2.0;" x1="53.5" x2="591.5" y1="202.1406" y2="202.1406"/><text fill="#000000" font-family="sans-serif" font-size="20" lengthAdjust="spacing" textLength="318" x="65.5" y="195.4238">Asks for data to register as User</text><polygon fill="#000000" points="575.5,235.4219,585.5,239.4219,575.5,243.4219,579.5,239.4219" style="stroke:#000000;stroke-width:1.0;"/><line style="stroke:#000000;stroke-width:1.0;" x1="48.5" x2="581.5" y1="239.4219" y2="239.4219"/><text fill="#000000" font-family="sans-serif" font-size="20" lengthAdjust="spacing" textLength="520" x="55.5" y="232.7051">Sends data(email, password, phone number, name)</text><polygon fill="#000000" points="1083.5,272.7031,1093.5,276.7031,1083.5,280.7031,1087.5,276.7031" style="stroke:#000000;stroke-width:1.0;"/><line style="stroke:#000000;stroke-width:1.0;" x1="597.5" x2="1089.5" y1="276.7031" y2="276.7031"/><text fill="#000000" font-family="sans-serif" font-size="20" lengthAdjust="spacing" textLength="479" x="604.5" y="269.9863">createPatientUser(CreatingPatientUserDTO dto)</text><polygon fill="#000000" points="1591.5,309.9844,1601.5,313.9844,1591.5,317.9844,1595.5,313.9844" style="stroke:#000000;stroke-width:1.0;"/><line style="stroke:#000000;stroke-width:1.0;" x1="1105.5" x2="1597.5" y1="313.9844" y2="313.9844"/><text fill="#000000" font-family="sans-serif" font-size="20" lengthAdjust="spacing" textLength="479" x="1112.5" y="307.2676">createPatientUser(CreatingPatientUserDTO dto)</text><polygon fill="#000000" points="3213,347.2656,3223,351.2656,3213,355.2656,3217,351.2656" style="stroke:#000000;stroke-width:1.0;"/><line style="stroke:#000000;stroke-width:1.0;" x1="1613.5" x2="3219" y1="351.2656" y2="351.2656"/><text fill="#000000" font-family="sans-serif" font-size="20" lengthAdjust="spacing" textLength="347" x="1620.5" y="344.5488">getUserByEmailAsync(dto.Email())</text><polygon fill="#000000" points="1624.5,384.5469,1614.5,388.5469,1624.5,392.5469,1620.5,388.5469" style="stroke:#000000;stroke-width:1.0;"/><line style="stroke:#000000;stroke-width:1.0;stroke-dasharray:2.0,2.0;" x1="1618.5" x2="3229" y1="388.5469" y2="388.5469"/><text fill="#000000" font-family="sans-serif" font-size="20" lengthAdjust="spacing" textLength="115" x="1630.5" y="381.8301">Returns var</text><path d="M1001.5,403.5469 L1077.5,403.5469 L1077.5,418.8281 L1067.5,428.8281 L1001.5,428.8281 L1001.5,403.5469 " fill="#EEEEEE" style="stroke:#000000;stroke-width:1.5;"/><rect fill="none" height="759.9063" style="stroke:#000000;stroke-width:1.5;" width="2831" x="1001.5" y="403.5469"/><text fill="#000000" font-family="sans-serif" font-size="20" font-weight="bold" lengthAdjust="spacing" textLength="31" x="1016.5" y="423.1113">alt</text><text fill="#000000" font-family="sans-serif" font-size="20" font-weight="bold" lengthAdjust="spacing" textLength="130" x="1092.5" y="424.1113">[var is null]</text><polygon fill="#000000" points="3401,462.3906,3411,466.3906,3401,470.3906,3405,466.3906" style="stroke:#000000;stroke-width:1.0;"/><line style="stroke:#000000;stroke-width:1.0;" x1="1613.5" x2="3407" y1="466.3906" y2="466.3906"/><text fill="#000000" font-family="sans-serif" font-size="20" lengthAdjust="spacing" textLength="347" x="1620.5" y="459.6738">getUserByEmailAsync(dto.Email())</text><polygon fill="#000000" points="1624.5,499.6719,1614.5,503.6719,1624.5,507.6719,1620.5,503.6719" style="stroke:#000000;stroke-width:1.0;"/><line style="stroke:#000000;stroke-width:1.0;stroke-dasharray:2.0,2.0;" x1="1618.5" x2="3417" y1="503.6719" y2="503.6719"/><text fill="#000000" font-family="sans-serif" font-size="20" lengthAdjust="spacing" textLength="115" x="1630.5" y="496.9551">Returns var</text><path d="M1011.5,518.6719 L1087.5,518.6719 L1087.5,533.9531 L1077.5,543.9531 L1011.5,543.9531 L1011.5,518.6719 " fill="#EEEEEE" style="stroke:#000000;stroke-width:1.5;"/><rect fill="none" height="575.2188" style="stroke:#000000;stroke-width:1.5;" width="2811" x="1011.5" y="518.6719"/><text fill="#000000" font-family="sans-serif" font-size="20" font-weight="bold" lengthAdjust="spacing" textLength="31" x="1026.5" y="538.2363">alt</text><text fill="#000000" font-family="sans-serif" font-size="20" font-weight="bold" lengthAdjust="spacing" textLength="763" x="1102.5" y="539.2363">[Phone number matches the Patient's profile with the given email]</text><polygon fill="#000000" points="3053.5,577.5156,3063.5,581.5156,3053.5,585.5156,3057.5,581.5156" style="stroke:#000000;stroke-width:1.0;"/><line style="stroke:#000000;stroke-width:1.0;" x1="1613.5" x2="3059.5" y1="581.5156" y2="581.5156"/><text fill="#000000" font-family="sans-serif" font-size="20" lengthAdjust="spacing" textLength="275" x="1620.5" y="574.7988">ToCreatingPatientUser(dto)</text><polygon fill="#000000" points="3536,614.7969,3546,618.7969,3536,622.7969,3540,618.7969" style="stroke:#000000;stroke-width:1.0;"/><line style="stroke:#000000;stroke-width:1.0;" x1="3075.5" x2="3542" y1="618.7969" y2="618.7969"/><text fill="#000000" font-family="sans-serif" font-size="20" lengthAdjust="spacing" textLength="202" x="3082.5" y="612.0801">new User(dto fields)</text><line style="stroke:#000000;stroke-width:1.0;" x1="3558" x2="3600" y1="661.0781" y2="661.0781"/><line style="stroke:#000000;stroke-width:1.0;" x1="3600" x2="3600" y1="661.0781" y2="674.0781"/><line style="stroke:#000000;stroke-width:1.0;" x1="3553" x2="3600" y1="674.0781" y2="674.0781"/><polygon fill="#000000" points="3563,670.0781,3553,674.0781,3563,678.0781,3559,674.0781" style="stroke:#000000;stroke-width:1.0;"/><text fill="#000000" font-family="sans-serif" font-size="20" lengthAdjust="spacing" textLength="61" x="3565" y="654.3613">User()</text><polygon fill="#000000" points="1624.5,702.3594,1614.5,706.3594,1624.5,710.3594,1620.5,706.3594" style="stroke:#000000;stroke-width:1.0;"/><line style="stroke:#000000;stroke-width:1.0;stroke-dasharray:2.0,2.0;" x1="1618.5" x2="3069.5" y1="706.3594" y2="706.3594"/><text fill="#000000" font-family="sans-serif" font-size="20" lengthAdjust="spacing" textLength="113" x="1630.5" y="699.6426">return User</text><line style="stroke:#000000;stroke-width:1.0;" x1="1613.5" x2="1655.5" y1="743.6406" y2="743.6406"/><line style="stroke:#000000;stroke-width:1.0;" x1="1655.5" x2="1655.5" y1="743.6406" y2="756.6406"/><line style="stroke:#000000;stroke-width:1.0;" x1="1614.5" x2="1655.5" y1="756.6406" y2="756.6406"/><polygon fill="#000000" points="1624.5,752.6406,1614.5,756.6406,1624.5,760.6406,1620.5,756.6406" style="stroke:#000000;stroke-width:1.0;"/><text fill="#000000" font-family="sans-serif" font-size="20" lengthAdjust="spacing" textLength="213" x="1620.5" y="736.9238">GenerateToken(user)</text><polygon fill="#000000" points="2645.5,789.9219,2655.5,793.9219,2645.5,797.9219,2649.5,793.9219" style="stroke:#000000;stroke-width:1.0;"/><line style="stroke:#000000;stroke-width:1.0;" x1="1613.5" x2="2651.5" y1="793.9219" y2="793.9219"/><text fill="#000000" font-family="sans-serif" font-size="20" lengthAdjust="spacing" textLength="1025" x="1620.5" y="787.2051">sendEmail(SendEmail(dto.Email, "Activate your account", GenerateLink(token, "ActivatePatientUser")</text><line style="stroke:#000000;stroke-width:1.0;stroke-dasharray:2.0,2.0;" x1="2667.5" x2="2709.5" y1="836.2031" y2="836.2031"/><line style="stroke:#000000;stroke-width:1.0;stroke-dasharray:2.0,2.0;" x1="2709.5" x2="2709.5" y1="836.2031" y2="849.2031"/><line style="stroke:#000000;stroke-width:1.0;stroke-dasharray:2.0,2.0;" x1="2662.5" x2="2709.5" y1="849.2031" y2="849.2031"/><polygon fill="#000000" points="2672.5,845.2031,2662.5,849.2031,2672.5,853.2031,2668.5,849.2031" style="stroke:#000000;stroke-width:1.0;"/><text fill="#000000" font-family="sans-serif" font-size="20" lengthAdjust="spacing" textLength="384" x="2674.5" y="829.4863">Sends email using SMTP configuration</text><polygon fill="#000000" points="3213,877.4844,3223,881.4844,3213,885.4844,3217,881.4844" style="stroke:#000000;stroke-width:1.0;"/><line style="stroke:#000000;stroke-width:1.0;" x1="1613.5" x2="3219" y1="881.4844" y2="881.4844"/><text fill="#000000" font-family="sans-serif" font-size="20" lengthAdjust="spacing" textLength="156" x="1620.5" y="874.7676">addAsync(user)</text><polygon fill="#000000" points="3741.5,914.7656,3751.5,918.7656,3741.5,922.7656,3745.5,918.7656" style="stroke:#000000;stroke-width:1.0;"/><line style="stroke:#000000;stroke-width:1.0;" x1="3235" x2="3747.5" y1="918.7656" y2="918.7656"/><text fill="#000000" font-family="sans-serif" font-size="20" lengthAdjust="spacing" textLength="215" x="3242" y="912.0488">_objs.AddAsync(user)</text><polygon fill="#000000" points="1624.5,982.0469,1614.5,986.0469,1624.5,990.0469,1620.5,986.0469" style="stroke:#000000;stroke-width:1.0;"/><line style="stroke:#000000;stroke-width:1.0;stroke-dasharray:2.0,2.0;" x1="1618.5" x2="3229" y1="986.0469" y2="986.0469"/><text fill="#000000" font-family="sans-serif" font-size="20" lengthAdjust="spacing" textLength="113" x="1630.5" y="979.3301">return User</text><polygon fill="#000000" points="1116.5,1019.3281,1106.5,1023.3281,1116.5,1027.3281,1112.5,1023.3281" style="stroke:#000000;stroke-width:1.0;"/><line style="stroke:#000000;stroke-width:1.0;stroke-dasharray:2.0,2.0;" x1="1110.5" x2="1602.5" y1="1023.3281" y2="1023.3281"/><text fill="#000000" font-family="sans-serif" font-size="20" lengthAdjust="spacing" textLength="125" x="1122.5" y="1016.6113">return token</text><line style="stroke:#000000;stroke-width:1.0;stroke-dasharray:2.0,2.0;" x1="1011.5" x2="3822.5" y1="1032.3281" y2="1032.3281"/><text fill="#000000" font-family="sans-serif" font-size="20" font-weight="bold" lengthAdjust="spacing" textLength="843" x="1016.5" y="1050.8926">[Phone number does not match the Patient's profile with the given email]</text><polygon fill="#000000" points="1116.5,1081.8906,1106.5,1085.8906,1116.5,1089.8906,1112.5,1085.8906" style="stroke:#000000;stroke-width:1.0;"/><line style="stroke:#000000;stroke-width:1.0;" x1="1110.5" x2="1602.5" y1="1085.8906" y2="1085.8906"/><text fill="#000000" font-family="sans-serif" font-size="20" lengthAdjust="spacing" textLength="261" x="1122.5" y="1079.1738">return exception message</text><line style="stroke:#000000;stroke-width:1.0;stroke-dasharray:2.0,2.0;" x1="1001.5" x2="3832.5" y1="1101.8906" y2="1101.8906"/><text fill="#000000" font-family="sans-serif" font-size="20" font-weight="bold" lengthAdjust="spacing" textLength="175" x="1006.5" y="1120.4551">[var is not null]</text><polygon fill="#000000" points="1116.5,1151.4531,1106.5,1155.4531,1116.5,1159.4531,1112.5,1155.4531" style="stroke:#000000;stroke-width:1.0;"/><line style="stroke:#000000;stroke-width:1.0;" x1="1110.5" x2="1607.5" y1="1155.4531" y2="1155.4531"/><text fill="#000000" font-family="sans-serif" font-size="20" lengthAdjust="spacing" textLength="261" x="1122.5" y="1148.7363">return exception message</text><polygon fill="#000000" points="608.5,1195.7344,598.5,1199.7344,608.5,1203.7344,604.5,1199.7344" style="stroke:#000000;stroke-width:1.0;"/><line style="stroke:#000000;stroke-width:1.0;stroke-dasharray:2.0,2.0;" x1="602.5" x2="1099.5" y1="1199.7344" y2="1199.7344"/><text fill="#000000" font-family="sans-serif" font-size="20" lengthAdjust="spacing" textLength="413" x="614.5" y="1193.0176">Returns Operation Status Response Code</text><polygon fill="#000000" points="59.5,1233.0156,49.5,1237.0156,59.5,1241.0156,55.5,1237.0156" style="stroke:#000000;stroke-width:1.0;"/><line style="stroke:#000000;stroke-width:1.0;stroke-dasharray:2.0,2.0;" x1="53.5" x2="591.5" y1="1237.0156" y2="1237.0156"/><text fill="#000000" font-family="sans-serif" font-size="20" lengthAdjust="spacing" textLength="380" x="65.5" y="1230.2988">Returns Operation In/Sucess message</text><!--SRC=[dLNRRjim37ttLn3PmrAWksEtO2WGNp8KM533Rfu7rMOIBOvaI7AwRDY_Zv9ZHruCR5XUOfE7FEGX9UiT5pLJR5_9OeSbbBXcJMKMKfYS_q1u_J8833SLmXSyO0Ll8EPiG_WWsF8I0VUrES8Uzm-eTF1KT-dW2nTeZZM2L6OhW-3iAIgcDVmCW7uXAtOR9HjHHhAIwjEd0wiQl7luXeMvkO4dyRjallWm3bLIEimYJiBuvJX6ephm0bsgLulNIJW6enJ9ucFotldcIid7rXnMX0j- -RNNP64R7AyUdYJXukqYj26iC6H8cU4e330DQK0P32zupSWmML5bS2iCgZKhS68HgzjBI4HpKBAgK3b8T8d8smwTEn-waptZbUzFyilu9QlhK_RbfJV3McfEhHmT8XiYJktz0KgpopnjWvVs-FxEkUX_w8oPOGzCjtN7eHEK7vX14ZA5PpUarWpcUgV1ICXmmpL9wKWewnbCcgvkuHdXqnDyJMCfARcDKt_6bUX7zZmvYbAxg2bQJQzf3xH-bAgafwqK2AAn1-0Q1DlZrGNz3KGpA1IIwIIPPPj6riB5nhEH3b0QwQM8WiWcoFyxGHxaDa4sWmqwI7XqYp7NHr5C2VlSlKwll9Wio9nen9gXQPJGS603URA0LSOQWMlglghSWN1CwRzGMVHvf9bxJqT9hSSZFc4jU-f93tjcYYtIEconEtPFDTHAhZbTNe_SR9rhmmyem4tHvUchNixWNeu8EdLgTj2-Z6LlMhejcO70H-W2OCsnAlL8tAethKvnBkQCz5VGvsY5KKwOTbb78fR3dYZWCmfKvBgNEnJJXkAkXfY4G9hskvrCtZ_rqxg6oRpBVvGD7PQYe2lFJAxxv7JNxwR6CdXWJyF9Y11q5tMs97VjsKhQa-R60uscIK2-l4-Xa6BDDmrnSId66lUoTTlEohBTks7JtWPtfin6nE4Clig7R_hv_2-1SJXMWMVD_d5QcLzpUqcS8foMpekLnk6YbvAsN4ZJRln_x_kP3ByNM5jXwJEkDNtTMc9H1ewyE-F4E3pdVylWTPe7DbtakhGNQdU-xsfiPmgvOQQX3mpgMWfYZMI9_dqJUVVuPVIjU94t1N7t1Gnlyjy0]--></g></svg>