<?xml version="1.0" encoding="UTF-8" standalone="no"?><svg xmlns="http://www.w3.org/2000/svg" xmlns:xlink="http://www.w3.org/1999/xlink" contentStyleType="text/css" height="1217px" preserveAspectRatio="none" style="width:3568px;height:1217px;background:#FFFFFF;" version="1.1" viewBox="0 0 3568 1217" width="3568px" zoomAndPan="magnify"><defs/><g><text fill="#000000" font-family="sans-serif" font-size="14" font-weight="bold" lengthAdjust="spacing" textLength="126" x="1722" y="27.9951">Level 1 Diagram</text><rect fill="#FFFFFF" height="985.5938" style="stroke:#181818;stroke-width:1.0;" width="10" x="38.5" y="135.5781"/><rect fill="#FFFFFF" height="37.2813" style="stroke:#181818;stroke-width:1.0;" width="10" x="587.5" y="164.8594"/><rect fill="#FFFFFF" height="872.75" style="stroke:#181818;stroke-width:1.0;" width="10" x="587.5" y="239.4219"/><rect fill="#FFFFFF" height="798.1875" style="stroke:#181818;stroke-width:1.0;" width="10" x="1095.5" y="276.7031"/><rect fill="#FFFFFF" height="716.625" style="stroke:#181818;stroke-width:1.0;" width="10" x="1603.5" y="313.9844"/><rect fill="#FFFFFF" height="43.2813" style="stroke:#181818;stroke-width:1.0;" width="10" x="2657.5" y="669.0781"/><rect fill="#FFFFFF" height="37.2813" style="stroke:#181818;stroke-width:1.0;" width="10" x="3065.5" y="351.2656"/><rect fill="#FFFFFF" height="104.5625" style="stroke:#181818;stroke-width:1.0;" width="10" x="3065.5" y="756.6406"/><rect fill="#FFFFFF" height="37.2813" style="stroke:#181818;stroke-width:1.0;" width="10" x="3253.5" y="466.3906"/><rect fill="#FFFFFF" height="43.2813" style="stroke:#181818;stroke-width:1.0;" width="10" x="3388.5" y="581.5156"/><rect fill="#FFFFFF" height="30" style="stroke:#181818;stroke-width:1.0;" width="10" x="3482" y="793.9219"/><rect fill="#EBF5FB" height="635.0625" style="stroke:#000000;stroke-width:1.5;" width="2559.5" x="1001.5" y="403.5469"/><rect fill="#EBF5FB" height="450.375" style="stroke:#000000;stroke-width:1.5;" width="2539.5" x="1011.5" y="518.6719"/><rect fill="#EBF5FB" height="62.5625" style="stroke:none;stroke-width:1.0;" width="2539.5" x="1011.5" y="906.4844"/><rect fill="#EBF5FB" height="62.5625" style="stroke:none;stroke-width:1.0;" width="2559.5" x="1001.5" y="976.0469"/><line style="stroke:#181818;stroke-width:0.5;stroke-dasharray:5.0,5.0;" x1="43" x2="43" y1="125.5781" y2="1130.1719"/><line style="stroke:#181818;stroke-width:0.5;stroke-dasharray:5.0,5.0;" x1="592.5" x2="592.5" y1="125.5781" y2="1130.1719"/><line style="stroke:#181818;stroke-width:0.5;stroke-dasharray:5.0,5.0;" x1="1100.5" x2="1100.5" y1="125.5781" y2="1130.1719"/><line style="stroke:#181818;stroke-width:0.5;stroke-dasharray:5.0,5.0;" x1="1608.5" x2="1608.5" y1="125.5781" y2="1130.1719"/><line style="stroke:#181818;stroke-width:0.5;stroke-dasharray:5.0,5.0;" x1="2662.5" x2="2662.5" y1="125.5781" y2="1130.1719"/><line style="stroke:#181818;stroke-width:0.5;stroke-dasharray:5.0,5.0;" x1="3070" x2="3070" y1="125.5781" y2="1130.1719"/><line style="stroke:#181818;stroke-width:0.5;stroke-dasharray:5.0,5.0;" x1="3258" x2="3258" y1="125.5781" y2="1130.1719"/><line style="stroke:#181818;stroke-width:0.5;stroke-dasharray:5.0,5.0;" x1="3393" x2="3393" y1="125.5781" y2="1130.1719"/><line style="stroke:#181818;stroke-width:0.5;stroke-dasharray:5.0,5.0;" x1="3487" x2="3487" y1="125.5781" y2="1130.1719"/><text fill="#000000" font-family="sans-serif" font-size="20" lengthAdjust="spacing" textLength="71" x="5" y="120.8613">Patient</text><ellipse cx="43.5" cy="50.7969" fill="#E2E2F0" rx="8" ry="8" style="stroke:#181818;stroke-width:0.5;"/><path d="M43.5,58.7969 L43.5,85.7969 M30.5,66.7969 L56.5,66.7969 M43.5,85.7969 L30.5,100.7969 M43.5,85.7969 L56.5,100.7969 " fill="none" style="stroke:#181818;stroke-width:0.5;"/><text fill="#000000" font-family="sans-serif" font-size="20" lengthAdjust="spacing" textLength="71" x="5" y="1147.7363">Patient</text><ellipse cx="43.5" cy="1160.9531" fill="#E2E2F0" rx="8" ry="8" style="stroke:#181818;stroke-width:0.5;"/><path d="M43.5,1168.9531 L43.5,1195.9531 M30.5,1176.9531 L56.5,1176.9531 M43.5,1195.9531 L30.5,1210.9531 M43.5,1195.9531 L56.5,1210.9531 " fill="none" style="stroke:#181818;stroke-width:0.5;"/><rect fill="#E2E2F0" height="37.2813" rx="2.5" ry="2.5" style="stroke:#181818;stroke-width:0.5;" width="154" x="515.5" y="87.2969"/><text fill="#000000" font-family="sans-serif" font-size="20" lengthAdjust="spacing" textLength="140" x="522.5" y="112.8613">User Interface</text><rect fill="#E2E2F0" height="37.2813" rx="2.5" ry="2.5" style="stroke:#181818;stroke-width:0.5;" width="154" x="515.5" y="1129.1719"/><text fill="#000000" font-family="sans-serif" font-size="20" lengthAdjust="spacing" textLength="140" x="522.5" y="1154.7363">User Interface</text><rect fill="#E2E2F0" height="37.2813" rx="2.5" ry="2.5" style="stroke:#181818;stroke-width:0.5;" width="158" x="1021.5" y="87.2969"/><text fill="#000000" font-family="sans-serif" font-size="20" lengthAdjust="spacing" textLength="144" x="1028.5" y="112.8613">UserController</text><rect fill="#E2E2F0" height="37.2813" rx="2.5" ry="2.5" style="stroke:#181818;stroke-width:0.5;" width="158" x="1021.5" y="1129.1719"/><text fill="#000000" font-family="sans-serif" font-size="20" lengthAdjust="spacing" textLength="144" x="1028.5" y="1154.7363">UserController</text><rect fill="#E2E2F0" height="37.2813" rx="2.5" ry="2.5" style="stroke:#181818;stroke-width:0.5;" width="132" x="1542.5" y="87.2969"/><text fill="#000000" font-family="sans-serif" font-size="20" lengthAdjust="spacing" textLength="118" x="1549.5" y="112.8613">UserService</text><rect fill="#E2E2F0" height="37.2813" rx="2.5" ry="2.5" style="stroke:#181818;stroke-width:0.5;" width="132" x="1542.5" y="1129.1719"/><text fill="#000000" font-family="sans-serif" font-size="20" lengthAdjust="spacing" textLength="118" x="1549.5" y="1154.7363">UserService</text><rect fill="#E2E2F0" height="37.2813" rx="2.5" ry="2.5" style="stroke:#181818;stroke-width:0.5;" width="144" x="2590.5" y="87.2969"/><text fill="#000000" font-family="sans-serif" font-size="20" lengthAdjust="spacing" textLength="130" x="2597.5" y="112.8613">EmailService</text><rect fill="#E2E2F0" height="37.2813" rx="2.5" ry="2.5" style="stroke:#181818;stroke-width:0.5;" width="144" x="2590.5" y="1129.1719"/><text fill="#000000" font-family="sans-serif" font-size="20" lengthAdjust="spacing" textLength="130" x="2597.5" y="1154.7363">EmailService</text><rect fill="#E2E2F0" height="37.2813" rx="2.5" ry="2.5" style="stroke:#181818;stroke-width:0.5;" width="165" x="2988" y="87.2969"/><text fill="#000000" font-family="sans-serif" font-size="20" lengthAdjust="spacing" textLength="151" x="2995" y="112.8613">UserRepository</text><rect fill="#E2E2F0" height="37.2813" rx="2.5" ry="2.5" style="stroke:#181818;stroke-width:0.5;" width="165" x="2988" y="1129.1719"/><text fill="#000000" font-family="sans-serif" font-size="20" lengthAdjust="spacing" textLength="151" x="2995" y="1154.7363">UserRepository</text><rect fill="#E2E2F0" height="37.2813" rx="2.5" ry="2.5" style="stroke:#181818;stroke-width:0.5;" width="191" x="3163" y="87.2969"/><text fill="#000000" font-family="sans-serif" font-size="20" lengthAdjust="spacing" textLength="177" x="3170" y="112.8613">PatientRepository</text><rect fill="#E2E2F0" height="37.2813" rx="2.5" ry="2.5" style="stroke:#181818;stroke-width:0.5;" width="191" x="3163" y="1129.1719"/><text fill="#000000" font-family="sans-serif" font-size="20" lengthAdjust="spacing" textLength="177" x="3170" y="1154.7363">PatientRepository</text><rect fill="#E2E2F0" height="37.2813" rx="2.5" ry="2.5" style="stroke:#181818;stroke-width:0.5;" width="59" x="3364" y="87.2969"/><text fill="#000000" font-family="sans-serif" font-size="20" lengthAdjust="spacing" textLength="45" x="3371" y="112.8613">User</text><rect fill="#E2E2F0" height="37.2813" rx="2.5" ry="2.5" style="stroke:#181818;stroke-width:0.5;" width="59" x="3364" y="1129.1719"/><text fill="#000000" font-family="sans-serif" font-size="20" lengthAdjust="spacing" textLength="45" x="3371" y="1154.7363">User</text><rect fill="#E2E2F0" height="37.2813" rx="2.5" ry="2.5" style="stroke:#181818;stroke-width:0.5;" width="108" x="3433" y="87.2969"/><text fill="#000000" font-family="sans-serif" font-size="20" lengthAdjust="spacing" textLength="94" x="3440" y="112.8613">Database</text><rect fill="#E2E2F0" height="37.2813" rx="2.5" ry="2.5" style="stroke:#181818;stroke-width:0.5;" width="108" x="3433" y="1129.1719"/><text fill="#000000" font-family="sans-serif" font-size="20" lengthAdjust="spacing" textLength="94" x="3440" y="1154.7363">Database</text><rect fill="#FFFFFF" height="985.5938" style="stroke:#181818;stroke-width:1.0;" width="10" x="38.5" y="135.5781"/><rect fill="#FFFFFF" height="37.2813" style="stroke:#181818;stroke-width:1.0;" width="10" x="587.5" y="164.8594"/><rect fill="#FFFFFF" height="872.75" style="stroke:#181818;stroke-width:1.0;" width="10" x="587.5" y="239.4219"/><rect fill="#FFFFFF" height="798.1875" style="stroke:#181818;stroke-width:1.0;" width="10" x="1095.5" y="276.7031"/><rect fill="#FFFFFF" height="716.625" style="stroke:#181818;stroke-width:1.0;" width="10" x="1603.5" y="313.9844"/><rect fill="#FFFFFF" height="43.2813" style="stroke:#181818;stroke-width:1.0;" width="10" x="2657.5" y="669.0781"/><rect fill="#FFFFFF" height="37.2813" style="stroke:#181818;stroke-width:1.0;" width="10" x="3065.5" y="351.2656"/><rect fill="#FFFFFF" height="104.5625" style="stroke:#181818;stroke-width:1.0;" width="10" x="3065.5" y="756.6406"/><rect fill="#FFFFFF" height="37.2813" style="stroke:#181818;stroke-width:1.0;" width="10" x="3253.5" y="466.3906"/><rect fill="#FFFFFF" height="43.2813" style="stroke:#181818;stroke-width:1.0;" width="10" x="3388.5" y="581.5156"/><rect fill="#FFFFFF" height="30" style="stroke:#181818;stroke-width:1.0;" width="10" x="3482" y="793.9219"/><polygon fill="#000000" points="575.5,160.8594,585.5,164.8594,575.5,168.8594,579.5,164.8594" style="stroke:#000000;stroke-width:1.0;"/><line style="stroke:#000000;stroke-width:1.0;" x1="48.5" x2="581.5" y1="164.8594" y2="164.8594"/><text fill="#000000" font-family="sans-serif" font-size="20" lengthAdjust="spacing" textLength="240" x="55.5" y="158.1426">Asks to Register as User</text><polygon fill="#000000" points="59.5,198.1406,49.5,202.1406,59.5,206.1406,55.5,202.1406" style="stroke:#000000;stroke-width:1.0;"/><line style="stroke:#000000;stroke-width:1.0;stroke-dasharray:2.0,2.0;" x1="53.5" x2="591.5" y1="202.1406" y2="202.1406"/><text fill="#000000" font-family="sans-serif" font-size="20" lengthAdjust="spacing" textLength="318" x="65.5" y="195.4238">Asks for data to register as User</text><polygon fill="#000000" points="575.5,235.4219,585.5,239.4219,575.5,243.4219,579.5,239.4219" style="stroke:#000000;stroke-width:1.0;"/><line style="stroke:#000000;stroke-width:1.0;" x1="48.5" x2="581.5" y1="239.4219" y2="239.4219"/><text fill="#000000" font-family="sans-serif" font-size="20" lengthAdjust="spacing" textLength="520" x="55.5" y="232.7051">Sends data(email, password, phone number, name)</text><polygon fill="#000000" points="1083.5,272.7031,1093.5,276.7031,1083.5,280.7031,1087.5,276.7031" style="stroke:#000000;stroke-width:1.0;"/><line style="stroke:#000000;stroke-width:1.0;" x1="597.5" x2="1089.5" y1="276.7031" y2="276.7031"/><text fill="#000000" font-family="sans-serif" font-size="20" lengthAdjust="spacing" textLength="479" x="604.5" y="269.9863">createPatientUser(CreatingPatientUserDTO dto)</text><polygon fill="#000000" points="1591.5,309.9844,1601.5,313.9844,1591.5,317.9844,1595.5,313.9844" style="stroke:#000000;stroke-width:1.0;"/><line style="stroke:#000000;stroke-width:1.0;" x1="1105.5" x2="1597.5" y1="313.9844" y2="313.9844"/><text fill="#000000" font-family="sans-serif" font-size="20" lengthAdjust="spacing" textLength="479" x="1112.5" y="307.2676">createPatientUser(CreatingPatientUserDTO dto)</text><polygon fill="#000000" points="3053.5,347.2656,3063.5,351.2656,3053.5,355.2656,3057.5,351.2656" style="stroke:#000000;stroke-width:1.0;"/><line style="stroke:#000000;stroke-width:1.0;" x1="1613.5" x2="3059.5" y1="351.2656" y2="351.2656"/><text fill="#000000" font-family="sans-serif" font-size="20" lengthAdjust="spacing" textLength="347" x="1620.5" y="344.5488">getUserByEmailAsync(dto.Email())</text><polygon fill="#000000" points="1624.5,384.5469,1614.5,388.5469,1624.5,392.5469,1620.5,388.5469" style="stroke:#000000;stroke-width:1.0;"/><line style="stroke:#000000;stroke-width:1.0;stroke-dasharray:2.0,2.0;" x1="1618.5" x2="3069.5" y1="388.5469" y2="388.5469"/><text fill="#000000" font-family="sans-serif" font-size="20" lengthAdjust="spacing" textLength="115" x="1630.5" y="381.8301">Returns var</text><path d="M1001.5,403.5469 L1077.5,403.5469 L1077.5,418.8281 L1067.5,428.8281 L1001.5,428.8281 L1001.5,403.5469 " fill="#EEEEEE" style="stroke:#000000;stroke-width:1.5;"/><rect fill="none" height="635.0625" style="stroke:#000000;stroke-width:1.5;" width="2559.5" x="1001.5" y="403.5469"/><text fill="#000000" font-family="sans-serif" font-size="20" font-weight="bold" lengthAdjust="spacing" textLength="31" x="1016.5" y="423.1113">alt</text><text fill="#000000" font-family="sans-serif" font-size="20" font-weight="bold" lengthAdjust="spacing" textLength="130" x="1092.5" y="424.1113">[var is null]</text><polygon fill="#000000" points="3241.5,462.3906,3251.5,466.3906,3241.5,470.3906,3245.5,466.3906" style="stroke:#000000;stroke-width:1.0;"/><line style="stroke:#000000;stroke-width:1.0;" x1="1613.5" x2="3247.5" y1="466.3906" y2="466.3906"/><text fill="#000000" font-family="sans-serif" font-size="20" lengthAdjust="spacing" textLength="347" x="1620.5" y="459.6738">getUserByEmailAsync(dto.Email())</text><polygon fill="#000000" points="1624.5,499.6719,1614.5,503.6719,1624.5,507.6719,1620.5,503.6719" style="stroke:#000000;stroke-width:1.0;"/><line style="stroke:#000000;stroke-width:1.0;stroke-dasharray:2.0,2.0;" x1="1618.5" x2="3257.5" y1="503.6719" y2="503.6719"/><text fill="#000000" font-family="sans-serif" font-size="20" lengthAdjust="spacing" textLength="115" x="1630.5" y="496.9551">Returns var</text><path d="M1011.5,518.6719 L1087.5,518.6719 L1087.5,533.9531 L1077.5,543.9531 L1011.5,543.9531 L1011.5,518.6719 " fill="#EEEEEE" style="stroke:#000000;stroke-width:1.5;"/><rect fill="none" height="450.375" style="stroke:#000000;stroke-width:1.5;" width="2539.5" x="1011.5" y="518.6719"/><text fill="#000000" font-family="sans-serif" font-size="20" font-weight="bold" lengthAdjust="spacing" textLength="31" x="1026.5" y="538.2363">alt</text><text fill="#000000" font-family="sans-serif" font-size="20" font-weight="bold" lengthAdjust="spacing" textLength="763" x="1102.5" y="539.2363">[Phone number matches the Patient's profile with the given email]</text><polygon fill="#000000" points="3376.5,577.5156,3386.5,581.5156,3376.5,585.5156,3380.5,581.5156" style="stroke:#000000;stroke-width:1.0;"/><line style="stroke:#000000;stroke-width:1.0;" x1="1613.5" x2="3382.5" y1="581.5156" y2="581.5156"/><text fill="#000000" font-family="sans-serif" font-size="20" lengthAdjust="spacing" textLength="835" x="1620.5" y="574.7988">new User(dto.Email(), dto.PhoneNumber, Role.Patient, dto.Password(), dto.Name())</text><line style="stroke:#000000;stroke-width:1.0;" x1="3398.5" x2="3440.5" y1="623.7969" y2="623.7969"/><line style="stroke:#000000;stroke-width:1.0;" x1="3440.5" x2="3440.5" y1="623.7969" y2="636.7969"/><line style="stroke:#000000;stroke-width:1.0;" x1="3393.5" x2="3440.5" y1="636.7969" y2="636.7969"/><polygon fill="#000000" points="3403.5,632.7969,3393.5,636.7969,3403.5,640.7969,3399.5,636.7969" style="stroke:#000000;stroke-width:1.0;"/><text fill="#000000" font-family="sans-serif" font-size="20" lengthAdjust="spacing" textLength="61" x="3405.5" y="617.0801">User()</text><polygon fill="#000000" points="2645.5,665.0781,2655.5,669.0781,2645.5,673.0781,2649.5,669.0781" style="stroke:#000000;stroke-width:1.0;"/><line style="stroke:#000000;stroke-width:1.0;" x1="1613.5" x2="2651.5" y1="669.0781" y2="669.0781"/><text fill="#000000" font-family="sans-serif" font-size="20" lengthAdjust="spacing" textLength="1025" x="1620.5" y="662.3613">sendEmail(SendEmail(dto.Email, "Activate your account", GenerateLink(token, "ActivatePatientUser")</text><line style="stroke:#000000;stroke-width:1.0;stroke-dasharray:2.0,2.0;" x1="2667.5" x2="2709.5" y1="711.3594" y2="711.3594"/><line style="stroke:#000000;stroke-width:1.0;stroke-dasharray:2.0,2.0;" x1="2709.5" x2="2709.5" y1="711.3594" y2="724.3594"/><line style="stroke:#000000;stroke-width:1.0;stroke-dasharray:2.0,2.0;" x1="2662.5" x2="2709.5" y1="724.3594" y2="724.3594"/><polygon fill="#000000" points="2672.5,720.3594,2662.5,724.3594,2672.5,728.3594,2668.5,724.3594" style="stroke:#000000;stroke-width:1.0;"/><text fill="#000000" font-family="sans-serif" font-size="20" lengthAdjust="spacing" textLength="384" x="2674.5" y="704.6426">Sends email using SMTP configuration</text><polygon fill="#000000" points="3053.5,752.6406,3063.5,756.6406,3053.5,760.6406,3057.5,756.6406" style="stroke:#000000;stroke-width:1.0;"/><line style="stroke:#000000;stroke-width:1.0;" x1="1613.5" x2="3059.5" y1="756.6406" y2="756.6406"/><text fill="#000000" font-family="sans-serif" font-size="20" lengthAdjust="spacing" textLength="156" x="1620.5" y="749.9238">addAsync(user)</text><polygon fill="#000000" points="3470,789.9219,3480,793.9219,3470,797.9219,3474,793.9219" style="stroke:#000000;stroke-width:1.0;"/><line style="stroke:#000000;stroke-width:1.0;" x1="3075.5" x2="3476" y1="793.9219" y2="793.9219"/><text fill="#000000" font-family="sans-serif" font-size="20" lengthAdjust="spacing" textLength="215" x="3082.5" y="787.2051">_objs.AddAsync(user)</text><polygon fill="#000000" points="1624.5,857.2031,1614.5,861.2031,1624.5,865.2031,1620.5,861.2031" style="stroke:#000000;stroke-width:1.0;"/><line style="stroke:#000000;stroke-width:1.0;stroke-dasharray:2.0,2.0;" x1="1618.5" x2="3069.5" y1="861.2031" y2="861.2031"/><text fill="#000000" font-family="sans-serif" font-size="20" lengthAdjust="spacing" textLength="113" x="1630.5" y="854.4863">return User</text><polygon fill="#000000" points="1116.5,894.4844,1106.5,898.4844,1116.5,902.4844,1112.5,898.4844" style="stroke:#000000;stroke-width:1.0;"/><line style="stroke:#000000;stroke-width:1.0;stroke-dasharray:2.0,2.0;" x1="1110.5" x2="1602.5" y1="898.4844" y2="898.4844"/><text fill="#000000" font-family="sans-serif" font-size="20" lengthAdjust="spacing" textLength="113" x="1122.5" y="891.7676">return User</text><line style="stroke:#000000;stroke-width:1.0;stroke-dasharray:2.0,2.0;" x1="1011.5" x2="3551" y1="907.4844" y2="907.4844"/><text fill="#000000" font-family="sans-serif" font-size="20" font-weight="bold" lengthAdjust="spacing" textLength="843" x="1016.5" y="926.0488">[Phone number does not match the Patient's profile with the given email]</text><polygon fill="#000000" points="1116.5,957.0469,1106.5,961.0469,1116.5,965.0469,1112.5,961.0469" style="stroke:#000000;stroke-width:1.0;"/><line style="stroke:#000000;stroke-width:1.0;" x1="1110.5" x2="1602.5" y1="961.0469" y2="961.0469"/><text fill="#000000" font-family="sans-serif" font-size="20" lengthAdjust="spacing" textLength="261" x="1122.5" y="954.3301">return exception message</text><line style="stroke:#000000;stroke-width:1.0;stroke-dasharray:2.0,2.0;" x1="1001.5" x2="3561" y1="977.0469" y2="977.0469"/><text fill="#000000" font-family="sans-serif" font-size="20" font-weight="bold" lengthAdjust="spacing" textLength="175" x="1006.5" y="995.6113">[var is not null]</text><polygon fill="#000000" points="1116.5,1026.6094,1106.5,1030.6094,1116.5,1034.6094,1112.5,1030.6094" style="stroke:#000000;stroke-width:1.0;"/><line style="stroke:#000000;stroke-width:1.0;" x1="1110.5" x2="1607.5" y1="1030.6094" y2="1030.6094"/><text fill="#000000" font-family="sans-serif" font-size="20" lengthAdjust="spacing" textLength="261" x="1122.5" y="1023.8926">return exception message</text><polygon fill="#000000" points="608.5,1070.8906,598.5,1074.8906,608.5,1078.8906,604.5,1074.8906" style="stroke:#000000;stroke-width:1.0;"/><line style="stroke:#000000;stroke-width:1.0;stroke-dasharray:2.0,2.0;" x1="602.5" x2="1099.5" y1="1074.8906" y2="1074.8906"/><text fill="#000000" font-family="sans-serif" font-size="20" lengthAdjust="spacing" textLength="413" x="614.5" y="1068.1738">Returns Operation Status Response Code</text><polygon fill="#000000" points="59.5,1108.1719,49.5,1112.1719,59.5,1116.1719,55.5,1112.1719" style="stroke:#000000;stroke-width:1.0;"/><line style="stroke:#000000;stroke-width:1.0;stroke-dasharray:2.0,2.0;" x1="53.5" x2="591.5" y1="1112.1719" y2="1112.1719"/><text fill="#000000" font-family="sans-serif" font-size="20" lengthAdjust="spacing" textLength="380" x="65.5" y="1105.4551">Returns Operation In/Sucess message</text><!--SRC=[dLNRZjem47tFLupeGwb4jnUfDrIjH2vKAxMxKLAUAsyoW4km8zjXIwl-UyTE0iuIgLLvWfapS-PoFEWT5pLJR5_9OeSbbBXcJMMMKfYS_qHu_J8833SLmcSyO0Ml8EPiG_WWsF8I0VUrES8Uz_UeTF1Kz-dWCnTeZZM2L6OhW-3iAIgcDVmAW3uXAtOR9HjHHhAIwkF70wiQlBl_ZeMvleOdyTjaiNm_3bLIEimoJiBuvJX6ephm0bsgLylNIJW6enJ9yaFoplaMIic7rXnMX0j- -xNNP64R7AyUdYJXyiqoj26iC6H8cU4e330DQK0P32zupSWmML5bS2CCgZKhS68HgvjBI4HxKBAgK3b8T8d8smwTEn-waptZbUzFyilu36kfEHLxT91iYEWQU0HAiyiyRGj3UymCksUw9Oz3DnL-O0Pf6YaylwQMvx3GEmr6GeORhcaUBWybF8DfCAiRU4xuj8ElQROb9RTnwd5SYNxaYIT7KMeNDKKxc1ajK-i7gKhwjfK2GJHMnJCGR8_FBkYl8Pf3eP1CtLGispIo5YusdYt-UWUbaLwAA8XiWlo_4-H1RXDaSzYWWuH7jzs5FefYIjWhztFwp8l9WimDZLWpD8qI6WviC9uiO9MnHk2Qkgygfsh7bFuBbKMVLvgvt-aegVLun1tMigVUw67FJB55aiCM-xVpL4Ejv9hJ1NhWPkjS6tv00MwBBi-fwjKS13uu6VYLpkmqhnpJRRVZJ5PurL5qxauDFVoMLD0tEMXqTJAjEax7TqRw0XpMbz1ODEcmhIi_VJlLEeF9eeyzoeP4NHHqNyna1fzGe28x7TRTrCWT2W_iYMSoKZ8z_DwMv6u_jfBsHRWnGgD9Wf1_-Pf28SMQRnhYubACDULbwrN9ohBLHqCLZ1IGdKoPZOZ3ENoJzz_rrU8lWN4uLe5dFSbDERcr9s0a9FDhRX_pumYiD0xrM4eIev2c5UP_o_BCXJyAhErSwIzJQ_edQOb56JZo_YaIu_0v_Ys3rsWUs7IHQzBUlVuPtjNOhXHomqn3fnvrBGMnHh94_on4thczZBuHB_Ac8EvJ0SE3-mS0]--></g></svg>