<?xml version="1.0" encoding="UTF-8" standalone="no"?><svg xmlns="http://www.w3.org/2000/svg" xmlns:xlink="http://www.w3.org/1999/xlink" contentStyleType="text/css" height="1454px" preserveAspectRatio="none" style="width:3852px;height:1454px;background:#FFFFFF;" version="1.1" viewBox="0 0 3852 1454" width="3852px" zoomAndPan="magnify"><defs/><g><text fill="#000000" font-family="sans-serif" font-size="14" font-weight="bold" lengthAdjust="spacing" textLength="126" x="1864.25" y="27.9951">Level 3 Diagram</text><rect fill="#FFFFFF" height="1222.2813" style="stroke:#181818;stroke-width:1.0;" width="10" x="38.5" y="135.5781"/><rect fill="#FFFFFF" height="37.2813" style="stroke:#181818;stroke-width:1.0;" width="10" x="587.5" y="164.8594"/><rect fill="#FFFFFF" height="1109.4375" style="stroke:#181818;stroke-width:1.0;" width="10" x="587.5" y="239.4219"/><rect fill="#FFFFFF" height="1034.875" style="stroke:#181818;stroke-width:1.0;" width="10" x="1095.5" y="276.7031"/><rect fill="#FFFFFF" height="953.3125" style="stroke:#181818;stroke-width:1.0;" width="10" x="1603.5" y="313.9844"/><rect fill="#FFFFFF" height="43.2813" style="stroke:#181818;stroke-width:1.0;" width="10" x="2657.5" y="743.6406"/><rect fill="#FFFFFF" height="124.8438" style="stroke:#181818;stroke-width:1.0;" width="10" x="3065.5" y="581.5156"/><rect fill="#FFFFFF" height="124.8438" style="stroke:#181818;stroke-width:1.0;" width="10" x="3065.5" y="973.0469"/><rect fill="#FFFFFF" height="37.2813" style="stroke:#181818;stroke-width:1.0;" width="10" x="3225" y="351.2656"/><rect fill="#FFFFFF" height="104.5625" style="stroke:#181818;stroke-width:1.0;" width="10" x="3225" y="831.2031"/><rect fill="#FFFFFF" height="37.2813" style="stroke:#181818;stroke-width:1.0;" width="10" x="3413" y="466.3906"/><rect fill="#FFFFFF" height="43.2813" style="stroke:#181818;stroke-width:1.0;" width="10" x="3548" y="618.7969"/><rect fill="#FFFFFF" height="43.2813" style="stroke:#181818;stroke-width:1.0;" width="10" x="3638.5" y="1010.3281"/><rect fill="#FFFFFF" height="30" style="stroke:#181818;stroke-width:1.0;" width="10" x="3766.5" y="868.4844"/><rect fill="#EBF5FB" height="871.75" style="stroke:#000000;stroke-width:1.5;" width="2844" x="1001.5" y="403.5469"/><rect fill="#EBF5FB" height="687.0625" style="stroke:#000000;stroke-width:1.5;" width="2824" x="1011.5" y="518.6719"/><rect fill="#EBF5FB" height="62.5625" style="stroke:none;stroke-width:1.0;" width="2824" x="1011.5" y="1143.1719"/><rect fill="#EBF5FB" height="62.5625" style="stroke:none;stroke-width:1.0;" width="2844" x="1001.5" y="1212.7344"/><line style="stroke:#181818;stroke-width:0.5;stroke-dasharray:5.0,5.0;" x1="43" x2="43" y1="125.5781" y2="1366.8594"/><line style="stroke:#181818;stroke-width:0.5;stroke-dasharray:5.0,5.0;" x1="592.5" x2="592.5" y1="125.5781" y2="1366.8594"/><line style="stroke:#181818;stroke-width:0.5;stroke-dasharray:5.0,5.0;" x1="1100.5" x2="1100.5" y1="125.5781" y2="1366.8594"/><line style="stroke:#181818;stroke-width:0.5;stroke-dasharray:5.0,5.0;" x1="1608.5" x2="1608.5" y1="125.5781" y2="1366.8594"/><line style="stroke:#181818;stroke-width:0.5;stroke-dasharray:5.0,5.0;" x1="2662.5" x2="2662.5" y1="125.5781" y2="1366.8594"/><line style="stroke:#181818;stroke-width:0.5;stroke-dasharray:5.0,5.0;" x1="3070.5" x2="3070.5" y1="125.5781" y2="1366.8594"/><line style="stroke:#181818;stroke-width:0.5;stroke-dasharray:5.0,5.0;" x1="3229.5" x2="3229.5" y1="125.5781" y2="1366.8594"/><line style="stroke:#181818;stroke-width:0.5;stroke-dasharray:5.0,5.0;" x1="3417.5" x2="3417.5" y1="125.5781" y2="1366.8594"/><line style="stroke:#181818;stroke-width:0.5;stroke-dasharray:5.0,5.0;" x1="3552.5" x2="3552.5" y1="125.5781" y2="1366.8594"/><line style="stroke:#181818;stroke-width:0.5;stroke-dasharray:5.0,5.0;" x1="3643.5" x2="3643.5" y1="125.5781" y2="1366.8594"/><line style="stroke:#181818;stroke-width:0.5;stroke-dasharray:5.0,5.0;" x1="3771.5" x2="3771.5" y1="125.5781" y2="1366.8594"/><text fill="#000000" font-family="sans-serif" font-size="20" lengthAdjust="spacing" textLength="71" x="5" y="120.8613">Patient</text><ellipse cx="43.5" cy="50.7969" fill="#E2E2F0" rx="8" ry="8" style="stroke:#181818;stroke-width:0.5;"/><path d="M43.5,58.7969 L43.5,85.7969 M30.5,66.7969 L56.5,66.7969 M43.5,85.7969 L30.5,100.7969 M43.5,85.7969 L56.5,100.7969 " fill="none" style="stroke:#181818;stroke-width:0.5;"/><text fill="#000000" font-family="sans-serif" font-size="20" lengthAdjust="spacing" textLength="71" x="5" y="1384.4238">Patient</text><ellipse cx="43.5" cy="1397.6406" fill="#E2E2F0" rx="8" ry="8" style="stroke:#181818;stroke-width:0.5;"/><path d="M43.5,1405.6406 L43.5,1432.6406 M30.5,1413.6406 L56.5,1413.6406 M43.5,1432.6406 L30.5,1447.6406 M43.5,1432.6406 L56.5,1447.6406 " fill="none" style="stroke:#181818;stroke-width:0.5;"/><rect fill="#E2E2F0" height="37.2813" rx="2.5" ry="2.5" style="stroke:#181818;stroke-width:0.5;" width="154" x="515.5" y="87.2969"/><text fill="#000000" font-family="sans-serif" font-size="20" lengthAdjust="spacing" textLength="140" x="522.5" y="112.8613">User Interface</text><rect fill="#E2E2F0" height="37.2813" rx="2.5" ry="2.5" style="stroke:#181818;stroke-width:0.5;" width="154" x="515.5" y="1365.8594"/><text fill="#000000" font-family="sans-serif" font-size="20" lengthAdjust="spacing" textLength="140" x="522.5" y="1391.4238">User Interface</text><rect fill="#E2E2F0" height="37.2813" rx="2.5" ry="2.5" style="stroke:#181818;stroke-width:0.5;" width="158" x="1021.5" y="87.2969"/><text fill="#000000" font-family="sans-serif" font-size="20" lengthAdjust="spacing" textLength="144" x="1028.5" y="112.8613">UserController</text><rect fill="#E2E2F0" height="37.2813" rx="2.5" ry="2.5" style="stroke:#181818;stroke-width:0.5;" width="158" x="1021.5" y="1365.8594"/><text fill="#000000" font-family="sans-serif" font-size="20" lengthAdjust="spacing" textLength="144" x="1028.5" y="1391.4238">UserController</text><rect fill="#E2E2F0" height="37.2813" rx="2.5" ry="2.5" style="stroke:#181818;stroke-width:0.5;" width="132" x="1542.5" y="87.2969"/><text fill="#000000" font-family="sans-serif" font-size="20" lengthAdjust="spacing" textLength="118" x="1549.5" y="112.8613">UserService</text><rect fill="#E2E2F0" height="37.2813" rx="2.5" ry="2.5" style="stroke:#181818;stroke-width:0.5;" width="132" x="1542.5" y="1365.8594"/><text fill="#000000" font-family="sans-serif" font-size="20" lengthAdjust="spacing" textLength="118" x="1549.5" y="1391.4238">UserService</text><rect fill="#E2E2F0" height="37.2813" rx="2.5" ry="2.5" style="stroke:#181818;stroke-width:0.5;" width="144" x="2590.5" y="87.2969"/><text fill="#000000" font-family="sans-serif" font-size="20" lengthAdjust="spacing" textLength="130" x="2597.5" y="112.8613">EmailService</text><rect fill="#E2E2F0" height="37.2813" rx="2.5" ry="2.5" style="stroke:#181818;stroke-width:0.5;" width="144" x="2590.5" y="1365.8594"/><text fill="#000000" font-family="sans-serif" font-size="20" lengthAdjust="spacing" textLength="130" x="2597.5" y="1391.4238">EmailService</text><rect fill="#E2E2F0" height="37.2813" rx="2.5" ry="2.5" style="stroke:#181818;stroke-width:0.5;" width="134" x="3003.5" y="87.2969"/><text fill="#000000" font-family="sans-serif" font-size="20" lengthAdjust="spacing" textLength="120" x="3010.5" y="112.8613">UserMapper</text><rect fill="#E2E2F0" height="37.2813" rx="2.5" ry="2.5" style="stroke:#181818;stroke-width:0.5;" width="134" x="3003.5" y="1365.8594"/><text fill="#000000" font-family="sans-serif" font-size="20" lengthAdjust="spacing" textLength="120" x="3010.5" y="1391.4238">UserMapper</text><rect fill="#E2E2F0" height="37.2813" rx="2.5" ry="2.5" style="stroke:#181818;stroke-width:0.5;" width="165" x="3147.5" y="87.2969"/><text fill="#000000" font-family="sans-serif" font-size="20" lengthAdjust="spacing" textLength="151" x="3154.5" y="112.8613">UserRepository</text><rect fill="#E2E2F0" height="37.2813" rx="2.5" ry="2.5" style="stroke:#181818;stroke-width:0.5;" width="165" x="3147.5" y="1365.8594"/><text fill="#000000" font-family="sans-serif" font-size="20" lengthAdjust="spacing" textLength="151" x="3154.5" y="1391.4238">UserRepository</text><rect fill="#E2E2F0" height="37.2813" rx="2.5" ry="2.5" style="stroke:#181818;stroke-width:0.5;" width="191" x="3322.5" y="87.2969"/><text fill="#000000" font-family="sans-serif" font-size="20" lengthAdjust="spacing" textLength="177" x="3329.5" y="112.8613">PatientRepository</text><rect fill="#E2E2F0" height="37.2813" rx="2.5" ry="2.5" style="stroke:#181818;stroke-width:0.5;" width="191" x="3322.5" y="1365.8594"/><text fill="#000000" font-family="sans-serif" font-size="20" lengthAdjust="spacing" textLength="177" x="3329.5" y="1391.4238">PatientRepository</text><rect fill="#E2E2F0" height="37.2813" rx="2.5" ry="2.5" style="stroke:#181818;stroke-width:0.5;" width="59" x="3523.5" y="87.2969"/><text fill="#000000" font-family="sans-serif" font-size="20" lengthAdjust="spacing" textLength="45" x="3530.5" y="112.8613">User</text><rect fill="#E2E2F0" height="37.2813" rx="2.5" ry="2.5" style="stroke:#181818;stroke-width:0.5;" width="59" x="3523.5" y="1365.8594"/><text fill="#000000" font-family="sans-serif" font-size="20" lengthAdjust="spacing" textLength="45" x="3530.5" y="1391.4238">User</text><rect fill="#E2E2F0" height="37.2813" rx="2.5" ry="2.5" style="stroke:#181818;stroke-width:0.5;" width="102" x="3592.5" y="87.2969"/><text fill="#000000" font-family="sans-serif" font-size="20" lengthAdjust="spacing" textLength="88" x="3599.5" y="112.8613">UserDTO</text><rect fill="#E2E2F0" height="37.2813" rx="2.5" ry="2.5" style="stroke:#181818;stroke-width:0.5;" width="102" x="3592.5" y="1365.8594"/><text fill="#000000" font-family="sans-serif" font-size="20" lengthAdjust="spacing" textLength="88" x="3599.5" y="1391.4238">UserDTO</text><rect fill="#E2E2F0" height="37.2813" rx="2.5" ry="2.5" style="stroke:#181818;stroke-width:0.5;" width="108" x="3717.5" y="87.2969"/><text fill="#000000" font-family="sans-serif" font-size="20" lengthAdjust="spacing" textLength="94" x="3724.5" y="112.8613">Database</text><rect fill="#E2E2F0" height="37.2813" rx="2.5" ry="2.5" style="stroke:#181818;stroke-width:0.5;" width="108" x="3717.5" y="1365.8594"/><text fill="#000000" font-family="sans-serif" font-size="20" lengthAdjust="spacing" textLength="94" x="3724.5" y="1391.4238">Database</text><rect fill="#FFFFFF" height="1222.2813" style="stroke:#181818;stroke-width:1.0;" width="10" x="38.5" y="135.5781"/><rect fill="#FFFFFF" height="37.2813" style="stroke:#181818;stroke-width:1.0;" width="10" x="587.5" y="164.8594"/><rect fill="#FFFFFF" height="1109.4375" style="stroke:#181818;stroke-width:1.0;" width="10" x="587.5" y="239.4219"/><rect fill="#FFFFFF" height="1034.875" style="stroke:#181818;stroke-width:1.0;" width="10" x="1095.5" y="276.7031"/><rect fill="#FFFFFF" height="953.3125" style="stroke:#181818;stroke-width:1.0;" width="10" x="1603.5" y="313.9844"/><rect fill="#FFFFFF" height="43.2813" style="stroke:#181818;stroke-width:1.0;" width="10" x="2657.5" y="743.6406"/><rect fill="#FFFFFF" height="124.8438" style="stroke:#181818;stroke-width:1.0;" width="10" x="3065.5" y="581.5156"/><rect fill="#FFFFFF" height="124.8438" style="stroke:#181818;stroke-width:1.0;" width="10" x="3065.5" y="973.0469"/><rect fill="#FFFFFF" height="37.2813" style="stroke:#181818;stroke-width:1.0;" width="10" x="3225" y="351.2656"/><rect fill="#FFFFFF" height="104.5625" style="stroke:#181818;stroke-width:1.0;" width="10" x="3225" y="831.2031"/><rect fill="#FFFFFF" height="37.2813" style="stroke:#181818;stroke-width:1.0;" width="10" x="3413" y="466.3906"/><rect fill="#FFFFFF" height="43.2813" style="stroke:#181818;stroke-width:1.0;" width="10" x="3548" y="618.7969"/><rect fill="#FFFFFF" height="43.2813" style="stroke:#181818;stroke-width:1.0;" width="10" x="3638.5" y="1010.3281"/><rect fill="#FFFFFF" height="30" style="stroke:#181818;stroke-width:1.0;" width="10" x="3766.5" y="868.4844"/><polygon fill="#000000" points="575.5,160.8594,585.5,164.8594,575.5,168.8594,579.5,164.8594" style="stroke:#000000;stroke-width:1.0;"/><line style="stroke:#000000;stroke-width:1.0;" x1="48.5" x2="581.5" y1="164.8594" y2="164.8594"/><text fill="#000000" font-family="sans-serif" font-size="20" lengthAdjust="spacing" textLength="240" x="55.5" y="158.1426">Asks to Register as User</text><polygon fill="#000000" points="59.5,198.1406,49.5,202.1406,59.5,206.1406,55.5,202.1406" style="stroke:#000000;stroke-width:1.0;"/><line style="stroke:#000000;stroke-width:1.0;stroke-dasharray:2.0,2.0;" x1="53.5" x2="591.5" y1="202.1406" y2="202.1406"/><text fill="#000000" font-family="sans-serif" font-size="20" lengthAdjust="spacing" textLength="318" x="65.5" y="195.4238">Asks for data to register as User</text><polygon fill="#000000" points="575.5,235.4219,585.5,239.4219,575.5,243.4219,579.5,239.4219" style="stroke:#000000;stroke-width:1.0;"/><line style="stroke:#000000;stroke-width:1.0;" x1="48.5" x2="581.5" y1="239.4219" y2="239.4219"/><text fill="#000000" font-family="sans-serif" font-size="20" lengthAdjust="spacing" textLength="520" x="55.5" y="232.7051">Sends data(email, password, phone number, name)</text><polygon fill="#000000" points="1083.5,272.7031,1093.5,276.7031,1083.5,280.7031,1087.5,276.7031" style="stroke:#000000;stroke-width:1.0;"/><line style="stroke:#000000;stroke-width:1.0;" x1="597.5" x2="1089.5" y1="276.7031" y2="276.7031"/><text fill="#000000" font-family="sans-serif" font-size="20" lengthAdjust="spacing" textLength="479" x="604.5" y="269.9863">createPatientUser(CreatingPatientUserDTO dto)</text><polygon fill="#000000" points="1591.5,309.9844,1601.5,313.9844,1591.5,317.9844,1595.5,313.9844" style="stroke:#000000;stroke-width:1.0;"/><line style="stroke:#000000;stroke-width:1.0;" x1="1105.5" x2="1597.5" y1="313.9844" y2="313.9844"/><text fill="#000000" font-family="sans-serif" font-size="20" lengthAdjust="spacing" textLength="479" x="1112.5" y="307.2676">createPatientUser(CreatingPatientUserDTO dto)</text><polygon fill="#000000" points="3213,347.2656,3223,351.2656,3213,355.2656,3217,351.2656" style="stroke:#000000;stroke-width:1.0;"/><line style="stroke:#000000;stroke-width:1.0;" x1="1613.5" x2="3219" y1="351.2656" y2="351.2656"/><text fill="#000000" font-family="sans-serif" font-size="20" lengthAdjust="spacing" textLength="347" x="1620.5" y="344.5488">getUserByEmailAsync(dto.Email())</text><polygon fill="#000000" points="1624.5,384.5469,1614.5,388.5469,1624.5,392.5469,1620.5,388.5469" style="stroke:#000000;stroke-width:1.0;"/><line style="stroke:#000000;stroke-width:1.0;stroke-dasharray:2.0,2.0;" x1="1618.5" x2="3229" y1="388.5469" y2="388.5469"/><text fill="#000000" font-family="sans-serif" font-size="20" lengthAdjust="spacing" textLength="115" x="1630.5" y="381.8301">Returns var</text><path d="M1001.5,403.5469 L1077.5,403.5469 L1077.5,418.8281 L1067.5,428.8281 L1001.5,428.8281 L1001.5,403.5469 " fill="#EEEEEE" style="stroke:#000000;stroke-width:1.5;"/><rect fill="none" height="871.75" style="stroke:#000000;stroke-width:1.5;" width="2844" x="1001.5" y="403.5469"/><text fill="#000000" font-family="sans-serif" font-size="20" font-weight="bold" lengthAdjust="spacing" textLength="31" x="1016.5" y="423.1113">alt</text><text fill="#000000" font-family="sans-serif" font-size="20" font-weight="bold" lengthAdjust="spacing" textLength="130" x="1092.5" y="424.1113">[var is null]</text><polygon fill="#000000" points="3401,462.3906,3411,466.3906,3401,470.3906,3405,466.3906" style="stroke:#000000;stroke-width:1.0;"/><line style="stroke:#000000;stroke-width:1.0;" x1="1613.5" x2="3407" y1="466.3906" y2="466.3906"/><text fill="#000000" font-family="sans-serif" font-size="20" lengthAdjust="spacing" textLength="347" x="1620.5" y="459.6738">getUserByEmailAsync(dto.Email())</text><polygon fill="#000000" points="1624.5,499.6719,1614.5,503.6719,1624.5,507.6719,1620.5,503.6719" style="stroke:#000000;stroke-width:1.0;"/><line style="stroke:#000000;stroke-width:1.0;stroke-dasharray:2.0,2.0;" x1="1618.5" x2="3417" y1="503.6719" y2="503.6719"/><text fill="#000000" font-family="sans-serif" font-size="20" lengthAdjust="spacing" textLength="115" x="1630.5" y="496.9551">Returns var</text><path d="M1011.5,518.6719 L1087.5,518.6719 L1087.5,533.9531 L1077.5,543.9531 L1011.5,543.9531 L1011.5,518.6719 " fill="#EEEEEE" style="stroke:#000000;stroke-width:1.5;"/><rect fill="none" height="687.0625" style="stroke:#000000;stroke-width:1.5;" width="2824" x="1011.5" y="518.6719"/><text fill="#000000" font-family="sans-serif" font-size="20" font-weight="bold" lengthAdjust="spacing" textLength="31" x="1026.5" y="538.2363">alt</text><text fill="#000000" font-family="sans-serif" font-size="20" font-weight="bold" lengthAdjust="spacing" textLength="763" x="1102.5" y="539.2363">[Phone number matches the Patient's profile with the given email]</text><polygon fill="#000000" points="3053.5,577.5156,3063.5,581.5156,3053.5,585.5156,3057.5,581.5156" style="stroke:#000000;stroke-width:1.0;"/><line style="stroke:#000000;stroke-width:1.0;" x1="1613.5" x2="3059.5" y1="581.5156" y2="581.5156"/><text fill="#000000" font-family="sans-serif" font-size="20" lengthAdjust="spacing" textLength="275" x="1620.5" y="574.7988">ToCreatingPatientUser(dto)</text><polygon fill="#000000" points="3536,614.7969,3546,618.7969,3536,622.7969,3540,618.7969" style="stroke:#000000;stroke-width:1.0;"/><line style="stroke:#000000;stroke-width:1.0;" x1="3075.5" x2="3542" y1="618.7969" y2="618.7969"/><text fill="#000000" font-family="sans-serif" font-size="20" lengthAdjust="spacing" textLength="202" x="3082.5" y="612.0801">new User(dto fields)</text><line style="stroke:#000000;stroke-width:1.0;" x1="3558" x2="3600" y1="661.0781" y2="661.0781"/><line style="stroke:#000000;stroke-width:1.0;" x1="3600" x2="3600" y1="661.0781" y2="674.0781"/><line style="stroke:#000000;stroke-width:1.0;" x1="3553" x2="3600" y1="674.0781" y2="674.0781"/><polygon fill="#000000" points="3563,670.0781,3553,674.0781,3563,678.0781,3559,674.0781" style="stroke:#000000;stroke-width:1.0;"/><text fill="#000000" font-family="sans-serif" font-size="20" lengthAdjust="spacing" textLength="61" x="3565" y="654.3613">User()</text><polygon fill="#000000" points="1624.5,702.3594,1614.5,706.3594,1624.5,710.3594,1620.5,706.3594" style="stroke:#000000;stroke-width:1.0;"/><line style="stroke:#000000;stroke-width:1.0;stroke-dasharray:2.0,2.0;" x1="1618.5" x2="3069.5" y1="706.3594" y2="706.3594"/><text fill="#000000" font-family="sans-serif" font-size="20" lengthAdjust="spacing" textLength="113" x="1630.5" y="699.6426">return User</text><polygon fill="#000000" points="2645.5,739.6406,2655.5,743.6406,2645.5,747.6406,2649.5,743.6406" style="stroke:#000000;stroke-width:1.0;"/><line style="stroke:#000000;stroke-width:1.0;" x1="1613.5" x2="2651.5" y1="743.6406" y2="743.6406"/><text fill="#000000" font-family="sans-serif" font-size="20" lengthAdjust="spacing" textLength="1025" x="1620.5" y="736.9238">sendEmail(SendEmail(dto.Email, "Activate your account", GenerateLink(token, "ActivatePatientUser")</text><line style="stroke:#000000;stroke-width:1.0;stroke-dasharray:2.0,2.0;" x1="2667.5" x2="2709.5" y1="785.9219" y2="785.9219"/><line style="stroke:#000000;stroke-width:1.0;stroke-dasharray:2.0,2.0;" x1="2709.5" x2="2709.5" y1="785.9219" y2="798.9219"/><line style="stroke:#000000;stroke-width:1.0;stroke-dasharray:2.0,2.0;" x1="2662.5" x2="2709.5" y1="798.9219" y2="798.9219"/><polygon fill="#000000" points="2672.5,794.9219,2662.5,798.9219,2672.5,802.9219,2668.5,798.9219" style="stroke:#000000;stroke-width:1.0;"/><text fill="#000000" font-family="sans-serif" font-size="20" lengthAdjust="spacing" textLength="384" x="2674.5" y="779.2051">Sends email using SMTP configuration</text><polygon fill="#000000" points="3213,827.2031,3223,831.2031,3213,835.2031,3217,831.2031" style="stroke:#000000;stroke-width:1.0;"/><line style="stroke:#000000;stroke-width:1.0;" x1="1613.5" x2="3219" y1="831.2031" y2="831.2031"/><text fill="#000000" font-family="sans-serif" font-size="20" lengthAdjust="spacing" textLength="156" x="1620.5" y="824.4863">addAsync(user)</text><polygon fill="#000000" points="3754.5,864.4844,3764.5,868.4844,3754.5,872.4844,3758.5,868.4844" style="stroke:#000000;stroke-width:1.0;"/><line style="stroke:#000000;stroke-width:1.0;" x1="3235" x2="3760.5" y1="868.4844" y2="868.4844"/><text fill="#000000" font-family="sans-serif" font-size="20" lengthAdjust="spacing" textLength="215" x="3242" y="861.7676">_objs.AddAsync(user)</text><polygon fill="#000000" points="1624.5,931.7656,1614.5,935.7656,1624.5,939.7656,1620.5,935.7656" style="stroke:#000000;stroke-width:1.0;"/><line style="stroke:#000000;stroke-width:1.0;stroke-dasharray:2.0,2.0;" x1="1618.5" x2="3229" y1="935.7656" y2="935.7656"/><text fill="#000000" font-family="sans-serif" font-size="20" lengthAdjust="spacing" textLength="113" x="1630.5" y="929.0488">return User</text><polygon fill="#000000" points="3053.5,969.0469,3063.5,973.0469,3053.5,977.0469,3057.5,973.0469" style="stroke:#000000;stroke-width:1.0;"/><line style="stroke:#000000;stroke-width:1.0;" x1="1613.5" x2="3059.5" y1="973.0469" y2="973.0469"/><text fill="#000000" font-family="sans-serif" font-size="20" lengthAdjust="spacing" textLength="120" x="1620.5" y="966.3301">ToDto(User)</text><polygon fill="#000000" points="3626.5,1006.3281,3636.5,1010.3281,3626.5,1014.3281,3630.5,1010.3281" style="stroke:#000000;stroke-width:1.0;"/><line style="stroke:#000000;stroke-width:1.0;" x1="3075.5" x2="3632.5" y1="1010.3281" y2="1010.3281"/><text fill="#000000" font-family="sans-serif" font-size="20" lengthAdjust="spacing" textLength="257" x="3082.5" y="1003.6113">new UserDTO(User fields)</text><line style="stroke:#000000;stroke-width:1.0;" x1="3648.5" x2="3690.5" y1="1052.6094" y2="1052.6094"/><line style="stroke:#000000;stroke-width:1.0;" x1="3690.5" x2="3690.5" y1="1052.6094" y2="1065.6094"/><line style="stroke:#000000;stroke-width:1.0;" x1="3643.5" x2="3690.5" y1="1065.6094" y2="1065.6094"/><polygon fill="#000000" points="3653.5,1061.6094,3643.5,1065.6094,3653.5,1069.6094,3649.5,1065.6094" style="stroke:#000000;stroke-width:1.0;"/><text fill="#000000" font-family="sans-serif" font-size="20" lengthAdjust="spacing" textLength="104" x="3655.5" y="1045.8926">UserDTO()</text><polygon fill="#000000" points="1624.5,1093.8906,1614.5,1097.8906,1624.5,1101.8906,1620.5,1097.8906" style="stroke:#000000;stroke-width:1.0;"/><line style="stroke:#000000;stroke-width:1.0;stroke-dasharray:2.0,2.0;" x1="1618.5" x2="3069.5" y1="1097.8906" y2="1097.8906"/><text fill="#000000" font-family="sans-serif" font-size="20" lengthAdjust="spacing" textLength="156" x="1630.5" y="1091.1738">return UserDTO</text><polygon fill="#000000" points="1116.5,1131.1719,1106.5,1135.1719,1116.5,1139.1719,1112.5,1135.1719" style="stroke:#000000;stroke-width:1.0;"/><line style="stroke:#000000;stroke-width:1.0;stroke-dasharray:2.0,2.0;" x1="1110.5" x2="1602.5" y1="1135.1719" y2="1135.1719"/><text fill="#000000" font-family="sans-serif" font-size="20" lengthAdjust="spacing" textLength="156" x="1122.5" y="1128.4551">return UserDTO</text><line style="stroke:#000000;stroke-width:1.0;stroke-dasharray:2.0,2.0;" x1="1011.5" x2="3835.5" y1="1144.1719" y2="1144.1719"/><text fill="#000000" font-family="sans-serif" font-size="20" font-weight="bold" lengthAdjust="spacing" textLength="843" x="1016.5" y="1162.7363">[Phone number does not match the Patient's profile with the given email]</text><polygon fill="#000000" points="1116.5,1193.7344,1106.5,1197.7344,1116.5,1201.7344,1112.5,1197.7344" style="stroke:#000000;stroke-width:1.0;"/><line style="stroke:#000000;stroke-width:1.0;" x1="1110.5" x2="1602.5" y1="1197.7344" y2="1197.7344"/><text fill="#000000" font-family="sans-serif" font-size="20" lengthAdjust="spacing" textLength="261" x="1122.5" y="1191.0176">return exception message</text><line style="stroke:#000000;stroke-width:1.0;stroke-dasharray:2.0,2.0;" x1="1001.5" x2="3845.5" y1="1213.7344" y2="1213.7344"/><text fill="#000000" font-family="sans-serif" font-size="20" font-weight="bold" lengthAdjust="spacing" textLength="175" x="1006.5" y="1232.2988">[var is not null]</text><polygon fill="#000000" points="1116.5,1263.2969,1106.5,1267.2969,1116.5,1271.2969,1112.5,1267.2969" style="stroke:#000000;stroke-width:1.0;"/><line style="stroke:#000000;stroke-width:1.0;" x1="1110.5" x2="1607.5" y1="1267.2969" y2="1267.2969"/><text fill="#000000" font-family="sans-serif" font-size="20" lengthAdjust="spacing" textLength="261" x="1122.5" y="1260.5801">return exception message</text><polygon fill="#000000" points="608.5,1307.5781,598.5,1311.5781,608.5,1315.5781,604.5,1311.5781" style="stroke:#000000;stroke-width:1.0;"/><line style="stroke:#000000;stroke-width:1.0;stroke-dasharray:2.0,2.0;" x1="602.5" x2="1099.5" y1="1311.5781" y2="1311.5781"/><text fill="#000000" font-family="sans-serif" font-size="20" lengthAdjust="spacing" textLength="413" x="614.5" y="1304.8613">Returns Operation Status Response Code</text><polygon fill="#000000" points="59.5,1344.8594,49.5,1348.8594,59.5,1352.8594,55.5,1348.8594" style="stroke:#000000;stroke-width:1.0;"/><line style="stroke:#000000;stroke-width:1.0;stroke-dasharray:2.0,2.0;" x1="53.5" x2="591.5" y1="1348.8594" y2="1348.8594"/><text fill="#000000" font-family="sans-serif" font-size="20" lengthAdjust="spacing" textLength="380" x="65.5" y="1342.1426">Returns Operation In/Sucess message</text><!--SRC=[dLPRRziw37xtho2oXsL0rxCBpYqO2iIN30KQrB2RvmFLPX8jZcH8Shfis7y_b1mxSkDYm_AIcFm-VXH5qj4xBcgcsBwInGvBA77Dcieif30v_uRmuLqG66ugX3iyO0KV8UPiG_WWsF8I0VUrES8Uzu-eTF1QT-7WZWiqnnf1AhELGN3s51NJ6hu7G9-G5RkDaeqe8rb9zUdJWLKDtZz-mSBStC2h-AzallXd7AgaT9X5d8Jnkt6CHdNW1RfGxnSVad0CHY6InR_9tyutLqe-jUQm8bpmmy-z9WlRu7Zsy2e95tykGajXXI53oWn7OO1fI0EAO7Z1QqQ6oOeoWrjXKArPWHEBMDrUGYAw1oMh2fM3H9U8l3sXS-T3Tx9dlFBzINx9NxAwFaLVNdephANcT9IZGsH3nEbupq1fTXcdFU2bFNwuToxw7ZfZPjWZqstUSUWAoW_C81KoXRStLAqPpFLEWv6GuOPhAgKJeQXdCDLqTGjl2P-Uu6kwbfA2MvvwpYlHP_OwEOfIEzOKRKslg0-qVfAgf5zRAH14OmVW2WJRuviB-Hk8Pb0e9DEfP5Pj6baB5nlFHdM0qaWlH1H4Da3-sm7o8BS1iXbiq472eskCkJwAOahOQ_SuVUDniY1pHIFL34sZX8O36vGd2rXbh16ufjDNbHi8fvJ-YfH5dwyqSy_fgAZrUC8dh5LFlTB3dfbYYzGEM-p6xhM6Miarf-NrnCtMkJRyW0BSBReuVTRB6Jp8aO9ENJKxQ9_6iZSjNPVCGE0JT0HOSwnAFS9RzQRLYUSuPwJVWhv6MnZb2jCswmXZEJnJGWnDlTjMFUz_zJTn1PDvnptAXWQXA6YTcSaLV4Q1YkoqntTJ8tSeFB1Ndyd88MdFTBOaTwdRJDefSgM7HbEL8Ly-f518iUQRXhIu56E7yg9rdSpAiksfXZ8OII3hJPbbnE4C_fEFN_Jr_2V4E1pBmBDcltWJsKXtnKPEL-Ewpzg9flZSKFJWQ2ytbTsUdT4kW2v2nnxjBfyqrb- -_wKMQpVRa0GEW9N6uO2MagPJIDDEwc_FwLaFlnPOswQXlnzQqrkv5HPbuCIxtKIAm_tqimZUOVF0XelSGUsBeDjBzpMs_GgvOQQX5oFgMWfIZMI9_fwClFVF9VjM_94t1Mdt2GpVGFy3]--></g></svg>