<?xml version="1.0" encoding="UTF-8" standalone="no"?><svg xmlns="http://www.w3.org/2000/svg" xmlns:xlink="http://www.w3.org/1999/xlink" contentStyleType="text/css" height="632px" preserveAspectRatio="none" style="width:1783px;height:632px;background:#FFFFFF;" version="1.1" viewBox="0 0 1783 632" width="1783px" zoomAndPan="magnify"><defs/><g><text fill="#000000" font-family="sans-serif" font-size="14" font-weight="bold" lengthAdjust="spacing" textLength="126" x="830.5" y="27.9951">Level 2 Diagram</text><rect fill="#FFFFFF" height="399.8125" style="stroke:#181818;stroke-width:1.0;" width="10" x="36" y="135.5781"/><rect fill="#FFFFFF" height="162.125" style="stroke:#181818;stroke-width:1.0;" width="10" x="936" y="164.8594"/><rect fill="#FFFFFF" height="162.125" style="stroke:#181818;stroke-width:1.0;" width="10" x="936" y="364.2656"/><rect fill="#FFFFFF" height="87.5625" style="stroke:#181818;stroke-width:1.0;" width="10" x="1374" y="202.1406"/><rect fill="#FFFFFF" height="87.5625" style="stroke:#181818;stroke-width:1.0;" width="10" x="1374" y="401.5469"/><line style="stroke:#181818;stroke-width:0.5;stroke-dasharray:5.0,5.0;" x1="41" x2="41" y1="125.5781" y2="544.3906"/><line style="stroke:#181818;stroke-width:0.5;stroke-dasharray:5.0,5.0;" x1="940.5" x2="940.5" y1="125.5781" y2="544.3906"/><line style="stroke:#181818;stroke-width:0.5;stroke-dasharray:5.0,5.0;" x1="1379" x2="1379" y1="125.5781" y2="544.3906"/><text fill="#000000" font-family="sans-serif" font-size="20" lengthAdjust="spacing" textLength="66" x="5" y="120.8613">Doctor</text><ellipse cx="41" cy="50.7969" fill="#E2E2F0" rx="8" ry="8" style="stroke:#181818;stroke-width:0.5;"/><path d="M41,58.7969 L41,85.7969 M28,66.7969 L54,66.7969 M41,85.7969 L28,100.7969 M41,85.7969 L54,100.7969 " fill="none" style="stroke:#181818;stroke-width:0.5;"/><text fill="#000000" font-family="sans-serif" font-size="20" lengthAdjust="spacing" textLength="66" x="5" y="561.9551">Doctor</text><ellipse cx="41" cy="575.1719" fill="#E2E2F0" rx="8" ry="8" style="stroke:#181818;stroke-width:0.5;"/><path d="M41,583.1719 L41,610.1719 M28,591.1719 L54,591.1719 M41,610.1719 L28,625.1719 M41,610.1719 L54,625.1719 " fill="none" style="stroke:#181818;stroke-width:0.5;"/><rect fill="#E2E2F0" height="37.2813" rx="2.5" ry="2.5" style="stroke:#181818;stroke-width:0.5;" width="39" x="921.5" y="87.2969"/><text fill="#000000" font-family="sans-serif" font-size="20" lengthAdjust="spacing" textLength="25" x="928.5" y="112.8613">FE</text><rect fill="#E2E2F0" height="37.2813" rx="2.5" ry="2.5" style="stroke:#181818;stroke-width:0.5;" width="39" x="921.5" y="543.3906"/><text fill="#000000" font-family="sans-serif" font-size="20" lengthAdjust="spacing" textLength="25" x="928.5" y="568.9551">FE</text><rect fill="#E2E2F0" height="37.2813" rx="2.5" ry="2.5" style="stroke:#181818;stroke-width:0.5;" width="60" x="1349" y="87.2969"/><text fill="#000000" font-family="sans-serif" font-size="20" lengthAdjust="spacing" textLength="46" x="1356" y="112.8613">MDV</text><rect fill="#E2E2F0" height="37.2813" rx="2.5" ry="2.5" style="stroke:#181818;stroke-width:0.5;" width="60" x="1349" y="543.3906"/><text fill="#000000" font-family="sans-serif" font-size="20" lengthAdjust="spacing" textLength="46" x="1356" y="568.9551">MDV</text><rect fill="#FFFFFF" height="399.8125" style="stroke:#181818;stroke-width:1.0;" width="10" x="36" y="135.5781"/><rect fill="#FFFFFF" height="162.125" style="stroke:#181818;stroke-width:1.0;" width="10" x="936" y="164.8594"/><rect fill="#FFFFFF" height="162.125" style="stroke:#181818;stroke-width:1.0;" width="10" x="936" y="364.2656"/><rect fill="#FFFFFF" height="87.5625" style="stroke:#181818;stroke-width:1.0;" width="10" x="1374" y="202.1406"/><rect fill="#FFFFFF" height="87.5625" style="stroke:#181818;stroke-width:1.0;" width="10" x="1374" y="401.5469"/><polygon fill="#000000" points="924,160.8594,934,164.8594,924,168.8594,928,164.8594" style="stroke:#000000;stroke-width:1.0;"/><line style="stroke:#000000;stroke-width:1.0;" x1="46" x2="930" y1="164.8594" y2="164.8594"/><text fill="#000000" font-family="sans-serif" font-size="20" lengthAdjust="spacing" textLength="254" x="53" y="158.1426">Asks to update an allergy</text><polygon fill="#000000" points="1362,198.1406,1372,202.1406,1362,206.1406,1366,202.1406" style="stroke:#000000;stroke-width:1.0;"/><line style="stroke:#000000;stroke-width:1.0;" x1="946" x2="1368" y1="202.1406" y2="202.1406"/><text fill="#000000" font-family="sans-serif" font-size="20" lengthAdjust="spacing" textLength="409" x="953" y="195.4238">Makes Http Request to get Allergy's data</text><line style="stroke:#000000;stroke-width:1.0;" x1="1384" x2="1426" y1="239.4219" y2="239.4219"/><line style="stroke:#000000;stroke-width:1.0;" x1="1426" x2="1426" y1="239.4219" y2="252.4219"/><line style="stroke:#000000;stroke-width:1.0;" x1="1385" x2="1426" y1="252.4219" y2="252.4219"/><polygon fill="#000000" points="1395,248.4219,1385,252.4219,1395,256.4219,1391,252.4219" style="stroke:#000000;stroke-width:1.0;"/><text fill="#000000" font-family="sans-serif" font-size="20" lengthAdjust="spacing" textLength="221" x="1391" y="232.7051">Fetches Allergy's data</text><polygon fill="#000000" points="957,285.7031,947,289.7031,957,293.7031,953,289.7031" style="stroke:#000000;stroke-width:1.0;"/><line style="stroke:#000000;stroke-width:1.0;stroke-dasharray:2.0,2.0;" x1="951" x2="1378" y1="289.7031" y2="289.7031"/><text fill="#000000" font-family="sans-serif" font-size="20" lengthAdjust="spacing" textLength="280" x="963" y="282.9863">returns Operation Response</text><polygon fill="#000000" points="57,322.9844,47,326.9844,57,330.9844,53,326.9844" style="stroke:#000000;stroke-width:1.0;"/><line style="stroke:#000000;stroke-width:1.0;stroke-dasharray:2.0,2.0;" x1="51" x2="940" y1="326.9844" y2="326.9844"/><text fill="#000000" font-family="sans-serif" font-size="20" lengthAdjust="spacing" textLength="610" x="63" y="320.2676">Displays the fetched data and asks for the new allergy's data</text><polygon fill="#000000" points="924,360.2656,934,364.2656,924,368.2656,928,364.2656" style="stroke:#000000;stroke-width:1.0;"/><line style="stroke:#000000;stroke-width:1.0;" x1="46" x2="930" y1="364.2656" y2="364.2656"/><text fill="#000000" font-family="sans-serif" font-size="20" lengthAdjust="spacing" textLength="871" x="53" y="357.5488">Sends allergy's data (AllergyCode, AllergyName, AllergyDescription, AllergySymptoms)</text><polygon fill="#000000" points="1362,397.5469,1372,401.5469,1362,405.5469,1366,401.5469" style="stroke:#000000;stroke-width:1.0;"/><line style="stroke:#000000;stroke-width:1.0;" x1="946" x2="1368" y1="401.5469" y2="401.5469"/><text fill="#000000" font-family="sans-serif" font-size="20" lengthAdjust="spacing" textLength="409" x="953" y="394.8301">Makes Http Request to update an allergy</text><line style="stroke:#000000;stroke-width:1.0;" x1="1384" x2="1426" y1="438.8281" y2="438.8281"/><line style="stroke:#000000;stroke-width:1.0;" x1="1426" x2="1426" y1="438.8281" y2="451.8281"/><line style="stroke:#000000;stroke-width:1.0;" x1="1385" x2="1426" y1="451.8281" y2="451.8281"/><polygon fill="#000000" points="1395,447.8281,1385,451.8281,1395,455.8281,1391,451.8281" style="stroke:#000000;stroke-width:1.0;"/><text fill="#000000" font-family="sans-serif" font-size="20" lengthAdjust="spacing" textLength="385" x="1391" y="432.1113">Validates allergy's data and updates it</text><polygon fill="#000000" points="957,485.1094,947,489.1094,957,493.1094,953,489.1094" style="stroke:#000000;stroke-width:1.0;"/><line style="stroke:#000000;stroke-width:1.0;stroke-dasharray:2.0,2.0;" x1="951" x2="1378" y1="489.1094" y2="489.1094"/><text fill="#000000" font-family="sans-serif" font-size="20" lengthAdjust="spacing" textLength="286" x="963" y="482.3926">Returns Operation Response</text><polygon fill="#000000" points="57,522.3906,47,526.3906,57,530.3906,53,526.3906" style="stroke:#000000;stroke-width:1.0;"/><line style="stroke:#000000;stroke-width:1.0;stroke-dasharray:2.0,2.0;" x1="51" x2="940" y1="526.3906" y2="526.3906"/><text fill="#000000" font-family="sans-serif" font-size="20" lengthAdjust="spacing" textLength="380" x="63" y="519.6738">Returns Operation In/Sucess message</text><!--SRC=[dLDXQzim4FskNt7G3zrWOrrWMnTAmAvjDcXNQA3VLUlYQ9ObJJgdU6F_VIUdRfeq33P_iF7TU-_UFSknrTRB83lZwXOLA5p9tb3bB2trJuJPcH2aoI1SuGODpA3Gic6y46kj4B3pD427tJs6A4xZ90TNsY8D7i45MZiXTftQo1ZXbm2-SbctJN2zLPVEk71niP6cnvlxxrZJOW4dnSSogywFGuDp8wOgohmuEuw963Qwnb7gVJKhysCmbYYhp-MdiPU5u1wsvTmmJln-xjrpHJPut3sSb7dreSeJHTR4XSAD3naX4on0kjPUMeAgJBMgt2jU5tUfoe-HhZUIa7aPl5qmT0vPR2EGWzwhr94Mf34Occ67PaMMPZoBpE5QjXZX2v67M_pHOwH4Rv0Wsn9F8x2KtF7Jx6HZKgYGwZLh7E17oAEhWDG76-76Ov2adULPqJiRKIZS4qxEc9JD-GX5R-J0swmHLkCCDIhpKeepu3rN75lgMdoOrfocFvFbVP_YMQ9LyG0BhnwTNpg5RwOrlibkzr9Wh8FsoVbJRJdmgNPTVFrloVxbmnm6UoUDJk0NXbC0Mvq8clQIllsFf5zoljftoxv6_WCxll5PFiZp3m00]--></g></svg>