<?xml version="1.0" encoding="UTF-8" standalone="no"?><svg xmlns="http://www.w3.org/2000/svg" xmlns:xlink="http://www.w3.org/1999/xlink" contentStyleType="text/css" height="2073px" preserveAspectRatio="none" style="width:2691px;height:2073px;background:#FFFFFF;" version="1.1" viewBox="0 0 2691 2073" width="2691px" zoomAndPan="magnify"><defs/><g><text fill="#000000" font-family="sans-serif" font-size="14" font-weight="bold" lengthAdjust="spacing" textLength="166" x="1264.5" y="27.9951">Level 3 MDV Diagram</text><rect fill="#FFFFFF" height="651.7813" style="stroke:#181818;stroke-width:1.0;" width="10" x="19.5" y="90.5781"/><rect fill="#FFFFFF" height="1233.7188" style="stroke:#181818;stroke-width:1.0;" width="10" x="19.5" y="779.6406"/><rect fill="#FFFFFF" height="622.5" style="stroke:#181818;stroke-width:1.0;" width="10" x="457.5" y="119.8594"/><rect fill="#FFFFFF" height="1233.7188" style="stroke:#181818;stroke-width:1.0;" width="10" x="457.5" y="779.6406"/><rect fill="#FFFFFF" height="547.9375" style="stroke:#181818;stroke-width:1.0;" width="10" x="877.5" y="157.1406"/><rect fill="#FFFFFF" height="1159.1563" style="stroke:#181818;stroke-width:1.0;" width="10" x="877.5" y="816.9219"/><rect fill="#FFFFFF" height="473.375" style="stroke:#181818;stroke-width:1.0;" width="10" x="1176.5" y="194.4219"/><rect fill="#FFFFFF" height="1084.5938" style="stroke:#181818;stroke-width:1.0;" width="10" x="1176.5" y="854.2031"/><rect fill="#FFFFFF" height="236.6875" style="stroke:#181818;stroke-width:1.0;" width="10" x="1401.5" y="231.7031"/><rect fill="#FFFFFF" height="236.6875" style="stroke:#181818;stroke-width:1.0;" width="10" x="1401.5" y="891.4844"/><rect fill="#FFFFFF" height="411.8125" style="stroke:#181818;stroke-width:1.0;" width="10" x="1401.5" y="1327.5781"/><rect fill="#FFFFFF" height="162.125" style="stroke:#181818;stroke-width:1.0;" width="10" x="1747.5" y="268.9844"/><rect fill="#FFFFFF" height="162.125" style="stroke:#181818;stroke-width:1.0;" width="10" x="1747.5" y="928.7656"/><rect fill="#FFFFFF" height="162.125" style="stroke:#181818;stroke-width:1.0;" width="10" x="1747.5" y="1364.8594"/><rect fill="#FFFFFF" height="124.8438" style="stroke:#181818;stroke-width:1.0;" width="10" x="1919.5" y="505.6719"/><rect fill="#FFFFFF" height="124.8438" style="stroke:#181818;stroke-width:1.0;" width="10" x="1919.5" y="1165.4531"/><rect fill="#FFFFFF" height="124.8438" style="stroke:#181818;stroke-width:1.0;" width="10" x="1919.5" y="1776.6719"/><rect fill="#FFFFFF" height="43.2813" style="stroke:#181818;stroke-width:1.0;" width="10" x="2152.5" y="542.9531"/><rect fill="#FFFFFF" height="43.2813" style="stroke:#181818;stroke-width:1.0;" width="10" x="2152.5" y="1202.7344"/><rect fill="#FFFFFF" height="43.2813" style="stroke:#181818;stroke-width:1.0;" width="10" x="2152.5" y="1813.9531"/><rect fill="#FFFFFF" height="87.5625" style="stroke:#181818;stroke-width:1.0;" width="10" x="2280" y="306.2656"/><rect fill="#FFFFFF" height="87.5625" style="stroke:#181818;stroke-width:1.0;" width="10" x="2280" y="966.0469"/><rect fill="#FFFFFF" height="87.5625" style="stroke:#181818;stroke-width:1.0;" width="10" x="2280" y="1402.1406"/><rect fill="#FFFFFF" height="87.5625" style="stroke:#181818;stroke-width:1.0;" width="10" x="2280" y="1614.5469"/><line style="stroke:#181818;stroke-width:0.5;stroke-dasharray:5.0,5.0;" x1="24" x2="24" y1="80.5781" y2="2031.3594"/><line style="stroke:#181818;stroke-width:0.5;stroke-dasharray:5.0,5.0;" x1="462" x2="462" y1="80.5781" y2="2031.3594"/><line style="stroke:#181818;stroke-width:0.5;stroke-dasharray:5.0,5.0;" x1="882" x2="882" y1="80.5781" y2="2031.3594"/><line style="stroke:#181818;stroke-width:0.5;stroke-dasharray:5.0,5.0;" x1="1181" x2="1181" y1="80.5781" y2="2031.3594"/><line style="stroke:#181818;stroke-width:0.5;stroke-dasharray:5.0,5.0;" x1="1406.5" x2="1406.5" y1="80.5781" y2="2031.3594"/><line style="stroke:#181818;stroke-width:0.5;stroke-dasharray:5.0,5.0;" x1="1752" x2="1752" y1="80.5781" y2="2031.3594"/><line style="stroke:#181818;stroke-width:0.5;stroke-dasharray:5.0,5.0;" x1="1924" x2="1924" y1="80.5781" y2="2031.3594"/><line style="stroke:#181818;stroke-width:0.5;stroke-dasharray:5.0,5.0;" x1="2157" x2="2157" y1="80.5781" y2="2031.3594"/><line style="stroke:#181818;stroke-width:0.5;stroke-dasharray:5.0,5.0;" x1="2285" x2="2285" y1="80.5781" y2="2031.3594"/><rect fill="#E2E2F0" height="37.2813" rx="2.5" ry="2.5" style="stroke:#181818;stroke-width:0.5;" width="39" x="5" y="42.2969"/><text fill="#000000" font-family="sans-serif" font-size="20" lengthAdjust="spacing" textLength="25" x="12" y="67.8613">FE</text><rect fill="#E2E2F0" height="37.2813" rx="2.5" ry="2.5" style="stroke:#181818;stroke-width:0.5;" width="39" x="5" y="2030.3594"/><text fill="#000000" font-family="sans-serif" font-size="20" lengthAdjust="spacing" textLength="25" x="12" y="2055.9238">FE</text><rect fill="#E2E2F0" height="37.2813" rx="2.5" ry="2.5" style="stroke:#181818;stroke-width:0.5;" width="151" x="387" y="42.2969"/><text fill="#000000" font-family="sans-serif" font-size="20" lengthAdjust="spacing" textLength="137" x="394" y="67.8613">AllergyRouter</text><rect fill="#E2E2F0" height="37.2813" rx="2.5" ry="2.5" style="stroke:#181818;stroke-width:0.5;" width="151" x="387" y="2030.3594"/><text fill="#000000" font-family="sans-serif" font-size="20" lengthAdjust="spacing" textLength="137" x="394" y="2055.9238">AllergyRouter</text><rect fill="#E2E2F0" height="37.2813" rx="2.5" ry="2.5" style="stroke:#181818;stroke-width:0.5;" width="183" x="791" y="42.2969"/><text fill="#000000" font-family="sans-serif" font-size="20" lengthAdjust="spacing" textLength="169" x="798" y="67.8613">AllergyController</text><rect fill="#E2E2F0" height="37.2813" rx="2.5" ry="2.5" style="stroke:#181818;stroke-width:0.5;" width="183" x="791" y="2030.3594"/><text fill="#000000" font-family="sans-serif" font-size="20" lengthAdjust="spacing" textLength="169" x="798" y="2055.9238">AllergyController</text><rect fill="#E2E2F0" height="37.2813" rx="2.5" ry="2.5" style="stroke:#181818;stroke-width:0.5;" width="157" x="1103" y="42.2969"/><text fill="#000000" font-family="sans-serif" font-size="20" lengthAdjust="spacing" textLength="143" x="1110" y="67.8613">AllergyService</text><rect fill="#E2E2F0" height="37.2813" rx="2.5" ry="2.5" style="stroke:#181818;stroke-width:0.5;" width="157" x="1103" y="2030.3594"/><text fill="#000000" font-family="sans-serif" font-size="20" lengthAdjust="spacing" textLength="143" x="1110" y="2055.9238">AllergyService</text><rect fill="#E2E2F0" height="37.2813" rx="2.5" ry="2.5" style="stroke:#181818;stroke-width:0.5;" width="190" x="1311.5" y="42.2969"/><text fill="#000000" font-family="sans-serif" font-size="20" lengthAdjust="spacing" textLength="176" x="1318.5" y="67.8613">AllergyRepository</text><rect fill="#E2E2F0" height="37.2813" rx="2.5" ry="2.5" style="stroke:#181818;stroke-width:0.5;" width="190" x="1311.5" y="2030.3594"/><text fill="#000000" font-family="sans-serif" font-size="20" lengthAdjust="spacing" textLength="176" x="1318.5" y="2055.9238">AllergyRepository</text><rect fill="#E2E2F0" height="37.2813" rx="2.5" ry="2.5" style="stroke:#181818;stroke-width:0.5;" width="165" x="1670" y="42.2969"/><text fill="#000000" font-family="sans-serif" font-size="20" lengthAdjust="spacing" textLength="151" x="1677" y="67.8613">AllergySchema</text><rect fill="#E2E2F0" height="37.2813" rx="2.5" ry="2.5" style="stroke:#181818;stroke-width:0.5;" width="165" x="1670" y="2030.3594"/><text fill="#000000" font-family="sans-serif" font-size="20" lengthAdjust="spacing" textLength="151" x="1677" y="2055.9238">AllergySchema</text><rect fill="#E2E2F0" height="37.2813" rx="2.5" ry="2.5" style="stroke:#181818;stroke-width:0.5;" width="159" x="1845" y="42.2969"/><text fill="#000000" font-family="sans-serif" font-size="20" lengthAdjust="spacing" textLength="145" x="1852" y="67.8613">AllergyMapper</text><rect fill="#E2E2F0" height="37.2813" rx="2.5" ry="2.5" style="stroke:#181818;stroke-width:0.5;" width="159" x="1845" y="2030.3594"/><text fill="#000000" font-family="sans-serif" font-size="20" lengthAdjust="spacing" textLength="145" x="1852" y="2055.9238">AllergyMapper</text><rect fill="#E2E2F0" height="37.2813" rx="2.5" ry="2.5" style="stroke:#181818;stroke-width:0.5;" width="127" x="2094" y="42.2969"/><text fill="#000000" font-family="sans-serif" font-size="20" lengthAdjust="spacing" textLength="113" x="2101" y="67.8613">AllergyDTO</text><rect fill="#E2E2F0" height="37.2813" rx="2.5" ry="2.5" style="stroke:#181818;stroke-width:0.5;" width="127" x="2094" y="2030.3594"/><text fill="#000000" font-family="sans-serif" font-size="20" lengthAdjust="spacing" textLength="113" x="2101" y="2055.9238">AllergyDTO</text><rect fill="#E2E2F0" height="37.2813" rx="2.5" ry="2.5" style="stroke:#181818;stroke-width:0.5;" width="108" x="2231" y="42.2969"/><text fill="#000000" font-family="sans-serif" font-size="20" lengthAdjust="spacing" textLength="94" x="2238" y="67.8613">Database</text><rect fill="#E2E2F0" height="37.2813" rx="2.5" ry="2.5" style="stroke:#181818;stroke-width:0.5;" width="108" x="2231" y="2030.3594"/><text fill="#000000" font-family="sans-serif" font-size="20" lengthAdjust="spacing" textLength="94" x="2238" y="2055.9238">Database</text><rect fill="#FFFFFF" height="651.7813" style="stroke:#181818;stroke-width:1.0;" width="10" x="19.5" y="90.5781"/><rect fill="#FFFFFF" height="1233.7188" style="stroke:#181818;stroke-width:1.0;" width="10" x="19.5" y="779.6406"/><rect fill="#FFFFFF" height="622.5" style="stroke:#181818;stroke-width:1.0;" width="10" x="457.5" y="119.8594"/><rect fill="#FFFFFF" height="1233.7188" style="stroke:#181818;stroke-width:1.0;" width="10" x="457.5" y="779.6406"/><rect fill="#FFFFFF" height="547.9375" style="stroke:#181818;stroke-width:1.0;" width="10" x="877.5" y="157.1406"/><rect fill="#FFFFFF" height="1159.1563" style="stroke:#181818;stroke-width:1.0;" width="10" x="877.5" y="816.9219"/><rect fill="#FFFFFF" height="473.375" style="stroke:#181818;stroke-width:1.0;" width="10" x="1176.5" y="194.4219"/><rect fill="#FFFFFF" height="1084.5938" style="stroke:#181818;stroke-width:1.0;" width="10" x="1176.5" y="854.2031"/><rect fill="#FFFFFF" height="236.6875" style="stroke:#181818;stroke-width:1.0;" width="10" x="1401.5" y="231.7031"/><rect fill="#FFFFFF" height="236.6875" style="stroke:#181818;stroke-width:1.0;" width="10" x="1401.5" y="891.4844"/><rect fill="#FFFFFF" height="411.8125" style="stroke:#181818;stroke-width:1.0;" width="10" x="1401.5" y="1327.5781"/><rect fill="#FFFFFF" height="162.125" style="stroke:#181818;stroke-width:1.0;" width="10" x="1747.5" y="268.9844"/><rect fill="#FFFFFF" height="162.125" style="stroke:#181818;stroke-width:1.0;" width="10" x="1747.5" y="928.7656"/><rect fill="#FFFFFF" height="162.125" style="stroke:#181818;stroke-width:1.0;" width="10" x="1747.5" y="1364.8594"/><rect fill="#FFFFFF" height="124.8438" style="stroke:#181818;stroke-width:1.0;" width="10" x="1919.5" y="505.6719"/><rect fill="#FFFFFF" height="124.8438" style="stroke:#181818;stroke-width:1.0;" width="10" x="1919.5" y="1165.4531"/><rect fill="#FFFFFF" height="124.8438" style="stroke:#181818;stroke-width:1.0;" width="10" x="1919.5" y="1776.6719"/><rect fill="#FFFFFF" height="43.2813" style="stroke:#181818;stroke-width:1.0;" width="10" x="2152.5" y="542.9531"/><rect fill="#FFFFFF" height="43.2813" style="stroke:#181818;stroke-width:1.0;" width="10" x="2152.5" y="1202.7344"/><rect fill="#FFFFFF" height="43.2813" style="stroke:#181818;stroke-width:1.0;" width="10" x="2152.5" y="1813.9531"/><rect fill="#FFFFFF" height="87.5625" style="stroke:#181818;stroke-width:1.0;" width="10" x="2280" y="306.2656"/><rect fill="#FFFFFF" height="87.5625" style="stroke:#181818;stroke-width:1.0;" width="10" x="2280" y="966.0469"/><rect fill="#FFFFFF" height="87.5625" style="stroke:#181818;stroke-width:1.0;" width="10" x="2280" y="1402.1406"/><rect fill="#FFFFFF" height="87.5625" style="stroke:#181818;stroke-width:1.0;" width="10" x="2280" y="1614.5469"/><polygon fill="#181818" points="445.5,115.8594,455.5,119.8594,445.5,123.8594,449.5,119.8594" style="stroke:#181818;stroke-width:1.0;"/><line style="stroke:#181818;stroke-width:1.0;" x1="29.5" x2="451.5" y1="119.8594" y2="119.8594"/><text fill="#000000" font-family="sans-serif" font-size="20" lengthAdjust="spacing" textLength="409" x="36.5" y="113.1426">Makes Http Request to get Allergy's data</text><polygon fill="#181818" points="865.5,153.1406,875.5,157.1406,865.5,161.1406,869.5,157.1406" style="stroke:#181818;stroke-width:1.0;"/><line style="stroke:#181818;stroke-width:1.0;" x1="467.5" x2="871.5" y1="157.1406" y2="157.1406"/><text fill="#000000" font-family="sans-serif" font-size="20" lengthAdjust="spacing" textLength="138" x="474.5" y="150.4238">getAllergy(id)</text><polygon fill="#181818" points="1164.5,190.4219,1174.5,194.4219,1164.5,198.4219,1168.5,194.4219" style="stroke:#181818;stroke-width:1.0;"/><line style="stroke:#181818;stroke-width:1.0;" x1="887.5" x2="1170.5" y1="194.4219" y2="194.4219"/><text fill="#000000" font-family="sans-serif" font-size="20" lengthAdjust="spacing" textLength="138" x="894.5" y="187.7051">getAllergy(id)</text><polygon fill="#181818" points="1389.5,227.7031,1399.5,231.7031,1389.5,235.7031,1393.5,231.7031" style="stroke:#181818;stroke-width:1.0;"/><line style="stroke:#181818;stroke-width:1.0;" x1="1186.5" x2="1395.5" y1="231.7031" y2="231.7031"/><text fill="#000000" font-family="sans-serif" font-size="20" lengthAdjust="spacing" textLength="196" x="1193.5" y="224.9863">findByDomainId(id)</text><polygon fill="#181818" points="1735.5,264.9844,1745.5,268.9844,1735.5,272.9844,1739.5,268.9844" style="stroke:#181818;stroke-width:1.0;"/><line style="stroke:#181818;stroke-width:1.0;" x1="1411.5" x2="1741.5" y1="268.9844" y2="268.9844"/><text fill="#000000" font-family="sans-serif" font-size="20" lengthAdjust="spacing" textLength="153" x="1418.5" y="262.2676">findOne(query)</text><polygon fill="#181818" points="2268,302.2656,2278,306.2656,2268,310.2656,2272,306.2656" style="stroke:#181818;stroke-width:1.0;"/><line style="stroke:#181818;stroke-width:1.0;" x1="1757.5" x2="2274" y1="306.2656" y2="306.2656"/><text fill="#000000" font-family="sans-serif" font-size="20" lengthAdjust="spacing" textLength="73" x="1764.5" y="299.5488">query()</text><line style="stroke:#181818;stroke-width:1.0;" x1="2290" x2="2332" y1="343.5469" y2="343.5469"/><line style="stroke:#181818;stroke-width:1.0;" x1="2332" x2="2332" y1="343.5469" y2="356.5469"/><line style="stroke:#181818;stroke-width:1.0;" x1="2291" x2="2332" y1="356.5469" y2="356.5469"/><polygon fill="#181818" points="2301,352.5469,2291,356.5469,2301,360.5469,2297,356.5469" style="stroke:#181818;stroke-width:1.0;"/><text fill="#000000" font-family="sans-serif" font-size="20" lengthAdjust="spacing" textLength="387" x="2297" y="336.8301">SELECT * FROM Allergy WHERE id = id</text><polygon fill="#181818" points="1768.5,389.8281,1758.5,393.8281,1768.5,397.8281,1764.5,393.8281" style="stroke:#181818;stroke-width:1.0;"/><line style="stroke:#181818;stroke-width:1.0;stroke-dasharray:2.0,2.0;" x1="1762.5" x2="2284" y1="393.8281" y2="393.8281"/><text fill="#000000" font-family="sans-serif" font-size="20" lengthAdjust="spacing" textLength="141" x="1774.5" y="387.1113">returns Result</text><polygon fill="#181818" points="1422.5,427.1094,1412.5,431.1094,1422.5,435.1094,1418.5,431.1094" style="stroke:#181818;stroke-width:1.0;"/><line style="stroke:#181818;stroke-width:1.0;stroke-dasharray:2.0,2.0;" x1="1416.5" x2="1751.5" y1="431.1094" y2="431.1094"/><text fill="#000000" font-family="sans-serif" font-size="20" lengthAdjust="spacing" textLength="148" x="1428.5" y="424.3926">returns Allergy</text><polygon fill="#181818" points="1197.5,464.3906,1187.5,468.3906,1197.5,472.3906,1193.5,468.3906" style="stroke:#181818;stroke-width:1.0;"/><line style="stroke:#181818;stroke-width:1.0;stroke-dasharray:2.0,2.0;" x1="1191.5" x2="1405.5" y1="468.3906" y2="468.3906"/><text fill="#000000" font-family="sans-serif" font-size="20" lengthAdjust="spacing" textLength="148" x="1203.5" y="461.6738">returns Allergy</text><polygon fill="#181818" points="1907.5,501.6719,1917.5,505.6719,1907.5,509.6719,1911.5,505.6719" style="stroke:#181818;stroke-width:1.0;"/><line style="stroke:#181818;stroke-width:1.0;" x1="1186.5" x2="1913.5" y1="505.6719" y2="505.6719"/><text fill="#000000" font-family="sans-serif" font-size="20" lengthAdjust="spacing" textLength="149" x="1193.5" y="498.9551">toDTO(Allergy)</text><polygon fill="#181818" points="2140.5,538.9531,2150.5,542.9531,2140.5,546.9531,2144.5,542.9531" style="stroke:#181818;stroke-width:1.0;"/><line style="stroke:#181818;stroke-width:1.0;" x1="1929.5" x2="2146.5" y1="542.9531" y2="542.9531"/><text fill="#000000" font-family="sans-serif" font-size="20" lengthAdjust="spacing" textLength="204" x="1936.5" y="536.2363">create(AllergyProps)</text><line style="stroke:#181818;stroke-width:1.0;" x1="2162.5" x2="2204.5" y1="585.2344" y2="585.2344"/><line style="stroke:#181818;stroke-width:1.0;" x1="2204.5" x2="2204.5" y1="585.2344" y2="598.2344"/><line style="stroke:#181818;stroke-width:1.0;" x1="2157.5" x2="2204.5" y1="598.2344" y2="598.2344"/><polygon fill="#181818" points="2167.5,594.2344,2157.5,598.2344,2167.5,602.2344,2163.5,598.2344" style="stroke:#181818;stroke-width:1.0;"/><text fill="#000000" font-family="sans-serif" font-size="20" lengthAdjust="spacing" textLength="79" x="2169.5" y="578.5176">create()</text><polygon fill="#181818" points="1197.5,626.5156,1187.5,630.5156,1197.5,634.5156,1193.5,630.5156" style="stroke:#181818;stroke-width:1.0;"/><line style="stroke:#181818;stroke-width:1.0;" x1="1191.5" x2="1923.5" y1="630.5156" y2="630.5156"/><text fill="#000000" font-family="sans-serif" font-size="20" lengthAdjust="spacing" textLength="191" x="1203.5" y="623.7988">returns AllergyDTO</text><polygon fill="#181818" points="898.5,663.7969,888.5,667.7969,898.5,671.7969,894.5,667.7969" style="stroke:#181818;stroke-width:1.0;"/><line style="stroke:#181818;stroke-width:1.0;" x1="892.5" x2="1180.5" y1="667.7969" y2="667.7969"/><text fill="#000000" font-family="sans-serif" font-size="20" lengthAdjust="spacing" textLength="264" x="904.5" y="661.0801">returns result(AllergyDTO)</text><polygon fill="#181818" points="478.5,701.0781,468.5,705.0781,478.5,709.0781,474.5,705.0781" style="stroke:#181818;stroke-width:1.0;"/><line style="stroke:#181818;stroke-width:1.0;" x1="472.5" x2="881.5" y1="705.0781" y2="705.0781"/><text fill="#000000" font-family="sans-serif" font-size="20" lengthAdjust="spacing" textLength="305" x="484.5" y="698.3613">returns Operation Status Code</text><polygon fill="#181818" points="35.5,738.3594,25.5,742.3594,35.5,746.3594,31.5,742.3594" style="stroke:#181818;stroke-width:1.0;"/><line style="stroke:#181818;stroke-width:1.0;" x1="29.5" x2="461.5" y1="742.3594" y2="742.3594"/><text fill="#000000" font-family="sans-serif" font-size="20" lengthAdjust="spacing" textLength="305" x="41.5" y="735.6426">returns Operation Status Code</text><polygon fill="#181818" points="445.5,775.6406,455.5,779.6406,445.5,783.6406,449.5,779.6406" style="stroke:#181818;stroke-width:1.0;"/><line style="stroke:#181818;stroke-width:1.0;" x1="29.5" x2="451.5" y1="779.6406" y2="779.6406"/><text fill="#000000" font-family="sans-serif" font-size="20" lengthAdjust="spacing" textLength="411" x="36.5" y="772.9238">Makes Http Request to update an Allergy</text><polygon fill="#181818" points="865.5,812.9219,875.5,816.9219,865.5,820.9219,869.5,816.9219" style="stroke:#181818;stroke-width:1.0;"/><line style="stroke:#181818;stroke-width:1.0;" x1="467.5" x2="871.5" y1="816.9219" y2="816.9219"/><text fill="#000000" font-family="sans-serif" font-size="20" lengthAdjust="spacing" textLength="391" x="474.5" y="810.2051">updateAllergy(request, response, next)</text><polygon fill="#181818" points="1164.5,850.2031,1174.5,854.2031,1164.5,858.2031,1168.5,854.2031" style="stroke:#181818;stroke-width:1.0;"/><line style="stroke:#181818;stroke-width:1.0;" x1="887.5" x2="1170.5" y1="854.2031" y2="854.2031"/><text fill="#000000" font-family="sans-serif" font-size="20" lengthAdjust="spacing" textLength="270" x="894.5" y="847.4863">updateAllergy(AllergyDTO)</text><polygon fill="#181818" points="1389.5,887.4844,1399.5,891.4844,1389.5,895.4844,1393.5,891.4844" style="stroke:#181818;stroke-width:1.0;"/><line style="stroke:#181818;stroke-width:1.0;" x1="1186.5" x2="1395.5" y1="891.4844" y2="891.4844"/><text fill="#000000" font-family="sans-serif" font-size="20" lengthAdjust="spacing" textLength="196" x="1193.5" y="884.7676">findByDomainId(id)</text><polygon fill="#181818" points="1735.5,924.7656,1745.5,928.7656,1735.5,932.7656,1739.5,928.7656" style="stroke:#181818;stroke-width:1.0;"/><line style="stroke:#181818;stroke-width:1.0;" x1="1411.5" x2="1741.5" y1="928.7656" y2="928.7656"/><text fill="#000000" font-family="sans-serif" font-size="20" lengthAdjust="spacing" textLength="153" x="1418.5" y="922.0488">findOne(query)</text><polygon fill="#181818" points="2268,962.0469,2278,966.0469,2268,970.0469,2272,966.0469" style="stroke:#181818;stroke-width:1.0;"/><line style="stroke:#181818;stroke-width:1.0;" x1="1757.5" x2="2274" y1="966.0469" y2="966.0469"/><text fill="#000000" font-family="sans-serif" font-size="20" lengthAdjust="spacing" textLength="130" x="1764.5" y="959.3301">query(query)</text><line style="stroke:#181818;stroke-width:1.0;" x1="2290" x2="2332" y1="1003.3281" y2="1003.3281"/><line style="stroke:#181818;stroke-width:1.0;" x1="2332" x2="2332" y1="1003.3281" y2="1016.3281"/><line style="stroke:#181818;stroke-width:1.0;" x1="2291" x2="2332" y1="1016.3281" y2="1016.3281"/><polygon fill="#181818" points="2301,1012.3281,2291,1016.3281,2301,1020.3281,2297,1016.3281" style="stroke:#181818;stroke-width:1.0;"/><text fill="#000000" font-family="sans-serif" font-size="20" lengthAdjust="spacing" textLength="387" x="2297" y="996.6113">SELECT * FROM Allergy WHERE id = id</text><polygon fill="#181818" points="1768.5,1049.6094,1758.5,1053.6094,1768.5,1057.6094,1764.5,1053.6094" style="stroke:#181818;stroke-width:1.0;"/><line style="stroke:#181818;stroke-width:1.0;stroke-dasharray:2.0,2.0;" x1="1762.5" x2="2284" y1="1053.6094" y2="1053.6094"/><text fill="#000000" font-family="sans-serif" font-size="20" lengthAdjust="spacing" textLength="141" x="1774.5" y="1046.8926">returns Result</text><polygon fill="#181818" points="1422.5,1086.8906,1412.5,1090.8906,1422.5,1094.8906,1418.5,1090.8906" style="stroke:#181818;stroke-width:1.0;"/><line style="stroke:#181818;stroke-width:1.0;stroke-dasharray:2.0,2.0;" x1="1416.5" x2="1751.5" y1="1090.8906" y2="1090.8906"/><text fill="#000000" font-family="sans-serif" font-size="20" lengthAdjust="spacing" textLength="148" x="1428.5" y="1084.1738">returns Allergy</text><polygon fill="#181818" points="1197.5,1124.1719,1187.5,1128.1719,1197.5,1132.1719,1193.5,1128.1719" style="stroke:#181818;stroke-width:1.0;"/><line style="stroke:#181818;stroke-width:1.0;stroke-dasharray:2.0,2.0;" x1="1191.5" x2="1405.5" y1="1128.1719" y2="1128.1719"/><text fill="#000000" font-family="sans-serif" font-size="20" lengthAdjust="spacing" textLength="148" x="1203.5" y="1121.4551">returns Allergy</text><polygon fill="#181818" points="1907.5,1161.4531,1917.5,1165.4531,1907.5,1169.4531,1911.5,1165.4531" style="stroke:#181818;stroke-width:1.0;"/><line style="stroke:#181818;stroke-width:1.0;" x1="1186.5" x2="1913.5" y1="1165.4531" y2="1165.4531"/><text fill="#000000" font-family="sans-serif" font-size="20" lengthAdjust="spacing" textLength="141" x="1193.5" y="1158.7363">toDto(Allergy)</text><polygon fill="#181818" points="2140.5,1198.7344,2150.5,1202.7344,2140.5,1206.7344,2144.5,1202.7344" style="stroke:#181818;stroke-width:1.0;"/><line style="stroke:#181818;stroke-width:1.0;" x1="1929.5" x2="2146.5" y1="1202.7344" y2="1202.7344"/><text fill="#000000" font-family="sans-serif" font-size="20" lengthAdjust="spacing" textLength="204" x="1936.5" y="1196.0176">create(AllergyProps)</text><line style="stroke:#181818;stroke-width:1.0;" x1="2162.5" x2="2204.5" y1="1245.0156" y2="1245.0156"/><line style="stroke:#181818;stroke-width:1.0;" x1="2204.5" x2="2204.5" y1="1245.0156" y2="1258.0156"/><line style="stroke:#181818;stroke-width:1.0;" x1="2157.5" x2="2204.5" y1="1258.0156" y2="1258.0156"/><polygon fill="#181818" points="2167.5,1254.0156,2157.5,1258.0156,2167.5,1262.0156,2163.5,1258.0156" style="stroke:#181818;stroke-width:1.0;"/><text fill="#000000" font-family="sans-serif" font-size="20" lengthAdjust="spacing" textLength="79" x="2169.5" y="1238.2988">create()</text><polygon fill="#181818" points="1197.5,1286.2969,1187.5,1290.2969,1197.5,1294.2969,1193.5,1290.2969" style="stroke:#181818;stroke-width:1.0;"/><line style="stroke:#181818;stroke-width:1.0;" x1="1191.5" x2="1923.5" y1="1290.2969" y2="1290.2969"/><text fill="#000000" font-family="sans-serif" font-size="20" lengthAdjust="spacing" textLength="191" x="1203.5" y="1283.5801">returns AllergyDTO</text><polygon fill="#181818" points="1389.5,1323.5781,1399.5,1327.5781,1389.5,1331.5781,1393.5,1327.5781" style="stroke:#181818;stroke-width:1.0;"/><line style="stroke:#181818;stroke-width:1.0;" x1="1186.5" x2="1395.5" y1="1327.5781" y2="1327.5781"/><text fill="#000000" font-family="sans-serif" font-size="20" lengthAdjust="spacing" textLength="131" x="1193.5" y="1320.8613">save(Allergy)</text><polygon fill="#181818" points="1735.5,1360.8594,1745.5,1364.8594,1735.5,1368.8594,1739.5,1364.8594" style="stroke:#181818;stroke-width:1.0;"/><line style="stroke:#181818;stroke-width:1.0;" x1="1411.5" x2="1741.5" y1="1364.8594" y2="1364.8594"/><text fill="#000000" font-family="sans-serif" font-size="20" lengthAdjust="spacing" textLength="153" x="1418.5" y="1358.1426">findOne(query)</text><polygon fill="#181818" points="2268,1398.1406,2278,1402.1406,2268,1406.1406,2272,1402.1406" style="stroke:#181818;stroke-width:1.0;"/><line style="stroke:#181818;stroke-width:1.0;" x1="1757.5" x2="2274" y1="1402.1406" y2="1402.1406"/><text fill="#000000" font-family="sans-serif" font-size="20" lengthAdjust="spacing" textLength="130" x="1764.5" y="1395.4238">query(query)</text><line style="stroke:#181818;stroke-width:1.0;" x1="2290" x2="2332" y1="1439.4219" y2="1439.4219"/><line style="stroke:#181818;stroke-width:1.0;" x1="2332" x2="2332" y1="1439.4219" y2="1452.4219"/><line style="stroke:#181818;stroke-width:1.0;" x1="2291" x2="2332" y1="1452.4219" y2="1452.4219"/><polygon fill="#181818" points="2301,1448.4219,2291,1452.4219,2301,1456.4219,2297,1452.4219" style="stroke:#181818;stroke-width:1.0;"/><text fill="#000000" font-family="sans-serif" font-size="20" lengthAdjust="spacing" textLength="387" x="2297" y="1432.7051">SELECT * FROM Allergy WHERE id = id</text><polygon fill="#181818" points="1768.5,1485.7031,1758.5,1489.7031,1768.5,1493.7031,1764.5,1489.7031" style="stroke:#181818;stroke-width:1.0;"/><line style="stroke:#181818;stroke-width:1.0;stroke-dasharray:2.0,2.0;" x1="1762.5" x2="2284" y1="1489.7031" y2="1489.7031"/><text fill="#000000" font-family="sans-serif" font-size="20" lengthAdjust="spacing" textLength="141" x="1774.5" y="1482.9863">returns Result</text><polygon fill="#181818" points="1422.5,1522.9844,1412.5,1526.9844,1422.5,1530.9844,1418.5,1526.9844" style="stroke:#181818;stroke-width:1.0;"/><line style="stroke:#181818;stroke-width:1.0;stroke-dasharray:2.0,2.0;" x1="1416.5" x2="1751.5" y1="1526.9844" y2="1526.9844"/><text fill="#000000" font-family="sans-serif" font-size="20" lengthAdjust="spacing" textLength="148" x="1428.5" y="1520.2676">returns Allergy</text><line style="stroke:#181818;stroke-width:1.0;" x1="1411.5" x2="1453.5" y1="1564.2656" y2="1564.2656"/><line style="stroke:#181818;stroke-width:1.0;" x1="1453.5" x2="1453.5" y1="1564.2656" y2="1577.2656"/><line style="stroke:#181818;stroke-width:1.0;" x1="1412.5" x2="1453.5" y1="1577.2656" y2="1577.2656"/><polygon fill="#181818" points="1422.5,1573.2656,1412.5,1577.2656,1422.5,1581.2656,1418.5,1577.2656" style="stroke:#181818;stroke-width:1.0;"/><text fill="#000000" font-family="sans-serif" font-size="20" lengthAdjust="spacing" textLength="322" x="1418.5" y="1557.5488">Updates the fields of the Allergy</text><polygon fill="#181818" points="2268,1610.5469,2278,1614.5469,2268,1618.5469,2272,1614.5469" style="stroke:#181818;stroke-width:1.0;"/><line style="stroke:#181818;stroke-width:1.0;" x1="1411.5" x2="2274" y1="1614.5469" y2="1614.5469"/><text fill="#000000" font-family="sans-serif" font-size="20" lengthAdjust="spacing" textLength="131" x="1418.5" y="1607.8301">save(Allergy)</text><line style="stroke:#181818;stroke-width:1.0;" x1="2290" x2="2332" y1="1651.8281" y2="1651.8281"/><line style="stroke:#181818;stroke-width:1.0;" x1="2332" x2="2332" y1="1651.8281" y2="1664.8281"/><line style="stroke:#181818;stroke-width:1.0;" x1="2291" x2="2332" y1="1664.8281" y2="1664.8281"/><polygon fill="#181818" points="2301,1660.8281,2291,1664.8281,2301,1668.8281,2297,1664.8281" style="stroke:#181818;stroke-width:1.0;"/><text fill="#000000" font-family="sans-serif" font-size="20" lengthAdjust="spacing" textLength="379" x="2297" y="1645.1113">UPDATE Allergy SET ... WHERE id = id</text><polygon fill="#181818" points="1422.5,1698.1094,1412.5,1702.1094,1422.5,1706.1094,1418.5,1702.1094" style="stroke:#181818;stroke-width:1.0;"/><line style="stroke:#181818;stroke-width:1.0;stroke-dasharray:2.0,2.0;" x1="1416.5" x2="2284" y1="1702.1094" y2="1702.1094"/><text fill="#000000" font-family="sans-serif" font-size="20" lengthAdjust="spacing" textLength="141" x="1428.5" y="1695.3926">returns Result</text><polygon fill="#181818" points="1197.5,1735.3906,1187.5,1739.3906,1197.5,1743.3906,1193.5,1739.3906" style="stroke:#181818;stroke-width:1.0;"/><line style="stroke:#181818;stroke-width:1.0;" x1="1191.5" x2="1405.5" y1="1739.3906" y2="1739.3906"/><text fill="#000000" font-family="sans-serif" font-size="20" lengthAdjust="spacing" textLength="148" x="1203.5" y="1732.6738">returns Allergy</text><polygon fill="#181818" points="1907.5,1772.6719,1917.5,1776.6719,1907.5,1780.6719,1911.5,1776.6719" style="stroke:#181818;stroke-width:1.0;"/><line style="stroke:#181818;stroke-width:1.0;" x1="1186.5" x2="1913.5" y1="1776.6719" y2="1776.6719"/><text fill="#000000" font-family="sans-serif" font-size="20" lengthAdjust="spacing" textLength="141" x="1193.5" y="1769.9551">toDto(Allergy)</text><polygon fill="#181818" points="2140.5,1809.9531,2150.5,1813.9531,2140.5,1817.9531,2144.5,1813.9531" style="stroke:#181818;stroke-width:1.0;"/><line style="stroke:#181818;stroke-width:1.0;" x1="1929.5" x2="2146.5" y1="1813.9531" y2="1813.9531"/><text fill="#000000" font-family="sans-serif" font-size="20" lengthAdjust="spacing" textLength="204" x="1936.5" y="1807.2363">create(AllergyProps)</text><line style="stroke:#181818;stroke-width:1.0;" x1="2162.5" x2="2204.5" y1="1856.2344" y2="1856.2344"/><line style="stroke:#181818;stroke-width:1.0;" x1="2204.5" x2="2204.5" y1="1856.2344" y2="1869.2344"/><line style="stroke:#181818;stroke-width:1.0;" x1="2157.5" x2="2204.5" y1="1869.2344" y2="1869.2344"/><polygon fill="#181818" points="2167.5,1865.2344,2157.5,1869.2344,2167.5,1873.2344,2163.5,1869.2344" style="stroke:#181818;stroke-width:1.0;"/><text fill="#000000" font-family="sans-serif" font-size="20" lengthAdjust="spacing" textLength="79" x="2169.5" y="1849.5176">create()</text><polygon fill="#181818" points="1197.5,1897.5156,1187.5,1901.5156,1197.5,1905.5156,1193.5,1901.5156" style="stroke:#181818;stroke-width:1.0;"/><line style="stroke:#181818;stroke-width:1.0;" x1="1191.5" x2="1923.5" y1="1901.5156" y2="1901.5156"/><text fill="#000000" font-family="sans-serif" font-size="20" lengthAdjust="spacing" textLength="191" x="1203.5" y="1894.7988">returns AllergyDTO</text><polygon fill="#181818" points="898.5,1934.7969,888.5,1938.7969,898.5,1942.7969,894.5,1938.7969" style="stroke:#181818;stroke-width:1.0;"/><line style="stroke:#181818;stroke-width:1.0;" x1="892.5" x2="1180.5" y1="1938.7969" y2="1938.7969"/><text fill="#000000" font-family="sans-serif" font-size="20" lengthAdjust="spacing" textLength="264" x="904.5" y="1932.0801">returns result(AllergyDTO)</text><polygon fill="#181818" points="478.5,1972.0781,468.5,1976.0781,478.5,1980.0781,474.5,1976.0781" style="stroke:#181818;stroke-width:1.0;"/><line style="stroke:#181818;stroke-width:1.0;" x1="472.5" x2="881.5" y1="1976.0781" y2="1976.0781"/><text fill="#000000" font-family="sans-serif" font-size="20" lengthAdjust="spacing" textLength="305" x="484.5" y="1969.3613">returns Operation Status Code</text><polygon fill="#181818" points="35.5,2009.3594,25.5,2013.3594,35.5,2017.3594,31.5,2013.3594" style="stroke:#181818;stroke-width:1.0;"/><line style="stroke:#181818;stroke-width:1.0;" x1="29.5" x2="461.5" y1="2013.3594" y2="2013.3594"/><text fill="#000000" font-family="sans-serif" font-size="20" lengthAdjust="spacing" textLength="305" x="41.5" y="2006.6426">returns Operation Status Code</text><!--SRC=[tPHjRvim4CTVpv_YrBveEdLLrsbFKLS9CAYLYX91khrsuPfu8PZP9bqsxRlF66YWevqcJLExI471zxkd_vsZbZmlc6IhJ2HBJ275QrPcEX2vZlatXECZGZJN6S85hZ63Ln3IZq0vcniVGXOyHS1LeJUmmjKLIaNsL1iIBdYEUbCW2AaNWf2j9ScOKl2TWFcuB5dEfIZpr1EPa2SdQvQLEBdwZ8a-FOLT-iPtWdV3g1J2CW7rNNeqp2YKQvwW3VKoEFRT8GnsBy-3z_vRQtESIDpKnsvcEFAZMtjXJjWSXwk7NTyDNWTkvM9mpHDUi5n3u0DJvjaxt76o3ELy4ubIezof22SQ93mp3ocgtpNb3L9ntMcDnCEfi12AQo4tJRhfSAHaWIlM11fE5hAYQCi91mawczHcsZTJfjaLKtMTr2M49PglcSPA7oFKYrDJrnX2jaG5PreN4E6N4fK6BM2E6fhuUmfI4shhRiHp8klkZIkmuKOytUz07d4y2yKFG35nuhgGwHYkUPww6ofMZEVdwHtIA6Y-TK2lPYSvZap1SjEBQFB6DZ5rns3DeuxTw43TrXhx5xutW-SGH9EmRHS-dVcH3po53-PXwJQfH5tAN1cTbBcy9CLkM9krRQKbcvXTr5POTT9eyn1QDLth4uxDLCoaHmtMRJaaJcWXEeP4eZbhgQaKXUgYb3Zq3hhVoqZRMBzMPhBtqB2jhQECjCgCjXxzw76x4z7MPMBMcsakSeWrqwK2JwJOy_AQTGlyF_6Akczcut-xycMHLYZBRqVHTH_U_jgdtMrP1pkeP2X4hl00SlogxxiLVUUkPl_wWjo5gFliALyJBHxZDQaQLcoDGxNztU4zcjarwALTT0LwWQOrp585ujg-jSuDNLLyZqIzhYwdr9dvj-t4_WmE3m_lQQjRx71RhVB_mvOzZJ_Zdm00]--></g></svg>