<?xml version="1.0" encoding="UTF-8" standalone="no"?><svg xmlns="http://www.w3.org/2000/svg" xmlns:xlink="http://www.w3.org/1999/xlink" contentStyleType="text/css" height="1430px" preserveAspectRatio="none" style="width:3745px;height:1430px;background:#FFFFFF;" version="1.1" viewBox="0 0 3745 1430" width="3745px" zoomAndPan="magnify"><defs/><g><text fill="#000000" font-family="sans-serif" font-size="14" font-weight="bold" lengthAdjust="spacing" textLength="149" x="1800.25" y="27.9951">Level 3 FE Diagram</text><rect fill="#FFFFFF" height="1198.4375" style="stroke:#181818;stroke-width:1.0;" width="10" x="36" y="135.5781"/><rect fill="#FFFFFF" height="620.2188" style="stroke:#181818;stroke-width:1.0;" width="10" x="938" y="164.8594"/><rect fill="#FFFFFF" height="502.6563" style="stroke:#181818;stroke-width:1.0;" width="10" x="938" y="822.3594"/><rect fill="#FFFFFF" height="67.2813" style="stroke:#181818;stroke-width:1.0;" width="10" x="1287" y="202.1406"/><rect fill="#FFFFFF" height="508.375" style="stroke:#181818;stroke-width:1.0;" width="10" x="1698.5" y="239.4219"/><rect fill="#FFFFFF" height="428.0938" style="stroke:#181818;stroke-width:1.0;" width="10" x="1698.5" y="859.6406"/><rect fill="#FFFFFF" height="353.5313" style="stroke:#181818;stroke-width:1.0;" width="10" x="2307.5" y="306.7031"/><rect fill="#FFFFFF" height="353.5313" style="stroke:#181818;stroke-width:1.0;" width="10" x="2307.5" y="896.9219"/><rect fill="#FFFFFF" height="278.9688" style="stroke:#181818;stroke-width:1.0;" width="10" x="2747.5" y="343.9844"/><rect fill="#FFFFFF" height="278.9688" style="stroke:#181818;stroke-width:1.0;" width="10" x="2747.5" y="934.2031"/><rect fill="#FFFFFF" height="87.5625" style="stroke:#181818;stroke-width:1.0;" width="10" x="3334.5" y="498.1094"/><rect fill="#FFFFFF" height="87.5625" style="stroke:#181818;stroke-width:1.0;" width="10" x="3334.5" y="1088.3281"/><line style="stroke:#181818;stroke-width:0.5;stroke-dasharray:5.0,5.0;" x1="41" x2="41" y1="125.5781" y2="1343.0156"/><line style="stroke:#181818;stroke-width:0.5;stroke-dasharray:5.0,5.0;" x1="942.5" x2="942.5" y1="125.5781" y2="1343.0156"/><line style="stroke:#181818;stroke-width:0.5;stroke-dasharray:5.0,5.0;" x1="1291.5" x2="1291.5" y1="125.5781" y2="1343.0156"/><line style="stroke:#181818;stroke-width:0.5;stroke-dasharray:5.0,5.0;" x1="1703.5" x2="1703.5" y1="125.5781" y2="1343.0156"/><line style="stroke:#181818;stroke-width:0.5;stroke-dasharray:5.0,5.0;" x1="2089" x2="2089" y1="125.5781" y2="1343.0156"/><line style="stroke:#181818;stroke-width:0.5;stroke-dasharray:5.0,5.0;" x1="2312" x2="2312" y1="125.5781" y2="1343.0156"/><line style="stroke:#181818;stroke-width:0.5;stroke-dasharray:5.0,5.0;" x1="2752" x2="2752" y1="125.5781" y2="1343.0156"/><line style="stroke:#181818;stroke-width:0.5;stroke-dasharray:5.0,5.0;" x1="3339.5" x2="3339.5" y1="125.5781" y2="1343.0156"/><text fill="#000000" font-family="sans-serif" font-size="20" lengthAdjust="spacing" textLength="66" x="5" y="120.8613">Doctor</text><ellipse cx="41" cy="50.7969" fill="#E2E2F0" rx="8" ry="8" style="stroke:#181818;stroke-width:0.5;"/><path d="M41,58.7969 L41,85.7969 M28,66.7969 L54,66.7969 M41,85.7969 L28,100.7969 M41,85.7969 L54,100.7969 " fill="none" style="stroke:#181818;stroke-width:0.5;"/><text fill="#000000" font-family="sans-serif" font-size="20" lengthAdjust="spacing" textLength="66" x="5" y="1360.5801">Doctor</text><ellipse cx="41" cy="1373.7969" fill="#E2E2F0" rx="8" ry="8" style="stroke:#181818;stroke-width:0.5;"/><path d="M41,1381.7969 L41,1408.7969 M28,1389.7969 L54,1389.7969 M41,1408.7969 L28,1423.7969 M41,1408.7969 L54,1423.7969 " fill="none" style="stroke:#181818;stroke-width:0.5;"/><rect fill="#E2E2F0" height="37.2813" rx="2.5" ry="2.5" style="stroke:#181818;stroke-width:0.5;" width="63" x="911.5" y="87.2969"/><text fill="#000000" font-family="sans-serif" font-size="20" lengthAdjust="spacing" textLength="49" x="918.5" y="112.8613">View</text><rect fill="#E2E2F0" height="37.2813" rx="2.5" ry="2.5" style="stroke:#181818;stroke-width:0.5;" width="63" x="911.5" y="1342.0156"/><text fill="#000000" font-family="sans-serif" font-size="20" lengthAdjust="spacing" textLength="49" x="918.5" y="1367.5801">View</text><rect fill="#E2E2F0" height="37.2813" rx="2.5" ry="2.5" style="stroke:#181818;stroke-width:0.5;" width="529" x="1027.5" y="87.2969"/><text fill="#000000" font-family="sans-serif" font-size="20" lengthAdjust="spacing" textLength="515" x="1034.5" y="112.8613">AllergiesAndMedicalConditionsManagerComponent</text><rect fill="#E2E2F0" height="37.2813" rx="2.5" ry="2.5" style="stroke:#181818;stroke-width:0.5;" width="529" x="1027.5" y="1342.0156"/><text fill="#000000" font-family="sans-serif" font-size="20" lengthAdjust="spacing" textLength="515" x="1034.5" y="1367.5801">AllergiesAndMedicalConditionsManagerComponent</text><rect fill="#E2E2F0" height="37.2813" rx="2.5" ry="2.5" style="stroke:#181818;stroke-width:0.5;" width="274" x="1566.5" y="87.2969"/><text fill="#000000" font-family="sans-serif" font-size="20" lengthAdjust="spacing" textLength="260" x="1573.5" y="112.8613">UpdateAllergyComponent</text><rect fill="#E2E2F0" height="37.2813" rx="2.5" ry="2.5" style="stroke:#181818;stroke-width:0.5;" width="274" x="1566.5" y="1342.0156"/><text fill="#000000" font-family="sans-serif" font-size="20" lengthAdjust="spacing" textLength="260" x="1573.5" y="1367.5801">UpdateAllergyComponent</text><rect fill="#E2E2F0" height="37.2813" rx="2.5" ry="2.5" style="stroke:#181818;stroke-width:0.5;" width="269" x="1955" y="87.2969"/><text fill="#000000" font-family="sans-serif" font-size="20" lengthAdjust="spacing" textLength="255" x="1962" y="112.8613">OperationRequestService</text><rect fill="#E2E2F0" height="37.2813" rx="2.5" ry="2.5" style="stroke:#181818;stroke-width:0.5;" width="269" x="1955" y="1342.0156"/><text fill="#000000" font-family="sans-serif" font-size="20" lengthAdjust="spacing" textLength="255" x="1962" y="1367.5801">OperationRequestService</text><rect fill="#E2E2F0" height="37.2813" rx="2.5" ry="2.5" style="stroke:#181818;stroke-width:0.5;" width="157" x="2234" y="87.2969"/><text fill="#000000" font-family="sans-serif" font-size="20" lengthAdjust="spacing" textLength="143" x="2241" y="112.8613">AllergyService</text><rect fill="#E2E2F0" height="37.2813" rx="2.5" ry="2.5" style="stroke:#181818;stroke-width:0.5;" width="157" x="2234" y="1342.0156"/><text fill="#000000" font-family="sans-serif" font-size="20" lengthAdjust="spacing" textLength="143" x="2241" y="1367.5801">AllergyService</text><rect fill="#E2E2F0" height="37.2813" rx="2.5" ry="2.5" style="stroke:#181818;stroke-width:0.5;" width="173" x="2666" y="87.2969"/><text fill="#000000" font-family="sans-serif" font-size="20" lengthAdjust="spacing" textLength="159" x="2673" y="112.8613">AuthInterceptor</text><rect fill="#E2E2F0" height="37.2813" rx="2.5" ry="2.5" style="stroke:#181818;stroke-width:0.5;" width="173" x="2666" y="1342.0156"/><text fill="#000000" font-family="sans-serif" font-size="20" lengthAdjust="spacing" textLength="159" x="2673" y="1367.5801">AuthInterceptor</text><rect fill="#E2E2F0" height="37.2813" rx="2.5" ry="2.5" style="stroke:#181818;stroke-width:0.5;" width="60" x="3309.5" y="87.2969"/><text fill="#000000" font-family="sans-serif" font-size="20" lengthAdjust="spacing" textLength="46" x="3316.5" y="112.8613">MDV</text><rect fill="#E2E2F0" height="37.2813" rx="2.5" ry="2.5" style="stroke:#181818;stroke-width:0.5;" width="60" x="3309.5" y="1342.0156"/><text fill="#000000" font-family="sans-serif" font-size="20" lengthAdjust="spacing" textLength="46" x="3316.5" y="1367.5801">MDV</text><rect fill="#FFFFFF" height="1198.4375" style="stroke:#181818;stroke-width:1.0;" width="10" x="36" y="135.5781"/><rect fill="#FFFFFF" height="620.2188" style="stroke:#181818;stroke-width:1.0;" width="10" x="938" y="164.8594"/><rect fill="#FFFFFF" height="502.6563" style="stroke:#181818;stroke-width:1.0;" width="10" x="938" y="822.3594"/><rect fill="#FFFFFF" height="67.2813" style="stroke:#181818;stroke-width:1.0;" width="10" x="1287" y="202.1406"/><rect fill="#FFFFFF" height="508.375" style="stroke:#181818;stroke-width:1.0;" width="10" x="1698.5" y="239.4219"/><rect fill="#FFFFFF" height="428.0938" style="stroke:#181818;stroke-width:1.0;" width="10" x="1698.5" y="859.6406"/><rect fill="#FFFFFF" height="353.5313" style="stroke:#181818;stroke-width:1.0;" width="10" x="2307.5" y="306.7031"/><rect fill="#FFFFFF" height="353.5313" style="stroke:#181818;stroke-width:1.0;" width="10" x="2307.5" y="896.9219"/><rect fill="#FFFFFF" height="278.9688" style="stroke:#181818;stroke-width:1.0;" width="10" x="2747.5" y="343.9844"/><rect fill="#FFFFFF" height="278.9688" style="stroke:#181818;stroke-width:1.0;" width="10" x="2747.5" y="934.2031"/><rect fill="#FFFFFF" height="87.5625" style="stroke:#181818;stroke-width:1.0;" width="10" x="3334.5" y="498.1094"/><rect fill="#FFFFFF" height="87.5625" style="stroke:#181818;stroke-width:1.0;" width="10" x="3334.5" y="1088.3281"/><polygon fill="#000000" points="926,160.8594,936,164.8594,926,168.8594,930,164.8594" style="stroke:#000000;stroke-width:1.0;"/><line style="stroke:#000000;stroke-width:1.0;" x1="46" x2="932" y1="164.8594" y2="164.8594"/><text fill="#000000" font-family="sans-serif" font-size="20" lengthAdjust="spacing" textLength="256" x="53" y="158.1426">Asks to update an Allergy</text><polygon fill="#000000" points="1275,198.1406,1285,202.1406,1275,206.1406,1279,202.1406" style="stroke:#000000;stroke-width:1.0;"/><line style="stroke:#000000;stroke-width:1.0;" x1="948" x2="1281" y1="202.1406" y2="202.1406"/><text fill="#000000" font-family="sans-serif" font-size="20" lengthAdjust="spacing" textLength="320" x="955" y="195.4238">routerLink='/update-Allergy/:id'</text><polygon fill="#000000" points="1686.5,235.4219,1696.5,239.4219,1686.5,243.4219,1690.5,239.4219" style="stroke:#000000;stroke-width:1.0;"/><line style="stroke:#000000;stroke-width:1.0;" x1="1297" x2="1692.5" y1="239.4219" y2="239.4219"/><text fill="#000000" font-family="sans-serif" font-size="20" lengthAdjust="spacing" textLength="355" x="1304" y="232.7051">routes to UpdateAllergyComponent</text><polygon fill="#000000" points="2295.5,302.7031,2305.5,306.7031,2295.5,310.7031,2299.5,306.7031" style="stroke:#000000;stroke-width:1.0;"/><line style="stroke:#000000;stroke-width:1.0;" x1="1708.5" x2="2301.5" y1="306.7031" y2="306.7031"/><text fill="#000000" font-family="sans-serif" font-size="20" lengthAdjust="spacing" textLength="156" x="1715.5" y="299.9863">fetchAllergy(id)</text><polygon fill="#000000" points="2735.5,339.9844,2745.5,343.9844,2735.5,347.9844,2739.5,343.9844" style="stroke:#000000;stroke-width:1.0;"/><line style="stroke:#000000;stroke-width:1.0;" x1="2317.5" x2="2741.5" y1="343.9844" y2="343.9844"/><text fill="#000000" font-family="sans-serif" font-size="20" lengthAdjust="spacing" textLength="393" x="2324.5" y="337.2676">Makes Http Request to get Allergy data</text><line style="stroke:#000000;stroke-width:1.0;" x1="2757.5" x2="2799.5" y1="381.2656" y2="381.2656"/><line style="stroke:#000000;stroke-width:1.0;" x1="2799.5" x2="2799.5" y1="381.2656" y2="394.2656"/><line style="stroke:#000000;stroke-width:1.0;" x1="2758.5" x2="2799.5" y1="394.2656" y2="394.2656"/><polygon fill="#000000" points="2768.5,390.2656,2758.5,394.2656,2768.5,398.2656,2764.5,394.2656" style="stroke:#000000;stroke-width:1.0;"/><text fill="#000000" font-family="sans-serif" font-size="20" lengthAdjust="spacing" textLength="563" x="2764.5" y="374.5488">Intercepts the request and adds the token to the header</text><path d="M2762,407.2656 L2762,463.2656 L3281,463.2656 L3281,417.2656 L3271,407.2656 L2762,407.2656 " fill="#FEFFDD" style="stroke:#181818;stroke-width:0.5;"/><path d="M3271,407.2656 L3271,417.2656 L3281,417.2656 L3271,407.2656 " fill="#FEFFDD" style="stroke:#181818;stroke-width:0.5;"/><text fill="#000000" font-family="sans-serif" font-size="20" lengthAdjust="spacing" textLength="498" x="2768" y="430.8301">The token is added to the header so that the MDV</text><text fill="#000000" font-family="sans-serif" font-size="20" lengthAdjust="spacing" textLength="442" x="2768" y="454.1113">can authenticate and authorize the request.</text><polygon fill="#000000" points="3322.5,494.1094,3332.5,498.1094,3322.5,502.1094,3326.5,498.1094" style="stroke:#000000;stroke-width:1.0;"/><line style="stroke:#000000;stroke-width:1.0;" x1="2757.5" x2="3328.5" y1="498.1094" y2="498.1094"/><text fill="#000000" font-family="sans-serif" font-size="20" lengthAdjust="spacing" textLength="185" x="2764.5" y="491.3926">getAllergyData(id)</text><line style="stroke:#000000;stroke-width:1.0;" x1="3344.5" x2="3386.5" y1="535.3906" y2="535.3906"/><line style="stroke:#000000;stroke-width:1.0;" x1="3386.5" x2="3386.5" y1="535.3906" y2="548.3906"/><line style="stroke:#000000;stroke-width:1.0;" x1="3345.5" x2="3386.5" y1="548.3906" y2="548.3906"/><polygon fill="#000000" points="3355.5,544.3906,3345.5,548.3906,3355.5,552.3906,3351.5,548.3906" style="stroke:#000000;stroke-width:1.0;"/><text fill="#000000" font-family="sans-serif" font-size="20" lengthAdjust="spacing" textLength="205" x="3351.5" y="528.6738">Fetches Allergy data</text><polygon fill="#000000" points="2768.5,581.6719,2758.5,585.6719,2768.5,589.6719,2764.5,585.6719" style="stroke:#000000;stroke-width:1.0;"/><line style="stroke:#000000;stroke-width:1.0;stroke-dasharray:2.0,2.0;" x1="2762.5" x2="3338.5" y1="585.6719" y2="585.6719"/><text fill="#000000" font-family="sans-serif" font-size="20" lengthAdjust="spacing" textLength="305" x="2774.5" y="578.9551">returns Operation Status Code</text><polygon fill="#000000" points="2328.5,618.9531,2318.5,622.9531,2328.5,626.9531,2324.5,622.9531" style="stroke:#000000;stroke-width:1.0;"/><line style="stroke:#000000;stroke-width:1.0;stroke-dasharray:2.0,2.0;" x1="2322.5" x2="2751.5" y1="622.9531" y2="622.9531"/><text fill="#000000" font-family="sans-serif" font-size="20" lengthAdjust="spacing" textLength="305" x="2334.5" y="616.2363">returns Operation Status Code</text><polygon fill="#000000" points="1719.5,656.2344,1709.5,660.2344,1719.5,664.2344,1715.5,660.2344" style="stroke:#000000;stroke-width:1.0;"/><line style="stroke:#000000;stroke-width:1.0;stroke-dasharray:2.0,2.0;" x1="1713.5" x2="2311.5" y1="660.2344" y2="660.2344"/><text fill="#000000" font-family="sans-serif" font-size="20" lengthAdjust="spacing" textLength="280" x="1725.5" y="653.5176">returns Operation Response</text><line style="stroke:#000000;stroke-width:1.0;" x1="1708.5" x2="1750.5" y1="697.5156" y2="697.5156"/><line style="stroke:#000000;stroke-width:1.0;" x1="1750.5" x2="1750.5" y1="697.5156" y2="710.5156"/><line style="stroke:#000000;stroke-width:1.0;" x1="1709.5" x2="1750.5" y1="710.5156" y2="710.5156"/><polygon fill="#000000" points="1719.5,706.5156,1709.5,710.5156,1719.5,714.5156,1715.5,710.5156" style="stroke:#000000;stroke-width:1.0;"/><text fill="#000000" font-family="sans-serif" font-size="20" lengthAdjust="spacing" textLength="362" x="1715.5" y="690.7988">initializes UpdateAllergyComponent</text><polygon fill="#000000" points="959,743.7969,949,747.7969,959,751.7969,955,747.7969" style="stroke:#000000;stroke-width:1.0;"/><line style="stroke:#000000;stroke-width:1.0;stroke-dasharray:2.0,2.0;" x1="953" x2="1702.5" y1="747.7969" y2="747.7969"/><text fill="#000000" font-family="sans-serif" font-size="20" lengthAdjust="spacing" textLength="338" x="965" y="741.0801">returns UpdateAllergyComponent</text><polygon fill="#000000" points="57,781.0781,47,785.0781,57,789.0781,53,785.0781" style="stroke:#000000;stroke-width:1.0;"/><line style="stroke:#000000;stroke-width:1.0;stroke-dasharray:2.0,2.0;" x1="51" x2="942" y1="785.0781" y2="785.0781"/><text fill="#000000" font-family="sans-serif" font-size="20" lengthAdjust="spacing" textLength="612" x="63" y="778.3613">Displays the fetched data and asks for the new Allergy's data</text><polygon fill="#000000" points="926,818.3594,936,822.3594,926,826.3594,930,822.3594" style="stroke:#000000;stroke-width:1.0;"/><line style="stroke:#000000;stroke-width:1.0;" x1="46" x2="932" y1="822.3594" y2="822.3594"/><text fill="#000000" font-family="sans-serif" font-size="20" lengthAdjust="spacing" textLength="873" x="53" y="815.6426">Sends Allergy's data (AllergyCode, AllergyName, AllergyDescription, AllergySymptoms)</text><polygon fill="#000000" points="1686.5,855.6406,1696.5,859.6406,1686.5,863.6406,1690.5,859.6406" style="stroke:#000000;stroke-width:1.0;"/><line style="stroke:#000000;stroke-width:1.0;" x1="948" x2="1692.5" y1="859.6406" y2="859.6406"/><text fill="#000000" font-family="sans-serif" font-size="20" lengthAdjust="spacing" textLength="226" x="955" y="852.9238">updateAllergy($event)</text><polygon fill="#000000" points="2295.5,892.9219,2305.5,896.9219,2295.5,900.9219,2299.5,896.9219" style="stroke:#000000;stroke-width:1.0;"/><line style="stroke:#000000;stroke-width:1.0;" x1="1708.5" x2="2301.5" y1="896.9219" y2="896.9219"/><text fill="#000000" font-family="sans-serif" font-size="20" lengthAdjust="spacing" textLength="269" x="1715.5" y="890.2051">updateAllergy(newAllergy)</text><polygon fill="#000000" points="2735.5,930.2031,2745.5,934.2031,2735.5,938.2031,2739.5,934.2031" style="stroke:#000000;stroke-width:1.0;"/><line style="stroke:#000000;stroke-width:1.0;" x1="2317.5" x2="2741.5" y1="934.2031" y2="934.2031"/><text fill="#000000" font-family="sans-serif" font-size="20" lengthAdjust="spacing" textLength="411" x="2324.5" y="927.4863">Makes Http Request to update an Allergy</text><line style="stroke:#000000;stroke-width:1.0;" x1="2757.5" x2="2799.5" y1="971.4844" y2="971.4844"/><line style="stroke:#000000;stroke-width:1.0;" x1="2799.5" x2="2799.5" y1="971.4844" y2="984.4844"/><line style="stroke:#000000;stroke-width:1.0;" x1="2758.5" x2="2799.5" y1="984.4844" y2="984.4844"/><polygon fill="#000000" points="2768.5,980.4844,2758.5,984.4844,2768.5,988.4844,2764.5,984.4844" style="stroke:#000000;stroke-width:1.0;"/><text fill="#000000" font-family="sans-serif" font-size="20" lengthAdjust="spacing" textLength="563" x="2764.5" y="964.7676">Intercepts the request and adds the token to the header</text><path d="M2762,997.4844 L2762,1053.4844 L3281,1053.4844 L3281,1007.4844 L3271,997.4844 L2762,997.4844 " fill="#FEFFDD" style="stroke:#181818;stroke-width:0.5;"/><path d="M3271,997.4844 L3271,1007.4844 L3281,1007.4844 L3271,997.4844 " fill="#FEFFDD" style="stroke:#181818;stroke-width:0.5;"/><text fill="#000000" font-family="sans-serif" font-size="20" lengthAdjust="spacing" textLength="498" x="2768" y="1021.0488">The token is added to the header so that the MDV</text><text fill="#000000" font-family="sans-serif" font-size="20" lengthAdjust="spacing" textLength="442" x="2768" y="1044.3301">can authenticate and authorize the request.</text><polygon fill="#000000" points="3322.5,1084.3281,3332.5,1088.3281,3322.5,1092.3281,3326.5,1088.3281" style="stroke:#000000;stroke-width:1.0;"/><line style="stroke:#000000;stroke-width:1.0;" x1="2757.5" x2="3328.5" y1="1088.3281" y2="1088.3281"/><text fill="#000000" font-family="sans-serif" font-size="20" lengthAdjust="spacing" textLength="269" x="2764.5" y="1081.6113">updateAllergy(newAllergy)</text><line style="stroke:#000000;stroke-width:1.0;" x1="3344.5" x2="3386.5" y1="1125.6094" y2="1125.6094"/><line style="stroke:#000000;stroke-width:1.0;" x1="3386.5" x2="3386.5" y1="1125.6094" y2="1138.6094"/><line style="stroke:#000000;stroke-width:1.0;" x1="3345.5" x2="3386.5" y1="1138.6094" y2="1138.6094"/><polygon fill="#000000" points="3355.5,1134.6094,3345.5,1138.6094,3355.5,1142.6094,3351.5,1138.6094" style="stroke:#000000;stroke-width:1.0;"/><text fill="#000000" font-family="sans-serif" font-size="20" lengthAdjust="spacing" textLength="387" x="3351.5" y="1118.8926">Validates Allergy's data and updates it</text><polygon fill="#000000" points="2768.5,1171.8906,2758.5,1175.8906,2768.5,1179.8906,2764.5,1175.8906" style="stroke:#000000;stroke-width:1.0;"/><line style="stroke:#000000;stroke-width:1.0;stroke-dasharray:2.0,2.0;" x1="2762.5" x2="3338.5" y1="1175.8906" y2="1175.8906"/><text fill="#000000" font-family="sans-serif" font-size="20" lengthAdjust="spacing" textLength="311" x="2774.5" y="1169.1738">Returns Operation Status Code</text><polygon fill="#000000" points="2328.5,1209.1719,2318.5,1213.1719,2328.5,1217.1719,2324.5,1213.1719" style="stroke:#000000;stroke-width:1.0;"/><line style="stroke:#000000;stroke-width:1.0;stroke-dasharray:2.0,2.0;" x1="2322.5" x2="2751.5" y1="1213.1719" y2="1213.1719"/><text fill="#000000" font-family="sans-serif" font-size="20" lengthAdjust="spacing" textLength="305" x="2334.5" y="1206.4551">returns Operation Status Code</text><polygon fill="#000000" points="1719.5,1246.4531,1709.5,1250.4531,1719.5,1254.4531,1715.5,1250.4531" style="stroke:#000000;stroke-width:1.0;"/><line style="stroke:#000000;stroke-width:1.0;stroke-dasharray:2.0,2.0;" x1="1713.5" x2="2311.5" y1="1250.4531" y2="1250.4531"/><text fill="#000000" font-family="sans-serif" font-size="20" lengthAdjust="spacing" textLength="280" x="1725.5" y="1243.7363">returns Operation Response</text><polygon fill="#000000" points="959,1283.7344,949,1287.7344,959,1291.7344,955,1287.7344" style="stroke:#000000;stroke-width:1.0;"/><line style="stroke:#000000;stroke-width:1.0;stroke-dasharray:2.0,2.0;" x1="953" x2="1702.5" y1="1287.7344" y2="1287.7344"/><text fill="#000000" font-family="sans-serif" font-size="20" lengthAdjust="spacing" textLength="374" x="965" y="1281.0176">returns Operation In/Sucess message</text><polygon fill="#000000" points="57,1321.0156,47,1325.0156,57,1329.0156,53,1325.0156" style="stroke:#000000;stroke-width:1.0;"/><line style="stroke:#000000;stroke-width:1.0;stroke-dasharray:2.0,2.0;" x1="51" x2="942" y1="1325.0156" y2="1325.0156"/><text fill="#000000" font-family="sans-serif" font-size="20" lengthAdjust="spacing" textLength="374" x="63" y="1318.2988">returns Operation In/Sucess message</text><!--SRC=[tLPjJzim4FwUNt62IGLf3BPfRnL3Ib-YHQ93QbQ-c_ZQUatip7QAkcd_VMSdQPDI9lWs3GbApizpBy_TEJKh8GkcMPwfT8KSECvPcTb8IPk8dmXlBeB02fiXNECQCtWBqHX6WYs84WHBmH4mB-m6SiplK9kWPngFS2qasas1eBHTgY3OdQGPCmP-1K0_0vQk5bgLaWzLflJbvPfb9TxSVSVKNbt1yUZzE8m-7ePgfJmc6eq7eul368DwBLBqhbv7RyQ3Gp0udiNHf_47VnPghUuhyo0ZNF2xdNj15hR0mzd3yNWGlOi6Zi9IIuQHyX_CG1YG0ojIKJ1fuLRWlRFEuexvACmor0k19fHyWboaB1igoOKLIfe9anHQ3rLUA8dI7dc_as7NnQpWp6BbQDF5pi8zx4s1cZdVK_nHeh59fPO7tqoJGxbjsfXm7rBQPImjwXGBghl2T4kSZ6wTbJwyHc9DoP8u8PnTaHfz2CtAW5LG-ZA0IQZZxj0asYnsUAgz3oG_1QHfMttkdLUiivfotXUyruf2Kj6lZnGsJ1_ii6QjY2GSnuuZClaKaZxCqQRBcdmY-6ahOXA4YOTHPHEsecXVh2sWbjk5Ng1jAWHAWhN8SH363NchAkMxHD2r0oOvCCuherKhbCwdUrWYuwW3gSYJ5ekb1JLtBjtOVjk2XN5qslmE2unxOjQRNASSAQLMCEel2KDZwLl3lK5fTrMqideL81svo7K1vABl2gth756PNPrS33SO3JPoYf9O7M4ye9P3eosrf25j1XWIosnfOAWujblbFBiawbOzcUV4Jpoj6fK7l2aQcXBJ9INDM7YIaBItB2Drp6CJvk7rv3Sn7e6suhXndDL5zUa-DaN6DjKC-5bqDpafLdN8xTESxY1tAkdMgHttJALgsssyMyE4McZsi72oJOhZo-RmAyjt3oCqgHQ5KsXhIpRqYb2vEJsmmLwdibtmoGjwqqXxsbs-rhPrqLHH_U_prkulryj_jdTFq6j__MvfQ1tfmG2uq9K_0y9sDdBwJs_atehjIB4yJyeKwVj8Jd_ezVhudZsN70T_0000]--></g></svg>