<?xml version="1.0" encoding="UTF-8" standalone="no"?><svg xmlns="http://www.w3.org/2000/svg" xmlns:xlink="http://www.w3.org/1999/xlink" contentStyleType="text/css" height="507px" preserveAspectRatio="none" style="width:1998px;height:507px;background:#FFFFFF;" version="1.1" viewBox="0 0 1998 507" width="1998px" zoomAndPan="magnify"><defs/><g><text fill="#000000" font-family="sans-serif" font-size="14" font-weight="bold" lengthAdjust="spacing" textLength="126" x="938" y="27.9951">Level 2 Diagram</text><rect fill="#FFFFFF" height="274.9688" style="stroke:#181818;stroke-width:1.0;" width="10" x="36" y="135.5781"/><rect fill="#FFFFFF" height="37.2813" style="stroke:#181818;stroke-width:1.0;" width="10" x="545" y="164.8594"/><rect fill="#FFFFFF" height="162.125" style="stroke:#181818;stroke-width:1.0;" width="10" x="545" y="239.4219"/><rect fill="#FFFFFF" height="87.5625" style="stroke:#181818;stroke-width:1.0;" width="10" x="1298" y="276.7031"/><line style="stroke:#181818;stroke-width:0.5;stroke-dasharray:5.0,5.0;" x1="41" x2="41" y1="125.5781" y2="419.5469"/><line style="stroke:#181818;stroke-width:0.5;stroke-dasharray:5.0,5.0;" x1="549.5" x2="549.5" y1="125.5781" y2="419.5469"/><line style="stroke:#181818;stroke-width:0.5;stroke-dasharray:5.0,5.0;" x1="1303" x2="1303" y1="125.5781" y2="419.5469"/><text fill="#000000" font-family="sans-serif" font-size="20" lengthAdjust="spacing" textLength="66" x="5" y="120.8613">Admin</text><ellipse cx="41" cy="50.7969" fill="#E2E2F0" rx="8" ry="8" style="stroke:#181818;stroke-width:0.5;"/><path d="M41,58.7969 L41,85.7969 M28,66.7969 L54,66.7969 M41,85.7969 L28,100.7969 M41,85.7969 L54,100.7969 " fill="none" style="stroke:#181818;stroke-width:0.5;"/><text fill="#000000" font-family="sans-serif" font-size="20" lengthAdjust="spacing" textLength="66" x="5" y="437.1113">Admin</text><ellipse cx="41" cy="450.3281" fill="#E2E2F0" rx="8" ry="8" style="stroke:#181818;stroke-width:0.5;"/><path d="M41,458.3281 L41,485.3281 M28,466.3281 L54,466.3281 M41,485.3281 L28,500.3281 M41,485.3281 L54,500.3281 " fill="none" style="stroke:#181818;stroke-width:0.5;"/><rect fill="#E2E2F0" height="37.2813" rx="2.5" ry="2.5" style="stroke:#181818;stroke-width:0.5;" width="39" x="530.5" y="87.2969"/><text fill="#000000" font-family="sans-serif" font-size="20" lengthAdjust="spacing" textLength="25" x="537.5" y="112.8613">FE</text><rect fill="#E2E2F0" height="37.2813" rx="2.5" ry="2.5" style="stroke:#181818;stroke-width:0.5;" width="39" x="530.5" y="418.5469"/><text fill="#000000" font-family="sans-serif" font-size="20" lengthAdjust="spacing" textLength="25" x="537.5" y="444.1113">FE</text><rect fill="#E2E2F0" height="37.2813" rx="2.5" ry="2.5" style="stroke:#181818;stroke-width:0.5;" width="60" x="1273" y="87.2969"/><text fill="#000000" font-family="sans-serif" font-size="20" lengthAdjust="spacing" textLength="46" x="1280" y="112.8613">MDR</text><rect fill="#E2E2F0" height="37.2813" rx="2.5" ry="2.5" style="stroke:#181818;stroke-width:0.5;" width="60" x="1273" y="418.5469"/><text fill="#000000" font-family="sans-serif" font-size="20" lengthAdjust="spacing" textLength="46" x="1280" y="444.1113">MDR</text><rect fill="#FFFFFF" height="274.9688" style="stroke:#181818;stroke-width:1.0;" width="10" x="36" y="135.5781"/><rect fill="#FFFFFF" height="37.2813" style="stroke:#181818;stroke-width:1.0;" width="10" x="545" y="164.8594"/><rect fill="#FFFFFF" height="162.125" style="stroke:#181818;stroke-width:1.0;" width="10" x="545" y="239.4219"/><rect fill="#FFFFFF" height="87.5625" style="stroke:#181818;stroke-width:1.0;" width="10" x="1298" y="276.7031"/><polygon fill="#000000" points="533,160.8594,543,164.8594,533,168.8594,537,164.8594" style="stroke:#000000;stroke-width:1.0;"/><line style="stroke:#000000;stroke-width:1.0;" x1="46" x2="539" y1="164.8594" y2="164.8594"/><text fill="#000000" font-family="sans-serif" font-size="20" lengthAdjust="spacing" textLength="303" x="53" y="158.1426">Asks to create a specialization</text><polygon fill="#000000" points="57,198.1406,47,202.1406,57,206.1406,53,202.1406" style="stroke:#000000;stroke-width:1.0;"/><line style="stroke:#000000;stroke-width:1.0;stroke-dasharray:2.0,2.0;" x1="51" x2="549" y1="202.1406" y2="202.1406"/><text fill="#000000" font-family="sans-serif" font-size="20" lengthAdjust="spacing" textLength="290" x="63" y="195.4238">Asks for specialization's data</text><polygon fill="#000000" points="533,235.4219,543,239.4219,533,243.4219,537,239.4219" style="stroke:#000000;stroke-width:1.0;"/><line style="stroke:#000000;stroke-width:1.0;" x1="46" x2="539" y1="239.4219" y2="239.4219"/><text fill="#000000" font-family="sans-serif" font-size="20" lengthAdjust="spacing" textLength="480" x="53" y="232.7051">Sends specialization's data (specializationType)</text><polygon fill="#000000" points="1286,272.7031,1296,276.7031,1286,280.7031,1290,276.7031" style="stroke:#000000;stroke-width:1.0;"/><line style="stroke:#000000;stroke-width:1.0;" x1="555" x2="1292" y1="276.7031" y2="276.7031"/><text fill="#000000" font-family="sans-serif" font-size="20" lengthAdjust="spacing" textLength="724" x="562" y="269.9863">Sends HTTP Request to create a specialization with specialization's data</text><line style="stroke:#000000;stroke-width:1.0;" x1="1308" x2="1350" y1="313.9844" y2="313.9844"/><line style="stroke:#000000;stroke-width:1.0;" x1="1350" x2="1350" y1="313.9844" y2="326.9844"/><line style="stroke:#000000;stroke-width:1.0;" x1="1309" x2="1350" y1="326.9844" y2="326.9844"/><polygon fill="#000000" points="1319,322.9844,1309,326.9844,1319,330.9844,1315,326.9844" style="stroke:#000000;stroke-width:1.0;"/><text fill="#000000" font-family="sans-serif" font-size="20" lengthAdjust="spacing" textLength="676" x="1315" y="307.2676">Validates specialization's data and tries to create the specialization</text><polygon fill="#000000" points="566,360.2656,556,364.2656,566,368.2656,562,364.2656" style="stroke:#000000;stroke-width:1.0;"/><line style="stroke:#000000;stroke-width:1.0;stroke-dasharray:2.0,2.0;" x1="560" x2="1302" y1="364.2656" y2="364.2656"/><text fill="#000000" font-family="sans-serif" font-size="20" lengthAdjust="spacing" textLength="311" x="572" y="357.5488">Returns Operation Status Code</text><polygon fill="#000000" points="57,397.5469,47,401.5469,57,405.5469,53,401.5469" style="stroke:#000000;stroke-width:1.0;"/><line style="stroke:#000000;stroke-width:1.0;stroke-dasharray:2.0,2.0;" x1="51" x2="549" y1="401.5469" y2="401.5469"/><text fill="#000000" font-family="sans-serif" font-size="20" lengthAdjust="spacing" textLength="380" x="63" y="394.8301">Returns Operation In/Sucess message</text><!--SRC=[VL9TJzmm47pthrZ10-q3WfxKbY9qKa9YjH8LwExKzyLUximbTcfl3a7L_yucm7r0859YQNPcTdRZj7I-mOXr5SoIB5YwmRPY7JnFtGF1w5WfTbmHND2AAXX1uN0kVAKMpX9GtV0zr5HVKqpg8BtOmONpnFSDGOYy24fjAgR2bE2V0dboDCjv3Astvw4AyUniXLLBbzUtP7WyXltYMvdfas5g3A7dwABCY-DXJgAuSePwgozwLEP3DB4ezO_oUr_BOWntJt1U2K_ztyxU289p6auF-sMkl-gyaw1X0J9REm-O85EYPsTSWvvXJvTx7QhBNVXtCUbnELLluLR89E8C3iV2FeKiBHDm01Efgo2aXep3oZqWk-0t6h7M9HoAB7jMtKYUNVP10ekCojAsRDrhIjwcOGbyseLdygC_lsa-xWPvyVavcrt1XFwsbFY32U3EyUATd6l_RZ_ohZly4QemwBsqw2rmTBIzEbxGw-Nrbi_3JuZRw1DSDXIVWaqPkKrm7YnjRwpBijdqMzalVpHj3ScDh-KZT-VLkjKZ]--></g></svg>