<?xml version="1.0" encoding="UTF-8" standalone="no"?><svg xmlns="http://www.w3.org/2000/svg" xmlns:xlink="http://www.w3.org/1999/xlink" contentStyleType="text/css" height="1634px" preserveAspectRatio="none" style="width:2949px;height:1634px;background:#FFFFFF;" version="1.1" viewBox="0 0 2949 1634" width="2949px" zoomAndPan="magnify"><defs><filter height="300%" id="f17rbiogd73j0s" width="300%" x="-1" y="-1"><feGaussianBlur result="blurOut" stdDeviation="2.0"/><feColorMatrix in="blurOut" result="blurOut2" type="matrix" values="0 0 0 0 0 0 0 0 0 0 0 0 0 0 0 0 0 0 .4 0"/><feOffset dx="4.0" dy="4.0" in="blurOut2" result="blurOut3"/><feBlend in="SourceGraphic" in2="blurOut3" mode="normal"/></filter></defs><g><text fill="#000000" font-family="sans-serif" font-size="14" font-weight="bold" lengthAdjust="spacing" textLength="181" x="1382.5" y="27.9951">5.1.21 Level 3 Diagram</text><rect fill="#FFFFFF" filter="url(#f17rbiogd73j0s)" height="1398" style="stroke:#181818;stroke-width:1.0;" width="10" x="61" y="138.5781"/><rect fill="#FFFFFF" filter="url(#f17rbiogd73j0s)" height="616.0625" style="stroke:#181818;stroke-width:1.0;" width="10" x="388" y="167.8594"/><rect fill="#FFFFFF" filter="url(#f17rbiogd73j0s)" height="67.2813" style="stroke:#181818;stroke-width:1.0;" width="10" x="388" y="1115.6094"/><rect fill="#FFFFFF" filter="url(#f17rbiogd73j0s)" height="67.2813" style="stroke:#181818;stroke-width:1.0;" width="10" x="388" y="1454.2969"/><rect fill="#FFFFFF" filter="url(#f17rbiogd73j0s)" height="541.5" style="stroke:#181818;stroke-width:1.0;" width="10" x="916" y="205.1406"/><rect fill="#FFFFFF" filter="url(#f17rbiogd73j0s)" height="97.2813" style="stroke:#181818;stroke-width:1.0;" width="10" x="916" y="1048.3281"/><rect fill="#FFFFFF" filter="url(#f17rbiogd73j0s)" height="97.2813" style="stroke:#181818;stroke-width:1.0;" width="10" x="916" y="1387.0156"/><rect fill="#FFFFFF" filter="url(#f17rbiogd73j0s)" height="466.9375" style="stroke:#181818;stroke-width:1.0;" width="10" x="1444" y="242.4219"/><rect fill="#FFFFFF" filter="url(#f17rbiogd73j0s)" height="97.2813" style="stroke:#181818;stroke-width:1.0;" width="10" x="1444" y="981.0469"/><rect fill="#FFFFFF" filter="url(#f17rbiogd73j0s)" height="97.2813" style="stroke:#181818;stroke-width:1.0;" width="10" x="1444" y="1319.7344"/><rect fill="#FFFFFF" filter="url(#f17rbiogd73j0s)" height="392.375" style="stroke:#181818;stroke-width:1.0;" width="10" x="2201" y="279.7031"/><rect fill="#FFFFFF" filter="url(#f17rbiogd73j0s)" height="97.2813" style="stroke:#181818;stroke-width:1.0;" width="10" x="2201" y="913.7656"/><rect fill="#FFFFFF" filter="url(#f17rbiogd73j0s)" height="97.2813" style="stroke:#181818;stroke-width:1.0;" width="10" x="2201" y="1252.4531"/><rect fill="#FFFFFF" filter="url(#f17rbiogd73j0s)" height="77.8438" style="stroke:#181818;stroke-width:1.0;" width="10" x="2500" y="316.9844"/><rect fill="#FFFFFF" filter="url(#f17rbiogd73j0s)" height="128.125" style="stroke:#181818;stroke-width:1.0;" width="10" x="2500" y="469.3906"/><rect fill="#FFFFFF" filter="url(#f17rbiogd73j0s)" height="202.6875" style="stroke:#181818;stroke-width:1.0;" width="10" x="2882" y="432.1094"/><rect fill="#FFFFFF" filter="url(#f17rbiogd73j0s)" height="97.2813" style="stroke:#181818;stroke-width:1.0;" width="10" x="2882" y="846.4844"/><rect fill="none" filter="url(#f17rbiogd73j0s)" height="1197.5938" style="stroke:#000000;stroke-width:1.5;" width="2927" x="10" y="331.9844"/><rect fill="none" filter="url(#f17rbiogd73j0s)" height="656.2188" style="stroke:#000000;stroke-width:1.5;" width="2907" x="20" y="534.6719"/><line style="stroke:#181818;stroke-width:0.5;stroke-dasharray:5.0,5.0;" x1="66" x2="66" y1="128.5781" y2="1546.5781"/><line style="stroke:#181818;stroke-width:0.5;stroke-dasharray:5.0,5.0;" x1="393" x2="393" y1="128.5781" y2="1546.5781"/><line style="stroke:#181818;stroke-width:0.5;stroke-dasharray:5.0,5.0;" x1="920.5" x2="920.5" y1="128.5781" y2="1546.5781"/><line style="stroke:#181818;stroke-width:0.5;stroke-dasharray:5.0,5.0;" x1="1449" x2="1449" y1="128.5781" y2="1546.5781"/><line style="stroke:#181818;stroke-width:0.5;stroke-dasharray:5.0,5.0;" x1="2206" x2="2206" y1="128.5781" y2="1546.5781"/><line style="stroke:#181818;stroke-width:0.5;stroke-dasharray:5.0,5.0;" x1="2504.5" x2="2504.5" y1="128.5781" y2="1546.5781"/><line style="stroke:#181818;stroke-width:0.5;stroke-dasharray:5.0,5.0;" x1="2887" x2="2887" y1="128.5781" y2="1546.5781"/><text fill="#000000" font-family="sans-serif" font-size="20" lengthAdjust="spacing" textLength="66" x="30" y="123.8613">Admin</text><ellipse cx="66" cy="50.7969" fill="#E2E2F0" filter="url(#f17rbiogd73j0s)" rx="8" ry="8" style="stroke:#181818;stroke-width:0.5;"/><path d="M66,58.7969 L66,85.7969 M53,66.7969 L79,66.7969 M66,85.7969 L53,100.7969 M66,85.7969 L79,100.7969 " fill="none" filter="url(#f17rbiogd73j0s)" style="stroke:#181818;stroke-width:0.5;"/><text fill="#000000" font-family="sans-serif" font-size="20" lengthAdjust="spacing" textLength="66" x="30" y="1564.1426">Admin</text><ellipse cx="66" cy="1577.3594" fill="#E2E2F0" filter="url(#f17rbiogd73j0s)" rx="8" ry="8" style="stroke:#181818;stroke-width:0.5;"/><path d="M66,1585.3594 L66,1612.3594 M53,1593.3594 L79,1593.3594 M66,1612.3594 L53,1627.3594 M66,1612.3594 L79,1627.3594 " fill="none" filter="url(#f17rbiogd73j0s)" style="stroke:#181818;stroke-width:0.5;"/><rect fill="#E2E2F0" filter="url(#f17rbiogd73j0s)" height="37.2813" rx="2.5" ry="2.5" style="stroke:#181818;stroke-width:0.5;" width="83" x="350" y="87.2969"/><text fill="#000000" font-family="sans-serif" font-size="20" lengthAdjust="spacing" textLength="69" x="357" y="112.8613">Routes</text><rect fill="#E2E2F0" filter="url(#f17rbiogd73j0s)" height="37.2813" rx="2.5" ry="2.5" style="stroke:#181818;stroke-width:0.5;" width="83" x="350" y="1545.5781"/><text fill="#000000" font-family="sans-serif" font-size="20" lengthAdjust="spacing" textLength="69" x="357" y="1571.1426">Routes</text><rect fill="#E2E2F0" filter="url(#f17rbiogd73j0s)" height="37.2813" rx="2.5" ry="2.5" style="stroke:#181818;stroke-width:0.5;" width="60" x="889.5" y="87.2969"/><text fill="#000000" font-family="sans-serif" font-size="20" lengthAdjust="spacing" textLength="46" x="896.5" y="112.8613">MDR</text><rect fill="#E2E2F0" filter="url(#f17rbiogd73j0s)" height="37.2813" rx="2.5" ry="2.5" style="stroke:#181818;stroke-width:0.5;" width="60" x="889.5" y="1545.5781"/><text fill="#000000" font-family="sans-serif" font-size="20" lengthAdjust="spacing" textLength="46" x="896.5" y="1571.1426">MDR</text><rect fill="#E2E2F0" filter="url(#f17rbiogd73j0s)" height="37.2813" rx="2.5" ry="2.5" style="stroke:#181818;stroke-width:0.5;" width="113" x="1391" y="87.2969"/><text fill="#000000" font-family="sans-serif" font-size="20" lengthAdjust="spacing" textLength="99" x="1398" y="112.8613">Controller</text><rect fill="#E2E2F0" filter="url(#f17rbiogd73j0s)" height="37.2813" rx="2.5" ry="2.5" style="stroke:#181818;stroke-width:0.5;" width="113" x="1391" y="1545.5781"/><text fill="#000000" font-family="sans-serif" font-size="20" lengthAdjust="spacing" textLength="99" x="1398" y="1571.1426">Controller</text><rect fill="#E2E2F0" filter="url(#f17rbiogd73j0s)" height="37.2813" rx="2.5" ry="2.5" style="stroke:#181818;stroke-width:0.5;" width="87" x="2161" y="87.2969"/><text fill="#000000" font-family="sans-serif" font-size="20" lengthAdjust="spacing" textLength="73" x="2168" y="112.8613">Service</text><rect fill="#E2E2F0" filter="url(#f17rbiogd73j0s)" height="37.2813" rx="2.5" ry="2.5" style="stroke:#181818;stroke-width:0.5;" width="87" x="2161" y="1545.5781"/><text fill="#000000" font-family="sans-serif" font-size="20" lengthAdjust="spacing" textLength="73" x="2168" y="1571.1426">Service</text><rect fill="#E2E2F0" filter="url(#f17rbiogd73j0s)" height="37.2813" rx="2.5" ry="2.5" style="stroke:#181818;stroke-width:0.5;" width="120" x="2443.5" y="87.2969"/><text fill="#000000" font-family="sans-serif" font-size="20" lengthAdjust="spacing" textLength="106" x="2450.5" y="112.8613">Repository</text><rect fill="#E2E2F0" filter="url(#f17rbiogd73j0s)" height="37.2813" rx="2.5" ry="2.5" style="stroke:#181818;stroke-width:0.5;" width="120" x="2443.5" y="1545.5781"/><text fill="#000000" font-family="sans-serif" font-size="20" lengthAdjust="spacing" textLength="106" x="2450.5" y="1571.1426">Repository</text><rect fill="#E2E2F0" filter="url(#f17rbiogd73j0s)" height="37.2813" rx="2.5" ry="2.5" style="stroke:#181818;stroke-width:0.5;" width="57" x="2857" y="87.2969"/><text fill="#000000" font-family="sans-serif" font-size="20" lengthAdjust="spacing" textLength="43" x="2864" y="112.8613">DTO</text><rect fill="#E2E2F0" filter="url(#f17rbiogd73j0s)" height="37.2813" rx="2.5" ry="2.5" style="stroke:#181818;stroke-width:0.5;" width="57" x="2857" y="1545.5781"/><text fill="#000000" font-family="sans-serif" font-size="20" lengthAdjust="spacing" textLength="43" x="2864" y="1571.1426">DTO</text><rect fill="#FFFFFF" filter="url(#f17rbiogd73j0s)" height="1398" style="stroke:#181818;stroke-width:1.0;" width="10" x="61" y="138.5781"/><rect fill="#FFFFFF" filter="url(#f17rbiogd73j0s)" height="616.0625" style="stroke:#181818;stroke-width:1.0;" width="10" x="388" y="167.8594"/><rect fill="#FFFFFF" filter="url(#f17rbiogd73j0s)" height="67.2813" style="stroke:#181818;stroke-width:1.0;" width="10" x="388" y="1115.6094"/><rect fill="#FFFFFF" filter="url(#f17rbiogd73j0s)" height="67.2813" style="stroke:#181818;stroke-width:1.0;" width="10" x="388" y="1454.2969"/><rect fill="#FFFFFF" filter="url(#f17rbiogd73j0s)" height="541.5" style="stroke:#181818;stroke-width:1.0;" width="10" x="916" y="205.1406"/><rect fill="#FFFFFF" filter="url(#f17rbiogd73j0s)" height="97.2813" style="stroke:#181818;stroke-width:1.0;" width="10" x="916" y="1048.3281"/><rect fill="#FFFFFF" filter="url(#f17rbiogd73j0s)" height="97.2813" style="stroke:#181818;stroke-width:1.0;" width="10" x="916" y="1387.0156"/><rect fill="#FFFFFF" filter="url(#f17rbiogd73j0s)" height="466.9375" style="stroke:#181818;stroke-width:1.0;" width="10" x="1444" y="242.4219"/><rect fill="#FFFFFF" filter="url(#f17rbiogd73j0s)" height="97.2813" style="stroke:#181818;stroke-width:1.0;" width="10" x="1444" y="981.0469"/><rect fill="#FFFFFF" filter="url(#f17rbiogd73j0s)" height="97.2813" style="stroke:#181818;stroke-width:1.0;" width="10" x="1444" y="1319.7344"/><rect fill="#FFFFFF" filter="url(#f17rbiogd73j0s)" height="392.375" style="stroke:#181818;stroke-width:1.0;" width="10" x="2201" y="279.7031"/><rect fill="#FFFFFF" filter="url(#f17rbiogd73j0s)" height="97.2813" style="stroke:#181818;stroke-width:1.0;" width="10" x="2201" y="913.7656"/><rect fill="#FFFFFF" filter="url(#f17rbiogd73j0s)" height="97.2813" style="stroke:#181818;stroke-width:1.0;" width="10" x="2201" y="1252.4531"/><rect fill="#FFFFFF" filter="url(#f17rbiogd73j0s)" height="77.8438" style="stroke:#181818;stroke-width:1.0;" width="10" x="2500" y="316.9844"/><rect fill="#FFFFFF" filter="url(#f17rbiogd73j0s)" height="128.125" style="stroke:#181818;stroke-width:1.0;" width="10" x="2500" y="469.3906"/><rect fill="#FFFFFF" filter="url(#f17rbiogd73j0s)" height="202.6875" style="stroke:#181818;stroke-width:1.0;" width="10" x="2882" y="432.1094"/><rect fill="#FFFFFF" filter="url(#f17rbiogd73j0s)" height="97.2813" style="stroke:#181818;stroke-width:1.0;" width="10" x="2882" y="846.4844"/><polygon fill="#181818" points="376,163.8594,386,167.8594,376,171.8594,380,167.8594" style="stroke:#181818;stroke-width:1.0;"/><line style="stroke:#181818;stroke-width:1.0;" x1="71" x2="382" y1="167.8594" y2="167.8594"/><text fill="#000000" font-family="sans-serif" font-size="20" lengthAdjust="spacing" textLength="151" x="78" y="161.1426">patch(\update)</text><polygon fill="#181818" points="904,201.1406,914,205.1406,904,209.1406,908,205.1406" style="stroke:#181818;stroke-width:1.0;"/><line style="stroke:#181818;stroke-width:1.0;" x1="398" x2="910" y1="205.1406" y2="205.1406"/><text fill="#000000" font-family="sans-serif" font-size="20" lengthAdjust="spacing" textLength="499" x="405" y="198.4238">updateOperationType(ID,newOperationTypeData)</text><polygon fill="#181818" points="1432,238.4219,1442,242.4219,1432,246.4219,1436,242.4219" style="stroke:#181818;stroke-width:1.0;"/><line style="stroke:#181818;stroke-width:1.0;" x1="926" x2="1438" y1="242.4219" y2="242.4219"/><text fill="#000000" font-family="sans-serif" font-size="20" lengthAdjust="spacing" textLength="499" x="933" y="235.7051">updateOperationType(ID,newOperationTypeData)</text><polygon fill="#181818" points="2189,275.7031,2199,279.7031,2189,283.7031,2193,279.7031" style="stroke:#181818;stroke-width:1.0;"/><line style="stroke:#181818;stroke-width:1.0;" x1="1454" x2="2195" y1="279.7031" y2="279.7031"/><text fill="#000000" font-family="sans-serif" font-size="20" lengthAdjust="spacing" textLength="728" x="1461" y="272.9863">instance().validateAndUpdateOperationType(ID,newOperationTypeData)</text><polygon fill="#181818" points="2488,312.9844,2498,316.9844,2488,320.9844,2492,316.9844" style="stroke:#181818;stroke-width:1.0;"/><line style="stroke:#181818;stroke-width:1.0;" x1="2211" x2="2494" y1="316.9844" y2="316.9844"/><text fill="#000000" font-family="sans-serif" font-size="20" lengthAdjust="spacing" textLength="270" x="2218" y="310.2676">findOperationTypeByID(ID)</text><path d="M10,331.9844 L86,331.9844 L86,347.2656 L76,357.2656 L10,357.2656 L10,331.9844 " fill="#EEEEEE" style="stroke:#000000;stroke-width:1.5;"/><rect fill="none" height="1197.5938" style="stroke:#000000;stroke-width:1.5;" width="2927" x="10" y="331.9844"/><text fill="#000000" font-family="sans-serif" font-size="20" font-weight="bold" lengthAdjust="spacing" textLength="31" x="25" y="351.5488">alt</text><text fill="#000000" font-family="sans-serif" font-size="20" font-weight="bold" lengthAdjust="spacing" textLength="265" x="101" y="352.5488">[Operation type exists]</text><polygon fill="#181818" points="2222,390.8281,2212,394.8281,2222,398.8281,2218,394.8281" style="stroke:#181818;stroke-width:1.0;"/><line style="stroke:#181818;stroke-width:1.0;stroke-dasharray:2.0,2.0;" x1="2216" x2="2504" y1="394.8281" y2="394.8281"/><text fill="#000000" font-family="sans-serif" font-size="20" lengthAdjust="spacing" textLength="212" x="2228" y="388.1113">OperationType found</text><polygon fill="#181818" points="2870,428.1094,2880,432.1094,2870,436.1094,2874,432.1094" style="stroke:#181818;stroke-width:1.0;"/><line style="stroke:#181818;stroke-width:1.0;" x1="2211" x2="2876" y1="432.1094" y2="432.1094"/><text fill="#000000" font-family="sans-serif" font-size="20" lengthAdjust="spacing" textLength="422" x="2218" y="425.3926">updateOperationType(operationTypeDTO)</text><polygon fill="#181818" points="2521,465.3906,2511,469.3906,2521,473.3906,2517,469.3906" style="stroke:#181818;stroke-width:1.0;"/><line style="stroke:#181818;stroke-width:1.0;" x1="2515" x2="2881" y1="469.3906" y2="469.3906"/><text fill="#000000" font-family="sans-serif" font-size="20" lengthAdjust="spacing" textLength="353" x="2527" y="462.6738">saveOperationType(operationType)</text><line style="stroke:#181818;stroke-width:1.0;" x1="2510" x2="2552" y1="506.6719" y2="506.6719"/><line style="stroke:#181818;stroke-width:1.0;" x1="2552" x2="2552" y1="506.6719" y2="519.6719"/><line style="stroke:#181818;stroke-width:1.0;" x1="2511" x2="2552" y1="519.6719" y2="519.6719"/><polygon fill="#181818" points="2521,515.6719,2511,519.6719,2521,523.6719,2517,519.6719" style="stroke:#181818;stroke-width:1.0;"/><text fill="#000000" font-family="sans-serif" font-size="20" lengthAdjust="spacing" textLength="61" x="2517" y="499.9551">save()</text><path d="M20,534.6719 L96,534.6719 L96,549.9531 L86,559.9531 L20,559.9531 L20,534.6719 " fill="#EEEEEE" style="stroke:#000000;stroke-width:1.5;"/><rect fill="none" height="656.2188" style="stroke:#000000;stroke-width:1.5;" width="2907" x="20" y="534.6719"/><text fill="#000000" font-family="sans-serif" font-size="20" font-weight="bold" lengthAdjust="spacing" textLength="31" x="35" y="554.2363">alt</text><text fill="#000000" font-family="sans-serif" font-size="20" font-weight="bold" lengthAdjust="spacing" textLength="157" x="111" y="555.2363">[Success 200]</text><polygon fill="#181818" points="2870,593.5156,2880,597.5156,2870,601.5156,2874,597.5156" style="stroke:#181818;stroke-width:1.0;"/><line style="stroke:#181818;stroke-width:1.0;stroke-dasharray:2.0,2.0;" x1="2505" x2="2876" y1="597.5156" y2="597.5156"/><text fill="#000000" font-family="sans-serif" font-size="20" lengthAdjust="spacing" textLength="39" x="2512" y="590.7988">200</text><polygon fill="#181818" points="2222,630.7969,2212,634.7969,2222,638.7969,2218,634.7969" style="stroke:#181818;stroke-width:1.0;"/><line style="stroke:#181818;stroke-width:1.0;stroke-dasharray:2.0,2.0;" x1="2216" x2="2886" y1="634.7969" y2="634.7969"/><text fill="#000000" font-family="sans-serif" font-size="20" lengthAdjust="spacing" textLength="39" x="2228" y="628.0801">200</text><polygon fill="#181818" points="1465,668.0781,1455,672.0781,1465,676.0781,1461,672.0781" style="stroke:#181818;stroke-width:1.0;"/><line style="stroke:#181818;stroke-width:1.0;stroke-dasharray:2.0,2.0;" x1="1459" x2="2205" y1="672.0781" y2="672.0781"/><text fill="#000000" font-family="sans-serif" font-size="20" lengthAdjust="spacing" textLength="39" x="1471" y="665.3613">200</text><polygon fill="#181818" points="937,705.3594,927,709.3594,937,713.3594,933,709.3594" style="stroke:#181818;stroke-width:1.0;"/><line style="stroke:#181818;stroke-width:1.0;stroke-dasharray:2.0,2.0;" x1="931" x2="1448" y1="709.3594" y2="709.3594"/><text fill="#000000" font-family="sans-serif" font-size="20" lengthAdjust="spacing" textLength="39" x="943" y="702.6426">200</text><polygon fill="#181818" points="409,742.6406,399,746.6406,409,750.6406,405,746.6406" style="stroke:#181818;stroke-width:1.0;"/><line style="stroke:#181818;stroke-width:1.0;stroke-dasharray:2.0,2.0;" x1="403" x2="920" y1="746.6406" y2="746.6406"/><text fill="#000000" font-family="sans-serif" font-size="20" lengthAdjust="spacing" textLength="39" x="415" y="739.9238">200</text><polygon fill="#181818" points="82,779.9219,72,783.9219,82,787.9219,78,783.9219" style="stroke:#181818;stroke-width:1.0;"/><line style="stroke:#181818;stroke-width:1.0;stroke-dasharray:2.0,2.0;" x1="76" x2="392" y1="783.9219" y2="783.9219"/><text fill="#000000" font-family="sans-serif" font-size="20" lengthAdjust="spacing" textLength="244" x="88" y="777.2051">Operation Type updated</text><line style="stroke:#000000;stroke-width:1.0;stroke-dasharray:2.0,2.0;" x1="20" x2="2927" y1="792.9219" y2="792.9219"/><text fill="#000000" font-family="sans-serif" font-size="20" font-weight="bold" lengthAdjust="spacing" textLength="147" x="25" y="811.4863">[Failure 400]</text><polygon fill="#181818" points="2870,842.4844,2880,846.4844,2870,850.4844,2874,846.4844" style="stroke:#181818;stroke-width:1.0;"/><line style="stroke:#181818;stroke-width:1.0;stroke-dasharray:2.0,2.0;" x1="2505" x2="2876" y1="846.4844" y2="846.4844"/><text fill="#000000" font-family="sans-serif" font-size="20" lengthAdjust="spacing" textLength="39" x="2512" y="839.7676">400</text><polygon fill="#181818" points="2222,909.7656,2212,913.7656,2222,917.7656,2218,913.7656" style="stroke:#181818;stroke-width:1.0;"/><line style="stroke:#181818;stroke-width:1.0;stroke-dasharray:2.0,2.0;" x1="2216" x2="2881" y1="913.7656" y2="913.7656"/><text fill="#000000" font-family="sans-serif" font-size="20" lengthAdjust="spacing" textLength="39" x="2228" y="907.0488">400</text><polygon fill="#181818" points="1465,977.0469,1455,981.0469,1465,985.0469,1461,981.0469" style="stroke:#181818;stroke-width:1.0;"/><line style="stroke:#181818;stroke-width:1.0;stroke-dasharray:2.0,2.0;" x1="1459" x2="2200" y1="981.0469" y2="981.0469"/><text fill="#000000" font-family="sans-serif" font-size="20" lengthAdjust="spacing" textLength="39" x="1471" y="974.3301">400</text><polygon fill="#181818" points="937,1044.3281,927,1048.3281,937,1052.3281,933,1048.3281" style="stroke:#181818;stroke-width:1.0;"/><line style="stroke:#181818;stroke-width:1.0;stroke-dasharray:2.0,2.0;" x1="931" x2="1443" y1="1048.3281" y2="1048.3281"/><text fill="#000000" font-family="sans-serif" font-size="20" lengthAdjust="spacing" textLength="39" x="943" y="1041.6113">400</text><polygon fill="#181818" points="409,1111.6094,399,1115.6094,409,1119.6094,405,1115.6094" style="stroke:#181818;stroke-width:1.0;"/><line style="stroke:#181818;stroke-width:1.0;stroke-dasharray:2.0,2.0;" x1="403" x2="915" y1="1115.6094" y2="1115.6094"/><text fill="#000000" font-family="sans-serif" font-size="20" lengthAdjust="spacing" textLength="39" x="415" y="1108.8926">400</text><polygon fill="#181818" points="82,1178.8906,72,1182.8906,82,1186.8906,78,1182.8906" style="stroke:#181818;stroke-width:1.0;"/><line style="stroke:#181818;stroke-width:1.0;stroke-dasharray:2.0,2.0;" x1="76" x2="392" y1="1182.8906" y2="1182.8906"/><text fill="#000000" font-family="sans-serif" font-size="20" lengthAdjust="spacing" textLength="293" x="88" y="1176.1738">Operation Type update failed</text><line style="stroke:#000000;stroke-width:1.0;stroke-dasharray:2.0,2.0;" x1="10" x2="2937" y1="1198.8906" y2="1198.8906"/><text fill="#000000" font-family="sans-serif" font-size="20" font-weight="bold" lengthAdjust="spacing" textLength="307" x="15" y="1217.4551">[Operation type not found]</text><polygon fill="#181818" points="2222,1248.4531,2212,1252.4531,2222,1256.4531,2218,1252.4531" style="stroke:#181818;stroke-width:1.0;"/><line style="stroke:#181818;stroke-width:1.0;stroke-dasharray:2.0,2.0;" x1="2216" x2="2504" y1="1252.4531" y2="1252.4531"/><text fill="#000000" font-family="sans-serif" font-size="20" lengthAdjust="spacing" textLength="165" x="2228" y="1245.7363">404 (Not Found)</text><polygon fill="#181818" points="1465,1315.7344,1455,1319.7344,1465,1323.7344,1461,1319.7344" style="stroke:#181818;stroke-width:1.0;"/><line style="stroke:#181818;stroke-width:1.0;stroke-dasharray:2.0,2.0;" x1="1459" x2="2200" y1="1319.7344" y2="1319.7344"/><text fill="#000000" font-family="sans-serif" font-size="20" lengthAdjust="spacing" textLength="165" x="1471" y="1313.0176">404 (Not Found)</text><polygon fill="#181818" points="937,1383.0156,927,1387.0156,937,1391.0156,933,1387.0156" style="stroke:#181818;stroke-width:1.0;"/><line style="stroke:#181818;stroke-width:1.0;stroke-dasharray:2.0,2.0;" x1="931" x2="1443" y1="1387.0156" y2="1387.0156"/><text fill="#000000" font-family="sans-serif" font-size="20" lengthAdjust="spacing" textLength="165" x="943" y="1380.2988">404 (Not Found)</text><polygon fill="#181818" points="409,1450.2969,399,1454.2969,409,1458.2969,405,1454.2969" style="stroke:#181818;stroke-width:1.0;"/><line style="stroke:#181818;stroke-width:1.0;stroke-dasharray:2.0,2.0;" x1="403" x2="915" y1="1454.2969" y2="1454.2969"/><text fill="#000000" font-family="sans-serif" font-size="20" lengthAdjust="spacing" textLength="165" x="415" y="1447.5801">404 (Not Found)</text><polygon fill="#181818" points="82,1517.5781,72,1521.5781,82,1525.5781,78,1521.5781" style="stroke:#181818;stroke-width:1.0;"/><line style="stroke:#181818;stroke-width:1.0;stroke-dasharray:2.0,2.0;" x1="76" x2="392" y1="1521.5781" y2="1521.5781"/><text fill="#000000" font-family="sans-serif" font-size="20" lengthAdjust="spacing" textLength="257" x="88" y="1514.8613">Operation Type not found</text><!--SRC=[fLLDZzem4BtxLymHf2vYj_J2eH9jXBJIRf4MUkl5YWUmC7PaEr3wwpj923Y9mvOj4aeo7y-PzsOcRYTrnYtVAvFkK830DS-Ldnljb_8FmjEOkJe4jboBevNUeuOrLmu3tzveaswjsMF7bV5qnpUuz2U5O37rWSzjkJ17gJVWROxCIqynNqQFewT7UC43AlWCYUGRYcMCfzvOc8czrC0Tp9BI90_SO_4mI-3XAxoPtAERqga-tGv-vPaWz_0QMFbPTIaINfEtALHXYmmjzzBerId3mNFoIUEnOKkuvm4MfJBw5oZVYJ5hb4BxKR0h0hlU5j1Bj0UPuXIaTfxh50V3qO4hMHmoq-BdXquxWpB6pdSbTvWP9udaqnJMKei6mBVJSqB08PMNSCQLXqiqU0e7_2sTTmpeTms4Xx2W1ZwiJQv56IymTaRX2LusMItYL9j6sQl5iCoy89AbDD2rNRFZXrjOBQ3MguL5Tc47LNA5G6GjypH5vsZ0ngKjGbDPOEZlf-LIJyXkJsfTVuFELWVtfDPDKxl2FgqdgISrwExQMqvECB4zcSMGNHWwJorbpPAWVw1ieAePH9IlQkeBAz9sWZcNAhS8atVe3_rH1k_K98hNflLEiQAO4Rxl538A6ufndxfHk42M_rITlZfIlQyzBPXI_zQkqiO7wwTlNKt64nZyeD1v4ThQ1Y6b_x2_EXhUW6wnswDZNCCRi3N5_JfsDRm15z0SqV6sXat-kzeLkWLM-jZ_1G00]--></g></svg>