<?xml version="1.0" encoding="UTF-8" standalone="no"?><svg xmlns="http://www.w3.org/2000/svg" xmlns:xlink="http://www.w3.org/1999/xlink" contentStyleType="text/css" height="510px" preserveAspectRatio="none" style="width:1637px;height:510px;background:#FFFFFF;" version="1.1" viewBox="0 0 1637 510" width="1637px" zoomAndPan="magnify"><defs><filter height="300%" id="f16uxvc7w35ao3" width="300%" x="-1" y="-1"><feGaussianBlur result="blurOut" stdDeviation="2.0"/><feColorMatrix in="blurOut" result="blurOut2" type="matrix" values="0 0 0 0 0 0 0 0 0 0 0 0 0 0 0 0 0 0 .4 0"/><feOffset dx="4.0" dy="4.0" in="blurOut2" result="blurOut3"/><feBlend in="SourceGraphic" in2="blurOut3" mode="normal"/></filter></defs><g><text fill="#000000" font-family="sans-serif" font-size="14" font-weight="bold" lengthAdjust="spacing" textLength="167" x="737.25" y="27.9951">5.1.21 Level 2 Diagra</text><rect fill="#FFFFFF" filter="url(#f16uxvc7w35ao3)" height="265.9688" style="stroke:#181818;stroke-width:1.0;" width="10" x="36.5" y="138.5781"/><rect fill="#FFFFFF" filter="url(#f16uxvc7w35ao3)" height="245.6875" style="stroke:#181818;stroke-width:1.0;" width="10" x="682.5" y="167.8594"/><rect fill="#FFFFFF" filter="url(#f16uxvc7w35ao3)" height="87.5625" style="stroke:#181818;stroke-width:1.0;" width="10" x="1216.5" y="279.7031"/><line style="stroke:#181818;stroke-width:0.5;stroke-dasharray:5.0,5.0;" x1="41" x2="41" y1="128.5781" y2="422.5469"/><line style="stroke:#181818;stroke-width:0.5;stroke-dasharray:5.0,5.0;" x1="687.5" x2="687.5" y1="128.5781" y2="422.5469"/><line style="stroke:#181818;stroke-width:0.5;stroke-dasharray:5.0,5.0;" x1="1221" x2="1221" y1="128.5781" y2="422.5469"/><text fill="#000000" font-family="sans-serif" font-size="20" lengthAdjust="spacing" textLength="67" x="5" y="123.8613">ADMIN</text><ellipse cx="41.5" cy="50.7969" fill="#E2E2F0" filter="url(#f16uxvc7w35ao3)" rx="8" ry="8" style="stroke:#181818;stroke-width:0.5;"/><path d="M41.5,58.7969 L41.5,85.7969 M28.5,66.7969 L54.5,66.7969 M41.5,85.7969 L28.5,100.7969 M41.5,85.7969 L54.5,100.7969 " fill="none" filter="url(#f16uxvc7w35ao3)" style="stroke:#181818;stroke-width:0.5;"/><text fill="#000000" font-family="sans-serif" font-size="20" lengthAdjust="spacing" textLength="67" x="5" y="440.1113">ADMIN</text><ellipse cx="41.5" cy="453.3281" fill="#E2E2F0" filter="url(#f16uxvc7w35ao3)" rx="8" ry="8" style="stroke:#181818;stroke-width:0.5;"/><path d="M41.5,461.3281 L41.5,488.3281 M28.5,469.3281 L54.5,469.3281 M41.5,488.3281 L28.5,503.3281 M41.5,488.3281 L54.5,503.3281 " fill="none" filter="url(#f16uxvc7w35ao3)" style="stroke:#181818;stroke-width:0.5;"/><rect fill="#E2E2F0" filter="url(#f16uxvc7w35ao3)" height="37.2813" rx="2.5" ry="2.5" style="stroke:#181818;stroke-width:0.5;" width="35" x="668.5" y="87.2969"/><text fill="#000000" font-family="sans-serif" font-size="20" lengthAdjust="spacing" textLength="21" x="675.5" y="112.8613">UI</text><rect fill="#E2E2F0" filter="url(#f16uxvc7w35ao3)" height="37.2813" rx="2.5" ry="2.5" style="stroke:#181818;stroke-width:0.5;" width="35" x="668.5" y="421.5469"/><text fill="#000000" font-family="sans-serif" font-size="20" lengthAdjust="spacing" textLength="21" x="675.5" y="447.1113">UI</text><rect fill="#E2E2F0" filter="url(#f16uxvc7w35ao3)" height="37.2813" rx="2.5" ry="2.5" style="stroke:#181818;stroke-width:0.5;" width="60" x="1190" y="87.2969"/><text fill="#000000" font-family="sans-serif" font-size="20" lengthAdjust="spacing" textLength="46" x="1197" y="112.8613">MDR</text><rect fill="#E2E2F0" filter="url(#f16uxvc7w35ao3)" height="37.2813" rx="2.5" ry="2.5" style="stroke:#181818;stroke-width:0.5;" width="60" x="1190" y="421.5469"/><text fill="#000000" font-family="sans-serif" font-size="20" lengthAdjust="spacing" textLength="46" x="1197" y="447.1113">MDR</text><rect fill="#FFFFFF" filter="url(#f16uxvc7w35ao3)" height="265.9688" style="stroke:#181818;stroke-width:1.0;" width="10" x="36.5" y="138.5781"/><rect fill="#FFFFFF" filter="url(#f16uxvc7w35ao3)" height="245.6875" style="stroke:#181818;stroke-width:1.0;" width="10" x="682.5" y="167.8594"/><rect fill="#FFFFFF" filter="url(#f16uxvc7w35ao3)" height="87.5625" style="stroke:#181818;stroke-width:1.0;" width="10" x="1216.5" y="279.7031"/><polygon fill="#181818" points="670.5,163.8594,680.5,167.8594,670.5,171.8594,674.5,167.8594" style="stroke:#181818;stroke-width:1.0;"/><line style="stroke:#181818;stroke-width:1.0;" x1="46.5" x2="676.5" y1="167.8594" y2="167.8594"/><text fill="#000000" font-family="sans-serif" font-size="20" lengthAdjust="spacing" textLength="353" x="53.5" y="161.1426">send request to edit operation type</text><polygon fill="#181818" points="57.5,201.1406,47.5,205.1406,57.5,209.1406,53.5,205.1406" style="stroke:#181818;stroke-width:1.0;"/><line style="stroke:#181818;stroke-width:1.0;" x1="51.5" x2="681.5" y1="205.1406" y2="205.1406"/><text fill="#000000" font-family="sans-serif" font-size="20" lengthAdjust="spacing" textLength="612" x="63.5" y="198.4238">ask to especify the ID and the new data of the operation type</text><polygon fill="#181818" points="670.5,238.4219,680.5,242.4219,670.5,246.4219,674.5,242.4219" style="stroke:#181818;stroke-width:1.0;"/><line style="stroke:#181818;stroke-width:1.0;" x1="46.5" x2="676.5" y1="242.4219" y2="242.4219"/><text fill="#000000" font-family="sans-serif" font-size="20" lengthAdjust="spacing" textLength="505" x="53.5" y="235.7051">updateOperationType(ID, newOperationTypeData)</text><polygon fill="#181818" points="1204.5,275.7031,1214.5,279.7031,1204.5,283.7031,1208.5,279.7031" style="stroke:#181818;stroke-width:1.0;"/><line style="stroke:#181818;stroke-width:1.0;" x1="692.5" x2="1210.5" y1="279.7031" y2="279.7031"/><text fill="#000000" font-family="sans-serif" font-size="20" lengthAdjust="spacing" textLength="505" x="699.5" y="272.9863">updateOperationType(ID, newOperationTypeData)</text><line style="stroke:#181818;stroke-width:1.0;stroke-dasharray:2.0,2.0;" x1="1226.5" x2="1268.5" y1="316.9844" y2="316.9844"/><line style="stroke:#181818;stroke-width:1.0;stroke-dasharray:2.0,2.0;" x1="1268.5" x2="1268.5" y1="316.9844" y2="329.9844"/><line style="stroke:#181818;stroke-width:1.0;stroke-dasharray:2.0,2.0;" x1="1227.5" x2="1268.5" y1="329.9844" y2="329.9844"/><polygon fill="#181818" points="1237.5,325.9844,1227.5,329.9844,1237.5,333.9844,1233.5,329.9844" style="stroke:#181818;stroke-width:1.0;"/><text fill="#000000" font-family="sans-serif" font-size="20" lengthAdjust="spacing" textLength="397" x="1233.5" y="310.2676">Validate ID and newOperationTypeData</text><polygon fill="#181818" points="703.5,363.2656,693.5,367.2656,703.5,371.2656,699.5,367.2656" style="stroke:#181818;stroke-width:1.0;"/><line style="stroke:#181818;stroke-width:1.0;stroke-dasharray:2.0,2.0;" x1="697.5" x2="1220.5" y1="367.2656" y2="367.2656"/><text fill="#000000" font-family="sans-serif" font-size="20" lengthAdjust="spacing" textLength="371" x="709.5" y="360.5488">200 (Success) OR 400 (Bad Request)</text><polygon fill="#181818" points="52.5,400.5469,42.5,404.5469,52.5,408.5469,48.5,404.5469" style="stroke:#181818;stroke-width:1.0;"/><line style="stroke:#181818;stroke-width:1.0;" x1="46.5" x2="681.5" y1="404.5469" y2="404.5469"/><text fill="#000000" font-family="sans-serif" font-size="20" lengthAdjust="spacing" textLength="371" x="58.5" y="397.8301">200 (Success) OR 400 (Bad Request)</text><!--SRC=[bP7BQiCm44Nt-ehPDO7cPTfD5eKKKp0q3IHDzuCqZeLbIRN62UdNLtPn7cqtMGX6StNkF1HARJtMM1adIrAWACV6y8kplD5V1CbKt1NCFimd4s_GSbEPiNJL9D1dGrRII6dSHLw4tWaAjEfGQsQoaAC9TA5LpZfPrAwYFv97MUAEDdmq13L9lj12WSeTjDq1rmq9mPhZeyVnR9pCu9NsP221jEj429JiQbYao-mDCCIWpUWzChNn8eNH4sopEGIoAXQASmG6Ta1ACpXFDR9s5lZewKnkCx7DMdAHpgDhsG71azJv4RWWo5A8StUXfGCeP0INT_TVdkSE6X-VqQgNtwCwoDBxrk0gcKQpOQmViMMwlfKxpH1P4G-CUfyFDBfrwfl_ZpyHRSF9T0g3JICbXJ24rHeUsiGpAbZ_x74e55tLEo_jDZR-r3S0]--></g></svg>