<?xml version="1.0" encoding="UTF-8" standalone="no"?><svg xmlns="http://www.w3.org/2000/svg" xmlns:xlink="http://www.w3.org/1999/xlink" contentStyleType="text/css" height="802px" preserveAspectRatio="none" style="width:2297px;height:802px;background:#FFFFFF;" version="1.1" viewBox="0 0 2297 802" width="2297px" zoomAndPan="magnify"><defs/><g><text fill="#000000" font-family="sans-serif" font-size="14" font-weight="bold" lengthAdjust="spacing" textLength="199" x="1051.25" y="27.9951">Level 3 Diagram for 7.2.3</text><rect fill="#FFFFFF" height="660.7813" style="stroke:#181818;stroke-width:1.0;" width="10" x="19.5" y="90.5781"/><rect fill="#FFFFFF" height="622.5" style="stroke:#181818;stroke-width:1.0;" width="10" x="437.5" y="119.8594"/><rect fill="#FFFFFF" height="547.9375" style="stroke:#181818;stroke-width:1.0;" width="10" x="739.5" y="157.1406"/><rect fill="#FFFFFF" height="473.375" style="stroke:#181818;stroke-width:1.0;" width="10" x="1041.5" y="194.4219"/><rect fill="#FFFFFF" height="236.6875" style="stroke:#181818;stroke-width:1.0;" width="10" x="1276.5" y="231.7031"/><rect fill="#FFFFFF" height="124.8438" style="stroke:#181818;stroke-width:1.0;" width="10" x="1601.5" y="505.6719"/><rect fill="#FFFFFF" height="162.125" style="stroke:#181818;stroke-width:1.0;" width="10" x="1757" y="268.9844"/><rect fill="#FFFFFF" height="43.2813" style="stroke:#181818;stroke-width:1.0;" width="10" x="1913" y="542.9531"/><rect fill="#FFFFFF" height="87.5625" style="stroke:#181818;stroke-width:1.0;" width="10" x="2040.5" y="306.2656"/><line style="stroke:#181818;stroke-width:0.5;stroke-dasharray:5.0,5.0;" x1="24" x2="24" y1="80.5781" y2="760.3594"/><line style="stroke:#181818;stroke-width:0.5;stroke-dasharray:5.0,5.0;" x1="442" x2="442" y1="80.5781" y2="760.3594"/><line style="stroke:#181818;stroke-width:0.5;stroke-dasharray:5.0,5.0;" x1="744" x2="744" y1="80.5781" y2="760.3594"/><line style="stroke:#181818;stroke-width:0.5;stroke-dasharray:5.0,5.0;" x1="1046" x2="1046" y1="80.5781" y2="760.3594"/><line style="stroke:#181818;stroke-width:0.5;stroke-dasharray:5.0,5.0;" x1="1281" x2="1281" y1="80.5781" y2="760.3594"/><line style="stroke:#181818;stroke-width:0.5;stroke-dasharray:5.0,5.0;" x1="1606.5" x2="1606.5" y1="80.5781" y2="760.3594"/><line style="stroke:#181818;stroke-width:0.5;stroke-dasharray:5.0,5.0;" x1="1761.5" x2="1761.5" y1="80.5781" y2="760.3594"/><line style="stroke:#181818;stroke-width:0.5;stroke-dasharray:5.0,5.0;" x1="1917.5" x2="1917.5" y1="80.5781" y2="760.3594"/><line style="stroke:#181818;stroke-width:0.5;stroke-dasharray:5.0,5.0;" x1="2045.5" x2="2045.5" y1="80.5781" y2="760.3594"/><rect fill="#E2E2F0" height="37.2813" rx="2.5" ry="2.5" style="stroke:#181818;stroke-width:0.5;" width="39" x="5" y="42.2969"/><text fill="#000000" font-family="sans-serif" font-size="20" lengthAdjust="spacing" textLength="25" x="12" y="67.8613">FE</text><rect fill="#E2E2F0" height="37.2813" rx="2.5" ry="2.5" style="stroke:#181818;stroke-width:0.5;" width="39" x="5" y="759.3594"/><text fill="#000000" font-family="sans-serif" font-size="20" lengthAdjust="spacing" textLength="25" x="12" y="784.9238">FE</text><rect fill="#E2E2F0" height="37.2813" rx="2.5" ry="2.5" style="stroke:#181818;stroke-width:0.5;" width="151" x="367" y="42.2969"/><text fill="#000000" font-family="sans-serif" font-size="20" lengthAdjust="spacing" textLength="137" x="374" y="67.8613">AllergyRouter</text><rect fill="#E2E2F0" height="37.2813" rx="2.5" ry="2.5" style="stroke:#181818;stroke-width:0.5;" width="151" x="367" y="759.3594"/><text fill="#000000" font-family="sans-serif" font-size="20" lengthAdjust="spacing" textLength="137" x="374" y="784.9238">AllergyRouter</text><rect fill="#E2E2F0" height="37.2813" rx="2.5" ry="2.5" style="stroke:#181818;stroke-width:0.5;" width="183" x="653" y="42.2969"/><text fill="#000000" font-family="sans-serif" font-size="20" lengthAdjust="spacing" textLength="169" x="660" y="67.8613">AllergyController</text><rect fill="#E2E2F0" height="37.2813" rx="2.5" ry="2.5" style="stroke:#181818;stroke-width:0.5;" width="183" x="653" y="759.3594"/><text fill="#000000" font-family="sans-serif" font-size="20" lengthAdjust="spacing" textLength="169" x="660" y="784.9238">AllergyController</text><rect fill="#E2E2F0" height="37.2813" rx="2.5" ry="2.5" style="stroke:#181818;stroke-width:0.5;" width="157" x="968" y="42.2969"/><text fill="#000000" font-family="sans-serif" font-size="20" lengthAdjust="spacing" textLength="143" x="975" y="67.8613">AllergyService</text><rect fill="#E2E2F0" height="37.2813" rx="2.5" ry="2.5" style="stroke:#181818;stroke-width:0.5;" width="157" x="968" y="759.3594"/><text fill="#000000" font-family="sans-serif" font-size="20" lengthAdjust="spacing" textLength="143" x="975" y="784.9238">AllergyService</text><rect fill="#E2E2F0" height="37.2813" rx="2.5" ry="2.5" style="stroke:#181818;stroke-width:0.5;" width="135" x="1214" y="42.2969"/><text fill="#000000" font-family="sans-serif" font-size="20" lengthAdjust="spacing" textLength="121" x="1221" y="67.8613">AllergyRepo</text><rect fill="#E2E2F0" height="37.2813" rx="2.5" ry="2.5" style="stroke:#181818;stroke-width:0.5;" width="135" x="1214" y="759.3594"/><text fill="#000000" font-family="sans-serif" font-size="20" lengthAdjust="spacing" textLength="121" x="1221" y="784.9238">AllergyRepo</text><rect fill="#E2E2F0" height="37.2813" rx="2.5" ry="2.5" style="stroke:#181818;stroke-width:0.5;" width="126" x="1543.5" y="42.2969"/><text fill="#000000" font-family="sans-serif" font-size="20" lengthAdjust="spacing" textLength="112" x="1550.5" y="67.8613">AllergyMap</text><rect fill="#E2E2F0" height="37.2813" rx="2.5" ry="2.5" style="stroke:#181818;stroke-width:0.5;" width="126" x="1543.5" y="759.3594"/><text fill="#000000" font-family="sans-serif" font-size="20" lengthAdjust="spacing" textLength="112" x="1550.5" y="784.9238">AllergyMap</text><rect fill="#E2E2F0" height="37.2813" rx="2.5" ry="2.5" style="stroke:#181818;stroke-width:0.5;" width="165" x="1679.5" y="42.2969"/><text fill="#000000" font-family="sans-serif" font-size="20" lengthAdjust="spacing" textLength="151" x="1686.5" y="67.8613">AllergySchema</text><rect fill="#E2E2F0" height="37.2813" rx="2.5" ry="2.5" style="stroke:#181818;stroke-width:0.5;" width="165" x="1679.5" y="759.3594"/><text fill="#000000" font-family="sans-serif" font-size="20" lengthAdjust="spacing" textLength="151" x="1686.5" y="784.9238">AllergySchema</text><rect fill="#E2E2F0" height="37.2813" rx="2.5" ry="2.5" style="stroke:#181818;stroke-width:0.5;" width="127" x="1854.5" y="42.2969"/><text fill="#000000" font-family="sans-serif" font-size="20" lengthAdjust="spacing" textLength="113" x="1861.5" y="67.8613">AllergyDTO</text><rect fill="#E2E2F0" height="37.2813" rx="2.5" ry="2.5" style="stroke:#181818;stroke-width:0.5;" width="127" x="1854.5" y="759.3594"/><text fill="#000000" font-family="sans-serif" font-size="20" lengthAdjust="spacing" textLength="113" x="1861.5" y="784.9238">AllergyDTO</text><rect fill="#E2E2F0" height="37.2813" rx="2.5" ry="2.5" style="stroke:#181818;stroke-width:0.5;" width="108" x="1991.5" y="42.2969"/><text fill="#000000" font-family="sans-serif" font-size="20" lengthAdjust="spacing" textLength="94" x="1998.5" y="67.8613">Database</text><rect fill="#E2E2F0" height="37.2813" rx="2.5" ry="2.5" style="stroke:#181818;stroke-width:0.5;" width="108" x="1991.5" y="759.3594"/><text fill="#000000" font-family="sans-serif" font-size="20" lengthAdjust="spacing" textLength="94" x="1998.5" y="784.9238">Database</text><rect fill="#FFFFFF" height="660.7813" style="stroke:#181818;stroke-width:1.0;" width="10" x="19.5" y="90.5781"/><rect fill="#FFFFFF" height="622.5" style="stroke:#181818;stroke-width:1.0;" width="10" x="437.5" y="119.8594"/><rect fill="#FFFFFF" height="547.9375" style="stroke:#181818;stroke-width:1.0;" width="10" x="739.5" y="157.1406"/><rect fill="#FFFFFF" height="473.375" style="stroke:#181818;stroke-width:1.0;" width="10" x="1041.5" y="194.4219"/><rect fill="#FFFFFF" height="236.6875" style="stroke:#181818;stroke-width:1.0;" width="10" x="1276.5" y="231.7031"/><rect fill="#FFFFFF" height="124.8438" style="stroke:#181818;stroke-width:1.0;" width="10" x="1601.5" y="505.6719"/><rect fill="#FFFFFF" height="162.125" style="stroke:#181818;stroke-width:1.0;" width="10" x="1757" y="268.9844"/><rect fill="#FFFFFF" height="43.2813" style="stroke:#181818;stroke-width:1.0;" width="10" x="1913" y="542.9531"/><rect fill="#FFFFFF" height="87.5625" style="stroke:#181818;stroke-width:1.0;" width="10" x="2040.5" y="306.2656"/><polygon fill="#000000" points="425.5,115.8594,435.5,119.8594,425.5,123.8594,429.5,119.8594" style="stroke:#000000;stroke-width:1.0;"/><line style="stroke:#000000;stroke-width:1.0;" x1="29.5" x2="431.5" y1="119.8594" y2="119.8594"/><text fill="#000000" font-family="sans-serif" font-size="20" lengthAdjust="spacing" textLength="389" x="36.5" y="113.1426">Makes Http Request to get all Allergies</text><polygon fill="#000000" points="727.5,153.1406,737.5,157.1406,727.5,161.1406,731.5,157.1406" style="stroke:#000000;stroke-width:1.0;"/><line style="stroke:#000000;stroke-width:1.0;" x1="447.5" x2="733.5" y1="157.1406" y2="157.1406"/><text fill="#000000" font-family="sans-serif" font-size="20" lengthAdjust="spacing" textLength="264" x="454.5" y="150.4238">listAllergies(req, res, next)</text><polygon fill="#000000" points="1029.5,190.4219,1039.5,194.4219,1029.5,198.4219,1033.5,194.4219" style="stroke:#000000;stroke-width:1.0;"/><line style="stroke:#000000;stroke-width:1.0;" x1="749.5" x2="1035.5" y1="194.4219" y2="194.4219"/><text fill="#000000" font-family="sans-serif" font-size="20" lengthAdjust="spacing" textLength="133" x="756.5" y="187.7051">listAllergies()</text><polygon fill="#000000" points="1264.5,227.7031,1274.5,231.7031,1264.5,235.7031,1268.5,231.7031" style="stroke:#000000;stroke-width:1.0;"/><line style="stroke:#000000;stroke-width:1.0;" x1="1051.5" x2="1270.5" y1="231.7031" y2="231.7031"/><text fill="#000000" font-family="sans-serif" font-size="20" lengthAdjust="spacing" textLength="79" x="1058.5" y="224.9863">findall()</text><polygon fill="#000000" points="1745,264.9844,1755,268.9844,1745,272.9844,1749,268.9844" style="stroke:#000000;stroke-width:1.0;"/><line style="stroke:#000000;stroke-width:1.0;" x1="1286.5" x2="1751" y1="268.9844" y2="268.9844"/><text fill="#000000" font-family="sans-serif" font-size="20" lengthAdjust="spacing" textLength="55" x="1293.5" y="262.2676">find()</text><polygon fill="#000000" points="2028.5,302.2656,2038.5,306.2656,2028.5,310.2656,2032.5,306.2656" style="stroke:#000000;stroke-width:1.0;"/><line style="stroke:#000000;stroke-width:1.0;" x1="1767" x2="2034.5" y1="306.2656" y2="306.2656"/><text fill="#000000" font-family="sans-serif" font-size="20" lengthAdjust="spacing" textLength="73" x="1774" y="299.5488">query()</text><line style="stroke:#000000;stroke-width:1.0;" x1="2050.5" x2="2092.5" y1="343.5469" y2="343.5469"/><line style="stroke:#000000;stroke-width:1.0;" x1="2092.5" x2="2092.5" y1="343.5469" y2="356.5469"/><line style="stroke:#000000;stroke-width:1.0;" x1="2051.5" x2="2092.5" y1="356.5469" y2="356.5469"/><polygon fill="#000000" points="2061.5,352.5469,2051.5,356.5469,2061.5,360.5469,2057.5,356.5469" style="stroke:#000000;stroke-width:1.0;"/><text fill="#000000" font-family="sans-serif" font-size="20" lengthAdjust="spacing" textLength="233" x="2057.5" y="336.8301">SELECT * FROM Allergy</text><polygon fill="#000000" points="1778,389.8281,1768,393.8281,1778,397.8281,1774,393.8281" style="stroke:#000000;stroke-width:1.0;"/><line style="stroke:#000000;stroke-width:1.0;stroke-dasharray:2.0,2.0;" x1="1772" x2="2044.5" y1="393.8281" y2="393.8281"/><text fill="#000000" font-family="sans-serif" font-size="20" lengthAdjust="spacing" textLength="201" x="1784" y="387.1113">Returns all Allergies</text><polygon fill="#000000" points="1297.5,427.1094,1287.5,431.1094,1297.5,435.1094,1293.5,431.1094" style="stroke:#000000;stroke-width:1.0;"/><line style="stroke:#000000;stroke-width:1.0;stroke-dasharray:2.0,2.0;" x1="1291.5" x2="1761" y1="431.1094" y2="431.1094"/><text fill="#000000" font-family="sans-serif" font-size="20" lengthAdjust="spacing" textLength="201" x="1303.5" y="424.3926">Returns all Allergies</text><polygon fill="#000000" points="1062.5,464.3906,1052.5,468.3906,1062.5,472.3906,1058.5,468.3906" style="stroke:#000000;stroke-width:1.0;"/><line style="stroke:#000000;stroke-width:1.0;stroke-dasharray:2.0,2.0;" x1="1056.5" x2="1280.5" y1="468.3906" y2="468.3906"/><text fill="#000000" font-family="sans-serif" font-size="20" lengthAdjust="spacing" textLength="201" x="1068.5" y="461.6738">Returns all Allergies</text><polygon fill="#000000" points="1589.5,501.6719,1599.5,505.6719,1589.5,509.6719,1593.5,505.6719" style="stroke:#000000;stroke-width:1.0;"/><line style="stroke:#000000;stroke-width:1.0;" x1="1051.5" x2="1595.5" y1="505.6719" y2="505.6719"/><text fill="#000000" font-family="sans-serif" font-size="20" lengthAdjust="spacing" textLength="531" x="1058.5" y="498.9551">allergies.map(allergy =&gt; AllergyMap.toDTO(allergy))</text><polygon fill="#000000" points="1901,538.9531,1911,542.9531,1901,546.9531,1905,542.9531" style="stroke:#000000;stroke-width:1.0;"/><line style="stroke:#000000;stroke-width:1.0;" x1="1611.5" x2="1907" y1="542.9531" y2="542.9531"/><text fill="#000000" font-family="sans-serif" font-size="20" lengthAdjust="spacing" textLength="204" x="1618.5" y="536.2363">create(AllergyProps)</text><line style="stroke:#000000;stroke-width:1.0;" x1="1923" x2="1965" y1="585.2344" y2="585.2344"/><line style="stroke:#000000;stroke-width:1.0;" x1="1965" x2="1965" y1="585.2344" y2="598.2344"/><line style="stroke:#000000;stroke-width:1.0;" x1="1918" x2="1965" y1="598.2344" y2="598.2344"/><polygon fill="#000000" points="1928,594.2344,1918,598.2344,1928,602.2344,1924,598.2344" style="stroke:#000000;stroke-width:1.0;"/><text fill="#000000" font-family="sans-serif" font-size="20" lengthAdjust="spacing" textLength="79" x="1930" y="578.5176">create()</text><polygon fill="#000000" points="1062.5,626.5156,1052.5,630.5156,1062.5,634.5156,1058.5,630.5156" style="stroke:#000000;stroke-width:1.0;"/><line style="stroke:#000000;stroke-width:1.0;stroke-dasharray:2.0,2.0;" x1="1056.5" x2="1605.5" y1="630.5156" y2="630.5156"/><text fill="#000000" font-family="sans-serif" font-size="20" lengthAdjust="spacing" textLength="266" x="1068.5" y="623.7988">Returns list of allergyDTOs</text><polygon fill="#000000" points="760.5,663.7969,750.5,667.7969,760.5,671.7969,756.5,667.7969" style="stroke:#000000;stroke-width:1.0;"/><line style="stroke:#000000;stroke-width:1.0;stroke-dasharray:2.0,2.0;" x1="754.5" x2="1045.5" y1="667.7969" y2="667.7969"/><text fill="#000000" font-family="sans-serif" font-size="20" lengthAdjust="spacing" textLength="268" x="766.5" y="661.0801">Returns list of AllergyDTOs</text><polygon fill="#000000" points="458.5,701.0781,448.5,705.0781,458.5,709.0781,454.5,705.0781" style="stroke:#000000;stroke-width:1.0;"/><line style="stroke:#000000;stroke-width:1.0;stroke-dasharray:2.0,2.0;" x1="452.5" x2="743.5" y1="705.0781" y2="705.0781"/><text fill="#000000" font-family="sans-serif" font-size="20" lengthAdjust="spacing" textLength="268" x="464.5" y="698.3613">Returns list of AllergyDTOs</text><polygon fill="#000000" points="40.5,738.3594,30.5,742.3594,40.5,746.3594,36.5,742.3594" style="stroke:#000000;stroke-width:1.0;"/><line style="stroke:#000000;stroke-width:1.0;stroke-dasharray:2.0,2.0;" x1="34.5" x2="441.5" y1="742.3594" y2="742.3594"/><text fill="#000000" font-family="sans-serif" font-size="20" lengthAdjust="spacing" textLength="268" x="46.5" y="735.6426">Returns list of AllergyDTOs</text><!--SRC=[ZPFTRjf048Nlzob6oGrKAKg9shHMYeJ_r0kiL3Oli343MM5xdTs5bbPvzyvwpOyJfu4B2-zyPsRdw5YlHLLpnSj2vcjSm0ANV5EOM5Oc4tyGnjUC6M4AX1bkiO0R20LV4GzBgU1sD1xTi4UnGC2oDZieiNn0fHdJ-xwG5rnh-Ck0VZxFroibDzKYa8LKTtSvpL6oA51D9d0PVeccyTT-KgFQYXmRx5CyZln-J64jjJ1IxImPXv4VNlUJ9Q_hTkn_-c55sx_JYsfH_2swRMfJfUGlT-mNnB7dKpDgEk4hxBS3BYC__XpxLaAu4RceUMKWZe1h23jd5rDhscgNoer1TM61QJg7NYOucEoue1_BdCEEoVgPbEnjX_K32QzTFNbZIFw89NV8pBtqW-7ylgNeNvS8kU4FNBkRXZvZF3TYomsIHo5yd5WdF4Zu6ZNyCAQ659ysg0qO2Iiqm8i2t1I1-YWc5RCUsWQ11uNGva0D53vTWK9z1HN-DiCJLS38KAl9NcfEgOoHfStLF5YAQa5twDHJ6jtKMrCSrK7Q2ZluHdZeUq2xgTqfIPQ4_hwQHRCecCC7YDFxf5rxrzGxqr8q6rNfhZV05dZQzJYvtUHzrV7MgLDbPwdIlLs9Pp67ZEYJ7RYt7NoVm35o8oCf9VlQyDIrX54KcrM9y21NICU3LlfJoLftFBPXQvwlDSFkNWsPl5hAHW3aihsrZR7kw99cipPZBqNJDqHPax5ziizL1IxEDWZdY-WZ-0S0]--></g></svg>