<?xml version="1.0" encoding="UTF-8" standalone="no"?><svg xmlns="http://www.w3.org/2000/svg" xmlns:xlink="http://www.w3.org/1999/xlink" contentStyleType="text/css" height="810px" preserveAspectRatio="none" style="width:3015px;height:810px;background:#FFFFFF;" version="1.1" viewBox="0 0 3015 810" width="3015px" zoomAndPan="magnify"><defs/><g><text fill="#000000" font-family="sans-serif" font-size="14" font-weight="bold" lengthAdjust="spacing" textLength="222" x="1398.5" y="27.9951">Level 3 FE Diagram for 7.2.3</text><rect fill="#FFFFFF" height="578.2188" style="stroke:#181818;stroke-width:1.0;" width="10" x="36" y="135.5781"/><rect fill="#FFFFFF" height="539.9375" style="stroke:#181818;stroke-width:1.0;" width="10" x="381" y="164.8594"/><rect fill="#FFFFFF" height="37.2813" style="stroke:#181818;stroke-width:1.0;" width="10" x="801" y="202.1406"/><rect fill="#FFFFFF" height="428.0938" style="stroke:#181818;stroke-width:1.0;" width="10" x="1447" y="239.4219"/><rect fill="#FFFFFF" height="353.5313" style="stroke:#181818;stroke-width:1.0;" width="10" x="1780" y="276.7031"/><rect fill="#FFFFFF" height="278.9688" style="stroke:#181818;stroke-width:1.0;" width="10" x="2203" y="313.9844"/><rect fill="#FFFFFF" height="87.5625" style="stroke:#181818;stroke-width:1.0;" width="10" x="2790" y="468.1094"/><line style="stroke:#181818;stroke-width:0.5;stroke-dasharray:5.0,5.0;" x1="41" x2="41" y1="125.5781" y2="722.7969"/><line style="stroke:#181818;stroke-width:0.5;stroke-dasharray:5.0,5.0;" x1="385.5" x2="385.5" y1="125.5781" y2="722.7969"/><line style="stroke:#181818;stroke-width:0.5;stroke-dasharray:5.0,5.0;" x1="805.5" x2="805.5" y1="125.5781" y2="722.7969"/><line style="stroke:#181818;stroke-width:0.5;stroke-dasharray:5.0,5.0;" x1="1451.5" x2="1451.5" y1="125.5781" y2="722.7969"/><line style="stroke:#181818;stroke-width:0.5;stroke-dasharray:5.0,5.0;" x1="1784.5" x2="1784.5" y1="125.5781" y2="722.7969"/><line style="stroke:#181818;stroke-width:0.5;stroke-dasharray:5.0,5.0;" x1="2207.5" x2="2207.5" y1="125.5781" y2="722.7969"/><line style="stroke:#181818;stroke-width:0.5;stroke-dasharray:5.0,5.0;" x1="2795" x2="2795" y1="125.5781" y2="722.7969"/><text fill="#000000" font-family="sans-serif" font-size="20" lengthAdjust="spacing" textLength="66" x="5" y="120.8613">Doctor</text><ellipse cx="41" cy="50.7969" fill="#E2E2F0" rx="8" ry="8" style="stroke:#181818;stroke-width:0.5;"/><path d="M41,58.7969 L41,85.7969 M28,66.7969 L54,66.7969 M41,85.7969 L28,100.7969 M41,85.7969 L54,100.7969 " fill="none" style="stroke:#181818;stroke-width:0.5;"/><text fill="#000000" font-family="sans-serif" font-size="20" lengthAdjust="spacing" textLength="66" x="5" y="740.3613">Doctor</text><ellipse cx="41" cy="753.5781" fill="#E2E2F0" rx="8" ry="8" style="stroke:#181818;stroke-width:0.5;"/><path d="M41,761.5781 L41,788.5781 M28,769.5781 L54,769.5781 M41,788.5781 L28,803.5781 M41,788.5781 L54,803.5781 " fill="none" style="stroke:#181818;stroke-width:0.5;"/><rect fill="#E2E2F0" height="37.2813" rx="2.5" ry="2.5" style="stroke:#181818;stroke-width:0.5;" width="63" x="354.5" y="87.2969"/><text fill="#000000" font-family="sans-serif" font-size="20" lengthAdjust="spacing" textLength="49" x="361.5" y="112.8613">View</text><rect fill="#E2E2F0" height="37.2813" rx="2.5" ry="2.5" style="stroke:#181818;stroke-width:0.5;" width="63" x="354.5" y="721.7969"/><text fill="#000000" font-family="sans-serif" font-size="20" lengthAdjust="spacing" textLength="49" x="361.5" y="747.3613">View</text><rect fill="#E2E2F0" height="37.2813" rx="2.5" ry="2.5" style="stroke:#181818;stroke-width:0.5;" width="365" x="623.5" y="87.2969"/><text fill="#000000" font-family="sans-serif" font-size="20" lengthAdjust="spacing" textLength="351" x="630.5" y="112.8613">MedicalHistoryManagerComponent</text><rect fill="#E2E2F0" height="37.2813" rx="2.5" ry="2.5" style="stroke:#181818;stroke-width:0.5;" width="365" x="623.5" y="721.7969"/><text fill="#000000" font-family="sans-serif" font-size="20" lengthAdjust="spacing" textLength="351" x="630.5" y="747.3613">MedicalHistoryManagerComponent</text><rect fill="#E2E2F0" height="37.2813" rx="2.5" ry="2.5" style="stroke:#181818;stroke-width:0.5;" width="351" x="1276.5" y="87.2969"/><text fill="#000000" font-family="sans-serif" font-size="20" lengthAdjust="spacing" textLength="337" x="1283.5" y="112.8613">UpdateMedicalHistoryComponent</text><rect fill="#E2E2F0" height="37.2813" rx="2.5" ry="2.5" style="stroke:#181818;stroke-width:0.5;" width="351" x="1276.5" y="721.7969"/><text fill="#000000" font-family="sans-serif" font-size="20" lengthAdjust="spacing" textLength="337" x="1283.5" y="747.3613">UpdateMedicalHistoryComponent</text><rect fill="#E2E2F0" height="37.2813" rx="2.5" ry="2.5" style="stroke:#181818;stroke-width:0.5;" width="157" x="1706.5" y="87.2969"/><text fill="#000000" font-family="sans-serif" font-size="20" lengthAdjust="spacing" textLength="143" x="1713.5" y="112.8613">AllergyService</text><rect fill="#E2E2F0" height="37.2813" rx="2.5" ry="2.5" style="stroke:#181818;stroke-width:0.5;" width="157" x="1706.5" y="721.7969"/><text fill="#000000" font-family="sans-serif" font-size="20" lengthAdjust="spacing" textLength="143" x="1713.5" y="747.3613">AllergyService</text><rect fill="#E2E2F0" height="37.2813" rx="2.5" ry="2.5" style="stroke:#181818;stroke-width:0.5;" width="173" x="2121.5" y="87.2969"/><text fill="#000000" font-family="sans-serif" font-size="20" lengthAdjust="spacing" textLength="159" x="2128.5" y="112.8613">AuthInterceptor</text><rect fill="#E2E2F0" height="37.2813" rx="2.5" ry="2.5" style="stroke:#181818;stroke-width:0.5;" width="173" x="2121.5" y="721.7969"/><text fill="#000000" font-family="sans-serif" font-size="20" lengthAdjust="spacing" textLength="159" x="2128.5" y="747.3613">AuthInterceptor</text><rect fill="#E2E2F0" height="37.2813" rx="2.5" ry="2.5" style="stroke:#181818;stroke-width:0.5;" width="60" x="2765" y="87.2969"/><text fill="#000000" font-family="sans-serif" font-size="20" lengthAdjust="spacing" textLength="46" x="2772" y="112.8613">MDV</text><rect fill="#E2E2F0" height="37.2813" rx="2.5" ry="2.5" style="stroke:#181818;stroke-width:0.5;" width="60" x="2765" y="721.7969"/><text fill="#000000" font-family="sans-serif" font-size="20" lengthAdjust="spacing" textLength="46" x="2772" y="747.3613">MDV</text><rect fill="#FFFFFF" height="578.2188" style="stroke:#181818;stroke-width:1.0;" width="10" x="36" y="135.5781"/><rect fill="#FFFFFF" height="539.9375" style="stroke:#181818;stroke-width:1.0;" width="10" x="381" y="164.8594"/><rect fill="#FFFFFF" height="37.2813" style="stroke:#181818;stroke-width:1.0;" width="10" x="801" y="202.1406"/><rect fill="#FFFFFF" height="428.0938" style="stroke:#181818;stroke-width:1.0;" width="10" x="1447" y="239.4219"/><rect fill="#FFFFFF" height="353.5313" style="stroke:#181818;stroke-width:1.0;" width="10" x="1780" y="276.7031"/><rect fill="#FFFFFF" height="278.9688" style="stroke:#181818;stroke-width:1.0;" width="10" x="2203" y="313.9844"/><rect fill="#FFFFFF" height="87.5625" style="stroke:#181818;stroke-width:1.0;" width="10" x="2790" y="468.1094"/><polygon fill="#000000" points="369,160.8594,379,164.8594,369,168.8594,373,164.8594" style="stroke:#000000;stroke-width:1.0;"/><line style="stroke:#000000;stroke-width:1.0;" x1="46" x2="375" y1="164.8594" y2="164.8594"/><text fill="#000000" font-family="sans-serif" font-size="20" lengthAdjust="spacing" textLength="316" x="53" y="158.1426">Requests to search for Allergies</text><polygon fill="#000000" points="789,198.1406,799,202.1406,789,206.1406,793,202.1406" style="stroke:#000000;stroke-width:1.0;"/><line style="stroke:#000000;stroke-width:1.0;" x1="391" x2="795" y1="202.1406" y2="202.1406"/><text fill="#000000" font-family="sans-serif" font-size="20" lengthAdjust="spacing" textLength="391" x="398" y="195.4238">routerLink='/medical-history-manager'</text><polygon fill="#000000" points="1435,235.4219,1445,239.4219,1435,243.4219,1439,239.4219" style="stroke:#000000;stroke-width:1.0;"/><line style="stroke:#000000;stroke-width:1.0;" x1="806" x2="1441" y1="239.4219" y2="239.4219"/><text fill="#000000" font-family="sans-serif" font-size="20" lengthAdjust="spacing" textLength="617" x="813" y="232.7051">routerLink='/update-medical-history/:medicalRecordNumber'</text><polygon fill="#000000" points="1768,272.7031,1778,276.7031,1768,280.7031,1772,276.7031" style="stroke:#000000;stroke-width:1.0;"/><line style="stroke:#000000;stroke-width:1.0;" x1="1457" x2="1774" y1="276.7031" y2="276.7031"/><text fill="#000000" font-family="sans-serif" font-size="20" lengthAdjust="spacing" textLength="136" x="1464" y="269.9863">getAllergies()</text><polygon fill="#000000" points="2191,309.9844,2201,313.9844,2191,317.9844,2195,313.9844" style="stroke:#000000;stroke-width:1.0;"/><line style="stroke:#000000;stroke-width:1.0;" x1="1790" x2="2197" y1="313.9844" y2="313.9844"/><text fill="#000000" font-family="sans-serif" font-size="20" lengthAdjust="spacing" textLength="394" x="1797" y="307.2676">Sends HTTP Request to get all Allergies</text><line style="stroke:#000000;stroke-width:1.0;" x1="2213" x2="2255" y1="351.2656" y2="351.2656"/><line style="stroke:#000000;stroke-width:1.0;" x1="2255" x2="2255" y1="351.2656" y2="364.2656"/><line style="stroke:#000000;stroke-width:1.0;" x1="2214" x2="2255" y1="364.2656" y2="364.2656"/><polygon fill="#000000" points="2224,360.2656,2214,364.2656,2224,368.2656,2220,364.2656" style="stroke:#000000;stroke-width:1.0;"/><text fill="#000000" font-family="sans-serif" font-size="20" lengthAdjust="spacing" textLength="563" x="2220" y="344.5488">Intercepts the request and adds the token to the header</text><path d="M2218,377.2656 L2218,433.2656 L2737,433.2656 L2737,387.2656 L2727,377.2656 L2218,377.2656 " fill="#FEFFDD" style="stroke:#181818;stroke-width:0.5;"/><path d="M2727,377.2656 L2727,387.2656 L2737,387.2656 L2727,377.2656 " fill="#FEFFDD" style="stroke:#181818;stroke-width:0.5;"/><text fill="#000000" font-family="sans-serif" font-size="20" lengthAdjust="spacing" textLength="498" x="2224" y="400.8301">The token is added to the header so that the MDV</text><text fill="#000000" font-family="sans-serif" font-size="20" lengthAdjust="spacing" textLength="442" x="2224" y="424.1113">can authenticate and authorize the request.</text><polygon fill="#000000" points="2778,464.1094,2788,468.1094,2778,472.1094,2782,468.1094" style="stroke:#000000;stroke-width:1.0;"/><line style="stroke:#000000;stroke-width:1.0;" x1="2213" x2="2784" y1="468.1094" y2="468.1094"/><text fill="#000000" font-family="sans-serif" font-size="20" lengthAdjust="spacing" textLength="507" x="2220" y="461.3926">Sends HTTP Request with token to get all Allergies</text><line style="stroke:#000000;stroke-width:1.0;" x1="2800" x2="2842" y1="505.3906" y2="505.3906"/><line style="stroke:#000000;stroke-width:1.0;" x1="2842" x2="2842" y1="505.3906" y2="518.3906"/><line style="stroke:#000000;stroke-width:1.0;" x1="2801" x2="2842" y1="518.3906" y2="518.3906"/><polygon fill="#000000" points="2811,514.3906,2801,518.3906,2811,522.3906,2807,518.3906" style="stroke:#000000;stroke-width:1.0;"/><text fill="#000000" font-family="sans-serif" font-size="20" lengthAdjust="spacing" textLength="201" x="2807" y="498.6738">Fetches all Allergies</text><polygon fill="#000000" points="2224,551.6719,2214,555.6719,2224,559.6719,2220,555.6719" style="stroke:#000000;stroke-width:1.0;"/><line style="stroke:#000000;stroke-width:1.0;stroke-dasharray:2.0,2.0;" x1="2218" x2="2794" y1="555.6719" y2="555.6719"/><text fill="#000000" font-family="sans-serif" font-size="20" lengthAdjust="spacing" textLength="299" x="2230" y="548.9551">Returns get results (Allergies)</text><polygon fill="#000000" points="1801,588.9531,1791,592.9531,1801,596.9531,1797,592.9531" style="stroke:#000000;stroke-width:1.0;"/><line style="stroke:#000000;stroke-width:1.0;stroke-dasharray:2.0,2.0;" x1="1795" x2="2207" y1="592.9531" y2="592.9531"/><text fill="#000000" font-family="sans-serif" font-size="20" lengthAdjust="spacing" textLength="299" x="1807" y="586.2363">Returns get results (Allergies)</text><polygon fill="#000000" points="1468,626.2344,1458,630.2344,1468,634.2344,1464,630.2344" style="stroke:#000000;stroke-width:1.0;"/><line style="stroke:#000000;stroke-width:1.0;stroke-dasharray:2.0,2.0;" x1="1462" x2="1784" y1="630.2344" y2="630.2344"/><text fill="#000000" font-family="sans-serif" font-size="20" lengthAdjust="spacing" textLength="299" x="1474" y="623.5176">Returns get results (Allergies)</text><polygon fill="#000000" points="402,663.5156,392,667.5156,402,671.5156,398,667.5156" style="stroke:#000000;stroke-width:1.0;"/><line style="stroke:#000000;stroke-width:1.0;stroke-dasharray:2.0,2.0;" x1="396" x2="1451" y1="667.5156" y2="667.5156"/><text fill="#000000" font-family="sans-serif" font-size="20" lengthAdjust="spacing" textLength="299" x="408" y="660.7988">Returns get results (Allergies)</text><polygon fill="#000000" points="57,700.7969,47,704.7969,57,708.7969,53,704.7969" style="stroke:#000000;stroke-width:1.0;"/><line style="stroke:#000000;stroke-width:1.0;stroke-dasharray:2.0,2.0;" x1="51" x2="385" y1="704.7969" y2="704.7969"/><text fill="#000000" font-family="sans-serif" font-size="20" lengthAdjust="spacing" textLength="304" x="63" y="698.0801">Displays get results (Allergies)</text><!--SRC=[bLJlJzim4FsUl-847u0F1GRQs2fMAIM9Mebk4u5yDywryUhQcUsqOjF-zvsT_Y1LDK6a9FBblNTtp-VOkL0rCsmXDPzZ2ILEMIDTffNBnM-4gyieSi99X7jSeeHho59819iH1QRQmCtvrVbr5DcD3d39h8K_4T0rP7m-CxfHvPsMsjpUBfbiyFlpJ-HkC83Zv5CQPvyFGutM0PCbwJ2vF8onQ9Q2Ov3wa5sbmqCmaaYpB-bD-1ORerTjU2W95_rzNNjD4JR3mzN3SJhCFcP3Js7SKI3HuSKi9149EC55pPI3eqBWwiZ72-X-c60fE9CZOOduCc6AifaxlQYrGkK2PJAQt7L9JtN977QfNSxJPBJ7YQL4Ctl9MuC2ACxt88shnigXuLYJP8iPxzMR56rHIH6Q5akgXBfDe3U0eWyF-Aj1womu3HQPuLKOYZQxGBlZ557XERwxFf2fbFTUgFdNauj5srYlQZlhBLfNJdRSO8b_U0NVwvv24mpgxGbTzDU11-JQbD-QnRDNBR6hkrq54_t3PudpFipGRHivFTi1oSWu3w1n7t9KfONHu-EFZHdU2w82a_AG4MHnFDwmj_wJWnM2MIimLG8hopRez1oL5_MB2bc99bAQb8oOLGxqr4lwUNtSWeNrT3hE7HPOls8kXFoEUX9d2XXD0eqIUKMg8JS5jF7d_rLLvn6r2ZxpkW6IEDZ_IhXgL_L_hF0rqBtLoj3n2kqUF23MVZsWQuooGTIWfJ-LXTCjzAopkIJkwrnlvZkOVeVoG6ndxJtKF5gFqEPyl9aQng_jDEdJBzRMahsyYLb4_m00]--></g></svg>