<?xml version="1.0" encoding="UTF-8" standalone="no"?><svg xmlns="http://www.w3.org/2000/svg" xmlns:xlink="http://www.w3.org/1999/xlink" contentStyleType="text/css" height="1858px" preserveAspectRatio="none" style="width:3460px;height:1858px;background:#FFFFFF;" version="1.1" viewBox="0 0 3460 1858" width="3460px" zoomAndPan="magnify"><defs/><g><text fill="#000000" font-family="sans-serif" font-size="14" font-weight="bold" lengthAdjust="spacing" textLength="303" x="1580.5" y="27.9951">Level 3 FE Diagram for Searching Staff</text><rect fill="#FFFFFF" height="1625.8125" style="stroke:#181818;stroke-width:1.0;" width="10" x="36" y="135.5781"/><rect fill="#FFFFFF" height="981.0313" style="stroke:#181818;stroke-width:1.0;" width="10" x="650" y="164.8594"/><rect fill="#FFFFFF" height="569.2188" style="stroke:#181818;stroke-width:1.0;" width="10" x="650" y="1183.1719"/><rect fill="#FFFFFF" height="37.2813" style="stroke:#181818;stroke-width:1.0;" width="10" x="935" y="202.1406"/><rect fill="#FFFFFF" height="869.1875" style="stroke:#181818;stroke-width:1.0;" width="10" x="1302" y="239.4219"/><rect fill="#FFFFFF" height="428.0938" style="stroke:#181818;stroke-width:1.0;" width="10" x="1302" y="1287.0156"/><rect fill="#FFFFFF" height="353.5313" style="stroke:#181818;stroke-width:1.0;" width="10" x="1853" y="326.9844"/><rect fill="#FFFFFF" height="353.5313" style="stroke:#181818;stroke-width:1.0;" width="10" x="1853" y="717.7969"/><rect fill="#FFFFFF" height="353.5313" style="stroke:#181818;stroke-width:1.0;" width="10" x="1853" y="1324.2969"/><rect fill="#FFFFFF" height="278.9688" style="stroke:#181818;stroke-width:1.0;" width="10" x="2343" y="364.2656"/><rect fill="#FFFFFF" height="278.9688" style="stroke:#181818;stroke-width:1.0;" width="10" x="2343" y="755.0781"/><rect fill="#FFFFFF" height="278.9688" style="stroke:#181818;stroke-width:1.0;" width="10" x="2343" y="1361.5781"/><rect fill="#FFFFFF" height="87.5625" style="stroke:#181818;stroke-width:1.0;" width="10" x="2930" y="518.3906"/><rect fill="#FFFFFF" height="87.5625" style="stroke:#181818;stroke-width:1.0;" width="10" x="2930" y="909.2031"/><rect fill="#FFFFFF" height="87.5625" style="stroke:#181818;stroke-width:1.0;" width="10" x="2930" y="1515.7031"/><line style="stroke:#181818;stroke-width:0.5;stroke-dasharray:5.0,5.0;" x1="41" x2="41" y1="125.5781" y2="1770.3906"/><line style="stroke:#181818;stroke-width:0.5;stroke-dasharray:5.0,5.0;" x1="654.5" x2="654.5" y1="125.5781" y2="1770.3906"/><line style="stroke:#181818;stroke-width:0.5;stroke-dasharray:5.0,5.0;" x1="940" x2="940" y1="125.5781" y2="1770.3906"/><line style="stroke:#181818;stroke-width:0.5;stroke-dasharray:5.0,5.0;" x1="1306.5" x2="1306.5" y1="125.5781" y2="1770.3906"/><line style="stroke:#181818;stroke-width:0.5;stroke-dasharray:5.0,5.0;" x1="1858" x2="1858" y1="125.5781" y2="1770.3906"/><line style="stroke:#181818;stroke-width:0.5;stroke-dasharray:5.0,5.0;" x1="2347.5" x2="2347.5" y1="125.5781" y2="1770.3906"/><line style="stroke:#181818;stroke-width:0.5;stroke-dasharray:5.0,5.0;" x1="2935" x2="2935" y1="125.5781" y2="1770.3906"/><text fill="#000000" font-family="sans-serif" font-size="20" lengthAdjust="spacing" textLength="66" x="5" y="120.8613">Admin</text><ellipse cx="41" cy="50.7969" fill="#E2E2F0" rx="8" ry="8" style="stroke:#181818;stroke-width:0.5;"/><path d="M41,58.7969 L41,85.7969 M28,66.7969 L54,66.7969 M41,85.7969 L28,100.7969 M41,85.7969 L54,100.7969 " fill="none" style="stroke:#181818;stroke-width:0.5;"/><text fill="#000000" font-family="sans-serif" font-size="20" lengthAdjust="spacing" textLength="66" x="5" y="1787.9551">Admin</text><ellipse cx="41" cy="1801.1719" fill="#E2E2F0" rx="8" ry="8" style="stroke:#181818;stroke-width:0.5;"/><path d="M41,1809.1719 L41,1836.1719 M28,1817.1719 L54,1817.1719 M41,1836.1719 L28,1851.1719 M41,1836.1719 L54,1851.1719 " fill="none" style="stroke:#181818;stroke-width:0.5;"/><rect fill="#E2E2F0" height="37.2813" rx="2.5" ry="2.5" style="stroke:#181818;stroke-width:0.5;" width="63" x="623.5" y="87.2969"/><text fill="#000000" font-family="sans-serif" font-size="20" lengthAdjust="spacing" textLength="49" x="630.5" y="112.8613">View</text><rect fill="#E2E2F0" height="37.2813" rx="2.5" ry="2.5" style="stroke:#181818;stroke-width:0.5;" width="63" x="623.5" y="1769.3906"/><text fill="#000000" font-family="sans-serif" font-size="20" lengthAdjust="spacing" textLength="49" x="630.5" y="1794.9551">View</text><rect fill="#E2E2F0" height="37.2813" rx="2.5" ry="2.5" style="stroke:#181818;stroke-width:0.5;" width="252" x="814" y="87.2969"/><text fill="#000000" font-family="sans-serif" font-size="20" lengthAdjust="spacing" textLength="238" x="821" y="112.8613">PanelAdminComponent</text><rect fill="#E2E2F0" height="37.2813" rx="2.5" ry="2.5" style="stroke:#181818;stroke-width:0.5;" width="252" x="814" y="1769.3906"/><text fill="#000000" font-family="sans-serif" font-size="20" lengthAdjust="spacing" textLength="238" x="821" y="1794.9551">PanelAdminComponent</text><rect fill="#E2E2F0" height="37.2813" rx="2.5" ry="2.5" style="stroke:#181818;stroke-width:0.5;" width="257" x="1178.5" y="87.2969"/><text fill="#000000" font-family="sans-serif" font-size="20" lengthAdjust="spacing" textLength="243" x="1185.5" y="112.8613">SearchStaffsComponent</text><rect fill="#E2E2F0" height="37.2813" rx="2.5" ry="2.5" style="stroke:#181818;stroke-width:0.5;" width="257" x="1178.5" y="1769.3906"/><text fill="#000000" font-family="sans-serif" font-size="20" lengthAdjust="spacing" textLength="243" x="1185.5" y="1794.9551">SearchStaffsComponent</text><rect fill="#E2E2F0" height="37.2813" rx="2.5" ry="2.5" style="stroke:#181818;stroke-width:0.5;" width="134" x="1791" y="87.2969"/><text fill="#000000" font-family="sans-serif" font-size="20" lengthAdjust="spacing" textLength="120" x="1798" y="112.8613">StaffService</text><rect fill="#E2E2F0" height="37.2813" rx="2.5" ry="2.5" style="stroke:#181818;stroke-width:0.5;" width="134" x="1791" y="1769.3906"/><text fill="#000000" font-family="sans-serif" font-size="20" lengthAdjust="spacing" textLength="120" x="1798" y="1794.9551">StaffService</text><rect fill="#E2E2F0" height="37.2813" rx="2.5" ry="2.5" style="stroke:#181818;stroke-width:0.5;" width="173" x="2261.5" y="87.2969"/><text fill="#000000" font-family="sans-serif" font-size="20" lengthAdjust="spacing" textLength="159" x="2268.5" y="112.8613">AuthInterceptor</text><rect fill="#E2E2F0" height="37.2813" rx="2.5" ry="2.5" style="stroke:#181818;stroke-width:0.5;" width="173" x="2261.5" y="1769.3906"/><text fill="#000000" font-family="sans-serif" font-size="20" lengthAdjust="spacing" textLength="159" x="2268.5" y="1794.9551">AuthInterceptor</text><rect fill="#E2E2F0" height="37.2813" rx="2.5" ry="2.5" style="stroke:#181818;stroke-width:0.5;" width="60" x="2905" y="87.2969"/><text fill="#000000" font-family="sans-serif" font-size="20" lengthAdjust="spacing" textLength="46" x="2912" y="112.8613">MDR</text><rect fill="#E2E2F0" height="37.2813" rx="2.5" ry="2.5" style="stroke:#181818;stroke-width:0.5;" width="60" x="2905" y="1769.3906"/><text fill="#000000" font-family="sans-serif" font-size="20" lengthAdjust="spacing" textLength="46" x="2912" y="1794.9551">MDR</text><rect fill="#FFFFFF" height="1625.8125" style="stroke:#181818;stroke-width:1.0;" width="10" x="36" y="135.5781"/><rect fill="#FFFFFF" height="981.0313" style="stroke:#181818;stroke-width:1.0;" width="10" x="650" y="164.8594"/><rect fill="#FFFFFF" height="569.2188" style="stroke:#181818;stroke-width:1.0;" width="10" x="650" y="1183.1719"/><rect fill="#FFFFFF" height="37.2813" style="stroke:#181818;stroke-width:1.0;" width="10" x="935" y="202.1406"/><rect fill="#FFFFFF" height="869.1875" style="stroke:#181818;stroke-width:1.0;" width="10" x="1302" y="239.4219"/><rect fill="#FFFFFF" height="428.0938" style="stroke:#181818;stroke-width:1.0;" width="10" x="1302" y="1287.0156"/><rect fill="#FFFFFF" height="353.5313" style="stroke:#181818;stroke-width:1.0;" width="10" x="1853" y="326.9844"/><rect fill="#FFFFFF" height="353.5313" style="stroke:#181818;stroke-width:1.0;" width="10" x="1853" y="717.7969"/><rect fill="#FFFFFF" height="353.5313" style="stroke:#181818;stroke-width:1.0;" width="10" x="1853" y="1324.2969"/><rect fill="#FFFFFF" height="278.9688" style="stroke:#181818;stroke-width:1.0;" width="10" x="2343" y="364.2656"/><rect fill="#FFFFFF" height="278.9688" style="stroke:#181818;stroke-width:1.0;" width="10" x="2343" y="755.0781"/><rect fill="#FFFFFF" height="278.9688" style="stroke:#181818;stroke-width:1.0;" width="10" x="2343" y="1361.5781"/><rect fill="#FFFFFF" height="87.5625" style="stroke:#181818;stroke-width:1.0;" width="10" x="2930" y="518.3906"/><rect fill="#FFFFFF" height="87.5625" style="stroke:#181818;stroke-width:1.0;" width="10" x="2930" y="909.2031"/><rect fill="#FFFFFF" height="87.5625" style="stroke:#181818;stroke-width:1.0;" width="10" x="2930" y="1515.7031"/><polygon fill="#000000" points="638,160.8594,648,164.8594,638,168.8594,642,164.8594" style="stroke:#000000;stroke-width:1.0;"/><line style="stroke:#000000;stroke-width:1.0;" x1="46" x2="644" y1="164.8594" y2="164.8594"/><text fill="#000000" font-family="sans-serif" font-size="20" lengthAdjust="spacing" textLength="220" x="53" y="158.1426">Asks to update a Staff</text><polygon fill="#000000" points="923,198.1406,933,202.1406,923,206.1406,927,202.1406" style="stroke:#000000;stroke-width:1.0;"/><line style="stroke:#000000;stroke-width:1.0;" x1="660" x2="929" y1="202.1406" y2="202.1406"/><text fill="#000000" font-family="sans-serif" font-size="20" lengthAdjust="spacing" textLength="256" x="667" y="195.4238">routerLink='/search-staff'</text><polygon fill="#000000" points="1290,235.4219,1300,239.4219,1290,243.4219,1294,239.4219" style="stroke:#000000;stroke-width:1.0;"/><line style="stroke:#000000;stroke-width:1.0;" x1="940" x2="1296" y1="239.4219" y2="239.4219"/><text fill="#000000" font-family="sans-serif" font-size="20" lengthAdjust="spacing" textLength="338" x="947" y="232.7051">routes to SearchStaffsComponent</text><line style="stroke:#000000;stroke-width:1.0;" x1="1312" x2="1354" y1="276.7031" y2="276.7031"/><line style="stroke:#000000;stroke-width:1.0;" x1="1354" x2="1354" y1="276.7031" y2="289.7031"/><line style="stroke:#000000;stroke-width:1.0;" x1="1313" x2="1354" y1="289.7031" y2="289.7031"/><polygon fill="#000000" points="1323,285.7031,1313,289.7031,1323,293.7031,1319,289.7031" style="stroke:#000000;stroke-width:1.0;"/><text fill="#000000" font-family="sans-serif" font-size="20" lengthAdjust="spacing" textLength="527" x="1319" y="269.9863">this.staffId = this.route.snapshot.paramMap.get('id')</text><polygon fill="#000000" points="1841,322.9844,1851,326.9844,1841,330.9844,1845,326.9844" style="stroke:#000000;stroke-width:1.0;"/><line style="stroke:#000000;stroke-width:1.0;" x1="1312" x2="1847" y1="326.9844" y2="326.9844"/><text fill="#000000" font-family="sans-serif" font-size="20" lengthAdjust="spacing" textLength="179" x="1319" y="320.2676">loadStaffProfiles()</text><polygon fill="#000000" points="2331,360.2656,2341,364.2656,2331,368.2656,2335,364.2656" style="stroke:#000000;stroke-width:1.0;"/><line style="stroke:#000000;stroke-width:1.0;" x1="1863" x2="2337" y1="364.2656" y2="364.2656"/><text fill="#000000" font-family="sans-serif" font-size="20" lengthAdjust="spacing" textLength="376" x="1870" y="357.5488">Sends HTTP Request to get staff by Id</text><line style="stroke:#000000;stroke-width:1.0;" x1="2353" x2="2395" y1="401.5469" y2="401.5469"/><line style="stroke:#000000;stroke-width:1.0;" x1="2395" x2="2395" y1="401.5469" y2="414.5469"/><line style="stroke:#000000;stroke-width:1.0;" x1="2354" x2="2395" y1="414.5469" y2="414.5469"/><polygon fill="#000000" points="2364,410.5469,2354,414.5469,2364,418.5469,2360,414.5469" style="stroke:#000000;stroke-width:1.0;"/><text fill="#000000" font-family="sans-serif" font-size="20" lengthAdjust="spacing" textLength="563" x="2360" y="394.8301">Intercepts the request and adds the token to the header</text><path d="M2358,427.5469 L2358,483.5469 L2877,483.5469 L2877,437.5469 L2867,427.5469 L2358,427.5469 " fill="#FEFFDD" style="stroke:#181818;stroke-width:0.5;"/><path d="M2867,427.5469 L2867,437.5469 L2877,437.5469 L2867,427.5469 " fill="#FEFFDD" style="stroke:#181818;stroke-width:0.5;"/><text fill="#000000" font-family="sans-serif" font-size="20" lengthAdjust="spacing" textLength="498" x="2364" y="451.1113">The token is added to the header so that the MDR</text><text fill="#000000" font-family="sans-serif" font-size="20" lengthAdjust="spacing" textLength="442" x="2364" y="474.3926">can authenticate and authorize the request.</text><polygon fill="#000000" points="2918,514.3906,2928,518.3906,2918,522.3906,2922,518.3906" style="stroke:#000000;stroke-width:1.0;"/><line style="stroke:#000000;stroke-width:1.0;" x1="2353" x2="2924" y1="518.3906" y2="518.3906"/><text fill="#000000" font-family="sans-serif" font-size="20" lengthAdjust="spacing" textLength="132" x="2360" y="511.6738">getAllStaffs()</text><line style="stroke:#000000;stroke-width:1.0;" x1="2940" x2="2982" y1="555.6719" y2="555.6719"/><line style="stroke:#000000;stroke-width:1.0;" x1="2982" x2="2982" y1="555.6719" y2="568.6719"/><line style="stroke:#000000;stroke-width:1.0;" x1="2941" x2="2982" y1="568.6719" y2="568.6719"/><polygon fill="#000000" points="2951,564.6719,2941,568.6719,2951,572.6719,2947,568.6719" style="stroke:#000000;stroke-width:1.0;"/><text fill="#000000" font-family="sans-serif" font-size="20" lengthAdjust="spacing" textLength="257" x="2947" y="548.9551">Tries to get all Staffs data</text><polygon fill="#000000" points="2364,601.9531,2354,605.9531,2364,609.9531,2360,605.9531" style="stroke:#000000;stroke-width:1.0;"/><line style="stroke:#000000;stroke-width:1.0;stroke-dasharray:2.0,2.0;" x1="2358" x2="2934" y1="605.9531" y2="605.9531"/><text fill="#000000" font-family="sans-serif" font-size="20" lengthAdjust="spacing" textLength="222" x="2370" y="599.2363">Returns all Staffs data</text><polygon fill="#000000" points="1874,639.2344,1864,643.2344,1874,647.2344,1870,643.2344" style="stroke:#000000;stroke-width:1.0;"/><line style="stroke:#000000;stroke-width:1.0;stroke-dasharray:2.0,2.0;" x1="1868" x2="2347" y1="643.2344" y2="643.2344"/><text fill="#000000" font-family="sans-serif" font-size="20" lengthAdjust="spacing" textLength="222" x="1880" y="636.5176">Returns all Staffs data</text><polygon fill="#000000" points="1323,676.5156,1313,680.5156,1323,684.5156,1319,680.5156" style="stroke:#000000;stroke-width:1.0;"/><line style="stroke:#000000;stroke-width:1.0;stroke-dasharray:2.0,2.0;" x1="1317" x2="1857" y1="680.5156" y2="680.5156"/><text fill="#000000" font-family="sans-serif" font-size="20" lengthAdjust="spacing" textLength="222" x="1329" y="673.7988">Returns all Staffs data</text><polygon fill="#000000" points="1841,713.7969,1851,717.7969,1841,721.7969,1845,717.7969" style="stroke:#000000;stroke-width:1.0;"/><line style="stroke:#000000;stroke-width:1.0;" x1="1312" x2="1847" y1="717.7969" y2="717.7969"/><text fill="#000000" font-family="sans-serif" font-size="20" lengthAdjust="spacing" textLength="210" x="1319" y="711.0801">loadSpecializations()</text><polygon fill="#000000" points="2331,751.0781,2341,755.0781,2331,759.0781,2335,755.0781" style="stroke:#000000;stroke-width:1.0;"/><line style="stroke:#000000;stroke-width:1.0;" x1="1863" x2="2337" y1="755.0781" y2="755.0781"/><text fill="#000000" font-family="sans-serif" font-size="20" lengthAdjust="spacing" textLength="458" x="1870" y="748.3613">Sends HTTP Request to get all Specializations</text><line style="stroke:#000000;stroke-width:1.0;" x1="2353" x2="2395" y1="792.3594" y2="792.3594"/><line style="stroke:#000000;stroke-width:1.0;" x1="2395" x2="2395" y1="792.3594" y2="805.3594"/><line style="stroke:#000000;stroke-width:1.0;" x1="2354" x2="2395" y1="805.3594" y2="805.3594"/><polygon fill="#000000" points="2364,801.3594,2354,805.3594,2364,809.3594,2360,805.3594" style="stroke:#000000;stroke-width:1.0;"/><text fill="#000000" font-family="sans-serif" font-size="20" lengthAdjust="spacing" textLength="563" x="2360" y="785.6426">Intercepts the request and adds the token to the header</text><path d="M2358,818.3594 L2358,874.3594 L2877,874.3594 L2877,828.3594 L2867,818.3594 L2358,818.3594 " fill="#FEFFDD" style="stroke:#181818;stroke-width:0.5;"/><path d="M2867,818.3594 L2867,828.3594 L2877,828.3594 L2867,818.3594 " fill="#FEFFDD" style="stroke:#181818;stroke-width:0.5;"/><text fill="#000000" font-family="sans-serif" font-size="20" lengthAdjust="spacing" textLength="498" x="2364" y="841.9238">The token is added to the header so that the MDR</text><text fill="#000000" font-family="sans-serif" font-size="20" lengthAdjust="spacing" textLength="442" x="2364" y="865.2051">can authenticate and authorize the request.</text><polygon fill="#000000" points="2918,905.2031,2928,909.2031,2918,913.2031,2922,909.2031" style="stroke:#000000;stroke-width:1.0;"/><line style="stroke:#000000;stroke-width:1.0;" x1="2353" x2="2924" y1="909.2031" y2="909.2031"/><text fill="#000000" font-family="sans-serif" font-size="20" lengthAdjust="spacing" textLength="190" x="2360" y="902.4863">getSpecialization()</text><line style="stroke:#000000;stroke-width:1.0;" x1="2940" x2="2982" y1="946.4844" y2="946.4844"/><line style="stroke:#000000;stroke-width:1.0;" x1="2982" x2="2982" y1="946.4844" y2="959.4844"/><line style="stroke:#000000;stroke-width:1.0;" x1="2941" x2="2982" y1="959.4844" y2="959.4844"/><polygon fill="#000000" points="2951,955.4844,2941,959.4844,2951,963.4844,2947,959.4844" style="stroke:#000000;stroke-width:1.0;"/><text fill="#000000" font-family="sans-serif" font-size="20" lengthAdjust="spacing" textLength="321" x="2947" y="939.7676">Tries to get Specializations data</text><polygon fill="#000000" points="2364,992.7656,2354,996.7656,2364,1000.7656,2360,996.7656" style="stroke:#000000;stroke-width:1.0;"/><line style="stroke:#000000;stroke-width:1.0;stroke-dasharray:2.0,2.0;" x1="2358" x2="2934" y1="996.7656" y2="996.7656"/><text fill="#000000" font-family="sans-serif" font-size="20" lengthAdjust="spacing" textLength="286" x="2370" y="990.0488">Returns Specializations data</text><polygon fill="#000000" points="1874,1030.0469,1864,1034.0469,1874,1038.0469,1870,1034.0469" style="stroke:#000000;stroke-width:1.0;"/><line style="stroke:#000000;stroke-width:1.0;stroke-dasharray:2.0,2.0;" x1="1868" x2="2347" y1="1034.0469" y2="1034.0469"/><text fill="#000000" font-family="sans-serif" font-size="20" lengthAdjust="spacing" textLength="286" x="1880" y="1027.3301">Returns Specializations data</text><polygon fill="#000000" points="1323,1067.3281,1313,1071.3281,1323,1075.3281,1319,1071.3281" style="stroke:#000000;stroke-width:1.0;"/><line style="stroke:#000000;stroke-width:1.0;stroke-dasharray:2.0,2.0;" x1="1317" x2="1857" y1="1071.3281" y2="1071.3281"/><text fill="#000000" font-family="sans-serif" font-size="20" lengthAdjust="spacing" textLength="286" x="1329" y="1064.6113">Returns Specializations data</text><polygon fill="#000000" points="671,1104.6094,661,1108.6094,671,1112.6094,667,1108.6094" style="stroke:#000000;stroke-width:1.0;"/><line style="stroke:#000000;stroke-width:1.0;stroke-dasharray:2.0,2.0;" x1="665" x2="1306" y1="1108.6094" y2="1108.6094"/><text fill="#000000" font-family="sans-serif" font-size="20" lengthAdjust="spacing" textLength="321" x="677" y="1101.8926">returns SearchStaffsComponent</text><polygon fill="#000000" points="57,1141.8906,47,1145.8906,57,1149.8906,53,1145.8906" style="stroke:#000000;stroke-width:1.0;"/><line style="stroke:#000000;stroke-width:1.0;stroke-dasharray:2.0,2.0;" x1="51" x2="654" y1="1145.8906" y2="1145.8906"/><text fill="#000000" font-family="sans-serif" font-size="20" lengthAdjust="spacing" textLength="580" x="63" y="1139.1738">Displays initial list and asks for the data to filter the Staffs</text><polygon fill="#000000" points="638,1179.1719,648,1183.1719,638,1187.1719,642,1183.1719" style="stroke:#000000;stroke-width:1.0;"/><line style="stroke:#000000;stroke-width:1.0;" x1="46" x2="644" y1="1183.1719" y2="1183.1719"/><text fill="#000000" font-family="sans-serif" font-size="20" lengthAdjust="spacing" textLength="332" x="53" y="1176.4551">Sends the data to filter the Staffs</text><path d="M665,1196.1719 L665,1252.1719 L1216,1252.1719 L1216,1206.1719 L1206,1196.1719 L665,1196.1719 " fill="#FEFFDD" style="stroke:#181818;stroke-width:0.5;"/><path d="M1206,1196.1719 L1206,1206.1719 L1216,1206.1719 L1206,1196.1719 " fill="#FEFFDD" style="stroke:#181818;stroke-width:0.5;"/><text fill="#000000" font-family="sans-serif" font-size="20" lengthAdjust="spacing" textLength="530" x="671" y="1219.7363">The data can be First Name and/or Last Name and/or</text><text fill="#000000" font-family="sans-serif" font-size="20" lengthAdjust="spacing" textLength="513" x="677" y="1243.0176">Full Nameand/or Email and/or Specialization Name</text><polygon fill="#000000" points="1290,1283.0156,1300,1287.0156,1290,1291.0156,1294,1287.0156" style="stroke:#000000;stroke-width:1.0;"/><line style="stroke:#000000;stroke-width:1.0;" x1="660" x2="1296" y1="1287.0156" y2="1287.0156"/><text fill="#000000" font-family="sans-serif" font-size="20" lengthAdjust="spacing" textLength="110" x="667" y="1280.2988">onSearch()</text><polygon fill="#000000" points="1841,1320.2969,1851,1324.2969,1841,1328.2969,1845,1324.2969" style="stroke:#000000;stroke-width:1.0;"/><line style="stroke:#000000;stroke-width:1.0;" x1="1312" x2="1847" y1="1324.2969" y2="1324.2969"/><text fill="#000000" font-family="sans-serif" font-size="20" lengthAdjust="spacing" textLength="342" x="1319" y="1317.5801">searchStaffProfiles(searchCriteria)</text><polygon fill="#000000" points="2331,1357.5781,2341,1361.5781,2331,1365.5781,2335,1361.5781" style="stroke:#000000;stroke-width:1.0;"/><line style="stroke:#000000;stroke-width:1.0;" x1="1863" x2="2337" y1="1361.5781" y2="1361.5781"/><text fill="#000000" font-family="sans-serif" font-size="20" lengthAdjust="spacing" textLength="461" x="1870" y="1354.8613">Sends HTTP request to search staff with filters</text><line style="stroke:#000000;stroke-width:1.0;" x1="2353" x2="2395" y1="1398.8594" y2="1398.8594"/><line style="stroke:#000000;stroke-width:1.0;" x1="2395" x2="2395" y1="1398.8594" y2="1411.8594"/><line style="stroke:#000000;stroke-width:1.0;" x1="2354" x2="2395" y1="1411.8594" y2="1411.8594"/><polygon fill="#000000" points="2364,1407.8594,2354,1411.8594,2364,1415.8594,2360,1411.8594" style="stroke:#000000;stroke-width:1.0;"/><text fill="#000000" font-family="sans-serif" font-size="20" lengthAdjust="spacing" textLength="563" x="2360" y="1392.1426">Intercepts the request and adds the token to the header</text><path d="M2358,1424.8594 L2358,1480.8594 L2877,1480.8594 L2877,1434.8594 L2867,1424.8594 L2358,1424.8594 " fill="#FEFFDD" style="stroke:#181818;stroke-width:0.5;"/><path d="M2867,1424.8594 L2867,1434.8594 L2877,1434.8594 L2867,1424.8594 " fill="#FEFFDD" style="stroke:#181818;stroke-width:0.5;"/><text fill="#000000" font-family="sans-serif" font-size="20" lengthAdjust="spacing" textLength="498" x="2364" y="1448.4238">The token is added to the header so that the MDR</text><text fill="#000000" font-family="sans-serif" font-size="20" lengthAdjust="spacing" textLength="442" x="2364" y="1471.7051">can authenticate and authorize the request.</text><polygon fill="#000000" points="2918,1511.7031,2928,1515.7031,2918,1519.7031,2922,1515.7031" style="stroke:#000000;stroke-width:1.0;"/><line style="stroke:#000000;stroke-width:1.0;" x1="2353" x2="2924" y1="1515.7031" y2="1515.7031"/><text fill="#000000" font-family="sans-serif" font-size="20" lengthAdjust="spacing" textLength="342" x="2360" y="1508.9863">searchStaffProfiles(searchCriteria)</text><line style="stroke:#000000;stroke-width:1.0;" x1="2940" x2="2982" y1="1552.9844" y2="1552.9844"/><line style="stroke:#000000;stroke-width:1.0;" x1="2982" x2="2982" y1="1552.9844" y2="1565.9844"/><line style="stroke:#000000;stroke-width:1.0;" x1="2941" x2="2982" y1="1565.9844" y2="1565.9844"/><polygon fill="#000000" points="2951,1561.9844,2941,1565.9844,2951,1569.9844,2947,1565.9844" style="stroke:#000000;stroke-width:1.0;"/><text fill="#000000" font-family="sans-serif" font-size="20" lengthAdjust="spacing" textLength="506" x="2947" y="1546.2676">Validates the data and tries to list the filtered staff</text><polygon fill="#000000" points="2364,1599.2656,2354,1603.2656,2364,1607.2656,2360,1603.2656" style="stroke:#000000;stroke-width:1.0;"/><line style="stroke:#000000;stroke-width:1.0;stroke-dasharray:2.0,2.0;" x1="2358" x2="2934" y1="1603.2656" y2="1603.2656"/><text fill="#000000" font-family="sans-serif" font-size="20" lengthAdjust="spacing" textLength="242" x="2370" y="1596.5488">Returns filtered staff list</text><polygon fill="#000000" points="1874,1636.5469,1864,1640.5469,1874,1644.5469,1870,1640.5469" style="stroke:#000000;stroke-width:1.0;"/><line style="stroke:#000000;stroke-width:1.0;stroke-dasharray:2.0,2.0;" x1="1868" x2="2347" y1="1640.5469" y2="1640.5469"/><text fill="#000000" font-family="sans-serif" font-size="20" lengthAdjust="spacing" textLength="242" x="1880" y="1633.8301">Returns filtered staff list</text><polygon fill="#000000" points="1323,1673.8281,1313,1677.8281,1323,1681.8281,1319,1677.8281" style="stroke:#000000;stroke-width:1.0;"/><line style="stroke:#000000;stroke-width:1.0;stroke-dasharray:2.0,2.0;" x1="1317" x2="1857" y1="1677.8281" y2="1677.8281"/><text fill="#000000" font-family="sans-serif" font-size="20" lengthAdjust="spacing" textLength="242" x="1329" y="1671.1113">Returns filtered staff list</text><polygon fill="#000000" points="671,1711.1094,661,1715.1094,671,1719.1094,667,1715.1094" style="stroke:#000000;stroke-width:1.0;"/><line style="stroke:#000000;stroke-width:1.0;stroke-dasharray:2.0,2.0;" x1="665" x2="1306" y1="1715.1094" y2="1715.1094"/><text fill="#000000" font-family="sans-serif" font-size="20" lengthAdjust="spacing" textLength="242" x="677" y="1708.3926">Returns filtered staff list</text><polygon fill="#000000" points="57,1748.3906,47,1752.3906,57,1756.3906,53,1752.3906" style="stroke:#000000;stroke-width:1.0;"/><line style="stroke:#000000;stroke-width:1.0;stroke-dasharray:2.0,2.0;" x1="51" x2="654" y1="1752.3906" y2="1752.3906"/><text fill="#000000" font-family="sans-serif" font-size="20" lengthAdjust="spacing" textLength="247" x="63" y="1745.6738">Displays filtered staff list</text><!--SRC=[tLPDRziu4BtpLmpQGzf3tO_5VXbj0Fb3M0FfRX0REks5aSOsQvhKadI2jDZ_lZEaB4k9ktPxR00ZyEYz6SwRDvJzHfbQEhdLjjnW1HKkvKw7t9emLvyHthqH8gYW4Qxm3ZNy1FaK9agkY09Bws2EqfLhPLOm3tAv56AjAWJSrk41jhYzHUU5yFigK6hfFNmHG7yZMMvMpkvCDRRQklVlxwJUuL-tdx0CbvVmVFBBDCj_EmvrraPCFfcE9c-EOpowErLYJFKsVpST7ODHYcd- -_JN-2nppjwdy4WJJlpRFNjD4Rd2uwU7vzDH_dC-Oeei0mMoQgiCI0-P87vGfQgb2V2iK7Z_ZED5Ftuj3Uf86jjjRGsQ467NsRWFJ997kNqVEfy_XZ9eddHe47r0jWlhcGdeIgpfq16JpVgOZvER6AV_iJTr9mDILncykeHY29dVU0WMTdN53sJZX1PPY8AHrCSGI30gTgNCviF5QnyRUUKPVd70SyFqOGurr71YXQETYmfxr4CYbeC-RQAmLduGgyqg-92-nkG3RsJjrpOCugG_odgmml3YGbKNByKXnH2qbLKiV-tiKcdqBrvson6KaTbiI4SrbOS_5ejhkC5_TkW3Dq1P8Hu0RXzWLdNKd8bijkUs0w6crmYkuKjJWQog50nsWuPJyfSroWgTC9OoERLQ1x1BJia-NRHWvPbEIzvZWUTlCiGGZvX9fIJdaZL8NbN6eN9j2bZ7jqBdL0D1ZG9NRXgW54FkCzCw3Qeh4UUdJujRE9Kcoy98hPDrF92HP08cIMumx9pnJo2TqNDgFa4pgJCO913FQ- -ECnWquITkgB5KKglFCYXhliSFiLu_ou_iYtwhPvlZaK9F7DAExoZmj4zEqRvYbbEqrZ7fgdHxsgcBZA-k8lKsfFUjhxLyyA2C2bGDjDgFdQzUVWspyboRvQABYNmIGwb2Dt4XH7jn9q_-FxNl7I8jzd3smYr2hXmTva-vZMPuJMUvalt0tmRo7PcSGmrakfLAx_5z3IFioSiZYcvDqgs_PEFkIlg3iEqLdM9ZfwWr9SzOK7TOqCHjxknx5TQDH3_kYdwJWezNjg0nye-0ZgkuVDXlSZGkFqegKaDHsQEBt8T4wXbxV8BrbJK-mOf6QPVuRDAn5Jv1AiH_]--></g></svg>