<?xml version="1.0" encoding="UTF-8" standalone="no"?><svg xmlns="http://www.w3.org/2000/svg" xmlns:xlink="http://www.w3.org/1999/xlink" contentStyleType="text/css" height="3668px" preserveAspectRatio="none" style="width:3405px;height:3668px;background:#FFFFFF;" version="1.1" viewBox="0 0 3405 3668" width="3405px" zoomAndPan="magnify"><defs/><g><text fill="#000000" font-family="sans-serif" font-size="14" font-weight="bold" lengthAdjust="spacing" textLength="321" x="1540.5" y="27.9951">Doctor Operation Request Flow - Level 3</text><rect fill="#FFFFFF" height="3054.9688" style="stroke:#181818;stroke-width:1.0;" width="10" x="407" y="164.8594"/><rect fill="#FFFFFF" height="2484.0625" style="stroke:#181818;stroke-width:1.0;" width="10" x="965" y="624.9219"/><rect fill="#FFFFFF" height="2219.5313" style="stroke:#181818;stroke-width:1.0;" width="10" x="1406" y="759.0469"/><rect fill="none" height="168.6875" style="stroke:#000000;stroke-width:1.5;" width="1509" x="10" y="1113.1406"/><rect fill="none" height="168.6875" style="stroke:#000000;stroke-width:1.5;" width="1509" x="10" y="1468.2344"/><rect fill="none" height="168.6875" style="stroke:#000000;stroke-width:1.5;" width="1509" x="10" y="1823.3281"/><rect fill="none" height="168.6875" style="stroke:#000000;stroke-width:1.5;" width="1509" x="10" y="2126.1406"/><line style="stroke:#181818;stroke-width:0.5;stroke-dasharray:5.0,5.0;" x1="56" x2="56" y1="125.5781" y2="3580.4844"/><line style="stroke:#181818;stroke-width:0.5;stroke-dasharray:5.0,5.0;" x1="411.5" x2="411.5" y1="125.5781" y2="3580.4844"/><line style="stroke:#181818;stroke-width:0.5;stroke-dasharray:5.0,5.0;" x1="970" x2="970" y1="125.5781" y2="3580.4844"/><line style="stroke:#181818;stroke-width:0.5;stroke-dasharray:5.0,5.0;" x1="1411" x2="1411" y1="125.5781" y2="3580.4844"/><line style="stroke:#181818;stroke-width:0.5;stroke-dasharray:5.0,5.0;" x1="1840" x2="1840" y1="125.5781" y2="3580.4844"/><line style="stroke:#181818;stroke-width:0.5;stroke-dasharray:5.0,5.0;" x1="1996" x2="1996" y1="125.5781" y2="3580.4844"/><line style="stroke:#181818;stroke-width:0.5;stroke-dasharray:5.0,5.0;" x1="2166" x2="2166" y1="125.5781" y2="3580.4844"/><line style="stroke:#181818;stroke-width:0.5;stroke-dasharray:5.0,5.0;" x1="2327" x2="2327" y1="125.5781" y2="3580.4844"/><line style="stroke:#181818;stroke-width:0.5;stroke-dasharray:5.0,5.0;" x1="2574.5" x2="2574.5" y1="125.5781" y2="3580.4844"/><text fill="#000000" font-family="sans-serif" font-size="20" lengthAdjust="spacing" textLength="66" x="20" y="120.8613">Doctor</text><ellipse cx="56" cy="50.7969" fill="#E2E2F0" rx="8" ry="8" style="stroke:#181818;stroke-width:0.5;"/><path d="M56,58.7969 L56,85.7969 M43,66.7969 L69,66.7969 M56,85.7969 L43,100.7969 M56,85.7969 L69,100.7969 " fill="none" style="stroke:#181818;stroke-width:0.5;"/><text fill="#000000" font-family="sans-serif" font-size="20" lengthAdjust="spacing" textLength="66" x="20" y="3598.0488">Doctor</text><ellipse cx="56" cy="3611.2656" fill="#E2E2F0" rx="8" ry="8" style="stroke:#181818;stroke-width:0.5;"/><path d="M56,3619.2656 L56,3646.2656 M43,3627.2656 L69,3627.2656 M56,3646.2656 L43,3661.2656 M56,3646.2656 L69,3661.2656 " fill="none" style="stroke:#181818;stroke-width:0.5;"/><rect fill="#E2E2F0" height="37.2813" rx="2.5" ry="2.5" style="stroke:#181818;stroke-width:0.5;" width="105" x="359.5" y="87.2969"/><text fill="#000000" font-family="sans-serif" font-size="20" lengthAdjust="spacing" textLength="91" x="366.5" y="112.8613">Frontend</text><rect fill="#E2E2F0" height="37.2813" rx="2.5" ry="2.5" style="stroke:#181818;stroke-width:0.5;" width="105" x="359.5" y="3579.4844"/><text fill="#000000" font-family="sans-serif" font-size="20" lengthAdjust="spacing" textLength="91" x="366.5" y="3605.0488">Frontend</text><rect fill="#E2E2F0" height="60.5625" rx="2.5" ry="2.5" style="stroke:#181818;stroke-width:0.5;" width="196" x="872" y="64.0156"/><text fill="#000000" font-family="sans-serif" font-size="20" lengthAdjust="spacing" textLength="182" x="879" y="89.5801">OperationRequest</text><text fill="#000000" font-family="sans-serif" font-size="20" lengthAdjust="spacing" textLength="99" x="920.5" y="112.8613">Controller</text><rect fill="#E2E2F0" height="60.5625" rx="2.5" ry="2.5" style="stroke:#181818;stroke-width:0.5;" width="196" x="872" y="3579.4844"/><text fill="#000000" font-family="sans-serif" font-size="20" lengthAdjust="spacing" textLength="182" x="879" y="3605.0488">OperationRequest</text><text fill="#000000" font-family="sans-serif" font-size="20" lengthAdjust="spacing" textLength="99" x="920.5" y="3628.3301">Controller</text><rect fill="#E2E2F0" height="60.5625" rx="2.5" ry="2.5" style="stroke:#181818;stroke-width:0.5;" width="196" x="1313" y="64.0156"/><text fill="#000000" font-family="sans-serif" font-size="20" lengthAdjust="spacing" textLength="182" x="1320" y="89.5801">OperationRequest</text><text fill="#000000" font-family="sans-serif" font-size="20" lengthAdjust="spacing" textLength="73" x="1374.5" y="112.8613">Service</text><rect fill="#E2E2F0" height="60.5625" rx="2.5" ry="2.5" style="stroke:#181818;stroke-width:0.5;" width="196" x="1313" y="3579.4844"/><text fill="#000000" font-family="sans-serif" font-size="20" lengthAdjust="spacing" textLength="182" x="1320" y="3605.0488">OperationRequest</text><text fill="#000000" font-family="sans-serif" font-size="20" lengthAdjust="spacing" textLength="73" x="1374.5" y="3628.3301">Service</text><rect fill="#E2E2F0" height="37.2813" rx="2.5" ry="2.5" style="stroke:#181818;stroke-width:0.5;" width="134" x="1773" y="87.2969"/><text fill="#000000" font-family="sans-serif" font-size="20" lengthAdjust="spacing" textLength="120" x="1780" y="112.8613">StaffService</text><rect fill="#E2E2F0" height="37.2813" rx="2.5" ry="2.5" style="stroke:#181818;stroke-width:0.5;" width="134" x="1773" y="3579.4844"/><text fill="#000000" font-family="sans-serif" font-size="20" lengthAdjust="spacing" textLength="120" x="1780" y="3605.0488">StaffService</text><rect fill="#E2E2F0" height="37.2813" rx="2.5" ry="2.5" style="stroke:#181818;stroke-width:0.5;" width="158" x="1917" y="87.2969"/><text fill="#000000" font-family="sans-serif" font-size="20" lengthAdjust="spacing" textLength="144" x="1924" y="112.8613">PatientService</text><rect fill="#E2E2F0" height="37.2813" rx="2.5" ry="2.5" style="stroke:#181818;stroke-width:0.5;" width="158" x="1917" y="3579.4844"/><text fill="#000000" font-family="sans-serif" font-size="20" lengthAdjust="spacing" textLength="144" x="1924" y="3605.0488">PatientService</text><rect fill="#E2E2F0" height="60.5625" rx="2.5" ry="2.5" style="stroke:#181818;stroke-width:0.5;" width="162" x="2085" y="64.0156"/><text fill="#000000" font-family="sans-serif" font-size="20" lengthAdjust="spacing" textLength="148" x="2092" y="89.5801">OperationType</text><text fill="#000000" font-family="sans-serif" font-size="20" lengthAdjust="spacing" textLength="73" x="2129.5" y="112.8613">Service</text><rect fill="#E2E2F0" height="60.5625" rx="2.5" ry="2.5" style="stroke:#181818;stroke-width:0.5;" width="162" x="2085" y="3579.4844"/><text fill="#000000" font-family="sans-serif" font-size="20" lengthAdjust="spacing" textLength="148" x="2092" y="3605.0488">OperationType</text><text fill="#000000" font-family="sans-serif" font-size="20" lengthAdjust="spacing" textLength="73" x="2129.5" y="3628.3301">Service</text><rect fill="#E2E2F0" height="37.2813" rx="2.5" ry="2.5" style="stroke:#181818;stroke-width:0.5;" width="141" x="2257" y="87.2969"/><text fill="#000000" font-family="sans-serif" font-size="20" lengthAdjust="spacing" textLength="127" x="2264" y="112.8613">AuditService</text><rect fill="#E2E2F0" height="37.2813" rx="2.5" ry="2.5" style="stroke:#181818;stroke-width:0.5;" width="141" x="2257" y="3579.4844"/><text fill="#000000" font-family="sans-serif" font-size="20" lengthAdjust="spacing" textLength="127" x="2264" y="3605.0488">AuditService</text><text fill="#000000" font-family="sans-serif" font-size="20" lengthAdjust="spacing" textLength="94" x="2524.5" y="120.8613">Database</text><path d="M2556.5,66.2969 C2556.5,56.2969 2574.5,56.2969 2574.5,56.2969 C2574.5,56.2969 2592.5,56.2969 2592.5,66.2969 L2592.5,92.2969 C2592.5,102.2969 2574.5,102.2969 2574.5,102.2969 C2574.5,102.2969 2556.5,102.2969 2556.5,92.2969 L2556.5,66.2969 " fill="#E2E2F0" style="stroke:#181818;stroke-width:1.5;"/><path d="M2556.5,66.2969 C2556.5,76.2969 2574.5,76.2969 2574.5,76.2969 C2574.5,76.2969 2592.5,76.2969 2592.5,66.2969 " fill="none" style="stroke:#181818;stroke-width:1.5;"/><text fill="#000000" font-family="sans-serif" font-size="20" lengthAdjust="spacing" textLength="94" x="2524.5" y="3598.0488">Database</text><path d="M2556.5,3612.7656 C2556.5,3602.7656 2574.5,3602.7656 2574.5,3602.7656 C2574.5,3602.7656 2592.5,3602.7656 2592.5,3612.7656 L2592.5,3638.7656 C2592.5,3648.7656 2574.5,3648.7656 2574.5,3648.7656 C2574.5,3648.7656 2556.5,3648.7656 2556.5,3638.7656 L2556.5,3612.7656 " fill="#E2E2F0" style="stroke:#181818;stroke-width:1.5;"/><path d="M2556.5,3612.7656 C2556.5,3622.7656 2574.5,3622.7656 2574.5,3622.7656 C2574.5,3622.7656 2592.5,3622.7656 2592.5,3612.7656 " fill="none" style="stroke:#181818;stroke-width:1.5;"/><rect fill="#FFFFFF" height="3054.9688" style="stroke:#181818;stroke-width:1.0;" width="10" x="407" y="164.8594"/><rect fill="#FFFFFF" height="2484.0625" style="stroke:#181818;stroke-width:1.0;" width="10" x="965" y="624.9219"/><rect fill="#FFFFFF" height="2219.5313" style="stroke:#181818;stroke-width:1.0;" width="10" x="1406" y="759.0469"/><polygon fill="#181818" points="395,160.8594,405,164.8594,395,168.8594,399,164.8594" style="stroke:#181818;stroke-width:1.0;"/><line style="stroke:#181818;stroke-width:1.0;" x1="56" x2="401" y1="164.8594" y2="164.8594"/><text fill="#000000" font-family="sans-serif" font-size="20" lengthAdjust="spacing" textLength="332" x="63" y="158.1426">submitOperationForm(formData)</text><line style="stroke:#181818;stroke-width:1.0;" x1="417" x2="459" y1="295.2656" y2="295.2656"/><line style="stroke:#181818;stroke-width:1.0;" x1="459" x2="459" y1="295.2656" y2="308.2656"/><line style="stroke:#181818;stroke-width:1.0;" x1="418" x2="459" y1="308.2656" y2="308.2656"/><polygon fill="#181818" points="428,304.2656,418,308.2656,428,312.2656,424,308.2656" style="stroke:#181818;stroke-width:1.0;"/><text fill="#000000" font-family="sans-serif" font-size="20" lengthAdjust="spacing" textLength="167" x="424" y="195.4238">validateForm() {</text><text fill="#000000" font-family="sans-serif" font-size="20" lengthAdjust="spacing" textLength="225" x="436" y="218.7051">checkRequiredFields()</text><text fill="#000000" font-family="sans-serif" font-size="20" lengthAdjust="spacing" textLength="185" x="436" y="241.9863">validateDeadline()</text><text fill="#000000" font-family="sans-serif" font-size="20" lengthAdjust="spacing" textLength="167" x="436" y="265.2676">validatePriority()</text><text fill="#000000" font-family="sans-serif" font-size="20" lengthAdjust="spacing" textLength="13" x="424" y="288.5488">}</text><polygon fill="#181818" points="953,620.9219,963,624.9219,953,628.9219,957,624.9219" style="stroke:#181818;stroke-width:1.0;"/><line style="stroke:#181818;stroke-width:1.0;" x1="417" x2="959" y1="624.9219" y2="624.9219"/><text fill="#000000" font-family="sans-serif" font-size="20" lengthAdjust="spacing" textLength="276" x="424" y="338.8301">POST /api/operationrequest</text><text fill="#000000" font-family="sans-serif" font-size="20" lengthAdjust="spacing" textLength="108" x="424" y="362.1113">Headers: {</text><text fill="#000000" font-family="sans-serif" font-size="20" lengthAdjust="spacing" textLength="265" x="436" y="385.3926">Authorization: Bearer JWT,</text><text fill="#000000" font-family="sans-serif" font-size="20" lengthAdjust="spacing" textLength="308" x="436" y="408.6738">Content-Type: application/json</text><text fill="#000000" font-family="sans-serif" font-size="20" lengthAdjust="spacing" textLength="13" x="424" y="431.9551">}</text><text fill="#000000" font-family="sans-serif" font-size="20" lengthAdjust="spacing" textLength="393" x="424" y="455.2363">Body: CreatingOperationRequestDTO {</text><text fill="#000000" font-family="sans-serif" font-size="20" lengthAdjust="spacing" textLength="168" x="436" y="478.5176">patientId: string,</text><text fill="#000000" font-family="sans-serif" font-size="20" lengthAdjust="spacing" textLength="140" x="436" y="501.7988">staffId: string,</text><text fill="#000000" font-family="sans-serif" font-size="20" lengthAdjust="spacing" textLength="240" x="436" y="525.0801">operationTypeId: string,</text><text fill="#000000" font-family="sans-serif" font-size="20" lengthAdjust="spacing" textLength="203" x="436" y="548.3613">deadline: DateTime,</text><text fill="#000000" font-family="sans-serif" font-size="20" lengthAdjust="spacing" textLength="214" x="436" y="571.6426">priority: PriorityLevel,</text><text fill="#000000" font-family="sans-serif" font-size="20" lengthAdjust="spacing" textLength="308" x="436" y="594.9238">status: RequestStatus.Pending</text><text fill="#000000" font-family="sans-serif" font-size="20" lengthAdjust="spacing" textLength="13" x="424" y="618.2051">}</text><line style="stroke:#181818;stroke-width:1.0;" x1="975" x2="1017" y1="708.7656" y2="708.7656"/><line style="stroke:#181818;stroke-width:1.0;" x1="1017" x2="1017" y1="708.7656" y2="721.7656"/><line style="stroke:#181818;stroke-width:1.0;" x1="976" x2="1017" y1="721.7656" y2="721.7656"/><polygon fill="#181818" points="986,717.7656,976,721.7656,986,725.7656,982,721.7656" style="stroke:#181818;stroke-width:1.0;"/><text fill="#000000" font-family="sans-serif" font-size="20" lengthAdjust="spacing" textLength="298" x="982" y="655.4863">[Authorize(Roles = "Doctor")]</text><text fill="#000000" font-family="sans-serif" font-size="20" lengthAdjust="spacing" textLength="137" x="982" y="678.7676">ValidateJWT()</text><text fill="#000000" font-family="sans-serif" font-size="20" lengthAdjust="spacing" textLength="145" x="982" y="702.0488">Extract Claims</text><polygon fill="#181818" points="1394,755.0469,1404,759.0469,1394,763.0469,1398,759.0469" style="stroke:#181818;stroke-width:1.0;"/><line style="stroke:#181818;stroke-width:1.0;" x1="975" x2="1400" y1="759.0469" y2="759.0469"/><text fill="#000000" font-family="sans-serif" font-size="20" lengthAdjust="spacing" textLength="356" x="982" y="752.3301">CreateOperationRequestAsync(dto)</text><line style="stroke:#181818;stroke-width:1.0;" x1="1416" x2="1458" y1="912.7344" y2="912.7344"/><line style="stroke:#181818;stroke-width:1.0;" x1="1458" x2="1458" y1="912.7344" y2="925.7344"/><line style="stroke:#181818;stroke-width:1.0;" x1="1417" x2="1458" y1="925.7344" y2="925.7344"/><polygon fill="#181818" points="1427,921.7344,1417,925.7344,1427,929.7344,1423,925.7344" style="stroke:#181818;stroke-width:1.0;"/><text fill="#000000" font-family="sans-serif" font-size="20" lengthAdjust="spacing" textLength="252" x="1423" y="789.6113">Validate Required Fields:</text><text fill="#000000" font-family="sans-serif" font-size="20" lengthAdjust="spacing" textLength="103" x="1423" y="812.8926">- PatientId</text><text fill="#000000" font-family="sans-serif" font-size="20" lengthAdjust="spacing" textLength="79" x="1423" y="836.1738">- StaffId</text><text fill="#000000" font-family="sans-serif" font-size="20" lengthAdjust="spacing" textLength="180" x="1423" y="859.4551">- OperationTypeId</text><text fill="#000000" font-family="sans-serif" font-size="20" lengthAdjust="spacing" textLength="102" x="1423" y="882.7363">- Deadline</text><text fill="#000000" font-family="sans-serif" font-size="20" lengthAdjust="spacing" textLength="84" x="1423" y="906.0176">- Priority</text><polygon fill="#181818" points="1828,959.0156,1838,963.0156,1828,967.0156,1832,963.0156" style="stroke:#181818;stroke-width:1.0;"/><line style="stroke:#181818;stroke-width:1.0;" x1="1416" x2="1834" y1="963.0156" y2="963.0156"/><text fill="#000000" font-family="sans-serif" font-size="20" lengthAdjust="spacing" textLength="390" x="1423" y="956.2988">GetByIdAsync(new StaffId(dto.StaffId))</text><polygon fill="#181818" points="2562.5,1019.5781,2572.5,1023.5781,2562.5,1027.5781,2566.5,1023.5781" style="stroke:#181818;stroke-width:1.0;"/><line style="stroke:#181818;stroke-width:1.0;" x1="1840" x2="2568.5" y1="1023.5781" y2="1023.5781"/><text fill="#000000" font-family="sans-serif" font-size="20" lengthAdjust="spacing" textLength="220" x="1847" y="993.5801">SELECT * FROM Staffs</text><text fill="#000000" font-family="sans-serif" font-size="20" lengthAdjust="spacing" textLength="344" x="1847" y="1016.8613">WHERE Id = @id AND IsActive = 1</text><polygon fill="#181818" points="1851,1056.8594,1841,1060.8594,1851,1064.8594,1847,1060.8594" style="stroke:#181818;stroke-width:1.0;"/><line style="stroke:#181818;stroke-width:1.0;stroke-dasharray:2.0,2.0;" x1="1845" x2="2573.5" y1="1060.8594" y2="1060.8594"/><text fill="#000000" font-family="sans-serif" font-size="20" lengthAdjust="spacing" textLength="106" x="1857" y="1054.1426">StaffEntity</text><polygon fill="#181818" points="1427,1094.1406,1417,1098.1406,1427,1102.1406,1423,1098.1406" style="stroke:#181818;stroke-width:1.0;"/><line style="stroke:#181818;stroke-width:1.0;stroke-dasharray:2.0,2.0;" x1="1421" x2="1839" y1="1098.1406" y2="1098.1406"/><text fill="#000000" font-family="sans-serif" font-size="20" lengthAdjust="spacing" textLength="117" x="1433" y="1091.4238">Staff or null</text><path d="M10,1113.1406 L86,1113.1406 L86,1128.4219 L76,1138.4219 L10,1138.4219 L10,1113.1406 " fill="#EEEEEE" style="stroke:#000000;stroke-width:1.5;"/><rect fill="none" height="168.6875" style="stroke:#000000;stroke-width:1.5;" width="1509" x="10" y="1113.1406"/><text fill="#000000" font-family="sans-serif" font-size="20" font-weight="bold" lengthAdjust="spacing" textLength="31" x="25" y="1132.7051">alt</text><text fill="#000000" font-family="sans-serif" font-size="20" font-weight="bold" lengthAdjust="spacing" textLength="157" x="101" y="1133.7051">[Staff Invalid]</text><polygon fill="#181818" points="986,1195.2656,976,1199.2656,986,1203.2656,982,1199.2656" style="stroke:#181818;stroke-width:1.0;"/><line style="stroke:#181818;stroke-width:1.0;stroke-dasharray:2.0,2.0;" x1="980" x2="1405" y1="1199.2656" y2="1199.2656"/><text fill="#000000" font-family="sans-serif" font-size="20" lengthAdjust="spacing" textLength="398" x="992" y="1169.2676">throw BusinessRuleValidationException</text><text fill="#000000" font-family="sans-serif" font-size="20" lengthAdjust="spacing" textLength="268" x="992" y="1192.5488">"Invalid or inactive doctor"</text><polygon fill="#181818" points="428,1232.5469,418,1236.5469,428,1240.5469,424,1236.5469" style="stroke:#181818;stroke-width:1.0;"/><line style="stroke:#181818;stroke-width:1.0;stroke-dasharray:2.0,2.0;" x1="422" x2="964" y1="1236.5469" y2="1236.5469"/><text fill="#000000" font-family="sans-serif" font-size="20" lengthAdjust="spacing" textLength="172" x="434" y="1229.8301">400 Bad Request</text><polygon fill="#181818" points="67,1269.8281,57,1273.8281,67,1277.8281,63,1273.8281" style="stroke:#181818;stroke-width:1.0;"/><line style="stroke:#181818;stroke-width:1.0;stroke-dasharray:2.0,2.0;" x1="61" x2="406" y1="1273.8281" y2="1273.8281"/><text fill="#000000" font-family="sans-serif" font-size="20" lengthAdjust="spacing" textLength="202" x="73" y="1267.1113">Show Error Message</text><polygon fill="#181818" points="1984,1314.1094,1994,1318.1094,1984,1322.1094,1988,1318.1094" style="stroke:#181818;stroke-width:1.0;"/><line style="stroke:#181818;stroke-width:1.0;" x1="1416" x2="1990" y1="1318.1094" y2="1318.1094"/><text fill="#000000" font-family="sans-serif" font-size="20" lengthAdjust="spacing" textLength="438" x="1423" y="1311.3926">GetByIdAsync(new PatientId(dto.PatientId))</text><polygon fill="#181818" points="2562.5,1374.6719,2572.5,1378.6719,2562.5,1382.6719,2566.5,1378.6719" style="stroke:#181818;stroke-width:1.0;"/><line style="stroke:#181818;stroke-width:1.0;" x1="1996" x2="2568.5" y1="1378.6719" y2="1378.6719"/><text fill="#000000" font-family="sans-serif" font-size="20" lengthAdjust="spacing" textLength="244" x="2003" y="1348.6738">SELECT * FROM Patients</text><text fill="#000000" font-family="sans-serif" font-size="20" lengthAdjust="spacing" textLength="168" x="2003" y="1371.9551">WHERE Id = @id</text><polygon fill="#181818" points="2007,1411.9531,1997,1415.9531,2007,1419.9531,2003,1415.9531" style="stroke:#181818;stroke-width:1.0;"/><line style="stroke:#181818;stroke-width:1.0;stroke-dasharray:2.0,2.0;" x1="2001" x2="2573.5" y1="1415.9531" y2="1415.9531"/><text fill="#000000" font-family="sans-serif" font-size="20" lengthAdjust="spacing" textLength="130" x="2013" y="1409.2363">PatientEntity</text><polygon fill="#181818" points="1427,1449.2344,1417,1453.2344,1427,1457.2344,1423,1453.2344" style="stroke:#181818;stroke-width:1.0;"/><line style="stroke:#181818;stroke-width:1.0;stroke-dasharray:2.0,2.0;" x1="1421" x2="1995" y1="1453.2344" y2="1453.2344"/><text fill="#000000" font-family="sans-serif" font-size="20" lengthAdjust="spacing" textLength="141" x="1433" y="1446.5176">Patient or null</text><path d="M10,1468.2344 L86,1468.2344 L86,1483.5156 L76,1493.5156 L10,1493.5156 L10,1468.2344 " fill="#EEEEEE" style="stroke:#000000;stroke-width:1.5;"/><rect fill="none" height="168.6875" style="stroke:#000000;stroke-width:1.5;" width="1509" x="10" y="1468.2344"/><text fill="#000000" font-family="sans-serif" font-size="20" font-weight="bold" lengthAdjust="spacing" textLength="31" x="25" y="1487.7988">alt</text><text fill="#000000" font-family="sans-serif" font-size="20" font-weight="bold" lengthAdjust="spacing" textLength="185" x="101" y="1488.7988">[Patient Invalid]</text><polygon fill="#181818" points="986,1550.3594,976,1554.3594,986,1558.3594,982,1554.3594" style="stroke:#181818;stroke-width:1.0;"/><line style="stroke:#181818;stroke-width:1.0;stroke-dasharray:2.0,2.0;" x1="980" x2="1405" y1="1554.3594" y2="1554.3594"/><text fill="#000000" font-family="sans-serif" font-size="20" lengthAdjust="spacing" textLength="398" x="992" y="1524.3613">throw BusinessRuleValidationException</text><text fill="#000000" font-family="sans-serif" font-size="20" lengthAdjust="spacing" textLength="165" x="992" y="1547.6426">"Invalid patient"</text><polygon fill="#181818" points="428,1587.6406,418,1591.6406,428,1595.6406,424,1591.6406" style="stroke:#181818;stroke-width:1.0;"/><line style="stroke:#181818;stroke-width:1.0;stroke-dasharray:2.0,2.0;" x1="422" x2="964" y1="1591.6406" y2="1591.6406"/><text fill="#000000" font-family="sans-serif" font-size="20" lengthAdjust="spacing" textLength="172" x="434" y="1584.9238">400 Bad Request</text><polygon fill="#181818" points="67,1624.9219,57,1628.9219,67,1632.9219,63,1628.9219" style="stroke:#181818;stroke-width:1.0;"/><line style="stroke:#181818;stroke-width:1.0;stroke-dasharray:2.0,2.0;" x1="61" x2="406" y1="1628.9219" y2="1628.9219"/><text fill="#000000" font-family="sans-serif" font-size="20" lengthAdjust="spacing" textLength="202" x="73" y="1622.2051">Show Error Message</text><polygon fill="#181818" points="2154,1669.2031,2164,1673.2031,2154,1677.2031,2158,1673.2031" style="stroke:#181818;stroke-width:1.0;"/><line style="stroke:#181818;stroke-width:1.0;" x1="1416" x2="2160" y1="1673.2031" y2="1673.2031"/><text fill="#000000" font-family="sans-serif" font-size="20" lengthAdjust="spacing" textLength="592" x="1423" y="1666.4863">GetByIdAsync(new OperationTypeId(dto.OperationTypeId))</text><polygon fill="#181818" points="2562.5,1729.7656,2572.5,1733.7656,2562.5,1737.7656,2566.5,1733.7656" style="stroke:#181818;stroke-width:1.0;"/><line style="stroke:#181818;stroke-width:1.0;" x1="2166" x2="2568.5" y1="1733.7656" y2="1733.7656"/><text fill="#000000" font-family="sans-serif" font-size="20" lengthAdjust="spacing" textLength="321" x="2173" y="1703.7676">SELECT * FROM OperationTypes</text><text fill="#000000" font-family="sans-serif" font-size="20" lengthAdjust="spacing" textLength="344" x="2173" y="1727.0488">WHERE Id = @id AND IsActive = 1</text><polygon fill="#181818" points="2177,1767.0469,2167,1771.0469,2177,1775.0469,2173,1771.0469" style="stroke:#181818;stroke-width:1.0;"/><line style="stroke:#181818;stroke-width:1.0;stroke-dasharray:2.0,2.0;" x1="2171" x2="2573.5" y1="1771.0469" y2="1771.0469"/><text fill="#000000" font-family="sans-serif" font-size="20" lengthAdjust="spacing" textLength="207" x="2183" y="1764.3301">OperationTypeEntity</text><polygon fill="#181818" points="1427,1804.3281,1417,1808.3281,1427,1812.3281,1423,1808.3281" style="stroke:#181818;stroke-width:1.0;"/><line style="stroke:#181818;stroke-width:1.0;stroke-dasharray:2.0,2.0;" x1="1421" x2="2165" y1="1808.3281" y2="1808.3281"/><text fill="#000000" font-family="sans-serif" font-size="20" lengthAdjust="spacing" textLength="218" x="1433" y="1801.6113">OperationType or null</text><path d="M10,1823.3281 L86,1823.3281 L86,1838.6094 L76,1848.6094 L10,1848.6094 L10,1823.3281 " fill="#EEEEEE" style="stroke:#000000;stroke-width:1.5;"/><rect fill="none" height="168.6875" style="stroke:#000000;stroke-width:1.5;" width="1509" x="10" y="1823.3281"/><text fill="#000000" font-family="sans-serif" font-size="20" font-weight="bold" lengthAdjust="spacing" textLength="31" x="25" y="1842.8926">alt</text><text fill="#000000" font-family="sans-serif" font-size="20" font-weight="bold" lengthAdjust="spacing" textLength="270" x="101" y="1843.8926">[OperationType Invalid]</text><polygon fill="#181818" points="986,1905.4531,976,1909.4531,986,1913.4531,982,1909.4531" style="stroke:#181818;stroke-width:1.0;"/><line style="stroke:#181818;stroke-width:1.0;stroke-dasharray:2.0,2.0;" x1="980" x2="1405" y1="1909.4531" y2="1909.4531"/><text fill="#000000" font-family="sans-serif" font-size="20" lengthAdjust="spacing" textLength="398" x="992" y="1879.4551">throw BusinessRuleValidationException</text><text fill="#000000" font-family="sans-serif" font-size="20" lengthAdjust="spacing" textLength="350" x="992" y="1902.7363">"Invalid or inactive operation type"</text><polygon fill="#181818" points="428,1942.7344,418,1946.7344,428,1950.7344,424,1946.7344" style="stroke:#181818;stroke-width:1.0;"/><line style="stroke:#181818;stroke-width:1.0;stroke-dasharray:2.0,2.0;" x1="422" x2="964" y1="1946.7344" y2="1946.7344"/><text fill="#000000" font-family="sans-serif" font-size="20" lengthAdjust="spacing" textLength="172" x="434" y="1940.0176">400 Bad Request</text><polygon fill="#181818" points="67,1980.0156,57,1984.0156,67,1988.0156,63,1984.0156" style="stroke:#181818;stroke-width:1.0;"/><line style="stroke:#181818;stroke-width:1.0;stroke-dasharray:2.0,2.0;" x1="61" x2="406" y1="1984.0156" y2="1984.0156"/><text fill="#000000" font-family="sans-serif" font-size="20" lengthAdjust="spacing" textLength="202" x="73" y="1977.2988">Show Error Message</text><line style="stroke:#181818;stroke-width:1.0;" x1="1416" x2="1458" y1="2098.1406" y2="2098.1406"/><line style="stroke:#181818;stroke-width:1.0;" x1="1458" x2="1458" y1="2098.1406" y2="2111.1406"/><line style="stroke:#181818;stroke-width:1.0;" x1="1417" x2="1458" y1="2111.1406" y2="2111.1406"/><polygon fill="#181818" points="1427,2107.1406,1417,2111.1406,1427,2115.1406,1423,2111.1406" style="stroke:#181818;stroke-width:1.0;"/><text fill="#000000" font-family="sans-serif" font-size="20" lengthAdjust="spacing" textLength="259" x="1423" y="2021.5801">ValidateSpecialization() {</text><text fill="#000000" font-family="sans-serif" font-size="20" lengthAdjust="spacing" textLength="278" x="1435" y="2044.8613">Check if staff.Specialization</text><text fill="#000000" font-family="sans-serif" font-size="20" lengthAdjust="spacing" textLength="393" x="1435" y="2068.1426">matches operationType.Specializations</text><text fill="#000000" font-family="sans-serif" font-size="20" lengthAdjust="spacing" textLength="13" x="1423" y="2091.4238">}</text><path d="M10,2126.1406 L86,2126.1406 L86,2141.4219 L76,2151.4219 L10,2151.4219 L10,2126.1406 " fill="#EEEEEE" style="stroke:#000000;stroke-width:1.5;"/><rect fill="none" height="168.6875" style="stroke:#000000;stroke-width:1.5;" width="1509" x="10" y="2126.1406"/><text fill="#000000" font-family="sans-serif" font-size="20" font-weight="bold" lengthAdjust="spacing" textLength="31" x="25" y="2145.7051">alt</text><text fill="#000000" font-family="sans-serif" font-size="20" font-weight="bold" lengthAdjust="spacing" textLength="261" x="101" y="2146.7051">[Invalid Specialization]</text><polygon fill="#181818" points="986,2208.2656,976,2212.2656,986,2216.2656,982,2212.2656" style="stroke:#181818;stroke-width:1.0;"/><line style="stroke:#181818;stroke-width:1.0;stroke-dasharray:2.0,2.0;" x1="980" x2="1405" y1="2212.2656" y2="2212.2656"/><text fill="#000000" font-family="sans-serif" font-size="20" lengthAdjust="spacing" textLength="398" x="992" y="2182.2676">throw BusinessRuleValidationException</text><text fill="#000000" font-family="sans-serif" font-size="20" lengthAdjust="spacing" textLength="407" x="992" y="2205.5488">"Staff's specialization does not match..."</text><polygon fill="#181818" points="428,2245.5469,418,2249.5469,428,2253.5469,424,2249.5469" style="stroke:#181818;stroke-width:1.0;"/><line style="stroke:#181818;stroke-width:1.0;stroke-dasharray:2.0,2.0;" x1="422" x2="964" y1="2249.5469" y2="2249.5469"/><text fill="#000000" font-family="sans-serif" font-size="20" lengthAdjust="spacing" textLength="172" x="434" y="2242.8301">400 Bad Request</text><polygon fill="#181818" points="67,2282.8281,57,2286.8281,67,2290.8281,63,2286.8281" style="stroke:#181818;stroke-width:1.0;"/><line style="stroke:#181818;stroke-width:1.0;stroke-dasharray:2.0,2.0;" x1="61" x2="406" y1="2286.8281" y2="2286.8281"/><text fill="#000000" font-family="sans-serif" font-size="20" lengthAdjust="spacing" textLength="202" x="73" y="2280.1113">Show Error Message</text><polygon fill="#181818" points="2562.5,2327.1094,2572.5,2331.1094,2562.5,2335.1094,2566.5,2331.1094" style="stroke:#181818;stroke-width:1.0;"/><line style="stroke:#181818;stroke-width:1.0;" x1="1416" x2="2568.5" y1="2331.1094" y2="2331.1094"/><text fill="#000000" font-family="sans-serif" font-size="20" lengthAdjust="spacing" textLength="215" x="1423" y="2324.3926">BEGIN TRANSACTION</text><polygon fill="#181818" points="2562.5,2457.5156,2572.5,2461.5156,2562.5,2465.5156,2566.5,2461.5156" style="stroke:#181818;stroke-width:1.0;"/><line style="stroke:#181818;stroke-width:1.0;" x1="1416" x2="2568.5" y1="2461.5156" y2="2461.5156"/><text fill="#000000" font-family="sans-serif" font-size="20" lengthAdjust="spacing" textLength="340" x="1423" y="2361.6738">INSERT INTO OperationRequests (</text><text fill="#000000" font-family="sans-serif" font-size="20" lengthAdjust="spacing" textLength="205" x="1435" y="2384.9551">Id, PatientId, StaffId,</text><text fill="#000000" font-family="sans-serif" font-size="20" lengthAdjust="spacing" textLength="274" x="1435" y="2408.2363">OperationTypeId, Deadline,</text><text fill="#000000" font-family="sans-serif" font-size="20" lengthAdjust="spacing" textLength="260" x="1435" y="2431.5176">Priority, Status, CreatedAt</text><text fill="#000000" font-family="sans-serif" font-size="20" lengthAdjust="spacing" textLength="200" x="1423" y="2454.7988">) VALUES (@values)</text><polygon fill="#181818" points="1427,2494.7969,1417,2498.7969,1427,2502.7969,1423,2498.7969" style="stroke:#181818;stroke-width:1.0;"/><line style="stroke:#181818;stroke-width:1.0;stroke-dasharray:2.0,2.0;" x1="1421" x2="2573.5" y1="2498.7969" y2="2498.7969"/><text fill="#000000" font-family="sans-serif" font-size="20" lengthAdjust="spacing" textLength="201" x="1433" y="2492.0801">OperationRequestId</text><polygon fill="#181818" points="2315.5,2625.2031,2325.5,2629.2031,2315.5,2633.2031,2319.5,2629.2031" style="stroke:#181818;stroke-width:1.0;"/><line style="stroke:#181818;stroke-width:1.0;" x1="1416" x2="2321.5" y1="2629.2031" y2="2629.2031"/><text fill="#000000" font-family="sans-serif" font-size="20" lengthAdjust="spacing" textLength="195" x="1423" y="2529.3613">LogAsync(new Log(</text><text fill="#000000" font-family="sans-serif" font-size="20" lengthAdjust="spacing" textLength="213" x="1435" y="2552.6426">TypeOfAction.Create,</text><text fill="#000000" font-family="sans-serif" font-size="20" lengthAdjust="spacing" textLength="214" x="1435" y="2575.9238">request.Id.ToString(),</text><text fill="#000000" font-family="sans-serif" font-size="20" lengthAdjust="spacing" textLength="614" x="1435" y="2599.2051">$"Operation request created for patient {patient.FullName}"</text><text fill="#000000" font-family="sans-serif" font-size="20" lengthAdjust="spacing" textLength="16" x="1423" y="2622.4863">))</text><polygon fill="#181818" points="2562.5,2732.3281,2572.5,2736.3281,2562.5,2740.3281,2566.5,2736.3281" style="stroke:#181818;stroke-width:1.0;"/><line style="stroke:#181818;stroke-width:1.0;" x1="2327.5" x2="2568.5" y1="2736.3281" y2="2736.3281"/><text fill="#000000" font-family="sans-serif" font-size="20" lengthAdjust="spacing" textLength="194" x="2334.5" y="2659.7676">INSERT INTO Logs (</text><text fill="#000000" font-family="sans-serif" font-size="20" lengthAdjust="spacing" textLength="191" x="2346.5" y="2683.0488">Id, Action, EntityId,</text><text fill="#000000" font-family="sans-serif" font-size="20" lengthAdjust="spacing" textLength="211" x="2346.5" y="2706.3301">Message, Timestamp</text><text fill="#000000" font-family="sans-serif" font-size="20" lengthAdjust="spacing" textLength="200" x="2334.5" y="2729.6113">) VALUES (@values)</text><polygon fill="#181818" points="2338.5,2769.6094,2328.5,2773.6094,2338.5,2777.6094,2334.5,2773.6094" style="stroke:#181818;stroke-width:1.0;"/><line style="stroke:#181818;stroke-width:1.0;stroke-dasharray:2.0,2.0;" x1="2332.5" x2="2573.5" y1="2773.6094" y2="2773.6094"/><text fill="#000000" font-family="sans-serif" font-size="20" lengthAdjust="spacing" textLength="55" x="2344.5" y="2766.8926">LogId</text><polygon fill="#181818" points="2562.5,2806.8906,2572.5,2810.8906,2562.5,2814.8906,2566.5,2810.8906" style="stroke:#181818;stroke-width:1.0;"/><line style="stroke:#181818;stroke-width:1.0;" x1="1416" x2="2568.5" y1="2810.8906" y2="2810.8906"/><text fill="#000000" font-family="sans-serif" font-size="20" lengthAdjust="spacing" textLength="82" x="1423" y="2804.1738">COMMIT</text><polygon fill="#181818" points="1427,2844.1719,1417,2848.1719,1427,2852.1719,1423,2848.1719" style="stroke:#181818;stroke-width:1.0;"/><line style="stroke:#181818;stroke-width:1.0;stroke-dasharray:2.0,2.0;" x1="1421" x2="2573.5" y1="2848.1719" y2="2848.1719"/><text fill="#000000" font-family="sans-serif" font-size="20" lengthAdjust="spacing" textLength="80" x="1433" y="2841.4551">Success</text><polygon fill="#181818" points="986,2974.5781,976,2978.5781,986,2982.5781,982,2978.5781" style="stroke:#181818;stroke-width:1.0;"/><line style="stroke:#181818;stroke-width:1.0;stroke-dasharray:2.0,2.0;" x1="980" x2="1410" y1="2978.5781" y2="2978.5781"/><text fill="#000000" font-family="sans-serif" font-size="20" lengthAdjust="spacing" textLength="281" x="992" y="2878.7363">new OperationRequestDTO(</text><text fill="#000000" font-family="sans-serif" font-size="20" lengthAdjust="spacing" textLength="203" x="1004" y="2902.0176">id, patientId, staffId,</text><text fill="#000000" font-family="sans-serif" font-size="20" lengthAdjust="spacing" textLength="268" x="1004" y="2925.2988">operationTypeId, deadline,</text><text fill="#000000" font-family="sans-serif" font-size="20" lengthAdjust="spacing" textLength="255" x="1004" y="2948.5801">priority, createdAt, status</text><text fill="#000000" font-family="sans-serif" font-size="20" lengthAdjust="spacing" textLength="8" x="992" y="2971.8613">)</text><polygon fill="#181818" points="428,3104.9844,418,3108.9844,428,3112.9844,424,3108.9844" style="stroke:#181818;stroke-width:1.0;"/><line style="stroke:#181818;stroke-width:1.0;stroke-dasharray:2.0,2.0;" x1="422" x2="969" y1="3108.9844" y2="3108.9844"/><text fill="#000000" font-family="sans-serif" font-size="20" lengthAdjust="spacing" textLength="124" x="434" y="3009.1426">201 Created</text><text fill="#000000" font-family="sans-serif" font-size="20" lengthAdjust="spacing" textLength="13" x="434" y="3032.4238">{</text><text fill="#000000" font-family="sans-serif" font-size="20" lengthAdjust="spacing" textLength="340" x="446" y="3055.7051">operation: OperationRequestDTO,</text><text fill="#000000" font-family="sans-serif" font-size="20" lengthAdjust="spacing" textLength="512" x="446" y="3078.9863">message: "Operation request created successfully"</text><text fill="#000000" font-family="sans-serif" font-size="20" lengthAdjust="spacing" textLength="13" x="434" y="3102.2676">}</text><line style="stroke:#181818;stroke-width:1.0;" x1="417" x2="459" y1="3169.5469" y2="3169.5469"/><line style="stroke:#181818;stroke-width:1.0;" x1="459" x2="459" y1="3169.5469" y2="3182.5469"/><line style="stroke:#181818;stroke-width:1.0;" x1="418" x2="459" y1="3182.5469" y2="3182.5469"/><polygon fill="#181818" points="428,3178.5469,418,3182.5469,428,3186.5469,424,3182.5469" style="stroke:#181818;stroke-width:1.0;"/><text fill="#000000" font-family="sans-serif" font-size="20" lengthAdjust="spacing" textLength="202" x="424" y="3139.5488">showSuccessToast()</text><text fill="#000000" font-family="sans-serif" font-size="20" lengthAdjust="spacing" textLength="237" x="424" y="3162.8301">navigateToOperations()</text><polygon fill="#181818" points="67,3215.8281,57,3219.8281,67,3223.8281,63,3219.8281" style="stroke:#181818;stroke-width:1.0;"/><line style="stroke:#181818;stroke-width:1.0;stroke-dasharray:2.0,2.0;" x1="61" x2="411" y1="3219.8281" y2="3219.8281"/><text fill="#000000" font-family="sans-serif" font-size="20" lengthAdjust="spacing" textLength="233" x="73" y="3213.1113">Show Success Message</text><path d="M2579,3232.8281 L2579,3381.8281 L3398,3381.8281 L3398,3242.8281 L3388,3232.8281 L2579,3232.8281 " fill="#90EE90" style="stroke:#181818;stroke-width:0.5;"/><path d="M3388,3232.8281 L3388,3242.8281 L3398,3242.8281 L3388,3232.8281 " fill="#90EE90" style="stroke:#181818;stroke-width:0.5;"/><text fill="#000000" font-family="sans-serif" font-size="20" lengthAdjust="spacing" textLength="221" x="2585" y="3256.3926">Database Constraints:</text><text fill="#000000" font-family="sans-serif" font-size="20" lengthAdjust="spacing" textLength="249" x="2585" y="3279.6738">- FK_Operations_Patients</text><text fill="#000000" font-family="sans-serif" font-size="20" lengthAdjust="spacing" textLength="244" x="2585" y="3302.9551">- FK_Operations_Doctors</text><text fill="#000000" font-family="sans-serif" font-size="20" lengthAdjust="spacing" textLength="326" x="2585" y="3326.2363">- FK_Operations_OperationTypes</text><text fill="#000000" font-family="sans-serif" font-size="20" lengthAdjust="spacing" textLength="424" x="2585" y="3349.5176">- CHECK Priority IN ('Low','Medium','High')</text><text fill="#000000" font-family="sans-serif" font-size="20" lengthAdjust="spacing" textLength="798" x="2585" y="3372.7988">- CHECK Status IN ('Pending','Approved',\n'Scheduled','Completed','Cancelled')</text><path d="M975,3392.5156 L975,3564.5156 L1325,3564.5156 L1325,3402.5156 L1315,3392.5156 L975,3392.5156 " fill="#ADD8E6" style="stroke:#181818;stroke-width:0.5;"/><path d="M1315,3392.5156 L1315,3402.5156 L1325,3402.5156 L1315,3392.5156 " fill="#ADD8E6" style="stroke:#181818;stroke-width:0.5;"/><text fill="#000000" font-family="sans-serif" font-size="20" lengthAdjust="spacing" textLength="153" x="981" y="3416.0801">Error Handling:</text><text fill="#000000" font-family="sans-serif" font-size="20" lengthAdjust="spacing" textLength="329" x="981" y="3439.3613">- 400: Invalid Request/Validation</text><text fill="#000000" font-family="sans-serif" font-size="20" lengthAdjust="spacing" textLength="201" x="981" y="3462.6426">- 401: Unauthorized</text><text fill="#000000" font-family="sans-serif" font-size="20" lengthAdjust="spacing" textLength="279" x="981" y="3485.9238">- 403: Invalid Specialization</text><text fill="#000000" font-family="sans-serif" font-size="20" lengthAdjust="spacing" textLength="234" x="981" y="3509.2051">- 404: Entity Not Found</text><text fill="#000000" font-family="sans-serif" font-size="20" lengthAdjust="spacing" textLength="184" x="981" y="3532.4863">- 500: Server Error</text><text fill="#000000" font-family="sans-serif" font-size="20" lengthAdjust="spacing" textLength="297" x="981" y="3555.7676">All errors logged to AuditLogs</text><!--SRC=[jLTRRzis57xNhpZm1jWQ72Uzx4N0Xigot6XDRCDosuTvA5Y9ThZAf2hIQTEY_ts752bBIjeDGzk7b2BFzJjNotUCbwGYXq9axsWEETsHOw7cWgkKVQBm-C9JJ1KKPY9Jee9bIIkYcE2mfk-FL2gO5-83dC4LlQK5FF4yOkXgSWz5AvQnad05Wtc5KYdF1q0apEFkOoFOojto2AahKHIqCWpBTVHl72cjRbb6BNdQ9KyLsUtQ56cFO8N2ABhT8bcbNr6vkIjfJz-cHniUSzOH5gPUJXHvIoI5mSoUpCjiwdaMtxFV4Pa0vF7jWQb6tLnKXz4E_sWsNqFCRecY6aHl7ZkcMr8mr40DjG-VjnmWkw7PEmqGgsW-PxJ8vSZN3uvuHabUC4wxjwkAYOgfEttxnUd020ImMgORE2SbEnVEkihXVucoQ2M3MdLuL3Sev9EX2M1AIKKh-EFrPgnV8vCBwamZ6G0fou9bXlByRoauQjtogSZl0eWgYlTytm_tRBEizPHrt98SOLCLKXhvKeUxToVQuUkzvHQ7011Zkc47QgvB2mGwRaycqPqATKHlhK6f-PoiCCDHgCQjYPFENG__D2Z-wS2XexKeg8JVC2LC1WpylxRybGq3WgKZ47zK5Sg2g23i85kIKWiFxOCJoZkUZN8b_BOHgUSDOKOLOGMMkbM2J2WmRGGwtU2o1kgq2RRy35OEQ_sHrX3huxABhBvoYMNOB7QUqvIYekTKJU-Il3QLqmzEdZPxOi- -xwM6OJOD88slucW3ly1ylRokgUMMlxwCrp4aEKBuZEKGBcQGo50xJV7gaJURmfdLQ5XYhhGbMgnpsTm3LXy_5WLsi4BPguIRWl00_ndBNVpKJOLTRtgKwA2KwsD1JsZ67pDQwiEM3wm0BPjnKXkLrt6sGYCZL9VlquiBc9BSfPDvruMdlJSiQEWDQesh2iLTerwofnvcMuFgwY5Kcv0PN9ilH7Rr5MGjpJri7PHQZQMnOAvQODgNBfpkyhi1Qel-Hw28dVm167iPRi3itI6aoFimfXtI_vwrnfOEhqNSA7AGTmYwm7UVVaW-DrqL5Ehu8H5fzwMqf1d3SprNt9oBz9m3jglx_gHBf0aEHE4ibDqPqAEJPjXfs9oVtVV_Zvjf9qC9iYCFMm5Qn8MghPjC9jyLlQ4T3lUNDWUipjDf_3nPm6OTBj8msYJBHVinMQJnUeF_uR3jpnW98mriaezFFMRichWPaBtw63SpmRoweM1uS7AEhRbvYAk43w_2gvTn2gDd60bKvpSbqSbuQqlITjTiNd0bziwJ43dmyrJC-65irtOjTxhi19_KtCOqkz5Cadoo4QbP4aQ-UVdvj0CwAiXgim4NDDUNuBCzJEPOYWjoe5y6w9JlXGz2Y_QqqApj6KDTwXPB6zanwDK4a_nGVWiawt5ogY6jCbfUNoUR3f3fCSjGiYLpQTrfUATzorZ8qCBo56_PYhVenpjlnxjiufsvE8_j3eMkU4ZRsLJQHV3uuf5BZYt_t54LF6IeqNUe4GlW6o6JjVix3DBTG5T_nugelLrBh3ABraOGgVHYniajs-jrKJGgSBts7gfFozfKQ4kHtkAn2L2esFu61-SEWmK_NUcFvnMbt7C_5lJIZ2ihOJYS0-yCvY_UdFI-SMFxtaDjn_txxap2v-WoZbuqTOcf2QFXbVWm70-lQSwE1pnSebL3lw6jAxUcj8il4eLbMObRcWyn3iCKsswEZH6_Xf4ub0LLzPdmZ1RwtjVjIhT1siT1vq0Dn1JJswjxt2NXEgds6W7iZa7Jh6typrkBhQPu5C1BJjo-dPkx9y7NMhn-VHhOseC5zkQvE7BDzQlMfN_GuQyOOuaN5WLGVP9GYFqUyqc9klleWZvvzGy0]--></g></svg>