<?xml version="1.0" encoding="UTF-8" standalone="no"?><svg xmlns="http://www.w3.org/2000/svg" xmlns:xlink="http://www.w3.org/1999/xlink" contentStyleType="text/css" height="1430px" preserveAspectRatio="none" style="width:3792px;height:1430px;background:#FFFFFF;" version="1.1" viewBox="0 0 3792 1430" width="3792px" zoomAndPan="magnify"><defs/><g><text fill="#000000" font-family="sans-serif" font-size="14" font-weight="bold" lengthAdjust="spacing" textLength="149" x="1820.5" y="27.9951">Level 3 FE Diagram</text><rect fill="#FFFFFF" height="1198.4375" style="stroke:#181818;stroke-width:1.0;" width="10" x="36" y="135.5781"/><rect fill="#FFFFFF" height="620.2188" style="stroke:#181818;stroke-width:1.0;" width="10" x="694" y="164.8594"/><rect fill="#FFFFFF" height="502.6563" style="stroke:#181818;stroke-width:1.0;" width="10" x="694" y="822.3594"/><rect fill="#FFFFFF" height="67.2813" style="stroke:#181818;stroke-width:1.0;" width="10" x="1409" y="202.1406"/><rect fill="#FFFFFF" height="508.375" style="stroke:#181818;stroke-width:1.0;" width="10" x="1870" y="239.4219"/><rect fill="#FFFFFF" height="428.0938" style="stroke:#181818;stroke-width:1.0;" width="10" x="1870" y="859.6406"/><rect fill="#FFFFFF" height="278.9688" style="stroke:#181818;stroke-width:1.0;" width="10" x="2546.5" y="343.9844"/><rect fill="#FFFFFF" height="278.9688" style="stroke:#181818;stroke-width:1.0;" width="10" x="2546.5" y="934.2031"/><rect fill="#FFFFFF" height="87.5625" style="stroke:#181818;stroke-width:1.0;" width="10" x="3133.5" y="498.1094"/><rect fill="#FFFFFF" height="87.5625" style="stroke:#181818;stroke-width:1.0;" width="10" x="3133.5" y="1088.3281"/><rect fill="#FFFFFF" height="353.5313" style="stroke:#181818;stroke-width:1.0;" width="10" x="3760.5" y="306.7031"/><rect fill="#FFFFFF" height="353.5313" style="stroke:#181818;stroke-width:1.0;" width="10" x="3760.5" y="896.9219"/><line style="stroke:#181818;stroke-width:0.5;stroke-dasharray:5.0,5.0;" x1="41" x2="41" y1="125.5781" y2="1343.0156"/><line style="stroke:#181818;stroke-width:0.5;stroke-dasharray:5.0,5.0;" x1="698.5" x2="698.5" y1="125.5781" y2="1343.0156"/><line style="stroke:#181818;stroke-width:0.5;stroke-dasharray:5.0,5.0;" x1="1414" x2="1414" y1="125.5781" y2="1343.0156"/><line style="stroke:#181818;stroke-width:0.5;stroke-dasharray:5.0,5.0;" x1="1874.5" x2="1874.5" y1="125.5781" y2="1343.0156"/><line style="stroke:#181818;stroke-width:0.5;stroke-dasharray:5.0,5.0;" x1="2338" x2="2338" y1="125.5781" y2="1343.0156"/><line style="stroke:#181818;stroke-width:0.5;stroke-dasharray:5.0,5.0;" x1="2551" x2="2551" y1="125.5781" y2="1343.0156"/><line style="stroke:#181818;stroke-width:0.5;stroke-dasharray:5.0,5.0;" x1="3138.5" x2="3138.5" y1="125.5781" y2="1343.0156"/><line style="stroke:#181818;stroke-width:0.5;stroke-dasharray:5.0,5.0;" x1="3765" x2="3765" y1="125.5781" y2="1343.0156"/><text fill="#000000" font-family="sans-serif" font-size="20" lengthAdjust="spacing" textLength="66" x="5" y="120.8613">Doctor</text><ellipse cx="41" cy="50.7969" fill="#E2E2F0" rx="8" ry="8" style="stroke:#181818;stroke-width:0.5;"/><path d="M41,58.7969 L41,85.7969 M28,66.7969 L54,66.7969 M41,85.7969 L28,100.7969 M41,85.7969 L54,100.7969 " fill="none" style="stroke:#181818;stroke-width:0.5;"/><text fill="#000000" font-family="sans-serif" font-size="20" lengthAdjust="spacing" textLength="66" x="5" y="1360.5801">Doctor</text><ellipse cx="41" cy="1373.7969" fill="#E2E2F0" rx="8" ry="8" style="stroke:#181818;stroke-width:0.5;"/><path d="M41,1381.7969 L41,1408.7969 M28,1389.7969 L54,1389.7969 M41,1408.7969 L28,1423.7969 M41,1408.7969 L54,1423.7969 " fill="none" style="stroke:#181818;stroke-width:0.5;"/><rect fill="#E2E2F0" height="37.2813" rx="2.5" ry="2.5" style="stroke:#181818;stroke-width:0.5;" width="63" x="667.5" y="87.2969"/><text fill="#000000" font-family="sans-serif" font-size="20" lengthAdjust="spacing" textLength="49" x="674.5" y="112.8613">View</text><rect fill="#E2E2F0" height="37.2813" rx="2.5" ry="2.5" style="stroke:#181818;stroke-width:0.5;" width="63" x="667.5" y="1342.0156"/><text fill="#000000" font-family="sans-serif" font-size="20" lengthAdjust="spacing" textLength="49" x="674.5" y="1367.5801">View</text><rect fill="#E2E2F0" height="37.2813" rx="2.5" ry="2.5" style="stroke:#181818;stroke-width:0.5;" width="278" x="1275" y="87.2969"/><text fill="#000000" font-family="sans-serif" font-size="20" lengthAdjust="spacing" textLength="264" x="1282" y="112.8613">MedicalHistoryComponent</text><rect fill="#E2E2F0" height="37.2813" rx="2.5" ry="2.5" style="stroke:#181818;stroke-width:0.5;" width="278" x="1275" y="1342.0156"/><text fill="#000000" font-family="sans-serif" font-size="20" lengthAdjust="spacing" textLength="264" x="1282" y="1367.5801">MedicalHistoryComponent</text><rect fill="#E2E2F0" height="37.2813" rx="2.5" ry="2.5" style="stroke:#181818;stroke-width:0.5;" width="351" x="1699.5" y="87.2969"/><text fill="#000000" font-family="sans-serif" font-size="20" lengthAdjust="spacing" textLength="337" x="1706.5" y="112.8613">UpdateMedicalHistoryComponent</text><rect fill="#E2E2F0" height="37.2813" rx="2.5" ry="2.5" style="stroke:#181818;stroke-width:0.5;" width="351" x="1699.5" y="1342.0156"/><text fill="#000000" font-family="sans-serif" font-size="20" lengthAdjust="spacing" textLength="337" x="1706.5" y="1367.5801">UpdateMedicalHistoryComponent</text><rect fill="#E2E2F0" height="37.2813" rx="2.5" ry="2.5" style="stroke:#181818;stroke-width:0.5;" width="234" x="2221" y="87.2969"/><text fill="#000000" font-family="sans-serif" font-size="20" lengthAdjust="spacing" textLength="220" x="2228" y="112.8613">MedicalHistoryService</text><rect fill="#E2E2F0" height="37.2813" rx="2.5" ry="2.5" style="stroke:#181818;stroke-width:0.5;" width="234" x="2221" y="1342.0156"/><text fill="#000000" font-family="sans-serif" font-size="20" lengthAdjust="spacing" textLength="220" x="2228" y="1367.5801">MedicalHistoryService</text><rect fill="#E2E2F0" height="37.2813" rx="2.5" ry="2.5" style="stroke:#181818;stroke-width:0.5;" width="173" x="2465" y="87.2969"/><text fill="#000000" font-family="sans-serif" font-size="20" lengthAdjust="spacing" textLength="159" x="2472" y="112.8613">AuthInterceptor</text><rect fill="#E2E2F0" height="37.2813" rx="2.5" ry="2.5" style="stroke:#181818;stroke-width:0.5;" width="173" x="2465" y="1342.0156"/><text fill="#000000" font-family="sans-serif" font-size="20" lengthAdjust="spacing" textLength="159" x="2472" y="1367.5801">AuthInterceptor</text><rect fill="#E2E2F0" height="37.2813" rx="2.5" ry="2.5" style="stroke:#181818;stroke-width:0.5;" width="60" x="3108.5" y="87.2969"/><text fill="#000000" font-family="sans-serif" font-size="20" lengthAdjust="spacing" textLength="46" x="3115.5" y="112.8613">MDV</text><rect fill="#E2E2F0" height="37.2813" rx="2.5" ry="2.5" style="stroke:#181818;stroke-width:0.5;" width="60" x="3108.5" y="1342.0156"/><text fill="#000000" font-family="sans-serif" font-size="20" lengthAdjust="spacing" textLength="46" x="3115.5" y="1367.5801">MDV</text><rect fill="#E2E2F0" height="37.2813" rx="2.5" ry="2.5" style="stroke:#181818;stroke-width:0.5;" width="41" x="3745" y="87.2969"/><text fill="#000000" font-family="sans-serif" font-size="20" lengthAdjust="spacing" textLength="27" x="3752" y="112.8613">AS</text><rect fill="#E2E2F0" height="37.2813" rx="2.5" ry="2.5" style="stroke:#181818;stroke-width:0.5;" width="41" x="3745" y="1342.0156"/><text fill="#000000" font-family="sans-serif" font-size="20" lengthAdjust="spacing" textLength="27" x="3752" y="1367.5801">AS</text><rect fill="#FFFFFF" height="1198.4375" style="stroke:#181818;stroke-width:1.0;" width="10" x="36" y="135.5781"/><rect fill="#FFFFFF" height="620.2188" style="stroke:#181818;stroke-width:1.0;" width="10" x="694" y="164.8594"/><rect fill="#FFFFFF" height="502.6563" style="stroke:#181818;stroke-width:1.0;" width="10" x="694" y="822.3594"/><rect fill="#FFFFFF" height="67.2813" style="stroke:#181818;stroke-width:1.0;" width="10" x="1409" y="202.1406"/><rect fill="#FFFFFF" height="508.375" style="stroke:#181818;stroke-width:1.0;" width="10" x="1870" y="239.4219"/><rect fill="#FFFFFF" height="428.0938" style="stroke:#181818;stroke-width:1.0;" width="10" x="1870" y="859.6406"/><rect fill="#FFFFFF" height="278.9688" style="stroke:#181818;stroke-width:1.0;" width="10" x="2546.5" y="343.9844"/><rect fill="#FFFFFF" height="278.9688" style="stroke:#181818;stroke-width:1.0;" width="10" x="2546.5" y="934.2031"/><rect fill="#FFFFFF" height="87.5625" style="stroke:#181818;stroke-width:1.0;" width="10" x="3133.5" y="498.1094"/><rect fill="#FFFFFF" height="87.5625" style="stroke:#181818;stroke-width:1.0;" width="10" x="3133.5" y="1088.3281"/><rect fill="#FFFFFF" height="353.5313" style="stroke:#181818;stroke-width:1.0;" width="10" x="3760.5" y="306.7031"/><rect fill="#FFFFFF" height="353.5313" style="stroke:#181818;stroke-width:1.0;" width="10" x="3760.5" y="896.9219"/><polygon fill="#000000" points="682,160.8594,692,164.8594,682,168.8594,686,164.8594" style="stroke:#000000;stroke-width:1.0;"/><line style="stroke:#000000;stroke-width:1.0;" x1="46" x2="688" y1="164.8594" y2="164.8594"/><text fill="#000000" font-family="sans-serif" font-size="20" lengthAdjust="spacing" textLength="629" x="53" y="158.1426">Asks to update a free text entry in the patient's medical record</text><polygon fill="#000000" points="1397,198.1406,1407,202.1406,1397,206.1406,1401,202.1406" style="stroke:#000000;stroke-width:1.0;"/><line style="stroke:#000000;stroke-width:1.0;" x1="704" x2="1403" y1="202.1406" y2="202.1406"/><text fill="#000000" font-family="sans-serif" font-size="20" lengthAdjust="spacing" textLength="686" x="711" y="195.4238">routerLink='/update-medical-history/:patientMedicalRecordNumber'</text><polygon fill="#000000" points="1858,235.4219,1868,239.4219,1858,243.4219,1862,239.4219" style="stroke:#000000;stroke-width:1.0;"/><line style="stroke:#000000;stroke-width:1.0;" x1="1419" x2="1864" y1="239.4219" y2="239.4219"/><text fill="#000000" font-family="sans-serif" font-size="20" lengthAdjust="spacing" textLength="432" x="1426" y="232.7051">routes to UpdateMedicalHistoryComponent</text><polygon fill="#000000" points="3748.5,302.7031,3758.5,306.7031,3748.5,310.7031,3752.5,306.7031" style="stroke:#000000;stroke-width:1.0;"/><line style="stroke:#000000;stroke-width:1.0;" x1="1880" x2="3754.5" y1="306.7031" y2="306.7031"/><text fill="#000000" font-family="sans-serif" font-size="20" lengthAdjust="spacing" textLength="514" x="1887" y="299.9863">fetchMedicalHistory(patientMedicalRecordNumber)</text><polygon fill="#000000" points="2567.5,339.9844,2557.5,343.9844,2567.5,347.9844,2563.5,343.9844" style="stroke:#000000;stroke-width:1.0;"/><line style="stroke:#000000;stroke-width:1.0;" x1="2561.5" x2="3759.5" y1="343.9844" y2="343.9844"/><text fill="#000000" font-family="sans-serif" font-size="20" lengthAdjust="spacing" textLength="476" x="2573.5" y="337.2676">Makes Http Request to get Medical History data</text><line style="stroke:#000000;stroke-width:1.0;" x1="2556.5" x2="2598.5" y1="381.2656" y2="381.2656"/><line style="stroke:#000000;stroke-width:1.0;" x1="2598.5" x2="2598.5" y1="381.2656" y2="394.2656"/><line style="stroke:#000000;stroke-width:1.0;" x1="2557.5" x2="2598.5" y1="394.2656" y2="394.2656"/><polygon fill="#000000" points="2567.5,390.2656,2557.5,394.2656,2567.5,398.2656,2563.5,394.2656" style="stroke:#000000;stroke-width:1.0;"/><text fill="#000000" font-family="sans-serif" font-size="20" lengthAdjust="spacing" textLength="563" x="2563.5" y="374.5488">Intercepts the request and adds the token to the header</text><path d="M2561,407.2656 L2561,463.2656 L3080,463.2656 L3080,417.2656 L3070,407.2656 L2561,407.2656 " fill="#FEFFDD" style="stroke:#181818;stroke-width:0.5;"/><path d="M3070,407.2656 L3070,417.2656 L3080,417.2656 L3070,407.2656 " fill="#FEFFDD" style="stroke:#181818;stroke-width:0.5;"/><text fill="#000000" font-family="sans-serif" font-size="20" lengthAdjust="spacing" textLength="498" x="2567" y="430.8301">The token is added to the header so that the MDV</text><text fill="#000000" font-family="sans-serif" font-size="20" lengthAdjust="spacing" textLength="442" x="2567" y="454.1113">can authenticate and authorize the request.</text><polygon fill="#000000" points="3121.5,494.1094,3131.5,498.1094,3121.5,502.1094,3125.5,498.1094" style="stroke:#000000;stroke-width:1.0;"/><line style="stroke:#000000;stroke-width:1.0;" x1="2556.5" x2="3127.5" y1="498.1094" y2="498.1094"/><text fill="#000000" font-family="sans-serif" font-size="20" lengthAdjust="spacing" textLength="496" x="2563.5" y="491.3926">getMedicalHistory(patientMedicalRecordNumber)</text><line style="stroke:#000000;stroke-width:1.0;" x1="3143.5" x2="3185.5" y1="535.3906" y2="535.3906"/><line style="stroke:#000000;stroke-width:1.0;" x1="3185.5" x2="3185.5" y1="535.3906" y2="548.3906"/><line style="stroke:#000000;stroke-width:1.0;" x1="3144.5" x2="3185.5" y1="548.3906" y2="548.3906"/><polygon fill="#000000" points="3154.5,544.3906,3144.5,548.3906,3154.5,552.3906,3150.5,548.3906" style="stroke:#000000;stroke-width:1.0;"/><text fill="#000000" font-family="sans-serif" font-size="20" lengthAdjust="spacing" textLength="288" x="3150.5" y="528.6738">Fetches Medical History data</text><polygon fill="#000000" points="2567.5,581.6719,2557.5,585.6719,2567.5,589.6719,2563.5,585.6719" style="stroke:#000000;stroke-width:1.0;"/><line style="stroke:#000000;stroke-width:1.0;stroke-dasharray:2.0,2.0;" x1="2561.5" x2="3137.5" y1="585.6719" y2="585.6719"/><text fill="#000000" font-family="sans-serif" font-size="20" lengthAdjust="spacing" textLength="305" x="2573.5" y="578.9551">returns Operation Status Code</text><polygon fill="#000000" points="3748.5,618.9531,3758.5,622.9531,3748.5,626.9531,3752.5,622.9531" style="stroke:#000000;stroke-width:1.0;"/><line style="stroke:#000000;stroke-width:1.0;stroke-dasharray:2.0,2.0;" x1="2551.5" x2="3754.5" y1="622.9531" y2="622.9531"/><text fill="#000000" font-family="sans-serif" font-size="20" lengthAdjust="spacing" textLength="305" x="2558.5" y="616.2363">returns Operation Status Code</text><polygon fill="#000000" points="1891,656.2344,1881,660.2344,1891,664.2344,1887,660.2344" style="stroke:#000000;stroke-width:1.0;"/><line style="stroke:#000000;stroke-width:1.0;stroke-dasharray:2.0,2.0;" x1="1885" x2="3764.5" y1="660.2344" y2="660.2344"/><text fill="#000000" font-family="sans-serif" font-size="20" lengthAdjust="spacing" textLength="280" x="1897" y="653.5176">returns Operation Response</text><line style="stroke:#000000;stroke-width:1.0;" x1="1880" x2="1922" y1="697.5156" y2="697.5156"/><line style="stroke:#000000;stroke-width:1.0;" x1="1922" x2="1922" y1="697.5156" y2="710.5156"/><line style="stroke:#000000;stroke-width:1.0;" x1="1881" x2="1922" y1="710.5156" y2="710.5156"/><polygon fill="#000000" points="1891,706.5156,1881,710.5156,1891,714.5156,1887,710.5156" style="stroke:#000000;stroke-width:1.0;"/><text fill="#000000" font-family="sans-serif" font-size="20" lengthAdjust="spacing" textLength="439" x="1887" y="690.7988">initializes UpdateMedicalHistoryComponent</text><polygon fill="#000000" points="715,743.7969,705,747.7969,715,751.7969,711,747.7969" style="stroke:#000000;stroke-width:1.0;"/><line style="stroke:#000000;stroke-width:1.0;stroke-dasharray:2.0,2.0;" x1="709" x2="1874" y1="747.7969" y2="747.7969"/><text fill="#000000" font-family="sans-serif" font-size="20" lengthAdjust="spacing" textLength="415" x="721" y="741.0801">returns UpdateMedicalHistoryComponent</text><polygon fill="#000000" points="57,781.0781,47,785.0781,57,789.0781,53,785.0781" style="stroke:#000000;stroke-width:1.0;"/><line style="stroke:#000000;stroke-width:1.0;stroke-dasharray:2.0,2.0;" x1="51" x2="698" y1="785.0781" y2="785.0781"/><text fill="#000000" font-family="sans-serif" font-size="20" lengthAdjust="spacing" textLength="520" x="63" y="778.3613">Displays the fetched data and asks for the new data</text><polygon fill="#000000" points="682,818.3594,692,822.3594,682,826.3594,686,822.3594" style="stroke:#000000;stroke-width:1.0;"/><line style="stroke:#000000;stroke-width:1.0;" x1="46" x2="688" y1="822.3594" y2="822.3594"/><text fill="#000000" font-family="sans-serif" font-size="20" lengthAdjust="spacing" textLength="449" x="53" y="815.6426">Sends the new data(FreeText) to be updated</text><polygon fill="#000000" points="1858,855.6406,1868,859.6406,1858,863.6406,1862,859.6406" style="stroke:#000000;stroke-width:1.0;"/><line style="stroke:#000000;stroke-width:1.0;" x1="704" x2="1864" y1="859.6406" y2="859.6406"/><text fill="#000000" font-family="sans-serif" font-size="20" lengthAdjust="spacing" textLength="303" x="711" y="852.9238">updateMedicalHistory($event)</text><polygon fill="#000000" points="3748.5,892.9219,3758.5,896.9219,3748.5,900.9219,3752.5,896.9219" style="stroke:#000000;stroke-width:1.0;"/><line style="stroke:#000000;stroke-width:1.0;" x1="1880" x2="3754.5" y1="896.9219" y2="896.9219"/><text fill="#000000" font-family="sans-serif" font-size="20" lengthAdjust="spacing" textLength="423" x="1887" y="890.2051">updateMedicalHistory(newMedicalHistory)</text><polygon fill="#000000" points="2567.5,930.2031,2557.5,934.2031,2567.5,938.2031,2563.5,934.2031" style="stroke:#000000;stroke-width:1.0;"/><line style="stroke:#000000;stroke-width:1.0;" x1="2561.5" x2="3759.5" y1="934.2031" y2="934.2031"/><text fill="#000000" font-family="sans-serif" font-size="20" lengthAdjust="spacing" textLength="784" x="2573.5" y="927.4863">Makes Http Request to update a free text entry in the patient's medical record</text><line style="stroke:#000000;stroke-width:1.0;" x1="2556.5" x2="2598.5" y1="971.4844" y2="971.4844"/><line style="stroke:#000000;stroke-width:1.0;" x1="2598.5" x2="2598.5" y1="971.4844" y2="984.4844"/><line style="stroke:#000000;stroke-width:1.0;" x1="2557.5" x2="2598.5" y1="984.4844" y2="984.4844"/><polygon fill="#000000" points="2567.5,980.4844,2557.5,984.4844,2567.5,988.4844,2563.5,984.4844" style="stroke:#000000;stroke-width:1.0;"/><text fill="#000000" font-family="sans-serif" font-size="20" lengthAdjust="spacing" textLength="563" x="2563.5" y="964.7676">Intercepts the request and adds the token to the header</text><path d="M2561,997.4844 L2561,1053.4844 L3080,1053.4844 L3080,1007.4844 L3070,997.4844 L2561,997.4844 " fill="#FEFFDD" style="stroke:#181818;stroke-width:0.5;"/><path d="M3070,997.4844 L3070,1007.4844 L3080,1007.4844 L3070,997.4844 " fill="#FEFFDD" style="stroke:#181818;stroke-width:0.5;"/><text fill="#000000" font-family="sans-serif" font-size="20" lengthAdjust="spacing" textLength="498" x="2567" y="1021.0488">The token is added to the header so that the MDV</text><text fill="#000000" font-family="sans-serif" font-size="20" lengthAdjust="spacing" textLength="442" x="2567" y="1044.3301">can authenticate and authorize the request.</text><polygon fill="#000000" points="3121.5,1084.3281,3131.5,1088.3281,3121.5,1092.3281,3125.5,1088.3281" style="stroke:#000000;stroke-width:1.0;"/><line style="stroke:#000000;stroke-width:1.0;" x1="2556.5" x2="3127.5" y1="1088.3281" y2="1088.3281"/><text fill="#000000" font-family="sans-serif" font-size="20" lengthAdjust="spacing" textLength="423" x="2563.5" y="1081.6113">updateMedicalHistory(newMedicalHistory)</text><line style="stroke:#000000;stroke-width:1.0;" x1="3143.5" x2="3185.5" y1="1125.6094" y2="1125.6094"/><line style="stroke:#000000;stroke-width:1.0;" x1="3185.5" x2="3185.5" y1="1125.6094" y2="1138.6094"/><line style="stroke:#000000;stroke-width:1.0;" x1="3144.5" x2="3185.5" y1="1138.6094" y2="1138.6094"/><polygon fill="#000000" points="3154.5,1134.6094,3144.5,1138.6094,3154.5,1142.6094,3150.5,1138.6094" style="stroke:#000000;stroke-width:1.0;"/><text fill="#000000" font-family="sans-serif" font-size="20" lengthAdjust="spacing" textLength="603" x="3150.5" y="1118.8926">Validates the data and updates the patient's medical record</text><polygon fill="#000000" points="2567.5,1171.8906,2557.5,1175.8906,2567.5,1179.8906,2563.5,1175.8906" style="stroke:#000000;stroke-width:1.0;"/><line style="stroke:#000000;stroke-width:1.0;stroke-dasharray:2.0,2.0;" x1="2561.5" x2="3137.5" y1="1175.8906" y2="1175.8906"/><text fill="#000000" font-family="sans-serif" font-size="20" lengthAdjust="spacing" textLength="311" x="2573.5" y="1169.1738">Returns Operation Status Code</text><polygon fill="#000000" points="3748.5,1209.1719,3758.5,1213.1719,3748.5,1217.1719,3752.5,1213.1719" style="stroke:#000000;stroke-width:1.0;"/><line style="stroke:#000000;stroke-width:1.0;stroke-dasharray:2.0,2.0;" x1="2551.5" x2="3754.5" y1="1213.1719" y2="1213.1719"/><text fill="#000000" font-family="sans-serif" font-size="20" lengthAdjust="spacing" textLength="305" x="2558.5" y="1206.4551">returns Operation Status Code</text><polygon fill="#000000" points="1891,1246.4531,1881,1250.4531,1891,1254.4531,1887,1250.4531" style="stroke:#000000;stroke-width:1.0;"/><line style="stroke:#000000;stroke-width:1.0;stroke-dasharray:2.0,2.0;" x1="1885" x2="3764.5" y1="1250.4531" y2="1250.4531"/><text fill="#000000" font-family="sans-serif" font-size="20" lengthAdjust="spacing" textLength="280" x="1897" y="1243.7363">returns Operation Response</text><polygon fill="#000000" points="715,1283.7344,705,1287.7344,715,1291.7344,711,1287.7344" style="stroke:#000000;stroke-width:1.0;"/><line style="stroke:#000000;stroke-width:1.0;stroke-dasharray:2.0,2.0;" x1="709" x2="1874" y1="1287.7344" y2="1287.7344"/><text fill="#000000" font-family="sans-serif" font-size="20" lengthAdjust="spacing" textLength="374" x="721" y="1281.0176">returns Operation In/Sucess message</text><polygon fill="#000000" points="57,1321.0156,47,1325.0156,57,1329.0156,53,1325.0156" style="stroke:#000000;stroke-width:1.0;"/><line style="stroke:#000000;stroke-width:1.0;stroke-dasharray:2.0,2.0;" x1="51" x2="698" y1="1325.0156" y2="1325.0156"/><text fill="#000000" font-family="sans-serif" font-size="20" lengthAdjust="spacing" textLength="374" x="63" y="1318.2988">returns Operation In/Sucess message</text><!--SRC=[tLRRJjj047ttLuoWKk21GgbwYoYISx5gYHGf9hmlzYJPnjbrTzVGjEg_TsRj49k6jBGlLP5GbF6SisVEpenZ5r8LmeXbhjC5Pf3XL9IvYxHoYVoAS7eI14ww7E42Rp67bn0DOI35Z211C9SP0YuBju8bBc_GsA1Zrunm8HMwLO6WZPlh8DWyINDXBNmBWFvw8btCZ2vLrjUvDcTdjo8lyVBc4wRk_1ps1w-7OVHsUwhHskT4Ws5lSB8znwAvbIbwgXVHwR2tBGts9t7qRlZ6FmkDqNTLk9TJNl2zgRsWY9ZXTlMmF-n5hw8UGqJgA33G_aDO20CYS3ALXL0EhYNUSNGIjy9x8ynaAl8FqX9irTVBGYjKRiypZFhjv4cH2OUx89Emlui_gSpngPVZf9qQbcuUAuScnOAIAmbjkQF1DKVfmzShRqaE5Hh2qJbLreNGBYmu3QKN2WAc1X4SVd502iqAf08tHpBLIGfqBFMHrmS6Ksso3IdvD8cPbape0ZbEkgZ15kyxnnNvKOqycbUb7NThqhhYiIVyM7ARTXfYoLFwzuB3DRFNlDFSXZ1oECCM7uMyqgGBKtJflCrnyBYkmuQk90WJpq8sZiI2D7rmhe0nVYxHEXOuGxg0sgwQ6qYoQ934GHYlIUwlqdhBJKqaL0OYowgWqmjKpCrVvYWoD87In6JaREv0JvcI-_xgFbbQXjFgQA70yZVXV8ZRWq6fK22egQXu4itzm6TJG1lUDGrLpmEaHtnoNG1HTBdWFx6IZ-T6NTD4V2VavrRlV6Bjc45N6aMJKQ2XWxI2n0bNMkZh39kNpYUmplhIVnl7zvDuMDLxF-76QAdVR1kKh1lCWwIIJegS3BI_Q5cFgWTpVTHkHEDKRlD9NMANtW2soCMgQXhVu_pk8F-gA-MfdzBMuwUAzfntjaaMRrP4GZTjMva74Is9AzeHXznJDrXlZstBm3jGRgdXu1czhfGxRCzfOp2tWaX1E_AqWVpxBVUV3UoJJNuugjVKs4nH5NlVO1MltMrgSvB7__GaFvZ93IXMnqcPekNQhALV7OzFv5F1SV03]--></g></svg>