<?xml version="1.0" encoding="UTF-8" standalone="no"?><svg xmlns="http://www.w3.org/2000/svg" xmlns:xlink="http://www.w3.org/1999/xlink" contentStyleType="text/css" height="1289px" preserveAspectRatio="none" style="width:3556px;height:1289px;background:#FFFFFF;" version="1.1" viewBox="0 0 3556 1289" width="3556px" zoomAndPan="magnify"><defs><filter height="300%" id="f12af7dmv6ntkl" width="300%" x="-1" y="-1"><feGaussianBlur result="blurOut" stdDeviation="2.0"/><feColorMatrix in="blurOut" result="blurOut2" type="matrix" values="0 0 0 0 0 0 0 0 0 0 0 0 0 0 0 0 0 0 .4 0"/><feOffset dx="4.0" dy="4.0" in="blurOut2" result="blurOut3"/><feBlend in="SourceGraphic" in2="blurOut3" mode="normal"/></filter></defs><g><text fill="#000000" font-family="sans-serif" font-size="14" font-weight="bold" lengthAdjust="spacing" textLength="181" x="1686" y="27.9951">5.1.22 Level 3 Diagram</text><rect fill="#FFFFFF" filter="url(#f12af7dmv6ntkl)" height="1053.4375" style="stroke:#181818;stroke-width:1.0;" width="10" x="61" y="138.5781"/><rect fill="#FFFFFF" filter="url(#f12af7dmv6ntkl)" height="578.7813" style="stroke:#181818;stroke-width:1.0;" width="10" x="583" y="167.8594"/><rect fill="#FFFFFF" filter="url(#f12af7dmv6ntkl)" height="504.2188" style="stroke:#181818;stroke-width:1.0;" width="10" x="1239" y="205.1406"/><rect fill="#FFFFFF" filter="url(#f12af7dmv6ntkl)" height="429.6563" style="stroke:#181818;stroke-width:1.0;" width="10" x="1895" y="242.4219"/><rect fill="#FFFFFF" filter="url(#f12af7dmv6ntkl)" height="355.0938" style="stroke:#181818;stroke-width:1.0;" width="10" x="2780" y="279.7031"/><rect fill="#FFFFFF" filter="url(#f12af7dmv6ntkl)" height="77.8438" style="stroke:#181818;stroke-width:1.0;" width="10" x="3436" y="354.2656"/><rect fill="#FFFFFF" filter="url(#f12af7dmv6ntkl)" height="128.125" style="stroke:#181818;stroke-width:1.0;" width="10" x="3436" y="469.3906"/><rect fill="none" filter="url(#f12af7dmv6ntkl)" height="815.75" style="stroke:#000000;stroke-width:1.5;" width="3534" x="10" y="369.2656"/><rect fill="none" filter="url(#f12af7dmv6ntkl)" height="431.6563" style="stroke:#000000;stroke-width:1.5;" width="3492.5" x="20" y="534.6719"/><line style="stroke:#181818;stroke-width:0.5;stroke-dasharray:5.0,5.0;" x1="66" x2="66" y1="128.5781" y2="1202.0156"/><line style="stroke:#181818;stroke-width:0.5;stroke-dasharray:5.0,5.0;" x1="588" x2="588" y1="128.5781" y2="1202.0156"/><line style="stroke:#181818;stroke-width:0.5;stroke-dasharray:5.0,5.0;" x1="1243.5" x2="1243.5" y1="128.5781" y2="1202.0156"/><line style="stroke:#181818;stroke-width:0.5;stroke-dasharray:5.0,5.0;" x1="1900" x2="1900" y1="128.5781" y2="1202.0156"/><line style="stroke:#181818;stroke-width:0.5;stroke-dasharray:5.0,5.0;" x1="2785" x2="2785" y1="128.5781" y2="1202.0156"/><line style="stroke:#181818;stroke-width:0.5;stroke-dasharray:5.0,5.0;" x1="3440.5" x2="3440.5" y1="128.5781" y2="1202.0156"/><text fill="#000000" font-family="sans-serif" font-size="20" lengthAdjust="spacing" textLength="66" x="30" y="123.8613">Admin</text><ellipse cx="66" cy="50.7969" fill="#E2E2F0" filter="url(#f12af7dmv6ntkl)" rx="8" ry="8" style="stroke:#181818;stroke-width:0.5;"/><path d="M66,58.7969 L66,85.7969 M53,66.7969 L79,66.7969 M66,85.7969 L53,100.7969 M66,85.7969 L79,100.7969 " fill="none" filter="url(#f12af7dmv6ntkl)" style="stroke:#181818;stroke-width:0.5;"/><text fill="#000000" font-family="sans-serif" font-size="20" lengthAdjust="spacing" textLength="66" x="30" y="1219.5801">Admin</text><ellipse cx="66" cy="1232.7969" fill="#E2E2F0" filter="url(#f12af7dmv6ntkl)" rx="8" ry="8" style="stroke:#181818;stroke-width:0.5;"/><path d="M66,1240.7969 L66,1267.7969 M53,1248.7969 L79,1248.7969 M66,1267.7969 L53,1282.7969 M66,1267.7969 L79,1282.7969 " fill="none" filter="url(#f12af7dmv6ntkl)" style="stroke:#181818;stroke-width:0.5;"/><rect fill="#E2E2F0" filter="url(#f12af7dmv6ntkl)" height="37.2813" rx="2.5" ry="2.5" style="stroke:#181818;stroke-width:0.5;" width="83" x="545" y="87.2969"/><text fill="#000000" font-family="sans-serif" font-size="20" lengthAdjust="spacing" textLength="69" x="552" y="112.8613">Routes</text><rect fill="#E2E2F0" filter="url(#f12af7dmv6ntkl)" height="37.2813" rx="2.5" ry="2.5" style="stroke:#181818;stroke-width:0.5;" width="83" x="545" y="1201.0156"/><text fill="#000000" font-family="sans-serif" font-size="20" lengthAdjust="spacing" textLength="69" x="552" y="1226.5801">Routes</text><rect fill="#E2E2F0" filter="url(#f12af7dmv6ntkl)" height="37.2813" rx="2.5" ry="2.5" style="stroke:#181818;stroke-width:0.5;" width="60" x="1212.5" y="87.2969"/><text fill="#000000" font-family="sans-serif" font-size="20" lengthAdjust="spacing" textLength="46" x="1219.5" y="112.8613">MDR</text><rect fill="#E2E2F0" filter="url(#f12af7dmv6ntkl)" height="37.2813" rx="2.5" ry="2.5" style="stroke:#181818;stroke-width:0.5;" width="60" x="1212.5" y="1201.0156"/><text fill="#000000" font-family="sans-serif" font-size="20" lengthAdjust="spacing" textLength="46" x="1219.5" y="1226.5801">MDR</text><rect fill="#E2E2F0" filter="url(#f12af7dmv6ntkl)" height="37.2813" rx="2.5" ry="2.5" style="stroke:#181818;stroke-width:0.5;" width="113" x="1842" y="87.2969"/><text fill="#000000" font-family="sans-serif" font-size="20" lengthAdjust="spacing" textLength="99" x="1849" y="112.8613">Controller</text><rect fill="#E2E2F0" filter="url(#f12af7dmv6ntkl)" height="37.2813" rx="2.5" ry="2.5" style="stroke:#181818;stroke-width:0.5;" width="113" x="1842" y="1201.0156"/><text fill="#000000" font-family="sans-serif" font-size="20" lengthAdjust="spacing" textLength="99" x="1849" y="1226.5801">Controller</text><rect fill="#E2E2F0" filter="url(#f12af7dmv6ntkl)" height="37.2813" rx="2.5" ry="2.5" style="stroke:#181818;stroke-width:0.5;" width="87" x="2740" y="87.2969"/><text fill="#000000" font-family="sans-serif" font-size="20" lengthAdjust="spacing" textLength="73" x="2747" y="112.8613">Service</text><rect fill="#E2E2F0" filter="url(#f12af7dmv6ntkl)" height="37.2813" rx="2.5" ry="2.5" style="stroke:#181818;stroke-width:0.5;" width="87" x="2740" y="1201.0156"/><text fill="#000000" font-family="sans-serif" font-size="20" lengthAdjust="spacing" textLength="73" x="2747" y="1226.5801">Service</text><rect fill="#E2E2F0" filter="url(#f12af7dmv6ntkl)" height="37.2813" rx="2.5" ry="2.5" style="stroke:#181818;stroke-width:0.5;" width="120" x="3379.5" y="87.2969"/><text fill="#000000" font-family="sans-serif" font-size="20" lengthAdjust="spacing" textLength="106" x="3386.5" y="112.8613">Repository</text><rect fill="#E2E2F0" filter="url(#f12af7dmv6ntkl)" height="37.2813" rx="2.5" ry="2.5" style="stroke:#181818;stroke-width:0.5;" width="120" x="3379.5" y="1201.0156"/><text fill="#000000" font-family="sans-serif" font-size="20" lengthAdjust="spacing" textLength="106" x="3386.5" y="1226.5801">Repository</text><rect fill="#FFFFFF" filter="url(#f12af7dmv6ntkl)" height="1053.4375" style="stroke:#181818;stroke-width:1.0;" width="10" x="61" y="138.5781"/><rect fill="#FFFFFF" filter="url(#f12af7dmv6ntkl)" height="578.7813" style="stroke:#181818;stroke-width:1.0;" width="10" x="583" y="167.8594"/><rect fill="#FFFFFF" filter="url(#f12af7dmv6ntkl)" height="504.2188" style="stroke:#181818;stroke-width:1.0;" width="10" x="1239" y="205.1406"/><rect fill="#FFFFFF" filter="url(#f12af7dmv6ntkl)" height="429.6563" style="stroke:#181818;stroke-width:1.0;" width="10" x="1895" y="242.4219"/><rect fill="#FFFFFF" filter="url(#f12af7dmv6ntkl)" height="355.0938" style="stroke:#181818;stroke-width:1.0;" width="10" x="2780" y="279.7031"/><rect fill="#FFFFFF" filter="url(#f12af7dmv6ntkl)" height="77.8438" style="stroke:#181818;stroke-width:1.0;" width="10" x="3436" y="354.2656"/><rect fill="#FFFFFF" filter="url(#f12af7dmv6ntkl)" height="128.125" style="stroke:#181818;stroke-width:1.0;" width="10" x="3436" y="469.3906"/><polygon fill="#181818" points="571,163.8594,581,167.8594,571,171.8594,575,167.8594" style="stroke:#181818;stroke-width:1.0;"/><line style="stroke:#181818;stroke-width:1.0;" x1="71" x2="577" y1="167.8594" y2="167.8594"/><text fill="#000000" font-family="sans-serif" font-size="20" lengthAdjust="spacing" textLength="493" x="78" y="161.1426">delete(\operationTypeID or \operationTypeName)</text><polygon fill="#181818" points="1227,201.1406,1237,205.1406,1227,209.1406,1231,205.1406" style="stroke:#181818;stroke-width:1.0;"/><line style="stroke:#181818;stroke-width:1.0;" x1="593" x2="1233" y1="205.1406" y2="205.1406"/><text fill="#000000" font-family="sans-serif" font-size="20" lengthAdjust="spacing" textLength="627" x="600" y="198.4238">deleteOperationType(operationTypeID or operationTypeName)</text><polygon fill="#181818" points="1883,238.4219,1893,242.4219,1883,246.4219,1887,242.4219" style="stroke:#181818;stroke-width:1.0;"/><line style="stroke:#181818;stroke-width:1.0;" x1="1249" x2="1889" y1="242.4219" y2="242.4219"/><text fill="#000000" font-family="sans-serif" font-size="20" lengthAdjust="spacing" textLength="627" x="1256" y="235.7051">deleteOperationType(operationTypeID or operationTypeName)</text><polygon fill="#181818" points="2768,275.7031,2778,279.7031,2768,283.7031,2772,279.7031" style="stroke:#181818;stroke-width:1.0;"/><line style="stroke:#181818;stroke-width:1.0;" x1="1905" x2="2774" y1="279.7031" y2="279.7031"/><text fill="#000000" font-family="sans-serif" font-size="20" lengthAdjust="spacing" textLength="856" x="1912" y="272.9863">instance().validateAndDeleteOperationType(operationTypeID or operationTypeName)</text><polygon fill="#181818" points="3429,312.9844,3439,316.9844,3429,320.9844,3433,316.9844" style="stroke:#181818;stroke-width:1.0;"/><line style="stroke:#181818;stroke-width:1.0;" x1="2790" x2="3435" y1="316.9844" y2="316.9844"/><text fill="#000000" font-family="sans-serif" font-size="20" lengthAdjust="spacing" textLength="414" x="2797" y="310.2676">findOperationTypeByID(operationTypeID)</text><polygon fill="#181818" points="3424,350.2656,3434,354.2656,3424,358.2656,3428,354.2656" style="stroke:#181818;stroke-width:1.0;"/><line style="stroke:#181818;stroke-width:1.0;" x1="2790" x2="3430" y1="354.2656" y2="354.2656"/><text fill="#000000" font-family="sans-serif" font-size="20" lengthAdjust="spacing" textLength="490" x="2797" y="347.5488">findOperationTypeByName(operationTypeName)</text><path d="M10,369.2656 L86,369.2656 L86,384.5469 L76,394.5469 L10,394.5469 L10,369.2656 " fill="#EEEEEE" style="stroke:#000000;stroke-width:1.5;"/><rect fill="none" height="815.75" style="stroke:#000000;stroke-width:1.5;" width="3534" x="10" y="369.2656"/><text fill="#000000" font-family="sans-serif" font-size="20" font-weight="bold" lengthAdjust="spacing" textLength="31" x="25" y="388.8301">alt</text><text fill="#000000" font-family="sans-serif" font-size="20" font-weight="bold" lengthAdjust="spacing" textLength="265" x="101" y="389.8301">[Operation type exists]</text><polygon fill="#181818" points="2801,428.1094,2791,432.1094,2801,436.1094,2797,432.1094" style="stroke:#181818;stroke-width:1.0;"/><line style="stroke:#181818;stroke-width:1.0;stroke-dasharray:2.0,2.0;" x1="2795" x2="3440" y1="432.1094" y2="432.1094"/><text fill="#000000" font-family="sans-serif" font-size="20" lengthAdjust="spacing" textLength="212" x="2807" y="425.3926">OperationType found</text><polygon fill="#181818" points="3424,465.3906,3434,469.3906,3424,473.3906,3428,469.3906" style="stroke:#181818;stroke-width:1.0;"/><line style="stroke:#181818;stroke-width:1.0;" x1="2790" x2="3430" y1="469.3906" y2="469.3906"/><text fill="#000000" font-family="sans-serif" font-size="20" lengthAdjust="spacing" textLength="627" x="2797" y="462.6738">deleteOperationType(operationTypeID or operationTypeName)</text><line style="stroke:#181818;stroke-width:1.0;" x1="3446" x2="3488" y1="506.6719" y2="506.6719"/><line style="stroke:#181818;stroke-width:1.0;" x1="3488" x2="3488" y1="506.6719" y2="519.6719"/><line style="stroke:#181818;stroke-width:1.0;" x1="3447" x2="3488" y1="519.6719" y2="519.6719"/><polygon fill="#181818" points="3457,515.6719,3447,519.6719,3457,523.6719,3453,519.6719" style="stroke:#181818;stroke-width:1.0;"/><text fill="#000000" font-family="sans-serif" font-size="20" lengthAdjust="spacing" textLength="79" x="3453" y="499.9551">delete()</text><path d="M20,534.6719 L96,534.6719 L96,549.9531 L86,559.9531 L20,559.9531 L20,534.6719 " fill="#EEEEEE" style="stroke:#000000;stroke-width:1.5;"/><rect fill="none" height="431.6563" style="stroke:#000000;stroke-width:1.5;" width="3492.5" x="20" y="534.6719"/><text fill="#000000" font-family="sans-serif" font-size="20" font-weight="bold" lengthAdjust="spacing" textLength="31" x="35" y="554.2363">alt</text><text fill="#000000" font-family="sans-serif" font-size="20" font-weight="bold" lengthAdjust="spacing" textLength="157" x="111" y="555.2363">[Success 200]</text><polygon fill="#181818" points="2801,593.5156,2791,597.5156,2801,601.5156,2797,597.5156" style="stroke:#181818;stroke-width:1.0;"/><line style="stroke:#181818;stroke-width:1.0;stroke-dasharray:2.0,2.0;" x1="2795" x2="3440" y1="597.5156" y2="597.5156"/><text fill="#000000" font-family="sans-serif" font-size="20" lengthAdjust="spacing" textLength="39" x="2807" y="590.7988">200</text><polygon fill="#181818" points="1916,630.7969,1906,634.7969,1916,638.7969,1912,634.7969" style="stroke:#181818;stroke-width:1.0;"/><line style="stroke:#181818;stroke-width:1.0;stroke-dasharray:2.0,2.0;" x1="1910" x2="2784" y1="634.7969" y2="634.7969"/><text fill="#000000" font-family="sans-serif" font-size="20" lengthAdjust="spacing" textLength="39" x="1922" y="628.0801">200</text><polygon fill="#181818" points="1260,668.0781,1250,672.0781,1260,676.0781,1256,672.0781" style="stroke:#181818;stroke-width:1.0;"/><line style="stroke:#181818;stroke-width:1.0;stroke-dasharray:2.0,2.0;" x1="1254" x2="1899" y1="672.0781" y2="672.0781"/><text fill="#000000" font-family="sans-serif" font-size="20" lengthAdjust="spacing" textLength="39" x="1266" y="665.3613">200</text><polygon fill="#181818" points="604,705.3594,594,709.3594,604,713.3594,600,709.3594" style="stroke:#181818;stroke-width:1.0;"/><line style="stroke:#181818;stroke-width:1.0;stroke-dasharray:2.0,2.0;" x1="598" x2="1243" y1="709.3594" y2="709.3594"/><text fill="#000000" font-family="sans-serif" font-size="20" lengthAdjust="spacing" textLength="39" x="610" y="702.6426">200</text><polygon fill="#181818" points="82,742.6406,72,746.6406,82,750.6406,78,746.6406" style="stroke:#181818;stroke-width:1.0;"/><line style="stroke:#181818;stroke-width:1.0;stroke-dasharray:2.0,2.0;" x1="76" x2="587" y1="746.6406" y2="746.6406"/><text fill="#000000" font-family="sans-serif" font-size="20" lengthAdjust="spacing" textLength="236" x="88" y="739.9238">Operation Type deleted</text><line style="stroke:#000000;stroke-width:1.0;stroke-dasharray:2.0,2.0;" x1="20" x2="3512.5" y1="755.6406" y2="755.6406"/><text fill="#000000" font-family="sans-serif" font-size="20" font-weight="bold" lengthAdjust="spacing" textLength="147" x="25" y="774.2051">[Failure 400]</text><polygon fill="#181818" points="2796,805.2031,2786,809.2031,2796,813.2031,2792,809.2031" style="stroke:#181818;stroke-width:1.0;"/><line style="stroke:#181818;stroke-width:1.0;stroke-dasharray:2.0,2.0;" x1="2790" x2="3440" y1="809.2031" y2="809.2031"/><text fill="#000000" font-family="sans-serif" font-size="20" lengthAdjust="spacing" textLength="39" x="2802" y="802.4863">400</text><polygon fill="#181818" points="1911,842.4844,1901,846.4844,1911,850.4844,1907,846.4844" style="stroke:#181818;stroke-width:1.0;"/><line style="stroke:#181818;stroke-width:1.0;stroke-dasharray:2.0,2.0;" x1="1905" x2="2784" y1="846.4844" y2="846.4844"/><text fill="#000000" font-family="sans-serif" font-size="20" lengthAdjust="spacing" textLength="39" x="1917" y="839.7676">400</text><polygon fill="#181818" points="1255,879.7656,1245,883.7656,1255,887.7656,1251,883.7656" style="stroke:#181818;stroke-width:1.0;"/><line style="stroke:#181818;stroke-width:1.0;stroke-dasharray:2.0,2.0;" x1="1249" x2="1899" y1="883.7656" y2="883.7656"/><text fill="#000000" font-family="sans-serif" font-size="20" lengthAdjust="spacing" textLength="39" x="1261" y="877.0488">400</text><polygon fill="#181818" points="599,917.0469,589,921.0469,599,925.0469,595,921.0469" style="stroke:#181818;stroke-width:1.0;"/><line style="stroke:#181818;stroke-width:1.0;stroke-dasharray:2.0,2.0;" x1="593" x2="1243" y1="921.0469" y2="921.0469"/><text fill="#000000" font-family="sans-serif" font-size="20" lengthAdjust="spacing" textLength="39" x="605" y="914.3301">400</text><polygon fill="#181818" points="82,954.3281,72,958.3281,82,962.3281,78,958.3281" style="stroke:#181818;stroke-width:1.0;"/><line style="stroke:#181818;stroke-width:1.0;stroke-dasharray:2.0,2.0;" x1="76" x2="587" y1="958.3281" y2="958.3281"/><text fill="#000000" font-family="sans-serif" font-size="20" lengthAdjust="spacing" textLength="304" x="88" y="951.6113">Operation Type deletion failed</text><line style="stroke:#000000;stroke-width:1.0;stroke-dasharray:2.0,2.0;" x1="10" x2="3544" y1="974.3281" y2="974.3281"/><text fill="#000000" font-family="sans-serif" font-size="20" font-weight="bold" lengthAdjust="spacing" textLength="307" x="15" y="992.8926">[Operation type not found]</text><polygon fill="#181818" points="2796,1023.8906,2786,1027.8906,2796,1031.8906,2792,1027.8906" style="stroke:#181818;stroke-width:1.0;"/><line style="stroke:#181818;stroke-width:1.0;stroke-dasharray:2.0,2.0;" x1="2790" x2="3440" y1="1027.8906" y2="1027.8906"/><text fill="#000000" font-family="sans-serif" font-size="20" lengthAdjust="spacing" textLength="165" x="2802" y="1021.1738">404 (Not Found)</text><polygon fill="#181818" points="1911,1061.1719,1901,1065.1719,1911,1069.1719,1907,1065.1719" style="stroke:#181818;stroke-width:1.0;"/><line style="stroke:#181818;stroke-width:1.0;stroke-dasharray:2.0,2.0;" x1="1905" x2="2784" y1="1065.1719" y2="1065.1719"/><text fill="#000000" font-family="sans-serif" font-size="20" lengthAdjust="spacing" textLength="165" x="1917" y="1058.4551">404 (Not Found)</text><polygon fill="#181818" points="1255,1098.4531,1245,1102.4531,1255,1106.4531,1251,1102.4531" style="stroke:#181818;stroke-width:1.0;"/><line style="stroke:#181818;stroke-width:1.0;stroke-dasharray:2.0,2.0;" x1="1249" x2="1899" y1="1102.4531" y2="1102.4531"/><text fill="#000000" font-family="sans-serif" font-size="20" lengthAdjust="spacing" textLength="165" x="1261" y="1095.7363">404 (Not Found)</text><polygon fill="#181818" points="599,1135.7344,589,1139.7344,599,1143.7344,595,1139.7344" style="stroke:#181818;stroke-width:1.0;"/><line style="stroke:#181818;stroke-width:1.0;stroke-dasharray:2.0,2.0;" x1="593" x2="1243" y1="1139.7344" y2="1139.7344"/><text fill="#000000" font-family="sans-serif" font-size="20" lengthAdjust="spacing" textLength="165" x="605" y="1133.0176">404 (Not Found)</text><polygon fill="#181818" points="82,1173.0156,72,1177.0156,82,1181.0156,78,1177.0156" style="stroke:#181818;stroke-width:1.0;"/><line style="stroke:#181818;stroke-width:1.0;stroke-dasharray:2.0,2.0;" x1="76" x2="587" y1="1177.0156" y2="1177.0156"/><text fill="#000000" font-family="sans-serif" font-size="20" lengthAdjust="spacing" textLength="257" x="88" y="1170.2988">Operation Type not found</text><!--SRC=[hPN1RgCm48RlVeevmg5HcsKlEQp4BefKgTjAJOzxiV2GM34siatQxDFNXf2O1DXksaXHm9x_7-OR3p5RBYkgQIbKlaK630jQ2xjKqgxuNuJvBJ5T26oePA-QMuiI2YeC1dkbaYhVQ5NYnLP5yorTuyhk1OB6t0PxPaEPUkLo3LRNI2otBkRxx6usdyC3xb30DyWuNRjOGcXkbOQKbLm2DP1cpHBVKOl-9itWvWSygzgYMRXA15gC_gWADRLSoPTzXVSPE8V-sYCjCJuPjNhI_dZ3tzbpv_OKwg81vobZvqFSrrl-SdYr4WBrbpYVxCZfqkTPeTxn71V0fR5KvXZ5inqLd3bLAbds-TI738GSBfeEOAKCTwtQBw3WalKI_DpVP-T9ulzG-_pHPF-EUaA5XQCSh8i5VEF66WBkSmg4cv1LBo4KgfQiYMSubCFlZ3pzzPtrfcF9miSUoXV5fDMxubTrdgCnReflcxMfiiEOyL9xvPwTv167xeXqM-4HxSPhH1eSx6wtcQ1Wp4UKVjYE5Hz6sQdIBEWlD0rkgR71sjjNWLz5zqg39UMYrWZ91t0cdyQPN8ypkHfdyYKu_LtXOFqRgvkj1ktPc4fbWyaRPvn0zEX2bpuq_kYKNd2UT0bv3xEUb9ynl-GzgUwuJpFlqxeaxIa7g-wlyXq0]--></g></svg>