<?xml version="1.0" encoding="UTF-8" standalone="no"?><svg xmlns="http://www.w3.org/2000/svg" xmlns:xlink="http://www.w3.org/1999/xlink" contentStyleType="text/css" height="607px" preserveAspectRatio="none" style="width:1250px;height:607px;background:#FFFFFF;" version="1.1" viewBox="0 0 1250 607" width="1250px" zoomAndPan="magnify"><defs><filter height="300%" id="fzvu9yaxfw5cw" width="300%" x="-1" y="-1"><feGaussianBlur result="blurOut" stdDeviation="2.0"/><feColorMatrix in="blurOut" result="blurOut2" type="matrix" values="0 0 0 0 0 0 0 0 0 0 0 0 0 0 0 0 0 0 .4 0"/><feOffset dx="4.0" dy="4.0" in="blurOut2" result="blurOut3"/><feBlend in="SourceGraphic" in2="blurOut3" mode="normal"/></filter></defs><g><text fill="#000000" font-family="sans-serif" font-size="14" font-weight="bold" lengthAdjust="spacing" textLength="181" x="533.25" y="27.9951">5.1.23 Level 2 Diagram</text><rect fill="#FFFFFF" filter="url(#fzvu9yaxfw5cw)" height="371.0938" style="stroke:#181818;stroke-width:1.0;" width="10" x="51.5" y="138.5781"/><rect fill="#FFFFFF" filter="url(#fzvu9yaxfw5cw)" height="341.8125" style="stroke:#181818;stroke-width:1.0;" width="10" x="539.5" y="167.8594"/><rect fill="#FFFFFF" filter="url(#fzvu9yaxfw5cw)" height="37.2813" style="stroke:#181818;stroke-width:1.0;" width="10" x="1165.5" y="245.7031"/><rect fill="#FFFFFF" filter="url(#fzvu9yaxfw5cw)" height="37.2813" style="stroke:#181818;stroke-width:1.0;" width="10" x="1165.5" y="420.1094"/><rect fill="none" filter="url(#fzvu9yaxfw5cw)" height="319.8125" style="stroke:#000000;stroke-width:1.5;" width="1228.5" x="10" y="182.8594"/><line style="stroke:#181818;stroke-width:0.5;stroke-dasharray:5.0,5.0;" x1="56" x2="56" y1="128.5781" y2="519.6719"/><line style="stroke:#181818;stroke-width:0.5;stroke-dasharray:5.0,5.0;" x1="544.5" x2="544.5" y1="128.5781" y2="519.6719"/><line style="stroke:#181818;stroke-width:0.5;stroke-dasharray:5.0,5.0;" x1="1170.5" x2="1170.5" y1="128.5781" y2="519.6719"/><text fill="#000000" font-family="sans-serif" font-size="20" lengthAdjust="spacing" textLength="67" x="20" y="123.8613">ADMIN</text><ellipse cx="56.5" cy="50.7969" fill="#E2E2F0" filter="url(#fzvu9yaxfw5cw)" rx="8" ry="8" style="stroke:#181818;stroke-width:0.5;"/><path d="M56.5,58.7969 L56.5,85.7969 M43.5,66.7969 L69.5,66.7969 M56.5,85.7969 L43.5,100.7969 M56.5,85.7969 L69.5,100.7969 " fill="none" filter="url(#fzvu9yaxfw5cw)" style="stroke:#181818;stroke-width:0.5;"/><text fill="#000000" font-family="sans-serif" font-size="20" lengthAdjust="spacing" textLength="67" x="20" y="537.2363">ADMIN</text><ellipse cx="56.5" cy="550.4531" fill="#E2E2F0" filter="url(#fzvu9yaxfw5cw)" rx="8" ry="8" style="stroke:#181818;stroke-width:0.5;"/><path d="M56.5,558.4531 L56.5,585.4531 M43.5,566.4531 L69.5,566.4531 M56.5,585.4531 L43.5,600.4531 M56.5,585.4531 L69.5,600.4531 " fill="none" filter="url(#fzvu9yaxfw5cw)" style="stroke:#181818;stroke-width:0.5;"/><rect fill="#E2E2F0" filter="url(#fzvu9yaxfw5cw)" height="37.2813" rx="2.5" ry="2.5" style="stroke:#181818;stroke-width:0.5;" width="35" x="525.5" y="87.2969"/><text fill="#000000" font-family="sans-serif" font-size="20" lengthAdjust="spacing" textLength="21" x="532.5" y="112.8613">UI</text><rect fill="#E2E2F0" filter="url(#fzvu9yaxfw5cw)" height="37.2813" rx="2.5" ry="2.5" style="stroke:#181818;stroke-width:0.5;" width="35" x="525.5" y="518.6719"/><text fill="#000000" font-family="sans-serif" font-size="20" lengthAdjust="spacing" textLength="21" x="532.5" y="544.2363">UI</text><rect fill="#E2E2F0" filter="url(#fzvu9yaxfw5cw)" height="37.2813" rx="2.5" ry="2.5" style="stroke:#181818;stroke-width:0.5;" width="113" x="1112.5" y="87.2969"/><text fill="#000000" font-family="sans-serif" font-size="20" lengthAdjust="spacing" textLength="99" x="1119.5" y="112.8613">Controller</text><rect fill="#E2E2F0" filter="url(#fzvu9yaxfw5cw)" height="37.2813" rx="2.5" ry="2.5" style="stroke:#181818;stroke-width:0.5;" width="113" x="1112.5" y="518.6719"/><text fill="#000000" font-family="sans-serif" font-size="20" lengthAdjust="spacing" textLength="99" x="1119.5" y="544.2363">Controller</text><rect fill="#FFFFFF" filter="url(#fzvu9yaxfw5cw)" height="371.0938" style="stroke:#181818;stroke-width:1.0;" width="10" x="51.5" y="138.5781"/><rect fill="#FFFFFF" filter="url(#fzvu9yaxfw5cw)" height="341.8125" style="stroke:#181818;stroke-width:1.0;" width="10" x="539.5" y="167.8594"/><rect fill="#FFFFFF" filter="url(#fzvu9yaxfw5cw)" height="37.2813" style="stroke:#181818;stroke-width:1.0;" width="10" x="1165.5" y="245.7031"/><rect fill="#FFFFFF" filter="url(#fzvu9yaxfw5cw)" height="37.2813" style="stroke:#181818;stroke-width:1.0;" width="10" x="1165.5" y="420.1094"/><polygon fill="#181818" points="527.5,163.8594,537.5,167.8594,527.5,171.8594,531.5,167.8594" style="stroke:#181818;stroke-width:1.0;"/><line style="stroke:#181818;stroke-width:1.0;" x1="61.5" x2="533.5" y1="167.8594" y2="167.8594"/><text fill="#000000" font-family="sans-serif" font-size="20" lengthAdjust="spacing" textLength="452" x="68.5" y="161.1426">send request to list or search operation types</text><path d="M10,182.8594 L86,182.8594 L86,198.1406 L76,208.1406 L10,208.1406 L10,182.8594 " fill="#EEEEEE" style="stroke:#000000;stroke-width:1.5;"/><rect fill="none" height="319.8125" style="stroke:#000000;stroke-width:1.5;" width="1228.5" x="10" y="182.8594"/><text fill="#000000" font-family="sans-serif" font-size="20" font-weight="bold" lengthAdjust="spacing" textLength="31" x="25" y="202.4238">alt</text><text fill="#000000" font-family="sans-serif" font-size="20" font-weight="bold" lengthAdjust="spacing" textLength="283" x="101" y="203.4238">[List all operation types]</text><polygon fill="#181818" points="1153.5,241.7031,1163.5,245.7031,1153.5,249.7031,1157.5,245.7031" style="stroke:#181818;stroke-width:1.0;"/><line style="stroke:#181818;stroke-width:1.0;" x1="549.5" x2="1159.5" y1="245.7031" y2="245.7031"/><text fill="#000000" font-family="sans-serif" font-size="20" lengthAdjust="spacing" textLength="233" x="556.5" y="238.9863">getAllOperationTypes()</text><polygon fill="#181818" points="560.5,278.9844,550.5,282.9844,560.5,286.9844,556.5,282.9844" style="stroke:#181818;stroke-width:1.0;"/><line style="stroke:#181818;stroke-width:1.0;stroke-dasharray:2.0,2.0;" x1="554.5" x2="1169.5" y1="282.9844" y2="282.9844"/><text fill="#000000" font-family="sans-serif" font-size="20" lengthAdjust="spacing" textLength="409" x="566.5" y="276.2676">operationTypeList OR 400 (Bad Request)</text><polygon fill="#181818" points="72.5,316.2656,62.5,320.2656,72.5,324.2656,68.5,320.2656" style="stroke:#181818;stroke-width:1.0;"/><line style="stroke:#181818;stroke-width:1.0;" x1="66.5" x2="538.5" y1="320.2656" y2="320.2656"/><text fill="#000000" font-family="sans-serif" font-size="20" lengthAdjust="spacing" textLength="409" x="78.5" y="313.5488">operationTypeList OR 400 (Bad Request)</text><line style="stroke:#000000;stroke-width:1.0;stroke-dasharray:2.0,2.0;" x1="10" x2="1238.5" y1="329.2656" y2="329.2656"/><text fill="#000000" font-family="sans-serif" font-size="20" font-weight="bold" lengthAdjust="spacing" textLength="312" x="15" y="347.8301">[Search for operation type]</text><polygon fill="#181818" points="527.5,378.8281,537.5,382.8281,527.5,386.8281,531.5,382.8281" style="stroke:#181818;stroke-width:1.0;"/><line style="stroke:#181818;stroke-width:1.0;" x1="61.5" x2="533.5" y1="382.8281" y2="382.8281"/><text fill="#000000" font-family="sans-serif" font-size="20" lengthAdjust="spacing" textLength="454" x="68.5" y="376.1113">send operationTypeID or operationTypeName</text><polygon fill="#181818" points="1153.5,416.1094,1163.5,420.1094,1153.5,424.1094,1157.5,420.1094" style="stroke:#181818;stroke-width:1.0;"/><line style="stroke:#181818;stroke-width:1.0;" x1="549.5" x2="1159.5" y1="420.1094" y2="420.1094"/><text fill="#000000" font-family="sans-serif" font-size="20" lengthAdjust="spacing" textLength="597" x="556.5" y="413.3926">getOperationType(operationTypeID or operationTypeName)</text><polygon fill="#181818" points="560.5,453.3906,550.5,457.3906,560.5,461.3906,556.5,457.3906" style="stroke:#181818;stroke-width:1.0;"/><line style="stroke:#181818;stroke-width:1.0;stroke-dasharray:2.0,2.0;" x1="554.5" x2="1169.5" y1="457.3906" y2="457.3906"/><text fill="#000000" font-family="sans-serif" font-size="20" lengthAdjust="spacing" textLength="398" x="566.5" y="450.6738">operationTypeData OR 404 (Not Found)</text><polygon fill="#181818" points="72.5,490.6719,62.5,494.6719,72.5,498.6719,68.5,494.6719" style="stroke:#181818;stroke-width:1.0;"/><line style="stroke:#181818;stroke-width:1.0;" x1="66.5" x2="538.5" y1="494.6719" y2="494.6719"/><text fill="#000000" font-family="sans-serif" font-size="20" lengthAdjust="spacing" textLength="398" x="78.5" y="487.9551">operationTypeData OR 404 (Not Found)</text><!--SRC=[fPBFRi8m3CRlVGhVrXtuCyOk72Prgv0gCP1WF83Lc3OYJRh41R6dNzgoKOQGqDPB4kVpp_RNkAtK9Leib4ct943G1Yl5KwDv9Jy9HiFWBcSktMGmA1LghWhLJqqnSFHHaKwf9oHcFZzmtoJ8KOkzbSoaOOFAKUUkCDgakJK5NLoLc6unenKV586bb3jtBaTXzb9dmBQY8639NlJKV-YF7c56Er8mWlZOIO0f6mjH_9RC0PtVr16vGwPw7yNGUuPrCW57MlXAVX37m0QKzAlFT8GspS6KP96bqS27ajm9iavy3SKmg_Mer8KI_BTEwZAltaXhb28xWOmuKchnhNslfU5z8_v1d_HD_7I4th5fqyrlEbWiOJmSGlY20fRjD2rLq3LksrmKtumBoFyiMBN6RBn7voCtq5_6df6J6Bf9TMYE1Lrtwiocy1RM_voCaR4TVGpXt31CJQN57tsy1lEs1467vXzIv-JVvXS0]--></g></svg>