<?xml version="1.0" encoding="UTF-8" standalone="no"?><svg xmlns="http://www.w3.org/2000/svg" xmlns:xlink="http://www.w3.org/1999/xlink" contentStyleType="text/css" height="632px" preserveAspectRatio="none" style="width:2075px;height:632px;background:#FFFFFF;" version="1.1" viewBox="0 0 2075 632" width="2075px" zoomAndPan="magnify"><defs/><g><text fill="#000000" font-family="sans-serif" font-size="14" font-weight="bold" lengthAdjust="spacing" textLength="126" x="976.5" y="27.9951">Level 2 Diagram</text><rect fill="#FFFFFF" height="399.8125" style="stroke:#181818;stroke-width:1.0;" width="10" x="36" y="135.5781"/><rect fill="#FFFFFF" height="162.125" style="stroke:#181818;stroke-width:1.0;" width="10" x="668" y="164.8594"/><rect fill="#FFFFFF" height="162.125" style="stroke:#181818;stroke-width:1.0;" width="10" x="668" y="364.2656"/><rect fill="#FFFFFF" height="87.5625" style="stroke:#181818;stroke-width:1.0;" width="10" x="1448" y="202.1406"/><rect fill="#FFFFFF" height="87.5625" style="stroke:#181818;stroke-width:1.0;" width="10" x="1448" y="401.5469"/><line style="stroke:#181818;stroke-width:0.5;stroke-dasharray:5.0,5.0;" x1="41" x2="41" y1="125.5781" y2="544.3906"/><line style="stroke:#181818;stroke-width:0.5;stroke-dasharray:5.0,5.0;" x1="672.5" x2="672.5" y1="125.5781" y2="544.3906"/><line style="stroke:#181818;stroke-width:0.5;stroke-dasharray:5.0,5.0;" x1="1453" x2="1453" y1="125.5781" y2="544.3906"/><text fill="#000000" font-family="sans-serif" font-size="20" lengthAdjust="spacing" textLength="66" x="5" y="120.8613">Doctor</text><ellipse cx="41" cy="50.7969" fill="#E2E2F0" rx="8" ry="8" style="stroke:#181818;stroke-width:0.5;"/><path d="M41,58.7969 L41,85.7969 M28,66.7969 L54,66.7969 M41,85.7969 L28,100.7969 M41,85.7969 L54,100.7969 " fill="none" style="stroke:#181818;stroke-width:0.5;"/><text fill="#000000" font-family="sans-serif" font-size="20" lengthAdjust="spacing" textLength="66" x="5" y="561.9551">Doctor</text><ellipse cx="41" cy="575.1719" fill="#E2E2F0" rx="8" ry="8" style="stroke:#181818;stroke-width:0.5;"/><path d="M41,583.1719 L41,610.1719 M28,591.1719 L54,591.1719 M41,610.1719 L28,625.1719 M41,610.1719 L54,625.1719 " fill="none" style="stroke:#181818;stroke-width:0.5;"/><rect fill="#E2E2F0" height="37.2813" rx="2.5" ry="2.5" style="stroke:#181818;stroke-width:0.5;" width="39" x="653.5" y="87.2969"/><text fill="#000000" font-family="sans-serif" font-size="20" lengthAdjust="spacing" textLength="25" x="660.5" y="112.8613">FE</text><rect fill="#E2E2F0" height="37.2813" rx="2.5" ry="2.5" style="stroke:#181818;stroke-width:0.5;" width="39" x="653.5" y="543.3906"/><text fill="#000000" font-family="sans-serif" font-size="20" lengthAdjust="spacing" textLength="25" x="660.5" y="568.9551">FE</text><rect fill="#E2E2F0" height="37.2813" rx="2.5" ry="2.5" style="stroke:#181818;stroke-width:0.5;" width="60" x="1423" y="87.2969"/><text fill="#000000" font-family="sans-serif" font-size="20" lengthAdjust="spacing" textLength="46" x="1430" y="112.8613">MDV</text><rect fill="#E2E2F0" height="37.2813" rx="2.5" ry="2.5" style="stroke:#181818;stroke-width:0.5;" width="60" x="1423" y="543.3906"/><text fill="#000000" font-family="sans-serif" font-size="20" lengthAdjust="spacing" textLength="46" x="1430" y="568.9551">MDV</text><rect fill="#FFFFFF" height="399.8125" style="stroke:#181818;stroke-width:1.0;" width="10" x="36" y="135.5781"/><rect fill="#FFFFFF" height="162.125" style="stroke:#181818;stroke-width:1.0;" width="10" x="668" y="164.8594"/><rect fill="#FFFFFF" height="162.125" style="stroke:#181818;stroke-width:1.0;" width="10" x="668" y="364.2656"/><rect fill="#FFFFFF" height="87.5625" style="stroke:#181818;stroke-width:1.0;" width="10" x="1448" y="202.1406"/><rect fill="#FFFFFF" height="87.5625" style="stroke:#181818;stroke-width:1.0;" width="10" x="1448" y="401.5469"/><polygon fill="#000000" points="656,160.8594,666,164.8594,656,168.8594,660,164.8594" style="stroke:#000000;stroke-width:1.0;"/><line style="stroke:#000000;stroke-width:1.0;" x1="46" x2="662" y1="164.8594" y2="164.8594"/><text fill="#000000" font-family="sans-serif" font-size="20" lengthAdjust="spacing" textLength="596" x="53" y="158.1426">Asks to add a free text entry in the patient's medical record</text><polygon fill="#000000" points="1436,198.1406,1446,202.1406,1436,206.1406,1440,202.1406" style="stroke:#000000;stroke-width:1.0;"/><line style="stroke:#000000;stroke-width:1.0;" x1="678" x2="1442" y1="202.1406" y2="202.1406"/><text fill="#000000" font-family="sans-serif" font-size="20" lengthAdjust="spacing" textLength="555" x="685" y="195.4238">Makes Http Request to get the patient's medical record</text><line style="stroke:#000000;stroke-width:1.0;" x1="1458" x2="1500" y1="239.4219" y2="239.4219"/><line style="stroke:#000000;stroke-width:1.0;" x1="1500" x2="1500" y1="239.4219" y2="252.4219"/><line style="stroke:#000000;stroke-width:1.0;" x1="1459" x2="1500" y1="252.4219" y2="252.4219"/><polygon fill="#000000" points="1469,248.4219,1459,252.4219,1469,256.4219,1465,252.4219" style="stroke:#000000;stroke-width:1.0;"/><text fill="#000000" font-family="sans-serif" font-size="20" lengthAdjust="spacing" textLength="367" x="1465" y="232.7051">Fetches the patient's medical record</text><polygon fill="#000000" points="689,285.7031,679,289.7031,689,293.7031,685,289.7031" style="stroke:#000000;stroke-width:1.0;"/><line style="stroke:#000000;stroke-width:1.0;stroke-dasharray:2.0,2.0;" x1="683" x2="1452" y1="289.7031" y2="289.7031"/><text fill="#000000" font-family="sans-serif" font-size="20" lengthAdjust="spacing" textLength="280" x="695" y="282.9863">returns Operation Response</text><polygon fill="#000000" points="57,322.9844,47,326.9844,57,330.9844,53,326.9844" style="stroke:#000000;stroke-width:1.0;"/><line style="stroke:#000000;stroke-width:1.0;stroke-dasharray:2.0,2.0;" x1="51" x2="672" y1="326.9844" y2="326.9844"/><text fill="#000000" font-family="sans-serif" font-size="20" lengthAdjust="spacing" textLength="598" x="63" y="320.2676">Displays the fetched data and asks for the data to be added</text><polygon fill="#000000" points="656,360.2656,666,364.2656,656,368.2656,660,364.2656" style="stroke:#000000;stroke-width:1.0;"/><line style="stroke:#000000;stroke-width:1.0;" x1="46" x2="662" y1="364.2656" y2="364.2656"/><text fill="#000000" font-family="sans-serif" font-size="20" lengthAdjust="spacing" textLength="428" x="53" y="357.5488">Sends the new data(FreeText) to be added</text><polygon fill="#000000" points="1436,397.5469,1446,401.5469,1436,405.5469,1440,401.5469" style="stroke:#000000;stroke-width:1.0;"/><line style="stroke:#000000;stroke-width:1.0;" x1="678" x2="1442" y1="401.5469" y2="401.5469"/><text fill="#000000" font-family="sans-serif" font-size="20" lengthAdjust="spacing" textLength="751" x="685" y="394.8301">Makes Http Request to add a free text entry in the patient's medical record</text><line style="stroke:#000000;stroke-width:1.0;" x1="1458" x2="1500" y1="438.8281" y2="438.8281"/><line style="stroke:#000000;stroke-width:1.0;" x1="1500" x2="1500" y1="438.8281" y2="451.8281"/><line style="stroke:#000000;stroke-width:1.0;" x1="1459" x2="1500" y1="451.8281" y2="451.8281"/><polygon fill="#000000" points="1469,447.8281,1459,451.8281,1469,455.8281,1465,451.8281" style="stroke:#000000;stroke-width:1.0;"/><text fill="#000000" font-family="sans-serif" font-size="20" lengthAdjust="spacing" textLength="603" x="1465" y="432.1113">Validates the data and updates the patient's medical record</text><polygon fill="#000000" points="689,485.1094,679,489.1094,689,493.1094,685,489.1094" style="stroke:#000000;stroke-width:1.0;"/><line style="stroke:#000000;stroke-width:1.0;stroke-dasharray:2.0,2.0;" x1="683" x2="1452" y1="489.1094" y2="489.1094"/><text fill="#000000" font-family="sans-serif" font-size="20" lengthAdjust="spacing" textLength="286" x="695" y="482.3926">Returns Operation Response</text><polygon fill="#000000" points="57,522.3906,47,526.3906,57,530.3906,53,526.3906" style="stroke:#000000;stroke-width:1.0;"/><line style="stroke:#000000;stroke-width:1.0;stroke-dasharray:2.0,2.0;" x1="51" x2="672" y1="526.3906" y2="526.3906"/><text fill="#000000" font-family="sans-serif" font-size="20" lengthAdjust="spacing" textLength="380" x="63" y="519.6738">Returns Operation In/Sucess message</text><!--SRC=[fLFRRXCn47ttLupKXy83eaJY5bMHTjcrG6fLgK5zdzYJnCIn5tis9I3-dV7sagP4gC2-M3gUS_6nDwzSw33XsaUp8WkMvjXxrZ7mr7qd69qenOuzmHbjoCC86eSBcLTgwIm1hJlUmfhMCqfP7USxEJXpWNZR4SJ4owZKRiTup1b-A92lHhDQfDW7-o7wc4vFD-XxkfXz8SEJ2HmrRzfAlpiycc8SPdJJrit9uPbCQUCC3LAlzAYj3us9HAlVjs-7lIgbU7q3rrxcrC-7sJj1S467qyDHM-lNkYuKD2n04uS5CrHA1DWPrs5Wq6t1TBi7dZTN1PLbeBiDCWclWXSJ6Hr3bLSPE09Q2mZpH0HCtnWeSDg22y1Bae3i13ZESYVM6VIGoCHaTuhYAlQYAKPZECSLPVZ8tC4bVUqfSx5O43zHhQGjmU_qDB5PYk8VsGFXzbI9k4yXmqL7IUPZa1ovYo6JihHdKr8BgHhB4yoTn-sDotnmb9UBZ811kYazpQNsiZkWSg8PbTx8FXIL9kxBdLAmDtg1hWVMCoqDVvQ2d-_n_wh7_xogn-LUeNSIxRRU-mFttGvyKkUN_z3vxvnFuUMqDvIBLSxoLppgzXS0]--></g></svg>