<?xml version="1.0" encoding="UTF-8" standalone="no"?><svg xmlns="http://www.w3.org/2000/svg" xmlns:xlink="http://www.w3.org/1999/xlink" contentStyleType="text/css" height="507px" preserveAspectRatio="none" style="width:2263px;height:507px;background:#FFFFFF;" version="1.1" viewBox="0 0 2263 507" width="2263px" zoomAndPan="magnify"><defs/><g><text fill="#000000" font-family="sans-serif" font-size="14" font-weight="bold" lengthAdjust="spacing" textLength="126" x="1070.5" y="27.9951">Level 2 Diagram</text><rect fill="#FFFFFF" height="274.9688" style="stroke:#181818;stroke-width:1.0;" width="10" x="36" y="135.5781"/><rect fill="#FFFFFF" height="37.2813" style="stroke:#181818;stroke-width:1.0;" width="10" x="778" y="164.8594"/><rect fill="#FFFFFF" height="162.125" style="stroke:#181818;stroke-width:1.0;" width="10" x="778" y="239.4219"/><rect fill="#FFFFFF" height="87.5625" style="stroke:#181818;stroke-width:1.0;" width="10" x="1547" y="276.7031"/><line style="stroke:#181818;stroke-width:0.5;stroke-dasharray:5.0,5.0;" x1="41" x2="41" y1="125.5781" y2="419.5469"/><line style="stroke:#181818;stroke-width:0.5;stroke-dasharray:5.0,5.0;" x1="782.5" x2="782.5" y1="125.5781" y2="419.5469"/><line style="stroke:#181818;stroke-width:0.5;stroke-dasharray:5.0,5.0;" x1="1552" x2="1552" y1="125.5781" y2="419.5469"/><text fill="#000000" font-family="sans-serif" font-size="20" lengthAdjust="spacing" textLength="66" x="5" y="120.8613">Admin</text><ellipse cx="41" cy="50.7969" fill="#E2E2F0" rx="8" ry="8" style="stroke:#181818;stroke-width:0.5;"/><path d="M41,58.7969 L41,85.7969 M28,66.7969 L54,66.7969 M41,85.7969 L28,100.7969 M41,85.7969 L54,100.7969 " fill="none" style="stroke:#181818;stroke-width:0.5;"/><text fill="#000000" font-family="sans-serif" font-size="20" lengthAdjust="spacing" textLength="66" x="5" y="437.1113">Admin</text><ellipse cx="41" cy="450.3281" fill="#E2E2F0" rx="8" ry="8" style="stroke:#181818;stroke-width:0.5;"/><path d="M41,458.3281 L41,485.3281 M28,466.3281 L54,466.3281 M41,485.3281 L28,500.3281 M41,485.3281 L54,500.3281 " fill="none" style="stroke:#181818;stroke-width:0.5;"/><rect fill="#E2E2F0" height="37.2813" rx="2.5" ry="2.5" style="stroke:#181818;stroke-width:0.5;" width="39" x="763.5" y="87.2969"/><text fill="#000000" font-family="sans-serif" font-size="20" lengthAdjust="spacing" textLength="25" x="770.5" y="112.8613">FE</text><rect fill="#E2E2F0" height="37.2813" rx="2.5" ry="2.5" style="stroke:#181818;stroke-width:0.5;" width="39" x="763.5" y="418.5469"/><text fill="#000000" font-family="sans-serif" font-size="20" lengthAdjust="spacing" textLength="25" x="770.5" y="444.1113">FE</text><rect fill="#E2E2F0" height="37.2813" rx="2.5" ry="2.5" style="stroke:#181818;stroke-width:0.5;" width="60" x="1522" y="87.2969"/><text fill="#000000" font-family="sans-serif" font-size="20" lengthAdjust="spacing" textLength="46" x="1529" y="112.8613">MDR</text><rect fill="#E2E2F0" height="37.2813" rx="2.5" ry="2.5" style="stroke:#181818;stroke-width:0.5;" width="60" x="1522" y="418.5469"/><text fill="#000000" font-family="sans-serif" font-size="20" lengthAdjust="spacing" textLength="46" x="1529" y="444.1113">MDR</text><rect fill="#FFFFFF" height="274.9688" style="stroke:#181818;stroke-width:1.0;" width="10" x="36" y="135.5781"/><rect fill="#FFFFFF" height="37.2813" style="stroke:#181818;stroke-width:1.0;" width="10" x="778" y="164.8594"/><rect fill="#FFFFFF" height="162.125" style="stroke:#181818;stroke-width:1.0;" width="10" x="778" y="239.4219"/><rect fill="#FFFFFF" height="87.5625" style="stroke:#181818;stroke-width:1.0;" width="10" x="1547" y="276.7031"/><polygon fill="#000000" points="766,160.8594,776,164.8594,766,168.8594,770,164.8594" style="stroke:#000000;stroke-width:1.0;"/><line style="stroke:#000000;stroke-width:1.0;" x1="46" x2="772" y1="164.8594" y2="164.8594"/><text fill="#000000" font-family="sans-serif" font-size="20" lengthAdjust="spacing" textLength="311" x="53" y="158.1426">Asks to create a operation type</text><polygon fill="#000000" points="57,198.1406,47,202.1406,57,206.1406,53,202.1406" style="stroke:#000000;stroke-width:1.0;"/><line style="stroke:#000000;stroke-width:1.0;stroke-dasharray:2.0,2.0;" x1="51" x2="782" y1="202.1406" y2="202.1406"/><text fill="#000000" font-family="sans-serif" font-size="20" lengthAdjust="spacing" textLength="298" x="63" y="195.4238">Asks for operation type's data</text><polygon fill="#000000" points="766,235.4219,776,239.4219,766,243.4219,770,239.4219" style="stroke:#000000;stroke-width:1.0;"/><line style="stroke:#000000;stroke-width:1.0;" x1="46" x2="772" y1="239.4219" y2="239.4219"/><text fill="#000000" font-family="sans-serif" font-size="20" lengthAdjust="spacing" textLength="713" x="53" y="232.7051">Sends operation type's data (name, estiamtedDuration,specializations)</text><polygon fill="#000000" points="1535,272.7031,1545,276.7031,1535,280.7031,1539,276.7031" style="stroke:#000000;stroke-width:1.0;"/><line style="stroke:#000000;stroke-width:1.0;" x1="788" x2="1541" y1="276.7031" y2="276.7031"/><text fill="#000000" font-family="sans-serif" font-size="20" lengthAdjust="spacing" textLength="740" x="795" y="269.9863">Sends HTTP Request to create a operation type with operation type's data</text><line style="stroke:#000000;stroke-width:1.0;" x1="1557" x2="1599" y1="313.9844" y2="313.9844"/><line style="stroke:#000000;stroke-width:1.0;" x1="1599" x2="1599" y1="313.9844" y2="326.9844"/><line style="stroke:#000000;stroke-width:1.0;" x1="1558" x2="1599" y1="326.9844" y2="326.9844"/><polygon fill="#000000" points="1568,322.9844,1558,326.9844,1568,330.9844,1564,326.9844" style="stroke:#000000;stroke-width:1.0;"/><text fill="#000000" font-family="sans-serif" font-size="20" lengthAdjust="spacing" textLength="692" x="1564" y="307.2676">Validates operation type's data and tries to create the operation type</text><polygon fill="#000000" points="799,360.2656,789,364.2656,799,368.2656,795,364.2656" style="stroke:#000000;stroke-width:1.0;"/><line style="stroke:#000000;stroke-width:1.0;stroke-dasharray:2.0,2.0;" x1="793" x2="1551" y1="364.2656" y2="364.2656"/><text fill="#000000" font-family="sans-serif" font-size="20" lengthAdjust="spacing" textLength="311" x="805" y="357.5488">Returns Operation Status Code</text><polygon fill="#000000" points="57,397.5469,47,401.5469,57,405.5469,53,401.5469" style="stroke:#000000;stroke-width:1.0;"/><line style="stroke:#000000;stroke-width:1.0;stroke-dasharray:2.0,2.0;" x1="51" x2="782" y1="401.5469" y2="401.5469"/><text fill="#000000" font-family="sans-serif" font-size="20" lengthAdjust="spacing" textLength="380" x="63" y="394.8301">Returns Operation In/Sucess message</text><!--SRC=[VLDTJzmm47pthrZ10wq4AZsfdq8d9IHMAr5HtQ6-B_PovvvZf_Rc45Jyzsu2t1qG6Yc9CfuPpqwIl7AXnOIDZsP55YnTOUTPny1pTqimELQA7Nk2CrgJXmbK3XV2LshfB04rBTz0GyqbfQmEygCTdBb0VDCInCJBgDHsnNZC6VugaAD4irgas0Lx6drC9oThz1sTN_ucmzCfx5SVwq9_7gUc60UEhkgoEXxdP4fhPsYmUgydTJb64ujQVwa_3Mj5Il7w7YwzyDJTRlPM45pGU7hOhqlzGPUz10qBKDZ61S0CXH8zE-DQ30nxkjxhKLq_XNzKim6Nkneit1gPH5p0qLJONw78gmmSmIJgLn1YImdPnG1zsLkDMEiQZaHMFAYk9CzJza46YupAqgviizUSWitZ4dWJiA53eCmE6oPRTVUamzoISUZTxV2Otxv8DEsdUpJ_Td7n4sRqfnEZ_um5ruwNhuJV-FUboRdPuPUa40QzDW862vmSxVR9IthUw63vqCYCk4iXm_c6CcVaBiDfjBHROvzbM_zBsVVmRjuPaj-WaOjyKC_UWVe7]--></g></svg>