<?xml version="1.0" encoding="UTF-8" standalone="no"?><svg xmlns="http://www.w3.org/2000/svg" xmlns:xlink="http://www.w3.org/1999/xlink" contentStyleType="text/css" height="698px" preserveAspectRatio="none" style="width:1907px;height:698px;background:#FFFFFF;" version="1.1" viewBox="0 0 1907 698" width="1907px" zoomAndPan="magnify"><defs/><g><text fill="#000000" font-family="sans-serif" font-size="14" font-weight="bold" lengthAdjust="spacing" textLength="433" x="739" y="27.9951">Level 2 Diagram for Listing/Search Operation Requests</text><rect fill="#FFFFFF" height="466.375" style="stroke:#181818;stroke-width:1.0;" width="10" x="36" y="135.5781"/><rect fill="#FFFFFF" height="162.125" style="stroke:#181818;stroke-width:1.0;" width="10" x="679" y="164.8594"/><rect fill="#FFFFFF" height="228.6875" style="stroke:#181818;stroke-width:1.0;" width="10" x="679" y="364.2656"/><rect fill="#FFFFFF" height="87.5625" style="stroke:#181818;stroke-width:1.0;" width="10" x="1280" y="202.1406"/><rect fill="#FFFFFF" height="87.5625" style="stroke:#181818;stroke-width:1.0;" width="10" x="1280" y="468.1094"/><line style="stroke:#181818;stroke-width:0.5;stroke-dasharray:5.0,5.0;" x1="41" x2="41" y1="125.5781" y2="610.9531"/><line style="stroke:#181818;stroke-width:0.5;stroke-dasharray:5.0,5.0;" x1="683.5" x2="683.5" y1="125.5781" y2="610.9531"/><line style="stroke:#181818;stroke-width:0.5;stroke-dasharray:5.0,5.0;" x1="1285" x2="1285" y1="125.5781" y2="610.9531"/><text fill="#000000" font-family="sans-serif" font-size="20" lengthAdjust="spacing" textLength="66" x="5" y="120.8613">Doctor</text><ellipse cx="41" cy="50.7969" fill="#E2E2F0" rx="8" ry="8" style="stroke:#181818;stroke-width:0.5;"/><path d="M41,58.7969 L41,85.7969 M28,66.7969 L54,66.7969 M41,85.7969 L28,100.7969 M41,85.7969 L54,100.7969 " fill="none" style="stroke:#181818;stroke-width:0.5;"/><text fill="#000000" font-family="sans-serif" font-size="20" lengthAdjust="spacing" textLength="66" x="5" y="628.5176">Doctor</text><ellipse cx="41" cy="641.7344" fill="#E2E2F0" rx="8" ry="8" style="stroke:#181818;stroke-width:0.5;"/><path d="M41,649.7344 L41,676.7344 M28,657.7344 L54,657.7344 M41,676.7344 L28,691.7344 M41,676.7344 L54,691.7344 " fill="none" style="stroke:#181818;stroke-width:0.5;"/><rect fill="#E2E2F0" height="37.2813" rx="2.5" ry="2.5" style="stroke:#181818;stroke-width:0.5;" width="39" x="664.5" y="87.2969"/><text fill="#000000" font-family="sans-serif" font-size="20" lengthAdjust="spacing" textLength="25" x="671.5" y="112.8613">FE</text><rect fill="#E2E2F0" height="37.2813" rx="2.5" ry="2.5" style="stroke:#181818;stroke-width:0.5;" width="39" x="664.5" y="609.9531"/><text fill="#000000" font-family="sans-serif" font-size="20" lengthAdjust="spacing" textLength="25" x="671.5" y="635.5176">FE</text><rect fill="#E2E2F0" height="37.2813" rx="2.5" ry="2.5" style="stroke:#181818;stroke-width:0.5;" width="60" x="1255" y="87.2969"/><text fill="#000000" font-family="sans-serif" font-size="20" lengthAdjust="spacing" textLength="46" x="1262" y="112.8613">MDR</text><rect fill="#E2E2F0" height="37.2813" rx="2.5" ry="2.5" style="stroke:#181818;stroke-width:0.5;" width="60" x="1255" y="609.9531"/><text fill="#000000" font-family="sans-serif" font-size="20" lengthAdjust="spacing" textLength="46" x="1262" y="635.5176">MDR</text><rect fill="#FFFFFF" height="466.375" style="stroke:#181818;stroke-width:1.0;" width="10" x="36" y="135.5781"/><rect fill="#FFFFFF" height="162.125" style="stroke:#181818;stroke-width:1.0;" width="10" x="679" y="164.8594"/><rect fill="#FFFFFF" height="228.6875" style="stroke:#181818;stroke-width:1.0;" width="10" x="679" y="364.2656"/><rect fill="#FFFFFF" height="87.5625" style="stroke:#181818;stroke-width:1.0;" width="10" x="1280" y="202.1406"/><rect fill="#FFFFFF" height="87.5625" style="stroke:#181818;stroke-width:1.0;" width="10" x="1280" y="468.1094"/><polygon fill="#000000" points="667,160.8594,677,164.8594,667,168.8594,671,164.8594" style="stroke:#000000;stroke-width:1.0;"/><line style="stroke:#000000;stroke-width:1.0;" x1="46" x2="673" y1="164.8594" y2="164.8594"/><text fill="#000000" font-family="sans-serif" font-size="20" lengthAdjust="spacing" textLength="375" x="53" y="158.1426">Asks to list/search operation requests</text><polygon fill="#000000" points="1268,198.1406,1278,202.1406,1268,206.1406,1272,202.1406" style="stroke:#000000;stroke-width:1.0;"/><line style="stroke:#000000;stroke-width:1.0;" x1="689" x2="1274" y1="202.1406" y2="202.1406"/><text fill="#000000" font-family="sans-serif" font-size="20" lengthAdjust="spacing" textLength="572" x="696" y="195.4238">Sends HTTP request to list the default operation requests</text><line style="stroke:#000000;stroke-width:1.0;" x1="1290" x2="1332" y1="239.4219" y2="239.4219"/><line style="stroke:#000000;stroke-width:1.0;" x1="1332" x2="1332" y1="239.4219" y2="252.4219"/><line style="stroke:#000000;stroke-width:1.0;" x1="1291" x2="1332" y1="252.4219" y2="252.4219"/><polygon fill="#000000" points="1301,248.4219,1291,252.4219,1301,256.4219,1297,252.4219" style="stroke:#000000;stroke-width:1.0;"/><text fill="#000000" font-family="sans-serif" font-size="20" lengthAdjust="spacing" textLength="603" x="1297" y="232.7051">Validates the request and tries to list the operation requests</text><polygon fill="#000000" points="700,285.7031,690,289.7031,700,293.7031,696,289.7031" style="stroke:#000000;stroke-width:1.0;"/><line style="stroke:#000000;stroke-width:1.0;stroke-dasharray:2.0,2.0;" x1="694" x2="1284" y1="289.7031" y2="289.7031"/><text fill="#000000" font-family="sans-serif" font-size="20" lengthAdjust="spacing" textLength="311" x="706" y="282.9863">Returns Operation Status Code</text><polygon fill="#000000" points="57,322.9844,47,326.9844,57,330.9844,53,326.9844" style="stroke:#000000;stroke-width:1.0;"/><line style="stroke:#000000;stroke-width:1.0;stroke-dasharray:2.0,2.0;" x1="51" x2="683" y1="326.9844" y2="326.9844"/><text fill="#000000" font-family="sans-serif" font-size="20" lengthAdjust="spacing" textLength="609" x="63" y="320.2676">Displays initial list and asks for the data to filter the requests</text><polygon fill="#000000" points="667,360.2656,677,364.2656,667,368.2656,671,364.2656" style="stroke:#000000;stroke-width:1.0;"/><line style="stroke:#000000;stroke-width:1.0;" x1="46" x2="673" y1="364.2656" y2="364.2656"/><text fill="#000000" font-family="sans-serif" font-size="20" lengthAdjust="spacing" textLength="361" x="53" y="357.5488">Sends the data to filter the requests</text><path d="M694,377.2656 L694,433.2656 L1032,433.2656 L1032,387.2656 L1022,377.2656 L694,377.2656 " fill="#FEFFDD" style="stroke:#181818;stroke-width:0.5;"/><path d="M1022,377.2656 L1022,387.2656 L1032,387.2656 L1022,377.2656 " fill="#FEFFDD" style="stroke:#181818;stroke-width:0.5;"/><text fill="#000000" font-family="sans-serif" font-size="20" lengthAdjust="spacing" textLength="317" x="700" y="400.8301">The data can be operationType,</text><text fill="#000000" font-family="sans-serif" font-size="20" lengthAdjust="spacing" textLength="244" x="700" y="424.1113">deadlineDate or priority.</text><polygon fill="#000000" points="1268,464.1094,1278,468.1094,1268,472.1094,1272,468.1094" style="stroke:#000000;stroke-width:1.0;"/><line style="stroke:#000000;stroke-width:1.0;" x1="689" x2="1274" y1="468.1094" y2="468.1094"/><text fill="#000000" font-family="sans-serif" font-size="20" lengthAdjust="spacing" textLength="506" x="696" y="461.3926">Sends HTTP request to list the requests with filters</text><line style="stroke:#000000;stroke-width:1.0;" x1="1290" x2="1332" y1="505.3906" y2="505.3906"/><line style="stroke:#000000;stroke-width:1.0;" x1="1332" x2="1332" y1="505.3906" y2="518.3906"/><line style="stroke:#000000;stroke-width:1.0;" x1="1291" x2="1332" y1="518.3906" y2="518.3906"/><polygon fill="#000000" points="1301,514.3906,1291,518.3906,1301,522.3906,1297,518.3906" style="stroke:#000000;stroke-width:1.0;"/><text fill="#000000" font-family="sans-serif" font-size="20" lengthAdjust="spacing" textLength="572" x="1297" y="498.6738">Validates the data and tries to list the operation requests</text><polygon fill="#000000" points="700,551.6719,690,555.6719,700,559.6719,696,555.6719" style="stroke:#000000;stroke-width:1.0;"/><line style="stroke:#000000;stroke-width:1.0;stroke-dasharray:2.0,2.0;" x1="694" x2="1284" y1="555.6719" y2="555.6719"/><text fill="#000000" font-family="sans-serif" font-size="20" lengthAdjust="spacing" textLength="311" x="706" y="548.9551">Returns Operation Status Code</text><polygon fill="#000000" points="57,588.9531,47,592.9531,57,596.9531,53,592.9531" style="stroke:#000000;stroke-width:1.0;"/><line style="stroke:#000000;stroke-width:1.0;stroke-dasharray:2.0,2.0;" x1="51" x2="683" y1="592.9531" y2="592.9531"/><text fill="#000000" font-family="sans-serif" font-size="20" lengthAdjust="spacing" textLength="407" x="63" y="586.2363">Returns Operation List/Success message</text><!--SRC=[lLHDZzCm4BtdLuns3ro0BfNugbQLcaqY3eiMjHKdBbDdsfYwTh0dNHN4Vz-nkoajL80u42c9D7xlpPiPss6jROiUDyQfDTLGqn8xmvMpFDDV2OPNMSQQ3S4jRSd040gDAy73qdcurO6rNGrcX5urSDUIHzREmfI-T1GuP5cZQmBQjBo33MqMv4Fs9FH9HS0Ixre2vxbnMVPZHHaC0Rvb84-EQhtohhFrZJFENrzlqNHqj_XCYiTZk2nUbPFgpNceTovXggBCYwlpc41-gnKbgHVLiCpFmKIYhDwMhzFQn7jtlm_dHd3PzsFlhKHmHUVTmsMPLo-hF59GiGGAbtuOeCX4WBNIBLg6YwgyYD6gF0s_BwOfBlyaeRV89Dm2deq5F899M0TW1qR6CmZxsRZ3R7m_cmDL4bHb98lY26Pawm3lvlCFFRJN0cweto6_5OpEv3r8VaIZQra8IQ5NHLi3UqtXHF-CRf9wh6rAt7aRZlRQZ96x03Ukfgoc4m-nAk4L8zcreJMu2w2jPercdoywmDYik9bJSSWOtIorOVB7RiEnjZJiqEnzk_v4javeNgyQQTmoyUOzGw65nL7TSpaFJpzPILSREHv5J2ZsMg-Trxnx_ezpwwt0lURcqUDVZomP_P_p-fKMxvh1h5EAv5xOo4TEs4ypUG00]--></g></svg>