<?xml version="1.0" encoding="UTF-8" standalone="no"?><svg xmlns="http://www.w3.org/2000/svg" xmlns:xlink="http://www.w3.org/1999/xlink" contentStyleType="text/css" height="1430px" preserveAspectRatio="none" style="width:3789px;height:1430px;background:#FFFFFF;" version="1.1" viewBox="0 0 3789 1430" width="3789px" zoomAndPan="magnify"><defs/><g><text fill="#000000" font-family="sans-serif" font-size="14" font-weight="bold" lengthAdjust="spacing" textLength="149" x="1819" y="27.9951">Level 3 FE Diagram</text><rect fill="#FFFFFF" height="1198.4375" style="stroke:#181818;stroke-width:1.0;" width="10" x="36" y="135.5781"/><rect fill="#FFFFFF" height="620.2188" style="stroke:#181818;stroke-width:1.0;" width="10" x="691" y="164.8594"/><rect fill="#FFFFFF" height="502.6563" style="stroke:#181818;stroke-width:1.0;" width="10" x="691" y="822.3594"/><rect fill="#FFFFFF" height="67.2813" style="stroke:#181818;stroke-width:1.0;" width="10" x="1406" y="202.1406"/><rect fill="#FFFFFF" height="508.375" style="stroke:#181818;stroke-width:1.0;" width="10" x="1867" y="239.4219"/><rect fill="#FFFFFF" height="428.0938" style="stroke:#181818;stroke-width:1.0;" width="10" x="1867" y="859.6406"/><rect fill="#FFFFFF" height="278.9688" style="stroke:#181818;stroke-width:1.0;" width="10" x="2543.5" y="343.9844"/><rect fill="#FFFFFF" height="278.9688" style="stroke:#181818;stroke-width:1.0;" width="10" x="2543.5" y="934.2031"/><rect fill="#FFFFFF" height="87.5625" style="stroke:#181818;stroke-width:1.0;" width="10" x="3130.5" y="498.1094"/><rect fill="#FFFFFF" height="87.5625" style="stroke:#181818;stroke-width:1.0;" width="10" x="3130.5" y="1088.3281"/><rect fill="#FFFFFF" height="353.5313" style="stroke:#181818;stroke-width:1.0;" width="10" x="3757.5" y="306.7031"/><rect fill="#FFFFFF" height="353.5313" style="stroke:#181818;stroke-width:1.0;" width="10" x="3757.5" y="896.9219"/><line style="stroke:#181818;stroke-width:0.5;stroke-dasharray:5.0,5.0;" x1="41" x2="41" y1="125.5781" y2="1343.0156"/><line style="stroke:#181818;stroke-width:0.5;stroke-dasharray:5.0,5.0;" x1="695.5" x2="695.5" y1="125.5781" y2="1343.0156"/><line style="stroke:#181818;stroke-width:0.5;stroke-dasharray:5.0,5.0;" x1="1411" x2="1411" y1="125.5781" y2="1343.0156"/><line style="stroke:#181818;stroke-width:0.5;stroke-dasharray:5.0,5.0;" x1="1871.5" x2="1871.5" y1="125.5781" y2="1343.0156"/><line style="stroke:#181818;stroke-width:0.5;stroke-dasharray:5.0,5.0;" x1="2335" x2="2335" y1="125.5781" y2="1343.0156"/><line style="stroke:#181818;stroke-width:0.5;stroke-dasharray:5.0,5.0;" x1="2548" x2="2548" y1="125.5781" y2="1343.0156"/><line style="stroke:#181818;stroke-width:0.5;stroke-dasharray:5.0,5.0;" x1="3135.5" x2="3135.5" y1="125.5781" y2="1343.0156"/><line style="stroke:#181818;stroke-width:0.5;stroke-dasharray:5.0,5.0;" x1="3762" x2="3762" y1="125.5781" y2="1343.0156"/><text fill="#000000" font-family="sans-serif" font-size="20" lengthAdjust="spacing" textLength="66" x="5" y="120.8613">Doctor</text><ellipse cx="41" cy="50.7969" fill="#E2E2F0" rx="8" ry="8" style="stroke:#181818;stroke-width:0.5;"/><path d="M41,58.7969 L41,85.7969 M28,66.7969 L54,66.7969 M41,85.7969 L28,100.7969 M41,85.7969 L54,100.7969 " fill="none" style="stroke:#181818;stroke-width:0.5;"/><text fill="#000000" font-family="sans-serif" font-size="20" lengthAdjust="spacing" textLength="66" x="5" y="1360.5801">Doctor</text><ellipse cx="41" cy="1373.7969" fill="#E2E2F0" rx="8" ry="8" style="stroke:#181818;stroke-width:0.5;"/><path d="M41,1381.7969 L41,1408.7969 M28,1389.7969 L54,1389.7969 M41,1408.7969 L28,1423.7969 M41,1408.7969 L54,1423.7969 " fill="none" style="stroke:#181818;stroke-width:0.5;"/><rect fill="#E2E2F0" height="37.2813" rx="2.5" ry="2.5" style="stroke:#181818;stroke-width:0.5;" width="63" x="664.5" y="87.2969"/><text fill="#000000" font-family="sans-serif" font-size="20" lengthAdjust="spacing" textLength="49" x="671.5" y="112.8613">View</text><rect fill="#E2E2F0" height="37.2813" rx="2.5" ry="2.5" style="stroke:#181818;stroke-width:0.5;" width="63" x="664.5" y="1342.0156"/><text fill="#000000" font-family="sans-serif" font-size="20" lengthAdjust="spacing" textLength="49" x="671.5" y="1367.5801">View</text><rect fill="#E2E2F0" height="37.2813" rx="2.5" ry="2.5" style="stroke:#181818;stroke-width:0.5;" width="278" x="1272" y="87.2969"/><text fill="#000000" font-family="sans-serif" font-size="20" lengthAdjust="spacing" textLength="264" x="1279" y="112.8613">MedicalHistoryComponent</text><rect fill="#E2E2F0" height="37.2813" rx="2.5" ry="2.5" style="stroke:#181818;stroke-width:0.5;" width="278" x="1272" y="1342.0156"/><text fill="#000000" font-family="sans-serif" font-size="20" lengthAdjust="spacing" textLength="264" x="1279" y="1367.5801">MedicalHistoryComponent</text><rect fill="#E2E2F0" height="37.2813" rx="2.5" ry="2.5" style="stroke:#181818;stroke-width:0.5;" width="351" x="1696.5" y="87.2969"/><text fill="#000000" font-family="sans-serif" font-size="20" lengthAdjust="spacing" textLength="337" x="1703.5" y="112.8613">UpdateMedicalHistoryComponent</text><rect fill="#E2E2F0" height="37.2813" rx="2.5" ry="2.5" style="stroke:#181818;stroke-width:0.5;" width="351" x="1696.5" y="1342.0156"/><text fill="#000000" font-family="sans-serif" font-size="20" lengthAdjust="spacing" textLength="337" x="1703.5" y="1367.5801">UpdateMedicalHistoryComponent</text><rect fill="#E2E2F0" height="37.2813" rx="2.5" ry="2.5" style="stroke:#181818;stroke-width:0.5;" width="234" x="2218" y="87.2969"/><text fill="#000000" font-family="sans-serif" font-size="20" lengthAdjust="spacing" textLength="220" x="2225" y="112.8613">MedicalHistoryService</text><rect fill="#E2E2F0" height="37.2813" rx="2.5" ry="2.5" style="stroke:#181818;stroke-width:0.5;" width="234" x="2218" y="1342.0156"/><text fill="#000000" font-family="sans-serif" font-size="20" lengthAdjust="spacing" textLength="220" x="2225" y="1367.5801">MedicalHistoryService</text><rect fill="#E2E2F0" height="37.2813" rx="2.5" ry="2.5" style="stroke:#181818;stroke-width:0.5;" width="173" x="2462" y="87.2969"/><text fill="#000000" font-family="sans-serif" font-size="20" lengthAdjust="spacing" textLength="159" x="2469" y="112.8613">AuthInterceptor</text><rect fill="#E2E2F0" height="37.2813" rx="2.5" ry="2.5" style="stroke:#181818;stroke-width:0.5;" width="173" x="2462" y="1342.0156"/><text fill="#000000" font-family="sans-serif" font-size="20" lengthAdjust="spacing" textLength="159" x="2469" y="1367.5801">AuthInterceptor</text><rect fill="#E2E2F0" height="37.2813" rx="2.5" ry="2.5" style="stroke:#181818;stroke-width:0.5;" width="60" x="3105.5" y="87.2969"/><text fill="#000000" font-family="sans-serif" font-size="20" lengthAdjust="spacing" textLength="46" x="3112.5" y="112.8613">MDV</text><rect fill="#E2E2F0" height="37.2813" rx="2.5" ry="2.5" style="stroke:#181818;stroke-width:0.5;" width="60" x="3105.5" y="1342.0156"/><text fill="#000000" font-family="sans-serif" font-size="20" lengthAdjust="spacing" textLength="46" x="3112.5" y="1367.5801">MDV</text><rect fill="#E2E2F0" height="37.2813" rx="2.5" ry="2.5" style="stroke:#181818;stroke-width:0.5;" width="41" x="3742" y="87.2969"/><text fill="#000000" font-family="sans-serif" font-size="20" lengthAdjust="spacing" textLength="27" x="3749" y="112.8613">AS</text><rect fill="#E2E2F0" height="37.2813" rx="2.5" ry="2.5" style="stroke:#181818;stroke-width:0.5;" width="41" x="3742" y="1342.0156"/><text fill="#000000" font-family="sans-serif" font-size="20" lengthAdjust="spacing" textLength="27" x="3749" y="1367.5801">AS</text><rect fill="#FFFFFF" height="1198.4375" style="stroke:#181818;stroke-width:1.0;" width="10" x="36" y="135.5781"/><rect fill="#FFFFFF" height="620.2188" style="stroke:#181818;stroke-width:1.0;" width="10" x="691" y="164.8594"/><rect fill="#FFFFFF" height="502.6563" style="stroke:#181818;stroke-width:1.0;" width="10" x="691" y="822.3594"/><rect fill="#FFFFFF" height="67.2813" style="stroke:#181818;stroke-width:1.0;" width="10" x="1406" y="202.1406"/><rect fill="#FFFFFF" height="508.375" style="stroke:#181818;stroke-width:1.0;" width="10" x="1867" y="239.4219"/><rect fill="#FFFFFF" height="428.0938" style="stroke:#181818;stroke-width:1.0;" width="10" x="1867" y="859.6406"/><rect fill="#FFFFFF" height="278.9688" style="stroke:#181818;stroke-width:1.0;" width="10" x="2543.5" y="343.9844"/><rect fill="#FFFFFF" height="278.9688" style="stroke:#181818;stroke-width:1.0;" width="10" x="2543.5" y="934.2031"/><rect fill="#FFFFFF" height="87.5625" style="stroke:#181818;stroke-width:1.0;" width="10" x="3130.5" y="498.1094"/><rect fill="#FFFFFF" height="87.5625" style="stroke:#181818;stroke-width:1.0;" width="10" x="3130.5" y="1088.3281"/><rect fill="#FFFFFF" height="353.5313" style="stroke:#181818;stroke-width:1.0;" width="10" x="3757.5" y="306.7031"/><rect fill="#FFFFFF" height="353.5313" style="stroke:#181818;stroke-width:1.0;" width="10" x="3757.5" y="896.9219"/><polygon fill="#000000" points="679,160.8594,689,164.8594,679,168.8594,683,164.8594" style="stroke:#000000;stroke-width:1.0;"/><line style="stroke:#000000;stroke-width:1.0;" x1="46" x2="685" y1="164.8594" y2="164.8594"/><text fill="#000000" font-family="sans-serif" font-size="20" lengthAdjust="spacing" textLength="626" x="53" y="158.1426">Asks to update an allergy entry in the patient's medical record</text><polygon fill="#000000" points="1394,198.1406,1404,202.1406,1394,206.1406,1398,202.1406" style="stroke:#000000;stroke-width:1.0;"/><line style="stroke:#000000;stroke-width:1.0;" x1="701" x2="1400" y1="202.1406" y2="202.1406"/><text fill="#000000" font-family="sans-serif" font-size="20" lengthAdjust="spacing" textLength="686" x="708" y="195.4238">routerLink='/update-medical-history/:patientMedicalRecordNumber'</text><polygon fill="#000000" points="1855,235.4219,1865,239.4219,1855,243.4219,1859,239.4219" style="stroke:#000000;stroke-width:1.0;"/><line style="stroke:#000000;stroke-width:1.0;" x1="1416" x2="1861" y1="239.4219" y2="239.4219"/><text fill="#000000" font-family="sans-serif" font-size="20" lengthAdjust="spacing" textLength="432" x="1423" y="232.7051">routes to UpdateMedicalHistoryComponent</text><polygon fill="#000000" points="3745.5,302.7031,3755.5,306.7031,3745.5,310.7031,3749.5,306.7031" style="stroke:#000000;stroke-width:1.0;"/><line style="stroke:#000000;stroke-width:1.0;" x1="1877" x2="3751.5" y1="306.7031" y2="306.7031"/><text fill="#000000" font-family="sans-serif" font-size="20" lengthAdjust="spacing" textLength="514" x="1884" y="299.9863">fetchMedicalHistory(patientMedicalRecordNumber)</text><polygon fill="#000000" points="2564.5,339.9844,2554.5,343.9844,2564.5,347.9844,2560.5,343.9844" style="stroke:#000000;stroke-width:1.0;"/><line style="stroke:#000000;stroke-width:1.0;" x1="2558.5" x2="3756.5" y1="343.9844" y2="343.9844"/><text fill="#000000" font-family="sans-serif" font-size="20" lengthAdjust="spacing" textLength="476" x="2570.5" y="337.2676">Makes Http Request to get Medical History data</text><line style="stroke:#000000;stroke-width:1.0;" x1="2553.5" x2="2595.5" y1="381.2656" y2="381.2656"/><line style="stroke:#000000;stroke-width:1.0;" x1="2595.5" x2="2595.5" y1="381.2656" y2="394.2656"/><line style="stroke:#000000;stroke-width:1.0;" x1="2554.5" x2="2595.5" y1="394.2656" y2="394.2656"/><polygon fill="#000000" points="2564.5,390.2656,2554.5,394.2656,2564.5,398.2656,2560.5,394.2656" style="stroke:#000000;stroke-width:1.0;"/><text fill="#000000" font-family="sans-serif" font-size="20" lengthAdjust="spacing" textLength="563" x="2560.5" y="374.5488">Intercepts the request and adds the token to the header</text><path d="M2558,407.2656 L2558,463.2656 L3077,463.2656 L3077,417.2656 L3067,407.2656 L2558,407.2656 " fill="#FEFFDD" style="stroke:#181818;stroke-width:0.5;"/><path d="M3067,407.2656 L3067,417.2656 L3077,417.2656 L3067,407.2656 " fill="#FEFFDD" style="stroke:#181818;stroke-width:0.5;"/><text fill="#000000" font-family="sans-serif" font-size="20" lengthAdjust="spacing" textLength="498" x="2564" y="430.8301">The token is added to the header so that the MDV</text><text fill="#000000" font-family="sans-serif" font-size="20" lengthAdjust="spacing" textLength="442" x="2564" y="454.1113">can authenticate and authorize the request.</text><polygon fill="#000000" points="3118.5,494.1094,3128.5,498.1094,3118.5,502.1094,3122.5,498.1094" style="stroke:#000000;stroke-width:1.0;"/><line style="stroke:#000000;stroke-width:1.0;" x1="2553.5" x2="3124.5" y1="498.1094" y2="498.1094"/><text fill="#000000" font-family="sans-serif" font-size="20" lengthAdjust="spacing" textLength="496" x="2560.5" y="491.3926">getMedicalHistory(patientMedicalRecordNumber)</text><line style="stroke:#000000;stroke-width:1.0;" x1="3140.5" x2="3182.5" y1="535.3906" y2="535.3906"/><line style="stroke:#000000;stroke-width:1.0;" x1="3182.5" x2="3182.5" y1="535.3906" y2="548.3906"/><line style="stroke:#000000;stroke-width:1.0;" x1="3141.5" x2="3182.5" y1="548.3906" y2="548.3906"/><polygon fill="#000000" points="3151.5,544.3906,3141.5,548.3906,3151.5,552.3906,3147.5,548.3906" style="stroke:#000000;stroke-width:1.0;"/><text fill="#000000" font-family="sans-serif" font-size="20" lengthAdjust="spacing" textLength="288" x="3147.5" y="528.6738">Fetches Medical History data</text><polygon fill="#000000" points="2564.5,581.6719,2554.5,585.6719,2564.5,589.6719,2560.5,585.6719" style="stroke:#000000;stroke-width:1.0;"/><line style="stroke:#000000;stroke-width:1.0;stroke-dasharray:2.0,2.0;" x1="2558.5" x2="3134.5" y1="585.6719" y2="585.6719"/><text fill="#000000" font-family="sans-serif" font-size="20" lengthAdjust="spacing" textLength="305" x="2570.5" y="578.9551">returns Operation Status Code</text><polygon fill="#000000" points="3745.5,618.9531,3755.5,622.9531,3745.5,626.9531,3749.5,622.9531" style="stroke:#000000;stroke-width:1.0;"/><line style="stroke:#000000;stroke-width:1.0;stroke-dasharray:2.0,2.0;" x1="2548.5" x2="3751.5" y1="622.9531" y2="622.9531"/><text fill="#000000" font-family="sans-serif" font-size="20" lengthAdjust="spacing" textLength="305" x="2555.5" y="616.2363">returns Operation Status Code</text><polygon fill="#000000" points="1888,656.2344,1878,660.2344,1888,664.2344,1884,660.2344" style="stroke:#000000;stroke-width:1.0;"/><line style="stroke:#000000;stroke-width:1.0;stroke-dasharray:2.0,2.0;" x1="1882" x2="3761.5" y1="660.2344" y2="660.2344"/><text fill="#000000" font-family="sans-serif" font-size="20" lengthAdjust="spacing" textLength="280" x="1894" y="653.5176">returns Operation Response</text><line style="stroke:#000000;stroke-width:1.0;" x1="1877" x2="1919" y1="697.5156" y2="697.5156"/><line style="stroke:#000000;stroke-width:1.0;" x1="1919" x2="1919" y1="697.5156" y2="710.5156"/><line style="stroke:#000000;stroke-width:1.0;" x1="1878" x2="1919" y1="710.5156" y2="710.5156"/><polygon fill="#000000" points="1888,706.5156,1878,710.5156,1888,714.5156,1884,710.5156" style="stroke:#000000;stroke-width:1.0;"/><text fill="#000000" font-family="sans-serif" font-size="20" lengthAdjust="spacing" textLength="439" x="1884" y="690.7988">initializes UpdateMedicalHistoryComponent</text><polygon fill="#000000" points="712,743.7969,702,747.7969,712,751.7969,708,747.7969" style="stroke:#000000;stroke-width:1.0;"/><line style="stroke:#000000;stroke-width:1.0;stroke-dasharray:2.0,2.0;" x1="706" x2="1871" y1="747.7969" y2="747.7969"/><text fill="#000000" font-family="sans-serif" font-size="20" lengthAdjust="spacing" textLength="415" x="718" y="741.0801">returns UpdateMedicalHistoryComponent</text><polygon fill="#000000" points="57,781.0781,47,785.0781,57,789.0781,53,785.0781" style="stroke:#000000;stroke-width:1.0;"/><line style="stroke:#000000;stroke-width:1.0;stroke-dasharray:2.0,2.0;" x1="51" x2="695" y1="785.0781" y2="785.0781"/><text fill="#000000" font-family="sans-serif" font-size="20" lengthAdjust="spacing" textLength="520" x="63" y="778.3613">Displays the fetched data and asks for the new data</text><polygon fill="#000000" points="679,818.3594,689,822.3594,679,826.3594,683,822.3594" style="stroke:#000000;stroke-width:1.0;"/><line style="stroke:#000000;stroke-width:1.0;" x1="46" x2="685" y1="822.3594" y2="822.3594"/><text fill="#000000" font-family="sans-serif" font-size="20" lengthAdjust="spacing" textLength="449" x="53" y="815.6426">Sends the new data(Allergies) to be updated</text><polygon fill="#000000" points="1855,855.6406,1865,859.6406,1855,863.6406,1859,859.6406" style="stroke:#000000;stroke-width:1.0;"/><line style="stroke:#000000;stroke-width:1.0;" x1="701" x2="1861" y1="859.6406" y2="859.6406"/><text fill="#000000" font-family="sans-serif" font-size="20" lengthAdjust="spacing" textLength="303" x="708" y="852.9238">updateMedicalHistory($event)</text><polygon fill="#000000" points="3745.5,892.9219,3755.5,896.9219,3745.5,900.9219,3749.5,896.9219" style="stroke:#000000;stroke-width:1.0;"/><line style="stroke:#000000;stroke-width:1.0;" x1="1877" x2="3751.5" y1="896.9219" y2="896.9219"/><text fill="#000000" font-family="sans-serif" font-size="20" lengthAdjust="spacing" textLength="423" x="1884" y="890.2051">updateMedicalHistory(newMedicalHistory)</text><polygon fill="#000000" points="2564.5,930.2031,2554.5,934.2031,2564.5,938.2031,2560.5,934.2031" style="stroke:#000000;stroke-width:1.0;"/><line style="stroke:#000000;stroke-width:1.0;" x1="2558.5" x2="3756.5" y1="934.2031" y2="934.2031"/><text fill="#000000" font-family="sans-serif" font-size="20" lengthAdjust="spacing" textLength="781" x="2570.5" y="927.4863">Makes Http Request to update an allergy entry in the patient's medical record</text><line style="stroke:#000000;stroke-width:1.0;" x1="2553.5" x2="2595.5" y1="971.4844" y2="971.4844"/><line style="stroke:#000000;stroke-width:1.0;" x1="2595.5" x2="2595.5" y1="971.4844" y2="984.4844"/><line style="stroke:#000000;stroke-width:1.0;" x1="2554.5" x2="2595.5" y1="984.4844" y2="984.4844"/><polygon fill="#000000" points="2564.5,980.4844,2554.5,984.4844,2564.5,988.4844,2560.5,984.4844" style="stroke:#000000;stroke-width:1.0;"/><text fill="#000000" font-family="sans-serif" font-size="20" lengthAdjust="spacing" textLength="563" x="2560.5" y="964.7676">Intercepts the request and adds the token to the header</text><path d="M2558,997.4844 L2558,1053.4844 L3077,1053.4844 L3077,1007.4844 L3067,997.4844 L2558,997.4844 " fill="#FEFFDD" style="stroke:#181818;stroke-width:0.5;"/><path d="M3067,997.4844 L3067,1007.4844 L3077,1007.4844 L3067,997.4844 " fill="#FEFFDD" style="stroke:#181818;stroke-width:0.5;"/><text fill="#000000" font-family="sans-serif" font-size="20" lengthAdjust="spacing" textLength="498" x="2564" y="1021.0488">The token is added to the header so that the MDV</text><text fill="#000000" font-family="sans-serif" font-size="20" lengthAdjust="spacing" textLength="442" x="2564" y="1044.3301">can authenticate and authorize the request.</text><polygon fill="#000000" points="3118.5,1084.3281,3128.5,1088.3281,3118.5,1092.3281,3122.5,1088.3281" style="stroke:#000000;stroke-width:1.0;"/><line style="stroke:#000000;stroke-width:1.0;" x1="2553.5" x2="3124.5" y1="1088.3281" y2="1088.3281"/><text fill="#000000" font-family="sans-serif" font-size="20" lengthAdjust="spacing" textLength="423" x="2560.5" y="1081.6113">updateMedicalHistory(newMedicalHistory)</text><line style="stroke:#000000;stroke-width:1.0;" x1="3140.5" x2="3182.5" y1="1125.6094" y2="1125.6094"/><line style="stroke:#000000;stroke-width:1.0;" x1="3182.5" x2="3182.5" y1="1125.6094" y2="1138.6094"/><line style="stroke:#000000;stroke-width:1.0;" x1="3141.5" x2="3182.5" y1="1138.6094" y2="1138.6094"/><polygon fill="#000000" points="3151.5,1134.6094,3141.5,1138.6094,3151.5,1142.6094,3147.5,1138.6094" style="stroke:#000000;stroke-width:1.0;"/><text fill="#000000" font-family="sans-serif" font-size="20" lengthAdjust="spacing" textLength="603" x="3147.5" y="1118.8926">Validates the data and updates the patient's medical record</text><polygon fill="#000000" points="2564.5,1171.8906,2554.5,1175.8906,2564.5,1179.8906,2560.5,1175.8906" style="stroke:#000000;stroke-width:1.0;"/><line style="stroke:#000000;stroke-width:1.0;stroke-dasharray:2.0,2.0;" x1="2558.5" x2="3134.5" y1="1175.8906" y2="1175.8906"/><text fill="#000000" font-family="sans-serif" font-size="20" lengthAdjust="spacing" textLength="311" x="2570.5" y="1169.1738">Returns Operation Status Code</text><polygon fill="#000000" points="3745.5,1209.1719,3755.5,1213.1719,3745.5,1217.1719,3749.5,1213.1719" style="stroke:#000000;stroke-width:1.0;"/><line style="stroke:#000000;stroke-width:1.0;stroke-dasharray:2.0,2.0;" x1="2548.5" x2="3751.5" y1="1213.1719" y2="1213.1719"/><text fill="#000000" font-family="sans-serif" font-size="20" lengthAdjust="spacing" textLength="305" x="2555.5" y="1206.4551">returns Operation Status Code</text><polygon fill="#000000" points="1888,1246.4531,1878,1250.4531,1888,1254.4531,1884,1250.4531" style="stroke:#000000;stroke-width:1.0;"/><line style="stroke:#000000;stroke-width:1.0;stroke-dasharray:2.0,2.0;" x1="1882" x2="3761.5" y1="1250.4531" y2="1250.4531"/><text fill="#000000" font-family="sans-serif" font-size="20" lengthAdjust="spacing" textLength="280" x="1894" y="1243.7363">returns Operation Response</text><polygon fill="#000000" points="712,1283.7344,702,1287.7344,712,1291.7344,708,1287.7344" style="stroke:#000000;stroke-width:1.0;"/><line style="stroke:#000000;stroke-width:1.0;stroke-dasharray:2.0,2.0;" x1="706" x2="1871" y1="1287.7344" y2="1287.7344"/><text fill="#000000" font-family="sans-serif" font-size="20" lengthAdjust="spacing" textLength="374" x="718" y="1281.0176">returns Operation In/Sucess message</text><polygon fill="#000000" points="57,1321.0156,47,1325.0156,57,1329.0156,53,1325.0156" style="stroke:#000000;stroke-width:1.0;"/><line style="stroke:#000000;stroke-width:1.0;stroke-dasharray:2.0,2.0;" x1="51" x2="695" y1="1325.0156" y2="1325.0156"/><text fill="#000000" font-family="sans-serif" font-size="20" lengthAdjust="spacing" textLength="374" x="63" y="1318.2988">returns Operation In/Sucess message</text><!--SRC=[tLRRRjD047tVhnYrI6aVIaiHjwXKSYuMbXegnQJlMtiIBt5spUuwLK3yExDhfx6B6oYy82fLKSPppfuvEpEEMGfPSCrNkKgMc4AASrxcDbJInk8hmlaPOrRO7E4ArvZ3ImZ7C19yGH36Cf4YuAgm6rZXwXQrOJspPOGh8T5k2WIbRQOOspr9ScuCV6D0VmEUB1TQbJ8TgbpfYuirpqkyllsCYRsyXCFHwt4GlkrErKhvd70q7epEkdCCwhL8q5Ez2C_7WwuqE9n5uRln6_yiq5hTLU51JddiUrDxGH6-m6xrS3WUXA_2WOFmn59WfFm7Dn0m8h0Y4GMN5cu4thdeB6g53oQOYeJd7uGXs6QeLeMIAEs1PvWCsycp8kKMzq5cmN0VVroPurElft4xDIXj5acBEi62aYi9RRcJqOsBqeUlLwn93XKQmCabLTQ7m2mDM0Mb5mfS0izpr8iDa42z0I71PaYUMa61dg4syl90Ow9qkkCacsQHOoKF-a26aopgh-Nxtcd5VL8ZJxAgijD-JLeNFFM47qlNfRs6LhAK_htUOCli9U_rjY6C34wnnKSXhpJkmnnjahKvZXxNTTpG5RCWzYpaueGlITC7QmkOufSIZNK25qZ-rtRLt42IUOCaOa6q9Rc_IUCjrpKHbodmDAs2LYrHEcxt9KEUecPI4PCMYyo2cZjAr_QVxfE5SN3Q72qK6FUDMnzotU50YRj-wYagdaJxTaXzG6ctQXggdZEaH-xakW2YwBk2_yHATxphqorDwEw4_EpqpYVMZccqfPOq60LgEaX9Y2stfO6XIh5vwUu4fxE-zD_6kVk9FQpglPzmKpJKRwODYhSDva522YjuJWQQNxIiHzLpkJrgFw9ngclpMLrYdru0fiZvfceQt-FkrK7-LLVgXdvEIyyzbRJclBDDicYt8MAwQTFAF0hyYX1eZbrJtMAzFRgsWRUWx2ZYw1czhgGzRWzgOp8xGIIX7NdQHFxrbllF1lR97ZySrHjgR4TH5NlVO1MlsMzgSvAd__GaFvZ97IYIft6Pe76r6KC_EXwVoAU28_O3]--></g></svg>