<?xml version="1.0" encoding="us-ascii" standalone="no"?><svg xmlns="http://www.w3.org/2000/svg" xmlns:xlink="http://www.w3.org/1999/xlink" contentStyleType="text/css" height="727px" preserveAspectRatio="none" style="width:407px;height:727px;background:#FFFFFF;" version="1.1" viewBox="0 0 407 727" width="407px" zoomAndPan="magnify"><defs/><g><!--cluster System--><g id="cluster_System"><rect fill="none" height="714" rx="2.5" ry="2.5" style="stroke:#181818;stroke-width:1.0;" width="253" x="148" y="7"/><text fill="#000000" font-family="sans-serif" font-size="14" font-weight="bold" lengthAdjust="spacing" textLength="50" x="249.5" y="24.1074">System</text></g><g id="elem_US5_1_1"><ellipse cx="274.3085" cy="147.0617" fill="#F1F1F1" rx="100.8085" ry="22.5617" style="stroke:#181818;stroke-width:0.5;"/><text fill="#000000" font-family="sans-serif" font-size="14" lengthAdjust="spacing" textLength="160" x="193.4387" y="151.1799">Manage Backoffice Users</text></g><g id="elem_US5_1_8_9_10_11"><ellipse cx="274.6394" cy="223.2279" fill="#F1F1F1" rx="79.1394" ry="18.2279" style="stroke:#181818;stroke-width:0.5;"/><text fill="#000000" font-family="sans-serif" font-size="14" lengthAdjust="spacing" textLength="106" x="218.6394" y="228.0316">Manage Patients</text></g><g id="elem_US5_1_12_13_14_15"><ellipse cx="274.5589" cy="295.9118" fill="#F1F1F1" rx="87.5589" ry="19.9118" style="stroke:#181818;stroke-width:0.5;"/><text fill="#000000" font-family="sans-serif" font-size="14" lengthAdjust="spacing" textLength="128" x="207.5589" y="300.7155">Manage Staff Profile</text></g><g id="elem_US5_1_20_21_22_23"><ellipse cx="274.744" cy="67.1488" fill="#F1F1F1" rx="101.244" ry="22.6488" style="stroke:#181818;stroke-width:0.5;"/><text fill="#000000" font-family="sans-serif" font-size="14" lengthAdjust="spacing" textLength="161" x="193.4994" y="71.2223">Manage Operation Types</text></g><g id="elem_US5_1_3"><ellipse cx="274.558" cy="446.9116" fill="#F1F1F1" rx="102.558" ry="22.9116" style="stroke:#181818;stroke-width:0.5;"/><text fill="#000000" font-family="sans-serif" font-size="14" lengthAdjust="spacing" textLength="164" x="192.1827" y="450.8504">Register in the application</text></g><g id="elem_US5_1_4_5"><ellipse cx="274.3887" cy="369.9777" fill="#F1F1F1" rx="82.8887" ry="18.9777" style="stroke:#181818;stroke-width:0.5;"/><text fill="#000000" font-family="sans-serif" font-size="14" lengthAdjust="spacing" textLength="116" x="213.3887" y="374.7815">Manage my profile</text></g><g id="elem_US5_1_6"><ellipse cx="274.6633" cy="609.8327" fill="#F1F1F1" rx="87.1633" ry="19.8327" style="stroke:#181818;stroke-width:0.5;"/><text fill="#000000" font-family="sans-serif" font-size="14" lengthAdjust="spacing" textLength="127" x="208.1633" y="614.6364">Log in to the system</text></g><g id="elem_US5_1_2"><ellipse cx="274.4832" cy="685.0966" fill="#F1F1F1" rx="85.9832" ry="19.5966" style="stroke:#181818;stroke-width:0.5;"/><text fill="#000000" font-family="sans-serif" font-size="14" lengthAdjust="spacing" textLength="124" x="209.4832" y="689.9003">Reset my Password</text></g><g id="elem_US5_1_16_17_18_19"><ellipse cx="274.5926" cy="530.0185" fill="#F1F1F1" rx="110.5926" ry="24.5185" style="stroke:#181818;stroke-width:0.5;"/><text fill="#000000" font-family="sans-serif" font-size="14" lengthAdjust="spacing" textLength="182" x="183.5926" y="533.8154">Manage Operation Requests</text></g><!--entity AD--><g id="elem_AD"><ellipse cx="55" cy="154" fill="#FFFFFF" rx="8" ry="8" style="stroke:#FF0000;stroke-width:2.0;"/><path d="M55,162 L55,189 M42,170 L68,170 M55,189 L42,204 M55,189 L68,204 " fill="none" style="stroke:#FF0000;stroke-width:2.0;"/><text fill="#000000" font-family="sans-serif" font-size="14" lengthAdjust="spacing" textLength="39" x="35.5" y="222.1074">Admin</text></g><!--entity PA--><g id="elem_PA"><ellipse cx="55" cy="360" fill="#FFFFFF" rx="8" ry="8" style="stroke:#0000FF;stroke-width:2.0;"/><path d="M55,368 L55,395 M42,376 L68,376 M55,395 L42,410 M55,395 L68,410 " fill="none" style="stroke:#0000FF;stroke-width:2.0;"/><text fill="#000000" font-family="sans-serif" font-size="14" lengthAdjust="spacing" textLength="44" x="33" y="428.1074">Patient</text></g><!--entity ST--><g id="elem_ST"><ellipse cx="55" cy="499" fill="#FFFFFF" rx="8" ry="8" style="stroke:#008000;stroke-width:2.0;"/><path d="M55,507 L55,534 M42,515 L68,515 M55,534 L42,549 M55,534 L68,549 " fill="none" style="stroke:#008000;stroke-width:2.0;"/><text fill="#000000" font-family="sans-serif" font-size="14" lengthAdjust="spacing" textLength="29" x="40.5" y="567.1074">Staff</text></g><!--entity BU--><g id="elem_BU"><ellipse cx="55" cy="635" fill="#FFFFFF" rx="8" ry="8" style="stroke:#800080;stroke-width:2.0;"/><path d="M55,643 L55,670 M42,651 L68,651 M55,670 L42,685 M55,670 L68,685 " fill="none" style="stroke:#800080;stroke-width:2.0;"/><text fill="#000000" font-family="sans-serif" font-size="14" lengthAdjust="spacing" textLength="98" x="6" y="703.1074">Backoffice User</text></g><!--link AD to US5_1_1--><g id="link_AD_US5_1_1"><path d="M74.54,181.76 C101,177.14 145.2595,169.4026 188.5895,161.8326 " fill="none" id="AD-to-US5_1_1" style="stroke:#181818;stroke-width:1.0;"/><polygon fill="#181818" points="194.5,160.8,184.9459,158.4086,189.5746,161.6605,186.3227,166.2892,194.5,160.8" style="stroke:#181818;stroke-width:1.0;"/></g><!--link AD to US5_1_8_9_10_11--><g id="link_AD_US5_1_8_9_10_11"><path d="M74.54,188.24 C104.44,193.46 158.7095,202.9478 205.0895,211.0478 " fill="none" id="AD-to-US5_1_8_9_10_11" style="stroke:#181818;stroke-width:1.0;"/><polygon fill="#181818" points="211,212.08,202.8224,206.5913,206.0746,211.2198,201.446,214.472,211,212.08" style="stroke:#181818;stroke-width:1.0;"/></g><!--link AD to US5_1_12_13_14_15--><g id="link_AD_US5_1_12_13_14_15"><path d="M74.81,205.74 C90.71,222.11 114.86,244.38 140,258 C160.66,269.19 179.1483,275.8403 201.2983,281.6803 " fill="none" id="AD-to-US5_1_12_13_14_15" style="stroke:#181818;stroke-width:1.0;"/><polygon fill="#181818" points="207.1,283.21,199.4172,277.0477,202.2652,281.9353,197.3776,284.7833,207.1,283.21" style="stroke:#181818;stroke-width:1.0;"/></g><!--link AD to US5_1_20_21_22_23--><g id="link_AD_US5_1_20_21_22_23"><path d="M74.59,162.88 C90.36,145.41 114.44,121.63 140,107 C158.48,96.43 174.2739,90.0832 194.6039,84.1032 " fill="none" id="AD-to-US5_1_20_21_22_23" style="stroke:#181818;stroke-width:1.0;"/><polygon fill="#181818" points="200.36,82.41,190.597,81.1123,195.5632,83.821,192.8545,88.7872,200.36,82.41" style="stroke:#181818;stroke-width:1.0;"/></g><!--link PA to US5_1_3--><g id="link_PA_US5_1_3"><path d="M77.25,396.47 C106.86,404.09 156.0596,416.7637 200.3296,428.1637 " fill="none" id="PA-to-US5_1_3" style="stroke:#181818;stroke-width:1.0;"/><polygon fill="#181818" points="206.14,429.66,198.4218,423.542,201.298,428.4131,196.4268,431.2893,206.14,429.66" style="stroke:#181818;stroke-width:1.0;"/></g><!--link PA to US5_1_4_5--><g id="link_PA_US5_1_4_5"><path d="M77.25,388.95 C105.04,386.26 149.2478,381.9969 191.8978,377.8769 " fill="none" id="PA-to-US5_1_4_5" style="stroke:#181818;stroke-width:1.0;"/><polygon fill="#181818" points="197.87,377.3,188.5271,374.1839,192.8932,377.7808,189.2963,382.1468,197.87,377.3" style="stroke:#181818;stroke-width:1.0;"/></g><!--link BU to US5_1_6--><g id="link_BU_US5_1_6"><path d="M104,653.64 C137.03,645.14 175.2496,635.2963 210.1596,626.3063 " fill="none" id="BU-to-US5_1_6" style="stroke:#181818;stroke-width:1.0;"/><polygon fill="#181818" points="215.97,624.81,206.2568,623.1808,211.128,626.0569,208.2519,630.9281,215.97,624.81" style="stroke:#181818;stroke-width:1.0;"/></g><!--link BU to US5_1_2--><g id="link_BU_US5_1_2"><path d="M104,670.19 C130.4,672.5 157.8428,674.8971 188.0228,677.5371 " fill="none" id="BU-to-US5_1_2" style="stroke:#181818;stroke-width:1.0;"/><polygon fill="#181818" points="194,678.06,185.3828,673.2909,189.019,677.6243,184.6857,681.2605,194,678.06" style="stroke:#181818;stroke-width:1.0;"/></g><!--link ST to US5_1_16_17_18_19--><g id="link_ST_US5_1_16_17_18_19"><path d="M70.27,530 C89.83,530 120.8,530 157.89,530 " fill="none" id="ST-to-US5_1_16_17_18_19" style="stroke:#181818;stroke-width:1.0;"/><polygon fill="#181818" points="163.89,530,154.89,526,158.89,530,154.89,534,163.89,530" style="stroke:#181818;stroke-width:1.0;"/></g><!--SRC=[XPBBJiCm44Nt_efHMHVLwOC-9AHMB454JRkst6IIMhXni1sL2l7lf1PGEuIIHUInVUxCN8_4t89Le4Mnjv09ZQaLgYI4frPfw2spWoXxm0qi7-3ck1SM5rAKEDUOkSNjJibiOV7DpdUIfo_VOCojmD8wD5u6w4xMU9LDBCzpHoQRW2mqOdaLNJLhbUSYHTWQr4vajGr4gbfNyey2oBb_NXOI8JaPYmTu1mBDLnjCkK7eFV6I5mYjFCObsYPZHXdj1Bxyy2zEsOpH0QFTW3C1Ogro8T6NZnWTCZfYTDp9FLUe-VaDONEgqCyN3LZK_2CM3KDoZOLecjKWIh1x15vLKgHEnCE7dUaE9wX-rJXYhTeULU74bTCtpbhl_gHTZq5xLewvCKUbCx-9VvfUuskD9l2PJXYzOtJAw8ny4D8CShz___DOGNXval2Mvtbmu5lQJFdbe1MU3Md6yB8n2SE8D9FkvVCg9fy0]--></g></svg>