<svg xmlns="http://www.w3.org/2000/svg" xmlns:xlink="http://www.w3.org/1999/xlink" contentStyleType="text/css" data-diagram-type="DESCRIPTION" height="5834px" preserveAspectRatio="none" style="width:982px;height:5834px;background:#FFFFFF;" version="1.1" viewBox="0 0 982 5834" width="982px" zoomAndPan="magnify"><defs/><g><!--cluster System--><g id="cluster_System"><rect fill="none" height="5821" rx="2.5" ry="2.5" style="stroke:#181818;stroke-width:1;" width="796.59" x="179.8" y="7"/><text fill="#000000" font-family="sans-serif" font-size="14" font-weight="bold" lengthAdjust="spacing" textLength="58.3174" x="548.9363" y="21.9951">System</text></g><g id="elem_US7_1_1"><ellipse cx="578.0919" cy="3575.0024" fill="#F1F1F1" rx="116.9619" ry="25.7924" style="stroke:#181818;stroke-width:0.5;"/><text fill="#000000" font-family="sans-serif" font-size="14" lengthAdjust="spacing" textLength="200.8604" x="477.6617" y="3577.8491">Integrated UI for all modules</text></g><g id="elem_US7_1_2"><ellipse cx="578.0871" cy="3661.9974" fill="#F1F1F1" rx="118.5371" ry="26.1074" style="stroke:#181818;stroke-width:0.5;"/><text fill="#000000" font-family="sans-serif" font-size="14" lengthAdjust="spacing" textLength="204.2305" x="475.9719" y="3664.8441">Role-based application menu</text></g><g id="elem_US7_1_3"><ellipse cx="578.0884" cy="3130.9957" fill="#F1F1F1" rx="208.5284" ry="44.1057" style="stroke:#181818;stroke-width:0.5;"/><text fill="#000000" font-family="sans-serif" font-size="14" lengthAdjust="spacing" textLength="390.8994" x="382.6387" y="3133.8424">Sync 3D visualization with database room's information</text></g><g id="elem_US7_1_4"><ellipse cx="578.0885" cy="304.0037" fill="#F1F1F1" rx="148.0185" ry="32.0037" style="stroke:#181818;stroke-width:0.5;"/><text fill="#000000" font-family="sans-serif" font-size="14" lengthAdjust="spacing" textLength="266.3555" x="444.9108" y="306.8504">Sync planning module with backoffice</text></g><g id="elem_US7_1_5"><ellipse cx="578.0863" cy="5772.9953" fill="#F1F1F1" rx="184.4763" ry="39.2953" style="stroke:#181818;stroke-width:0.5;"/><text fill="#000000" font-family="sans-serif" font-size="14" lengthAdjust="spacing" textLength="341.6875" x="407.2425" y="5775.8419">Sales and Techinical presentation of the solution</text></g><g id="elem_US7_2_1"><ellipse cx="578.0913" cy="3770.0003" fill="#F1F1F1" rx="224.0013" ry="47.2003" style="stroke:#181818;stroke-width:0.5;"/><text fill="#000000" font-family="sans-serif" font-size="14" lengthAdjust="spacing" textLength="422.4268" x="366.8779" y="3772.8469">Adopt a decentralized architecture of the backoffice module</text></g><g id="elem_US7_2_2"><ellipse cx="578.0908" cy="201.0022" fill="#F1F1F1" rx="168.9108" ry="36.1822" style="stroke:#181818;stroke-width:0.5;"/><text fill="#000000" font-family="sans-serif" font-size="14" lengthAdjust="spacing" textLength="309.6611" x="423.2602" y="203.8488">Add a new Allergy field in the patient profile</text></g><g id="elem_US7_2_3"><ellipse cx="578.0942" cy="5112.0048" fill="#F1F1F1" rx="151.3742" ry="32.6748" style="stroke:#181818;stroke-width:0.5;"/><text fill="#000000" font-family="sans-serif" font-size="14" lengthAdjust="spacing" textLength="273.3418" x="441.4233" y="5114.8515">Search for Allergy in the patient profile</text></g><g id="elem_US7_2_4"><ellipse cx="578.0895" cy="86.0019" fill="#F1F1F1" rx="205.9595" ry="43.5919" style="stroke:#181818;stroke-width:0.5;"/><text fill="#000000" font-family="sans-serif" font-size="14" lengthAdjust="spacing" textLength="385.6563" x="385.2614" y="88.8486">Add a new Medical Condition field in the patient profile</text></g><g id="elem_US7_2_5"><ellipse cx="578.0853" cy="5004.0011" fill="#F1F1F1" rx="188.2053" ry="40.0411" style="stroke:#181818;stroke-width:0.5;"/><text fill="#000000" font-family="sans-serif" font-size="14" lengthAdjust="spacing" textLength="349.3369" x="403.4169" y="5006.8477">Search for Medical Condition in the patient profile</text></g><g id="elem_US7_2_6"><ellipse cx="578.0893" cy="4863.0019" fill="#F1F1F1" rx="319.2593" ry="66.2519" style="stroke:#181818;stroke-width:0.5;"/><text fill="#000000" font-family="sans-serif" font-size="14" lengthAdjust="spacing" textLength="615.248" x="270.4653" y="4865.8485">Update the Patient Medical Record, namely respecting Medical Conditions and Allergies</text></g><g id="elem_US7_2_7"><ellipse cx="578.0932" cy="4494.0046" fill="#F1F1F1" rx="364.7232" ry="75.3446" style="stroke:#181818;stroke-width:0.5;"/><text fill="#000000" font-family="sans-serif" font-size="14" lengthAdjust="spacing" textLength="706.8428" x="224.6718" y="4496.8513">Search for entries in the Patient Medical Record, namely respecting Medical Conditions and Allergies</text></g><g id="elem_US7_2_8"><ellipse cx="578.0903" cy="4356.9961" fill="#F1F1F1" rx="122.9303" ry="26.9861" style="stroke:#181818;stroke-width:0.5;"/><text fill="#000000" font-family="sans-serif" font-size="14" lengthAdjust="spacing" textLength="213.5957" x="471.2925" y="4359.8427">Create a Surgery appointment</text></g><g id="elem_US7_2_9"><ellipse cx="578.0948" cy="4268.001" fill="#F1F1F1" rx="124.7548" ry="27.351" style="stroke:#181818;stroke-width:0.5;"/><text fill="#000000" font-family="sans-serif" font-size="14" lengthAdjust="spacing" textLength="217.4717" x="469.359" y="4270.8476">Update a Surgery appointment</text></g><g id="elem_US7_2_10"><ellipse cx="578.0875" cy="2397.9955" fill="#F1F1F1" rx="93.8775" ry="21.1755" style="stroke:#181818;stroke-width:0.5;"/><text fill="#000000" font-family="sans-serif" font-size="14" lengthAdjust="spacing" textLength="150.4658" x="502.8545" y="2400.8422">Add a new room type</text></g><g id="elem_US7_2_11"><ellipse cx="578.0858" cy="2317.9952" fill="#F1F1F1" rx="105.1258" ry="23.4252" style="stroke:#181818;stroke-width:0.5;"/><text fill="#000000" font-family="sans-serif" font-size="14" lengthAdjust="spacing" textLength="175.2939" x="490.4388" y="2320.8418">Add a new Specialization</text></g><g id="elem_US7_2_13"><ellipse cx="578.0886" cy="2237.9957" fill="#F1F1F1" rx="97.2286" ry="21.8457" style="stroke:#181818;stroke-width:0.5;"/><text fill="#000000" font-family="sans-serif" font-size="14" lengthAdjust="spacing" textLength="157.9307" x="499.1233" y="2240.8424">Update specializations</text></g><g id="elem_US7_2_14"><ellipse cx="578.0937" cy="4682.9987" fill="#F1F1F1" rx="382.2937" ry="78.8587" style="stroke:#181818;stroke-width:0.5;"/><text fill="#000000" font-family="sans-serif" font-size="14" lengthAdjust="spacing" textLength="742.1982" x="206.9945" y="4685.8454">Include the access of the Patient Medical Record during the patient profile visualization and management</text></g><g id="elem_US7_2_15"><ellipse cx="578.0875" cy="2146.9975" fill="#F1F1F1" rx="156.2875" ry="33.6575" style="stroke:#181818;stroke-width:0.5;"/><text fill="#000000" font-family="sans-serif" font-size="14" lengthAdjust="spacing" textLength="283.5479" x="436.3136" y="2149.8442">List/Search  and Remove Specializations</text></g><g id="elem_US7_2_16"><ellipse cx="578.0875" cy="2059.0035" fill="#F1F1F1" rx="83.1175" ry="19.0235" style="stroke:#181818;stroke-width:0.5;"/><text fill="#000000" font-family="sans-serif" font-size="14" lengthAdjust="spacing" textLength="125.9521" x="514.558" y="2062.0375">Update an Allergy</text></g><g id="elem_US7_2_17"><ellipse cx="578.0949" cy="1979.997" fill="#F1F1F1" rx="113.3349" ry="25.067" style="stroke:#181818;stroke-width:0.5;"/><text fill="#000000" font-family="sans-serif" font-size="14" lengthAdjust="spacing" textLength="193.0742" x="481.5578" y="1982.8437">Update a Medical Condition</text></g><g id="elem_US7_2_18"><ellipse cx="578.0906" cy="4163.0021" fill="#F1F1F1" rx="202.1606" ry="42.8321" style="stroke:#181818;stroke-width:0.5;"/><text fill="#000000" font-family="sans-serif" font-size="14" lengthAdjust="spacing" textLength="377.8975" x="389.1418" y="4165.8488">Update an Allergy Entry in the Patient Medical Record</text></g><g id="elem_US7_2_19"><ellipse cx="578.0934" cy="4036.0027" fill="#F1F1F1" rx="235.1134" ry="49.4227" style="stroke:#181818;stroke-width:0.5;"/><text fill="#000000" font-family="sans-serif" font-size="14" lengthAdjust="spacing" textLength="445.0195" x="355.5837" y="4038.8494">Update a Medical Condition Entry in the Patient Medical Record</text></g><g id="elem_US7_2_20"><ellipse cx="578.0916" cy="3901.9963" fill="#F1F1F1" rx="235.6316" ry="49.5263" style="stroke:#181818;stroke-width:0.5;"/><text fill="#000000" font-family="sans-serif" font-size="14" lengthAdjust="spacing" textLength="446.0723" x="355.0555" y="3904.843">Add an entry about family history in the Patient Medical Record</text></g><g id="elem_US7_2_21"><ellipse cx="578.0855" cy="5486.9971" fill="#F1F1F1" rx="247.1355" ry="51.8271" style="stroke:#181818;stroke-width:0.5;"/><text fill="#000000" font-family="sans-serif" font-size="14" lengthAdjust="spacing" textLength="469.4238" x="343.3736" y="5489.8438">Update an entry about family history in the Patient Medical Record</text></g><g id="elem_US7_2_22"><ellipse cx="578.0868" cy="5353.9994" fill="#F1F1F1" rx="219.7968" ry="46.3594" style="stroke:#181818;stroke-width:0.5;"/><text fill="#000000" font-family="sans-serif" font-size="14" lengthAdjust="spacing" textLength="413.8682" x="371.1527" y="5356.846">Add a new entry for free text in the Patient Medical Record</text></g><g id="elem_US7_2_23"><ellipse cx="578.0861" cy="5225.9952" fill="#F1F1F1" rx="219.2261" ry="46.2452" style="stroke:#181818;stroke-width:0.5;"/><text fill="#000000" font-family="sans-serif" font-size="14" lengthAdjust="spacing" textLength="412.7061" x="371.7331" y="5228.8419">Update an entry for free text in the Patient Medical Record</text></g><g id="elem_US7_3_1"><ellipse cx="578.0923" cy="1862.0005" fill="#F1F1F1" rx="275.9523" ry="57.5905" style="stroke:#181818;stroke-width:0.5;"/><text fill="#000000" font-family="sans-serif" font-size="14" lengthAdjust="spacing" textLength="527.7891" x="314.1978" y="1864.8471">Automatic method to assign a set of operations to several operation rooms</text></g><g id="elem_US7_3_2"><ellipse cx="578.0874" cy="1712.9975" fill="#F1F1F1" rx="270.1374" ry="56.4275" style="stroke:#181818;stroke-width:0.5;"/><text fill="#000000" font-family="sans-serif" font-size="14" lengthAdjust="spacing" textLength="516.0244" x="320.0752" y="1715.8442">Schedule surgeries to several operations rooms using Genetic Algorithms</text></g><g id="elem_US7_3_3"><ellipse cx="578.0904" cy="5636.0041" fill="#F1F1F1" rx="299.7704" ry="62.3541" style="stroke:#181818;stroke-width:0.5;"/><text fill="#000000" font-family="sans-serif" font-size="14" lengthAdjust="spacing" textLength="575.9209" x="290.13" y="5638.8508">Study of state of the art of application of Robots and Computer Vision in Hospitals</text></g><g id="elem_US7_4_1"><ellipse cx="578.0934" cy="1585.0047" fill="#F1F1F1" rx="172.1234" ry="36.8247" style="stroke:#181818;stroke-width:0.5;"/><text fill="#000000" font-family="sans-serif" font-size="14" lengthAdjust="spacing" textLength="311.835" x="424.401" y="1587.8514">disaster recovery plan that meets the MBCO</text></g><g id="elem_US7_4_2"><ellipse cx="578.0852" cy="1469.997" fill="#F1F1F1" rx="201.5852" ry="42.717" style="stroke:#181818;stroke-width:0.5;"/><text fill="#000000" font-family="sans-serif" font-size="14" lengthAdjust="spacing" textLength="376.7217" x="389.7243" y="1472.8437">Justification for changes to ensure MTD of 20 minutes</text></g><g id="elem_US7_4_3"><ellipse cx="578.0852" cy="1358.001" fill="#F1F1F1" rx="160.6052" ry="34.521" style="stroke:#181818;stroke-width:0.5;"/><text fill="#000000" font-family="sans-serif" font-size="14" lengthAdjust="spacing" textLength="292.4961" x="431.8371" y="1360.8477">Backup DB to Cloud with renamed format</text></g><g id="elem_US7_4_4"><ellipse cx="578.0859" cy="1251.9992" fill="#F1F1F1" rx="169.7459" ry="36.3492" style="stroke:#181818;stroke-width:0.5;"/><text fill="#000000" font-family="sans-serif" font-size="14" lengthAdjust="spacing" textLength="311.3838" x="422.394" y="1254.8459">Script to manage backup files on a schedule</text></g><g id="elem_US7_4_5"><ellipse cx="578.0906" cy="1145.0041" fill="#F1F1F1" rx="165.4706" ry="35.4941" style="stroke:#181818;stroke-width:0.5;"/><text fill="#000000" font-family="sans-serif" font-size="14" lengthAdjust="spacing" textLength="302.5586" x="426.8113" y="1147.8508">Log DB backup process and alert on failure</text></g><g id="elem_US7_4_6"><ellipse cx="578.0929" cy="1048.0026" fill="#F1F1F1" rx="120.0129" ry="26.4026" style="stroke:#181818;stroke-width:0.5;"/><text fill="#000000" font-family="sans-serif" font-size="14" lengthAdjust="spacing" textLength="207.3818" x="474.402" y="1050.8493">Backup lifetime management</text></g><g id="elem_US7_4_7"><ellipse cx="578.0906" cy="946.0021" fill="#F1F1F1" rx="191.1106" ry="40.6221" style="stroke:#181818;stroke-width:0.5;"/><text fill="#000000" font-family="sans-serif" font-size="14" lengthAdjust="spacing" textLength="355.291" x="400.4451" y="948.8488">Business Impact Analysis (BIA) of the final solution</text></g><g id="elem_US7_4_8"><ellipse cx="578.0943" cy="828.0049" fill="#F1F1F1" rx="200.3743" ry="42.4749" style="stroke:#181818;stroke-width:0.5;"/><text fill="#000000" font-family="sans-serif" font-size="14" lengthAdjust="spacing" textLength="374.2471" x="390.9708" y="830.8515">Implement access management with security criteria</text></g><g id="elem_US7_4_9"><ellipse cx="578.0907" cy="718.9961" fill="#F1F1F1" rx="144.7807" ry="31.3561" style="stroke:#181818;stroke-width:0.5;"/><text fill="#000000" font-family="sans-serif" font-size="14" lengthAdjust="spacing" textLength="259.6016" x="448.29" y="721.8428">Implement clustering system for SPA</text></g><g id="elem_US7_4_10"><ellipse cx="578.0894" cy="621.9959" fill="#F1F1F1" rx="142.7294" ry="30.9459" style="stroke:#181818;stroke-width:0.5;"/><text fill="#000000" font-family="sans-serif" font-size="14" lengthAdjust="spacing" textLength="255.3154" x="450.4317" y="624.8426">SSH access to VM by certificate only</text></g><g id="elem_US7_4_11"><ellipse cx="578.0928" cy="515.9966" fill="#F1F1F1" rx="189.7828" ry="40.3566" style="stroke:#181818;stroke-width:0.5;"/><text fill="#000000" font-family="sans-serif" font-size="14" lengthAdjust="spacing" textLength="352.5703" x="401.8076" y="518.8432">Create public file share in SMB/CIFS or NFS format</text></g><g id="elem_US7_4_12"><ellipse cx="578.0895" cy="406.0039" fill="#F1F1F1" rx="161.5695" ry="34.7139" style="stroke:#181818;stroke-width:0.5;"/><text fill="#000000" font-family="sans-serif" font-size="14" lengthAdjust="spacing" textLength="294.4922" x="430.8434" y="408.8506">Automate backup recovery and validation</text></g><g id="elem_US7_5_1"><ellipse cx="578.0943" cy="2989.9969" fill="#F1F1F1" rx="296.9843" ry="61.7969" style="stroke:#181818;stroke-width:0.5;"/><text fill="#000000" font-family="sans-serif" font-size="14" lengthAdjust="spacing" textLength="570.2949" x="292.9468" y="2992.8435">Select a room by left clicking on the corresponding surgical table (object picking)</text></g><g id="elem_US7_5_2"><ellipse cx="578.0923" cy="3435.9965" fill="#F1F1F1" rx="376.7823" ry="77.7565" style="stroke:#181818;stroke-width:0.5;"/><text fill="#000000" font-family="sans-serif" font-size="14" lengthAdjust="spacing" textLength="731.1104" x="212.5371" y="3438.8431">Display/hide an overlay containing updated information about the selected room when 'i' key is pressed</text></g><g id="elem_US7_5_4"><ellipse cx="578.0864" cy="3267.0033" fill="#F1F1F1" rx="270.3164" ry="56.4633" style="stroke:#181818;stroke-width:0.5;"/><text fill="#000000" font-family="sans-serif" font-size="14" lengthAdjust="spacing" textLength="516.3867" x="319.893" y="3269.85">Smooth camera and spotlight movement when selecting a different room</text></g><g id="elem_US7_6_1"><ellipse cx="578.0927" cy="2611.0005" fill="#F1F1F1" rx="217.2527" ry="45.8505" style="stroke:#181818;stroke-width:0.5;"/><text fill="#000000" font-family="sans-serif" font-size="14" lengthAdjust="spacing" textLength="408.6865" x="373.7494" y="2613.8472">Download medical history in a portable and secure format</text></g><g id="elem_US7_6_2"><ellipse cx="578.0859" cy="2491.9952" fill="#F1F1F1" rx="177.4759" ry="37.8952" style="stroke:#181818;stroke-width:0.5;"/><text fill="#000000" font-family="sans-serif" font-size="14" lengthAdjust="spacing" textLength="327.3047" x="414.4336" y="2494.8419">Request deletion of personal data under GDPR</text></g><g id="elem_US7_6_3"><ellipse cx="578.0903" cy="2845.0021" fill="#F1F1F1" rx="227.2103" ry="47.8421" style="stroke:#181818;stroke-width:0.5;"/><text fill="#000000" font-family="sans-serif" font-size="14" lengthAdjust="spacing" textLength="428.9551" x="363.6128" y="2847.8487">Know what data will be processed and how to exercise rights</text></g><g id="elem_US7_6_4"><ellipse cx="578.086" cy="2726.9992" fill="#F1F1F1" rx="165.196" ry="35.4392" style="stroke:#181818;stroke-width:0.5;"/><text fill="#000000" font-family="sans-serif" font-size="14" lengthAdjust="spacing" textLength="301.9912" x="427.0904" y="2729.8459">Know the retention period of personal data</text></g><!--entity AD--><g id="elem_AD"><ellipse cx="70.9021" cy="1222.35" fill="#FFFFFF" rx="8" ry="8" style="stroke:#FF0000;stroke-width:2;"/><path d="M70.9021,1230.35 L70.9021,1257.35 M57.9021,1238.35 L83.9021,1238.35 M70.9021,1257.35 L57.9021,1272.35 M70.9021,1257.35 L83.9021,1272.35 " fill="none" style="stroke:#FF0000;stroke-width:2;"/><text fill="#000000" font-family="sans-serif" font-size="14" lengthAdjust="spacing" textLength="44.8643" x="48.47" y="1288.3451">Admin</text></g><!--entity PA--><g id="elem_PA"><ellipse cx="70.898" cy="2639.35" fill="#FFFFFF" rx="8" ry="8" style="stroke:#0000FF;stroke-width:2;"/><path d="M70.898,2647.35 L70.898,2674.35 M57.898,2655.35 L83.898,2655.35 M70.898,2674.35 L57.898,2689.35 M70.898,2674.35 L83.898,2689.35 " fill="none" style="stroke:#0000FF;stroke-width:2;"/><text fill="#000000" font-family="sans-serif" font-size="14" lengthAdjust="spacing" textLength="49.376" x="46.21" y="2705.3451">Patient</text></g><!--entity ST--><g id="elem_ST"><ellipse cx="70.8963" cy="3169.35" fill="#FFFFFF" rx="8" ry="8" style="stroke:#008000;stroke-width:2;"/><path d="M70.8963,3177.35 L70.8963,3204.35 M57.8963,3185.35 L83.8963,3185.35 M70.8963,3204.35 L57.8963,3219.35 M70.8963,3204.35 L83.8963,3219.35 " fill="none" style="stroke:#008000;stroke-width:2;"/><text fill="#000000" font-family="sans-serif" font-size="14" lengthAdjust="spacing" textLength="32.8125" x="54.49" y="3235.3451">Staff</text></g><!--entity BU--><g id="elem_BU"><ellipse cx="70.8958" cy="3585.35" fill="#FFFFFF" rx="8" ry="8" style="stroke:#800080;stroke-width:2;"/><path d="M70.8958,3593.35 L70.8958,3620.35 M57.8958,3601.35 L83.8958,3601.35 M70.8958,3620.35 L57.8958,3635.35 M70.8958,3620.35 L83.8958,3635.35 " fill="none" style="stroke:#800080;stroke-width:2;"/><text fill="#000000" font-family="sans-serif" font-size="14" lengthAdjust="spacing" textLength="108.9717" x="16.41" y="3651.3451">Backoffice User</text></g><!--entity SA--><g id="elem_SA"><ellipse cx="70.9004" cy="3740.35" fill="#FFFFFF" rx="8" ry="8" style="stroke:#FFA500;stroke-width:2;"/><path d="M70.9004,3748.35 L70.9004,3775.35 M57.9004,3756.35 L83.9004,3756.35 M70.9004,3775.35 L57.9004,3790.35 M70.9004,3775.35 L83.9004,3790.35 " fill="none" style="stroke:#FFA500;stroke-width:2;"/><text fill="#000000" font-family="sans-serif" font-size="14" lengthAdjust="spacing" textLength="129.8008" x="6" y="3806.3451">Software Architect</text></g><!--entity DO--><g id="elem_DO"><ellipse cx="70.8968" cy="4653.35" fill="#FFFFFF" rx="8" ry="8" style="stroke:#FFFF00;stroke-width:2;"/><path d="M70.8968,4661.35 L70.8968,4688.35 M57.8968,4669.35 L83.8968,4669.35 M70.8968,4688.35 L57.8968,4703.35 M70.8968,4688.35 L83.8968,4703.35 " fill="none" style="stroke:#FFFF00;stroke-width:2;"/><text fill="#000000" font-family="sans-serif" font-size="14" lengthAdjust="spacing" textLength="46.8535" x="47.47" y="4719.3451">Doctor</text></g><!--entity HM--><g id="elem_HM"><ellipse cx="70.8988" cy="5606.35" fill="#FFFFFF" rx="8" ry="8" style="stroke:#A52A2A;stroke-width:2;"/><path d="M70.8988,5614.35 L70.8988,5641.35 M57.8988,5622.35 L83.8988,5622.35 M70.8988,5641.35 L57.8988,5656.35 M70.8988,5641.35 L83.8988,5656.35 " fill="none" style="stroke:#A52A2A;stroke-width:2;"/><text fill="#000000" font-family="sans-serif" font-size="14" lengthAdjust="spacing" textLength="122.9375" x="9.43" y="5672.3451">Hospital Manager</text></g><!--entity CU--><g id="elem_CU"><ellipse cx="70.902" cy="5743.35" fill="#FFFFFF" rx="8" ry="8" style="stroke:#000000;stroke-width:2;"/><path d="M70.902,5751.35 L70.902,5778.35 M57.902,5759.35 L83.902,5759.35 M70.902,5778.35 L57.902,5793.35 M70.902,5778.35 L83.902,5793.35 " fill="none" style="stroke:#000000;stroke-width:2;"/><text fill="#000000" font-family="sans-serif" font-size="14" lengthAdjust="spacing" textLength="68.0039" x="36.9" y="5809.3451">Customer</text></g><!--link PA to US7_6_1--><g id="link_PA_US7_6_1"><path d="M95.93,2666.24 C148.04,2660.26 269.7191,2646.2842 380.4491,2633.5742 " fill="none" id="PA-to-US7_6_1" style="stroke:#181818;stroke-width:1;"/><polygon fill="#181818" points="386.41,2632.89,377.0126,2629.9424,381.4426,2633.4602,377.9248,2637.8902,386.41,2632.89" style="stroke:#181818;stroke-width:1;"/></g><!--link PA to US7_6_2--><g id="link_PA_US7_6_2"><path d="M93.96,2629.02 C111.36,2601.52 138.26,2566.72 171.8,2548 C240.81,2509.49 320.3953,2494.3086 395.0953,2488.9586 " fill="none" id="PA-to-US7_6_2" style="stroke:#181818;stroke-width:1;"/><polygon fill="#181818" points="401.08,2488.53,391.8172,2485.1832,396.0928,2488.8872,392.3887,2493.1627,401.08,2488.53" style="stroke:#181818;stroke-width:1;"/></g><!--link PA to US7_6_3--><g id="link_PA_US7_6_3"><path d="M95.98,2707.11 C113.8,2731.98 140.38,2762.89 171.8,2780 C226.96,2810.03 286.2391,2826.1721 348.0391,2835.6321 " fill="none" id="PA-to-US7_6_3" style="stroke:#181818;stroke-width:1;"/><polygon fill="#181818" points="353.97,2836.54,345.6789,2831.2242,349.0276,2835.7834,344.4684,2839.1321,353.97,2836.54" style="stroke:#181818;stroke-width:1;"/></g><!--link PA to US7_6_4--><g id="link_PA_US7_6_4"><path d="M95.93,2671.76 C155.34,2678.58 306.9892,2695.9854 425.7592,2709.6254 " fill="none" id="PA-to-US7_6_4" style="stroke:#181818;stroke-width:1;"/><polygon fill="#181818" points="431.72,2710.31,423.2351,2705.3093,426.7527,2709.7395,422.3224,2713.257,431.72,2710.31" style="stroke:#181818;stroke-width:1;"/></g><!--link BU to US7_1_1--><g id="link_BU_US7_1_1"><path d="M125.49,3610.76 C206.49,3604.34 355.8887,3592.5134 461.5087,3584.1534 " fill="none" id="BU-to-US7_1_1" style="stroke:#181818;stroke-width:1;"/><polygon fill="#181818" points="467.49,3583.68,458.2024,3580.4026,462.5056,3584.0745,458.8337,3588.3777,467.49,3583.68" style="stroke:#181818;stroke-width:1;"/></g><!--link BU to US7_1_2--><g id="link_BU_US7_1_2"><path d="M125.49,3619.99 C206.75,3627.55 356.8658,3641.5141 462.5058,3651.3441 " fill="none" id="BU-to-US7_1_2" style="stroke:#181818;stroke-width:1;"/><polygon fill="#181818" points="468.48,3651.9,459.8893,3647.0833,463.5015,3651.4367,459.1481,3655.0489,468.48,3651.9" style="stroke:#181818;stroke-width:1;"/></g><!--link ST to US7_1_3--><g id="link_ST_US7_1_3"><path d="M87.57,3196.89 C134.96,3190.51 274.8836,3171.6805 395.1536,3155.4905 " fill="none" id="ST-to-US7_1_3" style="stroke:#181818;stroke-width:1;"/><polygon fill="#181818" points="401.1,3154.69,391.6468,3151.9265,396.1447,3155.3571,392.7141,3159.8549,401.1,3154.69" style="stroke:#181818;stroke-width:1;"/></g><!--link AD to US7_1_4--><g id="link_AD_US7_1_4"><path d="M73.48,1211.96 C80.42,1045.76 110.61,415.93 171.8,354 C246.05,278.86 365.2005,273.6459 456.8105,282.9159 " fill="none" id="AD-to-US7_1_4" style="stroke:#181818;stroke-width:1;"/><polygon fill="#181818" points="462.78,283.52,454.2284,278.6342,457.8054,283.0166,453.423,286.5936,462.78,283.52" style="stroke:#181818;stroke-width:1;"/></g><!--link CU to US7_1_5--><g id="link_CU_US7_1_5"><path d="M105.05,5773 C163.05,5773 280.93,5773 387.22,5773 " fill="none" id="CU-to-US7_1_5" style="stroke:#181818;stroke-width:1;"/><polygon fill="#181818" points="393.22,5773,384.22,5769,388.22,5773,384.22,5777,393.22,5773" style="stroke:#181818;stroke-width:1;"/></g><!--link SA to US7_2_1--><g id="link_SA_US7_2_1"><path d="M136.14,3770 C191.42,3770 268.56,3770 347.8,3770 " fill="none" id="SA-to-US7_2_1" style="stroke:#181818;stroke-width:1;"/><polygon fill="#181818" points="353.8,3770,344.8,3766,348.8,3770,344.8,3774,353.8,3770" style="stroke:#181818;stroke-width:1;"/></g><!--link AD to US7_2_2--><g id="link_AD_US7_2_2"><path d="M73.02,1212.1 C78.37,1034.8 103.94,323.95 171.8,254 C239.87,183.84 346.0424,173.4549 435.1424,179.1849 " fill="none" id="AD-to-US7_2_2" style="stroke:#181818;stroke-width:1;"/><polygon fill="#181818" points="441.13,179.57,432.4053,175.0007,436.1403,179.2491,431.8918,182.9842,441.13,179.57" style="stroke:#181818;stroke-width:1;"/></g><!--link DO to US7_2_3--><g id="link_DO_US7_2_3"><path d="M76.79,4723.05 C88.4,4811.09 120.55,5017.24 171.8,5062 C247.49,5128.11 357.633,5136.734 446.213,5130.904 " fill="none" id="DO-to-US7_2_3" style="stroke:#181818;stroke-width:1;"/><polygon fill="#181818" points="452.2,5130.51,442.9567,5127.1097,447.2108,5130.8384,443.4821,5135.0924,452.2,5130.51" style="stroke:#181818;stroke-width:1;"/></g><!--link AD to US7_2_4--><g id="link_AD_US7_2_4"><path d="M72.65,1212.05 C76.54,1023.21 97.32,226.03 171.8,147 C227.25,88.16 307.3231,69.7323 385.9131,67.2123 " fill="none" id="AD-to-US7_2_4" style="stroke:#181818;stroke-width:1;"/><polygon fill="#181818" points="391.91,67.02,382.7864,63.3105,386.9126,67.1802,383.0428,71.3064,391.91,67.02" style="stroke:#181818;stroke-width:1;"/></g><!--link DO to US7_2_5--><g id="link_DO_US7_2_5"><path d="M74.71,4722.95 C81.15,4781.97 102.33,4891.46 171.8,4947 C235.21,4997.69 316.7547,5014.2533 394.2447,5017.3133 " fill="none" id="DO-to-US7_2_5" style="stroke:#181818;stroke-width:1;"/><polygon fill="#181818" points="400.24,5017.55,391.4048,5013.198,395.2439,5017.3527,391.0892,5021.1918,400.24,5017.55" style="stroke:#181818;stroke-width:1;"/></g><!--link DO to US7_2_6--><g id="link_DO_US7_2_6"><path d="M94.55,4712.32 C112.99,4734.1 140.94,4762.74 171.8,4779 C212.73,4800.56 252.8927,4815.0815 298.7827,4827.0015 " fill="none" id="DO-to-US7_2_6" style="stroke:#181818;stroke-width:1;"/><polygon fill="#181818" points="304.59,4828.51,296.8847,4822.3758,299.7506,4827.253,294.8734,4830.1188,304.59,4828.51" style="stroke:#181818;stroke-width:1;"/></g><!--link DO to US7_2_7--><g id="link_DO_US7_2_7"><path d="M94.65,4653.86 C113.14,4632.18 141.12,4603.58 171.8,4587 C207.76,4567.56 241.8965,4553.9055 282.2065,4541.7255 " fill="none" id="DO-to-US7_2_7" style="stroke:#181818;stroke-width:1;"/><polygon fill="#181818" points="287.95,4539.99,278.1777,4538.7642,283.1637,4541.4362,280.4917,4546.4222,287.95,4539.99" style="stroke:#181818;stroke-width:1;"/></g><!--link DO to US7_2_8--><g id="link_DO_US7_2_8"><path d="M73.36,4642.95 C77.98,4580.36 96.74,4460.37 171.8,4401 C258.4,4332.5 383.9827,4330.5244 473.5527,4339.9144 " fill="none" id="DO-to-US7_2_8" style="stroke:#181818;stroke-width:1;"/><polygon fill="#181818" points="479.52,4340.54,470.9861,4335.6234,474.5473,4340.0187,470.152,4343.5798,479.52,4340.54" style="stroke:#181818;stroke-width:1;"/></g><!--link DO to US7_2_9--><g id="link_DO_US7_2_9"><path d="M77.03,4642.88 C88.97,4556.27 121.48,4356.15 171.8,4313 C256.31,4240.53 383.9597,4239.4212 474.4697,4249.8812 " fill="none" id="DO-to-US7_2_9" style="stroke:#181818;stroke-width:1;"/><polygon fill="#181818" points="480.43,4250.57,471.9487,4245.5632,475.4631,4249.996,471.0303,4253.5103,480.43,4250.57" style="stroke:#181818;stroke-width:1;"/></g><!--link AD to US7_2_10--><g id="link_AD_US7_2_10"><path d="M72.55,1292.11 C76.01,1481.68 95.11,2281.85 171.8,2359 C261.13,2448.86 418.1896,2433.1922 507.8596,2415.0122 " fill="none" id="AD-to-US7_2_10" style="stroke:#181818;stroke-width:1;"/><polygon fill="#181818" points="513.74,2413.82,504.1247,2411.6881,508.8397,2414.8135,505.7143,2419.5285,513.74,2413.82" style="stroke:#181818;stroke-width:1;"/></g><!--link AD to US7_2_11--><g id="link_AD_US7_2_11"><path d="M72.86,1292.11 C77.59,1472.87 101.05,2205.99 171.8,2277 C258.28,2363.8 407.4288,2352.9744 498.6388,2336.2144 " fill="none" id="AD-to-US7_2_11" style="stroke:#181818;stroke-width:1;"/><polygon fill="#181818" points="504.54,2335.13,494.9653,2332.8224,499.6223,2336.0336,496.4111,2340.6907,504.54,2335.13" style="stroke:#181818;stroke-width:1;"/></g><!--link AD to US7_2_13--><g id="link_AD_US7_2_13"><path d="M73.2,1291.87 C79.15,1463.44 106.47,2133.12 171.8,2198 C260.6,2286.19 414.4591,2272.689 504.6091,2255.259 " fill="none" id="AD-to-US7_2_13" style="stroke:#181818;stroke-width:1;"/><polygon fill="#181818" points="510.5,2254.12,500.9043,2251.9012,505.5909,2255.0691,502.423,2259.7557,510.5,2254.12" style="stroke:#181818;stroke-width:1;"/></g><!--link DO to US7_2_14--><g id="link_DO_US7_2_14"><path d="M94.59,4683 C116.48,4683 146.54,4683 189.38,4683 " fill="none" id="DO-to-US7_2_14" style="stroke:#181818;stroke-width:1;"/><polygon fill="#181818" points="195.38,4683,186.38,4679,190.38,4683,186.38,4687,195.38,4683" style="stroke:#181818;stroke-width:1;"/></g><!--link AD to US7_2_15--><g id="link_AD_US7_2_15"><path d="M73.78,1292.04 C81.68,1451.85 114.4,2038.18 171.8,2096 C243.87,2168.6 357.4218,2176.0912 448.0518,2168.3412 " fill="none" id="AD-to-US7_2_15" style="stroke:#181818;stroke-width:1;"/><polygon fill="#181818" points="454.03,2167.83,444.7219,2164.6114,449.0482,2168.256,445.4035,2172.5823,454.03,2167.83" style="stroke:#181818;stroke-width:1;"/></g><!--link AD to US7_2_16--><g id="link_AD_US7_2_16"><path d="M74.19,1291.94 C83.21,1442.76 118.45,1971.75 171.8,2023 C265.67,2113.16 428.4953,2093.4572 515.6853,2074.6172 " fill="none" id="AD-to-US7_2_16" style="stroke:#181818;stroke-width:1;"/><polygon fill="#181818" points="521.55,2073.35,511.9082,2071.3411,516.6628,2074.406,513.5978,2079.1606,521.55,2073.35" style="stroke:#181818;stroke-width:1;"/></g><!--link AD to US7_2_17--><g id="link_AD_US7_2_17"><path d="M71.6,1291.73 C71.49,1424.18 78.57,1847.35 171.8,1937 C257.23,2019.15 398.4551,2013.1565 489.9751,1998.5365 " fill="none" id="AD-to-US7_2_17" style="stroke:#181818;stroke-width:1;"/><polygon fill="#181818" points="495.9,1997.59,486.3817,1995.0598,490.9626,1998.3787,487.6437,2002.9596,495.9,1997.59" style="stroke:#181818;stroke-width:1;"/></g><!--link DO to US7_2_18--><g id="link_DO_US7_2_18"><path d="M74.87,4643.06 C83.23,4542.05 110.47,4280.36 171.8,4223 C229.47,4169.07 307.3266,4150.9113 383.8166,4147.3213 " fill="none" id="DO-to-US7_2_18" style="stroke:#181818;stroke-width:1;"/><polygon fill="#181818" points="389.81,4147.04,380.6324,4143.4663,384.8155,4147.2744,381.0074,4151.4575,389.81,4147.04" style="stroke:#181818;stroke-width:1;"/></g><!--link DO to US7_2_19--><g id="link_DO_US7_2_19"><path d="M72.97,4643 C77,4524.54 95.23,4179.06 171.8,4103 C217.97,4057.14 276.7769,4036.2846 340.9969,4027.3746 " fill="none" id="DO-to-US7_2_19" style="stroke:#181818;stroke-width:1;"/><polygon fill="#181818" points="346.94,4026.55,337.4757,4023.8248,341.9874,4027.2371,338.5751,4031.7489,346.94,4026.55" style="stroke:#181818;stroke-width:1;"/></g><!--link DO to US7_2_20--><g id="link_DO_US7_2_20"><path d="M71.54,4643.24 C71.18,4507.55 77.41,4065.76 171.8,3969 C217.55,3922.1 276.7243,3901.0351 341.4143,3892.2751 " fill="none" id="DO-to-US7_2_20" style="stroke:#181818;stroke-width:1;"/><polygon fill="#181818" points="347.36,3891.47,337.9046,3888.7139,342.4052,3892.141,338.9782,3896.6415,347.36,3891.47" style="stroke:#181818;stroke-width:1;"/></g><!--link DO to US7_2_21--><g id="link_DO_US7_2_21"><path d="M71.38,4722.94 C70.45,4861.39 74.9,5317.79 171.8,5418 C214.04,5461.68 267.086,5482.9278 326.976,5493.1778 " fill="none" id="DO-to-US7_2_21" style="stroke:#181818;stroke-width:1;"/><polygon fill="#181818" points="332.89,5494.19,324.6938,5488.7291,327.9617,5493.3465,323.3442,5496.6144,332.89,5494.19" style="stroke:#181818;stroke-width:1;"/></g><!--link DO to US7_2_22--><g id="link_DO_US7_2_22"><path d="M72.61,4723.13 C75.65,4845.44 91.4,5210.12 171.8,5290 C222.9,5340.77 290.9044,5360.8798 361.6944,5367.2798 " fill="none" id="DO-to-US7_2_22" style="stroke:#181818;stroke-width:1;"/><polygon fill="#181818" points="367.67,5367.82,359.0667,5363.0259,362.6903,5367.3698,358.3464,5370.9934,367.67,5367.82" style="stroke:#181818;stroke-width:1;"/></g><!--link DO to US7_2_23--><g id="link_DO_US7_2_23"><path d="M74.54,4723.02 C82.23,4826.94 108.28,5101.52 171.8,5162 C223.33,5211.06 290.368,5231.0006 360.248,5237.7806 " fill="none" id="DO-to-US7_2_23" style="stroke:#181818;stroke-width:1;"/><polygon fill="#181818" points="366.22,5238.36,357.6483,5233.5096,361.2434,5237.8771,356.8758,5241.4722,366.22,5238.36" style="stroke:#181818;stroke-width:1;"/></g><!--link AD to US7_3_1--><g id="link_AD_US7_3_1"><path d="M73.68,1292.02 C79.5,1404.05 101.84,1717.15 171.8,1787 C207.38,1822.52 248.1445,1842.6747 296.9945,1855.4247 " fill="none" id="AD-to-US7_3_1" style="stroke:#181818;stroke-width:1;"/><polygon fill="#181818" points="302.8,1856.94,295.1019,1850.7968,297.9621,1855.6773,293.0816,1858.5375,302.8,1856.94" style="stroke:#181818;stroke-width:1;"/></g><!--link AD to US7_3_2--><g id="link_AD_US7_3_2"><path d="M76.77,1292 C88.44,1381.07 120.87,1591.61 171.8,1639 C209.57,1674.14 252.4021,1693.9334 302.8121,1706.2734 " fill="none" id="AD-to-US7_3_2" style="stroke:#181818;stroke-width:1;"/><polygon fill="#181818" points="308.64,1707.7,300.8492,1701.6748,303.7834,1706.5111,298.947,1709.4453,308.64,1707.7" style="stroke:#181818;stroke-width:1;"/></g><!--link HM to US7_3_3--><g id="link_HM_US7_3_3"><path d="M132.84,5636 C170.83,5636 216.84,5636 271.92,5636 " fill="none" id="HM-to-US7_3_3" style="stroke:#181818;stroke-width:1;"/><polygon fill="#181818" points="277.92,5636,268.92,5632,272.92,5636,268.92,5640,277.92,5636" style="stroke:#181818;stroke-width:1;"/></g><!--link AD to US7_4_1--><g id="link_AD_US7_4_1"><path d="M73.8,1292.02 C79.04,1353.63 98.64,1470.8 171.8,1530 C240.66,1585.72 332.65,1600.1854 415.03,1600.3854 " fill="none" id="AD-to-US7_4_1" style="stroke:#181818;stroke-width:1;"/><polygon fill="#181818" points="421.03,1600.4,412.0397,1596.3782,416.03,1600.3879,412.0203,1604.3781,421.03,1600.4" style="stroke:#181818;stroke-width:1;"/></g><!--link AD to US7_4_2--><g id="link_AD_US7_4_2"><path d="M86.01,1292.14 C101.2,1329.08 129.1,1382.21 171.8,1410 C231.86,1449.09 301.4501,1466.1101 371.0101,1473.1001 " fill="none" id="AD-to-US7_4_2" style="stroke:#181818;stroke-width:1;"/><polygon fill="#181818" points="376.98,1473.7,368.425,1468.8202,372.0051,1473.2001,367.6252,1476.7801,376.98,1473.7" style="stroke:#181818;stroke-width:1;"/></g><!--link AD to US7_4_3--><g id="link_AD_US7_4_3"><path d="M93.46,1266.7 C113.01,1279.27 143.09,1296.75 171.8,1306 C251.48,1331.66 337.8324,1344.192 414.2324,1350.812 " fill="none" id="AD-to-US7_4_3" style="stroke:#181818;stroke-width:1;"/><polygon fill="#181818" points="420.21,1351.33,411.5889,1346.568,415.2287,1350.8984,410.8983,1354.5381,420.21,1351.33" style="stroke:#181818;stroke-width:1;"/></g><!--link AD to US7_4_4--><g id="link_AD_US7_4_4"><path d="M93.61,1252 C147.43,1252 285.14,1252 401.99,1252 " fill="none" id="AD-to-US7_4_4" style="stroke:#181818;stroke-width:1;"/><polygon fill="#181818" points="407.99,1252,398.99,1248,402.99,1252,398.99,1256,407.99,1252" style="stroke:#181818;stroke-width:1;"/></g><!--link AD to US7_4_5--><g id="link_AD_US7_4_5"><path d="M93.46,1237.32 C113.02,1224.76 143.1,1207.28 171.8,1198 C249.95,1172.72 334.3152,1160.019 409.8452,1153.079 " fill="none" id="AD-to-US7_4_5" style="stroke:#181818;stroke-width:1;"/><polygon fill="#181818" points="415.82,1152.53,406.4918,1149.3703,410.841,1152.9875,407.2237,1157.3367,415.82,1152.53" style="stroke:#181818;stroke-width:1;"/></g><!--link AD to US7_4_6--><g id="link_AD_US7_4_6"><path d="M85.2,1212.06 C100.02,1174.35 127.83,1119.59 171.8,1092 C261.58,1035.67 379.0205,1029.8254 466.0105,1034.9754 " fill="none" id="AD-to-US7_4_6" style="stroke:#181818;stroke-width:1;"/><polygon fill="#181818" points="472,1035.33,463.2521,1030.8051,467.0087,1035.0345,462.7793,1038.7911,472,1035.33" style="stroke:#181818;stroke-width:1;"/></g><!--link AD to US7_4_7--><g id="link_AD_US7_4_7"><path d="M75.83,1212.1 C83.63,1156.09 106.42,1055.27 171.8,1004 C234.17,955.1 313.0981,938.1022 389.0981,934.1422 " fill="none" id="AD-to-US7_4_7" style="stroke:#181818;stroke-width:1;"/><polygon fill="#181818" points="395.09,933.83,385.8941,930.3037,390.0968,934.0902,386.3103,938.2929,395.09,933.83" style="stroke:#181818;stroke-width:1;"/></g><!--link AD to US7_4_8--><g id="link_AD_US7_4_8"><path d="M77.34,1212.01 C89.78,1126.71 123.06,931.18 171.8,888 C230.3,836.18 307.2588,818.1056 382.8788,813.9956 " fill="none" id="AD-to-US7_4_8" style="stroke:#181818;stroke-width:1;"/><polygon fill="#181818" points="388.87,813.67,379.6662,810.1643,383.8774,813.9414,380.1003,818.1525,388.87,813.67" style="stroke:#181818;stroke-width:1;"/></g><!--link AD to US7_4_9--><g id="link_AD_US7_4_9"><path d="M74.3,1212.2 C81.47,1107.47 106.45,828.13 171.8,768 C248.86,697.1 366.0041,691.1829 456.3441,699.3029 " fill="none" id="AD-to-US7_4_9" style="stroke:#181818;stroke-width:1;"/><polygon fill="#181818" points="462.32,699.84,453.7142,695.0504,457.3401,699.3924,452.998,703.0182,462.32,699.84" style="stroke:#181818;stroke-width:1;"/></g><!--link AD to US7_4_10--><g id="link_AD_US7_4_10"><path d="M72.78,1212.12 C76.28,1093.2 93.17,744.64 171.8,670 C249.14,596.59 369.6519,592.2824 460.7719,601.7124 " fill="none" id="AD-to-US7_4_10" style="stroke:#181818;stroke-width:1;"/><polygon fill="#181818" points="466.74,602.33,458.1996,597.4248,461.7666,601.8153,457.3761,605.3823,466.74,602.33" style="stroke:#181818;stroke-width:1;"/></g><!--link AD to US7_4_11--><g id="link_AD_US7_4_11"><path d="M71.79,1211.88 C72.33,1080.16 81.28,664.15 171.8,574 C233.18,512.87 321.98,496.8044 404.46,496.7444 " fill="none" id="AD-to-US7_4_11" style="stroke:#181818;stroke-width:1;"/><polygon fill="#181818" points="410.46,496.74,401.46,492.74,405.46,496.74,401.46,500.74,410.46,496.74" style="stroke:#181818;stroke-width:1;"/></g><!--link AD to US7_4_12--><g id="link_AD_US7_4_12"><path d="M74.1,1212 C82.92,1058.36 117.9,512.04 171.8,458 C242.32,387.31 351.8258,378.195 441.5158,384.715 " fill="none" id="AD-to-US7_4_12" style="stroke:#181818;stroke-width:1;"/><polygon fill="#181818" points="447.5,385.15,438.8137,380.508,442.5132,384.7875,438.2337,388.4869,447.5,385.15" style="stroke:#181818;stroke-width:1;"/></g><!--link ST to US7_5_1--><g id="link_ST_US7_5_1"><path d="M87.8,3166.84 C104.47,3136.64 133.56,3092.66 171.8,3069 C212.11,3044.06 252.8271,3028.2167 299.6671,3016.2367 " fill="none" id="ST-to-US7_5_1" style="stroke:#181818;stroke-width:1;"/><polygon fill="#181818" points="305.48,3014.75,295.7695,3013.1048,300.6359,3015.9889,297.7518,3020.8553,305.48,3014.75" style="stroke:#181818;stroke-width:1;"/></g><!--link ST to US7_5_2--><g id="link_ST_US7_5_2"><path d="M87.73,3234.71 C104.08,3267.41 132.71,3314.6 171.8,3341 C202.2,3361.53 230.8201,3375.6306 266.2401,3388.2906 " fill="none" id="ST-to-US7_5_2" style="stroke:#181818;stroke-width:1;"/><polygon fill="#181818" points="271.89,3390.31,264.7614,3383.5142,267.1817,3388.6271,262.0688,3391.0475,271.89,3390.31" style="stroke:#181818;stroke-width:1;"/></g><!--link ST to US7_5_4--><g id="link_ST_US7_5_4"><path d="M87.57,3201.11 C128.38,3206.6 236.2736,3221.1301 343.9136,3235.6101 " fill="none" id="ST-to-US7_5_4" style="stroke:#181818;stroke-width:1;"/><polygon fill="#181818" points="349.86,3236.41,341.4736,3231.2458,344.9046,3235.7434,340.4071,3239.1744,349.86,3236.41" style="stroke:#181818;stroke-width:1;"/></g><!--SRC=[jLVRSjis47tNLs3IXoGpJMFTR2UPwOmkRUssQZocbTSCH2ubD2310g0LjTD_xov8oY18sKcdzOkb5VRWO76m5mcfPLOnBROxonAX8RP2vOC1ZwtIxDaioKJ-Z773PalspNudBBoJ8eUt6XBtuRkDaiax2v_jsutayQV6yOPR0RbrhZUpbkj6bl2eRsHvcZhFwAxbkTK0-QEkS_oiqbJ4mDO6j0EPhriWHQaB-GG1bTezry1cEYR7k3f7r3w7qZpVFWwqLFJVEI_VjvmF8ANQF-fyfKmXB9TinNE-hGzpjMh7Kglzun5PbCQghFPUh8ERm8NzteC1IG4FA8551sCX-sl0yAyq47C3xDbrRc6hkOM4hQzPYbjnALccabA2SPkjeukFmu_3jjkjal1gWnyJnej2YfYJtbW6UUavZTfEqI6FsNZ9xeKfkHH_LZvxONSiuPOJ7DDAPSyD4pbIoTm23s_SWrT8dkSYtzQSAxZDKJ-UzoJmvdX2nlE4tG7A8ySpI5PeCAZtYfbAcTq1CqgM0P7fe8qrIrHX6MS9nEYjwN0KcKPs9Mgm1djWLXC-eex26CyIX60vxDbCIj3R0qi5o0HZuv2AwcaYPPMA5auOTY0YxcuRe2SXngUeh21nWLgeF14kIbz8QdAIL1VoIR1f6snTe7x0-TG9wmXw2x7IoRSivnd80yFhBIWtebuwsrPYg48aFF6FFfwVv4wtZMiRnl_BxXVjtHSQwB2SHQN6T7AW1wX4RhCcJrTUbxqXUihhpQbxftV9xA5ewVNirEe8ZocEJznt6VRICgtr_k67up1VnR9CghlcSGp6D2-hF_OiAJN5kqTFGHwYy6SkHGSn6GRI_LKO-xhMWFEwXKpTGt3erY7wzShpva7wQyzFN5n7CRxJnHCRi1zGg8V7PUhZNNufYQy5xXDOxfuHIdAZIijIdWbyApkCileAvD7PgH3y5-0dKtC5JgaWnQw6KUdzSjJHuvJ_9UeuB4ubTWxe5MDvjZkLKAF8ZH5Rr3mpOEa1gG9q9LlwrS0zVfKFLlVy7nGz3ajL5E_0LL_ZiWjbn3uOK-6W7pt9do07OZMJMwMnQhSs26kOBPC34JMMGbG_UQuTURy3mQ-tQgDibKuNAYjA2vfz4AOkB4qxvcyMHWmxQCCD-M7tX4yRxuBQ3DoJMmmY83fjlveltXzH9c5CViQEJQGDBxhBU4UTfWiDv8QQWjNTaXYFpXZsvqZKU7111AWbBWksd9FxGgeogLeT3LHS4bRrIvv_s2p5MXHkIAYIdEj4490o8UPGfuNw5ZsGCFMfBJ6eNJ6FkWHCaSPcYYu33yg5nADv6DFUWqYHukrdq9Tp9s75dPDYQAlhhC26cCroBWz66FPYVZrxsSWX5MZkjckJi88YY7GRDXNaWK8LKro8LSCU6COCLI2uXtLv2Wlh4ac6b6rSf-tkFBgPUSv1zekYguO2tik75TlWbXZ7IZOeyrmUV86TzNO2HRb1-RkBP6P7ymxAF5hDNo-kVumOSlWD_tNa4LRYEaiSTN5KFjtkFPQrX0TH7Ou6OLyaiRj18Rbc0SyYQIoDaTmdYegg4XYcA-g3g81Gg31Xk3o6_J_oVw4slnD6KVcyF6ut3P_NKXXyauVNEv6ub4bayJl2O_ikt4HGkdoQ-CD4NGPSM-_Oui-ExNu7ENikdhDFW6N1k440fnjl_p0ZPKgXL69yV9gx8E6Ph7G3EBK3bPe8jTg82E608D8KDFr4ktheao2MInm8fUBOajHvtYjPd1LAL_5o-v9Q8RpXyyx81d-KO2pEA1AQL8c9sIXwD3H_iJ9FCENzjBovzL22O_-IgpqU2_EWSzaBd1OtqAG26dgGqGxNK9Bx33eMDDHHL8m7Eku1fJlHO34sH0wP2InL8KSFeuxOpOozUlLzwyWjqwXh6dTD2EQCy_NHsCoyBLE55jrvfWfjjlHCLTPS-8xrn1WzRDhCUvvdCxejttkcSNVLfBjgsZMTTqqNNTDbr_IcksETUjgs7lvrkzw2g_ldzhffZ-synzR3UDX3kUuhMxQw8spRXZssdg1J4nMo6NSlhEbJhbQUQTpnd7Gzc_hUCesxfadNDEsQphkcYwxficjwqqFrhCVMmxz9_zvZQ99qopJgcYQ3l_y1]--></g></svg>