<?xml version="1.0" encoding="UTF-8" standalone="no"?><svg xmlns="http://www.w3.org/2000/svg" xmlns:xlink="http://www.w3.org/1999/xlink" contentStyleType="text/css" height="4378px" preserveAspectRatio="none" style="width:764px;height:4378px;background:#FFFFFF;" version="1.1" viewBox="0 0 764 4378" width="764px" zoomAndPan="magnify"><defs/><g><!--cluster System--><g id="cluster_System"><rect fill="none" height="4365" rx="2.5" ry="2.5" style="stroke:#181818;stroke-width:1.0;" width="451" x="307" y="7.2168"/><text fill="#000000" font-family="sans-serif" font-size="20" font-weight="bold" lengthAdjust="spacing" textLength="84" x="490.5" y="27.7813">System</text></g><g id="elem_US6_1_1"><ellipse cx="532.2814" cy="4125.3731" fill="#F1F1F1" rx="163.7814" ry="35.1563" style="stroke:#181818;stroke-width:0.5;"/><text fill="#000000" font-family="sans-serif" font-size="20" lengthAdjust="spacing" textLength="287" x="385.7814" y="4131.9053">Integrated UI for all modules</text></g><g id="elem_US6_1_2"><ellipse cx="532.5196" cy="4231.4207" fill="#F1F1F1" rx="166.5196" ry="35.7039" style="stroke:#181818;stroke-width:0.5;"/><text fill="#000000" font-family="sans-serif" font-size="20" lengthAdjust="spacing" textLength="293" x="383.0196" y="4237.9529">Role-based application menu</text></g><g id="elem_US6_1_3"><ellipse cx="532.3938" cy="3195.1956" fill="#F1F1F1" rx="197.8938" ry="41.9788" style="stroke:#181818;stroke-width:0.5;"/><text fill="#000000" font-family="sans-serif" font-size="20" lengthAdjust="spacing" textLength="360" x="352.3938" y="3200.1194">Sync 3D visualization with schedule</text></g><g id="elem_US6_1_4"><ellipse cx="532.3773" cy="92.9923" fill="#F1F1F1" rx="209.3773" ry="44.2755" style="stroke:#181818;stroke-width:0.5;"/><text fill="#000000" font-family="sans-serif" font-size="20" lengthAdjust="spacing" textLength="384" x="340.3773" y="97.9161">Sync planning module with backoffice</text></g><g id="elem_US6_1_5"><ellipse cx="532.4397" cy="215.0047" fill="#F1F1F1" rx="196.9397" ry="41.7879" style="stroke:#181818;stroke-width:0.5;"/><text fill="#000000" font-family="sans-serif" font-size="20" lengthAdjust="spacing" textLength="358" x="353.4397" y="219.9286">Sync staff availability with planning</text></g><g id="elem_US6_2_1"><ellipse cx="532.7008" cy="2786.457" fill="#F1F1F1" rx="191.7008" ry="40.7402" style="stroke:#181818;stroke-width:0.5;"/><text fill="#000000" font-family="sans-serif" font-size="20" lengthAdjust="spacing" textLength="347" x="359.0842" y="2791.4527">Register for healthcare application</text></g><g id="elem_US6_2_2"><ellipse cx="532.6193" cy="2889.0407" fill="#F1F1F1" rx="122.1193" ry="26.8239" style="stroke:#181818;stroke-width:0.5;"/><text fill="#000000" font-family="sans-serif" font-size="20" lengthAdjust="spacing" textLength="192" x="433.6193" y="2895.5729">Update user profile</text></g><g id="elem_US6_2_3"><ellipse cx="532.3531" cy="2983.1874" fill="#F1F1F1" rx="145.3531" ry="31.4706" style="stroke:#181818;stroke-width:0.5;"/><text fill="#000000" font-family="sans-serif" font-size="20" lengthAdjust="spacing" textLength="246" x="406.3531" y="2989.7197">Delete account and data</text></g><g id="elem_US6_2_4"><ellipse cx="532.2867" cy="4329.3741" fill="#F1F1F1" rx="123.7867" ry="27.1573" style="stroke:#181818;stroke-width:0.5;"/><text fill="#000000" font-family="sans-serif" font-size="20" lengthAdjust="spacing" textLength="196" x="431.2867" y="4335.9064">Log in to backoffice</text></g><g id="elem_US6_2_5"><ellipse cx="532.7391" cy="3084.4646" fill="#F1F1F1" rx="159.2391" ry="34.2478" style="stroke:#181818;stroke-width:0.5;"/><text fill="#000000" font-family="sans-serif" font-size="20" lengthAdjust="spacing" textLength="277" x="391.2391" y="3090.9968">Log in to healthcare system</text></g><g id="elem_US6_2_6"><ellipse cx="532.4072" cy="321.3982" fill="#F1F1F1" rx="131.4072" ry="28.6814" style="stroke:#181818;stroke-width:0.5;"/><text fill="#000000" font-family="sans-serif" font-size="20" lengthAdjust="spacing" textLength="214" x="422.4072" y="327.9305">Create patient profile</text></g><g id="elem_US6_2_7"><ellipse cx="532.4624" cy="411.2093" fill="#F1F1F1" rx="120.4624" ry="26.4925" style="stroke:#181818;stroke-width:0.5;"/><text fill="#000000" font-family="sans-serif" font-size="20" lengthAdjust="spacing" textLength="188" x="435.4624" y="417.7415">Edit patient profile</text></g><g id="elem_US6_2_8"><ellipse cx="532.4792" cy="501.3126" fill="#F1F1F1" rx="130.9792" ry="28.5958" style="stroke:#181818;stroke-width:0.5;"/><text fill="#000000" font-family="sans-serif" font-size="20" lengthAdjust="spacing" textLength="213" x="422.9792" y="507.8449">Delete patient profile</text></g><g id="elem_US6_2_9"><ellipse cx="532.6259" cy="598.242" fill="#F1F1F1" rx="155.6259" ry="33.5252" style="stroke:#181818;stroke-width:0.5;"/><text fill="#000000" font-family="sans-serif" font-size="20" lengthAdjust="spacing" textLength="269" x="395.1259" y="604.7742">List/Search patient profiles</text></g><g id="elem_US6_2_10"><ellipse cx="532.638" cy="693.0444" fill="#F1F1F1" rx="119.638" ry="26.3276" style="stroke:#181818;stroke-width:0.5;"/><text fill="#000000" font-family="sans-serif" font-size="20" lengthAdjust="spacing" textLength="186" x="436.638" y="699.5766">Create staff profile</text></g><g id="elem_US6_2_11"><ellipse cx="532.6952" cy="779.4558" fill="#F1F1F1" rx="109.1952" ry="24.239" style="stroke:#181818;stroke-width:0.5;"/><text fill="#000000" font-family="sans-serif" font-size="20" lengthAdjust="spacing" textLength="160" x="449.6952" y="785.9881">Edit staff profile</text></g><g id="elem_US6_2_12"><ellipse cx="532.5174" cy="868.0203" fill="#F1F1F1" rx="137.0174" ry="29.8035" style="stroke:#181818;stroke-width:0.5;"/><text fill="#000000" font-family="sans-serif" font-size="20" lengthAdjust="spacing" textLength="227" x="416.0174" y="874.5525">Deactivate staff profile</text></g><g id="elem_US6_2_13"><ellipse cx="532.6452" cy="964.2458" fill="#F1F1F1" rx="143.1452" ry="31.029" style="stroke:#181818;stroke-width:0.5;"/><text fill="#000000" font-family="sans-serif" font-size="20" lengthAdjust="spacing" textLength="241" x="409.1452" y="970.7781">List/Search staff profiles</text></g><g id="elem_US6_2_14"><ellipse cx="532.3163" cy="3298.3801" fill="#F1F1F1" rx="118.8163" ry="26.1633" style="stroke:#181818;stroke-width:0.5;"/><text fill="#000000" font-family="sans-serif" font-size="20" lengthAdjust="spacing" textLength="184" x="437.3163" y="3304.9123">Request operation</text></g><g id="elem_US6_2_15"><ellipse cx="532.7371" cy="3394.4642" fill="#F1F1F1" rx="164.2371" ry="35.2474" style="stroke:#181818;stroke-width:0.5;"/><text fill="#000000" font-family="sans-serif" font-size="20" lengthAdjust="spacing" textLength="288" x="385.7371" y="3400.9965">Update operation requisition</text></g><g id="elem_US6_2_16"><ellipse cx="532.3921" cy="3500.1952" fill="#F1F1F1" rx="167.8921" ry="35.9784" style="stroke:#181818;stroke-width:0.5;"/><text fill="#000000" font-family="sans-serif" font-size="20" lengthAdjust="spacing" textLength="296" x="381.3921" y="3506.7275">Remove operation requisition</text></g><g id="elem_US6_2_17"><ellipse cx="532.4909" cy="3611.415" fill="#F1F1F1" rx="186.4909" ry="39.6982" style="stroke:#181818;stroke-width:0.5;"/><text fill="#000000" font-family="sans-serif" font-size="20" lengthAdjust="spacing" textLength="336" x="363.7608" y="3616.7753">List/Search operation requisitions</text></g><g id="elem_US6_2_18"><ellipse cx="532.6264" cy="1062.0421" fill="#F1F1F1" rx="147.1264" ry="31.8253" style="stroke:#181818;stroke-width:0.5;"/><text fill="#000000" font-family="sans-serif" font-size="20" lengthAdjust="spacing" textLength="250" x="404.6264" y="1068.5743">Add new operation types</text></g><g id="elem_US6_2_19"><ellipse cx="532.3062" cy="1157.378" fill="#F1F1F1" rx="126.3062" ry="27.6612" style="stroke:#181818;stroke-width:0.5;"/><text fill="#000000" font-family="sans-serif" font-size="20" lengthAdjust="spacing" textLength="202" x="428.3062" y="1163.9103">Edit operation types</text></g><g id="elem_US6_2_20"><ellipse cx="532.5272" cy="1251.4222" fill="#F1F1F1" rx="144.0272" ry="31.2054" style="stroke:#181818;stroke-width:0.5;"/><text fill="#000000" font-family="sans-serif" font-size="20" lengthAdjust="spacing" textLength="243" x="408.0272" y="1257.9545">Remove operation types</text></g><g id="elem_US6_2_21"><ellipse cx="532.4301" cy="1351.1028" fill="#F1F1F1" rx="157.4301" ry="33.886" style="stroke:#181818;stroke-width:0.5;"/><text fill="#000000" font-family="sans-serif" font-size="20" lengthAdjust="spacing" textLength="273" x="392.9301" y="1357.635">List/Search operation types</text></g><g id="elem_US6_3_1"><ellipse cx="532.6534" cy="1458.4475" fill="#F1F1F1" rx="176.6534" ry="37.7307" style="stroke:#181818;stroke-width:0.5;"/><text fill="#000000" font-family="sans-serif" font-size="20" lengthAdjust="spacing" textLength="315" x="373.151" y="1464.4963">Better scheduling of operations</text></g><g id="elem_US6_3_2"><ellipse cx="532.6762" cy="1572.052" fill="#F1F1F1" rx="192.1762" ry="40.8352" style="stroke:#181818;stroke-width:0.5;"/><text fill="#000000" font-family="sans-serif" font-size="20" lengthAdjust="spacing" textLength="348" x="358.6137" y="1577.0145">Complexity analysis for scheduling</text></g><g id="elem_US6_3_3"><ellipse cx="532.3776" cy="1681.2923" fill="#F1F1F1" rx="153.3776" ry="33.0755" style="stroke:#181818;stroke-width:0.5;"/><text fill="#000000" font-family="sans-serif" font-size="20" lengthAdjust="spacing" textLength="264" x="397.3776" y="1687.8245">Good schedule generation</text></g><g id="elem_US6_4_1"><ellipse cx="532.3281" cy="1789.9824" fill="#F1F1F1" rx="189.3281" ry="40.2656" style="stroke:#181818;stroke-width:0.5;"/><text fill="#000000" font-family="sans-serif" font-size="20" lengthAdjust="spacing" textLength="342" x="360.9369" y="1795.1442">Systematic deployment validation</text></g><g id="elem_US6_4_2"><ellipse cx="532.3251" cy="1896.9818" fill="#F1F1F1" rx="141.8251" ry="30.765" style="stroke:#181818;stroke-width:0.5;"/><text fill="#000000" font-family="sans-serif" font-size="20" lengthAdjust="spacing" textLength="238" x="410.3251" y="1903.514">Internal network access</text></g><g id="elem_US6_4_3"><ellipse cx="532.6921" cy="1998.0552" fill="#F1F1F1" rx="159.6921" ry="34.3384" style="stroke:#181818;stroke-width:0.5;"/><text fill="#000000" font-family="sans-serif" font-size="20" lengthAdjust="spacing" textLength="278" x="390.6921" y="2004.5874">Client definition via text file</text></g><g id="elem_US6_4_4"><ellipse cx="532.5324" cy="2101.0233" fill="#F1F1F1" rx="152.0324" ry="32.8065" style="stroke:#181818;stroke-width:0.5;"/><text fill="#000000" font-family="sans-serif" font-size="20" lengthAdjust="spacing" textLength="261" x="399.0324" y="2107.5555">Identify and quantify risks</text></g><g id="elem_US6_4_5"><ellipse cx="532.6526" cy="2191.3473" fill="#F1F1F1" rx="98.6526" ry="22.1305" style="stroke:#181818;stroke-width:0.5;"/><text fill="#000000" font-family="sans-serif" font-size="20" lengthAdjust="spacing" textLength="132" x="463.6526" y="2197.8795">Define MBCO</text></g><g id="elem_US6_4_6"><ellipse cx="532.3716" cy="2273.1911" fill="#F1F1F1" rx="110.3716" ry="24.4743" style="stroke:#181818;stroke-width:0.5;"/><text fill="#000000" font-family="sans-serif" font-size="20" lengthAdjust="spacing" textLength="163" x="447.8716" y="2279.7233">Backup strategy</text></g><g id="elem_US6_4_7"><ellipse cx="532.6945" cy="2362.1557" fill="#F1F1F1" rx="132.6945" ry="28.9389" style="stroke:#181818;stroke-width:0.5;"/><text fill="#000000" font-family="sans-serif" font-size="20" lengthAdjust="spacing" textLength="217" x="421.1945" y="2368.6879">Public folder for users</text></g><g id="elem_US6_4_8"><ellipse cx="532.3812" cy="2466.293" fill="#F1F1F1" rx="188.3812" ry="40.0762" style="stroke:#181818;stroke-width:0.5;"/><text fill="#000000" font-family="sans-serif" font-size="20" lengthAdjust="spacing" textLength="340" x="361.8781" y="2471.5211">Identify incorrect access attempts</text></g><g id="elem_US6_5_1"><ellipse cx="532.3501" cy="3722.2868" fill="#F1F1F1" rx="168.3501" ry="36.07" style="stroke:#181818;stroke-width:0.5;"/><text fill="#000000" font-family="sans-serif" font-size="20" lengthAdjust="spacing" textLength="297" x="380.8501" y="3728.819">3D hospital floor visualization</text></g><g id="elem_US6_5_2"><ellipse cx="532.3819" cy="3827.1932" fill="#F1F1F1" rx="157.8819" ry="33.9764" style="stroke:#181818;stroke-width:0.5;"/><text fill="#000000" font-family="sans-serif" font-size="20" lengthAdjust="spacing" textLength="274" x="392.3819" y="3833.7254">Appropriate textures for 3D</text></g><g id="elem_US6_5_3"><ellipse cx="532.4977" cy="3924.2163" fill="#F1F1F1" rx="127.9977" ry="27.9995" style="stroke:#181818;stroke-width:0.5;"/><text fill="#000000" font-family="sans-serif" font-size="20" lengthAdjust="spacing" textLength="206" x="426.4977" y="3930.7486">3D floor illumination</text></g><g id="elem_US6_5_4"><ellipse cx="532.7391" cy="4021.4646" fill="#F1F1F1" rx="159.2391" ry="34.2478" style="stroke:#181818;stroke-width:0.5;"/><text fill="#000000" font-family="sans-serif" font-size="20" lengthAdjust="spacing" textLength="277" x="391.2391" y="4027.9968">Camera control with mouse</text></g><g id="elem_US6_6_1"><ellipse cx="532.4344" cy="2577.1037" fill="#F1F1F1" rx="167.4344" ry="35.8869" style="stroke:#181818;stroke-width:0.5;"/><text fill="#000000" font-family="sans-serif" font-size="20" lengthAdjust="spacing" textLength="295" x="381.9344" y="2583.6359">GDPR compliance knowledge</text></g><g id="elem_US6_6_2"><ellipse cx="532.586" cy="2679.334" fill="#F1F1F1" rx="143.586" ry="31.1172" style="stroke:#181818;stroke-width:0.5;"/><text fill="#000000" font-family="sans-serif" font-size="20" lengthAdjust="spacing" textLength="242" x="408.586" y="2685.8662">Data breach notification</text></g><!--entity AD--><g id="elem_AD"><ellipse cx="83.5" cy="1318.2168" fill="#FFFFFF" rx="8" ry="8" style="stroke:#FF0000;stroke-width:2.0;"/><path d="M83.5,1326.2168 L83.5,1353.2168 M70.5,1334.2168 L96.5,1334.2168 M83.5,1353.2168 L70.5,1368.2168 M83.5,1353.2168 L96.5,1368.2168 " fill="none" style="stroke:#FF0000;stroke-width:2.0;"/><text fill="#000000" font-family="sans-serif" font-size="20" lengthAdjust="spacing" textLength="66" x="50.5" y="1389.7813">Admin</text></g><!--entity PA--><g id="elem_PA"><ellipse cx="83.5" cy="2903.2168" fill="#FFFFFF" rx="8" ry="8" style="stroke:#0000FF;stroke-width:2.0;"/><path d="M83.5,2911.2168 L83.5,2938.2168 M70.5,2919.2168 L96.5,2919.2168 M83.5,2938.2168 L70.5,2953.2168 M83.5,2938.2168 L96.5,2953.2168 " fill="none" style="stroke:#0000FF;stroke-width:2.0;"/><text fill="#000000" font-family="sans-serif" font-size="20" lengthAdjust="spacing" textLength="71" x="48" y="2974.7813">Patient</text></g><!--entity ST--><g id="elem_ST"><ellipse cx="83.5" cy="3578.2168" fill="#FFFFFF" rx="8" ry="8" style="stroke:#008000;stroke-width:2.0;"/><path d="M83.5,3586.2168 L83.5,3613.2168 M70.5,3594.2168 L96.5,3594.2168 M83.5,3613.2168 L70.5,3628.2168 M83.5,3613.2168 L96.5,3628.2168 " fill="none" style="stroke:#008000;stroke-width:2.0;"/><text fill="#000000" font-family="sans-serif" font-size="20" lengthAdjust="spacing" textLength="47" x="60" y="3649.7813">Staff</text></g><!--entity BU--><g id="elem_BU"><ellipse cx="83.5" cy="4198.2168" fill="#FFFFFF" rx="8" ry="8" style="stroke:#800080;stroke-width:2.0;"/><path d="M83.5,4206.2168 L83.5,4233.2168 M70.5,4214.2168 L96.5,4214.2168 M83.5,4233.2168 L70.5,4248.2168 M83.5,4233.2168 L96.5,4248.2168 " fill="none" style="stroke:#800080;stroke-width:2.0;"/><text fill="#000000" font-family="sans-serif" font-size="20" lengthAdjust="spacing" textLength="155" x="6" y="4269.7813">Backoffice User</text></g><!--link BU to US6_1_1--><g id="link_BU_US6_1_1"><path d="M161.05,4206.5968 C171.09,4203.6368 181.26,4200.7668 191,4198.2168 C261.26,4179.8368 340.55,4162.6368 404.93,4149.5468 " fill="none" id="BU-to-US6_1_1" style="stroke:#181818;stroke-width:1.0;"/><polygon fill="#181818" points="409.93,4148.5368,400.3119,4146.4172,405.031,4149.5366,401.9116,4154.2557,409.93,4148.5368" style="stroke:#181818;stroke-width:1.0;"/><text fill="#000000" font-family="sans-serif" font-size="20" lengthAdjust="spacing" textLength="85" x="198.5" y="4170.7813">US 6.1.1</text></g><!--link BU to US6_1_2--><g id="link_BU_US6_1_2"><path d="M161.09,4231.2168 C215.8,4231.2168 291.59,4231.2168 360.37,4231.2168 " fill="none" id="BU-to-US6_1_2" style="stroke:#181818;stroke-width:1.0;"/><polygon fill="#181818" points="365.73,4231.2168,356.73,4227.2168,360.73,4231.2168,356.73,4235.2168,365.73,4231.2168" style="stroke:#181818;stroke-width:1.0;"/><text fill="#000000" font-family="sans-serif" font-size="20" lengthAdjust="spacing" textLength="85" x="198.5" y="4225.7813">US 6.1.2</text></g><!--link ST to US6_1_3--><g id="link_ST_US6_1_3"><path d="M90.06,3568.1568 C100.13,3505.5068 126.67,3388.5068 191,3313.2168 C233.1,3263.9468 296.88,3235.2268 357.9,3218.4968 " fill="none" id="ST-to-US6_1_3" style="stroke:#181818;stroke-width:1.0;"/><polygon fill="#181818" points="363.04,3217.1168,353.3096,3215.5941,358.2119,3218.4167,355.3894,3223.319,363.04,3217.1168" style="stroke:#181818;stroke-width:1.0;"/><text fill="#000000" font-family="sans-serif" font-size="20" lengthAdjust="spacing" textLength="85" x="198.5" y="3240.7813">US 6.1.3</text></g><!--link AD to US6_1_4--><g id="link_AD_US6_1_4"><path d="M86.03,1308.0268 C93.33,1110.5268 127.06,299.1968 191,207.2168 C225.02,158.2768 281.13,129.9868 338.08,113.7568 " fill="none" id="AD-to-US6_1_4" style="stroke:#181818;stroke-width:1.0;"/><polygon fill="#181818" points="343.23,112.3168,333.4862,110.882,338.4138,113.6602,335.6356,118.5878,343.23,112.3168" style="stroke:#181818;stroke-width:1.0;"/><text fill="#000000" font-family="sans-serif" font-size="20" lengthAdjust="spacing" textLength="85" x="198.5" y="126.7813">US 6.1.4</text></g><!--link AD to US6_1_5--><g id="link_AD_US6_1_5"><path d="M85.99,1308.1768 C92.87,1120.3868 124.13,378.6668 191,301.2168 C227,259.5268 279.99,236.5568 333.5,224.2768 " fill="none" id="AD-to-US6_1_5" style="stroke:#181818;stroke-width:1.0;"/><polygon fill="#181818" points="338.68,223.1168,329.0212,221.1913,333.8021,224.215,330.7784,228.9959,338.68,223.1168" style="stroke:#181818;stroke-width:1.0;"/><text fill="#000000" font-family="sans-serif" font-size="20" lengthAdjust="spacing" textLength="85" x="198.5" y="234.7813">US 6.1.5</text></g><!--link PA to US6_2_1--><g id="link_PA_US6_2_1"><path d="M119.04,2917.7668 C139.65,2907.0668 166.5,2893.6968 191,2883.2168 C255.99,2855.4168 331.31,2833.0168 394.56,2816.7768 " fill="none" id="PA-to-US6_2_1" style="stroke:#181818;stroke-width:1.0;"/><polygon fill="#181818" points="399.47,2815.5268,389.7627,2813.8627,394.6235,2816.7563,391.7299,2821.6171,399.47,2815.5268" style="stroke:#181818;stroke-width:1.0;"/><text fill="#000000" font-family="sans-serif" font-size="20" lengthAdjust="spacing" textLength="85" x="198.5" y="2844.7813">US 6.2.1</text></g><!--link PA to US6_2_2--><g id="link_PA_US6_2_2"><path d="M119.2,2932.5668 C182.18,2925.9468 317.87,2911.6768 416.43,2901.3168 " fill="none" id="PA-to-US6_2_2" style="stroke:#181818;stroke-width:1.0;"/><polygon fill="#181818" points="421.69,2900.7668,412.3175,2897.7407,416.718,2901.2954,413.1633,2905.6959,421.69,2900.7668" style="stroke:#181818;stroke-width:1.0;"/><text fill="#000000" font-family="sans-serif" font-size="20" lengthAdjust="spacing" textLength="85" x="198.5" y="2910.7813">US 6.2.2</text></g><!--link PA to US6_2_3--><g id="link_PA_US6_2_3"><path d="M119.32,2944.6068 C140.02,2949.2968 166.88,2954.8568 191,2958.2168 C254.24,2967.0268 324.55,2972.8568 384.78,2976.6468 " fill="none" id="PA-to-US6_2_3" style="stroke:#181818;stroke-width:1.0;"/><polygon fill="#181818" points="389.83,2976.9568,381.0987,2972.4001,384.8398,2976.6431,380.5968,2980.3843,389.83,2976.9568" style="stroke:#181818;stroke-width:1.0;"/><text fill="#000000" font-family="sans-serif" font-size="20" lengthAdjust="spacing" textLength="85" x="198.5" y="2952.7813">US 6.2.3</text></g><!--link BU to US6_2_4--><g id="link_BU_US6_2_4"><path d="M161.29,4256.1268 C171.24,4259.0268 181.33,4261.8068 191,4264.2168 C269.39,4283.7768 359.21,4300.6968 426.9,4312.3668 " fill="none" id="BU-to-US6_2_4" style="stroke:#181818;stroke-width:1.0;"/><polygon fill="#181818" points="432.15,4313.2668,423.9531,4307.8069,427.2215,4312.424,422.6045,4315.6925,432.15,4313.2668" style="stroke:#181818;stroke-width:1.0;"/><text fill="#000000" font-family="sans-serif" font-size="20" lengthAdjust="spacing" textLength="85" x="198.5" y="4258.7813">US 6.2.4</text></g><!--link PA to US6_2_5--><g id="link_PA_US6_2_5"><path d="M119.1,2961.1568 C139.29,2974.8068 165.7,2991.1368 191,3002.2168 C256.54,3030.9268 333.78,3050.5668 398.11,3063.4168 " fill="none" id="PA-to-US6_2_5" style="stroke:#181818;stroke-width:1.0;"/><polygon fill="#181818" points="403.12,3064.4068,395.0697,3058.733,398.2155,3063.4345,393.514,3066.5802,403.12,3064.4068" style="stroke:#181818;stroke-width:1.0;"/><text fill="#000000" font-family="sans-serif" font-size="20" lengthAdjust="spacing" textLength="85" x="198.5" y="2996.7813">US 6.2.5</text></g><!--link AD to US6_2_6--><g id="link_AD_US6_2_6"><path d="M86.39,1308.0368 C94.58,1130.3468 129.28,461.6068 191,392.2168 C242.64,334.1668 328.38,316.5268 400.9,313.3468 " fill="none" id="AD-to-US6_2_6" style="stroke:#181818;stroke-width:1.0;"/><polygon fill="#181818" points="406.1,313.1468,396.9473,309.5097,401.104,313.3466,397.2671,317.5033,406.1,313.1468" style="stroke:#181818;stroke-width:1.0;"/><text fill="#000000" font-family="sans-serif" font-size="20" lengthAdjust="spacing" textLength="85" x="198.5" y="328.7813">US 6.2.6</text></g><!--link AD to US6_2_7--><g id="link_AD_US6_2_7"><path d="M83.85,1308.1468 C82.36,1151.4368 85.18,614.2268 191,488.2168 C243.62,425.5568 335.44,407.5668 410.48,404.5668 " fill="none" id="AD-to-US6_2_7" style="stroke:#181818;stroke-width:1.0;"/><polygon fill="#181818" points="415.86,404.3768,406.7282,400.6875,410.8629,404.5481,407.0023,408.6828,415.86,404.3768" style="stroke:#181818;stroke-width:1.0;"/><text fill="#000000" font-family="sans-serif" font-size="20" lengthAdjust="spacing" textLength="85" x="198.5" y="419.7813">US 6.2.7</text></g><!--link AD to US6_2_8--><g id="link_AD_US6_2_8"><path d="M84.82,1308.0068 C86.76,1163.2868 100.06,698.3868 191,586.2168 C239.9,525.9068 324.5,504.5768 397.13,498.3668 " fill="none" id="AD-to-US6_2_8" style="stroke:#181818;stroke-width:1.0;"/><polygon fill="#181818" points="402.34,497.9468,393.0489,494.6794,397.356,498.3467,393.6887,502.6537,402.34,497.9468" style="stroke:#181818;stroke-width:1.0;"/><text fill="#000000" font-family="sans-serif" font-size="20" lengthAdjust="spacing" textLength="85" x="198.5" y="515.7813">US 6.2.8</text></g><!--link AD to US6_2_9--><g id="link_AD_US6_2_9"><path d="M85.43,1308.1868 C89.18,1175.0168 107.35,772.9768 191,679.2168 C236.14,628.6168 306.63,606.7468 371.79,598.1668 " fill="none" id="AD-to-US6_2_9" style="stroke:#181818;stroke-width:1.0;"/><polygon fill="#181818" points="376.87,597.5168,367.4393,594.6773,371.9095,598.144,368.4428,602.6141,376.87,597.5168" style="stroke:#181818;stroke-width:1.0;"/><text fill="#000000" font-family="sans-serif" font-size="20" lengthAdjust="spacing" textLength="85" x="198.5" y="613.7813">US 6.2.9</text></g><!--link AD to US6_2_10--><g id="link_AD_US6_2_10"><path d="M86.83,1307.9568 C94.17,1187.6268 120.6,852.5368 191,772.2168 C244.61,711.0468 335.42,692.2768 409.79,688.2768 " fill="none" id="AD-to-US6_2_10" style="stroke:#181818;stroke-width:1.0;"/><polygon fill="#181818" points="415.11,688.0068,405.9265,684.4481,410.1159,688.2494,406.3147,692.4387,415.11,688.0068" style="stroke:#181818;stroke-width:1.0;"/><text fill="#000000" font-family="sans-serif" font-size="20" lengthAdjust="spacing" textLength="98" x="192" y="706.7813">US 6.2.10</text></g><!--link AD to US6_2_11--><g id="link_AD_US6_2_11"><path d="M89.3,1308.1168 C101.67,1203.7868 137.42,941.2768 191,873.2168 C244.26,805.5568 341.54,783.8368 418.52,778.0168 " fill="none" id="AD-to-US6_2_11" style="stroke:#181818;stroke-width:1.0;"/><polygon fill="#181818" points="423.56,777.6568,414.2979,774.3082,418.5727,778.013,414.8679,782.2879,423.56,777.6568" style="stroke:#181818;stroke-width:1.0;"/><text fill="#000000" font-family="sans-serif" font-size="20" lengthAdjust="spacing" textLength="98" x="192" y="799.7813">US 6.2.11</text></g><!--link AD to US6_2_12--><g id="link_AD_US6_2_12"><path d="M86.57,1308.0068 C92.19,1233.3168 113.13,1078.4668 191,978.2168 C239.01,916.4168 322.22,888.7968 394.37,876.6868 " fill="none" id="AD-to-US6_2_12" style="stroke:#181818;stroke-width:1.0;"/><polygon fill="#181818" points="399.54,875.8468,390.0154,873.3405,394.6046,876.6479,391.2972,881.2371,399.54,875.8468" style="stroke:#181818;stroke-width:1.0;"/><text fill="#000000" font-family="sans-serif" font-size="20" lengthAdjust="spacing" textLength="98" x="192" y="900.7813">US 6.2.12</text></g><!--link AD to US6_2_13--><g id="link_AD_US6_2_13"><path d="M92.36,1308.0068 C104.73,1250.1568 133.52,1146.8668 191,1078.2168 C240.83,1018.7068 322.74,990.1168 393.73,976.4468 " fill="none" id="AD-to-US6_2_13" style="stroke:#181818;stroke-width:1.0;"/><polygon fill="#181818" points="398.82,975.4868,389.2402,973.2004,393.9043,976.4013,390.7035,981.0655,398.82,975.4868" style="stroke:#181818;stroke-width:1.0;"/><text fill="#000000" font-family="sans-serif" font-size="20" lengthAdjust="spacing" textLength="98" x="192" y="1005.7813">US 6.2.13</text></g><!--link ST to US6_2_14--><g id="link_ST_US6_2_14"><path d="M101.69,3567.8668 C119.63,3526.2968 150.77,3463.3668 191,3418.2168 C230.22,3374.2068 244.73,3364.2368 299,3341.2168 C336.07,3325.4968 378.87,3315.5068 417.56,3309.1668 " fill="none" id="ST-to-US6_2_14" style="stroke:#181818;stroke-width:1.0;"/><polygon fill="#181818" points="422.75,3308.3368,413.2336,3305.7993,417.812,3309.1217,414.4896,3313.7001,422.75,3308.3368" style="stroke:#181818;stroke-width:1.0;"/><text fill="#000000" font-family="sans-serif" font-size="20" lengthAdjust="spacing" textLength="98" x="192" y="3340.7813">US 6.2.14</text></g><!--link ST to US6_2_15--><g id="link_ST_US6_2_15"><path d="M107.32,3591.2068 C128.58,3572.7868 161.37,3544.9568 191,3522.2168 C237.56,3486.4768 245.33,3469.9668 299,3446.2168 C328.53,3433.1468 361.67,3423.2168 393.48,3415.7168 " fill="none" id="ST-to-US6_2_15" style="stroke:#181818;stroke-width:1.0;"/><polygon fill="#181818" points="398.57,3414.5368,388.8943,3412.6982,393.7022,3415.6788,390.7215,3420.4867,398.57,3414.5368" style="stroke:#181818;stroke-width:1.0;"/><text fill="#000000" font-family="sans-serif" font-size="20" lengthAdjust="spacing" textLength="98" x="192" y="3445.7813">US 6.2.15</text></g><!--link ST to US6_2_16--><g id="link_ST_US6_2_16"><path d="M107.21,3603.6368 C128.67,3596.5968 161.84,3586.0668 191,3578.2168 C261.92,3559.1368 341.93,3540.6568 406.57,3526.4768 " fill="none" id="ST-to-US6_2_16" style="stroke:#181818;stroke-width:1.0;"/><polygon fill="#181818" points="411.59,3525.3768,401.9421,3523.3975,406.7061,3526.4478,403.6557,3531.2118,411.59,3525.3768" style="stroke:#181818;stroke-width:1.0;"/><text fill="#000000" font-family="sans-serif" font-size="20" lengthAdjust="spacing" textLength="98" x="192" y="3549.7813">US 6.2.16</text></g><!--link ST to US6_2_17--><g id="link_ST_US6_2_17"><path d="M107.28,3611.2168 C150.76,3611.2168 249.38,3611.2168 340.59,3611.2168 " fill="none" id="ST-to-US6_2_17" style="stroke:#181818;stroke-width:1.0;"/><polygon fill="#181818" points="345.76,3611.2168,336.76,3607.2168,340.76,3611.2168,336.76,3615.2168,345.76,3611.2168" style="stroke:#181818;stroke-width:1.0;"/><text fill="#000000" font-family="sans-serif" font-size="20" lengthAdjust="spacing" textLength="98" x="192" y="3605.7813">US 6.2.17</text></g><!--link AD to US6_2_18--><g id="link_AD_US6_2_18"><path d="M102.49,1308.1568 C120.43,1269.2268 151.04,1212.1868 191,1173.2168 C245.88,1119.6968 326.88,1091.9768 396.1,1077.6268 " fill="none" id="AD-to-US6_2_18" style="stroke:#181818;stroke-width:1.0;"/><polygon fill="#181818" points="401.07,1076.6168,391.4519,1074.4972,396.171,1077.6166,393.0516,1082.3357,401.07,1076.6168" style="stroke:#181818;stroke-width:1.0;"/><text fill="#000000" font-family="sans-serif" font-size="20" lengthAdjust="spacing" textLength="98" x="192" y="1105.7813">US 6.2.18</text></g><!--link AD to US6_2_19--><g id="link_AD_US6_2_19"><path d="M116.52,1322.7368 C137.12,1305.0068 164.85,1282.2268 191,1264.2168 C236.58,1232.8268 247.13,1221.5168 299,1202.2168 C336.34,1188.3268 378.72,1178.5068 416.98,1171.6568 " fill="none" id="AD-to-US6_2_19" style="stroke:#181818;stroke-width:1.0;"/><polygon fill="#181818" points="422.11,1170.7568,412.551,1168.3849,417.1864,1171.6274,413.9439,1176.2627,422.11,1170.7568" style="stroke:#181818;stroke-width:1.0;"/><text fill="#000000" font-family="sans-serif" font-size="20" lengthAdjust="spacing" textLength="98" x="192" y="1200.7813">US 6.2.19</text></g><!--link AD to US6_2_20--><g id="link_AD_US6_2_20"><path d="M116.87,1340.2068 C137.85,1333.3168 165.85,1324.5668 191,1318.2168 C264.44,1299.6668 347.87,1283.1768 413.77,1271.1968 " fill="none" id="AD-to-US6_2_20" style="stroke:#181818;stroke-width:1.0;"/><polygon fill="#181818" points="418.88,1270.2768,409.3132,1267.9366,413.9593,1271.1637,410.7322,1275.8097,418.88,1270.2768" style="stroke:#181818;stroke-width:1.0;"/><text fill="#000000" font-family="sans-serif" font-size="20" lengthAdjust="spacing" textLength="98" x="192" y="1291.7813">US 6.2.20</text></g><!--link AD to US6_2_21--><g id="link_AD_US6_2_21"><path d="M116.65,1351.2168 C169.25,1351.2168 277.14,1351.2168 369.7,1351.2168 " fill="none" id="AD-to-US6_2_21" style="stroke:#181818;stroke-width:1.0;"/><polygon fill="#181818" points="374.94,1351.2168,365.94,1347.2168,369.94,1351.2168,365.94,1355.2168,374.94,1351.2168" style="stroke:#181818;stroke-width:1.0;"/><text fill="#000000" font-family="sans-serif" font-size="20" lengthAdjust="spacing" textLength="98" x="192" y="1345.7813">US 6.2.21</text></g><!--link AD to US6_3_1--><g id="link_AD_US6_3_1"><path d="M116.92,1362.0568 C137.91,1368.8868 165.92,1377.6168 191,1384.2168 C258.43,1401.9568 334.17,1418.7268 397.06,1431.7968 " fill="none" id="AD-to-US6_3_1" style="stroke:#181818;stroke-width:1.0;"/><polygon fill="#181818" points="402.33,1432.8868,394.3276,1427.1455,397.4338,1431.8733,392.706,1434.9795,402.33,1432.8868" style="stroke:#181818;stroke-width:1.0;"/><text fill="#000000" font-family="sans-serif" font-size="20" lengthAdjust="spacing" textLength="85" x="198.5" y="1378.7813">US 6.3.1</text></g><!--link AD to US6_3_2--><g id="link_AD_US6_3_2"><path d="M116.9,1379.7668 C137.65,1397.6768 165.4,1420.9468 191,1440.2168 C237.29,1475.0568 246.13,1489.5168 299,1513.2168 C326.03,1525.3368 355.99,1535.2768 385.17,1543.3068 " fill="none" id="AD-to-US6_3_2" style="stroke:#181818;stroke-width:1.0;"/><polygon fill="#181818" points="390.22,1544.6868,382.5912,1538.4578,385.3965,1543.37,380.4843,1546.1754,390.22,1544.6868" style="stroke:#181818;stroke-width:1.0;"/><text fill="#000000" font-family="sans-serif" font-size="20" lengthAdjust="spacing" textLength="85" x="198.5" y="1434.7813">US 6.3.2</text></g><!--link AD to US6_3_3--><g id="link_AD_US6_3_3"><path d="M102.78,1394.3268 C121.32,1435.0568 152.7,1496.5468 191,1542.2168 C230.79,1589.6568 243.24,1603.2968 299,1630.2168 C329.11,1644.7568 363.42,1655.1968 396.26,1662.6868 " fill="none" id="AD-to-US6_3_3" style="stroke:#181818;stroke-width:1.0;"/><polygon fill="#181818" points="401.52,1663.8568,393.602,1657.9997,396.6391,1662.7721,391.8666,1665.8092,401.52,1663.8568" style="stroke:#181818;stroke-width:1.0;"/><text fill="#000000" font-family="sans-serif" font-size="20" lengthAdjust="spacing" textLength="85" x="198.5" y="1536.7813">US 6.3.3</text></g><!--link AD to US6_4_1--><g id="link_AD_US6_4_1"><path d="M90.49,1394.4368 C101.15,1458.0968 128.47,1578.2968 191,1659.2168 C234.4,1715.3868 305.07,1747.4868 370.81,1765.8268 " fill="none" id="AD-to-US6_4_1" style="stroke:#181818;stroke-width:1.0;"/><polygon fill="#181818" points="375.93,1767.2268,368.2965,1761.0035,371.1055,1765.9136,366.1954,1768.7227,375.93,1767.2268" style="stroke:#181818;stroke-width:1.0;"/><text fill="#000000" font-family="sans-serif" font-size="20" lengthAdjust="spacing" textLength="85" x="198.5" y="1653.7813">US 6.4.1</text></g><!--link AD to US6_4_2--><g id="link_AD_US6_4_2"><path d="M86.06,1394.5068 C90.89,1474.9868 110.59,1650.2468 191,1769.2168 C236.59,1836.6668 322.6,1868.6368 396.77,1883.7668 " fill="none" id="AD-to-US6_4_2" style="stroke:#181818;stroke-width:1.0;"/><polygon fill="#181818" points="402.09,1884.8268,394.0397,1879.153,397.1855,1883.8545,392.484,1887.0002,402.09,1884.8268" style="stroke:#181818;stroke-width:1.0;"/><text fill="#000000" font-family="sans-serif" font-size="20" lengthAdjust="spacing" textLength="85" x="198.5" y="1763.7813">US 6.4.2</text></g><!--link AD to US6_4_3--><g id="link_AD_US6_4_3"><path d="M88.66,1394.5468 C100.1,1506.5168 134.99,1802.2768 191,1881.2168 C233.56,1941.2068 308.94,1970.7668 377.98,1985.1968 " fill="none" id="AD-to-US6_4_3" style="stroke:#181818;stroke-width:1.0;"/><polygon fill="#181818" points="382.93,1986.2068,374.9116,1980.4879,378.031,1985.207,373.3119,1988.3264,382.93,1986.2068" style="stroke:#181818;stroke-width:1.0;"/><text fill="#000000" font-family="sans-serif" font-size="20" lengthAdjust="spacing" textLength="85" x="198.5" y="1875.7813">US 6.4.3</text></g><!--link AD to US6_4_4--><g id="link_AD_US6_4_4"><path d="M86.87,1394.5168 C94.6,1522.0368 122.6,1893.2668 191,1990.2168 C233.7,2050.7468 310.41,2078.9768 380.22,2091.8668 " fill="none" id="AD-to-US6_4_4" style="stroke:#181818;stroke-width:1.0;"/><polygon fill="#181818" points="385.23,2092.7668,377.0822,2087.2339,380.3093,2091.8799,375.6632,2095.107,385.23,2092.7668" style="stroke:#181818;stroke-width:1.0;"/><text fill="#000000" font-family="sans-serif" font-size="20" lengthAdjust="spacing" textLength="85" x="198.5" y="1984.7813">US 6.4.4</text></g><!--link AD to US6_4_5--><g id="link_AD_US6_4_5"><path d="M85.47,1394.2868 C89.42,1535.8768 108.35,1984.4068 191,2098.2168 C244.47,2171.8468 350.47,2191.3468 430.07,2194.7468 " fill="none" id="AD-to-US6_4_5" style="stroke:#181818;stroke-width:1.0;"/><polygon fill="#181818" points="435.28,2194.9468,426.4476,2190.5893,430.284,2194.7464,426.1269,2198.5828,435.28,2194.9468" style="stroke:#181818;stroke-width:1.0;"/><text fill="#000000" font-family="sans-serif" font-size="20" lengthAdjust="spacing" textLength="85" x="198.5" y="2092.7813">US 6.4.5</text></g><!--link AD to US6_4_6--><g id="link_AD_US6_4_6"><path d="M83.8,1394.2968 C82.17,1549.7568 84.65,2079.1168 191,2201.2168 C247.6,2266.1968 346.81,2281.1268 423.6,2281.5968 " fill="none" id="AD-to-US6_4_6" style="stroke:#181818;stroke-width:1.0;"/><polygon fill="#181818" points="428.62,2281.6068,419.62,2277.6068,423.62,2281.6068,419.62,2285.6068,428.62,2281.6068" style="stroke:#181818;stroke-width:1.0;"/><text fill="#000000" font-family="sans-serif" font-size="20" lengthAdjust="spacing" textLength="85" x="198.5" y="2195.7813">US 6.4.6</text></g><!--link AD to US6_4_7--><g id="link_AD_US6_4_7"><path d="M86.43,1394.2668 C94.69,1569.8868 129.47,2225.9868 191,2293.2168 C243.1,2350.1368 328.16,2367.3968 400.23,2370.4268 " fill="none" id="AD-to-US6_4_7" style="stroke:#181818;stroke-width:1.0;"/><polygon fill="#181818" points="405.39,2370.6168,396.5451,2366.2846,400.3935,2370.4307,396.2473,2374.279,405.39,2370.6168" style="stroke:#181818;stroke-width:1.0;"/><text fill="#000000" font-family="sans-serif" font-size="20" lengthAdjust="spacing" textLength="85" x="198.5" y="2287.7813">US 6.4.7</text></g><!--link AD to US6_4_8--><g id="link_AD_US6_4_8"><path d="M86.05,1394.5168 C93.13,1580.8668 124.83,2308.5568 191,2384.2168 C228.5,2427.0868 284.14,2449.5668 339.63,2460.8368 " fill="none" id="AD-to-US6_4_8" style="stroke:#181818;stroke-width:1.0;"/><polygon fill="#181818" points="344.66,2461.8268,336.6065,2456.1574,339.7549,2460.8572,335.0552,2464.0056,344.66,2461.8268" style="stroke:#181818;stroke-width:1.0;"/><text fill="#000000" font-family="sans-serif" font-size="20" lengthAdjust="spacing" textLength="85" x="198.5" y="2378.7813">US 6.4.8</text></g><!--link ST to US6_5_1--><g id="link_ST_US6_5_1"><path d="M107.21,3618.7968 C128.67,3625.8368 161.84,3636.3668 191,3644.2168 C261.92,3663.2968 341.93,3681.7768 406.57,3695.9568 " fill="none" id="ST-to-US6_5_1" style="stroke:#181818;stroke-width:1.0;"/><polygon fill="#181818" points="411.59,3697.0568,403.6557,3691.2218,406.7061,3695.9858,401.9421,3699.0361,411.59,3697.0568" style="stroke:#181818;stroke-width:1.0;"/><text fill="#000000" font-family="sans-serif" font-size="20" lengthAdjust="spacing" textLength="85" x="198.5" y="3638.7813">US 6.5.1</text></g><!--link ST to US6_5_2--><g id="link_ST_US6_5_2"><path d="M107.22,3631.5668 C128.41,3650.2768 161.16,3678.4768 191,3701.2168 C237.28,3736.4868 245.64,3752.0068 299,3775.2168 C330.09,3788.7468 365.11,3798.9368 398.35,3806.5468 " fill="none" id="ST-to-US6_5_2" style="stroke:#181818;stroke-width:1.0;"/><polygon fill="#181818" points="403.24,3807.6568,395.3421,3801.7727,398.3628,3806.5555,393.58,3809.5762,403.24,3807.6568" style="stroke:#181818;stroke-width:1.0;"/><text fill="#000000" font-family="sans-serif" font-size="20" lengthAdjust="spacing" textLength="85" x="198.5" y="3695.7813">US 6.5.2</text></g><!--link ST to US6_5_3--><g id="link_ST_US6_5_3"><path d="M101.33,3654.3368 C119.12,3696.0268 150.23,3759.3068 191,3804.2168 C230.11,3847.2968 245.36,3855.6668 299,3878.2168 C334.94,3893.3268 376.12,3903.5568 413.74,3910.4368 " fill="none" id="ST-to-US6_5_3" style="stroke:#181818;stroke-width:1.0;"/><polygon fill="#181818" points="418.79,3911.3468,410.6394,3905.818,413.8688,3910.4624,409.2244,3913.6918,418.79,3911.3468" style="stroke:#181818;stroke-width:1.0;"/><text fill="#000000" font-family="sans-serif" font-size="20" lengthAdjust="spacing" textLength="85" x="198.5" y="3798.7813">US 6.5.3</text></g><!--link ST to US6_5_4--><g id="link_ST_US6_5_4"><path d="M90.28,3654.2668 C100.61,3716.6268 127.44,3832.8368 191,3908.2168 C237.95,3963.9068 313.07,3992.2968 380.82,4006.7068 " fill="none" id="ST-to-US6_5_4" style="stroke:#181818;stroke-width:1.0;"/><polygon fill="#181818" points="386.1,4007.8068,378.0976,4002.0655,381.2038,4006.7933,376.476,4009.8995,386.1,4007.8068" style="stroke:#181818;stroke-width:1.0;"/><text fill="#000000" font-family="sans-serif" font-size="20" lengthAdjust="spacing" textLength="85" x="198.5" y="3902.7813">US 6.5.4</text></g><!--link AD to US6_6_1--><g id="link_AD_US6_6_1"><path d="M85.98,1394.4968 C93.03,1590.5368 125.6,2389.4668 191,2478.2168 C230.69,2532.0668 298.04,2558.0468 362.41,2570.0968 " fill="none" id="AD-to-US6_6_1" style="stroke:#181818;stroke-width:1.0;"/><polygon fill="#181818" points="367.44,2571.0168,359.3078,2565.4609,362.5218,2570.1161,357.8667,2573.3301,367.44,2571.0168" style="stroke:#181818;stroke-width:1.0;"/><text fill="#000000" font-family="sans-serif" font-size="20" lengthAdjust="spacing" textLength="85" x="198.5" y="2472.7813">US 6.6.1</text></g><!--link AD to US6_6_2--><g id="link_AD_US6_6_2"><path d="M85.66,1394.2468 C91.54,1600.6768 120.67,2483.5868 191,2582.2168 C234.3,2642.9468 313.05,2667.8968 383.91,2677.3468 " fill="none" id="AD-to-US6_6_2" style="stroke:#181818;stroke-width:1.0;"/><polygon fill="#181818" points="389,2677.9968,380.5892,2672.8726,384.0415,2677.3538,379.5603,2680.8061,389,2677.9968" style="stroke:#181818;stroke-width:1.0;"/><text fill="#000000" font-family="sans-serif" font-size="20" lengthAdjust="spacing" textLength="85" x="198.5" y="2576.7813">US 6.6.2</text></g><!--SRC=[ZLPDRziu4BthLn3USx8HzM4d1GeaSRS8i8iDwisve2NA9aoHAaKbTHVzxpkK4tiujhFrISRZuynx7CwmtoZJ2ITQRQkDh5aj6p5e_uSrVg5-ICQlaaJBnZDlcLEhjMUrShBoofea4PMtZarkwrQP2HCzkvsptrxMoiiFMXbvusGzVbmkhQu_UFdTtoorg3Pln4VXbJH-f3xUHjIb7kIxt8KNJJCo5_z4p9MJqhnBlODlspIgakofbsxSvEufsgGRNAVF9904_SAij6IBRUzbo_vD6Fo6NbQYbspoOBnSEU71pgS7ra18eJLhRJresO_HdXRbr_Hh6jE-M2qlbl1PCz5rMbKYkCnQQGP4uZ5fiJKLo-RiMVM3qEh7ZlEY_9hrrLg6a8YSdI1tMXYZpEermHrtkRS8iVCJx3uS0nFFGccnL5hvxMw3jrqHlI1ovKg1UsuqQ2s5zkjAE8crxycSUlNKrU1l-EzOvsoZa4nEFPfBBM6ng2ex6C-4WJ8NNY02yULFksBAX98_uGEdFXnM8nNzM1c8HDJVEna4TBiRS4936Q__L2l_pkhfISNdry-813Y9tnTIk6fDIJrYNP_Ki2k1unZfrGa9PnUdL05SLlNyxlxyl8Y8WoMa6Qt2RuFiFRETT4SrbvyiklrIve2iUaLfHuNUskTVe9NdvPpaHh980TpMDJFo1H7zjekDc9qudNUMN_-FA4hWLxyYvuX5ok1E-j0YNbjPw5AsET0Fp8msY7lRGWF_7lgHC49lUzMFZUQm4-AIGlfiRRtldcmb3IsDxBYHXjiEYoeOe9ssspRSe6Teo7NCp6cUOLOuI11EoxzOjmbTIlOz8f3axlLuEs5EApEM0RH-mS9uOj7zo6cE3pNmLBCT-z-tGUp-EDLlSBISNaC88zbVT_T_eqMamCCy7JguSs7chRPe8Idfns49hHtEGTUlVJyqS1n-UYPdPIhhmjnzzOS9g8ksyvXB2Xg6ujhsdV9WRgCj18jcv9vOq2EvxQ1lT4w5knvy7PpSrKusHoH-56qNH6azm7E8nY27SIzQA2fMmJFBMRqRcQq56578KNoUFtu10fIr4WQUBXjZNxIiLmTAIPNCOSgn9NHfk7F6Wf5qhiALItucIGAldukBZs_F4dO3lMx1oilqCft464SOdoJmz3fW6SAoIG9lmGEM8omdM86mOfB0G_0DuoWN7dA9C8umJh0COLcaWQDSUCWbuXK8Aw8yOI8Zh2JO565JWiqGDYFODSAk2PPUOV5N58siIIcApKavHR4zQHQTOnXx6CqfYYrA2ufYazAIejYcbFgKOgDIwbIAhKgfLnnxnQbN77l5OwyoL6FP9SKumZZ1CeJ5zPwZFNEoPuxspCcUETepFzepHrXEi09X1S5AX9K4co9iIh0PmcRHIHP8Nn7qHHX762TOXh2CO3d2OdqbYbSIFqiKhmpn_WC0]--></g></svg>