<?xml version="1.0" encoding="UTF-8" standalone="no"?><svg xmlns="http://www.w3.org/2000/svg" xmlns:xlink="http://www.w3.org/1999/xlink" contentStyleType="text/css" height="2238px" preserveAspectRatio="none" style="width:718px;height:2238px;background:#FFFFFF;" version="1.1" viewBox="0 0 718 2238" width="718px" zoomAndPan="magnify"><defs/><g><!--cluster Sprint_A--><g id="cluster_Sprint_A"><rect fill="none" height="2225" rx="2.5" ry="2.5" style="stroke:#181818;stroke-width:1.0;" width="405" x="307" y="7.2168"/><text fill="#000000" font-family="sans-serif" font-size="20" font-weight="bold" lengthAdjust="spacing" textLength="94" x="462.5" y="27.7813">Sprint_A</text></g><g id="elem_US5_1_1"><ellipse cx="509.2669" cy="85.9702" fill="#F1F1F1" rx="169.2669" ry="36.2534" style="stroke:#181818;stroke-width:0.5;"/><text fill="#000000" font-family="sans-serif" font-size="20" lengthAdjust="spacing" textLength="299" x="356.7669" y="92.5024">Register new backoffice users</text></g><g id="elem_US5_1_2"><ellipse cx="509.527" cy="2093.2222" fill="#F1F1F1" rx="108.027" ry="24.0054" style="stroke:#181818;stroke-width:0.5;"/><text fill="#000000" font-family="sans-serif" font-size="20" lengthAdjust="spacing" textLength="157" x="428.027" y="2099.7544">Reset password</text></g><g id="elem_US5_1_3"><ellipse cx="509.4624" cy="1312.2093" fill="#F1F1F1" rx="120.4624" ry="26.4925" style="stroke:#181818;stroke-width:0.5;"/><text fill="#000000" font-family="sans-serif" font-size="20" lengthAdjust="spacing" textLength="188" x="412.4624" y="1318.7415">Register as Patient</text></g><g id="elem_US5_1_4"><ellipse cx="509.4478" cy="1399.4064" fill="#F1F1F1" rx="113.9478" ry="25.1896" style="stroke:#181818;stroke-width:0.5;"/><text fill="#000000" font-family="sans-serif" font-size="20" lengthAdjust="spacing" textLength="172" x="420.4478" y="1405.9386">Delete my profile</text></g><g id="elem_US5_1_5"><ellipse cx="509.6815" cy="1485.0531" fill="#F1F1F1" rx="117.1815" ry="25.8363" style="stroke:#181818;stroke-width:0.5;"/><text fill="#000000" font-family="sans-serif" font-size="20" lengthAdjust="spacing" textLength="180" x="416.6815" y="1491.5853">Update my profile</text></g><g id="elem_US5_1_6"><ellipse cx="509.4055" cy="2184.3979" fill="#F1F1F1" rx="148.9055" ry="32.1811" style="stroke:#181818;stroke-width:0.5;"/><text fill="#000000" font-family="sans-serif" font-size="20" lengthAdjust="spacing" textLength="254" x="379.4055" y="2190.9301">Log in as BackOffice User</text></g><g id="elem_US5_1_7"><ellipse cx="509.4094" cy="1583.2987" fill="#F1F1F1" rx="173.4094" ry="37.0819" style="stroke:#181818;stroke-width:0.5;"/><text fill="#000000" font-family="sans-serif" font-size="20" lengthAdjust="spacing" textLength="308" x="352.9502" y="1589.5745">Log in to the system as Patient</text></g><g id="elem_US5_1_8"><ellipse cx="509.4072" cy="186.3982" fill="#F1F1F1" rx="131.4072" ry="28.6814" style="stroke:#181818;stroke-width:0.5;"/><text fill="#000000" font-family="sans-serif" font-size="20" lengthAdjust="spacing" textLength="214" x="399.4072" y="192.9305">Create patient profile</text></g><g id="elem_US5_1_9"><ellipse cx="509.4624" cy="276.2093" fill="#F1F1F1" rx="120.4624" ry="26.4925" style="stroke:#181818;stroke-width:0.5;"/><text fill="#000000" font-family="sans-serif" font-size="20" lengthAdjust="spacing" textLength="188" x="412.4624" y="282.7415">Edit patient profile</text></g><g id="elem_US5_1_10"><ellipse cx="509.4792" cy="366.3126" fill="#F1F1F1" rx="130.9792" ry="28.5958" style="stroke:#181818;stroke-width:0.5;"/><text fill="#000000" font-family="sans-serif" font-size="20" lengthAdjust="spacing" textLength="213" x="399.9792" y="372.8449">Delete patient profile</text></g><g id="elem_US5_1_11"><ellipse cx="509.6259" cy="463.242" fill="#F1F1F1" rx="155.6259" ry="33.5252" style="stroke:#181818;stroke-width:0.5;"/><text fill="#000000" font-family="sans-serif" font-size="20" lengthAdjust="spacing" textLength="269" x="372.1259" y="469.7742">List/Search patient profiles</text></g><g id="elem_US5_1_12"><ellipse cx="509.638" cy="558.0444" fill="#F1F1F1" rx="119.638" ry="26.3276" style="stroke:#181818;stroke-width:0.5;"/><text fill="#000000" font-family="sans-serif" font-size="20" lengthAdjust="spacing" textLength="186" x="413.638" y="564.5766">Create staff profile</text></g><g id="elem_US5_1_13"><ellipse cx="509.6952" cy="644.4558" fill="#F1F1F1" rx="109.1952" ry="24.239" style="stroke:#181818;stroke-width:0.5;"/><text fill="#000000" font-family="sans-serif" font-size="20" lengthAdjust="spacing" textLength="160" x="426.6952" y="650.9881">Edit staff profile</text></g><g id="elem_US5_1_14"><ellipse cx="509.5174" cy="733.0203" fill="#F1F1F1" rx="137.0174" ry="29.8035" style="stroke:#181818;stroke-width:0.5;"/><text fill="#000000" font-family="sans-serif" font-size="20" lengthAdjust="spacing" textLength="227" x="393.0174" y="739.5525">Deactivate staff profile</text></g><g id="elem_US5_1_15"><ellipse cx="509.6452" cy="829.2458" fill="#F1F1F1" rx="143.1452" ry="31.029" style="stroke:#181818;stroke-width:0.5;"/><text fill="#000000" font-family="sans-serif" font-size="20" lengthAdjust="spacing" textLength="241" x="386.1452" y="835.7781">List/Search staff profiles</text></g><g id="elem_US5_1_16"><ellipse cx="509.3163" cy="1681.3801" fill="#F1F1F1" rx="118.8163" ry="26.1633" style="stroke:#181818;stroke-width:0.5;"/><text fill="#000000" font-family="sans-serif" font-size="20" lengthAdjust="spacing" textLength="184" x="414.3163" y="1687.9123">Request operation</text></g><g id="elem_US5_1_17"><ellipse cx="509.7371" cy="1777.4642" fill="#F1F1F1" rx="164.2371" ry="35.2474" style="stroke:#181818;stroke-width:0.5;"/><text fill="#000000" font-family="sans-serif" font-size="20" lengthAdjust="spacing" textLength="288" x="362.7371" y="1783.9965">Update operation requisition</text></g><g id="elem_US5_1_18"><ellipse cx="509.3921" cy="1883.1952" fill="#F1F1F1" rx="167.8921" ry="35.9784" style="stroke:#181818;stroke-width:0.5;"/><text fill="#000000" font-family="sans-serif" font-size="20" lengthAdjust="spacing" textLength="296" x="358.3921" y="1889.7275">Remove operation requisition</text></g><g id="elem_US5_1_19"><ellipse cx="509.4909" cy="1994.415" fill="#F1F1F1" rx="186.4909" ry="39.6982" style="stroke:#181818;stroke-width:0.5;"/><text fill="#000000" font-family="sans-serif" font-size="20" lengthAdjust="spacing" textLength="336" x="340.7608" y="1999.7753">List/Search operation requisitions</text></g><g id="elem_US5_1_20"><ellipse cx="509.6264" cy="927.0421" fill="#F1F1F1" rx="147.1264" ry="31.8253" style="stroke:#181818;stroke-width:0.5;"/><text fill="#000000" font-family="sans-serif" font-size="20" lengthAdjust="spacing" textLength="250" x="381.6264" y="933.5743">Add new operation types</text></g><g id="elem_US5_1_21"><ellipse cx="509.3062" cy="1022.378" fill="#F1F1F1" rx="126.3062" ry="27.6612" style="stroke:#181818;stroke-width:0.5;"/><text fill="#000000" font-family="sans-serif" font-size="20" lengthAdjust="spacing" textLength="202" x="405.3062" y="1028.9103">Edit operation types</text></g><g id="elem_US5_1_22"><ellipse cx="509.5272" cy="1116.4222" fill="#F1F1F1" rx="144.0272" ry="31.2054" style="stroke:#181818;stroke-width:0.5;"/><text fill="#000000" font-family="sans-serif" font-size="20" lengthAdjust="spacing" textLength="243" x="385.0272" y="1122.9545">Remove operation types</text></g><g id="elem_US5_1_23"><ellipse cx="509.4301" cy="1216.1028" fill="#F1F1F1" rx="157.4301" ry="33.886" style="stroke:#181818;stroke-width:0.5;"/><text fill="#000000" font-family="sans-serif" font-size="20" lengthAdjust="spacing" textLength="273" x="369.9301" y="1222.635">List/Search operation types</text></g><!--entity AD--><g id="elem_AD"><ellipse cx="83.5" cy="611.2168" fill="#FFFFFF" rx="8" ry="8" style="stroke:#FF0000;stroke-width:2.0;"/><path d="M83.5,619.2168 L83.5,646.2168 M70.5,627.2168 L96.5,627.2168 M83.5,646.2168 L70.5,661.2168 M83.5,646.2168 L96.5,661.2168 " fill="none" style="stroke:#FF0000;stroke-width:2.0;"/><text fill="#000000" font-family="sans-serif" font-size="20" lengthAdjust="spacing" textLength="66" x="50.5" y="682.7813">Admin</text></g><!--entity PA--><g id="elem_PA"><ellipse cx="83.5" cy="1409.2168" fill="#FFFFFF" rx="8" ry="8" style="stroke:#0000FF;stroke-width:2.0;"/><path d="M83.5,1417.2168 L83.5,1444.2168 M70.5,1425.2168 L96.5,1425.2168 M83.5,1444.2168 L70.5,1459.2168 M83.5,1444.2168 L96.5,1459.2168 " fill="none" style="stroke:#0000FF;stroke-width:2.0;"/><text fill="#000000" font-family="sans-serif" font-size="20" lengthAdjust="spacing" textLength="71" x="48" y="1480.7813">Patient</text></g><!--entity ST--><g id="elem_ST"><ellipse cx="83.5" cy="1797.2168" fill="#FFFFFF" rx="8" ry="8" style="stroke:#008000;stroke-width:2.0;"/><path d="M83.5,1805.2168 L83.5,1832.2168 M70.5,1813.2168 L96.5,1813.2168 M83.5,1832.2168 L70.5,1847.2168 M83.5,1832.2168 L96.5,1847.2168 " fill="none" style="stroke:#008000;stroke-width:2.0;"/><text fill="#000000" font-family="sans-serif" font-size="20" lengthAdjust="spacing" textLength="47" x="60" y="1868.7813">Staff</text></g><!--entity BU--><g id="elem_BU"><ellipse cx="83.5" cy="2108.2168" fill="#FFFFFF" rx="8" ry="8" style="stroke:#800080;stroke-width:2.0;"/><path d="M83.5,2116.2168 L83.5,2143.2168 M70.5,2124.2168 L96.5,2124.2168 M83.5,2143.2168 L70.5,2158.2168 M83.5,2143.2168 L96.5,2158.2168 " fill="none" style="stroke:#800080;stroke-width:2.0;"/><text fill="#000000" font-family="sans-serif" font-size="20" lengthAdjust="spacing" textLength="155" x="6" y="2179.7813">Backoffice User</text></g><!--link AD to US5_1_1--><g id="link_AD_US5_1_1"><path d="M89.64,601.1068 C102.44,500.0468 138.54,251.6468 191,188.2168 C229.94,141.1368 290.73,115.5368 348.74,101.7068 " fill="none" id="AD-to-US5_1_1" style="stroke:#181818;stroke-width:1.0;"/><polygon fill="#181818" points="353.62,100.5668,343.9494,98.7013,348.749,101.6953,345.755,106.4948,353.62,100.5668" style="stroke:#181818;stroke-width:1.0;"/><text fill="#000000" font-family="sans-serif" font-size="20" lengthAdjust="spacing" textLength="85" x="198.5" y="117.7813">US 5.1.1</text></g><!--link BU to US5_1_2--><g id="link_BU_US5_1_2"><path d="M161.28,2132.5268 C230.27,2124.7168 332.03,2113.1968 407.57,2104.6468 " fill="none" id="BU-to-US5_1_2" style="stroke:#181818;stroke-width:1.0;"/><polygon fill="#181818" points="412.97,2104.0368,403.5805,2101.064,408.0011,2104.5937,404.4715,2109.0143,412.97,2104.0368" style="stroke:#181818;stroke-width:1.0;"/><text fill="#000000" font-family="sans-serif" font-size="20" lengthAdjust="spacing" textLength="85" x="198.5" y="2113.7813">US 5.1.2</text></g><!--link PA to US5_1_3--><g id="link_PA_US5_1_3"><path d="M119.33,1423.0568 C139.82,1412.2468 166.44,1398.9968 191,1389.2168 C261.23,1361.2368 344.39,1341.5168 407.98,1329.0468 " fill="none" id="PA-to-US5_1_3" style="stroke:#181818;stroke-width:1.0;"/><polygon fill="#181818" points="412.91,1328.0868,403.3163,1325.8594,408.0001,1329.0316,404.8279,1333.7153,412.91,1328.0868" style="stroke:#181818;stroke-width:1.0;"/><text fill="#000000" font-family="sans-serif" font-size="20" lengthAdjust="spacing" textLength="85" x="198.5" y="1352.7813">US 5.1.3</text></g><!--link PA to US5_1_4--><g id="link_PA_US5_1_4"><path d="M119.2,1438.6968 C179.95,1432.5368 307.95,1419.5568 400.62,1410.1568 " fill="none" id="PA-to-US5_1_4" style="stroke:#181818;stroke-width:1.0;"/><polygon fill="#181818" points="405.84,1409.6268,396.4858,1406.5448,400.865,1410.1257,397.2841,1414.5049,405.84,1409.6268" style="stroke:#181818;stroke-width:1.0;"/><text fill="#000000" font-family="sans-serif" font-size="20" lengthAdjust="spacing" textLength="85" x="198.5" y="1416.7813">US 5.1.4</text></g><!--link PA to US5_1_5--><g id="link_PA_US5_1_5"><path d="M119.31,1450.6668 C140.01,1455.3768 166.87,1460.9468 191,1464.2168 C255.83,1473.0168 328.62,1478.1668 388.14,1481.1668 " fill="none" id="PA-to-US5_1_5" style="stroke:#181818;stroke-width:1.0;"/><polygon fill="#181818" points="393.49,1481.4268,384.6953,1476.9937,388.4959,1481.1835,384.306,1484.9842,393.49,1481.4268" style="stroke:#181818;stroke-width:1.0;"/><text fill="#000000" font-family="sans-serif" font-size="20" lengthAdjust="spacing" textLength="85" x="198.5" y="1458.7813">US 5.1.5</text></g><!--link BU to US5_1_6--><g id="link_BU_US5_1_6"><path d="M161.27,2167.6668 C171.18,2170.2968 181.26,2172.5868 191,2174.2168 C244.35,2183.1568 303.43,2186.7068 356.01,2187.6968 " fill="none" id="BU-to-US5_1_6" style="stroke:#181818;stroke-width:1.0;"/><polygon fill="#181818" points="361.08,2187.7868,352.1499,2183.6331,356.0807,2187.7011,352.0128,2191.6319,361.08,2187.7868" style="stroke:#181818;stroke-width:1.0;"/><text fill="#000000" font-family="sans-serif" font-size="20" lengthAdjust="spacing" textLength="85" x="198.5" y="2168.7813">US 5.1.6</text></g><!--link PA to US5_1_7--><g id="link_PA_US5_1_7"><path d="M119.41,1467.8668 C139.49,1481.5568 165.69,1497.7068 191,1508.2168 C246.35,1531.1868 310.18,1547.9868 366.03,1559.7868 " fill="none" id="PA-to-US5_1_7" style="stroke:#181818;stroke-width:1.0;"/><polygon fill="#181818" points="371.07,1560.8368,363.0837,1555.0732,366.1766,1559.8096,361.4402,1562.9026,371.07,1560.8368" style="stroke:#181818;stroke-width:1.0;"/><text fill="#000000" font-family="sans-serif" font-size="20" lengthAdjust="spacing" textLength="85" x="198.5" y="1502.7813">US 5.1.7</text></g><!--link AD to US5_1_8--><g id="link_AD_US5_1_8"><path d="M86.38,601.1568 C91.72,528.0268 112.23,378.4568 191,285.2168 C236.85,230.9468 311.97,205.9768 377.64,194.6768 " fill="none" id="AD-to-US5_1_8" style="stroke:#181818;stroke-width:1.0;"/><polygon fill="#181818" points="382.75,193.8168,373.2114,191.3643,377.8192,194.6457,374.5377,199.2535,382.75,193.8168" style="stroke:#181818;stroke-width:1.0;"/><text fill="#000000" font-family="sans-serif" font-size="20" lengthAdjust="spacing" textLength="85" x="198.5" y="215.7813">US 5.1.8</text></g><!--link AD to US5_1_9--><g id="link_AD_US5_1_9"><path d="M93.1,600.8268 C106.03,544.9868 135.17,447.5168 191,383.2168 C241.09,325.5368 323.34,298.8768 391.58,286.5968 " fill="none" id="AD-to-US5_1_9" style="stroke:#181818;stroke-width:1.0;"/><polygon fill="#181818" points="396.88,285.6568,387.3198,283.2897,391.9568,286.5298,388.7167,291.1668,396.88,285.6568" style="stroke:#181818;stroke-width:1.0;"/><text fill="#000000" font-family="sans-serif" font-size="20" lengthAdjust="spacing" textLength="85" x="198.5" y="312.7813">US 5.1.9</text></g><!--link AD to US5_1_10--><g id="link_AD_US5_1_10"><path d="M106,601.1668 C125,566.0568 155.2,516.6468 191,481.2168 C231.48,441.1468 246.37,433.9968 299,412.2168 C329.46,399.6168 363.9,390.2268 395.93,383.3368 " fill="none" id="AD-to-US5_1_10" style="stroke:#181818;stroke-width:1.0;"/><polygon fill="#181818" points="401.05,382.2568,391.4145,380.2179,396.1595,383.2976,393.0798,388.0427,401.05,382.2568" style="stroke:#181818;stroke-width:1.0;"/><text fill="#000000" font-family="sans-serif" font-size="20" lengthAdjust="spacing" textLength="98" x="192" y="410.7813">US 5.1.10</text></g><!--link AD to US5_1_11--><g id="link_AD_US5_1_11"><path d="M116.8,614.4968 C137.06,596.8868 164.33,574.9968 191,559.2168 C250.42,524.0668 323.81,500.7868 385.06,485.9668 " fill="none" id="AD-to-US5_1_11" style="stroke:#181818;stroke-width:1.0;"/><polygon fill="#181818" points="390.2,484.7368,380.5192,482.925,385.3354,485.8923,382.3681,490.7085,390.2,484.7368" style="stroke:#181818;stroke-width:1.0;"/><text fill="#000000" font-family="sans-serif" font-size="20" lengthAdjust="spacing" textLength="98" x="192" y="508.7813">US 5.1.11</text></g><!--link AD to US5_1_12--><g id="link_AD_US5_1_12"><path d="M116.81,632.9568 C137.77,625.9668 165.76,617.2068 191,611.2168 C260.28,594.7768 339.25,581.5768 401.1,572.4568 " fill="none" id="AD-to-US5_1_12" style="stroke:#181818;stroke-width:1.0;"/><polygon fill="#181818" points="406.28,571.6968,396.7929,569.052,401.3334,572.4259,397.9595,576.9664,406.28,571.6968" style="stroke:#181818;stroke-width:1.0;"/><text fill="#000000" font-family="sans-serif" font-size="20" lengthAdjust="spacing" textLength="98" x="192" y="586.7813">US 5.1.12</text></g><!--link AD to US5_1_13--><g id="link_AD_US5_1_13"><path d="M116.72,644.2168 C175.23,644.2168 301.55,644.2168 395.01,644.2168 " fill="none" id="AD-to-US5_1_13" style="stroke:#181818;stroke-width:1.0;"/><polygon fill="#181818" points="400.28,644.2168,391.28,640.2168,395.28,644.2168,391.28,648.2168,400.28,644.2168" style="stroke:#181818;stroke-width:1.0;"/><text fill="#000000" font-family="sans-serif" font-size="20" lengthAdjust="spacing" textLength="98" x="192" y="638.7813">US 5.1.13</text></g><!--link AD to US5_1_14--><g id="link_AD_US5_1_14"><path d="M116.83,655.3968 C137.79,662.3568 165.79,671.1168 191,677.2168 C256.08,692.9768 329.68,706.2368 389.61,715.8868 " fill="none" id="AD-to-US5_1_14" style="stroke:#181818;stroke-width:1.0;"/><polygon fill="#181818" points="394.63,716.6968,386.3872,711.3065,389.6946,715.8957,385.1054,719.2031,394.63,716.6968" style="stroke:#181818;stroke-width:1.0;"/><text fill="#000000" font-family="sans-serif" font-size="20" lengthAdjust="spacing" textLength="98" x="192" y="671.7813">US 5.1.14</text></g><!--link AD to US5_1_15--><g id="link_AD_US5_1_15"><path d="M116.87,674.3868 C137.16,692.3268 164.43,714.7268 191,731.2168 C252.5,769.3868 330,793.6868 393.03,808.5368 " fill="none" id="AD-to-US5_1_15" style="stroke:#181818;stroke-width:1.0;"/><polygon fill="#181818" points="397.92,809.6768,390.055,803.7488,393.049,808.5483,388.2494,811.5423,397.92,809.6768" style="stroke:#181818;stroke-width:1.0;"/><text fill="#000000" font-family="sans-serif" font-size="20" lengthAdjust="spacing" textLength="98" x="192" y="725.7813">US 5.1.15</text></g><!--link ST to US5_1_16--><g id="link_ST_US5_1_16"><path d="M107.13,1817.5468 C128.54,1805.6968 161.67,1787.6968 191,1773.2168 C238.26,1749.8768 248.87,1740.5068 299,1724.2168 C333.67,1712.9568 372.55,1704.0068 407.33,1697.2468 " fill="none" id="ST-to-US5_1_16" style="stroke:#181818;stroke-width:1.0;"/><polygon fill="#181818" points="412.43,1696.2668,402.8375,1694.0343,407.5196,1697.2089,404.3449,1701.891,412.43,1696.2668" style="stroke:#181818;stroke-width:1.0;"/><text fill="#000000" font-family="sans-serif" font-size="20" lengthAdjust="spacing" textLength="98" x="192" y="1721.7813">US 5.1.16</text></g><!--link ST to US5_1_17--><g id="link_ST_US5_1_17"><path d="M107.3,1827.3668 C154.95,1821.4068 268.5,1807.2168 362.68,1795.4468 " fill="none" id="ST-to-US5_1_17" style="stroke:#181818;stroke-width:1.0;"/><polygon fill="#181818" points="367.72,1794.8168,358.2964,1791.954,362.758,1795.4317,359.2802,1799.8932,367.72,1794.8168" style="stroke:#181818;stroke-width:1.0;"/><text fill="#000000" font-family="sans-serif" font-size="20" lengthAdjust="spacing" textLength="98" x="192" y="1800.7813">US 5.1.17</text></g><!--link ST to US5_1_18--><g id="link_ST_US5_1_18"><path d="M107.28,1834.7568 C128.79,1838.9268 161.99,1845.0768 191,1849.2168 C242.47,1856.5568 298.83,1863.0768 349.6,1868.3968 " fill="none" id="ST-to-US5_1_18" style="stroke:#181818;stroke-width:1.0;"/><polygon fill="#181818" points="354.81,1868.9468,346.2694,1864.0419,349.8365,1868.4323,345.4462,1871.9995,354.81,1868.9468" style="stroke:#181818;stroke-width:1.0;"/><text fill="#000000" font-family="sans-serif" font-size="20" lengthAdjust="spacing" textLength="98" x="192" y="1843.7813">US 5.1.18</text></g><!--link ST to US5_1_19--><g id="link_ST_US5_1_19"><path d="M107.07,1845.6868 C128.17,1859.7368 160.85,1880.4468 191,1895.2168 C250.39,1924.2968 320.19,1947.1768 379.19,1963.5768 " fill="none" id="ST-to-US5_1_19" style="stroke:#181818;stroke-width:1.0;"/><polygon fill="#181818" points="384.14,1964.9468,376.5284,1958.6967,379.3202,1963.6167,374.4002,1966.4085,384.14,1964.9468" style="stroke:#181818;stroke-width:1.0;"/><text fill="#000000" font-family="sans-serif" font-size="20" lengthAdjust="spacing" textLength="98" x="192" y="1889.7813">US 5.1.19</text></g><!--link AD to US5_1_20--><g id="link_AD_US5_1_20"><path d="M105.03,687.4568 C123.74,723.6268 154.06,774.9768 191,811.2168 C243.16,862.3868 319.68,891.2168 384.54,907.3468 " fill="none" id="AD-to-US5_1_20" style="stroke:#181818;stroke-width:1.0;"/><polygon fill="#181818" points="389.58,908.5768,381.7854,902.5565,384.7226,907.391,379.8881,910.3283,389.58,908.5768" style="stroke:#181818;stroke-width:1.0;"/><text fill="#000000" font-family="sans-serif" font-size="20" lengthAdjust="spacing" textLength="98" x="192" y="805.7813">US 5.1.20</text></g><!--link AD to US5_1_21--><g id="link_AD_US5_1_21"><path d="M93.08,687.5468 C106.08,743.9068 135.34,842.9768 191,909.2168 C240.07,967.6068 321.48,995.8368 389.59,1009.4768 " fill="none" id="AD-to-US5_1_21" style="stroke:#181818;stroke-width:1.0;"/><polygon fill="#181818" points="394.88,1010.5068,386.8107,1004.86,389.9722,1009.5509,385.2813,1012.7124,394.88,1010.5068" style="stroke:#181818;stroke-width:1.0;"/><text fill="#000000" font-family="sans-serif" font-size="20" lengthAdjust="spacing" textLength="98" x="192" y="903.7813">US 5.1.21</text></g><!--link AD to US5_1_22--><g id="link_AD_US5_1_22"><path d="M86.39,687.2668 C91.74,761.2068 112.26,913.6768 191,1010.2168 C234.67,1063.7668 306.27,1090.4368 370.43,1103.6468 " fill="none" id="AD-to-US5_1_22" style="stroke:#181818;stroke-width:1.0;"/><polygon fill="#181818" points="375.43,1104.6568,367.3924,1098.9649,370.5276,1103.6735,365.8191,1106.8087,375.43,1104.6568" style="stroke:#181818;stroke-width:1.0;"/><text fill="#000000" font-family="sans-serif" font-size="20" lengthAdjust="spacing" textLength="98" x="192" y="1004.7813">US 5.1.22</text></g><!--link AD to US5_1_23--><g id="link_AD_US5_1_23"><path d="M89.57,687.4668 C102.35,790.1568 138.63,1045.0268 191,1111.2168 C231.3,1162.1468 296.99,1188.6168 358.2,1202.2768 " fill="none" id="AD-to-US5_1_23" style="stroke:#181818;stroke-width:1.0;"/><polygon fill="#181818" points="363.35,1203.3968,355.4157,1197.5618,358.4661,1202.3258,353.7021,1205.3761,363.35,1203.3968" style="stroke:#181818;stroke-width:1.0;"/><text fill="#000000" font-family="sans-serif" font-size="20" lengthAdjust="spacing" textLength="98" x="192" y="1105.7813">US 5.1.23</text></g><!--SRC=[ZPLFZzem4CNl-HIZzBmKc_-iL8djjgTANJNbZ4mo0OkGfBPPkgtwtMk2jeo7X2wdIEyzs- -NYR4xNTRAg7rHfJlC8CDS7GhtkIfTedyXo7uK5PWxS1KOlTawoBJ1rEcgZ2ALkif0lCZsken1MLWymhlZLZkyBtI9SuDPyz1RLqLsx_2dcwyBbUvUWq_AQInT4trQ1D5rSS2RsSIfF6-IoVSWkJ68vSteWt-kybod24kBfbdaOHaiKXzCNNGS83hrL-McG4XgeqktMi1lYC3_3XPJPH7YRxZHrg614e-mlkpd3SOs6owJqKgi18zPT50hQu-LoOXFTYn_0aSWdis3qFo81Jg4_GlKfifrWSGw3AtBEbDTrb5e_L9jG9SDEb_lAyDvZenR8twIt1R1llW6-_O6ap3uqU3fMFNPrtAsQUZ_b6btmprhvTFj5ttMmxD_dw0owPQdWdShMblOq-2sxI9RIdIQhzwndstzV7FzONUB81Dq6F71-t50ww2gqQZJ9K2zuzPX-cS5uyFQQXwRy2tsrVCROjFkEgtPe1ORWKMMDL_g9UXUwW24xBUydHjsyPzILm7vbZfNgK7q9uhyhNjtz-6r6imz-WH6FT4JSUJljOicYIRZo5-v5sr0j07JXaGRCcr4j17RRqoqCSjDY3Q9mmvJeasPDYFQZ6cYJyltkHgW4LobS8JaAiKZ1bobWCIGgnIHy8py7nPHAIGnvYh592PSfQ34bAiKbU2i96KbEIj9MKdEIWQ3n5b9oaeEuhy0]--></g></svg>