<?xml version="1.0" encoding="UTF-8" standalone="no"?><svg xmlns="http://www.w3.org/2000/svg" xmlns:xlink="http://www.w3.org/1999/xlink" contentStyleType="text/css" height="883px" preserveAspectRatio="none" style="width:567px;height:883px;background:#FFFFFF;" version="1.1" viewBox="0 0 567 883" width="567px" zoomAndPan="magnify"><defs/><g><!--cluster System--><g id="cluster_System"><rect fill="none" height="870" rx="2.5" ry="2.5" style="stroke:#181818;stroke-width:1.0;" width="356" x="205" y="7.2168"/><text fill="#000000" font-family="sans-serif" font-size="20" font-weight="bold" lengthAdjust="spacing" textLength="84" x="341" y="27.7813">System</text></g><g id="elem_US5_1_1"><ellipse cx="383.1264" cy="180.0421" fill="#F1F1F1" rx="147.1264" ry="31.8253" style="stroke:#181818;stroke-width:0.5;"/><text fill="#000000" font-family="sans-serif" font-size="20" lengthAdjust="spacing" textLength="250" x="255.1264" y="186.5743">Manage Backoffice Users</text></g><g id="elem_US5_1_8_9_10_11"><ellipse cx="383.056" cy="272.428" fill="#F1F1F1" rx="111.556" ry="24.7112" style="stroke:#181818;stroke-width:0.5;"/><text fill="#000000" font-family="sans-serif" font-size="20" lengthAdjust="spacing" textLength="166" x="297.056" y="278.9602">Manage Patients</text></g><g id="elem_US5_1_12_13_14_15"><ellipse cx="382.8848" cy="359.2937" fill="#F1F1F1" rx="125.8848" ry="27.577" style="stroke:#181818;stroke-width:0.5;"/><text fill="#000000" font-family="sans-serif" font-size="20" lengthAdjust="spacing" textLength="201" x="279.3848" y="365.826">Manage Staff Profile</text></g><g id="elem_US5_1_20_21_22_23"><ellipse cx="383.1825" cy="81.4533" fill="#F1F1F1" rx="146.6825" ry="31.7365" style="stroke:#181818;stroke-width:0.5;"/><text fill="#000000" font-family="sans-serif" font-size="20" lengthAdjust="spacing" textLength="249" x="255.6825" y="87.9855">Manage Operation Types</text></g><g id="elem_US5_1_3"><ellipse cx="382.8266" cy="543.3821" fill="#F1F1F1" rx="153.8266" ry="33.1653" style="stroke:#181818;stroke-width:0.5;"/><text fill="#000000" font-family="sans-serif" font-size="20" lengthAdjust="spacing" textLength="265" x="247.3266" y="549.9143">Register in the application</text></g><g id="elem_US5_1_4_5"><ellipse cx="383.138" cy="448.0444" fill="#F1F1F1" rx="119.638" ry="26.3276" style="stroke:#181818;stroke-width:0.5;"/><text fill="#000000" font-family="sans-serif" font-size="20" lengthAdjust="spacing" textLength="186" x="287.138" y="454.5766">Manage my profile</text></g><g id="elem_US5_1_6"><ellipse cx="383.2282" cy="744.4624" fill="#F1F1F1" rx="126.7282" ry="27.7456" style="stroke:#181818;stroke-width:0.5;"/><text fill="#000000" font-family="sans-serif" font-size="20" lengthAdjust="spacing" textLength="203" x="278.7282" y="750.9947">Log in to the system</text></g><g id="elem_US5_1_2"><ellipse cx="383.0352" cy="834.1238" fill="#F1F1F1" rx="122.5352" ry="26.907" style="stroke:#181818;stroke-width:0.5;"/><text fill="#000000" font-family="sans-serif" font-size="20" lengthAdjust="spacing" textLength="193" x="283.5352" y="840.6561">Reset my Password</text></g><g id="elem_US5_1_16_17_18_19"><ellipse cx="382.9612" cy="646.009" fill="#F1F1F1" rx="161.9612" ry="34.7922" style="stroke:#181818;stroke-width:0.5;"/><text fill="#000000" font-family="sans-serif" font-size="20" lengthAdjust="spacing" textLength="283" x="238.4612" y="652.5413">Manage Operation Requests</text></g><!--entity AD--><g id="elem_AD"><ellipse cx="83.5" cy="193.2168" fill="#FFFFFF" rx="8" ry="8" style="stroke:#FF0000;stroke-width:2.0;"/><path d="M83.5,201.2168 L83.5,228.2168 M70.5,209.2168 L96.5,209.2168 M83.5,228.2168 L70.5,243.2168 M83.5,228.2168 L96.5,243.2168 " fill="none" style="stroke:#FF0000;stroke-width:2.0;"/><text fill="#000000" font-family="sans-serif" font-size="20" lengthAdjust="spacing" textLength="66" x="50.5" y="264.7813">Admin</text></g><!--entity PA--><g id="elem_PA"><ellipse cx="83.5" cy="453.2168" fill="#FFFFFF" rx="8" ry="8" style="stroke:#0000FF;stroke-width:2.0;"/><path d="M83.5,461.2168 L83.5,488.2168 M70.5,469.2168 L96.5,469.2168 M83.5,488.2168 L70.5,503.2168 M83.5,488.2168 L96.5,503.2168 " fill="none" style="stroke:#0000FF;stroke-width:2.0;"/><text fill="#000000" font-family="sans-serif" font-size="20" lengthAdjust="spacing" textLength="71" x="48" y="524.7813">Patient</text></g><!--entity ST--><g id="elem_ST"><ellipse cx="83.5" cy="613.2168" fill="#FFFFFF" rx="8" ry="8" style="stroke:#008000;stroke-width:2.0;"/><path d="M83.5,621.2168 L83.5,648.2168 M70.5,629.2168 L96.5,629.2168 M83.5,648.2168 L70.5,663.2168 M83.5,648.2168 L96.5,663.2168 " fill="none" style="stroke:#008000;stroke-width:2.0;"/><text fill="#000000" font-family="sans-serif" font-size="20" lengthAdjust="spacing" textLength="47" x="60" y="684.7813">Staff</text></g><!--entity BU--><g id="elem_BU"><ellipse cx="83.5" cy="767.2168" fill="#FFFFFF" rx="8" ry="8" style="stroke:#800080;stroke-width:2.0;"/><path d="M83.5,775.2168 L83.5,802.2168 M70.5,783.2168 L96.5,783.2168 M83.5,802.2168 L70.5,817.2168 M83.5,802.2168 L96.5,817.2168 " fill="none" style="stroke:#800080;stroke-width:2.0;"/><text fill="#000000" font-family="sans-serif" font-size="20" lengthAdjust="spacing" textLength="155" x="6" y="838.7813">Backoffice User</text></g><!--link AD to US5_1_1--><g id="link_AD_US5_1_1"><path d="M116.62,221.2468 C150.53,216.0068 206.12,207.4068 257.69,199.4368 " fill="none" id="AD-to-US5_1_1" style="stroke:#181818;stroke-width:1.0;"/><polygon fill="#181818" points="262.66,198.6668,253.1508,196.1025,257.7198,199.4378,254.3845,204.0068,262.66,198.6668" style="stroke:#181818;stroke-width:1.0;"/></g><!--link AD to US5_1_8_9_10_11--><g id="link_AD_US5_1_8_9_10_11"><path d="M116.62,231.1868 C156.87,237.4068 227.66,248.3568 286.01,257.3768 " fill="none" id="AD-to-US5_1_8_9_10_11" style="stroke:#181818;stroke-width:1.0;"/><polygon fill="#181818" points="291.26,258.1868,282.9868,252.8432,286.3201,257.4136,281.7497,260.7469,291.26,258.1868" style="stroke:#181818;stroke-width:1.0;"/></g><!--link AD to US5_1_12_13_14_15--><g id="link_AD_US5_1_12_13_14_15"><path d="M116.9,257.6768 C138.12,276.6468 167.32,299.8368 197,314.2168 C221.64,326.1568 249.71,335.0868 276.41,341.6968 " fill="none" id="AD-to-US5_1_12_13_14_15" style="stroke:#181818;stroke-width:1.0;"/><polygon fill="#181818" points="281.37,342.8968,273.5754,336.8765,276.5126,341.711,271.6781,344.6483,281.37,342.8968" style="stroke:#181818;stroke-width:1.0;"/></g><!--link AD to US5_1_20_21_22_23--><g id="link_AD_US5_1_20_21_22_23"><path d="M116.51,192.0068 C137.57,171.3568 166.75,146.0668 197,130.2168 C218.57,118.9168 242.95,110.0668 266.76,103.1968 " fill="none" id="AD-to-US5_1_20_21_22_23" style="stroke:#181818;stroke-width:1.0;"/><polygon fill="#181818" points="271.84,101.7568,262.0923,100.3488,267.0276,103.1134,264.2629,108.0487,271.84,101.7568" style="stroke:#181818;stroke-width:1.0;"/></g><!--link PA to US5_1_3--><g id="link_PA_US5_1_3"><path d="M119.21,492.8668 C154.4,499.6068 210.87,510.4268 262.47,520.3168 " fill="none" id="PA-to-US5_1_3" style="stroke:#181818;stroke-width:1.0;"/><polygon fill="#181818" points="267.44,521.2668,259.3549,515.6426,262.5296,520.3247,257.8475,523.4993,267.44,521.2668" style="stroke:#181818;stroke-width:1.0;"/></g><!--link PA to US5_1_4_5--><g id="link_PA_US5_1_4_5"><path d="M119.21,481.7868 C157,476.9568 219.33,468.9968 273.8,462.0368 " fill="none" id="PA-to-US5_1_4_5" style="stroke:#181818;stroke-width:1.0;"/><polygon fill="#181818" points="279.05,461.3668,269.6183,458.5307,274.0897,461.9958,270.6247,466.4672,279.05,461.3668" style="stroke:#181818;stroke-width:1.0;"/></g><!--link BU to US5_1_6--><g id="link_BU_US5_1_6"><path d="M161.11,785.7968 C197.77,778.8968 242.15,770.5468 281.48,763.1368 " fill="none" id="BU-to-US5_1_6" style="stroke:#181818;stroke-width:1.0;"/><polygon fill="#181818" points="286.74,762.1468,277.1538,759.8874,281.8269,763.0751,278.6392,767.7483,286.74,762.1468" style="stroke:#181818;stroke-width:1.0;"/></g><!--link BU to US5_1_2--><g id="link_BU_US5_1_2"><path d="M161.11,808.9768 C193.85,812.7168 232.74,817.1568 268.69,821.2668 " fill="none" id="BU-to-US5_1_2" style="stroke:#181818;stroke-width:1.0;"/><polygon fill="#181818" points="273.97,821.8668,265.4731,816.8866,269.0013,821.3084,264.5796,824.8366,273.97,821.8668" style="stroke:#181818;stroke-width:1.0;"/></g><!--link ST to US5_1_16_17_18_19--><g id="link_ST_US5_1_16_17_18_19"><path d="M107.35,646.2168 C131.73,646.2168 172.7,646.2168 215.65,646.2168 " fill="none" id="ST-to-US5_1_16_17_18_19" style="stroke:#181818;stroke-width:1.0;"/><polygon fill="#181818" points="220.89,646.2168,211.89,642.2168,215.89,646.2168,211.89,650.2168,220.89,646.2168" style="stroke:#181818;stroke-width:1.0;"/></g><!--SRC=[XP9DJm8n48Rl_HKJF6Feyg50OW8ndZGI5ivDsPrT6agxjjqW6l-xIwFI8k8UDfssppipRyTkXAguuLkfimtca6F1Q-aUj7AfU4D8EeH8B1mu3KQKQmUvC9WveHKXF7FQG6kIRuLg0RSmkOUhtLeu74kXS6GmzulhbPRvsE6h6wqappRVu8mxWSfvT3Q9q9MiyIAREbuKdamN4LaQH7KHdJPhNHGYGrXQD5vaken4gjfKyey2oA5_hag9aEwjmosy0u7cgorct2AqdhZY9S997kiJBTC-euoU1Rxy22_UiY6Z7KRF0zu4c1bT28cXVC9ebz4Ue_spt7E5XX_U41Rx2iDyIOSbpJzXIJScvrYAfba3Ge5R8_2gaYBp8W7UFPjkkuVgLuqzTbBReowzkFRwrbiRt1-SrcFH7PHdtDgTDddOn3zDp_6bHXlvJ0UCtZ1wo-YGV13I37AxVVVpM55uV9BuLk1vT11QsapvyU0aF1ZIZE5nOn272MacFSWNL4m-0G00]--></g></svg>