<?xml version="1.0" encoding="UTF-8" standalone="no"?><svg xmlns="http://www.w3.org/2000/svg" xmlns:xlink="http://www.w3.org/1999/xlink" contentStyleType="text/css" height="2154px" preserveAspectRatio="none" style="width:4303px;height:2154px;background:#FFFFFF;" version="1.1" viewBox="0 0 4303 2154" width="4303px" zoomAndPan="magnify"><defs/><g><text fill="#000000" font-family="sans-serif" font-size="14" font-weight="bold" lengthAdjust="spacing" textLength="345" x="1985" y="27.9951">Level 3 Diagram for Searching Staff Profiles</text><rect fill="#FFFFFF" height="1922.5938" style="stroke:#181818;stroke-width:1.0;" width="10" x="51" y="135.5781"/><rect fill="#FFFFFF" height="37.2813" style="stroke:#181818;stroke-width:1.0;" width="10" x="502" y="164.8594"/><rect fill="#FFFFFF" height="1809.75" style="stroke:#181818;stroke-width:1.0;" width="10" x="502" y="239.4219"/><rect fill="#FFFFFF" height="1668.625" style="stroke:#181818;stroke-width:1.0;" width="10" x="949" y="343.2656"/><rect fill="#FFFFFF" height="1832.0313" style="stroke:#181818;stroke-width:1.0;" width="10" x="1818" y="135.5781"/><rect fill="#FFFFFF" height="43.2813" style="stroke:#181818;stroke-width:1.0;" width="10" x="2308" y="648.0781"/><rect fill="#FFFFFF" height="111.8438" style="stroke:#181818;stroke-width:1.0;" width="10" x="2778" y="458.3906"/><rect fill="#FFFFFF" height="812.3125" style="stroke:#181818;stroke-width:1.0;" width="10" x="3002" y="805.2031"/><rect fill="#FFFFFF" height="124.8438" style="stroke:#181818;stroke-width:1.0;" width="10" x="3163.5" y="1798.4844"/><rect fill="#FFFFFF" height="43.2813" style="stroke:#181818;stroke-width:1.0;" width="10" x="3450.5" y="1835.7656"/><rect fill="#FFFFFF" height="37.2813" style="stroke:#181818;stroke-width:1.0;" width="10" x="3759" y="495.6719"/><rect fill="#FFFFFF" height="127.125" style="stroke:#181818;stroke-width:1.0;" width="10" x="3759" y="842.4844"/><rect fill="#FFFFFF" height="37.2813" style="stroke:#181818;stroke-width:1.0;" width="10" x="3759" y="1047.4531"/><rect fill="#FFFFFF" height="37.2813" style="stroke:#181818;stroke-width:1.0;" width="10" x="3759" y="1169.5781"/><rect fill="#FFFFFF" height="37.2813" style="stroke:#181818;stroke-width:1.0;" width="10" x="3759" y="1291.7031"/><rect fill="#FFFFFF" height="37.2813" style="stroke:#181818;stroke-width:1.0;" width="10" x="3759" y="1413.8281"/><rect fill="#FFFFFF" height="37.2813" style="stroke:#181818;stroke-width:1.0;" width="10" x="3759" y="1535.9531"/><rect fill="#EBF5FB" height="183.6875" style="stroke:#000000;stroke-width:1.5;" width="1919" x="864" y="585.2344"/><rect fill="#EBF5FB" height="62.5625" style="stroke:none;stroke-width:1.0;" width="1919" x="864" y="706.3594"/><rect fill="#EBF5FB" height="108.125" style="stroke:#000000;stroke-width:1.5;" width="914.5" x="2913.5" y="984.6094"/><rect fill="#EBF5FB" height="108.125" style="stroke:#000000;stroke-width:1.5;" width="914.5" x="2913.5" y="1106.7344"/><rect fill="#EBF5FB" height="108.125" style="stroke:#000000;stroke-width:1.5;" width="914.5" x="2913.5" y="1228.8594"/><rect fill="#EBF5FB" height="108.125" style="stroke:#000000;stroke-width:1.5;" width="914.5" x="2913.5" y="1350.9844"/><rect fill="#EBF5FB" height="108.125" style="stroke:#000000;stroke-width:1.5;" width="914.5" x="2913.5" y="1473.1094"/><rect fill="#EBF5FB" height="343.0938" style="stroke:#000000;stroke-width:1.5;" width="2731.5" x="864" y="1632.5156"/><rect fill="#EBF5FB" height="272.25" style="stroke:none;stroke-width:1.0;" width="2731.5" x="864" y="1703.3594"/><rect fill="#EBF5FB" height="195.6875" style="stroke:#000000;stroke-width:1.5;" width="1839.5" x="1746" y="1735.6406"/><line style="stroke:#181818;stroke-width:0.5;stroke-dasharray:5.0,5.0;" x1="56" x2="56" y1="125.5781" y2="2067.1719"/><line style="stroke:#181818;stroke-width:0.5;stroke-dasharray:5.0,5.0;" x1="507" x2="507" y1="125.5781" y2="2067.1719"/><line style="stroke:#181818;stroke-width:0.5;stroke-dasharray:5.0,5.0;" x1="954" x2="954" y1="125.5781" y2="2067.1719"/><line style="stroke:#181818;stroke-width:0.5;stroke-dasharray:5.0,5.0;" x1="1823" x2="1823" y1="125.5781" y2="2067.1719"/><line style="stroke:#181818;stroke-width:0.5;stroke-dasharray:5.0,5.0;" x1="2312.5" x2="2312.5" y1="125.5781" y2="2067.1719"/><line style="stroke:#181818;stroke-width:0.5;stroke-dasharray:5.0,5.0;" x1="2782.5" x2="2782.5" y1="125.5781" y2="2067.1719"/><line style="stroke:#181818;stroke-width:0.5;stroke-dasharray:5.0,5.0;" x1="3006.5" x2="3006.5" y1="125.5781" y2="2067.1719"/><line style="stroke:#181818;stroke-width:0.5;stroke-dasharray:5.0,5.0;" x1="3168.5" x2="3168.5" y1="125.5781" y2="2067.1719"/><line style="stroke:#181818;stroke-width:0.5;stroke-dasharray:5.0,5.0;" x1="3455.5" x2="3455.5" y1="125.5781" y2="2067.1719"/><line style="stroke:#181818;stroke-width:0.5;stroke-dasharray:5.0,5.0;" x1="3764" x2="3764" y1="125.5781" y2="2067.1719"/><text fill="#000000" font-family="sans-serif" font-size="20" lengthAdjust="spacing" textLength="66" x="20" y="120.8613">Admin</text><ellipse cx="56" cy="50.7969" fill="#E2E2F0" rx="8" ry="8" style="stroke:#181818;stroke-width:0.5;"/><path d="M56,58.7969 L56,85.7969 M43,66.7969 L69,66.7969 M56,85.7969 L43,100.7969 M56,85.7969 L69,100.7969 " fill="none" style="stroke:#181818;stroke-width:0.5;"/><text fill="#000000" font-family="sans-serif" font-size="20" lengthAdjust="spacing" textLength="66" x="20" y="2084.7363">Admin</text><ellipse cx="56" cy="2097.9531" fill="#E2E2F0" rx="8" ry="8" style="stroke:#181818;stroke-width:0.5;"/><path d="M56,2105.9531 L56,2132.9531 M43,2113.9531 L69,2113.9531 M56,2132.9531 L43,2147.9531 M56,2132.9531 L69,2147.9531 " fill="none" style="stroke:#181818;stroke-width:0.5;"/><rect fill="#E2E2F0" height="37.2813" rx="2.5" ry="2.5" style="stroke:#181818;stroke-width:0.5;" width="154" x="430" y="87.2969"/><text fill="#000000" font-family="sans-serif" font-size="20" lengthAdjust="spacing" textLength="140" x="437" y="112.8613">User Interface</text><rect fill="#E2E2F0" height="37.2813" rx="2.5" ry="2.5" style="stroke:#181818;stroke-width:0.5;" width="154" x="430" y="2066.1719"/><text fill="#000000" font-family="sans-serif" font-size="20" lengthAdjust="spacing" textLength="140" x="437" y="2091.7363">User Interface</text><rect fill="#E2E2F0" height="37.2813" rx="2.5" ry="2.5" style="stroke:#181818;stroke-width:0.5;" width="160" x="874" y="87.2969"/><text fill="#000000" font-family="sans-serif" font-size="20" lengthAdjust="spacing" textLength="146" x="881" y="112.8613">StaffController</text><rect fill="#E2E2F0" height="37.2813" rx="2.5" ry="2.5" style="stroke:#181818;stroke-width:0.5;" width="160" x="874" y="2066.1719"/><text fill="#000000" font-family="sans-serif" font-size="20" lengthAdjust="spacing" textLength="146" x="881" y="2091.7363">StaffController</text><rect fill="#E2E2F0" height="37.2813" rx="2.5" ry="2.5" style="stroke:#181818;stroke-width:0.5;" width="134" x="1756" y="87.2969"/><text fill="#000000" font-family="sans-serif" font-size="20" lengthAdjust="spacing" textLength="120" x="1763" y="112.8613">StaffService</text><rect fill="#E2E2F0" height="37.2813" rx="2.5" ry="2.5" style="stroke:#181818;stroke-width:0.5;" width="134" x="1756" y="2066.1719"/><text fill="#000000" font-family="sans-serif" font-size="20" lengthAdjust="spacing" textLength="120" x="1763" y="2091.7363">StaffService</text><rect fill="#E2E2F0" height="37.2813" rx="2.5" ry="2.5" style="stroke:#181818;stroke-width:0.5;" width="173" x="2226.5" y="87.2969"/><text fill="#000000" font-family="sans-serif" font-size="20" lengthAdjust="spacing" textLength="159" x="2233.5" y="112.8613">SearchStaffDTO</text><rect fill="#E2E2F0" height="37.2813" rx="2.5" ry="2.5" style="stroke:#181818;stroke-width:0.5;" width="173" x="2226.5" y="2066.1719"/><text fill="#000000" font-family="sans-serif" font-size="20" lengthAdjust="spacing" textLength="159" x="2233.5" y="2091.7363">SearchStaffDTO</text><rect fill="#E2E2F0" height="37.2813" rx="2.5" ry="2.5" style="stroke:#181818;stroke-width:0.5;" width="261" x="2652.5" y="87.2969"/><text fill="#000000" font-family="sans-serif" font-size="20" lengthAdjust="spacing" textLength="247" x="2659.5" y="112.8613">SpecializationRepository</text><rect fill="#E2E2F0" height="37.2813" rx="2.5" ry="2.5" style="stroke:#181818;stroke-width:0.5;" width="261" x="2652.5" y="2066.1719"/><text fill="#000000" font-family="sans-serif" font-size="20" lengthAdjust="spacing" textLength="247" x="2659.5" y="2091.7363">SpecializationRepository</text><rect fill="#E2E2F0" height="37.2813" rx="2.5" ry="2.5" style="stroke:#181818;stroke-width:0.5;" width="167" x="2923.5" y="87.2969"/><text fill="#000000" font-family="sans-serif" font-size="20" lengthAdjust="spacing" textLength="153" x="2930.5" y="112.8613">StaffRepository</text><rect fill="#E2E2F0" height="37.2813" rx="2.5" ry="2.5" style="stroke:#181818;stroke-width:0.5;" width="167" x="2923.5" y="2066.1719"/><text fill="#000000" font-family="sans-serif" font-size="20" lengthAdjust="spacing" textLength="153" x="2930.5" y="2091.7363">StaffRepository</text><rect fill="#E2E2F0" height="37.2813" rx="2.5" ry="2.5" style="stroke:#181818;stroke-width:0.5;" width="136" x="3100.5" y="87.2969"/><text fill="#000000" font-family="sans-serif" font-size="20" lengthAdjust="spacing" textLength="122" x="3107.5" y="112.8613">StaffMapper</text><rect fill="#E2E2F0" height="37.2813" rx="2.5" ry="2.5" style="stroke:#181818;stroke-width:0.5;" width="136" x="3100.5" y="2066.1719"/><text fill="#000000" font-family="sans-serif" font-size="20" lengthAdjust="spacing" textLength="122" x="3107.5" y="2091.7363">StaffMapper</text><rect fill="#E2E2F0" height="37.2813" rx="2.5" ry="2.5" style="stroke:#181818;stroke-width:0.5;" width="104" x="3403.5" y="87.2969"/><text fill="#000000" font-family="sans-serif" font-size="20" lengthAdjust="spacing" textLength="90" x="3410.5" y="112.8613">StaffDTO</text><rect fill="#E2E2F0" height="37.2813" rx="2.5" ry="2.5" style="stroke:#181818;stroke-width:0.5;" width="104" x="3403.5" y="2066.1719"/><text fill="#000000" font-family="sans-serif" font-size="20" lengthAdjust="spacing" textLength="90" x="3410.5" y="2091.7363">StaffDTO</text><rect fill="#E2E2F0" height="37.2813" rx="2.5" ry="2.5" style="stroke:#181818;stroke-width:0.5;" width="108" x="3710" y="87.2969"/><text fill="#000000" font-family="sans-serif" font-size="20" lengthAdjust="spacing" textLength="94" x="3717" y="112.8613">Database</text><rect fill="#E2E2F0" height="37.2813" rx="2.5" ry="2.5" style="stroke:#181818;stroke-width:0.5;" width="108" x="3710" y="2066.1719"/><text fill="#000000" font-family="sans-serif" font-size="20" lengthAdjust="spacing" textLength="94" x="3717" y="2091.7363">Database</text><rect fill="#FFFFFF" height="1922.5938" style="stroke:#181818;stroke-width:1.0;" width="10" x="51" y="135.5781"/><rect fill="#FFFFFF" height="37.2813" style="stroke:#181818;stroke-width:1.0;" width="10" x="502" y="164.8594"/><rect fill="#FFFFFF" height="1809.75" style="stroke:#181818;stroke-width:1.0;" width="10" x="502" y="239.4219"/><rect fill="#FFFFFF" height="1668.625" style="stroke:#181818;stroke-width:1.0;" width="10" x="949" y="343.2656"/><rect fill="#FFFFFF" height="1832.0313" style="stroke:#181818;stroke-width:1.0;" width="10" x="1818" y="135.5781"/><rect fill="#FFFFFF" height="43.2813" style="stroke:#181818;stroke-width:1.0;" width="10" x="2308" y="648.0781"/><rect fill="#FFFFFF" height="111.8438" style="stroke:#181818;stroke-width:1.0;" width="10" x="2778" y="458.3906"/><rect fill="#FFFFFF" height="812.3125" style="stroke:#181818;stroke-width:1.0;" width="10" x="3002" y="805.2031"/><rect fill="#FFFFFF" height="124.8438" style="stroke:#181818;stroke-width:1.0;" width="10" x="3163.5" y="1798.4844"/><rect fill="#FFFFFF" height="43.2813" style="stroke:#181818;stroke-width:1.0;" width="10" x="3450.5" y="1835.7656"/><rect fill="#FFFFFF" height="37.2813" style="stroke:#181818;stroke-width:1.0;" width="10" x="3759" y="495.6719"/><rect fill="#FFFFFF" height="127.125" style="stroke:#181818;stroke-width:1.0;" width="10" x="3759" y="842.4844"/><rect fill="#FFFFFF" height="37.2813" style="stroke:#181818;stroke-width:1.0;" width="10" x="3759" y="1047.4531"/><rect fill="#FFFFFF" height="37.2813" style="stroke:#181818;stroke-width:1.0;" width="10" x="3759" y="1169.5781"/><rect fill="#FFFFFF" height="37.2813" style="stroke:#181818;stroke-width:1.0;" width="10" x="3759" y="1291.7031"/><rect fill="#FFFFFF" height="37.2813" style="stroke:#181818;stroke-width:1.0;" width="10" x="3759" y="1413.8281"/><rect fill="#FFFFFF" height="37.2813" style="stroke:#181818;stroke-width:1.0;" width="10" x="3759" y="1535.9531"/><polygon fill="#000000" points="490,160.8594,500,164.8594,490,168.8594,494,164.8594" style="stroke:#000000;stroke-width:1.0;"/><line style="stroke:#000000;stroke-width:1.0;" x1="61" x2="496" y1="164.8594" y2="164.8594"/><text fill="#000000" font-family="sans-serif" font-size="20" lengthAdjust="spacing" textLength="238" x="68" y="158.1426">Asks to list staff profiles</text><polygon fill="#000000" points="72,198.1406,62,202.1406,72,206.1406,68,202.1406" style="stroke:#000000;stroke-width:1.0;"/><line style="stroke:#000000;stroke-width:1.0;stroke-dasharray:2.0,2.0;" x1="66" x2="506" y1="202.1406" y2="202.1406"/><text fill="#000000" font-family="sans-serif" font-size="20" lengthAdjust="spacing" textLength="417" x="78" y="195.4238">Asks for the data to filter the staff profiles</text><polygon fill="#000000" points="490,235.4219,500,239.4219,490,243.4219,494,239.4219" style="stroke:#000000;stroke-width:1.0;"/><line style="stroke:#000000;stroke-width:1.0;" x1="61" x2="496" y1="239.4219" y2="239.4219"/><text fill="#000000" font-family="sans-serif" font-size="20" lengthAdjust="spacing" textLength="399" x="68" y="232.7051">Sends the data to filter the staff profiles</text><path d="M517,252.4219 L517,308.4219 L1182,308.4219 L1182,262.4219 L1172,252.4219 L517,252.4219 " fill="#FEFFDD" style="stroke:#181818;stroke-width:0.5;"/><path d="M1172,252.4219 L1172,262.4219 L1182,262.4219 L1172,252.4219 " fill="#FEFFDD" style="stroke:#181818;stroke-width:0.5;"/><text fill="#000000" font-family="sans-serif" font-size="20" lengthAdjust="spacing" textLength="638" x="523" y="275.9863">The data can be First Name and/or Last Name and/or Full Name</text><text fill="#000000" font-family="sans-serif" font-size="20" lengthAdjust="spacing" textLength="411" x="529" y="299.2676">and/or Email and/or Specialization Name</text><polygon fill="#000000" points="937,339.2656,947,343.2656,937,347.2656,941,343.2656" style="stroke:#000000;stroke-width:1.0;"/><line style="stroke:#000000;stroke-width:1.0;" x1="512" x2="943" y1="343.2656" y2="343.2656"/><text fill="#000000" font-family="sans-serif" font-size="20" lengthAdjust="spacing" textLength="400" x="519" y="336.5488">searchStaffProfiles(SearchStaffDTO dto)</text><polygon fill="#000000" points="1806,376.5469,1816,380.5469,1806,384.5469,1810,380.5469" style="stroke:#000000;stroke-width:1.0;"/><line style="stroke:#000000;stroke-width:1.0;" x1="959" x2="1812" y1="380.5469" y2="380.5469"/><text fill="#000000" font-family="sans-serif" font-size="20" lengthAdjust="spacing" textLength="400" x="966" y="373.8301">searchStaffProfiles(SearchStaffDTO dto)</text><polygon fill="#000000" points="2766,454.3906,2776,458.3906,2766,462.3906,2770,458.3906" style="stroke:#000000;stroke-width:1.0;"/><line style="stroke:#000000;stroke-width:1.0;" x1="1828" x2="2772" y1="458.3906" y2="458.3906"/><text fill="#000000" font-family="sans-serif" font-size="20" lengthAdjust="spacing" textLength="580" x="1835" y="451.6738">GetSpecIdByOptionAsync(dto.SpecializationName).Result</text><polygon fill="#000000" points="3747,491.6719,3757,495.6719,3747,499.6719,3751,495.6719" style="stroke:#000000;stroke-width:1.0;"/><line style="stroke:#000000;stroke-width:1.0;" x1="2788" x2="3753" y1="495.6719" y2="495.6719"/><text fill="#000000" font-family="sans-serif" font-size="20" lengthAdjust="spacing" textLength="873" x="2795" y="488.9551">_objs.Where(x =&gt; x.SpecOption.ToLower() == option.ToLower()).FirstOrDefaultAsync()</text><polygon fill="#000000" points="2799,528.9531,2789,532.9531,2799,536.9531,2795,532.9531" style="stroke:#000000;stroke-width:1.0;"/><line style="stroke:#000000;stroke-width:1.0;stroke-dasharray:2.0,2.0;" x1="2793" x2="3763" y1="532.9531" y2="532.9531"/><text fill="#000000" font-family="sans-serif" font-size="20" lengthAdjust="spacing" textLength="206" x="2805" y="526.2363">return specialization</text><polygon fill="#000000" points="1839,566.2344,1829,570.2344,1839,574.2344,1835,570.2344" style="stroke:#000000;stroke-width:1.0;"/><line style="stroke:#000000;stroke-width:1.0;stroke-dasharray:2.0,2.0;" x1="1833" x2="2782" y1="570.2344" y2="570.2344"/><text fill="#000000" font-family="sans-serif" font-size="20" lengthAdjust="spacing" textLength="206" x="1845" y="563.5176">return specialization</text><path d="M864,585.2344 L940,585.2344 L940,600.5156 L930,610.5156 L864,610.5156 L864,585.2344 " fill="#EEEEEE" style="stroke:#000000;stroke-width:1.5;"/><rect fill="none" height="183.6875" style="stroke:#000000;stroke-width:1.5;" width="1919" x="864" y="585.2344"/><text fill="#000000" font-family="sans-serif" font-size="20" font-weight="bold" lengthAdjust="spacing" textLength="31" x="879" y="604.7988">alt</text><text fill="#000000" font-family="sans-serif" font-size="20" font-weight="bold" lengthAdjust="spacing" textLength="296" x="955" y="605.7988">[specialization is not null]</text><polygon fill="#000000" points="2296,644.0781,2306,648.0781,2296,652.0781,2300,648.0781" style="stroke:#000000;stroke-width:1.0;"/><line style="stroke:#000000;stroke-width:1.0;" x1="1828" x2="2302" y1="648.0781" y2="648.0781"/><text fill="#000000" font-family="sans-serif" font-size="20" lengthAdjust="spacing" textLength="466" x="1835" y="641.3613">SetSpecializationId(specialization.Id.AsGuid())</text><line style="stroke:#000000;stroke-width:1.0;" x1="2318" x2="2360" y1="690.3594" y2="690.3594"/><line style="stroke:#000000;stroke-width:1.0;" x1="2360" x2="2360" y1="690.3594" y2="703.3594"/><line style="stroke:#000000;stroke-width:1.0;" x1="2313" x2="2360" y1="703.3594" y2="703.3594"/><polygon fill="#000000" points="2323,699.3594,2313,703.3594,2323,707.3594,2319,703.3594" style="stroke:#000000;stroke-width:1.0;"/><text fill="#000000" font-family="sans-serif" font-size="20" lengthAdjust="spacing" textLength="446" x="2325" y="683.6426">SpecializationId = specialization.Id.AsGuid()</text><line style="stroke:#000000;stroke-width:1.0;stroke-dasharray:2.0,2.0;" x1="864" x2="2783" y1="707.3594" y2="707.3594"/><text fill="#000000" font-family="sans-serif" font-size="20" font-weight="bold" lengthAdjust="spacing" textLength="251" x="869" y="725.9238">[specialization is null]</text><polygon fill="#000000" points="970,756.9219,960,760.9219,970,764.9219,966,760.9219" style="stroke:#000000;stroke-width:1.0;"/><line style="stroke:#000000;stroke-width:1.0;stroke-dasharray:2.0,2.0;" x1="964" x2="1817" y1="760.9219" y2="760.9219"/><text fill="#000000" font-family="sans-serif" font-size="20" lengthAdjust="spacing" textLength="840" x="976" y="754.2051">throw BusinessRuleValidationException("Specialization with this name not found.")</text><polygon fill="#000000" points="2990,801.2031,3000,805.2031,2990,809.2031,2994,805.2031" style="stroke:#000000;stroke-width:1.0;"/><line style="stroke:#000000;stroke-width:1.0;" x1="1828" x2="2996" y1="805.2031" y2="805.2031"/><text fill="#000000" font-family="sans-serif" font-size="20" lengthAdjust="spacing" textLength="221" x="1835" y="798.4863">searchStaffAsync(dto)</text><polygon fill="#000000" points="3747,838.4844,3757,842.4844,3747,846.4844,3751,842.4844" style="stroke:#000000;stroke-width:1.0;"/><line style="stroke:#000000;stroke-width:1.0;" x1="3012" x2="3753" y1="842.4844" y2="842.4844"/><text fill="#000000" font-family="sans-serif" font-size="20" lengthAdjust="spacing" textLength="200" x="3019" y="835.7676">_objs.AsQueryable()</text><path d="M3774,855.4844 L3774,934.4844 L4296,934.4844 L4296,865.4844 L4286,855.4844 L3774,855.4844 " fill="#FEFFDD" style="stroke:#181818;stroke-width:0.5;"/><path d="M4286,855.4844 L4286,865.4844 L4296,865.4844 L4286,855.4844 " fill="#FEFFDD" style="stroke:#181818;stroke-width:0.5;"/><text fill="#000000" font-family="sans-serif" font-size="20" lengthAdjust="spacing" textLength="501" x="3780" y="879.0488">This will return a queryable list of all staff profiles.</text><text fill="#000000" font-family="sans-serif" font-size="20" lengthAdjust="spacing" textLength="459" x="3780" y="902.3301">This means that other queries can be chained</text><text fill="#000000" font-family="sans-serif" font-size="20" lengthAdjust="spacing" textLength="444" x="3780" y="925.6113">to this one in order to filter the staff profiles.</text><polygon fill="#000000" points="3023,965.6094,3013,969.6094,3023,973.6094,3019,969.6094" style="stroke:#000000;stroke-width:1.0;"/><line style="stroke:#000000;stroke-width:1.0;stroke-dasharray:2.0,2.0;" x1="3017" x2="3763" y1="969.6094" y2="969.6094"/><text fill="#000000" font-family="sans-serif" font-size="20" lengthAdjust="spacing" textLength="444" x="3029" y="962.8926">Returns the queryable list of all staff profiles</text><path d="M2913.5,984.6094 L2996.5,984.6094 L2996.5,999.8906 L2986.5,1009.8906 L2913.5,1009.8906 L2913.5,984.6094 " fill="#EEEEEE" style="stroke:#000000;stroke-width:1.5;"/><rect fill="none" height="108.125" style="stroke:#000000;stroke-width:1.5;" width="914.5" x="2913.5" y="984.6094"/><text fill="#000000" font-family="sans-serif" font-size="20" font-weight="bold" lengthAdjust="spacing" textLength="38" x="2928.5" y="1004.1738">opt</text><text fill="#000000" font-family="sans-serif" font-size="20" font-weight="bold" lengthAdjust="spacing" textLength="368" x="3011.5" y="1005.1738">[Filter queryable by First Name]</text><polygon fill="#000000" points="3747,1043.4531,3757,1047.4531,3747,1051.4531,3751,1047.4531" style="stroke:#000000;stroke-width:1.0;"/><line style="stroke:#000000;stroke-width:1.0;" x1="3012" x2="3753" y1="1047.4531" y2="1047.4531"/><text fill="#000000" font-family="sans-serif" font-size="20" lengthAdjust="spacing" textLength="571" x="3019" y="1040.7363">query.Where(s =&gt; s.FirstName.Contains(dto.FirstName))</text><polygon fill="#000000" points="3023,1080.7344,3013,1084.7344,3023,1088.7344,3019,1084.7344" style="stroke:#000000;stroke-width:1.0;"/><line style="stroke:#000000;stroke-width:1.0;stroke-dasharray:2.0,2.0;" x1="3017" x2="3763" y1="1084.7344" y2="1084.7344"/><text fill="#000000" font-family="sans-serif" font-size="20" lengthAdjust="spacing" textLength="637" x="3029" y="1078.0176">Returns the queryable list of staff profiles filtered by First Name</text><path d="M2913.5,1106.7344 L2996.5,1106.7344 L2996.5,1122.0156 L2986.5,1132.0156 L2913.5,1132.0156 L2913.5,1106.7344 " fill="#EEEEEE" style="stroke:#000000;stroke-width:1.5;"/><rect fill="none" height="108.125" style="stroke:#000000;stroke-width:1.5;" width="914.5" x="2913.5" y="1106.7344"/><text fill="#000000" font-family="sans-serif" font-size="20" font-weight="bold" lengthAdjust="spacing" textLength="38" x="2928.5" y="1126.2988">opt</text><text fill="#000000" font-family="sans-serif" font-size="20" font-weight="bold" lengthAdjust="spacing" textLength="364" x="3011.5" y="1127.2988">[Filter queryable by Last Name]</text><polygon fill="#000000" points="3747,1165.5781,3757,1169.5781,3747,1173.5781,3751,1169.5781" style="stroke:#000000;stroke-width:1.0;"/><line style="stroke:#000000;stroke-width:1.0;" x1="3012" x2="3753" y1="1169.5781" y2="1169.5781"/><text fill="#000000" font-family="sans-serif" font-size="20" lengthAdjust="spacing" textLength="565" x="3019" y="1162.8613">query.Where(s =&gt; s.LastName.Contains(dto.LastName))</text><polygon fill="#000000" points="3023,1202.8594,3013,1206.8594,3023,1210.8594,3019,1206.8594" style="stroke:#000000;stroke-width:1.0;"/><line style="stroke:#000000;stroke-width:1.0;stroke-dasharray:2.0,2.0;" x1="3017" x2="3763" y1="1206.8594" y2="1206.8594"/><text fill="#000000" font-family="sans-serif" font-size="20" lengthAdjust="spacing" textLength="634" x="3029" y="1200.1426">Returns the queryable list of staff profiles filtered by Last Name</text><path d="M2913.5,1228.8594 L2996.5,1228.8594 L2996.5,1244.1406 L2986.5,1254.1406 L2913.5,1254.1406 L2913.5,1228.8594 " fill="#EEEEEE" style="stroke:#000000;stroke-width:1.5;"/><rect fill="none" height="108.125" style="stroke:#000000;stroke-width:1.5;" width="914.5" x="2913.5" y="1228.8594"/><text fill="#000000" font-family="sans-serif" font-size="20" font-weight="bold" lengthAdjust="spacing" textLength="38" x="2928.5" y="1248.4238">opt</text><text fill="#000000" font-family="sans-serif" font-size="20" font-weight="bold" lengthAdjust="spacing" textLength="357" x="3011.5" y="1249.4238">[Filter queryable by Full Name]</text><polygon fill="#000000" points="3747,1287.7031,3757,1291.7031,3747,1295.7031,3751,1291.7031" style="stroke:#000000;stroke-width:1.0;"/><line style="stroke:#000000;stroke-width:1.0;" x1="3012" x2="3753" y1="1291.7031" y2="1291.7031"/><text fill="#000000" font-family="sans-serif" font-size="20" lengthAdjust="spacing" textLength="557" x="3019" y="1284.9863">query.Where(s =&gt; s.FullName.Contains(dto.FullName))</text><polygon fill="#000000" points="3023,1324.9844,3013,1328.9844,3023,1332.9844,3019,1328.9844" style="stroke:#000000;stroke-width:1.0;"/><line style="stroke:#000000;stroke-width:1.0;stroke-dasharray:2.0,2.0;" x1="3017" x2="3763" y1="1328.9844" y2="1328.9844"/><text fill="#000000" font-family="sans-serif" font-size="20" lengthAdjust="spacing" textLength="630" x="3029" y="1322.2676">Returns the queryable list of staff profiles filtered by Full Name</text><path d="M2913.5,1350.9844 L2996.5,1350.9844 L2996.5,1366.2656 L2986.5,1376.2656 L2913.5,1376.2656 L2913.5,1350.9844 " fill="#EEEEEE" style="stroke:#000000;stroke-width:1.5;"/><rect fill="none" height="108.125" style="stroke:#000000;stroke-width:1.5;" width="914.5" x="2913.5" y="1350.9844"/><text fill="#000000" font-family="sans-serif" font-size="20" font-weight="bold" lengthAdjust="spacing" textLength="38" x="2928.5" y="1370.5488">opt</text><text fill="#000000" font-family="sans-serif" font-size="20" font-weight="bold" lengthAdjust="spacing" textLength="305" x="3011.5" y="1371.5488">[Filter queryable by Email]</text><polygon fill="#000000" points="3747,1409.8281,3757,1413.8281,3747,1417.8281,3751,1413.8281" style="stroke:#000000;stroke-width:1.0;"/><line style="stroke:#000000;stroke-width:1.0;" x1="3012" x2="3753" y1="1413.8281" y2="1413.8281"/><text fill="#000000" font-family="sans-serif" font-size="20" lengthAdjust="spacing" textLength="479" x="3019" y="1407.1113">query.Where(s =&gt; s.Email.Contains(dto.Email))</text><polygon fill="#000000" points="3023,1447.1094,3013,1451.1094,3023,1455.1094,3019,1451.1094" style="stroke:#000000;stroke-width:1.0;"/><line style="stroke:#000000;stroke-width:1.0;stroke-dasharray:2.0,2.0;" x1="3017" x2="3763" y1="1451.1094" y2="1451.1094"/><text fill="#000000" font-family="sans-serif" font-size="20" lengthAdjust="spacing" textLength="585" x="3029" y="1444.3926">Returns the queryable list of staff profiles filtered by Email</text><path d="M2913.5,1473.1094 L2996.5,1473.1094 L2996.5,1488.3906 L2986.5,1498.3906 L2913.5,1498.3906 L2913.5,1473.1094 " fill="#EEEEEE" style="stroke:#000000;stroke-width:1.5;"/><rect fill="none" height="108.125" style="stroke:#000000;stroke-width:1.5;" width="914.5" x="2913.5" y="1473.1094"/><text fill="#000000" font-family="sans-serif" font-size="20" font-weight="bold" lengthAdjust="spacing" textLength="38" x="2928.5" y="1492.6738">opt</text><text fill="#000000" font-family="sans-serif" font-size="20" font-weight="bold" lengthAdjust="spacing" textLength="423" x="3011.5" y="1493.6738">[Filter queryable by SpecializationId]</text><polygon fill="#000000" points="3747,1531.9531,3757,1535.9531,3747,1539.9531,3751,1535.9531" style="stroke:#000000;stroke-width:1.0;"/><line style="stroke:#000000;stroke-width:1.0;" x1="3012" x2="3753" y1="1535.9531" y2="1535.9531"/><text fill="#000000" font-family="sans-serif" font-size="20" lengthAdjust="spacing" textLength="728" x="3019" y="1529.2363">query.Where(s =&gt; s.SpecializationId.ToString() == dto.SpecializationId)</text><polygon fill="#000000" points="3023,1569.2344,3013,1573.2344,3023,1577.2344,3019,1573.2344" style="stroke:#000000;stroke-width:1.0;"/><line style="stroke:#000000;stroke-width:1.0;stroke-dasharray:2.0,2.0;" x1="3017" x2="3763" y1="1573.2344" y2="1573.2344"/><text fill="#000000" font-family="sans-serif" font-size="20" lengthAdjust="spacing" textLength="688" x="3029" y="1566.5176">Returns the queryable list of staff profiles filtered by SpecializationId</text><polygon fill="#000000" points="1839,1613.5156,1829,1617.5156,1839,1621.5156,1835,1617.5156" style="stroke:#000000;stroke-width:1.0;"/><line style="stroke:#000000;stroke-width:1.0;stroke-dasharray:2.0,2.0;" x1="1833" x2="3006" y1="1617.5156" y2="1617.5156"/><text fill="#000000" font-family="sans-serif" font-size="20" lengthAdjust="spacing" textLength="358" x="1845" y="1610.7988">Returns the final list of staff profiles</text><path d="M864,1632.5156 L940,1632.5156 L940,1647.7969 L930,1657.7969 L864,1657.7969 L864,1632.5156 " fill="#EEEEEE" style="stroke:#000000;stroke-width:1.5;"/><rect fill="none" height="343.0938" style="stroke:#000000;stroke-width:1.5;" width="2731.5" x="864" y="1632.5156"/><text fill="#000000" font-family="sans-serif" font-size="20" font-weight="bold" lengthAdjust="spacing" textLength="31" x="879" y="1652.0801">alt</text><text fill="#000000" font-family="sans-serif" font-size="20" font-weight="bold" lengthAdjust="spacing" textLength="239" x="955" y="1653.0801">[list is null or empty]</text><polygon fill="#000000" points="970,1691.3594,960,1695.3594,970,1699.3594,966,1695.3594" style="stroke:#000000;stroke-width:1.0;"/><line style="stroke:#000000;stroke-width:1.0;stroke-dasharray:2.0,2.0;" x1="964" x2="1817" y1="1695.3594" y2="1695.3594"/><text fill="#000000" font-family="sans-serif" font-size="20" lengthAdjust="spacing" textLength="122" x="976" y="1688.6426">Returns null</text><line style="stroke:#000000;stroke-width:1.0;stroke-dasharray:2.0,2.0;" x1="864" x2="3595.5" y1="1704.3594" y2="1704.3594"/><text fill="#000000" font-family="sans-serif" font-size="20" font-weight="bold" lengthAdjust="spacing" textLength="174" x="869" y="1722.9238">[list is not null]</text><path d="M1746,1735.6406 L1840,1735.6406 L1840,1750.9219 L1830,1760.9219 L1746,1760.9219 L1746,1735.6406 " fill="#EEEEEE" style="stroke:#000000;stroke-width:1.5;"/><rect fill="none" height="195.6875" style="stroke:#000000;stroke-width:1.5;" width="1839.5" x="1746" y="1735.6406"/><text fill="#000000" font-family="sans-serif" font-size="20" font-weight="bold" lengthAdjust="spacing" textLength="49" x="1761" y="1755.2051">loop</text><text fill="#000000" font-family="sans-serif" font-size="20" font-weight="bold" lengthAdjust="spacing" textLength="289" x="1855" y="1756.2051">[for each staff in the list]</text><polygon fill="#000000" points="3151.5,1794.4844,3161.5,1798.4844,3151.5,1802.4844,3155.5,1798.4844" style="stroke:#000000;stroke-width:1.0;"/><line style="stroke:#000000;stroke-width:1.0;" x1="1828" x2="3157.5" y1="1798.4844" y2="1798.4844"/><text fill="#000000" font-family="sans-serif" font-size="20" lengthAdjust="spacing" textLength="123" x="1835" y="1791.7676">toDTO(staff)</text><polygon fill="#000000" points="3438.5,1831.7656,3448.5,1835.7656,3438.5,1839.7656,3442.5,1835.7656" style="stroke:#000000;stroke-width:1.0;"/><line style="stroke:#000000;stroke-width:1.0;" x1="3173.5" x2="3444.5" y1="1835.7656" y2="1835.7656"/><text fill="#000000" font-family="sans-serif" font-size="20" lengthAdjust="spacing" textLength="258" x="3180.5" y="1829.0488">new StaffDTO(staff fields)</text><line style="stroke:#000000;stroke-width:1.0;" x1="3460.5" x2="3502.5" y1="1878.0469" y2="1878.0469"/><line style="stroke:#000000;stroke-width:1.0;" x1="3502.5" x2="3502.5" y1="1878.0469" y2="1891.0469"/><line style="stroke:#000000;stroke-width:1.0;" x1="3455.5" x2="3502.5" y1="1891.0469" y2="1891.0469"/><polygon fill="#000000" points="3465.5,1887.0469,3455.5,1891.0469,3465.5,1895.0469,3461.5,1891.0469" style="stroke:#000000;stroke-width:1.0;"/><text fill="#000000" font-family="sans-serif" font-size="20" lengthAdjust="spacing" textLength="106" x="3467.5" y="1871.3301">StaffDTO()</text><polygon fill="#000000" points="1839,1919.3281,1829,1923.3281,1839,1927.3281,1835,1923.3281" style="stroke:#000000;stroke-width:1.0;"/><line style="stroke:#000000;stroke-width:1.0;stroke-dasharray:2.0,2.0;" x1="1833" x2="3167.5" y1="1923.3281" y2="1923.3281"/><text fill="#000000" font-family="sans-serif" font-size="20" lengthAdjust="spacing" textLength="213" x="1845" y="1916.6113">Returns the StaffDTO</text><polygon fill="#000000" points="970,1963.6094,960,1967.6094,970,1971.6094,966,1967.6094" style="stroke:#000000;stroke-width:1.0;"/><line style="stroke:#000000;stroke-width:1.0;stroke-dasharray:2.0,2.0;" x1="964" x2="1822" y1="1967.6094" y2="1967.6094"/><text fill="#000000" font-family="sans-serif" font-size="20" lengthAdjust="spacing" textLength="284" x="976" y="1960.8926">Returns the list of StaffDTOs</text><polygon fill="#000000" points="523,2007.8906,513,2011.8906,523,2015.8906,519,2011.8906" style="stroke:#000000;stroke-width:1.0;"/><line style="stroke:#000000;stroke-width:1.0;stroke-dasharray:2.0,2.0;" x1="517" x2="953" y1="2011.8906" y2="2011.8906"/><text fill="#000000" font-family="sans-serif" font-size="20" lengthAdjust="spacing" textLength="413" x="529" y="2005.1738">Returns Operation Status Response Code</text><polygon fill="#000000" points="72,2045.1719,62,2049.1719,72,2053.1719,68,2049.1719" style="stroke:#000000;stroke-width:1.0;"/><line style="stroke:#000000;stroke-width:1.0;stroke-dasharray:2.0,2.0;" x1="66" x2="506" y1="2049.1719" y2="2049.1719"/><text fill="#000000" font-family="sans-serif" font-size="20" lengthAdjust="spacing" textLength="391" x="78" y="2042.4551">Returns Operation In/Success message</text><!--SRC=[jLTDR-Cs4BthLmooXzg7QBTRz2lO6B0iUs4WQLehQIy12beQnzpGf4hIIRn5_tk7fAL8ihBn9Jd5v7l3UJF36ShSSraopJP2vVTOG84hjXLsfgJD-5U4Zn-Yo78h42xm0GNy02bdTuI7bTAG8TFvciixo2nRhU1thLPSe8cYDIyGS5FQ7MnmiqHjekzCTHPSS8bsLo8eRTSgYfvtSi6CWNyZeB-4vVTtMcrbCL52wK-V7fZOujNo2-PsD89twK_JyUoNVgXMocDcwJH9F_HZ3Ee7dgCtzVtiupJfWv69wUpNwSz-RworUWpBYI1Sz5_Jzv9Ms1tsUm_lfidinrdYA2otj30kDbm2Cp2EY6zvpaicBPpSa5ymbnRrYkLuuX0typR4Htj2ET9A2DGUC-c1P46Xtyyw-pvr7fLUNmK4_TC1bPXp9lXNPhcI2ooLuUJwpiCNMS-9NKmFv9ALvTxdovxjofkqlPSoovRC12rfueF87vX52jyOJaSKepCOcti3Le7WneBn9LbM9LdZAPWtSpWbodZFSALirmW5dU7eHA3e-wMEaGARPkfpCvI5ETA4L4JM_6vjGQqy-xhYvKp24c76DRd_6ziWC5cy9-SkM6TXjXKYBDpAQcswOLnKFzgPyz2328nWSWRckGwgspjermOKLWsVoPDeugZPyLHLMlTFtFR9UyyDK3n0aXn_QJ9dUa6sFwDry7cHxAvA1n-RdSm7_MQ6yG8DTIrledQKwjFzNdYRQN86Vwlb5nF_jKQDWoSu7y6JjnNinzVgGZsY7WpX_1nKPsqO-wHSwJJqn-3Di7rW6Xf8clZYSYeqsgsMO5eUUr2ZaFOqvsU8wr4iKXTE5xQ3F0Xg7LXtmLsnsdO8vyMWRI6U5_7OVDxoWfJN9kgZVP-e3TEFqz7USiSidCFBXciB3L6rPHG6-sHr98KIjclgof1i3KqLOnPRWNyIg_2iwLEEFfU3JZE3HsxNH7LMNIMwYArSjuvFXX5TvqQ3oQ9GbgsAh-knSJKMqQ9TQsFpnnRrZYq53XeuodYx2pZ6jNFbaTEztkUVmJyLEJGq0ZBQRlUJ-5PwvWQPT2s84OwwZlPaZgPgAlcQKNYAMqdDoQjMagwVf0bSk3xrZOuLHrL5dy72knPQtJ7UHUqwTvrW5ivvPYztZOuNha8LHG_QtrZZRgm9zz0XOpV_I9FnJQ5U7dxxKhuceUt-FYZqBZfqigtCLSnBwkhk_QeuXppKLgs-dRIsXyShgyVGwsaZP4_MzgjlcBIMXyShyyFqLLKUrPRabzvEpxDVnslfjkLNPNK9D0Spg-cP7uRZuH2U5syckDVvG-sBQdWs3rfnoSGBXpGxqo9oKzJZzaE6scBuUebQawOoxkUGdr4rgJbmXLAbVrJI4UlzkTHgdKiEtnxAbpJ05CszWSVrZDlBUkdIv-mC93v2zSGAD9AAeZ0zxBHUIlVicjaxWjFcQOSXhSXzrE2eoqPlq2hvBXUL6TDDP-QpEV5SzpQko5VqoH3cDb7jbhuiq9HAKWOcgi1cCYUDr_qXUoxVPziyftS2JKnZw7EjywR_7m00]--></g></svg>