<?xml version="1.0" encoding="UTF-8" standalone="no"?><svg xmlns="http://www.w3.org/2000/svg" xmlns:xlink="http://www.w3.org/1999/xlink" contentStyleType="text/css" height="1767px" preserveAspectRatio="none" style="width:3056px;height:1767px;background:#FFFFFF;" version="1.1" viewBox="0 0 3056 1767" width="3056px" zoomAndPan="magnify"><defs/><g><text fill="#000000" font-family="sans-serif" font-size="14" font-weight="bold" lengthAdjust="spacing" textLength="345" x="1354" y="27.9951">Level 3 Diagram for Searching Staff Profiles</text><rect fill="#FFFFFF" height="1535.2188" style="stroke:#181818;stroke-width:1.0;" width="10" x="36" y="135.5781"/><rect fill="#FFFFFF" height="37.2813" style="stroke:#181818;stroke-width:1.0;" width="10" x="487" y="164.8594"/><rect fill="#FFFFFF" height="1422.375" style="stroke:#181818;stroke-width:1.0;" width="10" x="487" y="239.4219"/><rect fill="#FFFFFF" height="1281.25" style="stroke:#181818;stroke-width:1.0;" width="10" x="934" y="343.2656"/><rect fill="#FFFFFF" height="1199.6875" style="stroke:#181818;stroke-width:1.0;" width="10" x="1363" y="380.5469"/><rect fill="#FFFFFF" height="812.3125" style="stroke:#181818;stroke-width:1.0;" width="10" x="1755" y="417.8281"/><rect fill="#FFFFFF" height="124.8438" style="stroke:#181818;stroke-width:1.0;" width="10" x="1916.5" y="1411.1094"/><rect fill="#FFFFFF" height="43.2813" style="stroke:#181818;stroke-width:1.0;" width="10" x="2203.5" y="1448.3906"/><rect fill="#FFFFFF" height="127.125" style="stroke:#181818;stroke-width:1.0;" width="10" x="2512" y="455.1094"/><rect fill="#FFFFFF" height="37.2813" style="stroke:#181818;stroke-width:1.0;" width="10" x="2512" y="660.0781"/><rect fill="#FFFFFF" height="37.2813" style="stroke:#181818;stroke-width:1.0;" width="10" x="2512" y="782.2031"/><rect fill="#FFFFFF" height="37.2813" style="stroke:#181818;stroke-width:1.0;" width="10" x="2512" y="904.3281"/><rect fill="#FFFFFF" height="37.2813" style="stroke:#181818;stroke-width:1.0;" width="10" x="2512" y="1026.4531"/><rect fill="#FFFFFF" height="37.2813" style="stroke:#181818;stroke-width:1.0;" width="10" x="2512" y="1148.5781"/><rect fill="#EBF5FB" height="108.125" style="stroke:#000000;stroke-width:1.5;" width="914.5" x="1666.5" y="597.2344"/><rect fill="#EBF5FB" height="108.125" style="stroke:#000000;stroke-width:1.5;" width="914.5" x="1666.5" y="719.3594"/><rect fill="#EBF5FB" height="108.125" style="stroke:#000000;stroke-width:1.5;" width="914.5" x="1666.5" y="841.4844"/><rect fill="#EBF5FB" height="108.125" style="stroke:#000000;stroke-width:1.5;" width="914.5" x="1666.5" y="963.6094"/><rect fill="#EBF5FB" height="108.125" style="stroke:#000000;stroke-width:1.5;" width="914.5" x="1666.5" y="1085.7344"/><rect fill="#EBF5FB" height="343.0938" style="stroke:#000000;stroke-width:1.5;" width="1499.5" x="849" y="1245.1406"/><rect fill="#EBF5FB" height="272.25" style="stroke:none;stroke-width:1.0;" width="1499.5" x="849" y="1315.9844"/><rect fill="#EBF5FB" height="195.6875" style="stroke:#000000;stroke-width:1.5;" width="1047.5" x="1291" y="1348.2656"/><line style="stroke:#181818;stroke-width:0.5;stroke-dasharray:5.0,5.0;" x1="41" x2="41" y1="125.5781" y2="1679.7969"/><line style="stroke:#181818;stroke-width:0.5;stroke-dasharray:5.0,5.0;" x1="492" x2="492" y1="125.5781" y2="1679.7969"/><line style="stroke:#181818;stroke-width:0.5;stroke-dasharray:5.0,5.0;" x1="939" x2="939" y1="125.5781" y2="1679.7969"/><line style="stroke:#181818;stroke-width:0.5;stroke-dasharray:5.0,5.0;" x1="1368" x2="1368" y1="125.5781" y2="1679.7969"/><line style="stroke:#181818;stroke-width:0.5;stroke-dasharray:5.0,5.0;" x1="1759.5" x2="1759.5" y1="125.5781" y2="1679.7969"/><line style="stroke:#181818;stroke-width:0.5;stroke-dasharray:5.0,5.0;" x1="1921.5" x2="1921.5" y1="125.5781" y2="1679.7969"/><line style="stroke:#181818;stroke-width:0.5;stroke-dasharray:5.0,5.0;" x1="2208.5" x2="2208.5" y1="125.5781" y2="1679.7969"/><line style="stroke:#181818;stroke-width:0.5;stroke-dasharray:5.0,5.0;" x1="2517" x2="2517" y1="125.5781" y2="1679.7969"/><text fill="#000000" font-family="sans-serif" font-size="20" lengthAdjust="spacing" textLength="66" x="5" y="120.8613">Admin</text><ellipse cx="41" cy="50.7969" fill="#E2E2F0" rx="8" ry="8" style="stroke:#181818;stroke-width:0.5;"/><path d="M41,58.7969 L41,85.7969 M28,66.7969 L54,66.7969 M41,85.7969 L28,100.7969 M41,85.7969 L54,100.7969 " fill="none" style="stroke:#181818;stroke-width:0.5;"/><text fill="#000000" font-family="sans-serif" font-size="20" lengthAdjust="spacing" textLength="66" x="5" y="1697.3613">Admin</text><ellipse cx="41" cy="1710.5781" fill="#E2E2F0" rx="8" ry="8" style="stroke:#181818;stroke-width:0.5;"/><path d="M41,1718.5781 L41,1745.5781 M28,1726.5781 L54,1726.5781 M41,1745.5781 L28,1760.5781 M41,1745.5781 L54,1760.5781 " fill="none" style="stroke:#181818;stroke-width:0.5;"/><rect fill="#E2E2F0" height="37.2813" rx="2.5" ry="2.5" style="stroke:#181818;stroke-width:0.5;" width="154" x="415" y="87.2969"/><text fill="#000000" font-family="sans-serif" font-size="20" lengthAdjust="spacing" textLength="140" x="422" y="112.8613">User Interface</text><rect fill="#E2E2F0" height="37.2813" rx="2.5" ry="2.5" style="stroke:#181818;stroke-width:0.5;" width="154" x="415" y="1678.7969"/><text fill="#000000" font-family="sans-serif" font-size="20" lengthAdjust="spacing" textLength="140" x="422" y="1704.3613">User Interface</text><rect fill="#E2E2F0" height="37.2813" rx="2.5" ry="2.5" style="stroke:#181818;stroke-width:0.5;" width="160" x="859" y="87.2969"/><text fill="#000000" font-family="sans-serif" font-size="20" lengthAdjust="spacing" textLength="146" x="866" y="112.8613">StaffController</text><rect fill="#E2E2F0" height="37.2813" rx="2.5" ry="2.5" style="stroke:#181818;stroke-width:0.5;" width="160" x="859" y="1678.7969"/><text fill="#000000" font-family="sans-serif" font-size="20" lengthAdjust="spacing" textLength="146" x="866" y="1704.3613">StaffController</text><rect fill="#E2E2F0" height="37.2813" rx="2.5" ry="2.5" style="stroke:#181818;stroke-width:0.5;" width="134" x="1301" y="87.2969"/><text fill="#000000" font-family="sans-serif" font-size="20" lengthAdjust="spacing" textLength="120" x="1308" y="112.8613">StaffService</text><rect fill="#E2E2F0" height="37.2813" rx="2.5" ry="2.5" style="stroke:#181818;stroke-width:0.5;" width="134" x="1301" y="1678.7969"/><text fill="#000000" font-family="sans-serif" font-size="20" lengthAdjust="spacing" textLength="120" x="1308" y="1704.3613">StaffService</text><rect fill="#E2E2F0" height="37.2813" rx="2.5" ry="2.5" style="stroke:#181818;stroke-width:0.5;" width="167" x="1676.5" y="87.2969"/><text fill="#000000" font-family="sans-serif" font-size="20" lengthAdjust="spacing" textLength="153" x="1683.5" y="112.8613">StaffRepository</text><rect fill="#E2E2F0" height="37.2813" rx="2.5" ry="2.5" style="stroke:#181818;stroke-width:0.5;" width="167" x="1676.5" y="1678.7969"/><text fill="#000000" font-family="sans-serif" font-size="20" lengthAdjust="spacing" textLength="153" x="1683.5" y="1704.3613">StaffRepository</text><rect fill="#E2E2F0" height="37.2813" rx="2.5" ry="2.5" style="stroke:#181818;stroke-width:0.5;" width="136" x="1853.5" y="87.2969"/><text fill="#000000" font-family="sans-serif" font-size="20" lengthAdjust="spacing" textLength="122" x="1860.5" y="112.8613">StaffMapper</text><rect fill="#E2E2F0" height="37.2813" rx="2.5" ry="2.5" style="stroke:#181818;stroke-width:0.5;" width="136" x="1853.5" y="1678.7969"/><text fill="#000000" font-family="sans-serif" font-size="20" lengthAdjust="spacing" textLength="122" x="1860.5" y="1704.3613">StaffMapper</text><rect fill="#E2E2F0" height="37.2813" rx="2.5" ry="2.5" style="stroke:#181818;stroke-width:0.5;" width="104" x="2156.5" y="87.2969"/><text fill="#000000" font-family="sans-serif" font-size="20" lengthAdjust="spacing" textLength="90" x="2163.5" y="112.8613">StaffDTO</text><rect fill="#E2E2F0" height="37.2813" rx="2.5" ry="2.5" style="stroke:#181818;stroke-width:0.5;" width="104" x="2156.5" y="1678.7969"/><text fill="#000000" font-family="sans-serif" font-size="20" lengthAdjust="spacing" textLength="90" x="2163.5" y="1704.3613">StaffDTO</text><rect fill="#E2E2F0" height="37.2813" rx="2.5" ry="2.5" style="stroke:#181818;stroke-width:0.5;" width="108" x="2463" y="87.2969"/><text fill="#000000" font-family="sans-serif" font-size="20" lengthAdjust="spacing" textLength="94" x="2470" y="112.8613">Database</text><rect fill="#E2E2F0" height="37.2813" rx="2.5" ry="2.5" style="stroke:#181818;stroke-width:0.5;" width="108" x="2463" y="1678.7969"/><text fill="#000000" font-family="sans-serif" font-size="20" lengthAdjust="spacing" textLength="94" x="2470" y="1704.3613">Database</text><rect fill="#FFFFFF" height="1535.2188" style="stroke:#181818;stroke-width:1.0;" width="10" x="36" y="135.5781"/><rect fill="#FFFFFF" height="37.2813" style="stroke:#181818;stroke-width:1.0;" width="10" x="487" y="164.8594"/><rect fill="#FFFFFF" height="1422.375" style="stroke:#181818;stroke-width:1.0;" width="10" x="487" y="239.4219"/><rect fill="#FFFFFF" height="1281.25" style="stroke:#181818;stroke-width:1.0;" width="10" x="934" y="343.2656"/><rect fill="#FFFFFF" height="1199.6875" style="stroke:#181818;stroke-width:1.0;" width="10" x="1363" y="380.5469"/><rect fill="#FFFFFF" height="812.3125" style="stroke:#181818;stroke-width:1.0;" width="10" x="1755" y="417.8281"/><rect fill="#FFFFFF" height="124.8438" style="stroke:#181818;stroke-width:1.0;" width="10" x="1916.5" y="1411.1094"/><rect fill="#FFFFFF" height="43.2813" style="stroke:#181818;stroke-width:1.0;" width="10" x="2203.5" y="1448.3906"/><rect fill="#FFFFFF" height="127.125" style="stroke:#181818;stroke-width:1.0;" width="10" x="2512" y="455.1094"/><rect fill="#FFFFFF" height="37.2813" style="stroke:#181818;stroke-width:1.0;" width="10" x="2512" y="660.0781"/><rect fill="#FFFFFF" height="37.2813" style="stroke:#181818;stroke-width:1.0;" width="10" x="2512" y="782.2031"/><rect fill="#FFFFFF" height="37.2813" style="stroke:#181818;stroke-width:1.0;" width="10" x="2512" y="904.3281"/><rect fill="#FFFFFF" height="37.2813" style="stroke:#181818;stroke-width:1.0;" width="10" x="2512" y="1026.4531"/><rect fill="#FFFFFF" height="37.2813" style="stroke:#181818;stroke-width:1.0;" width="10" x="2512" y="1148.5781"/><polygon fill="#000000" points="475,160.8594,485,164.8594,475,168.8594,479,164.8594" style="stroke:#000000;stroke-width:1.0;"/><line style="stroke:#000000;stroke-width:1.0;" x1="46" x2="481" y1="164.8594" y2="164.8594"/><text fill="#000000" font-family="sans-serif" font-size="20" lengthAdjust="spacing" textLength="238" x="53" y="158.1426">Asks to list staff profiles</text><polygon fill="#000000" points="57,198.1406,47,202.1406,57,206.1406,53,202.1406" style="stroke:#000000;stroke-width:1.0;"/><line style="stroke:#000000;stroke-width:1.0;stroke-dasharray:2.0,2.0;" x1="51" x2="491" y1="202.1406" y2="202.1406"/><text fill="#000000" font-family="sans-serif" font-size="20" lengthAdjust="spacing" textLength="417" x="63" y="195.4238">Asks for the data to filter the staff profiles</text><polygon fill="#000000" points="475,235.4219,485,239.4219,475,243.4219,479,239.4219" style="stroke:#000000;stroke-width:1.0;"/><line style="stroke:#000000;stroke-width:1.0;" x1="46" x2="481" y1="239.4219" y2="239.4219"/><text fill="#000000" font-family="sans-serif" font-size="20" lengthAdjust="spacing" textLength="399" x="53" y="232.7051">Sends the data to filter the staff profiles</text><path d="M502,252.4219 L502,308.4219 L1295,308.4219 L1295,262.4219 L1285,252.4219 L502,252.4219 " fill="#FEFFDD" style="stroke:#181818;stroke-width:0.5;"/><path d="M1285,252.4219 L1285,262.4219 L1295,262.4219 L1285,252.4219 " fill="#FEFFDD" style="stroke:#181818;stroke-width:0.5;"/><text fill="#000000" font-family="sans-serif" font-size="20" lengthAdjust="spacing" textLength="772" x="508" y="275.9863">The data can be First Name and/or Last Name and/or Full Name and/or Email</text><text fill="#000000" font-family="sans-serif" font-size="20" lengthAdjust="spacing" textLength="231" x="508" y="299.2676">and/or SpecializationId</text><polygon fill="#000000" points="922,339.2656,932,343.2656,922,347.2656,926,343.2656" style="stroke:#000000;stroke-width:1.0;"/><line style="stroke:#000000;stroke-width:1.0;" x1="497" x2="928" y1="343.2656" y2="343.2656"/><text fill="#000000" font-family="sans-serif" font-size="20" lengthAdjust="spacing" textLength="400" x="504" y="336.5488">searchStaffProfiles(SearchStaffDTO dto)</text><polygon fill="#000000" points="1351,376.5469,1361,380.5469,1351,384.5469,1355,380.5469" style="stroke:#000000;stroke-width:1.0;"/><line style="stroke:#000000;stroke-width:1.0;" x1="944" x2="1357" y1="380.5469" y2="380.5469"/><text fill="#000000" font-family="sans-serif" font-size="20" lengthAdjust="spacing" textLength="400" x="951" y="373.8301">searchStaffProfiles(SearchStaffDTO dto)</text><polygon fill="#000000" points="1743,413.8281,1753,417.8281,1743,421.8281,1747,417.8281" style="stroke:#000000;stroke-width:1.0;"/><line style="stroke:#000000;stroke-width:1.0;" x1="1373" x2="1749" y1="417.8281" y2="417.8281"/><text fill="#000000" font-family="sans-serif" font-size="20" lengthAdjust="spacing" textLength="221" x="1380" y="411.1113">searchStaffAsync(dto)</text><polygon fill="#000000" points="2500,451.1094,2510,455.1094,2500,459.1094,2504,455.1094" style="stroke:#000000;stroke-width:1.0;"/><line style="stroke:#000000;stroke-width:1.0;" x1="1765" x2="2506" y1="455.1094" y2="455.1094"/><text fill="#000000" font-family="sans-serif" font-size="20" lengthAdjust="spacing" textLength="200" x="1772" y="448.3926">_objs.AsQueryable()</text><path d="M2527,468.1094 L2527,547.1094 L3049,547.1094 L3049,478.1094 L3039,468.1094 L2527,468.1094 " fill="#FEFFDD" style="stroke:#181818;stroke-width:0.5;"/><path d="M3039,468.1094 L3039,478.1094 L3049,478.1094 L3039,468.1094 " fill="#FEFFDD" style="stroke:#181818;stroke-width:0.5;"/><text fill="#000000" font-family="sans-serif" font-size="20" lengthAdjust="spacing" textLength="501" x="2533" y="491.6738">This will return a queryable list of all staff profiles.</text><text fill="#000000" font-family="sans-serif" font-size="20" lengthAdjust="spacing" textLength="459" x="2533" y="514.9551">This means that other queries can be chained</text><text fill="#000000" font-family="sans-serif" font-size="20" lengthAdjust="spacing" textLength="444" x="2533" y="538.2363">to this one in order to filter the staff profiles.</text><polygon fill="#000000" points="1776,578.2344,1766,582.2344,1776,586.2344,1772,582.2344" style="stroke:#000000;stroke-width:1.0;"/><line style="stroke:#000000;stroke-width:1.0;stroke-dasharray:2.0,2.0;" x1="1770" x2="2516" y1="582.2344" y2="582.2344"/><text fill="#000000" font-family="sans-serif" font-size="20" lengthAdjust="spacing" textLength="444" x="1782" y="575.5176">Returns the queryable list of all staff profiles</text><path d="M1666.5,597.2344 L1749.5,597.2344 L1749.5,612.5156 L1739.5,622.5156 L1666.5,622.5156 L1666.5,597.2344 " fill="#EEEEEE" style="stroke:#000000;stroke-width:1.5;"/><rect fill="none" height="108.125" style="stroke:#000000;stroke-width:1.5;" width="914.5" x="1666.5" y="597.2344"/><text fill="#000000" font-family="sans-serif" font-size="20" font-weight="bold" lengthAdjust="spacing" textLength="38" x="1681.5" y="616.7988">opt</text><text fill="#000000" font-family="sans-serif" font-size="20" font-weight="bold" lengthAdjust="spacing" textLength="368" x="1764.5" y="617.7988">[Filter queryable by First Name]</text><polygon fill="#000000" points="2500,656.0781,2510,660.0781,2500,664.0781,2504,660.0781" style="stroke:#000000;stroke-width:1.0;"/><line style="stroke:#000000;stroke-width:1.0;" x1="1765" x2="2506" y1="660.0781" y2="660.0781"/><text fill="#000000" font-family="sans-serif" font-size="20" lengthAdjust="spacing" textLength="571" x="1772" y="653.3613">query.Where(s =&gt; s.FirstName.Contains(dto.FirstName))</text><polygon fill="#000000" points="1776,693.3594,1766,697.3594,1776,701.3594,1772,697.3594" style="stroke:#000000;stroke-width:1.0;"/><line style="stroke:#000000;stroke-width:1.0;stroke-dasharray:2.0,2.0;" x1="1770" x2="2516" y1="697.3594" y2="697.3594"/><text fill="#000000" font-family="sans-serif" font-size="20" lengthAdjust="spacing" textLength="637" x="1782" y="690.6426">Returns the queryable list of staff profiles filtered by First Name</text><path d="M1666.5,719.3594 L1749.5,719.3594 L1749.5,734.6406 L1739.5,744.6406 L1666.5,744.6406 L1666.5,719.3594 " fill="#EEEEEE" style="stroke:#000000;stroke-width:1.5;"/><rect fill="none" height="108.125" style="stroke:#000000;stroke-width:1.5;" width="914.5" x="1666.5" y="719.3594"/><text fill="#000000" font-family="sans-serif" font-size="20" font-weight="bold" lengthAdjust="spacing" textLength="38" x="1681.5" y="738.9238">opt</text><text fill="#000000" font-family="sans-serif" font-size="20" font-weight="bold" lengthAdjust="spacing" textLength="364" x="1764.5" y="739.9238">[Filter queryable by Last Name]</text><polygon fill="#000000" points="2500,778.2031,2510,782.2031,2500,786.2031,2504,782.2031" style="stroke:#000000;stroke-width:1.0;"/><line style="stroke:#000000;stroke-width:1.0;" x1="1765" x2="2506" y1="782.2031" y2="782.2031"/><text fill="#000000" font-family="sans-serif" font-size="20" lengthAdjust="spacing" textLength="565" x="1772" y="775.4863">query.Where(s =&gt; s.LastName.Contains(dto.LastName))</text><polygon fill="#000000" points="1776,815.4844,1766,819.4844,1776,823.4844,1772,819.4844" style="stroke:#000000;stroke-width:1.0;"/><line style="stroke:#000000;stroke-width:1.0;stroke-dasharray:2.0,2.0;" x1="1770" x2="2516" y1="819.4844" y2="819.4844"/><text fill="#000000" font-family="sans-serif" font-size="20" lengthAdjust="spacing" textLength="634" x="1782" y="812.7676">Returns the queryable list of staff profiles filtered by Last Name</text><path d="M1666.5,841.4844 L1749.5,841.4844 L1749.5,856.7656 L1739.5,866.7656 L1666.5,866.7656 L1666.5,841.4844 " fill="#EEEEEE" style="stroke:#000000;stroke-width:1.5;"/><rect fill="none" height="108.125" style="stroke:#000000;stroke-width:1.5;" width="914.5" x="1666.5" y="841.4844"/><text fill="#000000" font-family="sans-serif" font-size="20" font-weight="bold" lengthAdjust="spacing" textLength="38" x="1681.5" y="861.0488">opt</text><text fill="#000000" font-family="sans-serif" font-size="20" font-weight="bold" lengthAdjust="spacing" textLength="357" x="1764.5" y="862.0488">[Filter queryable by Full Name]</text><polygon fill="#000000" points="2500,900.3281,2510,904.3281,2500,908.3281,2504,904.3281" style="stroke:#000000;stroke-width:1.0;"/><line style="stroke:#000000;stroke-width:1.0;" x1="1765" x2="2506" y1="904.3281" y2="904.3281"/><text fill="#000000" font-family="sans-serif" font-size="20" lengthAdjust="spacing" textLength="557" x="1772" y="897.6113">query.Where(s =&gt; s.FullName.Contains(dto.FullName))</text><polygon fill="#000000" points="1776,937.6094,1766,941.6094,1776,945.6094,1772,941.6094" style="stroke:#000000;stroke-width:1.0;"/><line style="stroke:#000000;stroke-width:1.0;stroke-dasharray:2.0,2.0;" x1="1770" x2="2516" y1="941.6094" y2="941.6094"/><text fill="#000000" font-family="sans-serif" font-size="20" lengthAdjust="spacing" textLength="630" x="1782" y="934.8926">Returns the queryable list of staff profiles filtered by Full Name</text><path d="M1666.5,963.6094 L1749.5,963.6094 L1749.5,978.8906 L1739.5,988.8906 L1666.5,988.8906 L1666.5,963.6094 " fill="#EEEEEE" style="stroke:#000000;stroke-width:1.5;"/><rect fill="none" height="108.125" style="stroke:#000000;stroke-width:1.5;" width="914.5" x="1666.5" y="963.6094"/><text fill="#000000" font-family="sans-serif" font-size="20" font-weight="bold" lengthAdjust="spacing" textLength="38" x="1681.5" y="983.1738">opt</text><text fill="#000000" font-family="sans-serif" font-size="20" font-weight="bold" lengthAdjust="spacing" textLength="305" x="1764.5" y="984.1738">[Filter queryable by Email]</text><polygon fill="#000000" points="2500,1022.4531,2510,1026.4531,2500,1030.4531,2504,1026.4531" style="stroke:#000000;stroke-width:1.0;"/><line style="stroke:#000000;stroke-width:1.0;" x1="1765" x2="2506" y1="1026.4531" y2="1026.4531"/><text fill="#000000" font-family="sans-serif" font-size="20" lengthAdjust="spacing" textLength="479" x="1772" y="1019.7363">query.Where(s =&gt; s.Email.Contains(dto.Email))</text><polygon fill="#000000" points="1776,1059.7344,1766,1063.7344,1776,1067.7344,1772,1063.7344" style="stroke:#000000;stroke-width:1.0;"/><line style="stroke:#000000;stroke-width:1.0;stroke-dasharray:2.0,2.0;" x1="1770" x2="2516" y1="1063.7344" y2="1063.7344"/><text fill="#000000" font-family="sans-serif" font-size="20" lengthAdjust="spacing" textLength="585" x="1782" y="1057.0176">Returns the queryable list of staff profiles filtered by Email</text><path d="M1666.5,1085.7344 L1749.5,1085.7344 L1749.5,1101.0156 L1739.5,1111.0156 L1666.5,1111.0156 L1666.5,1085.7344 " fill="#EEEEEE" style="stroke:#000000;stroke-width:1.5;"/><rect fill="none" height="108.125" style="stroke:#000000;stroke-width:1.5;" width="914.5" x="1666.5" y="1085.7344"/><text fill="#000000" font-family="sans-serif" font-size="20" font-weight="bold" lengthAdjust="spacing" textLength="38" x="1681.5" y="1105.2988">opt</text><text fill="#000000" font-family="sans-serif" font-size="20" font-weight="bold" lengthAdjust="spacing" textLength="423" x="1764.5" y="1106.2988">[Filter queryable by SpecializationId]</text><polygon fill="#000000" points="2500,1144.5781,2510,1148.5781,2500,1152.5781,2504,1148.5781" style="stroke:#000000;stroke-width:1.0;"/><line style="stroke:#000000;stroke-width:1.0;" x1="1765" x2="2506" y1="1148.5781" y2="1148.5781"/><text fill="#000000" font-family="sans-serif" font-size="20" lengthAdjust="spacing" textLength="728" x="1772" y="1141.8613">query.Where(s =&gt; s.SpecializationId.ToString() == dto.SpecializationId)</text><polygon fill="#000000" points="1776,1181.8594,1766,1185.8594,1776,1189.8594,1772,1185.8594" style="stroke:#000000;stroke-width:1.0;"/><line style="stroke:#000000;stroke-width:1.0;stroke-dasharray:2.0,2.0;" x1="1770" x2="2516" y1="1185.8594" y2="1185.8594"/><text fill="#000000" font-family="sans-serif" font-size="20" lengthAdjust="spacing" textLength="688" x="1782" y="1179.1426">Returns the queryable list of staff profiles filtered by SpecializationId</text><polygon fill="#000000" points="1384,1226.1406,1374,1230.1406,1384,1234.1406,1380,1230.1406" style="stroke:#000000;stroke-width:1.0;"/><line style="stroke:#000000;stroke-width:1.0;stroke-dasharray:2.0,2.0;" x1="1378" x2="1759" y1="1230.1406" y2="1230.1406"/><text fill="#000000" font-family="sans-serif" font-size="20" lengthAdjust="spacing" textLength="358" x="1390" y="1223.4238">Returns the final list of staff profiles</text><path d="M849,1245.1406 L925,1245.1406 L925,1260.4219 L915,1270.4219 L849,1270.4219 L849,1245.1406 " fill="#EEEEEE" style="stroke:#000000;stroke-width:1.5;"/><rect fill="none" height="343.0938" style="stroke:#000000;stroke-width:1.5;" width="1499.5" x="849" y="1245.1406"/><text fill="#000000" font-family="sans-serif" font-size="20" font-weight="bold" lengthAdjust="spacing" textLength="31" x="864" y="1264.7051">alt</text><text fill="#000000" font-family="sans-serif" font-size="20" font-weight="bold" lengthAdjust="spacing" textLength="239" x="940" y="1265.7051">[list is null or empty]</text><polygon fill="#000000" points="955,1303.9844,945,1307.9844,955,1311.9844,951,1307.9844" style="stroke:#000000;stroke-width:1.0;"/><line style="stroke:#000000;stroke-width:1.0;stroke-dasharray:2.0,2.0;" x1="949" x2="1362" y1="1307.9844" y2="1307.9844"/><text fill="#000000" font-family="sans-serif" font-size="20" lengthAdjust="spacing" textLength="122" x="961" y="1301.2676">Returns null</text><line style="stroke:#000000;stroke-width:1.0;stroke-dasharray:2.0,2.0;" x1="849" x2="2348.5" y1="1316.9844" y2="1316.9844"/><text fill="#000000" font-family="sans-serif" font-size="20" font-weight="bold" lengthAdjust="spacing" textLength="174" x="854" y="1335.5488">[list is not null]</text><path d="M1291,1348.2656 L1385,1348.2656 L1385,1363.5469 L1375,1373.5469 L1291,1373.5469 L1291,1348.2656 " fill="#EEEEEE" style="stroke:#000000;stroke-width:1.5;"/><rect fill="none" height="195.6875" style="stroke:#000000;stroke-width:1.5;" width="1047.5" x="1291" y="1348.2656"/><text fill="#000000" font-family="sans-serif" font-size="20" font-weight="bold" lengthAdjust="spacing" textLength="49" x="1306" y="1367.8301">loop</text><text fill="#000000" font-family="sans-serif" font-size="20" font-weight="bold" lengthAdjust="spacing" textLength="289" x="1400" y="1368.8301">[for each staff in the list]</text><polygon fill="#000000" points="1904.5,1407.1094,1914.5,1411.1094,1904.5,1415.1094,1908.5,1411.1094" style="stroke:#000000;stroke-width:1.0;"/><line style="stroke:#000000;stroke-width:1.0;" x1="1373" x2="1910.5" y1="1411.1094" y2="1411.1094"/><text fill="#000000" font-family="sans-serif" font-size="20" lengthAdjust="spacing" textLength="123" x="1380" y="1404.3926">toDTO(staff)</text><polygon fill="#000000" points="2191.5,1444.3906,2201.5,1448.3906,2191.5,1452.3906,2195.5,1448.3906" style="stroke:#000000;stroke-width:1.0;"/><line style="stroke:#000000;stroke-width:1.0;" x1="1926.5" x2="2197.5" y1="1448.3906" y2="1448.3906"/><text fill="#000000" font-family="sans-serif" font-size="20" lengthAdjust="spacing" textLength="258" x="1933.5" y="1441.6738">new StaffDTO(staff fields)</text><line style="stroke:#000000;stroke-width:1.0;" x1="2213.5" x2="2255.5" y1="1490.6719" y2="1490.6719"/><line style="stroke:#000000;stroke-width:1.0;" x1="2255.5" x2="2255.5" y1="1490.6719" y2="1503.6719"/><line style="stroke:#000000;stroke-width:1.0;" x1="2208.5" x2="2255.5" y1="1503.6719" y2="1503.6719"/><polygon fill="#000000" points="2218.5,1499.6719,2208.5,1503.6719,2218.5,1507.6719,2214.5,1503.6719" style="stroke:#000000;stroke-width:1.0;"/><text fill="#000000" font-family="sans-serif" font-size="20" lengthAdjust="spacing" textLength="106" x="2220.5" y="1483.9551">StaffDTO()</text><polygon fill="#000000" points="1384,1531.9531,1374,1535.9531,1384,1539.9531,1380,1535.9531" style="stroke:#000000;stroke-width:1.0;"/><line style="stroke:#000000;stroke-width:1.0;stroke-dasharray:2.0,2.0;" x1="1378" x2="1920.5" y1="1535.9531" y2="1535.9531"/><text fill="#000000" font-family="sans-serif" font-size="20" lengthAdjust="spacing" textLength="213" x="1390" y="1529.2363">Returns the StaffDTO</text><polygon fill="#000000" points="955,1576.2344,945,1580.2344,955,1584.2344,951,1580.2344" style="stroke:#000000;stroke-width:1.0;"/><line style="stroke:#000000;stroke-width:1.0;stroke-dasharray:2.0,2.0;" x1="949" x2="1367" y1="1580.2344" y2="1580.2344"/><text fill="#000000" font-family="sans-serif" font-size="20" lengthAdjust="spacing" textLength="284" x="961" y="1573.5176">Returns the list of StaffDTOs</text><polygon fill="#000000" points="508,1620.5156,498,1624.5156,508,1628.5156,504,1624.5156" style="stroke:#000000;stroke-width:1.0;"/><line style="stroke:#000000;stroke-width:1.0;stroke-dasharray:2.0,2.0;" x1="502" x2="938" y1="1624.5156" y2="1624.5156"/><text fill="#000000" font-family="sans-serif" font-size="20" lengthAdjust="spacing" textLength="413" x="514" y="1617.7988">Returns Operation Status Response Code</text><polygon fill="#000000" points="57,1657.7969,47,1661.7969,57,1665.7969,53,1661.7969" style="stroke:#000000;stroke-width:1.0;"/><line style="stroke:#000000;stroke-width:1.0;stroke-dasharray:2.0,2.0;" x1="51" x2="491" y1="1661.7969" y2="1661.7969"/><text fill="#000000" font-family="sans-serif" font-size="20" lengthAdjust="spacing" textLength="391" x="63" y="1655.0801">Returns Operation In/Success message</text><!--SRC=[jLPDZ-8u4BtdLvHc3Wk7ORwqNsWQ2HAGa9hfNTAjlRGqCaa1dZPsrZRTObRxtxTSa910PXgjrDmel-UgLw_is3r8NGWhDifa3vX3ZaknLNvYj4_bDuGFxwB8IwyGhl4H5No4H8eLuM5fBAGeRBQMUWMf5yib_67DKYfqKRIMEG9k2h-33MuMQ5tqaojpmRNKw7S5Wh5-RQBek98fuHpy4m7zHY9xM5cprNbibB6VFZqAjSMRnLVC_600hvDVniF9R-rGQmnZ9ibubBnhnpYqZp93tkhzvCDur0QZBSQJtyU_yjhGMlEq3uyKuQ9_wxKN514hRAyUNez7avydeq0HcQV0CDz83SB1C2A-bvaiXFRmwexgWgdsQ9SYmrS1SJTjGhZRCNbaZL9e6HEtGDAzGbvFMzRdM1WdgPWTG-Oja9aeYaE6MSjoSdl3QqbpBH5UB8JRPqv6B5a-2eyaTWXl1gIe3qFtuC0RKD9vS3n0HJb05PwatqtX3L661qOOFBz6o2b7e1E1UiMXaqroh6zJvKrHv-x2BRGXifMhjGUpPFPjoSk4XWN2H5eg_xFO80YTlwNYhiL9OB9LgX4ORuHKz_hmBoqmaqB9Ry9BewVvcVW1n7rmVDQuwUKnwwJ761a1kJVT8pcEua1D_mSrZT90dJUeGxVJMQS9d4Vp04n6VVXY5bzTR-Z-tABTYON2JWr78z3iP63ShgM39qcziUYtbiu2_5sIzqD1G47BJKzwzvgP6nGws2W8HyvP9ajqfJ7PMj0razzhCjW7Wj48TEACpOFNFt2z5oKZ7Zbgm9nBsu_B9TNLXuvKcyBJX72U8tkngqqDNnPL5ndK-ulaOCV1rG1SZw41sGiddZIvOC8ntEto5lMiuV-b4fhb7vf2NuBp8flAw11zLrrr0fuL5v3dsiheoqbhLdYvikeeFsyR8LjSEqHVqBH6XPShuplfMLMCQahYqClfETPrkPQp6_KvMQU4tgr9lQM7JQSBLrVXTZo3l9ZWrkBFjSyvKTfCj9HQgEyagTzCyqWelyVHnQZ3oD27YDzhd2xbpUFZvW4IeN9u91c_ZmQyCgRW3pEbM1_oqbKRIWfunXps7S2iJxSlVNGwZEjMYrLrioeqOy_weF49oc_LdaPIKUMkXPrKeUJ0hfX7TBsVzMpdBIt9RTHzeS6DrgQLyeCNvJRkrCwKtOoP6zuN9Vc6dbqy0O7gj_GwGrSOJGx49iUwcN7jXNJEdkgtwJRBq8KlfdFqG3rv5_q7]--></g></svg>