<?xml version="1.0" encoding="UTF-8" standalone="no"?><svg xmlns="http://www.w3.org/2000/svg" xmlns:xlink="http://www.w3.org/1999/xlink" contentStyleType="text/css" height="2161px" preserveAspectRatio="none" style="width:4288px;height:2161px;background:#FFFFFF;" version="1.1" viewBox="0 0 4288 2161" width="4288px" zoomAndPan="magnify"><defs/><g><text fill="#000000" font-family="sans-serif" font-size="14" font-weight="bold" lengthAdjust="spacing" textLength="345" x="1970" y="27.9951">Level 3 Diagram for Searching Staff Profiles</text><rect fill="#FFFFFF" height="1929.5938" style="stroke:#181818;stroke-width:1.0;" width="10" x="36" y="135.5781"/><rect fill="#FFFFFF" height="37.2813" style="stroke:#181818;stroke-width:1.0;" width="10" x="487" y="164.8594"/><rect fill="#FFFFFF" height="1816.75" style="stroke:#181818;stroke-width:1.0;" width="10" x="487" y="239.4219"/><rect fill="#FFFFFF" height="1675.625" style="stroke:#181818;stroke-width:1.0;" width="10" x="934" y="343.2656"/><rect fill="#FFFFFF" height="1839.0313" style="stroke:#181818;stroke-width:1.0;" width="10" x="1803" y="135.5781"/><rect fill="#FFFFFF" height="43.2813" style="stroke:#181818;stroke-width:1.0;" width="10" x="2293" y="710.6406"/><rect fill="#FFFFFF" height="111.8438" style="stroke:#181818;stroke-width:1.0;" width="10" x="2763" y="458.3906"/><rect fill="#FFFFFF" height="812.3125" style="stroke:#181818;stroke-width:1.0;" width="10" x="2987" y="812.2031"/><rect fill="#FFFFFF" height="124.8438" style="stroke:#181818;stroke-width:1.0;" width="10" x="3148.5" y="1805.4844"/><rect fill="#FFFFFF" height="43.2813" style="stroke:#181818;stroke-width:1.0;" width="10" x="3435.5" y="1842.7656"/><rect fill="#FFFFFF" height="37.2813" style="stroke:#181818;stroke-width:1.0;" width="10" x="3744" y="495.6719"/><rect fill="#FFFFFF" height="127.125" style="stroke:#181818;stroke-width:1.0;" width="10" x="3744" y="849.4844"/><rect fill="#FFFFFF" height="37.2813" style="stroke:#181818;stroke-width:1.0;" width="10" x="3744" y="1054.4531"/><rect fill="#FFFFFF" height="37.2813" style="stroke:#181818;stroke-width:1.0;" width="10" x="3744" y="1176.5781"/><rect fill="#FFFFFF" height="37.2813" style="stroke:#181818;stroke-width:1.0;" width="10" x="3744" y="1298.7031"/><rect fill="#FFFFFF" height="37.2813" style="stroke:#181818;stroke-width:1.0;" width="10" x="3744" y="1420.8281"/><rect fill="#FFFFFF" height="37.2813" style="stroke:#181818;stroke-width:1.0;" width="10" x="3744" y="1542.9531"/><rect fill="#EBF5FB" height="380.375" style="stroke:#000000;stroke-width:1.5;" width="2974" x="839" y="395.5469"/><rect fill="#EBF5FB" height="183.6875" style="stroke:#000000;stroke-width:1.5;" width="1919" x="849" y="585.2344"/><rect fill="#EBF5FB" height="112.8438" style="stroke:none;stroke-width:1.0;" width="1919" x="849" y="656.0781"/><rect fill="#EBF5FB" height="108.125" style="stroke:#000000;stroke-width:1.5;" width="914.5" x="2898.5" y="991.6094"/><rect fill="#EBF5FB" height="108.125" style="stroke:#000000;stroke-width:1.5;" width="914.5" x="2898.5" y="1113.7344"/><rect fill="#EBF5FB" height="108.125" style="stroke:#000000;stroke-width:1.5;" width="914.5" x="2898.5" y="1235.8594"/><rect fill="#EBF5FB" height="108.125" style="stroke:#000000;stroke-width:1.5;" width="914.5" x="2898.5" y="1357.9844"/><rect fill="#EBF5FB" height="108.125" style="stroke:#000000;stroke-width:1.5;" width="914.5" x="2898.5" y="1480.1094"/><rect fill="#EBF5FB" height="343.0938" style="stroke:#000000;stroke-width:1.5;" width="2731.5" x="849" y="1639.5156"/><rect fill="#EBF5FB" height="272.25" style="stroke:none;stroke-width:1.0;" width="2731.5" x="849" y="1710.3594"/><rect fill="#EBF5FB" height="195.6875" style="stroke:#000000;stroke-width:1.5;" width="1839.5" x="1731" y="1742.6406"/><line style="stroke:#181818;stroke-width:0.5;stroke-dasharray:5.0,5.0;" x1="41" x2="41" y1="125.5781" y2="2074.1719"/><line style="stroke:#181818;stroke-width:0.5;stroke-dasharray:5.0,5.0;" x1="492" x2="492" y1="125.5781" y2="2074.1719"/><line style="stroke:#181818;stroke-width:0.5;stroke-dasharray:5.0,5.0;" x1="939" x2="939" y1="125.5781" y2="2074.1719"/><line style="stroke:#181818;stroke-width:0.5;stroke-dasharray:5.0,5.0;" x1="1808" x2="1808" y1="125.5781" y2="2074.1719"/><line style="stroke:#181818;stroke-width:0.5;stroke-dasharray:5.0,5.0;" x1="2297.5" x2="2297.5" y1="125.5781" y2="2074.1719"/><line style="stroke:#181818;stroke-width:0.5;stroke-dasharray:5.0,5.0;" x1="2767.5" x2="2767.5" y1="125.5781" y2="2074.1719"/><line style="stroke:#181818;stroke-width:0.5;stroke-dasharray:5.0,5.0;" x1="2991.5" x2="2991.5" y1="125.5781" y2="2074.1719"/><line style="stroke:#181818;stroke-width:0.5;stroke-dasharray:5.0,5.0;" x1="3153.5" x2="3153.5" y1="125.5781" y2="2074.1719"/><line style="stroke:#181818;stroke-width:0.5;stroke-dasharray:5.0,5.0;" x1="3440.5" x2="3440.5" y1="125.5781" y2="2074.1719"/><line style="stroke:#181818;stroke-width:0.5;stroke-dasharray:5.0,5.0;" x1="3749" x2="3749" y1="125.5781" y2="2074.1719"/><text fill="#000000" font-family="sans-serif" font-size="20" lengthAdjust="spacing" textLength="66" x="5" y="120.8613">Admin</text><ellipse cx="41" cy="50.7969" fill="#E2E2F0" rx="8" ry="8" style="stroke:#181818;stroke-width:0.5;"/><path d="M41,58.7969 L41,85.7969 M28,66.7969 L54,66.7969 M41,85.7969 L28,100.7969 M41,85.7969 L54,100.7969 " fill="none" style="stroke:#181818;stroke-width:0.5;"/><text fill="#000000" font-family="sans-serif" font-size="20" lengthAdjust="spacing" textLength="66" x="5" y="2091.7363">Admin</text><ellipse cx="41" cy="2104.9531" fill="#E2E2F0" rx="8" ry="8" style="stroke:#181818;stroke-width:0.5;"/><path d="M41,2112.9531 L41,2139.9531 M28,2120.9531 L54,2120.9531 M41,2139.9531 L28,2154.9531 M41,2139.9531 L54,2154.9531 " fill="none" style="stroke:#181818;stroke-width:0.5;"/><rect fill="#E2E2F0" height="37.2813" rx="2.5" ry="2.5" style="stroke:#181818;stroke-width:0.5;" width="154" x="415" y="87.2969"/><text fill="#000000" font-family="sans-serif" font-size="20" lengthAdjust="spacing" textLength="140" x="422" y="112.8613">User Interface</text><rect fill="#E2E2F0" height="37.2813" rx="2.5" ry="2.5" style="stroke:#181818;stroke-width:0.5;" width="154" x="415" y="2073.1719"/><text fill="#000000" font-family="sans-serif" font-size="20" lengthAdjust="spacing" textLength="140" x="422" y="2098.7363">User Interface</text><rect fill="#E2E2F0" height="37.2813" rx="2.5" ry="2.5" style="stroke:#181818;stroke-width:0.5;" width="160" x="859" y="87.2969"/><text fill="#000000" font-family="sans-serif" font-size="20" lengthAdjust="spacing" textLength="146" x="866" y="112.8613">StaffController</text><rect fill="#E2E2F0" height="37.2813" rx="2.5" ry="2.5" style="stroke:#181818;stroke-width:0.5;" width="160" x="859" y="2073.1719"/><text fill="#000000" font-family="sans-serif" font-size="20" lengthAdjust="spacing" textLength="146" x="866" y="2098.7363">StaffController</text><rect fill="#E2E2F0" height="37.2813" rx="2.5" ry="2.5" style="stroke:#181818;stroke-width:0.5;" width="134" x="1741" y="87.2969"/><text fill="#000000" font-family="sans-serif" font-size="20" lengthAdjust="spacing" textLength="120" x="1748" y="112.8613">StaffService</text><rect fill="#E2E2F0" height="37.2813" rx="2.5" ry="2.5" style="stroke:#181818;stroke-width:0.5;" width="134" x="1741" y="2073.1719"/><text fill="#000000" font-family="sans-serif" font-size="20" lengthAdjust="spacing" textLength="120" x="1748" y="2098.7363">StaffService</text><rect fill="#E2E2F0" height="37.2813" rx="2.5" ry="2.5" style="stroke:#181818;stroke-width:0.5;" width="173" x="2211.5" y="87.2969"/><text fill="#000000" font-family="sans-serif" font-size="20" lengthAdjust="spacing" textLength="159" x="2218.5" y="112.8613">SearchStaffDTO</text><rect fill="#E2E2F0" height="37.2813" rx="2.5" ry="2.5" style="stroke:#181818;stroke-width:0.5;" width="173" x="2211.5" y="2073.1719"/><text fill="#000000" font-family="sans-serif" font-size="20" lengthAdjust="spacing" textLength="159" x="2218.5" y="2098.7363">SearchStaffDTO</text><rect fill="#E2E2F0" height="37.2813" rx="2.5" ry="2.5" style="stroke:#181818;stroke-width:0.5;" width="261" x="2637.5" y="87.2969"/><text fill="#000000" font-family="sans-serif" font-size="20" lengthAdjust="spacing" textLength="247" x="2644.5" y="112.8613">SpecializationRepository</text><rect fill="#E2E2F0" height="37.2813" rx="2.5" ry="2.5" style="stroke:#181818;stroke-width:0.5;" width="261" x="2637.5" y="2073.1719"/><text fill="#000000" font-family="sans-serif" font-size="20" lengthAdjust="spacing" textLength="247" x="2644.5" y="2098.7363">SpecializationRepository</text><rect fill="#E2E2F0" height="37.2813" rx="2.5" ry="2.5" style="stroke:#181818;stroke-width:0.5;" width="167" x="2908.5" y="87.2969"/><text fill="#000000" font-family="sans-serif" font-size="20" lengthAdjust="spacing" textLength="153" x="2915.5" y="112.8613">StaffRepository</text><rect fill="#E2E2F0" height="37.2813" rx="2.5" ry="2.5" style="stroke:#181818;stroke-width:0.5;" width="167" x="2908.5" y="2073.1719"/><text fill="#000000" font-family="sans-serif" font-size="20" lengthAdjust="spacing" textLength="153" x="2915.5" y="2098.7363">StaffRepository</text><rect fill="#E2E2F0" height="37.2813" rx="2.5" ry="2.5" style="stroke:#181818;stroke-width:0.5;" width="136" x="3085.5" y="87.2969"/><text fill="#000000" font-family="sans-serif" font-size="20" lengthAdjust="spacing" textLength="122" x="3092.5" y="112.8613">StaffMapper</text><rect fill="#E2E2F0" height="37.2813" rx="2.5" ry="2.5" style="stroke:#181818;stroke-width:0.5;" width="136" x="3085.5" y="2073.1719"/><text fill="#000000" font-family="sans-serif" font-size="20" lengthAdjust="spacing" textLength="122" x="3092.5" y="2098.7363">StaffMapper</text><rect fill="#E2E2F0" height="37.2813" rx="2.5" ry="2.5" style="stroke:#181818;stroke-width:0.5;" width="104" x="3388.5" y="87.2969"/><text fill="#000000" font-family="sans-serif" font-size="20" lengthAdjust="spacing" textLength="90" x="3395.5" y="112.8613">StaffDTO</text><rect fill="#E2E2F0" height="37.2813" rx="2.5" ry="2.5" style="stroke:#181818;stroke-width:0.5;" width="104" x="3388.5" y="2073.1719"/><text fill="#000000" font-family="sans-serif" font-size="20" lengthAdjust="spacing" textLength="90" x="3395.5" y="2098.7363">StaffDTO</text><rect fill="#E2E2F0" height="37.2813" rx="2.5" ry="2.5" style="stroke:#181818;stroke-width:0.5;" width="108" x="3695" y="87.2969"/><text fill="#000000" font-family="sans-serif" font-size="20" lengthAdjust="spacing" textLength="94" x="3702" y="112.8613">Database</text><rect fill="#E2E2F0" height="37.2813" rx="2.5" ry="2.5" style="stroke:#181818;stroke-width:0.5;" width="108" x="3695" y="2073.1719"/><text fill="#000000" font-family="sans-serif" font-size="20" lengthAdjust="spacing" textLength="94" x="3702" y="2098.7363">Database</text><rect fill="#FFFFFF" height="1929.5938" style="stroke:#181818;stroke-width:1.0;" width="10" x="36" y="135.5781"/><rect fill="#FFFFFF" height="37.2813" style="stroke:#181818;stroke-width:1.0;" width="10" x="487" y="164.8594"/><rect fill="#FFFFFF" height="1816.75" style="stroke:#181818;stroke-width:1.0;" width="10" x="487" y="239.4219"/><rect fill="#FFFFFF" height="1675.625" style="stroke:#181818;stroke-width:1.0;" width="10" x="934" y="343.2656"/><rect fill="#FFFFFF" height="1839.0313" style="stroke:#181818;stroke-width:1.0;" width="10" x="1803" y="135.5781"/><rect fill="#FFFFFF" height="43.2813" style="stroke:#181818;stroke-width:1.0;" width="10" x="2293" y="710.6406"/><rect fill="#FFFFFF" height="111.8438" style="stroke:#181818;stroke-width:1.0;" width="10" x="2763" y="458.3906"/><rect fill="#FFFFFF" height="812.3125" style="stroke:#181818;stroke-width:1.0;" width="10" x="2987" y="812.2031"/><rect fill="#FFFFFF" height="124.8438" style="stroke:#181818;stroke-width:1.0;" width="10" x="3148.5" y="1805.4844"/><rect fill="#FFFFFF" height="43.2813" style="stroke:#181818;stroke-width:1.0;" width="10" x="3435.5" y="1842.7656"/><rect fill="#FFFFFF" height="37.2813" style="stroke:#181818;stroke-width:1.0;" width="10" x="3744" y="495.6719"/><rect fill="#FFFFFF" height="127.125" style="stroke:#181818;stroke-width:1.0;" width="10" x="3744" y="849.4844"/><rect fill="#FFFFFF" height="37.2813" style="stroke:#181818;stroke-width:1.0;" width="10" x="3744" y="1054.4531"/><rect fill="#FFFFFF" height="37.2813" style="stroke:#181818;stroke-width:1.0;" width="10" x="3744" y="1176.5781"/><rect fill="#FFFFFF" height="37.2813" style="stroke:#181818;stroke-width:1.0;" width="10" x="3744" y="1298.7031"/><rect fill="#FFFFFF" height="37.2813" style="stroke:#181818;stroke-width:1.0;" width="10" x="3744" y="1420.8281"/><rect fill="#FFFFFF" height="37.2813" style="stroke:#181818;stroke-width:1.0;" width="10" x="3744" y="1542.9531"/><polygon fill="#000000" points="475,160.8594,485,164.8594,475,168.8594,479,164.8594" style="stroke:#000000;stroke-width:1.0;"/><line style="stroke:#000000;stroke-width:1.0;" x1="46" x2="481" y1="164.8594" y2="164.8594"/><text fill="#000000" font-family="sans-serif" font-size="20" lengthAdjust="spacing" textLength="238" x="53" y="158.1426">Asks to list staff profiles</text><polygon fill="#000000" points="57,198.1406,47,202.1406,57,206.1406,53,202.1406" style="stroke:#000000;stroke-width:1.0;"/><line style="stroke:#000000;stroke-width:1.0;stroke-dasharray:2.0,2.0;" x1="51" x2="491" y1="202.1406" y2="202.1406"/><text fill="#000000" font-family="sans-serif" font-size="20" lengthAdjust="spacing" textLength="417" x="63" y="195.4238">Asks for the data to filter the staff profiles</text><polygon fill="#000000" points="475,235.4219,485,239.4219,475,243.4219,479,239.4219" style="stroke:#000000;stroke-width:1.0;"/><line style="stroke:#000000;stroke-width:1.0;" x1="46" x2="481" y1="239.4219" y2="239.4219"/><text fill="#000000" font-family="sans-serif" font-size="20" lengthAdjust="spacing" textLength="399" x="53" y="232.7051">Sends the data to filter the staff profiles</text><path d="M502,252.4219 L502,308.4219 L1295,308.4219 L1295,262.4219 L1285,252.4219 L502,252.4219 " fill="#FEFFDD" style="stroke:#181818;stroke-width:0.5;"/><path d="M1285,252.4219 L1285,262.4219 L1295,262.4219 L1285,252.4219 " fill="#FEFFDD" style="stroke:#181818;stroke-width:0.5;"/><text fill="#000000" font-family="sans-serif" font-size="20" lengthAdjust="spacing" textLength="772" x="508" y="275.9863">The data can be First Name and/or Last Name and/or Full Name and/or Email</text><text fill="#000000" font-family="sans-serif" font-size="20" lengthAdjust="spacing" textLength="277" x="508" y="299.2676">and/or Specialization Name</text><polygon fill="#000000" points="922,339.2656,932,343.2656,922,347.2656,926,343.2656" style="stroke:#000000;stroke-width:1.0;"/><line style="stroke:#000000;stroke-width:1.0;" x1="497" x2="928" y1="343.2656" y2="343.2656"/><text fill="#000000" font-family="sans-serif" font-size="20" lengthAdjust="spacing" textLength="400" x="504" y="336.5488">searchStaffProfiles(SearchStaffDTO dto)</text><polygon fill="#000000" points="1791,376.5469,1801,380.5469,1791,384.5469,1795,380.5469" style="stroke:#000000;stroke-width:1.0;"/><line style="stroke:#000000;stroke-width:1.0;" x1="944" x2="1797" y1="380.5469" y2="380.5469"/><text fill="#000000" font-family="sans-serif" font-size="20" lengthAdjust="spacing" textLength="400" x="951" y="373.8301">searchStaffProfiles(SearchStaffDTO dto)</text><path d="M839,395.5469 L922,395.5469 L922,410.8281 L912,420.8281 L839,420.8281 L839,395.5469 " fill="#EEEEEE" style="stroke:#000000;stroke-width:1.5;"/><rect fill="none" height="380.375" style="stroke:#000000;stroke-width:1.5;" width="2974" x="839" y="395.5469"/><text fill="#000000" font-family="sans-serif" font-size="20" font-weight="bold" lengthAdjust="spacing" textLength="38" x="854" y="415.1113">opt</text><text fill="#000000" font-family="sans-serif" font-size="20" font-weight="bold" lengthAdjust="spacing" textLength="410" x="937" y="416.1113">[dto.SpecializationName is not null]</text><polygon fill="#000000" points="2751,454.3906,2761,458.3906,2751,462.3906,2755,458.3906" style="stroke:#000000;stroke-width:1.0;"/><line style="stroke:#000000;stroke-width:1.0;" x1="1813" x2="2757" y1="458.3906" y2="458.3906"/><text fill="#000000" font-family="sans-serif" font-size="20" lengthAdjust="spacing" textLength="580" x="1820" y="451.6738">GetSpecIdByOptionAsync(dto.SpecializationName).Result</text><polygon fill="#000000" points="3732,491.6719,3742,495.6719,3732,499.6719,3736,495.6719" style="stroke:#000000;stroke-width:1.0;"/><line style="stroke:#000000;stroke-width:1.0;" x1="2773" x2="3738" y1="495.6719" y2="495.6719"/><text fill="#000000" font-family="sans-serif" font-size="20" lengthAdjust="spacing" textLength="873" x="2780" y="488.9551">_objs.Where(x =&gt; x.SpecOption.ToLower() == option.ToLower()).FirstOrDefaultAsync()</text><polygon fill="#000000" points="2784,528.9531,2774,532.9531,2784,536.9531,2780,532.9531" style="stroke:#000000;stroke-width:1.0;"/><line style="stroke:#000000;stroke-width:1.0;stroke-dasharray:2.0,2.0;" x1="2778" x2="3748" y1="532.9531" y2="532.9531"/><text fill="#000000" font-family="sans-serif" font-size="20" lengthAdjust="spacing" textLength="206" x="2790" y="526.2363">return specialization</text><polygon fill="#000000" points="1824,566.2344,1814,570.2344,1824,574.2344,1820,570.2344" style="stroke:#000000;stroke-width:1.0;"/><line style="stroke:#000000;stroke-width:1.0;stroke-dasharray:2.0,2.0;" x1="1818" x2="2767" y1="570.2344" y2="570.2344"/><text fill="#000000" font-family="sans-serif" font-size="20" lengthAdjust="spacing" textLength="206" x="1830" y="563.5176">return specialization</text><path d="M849,585.2344 L925,585.2344 L925,600.5156 L915,610.5156 L849,610.5156 L849,585.2344 " fill="#EEEEEE" style="stroke:#000000;stroke-width:1.5;"/><rect fill="none" height="183.6875" style="stroke:#000000;stroke-width:1.5;" width="1919" x="849" y="585.2344"/><text fill="#000000" font-family="sans-serif" font-size="20" font-weight="bold" lengthAdjust="spacing" textLength="31" x="864" y="604.7988">alt</text><text fill="#000000" font-family="sans-serif" font-size="20" font-weight="bold" lengthAdjust="spacing" textLength="251" x="940" y="605.7988">[specialization is null]</text><polygon fill="#000000" points="955,644.0781,945,648.0781,955,652.0781,951,648.0781" style="stroke:#000000;stroke-width:1.0;"/><line style="stroke:#000000;stroke-width:1.0;stroke-dasharray:2.0,2.0;" x1="949" x2="1802" y1="648.0781" y2="648.0781"/><text fill="#000000" font-family="sans-serif" font-size="20" lengthAdjust="spacing" textLength="840" x="961" y="641.3613">throw BusinessRuleValidationException("Specialization with this name not found.")</text><line style="stroke:#000000;stroke-width:1.0;stroke-dasharray:2.0,2.0;" x1="849" x2="2768" y1="657.0781" y2="657.0781"/><text fill="#000000" font-family="sans-serif" font-size="20" font-weight="bold" lengthAdjust="spacing" textLength="296" x="854" y="675.6426">[specialization is not null]</text><polygon fill="#000000" points="2281,706.6406,2291,710.6406,2281,714.6406,2285,710.6406" style="stroke:#000000;stroke-width:1.0;"/><line style="stroke:#000000;stroke-width:1.0;" x1="1813" x2="2287" y1="710.6406" y2="710.6406"/><text fill="#000000" font-family="sans-serif" font-size="20" lengthAdjust="spacing" textLength="466" x="1820" y="703.9238">SetSpecializationId(specialization.Id.AsGuid())</text><line style="stroke:#000000;stroke-width:1.0;" x1="2303" x2="2345" y1="752.9219" y2="752.9219"/><line style="stroke:#000000;stroke-width:1.0;" x1="2345" x2="2345" y1="752.9219" y2="765.9219"/><line style="stroke:#000000;stroke-width:1.0;" x1="2298" x2="2345" y1="765.9219" y2="765.9219"/><polygon fill="#000000" points="2308,761.9219,2298,765.9219,2308,769.9219,2304,765.9219" style="stroke:#000000;stroke-width:1.0;"/><text fill="#000000" font-family="sans-serif" font-size="20" lengthAdjust="spacing" textLength="446" x="2310" y="746.2051">SpecializationId = specialization.Id.AsGuid()</text><polygon fill="#000000" points="2975,808.2031,2985,812.2031,2975,816.2031,2979,812.2031" style="stroke:#000000;stroke-width:1.0;"/><line style="stroke:#000000;stroke-width:1.0;" x1="1813" x2="2981" y1="812.2031" y2="812.2031"/><text fill="#000000" font-family="sans-serif" font-size="20" lengthAdjust="spacing" textLength="221" x="1820" y="805.4863">searchStaffAsync(dto)</text><polygon fill="#000000" points="3732,845.4844,3742,849.4844,3732,853.4844,3736,849.4844" style="stroke:#000000;stroke-width:1.0;"/><line style="stroke:#000000;stroke-width:1.0;" x1="2997" x2="3738" y1="849.4844" y2="849.4844"/><text fill="#000000" font-family="sans-serif" font-size="20" lengthAdjust="spacing" textLength="200" x="3004" y="842.7676">_objs.AsQueryable()</text><path d="M3759,862.4844 L3759,941.4844 L4281,941.4844 L4281,872.4844 L4271,862.4844 L3759,862.4844 " fill="#FEFFDD" style="stroke:#181818;stroke-width:0.5;"/><path d="M4271,862.4844 L4271,872.4844 L4281,872.4844 L4271,862.4844 " fill="#FEFFDD" style="stroke:#181818;stroke-width:0.5;"/><text fill="#000000" font-family="sans-serif" font-size="20" lengthAdjust="spacing" textLength="501" x="3765" y="886.0488">This will return a queryable list of all staff profiles.</text><text fill="#000000" font-family="sans-serif" font-size="20" lengthAdjust="spacing" textLength="459" x="3765" y="909.3301">This means that other queries can be chained</text><text fill="#000000" font-family="sans-serif" font-size="20" lengthAdjust="spacing" textLength="444" x="3765" y="932.6113">to this one in order to filter the staff profiles.</text><polygon fill="#000000" points="3008,972.6094,2998,976.6094,3008,980.6094,3004,976.6094" style="stroke:#000000;stroke-width:1.0;"/><line style="stroke:#000000;stroke-width:1.0;stroke-dasharray:2.0,2.0;" x1="3002" x2="3748" y1="976.6094" y2="976.6094"/><text fill="#000000" font-family="sans-serif" font-size="20" lengthAdjust="spacing" textLength="444" x="3014" y="969.8926">Returns the queryable list of all staff profiles</text><path d="M2898.5,991.6094 L2981.5,991.6094 L2981.5,1006.8906 L2971.5,1016.8906 L2898.5,1016.8906 L2898.5,991.6094 " fill="#EEEEEE" style="stroke:#000000;stroke-width:1.5;"/><rect fill="none" height="108.125" style="stroke:#000000;stroke-width:1.5;" width="914.5" x="2898.5" y="991.6094"/><text fill="#000000" font-family="sans-serif" font-size="20" font-weight="bold" lengthAdjust="spacing" textLength="38" x="2913.5" y="1011.1738">opt</text><text fill="#000000" font-family="sans-serif" font-size="20" font-weight="bold" lengthAdjust="spacing" textLength="368" x="2996.5" y="1012.1738">[Filter queryable by First Name]</text><polygon fill="#000000" points="3732,1050.4531,3742,1054.4531,3732,1058.4531,3736,1054.4531" style="stroke:#000000;stroke-width:1.0;"/><line style="stroke:#000000;stroke-width:1.0;" x1="2997" x2="3738" y1="1054.4531" y2="1054.4531"/><text fill="#000000" font-family="sans-serif" font-size="20" lengthAdjust="spacing" textLength="571" x="3004" y="1047.7363">query.Where(s =&gt; s.FirstName.Contains(dto.FirstName))</text><polygon fill="#000000" points="3008,1087.7344,2998,1091.7344,3008,1095.7344,3004,1091.7344" style="stroke:#000000;stroke-width:1.0;"/><line style="stroke:#000000;stroke-width:1.0;stroke-dasharray:2.0,2.0;" x1="3002" x2="3748" y1="1091.7344" y2="1091.7344"/><text fill="#000000" font-family="sans-serif" font-size="20" lengthAdjust="spacing" textLength="637" x="3014" y="1085.0176">Returns the queryable list of staff profiles filtered by First Name</text><path d="M2898.5,1113.7344 L2981.5,1113.7344 L2981.5,1129.0156 L2971.5,1139.0156 L2898.5,1139.0156 L2898.5,1113.7344 " fill="#EEEEEE" style="stroke:#000000;stroke-width:1.5;"/><rect fill="none" height="108.125" style="stroke:#000000;stroke-width:1.5;" width="914.5" x="2898.5" y="1113.7344"/><text fill="#000000" font-family="sans-serif" font-size="20" font-weight="bold" lengthAdjust="spacing" textLength="38" x="2913.5" y="1133.2988">opt</text><text fill="#000000" font-family="sans-serif" font-size="20" font-weight="bold" lengthAdjust="spacing" textLength="364" x="2996.5" y="1134.2988">[Filter queryable by Last Name]</text><polygon fill="#000000" points="3732,1172.5781,3742,1176.5781,3732,1180.5781,3736,1176.5781" style="stroke:#000000;stroke-width:1.0;"/><line style="stroke:#000000;stroke-width:1.0;" x1="2997" x2="3738" y1="1176.5781" y2="1176.5781"/><text fill="#000000" font-family="sans-serif" font-size="20" lengthAdjust="spacing" textLength="565" x="3004" y="1169.8613">query.Where(s =&gt; s.LastName.Contains(dto.LastName))</text><polygon fill="#000000" points="3008,1209.8594,2998,1213.8594,3008,1217.8594,3004,1213.8594" style="stroke:#000000;stroke-width:1.0;"/><line style="stroke:#000000;stroke-width:1.0;stroke-dasharray:2.0,2.0;" x1="3002" x2="3748" y1="1213.8594" y2="1213.8594"/><text fill="#000000" font-family="sans-serif" font-size="20" lengthAdjust="spacing" textLength="634" x="3014" y="1207.1426">Returns the queryable list of staff profiles filtered by Last Name</text><path d="M2898.5,1235.8594 L2981.5,1235.8594 L2981.5,1251.1406 L2971.5,1261.1406 L2898.5,1261.1406 L2898.5,1235.8594 " fill="#EEEEEE" style="stroke:#000000;stroke-width:1.5;"/><rect fill="none" height="108.125" style="stroke:#000000;stroke-width:1.5;" width="914.5" x="2898.5" y="1235.8594"/><text fill="#000000" font-family="sans-serif" font-size="20" font-weight="bold" lengthAdjust="spacing" textLength="38" x="2913.5" y="1255.4238">opt</text><text fill="#000000" font-family="sans-serif" font-size="20" font-weight="bold" lengthAdjust="spacing" textLength="357" x="2996.5" y="1256.4238">[Filter queryable by Full Name]</text><polygon fill="#000000" points="3732,1294.7031,3742,1298.7031,3732,1302.7031,3736,1298.7031" style="stroke:#000000;stroke-width:1.0;"/><line style="stroke:#000000;stroke-width:1.0;" x1="2997" x2="3738" y1="1298.7031" y2="1298.7031"/><text fill="#000000" font-family="sans-serif" font-size="20" lengthAdjust="spacing" textLength="557" x="3004" y="1291.9863">query.Where(s =&gt; s.FullName.Contains(dto.FullName))</text><polygon fill="#000000" points="3008,1331.9844,2998,1335.9844,3008,1339.9844,3004,1335.9844" style="stroke:#000000;stroke-width:1.0;"/><line style="stroke:#000000;stroke-width:1.0;stroke-dasharray:2.0,2.0;" x1="3002" x2="3748" y1="1335.9844" y2="1335.9844"/><text fill="#000000" font-family="sans-serif" font-size="20" lengthAdjust="spacing" textLength="630" x="3014" y="1329.2676">Returns the queryable list of staff profiles filtered by Full Name</text><path d="M2898.5,1357.9844 L2981.5,1357.9844 L2981.5,1373.2656 L2971.5,1383.2656 L2898.5,1383.2656 L2898.5,1357.9844 " fill="#EEEEEE" style="stroke:#000000;stroke-width:1.5;"/><rect fill="none" height="108.125" style="stroke:#000000;stroke-width:1.5;" width="914.5" x="2898.5" y="1357.9844"/><text fill="#000000" font-family="sans-serif" font-size="20" font-weight="bold" lengthAdjust="spacing" textLength="38" x="2913.5" y="1377.5488">opt</text><text fill="#000000" font-family="sans-serif" font-size="20" font-weight="bold" lengthAdjust="spacing" textLength="305" x="2996.5" y="1378.5488">[Filter queryable by Email]</text><polygon fill="#000000" points="3732,1416.8281,3742,1420.8281,3732,1424.8281,3736,1420.8281" style="stroke:#000000;stroke-width:1.0;"/><line style="stroke:#000000;stroke-width:1.0;" x1="2997" x2="3738" y1="1420.8281" y2="1420.8281"/><text fill="#000000" font-family="sans-serif" font-size="20" lengthAdjust="spacing" textLength="479" x="3004" y="1414.1113">query.Where(s =&gt; s.Email.Contains(dto.Email))</text><polygon fill="#000000" points="3008,1454.1094,2998,1458.1094,3008,1462.1094,3004,1458.1094" style="stroke:#000000;stroke-width:1.0;"/><line style="stroke:#000000;stroke-width:1.0;stroke-dasharray:2.0,2.0;" x1="3002" x2="3748" y1="1458.1094" y2="1458.1094"/><text fill="#000000" font-family="sans-serif" font-size="20" lengthAdjust="spacing" textLength="585" x="3014" y="1451.3926">Returns the queryable list of staff profiles filtered by Email</text><path d="M2898.5,1480.1094 L2981.5,1480.1094 L2981.5,1495.3906 L2971.5,1505.3906 L2898.5,1505.3906 L2898.5,1480.1094 " fill="#EEEEEE" style="stroke:#000000;stroke-width:1.5;"/><rect fill="none" height="108.125" style="stroke:#000000;stroke-width:1.5;" width="914.5" x="2898.5" y="1480.1094"/><text fill="#000000" font-family="sans-serif" font-size="20" font-weight="bold" lengthAdjust="spacing" textLength="38" x="2913.5" y="1499.6738">opt</text><text fill="#000000" font-family="sans-serif" font-size="20" font-weight="bold" lengthAdjust="spacing" textLength="423" x="2996.5" y="1500.6738">[Filter queryable by SpecializationId]</text><polygon fill="#000000" points="3732,1538.9531,3742,1542.9531,3732,1546.9531,3736,1542.9531" style="stroke:#000000;stroke-width:1.0;"/><line style="stroke:#000000;stroke-width:1.0;" x1="2997" x2="3738" y1="1542.9531" y2="1542.9531"/><text fill="#000000" font-family="sans-serif" font-size="20" lengthAdjust="spacing" textLength="728" x="3004" y="1536.2363">query.Where(s =&gt; s.SpecializationId.ToString() == dto.SpecializationId)</text><polygon fill="#000000" points="3008,1576.2344,2998,1580.2344,3008,1584.2344,3004,1580.2344" style="stroke:#000000;stroke-width:1.0;"/><line style="stroke:#000000;stroke-width:1.0;stroke-dasharray:2.0,2.0;" x1="3002" x2="3748" y1="1580.2344" y2="1580.2344"/><text fill="#000000" font-family="sans-serif" font-size="20" lengthAdjust="spacing" textLength="688" x="3014" y="1573.5176">Returns the queryable list of staff profiles filtered by SpecializationId</text><polygon fill="#000000" points="1824,1620.5156,1814,1624.5156,1824,1628.5156,1820,1624.5156" style="stroke:#000000;stroke-width:1.0;"/><line style="stroke:#000000;stroke-width:1.0;stroke-dasharray:2.0,2.0;" x1="1818" x2="2991" y1="1624.5156" y2="1624.5156"/><text fill="#000000" font-family="sans-serif" font-size="20" lengthAdjust="spacing" textLength="358" x="1830" y="1617.7988">Returns the final list of staff profiles</text><path d="M849,1639.5156 L925,1639.5156 L925,1654.7969 L915,1664.7969 L849,1664.7969 L849,1639.5156 " fill="#EEEEEE" style="stroke:#000000;stroke-width:1.5;"/><rect fill="none" height="343.0938" style="stroke:#000000;stroke-width:1.5;" width="2731.5" x="849" y="1639.5156"/><text fill="#000000" font-family="sans-serif" font-size="20" font-weight="bold" lengthAdjust="spacing" textLength="31" x="864" y="1659.0801">alt</text><text fill="#000000" font-family="sans-serif" font-size="20" font-weight="bold" lengthAdjust="spacing" textLength="239" x="940" y="1660.0801">[list is null or empty]</text><polygon fill="#000000" points="955,1698.3594,945,1702.3594,955,1706.3594,951,1702.3594" style="stroke:#000000;stroke-width:1.0;"/><line style="stroke:#000000;stroke-width:1.0;stroke-dasharray:2.0,2.0;" x1="949" x2="1802" y1="1702.3594" y2="1702.3594"/><text fill="#000000" font-family="sans-serif" font-size="20" lengthAdjust="spacing" textLength="122" x="961" y="1695.6426">Returns null</text><line style="stroke:#000000;stroke-width:1.0;stroke-dasharray:2.0,2.0;" x1="849" x2="3580.5" y1="1711.3594" y2="1711.3594"/><text fill="#000000" font-family="sans-serif" font-size="20" font-weight="bold" lengthAdjust="spacing" textLength="174" x="854" y="1729.9238">[list is not null]</text><path d="M1731,1742.6406 L1825,1742.6406 L1825,1757.9219 L1815,1767.9219 L1731,1767.9219 L1731,1742.6406 " fill="#EEEEEE" style="stroke:#000000;stroke-width:1.5;"/><rect fill="none" height="195.6875" style="stroke:#000000;stroke-width:1.5;" width="1839.5" x="1731" y="1742.6406"/><text fill="#000000" font-family="sans-serif" font-size="20" font-weight="bold" lengthAdjust="spacing" textLength="49" x="1746" y="1762.2051">loop</text><text fill="#000000" font-family="sans-serif" font-size="20" font-weight="bold" lengthAdjust="spacing" textLength="289" x="1840" y="1763.2051">[for each staff in the list]</text><polygon fill="#000000" points="3136.5,1801.4844,3146.5,1805.4844,3136.5,1809.4844,3140.5,1805.4844" style="stroke:#000000;stroke-width:1.0;"/><line style="stroke:#000000;stroke-width:1.0;" x1="1813" x2="3142.5" y1="1805.4844" y2="1805.4844"/><text fill="#000000" font-family="sans-serif" font-size="20" lengthAdjust="spacing" textLength="123" x="1820" y="1798.7676">toDTO(staff)</text><polygon fill="#000000" points="3423.5,1838.7656,3433.5,1842.7656,3423.5,1846.7656,3427.5,1842.7656" style="stroke:#000000;stroke-width:1.0;"/><line style="stroke:#000000;stroke-width:1.0;" x1="3158.5" x2="3429.5" y1="1842.7656" y2="1842.7656"/><text fill="#000000" font-family="sans-serif" font-size="20" lengthAdjust="spacing" textLength="258" x="3165.5" y="1836.0488">new StaffDTO(staff fields)</text><line style="stroke:#000000;stroke-width:1.0;" x1="3445.5" x2="3487.5" y1="1885.0469" y2="1885.0469"/><line style="stroke:#000000;stroke-width:1.0;" x1="3487.5" x2="3487.5" y1="1885.0469" y2="1898.0469"/><line style="stroke:#000000;stroke-width:1.0;" x1="3440.5" x2="3487.5" y1="1898.0469" y2="1898.0469"/><polygon fill="#000000" points="3450.5,1894.0469,3440.5,1898.0469,3450.5,1902.0469,3446.5,1898.0469" style="stroke:#000000;stroke-width:1.0;"/><text fill="#000000" font-family="sans-serif" font-size="20" lengthAdjust="spacing" textLength="106" x="3452.5" y="1878.3301">StaffDTO()</text><polygon fill="#000000" points="1824,1926.3281,1814,1930.3281,1824,1934.3281,1820,1930.3281" style="stroke:#000000;stroke-width:1.0;"/><line style="stroke:#000000;stroke-width:1.0;stroke-dasharray:2.0,2.0;" x1="1818" x2="3152.5" y1="1930.3281" y2="1930.3281"/><text fill="#000000" font-family="sans-serif" font-size="20" lengthAdjust="spacing" textLength="213" x="1830" y="1923.6113">Returns the StaffDTO</text><polygon fill="#000000" points="955,1970.6094,945,1974.6094,955,1978.6094,951,1974.6094" style="stroke:#000000;stroke-width:1.0;"/><line style="stroke:#000000;stroke-width:1.0;stroke-dasharray:2.0,2.0;" x1="949" x2="1807" y1="1974.6094" y2="1974.6094"/><text fill="#000000" font-family="sans-serif" font-size="20" lengthAdjust="spacing" textLength="284" x="961" y="1967.8926">Returns the list of StaffDTOs</text><polygon fill="#000000" points="508,2014.8906,498,2018.8906,508,2022.8906,504,2018.8906" style="stroke:#000000;stroke-width:1.0;"/><line style="stroke:#000000;stroke-width:1.0;stroke-dasharray:2.0,2.0;" x1="502" x2="938" y1="2018.8906" y2="2018.8906"/><text fill="#000000" font-family="sans-serif" font-size="20" lengthAdjust="spacing" textLength="413" x="514" y="2012.1738">Returns Operation Status Response Code</text><polygon fill="#000000" points="57,2052.1719,47,2056.1719,57,2060.1719,53,2056.1719" style="stroke:#000000;stroke-width:1.0;"/><line style="stroke:#000000;stroke-width:1.0;stroke-dasharray:2.0,2.0;" x1="51" x2="491" y1="2056.1719" y2="2056.1719"/><text fill="#000000" font-family="sans-serif" font-size="20" lengthAdjust="spacing" textLength="391" x="63" y="2049.4551">Returns Operation In/Success message</text><!--SRC=[jLTDR-Cs4BthLmooXzg7UBTRz2lO6B0iUs4WRbehQIy12beQnzpGf4fIIRn5_tk7r8SbMTduaW01BEgzuRoPuGnb7hZCc6OxeP87J2753Sk5dIjfO_uLuUE78B3S2eGhV4G1Fq34sJtXOQCqnCXqikNo7cBBDXluNQiD5sY2OCjJ1DnbTWyxtArHc-0xK-q5LroYtMS8Ijkj2eB3cqGmO-3V0EWlPCd3lLQvJATAAFtfqoCJELwlls1YnsDu5_qqcyn_wOTgfJnc7it2w4C_ng1-v0bwKz_FFyx2FXYPcCr_dVtitqsqLa_5SYW85_pNz3sZ5NQF_Tx3krau_t4UEWfBB2rCqXsNm0nC0k9Rdl2CIGjdj-GNBAH5lM49dZd4xQ8DyT6UKewq4WArnqnx876XqB-FE-zzwZmgkhak4FIZ0yemuKpmhyno9LUOASF9zRs7h-AU7RkO7iYIPLdfyxBdTULDr7uNCSlMp1HQej07aJyoYnI-2PoFAKONC34F1gm2mOq5uqiogqgonbCmRnTmJfH9oN2bRBS8AUtXw4IWwFkbZf4KcsRgVMEKgJdHX5H4rln-Qq5jFFkcuYLCmXfXpZMv_nlR8J2PlYVdhbXdOPuBqLgOxHWNTx9yQkVD0u_qZs5w0UPG1TNP7RGh0rAhXWVoD9WwQdmwLMNM_HYrVVA-SmCK3P0anX-Ps9bUaUtFQ1ryaORxwyp19sOlaq6_cU5eXOPwbZTHEqhLwPvNtcOKNi3VQlt5ZFxQeiR1CroEuTdRAkoFRjILUa8z6CBb9QZEsd3aKtAjew8x5juCsnj6HVk8GbzQJeL6csi9fkMn1pNAgAGvFukudiGYTSNkmdQGFgXLGCkW5hcsMsfU4EQ6cgyngrpWdyHAFMlsdA0NFUYSUNZYTajKPzMbpELhuvhQwApGZy9WdmlDlDQvTHt6dHRRtcIH3jeMHejqD36VSvvIy6iJjNhVg6h3z70-BYrtpC8bl6oujj28QssP3dJW_W-L7mT5UROglwxBnX5P1QjspKtC7pdgFLiB73HmbFbsBt2C6nVf9qwdkwm31lzKvAAj4P3HwtPN6Tr9pzmXawuHCS9Hxz6UpD5KhINPCif-UYUfHVcaAad7KD8SJbst-aRV6WLLPL_0ohjMDBnJl0lQzUuwmhpOvy1UxnjzhpWILHGzg3ovnfrSKvn7XnovAKYQZ6yEzVBmsuVpDGbjzykWqEtesCcsCbSnBwchU_YhuXpoM5kr-dRIsXwUhgmUHg-dZP0zMIjNtp1fBGzFL-QdwgkgFAejoI-zdPw3NwThwVR6LsLr2JGFOwlfibyCoUDXl4ZVJ72lyyVQLzKGRMwquPA95pPfTgPLuAQfnvKpbDfYyGqJj0PfPTpFDp__Qb9pwWcbCd-rf2ssvRxKQfrB3j-UZ4kQpug6py3ZUcRUibvQ-fnTWCGdgAvQ1OsaeaXD3pkgbwAINJDxvs3KtEquf1MvZxgivsTlq2hvBXUL6TDDP-opEVLSTqEkoDVquL1SCOXgS_g-G9CfIHcOgXIRoPmsxlZ7x8Ly7-T9GjSWcfZ6q4TRvsR_Fm00]--></g></svg>