<?xml version="1.0" encoding="UTF-8" standalone="no"?><svg xmlns="http://www.w3.org/2000/svg" xmlns:xlink="http://www.w3.org/1999/xlink" contentStyleType="text/css" height="881px" preserveAspectRatio="none" style="width:1805px;height:881px;background:#FFFFFF;" version="1.1" viewBox="0 0 1805 881" width="1805px" zoomAndPan="magnify"><defs/><g><text fill="#000000" font-family="sans-serif" font-size="14" font-weight="bold" lengthAdjust="spacing" textLength="225" x="792" y="27.9951">Level 2 Diagram for US 7.2.7</text><rect fill="#FFFFFF" height="649.5" style="stroke:#181818;stroke-width:1.0;" width="10" x="36" y="135.5781"/><rect fill="#FFFFFF" height="411.8125" style="stroke:#181818;stroke-width:1.0;" width="10" x="479" y="164.8594"/><rect fill="#FFFFFF" height="162.125" style="stroke:#181818;stroke-width:1.0;" width="10" x="479" y="613.9531"/><rect fill="#FFFFFF" height="87.5625" style="stroke:#181818;stroke-width:1.0;" width="10" x="1050" y="326.9844"/><rect fill="#FFFFFF" height="87.5625" style="stroke:#181818;stroke-width:1.0;" width="10" x="1050" y="451.8281"/><rect fill="#FFFFFF" height="87.5625" style="stroke:#181818;stroke-width:1.0;" width="10" x="1050" y="651.2344"/><rect fill="#FFFFFF" height="87.5625" style="stroke:#181818;stroke-width:1.0;" width="10" x="1616" y="202.1406"/><line style="stroke:#181818;stroke-width:0.5;stroke-dasharray:5.0,5.0;" x1="41" x2="41" y1="125.5781" y2="794.0781"/><line style="stroke:#181818;stroke-width:0.5;stroke-dasharray:5.0,5.0;" x1="483.5" x2="483.5" y1="125.5781" y2="794.0781"/><line style="stroke:#181818;stroke-width:0.5;stroke-dasharray:5.0,5.0;" x1="1055" x2="1055" y1="125.5781" y2="794.0781"/><line style="stroke:#181818;stroke-width:0.5;stroke-dasharray:5.0,5.0;" x1="1621" x2="1621" y1="125.5781" y2="794.0781"/><text fill="#000000" font-family="sans-serif" font-size="20" lengthAdjust="spacing" textLength="66" x="5" y="120.8613">Doctor</text><ellipse cx="41" cy="50.7969" fill="#E2E2F0" rx="8" ry="8" style="stroke:#181818;stroke-width:0.5;"/><path d="M41,58.7969 L41,85.7969 M28,66.7969 L54,66.7969 M41,85.7969 L28,100.7969 M41,85.7969 L54,100.7969 " fill="none" style="stroke:#181818;stroke-width:0.5;"/><text fill="#000000" font-family="sans-serif" font-size="20" lengthAdjust="spacing" textLength="66" x="5" y="811.6426">Doctor</text><ellipse cx="41" cy="824.8594" fill="#E2E2F0" rx="8" ry="8" style="stroke:#181818;stroke-width:0.5;"/><path d="M41,832.8594 L41,859.8594 M28,840.8594 L54,840.8594 M41,859.8594 L28,874.8594 M41,859.8594 L54,874.8594 " fill="none" style="stroke:#181818;stroke-width:0.5;"/><rect fill="#E2E2F0" height="37.2813" rx="2.5" ry="2.5" style="stroke:#181818;stroke-width:0.5;" width="39" x="464.5" y="87.2969"/><text fill="#000000" font-family="sans-serif" font-size="20" lengthAdjust="spacing" textLength="25" x="471.5" y="112.8613">FE</text><rect fill="#E2E2F0" height="37.2813" rx="2.5" ry="2.5" style="stroke:#181818;stroke-width:0.5;" width="39" x="464.5" y="793.0781"/><text fill="#000000" font-family="sans-serif" font-size="20" lengthAdjust="spacing" textLength="25" x="471.5" y="818.6426">FE</text><rect fill="#E2E2F0" height="37.2813" rx="2.5" ry="2.5" style="stroke:#181818;stroke-width:0.5;" width="60" x="1025" y="87.2969"/><text fill="#000000" font-family="sans-serif" font-size="20" lengthAdjust="spacing" textLength="46" x="1032" y="112.8613">MDV</text><rect fill="#E2E2F0" height="37.2813" rx="2.5" ry="2.5" style="stroke:#181818;stroke-width:0.5;" width="60" x="1025" y="793.0781"/><text fill="#000000" font-family="sans-serif" font-size="20" lengthAdjust="spacing" textLength="46" x="1032" y="818.6426">MDV</text><rect fill="#E2E2F0" height="37.2813" rx="2.5" ry="2.5" style="stroke:#181818;stroke-width:0.5;" width="60" x="1591" y="87.2969"/><text fill="#000000" font-family="sans-serif" font-size="20" lengthAdjust="spacing" textLength="46" x="1598" y="112.8613">MDR</text><rect fill="#E2E2F0" height="37.2813" rx="2.5" ry="2.5" style="stroke:#181818;stroke-width:0.5;" width="60" x="1591" y="793.0781"/><text fill="#000000" font-family="sans-serif" font-size="20" lengthAdjust="spacing" textLength="46" x="1598" y="818.6426">MDR</text><rect fill="#FFFFFF" height="649.5" style="stroke:#181818;stroke-width:1.0;" width="10" x="36" y="135.5781"/><rect fill="#FFFFFF" height="411.8125" style="stroke:#181818;stroke-width:1.0;" width="10" x="479" y="164.8594"/><rect fill="#FFFFFF" height="162.125" style="stroke:#181818;stroke-width:1.0;" width="10" x="479" y="613.9531"/><rect fill="#FFFFFF" height="87.5625" style="stroke:#181818;stroke-width:1.0;" width="10" x="1050" y="326.9844"/><rect fill="#FFFFFF" height="87.5625" style="stroke:#181818;stroke-width:1.0;" width="10" x="1050" y="451.8281"/><rect fill="#FFFFFF" height="87.5625" style="stroke:#181818;stroke-width:1.0;" width="10" x="1050" y="651.2344"/><rect fill="#FFFFFF" height="87.5625" style="stroke:#181818;stroke-width:1.0;" width="10" x="1616" y="202.1406"/><polygon fill="#000000" points="467,160.8594,477,164.8594,467,168.8594,471,164.8594" style="stroke:#000000;stroke-width:1.0;"/><line style="stroke:#000000;stroke-width:1.0;" x1="46" x2="473" y1="164.8594" y2="164.8594"/><text fill="#000000" font-family="sans-serif" font-size="20" lengthAdjust="spacing" textLength="197" x="53" y="158.1426">Ask for Patient data</text><polygon fill="#000000" points="1604,198.1406,1614,202.1406,1604,206.1406,1608,202.1406" style="stroke:#000000;stroke-width:1.0;"/><line style="stroke:#000000;stroke-width:1.0;" x1="489" x2="1610" y1="202.1406" y2="202.1406"/><text fill="#000000" font-family="sans-serif" font-size="20" lengthAdjust="spacing" textLength="293" x="496" y="195.4238">HTTP request to fetch Patient</text><line style="stroke:#000000;stroke-width:1.0;" x1="1626" x2="1668" y1="239.4219" y2="239.4219"/><line style="stroke:#000000;stroke-width:1.0;" x1="1668" x2="1668" y1="239.4219" y2="252.4219"/><line style="stroke:#000000;stroke-width:1.0;" x1="1627" x2="1668" y1="252.4219" y2="252.4219"/><polygon fill="#000000" points="1637,248.4219,1627,252.4219,1637,256.4219,1633,252.4219" style="stroke:#000000;stroke-width:1.0;"/><text fill="#000000" font-family="sans-serif" font-size="20" lengthAdjust="spacing" textLength="165" x="1633" y="232.7051">Fetches Patients</text><polygon fill="#000000" points="500,285.7031,490,289.7031,500,293.7031,496,289.7031" style="stroke:#000000;stroke-width:1.0;"/><line style="stroke:#000000;stroke-width:1.0;stroke-dasharray:2.0,2.0;" x1="494" x2="1620" y1="289.7031" y2="289.7031"/><text fill="#000000" font-family="sans-serif" font-size="20" lengthAdjust="spacing" textLength="165" x="506" y="282.9863">Returns Patients</text><polygon fill="#000000" points="1038,322.9844,1048,326.9844,1038,330.9844,1042,326.9844" style="stroke:#000000;stroke-width:1.0;"/><line style="stroke:#000000;stroke-width:1.0;" x1="489" x2="1044" y1="326.9844" y2="326.9844"/><text fill="#000000" font-family="sans-serif" font-size="20" lengthAdjust="spacing" textLength="303" x="496" y="320.2676">HTTP request to fetch Alergies</text><line style="stroke:#000000;stroke-width:1.0;" x1="1060" x2="1102" y1="364.2656" y2="364.2656"/><line style="stroke:#000000;stroke-width:1.0;" x1="1102" x2="1102" y1="364.2656" y2="377.2656"/><line style="stroke:#000000;stroke-width:1.0;" x1="1061" x2="1102" y1="377.2656" y2="377.2656"/><polygon fill="#000000" points="1071,373.2656,1061,377.2656,1071,381.2656,1067,377.2656" style="stroke:#000000;stroke-width:1.0;"/><text fill="#000000" font-family="sans-serif" font-size="20" lengthAdjust="spacing" textLength="165" x="1067" y="357.5488">Fetches Alergies</text><polygon fill="#000000" points="500,410.5469,490,414.5469,500,418.5469,496,414.5469" style="stroke:#000000;stroke-width:1.0;"/><line style="stroke:#000000;stroke-width:1.0;stroke-dasharray:2.0,2.0;" x1="494" x2="1054" y1="414.5469" y2="414.5469"/><text fill="#000000" font-family="sans-serif" font-size="20" lengthAdjust="spacing" textLength="165" x="506" y="407.8301">Returns Alergies</text><polygon fill="#000000" points="1038,447.8281,1048,451.8281,1038,455.8281,1042,451.8281" style="stroke:#000000;stroke-width:1.0;"/><line style="stroke:#000000;stroke-width:1.0;" x1="489" x2="1044" y1="451.8281" y2="451.8281"/><text fill="#000000" font-family="sans-serif" font-size="20" lengthAdjust="spacing" textLength="412" x="496" y="445.1113">HTTP request to fetch Medical Conditions</text><line style="stroke:#000000;stroke-width:1.0;" x1="1060" x2="1102" y1="489.1094" y2="489.1094"/><line style="stroke:#000000;stroke-width:1.0;" x1="1102" x2="1102" y1="489.1094" y2="502.1094"/><line style="stroke:#000000;stroke-width:1.0;" x1="1061" x2="1102" y1="502.1094" y2="502.1094"/><polygon fill="#000000" points="1071,498.1094,1061,502.1094,1071,506.1094,1067,502.1094" style="stroke:#000000;stroke-width:1.0;"/><text fill="#000000" font-family="sans-serif" font-size="20" lengthAdjust="spacing" textLength="274" x="1067" y="482.3926">Fetches Medical Conditions</text><polygon fill="#000000" points="500,535.3906,490,539.3906,500,543.3906,496,539.3906" style="stroke:#000000;stroke-width:1.0;"/><line style="stroke:#000000;stroke-width:1.0;stroke-dasharray:2.0,2.0;" x1="494" x2="1054" y1="539.3906" y2="539.3906"/><text fill="#000000" font-family="sans-serif" font-size="20" lengthAdjust="spacing" textLength="274" x="506" y="532.6738">Returns Medical Conditions</text><polygon fill="#000000" points="57,572.6719,47,576.6719,57,580.6719,53,576.6719" style="stroke:#000000;stroke-width:1.0;"/><line style="stroke:#000000;stroke-width:1.0;stroke-dasharray:2.0,2.0;" x1="51" x2="483" y1="576.6719" y2="576.6719"/><text fill="#000000" font-family="sans-serif" font-size="20" lengthAdjust="spacing" textLength="200" x="63" y="569.9551">Displays all Patients</text><polygon fill="#000000" points="467,609.9531,477,613.9531,467,617.9531,471,613.9531" style="stroke:#000000;stroke-width:1.0;"/><line style="stroke:#000000;stroke-width:1.0;" x1="46" x2="473" y1="613.9531" y2="613.9531"/><text fill="#000000" font-family="sans-serif" font-size="20" lengthAdjust="spacing" textLength="386" x="53" y="607.2363">Selects Patient Medical Record to view</text><polygon fill="#000000" points="1038,647.2344,1048,651.2344,1038,655.2344,1042,651.2344" style="stroke:#000000;stroke-width:1.0;"/><line style="stroke:#000000;stroke-width:1.0;" x1="489" x2="1044" y1="651.2344" y2="651.2344"/><text fill="#000000" font-family="sans-serif" font-size="20" lengthAdjust="spacing" textLength="542" x="496" y="644.5176">HTTP request to fetch selected Patient Medical History</text><line style="stroke:#000000;stroke-width:1.0;" x1="1060" x2="1102" y1="688.5156" y2="688.5156"/><line style="stroke:#000000;stroke-width:1.0;" x1="1102" x2="1102" y1="688.5156" y2="701.5156"/><line style="stroke:#000000;stroke-width:1.0;" x1="1061" x2="1102" y1="701.5156" y2="701.5156"/><polygon fill="#000000" points="1071,697.5156,1061,701.5156,1071,705.5156,1067,701.5156" style="stroke:#000000;stroke-width:1.0;"/><text fill="#000000" font-family="sans-serif" font-size="20" lengthAdjust="spacing" textLength="542" x="1067" y="681.7988">Validates and fetches selected Patient Medical History</text><polygon fill="#000000" points="500,734.7969,490,738.7969,500,742.7969,496,738.7969" style="stroke:#000000;stroke-width:1.0;"/><line style="stroke:#000000;stroke-width:1.0;stroke-dasharray:2.0,2.0;" x1="494" x2="1054" y1="738.7969" y2="738.7969"/><text fill="#000000" font-family="sans-serif" font-size="20" lengthAdjust="spacing" textLength="404" x="506" y="732.0801">Returns selected Patient Medical Record</text><polygon fill="#000000" points="57,772.0781,47,776.0781,57,780.0781,53,776.0781" style="stroke:#000000;stroke-width:1.0;"/><line style="stroke:#000000;stroke-width:1.0;stroke-dasharray:2.0,2.0;" x1="51" x2="483" y1="776.0781" y2="776.0781"/><text fill="#000000" font-family="sans-serif" font-size="20" lengthAdjust="spacing" textLength="409" x="63" y="769.3613">Displays selected Patient Medical Record</text><!--SRC=[bLH1Rjim4Bpp5Glat20rqBer0WDM92671WtiLFSDkNPOqw9AKWhSed_lIegisANHL1SAmzdPuMWflzLbXGvtniejAL2qnjg4t9PXfNyIJAw423eOWY_Ka849f1etp8UrTV1j1TFBoULKY2Uj26XNXJtiQFT8pWlX1ssG1hs7NmBuIL1kDyxMfRgnnhhhwmPDJLyVlvCCypbSf1-pHVufJdNMTfmypPBqAixnv1ejgPDwdq-o94PZYIp_d4sxlOLpzhc74yCyyVkrzueHt53SFLnaIVuXJzeIb861r7OBUaW52mGjTOLbW3nhiJmx0k_IeaLvEO6NFRpiL7M3WLWkXNTpLfZ1mc-x-EynQ6A-me0mCha9TsCk2ypWzk7X7XpzgCa721RM5EJJeNIiQhkrZOUwlEMH7vY-ttnniAHGktBS1A7eIEdWe3ZdO678RJGtU6sX46qaG-5WOQ3scoSMHfqZ2yKRBDoHqX8DtDXIwQ1j-HOpVnT5RSMqOmQvB9tnfVALmRq7D2OUAd_KSG1MPFYs7E8_D5kIj4wr1smqFKSducmOljFaNy2fwAtsFD7xyyaKQ3IF86U3fUhL-FsVUh7KpXRr9pjDC1BWVoXmAdy0]--></g></svg>