<?xml version="1.0" encoding="UTF-8" standalone="no"?><svg xmlns="http://www.w3.org/2000/svg" xmlns:xlink="http://www.w3.org/1999/xlink" contentStyleType="text/css" height="2155px" preserveAspectRatio="none" style="width:4343px;height:2155px;background:#FFFFFF;" version="1.1" viewBox="0 0 4343 2155" width="4343px" zoomAndPan="magnify"><defs/><g><text fill="#000000" font-family="sans-serif" font-size="14" font-weight="bold" lengthAdjust="spacing" textLength="248" x="2049.75" y="27.9951">Level 3 FE Diagram for US 7.2.6</text><rect fill="#FFFFFF" height="1914.0625" style="stroke:#181818;stroke-width:1.0;" width="10" x="36" y="135.5781"/><rect fill="#FFFFFF" height="1321.5625" style="stroke:#181818;stroke-width:1.0;" width="10" x="737" y="164.8594"/><rect fill="#FFFFFF" height="502.6563" style="stroke:#181818;stroke-width:1.0;" width="10" x="737" y="1546.9844"/><rect fill="#FFFFFF" height="37.2813" style="stroke:#181818;stroke-width:1.0;" width="10" x="1157" y="202.1406"/><rect fill="#FFFFFF" height="1209.7188" style="stroke:#181818;stroke-width:1.0;" width="10" x="1803" y="239.4219"/><rect fill="#FFFFFF" height="428.0938" style="stroke:#181818;stroke-width:1.0;" width="10" x="1803" y="1584.2656"/><rect fill="#FFFFFF" height="353.5313" style="stroke:#181818;stroke-width:1.0;" width="10" x="2172" y="667.5156"/><rect fill="#FFFFFF" height="353.5313" style="stroke:#181818;stroke-width:1.0;" width="10" x="2391" y="276.7031"/><rect fill="#FFFFFF" height="353.5313" style="stroke:#181818;stroke-width:1.0;" width="10" x="2596.5" y="1058.3281"/><rect fill="#FFFFFF" height="353.5313" style="stroke:#181818;stroke-width:1.0;" width="10" x="2596.5" y="1621.5469"/><rect fill="#FFFFFF" height="278.9688" style="stroke:#181818;stroke-width:1.0;" width="10" x="3170.5" y="313.9844"/><rect fill="#FFFFFF" height="278.9688" style="stroke:#181818;stroke-width:1.0;" width="10" x="3170.5" y="704.7969"/><rect fill="#FFFFFF" height="278.9688" style="stroke:#181818;stroke-width:1.0;" width="10" x="3170.5" y="1095.6094"/><rect fill="#FFFFFF" height="278.9688" style="stroke:#181818;stroke-width:1.0;" width="10" x="3170.5" y="1658.8281"/><rect fill="#FFFFFF" height="87.5625" style="stroke:#181818;stroke-width:1.0;" width="10" x="3857.5" y="468.1094"/><rect fill="#FFFFFF" height="87.5625" style="stroke:#181818;stroke-width:1.0;" width="10" x="3857.5" y="858.9219"/><rect fill="#FFFFFF" height="87.5625" style="stroke:#181818;stroke-width:1.0;" width="10" x="3857.5" y="1249.7344"/><rect fill="#FFFFFF" height="87.5625" style="stroke:#181818;stroke-width:1.0;" width="10" x="3857.5" y="1812.9531"/><line style="stroke:#181818;stroke-width:0.5;stroke-dasharray:5.0,5.0;" x1="41" x2="41" y1="125.5781" y2="2067.6406"/><line style="stroke:#181818;stroke-width:0.5;stroke-dasharray:5.0,5.0;" x1="741.5" x2="741.5" y1="125.5781" y2="2067.6406"/><line style="stroke:#181818;stroke-width:0.5;stroke-dasharray:5.0,5.0;" x1="1161.5" x2="1161.5" y1="125.5781" y2="2067.6406"/><line style="stroke:#181818;stroke-width:0.5;stroke-dasharray:5.0,5.0;" x1="1807.5" x2="1807.5" y1="125.5781" y2="2067.6406"/><line style="stroke:#181818;stroke-width:0.5;stroke-dasharray:5.0,5.0;" x1="2176.5" x2="2176.5" y1="125.5781" y2="2067.6406"/><line style="stroke:#181818;stroke-width:0.5;stroke-dasharray:5.0,5.0;" x1="2395.5" x2="2395.5" y1="125.5781" y2="2067.6406"/><line style="stroke:#181818;stroke-width:0.5;stroke-dasharray:5.0,5.0;" x1="2601.5" x2="2601.5" y1="125.5781" y2="2067.6406"/><line style="stroke:#181818;stroke-width:0.5;stroke-dasharray:5.0,5.0;" x1="3175" x2="3175" y1="125.5781" y2="2067.6406"/><line style="stroke:#181818;stroke-width:0.5;stroke-dasharray:5.0,5.0;" x1="3862.5" x2="3862.5" y1="125.5781" y2="2067.6406"/><text fill="#000000" font-family="sans-serif" font-size="20" lengthAdjust="spacing" textLength="66" x="5" y="120.8613">Doctor</text><ellipse cx="41" cy="50.7969" fill="#E2E2F0" rx="8" ry="8" style="stroke:#181818;stroke-width:0.5;"/><path d="M41,58.7969 L41,85.7969 M28,66.7969 L54,66.7969 M41,85.7969 L28,100.7969 M41,85.7969 L54,100.7969 " fill="none" style="stroke:#181818;stroke-width:0.5;"/><text fill="#000000" font-family="sans-serif" font-size="20" lengthAdjust="spacing" textLength="66" x="5" y="2085.2051">Doctor</text><ellipse cx="41" cy="2098.4219" fill="#E2E2F0" rx="8" ry="8" style="stroke:#181818;stroke-width:0.5;"/><path d="M41,2106.4219 L41,2133.4219 M28,2114.4219 L54,2114.4219 M41,2133.4219 L28,2148.4219 M41,2133.4219 L54,2148.4219 " fill="none" style="stroke:#181818;stroke-width:0.5;"/><rect fill="#E2E2F0" height="37.2813" rx="2.5" ry="2.5" style="stroke:#181818;stroke-width:0.5;" width="63" x="710.5" y="87.2969"/><text fill="#000000" font-family="sans-serif" font-size="20" lengthAdjust="spacing" textLength="49" x="717.5" y="112.8613">View</text><rect fill="#E2E2F0" height="37.2813" rx="2.5" ry="2.5" style="stroke:#181818;stroke-width:0.5;" width="63" x="710.5" y="2066.6406"/><text fill="#000000" font-family="sans-serif" font-size="20" lengthAdjust="spacing" textLength="49" x="717.5" y="2092.2051">View</text><rect fill="#E2E2F0" height="37.2813" rx="2.5" ry="2.5" style="stroke:#181818;stroke-width:0.5;" width="365" x="979.5" y="87.2969"/><text fill="#000000" font-family="sans-serif" font-size="20" lengthAdjust="spacing" textLength="351" x="986.5" y="112.8613">MedicalHistoryManagerComponent</text><rect fill="#E2E2F0" height="37.2813" rx="2.5" ry="2.5" style="stroke:#181818;stroke-width:0.5;" width="365" x="979.5" y="2066.6406"/><text fill="#000000" font-family="sans-serif" font-size="20" lengthAdjust="spacing" textLength="351" x="986.5" y="2092.2051">MedicalHistoryManagerComponent</text><rect fill="#E2E2F0" height="37.2813" rx="2.5" ry="2.5" style="stroke:#181818;stroke-width:0.5;" width="351" x="1632.5" y="87.2969"/><text fill="#000000" font-family="sans-serif" font-size="20" lengthAdjust="spacing" textLength="337" x="1639.5" y="112.8613">UpdateMedicalHistoryComponent</text><rect fill="#E2E2F0" height="37.2813" rx="2.5" ry="2.5" style="stroke:#181818;stroke-width:0.5;" width="351" x="1632.5" y="2066.6406"/><text fill="#000000" font-family="sans-serif" font-size="20" lengthAdjust="spacing" textLength="337" x="1639.5" y="2092.2051">UpdateMedicalHistoryComponent</text><rect fill="#E2E2F0" height="37.2813" rx="2.5" ry="2.5" style="stroke:#181818;stroke-width:0.5;" width="261" x="2046.5" y="87.2969"/><text fill="#000000" font-family="sans-serif" font-size="20" lengthAdjust="spacing" textLength="247" x="2053.5" y="112.8613">MedicalConditionService</text><rect fill="#E2E2F0" height="37.2813" rx="2.5" ry="2.5" style="stroke:#181818;stroke-width:0.5;" width="261" x="2046.5" y="2066.6406"/><text fill="#000000" font-family="sans-serif" font-size="20" lengthAdjust="spacing" textLength="247" x="2053.5" y="2092.2051">MedicalConditionService</text><rect fill="#E2E2F0" height="37.2813" rx="2.5" ry="2.5" style="stroke:#181818;stroke-width:0.5;" width="157" x="2317.5" y="87.2969"/><text fill="#000000" font-family="sans-serif" font-size="20" lengthAdjust="spacing" textLength="143" x="2324.5" y="112.8613">AllergyService</text><rect fill="#E2E2F0" height="37.2813" rx="2.5" ry="2.5" style="stroke:#181818;stroke-width:0.5;" width="157" x="2317.5" y="2066.6406"/><text fill="#000000" font-family="sans-serif" font-size="20" lengthAdjust="spacing" textLength="143" x="2324.5" y="2092.2051">AllergyService</text><rect fill="#E2E2F0" height="37.2813" rx="2.5" ry="2.5" style="stroke:#181818;stroke-width:0.5;" width="234" x="2484.5" y="87.2969"/><text fill="#000000" font-family="sans-serif" font-size="20" lengthAdjust="spacing" textLength="220" x="2491.5" y="112.8613">MedicalHistoryService</text><rect fill="#E2E2F0" height="37.2813" rx="2.5" ry="2.5" style="stroke:#181818;stroke-width:0.5;" width="234" x="2484.5" y="2066.6406"/><text fill="#000000" font-family="sans-serif" font-size="20" lengthAdjust="spacing" textLength="220" x="2491.5" y="2092.2051">MedicalHistoryService</text><rect fill="#E2E2F0" height="37.2813" rx="2.5" ry="2.5" style="stroke:#181818;stroke-width:0.5;" width="173" x="3089" y="87.2969"/><text fill="#000000" font-family="sans-serif" font-size="20" lengthAdjust="spacing" textLength="159" x="3096" y="112.8613">AuthInterceptor</text><rect fill="#E2E2F0" height="37.2813" rx="2.5" ry="2.5" style="stroke:#181818;stroke-width:0.5;" width="173" x="3089" y="2066.6406"/><text fill="#000000" font-family="sans-serif" font-size="20" lengthAdjust="spacing" textLength="159" x="3096" y="2092.2051">AuthInterceptor</text><rect fill="#E2E2F0" height="37.2813" rx="2.5" ry="2.5" style="stroke:#181818;stroke-width:0.5;" width="60" x="3832.5" y="87.2969"/><text fill="#000000" font-family="sans-serif" font-size="20" lengthAdjust="spacing" textLength="46" x="3839.5" y="112.8613">MDV</text><rect fill="#E2E2F0" height="37.2813" rx="2.5" ry="2.5" style="stroke:#181818;stroke-width:0.5;" width="60" x="3832.5" y="2066.6406"/><text fill="#000000" font-family="sans-serif" font-size="20" lengthAdjust="spacing" textLength="46" x="3839.5" y="2092.2051">MDV</text><rect fill="#FFFFFF" height="1914.0625" style="stroke:#181818;stroke-width:1.0;" width="10" x="36" y="135.5781"/><rect fill="#FFFFFF" height="1321.5625" style="stroke:#181818;stroke-width:1.0;" width="10" x="737" y="164.8594"/><rect fill="#FFFFFF" height="502.6563" style="stroke:#181818;stroke-width:1.0;" width="10" x="737" y="1546.9844"/><rect fill="#FFFFFF" height="37.2813" style="stroke:#181818;stroke-width:1.0;" width="10" x="1157" y="202.1406"/><rect fill="#FFFFFF" height="1209.7188" style="stroke:#181818;stroke-width:1.0;" width="10" x="1803" y="239.4219"/><rect fill="#FFFFFF" height="428.0938" style="stroke:#181818;stroke-width:1.0;" width="10" x="1803" y="1584.2656"/><rect fill="#FFFFFF" height="353.5313" style="stroke:#181818;stroke-width:1.0;" width="10" x="2172" y="667.5156"/><rect fill="#FFFFFF" height="353.5313" style="stroke:#181818;stroke-width:1.0;" width="10" x="2391" y="276.7031"/><rect fill="#FFFFFF" height="353.5313" style="stroke:#181818;stroke-width:1.0;" width="10" x="2596.5" y="1058.3281"/><rect fill="#FFFFFF" height="353.5313" style="stroke:#181818;stroke-width:1.0;" width="10" x="2596.5" y="1621.5469"/><rect fill="#FFFFFF" height="278.9688" style="stroke:#181818;stroke-width:1.0;" width="10" x="3170.5" y="313.9844"/><rect fill="#FFFFFF" height="278.9688" style="stroke:#181818;stroke-width:1.0;" width="10" x="3170.5" y="704.7969"/><rect fill="#FFFFFF" height="278.9688" style="stroke:#181818;stroke-width:1.0;" width="10" x="3170.5" y="1095.6094"/><rect fill="#FFFFFF" height="278.9688" style="stroke:#181818;stroke-width:1.0;" width="10" x="3170.5" y="1658.8281"/><rect fill="#FFFFFF" height="87.5625" style="stroke:#181818;stroke-width:1.0;" width="10" x="3857.5" y="468.1094"/><rect fill="#FFFFFF" height="87.5625" style="stroke:#181818;stroke-width:1.0;" width="10" x="3857.5" y="858.9219"/><rect fill="#FFFFFF" height="87.5625" style="stroke:#181818;stroke-width:1.0;" width="10" x="3857.5" y="1249.7344"/><rect fill="#FFFFFF" height="87.5625" style="stroke:#181818;stroke-width:1.0;" width="10" x="3857.5" y="1812.9531"/><polygon fill="#000000" points="725,160.8594,735,164.8594,725,168.8594,729,164.8594" style="stroke:#000000;stroke-width:1.0;"/><line style="stroke:#000000;stroke-width:1.0;" x1="46" x2="731" y1="164.8594" y2="164.8594"/><text fill="#000000" font-family="sans-serif" font-size="20" lengthAdjust="spacing" textLength="431" x="53" y="158.1426">Requests to update Patient Medical Record</text><polygon fill="#000000" points="1145,198.1406,1155,202.1406,1145,206.1406,1149,202.1406" style="stroke:#000000;stroke-width:1.0;"/><line style="stroke:#000000;stroke-width:1.0;" x1="747" x2="1151" y1="202.1406" y2="202.1406"/><text fill="#000000" font-family="sans-serif" font-size="20" lengthAdjust="spacing" textLength="391" x="754" y="195.4238">routerLink='/medical-history-manager'</text><polygon fill="#000000" points="1791,235.4219,1801,239.4219,1791,243.4219,1795,239.4219" style="stroke:#000000;stroke-width:1.0;"/><line style="stroke:#000000;stroke-width:1.0;" x1="1162" x2="1797" y1="239.4219" y2="239.4219"/><text fill="#000000" font-family="sans-serif" font-size="20" lengthAdjust="spacing" textLength="617" x="1169" y="232.7051">routerLink='/update-medical-history/:medicalRecordNumber'</text><polygon fill="#000000" points="2379,272.7031,2389,276.7031,2379,280.7031,2383,276.7031" style="stroke:#000000;stroke-width:1.0;"/><line style="stroke:#000000;stroke-width:1.0;" x1="1813" x2="2385" y1="276.7031" y2="276.7031"/><text fill="#000000" font-family="sans-serif" font-size="20" lengthAdjust="spacing" textLength="136" x="1820" y="269.9863">getAllergies()</text><polygon fill="#000000" points="3158.5,309.9844,3168.5,313.9844,3158.5,317.9844,3162.5,313.9844" style="stroke:#000000;stroke-width:1.0;"/><line style="stroke:#000000;stroke-width:1.0;" x1="2401" x2="3164.5" y1="313.9844" y2="313.9844"/><text fill="#000000" font-family="sans-serif" font-size="20" lengthAdjust="spacing" textLength="380" x="2408" y="307.2676">Sends HTTP Request to fetch allergies</text><line style="stroke:#000000;stroke-width:1.0;" x1="3180.5" x2="3222.5" y1="351.2656" y2="351.2656"/><line style="stroke:#000000;stroke-width:1.0;" x1="3222.5" x2="3222.5" y1="351.2656" y2="364.2656"/><line style="stroke:#000000;stroke-width:1.0;" x1="3181.5" x2="3222.5" y1="364.2656" y2="364.2656"/><polygon fill="#000000" points="3191.5,360.2656,3181.5,364.2656,3191.5,368.2656,3187.5,364.2656" style="stroke:#000000;stroke-width:1.0;"/><text fill="#000000" font-family="sans-serif" font-size="20" lengthAdjust="spacing" textLength="563" x="3187.5" y="344.5488">Intercepts the request and adds the token to the header</text><path d="M3185,377.2656 L3185,433.2656 L3704,433.2656 L3704,387.2656 L3694,377.2656 L3185,377.2656 " fill="#FEFFDD" style="stroke:#181818;stroke-width:0.5;"/><path d="M3694,377.2656 L3694,387.2656 L3704,387.2656 L3694,377.2656 " fill="#FEFFDD" style="stroke:#181818;stroke-width:0.5;"/><text fill="#000000" font-family="sans-serif" font-size="20" lengthAdjust="spacing" textLength="498" x="3191" y="400.8301">The token is added to the header so that the MDR</text><text fill="#000000" font-family="sans-serif" font-size="20" lengthAdjust="spacing" textLength="442" x="3191" y="424.1113">can authenticate and authorize the request.</text><polygon fill="#000000" points="3845.5,464.1094,3855.5,468.1094,3845.5,472.1094,3849.5,468.1094" style="stroke:#000000;stroke-width:1.0;"/><line style="stroke:#000000;stroke-width:1.0;" x1="3180.5" x2="3851.5" y1="468.1094" y2="468.1094"/><text fill="#000000" font-family="sans-serif" font-size="20" lengthAdjust="spacing" textLength="493" x="3187.5" y="461.3926">Sends HTTP Request with token to fetch allergies</text><line style="stroke:#000000;stroke-width:1.0;" x1="3867.5" x2="3909.5" y1="505.3906" y2="505.3906"/><line style="stroke:#000000;stroke-width:1.0;" x1="3909.5" x2="3909.5" y1="505.3906" y2="518.3906"/><line style="stroke:#000000;stroke-width:1.0;" x1="3868.5" x2="3909.5" y1="518.3906" y2="518.3906"/><polygon fill="#000000" points="3878.5,514.3906,3868.5,518.3906,3878.5,522.3906,3874.5,518.3906" style="stroke:#000000;stroke-width:1.0;"/><text fill="#000000" font-family="sans-serif" font-size="20" lengthAdjust="spacing" textLength="169" x="3874.5" y="498.6738">Fetches allergies</text><polygon fill="#000000" points="3191.5,551.6719,3181.5,555.6719,3191.5,559.6719,3187.5,555.6719" style="stroke:#000000;stroke-width:1.0;"/><line style="stroke:#000000;stroke-width:1.0;stroke-dasharray:2.0,2.0;" x1="3185.5" x2="3861.5" y1="555.6719" y2="555.6719"/><text fill="#000000" font-family="sans-serif" font-size="20" lengthAdjust="spacing" textLength="230" x="3197.5" y="548.9551">Returns list of allergies</text><polygon fill="#000000" points="2412,588.9531,2402,592.9531,2412,596.9531,2408,592.9531" style="stroke:#000000;stroke-width:1.0;"/><line style="stroke:#000000;stroke-width:1.0;stroke-dasharray:2.0,2.0;" x1="2406" x2="3174.5" y1="592.9531" y2="592.9531"/><text fill="#000000" font-family="sans-serif" font-size="20" lengthAdjust="spacing" textLength="230" x="2418" y="586.2363">Returns list of allergies</text><polygon fill="#000000" points="1824,626.2344,1814,630.2344,1824,634.2344,1820,630.2344" style="stroke:#000000;stroke-width:1.0;"/><line style="stroke:#000000;stroke-width:1.0;stroke-dasharray:2.0,2.0;" x1="1818" x2="2395" y1="630.2344" y2="630.2344"/><text fill="#000000" font-family="sans-serif" font-size="20" lengthAdjust="spacing" textLength="230" x="1830" y="623.5176">Returns list of allergies</text><polygon fill="#000000" points="2160,663.5156,2170,667.5156,2160,671.5156,2164,667.5156" style="stroke:#000000;stroke-width:1.0;"/><line style="stroke:#000000;stroke-width:1.0;" x1="1813" x2="2166" y1="667.5156" y2="667.5156"/><text fill="#000000" font-family="sans-serif" font-size="20" lengthAdjust="spacing" textLength="233" x="1820" y="660.7988">getMedicalConditions()</text><polygon fill="#000000" points="3158.5,700.7969,3168.5,704.7969,3158.5,708.7969,3162.5,704.7969" style="stroke:#000000;stroke-width:1.0;"/><line style="stroke:#000000;stroke-width:1.0;" x1="2182" x2="3164.5" y1="704.7969" y2="704.7969"/><text fill="#000000" font-family="sans-serif" font-size="20" lengthAdjust="spacing" textLength="485" x="2189" y="698.0801">Sends HTTP Request to fetch medical conditions</text><line style="stroke:#000000;stroke-width:1.0;" x1="3180.5" x2="3222.5" y1="742.0781" y2="742.0781"/><line style="stroke:#000000;stroke-width:1.0;" x1="3222.5" x2="3222.5" y1="742.0781" y2="755.0781"/><line style="stroke:#000000;stroke-width:1.0;" x1="3181.5" x2="3222.5" y1="755.0781" y2="755.0781"/><polygon fill="#000000" points="3191.5,751.0781,3181.5,755.0781,3191.5,759.0781,3187.5,755.0781" style="stroke:#000000;stroke-width:1.0;"/><text fill="#000000" font-family="sans-serif" font-size="20" lengthAdjust="spacing" textLength="563" x="3187.5" y="735.3613">Intercepts the request and adds the token to the header</text><path d="M3185,768.0781 L3185,824.0781 L3704,824.0781 L3704,778.0781 L3694,768.0781 L3185,768.0781 " fill="#FEFFDD" style="stroke:#181818;stroke-width:0.5;"/><path d="M3694,768.0781 L3694,778.0781 L3704,778.0781 L3694,768.0781 " fill="#FEFFDD" style="stroke:#181818;stroke-width:0.5;"/><text fill="#000000" font-family="sans-serif" font-size="20" lengthAdjust="spacing" textLength="498" x="3191" y="791.6426">The token is added to the header so that the MDR</text><text fill="#000000" font-family="sans-serif" font-size="20" lengthAdjust="spacing" textLength="442" x="3191" y="814.9238">can authenticate and authorize the request.</text><polygon fill="#000000" points="3845.5,854.9219,3855.5,858.9219,3845.5,862.9219,3849.5,858.9219" style="stroke:#000000;stroke-width:1.0;"/><line style="stroke:#000000;stroke-width:1.0;" x1="3180.5" x2="3851.5" y1="858.9219" y2="858.9219"/><text fill="#000000" font-family="sans-serif" font-size="20" lengthAdjust="spacing" textLength="598" x="3187.5" y="852.2051">Sends HTTP Request with token to fetch medical conditions</text><line style="stroke:#000000;stroke-width:1.0;" x1="3867.5" x2="3909.5" y1="896.2031" y2="896.2031"/><line style="stroke:#000000;stroke-width:1.0;" x1="3909.5" x2="3909.5" y1="896.2031" y2="909.2031"/><line style="stroke:#000000;stroke-width:1.0;" x1="3868.5" x2="3909.5" y1="909.2031" y2="909.2031"/><polygon fill="#000000" points="3878.5,905.2031,3868.5,909.2031,3878.5,913.2031,3874.5,909.2031" style="stroke:#000000;stroke-width:1.0;"/><text fill="#000000" font-family="sans-serif" font-size="20" lengthAdjust="spacing" textLength="274" x="3874.5" y="889.4863">Fetches medical conditions</text><polygon fill="#000000" points="3191.5,942.4844,3181.5,946.4844,3191.5,950.4844,3187.5,946.4844" style="stroke:#000000;stroke-width:1.0;"/><line style="stroke:#000000;stroke-width:1.0;stroke-dasharray:2.0,2.0;" x1="3185.5" x2="3861.5" y1="946.4844" y2="946.4844"/><text fill="#000000" font-family="sans-serif" font-size="20" lengthAdjust="spacing" textLength="335" x="3197.5" y="939.7676">Returns list of medical conditions</text><polygon fill="#000000" points="2193,979.7656,2183,983.7656,2193,987.7656,2189,983.7656" style="stroke:#000000;stroke-width:1.0;"/><line style="stroke:#000000;stroke-width:1.0;stroke-dasharray:2.0,2.0;" x1="2187" x2="3174.5" y1="983.7656" y2="983.7656"/><text fill="#000000" font-family="sans-serif" font-size="20" lengthAdjust="spacing" textLength="335" x="2199" y="977.0488">Returns list of medical conditions</text><polygon fill="#000000" points="1824,1017.0469,1814,1021.0469,1824,1025.0469,1820,1021.0469" style="stroke:#000000;stroke-width:1.0;"/><line style="stroke:#000000;stroke-width:1.0;stroke-dasharray:2.0,2.0;" x1="1818" x2="2176" y1="1021.0469" y2="1021.0469"/><text fill="#000000" font-family="sans-serif" font-size="20" lengthAdjust="spacing" textLength="335" x="1830" y="1014.3301">Returns list of medical conditions</text><polygon fill="#000000" points="2584.5,1054.3281,2594.5,1058.3281,2584.5,1062.3281,2588.5,1058.3281" style="stroke:#000000;stroke-width:1.0;"/><line style="stroke:#000000;stroke-width:1.0;" x1="1813" x2="2590.5" y1="1058.3281" y2="1058.3281"/><text fill="#000000" font-family="sans-serif" font-size="20" lengthAdjust="spacing" textLength="498" x="1820" y="1051.6113">getPatientMedicalHistory(medicalRecordNumber)</text><polygon fill="#000000" points="3158.5,1091.6094,3168.5,1095.6094,3158.5,1099.6094,3162.5,1095.6094" style="stroke:#000000;stroke-width:1.0;"/><line style="stroke:#000000;stroke-width:1.0;" x1="2606.5" x2="3164.5" y1="1095.6094" y2="1095.6094"/><text fill="#000000" font-family="sans-serif" font-size="20" lengthAdjust="spacing" textLength="507" x="2613.5" y="1088.8926">Sends HTTP Request to get Patient Medical Record</text><line style="stroke:#000000;stroke-width:1.0;" x1="3180.5" x2="3222.5" y1="1132.8906" y2="1132.8906"/><line style="stroke:#000000;stroke-width:1.0;" x1="3222.5" x2="3222.5" y1="1132.8906" y2="1145.8906"/><line style="stroke:#000000;stroke-width:1.0;" x1="3181.5" x2="3222.5" y1="1145.8906" y2="1145.8906"/><polygon fill="#000000" points="3191.5,1141.8906,3181.5,1145.8906,3191.5,1149.8906,3187.5,1145.8906" style="stroke:#000000;stroke-width:1.0;"/><text fill="#000000" font-family="sans-serif" font-size="20" lengthAdjust="spacing" textLength="563" x="3187.5" y="1126.1738">Intercepts the request and adds the token to the header</text><path d="M3185,1158.8906 L3185,1214.8906 L3704,1214.8906 L3704,1168.8906 L3694,1158.8906 L3185,1158.8906 " fill="#FEFFDD" style="stroke:#181818;stroke-width:0.5;"/><path d="M3694,1158.8906 L3694,1168.8906 L3704,1168.8906 L3694,1158.8906 " fill="#FEFFDD" style="stroke:#181818;stroke-width:0.5;"/><text fill="#000000" font-family="sans-serif" font-size="20" lengthAdjust="spacing" textLength="498" x="3191" y="1182.4551">The token is added to the header so that the MDR</text><text fill="#000000" font-family="sans-serif" font-size="20" lengthAdjust="spacing" textLength="442" x="3191" y="1205.7363">can authenticate and authorize the request.</text><polygon fill="#000000" points="3845.5,1245.7344,3855.5,1249.7344,3845.5,1253.7344,3849.5,1249.7344" style="stroke:#000000;stroke-width:1.0;"/><line style="stroke:#000000;stroke-width:1.0;" x1="3180.5" x2="3851.5" y1="1249.7344" y2="1249.7344"/><text fill="#000000" font-family="sans-serif" font-size="20" lengthAdjust="spacing" textLength="658" x="3187.5" y="1243.0176">Sends HTTP Request with token to update Patient Medical Record</text><line style="stroke:#000000;stroke-width:1.0;" x1="3867.5" x2="3909.5" y1="1287.0156" y2="1287.0156"/><line style="stroke:#000000;stroke-width:1.0;" x1="3909.5" x2="3909.5" y1="1287.0156" y2="1300.0156"/><line style="stroke:#000000;stroke-width:1.0;" x1="3868.5" x2="3909.5" y1="1300.0156" y2="1300.0156"/><polygon fill="#000000" points="3878.5,1296.0156,3868.5,1300.0156,3878.5,1304.0156,3874.5,1300.0156" style="stroke:#000000;stroke-width:1.0;"/><text fill="#000000" font-family="sans-serif" font-size="20" lengthAdjust="spacing" textLength="314" x="3874.5" y="1280.2988">Fetches Patient Medical Record</text><polygon fill="#000000" points="3191.5,1333.2969,3181.5,1337.2969,3191.5,1341.2969,3187.5,1337.2969" style="stroke:#000000;stroke-width:1.0;"/><line style="stroke:#000000;stroke-width:1.0;stroke-dasharray:2.0,2.0;" x1="3185.5" x2="3861.5" y1="1337.2969" y2="1337.2969"/><text fill="#000000" font-family="sans-serif" font-size="20" lengthAdjust="spacing" textLength="314" x="3197.5" y="1330.5801">Returns Patient Medical Record</text><polygon fill="#000000" points="2617.5,1370.5781,2607.5,1374.5781,2617.5,1378.5781,2613.5,1374.5781" style="stroke:#000000;stroke-width:1.0;"/><line style="stroke:#000000;stroke-width:1.0;stroke-dasharray:2.0,2.0;" x1="2611.5" x2="3174.5" y1="1374.5781" y2="1374.5781"/><text fill="#000000" font-family="sans-serif" font-size="20" lengthAdjust="spacing" textLength="314" x="2623.5" y="1367.8613">Returns Patient Medical Record</text><polygon fill="#000000" points="1824,1407.8594,1814,1411.8594,1824,1415.8594,1820,1411.8594" style="stroke:#000000;stroke-width:1.0;"/><line style="stroke:#000000;stroke-width:1.0;stroke-dasharray:2.0,2.0;" x1="1818" x2="2600.5" y1="1411.8594" y2="1411.8594"/><text fill="#000000" font-family="sans-serif" font-size="20" lengthAdjust="spacing" textLength="314" x="1830" y="1405.1426">Returns Patient Medical Record</text><polygon fill="#000000" points="758,1445.1406,748,1449.1406,758,1453.1406,754,1449.1406" style="stroke:#000000;stroke-width:1.0;"/><line style="stroke:#000000;stroke-width:1.0;stroke-dasharray:2.0,2.0;" x1="752" x2="1807" y1="1449.1406" y2="1449.1406"/><text fill="#000000" font-family="sans-serif" font-size="20" lengthAdjust="spacing" textLength="434" x="764" y="1442.4238">Returns UpdatedMedicalHistoryComponent</text><polygon fill="#000000" points="57,1482.4219,47,1486.4219,57,1490.4219,53,1486.4219" style="stroke:#000000;stroke-width:1.0;"/><line style="stroke:#000000;stroke-width:1.0;stroke-dasharray:2.0,2.0;" x1="51" x2="741" y1="1486.4219" y2="1486.4219"/><text fill="#000000" font-family="sans-serif" font-size="20" lengthAdjust="spacing" textLength="432" x="63" y="1479.7051">Displays fetched data and allows to update</text><polygon fill="#000000" points="725,1542.9844,735,1546.9844,725,1550.9844,729,1546.9844" style="stroke:#000000;stroke-width:1.0;"/><line style="stroke:#000000;stroke-width:1.0;" x1="46" x2="731" y1="1546.9844" y2="1546.9844"/><text fill="#000000" font-family="sans-serif" font-size="20" lengthAdjust="spacing" textLength="297" x="53" y="1516.9863">Sends Patient Medical History</text><text fill="#000000" font-family="sans-serif" font-size="20" lengthAdjust="spacing" textLength="666" x="59" y="1540.2676">update data (medicalConditions, allergies, familyHistory, freeText)</text><polygon fill="#000000" points="1791,1580.2656,1801,1584.2656,1791,1588.2656,1795,1584.2656" style="stroke:#000000;stroke-width:1.0;"/><line style="stroke:#000000;stroke-width:1.0;" x1="747" x2="1797" y1="1584.2656" y2="1584.2656"/><text fill="#000000" font-family="sans-serif" font-size="20" lengthAdjust="spacing" textLength="233" x="754" y="1577.5488">submitMedicalHistory()</text><polygon fill="#000000" points="2584.5,1617.5469,2594.5,1621.5469,2584.5,1625.5469,2588.5,1621.5469" style="stroke:#000000;stroke-width:1.0;"/><line style="stroke:#000000;stroke-width:1.0;" x1="1813" x2="2590.5" y1="1621.5469" y2="1621.5469"/><text fill="#000000" font-family="sans-serif" font-size="20" lengthAdjust="spacing" textLength="455" x="1820" y="1614.8301">updatePatientMedicalHistory(medicalHistory)</text><polygon fill="#000000" points="3158.5,1654.8281,3168.5,1658.8281,3158.5,1662.8281,3162.5,1658.8281" style="stroke:#000000;stroke-width:1.0;"/><line style="stroke:#000000;stroke-width:1.0;" x1="2606.5" x2="3164.5" y1="1658.8281" y2="1658.8281"/><text fill="#000000" font-family="sans-serif" font-size="20" lengthAdjust="spacing" textLength="545" x="2613.5" y="1652.1113">Sends HTTP Request to update Patient Medical Record</text><line style="stroke:#000000;stroke-width:1.0;" x1="3180.5" x2="3222.5" y1="1696.1094" y2="1696.1094"/><line style="stroke:#000000;stroke-width:1.0;" x1="3222.5" x2="3222.5" y1="1696.1094" y2="1709.1094"/><line style="stroke:#000000;stroke-width:1.0;" x1="3181.5" x2="3222.5" y1="1709.1094" y2="1709.1094"/><polygon fill="#000000" points="3191.5,1705.1094,3181.5,1709.1094,3191.5,1713.1094,3187.5,1709.1094" style="stroke:#000000;stroke-width:1.0;"/><text fill="#000000" font-family="sans-serif" font-size="20" lengthAdjust="spacing" textLength="563" x="3187.5" y="1689.3926">Intercepts the request and adds the token to the header</text><path d="M3185,1722.1094 L3185,1778.1094 L3704,1778.1094 L3704,1732.1094 L3694,1722.1094 L3185,1722.1094 " fill="#FEFFDD" style="stroke:#181818;stroke-width:0.5;"/><path d="M3694,1722.1094 L3694,1732.1094 L3704,1732.1094 L3694,1722.1094 " fill="#FEFFDD" style="stroke:#181818;stroke-width:0.5;"/><text fill="#000000" font-family="sans-serif" font-size="20" lengthAdjust="spacing" textLength="498" x="3191" y="1745.6738">The token is added to the header so that the MDR</text><text fill="#000000" font-family="sans-serif" font-size="20" lengthAdjust="spacing" textLength="442" x="3191" y="1768.9551">can authenticate and authorize the request.</text><polygon fill="#000000" points="3845.5,1808.9531,3855.5,1812.9531,3845.5,1816.9531,3849.5,1812.9531" style="stroke:#000000;stroke-width:1.0;"/><line style="stroke:#000000;stroke-width:1.0;" x1="3180.5" x2="3851.5" y1="1812.9531" y2="1812.9531"/><text fill="#000000" font-family="sans-serif" font-size="20" lengthAdjust="spacing" textLength="658" x="3187.5" y="1806.2363">Sends HTTP Request with token to update Patient Medical History</text><line style="stroke:#000000;stroke-width:1.0;" x1="3867.5" x2="3909.5" y1="1850.2344" y2="1850.2344"/><line style="stroke:#000000;stroke-width:1.0;" x1="3909.5" x2="3909.5" y1="1850.2344" y2="1863.2344"/><line style="stroke:#000000;stroke-width:1.0;" x1="3868.5" x2="3909.5" y1="1863.2344" y2="1863.2344"/><polygon fill="#000000" points="3878.5,1859.2344,3868.5,1863.2344,3878.5,1867.2344,3874.5,1863.2344" style="stroke:#000000;stroke-width:1.0;"/><text fill="#000000" font-family="sans-serif" font-size="20" lengthAdjust="spacing" textLength="462" x="3874.5" y="1843.5176">Validates and Updates Patient Medical History</text><polygon fill="#000000" points="3191.5,1896.5156,3181.5,1900.5156,3191.5,1904.5156,3187.5,1900.5156" style="stroke:#000000;stroke-width:1.0;"/><line style="stroke:#000000;stroke-width:1.0;stroke-dasharray:2.0,2.0;" x1="3185.5" x2="3861.5" y1="1900.5156" y2="1900.5156"/><text fill="#000000" font-family="sans-serif" font-size="20" lengthAdjust="spacing" textLength="406" x="3197.5" y="1893.7988">Returns Updated Patient Medical History</text><polygon fill="#000000" points="2617.5,1933.7969,2607.5,1937.7969,2617.5,1941.7969,2613.5,1937.7969" style="stroke:#000000;stroke-width:1.0;"/><line style="stroke:#000000;stroke-width:1.0;stroke-dasharray:2.0,2.0;" x1="2611.5" x2="3174.5" y1="1937.7969" y2="1937.7969"/><text fill="#000000" font-family="sans-serif" font-size="20" lengthAdjust="spacing" textLength="406" x="2623.5" y="1931.0801">Returns Updated Patient Medical History</text><polygon fill="#000000" points="1824,1971.0781,1814,1975.0781,1824,1979.0781,1820,1975.0781" style="stroke:#000000;stroke-width:1.0;"/><line style="stroke:#000000;stroke-width:1.0;stroke-dasharray:2.0,2.0;" x1="1818" x2="2600.5" y1="1975.0781" y2="1975.0781"/><text fill="#000000" font-family="sans-serif" font-size="20" lengthAdjust="spacing" textLength="406" x="1830" y="1968.3613">Returns Updated Patient Medical History</text><polygon fill="#000000" points="758,2008.3594,748,2012.3594,758,2016.3594,754,2012.3594" style="stroke:#000000;stroke-width:1.0;"/><line style="stroke:#000000;stroke-width:1.0;stroke-dasharray:2.0,2.0;" x1="752" x2="1807" y1="2012.3594" y2="2012.3594"/><text fill="#000000" font-family="sans-serif" font-size="20" lengthAdjust="spacing" textLength="278" x="764" y="2005.6426">Reurns status of the update</text><polygon fill="#000000" points="52,2045.6406,42,2049.6406,52,2053.6406,48,2049.6406" style="stroke:#000000;stroke-width:1.0;"/><line style="stroke:#000000;stroke-width:1.0;stroke-dasharray:2.0,2.0;" x1="46" x2="741" y1="2049.6406" y2="2049.6406"/><text fill="#000000" font-family="sans-serif" font-size="20" lengthAdjust="spacing" textLength="330" x="58" y="2042.9238">Displays the status of the update</text><!--SRC=[xLPHRzis47xNhpYq3sc09kqohDsCBe1bIR21kYkYH4zxOQIppLaIFP9AvWtzxpkIiYLvacC_TmPiWzHz7uzttqTHhNcvOP8LkKZNc4662rRbEXAbZldV23VlFKzpdIDynYVCuKU8GWWuMn845aB2GmmVhs-kFtZUYcS8M6pq5Wei7b4gprCxUaXpfXJyum5zV9Qkbr9KPJOHkP2VFZsnlCBV7l_0LD_UmklWGpYEVkuFbKBOc2W8_U1zVun2-SHJj5G_H3UXtnT6567qI_ZHFXjBAPxTj9zJdFUjdVk6PjWI-xE7rw4V_HJv1i9IJHE1i7zCGU0HWUOftx1Imwk4u_ChCvz0zy4SCvwoVCeL0RTpLj9gSYAAZIYnr1OodyudNT339cCQkz0kvc4-dVGkD15bnZKNPUmgvLQOnDtWSPwZN6xRCUFuME8TjkaXMwLNirAZJ753mOvkTa0N97RU3sqj-HDja8eOmDKj92EumpyhL5g15b3PtSDNfZbj5-f4A2GLCcl0YPSOiAdU2AXfjFvdNgv_lNXNECJLokL-LRYgNpHOMtBpOnXCBGyON0fN1qJlHlM4I-LBPQnmuMNOvTsFR9CyyskM6SSZMA9sfUUetbmsaLJySMo3PYE8iSmKJE_ll-xAOggoG9skWEtGBUpC6yzss7qRg98h15dZMPa1op8tgSKQIqDf1Yja6Kgl5CGa-NAbGImCfR73_JwOAmEdGwI30cL6JDkfUN1dGIahWP4Wg7LKAcArQzE4aERKQMLrxT56mQnSRy0FUpV_pFMgINgm3gGiFzpHH2OALIlEFAkBT8UwagM2dDfgjji4jLf9T2Qhkd4dGKmdOWjnaZeD53SI8PzQZHnwkQCLOsRwdgAMMgwGxec-SzaSAqYlVde0HuJK4zshADldyy1KMzlqGN4TXnlHD3AREfdL9sptf7_JSyQrrKU7FtsFgu-uNpo-lpFzdVXIQuaG6XKEe7gKE13Phy9fV0xGA73Qfy2NeKOqjVfshti7THUTRE2cqwQmxzB4ueCHNLFL9cTRvMnjBhTCCzUoF1VFhMj4coFPNpTSkmuJhzU7tyjTkopjpX7DSVosEShVme8LFD_MM1fAn7lyIrzsRYhxegdgiU27bhiyk3DqZEfIEUhLUdYkJK_KvFzERObZu7sHi9mRcBBPE5aF2gpFkBKJ1Y4lE_WCXa4hdy5X5DQrj6LGckbAcHwRHlpNWmC-Di4lGPFs8F3-1G00]--></g></svg>