<?xml version="1.0" encoding="UTF-8" standalone="no"?><svg xmlns="http://www.w3.org/2000/svg" xmlns:xlink="http://www.w3.org/1999/xlink" contentStyleType="text/css" height="1592px" preserveAspectRatio="none" style="width:3922px;height:1592px;background:#FFFFFF;" version="1.1" viewBox="0 0 3922 1592" width="3922px" zoomAndPan="magnify"><defs/><g><text fill="#000000" font-family="sans-serif" font-size="14" font-weight="bold" lengthAdjust="spacing" textLength="248" x="1839.25" y="27.9951">Level 3 FE Diagram for US 7.2.6</text><rect fill="#FFFFFF" height="1359.8438" style="stroke:#181818;stroke-width:1.0;" width="10" x="36" y="135.5781"/><rect fill="#FFFFFF" height="1321.5625" style="stroke:#181818;stroke-width:1.0;" width="10" x="502" y="164.8594"/><rect fill="#FFFFFF" height="37.2813" style="stroke:#181818;stroke-width:1.0;" width="10" x="922" y="202.1406"/><rect fill="#FFFFFF" height="1209.7188" style="stroke:#181818;stroke-width:1.0;" width="10" x="1568" y="239.4219"/><rect fill="#FFFFFF" height="353.5313" style="stroke:#181818;stroke-width:1.0;" width="10" x="1937" y="667.5156"/><rect fill="#FFFFFF" height="353.5313" style="stroke:#181818;stroke-width:1.0;" width="10" x="2156" y="276.7031"/><rect fill="#FFFFFF" height="353.5313" style="stroke:#181818;stroke-width:1.0;" width="10" x="2361.5" y="1058.3281"/><rect fill="#FFFFFF" height="278.9688" style="stroke:#181818;stroke-width:1.0;" width="10" x="2897.5" y="313.9844"/><rect fill="#FFFFFF" height="278.9688" style="stroke:#181818;stroke-width:1.0;" width="10" x="2897.5" y="704.7969"/><rect fill="#FFFFFF" height="278.9688" style="stroke:#181818;stroke-width:1.0;" width="10" x="2897.5" y="1095.6094"/><rect fill="#FFFFFF" height="87.5625" style="stroke:#181818;stroke-width:1.0;" width="10" x="3584.5" y="468.1094"/><rect fill="#FFFFFF" height="87.5625" style="stroke:#181818;stroke-width:1.0;" width="10" x="3584.5" y="858.9219"/><rect fill="#FFFFFF" height="87.5625" style="stroke:#181818;stroke-width:1.0;" width="10" x="3584.5" y="1249.7344"/><line style="stroke:#181818;stroke-width:0.5;stroke-dasharray:5.0,5.0;" x1="41" x2="41" y1="125.5781" y2="1504.4219"/><line style="stroke:#181818;stroke-width:0.5;stroke-dasharray:5.0,5.0;" x1="506.5" x2="506.5" y1="125.5781" y2="1504.4219"/><line style="stroke:#181818;stroke-width:0.5;stroke-dasharray:5.0,5.0;" x1="926.5" x2="926.5" y1="125.5781" y2="1504.4219"/><line style="stroke:#181818;stroke-width:0.5;stroke-dasharray:5.0,5.0;" x1="1572.5" x2="1572.5" y1="125.5781" y2="1504.4219"/><line style="stroke:#181818;stroke-width:0.5;stroke-dasharray:5.0,5.0;" x1="1941.5" x2="1941.5" y1="125.5781" y2="1504.4219"/><line style="stroke:#181818;stroke-width:0.5;stroke-dasharray:5.0,5.0;" x1="2160.5" x2="2160.5" y1="125.5781" y2="1504.4219"/><line style="stroke:#181818;stroke-width:0.5;stroke-dasharray:5.0,5.0;" x1="2366.5" x2="2366.5" y1="125.5781" y2="1504.4219"/><line style="stroke:#181818;stroke-width:0.5;stroke-dasharray:5.0,5.0;" x1="2902" x2="2902" y1="125.5781" y2="1504.4219"/><line style="stroke:#181818;stroke-width:0.5;stroke-dasharray:5.0,5.0;" x1="3589.5" x2="3589.5" y1="125.5781" y2="1504.4219"/><text fill="#000000" font-family="sans-serif" font-size="20" lengthAdjust="spacing" textLength="66" x="5" y="120.8613">Doctor</text><ellipse cx="41" cy="50.7969" fill="#E2E2F0" rx="8" ry="8" style="stroke:#181818;stroke-width:0.5;"/><path d="M41,58.7969 L41,85.7969 M28,66.7969 L54,66.7969 M41,85.7969 L28,100.7969 M41,85.7969 L54,100.7969 " fill="none" style="stroke:#181818;stroke-width:0.5;"/><text fill="#000000" font-family="sans-serif" font-size="20" lengthAdjust="spacing" textLength="66" x="5" y="1521.9863">Doctor</text><ellipse cx="41" cy="1535.2031" fill="#E2E2F0" rx="8" ry="8" style="stroke:#181818;stroke-width:0.5;"/><path d="M41,1543.2031 L41,1570.2031 M28,1551.2031 L54,1551.2031 M41,1570.2031 L28,1585.2031 M41,1570.2031 L54,1585.2031 " fill="none" style="stroke:#181818;stroke-width:0.5;"/><rect fill="#E2E2F0" height="37.2813" rx="2.5" ry="2.5" style="stroke:#181818;stroke-width:0.5;" width="63" x="475.5" y="87.2969"/><text fill="#000000" font-family="sans-serif" font-size="20" lengthAdjust="spacing" textLength="49" x="482.5" y="112.8613">View</text><rect fill="#E2E2F0" height="37.2813" rx="2.5" ry="2.5" style="stroke:#181818;stroke-width:0.5;" width="63" x="475.5" y="1503.4219"/><text fill="#000000" font-family="sans-serif" font-size="20" lengthAdjust="spacing" textLength="49" x="482.5" y="1528.9863">View</text><rect fill="#E2E2F0" height="37.2813" rx="2.5" ry="2.5" style="stroke:#181818;stroke-width:0.5;" width="365" x="744.5" y="87.2969"/><text fill="#000000" font-family="sans-serif" font-size="20" lengthAdjust="spacing" textLength="351" x="751.5" y="112.8613">MedicalHistoryManagerComponent</text><rect fill="#E2E2F0" height="37.2813" rx="2.5" ry="2.5" style="stroke:#181818;stroke-width:0.5;" width="365" x="744.5" y="1503.4219"/><text fill="#000000" font-family="sans-serif" font-size="20" lengthAdjust="spacing" textLength="351" x="751.5" y="1528.9863">MedicalHistoryManagerComponent</text><rect fill="#E2E2F0" height="37.2813" rx="2.5" ry="2.5" style="stroke:#181818;stroke-width:0.5;" width="351" x="1397.5" y="87.2969"/><text fill="#000000" font-family="sans-serif" font-size="20" lengthAdjust="spacing" textLength="337" x="1404.5" y="112.8613">UpdateMedicalHistoryComponent</text><rect fill="#E2E2F0" height="37.2813" rx="2.5" ry="2.5" style="stroke:#181818;stroke-width:0.5;" width="351" x="1397.5" y="1503.4219"/><text fill="#000000" font-family="sans-serif" font-size="20" lengthAdjust="spacing" textLength="337" x="1404.5" y="1528.9863">UpdateMedicalHistoryComponent</text><rect fill="#E2E2F0" height="37.2813" rx="2.5" ry="2.5" style="stroke:#181818;stroke-width:0.5;" width="261" x="1811.5" y="87.2969"/><text fill="#000000" font-family="sans-serif" font-size="20" lengthAdjust="spacing" textLength="247" x="1818.5" y="112.8613">MedicalConditionService</text><rect fill="#E2E2F0" height="37.2813" rx="2.5" ry="2.5" style="stroke:#181818;stroke-width:0.5;" width="261" x="1811.5" y="1503.4219"/><text fill="#000000" font-family="sans-serif" font-size="20" lengthAdjust="spacing" textLength="247" x="1818.5" y="1528.9863">MedicalConditionService</text><rect fill="#E2E2F0" height="37.2813" rx="2.5" ry="2.5" style="stroke:#181818;stroke-width:0.5;" width="157" x="2082.5" y="87.2969"/><text fill="#000000" font-family="sans-serif" font-size="20" lengthAdjust="spacing" textLength="143" x="2089.5" y="112.8613">AllergyService</text><rect fill="#E2E2F0" height="37.2813" rx="2.5" ry="2.5" style="stroke:#181818;stroke-width:0.5;" width="157" x="2082.5" y="1503.4219"/><text fill="#000000" font-family="sans-serif" font-size="20" lengthAdjust="spacing" textLength="143" x="2089.5" y="1528.9863">AllergyService</text><rect fill="#E2E2F0" height="37.2813" rx="2.5" ry="2.5" style="stroke:#181818;stroke-width:0.5;" width="234" x="2249.5" y="87.2969"/><text fill="#000000" font-family="sans-serif" font-size="20" lengthAdjust="spacing" textLength="220" x="2256.5" y="112.8613">MedicalHistoryService</text><rect fill="#E2E2F0" height="37.2813" rx="2.5" ry="2.5" style="stroke:#181818;stroke-width:0.5;" width="234" x="2249.5" y="1503.4219"/><text fill="#000000" font-family="sans-serif" font-size="20" lengthAdjust="spacing" textLength="220" x="2256.5" y="1528.9863">MedicalHistoryService</text><rect fill="#E2E2F0" height="37.2813" rx="2.5" ry="2.5" style="stroke:#181818;stroke-width:0.5;" width="173" x="2816" y="87.2969"/><text fill="#000000" font-family="sans-serif" font-size="20" lengthAdjust="spacing" textLength="159" x="2823" y="112.8613">AuthInterceptor</text><rect fill="#E2E2F0" height="37.2813" rx="2.5" ry="2.5" style="stroke:#181818;stroke-width:0.5;" width="173" x="2816" y="1503.4219"/><text fill="#000000" font-family="sans-serif" font-size="20" lengthAdjust="spacing" textLength="159" x="2823" y="1528.9863">AuthInterceptor</text><rect fill="#E2E2F0" height="37.2813" rx="2.5" ry="2.5" style="stroke:#181818;stroke-width:0.5;" width="60" x="3559.5" y="87.2969"/><text fill="#000000" font-family="sans-serif" font-size="20" lengthAdjust="spacing" textLength="46" x="3566.5" y="112.8613">MDV</text><rect fill="#E2E2F0" height="37.2813" rx="2.5" ry="2.5" style="stroke:#181818;stroke-width:0.5;" width="60" x="3559.5" y="1503.4219"/><text fill="#000000" font-family="sans-serif" font-size="20" lengthAdjust="spacing" textLength="46" x="3566.5" y="1528.9863">MDV</text><rect fill="#FFFFFF" height="1359.8438" style="stroke:#181818;stroke-width:1.0;" width="10" x="36" y="135.5781"/><rect fill="#FFFFFF" height="1321.5625" style="stroke:#181818;stroke-width:1.0;" width="10" x="502" y="164.8594"/><rect fill="#FFFFFF" height="37.2813" style="stroke:#181818;stroke-width:1.0;" width="10" x="922" y="202.1406"/><rect fill="#FFFFFF" height="1209.7188" style="stroke:#181818;stroke-width:1.0;" width="10" x="1568" y="239.4219"/><rect fill="#FFFFFF" height="353.5313" style="stroke:#181818;stroke-width:1.0;" width="10" x="1937" y="667.5156"/><rect fill="#FFFFFF" height="353.5313" style="stroke:#181818;stroke-width:1.0;" width="10" x="2156" y="276.7031"/><rect fill="#FFFFFF" height="353.5313" style="stroke:#181818;stroke-width:1.0;" width="10" x="2361.5" y="1058.3281"/><rect fill="#FFFFFF" height="278.9688" style="stroke:#181818;stroke-width:1.0;" width="10" x="2897.5" y="313.9844"/><rect fill="#FFFFFF" height="278.9688" style="stroke:#181818;stroke-width:1.0;" width="10" x="2897.5" y="704.7969"/><rect fill="#FFFFFF" height="278.9688" style="stroke:#181818;stroke-width:1.0;" width="10" x="2897.5" y="1095.6094"/><rect fill="#FFFFFF" height="87.5625" style="stroke:#181818;stroke-width:1.0;" width="10" x="3584.5" y="468.1094"/><rect fill="#FFFFFF" height="87.5625" style="stroke:#181818;stroke-width:1.0;" width="10" x="3584.5" y="858.9219"/><rect fill="#FFFFFF" height="87.5625" style="stroke:#181818;stroke-width:1.0;" width="10" x="3584.5" y="1249.7344"/><polygon fill="#000000" points="490,160.8594,500,164.8594,490,168.8594,494,164.8594" style="stroke:#000000;stroke-width:1.0;"/><line style="stroke:#000000;stroke-width:1.0;" x1="46" x2="496" y1="164.8594" y2="164.8594"/><text fill="#000000" font-family="sans-serif" font-size="20" lengthAdjust="spacing" textLength="431" x="53" y="158.1426">Requests to update Patient Medical Record</text><polygon fill="#000000" points="910,198.1406,920,202.1406,910,206.1406,914,202.1406" style="stroke:#000000;stroke-width:1.0;"/><line style="stroke:#000000;stroke-width:1.0;" x1="512" x2="916" y1="202.1406" y2="202.1406"/><text fill="#000000" font-family="sans-serif" font-size="20" lengthAdjust="spacing" textLength="391" x="519" y="195.4238">routerLink='/medical-history-manager'</text><polygon fill="#000000" points="1556,235.4219,1566,239.4219,1556,243.4219,1560,239.4219" style="stroke:#000000;stroke-width:1.0;"/><line style="stroke:#000000;stroke-width:1.0;" x1="927" x2="1562" y1="239.4219" y2="239.4219"/><text fill="#000000" font-family="sans-serif" font-size="20" lengthAdjust="spacing" textLength="617" x="934" y="232.7051">routerLink='/update-medical-history/:medicalRecordNumber'</text><polygon fill="#000000" points="2144,272.7031,2154,276.7031,2144,280.7031,2148,276.7031" style="stroke:#000000;stroke-width:1.0;"/><line style="stroke:#000000;stroke-width:1.0;" x1="1578" x2="2150" y1="276.7031" y2="276.7031"/><text fill="#000000" font-family="sans-serif" font-size="20" lengthAdjust="spacing" textLength="136" x="1585" y="269.9863">getAllergies()</text><polygon fill="#000000" points="2885.5,309.9844,2895.5,313.9844,2885.5,317.9844,2889.5,313.9844" style="stroke:#000000;stroke-width:1.0;"/><line style="stroke:#000000;stroke-width:1.0;" x1="2166" x2="2891.5" y1="313.9844" y2="313.9844"/><text fill="#000000" font-family="sans-serif" font-size="20" lengthAdjust="spacing" textLength="380" x="2173" y="307.2676">Sends HTTP Request to fetch allergies</text><line style="stroke:#000000;stroke-width:1.0;" x1="2907.5" x2="2949.5" y1="351.2656" y2="351.2656"/><line style="stroke:#000000;stroke-width:1.0;" x1="2949.5" x2="2949.5" y1="351.2656" y2="364.2656"/><line style="stroke:#000000;stroke-width:1.0;" x1="2908.5" x2="2949.5" y1="364.2656" y2="364.2656"/><polygon fill="#000000" points="2918.5,360.2656,2908.5,364.2656,2918.5,368.2656,2914.5,364.2656" style="stroke:#000000;stroke-width:1.0;"/><text fill="#000000" font-family="sans-serif" font-size="20" lengthAdjust="spacing" textLength="563" x="2914.5" y="344.5488">Intercepts the request and adds the token to the header</text><path d="M2912,377.2656 L2912,433.2656 L3431,433.2656 L3431,387.2656 L3421,377.2656 L2912,377.2656 " fill="#FEFFDD" style="stroke:#181818;stroke-width:0.5;"/><path d="M3421,377.2656 L3421,387.2656 L3431,387.2656 L3421,377.2656 " fill="#FEFFDD" style="stroke:#181818;stroke-width:0.5;"/><text fill="#000000" font-family="sans-serif" font-size="20" lengthAdjust="spacing" textLength="498" x="2918" y="400.8301">The token is added to the header so that the MDR</text><text fill="#000000" font-family="sans-serif" font-size="20" lengthAdjust="spacing" textLength="442" x="2918" y="424.1113">can authenticate and authorize the request.</text><polygon fill="#000000" points="3572.5,464.1094,3582.5,468.1094,3572.5,472.1094,3576.5,468.1094" style="stroke:#000000;stroke-width:1.0;"/><line style="stroke:#000000;stroke-width:1.0;" x1="2907.5" x2="3578.5" y1="468.1094" y2="468.1094"/><text fill="#000000" font-family="sans-serif" font-size="20" lengthAdjust="spacing" textLength="493" x="2914.5" y="461.3926">Sends HTTP Request with token to fetch allergies</text><line style="stroke:#000000;stroke-width:1.0;" x1="3594.5" x2="3636.5" y1="505.3906" y2="505.3906"/><line style="stroke:#000000;stroke-width:1.0;" x1="3636.5" x2="3636.5" y1="505.3906" y2="518.3906"/><line style="stroke:#000000;stroke-width:1.0;" x1="3595.5" x2="3636.5" y1="518.3906" y2="518.3906"/><polygon fill="#000000" points="3605.5,514.3906,3595.5,518.3906,3605.5,522.3906,3601.5,518.3906" style="stroke:#000000;stroke-width:1.0;"/><text fill="#000000" font-family="sans-serif" font-size="20" lengthAdjust="spacing" textLength="169" x="3601.5" y="498.6738">Fetches allergies</text><polygon fill="#000000" points="2918.5,551.6719,2908.5,555.6719,2918.5,559.6719,2914.5,555.6719" style="stroke:#000000;stroke-width:1.0;"/><line style="stroke:#000000;stroke-width:1.0;stroke-dasharray:2.0,2.0;" x1="2912.5" x2="3588.5" y1="555.6719" y2="555.6719"/><text fill="#000000" font-family="sans-serif" font-size="20" lengthAdjust="spacing" textLength="230" x="2924.5" y="548.9551">Returns list of allergies</text><polygon fill="#000000" points="2177,588.9531,2167,592.9531,2177,596.9531,2173,592.9531" style="stroke:#000000;stroke-width:1.0;"/><line style="stroke:#000000;stroke-width:1.0;stroke-dasharray:2.0,2.0;" x1="2171" x2="2901.5" y1="592.9531" y2="592.9531"/><text fill="#000000" font-family="sans-serif" font-size="20" lengthAdjust="spacing" textLength="230" x="2183" y="586.2363">Returns list of allergies</text><polygon fill="#000000" points="1589,626.2344,1579,630.2344,1589,634.2344,1585,630.2344" style="stroke:#000000;stroke-width:1.0;"/><line style="stroke:#000000;stroke-width:1.0;stroke-dasharray:2.0,2.0;" x1="1583" x2="2160" y1="630.2344" y2="630.2344"/><text fill="#000000" font-family="sans-serif" font-size="20" lengthAdjust="spacing" textLength="230" x="1595" y="623.5176">Returns list of allergies</text><polygon fill="#000000" points="1925,663.5156,1935,667.5156,1925,671.5156,1929,667.5156" style="stroke:#000000;stroke-width:1.0;"/><line style="stroke:#000000;stroke-width:1.0;" x1="1578" x2="1931" y1="667.5156" y2="667.5156"/><text fill="#000000" font-family="sans-serif" font-size="20" lengthAdjust="spacing" textLength="233" x="1585" y="660.7988">getMedicalConditions()</text><polygon fill="#000000" points="2885.5,700.7969,2895.5,704.7969,2885.5,708.7969,2889.5,704.7969" style="stroke:#000000;stroke-width:1.0;"/><line style="stroke:#000000;stroke-width:1.0;" x1="1947" x2="2891.5" y1="704.7969" y2="704.7969"/><text fill="#000000" font-family="sans-serif" font-size="20" lengthAdjust="spacing" textLength="485" x="1954" y="698.0801">Sends HTTP Request to fetch medical conditions</text><line style="stroke:#000000;stroke-width:1.0;" x1="2907.5" x2="2949.5" y1="742.0781" y2="742.0781"/><line style="stroke:#000000;stroke-width:1.0;" x1="2949.5" x2="2949.5" y1="742.0781" y2="755.0781"/><line style="stroke:#000000;stroke-width:1.0;" x1="2908.5" x2="2949.5" y1="755.0781" y2="755.0781"/><polygon fill="#000000" points="2918.5,751.0781,2908.5,755.0781,2918.5,759.0781,2914.5,755.0781" style="stroke:#000000;stroke-width:1.0;"/><text fill="#000000" font-family="sans-serif" font-size="20" lengthAdjust="spacing" textLength="563" x="2914.5" y="735.3613">Intercepts the request and adds the token to the header</text><path d="M2912,768.0781 L2912,824.0781 L3431,824.0781 L3431,778.0781 L3421,768.0781 L2912,768.0781 " fill="#FEFFDD" style="stroke:#181818;stroke-width:0.5;"/><path d="M3421,768.0781 L3421,778.0781 L3431,778.0781 L3421,768.0781 " fill="#FEFFDD" style="stroke:#181818;stroke-width:0.5;"/><text fill="#000000" font-family="sans-serif" font-size="20" lengthAdjust="spacing" textLength="498" x="2918" y="791.6426">The token is added to the header so that the MDR</text><text fill="#000000" font-family="sans-serif" font-size="20" lengthAdjust="spacing" textLength="442" x="2918" y="814.9238">can authenticate and authorize the request.</text><polygon fill="#000000" points="3572.5,854.9219,3582.5,858.9219,3572.5,862.9219,3576.5,858.9219" style="stroke:#000000;stroke-width:1.0;"/><line style="stroke:#000000;stroke-width:1.0;" x1="2907.5" x2="3578.5" y1="858.9219" y2="858.9219"/><text fill="#000000" font-family="sans-serif" font-size="20" lengthAdjust="spacing" textLength="598" x="2914.5" y="852.2051">Sends HTTP Request with token to fetch medical conditions</text><line style="stroke:#000000;stroke-width:1.0;" x1="3594.5" x2="3636.5" y1="896.2031" y2="896.2031"/><line style="stroke:#000000;stroke-width:1.0;" x1="3636.5" x2="3636.5" y1="896.2031" y2="909.2031"/><line style="stroke:#000000;stroke-width:1.0;" x1="3595.5" x2="3636.5" y1="909.2031" y2="909.2031"/><polygon fill="#000000" points="3605.5,905.2031,3595.5,909.2031,3605.5,913.2031,3601.5,909.2031" style="stroke:#000000;stroke-width:1.0;"/><text fill="#000000" font-family="sans-serif" font-size="20" lengthAdjust="spacing" textLength="274" x="3601.5" y="889.4863">Fetches medical conditions</text><polygon fill="#000000" points="2918.5,942.4844,2908.5,946.4844,2918.5,950.4844,2914.5,946.4844" style="stroke:#000000;stroke-width:1.0;"/><line style="stroke:#000000;stroke-width:1.0;stroke-dasharray:2.0,2.0;" x1="2912.5" x2="3588.5" y1="946.4844" y2="946.4844"/><text fill="#000000" font-family="sans-serif" font-size="20" lengthAdjust="spacing" textLength="335" x="2924.5" y="939.7676">Returns list of medical conditions</text><polygon fill="#000000" points="1958,979.7656,1948,983.7656,1958,987.7656,1954,983.7656" style="stroke:#000000;stroke-width:1.0;"/><line style="stroke:#000000;stroke-width:1.0;stroke-dasharray:2.0,2.0;" x1="1952" x2="2901.5" y1="983.7656" y2="983.7656"/><text fill="#000000" font-family="sans-serif" font-size="20" lengthAdjust="spacing" textLength="335" x="1964" y="977.0488">Returns list of medical conditions</text><polygon fill="#000000" points="1589,1017.0469,1579,1021.0469,1589,1025.0469,1585,1021.0469" style="stroke:#000000;stroke-width:1.0;"/><line style="stroke:#000000;stroke-width:1.0;stroke-dasharray:2.0,2.0;" x1="1583" x2="1941" y1="1021.0469" y2="1021.0469"/><text fill="#000000" font-family="sans-serif" font-size="20" lengthAdjust="spacing" textLength="335" x="1595" y="1014.3301">Returns list of medical conditions</text><polygon fill="#000000" points="2349.5,1054.3281,2359.5,1058.3281,2349.5,1062.3281,2353.5,1058.3281" style="stroke:#000000;stroke-width:1.0;"/><line style="stroke:#000000;stroke-width:1.0;" x1="1578" x2="2355.5" y1="1058.3281" y2="1058.3281"/><text fill="#000000" font-family="sans-serif" font-size="20" lengthAdjust="spacing" textLength="498" x="1585" y="1051.6113">getPatientMedicalHistory(medicalRecordNumber)</text><polygon fill="#000000" points="2885.5,1091.6094,2895.5,1095.6094,2885.5,1099.6094,2889.5,1095.6094" style="stroke:#000000;stroke-width:1.0;"/><line style="stroke:#000000;stroke-width:1.0;" x1="2371.5" x2="2891.5" y1="1095.6094" y2="1095.6094"/><text fill="#000000" font-family="sans-serif" font-size="20" lengthAdjust="spacing" textLength="507" x="2378.5" y="1088.8926">Sends HTTP Request to get Patient Medical Record</text><line style="stroke:#000000;stroke-width:1.0;" x1="2907.5" x2="2949.5" y1="1132.8906" y2="1132.8906"/><line style="stroke:#000000;stroke-width:1.0;" x1="2949.5" x2="2949.5" y1="1132.8906" y2="1145.8906"/><line style="stroke:#000000;stroke-width:1.0;" x1="2908.5" x2="2949.5" y1="1145.8906" y2="1145.8906"/><polygon fill="#000000" points="2918.5,1141.8906,2908.5,1145.8906,2918.5,1149.8906,2914.5,1145.8906" style="stroke:#000000;stroke-width:1.0;"/><text fill="#000000" font-family="sans-serif" font-size="20" lengthAdjust="spacing" textLength="563" x="2914.5" y="1126.1738">Intercepts the request and adds the token to the header</text><path d="M2912,1158.8906 L2912,1214.8906 L3431,1214.8906 L3431,1168.8906 L3421,1158.8906 L2912,1158.8906 " fill="#FEFFDD" style="stroke:#181818;stroke-width:0.5;"/><path d="M3421,1158.8906 L3421,1168.8906 L3431,1168.8906 L3421,1158.8906 " fill="#FEFFDD" style="stroke:#181818;stroke-width:0.5;"/><text fill="#000000" font-family="sans-serif" font-size="20" lengthAdjust="spacing" textLength="498" x="2918" y="1182.4551">The token is added to the header so that the MDR</text><text fill="#000000" font-family="sans-serif" font-size="20" lengthAdjust="spacing" textLength="442" x="2918" y="1205.7363">can authenticate and authorize the request.</text><polygon fill="#000000" points="3572.5,1245.7344,3582.5,1249.7344,3572.5,1253.7344,3576.5,1249.7344" style="stroke:#000000;stroke-width:1.0;"/><line style="stroke:#000000;stroke-width:1.0;" x1="2907.5" x2="3578.5" y1="1249.7344" y2="1249.7344"/><text fill="#000000" font-family="sans-serif" font-size="20" lengthAdjust="spacing" textLength="658" x="2914.5" y="1243.0176">Sends HTTP Request with token to update Patient Medical Record</text><line style="stroke:#000000;stroke-width:1.0;" x1="3594.5" x2="3636.5" y1="1287.0156" y2="1287.0156"/><line style="stroke:#000000;stroke-width:1.0;" x1="3636.5" x2="3636.5" y1="1287.0156" y2="1300.0156"/><line style="stroke:#000000;stroke-width:1.0;" x1="3595.5" x2="3636.5" y1="1300.0156" y2="1300.0156"/><polygon fill="#000000" points="3605.5,1296.0156,3595.5,1300.0156,3605.5,1304.0156,3601.5,1300.0156" style="stroke:#000000;stroke-width:1.0;"/><text fill="#000000" font-family="sans-serif" font-size="20" lengthAdjust="spacing" textLength="314" x="3601.5" y="1280.2988">Fetches Patient Medical Record</text><polygon fill="#000000" points="2918.5,1333.2969,2908.5,1337.2969,2918.5,1341.2969,2914.5,1337.2969" style="stroke:#000000;stroke-width:1.0;"/><line style="stroke:#000000;stroke-width:1.0;stroke-dasharray:2.0,2.0;" x1="2912.5" x2="3588.5" y1="1337.2969" y2="1337.2969"/><text fill="#000000" font-family="sans-serif" font-size="20" lengthAdjust="spacing" textLength="314" x="2924.5" y="1330.5801">Returns Patient Medical Record</text><polygon fill="#000000" points="2382.5,1370.5781,2372.5,1374.5781,2382.5,1378.5781,2378.5,1374.5781" style="stroke:#000000;stroke-width:1.0;"/><line style="stroke:#000000;stroke-width:1.0;stroke-dasharray:2.0,2.0;" x1="2376.5" x2="2901.5" y1="1374.5781" y2="1374.5781"/><text fill="#000000" font-family="sans-serif" font-size="20" lengthAdjust="spacing" textLength="314" x="2388.5" y="1367.8613">Returns Patient Medical Record</text><polygon fill="#000000" points="1589,1407.8594,1579,1411.8594,1589,1415.8594,1585,1411.8594" style="stroke:#000000;stroke-width:1.0;"/><line style="stroke:#000000;stroke-width:1.0;stroke-dasharray:2.0,2.0;" x1="1583" x2="2365.5" y1="1411.8594" y2="1411.8594"/><text fill="#000000" font-family="sans-serif" font-size="20" lengthAdjust="spacing" textLength="314" x="1595" y="1405.1426">Returns Patient Medical Record</text><polygon fill="#000000" points="523,1445.1406,513,1449.1406,523,1453.1406,519,1449.1406" style="stroke:#000000;stroke-width:1.0;"/><line style="stroke:#000000;stroke-width:1.0;stroke-dasharray:2.0,2.0;" x1="517" x2="1572" y1="1449.1406" y2="1449.1406"/><text fill="#000000" font-family="sans-serif" font-size="20" lengthAdjust="spacing" textLength="434" x="529" y="1442.4238">Returns UpdatedMedicalHistoryComponent</text><polygon fill="#000000" points="57,1482.4219,47,1486.4219,57,1490.4219,53,1486.4219" style="stroke:#000000;stroke-width:1.0;"/><line style="stroke:#000000;stroke-width:1.0;stroke-dasharray:2.0,2.0;" x1="51" x2="506" y1="1486.4219" y2="1486.4219"/><text fill="#000000" font-family="sans-serif" font-size="20" lengthAdjust="spacing" textLength="432" x="63" y="1479.7051">Displays fetched data and allows to update</text><!--SRC=[vLPHJzim47xFhpYD1zX3WJ4DjeeXDKsYLg8R8f1tanojrzJkR9Ugc_RVTxPJcbHfWMSg9LKkztq-V_VPiPvoCMUApKgPJx600X_PeZI952RbVn3EJeF0S5CYNECJbl0PaXWYpiO4WKUfu3w5Y-Epu_CWcF020MTpiu8PpXvGwI3GQth8IwOr_0s0VY7BfsCb5wBeorAgoyidLYxmvyClpCtL5Hn4vt4l-TgUggHqEKaKXz5fUuv6zSHpT5IVahCuR4iZYZZv5b-uTpsbvDA7mvBoWd_rskSKOMDihnuEuZ3vaeGMmd93WKYwFwOX2eZ0y9pFcJ3m8UEu_63Z6JHVZB3WEIi7N1DmDMA2HbDzEPjBWS8uo6WmwZT1z_E26Mn2cvZxqQ3VEb1VYe8RBaNgbV8ZzDDcSgyiKOrNzPnUkg_m1jjWcsrX9aDXKEKufsHFDzoYYp8N3sEd9N-Y2PA84NIk8El2BVvUe3OQZ8I5cptSCCDfkb0LGYcvLCK6d0MP1Llrka1De_6lkPX-FpoPUKHducllpBpgXnkiazpUB8FLSel1bz3P8ZhfLW5Voe-5NGg7GO5DtkSdrwJ0tkqmlRGBOpHUUexwwECcayJlfIvfs8KKHQ5XS7TtivR5glA89fy0MwDhs67G6wwnpsqW9IS8gi8pKG0h2XyqSeh2Kjg72R82LI0aCIa-dXYGZvRIBeUxvsIkBPmsaGOAj7rYneL6qQq3vKm08qDGwqWgOdLZKq0gk-lKgZeEQA9WHwuc4CQjarzoCzaKlLC7SbOOhsaIcuMwbcVVLIBTebaeeQ6ajjhfRf9ghIGwMrNLk5T1R2TI1_6MUXqetLY4rgdpoFPQRdZ5BcQwNkEMogwGFnEzSzli4wJLFos0FKPgoMvrbElpsy2ahMlwJdFjXrlJR6msy3QhTjZcJd_KiiVLtKURFrtxtKVSBsxVxyn_h_oerKm86nVkGBKuSKTckmi7wLk0re63DWU-3BMcgTot_jnxg3_e53jEEdKAzotD73xgqZ5LpqksqdvPsyCjCyoth2pbidQCg7DamNy0]--></g></svg>