<?xml version="1.0" encoding="UTF-8" standalone="no"?><svg xmlns="http://www.w3.org/2000/svg" xmlns:xlink="http://www.w3.org/1999/xlink" contentStyleType="text/css" height="2282px" preserveAspectRatio="none" style="width:4366px;height:2282px;background:#FFFFFF;" version="1.1" viewBox="0 0 4366 2282" width="4366px" zoomAndPan="magnify"><defs/><g><text fill="#000000" font-family="sans-serif" font-size="14" font-weight="bold" lengthAdjust="spacing" textLength="149" x="2110.5" y="27.9951">Level 3 FE Diagram</text><rect fill="#FFFFFF" height="2050.625" style="stroke:#181818;stroke-width:1.0;" width="10" x="36" y="135.5781"/><rect fill="#FFFFFF" height="1472.4063" style="stroke:#181818;stroke-width:1.0;" width="10" x="694" y="164.8594"/><rect fill="#FFFFFF" height="502.6563" style="stroke:#181818;stroke-width:1.0;" width="10" x="694" y="1674.5469"/><rect fill="#FFFFFF" height="37.2813" style="stroke:#181818;stroke-width:1.0;" width="10" x="1095" y="202.1406"/><rect fill="#FFFFFF" height="1360.5625" style="stroke:#181818;stroke-width:1.0;" width="10" x="1534" y="239.4219"/><rect fill="#FFFFFF" height="428.0938" style="stroke:#181818;stroke-width:1.0;" width="10" x="1534" y="1711.8281"/><rect fill="#FFFFFF" height="353.5313" style="stroke:#181818;stroke-width:1.0;" width="10" x="1975" y="276.7031"/><rect fill="#FFFFFF" height="353.5313" style="stroke:#181818;stroke-width:1.0;" width="10" x="2186.5" y="667.5156"/><rect fill="#FFFFFF" height="353.5313" style="stroke:#181818;stroke-width:1.0;" width="10" x="2336" y="1108.6094"/><rect fill="#FFFFFF" height="353.5313" style="stroke:#181818;stroke-width:1.0;" width="10" x="2528" y="1749.1094"/><rect fill="#FFFFFF" height="278.9688" style="stroke:#181818;stroke-width:1.0;" width="10" x="3020" y="313.9844"/><rect fill="#FFFFFF" height="278.9688" style="stroke:#181818;stroke-width:1.0;" width="10" x="3020" y="704.7969"/><rect fill="#FFFFFF" height="278.9688" style="stroke:#181818;stroke-width:1.0;" width="10" x="3020" y="1145.8906"/><rect fill="#FFFFFF" height="278.9688" style="stroke:#181818;stroke-width:1.0;" width="10" x="3020" y="1786.3906"/><rect fill="#FFFFFF" height="87.5625" style="stroke:#181818;stroke-width:1.0;" width="10" x="3607" y="1300.0156"/><rect fill="#FFFFFF" height="87.5625" style="stroke:#181818;stroke-width:1.0;" width="10" x="3607" y="1940.5156"/><rect fill="#FFFFFF" height="87.5625" style="stroke:#181818;stroke-width:1.0;" width="10" x="4070" y="468.1094"/><rect fill="#FFFFFF" height="87.5625" style="stroke:#181818;stroke-width:1.0;" width="10" x="4070" y="858.9219"/><line style="stroke:#181818;stroke-width:0.5;stroke-dasharray:5.0,5.0;" x1="41" x2="41" y1="125.5781" y2="2195.2031"/><line style="stroke:#181818;stroke-width:0.5;stroke-dasharray:5.0,5.0;" x1="698.5" x2="698.5" y1="125.5781" y2="2195.2031"/><line style="stroke:#181818;stroke-width:0.5;stroke-dasharray:5.0,5.0;" x1="1099.5" x2="1099.5" y1="125.5781" y2="2195.2031"/><line style="stroke:#181818;stroke-width:0.5;stroke-dasharray:5.0,5.0;" x1="1538.5" x2="1538.5" y1="125.5781" y2="2195.2031"/><line style="stroke:#181818;stroke-width:0.5;stroke-dasharray:5.0,5.0;" x1="1979.5" x2="1979.5" y1="125.5781" y2="2195.2031"/><line style="stroke:#181818;stroke-width:0.5;stroke-dasharray:5.0,5.0;" x1="2191.5" x2="2191.5" y1="125.5781" y2="2195.2031"/><line style="stroke:#181818;stroke-width:0.5;stroke-dasharray:5.0,5.0;" x1="2340.5" x2="2340.5" y1="125.5781" y2="2195.2031"/><line style="stroke:#181818;stroke-width:0.5;stroke-dasharray:5.0,5.0;" x1="2532.5" x2="2532.5" y1="125.5781" y2="2195.2031"/><line style="stroke:#181818;stroke-width:0.5;stroke-dasharray:5.0,5.0;" x1="3024.5" x2="3024.5" y1="125.5781" y2="2195.2031"/><line style="stroke:#181818;stroke-width:0.5;stroke-dasharray:5.0,5.0;" x1="3612" x2="3612" y1="125.5781" y2="2195.2031"/><line style="stroke:#181818;stroke-width:0.5;stroke-dasharray:5.0,5.0;" x1="4075" x2="4075" y1="125.5781" y2="2195.2031"/><text fill="#000000" font-family="sans-serif" font-size="20" lengthAdjust="spacing" textLength="66" x="5" y="120.8613">Doctor</text><ellipse cx="41" cy="50.7969" fill="#E2E2F0" rx="8" ry="8" style="stroke:#181818;stroke-width:0.5;"/><path d="M41,58.7969 L41,85.7969 M28,66.7969 L54,66.7969 M41,85.7969 L28,100.7969 M41,85.7969 L54,100.7969 " fill="none" style="stroke:#181818;stroke-width:0.5;"/><text fill="#000000" font-family="sans-serif" font-size="20" lengthAdjust="spacing" textLength="66" x="5" y="2212.7676">Doctor</text><ellipse cx="41" cy="2225.9844" fill="#E2E2F0" rx="8" ry="8" style="stroke:#181818;stroke-width:0.5;"/><path d="M41,2233.9844 L41,2260.9844 M28,2241.9844 L54,2241.9844 M41,2260.9844 L28,2275.9844 M41,2260.9844 L54,2275.9844 " fill="none" style="stroke:#181818;stroke-width:0.5;"/><rect fill="#E2E2F0" height="37.2813" rx="2.5" ry="2.5" style="stroke:#181818;stroke-width:0.5;" width="63" x="667.5" y="87.2969"/><text fill="#000000" font-family="sans-serif" font-size="20" lengthAdjust="spacing" textLength="49" x="674.5" y="112.8613">View</text><rect fill="#E2E2F0" height="37.2813" rx="2.5" ry="2.5" style="stroke:#181818;stroke-width:0.5;" width="63" x="667.5" y="2194.2031"/><text fill="#000000" font-family="sans-serif" font-size="20" lengthAdjust="spacing" textLength="49" x="674.5" y="2219.7676">View</text><rect fill="#E2E2F0" height="37.2813" rx="2.5" ry="2.5" style="stroke:#181818;stroke-width:0.5;" width="323" x="938.5" y="87.2969"/><text fill="#000000" font-family="sans-serif" font-size="20" lengthAdjust="spacing" textLength="309" x="945.5" y="112.8613">OperationRequestsComponent</text><rect fill="#E2E2F0" height="37.2813" rx="2.5" ry="2.5" style="stroke:#181818;stroke-width:0.5;" width="323" x="938.5" y="2194.2031"/><text fill="#000000" font-family="sans-serif" font-size="20" lengthAdjust="spacing" textLength="309" x="945.5" y="2219.7676">OperationRequestsComponent</text><rect fill="#E2E2F0" height="37.2813" rx="2.5" ry="2.5" style="stroke:#181818;stroke-width:0.5;" width="329" x="1374.5" y="87.2969"/><text fill="#000000" font-family="sans-serif" font-size="20" lengthAdjust="spacing" textLength="315" x="1381.5" y="112.8613">CreateAppointmentComponent</text><rect fill="#E2E2F0" height="37.2813" rx="2.5" ry="2.5" style="stroke:#181818;stroke-width:0.5;" width="329" x="1374.5" y="2194.2031"/><text fill="#000000" font-family="sans-serif" font-size="20" lengthAdjust="spacing" textLength="315" x="1381.5" y="2219.7676">CreateAppointmentComponent</text><rect fill="#E2E2F0" height="37.2813" rx="2.5" ry="2.5" style="stroke:#181818;stroke-width:0.5;" width="269" x="1845.5" y="87.2969"/><text fill="#000000" font-family="sans-serif" font-size="20" lengthAdjust="spacing" textLength="255" x="1852.5" y="112.8613">OperationRequestService</text><rect fill="#E2E2F0" height="37.2813" rx="2.5" ry="2.5" style="stroke:#181818;stroke-width:0.5;" width="269" x="1845.5" y="2194.2031"/><text fill="#000000" font-family="sans-serif" font-size="20" lengthAdjust="spacing" textLength="255" x="1852.5" y="2219.7676">OperationRequestService</text><rect fill="#E2E2F0" height="37.2813" rx="2.5" ry="2.5" style="stroke:#181818;stroke-width:0.5;" width="134" x="2124.5" y="87.2969"/><text fill="#000000" font-family="sans-serif" font-size="20" lengthAdjust="spacing" textLength="120" x="2131.5" y="112.8613">StaffService</text><rect fill="#E2E2F0" height="37.2813" rx="2.5" ry="2.5" style="stroke:#181818;stroke-width:0.5;" width="134" x="2124.5" y="2194.2031"/><text fill="#000000" font-family="sans-serif" font-size="20" lengthAdjust="spacing" textLength="120" x="2131.5" y="2219.7676">StaffService</text><rect fill="#E2E2F0" height="37.2813" rx="2.5" ry="2.5" style="stroke:#181818;stroke-width:0.5;" width="145" x="2268.5" y="87.2969"/><text fill="#000000" font-family="sans-serif" font-size="20" lengthAdjust="spacing" textLength="131" x="2275.5" y="112.8613">RoomService</text><rect fill="#E2E2F0" height="37.2813" rx="2.5" ry="2.5" style="stroke:#181818;stroke-width:0.5;" width="145" x="2268.5" y="2194.2031"/><text fill="#000000" font-family="sans-serif" font-size="20" lengthAdjust="spacing" textLength="131" x="2275.5" y="2219.7676">RoomService</text><rect fill="#E2E2F0" height="37.2813" rx="2.5" ry="2.5" style="stroke:#181818;stroke-width:0.5;" width="219" x="2423.5" y="87.2969"/><text fill="#000000" font-family="sans-serif" font-size="20" lengthAdjust="spacing" textLength="205" x="2430.5" y="112.8613">AppointmentService</text><rect fill="#E2E2F0" height="37.2813" rx="2.5" ry="2.5" style="stroke:#181818;stroke-width:0.5;" width="219" x="2423.5" y="2194.2031"/><text fill="#000000" font-family="sans-serif" font-size="20" lengthAdjust="spacing" textLength="205" x="2430.5" y="2219.7676">AppointmentService</text><rect fill="#E2E2F0" height="37.2813" rx="2.5" ry="2.5" style="stroke:#181818;stroke-width:0.5;" width="173" x="2938.5" y="87.2969"/><text fill="#000000" font-family="sans-serif" font-size="20" lengthAdjust="spacing" textLength="159" x="2945.5" y="112.8613">AuthInterceptor</text><rect fill="#E2E2F0" height="37.2813" rx="2.5" ry="2.5" style="stroke:#181818;stroke-width:0.5;" width="173" x="2938.5" y="2194.2031"/><text fill="#000000" font-family="sans-serif" font-size="20" lengthAdjust="spacing" textLength="159" x="2945.5" y="2219.7676">AuthInterceptor</text><rect fill="#E2E2F0" height="37.2813" rx="2.5" ry="2.5" style="stroke:#181818;stroke-width:0.5;" width="60" x="3582" y="87.2969"/><text fill="#000000" font-family="sans-serif" font-size="20" lengthAdjust="spacing" textLength="46" x="3589" y="112.8613">MDV</text><rect fill="#E2E2F0" height="37.2813" rx="2.5" ry="2.5" style="stroke:#181818;stroke-width:0.5;" width="60" x="3582" y="2194.2031"/><text fill="#000000" font-family="sans-serif" font-size="20" lengthAdjust="spacing" textLength="46" x="3589" y="2219.7676">MDV</text><rect fill="#E2E2F0" height="37.2813" rx="2.5" ry="2.5" style="stroke:#181818;stroke-width:0.5;" width="60" x="4045" y="87.2969"/><text fill="#000000" font-family="sans-serif" font-size="20" lengthAdjust="spacing" textLength="46" x="4052" y="112.8613">MDR</text><rect fill="#E2E2F0" height="37.2813" rx="2.5" ry="2.5" style="stroke:#181818;stroke-width:0.5;" width="60" x="4045" y="2194.2031"/><text fill="#000000" font-family="sans-serif" font-size="20" lengthAdjust="spacing" textLength="46" x="4052" y="2219.7676">MDR</text><rect fill="#FFFFFF" height="2050.625" style="stroke:#181818;stroke-width:1.0;" width="10" x="36" y="135.5781"/><rect fill="#FFFFFF" height="1472.4063" style="stroke:#181818;stroke-width:1.0;" width="10" x="694" y="164.8594"/><rect fill="#FFFFFF" height="502.6563" style="stroke:#181818;stroke-width:1.0;" width="10" x="694" y="1674.5469"/><rect fill="#FFFFFF" height="37.2813" style="stroke:#181818;stroke-width:1.0;" width="10" x="1095" y="202.1406"/><rect fill="#FFFFFF" height="1360.5625" style="stroke:#181818;stroke-width:1.0;" width="10" x="1534" y="239.4219"/><rect fill="#FFFFFF" height="428.0938" style="stroke:#181818;stroke-width:1.0;" width="10" x="1534" y="1711.8281"/><rect fill="#FFFFFF" height="353.5313" style="stroke:#181818;stroke-width:1.0;" width="10" x="1975" y="276.7031"/><rect fill="#FFFFFF" height="353.5313" style="stroke:#181818;stroke-width:1.0;" width="10" x="2186.5" y="667.5156"/><rect fill="#FFFFFF" height="353.5313" style="stroke:#181818;stroke-width:1.0;" width="10" x="2336" y="1108.6094"/><rect fill="#FFFFFF" height="353.5313" style="stroke:#181818;stroke-width:1.0;" width="10" x="2528" y="1749.1094"/><rect fill="#FFFFFF" height="278.9688" style="stroke:#181818;stroke-width:1.0;" width="10" x="3020" y="313.9844"/><rect fill="#FFFFFF" height="278.9688" style="stroke:#181818;stroke-width:1.0;" width="10" x="3020" y="704.7969"/><rect fill="#FFFFFF" height="278.9688" style="stroke:#181818;stroke-width:1.0;" width="10" x="3020" y="1145.8906"/><rect fill="#FFFFFF" height="278.9688" style="stroke:#181818;stroke-width:1.0;" width="10" x="3020" y="1786.3906"/><rect fill="#FFFFFF" height="87.5625" style="stroke:#181818;stroke-width:1.0;" width="10" x="3607" y="1300.0156"/><rect fill="#FFFFFF" height="87.5625" style="stroke:#181818;stroke-width:1.0;" width="10" x="3607" y="1940.5156"/><rect fill="#FFFFFF" height="87.5625" style="stroke:#181818;stroke-width:1.0;" width="10" x="4070" y="468.1094"/><rect fill="#FFFFFF" height="87.5625" style="stroke:#181818;stroke-width:1.0;" width="10" x="4070" y="858.9219"/><polygon fill="#000000" points="682,160.8594,692,164.8594,682,168.8594,686,164.8594" style="stroke:#000000;stroke-width:1.0;"/><line style="stroke:#000000;stroke-width:1.0;" x1="46" x2="688" y1="164.8594" y2="164.8594"/><text fill="#000000" font-family="sans-serif" font-size="20" lengthAdjust="spacing" textLength="556" x="53" y="158.1426">Asks to create an appointment for an operation request</text><polygon fill="#000000" points="1083,198.1406,1093,202.1406,1083,206.1406,1087,202.1406" style="stroke:#000000;stroke-width:1.0;"/><line style="stroke:#000000;stroke-width:1.0;" x1="704" x2="1089" y1="202.1406" y2="202.1406"/><text fill="#000000" font-family="sans-serif" font-size="20" lengthAdjust="spacing" textLength="372" x="711" y="195.4238">routerLink='/create-appointment/:id'</text><polygon fill="#000000" points="1522,235.4219,1532,239.4219,1522,243.4219,1526,239.4219" style="stroke:#000000;stroke-width:1.0;"/><line style="stroke:#000000;stroke-width:1.0;" x1="1100" x2="1528" y1="239.4219" y2="239.4219"/><text fill="#000000" font-family="sans-serif" font-size="20" lengthAdjust="spacing" textLength="410" x="1107" y="232.7051">routes to CreateAppointmentComponent</text><polygon fill="#000000" points="1963,272.7031,1973,276.7031,1963,280.7031,1967,276.7031" style="stroke:#000000;stroke-width:1.0;"/><line style="stroke:#000000;stroke-width:1.0;" x1="1544" x2="1969" y1="276.7031" y2="276.7031"/><text fill="#000000" font-family="sans-serif" font-size="20" lengthAdjust="spacing" textLength="268" x="1551" y="269.9863">fetchOperationRequest(id)</text><polygon fill="#000000" points="3008,309.9844,3018,313.9844,3008,317.9844,3012,313.9844" style="stroke:#000000;stroke-width:1.0;"/><line style="stroke:#000000;stroke-width:1.0;" x1="1985" x2="3014" y1="313.9844" y2="313.9844"/><text fill="#000000" font-family="sans-serif" font-size="20" lengthAdjust="spacing" textLength="460" x="1992" y="307.2676">Makes Http Request to get Operation Request</text><line style="stroke:#000000;stroke-width:1.0;" x1="3030" x2="3072" y1="351.2656" y2="351.2656"/><line style="stroke:#000000;stroke-width:1.0;" x1="3072" x2="3072" y1="351.2656" y2="364.2656"/><line style="stroke:#000000;stroke-width:1.0;" x1="3031" x2="3072" y1="364.2656" y2="364.2656"/><polygon fill="#000000" points="3041,360.2656,3031,364.2656,3041,368.2656,3037,364.2656" style="stroke:#000000;stroke-width:1.0;"/><text fill="#000000" font-family="sans-serif" font-size="20" lengthAdjust="spacing" textLength="563" x="3037" y="344.5488">Intercepts the request and adds the token to the header</text><path d="M3035,377.2656 L3035,433.2656 L3554,433.2656 L3554,387.2656 L3544,377.2656 L3035,377.2656 " fill="#FEFFDD" style="stroke:#181818;stroke-width:0.5;"/><path d="M3544,377.2656 L3544,387.2656 L3554,387.2656 L3544,377.2656 " fill="#FEFFDD" style="stroke:#181818;stroke-width:0.5;"/><text fill="#000000" font-family="sans-serif" font-size="20" lengthAdjust="spacing" textLength="498" x="3041" y="400.8301">The token is added to the header so that the MDR</text><text fill="#000000" font-family="sans-serif" font-size="20" lengthAdjust="spacing" textLength="442" x="3041" y="424.1113">can authenticate and authorize the request.</text><polygon fill="#000000" points="4058,464.1094,4068,468.1094,4058,472.1094,4062,468.1094" style="stroke:#000000;stroke-width:1.0;"/><line style="stroke:#000000;stroke-width:1.0;" x1="3030" x2="4064" y1="468.1094" y2="468.1094"/><text fill="#000000" font-family="sans-serif" font-size="20" lengthAdjust="spacing" textLength="250" x="3037" y="461.3926">getOperationRequest(id)</text><line style="stroke:#000000;stroke-width:1.0;" x1="4080" x2="4122" y1="505.3906" y2="505.3906"/><line style="stroke:#000000;stroke-width:1.0;" x1="4122" x2="4122" y1="505.3906" y2="518.3906"/><line style="stroke:#000000;stroke-width:1.0;" x1="4081" x2="4122" y1="518.3906" y2="518.3906"/><polygon fill="#000000" points="4091,514.3906,4081,518.3906,4091,522.3906,4087,518.3906" style="stroke:#000000;stroke-width:1.0;"/><text fill="#000000" font-family="sans-serif" font-size="20" lengthAdjust="spacing" textLength="272" x="4087" y="498.6738">Fetches Operation Request</text><polygon fill="#000000" points="3041,551.6719,3031,555.6719,3041,559.6719,3037,555.6719" style="stroke:#000000;stroke-width:1.0;"/><line style="stroke:#000000;stroke-width:1.0;stroke-dasharray:2.0,2.0;" x1="3035" x2="4074" y1="555.6719" y2="555.6719"/><text fill="#000000" font-family="sans-serif" font-size="20" lengthAdjust="spacing" textLength="305" x="3047" y="548.9551">returns Operation Status Code</text><polygon fill="#000000" points="1996,588.9531,1986,592.9531,1996,596.9531,1992,592.9531" style="stroke:#000000;stroke-width:1.0;"/><line style="stroke:#000000;stroke-width:1.0;stroke-dasharray:2.0,2.0;" x1="1990" x2="3024" y1="592.9531" y2="592.9531"/><text fill="#000000" font-family="sans-serif" font-size="20" lengthAdjust="spacing" textLength="305" x="2002" y="586.2363">returns Operation Status Code</text><polygon fill="#000000" points="1555,626.2344,1545,630.2344,1555,634.2344,1551,630.2344" style="stroke:#000000;stroke-width:1.0;"/><line style="stroke:#000000;stroke-width:1.0;" x1="1549" x2="1979" y1="630.2344" y2="630.2344"/><text fill="#000000" font-family="sans-serif" font-size="20" lengthAdjust="spacing" textLength="280" x="1561" y="623.5176">returns Operation Response</text><polygon fill="#000000" points="2174.5,663.5156,2184.5,667.5156,2174.5,671.5156,2178.5,667.5156" style="stroke:#000000;stroke-width:1.0;"/><line style="stroke:#000000;stroke-width:1.0;" x1="1544" x2="2180.5" y1="667.5156" y2="667.5156"/><text fill="#000000" font-family="sans-serif" font-size="20" lengthAdjust="spacing" textLength="114" x="1551" y="660.7988">fetchStaff()</text><polygon fill="#000000" points="3008,700.7969,3018,704.7969,3008,708.7969,3012,704.7969" style="stroke:#000000;stroke-width:1.0;"/><line style="stroke:#000000;stroke-width:1.0;" x1="2196.5" x2="3014" y1="704.7969" y2="704.7969"/><text fill="#000000" font-family="sans-serif" font-size="20" lengthAdjust="spacing" textLength="386" x="2203.5" y="698.0801">Makes Http Request to get Staff's data</text><line style="stroke:#000000;stroke-width:1.0;" x1="3030" x2="3072" y1="742.0781" y2="742.0781"/><line style="stroke:#000000;stroke-width:1.0;" x1="3072" x2="3072" y1="742.0781" y2="755.0781"/><line style="stroke:#000000;stroke-width:1.0;" x1="3031" x2="3072" y1="755.0781" y2="755.0781"/><polygon fill="#000000" points="3041,751.0781,3031,755.0781,3041,759.0781,3037,755.0781" style="stroke:#000000;stroke-width:1.0;"/><text fill="#000000" font-family="sans-serif" font-size="20" lengthAdjust="spacing" textLength="563" x="3037" y="735.3613">Intercepts the request and adds the token to the header</text><path d="M3035,768.0781 L3035,824.0781 L3554,824.0781 L3554,778.0781 L3544,768.0781 L3035,768.0781 " fill="#FEFFDD" style="stroke:#181818;stroke-width:0.5;"/><path d="M3544,768.0781 L3544,778.0781 L3554,778.0781 L3544,768.0781 " fill="#FEFFDD" style="stroke:#181818;stroke-width:0.5;"/><text fill="#000000" font-family="sans-serif" font-size="20" lengthAdjust="spacing" textLength="498" x="3041" y="791.6426">The token is added to the header so that the MDR</text><text fill="#000000" font-family="sans-serif" font-size="20" lengthAdjust="spacing" textLength="442" x="3041" y="814.9238">can authenticate and authorize the request.</text><polygon fill="#000000" points="4058,854.9219,4068,858.9219,4058,862.9219,4062,858.9219" style="stroke:#000000;stroke-width:1.0;"/><line style="stroke:#000000;stroke-width:1.0;" x1="3030" x2="4064" y1="858.9219" y2="858.9219"/><text fill="#000000" font-family="sans-serif" font-size="20" lengthAdjust="spacing" textLength="143" x="3037" y="852.2051">getStaffData()</text><line style="stroke:#000000;stroke-width:1.0;" x1="4080" x2="4122" y1="896.2031" y2="896.2031"/><line style="stroke:#000000;stroke-width:1.0;" x1="4122" x2="4122" y1="896.2031" y2="909.2031"/><line style="stroke:#000000;stroke-width:1.0;" x1="4081" x2="4122" y1="909.2031" y2="909.2031"/><polygon fill="#000000" points="4091,905.2031,4081,909.2031,4091,913.2031,4087,909.2031" style="stroke:#000000;stroke-width:1.0;"/><text fill="#000000" font-family="sans-serif" font-size="20" lengthAdjust="spacing" textLength="198" x="4087" y="889.4863">Fetches Staff's data</text><polygon fill="#000000" points="3041,942.4844,3031,946.4844,3041,950.4844,3037,946.4844" style="stroke:#000000;stroke-width:1.0;"/><line style="stroke:#000000;stroke-width:1.0;stroke-dasharray:2.0,2.0;" x1="3035" x2="4074" y1="946.4844" y2="946.4844"/><text fill="#000000" font-family="sans-serif" font-size="20" lengthAdjust="spacing" textLength="305" x="3047" y="939.7676">returns Operation Status Code</text><polygon fill="#000000" points="2207.5,979.7656,2197.5,983.7656,2207.5,987.7656,2203.5,983.7656" style="stroke:#000000;stroke-width:1.0;"/><line style="stroke:#000000;stroke-width:1.0;stroke-dasharray:2.0,2.0;" x1="2201.5" x2="3024" y1="983.7656" y2="983.7656"/><text fill="#000000" font-family="sans-serif" font-size="20" lengthAdjust="spacing" textLength="305" x="2213.5" y="977.0488">returns Operation Status Code</text><polygon fill="#000000" points="1555,1017.0469,1545,1021.0469,1555,1025.0469,1551,1021.0469" style="stroke:#000000;stroke-width:1.0;"/><line style="stroke:#000000;stroke-width:1.0;" x1="1549" x2="2190.5" y1="1021.0469" y2="1021.0469"/><text fill="#000000" font-family="sans-serif" font-size="20" lengthAdjust="spacing" textLength="280" x="1561" y="1014.3301">returns Operation Response</text><line style="stroke:#000000;stroke-width:1.0;" x1="1544" x2="1586" y1="1058.3281" y2="1058.3281"/><line style="stroke:#000000;stroke-width:1.0;" x1="1586" x2="1586" y1="1058.3281" y2="1071.3281"/><line style="stroke:#000000;stroke-width:1.0;" x1="1545" x2="1586" y1="1071.3281" y2="1071.3281"/><polygon fill="#000000" points="1555,1067.3281,1545,1071.3281,1555,1075.3281,1551,1071.3281" style="stroke:#000000;stroke-width:1.0;"/><text fill="#000000" font-family="sans-serif" font-size="20" lengthAdjust="spacing" textLength="277" x="1551" y="1051.6113">filter Staff by Specialization</text><polygon fill="#000000" points="2324,1104.6094,2334,1108.6094,2324,1112.6094,2328,1108.6094" style="stroke:#000000;stroke-width:1.0;"/><line style="stroke:#000000;stroke-width:1.0;" x1="1544" x2="2330" y1="1108.6094" y2="1108.6094"/><text fill="#000000" font-family="sans-serif" font-size="20" lengthAdjust="spacing" textLength="135" x="1551" y="1101.8926">fetchRooms()</text><polygon fill="#000000" points="3008,1141.8906,3018,1145.8906,3008,1149.8906,3012,1145.8906" style="stroke:#000000;stroke-width:1.0;"/><line style="stroke:#000000;stroke-width:1.0;" x1="2346" x2="3014" y1="1145.8906" y2="1145.8906"/><text fill="#000000" font-family="sans-serif" font-size="20" lengthAdjust="spacing" textLength="397" x="2353" y="1139.1738">Makes Http Request to get Room's data</text><line style="stroke:#000000;stroke-width:1.0;" x1="3030" x2="3072" y1="1183.1719" y2="1183.1719"/><line style="stroke:#000000;stroke-width:1.0;" x1="3072" x2="3072" y1="1183.1719" y2="1196.1719"/><line style="stroke:#000000;stroke-width:1.0;" x1="3031" x2="3072" y1="1196.1719" y2="1196.1719"/><polygon fill="#000000" points="3041,1192.1719,3031,1196.1719,3041,1200.1719,3037,1196.1719" style="stroke:#000000;stroke-width:1.0;"/><text fill="#000000" font-family="sans-serif" font-size="20" lengthAdjust="spacing" textLength="563" x="3037" y="1176.4551">Intercepts the request and adds the token to the header</text><path d="M3035,1209.1719 L3035,1265.1719 L3554,1265.1719 L3554,1219.1719 L3544,1209.1719 L3035,1209.1719 " fill="#FEFFDD" style="stroke:#181818;stroke-width:0.5;"/><path d="M3544,1209.1719 L3544,1219.1719 L3554,1219.1719 L3544,1209.1719 " fill="#FEFFDD" style="stroke:#181818;stroke-width:0.5;"/><text fill="#000000" font-family="sans-serif" font-size="20" lengthAdjust="spacing" textLength="498" x="3041" y="1232.7363">The token is added to the header so that the MDV</text><text fill="#000000" font-family="sans-serif" font-size="20" lengthAdjust="spacing" textLength="442" x="3041" y="1256.0176">can authenticate and authorize the request.</text><polygon fill="#000000" points="3595,1296.0156,3605,1300.0156,3595,1304.0156,3599,1300.0156" style="stroke:#000000;stroke-width:1.0;"/><line style="stroke:#000000;stroke-width:1.0;" x1="3030" x2="3601" y1="1300.0156" y2="1300.0156"/><text fill="#000000" font-family="sans-serif" font-size="20" lengthAdjust="spacing" textLength="154" x="3037" y="1293.2988">getRoomData()</text><line style="stroke:#000000;stroke-width:1.0;" x1="3617" x2="3659" y1="1337.2969" y2="1337.2969"/><line style="stroke:#000000;stroke-width:1.0;" x1="3659" x2="3659" y1="1337.2969" y2="1350.2969"/><line style="stroke:#000000;stroke-width:1.0;" x1="3618" x2="3659" y1="1350.2969" y2="1350.2969"/><polygon fill="#000000" points="3628,1346.2969,3618,1350.2969,3628,1354.2969,3624,1350.2969" style="stroke:#000000;stroke-width:1.0;"/><text fill="#000000" font-family="sans-serif" font-size="20" lengthAdjust="spacing" textLength="209" x="3624" y="1330.5801">Fetches Room's data</text><polygon fill="#000000" points="3041,1383.5781,3031,1387.5781,3041,1391.5781,3037,1387.5781" style="stroke:#000000;stroke-width:1.0;"/><line style="stroke:#000000;stroke-width:1.0;stroke-dasharray:2.0,2.0;" x1="3035" x2="3611" y1="1387.5781" y2="1387.5781"/><text fill="#000000" font-family="sans-serif" font-size="20" lengthAdjust="spacing" textLength="305" x="3047" y="1380.8613">returns Operation Status Code</text><polygon fill="#000000" points="2357,1420.8594,2347,1424.8594,2357,1428.8594,2353,1424.8594" style="stroke:#000000;stroke-width:1.0;"/><line style="stroke:#000000;stroke-width:1.0;stroke-dasharray:2.0,2.0;" x1="2351" x2="3024" y1="1424.8594" y2="1424.8594"/><text fill="#000000" font-family="sans-serif" font-size="20" lengthAdjust="spacing" textLength="305" x="2363" y="1418.1426">returns Operation Status Code</text><polygon fill="#000000" points="1555,1458.1406,1545,1462.1406,1555,1466.1406,1551,1462.1406" style="stroke:#000000;stroke-width:1.0;"/><line style="stroke:#000000;stroke-width:1.0;" x1="1549" x2="2340" y1="1462.1406" y2="1462.1406"/><text fill="#000000" font-family="sans-serif" font-size="20" lengthAdjust="spacing" textLength="280" x="1561" y="1455.4238">returns Operation Response</text><line style="stroke:#000000;stroke-width:1.0;" x1="1544" x2="1586" y1="1499.4219" y2="1499.4219"/><line style="stroke:#000000;stroke-width:1.0;" x1="1586" x2="1586" y1="1499.4219" y2="1512.4219"/><line style="stroke:#000000;stroke-width:1.0;" x1="1545" x2="1586" y1="1512.4219" y2="1512.4219"/><polygon fill="#000000" points="1555,1508.4219,1545,1512.4219,1555,1516.4219,1551,1512.4219" style="stroke:#000000;stroke-width:1.0;"/><text fill="#000000" font-family="sans-serif" font-size="20" lengthAdjust="spacing" textLength="311" x="1551" y="1492.7051">filter Rooms by Operation Type</text><line style="stroke:#000000;stroke-width:1.0;" x1="1544" x2="1586" y1="1549.7031" y2="1549.7031"/><line style="stroke:#000000;stroke-width:1.0;" x1="1586" x2="1586" y1="1549.7031" y2="1562.7031"/><line style="stroke:#000000;stroke-width:1.0;" x1="1545" x2="1586" y1="1562.7031" y2="1562.7031"/><polygon fill="#000000" points="1555,1558.7031,1545,1562.7031,1555,1566.7031,1551,1562.7031" style="stroke:#000000;stroke-width:1.0;"/><text fill="#000000" font-family="sans-serif" font-size="20" lengthAdjust="spacing" textLength="417" x="1551" y="1542.9863">initializes CreateAppointmentComponent</text><polygon fill="#000000" points="715,1595.9844,705,1599.9844,715,1603.9844,711,1599.9844" style="stroke:#000000;stroke-width:1.0;"/><line style="stroke:#000000;stroke-width:1.0;stroke-dasharray:2.0,2.0;" x1="709" x2="1538" y1="1599.9844" y2="1599.9844"/><text fill="#000000" font-family="sans-serif" font-size="20" lengthAdjust="spacing" textLength="393" x="721" y="1593.2676">returns CreateAppointmentComponent</text><polygon fill="#000000" points="57,1633.2656,47,1637.2656,57,1641.2656,53,1637.2656" style="stroke:#000000;stroke-width:1.0;"/><line style="stroke:#000000;stroke-width:1.0;stroke-dasharray:2.0,2.0;" x1="51" x2="698" y1="1637.2656" y2="1637.2656"/><text fill="#000000" font-family="sans-serif" font-size="20" lengthAdjust="spacing" textLength="624" x="63" y="1630.5488">Displays the fetched data and asks for the appointment's data</text><polygon fill="#000000" points="682,1670.5469,692,1674.5469,682,1678.5469,686,1674.5469" style="stroke:#000000;stroke-width:1.0;"/><line style="stroke:#000000;stroke-width:1.0;" x1="46" x2="688" y1="1674.5469" y2="1674.5469"/><text fill="#000000" font-family="sans-serif" font-size="20" lengthAdjust="spacing" textLength="521" x="53" y="1667.8301">Sends appointment's data (DateTime, Room, Team)</text><polygon fill="#000000" points="1522,1707.8281,1532,1711.8281,1522,1715.8281,1526,1711.8281" style="stroke:#000000;stroke-width:1.0;"/><line style="stroke:#000000;stroke-width:1.0;" x1="704" x2="1528" y1="1711.8281" y2="1711.8281"/><text fill="#000000" font-family="sans-serif" font-size="20" lengthAdjust="spacing" textLength="280" x="711" y="1705.1113">createAppointment($event)</text><polygon fill="#000000" points="2516,1745.1094,2526,1749.1094,2516,1753.1094,2520,1749.1094" style="stroke:#000000;stroke-width:1.0;"/><line style="stroke:#000000;stroke-width:1.0;" x1="1544" x2="2522" y1="1749.1094" y2="1749.1094"/><text fill="#000000" font-family="sans-serif" font-size="20" lengthAdjust="spacing" textLength="385" x="1551" y="1742.3926">createAppointment(newAppointment)</text><polygon fill="#000000" points="3008,1782.3906,3018,1786.3906,3008,1790.3906,3012,1786.3906" style="stroke:#000000;stroke-width:1.0;"/><line style="stroke:#000000;stroke-width:1.0;" x1="2538" x2="3014" y1="1786.3906" y2="1786.3906"/><text fill="#000000" font-family="sans-serif" font-size="20" lengthAdjust="spacing" textLength="463" x="2545" y="1779.6738">Makes Http Request to create an appointment</text><line style="stroke:#000000;stroke-width:1.0;" x1="3030" x2="3072" y1="1823.6719" y2="1823.6719"/><line style="stroke:#000000;stroke-width:1.0;" x1="3072" x2="3072" y1="1823.6719" y2="1836.6719"/><line style="stroke:#000000;stroke-width:1.0;" x1="3031" x2="3072" y1="1836.6719" y2="1836.6719"/><polygon fill="#000000" points="3041,1832.6719,3031,1836.6719,3041,1840.6719,3037,1836.6719" style="stroke:#000000;stroke-width:1.0;"/><text fill="#000000" font-family="sans-serif" font-size="20" lengthAdjust="spacing" textLength="563" x="3037" y="1816.9551">Intercepts the request and adds the token to the header</text><path d="M3035,1849.6719 L3035,1905.6719 L3554,1905.6719 L3554,1859.6719 L3544,1849.6719 L3035,1849.6719 " fill="#FEFFDD" style="stroke:#181818;stroke-width:0.5;"/><path d="M3544,1849.6719 L3544,1859.6719 L3554,1859.6719 L3544,1849.6719 " fill="#FEFFDD" style="stroke:#181818;stroke-width:0.5;"/><text fill="#000000" font-family="sans-serif" font-size="20" lengthAdjust="spacing" textLength="498" x="3041" y="1873.2363">The token is added to the header so that the MDV</text><text fill="#000000" font-family="sans-serif" font-size="20" lengthAdjust="spacing" textLength="442" x="3041" y="1896.5176">can authenticate and authorize the request.</text><polygon fill="#000000" points="3595,1936.5156,3605,1940.5156,3595,1944.5156,3599,1940.5156" style="stroke:#000000;stroke-width:1.0;"/><line style="stroke:#000000;stroke-width:1.0;" x1="3030" x2="3601" y1="1940.5156" y2="1940.5156"/><text fill="#000000" font-family="sans-serif" font-size="20" lengthAdjust="spacing" textLength="385" x="3037" y="1933.7988">createAppointment(newAppointment)</text><line style="stroke:#000000;stroke-width:1.0;" x1="3617" x2="3659" y1="1977.7969" y2="1977.7969"/><line style="stroke:#000000;stroke-width:1.0;" x1="3659" x2="3659" y1="1977.7969" y2="1990.7969"/><line style="stroke:#000000;stroke-width:1.0;" x1="3618" x2="3659" y1="1990.7969" y2="1990.7969"/><polygon fill="#000000" points="3628,1986.7969,3618,1990.7969,3628,1994.7969,3624,1990.7969" style="stroke:#000000;stroke-width:1.0;"/><text fill="#000000" font-family="sans-serif" font-size="20" lengthAdjust="spacing" textLength="439" x="3624" y="1971.0801">Validates appointment's data and creates it</text><polygon fill="#000000" points="3041,2024.0781,3031,2028.0781,3041,2032.0781,3037,2028.0781" style="stroke:#000000;stroke-width:1.0;"/><line style="stroke:#000000;stroke-width:1.0;stroke-dasharray:2.0,2.0;" x1="3035" x2="3611" y1="2028.0781" y2="2028.0781"/><text fill="#000000" font-family="sans-serif" font-size="20" lengthAdjust="spacing" textLength="311" x="3047" y="2021.3613">Returns Operation Status Code</text><polygon fill="#000000" points="2549,2061.3594,2539,2065.3594,2549,2069.3594,2545,2065.3594" style="stroke:#000000;stroke-width:1.0;"/><line style="stroke:#000000;stroke-width:1.0;stroke-dasharray:2.0,2.0;" x1="2543" x2="3024" y1="2065.3594" y2="2065.3594"/><text fill="#000000" font-family="sans-serif" font-size="20" lengthAdjust="spacing" textLength="305" x="2555" y="2058.6426">returns Operation Status Code</text><polygon fill="#000000" points="1555,2098.6406,1545,2102.6406,1555,2106.6406,1551,2102.6406" style="stroke:#000000;stroke-width:1.0;"/><line style="stroke:#000000;stroke-width:1.0;stroke-dasharray:2.0,2.0;" x1="1549" x2="2532" y1="2102.6406" y2="2102.6406"/><text fill="#000000" font-family="sans-serif" font-size="20" lengthAdjust="spacing" textLength="280" x="1561" y="2095.9238">returns Operation Response</text><polygon fill="#000000" points="715,2135.9219,705,2139.9219,715,2143.9219,711,2139.9219" style="stroke:#000000;stroke-width:1.0;"/><line style="stroke:#000000;stroke-width:1.0;stroke-dasharray:2.0,2.0;" x1="709" x2="1538" y1="2139.9219" y2="2139.9219"/><text fill="#000000" font-family="sans-serif" font-size="20" lengthAdjust="spacing" textLength="374" x="721" y="2133.2051">returns Operation In/Sucess message</text><polygon fill="#000000" points="57,2173.2031,47,2177.2031,57,2181.2031,53,2177.2031" style="stroke:#000000;stroke-width:1.0;"/><line style="stroke:#000000;stroke-width:1.0;stroke-dasharray:2.0,2.0;" x1="51" x2="698" y1="2177.2031" y2="2177.2031"/><text fill="#000000" font-family="sans-serif" font-size="20" lengthAdjust="spacing" textLength="374" x="63" y="2170.4863">returns Operation In/Sucess message</text><!--SRC=[tLVRRjiu47tNLmoQ0d60jkbsiJUZ6q2-23NG8e2P-9sHnZRN4gabwGJfOlzzPoZBbXmrQxKlHGCuXiWpe-4vPqZQRPGkfPL5Rj8DPf3XKcvpdnZjXVgCyEvj57dbSuIFU8yv_0p952PAhYWaYjOgGy2Yz8zGO767raNdhiu87vL6_rWY6ElN9eeECsakdOD_8g2_aKmtAsksEXkRtDZtx-zbliNhkxymzLTNS3RvTHedltT3hJ41aqoceydRRen3UwzI3Ab-IjvDHrqmEBkT9NzCVmjpiRNceHeUvOIB_ctMNjA8N65tzN0s7IM_92CEaQcdWOa9Nz917542hr9LIkrXeV21HszdhU4NroLQwPNHS_nxYywxiIbAer7x5mo_de_R-B55wJ4kIwEqBmZMne_ZyVFvHKNFBhbeWuMNosKJ8Ou0SsEAvlnnWaPTJLXy3DlwzKnxj2cMn5Q5QHFpQRBWKVew6fvNm_D0kBedCeZf65vV4RL3YDt6WJUG1ff0Qf27ac39ocWmDITWAr8EgKYUsnad8-A7G49JaUJhpP_dbrNArurybqELdHzYMIlwS3J9i8iErNnPj2Z3Llp-WOMaJrMA6C8IVRe-5dEWielc-mMzNt18J5HyaXjw-mVlIzZ1kPGLUjYdgISQLCwYU5Pds4j4YrXZJHOnc87CichGcmrgJimFQvGPsaWRocJLQkt1B3abTyxD7gmSXzFcque2nq_IXo7MbuDI5f3CGaofj18q2mF6ycxLgEfDX3J5RzujW58CURNFSyOlOa_L0GdJJBGzfIYWTiHOz5khcoZg7B-bzZCPDYNbz5nEhUB9WKJQJihAIa_YvkZ8GGxR1XArPqHjcT3IWyQAgQN52Hu9SUSECkdbZsoFiCu9BN9mWYjQf7oh8KHFFuY-TX1xDuIWfSf9hseDSFS8eiHKoLnz3Xbgw7wluQtUDKaXSvsokN3Sz-kRnRVxPX5ymyjyQfj5nETM3QjjqwGapFTtpQ9sJTzTfFScCkzqJN03k-OGV4DNlHPKQUM3eMZ9pvnu8MHtNDSbdNP0yfbuMz4G3-bMwifSFbP-2PRb-onnNAd95m4-xtcsSMRNEZJIqfc_lpy8ajjru650OkEDAl1LuE8LtA0iBZek3e6Az7WzWvTqdTR-elE0ZqLNXCQ7ncCZacvJyVyqOkVrvuTjnnxS7RVeWlnA-cAdvbn6bTk1ygtMdNz5wyOzMvT5xjUxiUZihaFGJ5-AROhqOwoWV_IpviljrJEO_FyV]--></g></svg>