<?xml version="1.0" encoding="UTF-8" standalone="no"?><svg xmlns="http://www.w3.org/2000/svg" xmlns:xlink="http://www.w3.org/1999/xlink" contentStyleType="text/css" height="935px" preserveAspectRatio="none" style="width:3095px;height:935px;background:#FFFFFF;" version="1.1" viewBox="0 0 3095 935" width="3095px" zoomAndPan="magnify"><defs/><g><text fill="#000000" font-family="sans-serif" font-size="14" font-weight="bold" lengthAdjust="spacing" textLength="141" x="1478.25" y="27.9951">Level 3 P Diagram</text><rect fill="#FFFFFF" height="703.0625" style="stroke:#181818;stroke-width:1.0;" width="10" x="38.5" y="135.5781"/><rect fill="#FFFFFF" height="229.4063" style="stroke:#181818;stroke-width:1.0;" width="10" x="759.5" y="164.8594"/><rect fill="#FFFFFF" height="398.0938" style="stroke:#181818;stroke-width:1.0;" width="10" x="759.5" y="431.5469"/><rect fill="#FFFFFF" height="67.2813" style="stroke:#181818;stroke-width:1.0;" width="10" x="1012.5" y="202.1406"/><rect fill="#FFFFFF" height="117.5625" style="stroke:#181818;stroke-width:1.0;" width="10" x="1342.5" y="239.4219"/><rect fill="#FFFFFF" height="316.5313" style="stroke:#181818;stroke-width:1.0;" width="10" x="1342.5" y="468.8281"/><rect fill="#FFFFFF" height="162.125" style="stroke:#181818;stroke-width:1.0;" width="10" x="1787.5" y="546.6719"/><rect fill="#FFFFFF" height="87.5625" style="stroke:#181818;stroke-width:1.0;" width="10" x="2636.5" y="583.9531"/><rect fill="#EBF5FB" height="309.5313" style="stroke:#000000;stroke-width:1.5;" width="2365.5" x="723" y="483.8281"/><rect fill="#EBF5FB" height="39.2813" style="stroke:none;stroke-width:1.0;" width="2365.5" x="723" y="754.0781"/><line style="stroke:#181818;stroke-width:0.5;stroke-dasharray:5.0,5.0;" x1="43" x2="43" y1="125.5781" y2="847.6406"/><line style="stroke:#181818;stroke-width:0.5;stroke-dasharray:5.0,5.0;" x1="764" x2="764" y1="125.5781" y2="847.6406"/><line style="stroke:#181818;stroke-width:0.5;stroke-dasharray:5.0,5.0;" x1="1017.5" x2="1017.5" y1="125.5781" y2="847.6406"/><line style="stroke:#181818;stroke-width:0.5;stroke-dasharray:5.0,5.0;" x1="1347.5" x2="1347.5" y1="125.5781" y2="847.6406"/><line style="stroke:#181818;stroke-width:0.5;stroke-dasharray:5.0,5.0;" x1="1792.5" x2="1792.5" y1="125.5781" y2="847.6406"/><line style="stroke:#181818;stroke-width:0.5;stroke-dasharray:5.0,5.0;" x1="2641.5" x2="2641.5" y1="125.5781" y2="847.6406"/><text fill="#000000" font-family="sans-serif" font-size="20" lengthAdjust="spacing" textLength="71" x="5" y="120.8613">Patient</text><ellipse cx="43.5" cy="50.7969" fill="#E2E2F0" rx="8" ry="8" style="stroke:#181818;stroke-width:0.5;"/><path d="M43.5,58.7969 L43.5,85.7969 M30.5,66.7969 L56.5,66.7969 M43.5,85.7969 L30.5,100.7969 M43.5,85.7969 L56.5,100.7969 " fill="none" style="stroke:#181818;stroke-width:0.5;"/><text fill="#000000" font-family="sans-serif" font-size="20" lengthAdjust="spacing" textLength="71" x="5" y="865.2051">Patient</text><ellipse cx="43.5" cy="878.4219" fill="#E2E2F0" rx="8" ry="8" style="stroke:#181818;stroke-width:0.5;"/><path d="M43.5,886.4219 L43.5,913.4219 M30.5,894.4219 L56.5,894.4219 M43.5,913.4219 L30.5,928.4219 M43.5,913.4219 L56.5,928.4219 " fill="none" style="stroke:#181818;stroke-width:0.5;"/><rect fill="#E2E2F0" height="37.2813" rx="2.5" ry="2.5" style="stroke:#181818;stroke-width:0.5;" width="63" x="733" y="87.2969"/><text fill="#000000" font-family="sans-serif" font-size="20" lengthAdjust="spacing" textLength="49" x="740" y="112.8613">View</text><rect fill="#E2E2F0" height="37.2813" rx="2.5" ry="2.5" style="stroke:#181818;stroke-width:0.5;" width="63" x="733" y="846.6406"/><text fill="#000000" font-family="sans-serif" font-size="20" lengthAdjust="spacing" textLength="49" x="740" y="872.2051">View</text><rect fill="#E2E2F0" height="37.2813" rx="2.5" ry="2.5" style="stroke:#181818;stroke-width:0.5;" width="190" x="922.5" y="87.2969"/><text fill="#000000" font-family="sans-serif" font-size="20" lengthAdjust="spacing" textLength="176" x="929.5" y="112.8613">HomeComponent</text><rect fill="#E2E2F0" height="37.2813" rx="2.5" ry="2.5" style="stroke:#181818;stroke-width:0.5;" width="190" x="922.5" y="846.6406"/><text fill="#000000" font-family="sans-serif" font-size="20" lengthAdjust="spacing" textLength="176" x="929.5" y="872.2051">HomeComponent</text><rect fill="#E2E2F0" height="37.2813" rx="2.5" ry="2.5" style="stroke:#181818;stroke-width:0.5;" width="214" x="1240.5" y="87.2969"/><text fill="#000000" font-family="sans-serif" font-size="20" lengthAdjust="spacing" textLength="200" x="1247.5" y="112.8613">RegisterComponent</text><rect fill="#E2E2F0" height="37.2813" rx="2.5" ry="2.5" style="stroke:#181818;stroke-width:0.5;" width="214" x="1240.5" y="846.6406"/><text fill="#000000" font-family="sans-serif" font-size="20" lengthAdjust="spacing" textLength="200" x="1247.5" y="872.2051">RegisterComponent</text><rect fill="#E2E2F0" height="37.2813" rx="2.5" ry="2.5" style="stroke:#181818;stroke-width:0.5;" width="170" x="1707.5" y="87.2969"/><text fill="#000000" font-family="sans-serif" font-size="20" lengthAdjust="spacing" textLength="156" x="1714.5" y="112.8613">RegisterService</text><rect fill="#E2E2F0" height="37.2813" rx="2.5" ry="2.5" style="stroke:#181818;stroke-width:0.5;" width="170" x="1707.5" y="846.6406"/><text fill="#000000" font-family="sans-serif" font-size="20" lengthAdjust="spacing" textLength="156" x="1714.5" y="872.2051">RegisterService</text><rect fill="#E2E2F0" height="37.2813" rx="2.5" ry="2.5" style="stroke:#181818;stroke-width:0.5;" width="60" x="2611.5" y="87.2969"/><text fill="#000000" font-family="sans-serif" font-size="20" lengthAdjust="spacing" textLength="46" x="2618.5" y="112.8613">MDR</text><rect fill="#E2E2F0" height="37.2813" rx="2.5" ry="2.5" style="stroke:#181818;stroke-width:0.5;" width="60" x="2611.5" y="846.6406"/><text fill="#000000" font-family="sans-serif" font-size="20" lengthAdjust="spacing" textLength="46" x="2618.5" y="872.2051">MDR</text><rect fill="#FFFFFF" height="703.0625" style="stroke:#181818;stroke-width:1.0;" width="10" x="38.5" y="135.5781"/><rect fill="#FFFFFF" height="229.4063" style="stroke:#181818;stroke-width:1.0;" width="10" x="759.5" y="164.8594"/><rect fill="#FFFFFF" height="398.0938" style="stroke:#181818;stroke-width:1.0;" width="10" x="759.5" y="431.5469"/><rect fill="#FFFFFF" height="67.2813" style="stroke:#181818;stroke-width:1.0;" width="10" x="1012.5" y="202.1406"/><rect fill="#FFFFFF" height="117.5625" style="stroke:#181818;stroke-width:1.0;" width="10" x="1342.5" y="239.4219"/><rect fill="#FFFFFF" height="316.5313" style="stroke:#181818;stroke-width:1.0;" width="10" x="1342.5" y="468.8281"/><rect fill="#FFFFFF" height="162.125" style="stroke:#181818;stroke-width:1.0;" width="10" x="1787.5" y="546.6719"/><rect fill="#FFFFFF" height="87.5625" style="stroke:#181818;stroke-width:1.0;" width="10" x="2636.5" y="583.9531"/><polygon fill="#000000" points="747.5,160.8594,757.5,164.8594,747.5,168.8594,751.5,164.8594" style="stroke:#000000;stroke-width:1.0;"/><line style="stroke:#000000;stroke-width:1.0;" x1="48.5" x2="753.5" y1="164.8594" y2="164.8594"/><text fill="#000000" font-family="sans-serif" font-size="20" lengthAdjust="spacing" textLength="240" x="55.5" y="158.1426">Asks to Register as User</text><polygon fill="#000000" points="1000.5,198.1406,1010.5,202.1406,1000.5,206.1406,1004.5,202.1406" style="stroke:#000000;stroke-width:1.0;"/><line style="stroke:#000000;stroke-width:1.0;" x1="769.5" x2="1006.5" y1="202.1406" y2="202.1406"/><text fill="#000000" font-family="sans-serif" font-size="20" lengthAdjust="spacing" textLength="224" x="776.5" y="195.4238">routerLink="/register"</text><polygon fill="#000000" points="1330.5,235.4219,1340.5,239.4219,1330.5,243.4219,1334.5,239.4219" style="stroke:#000000;stroke-width:1.0;"/><line style="stroke:#000000;stroke-width:1.0;" x1="1022.5" x2="1336.5" y1="239.4219" y2="239.4219"/><text fill="#000000" font-family="sans-serif" font-size="20" lengthAdjust="spacing" textLength="301" x="1029.5" y="232.7051">Routes to RegisterComponent</text><line style="stroke:#000000;stroke-width:1.0;" x1="1352.5" x2="1394.5" y1="306.7031" y2="306.7031"/><line style="stroke:#000000;stroke-width:1.0;" x1="1394.5" x2="1394.5" y1="306.7031" y2="319.7031"/><line style="stroke:#000000;stroke-width:1.0;" x1="1353.5" x2="1394.5" y1="319.7031" y2="319.7031"/><polygon fill="#000000" points="1363.5,315.7031,1353.5,319.7031,1363.5,323.7031,1359.5,319.7031" style="stroke:#000000;stroke-width:1.0;"/><text fill="#000000" font-family="sans-serif" font-size="20" lengthAdjust="spacing" textLength="296" x="1359.5" y="299.9863">Intializes RegisterComponent</text><polygon fill="#000000" points="780.5,352.9844,770.5,356.9844,780.5,360.9844,776.5,356.9844" style="stroke:#000000;stroke-width:1.0;"/><line style="stroke:#000000;stroke-width:1.0;stroke-dasharray:2.0,2.0;" x1="774.5" x2="1346.5" y1="356.9844" y2="356.9844"/><text fill="#000000" font-family="sans-serif" font-size="20" lengthAdjust="spacing" textLength="284" x="786.5" y="350.2676">Returns RegisterComponent</text><polygon fill="#000000" points="59.5,390.2656,49.5,394.2656,59.5,398.2656,55.5,394.2656" style="stroke:#000000;stroke-width:1.0;"/><line style="stroke:#000000;stroke-width:1.0;stroke-dasharray:2.0,2.0;" x1="53.5" x2="763.5" y1="394.2656" y2="394.2656"/><text fill="#000000" font-family="sans-serif" font-size="20" lengthAdjust="spacing" textLength="318" x="65.5" y="387.5488">Asks for data to register as User</text><polygon fill="#000000" points="747.5,427.5469,757.5,431.5469,747.5,435.5469,751.5,431.5469" style="stroke:#000000;stroke-width:1.0;"/><line style="stroke:#000000;stroke-width:1.0;" x1="48.5" x2="753.5" y1="431.5469" y2="431.5469"/><text fill="#000000" font-family="sans-serif" font-size="20" lengthAdjust="spacing" textLength="692" x="55.5" y="424.8301">Sends data(email, phone number, password, password confirmation)</text><polygon fill="#000000" points="1330.5,464.8281,1340.5,468.8281,1330.5,472.8281,1334.5,468.8281" style="stroke:#000000;stroke-width:1.0;"/><line style="stroke:#000000;stroke-width:1.0;" x1="769.5" x2="1336.5" y1="468.8281" y2="468.8281"/><text fill="#000000" font-family="sans-serif" font-size="20" lengthAdjust="spacing" textLength="114" x="776.5" y="462.1113">onSubmit()</text><path d="M723,483.8281 L799,483.8281 L799,499.1094 L789,509.1094 L723,509.1094 L723,483.8281 " fill="#EEEEEE" style="stroke:#000000;stroke-width:1.5;"/><rect fill="none" height="309.5313" style="stroke:#000000;stroke-width:1.5;" width="2365.5" x="723" y="483.8281"/><text fill="#000000" font-family="sans-serif" font-size="20" font-weight="bold" lengthAdjust="spacing" textLength="31" x="738" y="503.3926">alt</text><text fill="#000000" font-family="sans-serif" font-size="20" font-weight="bold" lengthAdjust="spacing" textLength="733" x="814" y="504.3926">[if all field are filled &amp;&amp; (password === passwordConfirmation)]</text><polygon fill="#000000" points="1775.5,542.6719,1785.5,546.6719,1775.5,550.6719,1779.5,546.6719" style="stroke:#000000;stroke-width:1.0;"/><line style="stroke:#000000;stroke-width:1.0;" x1="1352.5" x2="1781.5" y1="546.6719" y2="546.6719"/><text fill="#000000" font-family="sans-serif" font-size="20" lengthAdjust="spacing" textLength="416" x="1359.5" y="539.9551">register(email, phone number, password)</text><polygon fill="#000000" points="2624.5,579.9531,2634.5,583.9531,2624.5,587.9531,2628.5,583.9531" style="stroke:#000000;stroke-width:1.0;"/><line style="stroke:#000000;stroke-width:1.0;" x1="1797.5" x2="2630.5" y1="583.9531" y2="583.9531"/><text fill="#000000" font-family="sans-serif" font-size="20" lengthAdjust="spacing" textLength="820" x="1804.5" y="577.2363">Makes HTTP Request to Register User with data (email, phone number, password)</text><line style="stroke:#000000;stroke-width:1.0;" x1="2646.5" x2="2688.5" y1="621.2344" y2="621.2344"/><line style="stroke:#000000;stroke-width:1.0;" x1="2688.5" x2="2688.5" y1="621.2344" y2="634.2344"/><line style="stroke:#000000;stroke-width:1.0;" x1="2647.5" x2="2688.5" y1="634.2344" y2="634.2344"/><polygon fill="#000000" points="2657.5,630.2344,2647.5,634.2344,2657.5,638.2344,2653.5,634.2344" style="stroke:#000000;stroke-width:1.0;"/><text fill="#000000" font-family="sans-serif" font-size="20" lengthAdjust="spacing" textLength="423" x="2653.5" y="614.5176">Validates data and tries to create the User</text><polygon fill="#000000" points="1808.5,667.5156,1798.5,671.5156,1808.5,675.5156,1804.5,671.5156" style="stroke:#000000;stroke-width:1.0;"/><line style="stroke:#000000;stroke-width:1.0;stroke-dasharray:2.0,2.0;" x1="1802.5" x2="2640.5" y1="671.5156" y2="671.5156"/><text fill="#000000" font-family="sans-serif" font-size="20" lengthAdjust="spacing" textLength="311" x="1814.5" y="664.7988">Returns Operation Status Code</text><polygon fill="#000000" points="1363.5,704.7969,1353.5,708.7969,1363.5,712.7969,1359.5,708.7969" style="stroke:#000000;stroke-width:1.0;"/><line style="stroke:#000000;stroke-width:1.0;stroke-dasharray:2.0,2.0;" x1="1357.5" x2="1791.5" y1="708.7969" y2="708.7969"/><text fill="#000000" font-family="sans-serif" font-size="20" lengthAdjust="spacing" textLength="286" x="1369.5" y="702.0801">Returns Operation Response</text><polygon fill="#000000" points="780.5,742.0781,770.5,746.0781,780.5,750.0781,776.5,746.0781" style="stroke:#000000;stroke-width:1.0;"/><line style="stroke:#000000;stroke-width:1.0;stroke-dasharray:2.0,2.0;" x1="774.5" x2="1341.5" y1="746.0781" y2="746.0781"/><text fill="#000000" font-family="sans-serif" font-size="20" lengthAdjust="spacing" textLength="363" x="786.5" y="739.3613">Returns Register In/Sucess message</text><line style="stroke:#000000;stroke-width:1.0;stroke-dasharray:2.0,2.0;" x1="723" x2="3088.5" y1="755.0781" y2="755.0781"/><polygon fill="#000000" points="780.5,781.3594,770.5,785.3594,780.5,789.3594,776.5,785.3594" style="stroke:#000000;stroke-width:1.0;"/><line style="stroke:#000000;stroke-width:1.0;stroke-dasharray:2.0,2.0;" x1="774.5" x2="1346.5" y1="785.3594" y2="785.3594"/><text fill="#000000" font-family="sans-serif" font-size="20" lengthAdjust="spacing" textLength="423" x="786.5" y="778.6426">Returns Passwords do not match message</text><polygon fill="#000000" points="59.5,825.6406,49.5,829.6406,59.5,833.6406,55.5,829.6406" style="stroke:#000000;stroke-width:1.0;"/><line style="stroke:#000000;stroke-width:1.0;stroke-dasharray:2.0,2.0;" x1="53.5" x2="763.5" y1="829.6406" y2="829.6406"/><text fill="#000000" font-family="sans-serif" font-size="20" lengthAdjust="spacing" textLength="380" x="65.5" y="822.9238">Returns Operation In/Sucess message</text><!--SRC=[bLJRRfj047tdAqQEb2PIgwIfUhFYI34sSgH4GP3ole6nlVMoItSNMsdLV-_iOcCJqqhbWSjmpbpE730hBYkcMIbKli822fopMjX8IPlodmXNbq5WkHK8zxX60HyWXWbd2s84mP8N25XMzWLAB9zHc-2DsIM4UoxHlbG8Ijkb2eBzcrmmO-1N07ICMRvQQ5NB8bH2wUlhDHCrFZv_nzpUtC39vDFqDlhI3zLAUKmqcOudb_qOWthDS_IftaTNqt4VZ59Cew_Jp_xThTPgquJ7Wd31xyFUAugm1VPt3oVJSVGn6ZiAooq5OcOvIWlCG1nG1ijpNZ4A33AEcu6BPztuJ9KOgh9IadWUC0kxY0GNt5ZKNLJo5rJQ2E0nQHVoC4bycAw-Nxvc5gdF6DxTG3Q4MxCoO1NiKZdiDn9qZys2p65duH181OBGqbUZmONUCWPxA4qn2nqu8N3Ym9tSxJ1x1arKu24_QVbtqd8coA2c9u63DGCaQ6ij-p07YQbCvWdnTk8vxQrWbhdszElH3uXPArIAiZ2USuObu-8jL4kg0x9sNmKzaTytIXVxEyYLd7DTaZsKF3yIrCseP5e_bzoUdNSaOS82dmCJ0kOSHG5C8zq9GL_lwIcSjHL6er5RBknKSyvjj4o7xOJ_xhmXjNsa_Z5rASWyGtXWArh5xEaf9gr_r6XinpTEETXmksnq_QzIpfmkGDUsN4QxfqpOQ0vC5c0rRmoLQtGqkyHcOIst6NTdYSSAjPS3KijiRI1K1NhmmOPtjLFFziOzeYTeo5FcY9ksClTxaJnyaTOvqf-mf1FzKm8KspJ7h7Wh3asiG2eBjCjysJ9VrIQRa2FtjZxk-hXunzX_0000]--></g></svg>