<?xml version="1.0" encoding="UTF-8" standalone="no"?><svg xmlns="http://www.w3.org/2000/svg" xmlns:xlink="http://www.w3.org/1999/xlink" contentStyleType="text/css" height="1193px" preserveAspectRatio="none" style="width:3627px;height:1193px;background:#FFFFFF;" version="1.1" viewBox="0 0 3627 1193" width="3627px" zoomAndPan="magnify"><defs/><g><text fill="#000000" font-family="sans-serif" font-size="14" font-weight="bold" lengthAdjust="spacing" textLength="165" x="1730.25" y="27.9951">Level 3 MDR Diagram</text><rect fill="#FFFFFF" height="932.0313" style="stroke:#181818;stroke-width:1.0;" width="10" x="859.5" y="164.8594"/><rect fill="#FFFFFF" height="841.4688" style="stroke:#181818;stroke-width:1.0;" width="10" x="1367.5" y="202.1406"/><rect fill="#FFFFFF" height="43.2813" style="stroke:#181818;stroke-width:1.0;" width="10" x="2421.5" y="682.0781"/><rect fill="#FFFFFF" height="124.8438" style="stroke:#181818;stroke-width:1.0;" width="10" x="2829.5" y="469.6719"/><rect fill="#FFFFFF" height="37.2813" style="stroke:#181818;stroke-width:1.0;" width="10" x="2989" y="239.4219"/><rect fill="#FFFFFF" height="104.5625" style="stroke:#181818;stroke-width:1.0;" width="10" x="2989" y="769.6406"/><rect fill="#FFFFFF" height="37.2813" style="stroke:#181818;stroke-width:1.0;" width="10" x="3177" y="354.5469"/><rect fill="#FFFFFF" height="43.2813" style="stroke:#181818;stroke-width:1.0;" width="10" x="3312" y="506.9531"/><rect fill="#FFFFFF" height="30" style="stroke:#181818;stroke-width:1.0;" width="10" x="3517.5" y="806.9219"/><rect fill="#EBF5FB" height="759.9063" style="stroke:#000000;stroke-width:1.5;" width="2831" x="765.5" y="291.7031"/><rect fill="#EBF5FB" height="575.2188" style="stroke:#000000;stroke-width:1.5;" width="2811" x="775.5" y="406.8281"/><rect fill="#EBF5FB" height="62.5625" style="stroke:none;stroke-width:1.0;" width="2811" x="775.5" y="919.4844"/><rect fill="#EBF5FB" height="62.5625" style="stroke:none;stroke-width:1.0;" width="2831" x="765.5" y="989.0469"/><line style="stroke:#181818;stroke-width:0.5;stroke-dasharray:5.0,5.0;" x1="20" x2="20" y1="125.5781" y2="1105.8906"/><line style="stroke:#181818;stroke-width:0.5;stroke-dasharray:5.0,5.0;" x1="864.5" x2="864.5" y1="125.5781" y2="1105.8906"/><line style="stroke:#181818;stroke-width:0.5;stroke-dasharray:5.0,5.0;" x1="1372.5" x2="1372.5" y1="125.5781" y2="1105.8906"/><line style="stroke:#181818;stroke-width:0.5;stroke-dasharray:5.0,5.0;" x1="2426.5" x2="2426.5" y1="125.5781" y2="1105.8906"/><line style="stroke:#181818;stroke-width:0.5;stroke-dasharray:5.0,5.0;" x1="2834.5" x2="2834.5" y1="125.5781" y2="1105.8906"/><line style="stroke:#181818;stroke-width:0.5;stroke-dasharray:5.0,5.0;" x1="2993.5" x2="2993.5" y1="125.5781" y2="1105.8906"/><line style="stroke:#181818;stroke-width:0.5;stroke-dasharray:5.0,5.0;" x1="3181.5" x2="3181.5" y1="125.5781" y2="1105.8906"/><line style="stroke:#181818;stroke-width:0.5;stroke-dasharray:5.0,5.0;" x1="3316.5" x2="3316.5" y1="125.5781" y2="1105.8906"/><line style="stroke:#181818;stroke-width:0.5;stroke-dasharray:5.0,5.0;" x1="3407.5" x2="3407.5" y1="125.5781" y2="1105.8906"/><line style="stroke:#181818;stroke-width:0.5;stroke-dasharray:5.0,5.0;" x1="3522.5" x2="3522.5" y1="125.5781" y2="1105.8906"/><line style="stroke:#181818;stroke-width:0.5;stroke-dasharray:5.0,5.0;" x1="3603.5" x2="3603.5" y1="125.5781" y2="1105.8906"/><text fill="#000000" font-family="sans-serif" font-size="20" lengthAdjust="spacing" textLength="25" x="5" y="120.8613">FE</text><ellipse cx="20.5" cy="50.7969" fill="#E2E2F0" rx="8" ry="8" style="stroke:#181818;stroke-width:0.5;"/><path d="M20.5,58.7969 L20.5,85.7969 M7.5,66.7969 L33.5,66.7969 M20.5,85.7969 L7.5,100.7969 M20.5,85.7969 L33.5,100.7969 " fill="none" style="stroke:#181818;stroke-width:0.5;"/><text fill="#000000" font-family="sans-serif" font-size="20" lengthAdjust="spacing" textLength="25" x="5" y="1123.4551">FE</text><ellipse cx="20.5" cy="1136.6719" fill="#E2E2F0" rx="8" ry="8" style="stroke:#181818;stroke-width:0.5;"/><path d="M20.5,1144.6719 L20.5,1171.6719 M7.5,1152.6719 L33.5,1152.6719 M20.5,1171.6719 L7.5,1186.6719 M20.5,1171.6719 L33.5,1186.6719 " fill="none" style="stroke:#181818;stroke-width:0.5;"/><rect fill="#E2E2F0" height="37.2813" rx="2.5" ry="2.5" style="stroke:#181818;stroke-width:0.5;" width="158" x="785.5" y="87.2969"/><text fill="#000000" font-family="sans-serif" font-size="20" lengthAdjust="spacing" textLength="144" x="792.5" y="112.8613">UserController</text><rect fill="#E2E2F0" height="37.2813" rx="2.5" ry="2.5" style="stroke:#181818;stroke-width:0.5;" width="158" x="785.5" y="1104.8906"/><text fill="#000000" font-family="sans-serif" font-size="20" lengthAdjust="spacing" textLength="144" x="792.5" y="1130.4551">UserController</text><rect fill="#E2E2F0" height="37.2813" rx="2.5" ry="2.5" style="stroke:#181818;stroke-width:0.5;" width="132" x="1306.5" y="87.2969"/><text fill="#000000" font-family="sans-serif" font-size="20" lengthAdjust="spacing" textLength="118" x="1313.5" y="112.8613">UserService</text><rect fill="#E2E2F0" height="37.2813" rx="2.5" ry="2.5" style="stroke:#181818;stroke-width:0.5;" width="132" x="1306.5" y="1104.8906"/><text fill="#000000" font-family="sans-serif" font-size="20" lengthAdjust="spacing" textLength="118" x="1313.5" y="1130.4551">UserService</text><rect fill="#E2E2F0" height="37.2813" rx="2.5" ry="2.5" style="stroke:#181818;stroke-width:0.5;" width="144" x="2354.5" y="87.2969"/><text fill="#000000" font-family="sans-serif" font-size="20" lengthAdjust="spacing" textLength="130" x="2361.5" y="112.8613">EmailService</text><rect fill="#E2E2F0" height="37.2813" rx="2.5" ry="2.5" style="stroke:#181818;stroke-width:0.5;" width="144" x="2354.5" y="1104.8906"/><text fill="#000000" font-family="sans-serif" font-size="20" lengthAdjust="spacing" textLength="130" x="2361.5" y="1130.4551">EmailService</text><rect fill="#E2E2F0" height="37.2813" rx="2.5" ry="2.5" style="stroke:#181818;stroke-width:0.5;" width="134" x="2767.5" y="87.2969"/><text fill="#000000" font-family="sans-serif" font-size="20" lengthAdjust="spacing" textLength="120" x="2774.5" y="112.8613">UserMapper</text><rect fill="#E2E2F0" height="37.2813" rx="2.5" ry="2.5" style="stroke:#181818;stroke-width:0.5;" width="134" x="2767.5" y="1104.8906"/><text fill="#000000" font-family="sans-serif" font-size="20" lengthAdjust="spacing" textLength="120" x="2774.5" y="1130.4551">UserMapper</text><rect fill="#E2E2F0" height="37.2813" rx="2.5" ry="2.5" style="stroke:#181818;stroke-width:0.5;" width="165" x="2911.5" y="87.2969"/><text fill="#000000" font-family="sans-serif" font-size="20" lengthAdjust="spacing" textLength="151" x="2918.5" y="112.8613">UserRepository</text><rect fill="#E2E2F0" height="37.2813" rx="2.5" ry="2.5" style="stroke:#181818;stroke-width:0.5;" width="165" x="2911.5" y="1104.8906"/><text fill="#000000" font-family="sans-serif" font-size="20" lengthAdjust="spacing" textLength="151" x="2918.5" y="1130.4551">UserRepository</text><rect fill="#E2E2F0" height="37.2813" rx="2.5" ry="2.5" style="stroke:#181818;stroke-width:0.5;" width="191" x="3086.5" y="87.2969"/><text fill="#000000" font-family="sans-serif" font-size="20" lengthAdjust="spacing" textLength="177" x="3093.5" y="112.8613">PatientRepository</text><rect fill="#E2E2F0" height="37.2813" rx="2.5" ry="2.5" style="stroke:#181818;stroke-width:0.5;" width="191" x="3086.5" y="1104.8906"/><text fill="#000000" font-family="sans-serif" font-size="20" lengthAdjust="spacing" textLength="177" x="3093.5" y="1130.4551">PatientRepository</text><rect fill="#E2E2F0" height="37.2813" rx="2.5" ry="2.5" style="stroke:#181818;stroke-width:0.5;" width="59" x="3287.5" y="87.2969"/><text fill="#000000" font-family="sans-serif" font-size="20" lengthAdjust="spacing" textLength="45" x="3294.5" y="112.8613">User</text><rect fill="#E2E2F0" height="37.2813" rx="2.5" ry="2.5" style="stroke:#181818;stroke-width:0.5;" width="59" x="3287.5" y="1104.8906"/><text fill="#000000" font-family="sans-serif" font-size="20" lengthAdjust="spacing" textLength="45" x="3294.5" y="1130.4551">User</text><rect fill="#E2E2F0" height="37.2813" rx="2.5" ry="2.5" style="stroke:#181818;stroke-width:0.5;" width="102" x="3356.5" y="87.2969"/><text fill="#000000" font-family="sans-serif" font-size="20" lengthAdjust="spacing" textLength="88" x="3363.5" y="112.8613">UserDTO</text><rect fill="#E2E2F0" height="37.2813" rx="2.5" ry="2.5" style="stroke:#181818;stroke-width:0.5;" width="102" x="3356.5" y="1104.8906"/><text fill="#000000" font-family="sans-serif" font-size="20" lengthAdjust="spacing" textLength="88" x="3363.5" y="1130.4551">UserDTO</text><rect fill="#E2E2F0" height="37.2813" rx="2.5" ry="2.5" style="stroke:#181818;stroke-width:0.5;" width="108" x="3468.5" y="87.2969"/><text fill="#000000" font-family="sans-serif" font-size="20" lengthAdjust="spacing" textLength="94" x="3475.5" y="112.8613">Database</text><rect fill="#E2E2F0" height="37.2813" rx="2.5" ry="2.5" style="stroke:#181818;stroke-width:0.5;" width="108" x="3468.5" y="1104.8906"/><text fill="#000000" font-family="sans-serif" font-size="20" lengthAdjust="spacing" textLength="94" x="3475.5" y="1130.4551">Database</text><rect fill="#E2E2F0" height="37.2813" rx="2.5" ry="2.5" style="stroke:#181818;stroke-width:0.5;" width="35" x="3586.5" y="87.2969"/><text fill="#000000" font-family="sans-serif" font-size="20" lengthAdjust="spacing" textLength="21" x="3593.5" y="112.8613">UI</text><rect fill="#E2E2F0" height="37.2813" rx="2.5" ry="2.5" style="stroke:#181818;stroke-width:0.5;" width="35" x="3586.5" y="1104.8906"/><text fill="#000000" font-family="sans-serif" font-size="20" lengthAdjust="spacing" textLength="21" x="3593.5" y="1130.4551">UI</text><rect fill="#FFFFFF" height="932.0313" style="stroke:#181818;stroke-width:1.0;" width="10" x="859.5" y="164.8594"/><rect fill="#FFFFFF" height="841.4688" style="stroke:#181818;stroke-width:1.0;" width="10" x="1367.5" y="202.1406"/><rect fill="#FFFFFF" height="43.2813" style="stroke:#181818;stroke-width:1.0;" width="10" x="2421.5" y="682.0781"/><rect fill="#FFFFFF" height="124.8438" style="stroke:#181818;stroke-width:1.0;" width="10" x="2829.5" y="469.6719"/><rect fill="#FFFFFF" height="37.2813" style="stroke:#181818;stroke-width:1.0;" width="10" x="2989" y="239.4219"/><rect fill="#FFFFFF" height="104.5625" style="stroke:#181818;stroke-width:1.0;" width="10" x="2989" y="769.6406"/><rect fill="#FFFFFF" height="37.2813" style="stroke:#181818;stroke-width:1.0;" width="10" x="3177" y="354.5469"/><rect fill="#FFFFFF" height="43.2813" style="stroke:#181818;stroke-width:1.0;" width="10" x="3312" y="506.9531"/><rect fill="#FFFFFF" height="30" style="stroke:#181818;stroke-width:1.0;" width="10" x="3517.5" y="806.9219"/><polygon fill="#000000" points="847.5,160.8594,857.5,164.8594,847.5,168.8594,851.5,164.8594" style="stroke:#000000;stroke-width:1.0;"/><line style="stroke:#000000;stroke-width:1.0;" x1="20.5" x2="853.5" y1="164.8594" y2="164.8594"/><text fill="#000000" font-family="sans-serif" font-size="20" lengthAdjust="spacing" textLength="820" x="27.5" y="158.1426">Makes HTTP Request to Register User with data (email, phone number, password)</text><polygon fill="#000000" points="1355.5,198.1406,1365.5,202.1406,1355.5,206.1406,1359.5,202.1406" style="stroke:#000000;stroke-width:1.0;"/><line style="stroke:#000000;stroke-width:1.0;" x1="869.5" x2="1361.5" y1="202.1406" y2="202.1406"/><text fill="#000000" font-family="sans-serif" font-size="20" lengthAdjust="spacing" textLength="479" x="876.5" y="195.4238">createPatientUser(CreatingPatientUserDTO dto)</text><polygon fill="#000000" points="2977,235.4219,2987,239.4219,2977,243.4219,2981,239.4219" style="stroke:#000000;stroke-width:1.0;"/><line style="stroke:#000000;stroke-width:1.0;" x1="1377.5" x2="2983" y1="239.4219" y2="239.4219"/><text fill="#000000" font-family="sans-serif" font-size="20" lengthAdjust="spacing" textLength="347" x="1384.5" y="232.7051">getUserByEmailAsync(dto.Email())</text><polygon fill="#000000" points="1388.5,272.7031,1378.5,276.7031,1388.5,280.7031,1384.5,276.7031" style="stroke:#000000;stroke-width:1.0;"/><line style="stroke:#000000;stroke-width:1.0;stroke-dasharray:2.0,2.0;" x1="1382.5" x2="2993" y1="276.7031" y2="276.7031"/><text fill="#000000" font-family="sans-serif" font-size="20" lengthAdjust="spacing" textLength="115" x="1394.5" y="269.9863">Returns var</text><path d="M765.5,291.7031 L841.5,291.7031 L841.5,306.9844 L831.5,316.9844 L765.5,316.9844 L765.5,291.7031 " fill="#EEEEEE" style="stroke:#000000;stroke-width:1.5;"/><rect fill="none" height="759.9063" style="stroke:#000000;stroke-width:1.5;" width="2831" x="765.5" y="291.7031"/><text fill="#000000" font-family="sans-serif" font-size="20" font-weight="bold" lengthAdjust="spacing" textLength="31" x="780.5" y="311.2676">alt</text><text fill="#000000" font-family="sans-serif" font-size="20" font-weight="bold" lengthAdjust="spacing" textLength="130" x="856.5" y="312.2676">[var is null]</text><polygon fill="#000000" points="3165,350.5469,3175,354.5469,3165,358.5469,3169,354.5469" style="stroke:#000000;stroke-width:1.0;"/><line style="stroke:#000000;stroke-width:1.0;" x1="1377.5" x2="3171" y1="354.5469" y2="354.5469"/><text fill="#000000" font-family="sans-serif" font-size="20" lengthAdjust="spacing" textLength="347" x="1384.5" y="347.8301">getUserByEmailAsync(dto.Email())</text><polygon fill="#000000" points="1388.5,387.8281,1378.5,391.8281,1388.5,395.8281,1384.5,391.8281" style="stroke:#000000;stroke-width:1.0;"/><line style="stroke:#000000;stroke-width:1.0;stroke-dasharray:2.0,2.0;" x1="1382.5" x2="3181" y1="391.8281" y2="391.8281"/><text fill="#000000" font-family="sans-serif" font-size="20" lengthAdjust="spacing" textLength="115" x="1394.5" y="385.1113">Returns var</text><path d="M775.5,406.8281 L851.5,406.8281 L851.5,422.1094 L841.5,432.1094 L775.5,432.1094 L775.5,406.8281 " fill="#EEEEEE" style="stroke:#000000;stroke-width:1.5;"/><rect fill="none" height="575.2188" style="stroke:#000000;stroke-width:1.5;" width="2811" x="775.5" y="406.8281"/><text fill="#000000" font-family="sans-serif" font-size="20" font-weight="bold" lengthAdjust="spacing" textLength="31" x="790.5" y="426.3926">alt</text><text fill="#000000" font-family="sans-serif" font-size="20" font-weight="bold" lengthAdjust="spacing" textLength="763" x="866.5" y="427.3926">[Phone number matches the Patient's profile with the given email]</text><polygon fill="#000000" points="2817.5,465.6719,2827.5,469.6719,2817.5,473.6719,2821.5,469.6719" style="stroke:#000000;stroke-width:1.0;"/><line style="stroke:#000000;stroke-width:1.0;" x1="1377.5" x2="2823.5" y1="469.6719" y2="469.6719"/><text fill="#000000" font-family="sans-serif" font-size="20" lengthAdjust="spacing" textLength="275" x="1384.5" y="462.9551">ToCreatingPatientUser(dto)</text><polygon fill="#000000" points="3300,502.9531,3310,506.9531,3300,510.9531,3304,506.9531" style="stroke:#000000;stroke-width:1.0;"/><line style="stroke:#000000;stroke-width:1.0;" x1="2839.5" x2="3306" y1="506.9531" y2="506.9531"/><text fill="#000000" font-family="sans-serif" font-size="20" lengthAdjust="spacing" textLength="202" x="2846.5" y="500.2363">new User(dto fields)</text><line style="stroke:#000000;stroke-width:1.0;" x1="3322" x2="3364" y1="549.2344" y2="549.2344"/><line style="stroke:#000000;stroke-width:1.0;" x1="3364" x2="3364" y1="549.2344" y2="562.2344"/><line style="stroke:#000000;stroke-width:1.0;" x1="3317" x2="3364" y1="562.2344" y2="562.2344"/><polygon fill="#000000" points="3327,558.2344,3317,562.2344,3327,566.2344,3323,562.2344" style="stroke:#000000;stroke-width:1.0;"/><text fill="#000000" font-family="sans-serif" font-size="20" lengthAdjust="spacing" textLength="61" x="3329" y="542.5176">User()</text><polygon fill="#000000" points="1388.5,590.5156,1378.5,594.5156,1388.5,598.5156,1384.5,594.5156" style="stroke:#000000;stroke-width:1.0;"/><line style="stroke:#000000;stroke-width:1.0;stroke-dasharray:2.0,2.0;" x1="1382.5" x2="2833.5" y1="594.5156" y2="594.5156"/><text fill="#000000" font-family="sans-serif" font-size="20" lengthAdjust="spacing" textLength="113" x="1394.5" y="587.7988">return User</text><line style="stroke:#000000;stroke-width:1.0;" x1="1377.5" x2="1419.5" y1="631.7969" y2="631.7969"/><line style="stroke:#000000;stroke-width:1.0;" x1="1419.5" x2="1419.5" y1="631.7969" y2="644.7969"/><line style="stroke:#000000;stroke-width:1.0;" x1="1378.5" x2="1419.5" y1="644.7969" y2="644.7969"/><polygon fill="#000000" points="1388.5,640.7969,1378.5,644.7969,1388.5,648.7969,1384.5,644.7969" style="stroke:#000000;stroke-width:1.0;"/><text fill="#000000" font-family="sans-serif" font-size="20" lengthAdjust="spacing" textLength="213" x="1384.5" y="625.0801">GenerateToken(user)</text><polygon fill="#000000" points="2409.5,678.0781,2419.5,682.0781,2409.5,686.0781,2413.5,682.0781" style="stroke:#000000;stroke-width:1.0;"/><line style="stroke:#000000;stroke-width:1.0;" x1="1377.5" x2="2415.5" y1="682.0781" y2="682.0781"/><text fill="#000000" font-family="sans-serif" font-size="20" lengthAdjust="spacing" textLength="1025" x="1384.5" y="675.3613">sendEmail(SendEmail(dto.Email, "Activate your account", GenerateLink(token, "ActivatePatientUser")</text><line style="stroke:#000000;stroke-width:1.0;stroke-dasharray:2.0,2.0;" x1="2431.5" x2="2473.5" y1="724.3594" y2="724.3594"/><line style="stroke:#000000;stroke-width:1.0;stroke-dasharray:2.0,2.0;" x1="2473.5" x2="2473.5" y1="724.3594" y2="737.3594"/><line style="stroke:#000000;stroke-width:1.0;stroke-dasharray:2.0,2.0;" x1="2426.5" x2="2473.5" y1="737.3594" y2="737.3594"/><polygon fill="#000000" points="2436.5,733.3594,2426.5,737.3594,2436.5,741.3594,2432.5,737.3594" style="stroke:#000000;stroke-width:1.0;"/><text fill="#000000" font-family="sans-serif" font-size="20" lengthAdjust="spacing" textLength="384" x="2438.5" y="717.6426">Sends email using SMTP configuration</text><polygon fill="#000000" points="2977,765.6406,2987,769.6406,2977,773.6406,2981,769.6406" style="stroke:#000000;stroke-width:1.0;"/><line style="stroke:#000000;stroke-width:1.0;" x1="1377.5" x2="2983" y1="769.6406" y2="769.6406"/><text fill="#000000" font-family="sans-serif" font-size="20" lengthAdjust="spacing" textLength="156" x="1384.5" y="762.9238">addAsync(user)</text><polygon fill="#000000" points="3505.5,802.9219,3515.5,806.9219,3505.5,810.9219,3509.5,806.9219" style="stroke:#000000;stroke-width:1.0;"/><line style="stroke:#000000;stroke-width:1.0;" x1="2999" x2="3511.5" y1="806.9219" y2="806.9219"/><text fill="#000000" font-family="sans-serif" font-size="20" lengthAdjust="spacing" textLength="215" x="3006" y="800.2051">_objs.AddAsync(user)</text><polygon fill="#000000" points="1388.5,870.2031,1378.5,874.2031,1388.5,878.2031,1384.5,874.2031" style="stroke:#000000;stroke-width:1.0;"/><line style="stroke:#000000;stroke-width:1.0;stroke-dasharray:2.0,2.0;" x1="1382.5" x2="2993" y1="874.2031" y2="874.2031"/><text fill="#000000" font-family="sans-serif" font-size="20" lengthAdjust="spacing" textLength="113" x="1394.5" y="867.4863">return User</text><polygon fill="#000000" points="880.5,907.4844,870.5,911.4844,880.5,915.4844,876.5,911.4844" style="stroke:#000000;stroke-width:1.0;"/><line style="stroke:#000000;stroke-width:1.0;stroke-dasharray:2.0,2.0;" x1="874.5" x2="1366.5" y1="911.4844" y2="911.4844"/><text fill="#000000" font-family="sans-serif" font-size="20" lengthAdjust="spacing" textLength="125" x="886.5" y="904.7676">return token</text><line style="stroke:#000000;stroke-width:1.0;stroke-dasharray:2.0,2.0;" x1="775.5" x2="3586.5" y1="920.4844" y2="920.4844"/><text fill="#000000" font-family="sans-serif" font-size="20" font-weight="bold" lengthAdjust="spacing" textLength="843" x="780.5" y="939.0488">[Phone number does not match the Patient's profile with the given email]</text><polygon fill="#000000" points="880.5,970.0469,870.5,974.0469,880.5,978.0469,876.5,974.0469" style="stroke:#000000;stroke-width:1.0;"/><line style="stroke:#000000;stroke-width:1.0;" x1="874.5" x2="1366.5" y1="974.0469" y2="974.0469"/><text fill="#000000" font-family="sans-serif" font-size="20" lengthAdjust="spacing" textLength="261" x="886.5" y="967.3301">return exception message</text><line style="stroke:#000000;stroke-width:1.0;stroke-dasharray:2.0,2.0;" x1="765.5" x2="3596.5" y1="990.0469" y2="990.0469"/><text fill="#000000" font-family="sans-serif" font-size="20" font-weight="bold" lengthAdjust="spacing" textLength="175" x="770.5" y="1008.6113">[var is not null]</text><polygon fill="#000000" points="880.5,1039.6094,870.5,1043.6094,880.5,1047.6094,876.5,1043.6094" style="stroke:#000000;stroke-width:1.0;"/><line style="stroke:#000000;stroke-width:1.0;" x1="874.5" x2="1371.5" y1="1043.6094" y2="1043.6094"/><text fill="#000000" font-family="sans-serif" font-size="20" lengthAdjust="spacing" textLength="261" x="886.5" y="1036.8926">return exception message</text><polygon fill="#000000" points="31.5,1083.8906,21.5,1087.8906,31.5,1091.8906,27.5,1087.8906" style="stroke:#000000;stroke-width:1.0;"/><line style="stroke:#000000;stroke-width:1.0;stroke-dasharray:2.0,2.0;" x1="25.5" x2="858.5" y1="1087.8906" y2="1087.8906"/><text fill="#000000" font-family="sans-serif" font-size="20" lengthAdjust="spacing" textLength="311" x="37.5" y="1081.1738">Returns Operation Status Code</text><!--SRC=[dLLTRzem57tthxYY3wLIMtMRzeMcIeGaswH6HGayJsvo2nx1pco7ZatxxxjsW9eHQTDu07BlEUT-sZ4h8Hkk-RfMvGehgF2HjxLDbRI5-87myeOnAsoDS8SRhE4LP74EiU0BuZ2s51K2hXkxXJMk7r0RTcxsad0d9DfjWw2qNIh6dZrbpOs1dmpe4_5ojT2gbTL4rKf_-B3XTOlt3r-njBUtS1Q_ISRfktweLifZqZY9ufj-Z46z4ILwgHVfooJgWv54ahvFtdhVM6lrr9cZcd3iLvXxGnQ-mFxiuIo9qjTfv2Yyj6H84-26lXcnhIX5mwM5mPoocb2JjQfhr0C7cPmYYYvrxowEtScQYphq9yKfF-DDirFFJhqvDie8od7h4VanOigjG6d_04tpKntlc9_QuzczTz7liJFcbZzmq-KTHunHZwvkOJA2ZA_GmAVPR0evVclHMB2A_Yw4iQZ1gSAJi4keI0A6w9fm2SrIIGJPkWMa9rgj9wMh2pS0iU4MgRKJ5w0OGQcH3BlQdDnmuYn2BW8R9GoLLO50mGeda8zWWHuIRVq0ncOhoo5Xh_tZy2BWv2o7govgZhRLqi26QrPXWE2rTKOGXjAlQxzHFjBqNq8vz46C9kEUfxr1dIS8lCEwwDEWTx3cjbpI0EoIC5q_pWqqMZqAkW5yuvrh8JOemJVVwnoopaOmKpqD7Vfkxg67DBA3ANFi-GWaFi6U08y2wyhqyEO7qtp7yvndP53gF8pHDKRxndXE7oCxhea87r6Y9jTChL0EM-9T76CI0XcKLJUPul3lCArB68pt-blLQggbf3l33YuFudHPheRMHGZ0GGy7FOsWCx-t9OKlpsNYufjkFD0QcWGK6HseKib7iMWfbb2oh_10RR_jlAgwlJikEjZWlIbtZ3WQmHVryDLSZ_z2ZAE-309h_e_JoiESkqjan_2zz5wi3HulUgLeowMotSR_zxu_1yFl9JQkiVGUD8PU3rrWMJ4VV7_6AUBnEV-RGb1fmPpSn5UP9i_d-xx1RgPGM6vRUf6e2iDhPlwP_GO0]--></g></svg>