<?xml version="1.0" encoding="UTF-8" standalone="no"?><svg xmlns="http://www.w3.org/2000/svg" xmlns:xlink="http://www.w3.org/1999/xlink" contentStyleType="text/css" height="935px" preserveAspectRatio="none" style="width:3090px;height:935px;background:#FFFFFF;" version="1.1" viewBox="0 0 3090 935" width="3090px" zoomAndPan="magnify"><defs/><g><text fill="#000000" font-family="sans-serif" font-size="14" font-weight="bold" lengthAdjust="spacing" textLength="141" x="1475.75" y="27.9951">Level 3 P Diagram</text><rect fill="#FFFFFF" height="229.4063" style="stroke:#181818;stroke-width:1.0;" width="10" x="754.5" y="164.8594"/><rect fill="#FFFFFF" height="398.0938" style="stroke:#181818;stroke-width:1.0;" width="10" x="754.5" y="431.5469"/><rect fill="#FFFFFF" height="67.2813" style="stroke:#181818;stroke-width:1.0;" width="10" x="1007.5" y="202.1406"/><rect fill="#FFFFFF" height="117.5625" style="stroke:#181818;stroke-width:1.0;" width="10" x="1337.5" y="239.4219"/><rect fill="#FFFFFF" height="316.5313" style="stroke:#181818;stroke-width:1.0;" width="10" x="1337.5" y="468.8281"/><rect fill="#FFFFFF" height="162.125" style="stroke:#181818;stroke-width:1.0;" width="10" x="1782.5" y="546.6719"/><rect fill="#FFFFFF" height="87.5625" style="stroke:#181818;stroke-width:1.0;" width="10" x="2631.5" y="583.9531"/><rect fill="#EBF5FB" height="309.5313" style="stroke:#000000;stroke-width:1.5;" width="2365.5" x="718" y="483.8281"/><rect fill="#EBF5FB" height="39.2813" style="stroke:none;stroke-width:1.0;" width="2365.5" x="718" y="754.0781"/><line style="stroke:#181818;stroke-width:0.5;stroke-dasharray:5.0,5.0;" x1="43" x2="43" y1="125.5781" y2="847.6406"/><line style="stroke:#181818;stroke-width:0.5;stroke-dasharray:5.0,5.0;" x1="759" x2="759" y1="125.5781" y2="847.6406"/><line style="stroke:#181818;stroke-width:0.5;stroke-dasharray:5.0,5.0;" x1="1012.5" x2="1012.5" y1="125.5781" y2="847.6406"/><line style="stroke:#181818;stroke-width:0.5;stroke-dasharray:5.0,5.0;" x1="1342.5" x2="1342.5" y1="125.5781" y2="847.6406"/><line style="stroke:#181818;stroke-width:0.5;stroke-dasharray:5.0,5.0;" x1="1787.5" x2="1787.5" y1="125.5781" y2="847.6406"/><line style="stroke:#181818;stroke-width:0.5;stroke-dasharray:5.0,5.0;" x1="2636.5" x2="2636.5" y1="125.5781" y2="847.6406"/><text fill="#000000" font-family="sans-serif" font-size="20" lengthAdjust="spacing" textLength="71" x="5" y="120.8613">Patient</text><ellipse cx="43.5" cy="50.7969" fill="#E2E2F0" rx="8" ry="8" style="stroke:#181818;stroke-width:0.5;"/><path d="M43.5,58.7969 L43.5,85.7969 M30.5,66.7969 L56.5,66.7969 M43.5,85.7969 L30.5,100.7969 M43.5,85.7969 L56.5,100.7969 " fill="none" style="stroke:#181818;stroke-width:0.5;"/><text fill="#000000" font-family="sans-serif" font-size="20" lengthAdjust="spacing" textLength="71" x="5" y="865.2051">Patient</text><ellipse cx="43.5" cy="878.4219" fill="#E2E2F0" rx="8" ry="8" style="stroke:#181818;stroke-width:0.5;"/><path d="M43.5,886.4219 L43.5,913.4219 M30.5,894.4219 L56.5,894.4219 M43.5,913.4219 L30.5,928.4219 M43.5,913.4219 L56.5,928.4219 " fill="none" style="stroke:#181818;stroke-width:0.5;"/><rect fill="#E2E2F0" height="37.2813" rx="2.5" ry="2.5" style="stroke:#181818;stroke-width:0.5;" width="63" x="728" y="87.2969"/><text fill="#000000" font-family="sans-serif" font-size="20" lengthAdjust="spacing" textLength="49" x="735" y="112.8613">View</text><rect fill="#E2E2F0" height="37.2813" rx="2.5" ry="2.5" style="stroke:#181818;stroke-width:0.5;" width="63" x="728" y="846.6406"/><text fill="#000000" font-family="sans-serif" font-size="20" lengthAdjust="spacing" textLength="49" x="735" y="872.2051">View</text><rect fill="#E2E2F0" height="37.2813" rx="2.5" ry="2.5" style="stroke:#181818;stroke-width:0.5;" width="190" x="917.5" y="87.2969"/><text fill="#000000" font-family="sans-serif" font-size="20" lengthAdjust="spacing" textLength="176" x="924.5" y="112.8613">HomeComponent</text><rect fill="#E2E2F0" height="37.2813" rx="2.5" ry="2.5" style="stroke:#181818;stroke-width:0.5;" width="190" x="917.5" y="846.6406"/><text fill="#000000" font-family="sans-serif" font-size="20" lengthAdjust="spacing" textLength="176" x="924.5" y="872.2051">HomeComponent</text><rect fill="#E2E2F0" height="37.2813" rx="2.5" ry="2.5" style="stroke:#181818;stroke-width:0.5;" width="214" x="1235.5" y="87.2969"/><text fill="#000000" font-family="sans-serif" font-size="20" lengthAdjust="spacing" textLength="200" x="1242.5" y="112.8613">RegisterComponent</text><rect fill="#E2E2F0" height="37.2813" rx="2.5" ry="2.5" style="stroke:#181818;stroke-width:0.5;" width="214" x="1235.5" y="846.6406"/><text fill="#000000" font-family="sans-serif" font-size="20" lengthAdjust="spacing" textLength="200" x="1242.5" y="872.2051">RegisterComponent</text><rect fill="#E2E2F0" height="37.2813" rx="2.5" ry="2.5" style="stroke:#181818;stroke-width:0.5;" width="170" x="1702.5" y="87.2969"/><text fill="#000000" font-family="sans-serif" font-size="20" lengthAdjust="spacing" textLength="156" x="1709.5" y="112.8613">RegisterService</text><rect fill="#E2E2F0" height="37.2813" rx="2.5" ry="2.5" style="stroke:#181818;stroke-width:0.5;" width="170" x="1702.5" y="846.6406"/><text fill="#000000" font-family="sans-serif" font-size="20" lengthAdjust="spacing" textLength="156" x="1709.5" y="872.2051">RegisterService</text><rect fill="#E2E2F0" height="37.2813" rx="2.5" ry="2.5" style="stroke:#181818;stroke-width:0.5;" width="60" x="2606.5" y="87.2969"/><text fill="#000000" font-family="sans-serif" font-size="20" lengthAdjust="spacing" textLength="46" x="2613.5" y="112.8613">MDR</text><rect fill="#E2E2F0" height="37.2813" rx="2.5" ry="2.5" style="stroke:#181818;stroke-width:0.5;" width="60" x="2606.5" y="846.6406"/><text fill="#000000" font-family="sans-serif" font-size="20" lengthAdjust="spacing" textLength="46" x="2613.5" y="872.2051">MDR</text><rect fill="#FFFFFF" height="229.4063" style="stroke:#181818;stroke-width:1.0;" width="10" x="754.5" y="164.8594"/><rect fill="#FFFFFF" height="398.0938" style="stroke:#181818;stroke-width:1.0;" width="10" x="754.5" y="431.5469"/><rect fill="#FFFFFF" height="67.2813" style="stroke:#181818;stroke-width:1.0;" width="10" x="1007.5" y="202.1406"/><rect fill="#FFFFFF" height="117.5625" style="stroke:#181818;stroke-width:1.0;" width="10" x="1337.5" y="239.4219"/><rect fill="#FFFFFF" height="316.5313" style="stroke:#181818;stroke-width:1.0;" width="10" x="1337.5" y="468.8281"/><rect fill="#FFFFFF" height="162.125" style="stroke:#181818;stroke-width:1.0;" width="10" x="1782.5" y="546.6719"/><rect fill="#FFFFFF" height="87.5625" style="stroke:#181818;stroke-width:1.0;" width="10" x="2631.5" y="583.9531"/><polygon fill="#000000" points="742.5,160.8594,752.5,164.8594,742.5,168.8594,746.5,164.8594" style="stroke:#000000;stroke-width:1.0;"/><line style="stroke:#000000;stroke-width:1.0;" x1="43.5" x2="748.5" y1="164.8594" y2="164.8594"/><text fill="#000000" font-family="sans-serif" font-size="20" lengthAdjust="spacing" textLength="240" x="50.5" y="158.1426">Asks to Register as User</text><polygon fill="#000000" points="995.5,198.1406,1005.5,202.1406,995.5,206.1406,999.5,202.1406" style="stroke:#000000;stroke-width:1.0;"/><line style="stroke:#000000;stroke-width:1.0;" x1="764.5" x2="1001.5" y1="202.1406" y2="202.1406"/><text fill="#000000" font-family="sans-serif" font-size="20" lengthAdjust="spacing" textLength="224" x="771.5" y="195.4238">routerLink="/register"</text><polygon fill="#000000" points="1325.5,235.4219,1335.5,239.4219,1325.5,243.4219,1329.5,239.4219" style="stroke:#000000;stroke-width:1.0;"/><line style="stroke:#000000;stroke-width:1.0;" x1="1017.5" x2="1331.5" y1="239.4219" y2="239.4219"/><text fill="#000000" font-family="sans-serif" font-size="20" lengthAdjust="spacing" textLength="301" x="1024.5" y="232.7051">Routes to RegisterComponent</text><line style="stroke:#000000;stroke-width:1.0;" x1="1347.5" x2="1389.5" y1="306.7031" y2="306.7031"/><line style="stroke:#000000;stroke-width:1.0;" x1="1389.5" x2="1389.5" y1="306.7031" y2="319.7031"/><line style="stroke:#000000;stroke-width:1.0;" x1="1348.5" x2="1389.5" y1="319.7031" y2="319.7031"/><polygon fill="#000000" points="1358.5,315.7031,1348.5,319.7031,1358.5,323.7031,1354.5,319.7031" style="stroke:#000000;stroke-width:1.0;"/><text fill="#000000" font-family="sans-serif" font-size="20" lengthAdjust="spacing" textLength="296" x="1354.5" y="299.9863">Intializes RegisterComponent</text><polygon fill="#000000" points="775.5,352.9844,765.5,356.9844,775.5,360.9844,771.5,356.9844" style="stroke:#000000;stroke-width:1.0;"/><line style="stroke:#000000;stroke-width:1.0;stroke-dasharray:2.0,2.0;" x1="769.5" x2="1341.5" y1="356.9844" y2="356.9844"/><text fill="#000000" font-family="sans-serif" font-size="20" lengthAdjust="spacing" textLength="284" x="781.5" y="350.2676">Returns RegisterComponent</text><polygon fill="#000000" points="54.5,390.2656,44.5,394.2656,54.5,398.2656,50.5,394.2656" style="stroke:#000000;stroke-width:1.0;"/><line style="stroke:#000000;stroke-width:1.0;stroke-dasharray:2.0,2.0;" x1="48.5" x2="758.5" y1="394.2656" y2="394.2656"/><text fill="#000000" font-family="sans-serif" font-size="20" lengthAdjust="spacing" textLength="318" x="60.5" y="387.5488">Asks for data to register as User</text><polygon fill="#000000" points="742.5,427.5469,752.5,431.5469,742.5,435.5469,746.5,431.5469" style="stroke:#000000;stroke-width:1.0;"/><line style="stroke:#000000;stroke-width:1.0;" x1="43.5" x2="748.5" y1="431.5469" y2="431.5469"/><text fill="#000000" font-family="sans-serif" font-size="20" lengthAdjust="spacing" textLength="692" x="50.5" y="424.8301">Sends data(email, phone number, password, password confirmation)</text><polygon fill="#000000" points="1325.5,464.8281,1335.5,468.8281,1325.5,472.8281,1329.5,468.8281" style="stroke:#000000;stroke-width:1.0;"/><line style="stroke:#000000;stroke-width:1.0;" x1="764.5" x2="1331.5" y1="468.8281" y2="468.8281"/><text fill="#000000" font-family="sans-serif" font-size="20" lengthAdjust="spacing" textLength="114" x="771.5" y="462.1113">onSubmit()</text><path d="M718,483.8281 L794,483.8281 L794,499.1094 L784,509.1094 L718,509.1094 L718,483.8281 " fill="#EEEEEE" style="stroke:#000000;stroke-width:1.5;"/><rect fill="none" height="309.5313" style="stroke:#000000;stroke-width:1.5;" width="2365.5" x="718" y="483.8281"/><text fill="#000000" font-family="sans-serif" font-size="20" font-weight="bold" lengthAdjust="spacing" textLength="31" x="733" y="503.3926">alt</text><text fill="#000000" font-family="sans-serif" font-size="20" font-weight="bold" lengthAdjust="spacing" textLength="733" x="809" y="504.3926">[if all field are filled &amp;&amp; (password === passwordConfirmation)]</text><polygon fill="#000000" points="1770.5,542.6719,1780.5,546.6719,1770.5,550.6719,1774.5,546.6719" style="stroke:#000000;stroke-width:1.0;"/><line style="stroke:#000000;stroke-width:1.0;" x1="1347.5" x2="1776.5" y1="546.6719" y2="546.6719"/><text fill="#000000" font-family="sans-serif" font-size="20" lengthAdjust="spacing" textLength="416" x="1354.5" y="539.9551">register(email, phone number, password)</text><polygon fill="#000000" points="2619.5,579.9531,2629.5,583.9531,2619.5,587.9531,2623.5,583.9531" style="stroke:#000000;stroke-width:1.0;"/><line style="stroke:#000000;stroke-width:1.0;" x1="1792.5" x2="2625.5" y1="583.9531" y2="583.9531"/><text fill="#000000" font-family="sans-serif" font-size="20" lengthAdjust="spacing" textLength="820" x="1799.5" y="577.2363">Makes HTTP Request to Register User with data (email, phone number, password)</text><line style="stroke:#000000;stroke-width:1.0;" x1="2641.5" x2="2683.5" y1="621.2344" y2="621.2344"/><line style="stroke:#000000;stroke-width:1.0;" x1="2683.5" x2="2683.5" y1="621.2344" y2="634.2344"/><line style="stroke:#000000;stroke-width:1.0;" x1="2642.5" x2="2683.5" y1="634.2344" y2="634.2344"/><polygon fill="#000000" points="2652.5,630.2344,2642.5,634.2344,2652.5,638.2344,2648.5,634.2344" style="stroke:#000000;stroke-width:1.0;"/><text fill="#000000" font-family="sans-serif" font-size="20" lengthAdjust="spacing" textLength="423" x="2648.5" y="614.5176">Validates data and tries to create the User</text><polygon fill="#000000" points="1803.5,667.5156,1793.5,671.5156,1803.5,675.5156,1799.5,671.5156" style="stroke:#000000;stroke-width:1.0;"/><line style="stroke:#000000;stroke-width:1.0;stroke-dasharray:2.0,2.0;" x1="1797.5" x2="2635.5" y1="671.5156" y2="671.5156"/><text fill="#000000" font-family="sans-serif" font-size="20" lengthAdjust="spacing" textLength="311" x="1809.5" y="664.7988">Returns Operation Status Code</text><polygon fill="#000000" points="1358.5,704.7969,1348.5,708.7969,1358.5,712.7969,1354.5,708.7969" style="stroke:#000000;stroke-width:1.0;"/><line style="stroke:#000000;stroke-width:1.0;stroke-dasharray:2.0,2.0;" x1="1352.5" x2="1786.5" y1="708.7969" y2="708.7969"/><text fill="#000000" font-family="sans-serif" font-size="20" lengthAdjust="spacing" textLength="286" x="1364.5" y="702.0801">Returns Operation Response</text><polygon fill="#000000" points="775.5,742.0781,765.5,746.0781,775.5,750.0781,771.5,746.0781" style="stroke:#000000;stroke-width:1.0;"/><line style="stroke:#000000;stroke-width:1.0;stroke-dasharray:2.0,2.0;" x1="769.5" x2="1336.5" y1="746.0781" y2="746.0781"/><text fill="#000000" font-family="sans-serif" font-size="20" lengthAdjust="spacing" textLength="363" x="781.5" y="739.3613">Returns Register In/Sucess message</text><line style="stroke:#000000;stroke-width:1.0;stroke-dasharray:2.0,2.0;" x1="718" x2="3083.5" y1="755.0781" y2="755.0781"/><polygon fill="#000000" points="775.5,781.3594,765.5,785.3594,775.5,789.3594,771.5,785.3594" style="stroke:#000000;stroke-width:1.0;"/><line style="stroke:#000000;stroke-width:1.0;stroke-dasharray:2.0,2.0;" x1="769.5" x2="1341.5" y1="785.3594" y2="785.3594"/><text fill="#000000" font-family="sans-serif" font-size="20" lengthAdjust="spacing" textLength="423" x="781.5" y="778.6426">Returns Passwords do not match message</text><polygon fill="#000000" points="54.5,825.6406,44.5,829.6406,54.5,833.6406,50.5,829.6406" style="stroke:#000000;stroke-width:1.0;"/><line style="stroke:#000000;stroke-width:1.0;stroke-dasharray:2.0,2.0;" x1="48.5" x2="758.5" y1="829.6406" y2="829.6406"/><text fill="#000000" font-family="sans-serif" font-size="20" lengthAdjust="spacing" textLength="380" x="60.5" y="822.9238">Returns Operation In/Sucess message</text><!--SRC=[bLJRRfj047tVhnWvKff8hPAcwisA8yNOo94I1K7A-mR6zjRBBjrTRALL_xspO6CJqqhbWSjmpbpE7B0heKfkU25rji8SSfppIhfGAvU8dmXNbumvuIJ2FQvHmWU8O2BuWXYCBKMEW4NfNg30uXcDPM_iBY7S2uNkfKJGnYqrO_itcUJMmYy6T8nvjbeONQayq5ARw-irbnK-Fd_7pDtSmCdaq_Gs_D8FDLhNc70o7Kyk-p4MpLfaMATw7rvDntqmIZ4Dlqu_r-zkZT6R9ZoMX6E_3tilAS8NsDyzd4p7uSTmx2aySnI8k1Ee770B4QCCJcIYv1GOf08t0nzFk_6PBZ3GHQaLyMh0BEWYObm8wz1qKV5VK4aZG8r9kf27ILo7wSfO1Ezk81t2hLrPS1fsV0_uHYhwWSIQEwI6Ku-T1KEWqGb2crwD1XTconZieTJwBF3WcC2n1tTojnFi6JH6ZeVykENVAIUu95VQdWGUrWmGewkCwiCS9AOoQKs8jXFFQLavTzotPrwFVa1CMw4ILBcjEMTOS27VGhcaEg0g_odG4vbyeqs-luDCgxam1Nb2g_CZGVsCMYNLSo7SsNb74YuTY3bmAM4kKER03TATbFJ9dfx2MLjXD1grvO9EDM_NHijas4xuxyuRKjj7KZycFWKvPWWFV4Mhc3qzHQJrZmgjw_Z6AmSRuPQDhlzLoZlI1-ZQbajfzvG96ys1gnoS4OsXCeEUvfROBApbDkFkBF5OegdbWCHnLra8T8ur-633kzf9pQwDUqIFqPAdx14tQMNkzo9v-2AfCgJVNq4d-f4mbDiqnwneAmvDh45f1xJBRDaoNzKccv0ZzxO-xlguUCVOVm00]--></g></svg>