<?xml version="1.0" encoding="UTF-8" standalone="no"?><svg xmlns="http://www.w3.org/2000/svg" xmlns:xlink="http://www.w3.org/1999/xlink" contentStyleType="text/css" height="1193px" preserveAspectRatio="none" style="width:3632px;height:1193px;background:#FFFFFF;" version="1.1" viewBox="0 0 3632 1193" width="3632px" zoomAndPan="magnify"><defs/><g><text fill="#000000" font-family="sans-serif" font-size="14" font-weight="bold" lengthAdjust="spacing" textLength="165" x="1732.75" y="27.9951">Level 3 MDR Diagram</text><rect fill="#FFFFFF" height="961.3125" style="stroke:#181818;stroke-width:1.0;" width="10" x="15.5" y="135.5781"/><rect fill="#FFFFFF" height="932.0313" style="stroke:#181818;stroke-width:1.0;" width="10" x="864.5" y="164.8594"/><rect fill="#FFFFFF" height="841.4688" style="stroke:#181818;stroke-width:1.0;" width="10" x="1372.5" y="202.1406"/><rect fill="#FFFFFF" height="43.2813" style="stroke:#181818;stroke-width:1.0;" width="10" x="2426.5" y="682.0781"/><rect fill="#FFFFFF" height="124.8438" style="stroke:#181818;stroke-width:1.0;" width="10" x="2834.5" y="469.6719"/><rect fill="#FFFFFF" height="37.2813" style="stroke:#181818;stroke-width:1.0;" width="10" x="2994" y="239.4219"/><rect fill="#FFFFFF" height="104.5625" style="stroke:#181818;stroke-width:1.0;" width="10" x="2994" y="769.6406"/><rect fill="#FFFFFF" height="37.2813" style="stroke:#181818;stroke-width:1.0;" width="10" x="3182" y="354.5469"/><rect fill="#FFFFFF" height="43.2813" style="stroke:#181818;stroke-width:1.0;" width="10" x="3317" y="506.9531"/><rect fill="#FFFFFF" height="30" style="stroke:#181818;stroke-width:1.0;" width="10" x="3522.5" y="806.9219"/><rect fill="#EBF5FB" height="759.9063" style="stroke:#000000;stroke-width:1.5;" width="2831" x="770.5" y="291.7031"/><rect fill="#EBF5FB" height="575.2188" style="stroke:#000000;stroke-width:1.5;" width="2811" x="780.5" y="406.8281"/><rect fill="#EBF5FB" height="62.5625" style="stroke:none;stroke-width:1.0;" width="2811" x="780.5" y="919.4844"/><rect fill="#EBF5FB" height="62.5625" style="stroke:none;stroke-width:1.0;" width="2831" x="770.5" y="989.0469"/><line style="stroke:#181818;stroke-width:0.5;stroke-dasharray:5.0,5.0;" x1="20" x2="20" y1="125.5781" y2="1105.8906"/><line style="stroke:#181818;stroke-width:0.5;stroke-dasharray:5.0,5.0;" x1="869.5" x2="869.5" y1="125.5781" y2="1105.8906"/><line style="stroke:#181818;stroke-width:0.5;stroke-dasharray:5.0,5.0;" x1="1377.5" x2="1377.5" y1="125.5781" y2="1105.8906"/><line style="stroke:#181818;stroke-width:0.5;stroke-dasharray:5.0,5.0;" x1="2431.5" x2="2431.5" y1="125.5781" y2="1105.8906"/><line style="stroke:#181818;stroke-width:0.5;stroke-dasharray:5.0,5.0;" x1="2839.5" x2="2839.5" y1="125.5781" y2="1105.8906"/><line style="stroke:#181818;stroke-width:0.5;stroke-dasharray:5.0,5.0;" x1="2998.5" x2="2998.5" y1="125.5781" y2="1105.8906"/><line style="stroke:#181818;stroke-width:0.5;stroke-dasharray:5.0,5.0;" x1="3186.5" x2="3186.5" y1="125.5781" y2="1105.8906"/><line style="stroke:#181818;stroke-width:0.5;stroke-dasharray:5.0,5.0;" x1="3321.5" x2="3321.5" y1="125.5781" y2="1105.8906"/><line style="stroke:#181818;stroke-width:0.5;stroke-dasharray:5.0,5.0;" x1="3412.5" x2="3412.5" y1="125.5781" y2="1105.8906"/><line style="stroke:#181818;stroke-width:0.5;stroke-dasharray:5.0,5.0;" x1="3527.5" x2="3527.5" y1="125.5781" y2="1105.8906"/><line style="stroke:#181818;stroke-width:0.5;stroke-dasharray:5.0,5.0;" x1="3608.5" x2="3608.5" y1="125.5781" y2="1105.8906"/><text fill="#000000" font-family="sans-serif" font-size="20" lengthAdjust="spacing" textLength="25" x="5" y="120.8613">FE</text><ellipse cx="20.5" cy="50.7969" fill="#E2E2F0" rx="8" ry="8" style="stroke:#181818;stroke-width:0.5;"/><path d="M20.5,58.7969 L20.5,85.7969 M7.5,66.7969 L33.5,66.7969 M20.5,85.7969 L7.5,100.7969 M20.5,85.7969 L33.5,100.7969 " fill="none" style="stroke:#181818;stroke-width:0.5;"/><text fill="#000000" font-family="sans-serif" font-size="20" lengthAdjust="spacing" textLength="25" x="5" y="1123.4551">FE</text><ellipse cx="20.5" cy="1136.6719" fill="#E2E2F0" rx="8" ry="8" style="stroke:#181818;stroke-width:0.5;"/><path d="M20.5,1144.6719 L20.5,1171.6719 M7.5,1152.6719 L33.5,1152.6719 M20.5,1171.6719 L7.5,1186.6719 M20.5,1171.6719 L33.5,1186.6719 " fill="none" style="stroke:#181818;stroke-width:0.5;"/><rect fill="#E2E2F0" height="37.2813" rx="2.5" ry="2.5" style="stroke:#181818;stroke-width:0.5;" width="158" x="790.5" y="87.2969"/><text fill="#000000" font-family="sans-serif" font-size="20" lengthAdjust="spacing" textLength="144" x="797.5" y="112.8613">UserController</text><rect fill="#E2E2F0" height="37.2813" rx="2.5" ry="2.5" style="stroke:#181818;stroke-width:0.5;" width="158" x="790.5" y="1104.8906"/><text fill="#000000" font-family="sans-serif" font-size="20" lengthAdjust="spacing" textLength="144" x="797.5" y="1130.4551">UserController</text><rect fill="#E2E2F0" height="37.2813" rx="2.5" ry="2.5" style="stroke:#181818;stroke-width:0.5;" width="132" x="1311.5" y="87.2969"/><text fill="#000000" font-family="sans-serif" font-size="20" lengthAdjust="spacing" textLength="118" x="1318.5" y="112.8613">UserService</text><rect fill="#E2E2F0" height="37.2813" rx="2.5" ry="2.5" style="stroke:#181818;stroke-width:0.5;" width="132" x="1311.5" y="1104.8906"/><text fill="#000000" font-family="sans-serif" font-size="20" lengthAdjust="spacing" textLength="118" x="1318.5" y="1130.4551">UserService</text><rect fill="#E2E2F0" height="37.2813" rx="2.5" ry="2.5" style="stroke:#181818;stroke-width:0.5;" width="144" x="2359.5" y="87.2969"/><text fill="#000000" font-family="sans-serif" font-size="20" lengthAdjust="spacing" textLength="130" x="2366.5" y="112.8613">EmailService</text><rect fill="#E2E2F0" height="37.2813" rx="2.5" ry="2.5" style="stroke:#181818;stroke-width:0.5;" width="144" x="2359.5" y="1104.8906"/><text fill="#000000" font-family="sans-serif" font-size="20" lengthAdjust="spacing" textLength="130" x="2366.5" y="1130.4551">EmailService</text><rect fill="#E2E2F0" height="37.2813" rx="2.5" ry="2.5" style="stroke:#181818;stroke-width:0.5;" width="134" x="2772.5" y="87.2969"/><text fill="#000000" font-family="sans-serif" font-size="20" lengthAdjust="spacing" textLength="120" x="2779.5" y="112.8613">UserMapper</text><rect fill="#E2E2F0" height="37.2813" rx="2.5" ry="2.5" style="stroke:#181818;stroke-width:0.5;" width="134" x="2772.5" y="1104.8906"/><text fill="#000000" font-family="sans-serif" font-size="20" lengthAdjust="spacing" textLength="120" x="2779.5" y="1130.4551">UserMapper</text><rect fill="#E2E2F0" height="37.2813" rx="2.5" ry="2.5" style="stroke:#181818;stroke-width:0.5;" width="165" x="2916.5" y="87.2969"/><text fill="#000000" font-family="sans-serif" font-size="20" lengthAdjust="spacing" textLength="151" x="2923.5" y="112.8613">UserRepository</text><rect fill="#E2E2F0" height="37.2813" rx="2.5" ry="2.5" style="stroke:#181818;stroke-width:0.5;" width="165" x="2916.5" y="1104.8906"/><text fill="#000000" font-family="sans-serif" font-size="20" lengthAdjust="spacing" textLength="151" x="2923.5" y="1130.4551">UserRepository</text><rect fill="#E2E2F0" height="37.2813" rx="2.5" ry="2.5" style="stroke:#181818;stroke-width:0.5;" width="191" x="3091.5" y="87.2969"/><text fill="#000000" font-family="sans-serif" font-size="20" lengthAdjust="spacing" textLength="177" x="3098.5" y="112.8613">PatientRepository</text><rect fill="#E2E2F0" height="37.2813" rx="2.5" ry="2.5" style="stroke:#181818;stroke-width:0.5;" width="191" x="3091.5" y="1104.8906"/><text fill="#000000" font-family="sans-serif" font-size="20" lengthAdjust="spacing" textLength="177" x="3098.5" y="1130.4551">PatientRepository</text><rect fill="#E2E2F0" height="37.2813" rx="2.5" ry="2.5" style="stroke:#181818;stroke-width:0.5;" width="59" x="3292.5" y="87.2969"/><text fill="#000000" font-family="sans-serif" font-size="20" lengthAdjust="spacing" textLength="45" x="3299.5" y="112.8613">User</text><rect fill="#E2E2F0" height="37.2813" rx="2.5" ry="2.5" style="stroke:#181818;stroke-width:0.5;" width="59" x="3292.5" y="1104.8906"/><text fill="#000000" font-family="sans-serif" font-size="20" lengthAdjust="spacing" textLength="45" x="3299.5" y="1130.4551">User</text><rect fill="#E2E2F0" height="37.2813" rx="2.5" ry="2.5" style="stroke:#181818;stroke-width:0.5;" width="102" x="3361.5" y="87.2969"/><text fill="#000000" font-family="sans-serif" font-size="20" lengthAdjust="spacing" textLength="88" x="3368.5" y="112.8613">UserDTO</text><rect fill="#E2E2F0" height="37.2813" rx="2.5" ry="2.5" style="stroke:#181818;stroke-width:0.5;" width="102" x="3361.5" y="1104.8906"/><text fill="#000000" font-family="sans-serif" font-size="20" lengthAdjust="spacing" textLength="88" x="3368.5" y="1130.4551">UserDTO</text><rect fill="#E2E2F0" height="37.2813" rx="2.5" ry="2.5" style="stroke:#181818;stroke-width:0.5;" width="108" x="3473.5" y="87.2969"/><text fill="#000000" font-family="sans-serif" font-size="20" lengthAdjust="spacing" textLength="94" x="3480.5" y="112.8613">Database</text><rect fill="#E2E2F0" height="37.2813" rx="2.5" ry="2.5" style="stroke:#181818;stroke-width:0.5;" width="108" x="3473.5" y="1104.8906"/><text fill="#000000" font-family="sans-serif" font-size="20" lengthAdjust="spacing" textLength="94" x="3480.5" y="1130.4551">Database</text><rect fill="#E2E2F0" height="37.2813" rx="2.5" ry="2.5" style="stroke:#181818;stroke-width:0.5;" width="35" x="3591.5" y="87.2969"/><text fill="#000000" font-family="sans-serif" font-size="20" lengthAdjust="spacing" textLength="21" x="3598.5" y="112.8613">UI</text><rect fill="#E2E2F0" height="37.2813" rx="2.5" ry="2.5" style="stroke:#181818;stroke-width:0.5;" width="35" x="3591.5" y="1104.8906"/><text fill="#000000" font-family="sans-serif" font-size="20" lengthAdjust="spacing" textLength="21" x="3598.5" y="1130.4551">UI</text><rect fill="#FFFFFF" height="961.3125" style="stroke:#181818;stroke-width:1.0;" width="10" x="15.5" y="135.5781"/><rect fill="#FFFFFF" height="932.0313" style="stroke:#181818;stroke-width:1.0;" width="10" x="864.5" y="164.8594"/><rect fill="#FFFFFF" height="841.4688" style="stroke:#181818;stroke-width:1.0;" width="10" x="1372.5" y="202.1406"/><rect fill="#FFFFFF" height="43.2813" style="stroke:#181818;stroke-width:1.0;" width="10" x="2426.5" y="682.0781"/><rect fill="#FFFFFF" height="124.8438" style="stroke:#181818;stroke-width:1.0;" width="10" x="2834.5" y="469.6719"/><rect fill="#FFFFFF" height="37.2813" style="stroke:#181818;stroke-width:1.0;" width="10" x="2994" y="239.4219"/><rect fill="#FFFFFF" height="104.5625" style="stroke:#181818;stroke-width:1.0;" width="10" x="2994" y="769.6406"/><rect fill="#FFFFFF" height="37.2813" style="stroke:#181818;stroke-width:1.0;" width="10" x="3182" y="354.5469"/><rect fill="#FFFFFF" height="43.2813" style="stroke:#181818;stroke-width:1.0;" width="10" x="3317" y="506.9531"/><rect fill="#FFFFFF" height="30" style="stroke:#181818;stroke-width:1.0;" width="10" x="3522.5" y="806.9219"/><polygon fill="#000000" points="852.5,160.8594,862.5,164.8594,852.5,168.8594,856.5,164.8594" style="stroke:#000000;stroke-width:1.0;"/><line style="stroke:#000000;stroke-width:1.0;" x1="25.5" x2="858.5" y1="164.8594" y2="164.8594"/><text fill="#000000" font-family="sans-serif" font-size="20" lengthAdjust="spacing" textLength="820" x="32.5" y="158.1426">Makes HTTP Request to Register User with data (email, phone number, password)</text><polygon fill="#000000" points="1360.5,198.1406,1370.5,202.1406,1360.5,206.1406,1364.5,202.1406" style="stroke:#000000;stroke-width:1.0;"/><line style="stroke:#000000;stroke-width:1.0;" x1="874.5" x2="1366.5" y1="202.1406" y2="202.1406"/><text fill="#000000" font-family="sans-serif" font-size="20" lengthAdjust="spacing" textLength="479" x="881.5" y="195.4238">createPatientUser(CreatingPatientUserDTO dto)</text><polygon fill="#000000" points="2982,235.4219,2992,239.4219,2982,243.4219,2986,239.4219" style="stroke:#000000;stroke-width:1.0;"/><line style="stroke:#000000;stroke-width:1.0;" x1="1382.5" x2="2988" y1="239.4219" y2="239.4219"/><text fill="#000000" font-family="sans-serif" font-size="20" lengthAdjust="spacing" textLength="347" x="1389.5" y="232.7051">getUserByEmailAsync(dto.Email())</text><polygon fill="#000000" points="1393.5,272.7031,1383.5,276.7031,1393.5,280.7031,1389.5,276.7031" style="stroke:#000000;stroke-width:1.0;"/><line style="stroke:#000000;stroke-width:1.0;stroke-dasharray:2.0,2.0;" x1="1387.5" x2="2998" y1="276.7031" y2="276.7031"/><text fill="#000000" font-family="sans-serif" font-size="20" lengthAdjust="spacing" textLength="115" x="1399.5" y="269.9863">Returns var</text><path d="M770.5,291.7031 L846.5,291.7031 L846.5,306.9844 L836.5,316.9844 L770.5,316.9844 L770.5,291.7031 " fill="#EEEEEE" style="stroke:#000000;stroke-width:1.5;"/><rect fill="none" height="759.9063" style="stroke:#000000;stroke-width:1.5;" width="2831" x="770.5" y="291.7031"/><text fill="#000000" font-family="sans-serif" font-size="20" font-weight="bold" lengthAdjust="spacing" textLength="31" x="785.5" y="311.2676">alt</text><text fill="#000000" font-family="sans-serif" font-size="20" font-weight="bold" lengthAdjust="spacing" textLength="130" x="861.5" y="312.2676">[var is null]</text><polygon fill="#000000" points="3170,350.5469,3180,354.5469,3170,358.5469,3174,354.5469" style="stroke:#000000;stroke-width:1.0;"/><line style="stroke:#000000;stroke-width:1.0;" x1="1382.5" x2="3176" y1="354.5469" y2="354.5469"/><text fill="#000000" font-family="sans-serif" font-size="20" lengthAdjust="spacing" textLength="347" x="1389.5" y="347.8301">getUserByEmailAsync(dto.Email())</text><polygon fill="#000000" points="1393.5,387.8281,1383.5,391.8281,1393.5,395.8281,1389.5,391.8281" style="stroke:#000000;stroke-width:1.0;"/><line style="stroke:#000000;stroke-width:1.0;stroke-dasharray:2.0,2.0;" x1="1387.5" x2="3186" y1="391.8281" y2="391.8281"/><text fill="#000000" font-family="sans-serif" font-size="20" lengthAdjust="spacing" textLength="115" x="1399.5" y="385.1113">Returns var</text><path d="M780.5,406.8281 L856.5,406.8281 L856.5,422.1094 L846.5,432.1094 L780.5,432.1094 L780.5,406.8281 " fill="#EEEEEE" style="stroke:#000000;stroke-width:1.5;"/><rect fill="none" height="575.2188" style="stroke:#000000;stroke-width:1.5;" width="2811" x="780.5" y="406.8281"/><text fill="#000000" font-family="sans-serif" font-size="20" font-weight="bold" lengthAdjust="spacing" textLength="31" x="795.5" y="426.3926">alt</text><text fill="#000000" font-family="sans-serif" font-size="20" font-weight="bold" lengthAdjust="spacing" textLength="763" x="871.5" y="427.3926">[Phone number matches the Patient's profile with the given email]</text><polygon fill="#000000" points="2822.5,465.6719,2832.5,469.6719,2822.5,473.6719,2826.5,469.6719" style="stroke:#000000;stroke-width:1.0;"/><line style="stroke:#000000;stroke-width:1.0;" x1="1382.5" x2="2828.5" y1="469.6719" y2="469.6719"/><text fill="#000000" font-family="sans-serif" font-size="20" lengthAdjust="spacing" textLength="275" x="1389.5" y="462.9551">ToCreatingPatientUser(dto)</text><polygon fill="#000000" points="3305,502.9531,3315,506.9531,3305,510.9531,3309,506.9531" style="stroke:#000000;stroke-width:1.0;"/><line style="stroke:#000000;stroke-width:1.0;" x1="2844.5" x2="3311" y1="506.9531" y2="506.9531"/><text fill="#000000" font-family="sans-serif" font-size="20" lengthAdjust="spacing" textLength="202" x="2851.5" y="500.2363">new User(dto fields)</text><line style="stroke:#000000;stroke-width:1.0;" x1="3327" x2="3369" y1="549.2344" y2="549.2344"/><line style="stroke:#000000;stroke-width:1.0;" x1="3369" x2="3369" y1="549.2344" y2="562.2344"/><line style="stroke:#000000;stroke-width:1.0;" x1="3322" x2="3369" y1="562.2344" y2="562.2344"/><polygon fill="#000000" points="3332,558.2344,3322,562.2344,3332,566.2344,3328,562.2344" style="stroke:#000000;stroke-width:1.0;"/><text fill="#000000" font-family="sans-serif" font-size="20" lengthAdjust="spacing" textLength="61" x="3334" y="542.5176">User()</text><polygon fill="#000000" points="1393.5,590.5156,1383.5,594.5156,1393.5,598.5156,1389.5,594.5156" style="stroke:#000000;stroke-width:1.0;"/><line style="stroke:#000000;stroke-width:1.0;stroke-dasharray:2.0,2.0;" x1="1387.5" x2="2838.5" y1="594.5156" y2="594.5156"/><text fill="#000000" font-family="sans-serif" font-size="20" lengthAdjust="spacing" textLength="113" x="1399.5" y="587.7988">return User</text><line style="stroke:#000000;stroke-width:1.0;" x1="1382.5" x2="1424.5" y1="631.7969" y2="631.7969"/><line style="stroke:#000000;stroke-width:1.0;" x1="1424.5" x2="1424.5" y1="631.7969" y2="644.7969"/><line style="stroke:#000000;stroke-width:1.0;" x1="1383.5" x2="1424.5" y1="644.7969" y2="644.7969"/><polygon fill="#000000" points="1393.5,640.7969,1383.5,644.7969,1393.5,648.7969,1389.5,644.7969" style="stroke:#000000;stroke-width:1.0;"/><text fill="#000000" font-family="sans-serif" font-size="20" lengthAdjust="spacing" textLength="213" x="1389.5" y="625.0801">GenerateToken(user)</text><polygon fill="#000000" points="2414.5,678.0781,2424.5,682.0781,2414.5,686.0781,2418.5,682.0781" style="stroke:#000000;stroke-width:1.0;"/><line style="stroke:#000000;stroke-width:1.0;" x1="1382.5" x2="2420.5" y1="682.0781" y2="682.0781"/><text fill="#000000" font-family="sans-serif" font-size="20" lengthAdjust="spacing" textLength="1025" x="1389.5" y="675.3613">sendEmail(SendEmail(dto.Email, "Activate your account", GenerateLink(token, "ActivatePatientUser")</text><line style="stroke:#000000;stroke-width:1.0;stroke-dasharray:2.0,2.0;" x1="2436.5" x2="2478.5" y1="724.3594" y2="724.3594"/><line style="stroke:#000000;stroke-width:1.0;stroke-dasharray:2.0,2.0;" x1="2478.5" x2="2478.5" y1="724.3594" y2="737.3594"/><line style="stroke:#000000;stroke-width:1.0;stroke-dasharray:2.0,2.0;" x1="2431.5" x2="2478.5" y1="737.3594" y2="737.3594"/><polygon fill="#000000" points="2441.5,733.3594,2431.5,737.3594,2441.5,741.3594,2437.5,737.3594" style="stroke:#000000;stroke-width:1.0;"/><text fill="#000000" font-family="sans-serif" font-size="20" lengthAdjust="spacing" textLength="384" x="2443.5" y="717.6426">Sends email using SMTP configuration</text><polygon fill="#000000" points="2982,765.6406,2992,769.6406,2982,773.6406,2986,769.6406" style="stroke:#000000;stroke-width:1.0;"/><line style="stroke:#000000;stroke-width:1.0;" x1="1382.5" x2="2988" y1="769.6406" y2="769.6406"/><text fill="#000000" font-family="sans-serif" font-size="20" lengthAdjust="spacing" textLength="156" x="1389.5" y="762.9238">addAsync(user)</text><polygon fill="#000000" points="3510.5,802.9219,3520.5,806.9219,3510.5,810.9219,3514.5,806.9219" style="stroke:#000000;stroke-width:1.0;"/><line style="stroke:#000000;stroke-width:1.0;" x1="3004" x2="3516.5" y1="806.9219" y2="806.9219"/><text fill="#000000" font-family="sans-serif" font-size="20" lengthAdjust="spacing" textLength="215" x="3011" y="800.2051">_objs.AddAsync(user)</text><polygon fill="#000000" points="1393.5,870.2031,1383.5,874.2031,1393.5,878.2031,1389.5,874.2031" style="stroke:#000000;stroke-width:1.0;"/><line style="stroke:#000000;stroke-width:1.0;stroke-dasharray:2.0,2.0;" x1="1387.5" x2="2998" y1="874.2031" y2="874.2031"/><text fill="#000000" font-family="sans-serif" font-size="20" lengthAdjust="spacing" textLength="113" x="1399.5" y="867.4863">return User</text><polygon fill="#000000" points="885.5,907.4844,875.5,911.4844,885.5,915.4844,881.5,911.4844" style="stroke:#000000;stroke-width:1.0;"/><line style="stroke:#000000;stroke-width:1.0;stroke-dasharray:2.0,2.0;" x1="879.5" x2="1371.5" y1="911.4844" y2="911.4844"/><text fill="#000000" font-family="sans-serif" font-size="20" lengthAdjust="spacing" textLength="125" x="891.5" y="904.7676">return token</text><line style="stroke:#000000;stroke-width:1.0;stroke-dasharray:2.0,2.0;" x1="780.5" x2="3591.5" y1="920.4844" y2="920.4844"/><text fill="#000000" font-family="sans-serif" font-size="20" font-weight="bold" lengthAdjust="spacing" textLength="843" x="785.5" y="939.0488">[Phone number does not match the Patient's profile with the given email]</text><polygon fill="#000000" points="885.5,970.0469,875.5,974.0469,885.5,978.0469,881.5,974.0469" style="stroke:#000000;stroke-width:1.0;"/><line style="stroke:#000000;stroke-width:1.0;" x1="879.5" x2="1371.5" y1="974.0469" y2="974.0469"/><text fill="#000000" font-family="sans-serif" font-size="20" lengthAdjust="spacing" textLength="261" x="891.5" y="967.3301">return exception message</text><line style="stroke:#000000;stroke-width:1.0;stroke-dasharray:2.0,2.0;" x1="770.5" x2="3601.5" y1="990.0469" y2="990.0469"/><text fill="#000000" font-family="sans-serif" font-size="20" font-weight="bold" lengthAdjust="spacing" textLength="175" x="775.5" y="1008.6113">[var is not null]</text><polygon fill="#000000" points="885.5,1039.6094,875.5,1043.6094,885.5,1047.6094,881.5,1043.6094" style="stroke:#000000;stroke-width:1.0;"/><line style="stroke:#000000;stroke-width:1.0;" x1="879.5" x2="1376.5" y1="1043.6094" y2="1043.6094"/><text fill="#000000" font-family="sans-serif" font-size="20" lengthAdjust="spacing" textLength="261" x="891.5" y="1036.8926">return exception message</text><polygon fill="#000000" points="36.5,1083.8906,26.5,1087.8906,36.5,1091.8906,32.5,1087.8906" style="stroke:#000000;stroke-width:1.0;"/><line style="stroke:#000000;stroke-width:1.0;stroke-dasharray:2.0,2.0;" x1="30.5" x2="863.5" y1="1087.8906" y2="1087.8906"/><text fill="#000000" font-family="sans-serif" font-size="20" lengthAdjust="spacing" textLength="311" x="42.5" y="1081.1738">Returns Operation Status Code</text><!--SRC=[dLNRZjCm47ttLupA0rrfMIsBk5LefQP908begwHzHjvajlKsjOFjT2c8VsVizEBII23wq3OpvypbpDWnAo4RhlcwLkKAAwZmWRUrJPMqXVY1S7FDc1MsHlY26wpX5MHn3h7W2-8mjXGL0guRkuKrhkzH6_RSx4F25o7HRXi4fUrICNRqb3Kt1duoe4_4ozL2grPM4rKh_U73XjSjtjq_OcblR-5P_2OPf-_weLefZqdZ98gl-p46zKQKw4EzJ6-Ig0z68PBqVVBM-yPQgwVE7DM4Ox_2sXkoy0NsLm_FaYXzdKQEmajBXZG1RkYR4TkAKZHSMXZCgQe9YQnLNQCUECZa755qfNjtSUfErbpKeJyfplaPRvfTzEpScsEZZA0QjnwHdoAct0gKzW_GD3-FuntpStiyk_Ck-ZrrnjpoUswwkkF8AoKstAAJYVHwSGkJ4MHyXGO-pMPJoF5RYyQ2LVHt8On53Iu3F0cxX8h2mH2T89VGB9L4aArRHdgYDNjIkheuffYmYKjGZA3KI8PTdoxSSE8iGYu26nKFbLL1W88LBa0-WWLwIBJrmnYRhIo7XBtoZyEBW9Ep75vqMNEqhPO6Dbop2WC4hwqpWZ1KVbtxxVAPfl-Iog4FmMXAxddQczHvWiGxhCi-3RI3DRVbaWPWbuJfz7XkeD7gGT1ju8LtheNOe0Gllezpg3eRmKpr23hqQkwXXpAoWobpxFa893x1dW0F0klAzF3c1zDyn_ES8p9eTHxcw8JHNXZFwMDafpqHuIDArEIQgHNAOKkyYrDCGY23ikecKnp-7QPr2OFnFlvMjPfwAUd-i8FBGt2wE5T3wp84u433GOyGTFxtjgJmxRbAN7xJZGTQGvE08gC3LIhv81OjvH9AzZKUHDjlEw-gRkzEcmusU6_A7IEEHl1LtJ-Qg_5VY77KLq5WpVznMdbOStU9x1XUI-_5sk3febUAjbmgsstyV-_xCHb-Bx5nmj8xqHXwLNI9PSLyylqPfuodv_nl4O9E2-R2JNoNQN8yttSDTZE5mdBRqaj5LHXUC_FFx3S0]--></g></svg>