<?xml version="1.0" encoding="UTF-8" standalone="no"?><svg xmlns="http://www.w3.org/2000/svg" xmlns:xlink="http://www.w3.org/1999/xlink" contentStyleType="text/css" height="1339px" preserveAspectRatio="none" style="width:3320px;height:1339px;background:#FFFFFF;" version="1.1" viewBox="0 0 3320 1339" width="3320px" zoomAndPan="magnify"><defs/><g><text fill="#000000" font-family="sans-serif" font-size="14" font-weight="bold" lengthAdjust="spacing" textLength="199" x="1562.75" y="27.9951">Level 3 Diagram for 7.2.2</text><rect fill="#FFFFFF" height="1197.4375" style="stroke:#181818;stroke-width:1.0;" width="10" x="19.5" y="90.5781"/><rect fill="#FFFFFF" height="1159.1563" style="stroke:#181818;stroke-width:1.0;" width="10" x="888.5" y="119.8594"/><rect fill="#FFFFFF" height="1084.5938" style="stroke:#181818;stroke-width:1.0;" width="10" x="1227.5" y="157.1406"/><rect fill="#FFFFFF" height="1010.0313" style="stroke:#181818;stroke-width:1.0;" width="10" x="1529.5" y="194.4219"/><rect fill="#FFFFFF" height="685.7813" style="stroke:#181818;stroke-width:1.0;" width="10" x="1717.5" y="319.2656"/><rect fill="#FFFFFF" height="124.8438" style="stroke:#181818;stroke-width:1.0;" width="10" x="2019.5" y="555.9531"/><rect fill="#FFFFFF" height="124.8438" style="stroke:#181818;stroke-width:1.0;" width="10" x="2019.5" y="842.9219"/><rect fill="#FFFFFF" height="124.8438" style="stroke:#181818;stroke-width:1.0;" width="10" x="2019.5" y="1042.3281"/><rect fill="#FFFFFF" height="43.2813" style="stroke:#181818;stroke-width:1.0;" width="10" x="2283.5" y="231.7031"/><rect fill="#FFFFFF" height="43.2813" style="stroke:#181818;stroke-width:1.0;" width="10" x="2283.5" y="880.2031"/><rect fill="#FFFFFF" height="162.125" style="stroke:#181818;stroke-width:1.0;" width="10" x="2418" y="356.5469"/><rect fill="#FFFFFF" height="43.2813" style="stroke:#181818;stroke-width:1.0;" width="10" x="2574" y="1079.6094"/><rect fill="#FFFFFF" height="43.2813" style="stroke:#181818;stroke-width:1.0;" width="10" x="2746.5" y="593.2344"/><rect fill="#FFFFFF" height="87.5625" style="stroke:#181818;stroke-width:1.0;" width="10" x="2909.5" y="393.8281"/><rect fill="#FFFFFF" height="87.5625" style="stroke:#181818;stroke-width:1.0;" width="10" x="2909.5" y="718.0781"/><line style="stroke:#181818;stroke-width:0.5;stroke-dasharray:5.0,5.0;" x1="24" x2="24" y1="80.5781" y2="1297.0156"/><line style="stroke:#181818;stroke-width:0.5;stroke-dasharray:5.0,5.0;" x1="893" x2="893" y1="80.5781" y2="1297.0156"/><line style="stroke:#181818;stroke-width:0.5;stroke-dasharray:5.0,5.0;" x1="1232" x2="1232" y1="80.5781" y2="1297.0156"/><line style="stroke:#181818;stroke-width:0.5;stroke-dasharray:5.0,5.0;" x1="1534" x2="1534" y1="80.5781" y2="1297.0156"/><line style="stroke:#181818;stroke-width:0.5;stroke-dasharray:5.0,5.0;" x1="1722" x2="1722" y1="80.5781" y2="1297.0156"/><line style="stroke:#181818;stroke-width:0.5;stroke-dasharray:5.0,5.0;" x1="2024.5" x2="2024.5" y1="80.5781" y2="1297.0156"/><line style="stroke:#181818;stroke-width:0.5;stroke-dasharray:5.0,5.0;" x1="2288.5" x2="2288.5" y1="80.5781" y2="1297.0156"/><line style="stroke:#181818;stroke-width:0.5;stroke-dasharray:5.0,5.0;" x1="2422.5" x2="2422.5" y1="80.5781" y2="1297.0156"/><line style="stroke:#181818;stroke-width:0.5;stroke-dasharray:5.0,5.0;" x1="2578.5" x2="2578.5" y1="80.5781" y2="1297.0156"/><line style="stroke:#181818;stroke-width:0.5;stroke-dasharray:5.0,5.0;" x1="2751.5" x2="2751.5" y1="80.5781" y2="1297.0156"/><line style="stroke:#181818;stroke-width:0.5;stroke-dasharray:5.0,5.0;" x1="2914.5" x2="2914.5" y1="80.5781" y2="1297.0156"/><rect fill="#E2E2F0" height="37.2813" rx="2.5" ry="2.5" style="stroke:#181818;stroke-width:0.5;" width="39" x="5" y="42.2969"/><text fill="#000000" font-family="sans-serif" font-size="20" lengthAdjust="spacing" textLength="25" x="12" y="67.8613">FE</text><rect fill="#E2E2F0" height="37.2813" rx="2.5" ry="2.5" style="stroke:#181818;stroke-width:0.5;" width="39" x="5" y="1296.0156"/><text fill="#000000" font-family="sans-serif" font-size="20" lengthAdjust="spacing" textLength="25" x="12" y="1321.5801">FE</text><rect fill="#E2E2F0" height="37.2813" rx="2.5" ry="2.5" style="stroke:#181818;stroke-width:0.5;" width="151" x="818" y="42.2969"/><text fill="#000000" font-family="sans-serif" font-size="20" lengthAdjust="spacing" textLength="137" x="825" y="67.8613">AllergyRouter</text><rect fill="#E2E2F0" height="37.2813" rx="2.5" ry="2.5" style="stroke:#181818;stroke-width:0.5;" width="151" x="818" y="1296.0156"/><text fill="#000000" font-family="sans-serif" font-size="20" lengthAdjust="spacing" textLength="137" x="825" y="1321.5801">AllergyRouter</text><rect fill="#E2E2F0" height="37.2813" rx="2.5" ry="2.5" style="stroke:#181818;stroke-width:0.5;" width="183" x="1141" y="42.2969"/><text fill="#000000" font-family="sans-serif" font-size="20" lengthAdjust="spacing" textLength="169" x="1148" y="67.8613">AllergyController</text><rect fill="#E2E2F0" height="37.2813" rx="2.5" ry="2.5" style="stroke:#181818;stroke-width:0.5;" width="183" x="1141" y="1296.0156"/><text fill="#000000" font-family="sans-serif" font-size="20" lengthAdjust="spacing" textLength="169" x="1148" y="1321.5801">AllergyController</text><rect fill="#E2E2F0" height="37.2813" rx="2.5" ry="2.5" style="stroke:#181818;stroke-width:0.5;" width="157" x="1456" y="42.2969"/><text fill="#000000" font-family="sans-serif" font-size="20" lengthAdjust="spacing" textLength="143" x="1463" y="67.8613">AllergyService</text><rect fill="#E2E2F0" height="37.2813" rx="2.5" ry="2.5" style="stroke:#181818;stroke-width:0.5;" width="157" x="1456" y="1296.0156"/><text fill="#000000" font-family="sans-serif" font-size="20" lengthAdjust="spacing" textLength="143" x="1463" y="1321.5801">AllergyService</text><rect fill="#E2E2F0" height="37.2813" rx="2.5" ry="2.5" style="stroke:#181818;stroke-width:0.5;" width="135" x="1655" y="42.2969"/><text fill="#000000" font-family="sans-serif" font-size="20" lengthAdjust="spacing" textLength="121" x="1662" y="67.8613">AllergyRepo</text><rect fill="#E2E2F0" height="37.2813" rx="2.5" ry="2.5" style="stroke:#181818;stroke-width:0.5;" width="135" x="1655" y="1296.0156"/><text fill="#000000" font-family="sans-serif" font-size="20" lengthAdjust="spacing" textLength="121" x="1662" y="1321.5801">AllergyRepo</text><rect fill="#E2E2F0" height="37.2813" rx="2.5" ry="2.5" style="stroke:#181818;stroke-width:0.5;" width="126" x="1961.5" y="42.2969"/><text fill="#000000" font-family="sans-serif" font-size="20" lengthAdjust="spacing" textLength="112" x="1968.5" y="67.8613">AllergyMap</text><rect fill="#E2E2F0" height="37.2813" rx="2.5" ry="2.5" style="stroke:#181818;stroke-width:0.5;" width="126" x="1961.5" y="1296.0156"/><text fill="#000000" font-family="sans-serif" font-size="20" lengthAdjust="spacing" textLength="112" x="1968.5" y="1321.5801">AllergyMap</text><rect fill="#E2E2F0" height="37.2813" rx="2.5" ry="2.5" style="stroke:#181818;stroke-width:0.5;" width="84" x="2246.5" y="42.2969"/><text fill="#000000" font-family="sans-serif" font-size="20" lengthAdjust="spacing" textLength="70" x="2253.5" y="67.8613">Allergy</text><rect fill="#E2E2F0" height="37.2813" rx="2.5" ry="2.5" style="stroke:#181818;stroke-width:0.5;" width="84" x="2246.5" y="1296.0156"/><text fill="#000000" font-family="sans-serif" font-size="20" lengthAdjust="spacing" textLength="70" x="2253.5" y="1321.5801">Allergy</text><rect fill="#E2E2F0" height="37.2813" rx="2.5" ry="2.5" style="stroke:#181818;stroke-width:0.5;" width="165" x="2340.5" y="42.2969"/><text fill="#000000" font-family="sans-serif" font-size="20" lengthAdjust="spacing" textLength="151" x="2347.5" y="67.8613">AllergySchema</text><rect fill="#E2E2F0" height="37.2813" rx="2.5" ry="2.5" style="stroke:#181818;stroke-width:0.5;" width="165" x="2340.5" y="1296.0156"/><text fill="#000000" font-family="sans-serif" font-size="20" lengthAdjust="spacing" textLength="151" x="2347.5" y="1321.5801">AllergySchema</text><rect fill="#E2E2F0" height="37.2813" rx="2.5" ry="2.5" style="stroke:#181818;stroke-width:0.5;" width="127" x="2515.5" y="42.2969"/><text fill="#000000" font-family="sans-serif" font-size="20" lengthAdjust="spacing" textLength="113" x="2522.5" y="67.8613">AllergyDTO</text><rect fill="#E2E2F0" height="37.2813" rx="2.5" ry="2.5" style="stroke:#181818;stroke-width:0.5;" width="127" x="2515.5" y="1296.0156"/><text fill="#000000" font-family="sans-serif" font-size="20" lengthAdjust="spacing" textLength="113" x="2522.5" y="1321.5801">AllergyDTO</text><rect fill="#E2E2F0" height="37.2813" rx="2.5" ry="2.5" style="stroke:#181818;stroke-width:0.5;" width="198" x="2652.5" y="42.2969"/><text fill="#000000" font-family="sans-serif" font-size="20" lengthAdjust="spacing" textLength="184" x="2659.5" y="67.8613">AllergyPersistence</text><rect fill="#E2E2F0" height="37.2813" rx="2.5" ry="2.5" style="stroke:#181818;stroke-width:0.5;" width="198" x="2652.5" y="1296.0156"/><text fill="#000000" font-family="sans-serif" font-size="20" lengthAdjust="spacing" textLength="184" x="2659.5" y="1321.5801">AllergyPersistence</text><rect fill="#E2E2F0" height="37.2813" rx="2.5" ry="2.5" style="stroke:#181818;stroke-width:0.5;" width="108" x="2860.5" y="42.2969"/><text fill="#000000" font-family="sans-serif" font-size="20" lengthAdjust="spacing" textLength="94" x="2867.5" y="67.8613">Database</text><rect fill="#E2E2F0" height="37.2813" rx="2.5" ry="2.5" style="stroke:#181818;stroke-width:0.5;" width="108" x="2860.5" y="1296.0156"/><text fill="#000000" font-family="sans-serif" font-size="20" lengthAdjust="spacing" textLength="94" x="2867.5" y="1321.5801">Database</text><rect fill="#FFFFFF" height="1197.4375" style="stroke:#181818;stroke-width:1.0;" width="10" x="19.5" y="90.5781"/><rect fill="#FFFFFF" height="1159.1563" style="stroke:#181818;stroke-width:1.0;" width="10" x="888.5" y="119.8594"/><rect fill="#FFFFFF" height="1084.5938" style="stroke:#181818;stroke-width:1.0;" width="10" x="1227.5" y="157.1406"/><rect fill="#FFFFFF" height="1010.0313" style="stroke:#181818;stroke-width:1.0;" width="10" x="1529.5" y="194.4219"/><rect fill="#FFFFFF" height="685.7813" style="stroke:#181818;stroke-width:1.0;" width="10" x="1717.5" y="319.2656"/><rect fill="#FFFFFF" height="124.8438" style="stroke:#181818;stroke-width:1.0;" width="10" x="2019.5" y="555.9531"/><rect fill="#FFFFFF" height="124.8438" style="stroke:#181818;stroke-width:1.0;" width="10" x="2019.5" y="842.9219"/><rect fill="#FFFFFF" height="124.8438" style="stroke:#181818;stroke-width:1.0;" width="10" x="2019.5" y="1042.3281"/><rect fill="#FFFFFF" height="43.2813" style="stroke:#181818;stroke-width:1.0;" width="10" x="2283.5" y="231.7031"/><rect fill="#FFFFFF" height="43.2813" style="stroke:#181818;stroke-width:1.0;" width="10" x="2283.5" y="880.2031"/><rect fill="#FFFFFF" height="162.125" style="stroke:#181818;stroke-width:1.0;" width="10" x="2418" y="356.5469"/><rect fill="#FFFFFF" height="43.2813" style="stroke:#181818;stroke-width:1.0;" width="10" x="2574" y="1079.6094"/><rect fill="#FFFFFF" height="43.2813" style="stroke:#181818;stroke-width:1.0;" width="10" x="2746.5" y="593.2344"/><rect fill="#FFFFFF" height="87.5625" style="stroke:#181818;stroke-width:1.0;" width="10" x="2909.5" y="393.8281"/><rect fill="#FFFFFF" height="87.5625" style="stroke:#181818;stroke-width:1.0;" width="10" x="2909.5" y="718.0781"/><polygon fill="#000000" points="876.5,115.8594,886.5,119.8594,876.5,123.8594,880.5,119.8594" style="stroke:#000000;stroke-width:1.0;"/><line style="stroke:#000000;stroke-width:1.0;" x1="29.5" x2="882.5" y1="119.8594" y2="119.8594"/><text fill="#000000" font-family="sans-serif" font-size="20" lengthAdjust="spacing" textLength="840" x="36.5" y="113.1426">Makes Http Request with Allergy details data (Code, Name, Description, Symptoms)</text><polygon fill="#000000" points="1215.5,153.1406,1225.5,157.1406,1215.5,161.1406,1219.5,157.1406" style="stroke:#000000;stroke-width:1.0;"/><line style="stroke:#000000;stroke-width:1.0;" x1="898.5" x2="1221.5" y1="157.1406" y2="157.1406"/><text fill="#000000" font-family="sans-serif" font-size="20" lengthAdjust="spacing" textLength="287" x="905.5" y="150.4238">createAllergy(req, res, next);</text><polygon fill="#000000" points="1517.5,190.4219,1527.5,194.4219,1517.5,198.4219,1521.5,194.4219" style="stroke:#000000;stroke-width:1.0;"/><line style="stroke:#000000;stroke-width:1.0;" x1="1237.5" x2="1523.5" y1="194.4219" y2="194.4219"/><text fill="#000000" font-family="sans-serif" font-size="20" lengthAdjust="spacing" textLength="262" x="1244.5" y="187.7051">createAllergy(AllergyDTO)</text><polygon fill="#000000" points="2271.5,227.7031,2281.5,231.7031,2271.5,235.7031,2275.5,231.7031" style="stroke:#000000;stroke-width:1.0;"/><line style="stroke:#000000;stroke-width:1.0;" x1="1539.5" x2="2277.5" y1="231.7031" y2="231.7031"/><text fill="#000000" font-family="sans-serif" font-size="20" lengthAdjust="spacing" textLength="235" x="1546.5" y="224.9863">create(AllergyProps, id)</text><line style="stroke:#000000;stroke-width:1.0;" x1="2293.5" x2="2335.5" y1="273.9844" y2="273.9844"/><line style="stroke:#000000;stroke-width:1.0;" x1="2335.5" x2="2335.5" y1="273.9844" y2="286.9844"/><line style="stroke:#000000;stroke-width:1.0;" x1="2288.5" x2="2335.5" y1="286.9844" y2="286.9844"/><polygon fill="#000000" points="2298.5,282.9844,2288.5,286.9844,2298.5,290.9844,2294.5,286.9844" style="stroke:#000000;stroke-width:1.0;"/><text fill="#000000" font-family="sans-serif" font-size="20" lengthAdjust="spacing" textLength="79" x="2300.5" y="267.2676">create()</text><polygon fill="#000000" points="1705.5,315.2656,1715.5,319.2656,1705.5,323.2656,1709.5,319.2656" style="stroke:#000000;stroke-width:1.0;"/><line style="stroke:#000000;stroke-width:1.0;" x1="1539.5" x2="1711.5" y1="319.2656" y2="319.2656"/><text fill="#000000" font-family="sans-serif" font-size="20" lengthAdjust="spacing" textLength="129" x="1546.5" y="312.5488">save(allergy)</text><polygon fill="#000000" points="2406,352.5469,2416,356.5469,2406,360.5469,2410,356.5469" style="stroke:#000000;stroke-width:1.0;"/><line style="stroke:#000000;stroke-width:1.0;" x1="1727.5" x2="2412" y1="356.5469" y2="356.5469"/><text fill="#000000" font-family="sans-serif" font-size="20" lengthAdjust="spacing" textLength="153" x="1734.5" y="349.8301">findOne(query)</text><polygon fill="#000000" points="2897.5,389.8281,2907.5,393.8281,2897.5,397.8281,2901.5,393.8281" style="stroke:#000000;stroke-width:1.0;"/><line style="stroke:#000000;stroke-width:1.0;" x1="2428" x2="2903.5" y1="393.8281" y2="393.8281"/><text fill="#000000" font-family="sans-serif" font-size="20" lengthAdjust="spacing" textLength="130" x="2435" y="387.1113">query(query)</text><line style="stroke:#000000;stroke-width:1.0;" x1="2919.5" x2="2961.5" y1="431.1094" y2="431.1094"/><line style="stroke:#000000;stroke-width:1.0;" x1="2961.5" x2="2961.5" y1="431.1094" y2="444.1094"/><line style="stroke:#000000;stroke-width:1.0;" x1="2920.5" x2="2961.5" y1="444.1094" y2="444.1094"/><polygon fill="#000000" points="2930.5,440.1094,2920.5,444.1094,2930.5,448.1094,2926.5,444.1094" style="stroke:#000000;stroke-width:1.0;"/><text fill="#000000" font-family="sans-serif" font-size="20" lengthAdjust="spacing" textLength="387" x="2926.5" y="424.3926">SELECT * FROM Allergy WHERE id = id</text><polygon fill="#000000" points="2439,477.3906,2429,481.3906,2439,485.3906,2435,481.3906" style="stroke:#000000;stroke-width:1.0;"/><line style="stroke:#000000;stroke-width:1.0;stroke-dasharray:2.0,2.0;" x1="2433" x2="2913.5" y1="481.3906" y2="481.3906"/><text fill="#000000" font-family="sans-serif" font-size="20" lengthAdjust="spacing" textLength="268" x="2445" y="474.6738">Returns AllergyPersistence</text><polygon fill="#000000" points="1738.5,514.6719,1728.5,518.6719,1738.5,522.6719,1734.5,518.6719" style="stroke:#000000;stroke-width:1.0;"/><line style="stroke:#000000;stroke-width:1.0;stroke-dasharray:2.0,2.0;" x1="1732.5" x2="2422" y1="518.6719" y2="518.6719"/><text fill="#000000" font-family="sans-serif" font-size="20" lengthAdjust="spacing" textLength="268" x="1744.5" y="511.9551">Returns AllergyPersistence</text><polygon fill="#000000" points="2007.5,551.9531,2017.5,555.9531,2007.5,559.9531,2011.5,555.9531" style="stroke:#000000;stroke-width:1.0;"/><line style="stroke:#000000;stroke-width:1.0;" x1="1727.5" x2="2013.5" y1="555.9531" y2="555.9531"/><text fill="#000000" font-family="sans-serif" font-size="20" lengthAdjust="spacing" textLength="218" x="1734.5" y="549.2363">toPersistence(allergy)</text><polygon fill="#000000" points="2734.5,589.2344,2744.5,593.2344,2734.5,597.2344,2738.5,593.2344" style="stroke:#000000;stroke-width:1.0;"/><line style="stroke:#000000;stroke-width:1.0;" x1="2029.5" x2="2740.5" y1="593.2344" y2="593.2344"/><text fill="#000000" font-family="sans-serif" font-size="20" lengthAdjust="spacing" textLength="249" x="2036.5" y="586.5176">create(persistenceProps)</text><line style="stroke:#000000;stroke-width:1.0;stroke-dasharray:2.0,2.0;" x1="2756.5" x2="2798.5" y1="635.5156" y2="635.5156"/><line style="stroke:#000000;stroke-width:1.0;stroke-dasharray:2.0,2.0;" x1="2798.5" x2="2798.5" y1="635.5156" y2="648.5156"/><line style="stroke:#000000;stroke-width:1.0;stroke-dasharray:2.0,2.0;" x1="2751.5" x2="2798.5" y1="648.5156" y2="648.5156"/><polygon fill="#000000" points="2761.5,644.5156,2751.5,648.5156,2761.5,652.5156,2757.5,648.5156" style="stroke:#000000;stroke-width:1.0;"/><text fill="#000000" font-family="sans-serif" font-size="20" lengthAdjust="spacing" textLength="79" x="2763.5" y="628.7988">create()</text><polygon fill="#000000" points="1738.5,676.7969,1728.5,680.7969,1738.5,684.7969,1734.5,680.7969" style="stroke:#000000;stroke-width:1.0;"/><line style="stroke:#000000;stroke-width:1.0;stroke-dasharray:2.0,2.0;" x1="1732.5" x2="2023.5" y1="680.7969" y2="680.7969"/><text fill="#000000" font-family="sans-serif" font-size="20" lengthAdjust="spacing" textLength="268" x="1744.5" y="674.0801">Returns AllergyPersistence</text><polygon fill="#000000" points="2897.5,714.0781,2907.5,718.0781,2897.5,722.0781,2901.5,718.0781" style="stroke:#000000;stroke-width:1.0;"/><line style="stroke:#000000;stroke-width:1.0;" x1="1727.5" x2="2903.5" y1="718.0781" y2="718.0781"/><text fill="#000000" font-family="sans-serif" font-size="20" lengthAdjust="spacing" textLength="149" x="1734.5" y="711.3613">create(Allergy)</text><line style="stroke:#000000;stroke-width:1.0;" x1="2919.5" x2="2961.5" y1="755.3594" y2="755.3594"/><line style="stroke:#000000;stroke-width:1.0;" x1="2961.5" x2="2961.5" y1="755.3594" y2="768.3594"/><line style="stroke:#000000;stroke-width:1.0;" x1="2920.5" x2="2961.5" y1="768.3594" y2="768.3594"/><polygon fill="#000000" points="2930.5,764.3594,2920.5,768.3594,2930.5,772.3594,2926.5,768.3594" style="stroke:#000000;stroke-width:1.0;"/><text fill="#000000" font-family="sans-serif" font-size="20" lengthAdjust="spacing" textLength="380" x="2926.5" y="748.6426">INSERT INTO Allergy VALUES (allergy)</text><polygon fill="#000000" points="1738.5,801.6406,1728.5,805.6406,1738.5,809.6406,1734.5,805.6406" style="stroke:#000000;stroke-width:1.0;"/><line style="stroke:#000000;stroke-width:1.0;" x1="1732.5" x2="2913.5" y1="805.6406" y2="805.6406"/><text fill="#000000" font-family="sans-serif" font-size="20" lengthAdjust="spacing" textLength="141" x="1744.5" y="798.9238">returns Result</text><polygon fill="#000000" points="2007.5,838.9219,2017.5,842.9219,2007.5,846.9219,2011.5,842.9219" style="stroke:#000000;stroke-width:1.0;"/><line style="stroke:#000000;stroke-width:1.0;" x1="1727.5" x2="2013.5" y1="842.9219" y2="842.9219"/><text fill="#000000" font-family="sans-serif" font-size="20" lengthAdjust="spacing" textLength="261" x="1734.5" y="836.2051">toDomain(allergyCreated)</text><polygon fill="#000000" points="2271.5,876.2031,2281.5,880.2031,2271.5,884.2031,2275.5,880.2031" style="stroke:#000000;stroke-width:1.0;"/><line style="stroke:#000000;stroke-width:1.0;" x1="2029.5" x2="2277.5" y1="880.2031" y2="880.2031"/><text fill="#000000" font-family="sans-serif" font-size="20" lengthAdjust="spacing" textLength="235" x="2036.5" y="873.4863">create(AllergyProps, id)</text><line style="stroke:#000000;stroke-width:1.0;" x1="2293.5" x2="2335.5" y1="922.4844" y2="922.4844"/><line style="stroke:#000000;stroke-width:1.0;" x1="2335.5" x2="2335.5" y1="922.4844" y2="935.4844"/><line style="stroke:#000000;stroke-width:1.0;" x1="2288.5" x2="2335.5" y1="935.4844" y2="935.4844"/><polygon fill="#000000" points="2298.5,931.4844,2288.5,935.4844,2298.5,939.4844,2294.5,935.4844" style="stroke:#000000;stroke-width:1.0;"/><text fill="#000000" font-family="sans-serif" font-size="20" lengthAdjust="spacing" textLength="79" x="2300.5" y="915.7676">create()</text><polygon fill="#000000" points="1738.5,963.7656,1728.5,967.7656,1738.5,971.7656,1734.5,967.7656" style="stroke:#000000;stroke-width:1.0;"/><line style="stroke:#000000;stroke-width:1.0;stroke-dasharray:2.0,2.0;" x1="1732.5" x2="2023.5" y1="967.7656" y2="967.7656"/><text fill="#000000" font-family="sans-serif" font-size="20" lengthAdjust="spacing" textLength="154" x="1744.5" y="961.0488">Returns Allergy</text><polygon fill="#000000" points="1550.5,1001.0469,1540.5,1005.0469,1550.5,1009.0469,1546.5,1005.0469" style="stroke:#000000;stroke-width:1.0;"/><line style="stroke:#000000;stroke-width:1.0;stroke-dasharray:2.0,2.0;" x1="1544.5" x2="1721.5" y1="1005.0469" y2="1005.0469"/><text fill="#000000" font-family="sans-serif" font-size="20" lengthAdjust="spacing" textLength="154" x="1556.5" y="998.3301">Returns Allergy</text><polygon fill="#000000" points="2007.5,1038.3281,2017.5,1042.3281,2007.5,1046.3281,2011.5,1042.3281" style="stroke:#000000;stroke-width:1.0;"/><line style="stroke:#000000;stroke-width:1.0;" x1="1539.5" x2="2013.5" y1="1042.3281" y2="1042.3281"/><text fill="#000000" font-family="sans-serif" font-size="20" lengthAdjust="spacing" textLength="147" x="1546.5" y="1035.6113">toDTO(allergy)</text><polygon fill="#000000" points="2562,1075.6094,2572,1079.6094,2562,1083.6094,2566,1079.6094" style="stroke:#000000;stroke-width:1.0;"/><line style="stroke:#000000;stroke-width:1.0;" x1="2029.5" x2="2568" y1="1079.6094" y2="1079.6094"/><text fill="#000000" font-family="sans-serif" font-size="20" lengthAdjust="spacing" textLength="204" x="2036.5" y="1072.8926">create(AllergyProps)</text><line style="stroke:#000000;stroke-width:1.0;" x1="2584" x2="2626" y1="1121.8906" y2="1121.8906"/><line style="stroke:#000000;stroke-width:1.0;" x1="2626" x2="2626" y1="1121.8906" y2="1134.8906"/><line style="stroke:#000000;stroke-width:1.0;" x1="2579" x2="2626" y1="1134.8906" y2="1134.8906"/><polygon fill="#000000" points="2589,1130.8906,2579,1134.8906,2589,1138.8906,2585,1134.8906" style="stroke:#000000;stroke-width:1.0;"/><text fill="#000000" font-family="sans-serif" font-size="20" lengthAdjust="spacing" textLength="79" x="2591" y="1115.1738">create()</text><polygon fill="#000000" points="1550.5,1163.1719,1540.5,1167.1719,1550.5,1171.1719,1546.5,1167.1719" style="stroke:#000000;stroke-width:1.0;"/><line style="stroke:#000000;stroke-width:1.0;stroke-dasharray:2.0,2.0;" x1="1544.5" x2="2023.5" y1="1167.1719" y2="1167.1719"/><text fill="#000000" font-family="sans-serif" font-size="20" lengthAdjust="spacing" textLength="195" x="1556.5" y="1160.4551">Returns allergyDTO</text><polygon fill="#000000" points="1248.5,1200.4531,1238.5,1204.4531,1248.5,1208.4531,1244.5,1204.4531" style="stroke:#000000;stroke-width:1.0;"/><line style="stroke:#000000;stroke-width:1.0;stroke-dasharray:2.0,2.0;" x1="1242.5" x2="1533.5" y1="1204.4531" y2="1204.4531"/><text fill="#000000" font-family="sans-serif" font-size="20" lengthAdjust="spacing" textLength="268" x="1254.5" y="1197.7363">Returns result(allergyDTO)</text><polygon fill="#000000" points="909.5,1237.7344,899.5,1241.7344,909.5,1245.7344,905.5,1241.7344" style="stroke:#000000;stroke-width:1.0;"/><line style="stroke:#000000;stroke-width:1.0;stroke-dasharray:2.0,2.0;" x1="903.5" x2="1231.5" y1="1241.7344" y2="1241.7344"/><text fill="#000000" font-family="sans-serif" font-size="20" lengthAdjust="spacing" textLength="305" x="915.5" y="1235.0176">returns Operation Status Code</text><polygon fill="#000000" points="40.5,1275.0156,30.5,1279.0156,40.5,1283.0156,36.5,1279.0156" style="stroke:#000000;stroke-width:1.0;"/><line style="stroke:#000000;stroke-width:1.0;stroke-dasharray:2.0,2.0;" x1="34.5" x2="892.5" y1="1279.0156" y2="1279.0156"/><text fill="#000000" font-family="sans-serif" font-size="20" lengthAdjust="spacing" textLength="305" x="46.5" y="1272.2988">returns Operation Status Code</text><!--SRC=[hPNRJjj048Rlzob6vIQfAA9KBMrAaUAJG8f9PAVjzM8FiCBscjqDDAtwxXrxxSGcXXQfkR0IxpUdVsOd-bOK9LSypsHoYocaUCLNcGbaOMBn4-7ea34ZJ8OmmtlCu1ruWbyJ3rTImV71qS4HOpSYHS2yD6l8CRz4fHdJhMD8Cgur_6907uSdjzTAhehKbPbK9oS91L8oor2TdiAUzy6V1X-7IOtgNYHOOs-38zyPnXIMKWiZrReY0yztlCDXCkTbsOHznXyMLFvVVD6P7tpoZ-kpgLBomRvsCkBOxwuO9RtXrpWi1-pvJl0-S2eJmer8HCaB0u4FNCEqz-xLj1BjUXt9bK7rgWQY9GmoxaPaoxd3M6mLjamy78tKRM8D-mXvQS_3mMDxDdiYVdA3EMyG-sCOz9RpXg9lWyI2Pb1eWqLRpcpHvpnk-2NNzjHp6EE94VVS8CayXJUdbPWJ2FajQZWpfeG8xrQe3Jm8SmDD5BejXejCGqhUOEJA5FVXWkVqz50dIfH6o68VuZNT3PdhSITAj6HLlwf8xWGIXVIsSJjIUBSF2lK-5FZ3Z3ztp5n6tQkCuiT6MsswOM8sZMj-rl8jk52of0WYxU8pHitfusDWAVO8wp2QWERtEEBMtRWhOKIrMJUsZHEu4aKwBt148gfrBw8bsARZPEOv4wZ17PmwvJaj4liptrt2QmYYURZfoVSpF_AfBFX2Zvhk9HAXMQb2m-wWTCkaEDk4cch_pN9JK2j1E04ZE_1MiArDoAQXrMknqRtScjIjwecseFGMJMLRat4_aKNjzMNPXstUbS3zWNcg3USNiK-JV7wnd6-Qy6qw- -h7iAtLubKYgaaaGar_D8z4xudcoPoBelNXricamxBzl-5-Kh4XcPgB-1mPiVR2s9gMy-S7W831Odg5L6klVkxQF9g1cWntCkMRPR5JLcnXTmkhkbCZtbamNQEuNadjocpREwVvvTNwWzXmiz9GRSUUdMiNO6Nu4ZDQd7y0]--></g></svg>