<?xml version="1.0" encoding="UTF-8" standalone="no"?><svg xmlns="http://www.w3.org/2000/svg" xmlns:xlink="http://www.w3.org/1999/xlink" contentStyleType="text/css" height="530px" preserveAspectRatio="none" style="width:1411px;height:530px;background:#FFFFFF;" version="1.1" viewBox="0 0 1411 530" width="1411px" zoomAndPan="magnify"><defs/><g><text fill="#000000" font-family="sans-serif" font-size="14" font-weight="bold" lengthAdjust="spacing" textLength="199" x="608" y="27.9951">Level 2 Diagram for 7.2.2</text><rect fill="#FFFFFF" height="298.25" style="stroke:#181818;stroke-width:1.0;" width="10" x="36" y="135.5781"/><rect fill="#FFFFFF" height="37.2813" style="stroke:#181818;stroke-width:1.0;" width="10" x="730" y="164.8594"/><rect fill="#FFFFFF" height="185.4063" style="stroke:#181818;stroke-width:1.0;" width="10" x="730" y="239.4219"/><rect fill="#FFFFFF" height="110.8438" style="stroke:#181818;stroke-width:1.0;" width="10" x="1106" y="276.7031"/><line style="stroke:#181818;stroke-width:0.5;stroke-dasharray:5.0,5.0;" x1="41" x2="41" y1="125.5781" y2="442.8281"/><line style="stroke:#181818;stroke-width:0.5;stroke-dasharray:5.0,5.0;" x1="734.5" x2="734.5" y1="125.5781" y2="442.8281"/><line style="stroke:#181818;stroke-width:0.5;stroke-dasharray:5.0,5.0;" x1="1111" x2="1111" y1="125.5781" y2="442.8281"/><text fill="#000000" font-family="sans-serif" font-size="20" lengthAdjust="spacing" textLength="66" x="5" y="120.8613">Admin</text><ellipse cx="41" cy="50.7969" fill="#E2E2F0" rx="8" ry="8" style="stroke:#181818;stroke-width:0.5;"/><path d="M41,58.7969 L41,85.7969 M28,66.7969 L54,66.7969 M41,85.7969 L28,100.7969 M41,85.7969 L54,100.7969 " fill="none" style="stroke:#181818;stroke-width:0.5;"/><text fill="#000000" font-family="sans-serif" font-size="20" lengthAdjust="spacing" textLength="66" x="5" y="460.3926">Admin</text><ellipse cx="41" cy="473.6094" fill="#E2E2F0" rx="8" ry="8" style="stroke:#181818;stroke-width:0.5;"/><path d="M41,481.6094 L41,508.6094 M28,489.6094 L54,489.6094 M41,508.6094 L28,523.6094 M41,508.6094 L54,523.6094 " fill="none" style="stroke:#181818;stroke-width:0.5;"/><rect fill="#E2E2F0" height="37.2813" rx="2.5" ry="2.5" style="stroke:#181818;stroke-width:0.5;" width="39" x="715.5" y="87.2969"/><text fill="#000000" font-family="sans-serif" font-size="20" lengthAdjust="spacing" textLength="25" x="722.5" y="112.8613">FE</text><rect fill="#E2E2F0" height="37.2813" rx="2.5" ry="2.5" style="stroke:#181818;stroke-width:0.5;" width="39" x="715.5" y="441.8281"/><text fill="#000000" font-family="sans-serif" font-size="20" lengthAdjust="spacing" textLength="25" x="722.5" y="467.3926">FE</text><rect fill="#E2E2F0" height="37.2813" rx="2.5" ry="2.5" style="stroke:#181818;stroke-width:0.5;" width="60" x="1081" y="87.2969"/><text fill="#000000" font-family="sans-serif" font-size="20" lengthAdjust="spacing" textLength="46" x="1088" y="112.8613">MDV</text><rect fill="#E2E2F0" height="37.2813" rx="2.5" ry="2.5" style="stroke:#181818;stroke-width:0.5;" width="60" x="1081" y="441.8281"/><text fill="#000000" font-family="sans-serif" font-size="20" lengthAdjust="spacing" textLength="46" x="1088" y="467.3926">MDV</text><rect fill="#FFFFFF" height="298.25" style="stroke:#181818;stroke-width:1.0;" width="10" x="36" y="135.5781"/><rect fill="#FFFFFF" height="37.2813" style="stroke:#181818;stroke-width:1.0;" width="10" x="730" y="164.8594"/><rect fill="#FFFFFF" height="185.4063" style="stroke:#181818;stroke-width:1.0;" width="10" x="730" y="239.4219"/><rect fill="#FFFFFF" height="110.8438" style="stroke:#181818;stroke-width:1.0;" width="10" x="1106" y="276.7031"/><polygon fill="#000000" points="718,160.8594,728,164.8594,718,168.8594,722,164.8594" style="stroke:#000000;stroke-width:1.0;"/><line style="stroke:#000000;stroke-width:1.0;" x1="46" x2="724" y1="164.8594" y2="164.8594"/><text fill="#000000" font-family="sans-serif" font-size="20" lengthAdjust="spacing" textLength="304" x="53" y="158.1426">Requests to add a new Allergy</text><polygon fill="#000000" points="57,198.1406,47,202.1406,57,206.1406,53,202.1406" style="stroke:#000000;stroke-width:1.0;"/><line style="stroke:#000000;stroke-width:1.0;stroke-dasharray:2.0,2.0;" x1="51" x2="734" y1="202.1406" y2="202.1406"/><text fill="#000000" font-family="sans-serif" font-size="20" lengthAdjust="spacing" textLength="370" x="63" y="195.4238">Displays form to enter Allergy details</text><polygon fill="#000000" points="718,235.4219,728,239.4219,718,243.4219,722,239.4219" style="stroke:#000000;stroke-width:1.0;"/><line style="stroke:#000000;stroke-width:1.0;" x1="46" x2="724" y1="239.4219" y2="239.4219"/><text fill="#000000" font-family="sans-serif" font-size="20" lengthAdjust="spacing" textLength="665" x="53" y="232.7051">Send data of Allergy details (Code, Name, Description, Symptoms)</text><polygon fill="#000000" points="1094,272.7031,1104,276.7031,1094,280.7031,1098,276.7031" style="stroke:#000000;stroke-width:1.0;"/><line style="stroke:#000000;stroke-width:1.0;" x1="740" x2="1100" y1="276.7031" y2="276.7031"/><text fill="#000000" font-family="sans-serif" font-size="20" lengthAdjust="spacing" textLength="347" x="747" y="269.9863">Makes Http Request to add Allergy</text><line style="stroke:#000000;stroke-width:1.0;" x1="1116" x2="1158" y1="337.2656" y2="337.2656"/><line style="stroke:#000000;stroke-width:1.0;" x1="1158" x2="1158" y1="337.2656" y2="350.2656"/><line style="stroke:#000000;stroke-width:1.0;" x1="1117" x2="1158" y1="350.2656" y2="350.2656"/><polygon fill="#000000" points="1127,346.2656,1117,350.2656,1127,354.2656,1123,350.2656" style="stroke:#000000;stroke-width:1.0;"/><text fill="#000000" font-family="sans-serif" font-size="20" lengthAdjust="spacing" textLength="242" x="1123" y="307.2676">Validates Allergy details</text><text fill="#000000" font-family="sans-serif" font-size="20" lengthAdjust="spacing" textLength="275" x="1129" y="330.5488">and adds it to the database</text><polygon fill="#000000" points="751,383.5469,741,387.5469,751,391.5469,747,387.5469" style="stroke:#000000;stroke-width:1.0;"/><line style="stroke:#000000;stroke-width:1.0;stroke-dasharray:2.0,2.0;" x1="745" x2="1110" y1="387.5469" y2="387.5469"/><text fill="#000000" font-family="sans-serif" font-size="20" lengthAdjust="spacing" textLength="335" x="757" y="380.8301">Returns Success/Failure message</text><polygon fill="#000000" points="57,420.8281,47,424.8281,57,428.8281,53,424.8281" style="stroke:#000000;stroke-width:1.0;"/><line style="stroke:#000000;stroke-width:1.0;stroke-dasharray:2.0,2.0;" x1="51" x2="734" y1="424.8281" y2="424.8281"/><text fill="#000000" font-family="sans-serif" font-size="20" lengthAdjust="spacing" textLength="335" x="63" y="418.1113">Returns Success/Failure message</text><!--SRC=[bP91RzD048Nl-oj6wWMajfH8K8YgI7Rj5GSA4f5wuZ9PJz8bwrspCquL4F-TiIkteSq57snf_BwtRsQMjpvscB4DoMsfWORMs0UnAShI_oAONHWZNWB1PzfHW1bK7ZUgXtNAS7a-EvyPS-SR0cexsKDBxOeo6yEJCRY0pF3RW3ubkkqcfpusrocaV7Mrmz3JrzKFSh9Om4drlYxiX-FIdDAeiLLTLXV7DKnvvnsDLc_jh2wFoTIYjX_ho_5VaNEwVoYNGNNcps7sJYkueUFfuQGkxJjR3WWwqKBHj3u2CXH6UV7ETnW5R3tKRFrFyQQw7Qhw6Mc_Go7b2ZXRg7GEt-XdJomCaW2R1X0YtKCH0kND_ebGLxK_KwYOwswu2xZdOJdj058KoXEaonNqWKr3X_ZZYKkAUW5G4DBwEGElhbD3f_05MtrNn2xxJdoAfx3Sw-PJowzVX5eCtStX1hV4y4cacvgQUdhHpJ2DOJ0JUel1QoB5d-VvhdFMkEh2u4T3kQCn_GgP7amU9obzZWpBtZbYVcFLeC-aTvLPbtiuZk7yft7-1wWT_mK0]--></g></svg>