<?xml version="1.0" encoding="UTF-8" standalone="no"?><svg xmlns="http://www.w3.org/2000/svg" xmlns:xlink="http://www.w3.org/1999/xlink" contentStyleType="text/css" height="810px" preserveAspectRatio="none" style="width:3624px;height:810px;background:#FFFFFF;" version="1.1" viewBox="0 0 3624 810" width="3624px" zoomAndPan="magnify"><defs/><g><text fill="#000000" font-family="sans-serif" font-size="14" font-weight="bold" lengthAdjust="spacing" textLength="222" x="1703" y="27.9951">Level 3 FE Diagram for 7.2.2</text><rect fill="#FFFFFF" height="578.2188" style="stroke:#181818;stroke-width:1.0;" width="10" x="36" y="135.5781"/><rect fill="#FFFFFF" height="539.9375" style="stroke:#181818;stroke-width:1.0;" width="10" x="450" y="164.8594"/><rect fill="#FFFFFF" height="37.2813" style="stroke:#181818;stroke-width:1.0;" width="10" x="948" y="202.1406"/><rect fill="#FFFFFF" height="428.0938" style="stroke:#181818;stroke-width:1.0;" width="10" x="1732" y="239.4219"/><rect fill="#FFFFFF" height="353.5313" style="stroke:#181818;stroke-width:1.0;" width="10" x="2052" y="276.7031"/><rect fill="#FFFFFF" height="278.9688" style="stroke:#181818;stroke-width:1.0;" width="10" x="2489" y="313.9844"/><rect fill="#FFFFFF" height="87.5625" style="stroke:#181818;stroke-width:1.0;" width="10" x="3076" y="468.1094"/><line style="stroke:#181818;stroke-width:0.5;stroke-dasharray:5.0,5.0;" x1="41" x2="41" y1="125.5781" y2="722.7969"/><line style="stroke:#181818;stroke-width:0.5;stroke-dasharray:5.0,5.0;" x1="454.5" x2="454.5" y1="125.5781" y2="722.7969"/><line style="stroke:#181818;stroke-width:0.5;stroke-dasharray:5.0,5.0;" x1="953" x2="953" y1="125.5781" y2="722.7969"/><line style="stroke:#181818;stroke-width:0.5;stroke-dasharray:5.0,5.0;" x1="1737" x2="1737" y1="125.5781" y2="722.7969"/><line style="stroke:#181818;stroke-width:0.5;stroke-dasharray:5.0,5.0;" x1="2056.5" x2="2056.5" y1="125.5781" y2="722.7969"/><line style="stroke:#181818;stroke-width:0.5;stroke-dasharray:5.0,5.0;" x1="2493.5" x2="2493.5" y1="125.5781" y2="722.7969"/><line style="stroke:#181818;stroke-width:0.5;stroke-dasharray:5.0,5.0;" x1="3081" x2="3081" y1="125.5781" y2="722.7969"/><text fill="#000000" font-family="sans-serif" font-size="20" lengthAdjust="spacing" textLength="66" x="5" y="120.8613">Admin</text><ellipse cx="41" cy="50.7969" fill="#E2E2F0" rx="8" ry="8" style="stroke:#181818;stroke-width:0.5;"/><path d="M41,58.7969 L41,85.7969 M28,66.7969 L54,66.7969 M41,85.7969 L28,100.7969 M41,85.7969 L54,100.7969 " fill="none" style="stroke:#181818;stroke-width:0.5;"/><text fill="#000000" font-family="sans-serif" font-size="20" lengthAdjust="spacing" textLength="66" x="5" y="740.3613">Admin</text><ellipse cx="41" cy="753.5781" fill="#E2E2F0" rx="8" ry="8" style="stroke:#181818;stroke-width:0.5;"/><path d="M41,761.5781 L41,788.5781 M28,769.5781 L54,769.5781 M41,788.5781 L28,803.5781 M41,788.5781 L54,803.5781 " fill="none" style="stroke:#181818;stroke-width:0.5;"/><rect fill="#E2E2F0" height="37.2813" rx="2.5" ry="2.5" style="stroke:#181818;stroke-width:0.5;" width="63" x="423.5" y="87.2969"/><text fill="#000000" font-family="sans-serif" font-size="20" lengthAdjust="spacing" textLength="49" x="430.5" y="112.8613">View</text><rect fill="#E2E2F0" height="37.2813" rx="2.5" ry="2.5" style="stroke:#181818;stroke-width:0.5;" width="63" x="423.5" y="721.7969"/><text fill="#000000" font-family="sans-serif" font-size="20" lengthAdjust="spacing" textLength="49" x="430.5" y="747.3613">View</text><rect fill="#E2E2F0" height="37.2813" rx="2.5" ry="2.5" style="stroke:#181818;stroke-width:0.5;" width="444" x="731" y="87.2969"/><text fill="#000000" font-family="sans-serif" font-size="20" lengthAdjust="spacing" textLength="430" x="738" y="112.8613">ManageAllergiesAndConditionsComponent</text><rect fill="#E2E2F0" height="37.2813" rx="2.5" ry="2.5" style="stroke:#181818;stroke-width:0.5;" width="444" x="731" y="721.7969"/><text fill="#000000" font-family="sans-serif" font-size="20" lengthAdjust="spacing" textLength="430" x="738" y="747.3613">ManageAllergiesAndConditionsComponent</text><rect fill="#E2E2F0" height="37.2813" rx="2.5" ry="2.5" style="stroke:#181818;stroke-width:0.5;" width="284" x="1595" y="87.2969"/><text fill="#000000" font-family="sans-serif" font-size="20" lengthAdjust="spacing" textLength="270" x="1602" y="112.8613">CreateAllergiesComponent</text><rect fill="#E2E2F0" height="37.2813" rx="2.5" ry="2.5" style="stroke:#181818;stroke-width:0.5;" width="284" x="1595" y="721.7969"/><text fill="#000000" font-family="sans-serif" font-size="20" lengthAdjust="spacing" textLength="270" x="1602" y="747.3613">CreateAllergiesComponent</text><rect fill="#E2E2F0" height="37.2813" rx="2.5" ry="2.5" style="stroke:#181818;stroke-width:0.5;" width="157" x="1978.5" y="87.2969"/><text fill="#000000" font-family="sans-serif" font-size="20" lengthAdjust="spacing" textLength="143" x="1985.5" y="112.8613">AllergyService</text><rect fill="#E2E2F0" height="37.2813" rx="2.5" ry="2.5" style="stroke:#181818;stroke-width:0.5;" width="157" x="1978.5" y="721.7969"/><text fill="#000000" font-family="sans-serif" font-size="20" lengthAdjust="spacing" textLength="143" x="1985.5" y="747.3613">AllergyService</text><rect fill="#E2E2F0" height="37.2813" rx="2.5" ry="2.5" style="stroke:#181818;stroke-width:0.5;" width="173" x="2407.5" y="87.2969"/><text fill="#000000" font-family="sans-serif" font-size="20" lengthAdjust="spacing" textLength="159" x="2414.5" y="112.8613">AuthInterceptor</text><rect fill="#E2E2F0" height="37.2813" rx="2.5" ry="2.5" style="stroke:#181818;stroke-width:0.5;" width="173" x="2407.5" y="721.7969"/><text fill="#000000" font-family="sans-serif" font-size="20" lengthAdjust="spacing" textLength="159" x="2414.5" y="747.3613">AuthInterceptor</text><rect fill="#E2E2F0" height="37.2813" rx="2.5" ry="2.5" style="stroke:#181818;stroke-width:0.5;" width="60" x="3051" y="87.2969"/><text fill="#000000" font-family="sans-serif" font-size="20" lengthAdjust="spacing" textLength="46" x="3058" y="112.8613">MDV</text><rect fill="#E2E2F0" height="37.2813" rx="2.5" ry="2.5" style="stroke:#181818;stroke-width:0.5;" width="60" x="3051" y="721.7969"/><text fill="#000000" font-family="sans-serif" font-size="20" lengthAdjust="spacing" textLength="46" x="3058" y="747.3613">MDV</text><rect fill="#FFFFFF" height="578.2188" style="stroke:#181818;stroke-width:1.0;" width="10" x="36" y="135.5781"/><rect fill="#FFFFFF" height="539.9375" style="stroke:#181818;stroke-width:1.0;" width="10" x="450" y="164.8594"/><rect fill="#FFFFFF" height="37.2813" style="stroke:#181818;stroke-width:1.0;" width="10" x="948" y="202.1406"/><rect fill="#FFFFFF" height="428.0938" style="stroke:#181818;stroke-width:1.0;" width="10" x="1732" y="239.4219"/><rect fill="#FFFFFF" height="353.5313" style="stroke:#181818;stroke-width:1.0;" width="10" x="2052" y="276.7031"/><rect fill="#FFFFFF" height="278.9688" style="stroke:#181818;stroke-width:1.0;" width="10" x="2489" y="313.9844"/><rect fill="#FFFFFF" height="87.5625" style="stroke:#181818;stroke-width:1.0;" width="10" x="3076" y="468.1094"/><polygon fill="#000000" points="438,160.8594,448,164.8594,438,168.8594,442,164.8594" style="stroke:#000000;stroke-width:1.0;"/><line style="stroke:#000000;stroke-width:1.0;" x1="46" x2="444" y1="164.8594" y2="164.8594"/><text fill="#000000" font-family="sans-serif" font-size="20" lengthAdjust="spacing" textLength="248" x="53" y="158.1426">Asks to create an Allergy</text><polygon fill="#000000" points="936,198.1406,946,202.1406,936,206.1406,940,202.1406" style="stroke:#000000;stroke-width:1.0;"/><line style="stroke:#000000;stroke-width:1.0;" x1="460" x2="942" y1="202.1406" y2="202.1406"/><text fill="#000000" font-family="sans-serif" font-size="20" lengthAdjust="spacing" textLength="469" x="467" y="195.4238">routerLink='/manage-allergies-and-conditions'</text><polygon fill="#000000" points="1720,235.4219,1730,239.4219,1720,243.4219,1724,239.4219" style="stroke:#000000;stroke-width:1.0;"/><line style="stroke:#000000;stroke-width:1.0;" x1="953" x2="1726" y1="239.4219" y2="239.4219"/><text fill="#000000" font-family="sans-serif" font-size="20" lengthAdjust="spacing" textLength="755" x="960" y="232.7051">this.router.navigate([`/manage-allergies-and-conditions/create-allergies`]);</text><polygon fill="#000000" points="2040,272.7031,2050,276.7031,2040,280.7031,2044,276.7031" style="stroke:#000000;stroke-width:1.0;"/><line style="stroke:#000000;stroke-width:1.0;" x1="1742" x2="2046" y1="276.7031" y2="276.7031"/><text fill="#000000" font-family="sans-serif" font-size="20" lengthAdjust="spacing" textLength="260" x="1749" y="269.9863">createAllergy(this.allergy)</text><polygon fill="#000000" points="2477,309.9844,2487,313.9844,2477,317.9844,2481,313.9844" style="stroke:#000000;stroke-width:1.0;"/><line style="stroke:#000000;stroke-width:1.0;" x1="2062" x2="2483" y1="313.9844" y2="313.9844"/><text fill="#000000" font-family="sans-serif" font-size="20" lengthAdjust="spacing" textLength="408" x="2069" y="307.2676">Sends HTTP Request to create an Allergy</text><line style="stroke:#000000;stroke-width:1.0;" x1="2499" x2="2541" y1="351.2656" y2="351.2656"/><line style="stroke:#000000;stroke-width:1.0;" x1="2541" x2="2541" y1="351.2656" y2="364.2656"/><line style="stroke:#000000;stroke-width:1.0;" x1="2500" x2="2541" y1="364.2656" y2="364.2656"/><polygon fill="#000000" points="2510,360.2656,2500,364.2656,2510,368.2656,2506,364.2656" style="stroke:#000000;stroke-width:1.0;"/><text fill="#000000" font-family="sans-serif" font-size="20" lengthAdjust="spacing" textLength="563" x="2506" y="344.5488">Intercepts the request and adds the token to the header</text><path d="M2504,377.2656 L2504,433.2656 L3023,433.2656 L3023,387.2656 L3013,377.2656 L2504,377.2656 " fill="#FEFFDD" style="stroke:#181818;stroke-width:0.5;"/><path d="M3013,377.2656 L3013,387.2656 L3023,387.2656 L3013,377.2656 " fill="#FEFFDD" style="stroke:#181818;stroke-width:0.5;"/><text fill="#000000" font-family="sans-serif" font-size="20" lengthAdjust="spacing" textLength="498" x="2510" y="400.8301">The token is added to the header so that the MDV</text><text fill="#000000" font-family="sans-serif" font-size="20" lengthAdjust="spacing" textLength="442" x="2510" y="424.1113">can authenticate and authorize the request.</text><polygon fill="#000000" points="3064,464.1094,3074,468.1094,3064,472.1094,3068,468.1094" style="stroke:#000000;stroke-width:1.0;"/><line style="stroke:#000000;stroke-width:1.0;" x1="2499" x2="3070" y1="468.1094" y2="468.1094"/><text fill="#000000" font-family="sans-serif" font-size="20" lengthAdjust="spacing" textLength="521" x="2506" y="461.3926">Sends HTTP Request with token to create an Allergy</text><line style="stroke:#000000;stroke-width:1.0;" x1="3086" x2="3128" y1="505.3906" y2="505.3906"/><line style="stroke:#000000;stroke-width:1.0;" x1="3128" x2="3128" y1="505.3906" y2="518.3906"/><line style="stroke:#000000;stroke-width:1.0;" x1="3087" x2="3128" y1="518.3906" y2="518.3906"/><polygon fill="#000000" points="3097,514.3906,3087,518.3906,3097,522.3906,3093,518.3906" style="stroke:#000000;stroke-width:1.0;"/><text fill="#000000" font-family="sans-serif" font-size="20" lengthAdjust="spacing" textLength="524" x="3093" y="498.6738">Validates Allergy data and tries to create the Allergy</text><polygon fill="#000000" points="2510,551.6719,2500,555.6719,2510,559.6719,2506,555.6719" style="stroke:#000000;stroke-width:1.0;"/><line style="stroke:#000000;stroke-width:1.0;stroke-dasharray:2.0,2.0;" x1="2504" x2="3080" y1="555.6719" y2="555.6719"/><text fill="#000000" font-family="sans-serif" font-size="20" lengthAdjust="spacing" textLength="311" x="2516" y="548.9551">Returns Operation Status Code</text><polygon fill="#000000" points="2073,588.9531,2063,592.9531,2073,596.9531,2069,592.9531" style="stroke:#000000;stroke-width:1.0;"/><line style="stroke:#000000;stroke-width:1.0;stroke-dasharray:2.0,2.0;" x1="2067" x2="2493" y1="592.9531" y2="592.9531"/><text fill="#000000" font-family="sans-serif" font-size="20" lengthAdjust="spacing" textLength="311" x="2079" y="586.2363">Returns Operation Status Code</text><polygon fill="#000000" points="1753,626.2344,1743,630.2344,1753,634.2344,1749,630.2344" style="stroke:#000000;stroke-width:1.0;"/><line style="stroke:#000000;stroke-width:1.0;stroke-dasharray:2.0,2.0;" x1="1747" x2="2056" y1="630.2344" y2="630.2344"/><text fill="#000000" font-family="sans-serif" font-size="20" lengthAdjust="spacing" textLength="286" x="1759" y="623.5176">Returns Operation Response</text><polygon fill="#000000" points="471,663.5156,461,667.5156,471,671.5156,467,667.5156" style="stroke:#000000;stroke-width:1.0;"/><line style="stroke:#000000;stroke-width:1.0;stroke-dasharray:2.0,2.0;" x1="465" x2="1736" y1="667.5156" y2="667.5156"/><text fill="#000000" font-family="sans-serif" font-size="20" lengthAdjust="spacing" textLength="380" x="477" y="660.7988">Returns Operation In/Sucess message</text><polygon fill="#000000" points="57,700.7969,47,704.7969,57,708.7969,53,704.7969" style="stroke:#000000;stroke-width:1.0;"/><line style="stroke:#000000;stroke-width:1.0;stroke-dasharray:2.0,2.0;" x1="51" x2="454" y1="704.7969" y2="704.7969"/><text fill="#000000" font-family="sans-serif" font-size="20" lengthAdjust="spacing" textLength="380" x="63" y="698.0801">Returns Operation In/Sucess message</text><!--SRC=[bLHTJzim57tthxY21-2XXNKQR1r3IjD6gmHY8YWlqoHCV6cy9dPdEqLisd_VjPD-1AgnLKebtvnpVCxrTUnSgWKtl2frFaS10XzuNRf4AvVAdmY34yQST2N29IwnXBUGJ60i-OmeyA0DdFK7_G4hf430Qk6UeCBg7erbpAwa8I-vjV2B0Vr6F9_FZAwLY7MfpVdvafSrNjz_nznTNC3- -7GI9UztGutM0PEC9wFnoMwCHREKEGQfDybWCje58ub9yc5o5jv5nkZ7fZmg2ST-RtjVK8NFSBTxs9-CadV9o5DuxgWGYKegu1OYHdmdSxdWoi5U9l5npzUpRlsAArAFoXBDJAADlB0IqacjRAohXLQeN21UHN6N6XlaRaFjekFdw0Rtb3Rj2PWeVGQfNJ5L3asE2yhIOARF_8wpniqu2v7baZnGs0Xw5v0D8R9p2qv37im1Lz1kl05dBFDWoZC4QYNjTodL_DF1SHLwqUEhH3skH2zVj-DW8-5xGO-NYRsCAwJjDrfznPToHg33htUlAHutBZVlxxuTVMG2E_ki5xwbB6vsZT9X6x6DTnWiD49FHrkTILcK1iPq22agOU7pxUqNkC4VDLhtIgke-z5qnLuV3JMuG32j0aK2BaHJT7gEoelwHO5Se65AavAHiyA1Vl2IVf1lrs1fFPskVeS5rg-u2oL_s9wKaqTEGq939lF6imW5RVotOijLdr5Ky3kt0KXYP_v7wOgDwx-qmdkWPwsLyL8AUc5NKA0L3uwSeQFSalE-Ldf1ecte3RhQA0lN2pJS3mIaZhkQBeyMs1a3sjl7Q0_-dtd- -D902rFwadU3bkwixPBIPiYQ-_IICrN7QPqZVL0h-gFntYQ76MqJ_ZSvOty0]--></g></svg>