<?xml version="1.0" encoding="UTF-8" standalone="no"?><svg xmlns="http://www.w3.org/2000/svg" xmlns:xlink="http://www.w3.org/1999/xlink" contentStyleType="text/css" height="435px" preserveAspectRatio="none" style="width:2098px;height:435px;background:#FFFFFF;" version="1.1" viewBox="0 0 2098 435" width="2098px" zoomAndPan="magnify"><defs><filter height="300%" id="f14sdxdnaw2x1r" width="300%" x="-1" y="-1"><feGaussianBlur result="blurOut" stdDeviation="2.0"/><feColorMatrix in="blurOut" result="blurOut2" type="matrix" values="0 0 0 0 0 0 0 0 0 0 0 0 0 0 0 0 0 0 .4 0"/><feOffset dx="4.0" dy="4.0" in="blurOut2" result="blurOut3"/><feBlend in="SourceGraphic" in2="blurOut3" mode="normal"/></filter></defs><g><text fill="#000000" font-family="sans-serif" font-size="14" font-weight="bold" lengthAdjust="spacing" textLength="181" x="960.75" y="27.9951">5.1.20 Level 2 Diagram</text><rect fill="#FFFFFF" filter="url(#f14sdxdnaw2x1r)" height="191.4063" style="stroke:#181818;stroke-width:1.0;" width="10" x="36.5" y="138.5781"/><rect fill="#FFFFFF" filter="url(#f14sdxdnaw2x1r)" height="171.125" style="stroke:#181818;stroke-width:1.0;" width="10" x="965.5" y="167.8594"/><rect fill="#FFFFFF" filter="url(#f14sdxdnaw2x1r)" height="87.5625" style="stroke:#181818;stroke-width:1.0;" width="10" x="1788.5" y="205.1406"/><line style="stroke:#181818;stroke-width:0.5;stroke-dasharray:5.0,5.0;" x1="41" x2="41" y1="128.5781" y2="347.9844"/><line style="stroke:#181818;stroke-width:0.5;stroke-dasharray:5.0,5.0;" x1="970.5" x2="970.5" y1="128.5781" y2="347.9844"/><line style="stroke:#181818;stroke-width:0.5;stroke-dasharray:5.0,5.0;" x1="1793" x2="1793" y1="128.5781" y2="347.9844"/><text fill="#000000" font-family="sans-serif" font-size="20" lengthAdjust="spacing" textLength="67" x="5" y="123.8613">ADMIN</text><ellipse cx="41.5" cy="50.7969" fill="#E2E2F0" filter="url(#f14sdxdnaw2x1r)" rx="8" ry="8" style="stroke:#181818;stroke-width:0.5;"/><path d="M41.5,58.7969 L41.5,85.7969 M28.5,66.7969 L54.5,66.7969 M41.5,85.7969 L28.5,100.7969 M41.5,85.7969 L54.5,100.7969 " fill="none" filter="url(#f14sdxdnaw2x1r)" style="stroke:#181818;stroke-width:0.5;"/><text fill="#000000" font-family="sans-serif" font-size="20" lengthAdjust="spacing" textLength="67" x="5" y="365.5488">ADMIN</text><ellipse cx="41.5" cy="378.7656" fill="#E2E2F0" filter="url(#f14sdxdnaw2x1r)" rx="8" ry="8" style="stroke:#181818;stroke-width:0.5;"/><path d="M41.5,386.7656 L41.5,413.7656 M28.5,394.7656 L54.5,394.7656 M41.5,413.7656 L28.5,428.7656 M41.5,413.7656 L54.5,428.7656 " fill="none" filter="url(#f14sdxdnaw2x1r)" style="stroke:#181818;stroke-width:0.5;"/><rect fill="#E2E2F0" filter="url(#f14sdxdnaw2x1r)" height="37.2813" rx="2.5" ry="2.5" style="stroke:#181818;stroke-width:0.5;" width="35" x="951.5" y="87.2969"/><text fill="#000000" font-family="sans-serif" font-size="20" lengthAdjust="spacing" textLength="21" x="958.5" y="112.8613">UI</text><rect fill="#E2E2F0" filter="url(#f14sdxdnaw2x1r)" height="37.2813" rx="2.5" ry="2.5" style="stroke:#181818;stroke-width:0.5;" width="35" x="951.5" y="346.9844"/><text fill="#000000" font-family="sans-serif" font-size="20" lengthAdjust="spacing" textLength="21" x="958.5" y="372.5488">UI</text><rect fill="#E2E2F0" filter="url(#f14sdxdnaw2x1r)" height="37.2813" rx="2.5" ry="2.5" style="stroke:#181818;stroke-width:0.5;" width="60" x="1762" y="87.2969"/><text fill="#000000" font-family="sans-serif" font-size="20" lengthAdjust="spacing" textLength="46" x="1769" y="112.8613">MDR</text><rect fill="#E2E2F0" filter="url(#f14sdxdnaw2x1r)" height="37.2813" rx="2.5" ry="2.5" style="stroke:#181818;stroke-width:0.5;" width="60" x="1762" y="346.9844"/><text fill="#000000" font-family="sans-serif" font-size="20" lengthAdjust="spacing" textLength="46" x="1769" y="372.5488">MDR</text><rect fill="#FFFFFF" filter="url(#f14sdxdnaw2x1r)" height="191.4063" style="stroke:#181818;stroke-width:1.0;" width="10" x="36.5" y="138.5781"/><rect fill="#FFFFFF" filter="url(#f14sdxdnaw2x1r)" height="171.125" style="stroke:#181818;stroke-width:1.0;" width="10" x="965.5" y="167.8594"/><rect fill="#FFFFFF" filter="url(#f14sdxdnaw2x1r)" height="87.5625" style="stroke:#181818;stroke-width:1.0;" width="10" x="1788.5" y="205.1406"/><polygon fill="#181818" points="953.5,163.8594,963.5,167.8594,953.5,171.8594,957.5,167.8594" style="stroke:#181818;stroke-width:1.0;"/><line style="stroke:#181818;stroke-width:1.0;" x1="46.5" x2="959.5" y1="167.8594" y2="167.8594"/><text fill="#000000" font-family="sans-serif" font-size="20" lengthAdjust="spacing" textLength="900" x="53.5" y="161.1426">Create new types of operations (name, requiredStaffBySpecialization, estimatedDuration)</text><polygon fill="#181818" points="1776.5,201.1406,1786.5,205.1406,1776.5,209.1406,1780.5,205.1406" style="stroke:#181818;stroke-width:1.0;"/><line style="stroke:#181818;stroke-width:1.0;" x1="975.5" x2="1782.5" y1="205.1406" y2="205.1406"/><text fill="#000000" font-family="sans-serif" font-size="20" lengthAdjust="spacing" textLength="794" x="982.5" y="198.4238">createOperationType(name, requiredStaffBySpecialization, estimatedDuration)</text><line style="stroke:#181818;stroke-width:1.0;stroke-dasharray:2.0,2.0;" x1="1798.5" x2="1840.5" y1="242.4219" y2="242.4219"/><line style="stroke:#181818;stroke-width:1.0;stroke-dasharray:2.0,2.0;" x1="1840.5" x2="1840.5" y1="242.4219" y2="255.4219"/><line style="stroke:#181818;stroke-width:1.0;stroke-dasharray:2.0,2.0;" x1="1799.5" x2="1840.5" y1="255.4219" y2="255.4219"/><polygon fill="#181818" points="1809.5,251.4219,1799.5,255.4219,1809.5,259.4219,1805.5,255.4219" style="stroke:#181818;stroke-width:1.0;"/><text fill="#000000" font-family="sans-serif" font-size="20" lengthAdjust="spacing" textLength="286" x="1805.5" y="235.7051">Validate operation type data</text><polygon fill="#181818" points="986.5,288.7031,976.5,292.7031,986.5,296.7031,982.5,292.7031" style="stroke:#181818;stroke-width:1.0;"/><line style="stroke:#181818;stroke-width:1.0;stroke-dasharray:2.0,2.0;" x1="980.5" x2="1792.5" y1="292.7031" y2="292.7031"/><text fill="#000000" font-family="sans-serif" font-size="20" lengthAdjust="spacing" textLength="371" x="992.5" y="285.9863">200 (Success) OR 400 (Bad Request)</text><polygon fill="#181818" points="52.5,325.9844,42.5,329.9844,52.5,333.9844,48.5,329.9844" style="stroke:#181818;stroke-width:1.0;"/><line style="stroke:#181818;stroke-width:1.0;" x1="46.5" x2="964.5" y1="329.9844" y2="329.9844"/><text fill="#000000" font-family="sans-serif" font-size="20" lengthAdjust="spacing" textLength="371" x="58.5" y="323.2676">200 (Success) OR 400 (Bad Request)</text><!--SRC=[fL5DJyCm3BttL_Z69ksZL73P0McZGgh4cBHIxbRYhj7If4lSJTkl9naCXZWX3f6iz_pUins_LQP3XwssOaiI9DNOQtwoXajr8iZIvAPXxlniEkqq6kvRFH6sdNhQzMG4ZQN2JT0d_k843HfvS8gP3DIeFLrnhJLMDCwsz8lgK6nnGoKVDO4ZmLUSRr3QWp8RODTJmef3p_taTfAby4nxqf11_Zb8WeAjWtc-B5u0VIWYelR85Ejv3kC7g8ePF3gAcA43yB4Z3xO6sv53LjPu61XiQHGcsVNAaImPwtfnB3iI2hKwdRj6G9vL6snatdy8XzzfLP5KHGXRvkiPY7FQwkB_6XB_dn2Sa_1WV4bv2q8PcQz5phj1mF2hCowVfIaCobu8ydu8gpNSHM214jRnPpqF4qa_SgeY7cwU_rKRRluE]--></g></svg>