<?xml version="1.0" encoding="UTF-8" standalone="no"?><svg xmlns="http://www.w3.org/2000/svg" xmlns:xlink="http://www.w3.org/1999/xlink" contentStyleType="text/css" height="840px" preserveAspectRatio="none" style="width:3345px;height:840px;background:#FFFFFF;" version="1.1" viewBox="0 0 3345 840" width="3345px" zoomAndPan="magnify"><defs/><g><text fill="#000000" font-family="sans-serif" font-size="14" font-weight="bold" lengthAdjust="spacing" textLength="149" x="1600" y="27.9951">Level 3 FE Diagram</text><rect fill="#FFFFFF" height="608.2188" style="stroke:#181818;stroke-width:1.0;" width="10" x="36" y="135.5781"/><rect fill="#FFFFFF" height="569.9375" style="stroke:#181818;stroke-width:1.0;" width="10" x="335" y="164.8594"/><rect fill="#FFFFFF" height="67.2813" style="stroke:#181818;stroke-width:1.0;" width="10" x="668" y="202.1406"/><rect fill="#FFFFFF" height="458.0938" style="stroke:#181818;stroke-width:1.0;" width="10" x="1067" y="239.4219"/><rect fill="#FFFFFF" height="353.5313" style="stroke:#181818;stroke-width:1.0;" width="10" x="1387" y="306.7031"/><rect fill="#FFFFFF" height="278.9688" style="stroke:#181818;stroke-width:1.0;" width="10" x="2008" y="343.9844"/><rect fill="#FFFFFF" height="87.5625" style="stroke:#181818;stroke-width:1.0;" width="10" x="2781" y="498.1094"/><line style="stroke:#181818;stroke-width:0.5;stroke-dasharray:5.0,5.0;" x1="41" x2="41" y1="125.5781" y2="752.7969"/><line style="stroke:#181818;stroke-width:0.5;stroke-dasharray:5.0,5.0;" x1="339.5" x2="339.5" y1="125.5781" y2="752.7969"/><line style="stroke:#181818;stroke-width:0.5;stroke-dasharray:5.0,5.0;" x1="673" x2="673" y1="125.5781" y2="752.7969"/><line style="stroke:#181818;stroke-width:0.5;stroke-dasharray:5.0,5.0;" x1="1071.5" x2="1071.5" y1="125.5781" y2="752.7969"/><line style="stroke:#181818;stroke-width:0.5;stroke-dasharray:5.0,5.0;" x1="1391.5" x2="1391.5" y1="125.5781" y2="752.7969"/><line style="stroke:#181818;stroke-width:0.5;stroke-dasharray:5.0,5.0;" x1="2012.5" x2="2012.5" y1="125.5781" y2="752.7969"/><line style="stroke:#181818;stroke-width:0.5;stroke-dasharray:5.0,5.0;" x1="2786" x2="2786" y1="125.5781" y2="752.7969"/><text fill="#000000" font-family="sans-serif" font-size="20" lengthAdjust="spacing" textLength="66" x="5" y="120.8613">Admin</text><ellipse cx="41" cy="50.7969" fill="#E2E2F0" rx="8" ry="8" style="stroke:#181818;stroke-width:0.5;"/><path d="M41,58.7969 L41,85.7969 M28,66.7969 L54,66.7969 M41,85.7969 L28,100.7969 M41,85.7969 L54,100.7969 " fill="none" style="stroke:#181818;stroke-width:0.5;"/><text fill="#000000" font-family="sans-serif" font-size="20" lengthAdjust="spacing" textLength="66" x="5" y="770.3613">Admin</text><ellipse cx="41" cy="783.5781" fill="#E2E2F0" rx="8" ry="8" style="stroke:#181818;stroke-width:0.5;"/><path d="M41,791.5781 L41,818.5781 M28,799.5781 L54,799.5781 M41,818.5781 L28,833.5781 M41,818.5781 L54,833.5781 " fill="none" style="stroke:#181818;stroke-width:0.5;"/><rect fill="#E2E2F0" height="37.2813" rx="2.5" ry="2.5" style="stroke:#181818;stroke-width:0.5;" width="63" x="308.5" y="87.2969"/><text fill="#000000" font-family="sans-serif" font-size="20" lengthAdjust="spacing" textLength="49" x="315.5" y="112.8613">View</text><rect fill="#E2E2F0" height="37.2813" rx="2.5" ry="2.5" style="stroke:#181818;stroke-width:0.5;" width="63" x="308.5" y="751.7969"/><text fill="#000000" font-family="sans-serif" font-size="20" lengthAdjust="spacing" textLength="49" x="315.5" y="777.3613">View</text><rect fill="#E2E2F0" height="37.2813" rx="2.5" ry="2.5" style="stroke:#181818;stroke-width:0.5;" width="252" x="547" y="87.2969"/><text fill="#000000" font-family="sans-serif" font-size="20" lengthAdjust="spacing" textLength="238" x="554" y="112.8613">PanelAdminComponent</text><rect fill="#E2E2F0" height="37.2813" rx="2.5" ry="2.5" style="stroke:#181818;stroke-width:0.5;" width="252" x="547" y="751.7969"/><text fill="#000000" font-family="sans-serif" font-size="20" lengthAdjust="spacing" textLength="238" x="554" y="777.3613">PanelAdminComponent</text><rect fill="#E2E2F0" height="37.2813" rx="2.5" ry="2.5" style="stroke:#181818;stroke-width:0.5;" width="289" x="927.5" y="87.2969"/><text fill="#000000" font-family="sans-serif" font-size="20" lengthAdjust="spacing" textLength="275" x="934.5" y="112.8613">OperationTypesComponent</text><rect fill="#E2E2F0" height="37.2813" rx="2.5" ry="2.5" style="stroke:#181818;stroke-width:0.5;" width="289" x="927.5" y="751.7969"/><text fill="#000000" font-family="sans-serif" font-size="20" lengthAdjust="spacing" textLength="275" x="934.5" y="777.3613">OperationTypesComponent</text><rect fill="#E2E2F0" height="37.2813" rx="2.5" ry="2.5" style="stroke:#181818;stroke-width:0.5;" width="235" x="1274.5" y="87.2969"/><text fill="#000000" font-family="sans-serif" font-size="20" lengthAdjust="spacing" textLength="221" x="1281.5" y="112.8613">OperationTypeService</text><rect fill="#E2E2F0" height="37.2813" rx="2.5" ry="2.5" style="stroke:#181818;stroke-width:0.5;" width="235" x="1274.5" y="751.7969"/><text fill="#000000" font-family="sans-serif" font-size="20" lengthAdjust="spacing" textLength="221" x="1281.5" y="777.3613">OperationTypeService</text><rect fill="#E2E2F0" height="37.2813" rx="2.5" ry="2.5" style="stroke:#181818;stroke-width:0.5;" width="173" x="1926.5" y="87.2969"/><text fill="#000000" font-family="sans-serif" font-size="20" lengthAdjust="spacing" textLength="159" x="1933.5" y="112.8613">AuthInterceptor</text><rect fill="#E2E2F0" height="37.2813" rx="2.5" ry="2.5" style="stroke:#181818;stroke-width:0.5;" width="173" x="1926.5" y="751.7969"/><text fill="#000000" font-family="sans-serif" font-size="20" lengthAdjust="spacing" textLength="159" x="1933.5" y="777.3613">AuthInterceptor</text><rect fill="#E2E2F0" height="37.2813" rx="2.5" ry="2.5" style="stroke:#181818;stroke-width:0.5;" width="60" x="2756" y="87.2969"/><text fill="#000000" font-family="sans-serif" font-size="20" lengthAdjust="spacing" textLength="46" x="2763" y="112.8613">MDR</text><rect fill="#E2E2F0" height="37.2813" rx="2.5" ry="2.5" style="stroke:#181818;stroke-width:0.5;" width="60" x="2756" y="751.7969"/><text fill="#000000" font-family="sans-serif" font-size="20" lengthAdjust="spacing" textLength="46" x="2763" y="777.3613">MDR</text><rect fill="#FFFFFF" height="608.2188" style="stroke:#181818;stroke-width:1.0;" width="10" x="36" y="135.5781"/><rect fill="#FFFFFF" height="569.9375" style="stroke:#181818;stroke-width:1.0;" width="10" x="335" y="164.8594"/><rect fill="#FFFFFF" height="67.2813" style="stroke:#181818;stroke-width:1.0;" width="10" x="668" y="202.1406"/><rect fill="#FFFFFF" height="458.0938" style="stroke:#181818;stroke-width:1.0;" width="10" x="1067" y="239.4219"/><rect fill="#FFFFFF" height="353.5313" style="stroke:#181818;stroke-width:1.0;" width="10" x="1387" y="306.7031"/><rect fill="#FFFFFF" height="278.9688" style="stroke:#181818;stroke-width:1.0;" width="10" x="2008" y="343.9844"/><rect fill="#FFFFFF" height="87.5625" style="stroke:#181818;stroke-width:1.0;" width="10" x="2781" y="498.1094"/><polygon fill="#000000" points="323,160.8594,333,164.8594,323,168.8594,327,164.8594" style="stroke:#000000;stroke-width:1.0;"/><line style="stroke:#000000;stroke-width:1.0;" x1="46" x2="329" y1="164.8594" y2="164.8594"/><text fill="#000000" font-family="sans-serif" font-size="20" lengthAdjust="spacing" textLength="270" x="53" y="158.1426">Asks to list operation types</text><polygon fill="#000000" points="656,198.1406,666,202.1406,656,206.1406,660,202.1406" style="stroke:#000000;stroke-width:1.0;"/><line style="stroke:#000000;stroke-width:1.0;" x1="345" x2="662" y1="202.1406" y2="202.1406"/><text fill="#000000" font-family="sans-serif" font-size="20" lengthAdjust="spacing" textLength="304" x="352" y="195.4238">routerLink="/operation-types"</text><polygon fill="#000000" points="1055,235.4219,1065,239.4219,1055,243.4219,1059,239.4219" style="stroke:#000000;stroke-width:1.0;"/><line style="stroke:#000000;stroke-width:1.0;" x1="678" x2="1061" y1="239.4219" y2="239.4219"/><text fill="#000000" font-family="sans-serif" font-size="20" lengthAdjust="spacing" textLength="370" x="685" y="232.7051">routes to OperationTypesComponent</text><polygon fill="#000000" points="1375,302.7031,1385,306.7031,1375,310.7031,1379,306.7031" style="stroke:#000000;stroke-width:1.0;"/><line style="stroke:#000000;stroke-width:1.0;" x1="1077" x2="1381" y1="306.7031" y2="306.7031"/><text fill="#000000" font-family="sans-serif" font-size="20" lengthAdjust="spacing" textLength="207" x="1084" y="299.9863">getOperationTypes()</text><polygon fill="#000000" points="1996,339.9844,2006,343.9844,1996,347.9844,2000,343.9844" style="stroke:#000000;stroke-width:1.0;"/><line style="stroke:#000000;stroke-width:1.0;" x1="1397" x2="2002" y1="343.9844" y2="343.9844"/><text fill="#000000" font-family="sans-serif" font-size="20" lengthAdjust="spacing" textLength="592" x="1404" y="337.2676">Sends HTTP request to list the default operation types's list</text><line style="stroke:#000000;stroke-width:1.0;" x1="2018" x2="2060" y1="381.2656" y2="381.2656"/><line style="stroke:#000000;stroke-width:1.0;" x1="2060" x2="2060" y1="381.2656" y2="394.2656"/><line style="stroke:#000000;stroke-width:1.0;" x1="2019" x2="2060" y1="394.2656" y2="394.2656"/><polygon fill="#000000" points="2029,390.2656,2019,394.2656,2029,398.2656,2025,394.2656" style="stroke:#000000;stroke-width:1.0;"/><text fill="#000000" font-family="sans-serif" font-size="20" lengthAdjust="spacing" textLength="563" x="2025" y="374.5488">Intercepts the request and adds the token to the header</text><path d="M2023,407.2656 L2023,463.2656 L2542,463.2656 L2542,417.2656 L2532,407.2656 L2023,407.2656 " fill="#FEFFDD" style="stroke:#181818;stroke-width:0.5;"/><path d="M2532,407.2656 L2532,417.2656 L2542,417.2656 L2532,407.2656 " fill="#FEFFDD" style="stroke:#181818;stroke-width:0.5;"/><text fill="#000000" font-family="sans-serif" font-size="20" lengthAdjust="spacing" textLength="498" x="2029" y="430.8301">The token is added to the header so that the MDR</text><text fill="#000000" font-family="sans-serif" font-size="20" lengthAdjust="spacing" textLength="442" x="2029" y="454.1113">can authenticate and authorize the request.</text><polygon fill="#000000" points="2769,494.1094,2779,498.1094,2769,502.1094,2773,498.1094" style="stroke:#000000;stroke-width:1.0;"/><line style="stroke:#000000;stroke-width:1.0;" x1="2018" x2="2775" y1="498.1094" y2="498.1094"/><text fill="#000000" font-family="sans-serif" font-size="20" lengthAdjust="spacing" textLength="744" x="2025" y="491.3926">Sends HTTP request with the token to list the default operation types's list</text><line style="stroke:#000000;stroke-width:1.0;" x1="2791" x2="2833" y1="535.3906" y2="535.3906"/><line style="stroke:#000000;stroke-width:1.0;" x1="2833" x2="2833" y1="535.3906" y2="548.3906"/><line style="stroke:#000000;stroke-width:1.0;" x1="2792" x2="2833" y1="548.3906" y2="548.3906"/><polygon fill="#000000" points="2802,544.3906,2792,548.3906,2802,552.3906,2798,548.3906" style="stroke:#000000;stroke-width:1.0;"/><text fill="#000000" font-family="sans-serif" font-size="20" lengthAdjust="spacing" textLength="540" x="2798" y="528.6738">Validates the data and tries to list the operation types</text><polygon fill="#000000" points="2029,581.6719,2019,585.6719,2029,589.6719,2025,585.6719" style="stroke:#000000;stroke-width:1.0;"/><line style="stroke:#000000;stroke-width:1.0;stroke-dasharray:2.0,2.0;" x1="2023" x2="2785" y1="585.6719" y2="585.6719"/><text fill="#000000" font-family="sans-serif" font-size="20" lengthAdjust="spacing" textLength="311" x="2035" y="578.9551">Returns Operation Status Code</text><polygon fill="#000000" points="1408,618.9531,1398,622.9531,1408,626.9531,1404,622.9531" style="stroke:#000000;stroke-width:1.0;"/><line style="stroke:#000000;stroke-width:1.0;stroke-dasharray:2.0,2.0;" x1="1402" x2="2012" y1="622.9531" y2="622.9531"/><text fill="#000000" font-family="sans-serif" font-size="20" lengthAdjust="spacing" textLength="311" x="1414" y="616.2363">Returns Operation Status Code</text><polygon fill="#000000" points="1088,656.2344,1078,660.2344,1088,664.2344,1084,660.2344" style="stroke:#000000;stroke-width:1.0;"/><line style="stroke:#000000;stroke-width:1.0;stroke-dasharray:2.0,2.0;" x1="1082" x2="1391" y1="660.2344" y2="660.2344"/><text fill="#000000" font-family="sans-serif" font-size="20" lengthAdjust="spacing" textLength="286" x="1094" y="653.5176">Returns Operation Response</text><polygon fill="#000000" points="356,693.5156,346,697.5156,356,701.5156,352,697.5156" style="stroke:#000000;stroke-width:1.0;"/><line style="stroke:#000000;stroke-width:1.0;stroke-dasharray:2.0,2.0;" x1="350" x2="1071" y1="697.5156" y2="697.5156"/><text fill="#000000" font-family="sans-serif" font-size="20" lengthAdjust="spacing" textLength="361" x="362" y="690.7988">Returns ManagePatientsComponent</text><polygon fill="#000000" points="57,730.7969,47,734.7969,57,738.7969,53,734.7969" style="stroke:#000000;stroke-width:1.0;"/><line style="stroke:#000000;stroke-width:1.0;stroke-dasharray:2.0,2.0;" x1="51" x2="339" y1="734.7969" y2="734.7969"/><text fill="#000000" font-family="sans-serif" font-size="20" lengthAdjust="spacing" textLength="182" x="63" y="728.0801">Displays initial list</text><!--SRC=[bLJBRjim4BppAnRE8UqXRPgYBoCD83-46eWHmJ9qPwIDpLecLNBb82twxrrIbYsbRj4Aq87KpCxkS2YtKRgILcvBas-mW08VP5rIR3IbwZl2rQKGfAX4kCKTbl0MuYbCb5mnHOYrAX1mMz4JR75xZzQ9SzTMX5kbaPug16DfROGuVibBwHpy4C3FIEQRbJMrBiQcDFRwUYVB6k_kls9EDpTmDda_ZUAFfw7Mc8299zFHvF8qng7TgHn3gJVnrNHq2iObfl6dwOVmBRBMF3RRev9nucUtzuftv0fFTmzdqr7yBXunHUR4wwZOAWtIGIIOJYfNbTG4WqpXuy3lP_tzH6ei0sbijfNHg2d0acZS1zvLQ2KfevViiEk3vybVi6dZHrCrxGEZcjOpJMXphBZxW8bcVSnyicX49WlXXrGxISZZHN1n0zaG8hTnG0PAvGXCgmm-2Ew8pqJcyJpM4DW-bkIqR3uFNXyO5u4nE5Ay1VnwsZpPiuBI7wmuCjcF0djrvabGJuUmGkhpNxpiIAOYIJqocWqXHLqu-B9S9c3nMuqyNZichR6zESz7FdS1qd5g9g9PM_DWjWirshfI5o2Bejaaiq7jfVnYZR90AxJXIbQjrgptu4lwB2uFOEKydQzpZmNEhsJJhZy-JyebnvEFdGrJkUylQFE6iVx-Txfw9TW0yChx0RZ4ILSU5QtxdV-tIRuxVWygcInL8SDv-ogIPEYJh4BN4tWUk51aR_O2gRRQ7VC2AKcg7OnDWTs4U7K_uZuY_ypZS_1nsGVqTze27KVJzJWSCH_6vkwqbBdK_8j9cCN7qabqjyV4to0_sP3_nwugvPC3fHKfMJPcTi3PBm00]--></g></svg>