<?xml version="1.0" encoding="UTF-8" standalone="no"?><svg xmlns="http://www.w3.org/2000/svg" xmlns:xlink="http://www.w3.org/1999/xlink" contentStyleType="text/css" height="2246px" preserveAspectRatio="none" style="width:5777px;height:2246px;background:#FFFFFF;" version="1.1" viewBox="0 0 5777 2246" width="5777px" zoomAndPan="magnify"><defs/><g><text fill="#000000" font-family="sans-serif" font-size="14" font-weight="bold" lengthAdjust="spacing" textLength="166" x="2807.75" y="27.9951">Level 3 MDV Diagram</text><rect fill="#FFFFFF" height="699.3438" style="stroke:#181818;stroke-width:1.0;" width="10" x="19.5" y="90.5781"/><rect fill="#FFFFFF" height="1367.5625" style="stroke:#181818;stroke-width:1.0;" width="10" x="19.5" y="827.2031"/><rect fill="#FFFFFF" height="670.0625" style="stroke:#181818;stroke-width:1.0;" width="10" x="445.5" y="119.8594"/><rect fill="#FFFFFF" height="595.5" style="stroke:#181818;stroke-width:1.0;" width="10" x="784.5" y="157.1406"/><rect fill="#FFFFFF" height="520.9375" style="stroke:#181818;stroke-width:1.0;" width="10" x="1074.5" y="194.4219"/><rect fill="#FFFFFF" height="236.6875" style="stroke:#181818;stroke-width:1.0;" width="10" x="1248.5" y="231.7031"/><rect fill="#FFFFFF" height="162.125" style="stroke:#181818;stroke-width:1.0;" width="10" x="1424" y="268.9844"/><rect fill="#FFFFFF" height="124.8438" style="stroke:#181818;stroke-width:1.0;" width="10" x="1584" y="546.2344"/><rect fill="#FFFFFF" height="43.2813" style="stroke:#181818;stroke-width:1.0;" width="10" x="1799" y="583.5156"/><rect fill="#FFFFFF" height="1358.5625" style="stroke:#181818;stroke-width:1.0;" width="10" x="1973" y="827.2031"/><rect fill="#FFFFFF" height="1284" style="stroke:#181818;stroke-width:1.0;" width="10" x="2447" y="864.4844"/><rect fill="#FFFFFF" height="1209.4375" style="stroke:#181818;stroke-width:1.0;" width="10" x="2860" y="901.7656"/><rect fill="#FFFFFF" height="760.3438" style="stroke:#181818;stroke-width:1.0;" width="10" x="3105.5" y="1151.4531"/><rect fill="#FFFFFF" height="162.125" style="stroke:#181818;stroke-width:1.0;" width="10" x="3461.5" y="1188.7344"/><rect fill="#FFFFFF" height="162.125" style="stroke:#181818;stroke-width:1.0;" width="10" x="3461.5" y="1550.2656"/><rect fill="#FFFFFF" height="124.8438" style="stroke:#181818;stroke-width:1.0;" width="10" x="3695.5" y="1388.1406"/><rect fill="#FFFFFF" height="124.8438" style="stroke:#181818;stroke-width:1.0;" width="10" x="3695.5" y="1749.6719"/><rect fill="#FFFFFF" height="124.8438" style="stroke:#181818;stroke-width:1.0;" width="10" x="3695.5" y="1949.0781"/><rect fill="#FFFFFF" height="43.2813" style="stroke:#181818;stroke-width:1.0;" width="10" x="4019.5" y="939.0469"/><rect fill="#FFFFFF" height="43.2813" style="stroke:#181818;stroke-width:1.0;" width="10" x="4019.5" y="1786.9531"/><rect fill="#FFFFFF" height="43.2813" style="stroke:#181818;stroke-width:1.0;" width="10" x="4232.5" y="1425.4219"/><rect fill="#FFFFFF" height="43.2813" style="stroke:#181818;stroke-width:1.0;" width="10" x="4467" y="1986.3594"/><rect fill="#FFFFFF" height="87.5625" style="stroke:#181818;stroke-width:1.0;" width="10" x="4601.5" y="1026.6094"/><rect fill="#FFFFFF" height="87.5625" style="stroke:#181818;stroke-width:1.0;" width="10" x="5135.5" y="306.2656"/><rect fill="#FFFFFF" height="87.5625" style="stroke:#181818;stroke-width:1.0;" width="10" x="5135.5" y="1226.0156"/><rect fill="#FFFFFF" height="87.5625" style="stroke:#181818;stroke-width:1.0;" width="10" x="5135.5" y="1587.5469"/><rect fill="#EBF5FB" height="195.6875" style="stroke:#000000;stroke-width:1.5;" width="910" x="997" y="483.3906"/><line style="stroke:#181818;stroke-width:0.5;stroke-dasharray:5.0,5.0;" x1="24" x2="24" y1="80.5781" y2="2203.7656"/><line style="stroke:#181818;stroke-width:0.5;stroke-dasharray:5.0,5.0;" x1="450" x2="450" y1="80.5781" y2="2203.7656"/><line style="stroke:#181818;stroke-width:0.5;stroke-dasharray:5.0,5.0;" x1="789" x2="789" y1="80.5781" y2="2203.7656"/><line style="stroke:#181818;stroke-width:0.5;stroke-dasharray:5.0,5.0;" x1="1079" x2="1079" y1="80.5781" y2="2203.7656"/><line style="stroke:#181818;stroke-width:0.5;stroke-dasharray:5.0,5.0;" x1="1253.5" x2="1253.5" y1="80.5781" y2="2203.7656"/><line style="stroke:#181818;stroke-width:0.5;stroke-dasharray:5.0,5.0;" x1="1428.5" x2="1428.5" y1="80.5781" y2="2203.7656"/><line style="stroke:#181818;stroke-width:0.5;stroke-dasharray:5.0,5.0;" x1="1588.5" x2="1588.5" y1="80.5781" y2="2203.7656"/><line style="stroke:#181818;stroke-width:0.5;stroke-dasharray:5.0,5.0;" x1="1803.5" x2="1803.5" y1="80.5781" y2="2203.7656"/><line style="stroke:#181818;stroke-width:0.5;stroke-dasharray:5.0,5.0;" x1="1977.5" x2="1977.5" y1="80.5781" y2="2203.7656"/><line style="stroke:#181818;stroke-width:0.5;stroke-dasharray:5.0,5.0;" x1="2451.5" x2="2451.5" y1="80.5781" y2="2203.7656"/><line style="stroke:#181818;stroke-width:0.5;stroke-dasharray:5.0,5.0;" x1="2864.5" x2="2864.5" y1="80.5781" y2="2203.7656"/><line style="stroke:#181818;stroke-width:0.5;stroke-dasharray:5.0,5.0;" x1="3110.5" x2="3110.5" y1="80.5781" y2="2203.7656"/><line style="stroke:#181818;stroke-width:0.5;stroke-dasharray:5.0,5.0;" x1="3466" x2="3466" y1="80.5781" y2="2203.7656"/><line style="stroke:#181818;stroke-width:0.5;stroke-dasharray:5.0,5.0;" x1="3700" x2="3700" y1="80.5781" y2="2203.7656"/><line style="stroke:#181818;stroke-width:0.5;stroke-dasharray:5.0,5.0;" x1="4024.5" x2="4024.5" y1="80.5781" y2="2203.7656"/><line style="stroke:#181818;stroke-width:0.5;stroke-dasharray:5.0,5.0;" x1="4237.5" x2="4237.5" y1="80.5781" y2="2203.7656"/><line style="stroke:#181818;stroke-width:0.5;stroke-dasharray:5.0,5.0;" x1="4471.5" x2="4471.5" y1="80.5781" y2="2203.7656"/><line style="stroke:#181818;stroke-width:0.5;stroke-dasharray:5.0,5.0;" x1="4606.5" x2="4606.5" y1="80.5781" y2="2203.7656"/><line style="stroke:#181818;stroke-width:0.5;stroke-dasharray:5.0,5.0;" x1="5140.5" x2="5140.5" y1="80.5781" y2="2203.7656"/><rect fill="#E2E2F0" height="37.2813" rx="2.5" ry="2.5" style="stroke:#181818;stroke-width:0.5;" width="39" x="5" y="42.2969"/><text fill="#000000" font-family="sans-serif" font-size="20" lengthAdjust="spacing" textLength="25" x="12" y="67.8613">FE</text><rect fill="#E2E2F0" height="37.2813" rx="2.5" ry="2.5" style="stroke:#181818;stroke-width:0.5;" width="39" x="5" y="2202.7656"/><text fill="#000000" font-family="sans-serif" font-size="20" lengthAdjust="spacing" textLength="25" x="12" y="2228.3301">FE</text><rect fill="#E2E2F0" height="37.2813" rx="2.5" ry="2.5" style="stroke:#181818;stroke-width:0.5;" width="139" x="381" y="42.2969"/><text fill="#000000" font-family="sans-serif" font-size="20" lengthAdjust="spacing" textLength="125" x="388" y="67.8613">RoomRouter</text><rect fill="#E2E2F0" height="37.2813" rx="2.5" ry="2.5" style="stroke:#181818;stroke-width:0.5;" width="139" x="381" y="2202.7656"/><text fill="#000000" font-family="sans-serif" font-size="20" lengthAdjust="spacing" textLength="125" x="388" y="2228.3301">RoomRouter</text><rect fill="#E2E2F0" height="37.2813" rx="2.5" ry="2.5" style="stroke:#181818;stroke-width:0.5;" width="171" x="704" y="42.2969"/><text fill="#000000" font-family="sans-serif" font-size="20" lengthAdjust="spacing" textLength="157" x="711" y="67.8613">RoomController</text><rect fill="#E2E2F0" height="37.2813" rx="2.5" ry="2.5" style="stroke:#181818;stroke-width:0.5;" width="171" x="704" y="2202.7656"/><text fill="#000000" font-family="sans-serif" font-size="20" lengthAdjust="spacing" textLength="157" x="711" y="2228.3301">RoomController</text><rect fill="#E2E2F0" height="37.2813" rx="2.5" ry="2.5" style="stroke:#181818;stroke-width:0.5;" width="145" x="1007" y="42.2969"/><text fill="#000000" font-family="sans-serif" font-size="20" lengthAdjust="spacing" textLength="131" x="1014" y="67.8613">RoomService</text><rect fill="#E2E2F0" height="37.2813" rx="2.5" ry="2.5" style="stroke:#181818;stroke-width:0.5;" width="145" x="1007" y="2202.7656"/><text fill="#000000" font-family="sans-serif" font-size="20" lengthAdjust="spacing" textLength="131" x="1014" y="2228.3301">RoomService</text><rect fill="#E2E2F0" height="37.2813" rx="2.5" ry="2.5" style="stroke:#181818;stroke-width:0.5;" width="178" x="1164.5" y="42.2969"/><text fill="#000000" font-family="sans-serif" font-size="20" lengthAdjust="spacing" textLength="164" x="1171.5" y="67.8613">RoomRepository</text><rect fill="#E2E2F0" height="37.2813" rx="2.5" ry="2.5" style="stroke:#181818;stroke-width:0.5;" width="178" x="1164.5" y="2202.7656"/><text fill="#000000" font-family="sans-serif" font-size="20" lengthAdjust="spacing" textLength="164" x="1171.5" y="2228.3301">RoomRepository</text><rect fill="#E2E2F0" height="37.2813" rx="2.5" ry="2.5" style="stroke:#181818;stroke-width:0.5;" width="153" x="1352.5" y="42.2969"/><text fill="#000000" font-family="sans-serif" font-size="20" lengthAdjust="spacing" textLength="139" x="1359.5" y="67.8613">RoomSchema</text><rect fill="#E2E2F0" height="37.2813" rx="2.5" ry="2.5" style="stroke:#181818;stroke-width:0.5;" width="153" x="1352.5" y="2202.7656"/><text fill="#000000" font-family="sans-serif" font-size="20" lengthAdjust="spacing" textLength="139" x="1359.5" y="2228.3301">RoomSchema</text><rect fill="#E2E2F0" height="37.2813" rx="2.5" ry="2.5" style="stroke:#181818;stroke-width:0.5;" width="147" x="1515.5" y="42.2969"/><text fill="#000000" font-family="sans-serif" font-size="20" lengthAdjust="spacing" textLength="133" x="1522.5" y="67.8613">RoomMapper</text><rect fill="#E2E2F0" height="37.2813" rx="2.5" ry="2.5" style="stroke:#181818;stroke-width:0.5;" width="147" x="1515.5" y="2202.7656"/><text fill="#000000" font-family="sans-serif" font-size="20" lengthAdjust="spacing" textLength="133" x="1522.5" y="2228.3301">RoomMapper</text><rect fill="#E2E2F0" height="37.2813" rx="2.5" ry="2.5" style="stroke:#181818;stroke-width:0.5;" width="115" x="1746.5" y="42.2969"/><text fill="#000000" font-family="sans-serif" font-size="20" lengthAdjust="spacing" textLength="101" x="1753.5" y="67.8613">RoomDTO</text><rect fill="#E2E2F0" height="37.2813" rx="2.5" ry="2.5" style="stroke:#181818;stroke-width:0.5;" width="115" x="1746.5" y="2202.7656"/><text fill="#000000" font-family="sans-serif" font-size="20" lengthAdjust="spacing" textLength="101" x="1753.5" y="2228.3301">RoomDTO</text><rect fill="#E2E2F0" height="37.2813" rx="2.5" ry="2.5" style="stroke:#181818;stroke-width:0.5;" width="213" x="1871.5" y="42.2969"/><text fill="#000000" font-family="sans-serif" font-size="20" lengthAdjust="spacing" textLength="199" x="1878.5" y="67.8613">AppointmentRouter</text><rect fill="#E2E2F0" height="37.2813" rx="2.5" ry="2.5" style="stroke:#181818;stroke-width:0.5;" width="213" x="1871.5" y="2202.7656"/><text fill="#000000" font-family="sans-serif" font-size="20" lengthAdjust="spacing" textLength="199" x="1878.5" y="2228.3301">AppointmentRouter</text><rect fill="#E2E2F0" height="37.2813" rx="2.5" ry="2.5" style="stroke:#181818;stroke-width:0.5;" width="245" x="2329.5" y="42.2969"/><text fill="#000000" font-family="sans-serif" font-size="20" lengthAdjust="spacing" textLength="231" x="2336.5" y="67.8613">AppointmentController</text><rect fill="#E2E2F0" height="37.2813" rx="2.5" ry="2.5" style="stroke:#181818;stroke-width:0.5;" width="245" x="2329.5" y="2202.7656"/><text fill="#000000" font-family="sans-serif" font-size="20" lengthAdjust="spacing" textLength="231" x="2336.5" y="2228.3301">AppointmentController</text><rect fill="#E2E2F0" height="37.2813" rx="2.5" ry="2.5" style="stroke:#181818;stroke-width:0.5;" width="219" x="2755.5" y="42.2969"/><text fill="#000000" font-family="sans-serif" font-size="20" lengthAdjust="spacing" textLength="205" x="2762.5" y="67.8613">AppointmentService</text><rect fill="#E2E2F0" height="37.2813" rx="2.5" ry="2.5" style="stroke:#181818;stroke-width:0.5;" width="219" x="2755.5" y="2202.7656"/><text fill="#000000" font-family="sans-serif" font-size="20" lengthAdjust="spacing" textLength="205" x="2762.5" y="2228.3301">AppointmentService</text><rect fill="#E2E2F0" height="37.2813" rx="2.5" ry="2.5" style="stroke:#181818;stroke-width:0.5;" width="252" x="2984.5" y="42.2969"/><text fill="#000000" font-family="sans-serif" font-size="20" lengthAdjust="spacing" textLength="238" x="2991.5" y="67.8613">AppointmentRepository</text><rect fill="#E2E2F0" height="37.2813" rx="2.5" ry="2.5" style="stroke:#181818;stroke-width:0.5;" width="252" x="2984.5" y="2202.7656"/><text fill="#000000" font-family="sans-serif" font-size="20" lengthAdjust="spacing" textLength="238" x="2991.5" y="2228.3301">AppointmentRepository</text><rect fill="#E2E2F0" height="37.2813" rx="2.5" ry="2.5" style="stroke:#181818;stroke-width:0.5;" width="227" x="3353" y="42.2969"/><text fill="#000000" font-family="sans-serif" font-size="20" lengthAdjust="spacing" textLength="213" x="3360" y="67.8613">AppointmentSchema</text><rect fill="#E2E2F0" height="37.2813" rx="2.5" ry="2.5" style="stroke:#181818;stroke-width:0.5;" width="227" x="3353" y="2202.7656"/><text fill="#000000" font-family="sans-serif" font-size="20" lengthAdjust="spacing" textLength="213" x="3360" y="2228.3301">AppointmentSchema</text><rect fill="#E2E2F0" height="37.2813" rx="2.5" ry="2.5" style="stroke:#181818;stroke-width:0.5;" width="221" x="3590" y="42.2969"/><text fill="#000000" font-family="sans-serif" font-size="20" lengthAdjust="spacing" textLength="207" x="3597" y="67.8613">AppointmentMapper</text><rect fill="#E2E2F0" height="37.2813" rx="2.5" ry="2.5" style="stroke:#181818;stroke-width:0.5;" width="221" x="3590" y="2202.7656"/><text fill="#000000" font-family="sans-serif" font-size="20" lengthAdjust="spacing" textLength="207" x="3597" y="2228.3301">AppointmentMapper</text><rect fill="#E2E2F0" height="37.2813" rx="2.5" ry="2.5" style="stroke:#181818;stroke-width:0.5;" width="146" x="3951.5" y="42.2969"/><text fill="#000000" font-family="sans-serif" font-size="20" lengthAdjust="spacing" textLength="132" x="3958.5" y="67.8613">Appointment</text><rect fill="#E2E2F0" height="37.2813" rx="2.5" ry="2.5" style="stroke:#181818;stroke-width:0.5;" width="146" x="3951.5" y="2202.7656"/><text fill="#000000" font-family="sans-serif" font-size="20" lengthAdjust="spacing" textLength="132" x="3958.5" y="2228.3301">Appointment</text><rect fill="#E2E2F0" height="37.2813" rx="2.5" ry="2.5" style="stroke:#181818;stroke-width:0.5;" width="260" x="4107.5" y="42.2969"/><text fill="#000000" font-family="sans-serif" font-size="20" lengthAdjust="spacing" textLength="246" x="4114.5" y="67.8613">AppointmentPersistence</text><rect fill="#E2E2F0" height="37.2813" rx="2.5" ry="2.5" style="stroke:#181818;stroke-width:0.5;" width="260" x="4107.5" y="2202.7656"/><text fill="#000000" font-family="sans-serif" font-size="20" lengthAdjust="spacing" textLength="246" x="4114.5" y="2228.3301">AppointmentPersistence</text><rect fill="#E2E2F0" height="37.2813" rx="2.5" ry="2.5" style="stroke:#181818;stroke-width:0.5;" width="189" x="4377.5" y="42.2969"/><text fill="#000000" font-family="sans-serif" font-size="20" lengthAdjust="spacing" textLength="175" x="4384.5" y="67.8613">AppointmentDTO</text><rect fill="#E2E2F0" height="37.2813" rx="2.5" ry="2.5" style="stroke:#181818;stroke-width:0.5;" width="189" x="4377.5" y="2202.7656"/><text fill="#000000" font-family="sans-serif" font-size="20" lengthAdjust="spacing" textLength="175" x="4384.5" y="2228.3301">AppointmentDTO</text><rect fill="#E2E2F0" height="37.2813" rx="2.5" ry="2.5" style="stroke:#181818;stroke-width:0.5;" width="60" x="4576.5" y="42.2969"/><text fill="#000000" font-family="sans-serif" font-size="20" lengthAdjust="spacing" textLength="46" x="4583.5" y="67.8613">MDR</text><rect fill="#E2E2F0" height="37.2813" rx="2.5" ry="2.5" style="stroke:#181818;stroke-width:0.5;" width="60" x="4576.5" y="2202.7656"/><text fill="#000000" font-family="sans-serif" font-size="20" lengthAdjust="spacing" textLength="46" x="4583.5" y="2228.3301">MDR</text><rect fill="#E2E2F0" height="37.2813" rx="2.5" ry="2.5" style="stroke:#181818;stroke-width:0.5;" width="108" x="5086.5" y="42.2969"/><text fill="#000000" font-family="sans-serif" font-size="20" lengthAdjust="spacing" textLength="94" x="5093.5" y="67.8613">Database</text><rect fill="#E2E2F0" height="37.2813" rx="2.5" ry="2.5" style="stroke:#181818;stroke-width:0.5;" width="108" x="5086.5" y="2202.7656"/><text fill="#000000" font-family="sans-serif" font-size="20" lengthAdjust="spacing" textLength="94" x="5093.5" y="2228.3301">Database</text><rect fill="#FFFFFF" height="699.3438" style="stroke:#181818;stroke-width:1.0;" width="10" x="19.5" y="90.5781"/><rect fill="#FFFFFF" height="1367.5625" style="stroke:#181818;stroke-width:1.0;" width="10" x="19.5" y="827.2031"/><rect fill="#FFFFFF" height="670.0625" style="stroke:#181818;stroke-width:1.0;" width="10" x="445.5" y="119.8594"/><rect fill="#FFFFFF" height="595.5" style="stroke:#181818;stroke-width:1.0;" width="10" x="784.5" y="157.1406"/><rect fill="#FFFFFF" height="520.9375" style="stroke:#181818;stroke-width:1.0;" width="10" x="1074.5" y="194.4219"/><rect fill="#FFFFFF" height="236.6875" style="stroke:#181818;stroke-width:1.0;" width="10" x="1248.5" y="231.7031"/><rect fill="#FFFFFF" height="162.125" style="stroke:#181818;stroke-width:1.0;" width="10" x="1424" y="268.9844"/><rect fill="#FFFFFF" height="124.8438" style="stroke:#181818;stroke-width:1.0;" width="10" x="1584" y="546.2344"/><rect fill="#FFFFFF" height="43.2813" style="stroke:#181818;stroke-width:1.0;" width="10" x="1799" y="583.5156"/><rect fill="#FFFFFF" height="1358.5625" style="stroke:#181818;stroke-width:1.0;" width="10" x="1973" y="827.2031"/><rect fill="#FFFFFF" height="1284" style="stroke:#181818;stroke-width:1.0;" width="10" x="2447" y="864.4844"/><rect fill="#FFFFFF" height="1209.4375" style="stroke:#181818;stroke-width:1.0;" width="10" x="2860" y="901.7656"/><rect fill="#FFFFFF" height="760.3438" style="stroke:#181818;stroke-width:1.0;" width="10" x="3105.5" y="1151.4531"/><rect fill="#FFFFFF" height="162.125" style="stroke:#181818;stroke-width:1.0;" width="10" x="3461.5" y="1188.7344"/><rect fill="#FFFFFF" height="162.125" style="stroke:#181818;stroke-width:1.0;" width="10" x="3461.5" y="1550.2656"/><rect fill="#FFFFFF" height="124.8438" style="stroke:#181818;stroke-width:1.0;" width="10" x="3695.5" y="1388.1406"/><rect fill="#FFFFFF" height="124.8438" style="stroke:#181818;stroke-width:1.0;" width="10" x="3695.5" y="1749.6719"/><rect fill="#FFFFFF" height="124.8438" style="stroke:#181818;stroke-width:1.0;" width="10" x="3695.5" y="1949.0781"/><rect fill="#FFFFFF" height="43.2813" style="stroke:#181818;stroke-width:1.0;" width="10" x="4019.5" y="939.0469"/><rect fill="#FFFFFF" height="43.2813" style="stroke:#181818;stroke-width:1.0;" width="10" x="4019.5" y="1786.9531"/><rect fill="#FFFFFF" height="43.2813" style="stroke:#181818;stroke-width:1.0;" width="10" x="4232.5" y="1425.4219"/><rect fill="#FFFFFF" height="43.2813" style="stroke:#181818;stroke-width:1.0;" width="10" x="4467" y="1986.3594"/><rect fill="#FFFFFF" height="87.5625" style="stroke:#181818;stroke-width:1.0;" width="10" x="4601.5" y="1026.6094"/><rect fill="#FFFFFF" height="87.5625" style="stroke:#181818;stroke-width:1.0;" width="10" x="5135.5" y="306.2656"/><rect fill="#FFFFFF" height="87.5625" style="stroke:#181818;stroke-width:1.0;" width="10" x="5135.5" y="1226.0156"/><rect fill="#FFFFFF" height="87.5625" style="stroke:#181818;stroke-width:1.0;" width="10" x="5135.5" y="1587.5469"/><polygon fill="#000000" points="433.5,115.8594,443.5,119.8594,433.5,123.8594,437.5,119.8594" style="stroke:#000000;stroke-width:1.0;"/><line style="stroke:#000000;stroke-width:1.0;" x1="29.5" x2="439.5" y1="119.8594" y2="119.8594"/><text fill="#000000" font-family="sans-serif" font-size="20" lengthAdjust="spacing" textLength="397" x="36.5" y="113.1426">Makes Http Request to get Room's data</text><polygon fill="#000000" points="772.5,153.1406,782.5,157.1406,772.5,161.1406,776.5,157.1406" style="stroke:#000000;stroke-width:1.0;"/><line style="stroke:#000000;stroke-width:1.0;" x1="455.5" x2="778.5" y1="157.1406" y2="157.1406"/><text fill="#000000" font-family="sans-serif" font-size="20" lengthAdjust="spacing" textLength="117" x="462.5" y="150.4238">getRooms()</text><polygon fill="#000000" points="1062.5,190.4219,1072.5,194.4219,1062.5,198.4219,1066.5,194.4219" style="stroke:#000000;stroke-width:1.0;"/><line style="stroke:#000000;stroke-width:1.0;" x1="794.5" x2="1068.5" y1="194.4219" y2="194.4219"/><text fill="#000000" font-family="sans-serif" font-size="20" lengthAdjust="spacing" textLength="81" x="801.5" y="187.7051">findAll()</text><polygon fill="#000000" points="1236.5,227.7031,1246.5,231.7031,1236.5,235.7031,1240.5,231.7031" style="stroke:#000000;stroke-width:1.0;"/><line style="stroke:#000000;stroke-width:1.0;" x1="1084.5" x2="1242.5" y1="231.7031" y2="231.7031"/><text fill="#000000" font-family="sans-serif" font-size="20" lengthAdjust="spacing" textLength="81" x="1091.5" y="224.9863">findAll()</text><polygon fill="#000000" points="1412,264.9844,1422,268.9844,1412,272.9844,1416,268.9844" style="stroke:#000000;stroke-width:1.0;"/><line style="stroke:#000000;stroke-width:1.0;" x1="1258.5" x2="1418" y1="268.9844" y2="268.9844"/><text fill="#000000" font-family="sans-serif" font-size="20" lengthAdjust="spacing" textLength="55" x="1265.5" y="262.2676">find()</text><polygon fill="#000000" points="5123.5,302.2656,5133.5,306.2656,5123.5,310.2656,5127.5,306.2656" style="stroke:#000000;stroke-width:1.0;"/><line style="stroke:#000000;stroke-width:1.0;" x1="1434" x2="5129.5" y1="306.2656" y2="306.2656"/><text fill="#000000" font-family="sans-serif" font-size="20" lengthAdjust="spacing" textLength="73" x="1441" y="299.5488">query()</text><line style="stroke:#000000;stroke-width:1.0;" x1="5145.5" x2="5187.5" y1="343.5469" y2="343.5469"/><line style="stroke:#000000;stroke-width:1.0;" x1="5187.5" x2="5187.5" y1="343.5469" y2="356.5469"/><line style="stroke:#000000;stroke-width:1.0;" x1="5146.5" x2="5187.5" y1="356.5469" y2="356.5469"/><polygon fill="#000000" points="5156.5,352.5469,5146.5,356.5469,5156.5,360.5469,5152.5,356.5469" style="stroke:#000000;stroke-width:1.0;"/><text fill="#000000" font-family="sans-serif" font-size="20" lengthAdjust="spacing" textLength="221" x="5152.5" y="336.8301">SELECT * FROM Room</text><polygon fill="#000000" points="1445,389.8281,1435,393.8281,1445,397.8281,1441,393.8281" style="stroke:#000000;stroke-width:1.0;"/><line style="stroke:#000000;stroke-width:1.0;stroke-dasharray:2.0,2.0;" x1="1439" x2="5139.5" y1="393.8281" y2="393.8281"/><text fill="#000000" font-family="sans-serif" font-size="20" lengthAdjust="spacing" textLength="141" x="1451" y="387.1113">returns Result</text><polygon fill="#000000" points="1269.5,427.1094,1259.5,431.1094,1269.5,435.1094,1265.5,431.1094" style="stroke:#000000;stroke-width:1.0;"/><line style="stroke:#000000;stroke-width:1.0;stroke-dasharray:2.0,2.0;" x1="1263.5" x2="1428" y1="431.1094" y2="431.1094"/><text fill="#000000" font-family="sans-serif" font-size="20" lengthAdjust="spacing" textLength="140" x="1275.5" y="424.3926">returns rooms</text><polygon fill="#000000" points="1095.5,464.3906,1085.5,468.3906,1095.5,472.3906,1091.5,468.3906" style="stroke:#000000;stroke-width:1.0;"/><line style="stroke:#000000;stroke-width:1.0;stroke-dasharray:2.0,2.0;" x1="1089.5" x2="1252.5" y1="468.3906" y2="468.3906"/><text fill="#000000" font-family="sans-serif" font-size="20" lengthAdjust="spacing" textLength="140" x="1101.5" y="461.6738">returns rooms</text><path d="M997,483.3906 L1091,483.3906 L1091,498.6719 L1081,508.6719 L997,508.6719 L997,483.3906 " fill="#EEEEEE" style="stroke:#000000;stroke-width:1.5;"/><rect fill="none" height="195.6875" style="stroke:#000000;stroke-width:1.5;" width="910" x="997" y="483.3906"/><text fill="#000000" font-family="sans-serif" font-size="20" font-weight="bold" lengthAdjust="spacing" textLength="49" x="1012" y="502.9551">loop</text><text fill="#000000" font-family="sans-serif" font-size="20" font-weight="bold" lengthAdjust="spacing" textLength="284" x="1106" y="503.9551">[for each room in rooms]</text><polygon fill="#000000" points="1572,542.2344,1582,546.2344,1572,550.2344,1576,546.2344" style="stroke:#000000;stroke-width:1.0;"/><line style="stroke:#000000;stroke-width:1.0;" x1="1084.5" x2="1578" y1="546.2344" y2="546.2344"/><text fill="#000000" font-family="sans-serif" font-size="20" lengthAdjust="spacing" textLength="141" x="1091.5" y="539.5176">toDTO(rooms)</text><polygon fill="#000000" points="1787,579.5156,1797,583.5156,1787,587.5156,1791,583.5156" style="stroke:#000000;stroke-width:1.0;"/><line style="stroke:#000000;stroke-width:1.0;" x1="1594" x2="1793" y1="583.5156" y2="583.5156"/><text fill="#000000" font-family="sans-serif" font-size="20" lengthAdjust="spacing" textLength="186" x="1601" y="576.7988">create(roomProps)</text><line style="stroke:#000000;stroke-width:1.0;" x1="1809" x2="1851" y1="625.7969" y2="625.7969"/><line style="stroke:#000000;stroke-width:1.0;" x1="1851" x2="1851" y1="625.7969" y2="638.7969"/><line style="stroke:#000000;stroke-width:1.0;" x1="1804" x2="1851" y1="638.7969" y2="638.7969"/><polygon fill="#000000" points="1814,634.7969,1804,638.7969,1814,642.7969,1810,638.7969" style="stroke:#000000;stroke-width:1.0;"/><text fill="#000000" font-family="sans-serif" font-size="20" lengthAdjust="spacing" textLength="79" x="1816" y="619.0801">create()</text><polygon fill="#000000" points="1095.5,667.0781,1085.5,671.0781,1095.5,675.0781,1091.5,671.0781" style="stroke:#000000;stroke-width:1.0;"/><line style="stroke:#000000;stroke-width:1.0;" x1="1089.5" x2="1588" y1="671.0781" y2="671.0781"/><text fill="#000000" font-family="sans-serif" font-size="20" lengthAdjust="spacing" textLength="173" x="1101.5" y="664.3613">returns roomDTO</text><polygon fill="#000000" points="805.5,711.3594,795.5,715.3594,805.5,719.3594,801.5,715.3594" style="stroke:#000000;stroke-width:1.0;"/><line style="stroke:#000000;stroke-width:1.0;" x1="799.5" x2="1078.5" y1="715.3594" y2="715.3594"/><text fill="#000000" font-family="sans-serif" font-size="20" lengthAdjust="spacing" textLength="256" x="811.5" y="708.6426">returns result(roomDTOs)</text><polygon fill="#000000" points="466.5,748.6406,456.5,752.6406,466.5,756.6406,462.5,752.6406" style="stroke:#000000;stroke-width:1.0;"/><line style="stroke:#000000;stroke-width:1.0;" x1="460.5" x2="788.5" y1="752.6406" y2="752.6406"/><text fill="#000000" font-family="sans-serif" font-size="20" lengthAdjust="spacing" textLength="305" x="472.5" y="745.9238">returns Operation Status Code</text><polygon fill="#000000" points="35.5,785.9219,25.5,789.9219,35.5,793.9219,31.5,789.9219" style="stroke:#000000;stroke-width:1.0;"/><line style="stroke:#000000;stroke-width:1.0;" x1="29.5" x2="449.5" y1="789.9219" y2="789.9219"/><text fill="#000000" font-family="sans-serif" font-size="20" lengthAdjust="spacing" textLength="305" x="41.5" y="783.2051">returns Operation Status Code</text><polygon fill="#000000" points="1961,823.2031,1971,827.2031,1961,831.2031,1965,827.2031" style="stroke:#000000;stroke-width:1.0;"/><line style="stroke:#000000;stroke-width:1.0;" x1="29.5" x2="1967" y1="827.2031" y2="827.2031"/><text fill="#000000" font-family="sans-serif" font-size="20" lengthAdjust="spacing" textLength="463" x="36.5" y="820.4863">Makes Http Request to create an appointment</text><polygon fill="#000000" points="2435,860.4844,2445,864.4844,2435,868.4844,2439,864.4844" style="stroke:#000000;stroke-width:1.0;"/><line style="stroke:#000000;stroke-width:1.0;" x1="1983" x2="2441" y1="864.4844" y2="864.4844"/><text fill="#000000" font-family="sans-serif" font-size="20" lengthAdjust="spacing" textLength="445" x="1990" y="857.7676">createAppointment(request, response, next)</text><polygon fill="#000000" points="2848,897.7656,2858,901.7656,2848,905.7656,2852,901.7656" style="stroke:#000000;stroke-width:1.0;"/><line style="stroke:#000000;stroke-width:1.0;" x1="2457" x2="2854" y1="901.7656" y2="901.7656"/><text fill="#000000" font-family="sans-serif" font-size="20" lengthAdjust="spacing" textLength="384" x="2464" y="895.0488">createAppointment(appointmentDTO)</text><polygon fill="#000000" points="4007.5,935.0469,4017.5,939.0469,4007.5,943.0469,4011.5,939.0469" style="stroke:#000000;stroke-width:1.0;"/><line style="stroke:#000000;stroke-width:1.0;" x1="2870" x2="4013.5" y1="939.0469" y2="939.0469"/><text fill="#000000" font-family="sans-serif" font-size="20" lengthAdjust="spacing" textLength="295" x="2877" y="932.3301">create(appointmentProps, id)</text><line style="stroke:#000000;stroke-width:1.0;" x1="4029.5" x2="4071.5" y1="981.3281" y2="981.3281"/><line style="stroke:#000000;stroke-width:1.0;" x1="4071.5" x2="4071.5" y1="981.3281" y2="994.3281"/><line style="stroke:#000000;stroke-width:1.0;" x1="4024.5" x2="4071.5" y1="994.3281" y2="994.3281"/><polygon fill="#000000" points="4034.5,990.3281,4024.5,994.3281,4034.5,998.3281,4030.5,994.3281" style="stroke:#000000;stroke-width:1.0;"/><text fill="#000000" font-family="sans-serif" font-size="20" lengthAdjust="spacing" textLength="79" x="4036.5" y="974.6113">create()</text><polygon fill="#000000" points="4589.5,1022.6094,4599.5,1026.6094,4589.5,1030.6094,4593.5,1026.6094" style="stroke:#000000;stroke-width:1.0;"/><line style="stroke:#000000;stroke-width:1.0;" x1="2870" x2="4595.5" y1="1026.6094" y2="1026.6094"/><text fill="#000000" font-family="sans-serif" font-size="20" lengthAdjust="spacing" textLength="676" x="2877" y="1019.8926">Make Http Request to set Operation Request's status to "Accepted"</text><line style="stroke:#000000;stroke-width:1.0;" x1="4611.5" x2="4653.5" y1="1063.8906" y2="1063.8906"/><line style="stroke:#000000;stroke-width:1.0;" x1="4653.5" x2="4653.5" y1="1063.8906" y2="1076.8906"/><line style="stroke:#000000;stroke-width:1.0;" x1="4612.5" x2="4653.5" y1="1076.8906" y2="1076.8906"/><polygon fill="#000000" points="4622.5,1072.8906,4612.5,1076.8906,4622.5,1080.8906,4618.5,1076.8906" style="stroke:#000000;stroke-width:1.0;"/><text fill="#000000" font-family="sans-serif" font-size="20" lengthAdjust="spacing" textLength="510" x="4618.5" y="1057.1738">Changes Operation Request's status to "Accepted"</text><polygon fill="#000000" points="2881,1110.1719,2871,1114.1719,2881,1118.1719,2877,1114.1719" style="stroke:#000000;stroke-width:1.0;"/><line style="stroke:#000000;stroke-width:1.0;" x1="2875" x2="4605.5" y1="1114.1719" y2="1114.1719"/><text fill="#000000" font-family="sans-serif" font-size="20" lengthAdjust="spacing" textLength="305" x="2887" y="1107.4551">returns Operation Status Code</text><polygon fill="#000000" points="3093.5,1147.4531,3103.5,1151.4531,3093.5,1155.4531,3097.5,1151.4531" style="stroke:#000000;stroke-width:1.0;"/><line style="stroke:#000000;stroke-width:1.0;" x1="2870" x2="3099.5" y1="1151.4531" y2="1151.4531"/><text fill="#000000" font-family="sans-serif" font-size="20" lengthAdjust="spacing" textLength="191" x="2877" y="1144.7363">save(appointment)</text><polygon fill="#000000" points="3449.5,1184.7344,3459.5,1188.7344,3449.5,1192.7344,3453.5,1188.7344" style="stroke:#000000;stroke-width:1.0;"/><line style="stroke:#000000;stroke-width:1.0;" x1="3115.5" x2="3455.5" y1="1188.7344" y2="1188.7344"/><text fill="#000000" font-family="sans-serif" font-size="20" lengthAdjust="spacing" textLength="153" x="3122.5" y="1182.0176">findOne(query)</text><polygon fill="#000000" points="5123.5,1222.0156,5133.5,1226.0156,5123.5,1230.0156,5127.5,1226.0156" style="stroke:#000000;stroke-width:1.0;"/><line style="stroke:#000000;stroke-width:1.0;" x1="3471.5" x2="5129.5" y1="1226.0156" y2="1226.0156"/><text fill="#000000" font-family="sans-serif" font-size="20" lengthAdjust="spacing" textLength="130" x="3478.5" y="1219.2988">query(query)</text><line style="stroke:#000000;stroke-width:1.0;" x1="5145.5" x2="5187.5" y1="1263.2969" y2="1263.2969"/><line style="stroke:#000000;stroke-width:1.0;" x1="5187.5" x2="5187.5" y1="1263.2969" y2="1276.2969"/><line style="stroke:#000000;stroke-width:1.0;" x1="5146.5" x2="5187.5" y1="1276.2969" y2="1276.2969"/><polygon fill="#000000" points="5156.5,1272.2969,5146.5,1276.2969,5156.5,1280.2969,5152.5,1276.2969" style="stroke:#000000;stroke-width:1.0;"/><text fill="#000000" font-family="sans-serif" font-size="20" lengthAdjust="spacing" textLength="449" x="5152.5" y="1256.5801">SELECT * FROM Appointment WHERE id = id</text><polygon fill="#000000" points="3482.5,1309.5781,3472.5,1313.5781,3482.5,1317.5781,3478.5,1313.5781" style="stroke:#000000;stroke-width:1.0;"/><line style="stroke:#000000;stroke-width:1.0;" x1="3476.5" x2="5139.5" y1="1313.5781" y2="1313.5781"/><text fill="#000000" font-family="sans-serif" font-size="20" lengthAdjust="spacing" textLength="141" x="3488.5" y="1306.8613">returns Result</text><polygon fill="#000000" points="3126.5,1346.8594,3116.5,1350.8594,3126.5,1354.8594,3122.5,1350.8594" style="stroke:#000000;stroke-width:1.0;"/><line style="stroke:#000000;stroke-width:1.0;" x1="3120.5" x2="3465.5" y1="1350.8594" y2="1350.8594"/><text fill="#000000" font-family="sans-serif" font-size="20" lengthAdjust="spacing" textLength="322" x="3132.5" y="1344.1426">returns appointmentPersistence</text><polygon fill="#000000" points="3683.5,1384.1406,3693.5,1388.1406,3683.5,1392.1406,3687.5,1388.1406" style="stroke:#000000;stroke-width:1.0;"/><line style="stroke:#000000;stroke-width:1.0;" x1="3115.5" x2="3689.5" y1="1388.1406" y2="1388.1406"/><text fill="#000000" font-family="sans-serif" font-size="20" lengthAdjust="spacing" textLength="280" x="3122.5" y="1381.4238">toPersistence(appointment)</text><polygon fill="#000000" points="4220.5,1421.4219,4230.5,1425.4219,4220.5,1429.4219,4224.5,1425.4219" style="stroke:#000000;stroke-width:1.0;"/><line style="stroke:#000000;stroke-width:1.0;" x1="3705.5" x2="4226.5" y1="1425.4219" y2="1425.4219"/><text fill="#000000" font-family="sans-serif" font-size="20" lengthAdjust="spacing" textLength="249" x="3712.5" y="1418.7051">create(persistenceProps)</text><line style="stroke:#000000;stroke-width:1.0;" x1="4242.5" x2="4284.5" y1="1467.7031" y2="1467.7031"/><line style="stroke:#000000;stroke-width:1.0;" x1="4284.5" x2="4284.5" y1="1467.7031" y2="1480.7031"/><line style="stroke:#000000;stroke-width:1.0;" x1="4237.5" x2="4284.5" y1="1480.7031" y2="1480.7031"/><polygon fill="#000000" points="4247.5,1476.7031,4237.5,1480.7031,4247.5,1484.7031,4243.5,1480.7031" style="stroke:#000000;stroke-width:1.0;"/><text fill="#000000" font-family="sans-serif" font-size="20" lengthAdjust="spacing" textLength="79" x="4249.5" y="1460.9863">create()</text><polygon fill="#000000" points="3126.5,1508.9844,3116.5,1512.9844,3126.5,1516.9844,3122.5,1512.9844" style="stroke:#000000;stroke-width:1.0;"/><line style="stroke:#000000;stroke-width:1.0;" x1="3120.5" x2="3699.5" y1="1512.9844" y2="1512.9844"/><text fill="#000000" font-family="sans-serif" font-size="20" lengthAdjust="spacing" textLength="322" x="3132.5" y="1506.2676">returns appointmentPersistence</text><polygon fill="#000000" points="3449.5,1546.2656,3459.5,1550.2656,3449.5,1554.2656,3453.5,1550.2656" style="stroke:#000000;stroke-width:1.0;"/><line style="stroke:#000000;stroke-width:1.0;" x1="3115.5" x2="3455.5" y1="1550.2656" y2="1550.2656"/><text fill="#000000" font-family="sans-serif" font-size="20" lengthAdjust="spacing" textLength="323" x="3122.5" y="1543.5488">create(appointmentPersistence)</text><polygon fill="#000000" points="5123.5,1583.5469,5133.5,1587.5469,5123.5,1591.5469,5127.5,1587.5469" style="stroke:#000000;stroke-width:1.0;"/><line style="stroke:#000000;stroke-width:1.0;" x1="3471.5" x2="5129.5" y1="1587.5469" y2="1587.5469"/><text fill="#000000" font-family="sans-serif" font-size="20" lengthAdjust="spacing" textLength="317" x="3478.5" y="1580.8301">insert(appointmentPersistence)</text><line style="stroke:#000000;stroke-width:1.0;" x1="5145.5" x2="5187.5" y1="1624.8281" y2="1624.8281"/><line style="stroke:#000000;stroke-width:1.0;" x1="5187.5" x2="5187.5" y1="1624.8281" y2="1637.8281"/><line style="stroke:#000000;stroke-width:1.0;" x1="5146.5" x2="5187.5" y1="1637.8281" y2="1637.8281"/><polygon fill="#000000" points="5156.5,1633.8281,5146.5,1637.8281,5156.5,1641.8281,5152.5,1637.8281" style="stroke:#000000;stroke-width:1.0;"/><text fill="#000000" font-family="sans-serif" font-size="20" lengthAdjust="spacing" textLength="618" x="5152.5" y="1618.1113">INSERT INTO Appointment VALUES (appointmentPersistence)</text><polygon fill="#000000" points="3482.5,1671.1094,3472.5,1675.1094,3482.5,1679.1094,3478.5,1675.1094" style="stroke:#000000;stroke-width:1.0;"/><line style="stroke:#000000;stroke-width:1.0;stroke-dasharray:2.0,2.0;" x1="3476.5" x2="5139.5" y1="1675.1094" y2="1675.1094"/><text fill="#000000" font-family="sans-serif" font-size="20" lengthAdjust="spacing" textLength="289" x="3488.5" y="1668.3926">returns CreatedAppointment</text><polygon fill="#000000" points="3126.5,1708.3906,3116.5,1712.3906,3126.5,1716.3906,3122.5,1712.3906" style="stroke:#000000;stroke-width:1.0;"/><line style="stroke:#000000;stroke-width:1.0;stroke-dasharray:2.0,2.0;" x1="3120.5" x2="3465.5" y1="1712.3906" y2="1712.3906"/><text fill="#000000" font-family="sans-serif" font-size="20" lengthAdjust="spacing" textLength="289" x="3132.5" y="1705.6738">returns CreatedAppointment</text><polygon fill="#000000" points="3683.5,1745.6719,3693.5,1749.6719,3683.5,1753.6719,3687.5,1749.6719" style="stroke:#000000;stroke-width:1.0;"/><line style="stroke:#000000;stroke-width:1.0;" x1="3115.5" x2="3689.5" y1="1749.6719" y2="1749.6719"/><text fill="#000000" font-family="sans-serif" font-size="20" lengthAdjust="spacing" textLength="325" x="3122.5" y="1742.9551">toDomain(CreatedAppointment)</text><polygon fill="#000000" points="4007.5,1782.9531,4017.5,1786.9531,4007.5,1790.9531,4011.5,1786.9531" style="stroke:#000000;stroke-width:1.0;"/><line style="stroke:#000000;stroke-width:1.0;" x1="3705.5" x2="4013.5" y1="1786.9531" y2="1786.9531"/><text fill="#000000" font-family="sans-serif" font-size="20" lengthAdjust="spacing" textLength="295" x="3712.5" y="1780.2363">create(appointmentProps, id)</text><line style="stroke:#000000;stroke-width:1.0;" x1="4029.5" x2="4071.5" y1="1829.2344" y2="1829.2344"/><line style="stroke:#000000;stroke-width:1.0;" x1="4071.5" x2="4071.5" y1="1829.2344" y2="1842.2344"/><line style="stroke:#000000;stroke-width:1.0;" x1="4024.5" x2="4071.5" y1="1842.2344" y2="1842.2344"/><polygon fill="#000000" points="4034.5,1838.2344,4024.5,1842.2344,4034.5,1846.2344,4030.5,1842.2344" style="stroke:#000000;stroke-width:1.0;"/><text fill="#000000" font-family="sans-serif" font-size="20" lengthAdjust="spacing" textLength="79" x="4036.5" y="1822.5176">create()</text><polygon fill="#000000" points="3126.5,1870.5156,3116.5,1874.5156,3126.5,1878.5156,3122.5,1874.5156" style="stroke:#000000;stroke-width:1.0;"/><line style="stroke:#000000;stroke-width:1.0;" x1="3120.5" x2="3699.5" y1="1874.5156" y2="1874.5156"/><text fill="#000000" font-family="sans-serif" font-size="20" lengthAdjust="spacing" textLength="208" x="3132.5" y="1867.7988">returns appointment</text><polygon fill="#000000" points="2881,1907.7969,2871,1911.7969,2881,1915.7969,2877,1911.7969" style="stroke:#000000;stroke-width:1.0;"/><line style="stroke:#000000;stroke-width:1.0;" x1="2875" x2="3109.5" y1="1911.7969" y2="1911.7969"/><text fill="#000000" font-family="sans-serif" font-size="20" lengthAdjust="spacing" textLength="208" x="2887" y="1905.0801">returns appointment</text><polygon fill="#000000" points="3683.5,1945.0781,3693.5,1949.0781,3683.5,1953.0781,3687.5,1949.0781" style="stroke:#000000;stroke-width:1.0;"/><line style="stroke:#000000;stroke-width:1.0;" x1="2870" x2="3689.5" y1="1949.0781" y2="1949.0781"/><text fill="#000000" font-family="sans-serif" font-size="20" lengthAdjust="spacing" textLength="209" x="2877" y="1942.3613">toDTO(appointment)</text><polygon fill="#000000" points="4455,1982.3594,4465,1986.3594,4455,1990.3594,4459,1986.3594" style="stroke:#000000;stroke-width:1.0;"/><line style="stroke:#000000;stroke-width:1.0;" x1="3705.5" x2="4461" y1="1986.3594" y2="1986.3594"/><text fill="#000000" font-family="sans-serif" font-size="20" lengthAdjust="spacing" textLength="264" x="3712.5" y="1979.6426">create(appointmentProps)</text><line style="stroke:#000000;stroke-width:1.0;" x1="4477" x2="4519" y1="2028.6406" y2="2028.6406"/><line style="stroke:#000000;stroke-width:1.0;" x1="4519" x2="4519" y1="2028.6406" y2="2041.6406"/><line style="stroke:#000000;stroke-width:1.0;" x1="4472" x2="4519" y1="2041.6406" y2="2041.6406"/><polygon fill="#000000" points="4482,2037.6406,4472,2041.6406,4482,2045.6406,4478,2041.6406" style="stroke:#000000;stroke-width:1.0;"/><text fill="#000000" font-family="sans-serif" font-size="20" lengthAdjust="spacing" textLength="79" x="4484" y="2021.9238">create()</text><polygon fill="#000000" points="2881,2069.9219,2871,2073.9219,2881,2077.9219,2877,2073.9219" style="stroke:#000000;stroke-width:1.0;"/><line style="stroke:#000000;stroke-width:1.0;" x1="2875" x2="3699.5" y1="2073.9219" y2="2073.9219"/><text fill="#000000" font-family="sans-serif" font-size="20" lengthAdjust="spacing" textLength="251" x="2887" y="2067.2051">returns appointmentDTO</text><polygon fill="#000000" points="2468,2107.2031,2458,2111.2031,2468,2115.2031,2464,2111.2031" style="stroke:#000000;stroke-width:1.0;"/><line style="stroke:#000000;stroke-width:1.0;" x1="2462" x2="2864" y1="2111.2031" y2="2111.2031"/><text fill="#000000" font-family="sans-serif" font-size="20" lengthAdjust="spacing" textLength="324" x="2474" y="2104.4863">returns result(appointmentDTO)</text><polygon fill="#000000" points="1994,2144.4844,1984,2148.4844,1994,2152.4844,1990,2148.4844" style="stroke:#000000;stroke-width:1.0;"/><line style="stroke:#000000;stroke-width:1.0;" x1="1988" x2="2451" y1="2148.4844" y2="2148.4844"/><text fill="#000000" font-family="sans-serif" font-size="20" lengthAdjust="spacing" textLength="305" x="2000" y="2141.7676">returns Operation Status Code</text><polygon fill="#000000" points="40.5,2181.7656,30.5,2185.7656,40.5,2189.7656,36.5,2185.7656" style="stroke:#000000;stroke-width:1.0;"/><line style="stroke:#000000;stroke-width:1.0;" x1="34.5" x2="1977" y1="2185.7656" y2="2185.7656"/><text fill="#000000" font-family="sans-serif" font-size="20" lengthAdjust="spacing" textLength="305" x="46.5" y="2179.0488">returns Operation Status Code</text><!--SRC=[hLNRRkCs47tdLmoIX_KMAR3TeZTZ6u0MPUm2KMr8sUqp8p4s6rbKITfjMlJVEwAaY9Ibf04Qm772ENCxCpmq3xAgkUQ7KkKFee12tFDZQTUgifdyIy3xTuHOQKi1D-8aIlWM4lO5cEGxz25aBmi1ub3RHpY8mvtGXhmnVKYuaPMmZxK0fUrU4J9Oyf8R0tyJm9yLpnzsMXsh8bAbqXy-d7Xv59kxtqHkhw_XadqVq_MFqr2jbCEiMRnYxwOnHkYJp8KBzStwVRoQWi7bvq_hd-8Vd8rghVveZrSbuiW_Vkqrdl2TcAuUBkFL-hlrgd51k9Mvh7bbOHq3D_WxEBn8bJgawcY5lcZCQNfkZd0IMfLb3udE8LdRO6lF9ZA8MXbfbNxiianKaULxSU1TY8aS2Q_hleJatCnkDwsDXJPQrqfMzY0gw_L9qrdKg5qQpIBzhcasdpPidgRR-OW31pIRJ-nHGPDPL6kVDM_ngaXZHTLtC5zMpoqDkKrOsfpYL-Z9kELttBHXsOeGmdChJzoAPlrm3x- -nXLOGi8VX86FrjQGYj-FmbYm2dR2GZFGDmOA33JuucwcgVEDbWsg0Pd5MmyGaJHoW6m9zx8gQ5a6zeoaMPiydWRWNkAd3H6ra300PiXS2hPQ0fQi7tqxzifMlJMBR-Be5hw2TRf9N4VEsCVMmXvrXVig3AeTAOGVnINf2-sHkkdN1xfocdAxbkU1s5UfL0ttA0zul7SGa5K7RLIaOoPPuWnmtWjdUUjCGvoaXIOEofQGQu7d3hlLgZx3inRFHlWMvXV8_C2ZLh2QCtn2H5Nqq_JOr8xDHUU6zGHqzUkH3WuRl4ZSIbL1Phaz6eXK8GAlgDkwTVmQhzJ_3xU-Mtiwk_OjDS0huCF52oxEqzyeNjILHAEUKk-oBdGRzAeXerQL4LTGYJ-jjwUeQTGnGREf03ou-RvVHgYZd3wDqiEw3RW2MVWUX8RuO2Aq2uSAqj9onef1CHZ8xWoe3AQb7H4NDCz5RKLnCMHj5AaHfpvqjEVLJfZ_7gbpfjahHjuaxUb9jqim_1JGuxE2Jm1-sXITpcmgiN224l2DWnhhpHZqZEXuGuLVFyOe5RA0d_5Nvq5V5A8kkske1_B9DoIOQrDtrvyJ50ytHqb2gBlzTFkqA_NWrQdB04S2joDuk5hRFjuhIq-2oKni-U0tFoc9jqxRbzs2sNtw9OlJM_owtGIJ-q9lFiSPp4RhNfLWc96hk_32J0rsJC_pNcTJPUh0PRKuzvgSw_yc6S-ETMwMBuEREvbvpU4R-DAgijcUV3WZb8tWOKkiZpTTPVF-ZRhAUlKVlNjZvGwcrsl-Qrw_vgLu_Uk73zI_]--></g></svg>